<svg id="Livello_1" data-name="Livello 1" xmlns="http://www.w3.org/2000/svg" viewBox="0 0 753.65 296.04">
  <defs>
    <style>
      .cls-1 {
        fill: #231f20;
      }

      .cls-2 {
        fill: none;
      }

      .cls-3 {
        fill: #fff100;
      }
    </style>
  </defs>
  <title>LOGO DEFINITIVOsul</title>
  <g>
    <path class="cls-1" d="M280.83,208.22v.05h0v0h0Zm75.6,35.65a40.52,40.52,0,0,0-8-12A32.19,32.19,0,0,0,337,224a33.78,33.78,0,0,0,9.7-7.34,37,37,0,0,0,6.75-10.51,31.31,31.31,0,0,0,2.56-12.5A36.45,36.45,0,0,0,351,174.45a35.35,35.35,0,0,0-13-12.7,35.85,35.85,0,0,0-18-4.56h-61a9.76,9.76,0,0,0-2.77.4l20.53,20.53c.4.36,2,1.81,4.39,4,.44.4,1.61,1.33,2.53,2a4.54,4.54,0,0,0,2.78.95h24.21a12.77,12.77,0,0,1,6.75,1.78,13.08,13.08,0,0,1,4.65,4.86,14.33,14.33,0,0,1,1.7,7,14.18,14.18,0,0,1-1.7,6.75,14,14,0,0,1-4.75,5.15,11.82,11.82,0,0,1-6.65,2H286.51a4.54,4.54,0,0,0-2.85,1c-1.24,1-2.89,2.35-3,2.46-2.49,2.32-4,3.69-4,3.69l-3-3s1.56-1.71,4.16-4.5c.54-.58,1.39-1.66,2.07-2.55a4.54,4.54,0,0,0,.93-2.75l.05-16.27a4.54,4.54,0,0,0-1-2.81c-.85-1.08-1.94-2.46-2-2.53-2.22-2.38-3.68-4-4.06-4.39l0,0-21.34-21.34a10.75,10.75,0,0,0-3.57,8.07V296h0l24.77-23.41.09-.09c.35-.39,1.82-2,4.07-4.4.16-.18,1.21-1.49,2-2.53a4.51,4.51,0,0,0,1-2.8v-18a4.54,4.54,0,0,0-1-2.81c-.84-1.06-1.92-2.42-2-2.53-2.6-2.78-4.16-4.49-4.16-4.49l3-3,4.5,4.16c.58.54,1.66,1.39,2.55,2.06a4.56,4.56,0,0,0,2.75.93H314A13,13,0,0,1,326,246.25a15.75,15.75,0,0,1,1.79,7.54,15.32,15.32,0,0,1-1.79,7.33,14.2,14.2,0,0,1-4.85,5.36,12.86,12.86,0,0,1-7.22,2H286.49a4.56,4.56,0,0,0-2.79,1l-2.13,1.67c-.14.11-4.17,3.83-4.82,4.42l0,0L255.06,296h67.08A37.92,37.92,0,0,0,341,291.38a35.45,35.45,0,0,0,13.39-13.19,38,38,0,0,0,5-19.64,36.35,36.35,0,0,0-2.95-14.68Zm-75.6-35.65v.05h0v0h0Z"/>
    <path class="cls-1" d="M62.5,30V34.2s2.31.11,6.12.24c.87,0,2.4.22,3.55.38a1.69,1.69,0,0,1,1.46,1.68v67.35a11.26,11.26,0,0,0,3.52,8.39,11.5,11.5,0,0,0,8.28,3.41h31.15v29.18H83.76a45.13,45.13,0,0,1-23.26-5.9A42.1,42.1,0,0,1,44.87,123.1a45,45,0,0,1-5.58-22.35V36.5a1.69,1.69,0,0,1,1.46-1.68c1.14-.16,2.68-.35,3.55-.38,3.81-.13,6.12-.24,6.12-.24V30s-2.31-.11-6.12-.24c-1.5-.06-5-.59-5-.59H0V0H116.58V29.16H73.63s-3.51.53-5,.59C64.81,29.88,62.5,30,62.5,30Z"/>
    <path class="cls-1" d="M642.73,21.55v123H608.08l0-68.21s-14-40.18-14.41-44.15c-.26-2.76-.39-9.43-.39-9.43h-4.41s-.11,6.67-.37,9.43c-.4,4-14.31,44.15-14.31,44.15l-.1,22.09a46.13,46.13,0,0,1-6.84,22.85,47.79,47.79,0,0,1-18.72,17.11,53.19,53.19,0,0,1-23,5.63,53.19,53.19,0,0,1-23-5.63,47.79,47.79,0,0,1-18.72-17.11,46.13,46.13,0,0,1-6.84-22.85l-.1-22.09s-13.91-40.18-14.31-44.15c-.26-2.76-.37-9.43-.37-9.43h-4.41s-.13,6.67-.39,9.43c-.38,4-14.41,44.15-14.41,44.15l0,68.21H408.32v-123c0-11.73,9.77-21.21,21.81-21.21h59.31c12,0,21.82,9.48,21.82,21.21V79.17s10.67,32,11.69,37.83c.47,2.72.37,11.43.37,11.43h4.41s-.1-8.71.37-11.43c1-5.88,11.68-37.83,11.68-37.83V21.55C539.78,9.82,549.56.34,561.6.34h59.31C633,.34,642.73,9.82,642.73,21.55Z"/>
    <path class="cls-1" d="M357.87,8.75a11.49,11.49,0,0,0-.61-1.5,12.19,12.19,0,0,0-3.66-4.58l-.31-.24A12.63,12.63,0,0,0,345.85,0H327.51s.11,22.28.24,26.09a42.34,42.34,0,0,0,.42,4.49l.17.52.55,1.69,15.78,49.91.21.67a4.53,4.53,0,0,0,.74,1.43c.62.81,1.34,1.71,1.82,2.22,2.6,2.79,4.16,4.5,4.16,4.5l-3,3s-1.71-1.56-4.5-4.16c-.29-.27-.71-.62-1.16-1a4.58,4.58,0,0,0-2.86-1H310.71a4.58,4.58,0,0,0-2.86,1c-.45.36-.87.71-1.16,1-2.79,2.6-4.5,4.16-4.5,4.16l-3-3s1.55-1.71,4.15-4.5c.49-.51,1.21-1.42,1.84-2.24a4.38,4.38,0,0,0,.72-1.39l.22-.68L321.93,32.8l.54-1.69.17-.52a39.86,39.86,0,0,0,.42-4.49c.13-3.81.24-26.09.24-26.09H305a12.58,12.58,0,0,0-7.43,2.42l-.32.24a12.19,12.19,0,0,0-3.66,4.58,10.2,10.2,0,0,0-.6,1.5l-44,136.09h37.44l7-21.34.46-1.4a4.54,4.54,0,0,0-.87-4.36l-.43-.49c-2.6-2.79-4.15-4.5-4.15-4.5l3-3s1.71,1.56,4.5,4.16c.58.54,1.65,1.38,2.54,2a4.51,4.51,0,0,0,2.75.94h48.66a4.51,4.51,0,0,0,2.75-.94c.89-.67,2-1.51,2.54-2,2.79-2.6,4.5-4.16,4.5-4.16l3,3s-1.56,1.71-4.16,4.5c-.13.14-.28.3-.43.49a4.54,4.54,0,0,0-.87,4.36l.45,1.39,7,21.35H401.9Z"/>
    <path class="cls-1" d="M458,165.57a10.44,10.44,0,0,0-.58-1.43,11.75,11.75,0,0,0-3.51-4.4l-.3-.23a12.13,12.13,0,0,0-7.13-2.32H428.92s.1,21.36.23,25a41.65,41.65,0,0,0,.4,4.3l.16.5.53,1.62,15.13,47.85.2.64a4.16,4.16,0,0,0,.71,1.37c.6.78,1.28,1.64,1.74,2.13,2.5,2.67,4,4.31,4,4.31l-2.85,2.86s-1.64-1.5-4.32-4c-.28-.26-.68-.59-1.11-.94a4.4,4.4,0,0,0-2.74-1H412.81a4.4,4.4,0,0,0-2.74,1c-.43.35-.83.68-1.11.94-2.68,2.49-4.32,4-4.32,4l-2.84-2.86s1.48-1.64,4-4.31c.46-.49,1.15-1.36,1.76-2.15a4.43,4.43,0,0,0,.69-1.33l.21-.65,15.13-47.86.52-1.62.16-.5a39.05,39.05,0,0,0,.4-4.3c0-.57.06-25,.06-25H407.3a12.08,12.08,0,0,0-7.12,2.32l-.31.23a11.75,11.75,0,0,0-3.51,4.4,9.26,9.26,0,0,0-.57,1.43L353.57,296h35.89l6.67-20.46.44-1.34a4.37,4.37,0,0,0-.83-4.18l-.41-.47c-2.5-2.68-4-4.31-4-4.31l2.85-2.86s1.63,1.49,4.31,4c.56.51,1.58,1.32,2.43,2a4.35,4.35,0,0,0,2.64.89h46.65a4.35,4.35,0,0,0,2.64-.89c.85-.65,1.87-1.46,2.43-2,2.68-2.5,4.32-4,4.32-4l2.85,2.86s-1.49,1.63-4,4.31l-.41.47a4.37,4.37,0,0,0-.84,4.18l.44,1.33L464.34,296h35.89L458,165.57Z"/>
    <path class="cls-1" d="M58.2,296q-16.86,0-30-7.13A51.94,51.94,0,0,1,7.55,268.52Q0,255.28,0,236.93V157.19H32.32V239A31.27,31.27,0,0,0,35.57,253a25.21,25.21,0,0,0,9.11,10.29,24.79,24.79,0,0,0,13.71,3.77A24.35,24.35,0,0,0,72,263.32a25.67,25.67,0,0,0,9-10.19A31.1,31.1,0,0,0,84.25,239V157.19h32.31v79.74q0,18.34-7.43,31.59A51.32,51.32,0,0,1,88.56,288.9Q75.44,296,58.19,296Z"/>
    <path class="cls-1" d="M280.83,208.22v.05h0v0h0Zm0,0v.05h0v0h0Zm0,0v.05h0v0h0Zm0,0v.05h0v0h0Zm0,0v.05h0v0h0Zm0,0v.05h0v0h0Zm0,0v.05h0v0h0Zm0,0v.05h0v0h0Zm0,0v.05h0v0h0Zm0,0v.05h0v0h0Zm0,0v.05h0v0h0Zm0,0v.05h0v0h0Z"/>
    <path class="cls-1" d="M235.39,116.07a6.71,6.71,0,0,1-3.63-.83,8.5,8.5,0,0,1-2.38-2.27L217.8,93.32a49.7,49.7,0,0,0,17.48-17.8,48.25,48.25,0,0,0,6.51-24.82q0-15.09-7.23-26.47A50.66,50.66,0,0,0,215.32,6.44,55.55,55.55,0,0,0,188.64,0H139.71a17.11,17.11,0,0,0-7.16,1.55L153,22.05s1.71,1.55,4.5,4.15c.1.1,1.49,1.19,2.55,2a4.48,4.48,0,0,0,2.77,1H184.7a24.87,24.87,0,0,1,11.07,2.48A19.94,19.94,0,0,1,203.94,39,21.27,21.27,0,0,1,207,50.7a21.58,21.58,0,0,1-3,11.59A19.85,19.85,0,0,1,196,69.84a24.48,24.48,0,0,1-11.28,2.58H162.8a4.56,4.56,0,0,0-2.75.93c-.88.68-2,1.52-2.53,2.06-2.79,2.6-4.5,4.16-4.5,4.16l-3-3s1.56-1.71,4.16-4.5c.55-.58,1.39-1.66,2.07-2.54a4.52,4.52,0,0,0,.92-2.74v-32a4.51,4.51,0,0,0-1-2.8c-.81-1-1.86-2.35-2-2.53C151.6,26.74,150,25,150,25L128.88,3.86a17.19,17.19,0,0,0-6.44,13.44V144.83h34.75V106.7a4.52,4.52,0,0,0-.92-2.74c-.68-.89-1.52-2-2.07-2.54-2.6-2.79-4.16-4.5-4.16-4.5l3-3s1.71,1.56,4.5,4.16c.58.54,1.65,1.38,2.53,2.05a4.51,4.51,0,0,0,2.76.94h20.65l5.07,9.08L199,128.69a33.65,33.65,0,0,0,29,16.14h15V116.08h-7.58Z"/>
    <path class="cls-1" d="M230.86,268.45a6.43,6.43,0,0,1-3.48-.8,8.19,8.19,0,0,1-2.28-2.17L214,246.63a47.58,47.58,0,0,0,16.76-17.06,46.3,46.3,0,0,0,6.24-23.8q0-14.47-6.93-25.38a48.52,48.52,0,0,0-18.45-17.06A53.29,53.29,0,0,0,186,157.18H139.12a16.47,16.47,0,0,0-6.84,1.48L152,178.38l.2.19c.58.53,2,1.83,4,3.71.1.09,1.43,1.14,2.45,1.95a4.3,4.3,0,0,0,2.65.91h21a23.91,23.91,0,0,1,10.62,2.38,19.12,19.12,0,0,1,7.83,7,20.46,20.46,0,0,1,3,11.2,20.74,20.74,0,0,1-2.87,11.11,19,19,0,0,1-7.73,7.24,23.47,23.47,0,0,1-10.82,2.47h-21a4.32,4.32,0,0,0-2.64.9c-.85.65-1.87,1.46-2.43,2-2.67,2.49-4.31,4-4.31,4L149,230.59s1.49-1.64,4-4.31c.52-.56,1.33-1.59,2-2.44a4.33,4.33,0,0,0,.88-2.62V190.57a4.31,4.31,0,0,0-.92-2.68c-.78-1-1.79-2.26-1.94-2.43l-2.92-3.14-.06.06L128.61,161a16.54,16.54,0,0,0-6.05,12.79V296h33.32V259.47a4.34,4.34,0,0,0-.88-2.63c-.65-.85-1.46-1.89-2-2.44-2.5-2.67-4-4.31-4-4.31l2.86-2.86s1.64,1.49,4.31,4c.56.51,1.58,1.32,2.43,2a4.31,4.31,0,0,0,2.64.89h19.8l4.86,8.71,10,17.76A32.25,32.25,0,0,0,223.72,296L243,296V268.46H230.86Z"/>
    <polyline class="cls-2" points="280.84 208.26 280.83 208.27 280.83 208.22 280.84 208.23"/>
    <path class="cls-1" d="M641.91,285.8A10,10,0,0,1,632.17,296H599.66c-20.65,0-39.4-17.62-39.4-39.35V213.36h0v-.08s-6.13-20.18-7.67-30.8c-.13-.83-.23-1.57-.29-2.26-.2-2.34-.29-8-.29-8h-4.36s-.07,5.64-.29,8c-.06.67-.14,1.41-.28,2.2-1.49,10.11-7.19,28.94-7.74,30.72a.63.63,0,0,1,0,.14v.08h0V296H504.65l0-126.37c0-6.89,5.3-12.48,11.85-12.48h57.69a12.26,12.26,0,0,1,12.25,12.25v72.38h0c.32,1.07,6.35,20.9,7.78,31.15h0c.08.67.16,1.3.22,1.89.21,2.34.3,8,.3,8h4.34s.09-5.64.29-8c.06-.63.15-1.3.25-2,1.49-10.28,7.41-29.94,7.73-31V157.18H641.9l0,128.61Z"/>
    <path class="cls-1" d="M649.18,41.56v1.08c0-.17,0-.35,0-.52S649.17,41.74,649.18,41.56Z"/>
    <path class="cls-1" d="M649.18,101.76v1.65c0-.36,0-.73,0-1.09C649.17,102.13,649.17,101.94,649.18,101.76Z"/>
    <path class="cls-1" d="M679.63,22.14l-3,3s1.56,1.71,4.16,4.5c.55.58,1.39,1.65,2.06,2.54a4.54,4.54,0,0,1,.93,2.75V52.77a4.46,4.46,0,0,0,4.46,4.46h58.35V86.4H688.26a4.46,4.46,0,0,0-4.46,4.46V110.8a4.57,4.57,0,0,1-.93,2.76c-.6.79-1.33,1.69-1.81,2.2-2.6,2.79-4.16,4.5-4.16,4.5l3,3s1.71-1.56,4.5-4.16c.5-.47,1.61-1.34,2.67-2.14a4.51,4.51,0,0,1,2.76-.94h63.84v29.17H661c-6.55,0-11.85-5.59-11.85-12.48V104.51h.05c0-.36,0-.72,0-1.08v-1.65a37.77,37.77,0,0,1,3.93-16.51,41.3,41.3,0,0,1,11-13.75,45.4,45.4,0,0,1-11-13.35,34.8,34.8,0,0,1-3.93-15.51V41.58c0-.19,0-.38,0-.56h0V12.81c0-6.89,5.3-12.48,11.85-12.48h92.63v29H689.41a4.56,4.56,0,0,1-2.78-.95c-1-.75-2-1.56-2.5-2C681.34,23.7,679.63,22.14,679.63,22.14Z"/>
    <path class="cls-1" d="M678.37,178.1,675.51,181s1.5,1.64,4,4.31c.52.55,1.33,1.58,2,2.43a4.32,4.32,0,0,1,.89,2.63v17.12a4.27,4.27,0,0,0,4.27,4.27H746.9v28H686.64a4.26,4.26,0,0,0-4.27,4.26v19.11a4.31,4.31,0,0,1-.9,2.65c-.59.76-1.27,1.62-1.73,2.11-2.49,2.67-4,4.31-4,4.31l2.86,2.86s1.64-1.5,4.31-4c.48-.45,1.55-1.28,2.56-2.06a4.37,4.37,0,0,1,2.65-.9h65.52v28H660.53c-6.28,0-11.36-5.36-11.36-12V257h.05c0-.35,0-.69,0-1V254.4A36.19,36.19,0,0,1,653,238.57a39.53,39.53,0,0,1,10.51-13.18A43.55,43.55,0,0,1,653,212.59a33.46,33.46,0,0,1-3.77-14.87v-1.58h0v-27c0-6.61,5.08-12,11.36-12h93.12v27.77h-65.9a4.38,4.38,0,0,1-2.67-.92c-.92-.72-1.91-1.5-2.4-1.95-2.67-2.49-4.31-4-4.31-4Z"/>
    <path class="cls-3" d="M649.19,41c0,.18,0,.37,0,.56V41Z"/>
    <path class="cls-3" d="M649.22,104.49h0v-1.08C649.19,103.77,649.2,104.13,649.22,104.49Z"/>
  </g>
</svg>
