<svg id="Livello_1" data-name="Livello 1" xmlns="http://www.w3.org/2000/svg" viewBox="0 0 841.89 841.89">
  <defs>
    <style>
      .cls-1 {
        fill: #231f20;
      }
    </style>
  </defs>
  <title>prove stampe</title>
  <g>
    <path class="cls-1" d="M489.67,194.38c17.74,16.54,18.64,17.74,6.61,38.18-6,9.93-14.13,18.64-21.95,27.66A23.11,23.11,0,0,1,455.69,268q-18-1.35-36.07-3.61c-6-.9-10.23-5.11-13.23-10.52-6-11.42-12.33-22.55-18.94-33.67a4.27,4.27,0,0,0-1.17-1.37,2.37,2.37,0,0,0-3.83,2,5.5,5.5,0,0,0,.49,2.11c4.51,8.72,9.2,15.64,13.41,24.66,2.71,6,4.93,21.64,4.33,22.24-58.75-32.44-96.51-86.88-99.82-90.49-1.2-1.5-3.78-4.19-5.41-3s-.3,4.51.6,6c6.31,8.71,12.63,17.43,19.84,25.25C338.74,233.17,364,256,394.36,272.55c27.36,14.73,56.22,14.43,85.09,6.31,13.83-3.9,23.15-15,32.16-25.55,8.12-9.32,15.94-18.94,24.06-28.56,2.43-2.92,6.7-4.55,7.51-3.91,1.44,1.12-2.12,7.94-.9,8.72s10.22-6.62,15-9.92c.91.9,11.13,14.43,1.81,26.75-23.15,31.27-51.41,57.13-83.58,78.77-9,6.32-19.55,7.22-30.07,8.12-31,2.71-60.13-3.91-88.39-16.23-32.17-14.13-62.53-30.67-86.89-56.53a5.05,5.05,0,0,0-2.18-1.19,2.1,2.1,0,0,0-2.11,3.43c19.05,21.4,80.37,65.37,150.84,75.45,0,9,.47,20-.43,28.44-1.2,10.53-15.33,21.65-25.86,22.25-13.83.9-25.55-4.81-36.68-11.72-24-15-48.1-30.07-71.85-45.4-14.13-9.32-29.16-15.64-46.3-16.54-.9,0-2.11-.6-3.91-.9.6-2.4.9-5.11,1.8-6.91,13.53-24.06,12.93-49.31,8.12-75.47-3-16.83-6.61-34-3.61-51.41,3.31-18.94,14.74-30.66,33.68-34.27,9.92-1.81,19.54-4.21,29.46-6.32,1.8-.3,4.51,0,5.41,1.21,8.72,12,20.75,20.14,33.07,27.66.3,0,.3.3.61.3,28.26,12.62,52.91,31.27,78.77,48.4,17.43,11.43,24.65,11.13,41.79-.9,5.11-3.61,9.62-7.52,14.43-11.12S484.86,198,489.67,194.38Z"/>
    <path class="cls-1" d="M630.37,215.73c-11.12,24.05-8.42,47.8-1.8,72.15,6,22.85,4.21,44.8-2.41,67.65-8.42,30.37-14.13,61.33-20.44,92.3a27.12,27.12,0,0,0,.9,12.93c1.2,5.11,5.11,5.71,9,2.4,2.71-2.4,4.81-6.91,9.32-4.51,5.41,3,8.12,8.72,6,14.13A153.47,153.47,0,0,1,618,500.44c-2.4,4.21-6.61,7.52-10.22,11.13-8.12,8.41-11.72,19.24-12.62,30.36-1.81,25-3.31,49.91-3.61,74.86,0,13.23,3.61,26.16,4.51,39.39q1.35,22.1.9,44.19c-.9,33.08,10.82,61,32.17,85.69,6.31,7.21,11.72,14.73,18.34,22.85-2.11.6-2.71.9-3.61.9-15.63.3-31.27.6-46.6,1.2-3.61,0-5.71-1.2-7.52-4.21-11.72-18.64-22.55-37.58-29.76-58.32-7.22-21.35-12.93-43.3-2.11-65.54,6-12.63,2.71-26.16-3-37.89-6.92-13.83-16.24-26.45-25-39.38-6-8.72-6.91-16.24,0-24,11.43-12.93,14.44-28.26,13.83-43.9-.6-14.13-3-28.26-5.71-42.39-3-14.43-12-25.55-25-32.47a207.5,207.5,0,0,0-25-11.72A47.6,47.6,0,0,1,462.31,428c-3-5.72-6.32-11.43-9.62-17.14-5.71-9-5.41-18.94-2.71-28.56,1.2-4.51,3.91-8.12,9.32-7.52,5.41.3,9.92,1.81,11.73,8.12A211.62,211.62,0,0,0,479.14,406c4.51,12.63,14.14,18,26.76,18,19.54,0,32.77,9.62,43.6,24.65a85.67,85.67,0,0,0,12,13.53c6.32,5.41,11.73,3.61,12.93-4.51a229.65,229.65,0,0,0,3.31-31.87c.9-19.84,3-40-3.91-59.53A43.23,43.23,0,0,0,561.52,348c-3.91-3.3-6.91-7.51-9.92-11.72a5,5,0,0,1,.3-5.11c.84-1,6.63.25,7.52.6,10.14,4,15.63,1.2,13.83-9.92-2.71-15-5.11-30.37-16.24-42.39a25.66,25.66,0,0,1-2.4-3.61c-6-10.22-5.71-10.22,1.5-19.54,4.51-6,8.72-12.33,12.93-18.64,23.15,27.05,37.58,95,38.78,95a69.46,69.46,0,0,0,3.61-8.42c4.51-16.83,3.31-33.67-1.5-50.21-5.72-20.14-10.53-40.58-9.92-61.93,0-3.31-3.61-7.22-6-10.22-3.61-4.51-12.77-7.08-12.32-13.23.14-1.92,1.8-1.5,2.1-1.5,9.92,2.4,10.52,1.8,10.52-8.42,0-8.42-4.51-14.73-9.62-20.75-4.21-4.81-9-8.72-13.23-13.53-4.81-5.41-4.21-7.51,1.21-11.42,9.62-7.22,12.62-27.06,5.11-38.18A141.58,141.58,0,0,0,557,71.12C546.79,61.5,545.89,50.37,549.8,38a14.74,14.74,0,0,1,3.3-6c1.51-1.5,3.87-3.79,6-3,1.89.69,2.4,3.9,2.1,5.41-2.4,14.13,6.92,23.45,14.13,33.67a26,26,0,0,0,3.91,4.21c16.54,13.23,18,31.27,15.63,50.21-1.5,12-.6,22.85,7.82,33.67,9.32,11.42,13.83,25.86,10.52,41.49a7.69,7.69,0,0,0-.3,3.61c.6,2.4,1.21,6,3,6.61,1.8.9,5.41,0,7.22-1.5,3.3-2.41,4.34-10.47,8.11-9C631.83,197.6,632.78,210.62,630.37,215.73Z"/>
    <path class="cls-1" d="M387.45,397.62c-.3,24.35,14.73,42.69,31,60.13,4.81,5.11,10.23,10.22,14.74,15.63,5.11,6.32,4.51,9-1.21,14.44-14.13,13.22-31.57,21-49,29.16a92.68,92.68,0,0,1-45.7,9.32c-16.54-.9-33.07-1.2-49.91-2.41-19.54-1.5-38.18-7.21-56.22-14.73-3.31-1.2-6.61-3-9.92-3.91-8.42-2.4-16.54-3.6-23.15,4.51-5.11-12.32-3.91-24.35-2.11-36.38,4.51-28,7.82-56.22,14.43-83.88,5.12-21.34,14.44-42.09,21.95-62.83,1.2-3.61,3.31-5.11,7.52-5.11,13.83.3,25.55,6,37,12.92,28.86,18.34,58,36.38,87.19,54.12C370,393.11,378.43,394.61,387.45,397.62Z"/>
    <path class="cls-1" d="M367.3,533.21c17.44-8.42,35.18-16.83,53.22-25.55,6.91,9.62,9.62,20.74,11.12,31.87,1.51,13.53,2.41,27.36,2.71,40.88.3,23.76,1.2,46.91,8.72,69.76,2.4,7.21,3,15.33,4.21,22.84.9,4.82-.91,8.12-6.32,9-13.23,2.41-26.45,4.81-39.68,6.62-1.51.3-3.91-1.5-4.81-3C383.24,664.9,373.62,643,373.92,618c.3-13.53,1.5-27.36,2.1-40.89.3-7.52.9-15.34-.3-22.55C373.92,547.64,370.31,540.73,367.3,533.21Z"/>
    <path class="cls-1" d="M261.48,708.49c2.4-27.36-10.83-52.31-3.91-78.47,3.3-12.93,6.91-25.85,10.22-38.78,3.61-13.23,3.91-27.06,3-40.59-.61-7.21,0-14.73,0-22.85,3.9.6,7.81,1.2,11.72,1.5,11.43.61,22.85.91,34,1.21,3.91,0,5.72,1.2,6.92,5.11,3.91,12.93,2.7,25.85-.6,38.48-11.13,40.29-16.05,84.18-16.05,126,0,5.41-1.5,8.12-7.21,8.42C286.92,709.39,274.14,708.72,261.48,708.49Z"/>
    <path class="cls-1" d="M402.48,695.26c15-2.7,29.16-5.41,43.89-8.11,2.41,7.81,5.42,15.93,7.82,24.35,9.62,33.67,30.37,58,61.33,74.26A132.43,132.43,0,0,1,536,799c5.11,3.9,4.51,7.81-1.81,9-9.62,1.8-19.54,3-29.46,2.4-9.32-.6-18.34-3.61-27.66-5.71-12-2.71-24.05-6-36.08-8.42-15.93-3-20.14-8.12-20.74-24.65-.3-8.12-1.51-16.54-4.81-23.75-6.32-14.13-9-29.17-11.13-44.5Z"/>
    <path class="cls-1" d="M314.09,118.62c-5.41-4.21-6.62-10.52-3.31-18.64,3.31-8.42,7.52-11.13,15.33-10.52,32.78,2.4,65.55,4.51,96.51,16.53,6.32,2.41,12.33,5.41,18.64,7.82,3.91,1.5,4.51,4.21,2.41,7.21a72.53,72.53,0,0,1-7.22,9.62c-5.71,6.32-11.72,12-17.43,18-3.31,3.61-5.72,3-8.72-1.8-1.21-1.8-3.08-4.74-4.81-3.91-2.17,1,2,10.84,2.57,12.65l-1.53,1.57c-2.71-1.8-5.85-4.3-8.86-5.5-1.5-.6-5.05-.88-5.71,1.2-.59,1.84,2.1,3,3.3,3.91a88.54,88.54,0,0,0,7.82,5.11c-3.91,7.22-9.92,10.83-17.14,12-6.91,1.2-10.22-3.91-13.22-8.72-5.72-9.32-9.32-19.54-9-31,0-1.5-.52-4.18-2.11-4.51s-3.31,2.71-3.31,3.91c.3,6,.3,12.33,1.81,18s4.21,11.42,6.61,17.14c-3.61,4.81-7.81,5.11-12.62,1.5-11.73-8.12-23.76-15.93-35.48-24.05-3-2.11-5.11-5.41-8.42-9.32,11.12-4.21,21.05-8.12,31-11.73a6.69,6.69,0,0,1,4.81.3c9.62,3.61,19.54,1.21,25.55-6.31,1.21-1.2,3-4.23,1.51-5.41-2.11-1.68-7.52,3.61-8.72,4.51-4.51,3.31-9.62,5.11-14.73,1.8-4.82-3.31-5.12-8.12-4.21-13.53.3-3,2.59-8.21-.3-9-3.38-.93-6.62,13.53-6.92,16.24-.3,2.4-.3,6.61-1.2,6.91a27.67,27.67,0,0,1-11.43-.3c-4-1.13-3.6-5.11-3.3-7.81.3-3.31,6.91-14.7,5.11-15.94C321.38,92.6,316.79,112.31,314.09,118.62Zm100.11-6.31c-1.16.51-4.51,2.4-4.51,4.2,0,4.21,3.31,2.41,6,2.11,4.51-.6,7.21,1.8,8.72,6,.6,1.5,2.25,4,3.91,3.61,1.85-.44,2.1-3.91,1.8-5.41C429.24,117.12,421.37,109.17,414.2,112.31Z"/>
    <path class="cls-1" d="M263.88,712.1h35.18c0,15.33-.3,31,0,46.6a19.55,19.55,0,0,0,10.52,17.74c9.92,5.11,20.74,9,31.27,12.63,8.41,3,17.13,4.5,25.25,7.81,2.81,1.21,5.22,3.62,7.59,6.07a3.64,3.64,0,0,1-1,5.76c-2.71,1.39-5.42,2.71-8.13,2.9-15.94.91-31.87.61-47.81.91-10.82,0-21.94.3-32.77.3-6.31,0-12.62.3-18.94-.6-9-1.21-12.62-5.42-12.32-14.44A85,85,0,0,1,257,774.93a105.7,105.7,0,0,0,5.71-34.57C262.68,731.64,263.28,722.62,263.88,712.1Z"/>
    <path class="cls-1" d="M553.4,214.83c-1.5.9-3.6,2.1-5.71,3.3-6-6.91-11.42-4.21-22.85,10.83-6-8.42-11.72-16.84-18-24.66a118.81,118.81,0,0,0-13.22-14.43c-14.74-12.93-18.64-28.56-14.13-47.2,3.3-14.13,6.31-28.26,8.41-42.69,1.81-11.73-.3-23.15-7.21-33.07-7.22-10.22-8-24.48-3.91-33.07.65-1.36,4.08-4,5.71-3.61,4.62,1.13,9,5.71,9.92,9.32,5.11,22.85,12.93,45.4,8.72,70.05-2.4,13.23-1.5,27.36-1.8,40.89,0,2.7.3,5.71,1.5,7.81,6,9,12,17.74,18.64,26.16,1.5,1.8,5.57,4.28,8.12,3s2.4-5.41,2.4-7.82c-.9-7.82-2.7-15.63-3.6-23.75-.3-3-.88-8.64,2.4-9.62,3.47-1,6,4.21,8.12,6.91,1.5,1.81,1.2,4.81,1.8,7.22,1.21,9.32,1.51,18.94,3.91,28C544.69,197.69,549.5,205.81,553.4,214.83Z"/>
    <path class="cls-1" d="M339.94,66.31C379.63,72,419.32,76.83,456.3,93.36c4.51,2.11,8.41,6.62,11.12,11.13,1.2,2.1,0,7.51-2.11,9.32s-7.21,2.4-9.62.9C427.43,97.87,396.47,91,364.6,86.45c-13.23-1.8-26.76-2.11-40.29-3.31-2.1-.3-5.71-1.5-6-2.7a8.86,8.86,0,0,1,1.8-7.22C325.51,67.21,332.43,65.7,339.94,66.31Z"/>
    <path class="cls-1" d="M450.28,81.64C419,75,388.05,68.11,356.78,61.5c10.82-24.66,44.8-33.68,67.05-17.14C435.25,52.78,445.17,66.61,450.28,81.64Z"/>
    <path class="cls-1" d="M264.78,527.2v28.86c-.6.3-55-24.9-61.33-37-2.62-5-.9-8.72,4.81-9A30.64,30.64,0,0,1,220,511.57C234.42,516.68,249.15,521.79,264.78,527.2Z"/>
  </g>
</svg>
