<svg id="Livello_1" data-name="Livello 1" xmlns="http://www.w3.org/2000/svg" viewBox="0 0 841.89 841.89">
  <defs>
    <style>
      .cls-1 {
        fill: #231f20;
      }
    </style>
  </defs>
  <title>prove stampe</title>
  <path class="cls-1" d="M447,160.23c72.55,41.32,149.6,143.24,186.41,164.51,66.13,38.22,125.14-13.28,108.89,31.38C696.76,410.7,589.86,367,556.08,322,475.28,214.59,455.62,265.94,450.46,285s23,53,42.39,103.9c24.68,64.92,11,401.42,4.68,411.23-8.19,12.64-107.24,21.31-124-8.47-19.31-34.23-51.8-364.9-45.88-406s29.79-75.88,24.27-98.4c-26.16-58.6-56.86-16.52-113.48,59.67C172.73,420,130.83,400.73,108.83,396.45s-9.89-34.28,6.66-34.34c63.82-4.46,77.59-20.42,128.89-104.17s95.16-96.32,95.16-96.32c9.69-7,13-12.76,10.53-24.34-1-4.67-46.06-106.83,42.77-107.16,78.28-.3,49.5,98.43,47.29,106.82A23.11,23.11,0,0,0,447,160.23Z"/>
</svg>
