<svg id="Livello_1" data-name="Livello 1" xmlns="http://www.w3.org/2000/svg" viewBox="0 0 841.89 841.89">
  <defs>
    <style>
      .cls-1 {
        fill: #231f20;
      }
    </style>
  </defs>
  <title>prove stampe</title>
  <g>
    <path class="cls-1" d="M657.4,478.21c2.6,1.91,5.5,1.19,8.26.77a278,278,0,0,0,43-9.93,324.39,324.39,0,0,0,56.25-24.28c10.13-5.54,19.33-12.35,26.38-21.72a9.48,9.48,0,0,1,1.87-1.54c2.63-.36,4.74,1.06,6.82,2.24,3.89,2.19,4.36,5.9,1.22,9.17-8.54,8.93-17.9,16.8-28.94,22.57a295.17,295.17,0,0,1-30.1,13.84c-16.8,6.48-33.8,12.36-51.08,17.45a284.71,284.71,0,0,1-33.53,7.35c-3.63.61-7.24,1.37-10.84,2.13-2.15.45-3.33,2-2.64,3.2s2.27,1.9,4.19,1.62c15.41-2.25,30.42-6.3,45.49-10.07a392.28,392.28,0,0,0,58-19.91c13.21-5.6,25.64-12.75,37.77-20.41,1-.66,2-1.38,3-2.12,4.84-3.66,9.84-3.38,15-.68.78.41,1.38,2.49.83,3.19a23.64,23.64,0,0,1-2.28,2.86,86.15,86.15,0,0,1-16.79,12.36c-3.92,2.22-8,4.21-12,6.24-35.7,17.95-73.45,29.83-112.48,37.88-4,.82-8.06,1.12-12.09,1.7-1.07.15-1.26.82-1.1,1.84.13.86.41,1.46,1.42,1.62a17.91,17.91,0,0,0,3.62.44c3.27-.16,6.54-.4,9.79-.77,26.6-3,52-10.78,77.08-19.75A262.65,262.65,0,0,0,782.7,478c6.44-3.58,12.63-7.6,18.86-11.51a11.26,11.26,0,0,1,5.67-2.06c2.53-.1,4.93.93,5.2,2.23.38,1.84-.59,3.16-1.6,4.43C807,476,802.07,479.71,797,483.27c-10.76,7.61-22.55,13.31-34.72,18.22a350.32,350.32,0,0,1-55,17.13c-14,3.12-27.9,6.49-42,8.89-14.93,2.55-29.79,5.4-44.65,8.28-13.65,2.65-27.32,5.21-40.95,8a48.62,48.62,0,0,0-8.14,2.72c-.63.24-1.11,1.17-1.4,1.89a6.57,6.57,0,0,0-.39,2.42,126.08,126.08,0,0,0,5,33.92c1,3.46,2.79,4.76,6.1,4.84,5.32.15,10.64.26,16,.54,8.31.43,16,3.14,23.39,6.82a27.13,27.13,0,0,1,5,3.45c2.13,1.76,3.54,5.23,2.71,6.36-1.32,1.81-3.32,2.26-5.39,2.46-11.42,1.07-22.85,2-34.25,3.2-11,1.15-22,2.55-32.94,3.83-2.44.28-4.89.61-7.34.71-10.26.42-20.35,2.21-30.45,3.81a14.71,14.71,0,0,1-10.43-2.31,8.13,8.13,0,0,0-2.38.55c-4.89,2.82-9.44,1.12-13.91-1a2.27,2.27,0,0,1-.83-2,28.73,28.73,0,0,1,3.06-6.65c7.64-10.67,18.07-16.33,31.27-16.59,4.1-.08,8.2.15,12.3.13,3.27,0,6.56,0,9.81-.37a9.85,9.85,0,0,0,8.86-8.78,64,64,0,0,0,0-9.79c-.37-5.29-2.53-9.13-8.05-11.08-7.4-2.62-13.57-7.56-19.83-12.17a37.65,37.65,0,0,1-9.65-11.05,12.12,12.12,0,0,0-2.49-2.52,1.28,1.28,0,0,0-1.13-.18,1.86,1.86,0,0,0-.7,1,4.87,4.87,0,0,0,.57,4.64c2.43,3.73,4.91,7.43,7.31,11.06-.73.79-1.12,1.63-1.69,1.78a200.21,200.21,0,0,1-28.89,5.46c-11,1.33-22,2.24-33,2.71a415.46,415.46,0,0,1-58.92-1.92c-2-.2-4.09-.39-6.13-.5-21.12-1.08-41-7-60.5-14.82a212.21,212.21,0,0,1-58.33-35.94c-20.56-17.55-36.79-38.43-47.34-63.48-8.12-19.26-11.31-39.27-8.72-60.1.2-1.63.3-3.27.59-4.88a30.85,30.85,0,0,1,8.06-16.24,56.77,56.77,0,0,1,28.31-16.35c5.54-1.35,11.16-2.68,17-2.42,1.16.05,2.33-.53,3.92-.92-.92-1.12-1.46-2.32-2.38-2.79a11.33,11.33,0,0,0-7.22-.74c-14.66,2.53-28.79,6.41-40.41,16.43a4.87,4.87,0,0,1-2.12,1.18c-.7.13-1.87,0-2.17-.46a21,21,0,0,1-2.76-5.37c-.27-.9.47-2.25,1.06-3.2a3.92,3.92,0,0,1,2.06-1.24c25.3-8.14,50.6-16.26,75.7-24.31,4.16.5,6.46,3.82,9.7,5.51,1.51.78,1.79,2.63,1.35,4.35s-1,3.13-1.31,4.73c-1.63,9,1.42,16.2,8.63,21.55a38.67,38.67,0,0,0,20.56,7.28c4.47.34,8.95.5,13.16.72a5.27,5.27,0,0,1,0,5.1c-3.88,8-4.54,16.6-3.49,25.23a89.35,89.35,0,0,0,3.56,15.53,75.52,75.52,0,0,0,5.22,12.43A113.21,113.21,0,0,0,389,467.57c12.68,9.26,26.9,13.7,42.67,12.51a38.94,38.94,0,0,1,12.17.89,366.2,366.2,0,0,0,42.26,7.61c11.78,1.38,23.53,3.44,35.46,3.34.82,0,1.65,0,2.46.08,22.94,2.08,45.88,1.18,68.79-.32,14.28-.94,28.49-2.92,42.3-7,.78-.23,1.62-.29,2.39-.57,6.72-2.42,12.77-5.63,15.44-12.94a5.37,5.37,0,0,1,4.72-3.43,122.67,122.67,0,0,0,23.88-5.46,42.94,42.94,0,0,0,8.91-4c2.95-1.8,4.68-4.37,3.07-8.28a2.65,2.65,0,0,1,1.85-3.82c24.92-6.63,48.7-16.76,73.43-24A68.49,68.49,0,0,1,782,419.74a2.65,2.65,0,0,1,3,1.44c.61,1.38-.38,2.37-1.15,3.26a63.73,63.73,0,0,1-18.38,14.17,412.16,412.16,0,0,1-59.56,26c-10.06,3.52-20.21,6.68-30.73,8.46-4.83.82-9.73,1.25-14.59,1.89C658.71,475.22,657.83,476.49,657.4,478.21Z"/>
    <path class="cls-1" d="M629.11,417.05c-2.63,1.6-5.52.65-8.26,1a29.4,29.4,0,0,0-4.8.72c-.55.16-1,1.14-1.22,1.84-.32,1,.14,1.72,1,1.75,4.08.17,8.16.34,12.24.4,9,.14,18,.19,27,.32A20.88,20.88,0,0,1,667,426.34c-.65,1-1.07,2.41-2,3a40.87,40.87,0,0,1-15,5.29c-8.9,1.26-17.83,2.64-26.92,1.57-6.1-.72-12.29-.62-18.4-1.28-9.35-1-18.72-2.09-28-3.65-21.8-3.66-43.24-9-64.54-14.84a11,11,0,0,0-3.6-.44c-.49,0-1,.89-1.32,1.47-.13.23.15.9.43,1.08a11.61,11.61,0,0,0,3.13,1.77c22,6.25,44.15,12.14,66.9,15.33,8.1,1.14,16.12,3,24.25,3.81,15.91,1.61,31.88,2.65,47.85.67,7.82-1,15.13-3.48,21.37-8.54a4.22,4.22,0,0,1,4.64-.42c2.93,1.38,6.21,2.21,8.36,5,.65.83.72,2.7-.1,3.29a39.93,39.93,0,0,1-4,2.81,97.19,97.19,0,0,1-27.68,9.77c-7.61,1.55-15.27,3.15-23.13,2.91a6.3,6.3,0,0,0-1.23,0c-20,2.61-40.09,1.68-60.13-.22a273.82,273.82,0,0,1-35.07-6,236.94,236.94,0,0,1-28.33-8,10.41,10.41,0,0,0-3.59-.6,2.61,2.61,0,0,0-2.05,1,2.47,2.47,0,0,0,.72,2.16,9.92,9.92,0,0,0,3.13,1.79,215.41,215.41,0,0,0,38,9.75c9.67,1.67,19.4,3.14,29.15,4.27,6.5.76,13.08.77,19.63,1.11a278.52,278.52,0,0,0,40.55-.63c15.89-1.49,31.68-4.11,46.57-10.3,3.06-1.27,5.53-.6,8.16.74a2.59,2.59,0,0,1,.7,4.07c-2.6,2.85-6,4.21-9.52,5.36a123.59,123.59,0,0,1-22.74,5c-11.36,1.48-22.75,2.82-34.13,4.18-2.44.29-4.9.48-7.35.59-28.27,1.27-56.54,2-84.8.08a178.15,178.15,0,0,1-29.13-4.2,12.45,12.45,0,0,0-3.64-.36c-.61,0-1.21.66-1.73,1.12-.08.08.24.81.54,1,.95.74,1.9,1.79,3,2,6,1.18,11.94,2.66,18.06,3.45,25.33,3.31,50.74,2.27,76.14,2.1,5.72,0,11.45-.7,17.17-1.13,4.08-.3,8.16-.82,12.25-1a113.79,113.79,0,0,0,18.32-1.87,34.19,34.19,0,0,1,6.09-.23c1,0,1.59.54,1.48,1.54a4.88,4.88,0,0,1-.52,2.25,8.94,8.94,0,0,1-2.69,2.44,54.84,54.84,0,0,1-6.66,3.06A92.4,92.4,0,0,1,616.49,484a272.81,272.81,0,0,1-45.34,2.88c-10.66-.18-21.32,0-32-.27-7.77-.22-15.53-1-23.29-1.53-2.46-.17-4.9-.55-7.35-.65-12.71-.54-25.24-2.53-37.79-4.44-9.32-1.41-18.57-3-27.77-5a47.88,47.88,0,0,0-11-1c-17.16.21-32.15-5.7-45.1-16.53-10.12-8.47-18.3-18.82-25.24-30a64.8,64.8,0,0,1-9.61-32.66,53.63,53.63,0,0,1,1.67-13.36,23.14,23.14,0,0,1,7.6-12.37,44.59,44.59,0,0,1,21.79-10.53,112,112,0,0,1,33.05-.74c38.41,4.38,75.5,14.42,112,26.63,20.18,6.75,40.54,12.82,60.9,18.93,11.75,3.52,23.55,6.88,35.29,10.42C626.21,414.28,628.42,414.66,629.11,417.05Z"/>
    <path class="cls-1" d="M369.89,297c4.91-4.45,7.76-9.85,10-15.64,1-2.68,1.9-5.41,3-8.07a86.47,86.47,0,0,1,18.09-27.58,57.44,57.44,0,0,1,24.71-15.49c7.47-2.29,15.08-3.77,22.94-2,1,.21,2.24,1.92,2,2.74a51.44,51.44,0,0,1-2.39,7c-4.77,9.61-10.68,18.43-18.7,25.68a107.21,107.21,0,0,1-28.62,18.85c-2.24,1-4.67,1.64-6.79,2.83-3.32,1.87-5.59,4.62-5.78,8.65.51.18.92.48,1.28.43,14.13-2.16,28.26-4.37,42.4-6.52a11,11,0,0,0,6.3-3.5,30.77,30.77,0,0,0,7.38-12.59A67,67,0,0,1,456.24,251c13.59-17.79,31.76-26.51,54-27.2a7.62,7.62,0,0,1,3.59.48,4.15,4.15,0,0,1,2.15,2.64,29.48,29.48,0,0,1-1.91,12c-4.24,12.1-12,21.35-22.62,28.27a66.63,66.63,0,0,1-27.23,10.64,34.09,34.09,0,0,0-7.08,1.88,4.19,4.19,0,0,0-2.73,3.75c-.12,1.34.47,2.87,1.36,3a18.77,18.77,0,0,0,3.6.64c5.73,0,11.48.07,17.2-.19,11.05-.51,22.09-1.32,33.14-1.8,4.2-.18,8.11-.93,11.63-3.39,2-1.84,1.55-4.5,2.23-6.8.57-2,1.19-3.92,1.8-5.88a66.3,66.3,0,0,1,19.85-30.53c13.1-11.51,28.31-17.52,46-17.59a72,72,0,0,1,28.65,5.84,26.27,26.27,0,0,1,4.11,2.6,2.85,2.85,0,0,1,.8,3.31c-.74,1.46-1.42,3-2.28,4.34a45.78,45.78,0,0,1-9.74,11c-17.95,14.82-37.68,26.07-61.11,29.6-3.77.57-7.13,1.75-9.63,4.74-.21.25-.13.79-.06,1.18s.22.8.44.86a8.29,8.29,0,0,0,2.4.38c4.51-.17,9-.41,13.52-.62q16-.76,31.93-1.52c2.86-.13,5.76.05,8.59-.32,4.49-.6,8.76-1.73,12.2-5.13,8.74-8.64,19.84-13.08,31.39-16a109.77,109.77,0,0,1,68.7,4.53,54.38,54.38,0,0,1,14,7.58,2.85,2.85,0,0,1,.4,4.24c-.91.82-1.77,1.71-2.75,2.44a63,63,0,0,1-13.86,7.83c-14.16,5.81-28.77,9.36-44.15,9.42-2.87,0-5.74,0-8.61.06a85.07,85.07,0,0,1-35.89-6.83,18.38,18.38,0,0,0-4.65-.95c-.26,0-.74.4-.87.72a1.37,1.37,0,0,0,.08,1.18,10.12,10.12,0,0,0,2.62,2.41,75.88,75.88,0,0,0,16.08,5.93,72.2,72.2,0,0,0,7.18,1.63c12.48,1.66,22,8.52,30.23,17.4A73.22,73.22,0,0,1,686.52,345c1.72,5,0,5.82-3.85,7.27-6.35,2.42-12.9,2-19.35.44A66.55,66.55,0,0,1,642,343.44,90.66,90.66,0,0,1,609.26,306a29.76,29.76,0,0,1-1.94-4.51c-1.18-4.09-4.36-5.77-8-6.73a22.68,22.68,0,0,0-6.08-.71q-28.9.39-57.79,1a4.26,4.26,0,0,0-2.3.65,4.08,4.08,0,0,0-1.09,2c-.08.25.27.78.56,1a7.11,7.11,0,0,0,2,1.13c2,.57,4,1,5.94,1.49,10.12,2.31,17.4,8.52,23.61,16.55,11.45,14.77,17,31.57,18,50.06.07,1.22,0,2.45,0,3.68-.06,2.93-2.17,4.53-4.8,3.67a52.21,52.21,0,0,1-15.21-7.85,87.48,87.48,0,0,1-13.53-12.49A113.18,113.18,0,0,1,526,315.77c-2.58-7.83-6.82-13.84-14.09-18.19H461.71c-1.09,0-2.53,1.63-2.11,2.35a6.28,6.28,0,0,0,1.44,1.88,7.09,7.09,0,0,0,2.24.94c2,.57,3.93,1.17,5.93,1.61,6.56,1.46,12.15,4.8,17.29,9A66.86,66.86,0,0,1,501,330a92.86,92.86,0,0,1,13.24,36.7c.39,2.73-1.81,4.61-4.6,4-14.71-3.44-27.4-10.66-38.4-20.88a103.46,103.46,0,0,1-27-40.52c-1-2.69-1.83-5.43-2.78-8.13a4.27,4.27,0,0,0-4.86-2.81c-11.78,1.41-23.58,2.75-35.34,4.33a56.2,56.2,0,0,0-9.42,2.57c-.37.12-.71,1.42-.53,2a6.77,6.77,0,0,0,3.7,4.63c2.64,1.09,5.43,1.83,8.11,2.85a86.76,86.76,0,0,1,42.46,33.95,25.84,25.84,0,0,1,2.56,5.51,2,2,0,0,1-1,1.79c-3.65.94-7.32.33-11-.2-4.05-.59-8.06-1.59-12.12-1.85a26,26,0,0,1-14.63-5.73,83.34,83.34,0,0,1-21.6-24.9,17.3,17.3,0,0,0-5.69-6.22c-3.43-2.25-6.8-4.58-10.55-7.11-2.93,0-6.19-.15-9.44,0-4.5.25-9,.77-13.48,1.12-2.5.19-4.29-1.51-4.85-4.48-.5-2.69.24-4.36,2.36-4.86a58.13,58.13,0,0,1,8.41-1.65A77.48,77.48,0,0,0,369.89,297Z"/>
    <path class="cls-1" d="M174.22,310c2.17.5,3.75.15,4.48-1.56.94-2.25,1.63-4.61,2.37-6.95a75.52,75.52,0,0,1,14-25.76,65.46,65.46,0,0,1,8.83-8.46c1.51-1.25,3.62-1.79,5.51-2.53a2.9,2.9,0,0,1,3.75,2.15,31,31,0,0,1-1.22,14.56A72.09,72.09,0,0,1,199.05,305c-3.16,3.82-6.72,7.19-11.34,9.23-6.23,2.76-9.06,8-10.3,14.29a11,11,0,0,0-.08,2.44,5.49,5.49,0,0,0,6.55,5.51c7.56-1.76,15.17-3.38,22.64-5.48,26.77-7.49,53.49-15.16,80.23-22.76,2.76-.78,5.57-1.39,8.3-2.23a21.23,21.23,0,0,1,15.57.95c2.58,1.18,5.14,2.43,7.6,3.83.57.32.78,1.37,1,2.12.06.2-.33.71-.61.82-3.05,1.14-6.09,2.34-9.2,3.31-21.09,6.55-42.21,13-63.28,19.58-20.68,6.48-41.4,12.86-61.94,19.75-22.91,7.69-44.91,17.65-66.67,28.15-9.32,4.49-17.35,10.83-25.5,17A14.09,14.09,0,0,0,89,405.29a2.7,2.7,0,0,0-.07,2.26c2.45,4.8,6.76,6.89,11.81,7.72.7.11,1.53-.44,2.27-.76a2.36,2.36,0,0,0,1-.76c6.1-9.06,15.41-13.09,25.29-16.29a79.86,79.86,0,0,1,32.72-3.67,29.47,29.47,0,0,1,7,2,3,3,0,0,1,1.46,1.8,17.85,17.85,0,0,1,.5,3.6c.47,4.89.79,9.79,1.41,14.66.37,2.88,0,4.87-3.69,6.93A57.26,57.26,0,0,1,144.09,430c-8.32.56-16.29-1.16-24.18-3.48-1.56-.46-3.12-.94-4.7-1.31a3.44,3.44,0,0,0-4,2,5,5,0,0,0,1.58,4.35,20.67,20.67,0,0,0,3.2,1.81c2.28.89,4.66,1.5,6.94,2.4a83.44,83.44,0,0,1,32.18,22,56.82,56.82,0,0,1,12,19.84,38,38,0,0,1,1.82,12.09,4.25,4.25,0,0,1-5.1,4c-15.06-3-27.52-10.37-36.8-22.61-5.94-7.83-11.33-16.08-17-24.12-1.65-2.34-3.33-4.67-5.12-6.9-.39-.48-1.65-.93-2-.69a2.5,2.5,0,0,0-.8,2.1,18.85,18.85,0,0,0,1.92,4.42c5,8.44,10,16.94,15.31,25.21a19.22,19.22,0,0,1,3,14c-1.12,7.31-2.41,14.52-6.09,20.93-1.16-.06-2.19.2-2.72-.19a70.14,70.14,0,0,1-22.36-27.23C85.9,466.87,85.71,454.68,88,442.4c.67-3.52,2.84-6.75,4.2-10.17a4.59,4.59,0,0,0-.91-4.59c-4.74-6-11-8.29-18.49-7.32a9.91,9.91,0,0,0-4.39,2c-3.94,2.94-7.75,6-11.58,9.13-8,6.44-15.89,12.92-23.89,19.32a2.52,2.52,0,0,1-2.17.25,3.12,3.12,0,0,1-1.28-1.82,7.36,7.36,0,0,1-.1-2.44,55.37,55.37,0,0,0,.44-7.36c-.68-8.53,3.26-15,8.93-20.69a329,329,0,0,1,34.81-31.1,258.11,258.11,0,0,1,65.41-36c4.59-1.73,9.21-3.39,13.75-5.24a24.13,24.13,0,0,0,8.35-5.06,8.88,8.88,0,0,0,2.74-6.59,5.18,5.18,0,0,0-4.33-5.14c-2-.18-4.08-.27-6.13-.35a119.58,119.58,0,0,1-37.09-7.77,65.22,65.22,0,0,1-17.25-9.28c-4.59-3.52-8.68-7.49-10.86-13.06a3.73,3.73,0,0,1,2.11-5A18.6,18.6,0,0,1,95,292.81a39.81,39.81,0,0,1,12.18,1,133.75,133.75,0,0,1,44.67,19.69c2.39,1.59,4.63,3.38,7,5a10,10,0,0,0,3.35,1.4,3,3,0,0,0,3.32-1,2.74,2.74,0,0,0,.18-3.37c-1.81-2.19-3.84-4.21-5.74-6.34-4.08-4.59-8.31-9.05-12.15-13.83-7.39-9.2-11-20.05-12.81-31.52a22.46,22.46,0,0,1,.84-10.93,3.11,3.11,0,0,1,4.88-1.58c1,.69,2,1.35,3,2.1a79.05,79.05,0,0,1,24.89,33,59.28,59.28,0,0,1,2.7,9.41C172.43,300.56,172.93,305.45,174.22,310Z"/>
    <path class="cls-1" d="M230.91,289c-3.54-10.66-1.87-20.36,3.45-29.72a54.71,54.71,0,0,1,17.43-18.68c12.63-8.46,26.37-13,41.69-11.86a67.14,67.14,0,0,1,25.89,7c12.68,6.45,21,21.27,18.57,35.74a4,4,0,0,1-3,3.48c-6.73,1.72-13.48,3.35-20.24,5a51.68,51.68,0,0,0-6,1.3c-6.64,2.47-11-1-14.87-5.59-1.55-1.85-2.44-4.27-3.93-6.18a13.41,13.41,0,0,0-16.67-3.27,13.25,13.25,0,0,0-6,15.86,8.72,8.72,0,0,0,3,3.73c4.62,3.29,9.74,4.33,15.06,1.94,2.57-1.16,4.85-2.94,7.69-4.7l4,1.82c3,1.37,6.06,2.1,9.49,1.08a93.52,93.52,0,0,1,10.78-2.32c3.62-.64,7.27-1.21,10.93-1.55,3.19-.3,5.38,1.53,7,4.11a3.33,3.33,0,0,1-1.21,4.27,18.16,18.16,0,0,1-4.57,1.51c-2.38.34-4.82.28-7.22.47-.26,0-.57.62-.65,1a.91.91,0,0,0,.5.75c2.38.41,4.77.83,7.17,1.09,2,.21,4.07.1,6.07.37a2.55,2.55,0,0,1,1.84,1.41c1.83,7.49,4.46,14.87,3.65,22.78,0,.37-.28,1-.53,1A4.9,4.9,0,0,1,338,321a5.09,5.09,0,0,1-2-1.3c-1.79-1.69-3.46-3.49-5.26-5.16a61.64,61.64,0,0,0-23.23-13.33,19.83,19.83,0,0,0-12-.39c-12.19,3.46-24.42,6.78-36.63,10.16-9.45,2.62-18.88,5.31-28.35,7.84a60.35,60.35,0,0,1-7.24,1.18c-1,.15-2.22-1.52-1.89-2.55.26-.78.5-1.57.83-2.32,1.12-2.62,2-5.42,3.48-7.82,8.11-13,17.49-24.74,31.21-32.3,1.22-.67,1.58-2.19.8-2.94-1-1-2.1-.7-3.31-.23-4.31,1.64-7.72,4.6-11.08,7.59-3,2.72-5.86,5.72-8.93,8.43C233.57,288.52,232.22,288.59,230.91,289Z"/>
    <path class="cls-1" d="M421.64,570.74c-.66,1.42-.89,2.74-1.67,3.47-4.47,4.19-9.08,8.23-13.64,12.32-1.22,1.09-2.48,2.14-3.66,3.27s-2.95,2-2.54,3.79c.48,2.14,2.58,1.54,4,1.51a54.92,54.92,0,0,1,18.11,2.62,29.49,29.49,0,0,1,6.52,3.27c.93.6,1.46,1.91,2,3,.73,1.43-.77,4.73-2.28,5.13a21.78,21.78,0,0,1-3.56.71q-25,2.12-50.06,4.14c-3.25.26-6.52.36-9.78.61-6.11.46-12.21,1.05-18.32,1.44-8.56.55-17.12,1-25.69,1.42a3.87,3.87,0,0,1-4-2.24c-.71-1.58-1.69-2.73-3.57-2.79a2.9,2.9,0,0,1-2.91-1.77c-.76-2.11-2-3.52-4.35-3.55a2.63,2.63,0,0,1-2.64-2.07c-.51-1.82-2.08-2.36-3.38-3.27s-1-2.3-.45-3.28a20.52,20.52,0,0,1,3.57-4.92c4.85-4.61,10.7-7.13,17.31-8.48,10.71-2.2,21.13-.71,31.54,1.6a58,58,0,0,1,8.2,2.42c9.44,3.64,17.54,1.52,24.81-5.21,4.5-4.15,9.27-8,13.82-12.12a10.43,10.43,0,0,1,9-2.87C412.44,569.51,417,569.5,421.64,570.74Z"/>
    <path class="cls-1" d="M272.64,517.86c-1.2.09-2.49.49-3.58.19a18.6,18.6,0,0,1-4.4-2.13c-24-14.52-45.74-31.69-63.28-53.79A133.72,133.72,0,0,1,184.66,435a84.62,84.62,0,0,1-7.43-30.84,44.22,44.22,0,0,1,.47-7.34c.43-4.1,1.12-8.06,4.13-11.29,4-4.29,8.54-7.75,14.23-9.18a40.3,40.3,0,0,1,9.71-.79c3.54,0,5.08,1.91,4.9,5.52-.13,2.45-.33,4.9-.53,7.35a124.18,124.18,0,0,0,8,54.22c11.43,30.12,29.52,55.49,54.84,75.56Z"/>
    <path class="cls-1" d="M343.13,364.18c-6.64-.19-12.82-.18-18.43-3.16a33.45,33.45,0,0,1-7.13-4.63c-5.6-5.18-7.32-11.57-5-18.94,1-3.15,2.72-4.59,6.17-4.88,2.44-.21,4.89-.41,7.33-.48,4.62-.15,8.78-1.86,12.75-3.94,3.68-1.93,6.86-4.45,7.31-9.14a3.53,3.53,0,0,1,3.26-3.15c6.09-.57,12.19-.94,18.3-1.22a6.84,6.84,0,0,1,3.46,1c2.81,1.65,5.59,3.37,8.23,5.28a12,12,0,0,1,3.3,3.51c5.22,8.9,12.22,16.31,19.31,23.67a1.87,1.87,0,0,1-1.31,3.28c-6.06.88-12.15,1.53-18.19,2.53-6.86,1.13-13.63,2.81-19.75,6.2A30.75,30.75,0,0,1,347.52,364C345.89,364,344.26,364.13,343.13,364.18Z"/>
    <path class="cls-1" d="M317.14,327.27c-1.83-.12-3.45-.2-5.06-.31-2.43-.17-5-1.71-4.79-2.87.37-1.85,2-2.33,3.45-2.85q5.11-1.86,10.3-3.55c4-1.32,7,.18,9.49,3.39,1.19,1.55,1,3.27-.58,3.93a14.54,14.54,0,0,1-3.36,1.29C323.39,326.75,320.15,327,317.14,327.27Z"/>
    <path class="cls-1" d="M273,518.24l-.71.16c.6.51.71.33.36-.55C272.64,517.86,273,518.24,273,518.24Z"/>
  </g>
</svg>
