<svg id="Livello_1" data-name="Livello 1" xmlns="http://www.w3.org/2000/svg" viewBox="0 0 841.89 841.89">
  <defs>
    <style>
      .cls-1 {
        fill: #231f20;
      }
    </style>
  </defs>
  <title>prove stampe</title>
  <path class="cls-1" d="M207.22,154.71c1.72,0,5.29-3.68,11-2.94,11.81,1.54,14.44,17.5,15.23,29.3a3.32,3.32,0,0,1-6.54,1c-.69-3-1.43-6.48-4.37-9.07-8.66-7.63-25-3.52-29.52,6.66a5.52,5.52,0,0,0,3.2,7.39l47.37,17a3.45,3.45,0,0,0,4.18-1.58h0a8,8,0,0,0,.71-6.19c-4.33-13.92-.74-34.29-10.51-45.62-17.62-20.43-32.08,1.27-51.68-17L169,116.5a7.05,7.05,0,0,1,.24-10.26c47.17-41.66,102.14-5.07,121.83,48.53,15.28,41.59,10.6,88.23,31.76,127.71,25.65,47.82,86.24,66.6,131.05,92.76,51,29.79,99,67.3,145,105,6.31,5.16,4.89,10.73-3.22,9.94l-39.25-4.32a114.15,114.15,0,0,0-20.16.72c-7.61,1.28-13,1.63-19.08,3.24-3.21.85-5.22,7.72-.87,10.45,6.32,3.58,25.46-1.74,35.1-1.59,54.64.84,138.57,23.1,184.06,53.79,40.59,27.38,45.86,66.9-13.61,63.95-45.76-2.26-87.66-38.51-135.72-39-66.77-.64-93.31,7-146.74-4-51.79-10.59-96.95-34.08-136.16-68.69a4.83,4.83,0,0,0-7.36,6.11c2,3.25,3.67,6.47,5.55,8.42,54.58,56.64,141.12,81.85,224.48,78,27.77-1.27,67.54-3,95.68,5.14,19.9,5.73,40.32,16.3,62.28,22,6.37,1.65,17.65,3.78,24.12,4.68,12.37,1.72,18.86,3.79,25.41,14.44a249.37,249.37,0,0,0,26.27,35.77c3.76,4.21,17.2,15.66,26.64,25.25,7.67,7.79,3.17,21.44-7.71,22.51-19.67,1.92-44.47-14.49-59.5-24-4.21-2.65-18.59-15.28-27.69-20.54A3.26,3.26,0,0,0,687,687c5.45,9.68,15.88,18,24.3,23.94a131.5,131.5,0,0,0,29.7,16c10.07,3.7,11.36,17.57,1.8,22.44-5.31,2.71-11,4.29-15.19,4.29-13.1,0-33.8-18.85-43.56-27.95-7.09-6.62-28.51-31.66-30.34-32.19s-3.29,1.72-3,4c1.69,14.82,17.1,27,28.45,38.37,5.47,5.49-1.72,14.38-8.18,10.08-11.09-7.36-18.45-22.34-27.23-31.73-14.14-15.11-41.13-44.71-58.31-53.6-51.49-26.66-110.09,6.34-165.42,9C225.74,678.88,133.8,580,144.15,388.2c1.17-21.55,7.49-45.71,8.49-67.06,1.67-35.85-7.85-72.35-24.65-104a3.76,3.76,0,0,1,5.46-4.86,156.5,156.5,0,0,1,13.66,11c29.41,25.57,68.75,70.09,79.56,107.88,3.33,11.64,5.57,29.72,5.68,39.08.05,4,8.47,5.83,10.05-2.84,9.26-51-58.81-128.24-105.2-165-15.32-12.14-84.1-49.58-85.4-63.16a10.26,10.26,0,0,1,2.07-7.42,5.58,5.58,0,0,1,8.81-.08C74.82,146.72,96,165,112,153.82a2.89,2.89,0,0,0-2-5.25c-17.74,2.63-29.88-6.93-41.89-21.79a4.66,4.66,0,0,1,2-7.28c38.19-14.66,75.62-14.48,104.7,12.84a12.18,12.18,0,0,1-3,19.73h0a1.37,1.37,0,0,0,.63,2.59C184.09,154.62,195.68,155,207.22,154.71Z"/>
</svg>
