<svg id="Livello_1" data-name="Livello 1" xmlns="http://www.w3.org/2000/svg" viewBox="0 0 841.89 841.89">
  <defs>
    <style>
      .cls-1 {
        fill: #231f20;
      }
    </style>
  </defs>
  <title>prove stampe</title>
  <g>
    <path class="cls-1" d="M527.69,651.5c-60.15-7.11-171.08-43.19-227.32-68.41-61.64-27.64-154.1-101-219.93-83.1-8,2.16-26.25,9.68-24.71,1.5,7.87-42,57.24-41.33,90.7-29.74a49.69,49.69,0,0,1,11.22,5.61l27.5,18.21a2.22,2.22,0,0,0,3-3.21c-4.88-6-13.62-10.27-15-17.58-1.62-8.41.69-19.88,5.63-28a4.68,4.68,0,0,1,7.62-.52c8.78,10.75,26.51,37.26,33.86,41.68,6.78,4.08,11.26-.63,16.59-4.22A3.77,3.77,0,0,1,242.6,486c2.76,11.48,8.07,40.67,19.71,46.22a3.24,3.24,0,0,0,4-4.79l-6.53-9.27a6.65,6.65,0,0,1,.19-8c6-7.45,19.74-20.72,23.07-22.27,10.91-5.06,64.32,13.29,57.48,5.27-14.41-16.92-120.07-23.58-152.39-104.09a2.48,2.48,0,0,1,2.69-3.51l20.9,4.3a4.77,4.77,0,0,1,3.29,2.57c12.24,24.35,44.46,50.21,65.32,52.31,4.58.46-.65-4-5.17-6.49-8.84-4.79-18.17-9.54-26-16-35.74-29.24-52.61-84.42-20.39-120.85a3.52,3.52,0,0,1,6.1,2.14c5.1,79.46,64.93,151.87,142.7,163,6.36.91,19.45,3.76,28.16,9.14,3.51,2.18,12.46,10.79,18.25,15.08a3.39,3.39,0,0,0,4.8-4.61c-19-29.28-52.1-42.59-73.88-70.21-9.59-12.16-14-20.68-11.2-37.44,3.48-20.82,36.78,6.87,54.52,11.61a3.38,3.38,0,0,0,4.52-2.29A6.43,6.43,0,0,0,399.4,380,536.5,536.5,0,0,1,299,314.94c-16.61-13.71-19.54-15.25-36-32.16-9.81-10-21.31-20.18-8.78-38.31,4.6-6.65,12.58-11.2,22.47-11.63,11.7-.51,74,27.39,88.45,34.32,13.29,6.37,65.85,30.28,67.05,42.9,1.09,11.38-5.35,13.76-9.23,19.57-5.91,8.84,14,32.81,16.54,42.39,3.32,12.56-.27,24.2,1.65,32.3,1.26,5.33,9.58,10,11.81,17.18a3.76,3.76,0,0,0,4.57,2.4c13-3.36,40.73,17.45,37.54,1.2-1.28-6.52-19.85-7.34-19.85-7.34l-3.89-.72a26.45,26.45,0,0,1-11.17-4.66c-9.11-6.88-10.3-16.67-8-28.5a5.26,5.26,0,0,1,6.65-4c11,3.33,48.67,10.54,38.86,2.12-13.15-11.29-43.7-6.35-53.81-26-5.42-10.55-12.33-39.42,4-35.76,8.48,1.91,39.09,28.7,34.14,16C474,316,435.26,302.75,432.34,276.23a3.21,3.21,0,0,1,4.47-3.27c7.89,3.44,28.37,10.14,21.53,1.71-7.95-9.8-24.92-9.63-30.11-21-2.37-5.18-7.39-22.2,2.6-15.7,44.36,32,97.63,53.72,103.37,116.47,2.84,31.11-8.17,35.24-16.91,58.93-8.8,23.86,11.87,56,30,47,7.26-3.6-5.26-4.26-11.26-10.51-21-21.86,6-51.15,9-77.16,3.15-26.88-5.13-24.56-11.75-77.25-1.84-14.65,4.67-49.09,13.94-66.72,15.55-29.59,46.9-75.19,84.29-88.44,33.86-12,91.07,4.39,93.5,46.4a.73.73,0,0,1-1.09.67c-12.5-7.87-64.49-12.41-65.11,1.5-.34,7.47,13.74,4.43,20.62,2.33a2.64,2.64,0,0,1,3.38,3l-1,6.24a3.28,3.28,0,0,0,4.62,3.5l8.15-3.82a7.69,7.69,0,0,1,6.4-.07s4.37,2.92,6,2.64c7.09-1.23,1.52-6.47-2.39-8.64a1.85,1.85,0,0,1,1.51-3.35l15.11,5.21a8.4,8.4,0,0,1,5.4,6c2.2,9.26,2.65,18.43,5.22,28.23,3.12,11.88,11.33,25.21,9.75,37.12a10.25,10.25,0,0,1-18.16,5,73.7,73.7,0,0,0-8.56-9.46c-8-7.17-50.18-43.78-57.7-45.89a3.34,3.34,0,0,0-1.57-.1c-4,.86-4.24,6.6-.75,8.66l13.51,8a31,31,0,0,1,4.83,3.53c5.41,4.84,8.55,8.68,9.39,15,3.54,26.77-59.19-12.6-72.62,8.7C598.42,279,616.26,298.62,628.41,310,677.9,356.43,723.16,364.4,749,438.1c15.57,44.5,42.56,149-9.5,172.51C694,631.14,632.07,588.37,599.24,570.13c-6.72-3.74-15.46,2.27-4.8,10.71,32.58,25.76,64.82,44.51,101,49.5,26.12,3.6,60.53-5,85.35-15.93a3.6,3.6,0,0,1,5,3.34c-.06,11.08-6.38,11.45-17.06,16.74-20.85,10.33-50.89,12.57-69.58,17-4.1,1,2.83,5.45,11.86,5.35,22.85-.26,47.19-4.9,68.16-13.9a5.06,5.06,0,0,1,6.79,6.39c-5.16,14-10.2,13.14-21.49,15.18-28.38,5.12-37.16,2.48-54.86,5.3-4.75.76,4,7,7.9,7.46,17.43,1.83,41.9.38,59.09-6a3.53,3.53,0,0,1,4.42,4.85c-20.34,39.65-103.13,34.51-134.28,10.71-6.63-5.06-20.23-13-24.65-31.38-2.9-12.08-5.32-48.07-16.93-53.73-4.45-2.18-8.54,1.66-7,5.45,4.75,11.68,8.16,25.67,10.31,40.18,4.29,28.94-34-13.57-41.77-24.08-10.5-14.21-9-43.55-25.91-39.86-8.34,1.82,14.46,29.71-2.49,26-19.63-4.28-48.45-36.23-65.15-48.57-15-11.1-37-29.55-50.68-18.43a7.3,7.3,0,0,0-2.13,2.76,45.91,45.91,0,0,0-1.78,6.09c-1.28,4.19-3.42,5.12-6.81,5.71a20.89,20.89,0,0,1-8.23-.7c-25.12-9.62-28.58-23.17-44.58-30.47-26.42-12,58.14,74.64,70.24,31.12.48-1.71,3.37-5.19,6.85-5.19,9.86,0,32.91,17.16,37.62,21.1,14.18,11.87,24.13,26,41.27,35.18,10.78,5.78,23.89,12.33,31.07,16.6,6.61,3.93,22.86,9.44,22.95,21.43,0,2.62-.12,6.2-4.06,7C551.11,656.05,540,653,527.69,651.5Z"/>
    <path class="cls-1" d="M414.42,280.33C335.24,231.21,246,203.6,156.64,178.45l-.17,0L72.76,159.8a3.08,3.08,0,0,1,.06-6c83.46-16.86,167.35-6.54,246.79,23.86,33.91,13,70.16,27.53,88.66,60.34,6.74,11.94,14.51,27.26,10.73,40.57A3.08,3.08,0,0,1,414.42,280.33Z"/>
  </g>
</svg>
