<svg id="Livello_1" data-name="Livello 1" xmlns="http://www.w3.org/2000/svg" viewBox="0 0 841.89 841.89">
  <defs>
    <style>
      .cls-1 {
        fill: #231f20;
      }
    </style>
  </defs>
  <title>prove stampe</title>
  <g>
    <path class="cls-1" d="M352.67,183.11c12.41,21.95,29,40.1,47.36,56.75a330.57,330.57,0,0,0,81.73,54.65,37.09,37.09,0,0,0,9.08,3.3c1.65.29,3.61-1.19,5.44-1.87-1.12-1.33-2-3.19-3.39-3.93C479.64,285.19,466,279.13,453,271.78c-33.54-19.06-59.84-46.35-83.77-76-4.41-5.47-6.85-12.48-10.76-18.41-1.35-2-4.69-4.33-6.66-4s-5.23,4-5,5.86c.76,6.12,1.68,12.7,4.58,18,13.2,24.08,26.17,48.37,40.94,71.49C415.83,305.45,442,340.33,472.17,372c3.14,3.29,6.16,6.94,9.93,9.33,5.94,3.78,7.38,8.42,4.93,14.67-2,5-3.24,10.51-6.13,14.92-8,12.22-10.12,25-6.36,39,.81,3.06.71,6.36,1.25,11.68-3.94-3.39-6.6-5.33-8.85-7.68-10.12-10.57-22.36-15.27-37-15.66-6.85-.19-13.83-2.93-20.36-5.51a50.91,50.91,0,0,1-13.81-8.43c-11.85-10-25.07-15.67-40.74-16a25.2,25.2,0,0,1-12.17-4.11c-22.1-14.07-46.64-21-72.09-25.41a27,27,0,0,1-3.75-.91,11.72,11.72,0,0,1-2.2-1.54c1.38-2.54,2.62-5.22,4.22-7.67,16.65-25.31,33.6-50.42,49.95-75.91,10.21-15.92,10.88-16.67,29.66-12.65,3.15.68,6.16,2.1,9.33,2.66,1.78.32,3.75-.43,5.63-.7-1.29-1.64-2.24-4.11-3.91-4.77-12.51-4.89-25.69-7-38.84-4.56-11.78,2.21-23.33,6-34.7,9.94-4.27,1.47-6.76.83-8.59-2.63-4.58-8.71-10.69-16.71-10.49-27.46.15-8.66-5.56-13.92-13.1-16.85-5-1.94-10.31-3-15.53-4.26-9.35-2.22-11-6.8-4.62-13.85,18.41-20.35,41.3-34.11,66.3-44.66a212.15,212.15,0,0,1,67.13-16.43c2.16-.16,4.4.79,6.61,1.23-.51,2-.68,4.14-1.58,5.92-4.23,8.35-3,16.93,3.94,23.7,8.86,8.6,20,12.45,31.88,14.67,13.56,2.54,27.24,3.15,40.29-1.73,8-3,15.25-7.83,23.35-12.12,7.1,14.29,20.36,23.71,32.09,34.56,14,12.95,23.12,29.17,30.11,46.57,10.08,25.06,18.76,50.71,29.52,75.46,11.62,26.74,24.92,52.76,37.56,79.05,3.09,6.42,6.46,12.69,10.48,20.55-2.5-1.45-3.69-2-4.74-2.75a185.4,185.4,0,0,0-51.8-26.47c-33.43-10.7-61.72-29.44-85.18-55.09A705.92,705.92,0,0,1,359,199C356.44,194,354.76,188.43,352.67,183.11Z"/>
    <path class="cls-1" d="M252.81,521.62c6.11-13.94,10.91-29.12,9.65-45.56,15.44-7.7,20.77-19.87,15.8-40.42-3-12.29-8.33-24-12-36.12-1.28-4.23-.76-9-1.15-14.66,26.59,6.76,51.58,12.28,74,25.83a41.35,41.35,0,0,0,17.42,5.92c16.4,1.28,29.72,8.21,41.52,19.13,8.57,7.92,18.66,13.31,30.55,11.84,20.16-2.49,32.43,9.29,40.92,24.14,18.24,31.9,34.7,64.81,51.88,97.32a22.27,22.27,0,0,1,.9,2.79c-7.55.57-14.79,1.08-22,1.68-16.76,1.39-33.41,6.12-50.32,3-11.62-2.14-23-5.71-34.48-8.55-23.47-5.81-47-11.41-70.4-17.45A63.43,63.43,0,0,1,329,544c-7.69-4.53-15.51-7.34-24.57-6.62A43.64,43.64,0,0,1,274,528.74C268.46,524.71,260.47,524,252.81,521.62Z"/>
    <path class="cls-1" d="M530.84,568c21.13,13.55,43.29,20.43,66.62,23.69,22.78,3.18,45.39,3,67.1-5.9a53.37,53.37,0,0,0,11-6.71c1-.73.94-2.91,1.36-4.43-1.58-.07-3.7-.84-4.65-.1-15,11.68-32.64,10.53-49.86,9.64a251.21,251.21,0,0,1-76.52-15.92c-14.9-5.64-24.26-16-30.59-29.85a7.77,7.77,0,0,1,.71-6.52,74.41,74.41,0,0,1,10.51-12.22,140.38,140.38,0,0,1,41.71-25.44c2.78,3.75,4.55,8.42,7.78,9.87s8-.16,12.91-.48c-.26,3.1-.59,7.07-.89,10.57-9.51,2.21-19.09,3.34-27.76,6.78-7.43,2.95-14,8.28-20.56,13.08-4.28,3.13-3,6.09,1.21,9,12.6,8.65,26.94,12.72,41.45,16.16,20.91,4.95,42.14,8,63.71,6.89,6.19-.31,12.38-1.76,18.44-3.21,3.93-.94,5.31-3.65,4-8-3.17-10.64-10.33-18-19.39-23.46-3.8-2.3-5-4.54-4.5-8.75.49-4.7.11-9.49.11-14.81a32.84,32.84,0,0,1,4.31,1.68,88.93,88.93,0,0,1,36.13,36.31c6.41,11.87,3.8,23.93,2.41,36.15-2.67,23.44-5.18,46.9-7.72,70.35-.93,8.62-1.27,17.34-2.92,25.81-.59,3-3.81,6.13-6.62,8C659,694,645.78,697,632.44,698.61c-28.81,3.58-57,.8-84.3-9.57-7.75-2.93-11.18-6.85-11.83-15.76-2.13-29.54-5.76-59-8.29-88.5C527.58,579.69,529.69,574.39,530.84,568Z"/>
    <path class="cls-1" d="M513.09,147.14a235.23,235.23,0,0,1-16.57,21.62c-1.91,2.2-5.62,3.26-8.71,3.89-6.34,1.29-12.81,2-21.45,3.2,1.8-10.16,3.35-19.21,5-28.25.32-1.68,1.32-3.3,1.36-5,0-1.51-.81-3-1.27-4.56-1.45.9-3.92,1.54-4.21,2.72q-3.35,13.13-5.88,26.44a23.66,23.66,0,0,0,0,9.7c1.69,6.93-2.07,10.27-7.2,13.41-18.46,11.27-55.87,8.19-71.94-6-9.34-8.29-8.35-17.35,2.63-23.37,5-2.73,9.89-3.38,16-2.69,18.76,2.17,35-5.35,49.71-16.33.95-.7.8-2.92,1.16-4.43-1.74.07-3.79-.43-5.2.3-7.65,3.93-14.92,8.71-22.78,12.15-7.35,3.2-15.23,4.45-23.45,2.32-7.16-1.85-10.54-4.94-10.5-12.56.06-13.63-.1-27.33,1.45-40.82.47-4.18,6.14-7.77,9.43-11.64.87.57,1.73,1.16,2.61,1.73-1.45,3.91-2.43,8.06-4.43,11.64-4.22,7.58-3.89,9.7,3.45,14.08,3.31,2,2.37,6-2.15,9.22-2.85,2-6.77,3.48-4.09,9.06,6-6.24,12.88-8.27,21.12-5,.25-.8.49-1.61.72-2.42-1.74-1.14-3.58-2.19-5.21-3.49s-3.11-2.92-4.65-4.4c1.38-1.07,2.83-2,4.12-3.22s2.28-2.44,3.41-3.69a19.37,19.37,0,0,0-4.34-1.66,47.27,47.27,0,0,0-6.13-.06c1.6-6.91,2.93-13.29,4.67-19.55a5.45,5.45,0,0,1,3.47-3.26c7.75-1.36,15.68-3.9,23,1.85.71.59,2.24.16,3.38.21-.18-1.33.08-3.49-.61-3.85-3.7-2-7.49-4.48-11.51-5.11-12.79-2-25-.09-36.06,8.36-.38-6.31,3-9.76,7.41-12.27,7-4,14.79-5.75,22.52-3.3,19.1,6,38.41,11.77,56.85,19.48,9.89,4.14,18.31,11.91,27.05,18.52,1.58,1.19,2,4.65,2,7.06,0,8.2,1.5,15.79,5.82,22.93C514.1,141.91,514.19,145.53,513.09,147.14Z"/>
    <path class="cls-1" d="M216.49,418.65c.18-22.93.32-45.9-.77-68.79-1.15-24.43-4.46-48.77-5.41-73.2-.63-16.31,5.11-31.53,11.71-44.68a1.12,1.12,0,0,1,1.41-.54c6.74,2.54,12.75,5.21,19,6.94,10.5,2.9,17.83,7.91,18.92,20,.66,7.2,4.81,14.37,4.27,21.31-1.09,13.92-4.06,27.71-6.73,41.46-2.44,12.51-5.82,24.84-8.22,37.36-2.85,14.86.46,28.69,7.84,41.86s13.67,26.61,14.5,41.91A111.18,111.18,0,0,1,272.2,459c-.17,1.81-1.1,4.36-2.46,5.06-2.82,1.46-6.29,2.8-9.23,2.36-1.34-.2-2.27-4.67-2.91-7.32a6.41,6.41,0,0,1,.07-2.68,1.12,1.12,0,0,0-1.72-1.14,11.55,11.55,0,0,0-3.35,3.12c-1.16,2-1.42,4.69-2.83,6.48-.89,1.14-2.58,1.66-4.11,2.29a1.1,1.1,0,0,1-1.38-.45c-.87-1.42-2.57-2.87-2.23-4.07,1.14-4.14,3.79-8,5.17-12.13a23.59,23.59,0,0,0,1.06-3.85,1.13,1.13,0,0,0-1.94-.92c-5.23,5.36-5.5,14.35-13.61,18.74a1.13,1.13,0,0,1-1.64-.94,12.79,12.79,0,0,1,.93-5.94c2.7-6.33,4.77-13.15,7.89-19.3a34.2,34.2,0,0,0,1.73-5.56c-.79-.37-13.16,21.32-16.64,26.52-.77,1.16-4.32.76-6.57,1a1.15,1.15,0,0,1-1.26-1.21,9.93,9.93,0,0,1,1-3.72c3.45-7.42,5.69-15,9.26-22.42a11.46,11.46,0,0,0,.9-3.33,1.13,1.13,0,0,0-2-.91c-2.34,2.7-5.84,7.21-8.37,10.81a1.12,1.12,0,0,1-2-.62C215.89,434,216.45,424.08,216.49,418.65Z"/>
    <path class="cls-1" d="M267.5,682.71c-14.46-5.17-27-11.51-37.19-21.35-2.84-2.74-4.37-8.64-3.84-12.75,2.16-16.79,11.12-30.74,20.66-44.22,12.63-17.86,25.57-35.51,38.13-53.42a9.77,9.77,0,0,1,8.42-4.65c16.54-1,30.76,5.14,47,14.81-3.86,2.87-7,5.1-10,7.48-11.78,9.27-18.28,22-24.47,35.35C293.91,630.37,280.56,656.28,267.5,682.71Z"/>
    <path class="cls-1" d="M467.79,586.76l50.85-4.84c1.18,10.74,2.49,21.66,3.56,32.6,2.37,24.37,4.4,48.77,7.08,73.1.55,5-1.28,6.53-5.34,7.5-15.94,3.78-31.82,2.91-47.59-.78-1.83-.43-3.9-2.57-4.66-4.41-10.25-25-10.85-51-7.07-77.32C465.85,604,466.74,595.42,467.79,586.76Z"/>
    <path class="cls-1" d="M475.74,704.88,531,702.32c.22,5.74.7,13.38.78,21,.08,7.8.09,15.63-.41,23.42-1.09,17,6.28,29.91,19.57,39.44,10.17,7.3,21.17,13.45,31.69,20.27A147.22,147.22,0,0,1,595.73,816c3.49,2.85,2.83,6.48-1.28,7.25-7.1,1.34-14.53,2.46-21.64,1.78-13.39-1.3-26.16-4.83-37.63-12.81-5.48-3.82-12.53-5.44-18.95-7.83-6.25-2.33-12.85-3.84-18.86-6.65-10.36-4.83-12.26-8.34-10.41-20.1,3.11-19.69,1.89-38.72-6.12-57.2C478.55,715.16,477.22,709.46,475.74,704.88Z"/>
    <path class="cls-1" d="M224.26,668.93l38.36,22.59c-3.63,6.87-7.23,14.52-11.56,21.73-16.56,27.55-29.08,57-41.68,86.47-2.19,5.11-3.09,10.76-4.69,16.14-2.49,8.4-9.07,10.5-14.91,4-3.37-3.77-6.37-9.16-6.78-14.05-1.25-14.69-1.78-29.15-8.43-43-4.93-10.24-.88-17.32,9.87-21,11.35-3.86,18.67-12.09,22.75-22.67,5.9-15.3,10.62-31.06,15.84-46.62Z"/>
    <path class="cls-1" d="M170.76,617.35c-2-3.36-3.5-5.87-5.16-8.67l-11.28,9c-.58-.41.23-9.49,2-13.26,9.95-21.44,13.44-43.84,12.84-67.47-.75-29.91,14.53-51.82,38.51-68,8.77-5.94,12.55-3.48,12.74,6.95.3,17.28-4.66,33.25-12.46,48.4-6,11.7-12.25,23.33-18.92,34.68-9.56,16.28-15.92,33.46-16.88,52.46C172,613,171.39,614.68,170.76,617.35Z"/>
    <path class="cls-1" d="M509.66,103.94c-2.93-3.1-6.41-5.49-8.11-8.79C490.09,72.76,469.61,63.78,447,58.4a91.71,91.71,0,0,1-40.6-20.76c16.79-13.39,34.74-23.33,56.9-20.5,18.83,2.41,32.38,17,36.82,38a125,125,0,0,1,2,16.74c.38,5.21,1.79,9,6.76,12.15C516.81,89,517.08,97.89,509.66,103.94Z"/>
    <path class="cls-1" d="M256.41,471.38c0,5.76.46,10.18-.08,14.48-2.69,21.55-12.71,39.66-26.47,56.08-11.12,13.28-22,26.74-28.33,43.27-5.11,13.4-6.91,27.17-6.93,42.08l-6.71-10L180.08,626c-.52-.14-.39-16,.67-23.65,2.65-19.19,11.14-36.17,20.62-52.72s17.85-33.3,23.34-51.85C228.7,484.25,241,476.64,256.41,471.38Z"/>
    <path class="cls-1" d="M617,462.31c-14.42-6.39-27.84-6.66-39.43,6.17q-24-19.53-47.89-39c-10.76-8.75-21.36-17.7-32.31-26.21-3.91-3.05-4.5-5.91-1.77-10.1,20.47,14.3,43.7,22.51,66.74,31.21a174.53,174.53,0,0,1,47.09,27c3.29,2.61,5.85,6.13,8.74,9.23Z"/>
    <path class="cls-1" d="M632.18,523.8l-3.54-7.18a1.2,1.2,0,0,0-2-.25,59.87,59.87,0,0,1-6.79,6.69,1.2,1.2,0,0,1-2-1c.11-1.76.21-3.57.33-5.6a1.2,1.2,0,0,0-1.93-1c-1.8,1.42-4.11,3.5-5.14,4.12a11.65,11.65,0,0,1-4.39,1.13,1.19,1.19,0,0,1-1.36-1.2,19.62,19.62,0,0,1,.36-4.35c.14-.6.46-1.64.73-2.64a1.19,1.19,0,0,0-1.77-1.33,18.72,18.72,0,0,1-2.75,1.4,20.89,20.89,0,0,1-2.45.73,3.48,3.48,0,0,1-4.21-2.61c-.18-.8-.35-1.6-.48-2.41-.58-3.48-.13-7.45-1.7-10.36-4.19-7.79-5.23-7.6-10.64-.84-.81,1-3.17,1.94-4,1.48-1.18-.64-2.44-2.81-2.21-4.05.38-2,1.76-3.89,3-5.58,3.09-4.06,5.87-7.94,3.49-13.59-.45-1,1.44-3.8,2.91-4.84,12.8-9.16,32.4-4.47,39.12,10.5,5.07,11.31,8,23.62,11.43,35.61.5,1.73-.82,5.17-2,7.23A1.2,1.2,0,0,1,632.18,523.8Z"/>
    <path class="cls-1" d="M490.47,90.1C476.32,84.6,462.23,79,448,73.65c-7.23-2.71-14.56-5.21-22-7.23-15.86-4.31-30-2.11-40.16,12.21-10.95-6-14.55-17.57-8.69-27.52,6-10.17,18.65-12.93,28.66-5.81,12.8,9.1,26.37,16,41.87,19.7,9.34,2.21,18.44,6.31,26.94,10.88,6.18,3.32,11.19,8.81,16.71,13.33Z"/>
  </g>
</svg>
