<svg id="Livello_1" data-name="Livello 1" xmlns="http://www.w3.org/2000/svg" viewBox="0 0 841.89 841.89">
  <defs>
    <style>
      .cls-1 {
        fill: #231f20;
      }
    </style>
  </defs>
  <title>prove stampe</title>
  <g>
    <path class="cls-1" d="M435.35,695.83c-1.8-6.83-4-13.66-5.39-20.85a150.76,150.76,0,0,1-2.88-40.25,35.47,35.47,0,0,1,.72-6.11c.72-3.59,2.16-5.75,6.47-6.47A59.86,59.86,0,0,0,458,611c5.75-4.67,10.78-9.7,12.94-18-11.14,3.24-21.57,7.19-32.35,7.55-2.15-9.7,0-12.58,9-13.66,10.42-1.07,20.48-2.87,30.55-4.67,1.79-.36,3.23-1.44,4.67-3.59-6.11-1.08-12.58-1.44-18.69-2.88A92.66,92.66,0,0,1,447.21,570c-8.27-3.59-8.63-3.95-15.81,2.16-1.08.72-1.8,1.44-4,2.87V544.53c6.83-4,14.74-4.68,22.28-5.75,11.15-1.44,14.74-8.63,8.63-17.61-15.09-22.64-21.92-47.8-22.28-74.75-.36-24.44,16.53-35.94,32.7-39.54,16.53-3.95,32-.71,46,8.27,1.44.72,2.52,1.8,4,2.52,1.79,1.43,3.95,1.43,5.39-.36,1.79-2.16,1.43-4.32-.72-6.11a6.32,6.32,0,0,0-1.8-1.44c-20.12-15.45-56.42-19.05-77.27-.36-9.7,8.62-15.45,18.69-16.17,31.63-1.08,16.53-1.8,32.7,3.6,48.51,2.87,8.63,7.18,16.53,10.42,25.16a35.36,35.36,0,0,1,3.23,10.42c.72,4.67-1.08,6.47-5.75,7.55-4.31,1.08-8.26,2.51-12.58,3.23a31.49,31.49,0,0,1-10.06.36c-5-.72-10.06-2.51-15.09-3.59-3.6-.72-5.39-2.88-5-6.83,0-2.16.71-4,1.07-6.11a25.93,25.93,0,0,1,3.24-7.19c11.86-20.48,15.09-42.76,14.37-65.76-.72-28-21.56-48.88-49.23-49.6-15.1-.36-29.47,2.52-42.05,11.14-1.8,1.44-3.95,2.52-5.39,4.67a4.43,4.43,0,0,0,.36,4.68c.72,1.07,3.23,1.43,4.67,1.07,1.8-.72,3.24-2.15,5-3.23,16.89-10.42,34.86-12.94,53.55-5.39C397.25,416.23,406.24,427,407,443.9a130.33,130.33,0,0,1-20.49,76.19c-.72,1.08-1.43,2.16-2.15,3.23-4.67,7.55-1.08,15.1,7.54,16.53,6.83,1.08,13.66,2.88,20.49,4,3.95.72,5,2.87,4.67,6.83-.72,8.26-1.08,16.53-1.44,26.23a46.16,46.16,0,0,0-5.75-4.67c-5.39-4.67-7.54-5-14-1.8a76,76,0,0,1-30.55,8.27,35.78,35.78,0,0,0-5.75.72c.72,3.59,3.23,3.59,5.39,4,10.42,1.8,20.84,3.59,31.63,4.67,8.26,1.08,10.78,4.31,8.26,13.66-10.78-.72-21.56-3.6-32.34-6.83,7.9,18,23,25.16,40.25,29.83,6.83,14.37,3.23,54.62-6.47,73.31-24.08-3.23-46.36-11.14-65.05-27.67a139.56,139.56,0,0,1-15.81-16.89,445.33,445.33,0,0,1-46.36-69c-16.53-31.63-18-64.33-8.63-98.11,7.91-28.75,40.25-52.11,74.4-46,12.57,2.15,24.79,5,36.29,13.29-2.15,2.52-4.31,5.39-6.83,7.19-11.86,8.63-25.15,10.42-39.17,6.47-6.11-1.8-11.5-5.39-17.61-7.91a6.43,6.43,0,0,0-3.59-1.43,5.41,5.41,0,0,0-3.24,1.43c-.71.72-.71,2.52-.36,3.6s1.8,1.79,2.52,2.87c18.69,15.46,49.59,15.1,67.56-.36,3.6-2.87,6.11-6.82,8.63-10.78s1.8-5.75-2.52-8.26a128.84,128.84,0,0,0-38.09-12.94,89.21,89.21,0,0,0-30.91.72c-25.87,5.39-52.47,26.59-58.22,63.61-.72,4.31-1.43,8.62-2.15,13.65-10.07-7.9-20.49-14.73-29.47-23.36-9-8.26-13.3-19.76-13.3-32V433.84c.36,0,1.08-.36,1.44-.36a42.94,42.94,0,0,1,3.95,4.31c3.59,4.67,7.19,9.34,11.14,14,1.44,2.15,3.24,4.67,6.11,2.51s1.44-4.67,0-6.83l-1.08-1.07c-12.58-18-25.15-35.58-37.37-53.55-17.61-25.16-35.22-50-52.83-75.11a692.61,692.61,0,0,0-47.08-60A371.53,371.53,0,0,0,56.2,217.85a170.88,170.88,0,0,1-20.12-19.41c-3.24-3.59-5.39-9-6.83-13.65-2.88-10.07,2.16-17.25,12.58-19a39.07,39.07,0,0,1,9.34-1.08c24.8.36,50,.72,74.39,5.75a178.37,178.37,0,0,1,80.14,39.17,116.37,116.37,0,0,1,38.46,62.54,96.29,96.29,0,0,1,1.44,10.06,14.15,14.15,0,0,1-2.52,9.34C231.22,309.13,224,328.9,218.28,349c-2.15,7.91-2.51,16.54.36,24.44,1.08,3.24,3.24,6.11,5,8.63a5.32,5.32,0,0,0,4.68.36c1.07-.72,1.07-2.88,1.43-4.68a2.7,2.7,0,0,0-.72-1.43c-6.1-8.27-5-17.25-2.87-26.24a74.57,74.57,0,0,1,18.69-35.22c6.47-6.83,13.65-12.94,23.72-13.65,2.87-.36,4.31-1.8,3.95-4.68s-2.52-3.95-5-3.59c-4.67.72-9.35,1.8-14.74,2.88a18.8,18.8,0,0,1,2.88-4A81.22,81.22,0,0,1,306,270a31.7,31.7,0,0,1,19.77,5.39c2.15,1.44,4.31,2.52,6.11,0,2.15-2.51,1.08-5-1.08-6.83-5.75-5-12.94-6.47-20.13-7.19-2.15-.35-4.31,0-8.26,0,8.26-7.18,16.17-10.06,24.8-12.21,17.25-4,34.5-3.6,51.39,2.51,1.79.72,3.59,1.8,5,1.44a5.47,5.47,0,0,0,4.31-2.52c.36-1.07-.36-3.59-1.44-4.67s-3.23-1.8-4.67-2.51c-10.06-4-20.48-5.39-31.26-6.11-1.8,0-3.24-.36-5.75-.36,42.4-25.16,102.78-27.68,152.73-.36-6.83.72-12.58,1.08-18,2.15-6.83,1.44-13.65,3.24-20.12,5a10.45,10.45,0,0,0-2.88,1.43c-2.51,1.08-3.95,3.24-2.15,5.75.71,1.44,3.59,2.16,5,1.8,5.75-1.44,11.14-4,17.25-5,17.61-3.24,34.5-2.16,51,5.39,3.59,1.8,7.19,3.95,12.22,6.83-6.47,1.08-11.5,1.08-16.53,2.51-3.6.72-7.19,2.52-10.78,4.32-1.44.71-2.88,1.79-3.24,3.23s-.72,4,.36,5c.72,1.08,3.59,1.44,4.67.72,12.22-8.27,25.16-7.19,38.1-3.23,14.37,4.31,27,11.5,36.65,23.71a32.12,32.12,0,0,0-5.39-1.79l-9.7-2.16c-2.52-.36-4.67.36-5,3.6-.36,2.87,1.08,4.31,4,4.67h1.44c4.31,1.79,9,2.87,12.58,5.39,16.89,12.58,26.59,29.83,29.11,51,.72,6.11.36,12.58-3.6,18-1.79,2.16-2.15,5,.72,6.83,2.88,2.15,4.67-.36,6.47-2.16,4.67-6.47,5.75-14,5-21.56a66.79,66.79,0,0,0-3.23-16.89c-6.11-18.33-12.58-36.3-23.72-52.11-1.44-2.16-1.8-5.39-1.8-7.91.36-10.78,4-20.84,8.27-30.55,8.62-18,20.12-33.06,36.3-44.92,26.59-19,55.34-33.06,87.68-37,20.85-2.51,42-2.51,62.9-3.59a55.48,55.48,0,0,1,10.78,1.44c8.26,1.8,12.94,9.34,11.14,17.61a36.45,36.45,0,0,1-9.35,17.61,116.87,116.87,0,0,1-13.65,12.94c-28.39,21.2-52.83,46.71-74,75.11C692,322.07,669,355.49,645.23,388.2c-13.3,18.68-26.24,37.37-39.53,55.7a26.87,26.87,0,0,1-2.88,4c-1.44,2.16-1.08,4.32,1.08,5.39a5.74,5.74,0,0,0,4.67-1.07c2.52-2.88,5-6.11,7.19-9,2.87-3.59,5.39-6.83,8.62-11.14.72,2.52,1.44,3.59,1.44,5,.36,5.75.36,11.5.36,17.25,0,15.82-6.83,28.39-19,38.46-3.23,2.51-6.83,5-10.06,7.18-4.31,3.24-8.62,6.47-13.66,10.07-.71-5-1.79-9.71-2.51-14.38-3.24-19-11.86-35.22-27-47.44C538.13,435.63,520.52,430.6,500.4,432c-15.82,1.08-30.55,5.75-44.57,12.58-6.82,3.23-7.18,4.67-3.23,11.14,6.83,10.78,16.53,16.89,28.75,19.05,16.53,3.23,32,.72,45.64-9.71.72-.71,2.16-1.07,2.52-1.79.36-1.44,1.07-4,.36-4.68-.72-1.07-3.24-1.07-4.68-.71-1.07,0-2.15,1.43-3.23,2.15-15.45,10.07-31.63,11.5-48.88,4.32a27.16,27.16,0,0,1-13.29-11.51c2.87-1.79,5.39-3.59,8.26-5,18-8.26,37-12.22,56.43-6.47,26.23,7.91,42,25.52,48.15,52.11,6.83,30.91,4.32,60.74-10.78,89.13a413.14,413.14,0,0,1-54.62,79.07c-18,20.12-41.33,30.9-67.57,35.21C440,696.19,438.22,695.83,435.35,695.83ZM421.69,325.3c2.16,1.08,4,2.52,6.11,3.6,11.86,6.83,24.44,11.86,37.74,12.94,5.39.36,9.34,1.43,14,4.67,15.1,11.5,31.63,21.2,50.68,24.44,3.23.71,4.67,2.51,6.11,5,9.7,17.61,25.51,27.31,44.56,32.34.72.36,1.8.72,2.15.36,1.44-.72,3.6-1.44,4-2.87.36-1.08-.72-3.6-1.8-4.32-1.08-1.07-3.23-1.07-5-1.79-6.83-3.24-14.38-5.39-20.13-9.71-10.06-7.9-20.84-16.17-19.4-31.62,0-1.08-1.8-3.6-2.88-3.6-1.43-.36-3.59,1.08-4.31,2.16-1.08,1.44-1.44,3.59-1.8,5.39-1.08,0-2.15.36-2.87,0-1.44-.36-2.52-.72-3.6-1.08-12.93-3.95-24.79-10.42-35.93-18.33-6.83-4.67-14-9-16.89-17.61-.36-1.07-2.88-1.79-4.32-1.79-1.08,0-2.51,1.79-2.87,2.87-.36,1.8,0,4,0,6.11-1.44,0-2.88.36-4,0-12.21-2.87-23.71-7.19-34.14-14.37-4.67-3.24-6.11-3.6-10.42-.36-9.7,7.19-20.84,11.5-32.34,14.37a21,21,0,0,1-6.83.72,29.67,29.67,0,0,0,.72-4.67c0-2.52-.72-4.67-3.6-5-2.51-.36-3.23,1.44-4.67,3.23-2.15,3.6-4.67,7.55-7.9,10.07a132.91,132.91,0,0,1-40.26,23.36c-3.23,1.07-6.82,1.79-10.06,2.51a7.21,7.21,0,0,1-1.08-2.87c-.71-2.88-1.43-5.75-5.39-5.39-3.59.71-3.23,3.59-2.87,6.1.72,6.47-2.16,11.5-5.75,16.54a64.19,64.19,0,0,1-29.83,21.56c-2.16.72-4.31,1.44-6.83,2.16-2.51,1.07-5,2.15-4,5.39,1.08,2.87,3.23,3.23,6.47,2.51,16.53-4.67,31.62-12.22,41-27.31,4.31-6.83,9-11.14,17.25-11.86a31,31,0,0,0,7.54-2.52,155.46,155.46,0,0,0,38.1-22.28,14.9,14.9,0,0,1,6.47-2.87c4.67-.72,9.7-.72,14.37-1.8C399.77,337.52,411.27,332.13,421.69,325.3ZM101.84,188.38c1.08,1.8,1.8,2.88,2.52,4a94.33,94.33,0,0,0,32.34,28.39c6.47,3.24,10.43,7.91,11.14,15.46.72,8.62,4.68,15.81,10.07,22.28a79,79,0,0,1,7.54,11.5c4,7.55,7.91,15.45,16.18,19.41,5.75,2.87,8.62,6.82,9.7,12.93,1.08,5.75,2.52,11.86,7.19,15.82,4.31,3.59,7.18,7.18,8.26,12.58.72,3.23,2.16,6.46,6.47,6.82,2.52-6.11,3.6-11.14-1.8-16.17-3.23-2.87-5-7.9-6.46-12.22-3.6-8.62-6.47-17.61-9.35-26.23-4.67-13.3-10.06-26.24-18-37.74-17.25-25.51-41.33-42.4-69-55C106.52,189.46,104.72,189.1,101.84,188.38ZM630.49,339.32c4.32-1.8,5.75-5.39,7.19-9,1.08-2.52,1.44-5.75,3.23-6.83,7.91-5.39,10.79-13.66,12.22-22.64a12.06,12.06,0,0,1,6.47-9c9-4.31,14-11.86,18.33-20.12a60.57,60.57,0,0,1,8.27-12.94c5.39-6.47,9.34-13.3,9.7-21.56.36-7.19,4-11.14,9.7-14.74a124.27,124.27,0,0,0,16.89-11.14c7.55-5.75,13.3-12.94,18.33-21.2a11,11,0,0,0-6.11,1.44c-38.81,17.6-69,43.48-83.73,84.81-4,11.5-8.27,23-12.58,34.14-1.44,3.95-3.24,8.63-6.47,11.5C626.54,327.82,628.34,332.85,630.49,339.32Z"/>
    <path class="cls-1" d="M603.9,232.23c-5.39,12.57-10.06,24.43-15.1,37a3.65,3.65,0,0,1-1.43.36c-14-1.8-27.68-4.31-38.1-15.45a94,94,0,0,0-30.54-20.85c-17.61-7.9-35.22-16.53-53.91-21.2-37.74-9.34-74.39-6.47-110.33,8.27-11.86,5-23.72,10.42-35.58,15.81-10.06,4.67-18,11.86-25.88,19.4-9,8.27-26.23,14.74-37.73,13.66-5-12.22-9.7-24.08-15.09-37,7.18-8.63,15.81-16.9,27.67-23.36.36,5,.72,8.62,1.08,12.57.36,2.52,1.43,4.68,4.31,4.32,2.87,0,3.59-2.52,3.59-5,0-3.23-.36-6.82,0-10.06.36-9,4-16.53,10.06-23A25.55,25.55,0,0,1,297,181.91c6.47-1.8,12.94-2.15,20.48-3.59-.72,5.39-1.79,10.06-2.15,14.37a47.17,47.17,0,0,0-.36,10.07c0,2.87.72,5.39,4,5.39s3.95-2.52,4.31-5.39a81.19,81.19,0,0,1,.36-9.35,54.22,54.22,0,0,1,7.19-22.64c3.59-6.47,8.62-11.5,16.17-13.66,5-1.43,9.7-2.51,16.53-4.31-2.15,4-3.59,6.11-4.67,8.27-4.67,8.26-8.26,16.53-9.34,26.23a21.05,21.05,0,0,0,.36,8.27c.36,1.08,2.51,2.51,4.31,2.51,1.08,0,2.51-1.79,3.23-2.87a7.93,7.93,0,0,0,.36-2.88c.72-17.25,9.35-30.18,20.85-42.4a12.38,12.38,0,0,1,4.31-3.24c7.19-3.23,22.28-3.23,30.91,0,1.07,5.39,2.51,11.14,3.59,17.25.36,1.44.72,3.24,1.08,4.67.72,2.52,2.15,4.32,5,4,2.87,0,4.31-1.8,4.67-4.31,1.08-5.4,2.16-11.15,3.6-16.9.35-1.43.71-2.87,1.07-5a51.67,51.67,0,0,1,31.27,0,16.19,16.19,0,0,1,5,3.6c11.14,12.22,19.77,25.51,20.13,42.4,0,2.52.71,5,3.59,5,3.23,0,5-2.16,4.31-5-1.08-6.82-1.79-14-4.31-20.48-2.16-6.11-5.75-11.86-9.34-19,11.5,2.16,22.64,3.24,29.82,14,6.47,9.7,9,20.12,9.71,31.62a32.77,32.77,0,0,0,.36,6.11c.36,1.08,2.15,2.88,3.23,2.88,1.44,0,3.6-1.44,4-2.52a16.76,16.76,0,0,0,.72-6.11c-.72-6.47-1.43-13.29-2.51-20.48,8.26,1.08,16.53,1.08,24.08,4.31,10.06,4.67,14,14,15.45,24.44.72,4,.36,8.26,0,12.58,0,2.51.36,4.67,3.23,5.39,3.6.36,4.32-1.8,4.68-4.67.36-3.6.72-7.19,1.07-11.86C588.09,215,596.35,223.6,603.9,232.23Z"/>
  </g>
</svg>
