<svg id="Livello_1" data-name="Livello 1" xmlns="http://www.w3.org/2000/svg" viewBox="0 0 841.89 841.89">
  <defs>
    <style>
      .cls-1 {
        fill: #231f20;
      }
    </style>
  </defs>
  <title>prove stampe</title>
  <g>
    <path class="cls-1" d="M302.26,615.83l-23.07,22.1c2.7.13,5.31.18,7.92.39,7.82.65,15.65,1.31,23.46,2.07a16.54,16.54,0,0,1,4.53,1.18c2.5,1,4.86,2.77,3.21,5.61-.82,1.41-3.56,2.47-5.36,2.38-3.72-.2-7.38-1.4-11.1-2-22.44-3.42-43.91,1-64.67,9-5,1.92-9.84,6.15-13,10.58-10.67,15-23.46,27.93-37.4,39.82a17.18,17.18,0,0,0-2.56,2.76,2.54,2.54,0,0,0-.3,1.29c7.36-.32,14.83-1.05,22.27-.79,3.59.13,7.32,1.7,10.54,3.45,1.22.66,1.18,3.65,1.72,5.57-1.86.48-4.2,1.93-5.5,1.29-9-4.44-18.07-2.94-26.76-.27-15.38,4.72-29.08,12.27-36.55,27.61-2.19,4.49-5.16,9.87-1.54,14.21,3.83,4.6,8.91.63,13-1.1,13.86-5.88,28.71-6.66,43.25-9.06a129.27,129.27,0,0,0,13.88-2.67c13.87-3.9,23-12.92,26.48-26.87,1.9-7.59,2.59-15.49,3.75-23.26a31.75,31.75,0,0,0,0-3.78c.09-2.72,1-5.63,4-5,1.65.36,3.55,3.32,3.86,5.34.57,3.68.07,7.53,0,11.3,0,2.14-.21,4.27-.35,7.14,12.15-3.38,23.6-2.12,35.12-.65,16.67,2.13,31.77-1.79,45.29-12.11,8.52-6.5,17.2-12.73,23.63-22-5.65-15.66-2.24-29.46,10.36-41.57-7.63-9.13-12.89-19.2-11-31.6,1.8-12,8.83-20.53,19.83-27.38-20.27-7.48-37.17-18.4-54-29.51-19.33-12.79-34.11-29.73-45.43-49.78a77.13,77.13,0,0,1-10.13-37.94c-.09-23.36-5.75-45.27-15.76-67.47C233.45,412,217.41,431.62,212,460c6.43-.86,11.57-2,16.72-2.11a124.69,124.69,0,0,1,18.61,1.24c2.81.38,5.66,2.3,4.47,5.89-.93,2.8-3.36,2.79-6.25,2.35-17.19-2.58-34.09.25-50.24,5.51-13.06,4.25-22,14.45-27.4,27.14-3.75,8.79-1.84,17.39,2.92,25.29,4.2,7,8.83,13.69,13.29,20.56,8.4-8.59,11.1-23.65,6.16-33.82-.82-1.69-2.4-3.15-2.74-4.89-.3-1.53.15-4,1.2-4.76s4.16-.62,4.83.28c2.41,3.21,4.8,6.7,6,10.47,3.7,11.16,1.39,22.14-4,32-11.35,20.76-25.24,39.22-49.1,47.27-6.93,2.34-8.13,7.06-4,13.17a11.69,11.69,0,0,0,2.43,2.88c14.6,11,30.85,16.23,48.69,10.53,17-5.44,28.54-17.06,32.05-35.19.89-4.58.67-9.41.7-14.13,0-4.09-.24-8.19-.53-12.27-.82-11.6,2.85-21.06,13.24-27.63-.33-6.57-.67-13.14-1-19.7a32,32,0,0,1,0-3.79c.24-3.34-.51-7.81,4.59-7.64,4.41.15,3.74,4.25,3.86,7.31.2,5,.48,10.08.43,15.11-.17,16.78,7.93,29.28,20.48,40.31a73.86,73.86,0,0,1,5.06-5.57,95.41,95.41,0,0,1,10.12-8.41c1.08-.74,4.51-.28,4.77.42.64,1.69.24,3.89-.13,5.81-.14.72-1.33,1.25-2.06,1.85a40.67,40.67,0,0,0-3.67,3c-13.14,13.63-11.73,22.81-.81,33.32,14.77,14.23,32.65,19.55,53,15.44,2.16-.43,4.33-1.41,6.44-1.27,1.85.12,4.59,1,5.23,2.34,1.33,2.81-.83,4.77-3.5,5.52A47.76,47.76,0,0,1,331.79,616c-7.5.38-15,.3-22.56.29C306.42,616.24,303.62,615.92,302.26,615.83Z"/>
    <g>
      <path class="cls-1" d="M816.79,132.92c-4-7.89-7.61-8.95-14.58-3.35a92.35,92.35,0,0,1-42.71,18.92c-13.64,2.29-27.52,2.88-41.32,4.06-16,1.35-32.1,1.78-47.95,3.95-40.14,5.48-70.82,35.84-77.52,75.55-.59,3.43-1.19,6.86-2.09,10.17-4.18,15.73-21.18,26.7-37.11,23.58-1.81-.35-3.19-3-4.81-4.61,1.62-1.22,3.08-3.16,4.85-3.55,4-.83,8.2-.55,12.19-1.34,8.59-1.78,10.33-4.65,8.67-13.13a57.87,57.87,0,0,0-1.54-6.43c-6.07-18.73-19.59-29.49-37.85-35-4.57-1.38-7.65-3.08-8.6-8.4-1.22-6.71-5.48-12-10.88-16.13-4.93-3.79-10-7.37-15.06-11,.43-2.8.94-5.25,1.14-7.77.59-7.85,1-15.69,1.66-23.54.19-2.6,1.26-5.64,4.41-4.69,1.66.47,3.59,3.47,3.63,5.36a87.06,87.06,0,0,1-1.3,16c-1.07,6.66,1.3,11.32,6.35,15.57,13,11,27.84,18.18,44,23.15a38,38,0,0,0,20.47.36,57.11,57.11,0,0,0,27-14.71c7.85-7.73,15.81-15.42,23-23.78,12.81-14.94,29-23.62,47.79-28.63,16.09-4.29,32.53-2.91,48.81-3.74,6.79-.32,12.58.86,18.5,5.08,10.45,7.42,28.35,6.31,37.93-1.22-2.52-1.81-5-3.59-7.69-5.56,8-3.35,15.3-6.43,22.87-9.58-.27-4.06-.51-7.22-.83-12-12.38,10.49-25.23,12.15-40.41,9.86,8.12-6.94,16.6-12.06,20-21.33-.59-.87-.87-1.62-1.34-1.85-20.9-10.73-45.07-5.45-57.22,10.68-.75,1-1.26,2.64-2.21,3a7.76,7.76,0,0,1-5.16.12c-.83-.36-1.34-2.72-1.14-4,.39-2.2,1.49-4.25,2.64-7.29-13.25,2.84-24.84.51-36.28-3.59-12.78-4.61-25.55-3.59-37.74,1.82A114.27,114.27,0,0,0,619,95.62c-12.78,9.22-24.76,19.48-37.62,28.58a77.21,77.21,0,0,1-20.86,10.57c-11,3.51-22.55,4.73-33.79-.12,0-5.75,2.21-7.45,7.14-6.5,3.74.71,7.65.79,12.1,1.18-4.85-12.62-21.21-20-47.2-22.36-.79-1.42-1.81-3-2.64-4.65-6.9-13.92-18.89-20.7-33.59-23.07a18.81,18.81,0,0,0-10.89,1.54c-13.68,6.74-20.07,28.75-12.5,42.78,2.61-1.81,5-3.94,7.77-5.24,5.68-2.6,11.48-5,17.39-7,2.64-.91,5.48.2,5.56,3.27.08,1.54-1.81,3.59-3.35,4.66s-3.63.86-5.4,1.49c-13,4.58-22.16,13.13-26.15,26.5-2.95,9.86.83,18.38,8.84,23.78,5.75,3.9,10.88,1.22,16.2-.12,22.91-5.68,48.5,7.73,56.74,29.69,3.39,8.95,1.86,16.64-4.89,23.35-1.53,1.53-3.23,2.95-4.92,4.37-7.77,6.55-15,13.41-19,23.11a18.41,18.41,0,0,1-7.57,8c-11.12,6.47-28,2.33-35.61-8.2-8.79-12.22-9-34.26-.35-46.61,4.49-6.46,11.08-7.88,18.33-7.33,6.47.47,10.33,4.61,12.5,10.13,3.08,7.81,3.95,15.85.44,23.9-.71,1.62-1.19,3.27-1.9,5.28,11.52-2,18.93-9.66,21.38-21.25,4.33-20.9-10.18-37-31.27-34.86a51.46,51.46,0,0,0-26,10.29c-4.69,3.51-11.28,5.13-16.91.79-5.64,4.34-12.23,2.72-16.92-.79a51.46,51.46,0,0,0-26-10.29c-21.09-2.17-35.6,14-31.27,34.86,2.45,11.59,9.86,19.24,21.38,21.25-.71-2-1.19-3.66-1.9-5.28-3.51-8.05-2.64-16.09.44-23.9,2.17-5.52,6-9.66,12.5-10.13,7.25-.55,13.84.87,18.33,7.33,8.6,12.35,8.44,34.39-.35,46.61-7.57,10.53-24.49,14.67-35.61,8.2a18.41,18.41,0,0,1-7.57-8c-4.06-9.7-11.24-16.56-19-23.11-1.69-1.42-3.39-2.84-4.92-4.37-6.75-6.71-8.28-14.4-4.89-23.35,8.24-22,33.83-35.37,56.74-29.69,5.32,1.34,10.45,4,16.2.12,8-5.4,11.79-13.92,8.84-23.78-4-13.37-13.13-21.92-26.15-26.5-1.77-.63-3.94-.51-5.4-1.49s-3.43-3.12-3.35-4.66c.08-3.07,2.92-4.18,5.56-3.27,5.91,2,11.71,4.42,17.39,7,2.8,1.3,5.16,3.43,7.77,5.24,7.57-14,1.18-36-12.5-42.78a18.81,18.81,0,0,0-10.89-1.54c-14.7,2.37-26.69,9.15-33.59,23.07-.83,1.66-1.85,3.23-2.64,4.65-26,2.33-42.35,9.74-47.2,22.36,4.45-.39,8.36-.47,12.1-1.18,4.93-1,7.18.75,7.14,6.5-11.24,4.85-22.75,3.63-33.79.12a77.21,77.21,0,0,1-20.86-10.57c-12.86-9.1-24.84-19.36-37.62-28.58a114.27,114.27,0,0,0-20.34-11.75c-12.19-5.41-25-6.43-37.74-1.82-11.44,4.1-23,6.43-36.28,3.59,1.15,3,2.25,5.09,2.64,7.29.2,1.31-.31,3.67-1.14,4a7.76,7.76,0,0,1-5.16-.12c-1-.32-1.46-1.93-2.21-3C110.54,77.75,86.37,72.47,65.47,83.2c-.47.23-.75,1-1.34,1.85,3.43,9.27,11.91,14.39,20,21.33-15.18,2.29-28,.63-40.41-9.86-.32,4.81-.56,8-.83,12,7.57,3.15,14.9,6.23,22.87,9.58-2.72,2-5.17,3.75-7.69,5.56,9.58,7.53,27.48,8.64,37.93,1.22,5.92-4.22,11.71-5.4,18.5-5.08,16.28.83,32.72-.55,48.81,3.74,18.77,5,35,13.69,47.79,28.63,7.14,8.36,15.1,16.05,23,23.78a57.11,57.11,0,0,0,27,14.71,38,38,0,0,0,20.47-.36c16.12-5,31-12.18,44-23.15,5.05-4.25,7.41-8.91,6.35-15.57a87.06,87.06,0,0,1-1.3-16c0-1.89,2-4.89,3.63-5.36,3.15-1,4.21,2.09,4.41,4.69.67,7.85,1.07,15.69,1.66,23.54.2,2.52.71,5,1.14,7.77-5,3.63-10.13,7.21-15.06,11-5.4,4.14-9.66,9.42-10.88,16.13-1,5.32-4,7-8.6,8.4-18.26,5.48-31.78,16.24-37.85,35a57.87,57.87,0,0,0-1.54,6.43c-1.66,8.48.08,11.35,8.67,13.13,4,.79,8.2.51,12.19,1.34,1.77.39,3.23,2.33,4.85,3.55-1.62,1.61-3,4.26-4.81,4.61-15.93,3.12-32.93-7.85-37.11-23.58-.9-3.31-1.5-6.74-2.09-10.17-6.7-39.71-37.38-70.07-77.52-75.55-15.85-2.17-32-2.6-47.95-3.95-13.8-1.18-27.68-1.77-41.32-4.06a92.35,92.35,0,0,1-42.71-18.92c-7-5.6-10.6-4.54-14.59,3.35A56.83,56.83,0,0,0,43,205.35c20.78,14.51,44.44,18.34,69.28,16.13,2.84-.28,5.68-.95,8.44-.67,1.45.12,4,2.21,3.86,3-.39,1.73-1.85,4.26-3.27,4.53a120,120,0,0,1-16.84,1.9c-8.52.39-14.16,4-17.19,11.67-2.21,5.56-.75,10.64,4.85,12.38,15.38,4.69,30.91,8.87,47.12,4,2.76-.83,5.52-1.22,6.07,1.85.32,1.78-1.38,5.17-3,5.8-4.22,1.73-8.91,2.41-13.68,3.55-.59,4.53-1,9.19-1.77,13.76-2.05,11.67,4.53,18.1,16.24,15.65a19.83,19.83,0,0,0,3.63-1.14c13.21-5.32,26.46-4.45,39.67-.12,20,6.55,35.88,18.26,46.17,36.75,3,5.4,4.81,11.56,7.57,18.42,5.52-.56,11.67-1.34,17.79-1.7,3.15-.2,7.84-1.93,8.32,3.27s-4.26,4.3-7.5,4.78c-7.17,1.06-14.31,2.2-21.49,3.11-2.05.24-4.21-.24-7.05-.43,1.65-15.5-5.25-27.21-15.34-37.27-11.16-11.15-24.49-18.49-40.34-21-18.18-2.92-36.55,16-32.61,34.11a46.43,46.43,0,0,0,5.52,14c10.05,16.45,23,29.93,41.32,37.35.87.31,2,.51,2.53,1.14,1,1.38,2.72,3.74,2.28,4.42-1,1.49-3.39,3.23-4.88,2.95a23.46,23.46,0,0,1-9.59-3.63c-8-5.63-15.61-11.63-23.22-17.7-2.64-2.13-4.73-5-7.61-8.08-10.81,9.42-13.09,20.5-10,32.53,5.6,21.72,19.6,35.56,41.68,40.3,5.05,1.1,10.65.43,15.85-.36,6.78-1.06,11.6-4.89,15.42-11.12,21.1-34.46,51.77-57.06,89.75-69.91,22.27-7.53,44.91-8.71,67.66-1.22,25.39,8.36,37.66,27.88,32.61,54-1.7,8.87-5.21,17.39-8,26-1,3-2.64,5.76-3.54,8.76-2.33,7.61,2.08,12.58,10,10.76,4.22-1,8.08-3.35,12.38-5.24,2.13,1.22,5.64,2.56,8.88,4.41,3.23-1.85,6.74-3.19,8.87-4.41,4.29,1.89,8.16,4.26,12.38,5.24,7.88,1.82,12.3-3.15,10-10.76-.9-3-2.56-5.76-3.54-8.76-2.8-8.63-6.31-17.15-8-26-5.05-26.1,7.22-45.62,32.61-54,22.75-7.49,45.39-6.31,67.66,1.22,38,12.85,68.65,35.45,89.75,69.91,3.82,6.23,8.64,10.06,15.42,11.12,5.2.79,10.8,1.46,15.85.36,22.08-4.74,36.08-18.58,41.68-40.3,3.11-12,.83-23.11-10-32.53-2.88,3.11-5,5.95-7.61,8.08-7.61,6.07-15.26,12.07-23.22,17.7a23.46,23.46,0,0,1-9.59,3.63c-1.49.28-3.86-1.46-4.88-2.95-.44-.68,1.26-3,2.28-4.42.52-.63,1.66-.83,2.53-1.14,18.33-7.42,31.27-20.9,41.32-37.35a46.43,46.43,0,0,0,5.52-14c3.94-18.1-14.43-37-32.61-34.11-15.85,2.52-29.18,9.86-40.34,21-10.09,10.06-17,21.77-15.34,37.27-2.84.19-5,.67-7,.43-7.18-.91-14.32-2.05-21.49-3.11-3.24-.48-8,.39-7.5-4.78s5.17-3.47,8.32-3.27c6.12.36,12.27,1.14,17.79,1.7,2.76-6.86,4.53-13,7.57-18.42,10.29-18.49,26.22-30.2,46.17-36.75,13.21-4.33,26.46-5.2,39.67.12a19.83,19.83,0,0,0,3.63,1.14c11.71,2.45,18.29-4,16.24-15.65-.79-4.57-1.18-9.23-1.77-13.76-4.77-1.14-9.46-1.82-13.68-3.55-1.62-.63-3.32-4-3-5.8.55-3.07,3.31-2.68,6.07-1.85,16.21,4.85,31.74.67,47.12-4,5.6-1.74,7.06-6.82,4.85-12.38-3-7.65-8.67-11.28-17.19-11.67a120,120,0,0,1-16.84-1.9c-1.42-.27-2.88-2.8-3.27-4.53-.16-.75,2.41-2.84,3.86-3,2.76-.28,5.6.39,8.44.67,24.84,2.21,48.5-1.62,69.28-16.13A56.82,56.82,0,0,0,816.79,132.92ZM234.47,308.35c-2.12-1.11-3.7-1.54-4.85-2.49-14.31-12.14-24.88-26.65-28-45.62a123.57,123.57,0,0,1-1.74-17.86c-.43-17.63-9.62-29.42-25.43-35-14.16-5-29-8.2-43.77-11.12C111.49,192.5,92.4,189,74.34,181.06a65.76,65.76,0,0,1-30.67-27c-.79-1.26-1-2.84-2.05-6.11,4.1,3.23,6.54,5.17,9,7.14,13.68,11,28.78,19.36,46,23,13.21,2.8,26.62,4.65,40,6.42,14.66,1.94,29.37,3.35,43.13,9.39,20.55,8.91,33.95,23.46,37.23,46.25.55,3.71,1.46,7.41,1.93,11.16,2.13,16.92,8.28,31.58,23,41.56.43.28.47,1.06.79,1.85C240.19,298.92,237.59,303.18,234.47,308.35ZM798.22,154.09a65.76,65.76,0,0,1-30.67,27c-18.06,7.89-37.15,11.44-56.31,15.22-14.75,2.92-29.62,6.16-43.77,11.12-15.81,5.56-25,17.35-25.43,35a123.57,123.57,0,0,1-1.74,17.86c-3.15,19-13.72,33.48-28,45.62-1.15.95-2.73,1.38-4.85,2.49-3.12-5.17-5.72-9.43-8.21-13.57.32-.79.36-1.57.79-1.85,14.71-10,20.86-24.64,23-41.56.47-3.75,1.38-7.45,1.93-11.16,3.28-22.79,16.68-37.34,37.23-46.25,13.76-6,28.46-7.45,43.13-9.39,13.37-1.77,26.78-3.62,40-6.42,17.23-3.67,32.33-12.07,46-23,2.45-2,4.89-3.91,9-7.14C799.21,151.25,799,152.83,798.22,154.09Z"/>
      <path class="cls-1" d="M539.62,615.83l23.07,22.1c-2.7.13-5.32.18-7.92.39-7.82.65-15.65,1.31-23.46,2.07a16.7,16.7,0,0,0-4.54,1.18c-2.49,1-4.85,2.77-3.2,5.61.82,1.41,3.56,2.47,5.35,2.38,3.73-.2,7.39-1.4,11.11-2,22.44-3.42,43.91,1,64.66,9,5,1.92,9.85,6.15,13,10.58,10.67,15,23.46,27.93,37.4,39.82a17.18,17.18,0,0,1,2.56,2.76,2.54,2.54,0,0,1,.3,1.29c-7.36-.32-14.83-1.05-22.27-.79-3.59.13-7.32,1.7-10.54,3.45-1.22.66-1.18,3.65-1.72,5.57,1.86.48,4.19,1.93,5.49,1.29,9-4.44,18.08-2.94,26.77-.27,15.38,4.72,29.08,12.27,36.55,27.61,2.19,4.49,5.16,9.87,1.54,14.21-3.83,4.6-8.92.63-13-1.1-13.86-5.88-28.71-6.66-43.25-9.06a129.27,129.27,0,0,1-13.88-2.67c-13.87-3.9-23-12.92-26.48-26.87-1.9-7.59-2.59-15.49-3.76-23.26a34,34,0,0,1,0-3.78c-.09-2.72-1-5.63-4-5-1.65.36-3.55,3.32-3.86,5.34-.57,3.68-.07,7.53,0,11.3.05,2.14.2,4.27.35,7.14-12.15-3.38-23.6-2.12-35.12-.65-16.67,2.13-31.77-1.79-45.29-12.11-8.53-6.5-17.2-12.73-23.63-22,5.65-15.66,2.24-29.46-10.36-41.57,7.63-9.13,12.89-19.2,11-31.6-1.8-12-8.84-20.53-19.83-27.38,20.26-7.48,37.17-18.4,54-29.51,19.33-12.79,34.11-29.73,45.43-49.78a77.13,77.13,0,0,0,10.13-37.94c.09-23.36,5.74-45.27,15.76-67.47,20.44,17.82,36.48,37.47,41.9,65.89-6.42-.86-11.56-2-16.71-2.11a124.69,124.69,0,0,0-18.61,1.24c-2.81.38-5.66,2.3-4.47,5.89.93,2.8,3.35,2.79,6.25,2.35,17.19-2.58,34.09.25,50.24,5.51,13.06,4.25,22,14.45,27.4,27.14,3.75,8.79,1.84,17.39-2.92,25.29-4.2,7-8.83,13.69-13.3,20.56-8.39-8.59-11.09-23.65-6.16-33.82.83-1.69,2.41-3.15,2.75-4.89.29-1.53-.15-4-1.2-4.76s-4.16-.62-4.83.28c-2.41,3.21-4.8,6.7-6.05,10.47-3.7,11.16-1.4,22.14,4,32,11.35,20.76,25.24,39.22,49.1,47.27,6.93,2.34,8.13,7.06,4,13.17a11.44,11.44,0,0,1-2.42,2.88c-14.6,11-30.86,16.23-48.69,10.53-17-5.44-28.54-17.06-32-35.19-.89-4.58-.68-9.41-.7-14.13,0-4.09.24-8.19.53-12.27.82-11.6-2.85-21.06-13.24-27.63.33-6.57.67-13.14,1-19.7a32,32,0,0,0,0-3.79c-.24-3.34.51-7.81-4.59-7.64-4.42.15-3.75,4.25-3.87,7.31-.19,5-.47,10.08-.42,15.11.17,16.78-7.94,29.28-20.48,40.31-1.8-2-3.28-3.95-5.06-5.57a95.41,95.41,0,0,0-10.12-8.41c-1.08-.74-4.51-.28-4.77.42-.64,1.69-.24,3.89.13,5.81.13.72,1.33,1.25,2.06,1.85a40.67,40.67,0,0,1,3.67,3c13.13,13.63,11.73,22.81.81,33.32-14.77,14.23-32.65,19.55-53,15.44-2.16-.43-4.33-1.41-6.45-1.27-1.85.12-4.58,1-5.22,2.34-1.33,2.81.83,4.77,3.5,5.52A47.63,47.63,0,0,0,510.09,616c7.5.38,15,.3,22.56.29C535.46,616.24,538.26,615.92,539.62,615.83Z"/>
      <path class="cls-1" d="M580,389.1c-2.52,7.46-4.61,14.63-7.33,21.61a124.23,124.23,0,0,0-8.21,40.46c-1.57,35.45-16.56,64.7-45,85.6-26.93,19.84-56.11,36-89.39,43.14A65.43,65.43,0,0,0,421,583.1a65.93,65.93,0,0,0-9.15-3.19c-33.28-7.18-62.46-23.3-89.39-43.14-28.43-20.9-43.42-50.15-45-85.6a125.28,125.28,0,0,0-8.21-40.46c-2.72-7-4.85-14.15-7.33-21.61a167.67,167.67,0,0,1,63.44-24.84c13-2.21,25.67-2.13,38.17,2.17,8,2.8,15.42,6.62,20,14.27-13.88,12.78-36,13.92-49.57,2.88-.95-.79-1.77-2.09-2.88-2.32-1.34-.32-3.31-.32-4.22.47s-1.65,3.07-1.14,4.06a17.08,17.08,0,0,0,4.65,5.8,37.32,37.32,0,0,0,26.42,8.08c11.44-.83,22.16-3.82,32.69-11.32,1.22,4.77,2.64,8.56,3,12.46,1,9.63-1.07,18.73-5.41,27.37-2.4,4.81-4.89,9.54-6.94,14.47-7.21,17,6.23,25.39,17.87,24.76,3-.15,6-.55,9.14-.86V479c-13.68-2.61-21.37,1.42-30.32,15.77,5.4-1.7,10.33-4.14,15.46-4.57s10.21,1.18,15.42,1.93c0,3.47.07,5.64,0,7.8,0,.52-.67,1-1,1.5-17.51-3.27-24.84,1.58-30.05,20.67,3,1.1,6.08,2.95,9.27,3.27a121.81,121.81,0,0,0,17.82.23c5.56-.27,11.95-1.38,17.28,1.42,5.28-2.8,11.67-1.69,17.27-1.42a121.88,121.88,0,0,0,17.82-.23c3.19-.32,6.23-2.17,9.23-3.27-5.17-19.09-12.5-23.94-30-20.67-.36-.51-1-1-1-1.5-.12-2.16-.08-4.33-.08-7.8,5.25-.75,10.45-2.37,15.46-1.93s10.06,2.87,15.46,4.57c-8.95-14.35-16.68-18.38-30.32-15.77V466.55c3.11.31,6.11.71,9.14.86,11.64.63,25.08-7.76,17.87-24.76-2.09-4.93-4.58-9.66-6.94-14.47-4.34-8.64-6.43-17.74-5.41-27.37.4-3.9,1.82-7.69,3-12.46,10.57,7.5,21.29,10.49,32.73,11.32a37.38,37.38,0,0,0,26.42-8.08,17.08,17.08,0,0,0,4.65-5.8c.47-1-.2-3.27-1.14-4.06s-2.88-.79-4.22-.47c-1.11.23-1.93,1.53-2.92,2.32-13.56,11-35.65,9.9-49.53-2.88,4.58-7.65,12-11.47,20-14.27,12.46-4.3,25.15-4.38,38.17-2.17A167.92,167.92,0,0,1,580,389.1Z"/>
      <path class="cls-1" d="M475.4,670.72a14.73,14.73,0,0,1-6.31,7.53c-9.9,5.88-20.42,5.25-30.95,1.62-8.28-2.88-9.35-2.92-17.19-1-7.85-2-8.92-1.93-17.24,1-10.49,3.63-21,4.26-30.91-1.62a14.73,14.73,0,0,1-6.31-7.53c-3.27-11.24,2.92-22.48,14.12-26.85,5.32-2,5.91-5.4,1.57-8.91-.94-.79-2.2-1.23-3.19-1.94-11-8.12-14.63-21.68-8.91-33.47,5.83-12,17.9-17,31.58-13.13,5.84,1.65,12.54,5.16,19.29,1.18,6.7,4,13.44.47,19.28-1.18,13.68-3.83,25.75,1.14,31.54,13.13,5.76,11.79,2.17,25.35-8.87,33.47-1,.71-2.25,1.15-3.23,1.94-4.34,3.51-3.71,6.86,1.61,8.91C472.48,648.24,478.67,659.48,475.4,670.72Z"/>
    </g>
  </g>
</svg>
