<svg id="Livello_1" data-name="Livello 1" xmlns="http://www.w3.org/2000/svg" viewBox="0 0 841.89 841.89">
  <defs>
    <style>
      .cls-1 {
        fill: #231f20;
      }
    </style>
  </defs>
  <title>prove stampe</title>
  <g>
    <path class="cls-1" d="M453.64,457.14c-6.11-14.95-4.87-40.79,3.78-58.07,10.55,3.31,21,8.41,32.7,3.73,11-4.41,19.31-11.75,25.53-22.15,22.11,2.89,40.12,12.8,54.4,29.24a27.86,27.86,0,0,1,6.23,13.87C588.83,519.9,537.55,599,462.06,631.2c-21.59,9.22-43.63,9.2-65.36-.19-41.13-17.78-70.35-48.16-90.25-87.58-16.22-32.15-24-66.72-26.14-102.64A19.48,19.48,0,0,1,285,426.54c7.87-9.77,18.4-15.31,30.34-20,19.8,17.26,40.66,23.13,63.28,2.95,11.93,17.43,19.11,35.6,21.62,56-3.26,1.67-6.05,2.9-8.65,4.46-9,5.39-12.83,14.34-10,22.74,2.71,7.87,12,12.45,22.24,11.18a103.06,103.06,0,0,1,13.25-.85c1.46,0,2.92,1.39,4.3,2.11L387.32,530c4.24,8,11.12,8.36,18.08,7.12,5.38-1,10.6-3,15.8-4.75,2.85-1,5.59-1.75,7,1.6s-1,5.4-3.71,6.2c-9.15,2.67-18.4,5-28.71,7.78-.7,4.59,2.55,8.81,6.64,12.55a39.48,39.48,0,0,0,24.43,10.07c14.07.94,27.71-1.56,39.24-10.19,7.8-5.84,14-13.17,12-24.56-4.86,1-9.17,2.06-13.55,2.58a53.71,53.71,0,0,1-12.34.33c-3.11-.36-7.68-.46-7.12-5.51.47-4.25,4.28-3.72,7.32-3.81,4.49-.14,9,.26,13.46-.35,6.9-1,13.88-2.36,15.73-12.17-13-2.28-23.05-13.1-37.92-12.3,1.12-6.41,5.37-7.29,10.43-7.38,4.06-.08,8.35.21,12.14-1,13.91-4.26,17.58-19.77,6.54-29.26C468.1,462.9,461.5,461.05,453.64,457.14Z"/>
    <path class="cls-1" d="M594.09,449.42c-2-8.05-4.4-15.2-5.4-22.55-3-22.32-7.26-44.31-16.09-65.13-3.49-8.24-7.82-16.13-12.1-24.86a11.26,11.26,0,0,1,1.7-2.62c33.68-33.36,74.13-51,121.65-51.32a91.48,91.48,0,0,1,41.95,9.91c12.67,6.36,21.6,15.94,25.77,29.6,6.38,20.92,9.17,41.79-.65,62.63-.92,1.95-.66,6.12.67,7.13,3.11,2.38,5.91.12,7.28-3.08,2.54-5.93,4.8-12,7.19-18,8.38,11.07,17.38,21.91,25.09,33.59,4.08,6.18,6.12,13.76,8.69,20.85,1.4,3.87,1.75,8.1,3,12.06,2.5,8.16,7.31,14,16.36,15.31,1.89.28,3.67,1.4,6,2.33-4.75,8.36-12.48,9.63-19.88,8.89-20.68-2.07-36.7-12.26-47.09-31.36l14.43,6.68c4.81-4.51,5.4-6.39,1.11-9.05-4.87-3-10.45-6.15-16-6.62a83.5,83.5,0,0,0-24.5,1.79c-10.34,2.26-16.58-.74-18.52-11.36-1.61-8.83-2.43-17.79-4-26.63-1.74-10.07-5.56-19.09-13.56-26.1-11.1-9.73-23.65-11-36.81-6.1-16.44,6.06-29,17.14-37.84,32.3-2.64,4.5-3.23,8.46,3.8,10.53,1.45-2.13,3-4.29,4.42-6.52a63.31,63.31,0,0,1,24.07-22.28c22.25-11.57,43-1.38,47.38,23.24,1.73,9.86,2.71,19.84,4.48,29.69,1.45,8.07,3.56,16,5.58,24.91-4.42,3-9.81,6.6-15,10.37-2.23,1.61-4.74,3.31-6,5.6-.89,1.61-.38,4.5.51,6.33.34.7,3.86.72,5.24-.11,3.24-1.93,5.95-4.71,9.06-6.89,11-7.69,22.66-12.69,36.53-12.41,18.91.38,32.84,9,40.58,25.57,11.36,24.34,9.07,49.08-2,73.06-1.78,3.85-5.37,7.24-8.88,9.83-4.92,3.64-8.46,1.75-9.1-4.42-.84-8.07-1.38-16.18-2.08-24.72,3,.31,4,3.77,6.23,6.09,1.24,1.32,4.23,1.8,6.12,1.34.92-.22,2.11-3.94,1.46-5.18-1.69-3.26-3.76-7-6.72-8.78a75.61,75.61,0,0,0-17.71-8.16,89.91,89.91,0,0,0-49-1.25,91.44,91.44,0,0,1-18.37,2.84C664.9,517.23,651,508,644.55,491c-3.55-9.34-6-19.16-10-28.25-6.13-13.76-19-19.31-33.35-15.46C599.51,447.69,597.88,448.25,594.09,449.42Z"/>
    <path class="cls-1" d="M58.78,385.13c5.34-9.91,9.88-19.64,15.61-28.6,4.77-7.47,10.15-14.95,16.75-20.73,4.61-4,11.54-6.62,17.76-7.44A91.57,91.57,0,0,1,171.3,342c2,1.29,3.92,3.08,6.14,3.79,1.63.51,5,.11,5.31-.73.68-1.84.76-5.18-.41-6.2-3.6-3.15-7.88-5.55-11.94-8.15-2.19-1.4-4.5-2.61-6.87-4,9.63-5.86,18.61-11.41,27.7-16.78a19.41,19.41,0,0,1,6.68-2.54c12.88-2,25.8-3.75,39.7-5.73,5.77,8.39,14.7,13.42,25.52,17.52,8,3,15.4,8.4,24.16,8.88-4.08,15.5-8.47,30-11.64,44.79-4.08,19-5,38.3-5,57.71A33.53,33.53,0,0,1,267,445.21a106.3,106.3,0,0,1-32.8,38.21c-17.92,13-38.56,15.8-60.14,14.1-7.78-.62-15.6-.86-23.73-1.29a19.37,19.37,0,0,1,2.67-4.32c9.83-10.3,20-20.09,34.82-23,1.57-.31,2.62-3.28,3.91-5-1.56-1.13-3.24-3.34-4.67-3.19-4.37.48-9,1.2-12.9,3a79.35,79.35,0,0,0-28.87,23.15c-6.83,8.62-12.51,18.15-18.7,27.27-2.11,3.12-3.88,6.58-6.46,9.27-4.34,4.5-9.68,5.11-15.1,2.07-4.5-2.52-8.57-5.89-13.22-8.06s-9.56-3.18-15.8-5.16c6.19-3.76,11.17-6.14,17.28-5.35,3,.39,6.28-.13,5.57-3.86-.37-2-3.49-4.9-5.29-4.84-5.39.19-11.16.64-16,2.76-17.3,7.54-30.42,20.06-40.11,36.2-1.39,2.31-2.7,4.67-4,7-11.73-4.72-18.35-15.14-16.21-27a46.82,46.82,0,0,1,6.55-16.07c6.21-9.87,15.37-16.72,25.85-21.71,4.66-2.23,9.43-4.26,14.28-6,19.67-7.22,28.25-22,29.15-42.16.1-2.39,0-4.79,0-7.93,23.53-9.17,46.41-20,70.44-26.76,15.25-4.3,32.22-2.28,48.37-3.71,8.52-.76,16.93-2.8,25.38-4.32a16.39,16.39,0,0,0,4-1.16c2.69-1.23,5.24-3.16,3.18-6.26-1-1.44-3.89-2.35-5.82-2.19-3,.26-5.89,2-8.93,2.46-7.85,1.1-15.73,2.1-23.63,2.62-12.75.86-25.53,1.15-38.29,1.95-12.29.77-23.52,5.44-34.33,10.8A305.52,305.52,0,0,1,59.25,422c-7.75,1.61-15.55,3-23.33,4.52a14.24,14.24,0,0,1-2,.34c-7.54.42-15.31-3.24-16.82-7.91-1.42-4.37,2.22-9.94,9.64-14.5,15.6-9.61,32-12.1,49.49-5.68,3.37,1.24,7.69,4.54,9.81-.43,2.35-5.5-3.18-7-6.89-8.18C72.56,388.14,65.79,386.83,58.78,385.13Z"/>
    <path class="cls-1" d="M587.32,687.08c-2.09,4.5-4.27,7.79-5,11.38-.43,2,1.51,4.53,2.38,6.82,1.89-1.12,4.74-1.79,5.51-3.44,5.38-11.56,15-18.61,25.25-25.3,20.21-13.25,47.73-4.92,59.29,11.63a115.48,115.48,0,0,1,14.46,27.3c7.1,20.19,13.35,40.65,23.63,59.59,1.74,3.21,3.76,6.83-.05,10.9-5.3-.44-9.25-3.9-12.69-7.59q-11.31-12.11-21.93-24.86c-10.06-12.12-19.1-25.15-32.79-33.93l1.17-2.28c4.76,1.11,9.49,2.46,14.31,3.24,2,.32,5,.16,6.08-1.07,2.31-2.57.74-5.6-2-6.81a38.19,38.19,0,0,0-11.71-3.5c-16.61-1.61-31.15,4.59-45,12.86-4.14,2.48-8,5.36-12,8.22-10.92,8-22.8,9.41-35.3,4.75-7.42-2.77-14.68-6-21.8-9.49-15.89-7.72-32.13-14.41-49.7-17.07-5.73-.87-11.6-.83-16-1.12-7.62,9.5-14,18.08-21,26-5.85,6.57-13.28,9.87-23.18,6.39a57.68,57.68,0,0,1,3.34-6C439,725,444,715.63,446,704.85a38,38,0,0,0,.87-6.14c0-3.49,0-7.59-4.73-7.72-4.22-.12-4.36,3.56-4.54,6.76-.78,13.81-7.4,24.9-16.22,35-6.51,7.46-14.38,9.43-23.3,5.46a61.3,61.3,0,0,1-13.17-8c-6.83-5.46-10.49-13.28-15.39-21.71,6.33,0,11.34-.12,16.34.06,2,.07,4.13,1.36,6,1.07,1.73-.26,4.17-1.64,4.59-3s-1-4.25-2.29-4.86a27.12,27.12,0,0,0-9.9-2.53c-26.57-1.18-51.4,4.55-73.81,19.32-5.77,3.8-11.34,7.9-17.17,11.6-12,7.61-24.9,11.7-39.28,10.56-4.44-.35-8.93,0-15.9,0,7.5-5.29,13.69-7.43,20.43-8.25,2.05-.26,4.34.25,6.13-.51s4.26-2.44,4.7-4.16a4.11,4.11,0,0,0-4.61-5.32c-6.11.74-12.43,1.46-18.14,3.59-30.09,11.25-50.4,33-64.3,61.33A36.33,36.33,0,0,0,180,793c-1.4,4.73-4.74,6.7-9.37,6.4a9,9,0,0,1-8.69-7.63,43.2,43.2,0,0,1-.4-13.38c3.48-26.61,17-47,39.23-61.77,15-10,32-14.67,49.58-16.75a76.62,76.62,0,0,0,43.53-19.53c19.81-17.63,43.24-21.89,68.72-16.1a77.19,77.19,0,0,1,11.66,4.17c2.91,1.19,6,1.49,6.69-1.91.37-1.91-1.52-5.68-3.26-6.34-7-2.68-14.34-5.88-21.67-6.24-9.94-.49-18-4.09-25.71-9.61-14.33-10.32-28.09-21.28-38.52-37.45,6.34-11.31,12.86-22.93,19.71-35.16,7.11,8.56,13.41,17.14,20.72,24.76,24.61,25.67,53.09,45,88.75,51.94,14.28,2.77,28.25,1,41.75-3.93,33.05-12.08,59.16-33.68,81.44-60.34,4.4-5.27,8.34-10.92,12.86-16.88,8.61,6.17,11.44,15.39,15.25,24.13,4.38,10.06,2.81,18.13-5.12,26-13.59,13.47-28.2,25.51-44.93,34.76-3.72,2.05-8.52,2.24-12.88,3-6.77,1.19-13.62,2-20.38,3.28a14.35,14.35,0,0,0-6.56,2.85c-1.54,1.33-3.25,4-2.88,5.69.7,3.19,3.45,3.36,6.64,2.48,7.27-2,14.61-4.13,22.06-5.13,16.54-2.23,31.3,3.75,45.36,11.52C563.9,681.59,574.52,686.24,587.32,687.08Z"/>
    <path class="cls-1" d="M374.42,280.39c19.41,9.53,37.88,18.42,58.69,4.62,10.44,6,21.91,11.22,34.73,9.59,6.22-.8,12.14-4,19.54-6.59,1.4,1.85,3.95,5,6.28,8.31,12.46,17.67,28.81,30.42,48.53,39.16,3.88,1.72,7.92,4.5,10.29,7.9,10,14.32,15.42,30.54,18.93,47.59-8.79-4.91-16.85-10.32-25.59-14.12-23.74-10.33-48.28-10.8-72.81-3.21-20.12,6.21-31.31,20.29-34,41.28a107.88,107.88,0,0,0,4.33,47c1.83,5.77,4.54,9.72,11.75,9.07,3.1-.28,6.73,1.3,9.53,3,1.68,1,3.48,4.34,3,5.86-.73,2.16-3.28,4.36-5.54,5.17-2.43.87-5.45.35-8.18.09-7-.66-13.1.83-17,7.23-2.55,4.15-5.37,4.9-9.19,1.52-6.44-5.7-13.68-5.7-21.26-2.6-1.59.65-3.48,2-4.81,1.62-3.37-1-7.67-2-9.44-4.53-2.34-3.31,1.22-6.22,4-8.38a8.32,8.32,0,0,1,3.59-2c9.43-1.22,11.18-7.77,11.32-15.68.43-23.92-7-44.72-24.12-61.81a42,42,0,0,0-28.69-12.45c-26.14-1.24-49.76,5.81-70.72,21.59-1.55,1.17-3.18,2.24-5.82,4.08-1.6-12.34.34-23.2,2.91-33.63,3.87-15.68,9.25-31,14-46.45,1.52-4.9,4.49-8,9.65-9.79C333.67,314.88,356.43,301.62,374.42,280.39Z"/>
    <path class="cls-1" d="M221.22,501.29c22.68-7.78,35.76-25.31,50.2-44,1.42,8.22,2.58,14.54,3.61,20.87,4.31,26.47,12.54,51.63,26,74.85,3.4,5.87,3.77,10.79.42,16.29-7.38,12.07-14.71,24.16-22.28,36.11a15.45,15.45,0,0,1-5.84,5.66c-13.87,6.54-27.9,12.17-43.55,5.38-3.7-1.6-7.89-2.05-12.38-3.16-1.54-6.4-.35-12.71,2.36-18.77,2.37-5.29,6.07-9,12.22-10,2.86-.47,5.69-2.6,4-5.74-1-1.76-4.45-3.4-6.51-3.11-7.22,1-12.62,5.33-16.21,11.67a45.43,45.43,0,0,0-5.3,30c4.63,30.7-11.6,52.29-42.76,56.68-6.49.91-13,1.56-19.56,2-24.79,1.88-41.77,15.38-48.9,39.19-1.66,5.56-2.93,11.23-4.27,16.42-5.27,2.13-8.32-.59-10.39-3.66-3.06-4.51-6.2-9.31-7.72-14.46-9.83-33.18,4.33-70.12,27.09-88,12.5-9.85,27.76-13.74,43.36-15.2,8.54-.8,17.23.27,25.84,0,2.32-.06,6.13-1.41,6.57-2.94,1.07-3.73-2-5.43-5.49-5.73-8.89-.79-17.79-1.46-26.86-2.18-.78-12.05-1.67-24.93-2.41-37.82a32.14,32.14,0,0,1,.46-8.26c2.57-12.29,5.81-24.62,17-32,14-9.2,29.59-13.16,46.38-10.3a12,12,0,0,1,9.71,8.25c1.63,4.47,4.35,8.61,7,12.61a25.89,25.89,0,0,0,5.86,5.77c2.33,1.79,5,2.62,7.31-.2s.87-5.09-1.55-6.95c-6.67-5.1-9.53-12.53-12-20.09C221.76,508,221.77,505.17,221.22,501.29Z"/>
    <path class="cls-1" d="M704.36,246.89c-.83,8.66-5.89,12.69-13,14.54a76.79,76.79,0,0,1-41-.22c-26.3-7.59-51.32-18.3-74.23-33.52-3.71-2.47-6.77-6-10.55-8.3-1.56-1-4.24-.14-6.41-.12.11,2.16-.63,5.06.48,6.34a54.82,54.82,0,0,0,10.08,8.83c19.42,13.49,40.91,22.84,63,31,3.19,1.18,6.38,2.33,9.36,3.42,1.13,6.19-3.29,7.65-6.85,9.42-12.4,6.17-25.5,5.33-38.5,2.82A69.72,69.72,0,0,1,566,266.78c-1.08-.86-2.15-2.33-3.28-2.39a11.4,11.4,0,0,0-6.35,1.19c-.65.4-.2,4,.8,5.32,1.61,2.16,4,3.8,6.2,5.43,9.92,7.29,20.83,11.75,38.36,15.56l-35.52,22.05c-2.86-20-10.65-37.2-24.18-51.56s-30.1-24-49.41-31.84c.38-4.81,0-10,1.3-14.81,7-25.88,22.84-44.45,47.16-55.77,10.21-4.75,20.7-4.92,31.26-1.42,17.9,5.93,36.4,7.59,55.07,8.32a47,47,0,0,1,11.23,1.59c29.15,8.51,58.09,17.67,85.11,31.81,8.23,4.31,16,9.59,23.77,14.67,4.2,2.73,7.46,6.3,6.11,12s-7,11.5-13,11.77a168.89,168.89,0,0,1-24.85-.3c-18.56-1.91-36.91-5.37-54.31-12.31-6.29-2.51-12.09-6.42-17.74-10.23-2.55-1.72-5.11-3.54-7-.82-1.12,1.61-.85,6,.51,7.2,4.33,3.81,9,8,14.36,9.72,15,5,30.36,8.87,45.59,13.16C699.47,245.76,701.73,246.24,704.36,246.89Z"/>
    <path class="cls-1" d="M355.5,234.63c-15.88,10.26-30.16,21.42-47.09,28.93-10.81,4.79-20.76,12.4-29.65,20.36-7,6.25-11.71,15-17.69,22.95-7.48-2.25-7.48-2.25-13.35-11.18l8.21-5.43c11.41-7.49,21.4-16.41,28-28.56a67.52,67.52,0,0,0,4.47-11.52c1-3-.08-6-3.32-6.3-1.63-.13-4.08,2.09-5.13,3.85-3.51,5.88-5.56,12.88-9.93,17.93-17.62,20.38-40.4,30.66-67.27,31.72-7.12.28-13.64-1.55-19.28-9,3.63-1.42,6.58-2.63,9.58-3.75C216.37,276,237,263,254.28,245.09c2.64-2.74,7.83-5.84,3.48-10.15-4.54-4.5-7.28,1.21-9.88,3.81-21.31,21.25-46.44,35.66-75.8,42.36a103.88,103.88,0,0,1-21.5,2.7c-8.5.13-15.37-3.66-18.87-12-2.64-6.27-1.71-8.32,5.07-10.45a209.87,209.87,0,0,0,64.77-33.93c1.91-1.46,4.13-2.86,5.27-4.83a6.41,6.41,0,0,0-.26-5.45c-.53-.94-3.33-1.54-4.5-1-2.76,1.31-5.18,3.37-7.68,5.19-21.7,15.81-44.75,28.81-71.79,32.69-8.82,1.27-17.86,1.25-26.8,1.39-6.12.1-10.67-3.22-12.77-8.85s.85-10.08,4.54-14c6.84-7.25,15.61-11.41,24.86-14.34q39.92-12.63,80-24.74c25.71-7.82,51.57-15.12,77.19-23.22,23.29-7.36,41.66-1.63,55.67,18.58,3.53,5.1,6.58,10.54,9.77,15.87,3,5,5.66,10.32,8.95,15.16S351.19,229.18,355.5,234.63Z"/>
    <path class="cls-1" d="M590.51,467.06c7.18,11.94,13,22.06,19.24,31.87,11.2,17.51,25.18,31,50.32,30.29-5.84,4.41-9.93,6.9-13.28,10.15-6.41,6.22-12.51,12.77-18.5,19.4-2,2.25-2.4,5.54.71,7,1.53.72,4.6-.3,6.16-1.55,2.37-1.9,3.89-4.81,6-7.07,16.86-18,37.39-30.07,61.75-33.06,30.23-3.7,43,10.62,47.07,35.7,2,12.23-.53,23.85-6.24,35.07a124,124,0,0,0-8.94,24c-1.83,6.85,0,13.79,3.82,19.83,1.45,2.28,3.42,4.75,5.75,5.77,2.06.91,5-.06,7.48-.2-.52-2.15-.65-4.5-1.63-6.41-1.82-3.58-5.17-6.68-6-10.39-1-4.44.09-9.32.35-16.35,8.39,8.51,14.76,15.32,18.41,24.23a77.34,77.34,0,0,1,6.13,34.35c-.82,13.67-7.53,24.19-18,32.45a25.3,25.3,0,0,1-9.28,4.35c-6.53,1.66-11.59-1.62-13.06-8.24A62.86,62.86,0,0,1,727.78,688c-.5-9.32-4.64-16.57-12.56-21.38a144.26,144.26,0,0,0-16.45-8.69c-16.93-7.48-24.23-20.61-23.69-38.73.22-7.23,0-14.48,0-22.26,5.42-3.1,11.53-3.21,17.67-3.09,2.41,0,4.91.89,7.19.43,2-.41,3.72-2.13,5.57-3.26-1.58-1.89-3.09-5.34-4.75-5.41a132.77,132.77,0,0,0-23.68.61c-12.07,1.64-23.21,6.38-33.71,12.58-12.88,7.62-26.87,10.49-41.72,9.33-12.14-.95-16-4.25-19.59-15.89-3.89-12.65-9.55-24.36-19.69-34A209.06,209.06,0,0,0,590.51,467.06Z"/>
    <path class="cls-1" d="M413.24,42.43c12.64,8.44,24.45,16.14,36.07,24.12,20.27,13.92,37.41,30.59,47,53.86,5.61,13.56,7.22,27.29,2.18,41.38-5.71,16-18.54,24.91-35.59,24.64-11.79-.19-23.49-.3-34.4,5.38-1.45.76-4,.3-5.68-.39-9.33-3.78-18.42-2.4-27.13,1.52-4.84,2.18-9,1.91-13.83.17-21.95-8-35.7-27.11-35.79-50.68-.06-14.66,1.63-29,10.13-41.62C371.85,77.66,392.52,59.54,413.24,42.43Z"/>
    <path class="cls-1" d="M678.49,129.42c-11.38,10.72-25.34,16.12-40.21,20.14-21.92,5.88-43.5,5-65.33-.56-22.78-5.75-42.07,1.77-58.8,17.25-2.42,2.21-4.84,4.5-7.26,6.75,3.41-21.06,11.63-39.22,28.58-52.19,4.19-3.2,9.77-5.1,15-6.27,15.65-3.5,30.22-9.21,43.54-18.29,14.4-9.77,29.31-11.76,46-5.18,9.78,3.84,20.76,4.62,31.22,6.48,3.76.69,7.69.56,9.55,6.14-7.69,9.9-17.33,17.73-30.22,21-3.72,1-8.6,1.34-7.17,6.49,1.29,4.71,6,4,9.64,2.38q10.75-4.87,21.1-10.51c2.94-1.6,5.44-4,8.77-6.62C685.32,122.8,681.86,126.3,678.49,129.42Z"/>
    <path class="cls-1" d="M372,204.08c-4.54,6.31-8.78,12.24-13.79,19.24-3-4.06-6.1-7.65-8.57-11.59-5.05-8.21-9.38-16.94-14.78-24.94-10.77-15.87-24.6-28.15-44.1-31.87a79.74,79.74,0,0,0-20.54-.82c-20.88,1.65-37.57-7.13-52.23-20.66-6.83-6.32-7.22-12.07-2.89-21.19,10.16,5.66,20.28,11.37,30.39,17a44.54,44.54,0,0,0,8.39,3.89c1.25.35,4-.6,4.37-1.6.64-1.64.64-4.45-.35-5.66-1.73-2-4.41-3.2-6.79-4.58-9.81-5.67-19.63-11.2-30.52-17.43,9.68-10.5,20.41-12.62,31.43-8.56s21.7,5.67,33.29,2.77c8.52-2.12,16.39.65,22.83,6.83,14.53,13.92,24.9,30.22,29.4,50.07a136.82,136.82,0,0,0,5.53,18.8C348.39,187.61,357.94,197.68,372,204.08Z"/>
    <path class="cls-1" d="M463.22,241.15c9.17-3.86,18.51-2,27.34.5,26.89,7.5,47,23.73,59.63,48.85a52.68,52.68,0,0,1,5.88,24.91c-.14,6.4-2.53,8.86-8.9,8.34a23.26,23.26,0,0,1-9.64-3.09c-13.43-7.93-25.82-17.22-35-30.07-7-9.79-13.26-20.15-20.63-29.65C476.49,254,469.81,248.05,463.22,241.15Z"/>
    <path class="cls-1" d="M354.76,246.42c3.95,9,7.51,17.2,11.79,27-2.33,2.41-5.11,6.47-8.91,9-15.49,10.35-31,20.66-47.07,30.1-8.42,5-18.31,6-28.13,5.21-8.37-.65-12-5.88-8.26-13.39,2.87-5.73,6.81-11.57,11.77-15.45,8.9-7,18.43-13.5,28.6-18.33,11.93-5.66,23.46-11.6,33.63-20.05C350,249,352.22,248,354.76,246.42Z"/>
    <path class="cls-1" d="M418.57,202.81c.95,6.82-3.43,11.61-7,16.49-2.82,3.87-6.44,7.18-9.85,10.58-5.73,5.71-5.6,7.29,1.36,11.13a46.21,46.21,0,0,1,19.53,20.74c4.66,9.53,2.07,15.47-8.3,17.43-25.79,4.88-49.67-18.06-45.16-42.63C373.19,214.67,393,196.25,418.57,202.81Z"/>
    <path class="cls-1" d="M416.37,230.48c4.28-8.29,8-15.6,11.85-22.81a13.71,13.71,0,0,1,3.93-4.56c12.74-9,33.1-11.17,47.55,2.69,5.3,5.08,9.13,11.15,6.76,18.86-1.11.6-1.84,1.32-2.26,1.17-8.24-2.93-15.19,0-22.37,3.95-8,4.35-16.34,6.41-25.79,3.29C430,231.07,423.17,231.29,416.37,230.48Z"/>
    <path class="cls-1" d="M420.12,240.76c21.19.88,38.39,6.83,51.72,21.73a22.42,22.42,0,0,1,4.65,9c2.38,9.09-.65,13.23-10.11,12.92a72.64,72.64,0,0,1-19.05-3.3c-7.09-2.21-12.15-6.4-13.65-15-1.08-6.14-5.27-11.76-8.25-17.52C424.23,246.33,422.52,244.28,420.12,240.76Z"/>
  </g>
</svg>
