<svg id="Livello_1" data-name="Livello 1" xmlns="http://www.w3.org/2000/svg" viewBox="0 0 841.89 841.89">


  <title>prove stampe</title>
  <path class="cls-1" d="M831.84,420.94c0,9-7.39,23.14-12.61,26.44-20.57,12.94-20.81,32.38-19.05,53.27.57,6.43.16,14.22-3,19.36-21,33.83-32.3,69.82-29.81,110,.24,4.42-4.34,12-8.19,13.26-4.18,1.28-11.73-1.77-15-5.39-7.71-8.43-16.71-12.29-27.56-11.65A145.64,145.64,0,0,0,690.83,630c-12.77,3-16,1.12-20-11-2.16-6.59-6.18-12.77-10.12-18.56-4.18-6.27-8.84-10.77-17.28-4-2.81,2.25-10.52,1.13-14.38-1.2-18.88-11.25-33.82-26.36-41.21-47.73-6.27-17.84-23.14-23.22-35.92-9.72a86.05,86.05,0,0,0-18.24,30.13c-5.7,16.87,9.72,36.08,27.56,39.53,6.67,1.29,16.07,5.87,18,11.17,6.26,17,17.67,27.48,32.78,36.07,20.81,11.9,23.7,23.39,12.94,45a45.61,45.61,0,0,1-8,11.81c-8.11,8.36-6.51,16.15.16,24.35,3.54,4.25,7.39,8.59,9.72,13.49,6.35,13.5.49,21.86-14.22,20.57-5.54-.48-10.84-2.25-16.39-3.13-26.43-4.34-52.71-4.66-76.17,10.52-14.22,9.16-28.76,13.34-45.64,14.63-15.82,1.12-33.74,1.77-42.26,20.73-1.12,2.49-5.86,3.77-11.17,3.85-5.3-.08-10-1.36-11.16-3.85-8.52-19-26.44-19.61-42.27-20.73-16.87-1.29-31.41-5.47-45.63-14.63-23.47-15.18-49.74-14.86-76.17-10.52-5.55.88-10.85,2.65-16.4,3.13-14.7,1.29-20.56-7.07-14.21-20.57,2.32-4.9,6.18-9.24,9.72-13.49,6.66-8.2,8.27-16,.16-24.35a45.61,45.61,0,0,1-8-11.81c-10.76-21.61-7.87-33.1,12.94-45,15.1-8.59,26.51-19,32.78-36.07,1.93-5.3,11.33-9.88,18-11.17,17.83-3.45,33.26-22.66,27.56-39.53A86.05,86.05,0,0,0,290,537.77c-12.78-13.5-29.65-8.12-35.92,9.72-7.39,21.37-22.33,36.48-41.21,47.73-3.86,2.33-11.57,3.45-14.39,1.2-8.43-6.75-13.09-2.25-17.27,4-3.94,5.79-8,12-10.13,18.56-4,12.13-7.23,14.06-20,11a145.78,145.78,0,0,0-25.71-3.78c-10.85-.64-19.85,3.22-27.56,11.65-3.3,3.62-10.85,6.67-15,5.39-3.85-1.29-8.43-8.84-8.19-13.26,2.49-40.18-8.76-76.17-29.81-110-3.22-5.14-3.62-12.93-3-19.36,1.76-20.89,1.52-40.33-19-53.27-5.22-3.3-12.61-17.41-12.61-26.44s7.39-23.14,12.61-26.43c20.57-12.94,20.81-32.38,19.05-53.27-.57-6.43-.17-14.22,3-19.36,21.05-33.83,32.3-69.83,29.81-110-.24-4.42,4.34-12,8.19-13.26,4.18-1.28,11.73,1.77,15,5.39,7.71,8.43,16.71,12.29,27.56,11.65a145.78,145.78,0,0,0,25.71-3.78c12.77-3,16-1.12,20,11,2.17,6.59,6.19,12.77,10.13,18.56,4.18,6.27,8.84,10.77,17.27,4,2.82-2.25,10.53-1.13,14.39,1.2,18.88,11.25,33.82,26.36,41.21,47.73,6.27,17.84,23.14,23.22,35.92,9.72A86.05,86.05,0,0,0,308.22,274c5.7-16.87-9.73-36.08-27.56-39.53-6.67-1.29-16.07-5.87-18-11.17-6.27-17-17.68-27.48-32.78-36.07-20.81-11.9-23.7-23.39-12.94-45a45.61,45.61,0,0,1,8-11.81c8.11-8.36,6.5-16.15-.16-24.35-3.54-4.25-7.4-8.59-9.72-13.49-6.35-13.5-.49-21.86,14.21-20.57,5.55.48,10.85,2.25,16.4,3.13,26.43,4.34,52.7,4.66,76.17-10.52C336.1,55.45,350.64,51.27,367.51,50c15.83-1.12,33.75-1.77,42.27-20.73,1.12-2.49,5.86-3.77,11.16-3.85,5.31.08,10.05,1.36,11.17,3.85,8.52,19,26.44,19.61,42.26,20.73,16.88,1.29,31.42,5.47,45.64,14.63,23.46,15.18,49.74,14.86,76.17,10.52,5.55-.88,10.85-2.65,16.39-3.13,14.71-1.29,20.57,7.07,14.22,20.57-2.33,4.9-6.18,9.24-9.72,13.49-6.67,8.2-8.27,16-.16,24.35a45.61,45.61,0,0,1,8,11.81c10.76,21.61,7.87,33.1-12.94,45-15.11,8.59-26.52,19-32.78,36.07-1.93,5.3-11.33,9.88-18,11.17C543.39,237.91,528,257.12,533.67,274a86.05,86.05,0,0,0,18.24,30.13c12.78,13.5,29.65,8.12,35.92-9.72,7.39-21.37,22.33-36.48,41.21-47.73,3.86-2.33,11.57-3.45,14.38-1.2,8.44,6.75,13.1,2.25,17.28-4,3.94-5.79,8-12,10.12-18.56,4-12.13,7.24-14.06,20-11a145.64,145.64,0,0,0,25.71,3.78c10.85.64,19.85-3.22,27.56-11.65,3.3-3.62,10.85-6.67,15-5.39,3.85,1.29,8.43,8.84,8.19,13.26-2.49,40.17,8.76,76.17,29.81,110,3.21,5.14,3.62,12.93,3,19.36-1.76,20.89-1.52,40.33,19.05,53.27C824.45,397.8,831.84,411.92,831.84,420.94Z"/>
</svg>
