<svg id="Livello_1" data-name="Livello 1" xmlns="http://www.w3.org/2000/svg" viewBox="0 0 841.89 841.89">
 
  <title>prove stampe</title>
  <g>
    <path class="cls-1" d="M746.14,233.23c-46-79.75-109.08-19.55-122.13-8.35-21.34,18.5-94.08,81.32-126.69,109.37a112.93,112.93,0,0,1,11.87,12.09l129.44-98.71c27-20.07,61.33-20.59,75.58,4s-3.43,54-34.32,67.37L529.7,381.85a110.37,110.37,0,0,1,4.56,16.34c40.58-14.25,131.3-45.88,158-55.14C708.54,337.38,792.17,312.91,746.14,233.23ZM692.27,498.76c-26.71-9.25-117.43-40.81-158-55.06A110.37,110.37,0,0,1,529.7,460l150.19,62.74c30.89,13.36,48.49,42.83,34.24,67.45s-48.49,24-75.5,3.95L509.26,495.55a112.84,112.84,0,0,1-11.86,12.09C530,535.77,602.67,598.51,624,616.94c13,11.26,76.1,71.47,122.13-8.21S708.54,504.51,692.27,498.76Zm-359.61-3.21L203.3,594.18c-27,20.15-61.33,20.67-75.58-3.95s3.43-54.09,34.32-67.37L312.15,460a110.34,110.34,0,0,1-4.55-16.34C267,458,176.36,489.58,149.65,498.83c-16.26,5.68-99.9,30.15-53.94,109.83s109.08,19.54,122.13,8.28c21.42-18.43,94.08-81.25,126.69-109.3A113.89,113.89,0,0,1,332.66,495.55ZM421,45.44c-92.07,0-71.47,84.68-68.27,101.62,5.38,27.75,23.36,122.13,31.41,164.36a98.76,98.76,0,0,1,16.27-4.18L379.74,145.79C375.86,112.37,392.5,82.37,421,82.37s45.06,30,41.18,63.42L441.52,307.24a106.17,106.17,0,0,1,16.26,4.18c8.06-42.23,26-136.61,31.41-164.36C492.4,130.12,513,45.44,421,45.44ZM522.47,415.72c-.08-1.71-.23-3.43-.38-5.15s-.37-3.43-.67-5.07l-.45-2.69a97.8,97.8,0,0,0-4.1-15.59c-.15-.37-.3-.82-.45-1.19a88.71,88.71,0,0,0-3.88-9.1,47.93,47.93,0,0,0-2.23-4.41c-.82-1.56-1.65-3-2.54-4.55-.9-1.27-1.72-2.53-2.54-3.8s-1.86-2.69-2.83-4-1.94-2.54-3-3.81a108.76,108.76,0,0,0-12.68-12.9c-1.87-1.57-3.88-3.14-5.89-4.63l-3.06-2.16c-1.27-.82-2.61-1.64-3.88-2.46a94.29,94.29,0,0,0-13.43-6.87,48.7,48.7,0,0,0-4.63-1.79A99.55,99.55,0,0,0,439.73,321h-.23c-1.64-.29-3.35-.59-5-.82-1.49-.22-3-.37-4.47-.52-3-.3-6-.45-9.1-.45-1.5,0-3,.08-4.48.15-2.46.15-4.85.3-7.24.68-1.27.14-2.53.29-3.8.52a2.5,2.5,0,0,0-.82.15,23.32,23.32,0,0,0-2.32.29h-.07a97.91,97.91,0,0,0-15.44,4.18A111.42,111.42,0,0,0,372,331.86c-1.27.67-2.53,1.42-3.73,2.17-1.42.82-2.76,1.71-4.1,2.61-1,.74-2.09,1.42-3.06,2.16-2,1.49-4,3.06-5.89,4.63a108.23,108.23,0,0,0-11.42,11.34c-.37.52-.82,1-1.27,1.56-.74.9-1.41,1.79-2.16,2.69s-1.57,2.09-2.31,3.13c-1.87,2.61-3.58,5.3-5.23,8.14-.74,1.26-1.41,2.53-2.08,3.88s-1.42,2.83-2.09,4.25-1.27,2.83-1.87,4.25-1.19,3-1.72,4.55a97.8,97.8,0,0,0-4.1,15.59l-.45,2.69c-.29,1.64-.52,3.36-.67,5.07s-.3,3.44-.37,5.15-.15,3.43-.15,5.22.08,3.51.15,5.23.22,3.43.37,5.15.38,3.43.67,5.07a17.85,17.85,0,0,0,.45,2.68,90.76,90.76,0,0,0,4.1,15.6c.53,1.56,1.12,3.13,1.72,4.55s1.19,2.83,1.87,4.25,1.34,2.84,2.09,4.25,1.34,2.62,2.08,3.88c.82,1.49,1.72,2.91,2.62,4.26s1.71,2.61,2.61,3.88c.74,1,1.49,2.09,2.31,3.13s1.42,1.86,2.16,2.69c.45.52.9,1,1.27,1.56a101.07,101.07,0,0,0,11.42,11.34c1.86,1.57,3.88,3.14,5.89,4.63,1,.74,2,1.42,3.06,2.16,1.34.9,2.68,1.79,4.1,2.61,1.2.75,2.46,1.49,3.73,2.17a94,94,0,0,0,14.78,6.64,97.89,97.89,0,0,0,15.44,4.17h.07c.68.15,1.35.15,2,.3a5.32,5.32,0,0,1,1,.15c1.27.23,2.54.37,3.81.52,2.38.38,4.85.53,7.31.68,1.49.07,3,.15,4.48.15,2.46,0,4.85-.08,7.23-.3.45-.08,1-.08,1.42-.15,1.42-.08,2.84-.3,4.25-.45.23,0,.45-.08.67-.08,1.65-.22,3.36-.52,5-.82h.23a98.52,98.52,0,0,0,16.11-4.47,48.7,48.7,0,0,0,4.63-1.79,96.31,96.31,0,0,0,17.31-9.33l3.06-2.16c2-1.49,4-3.06,5.89-4.63a103.71,103.71,0,0,0,12.68-12.9c1-1.2,2-2.54,3-3.81s1.94-2.61,2.83-3.95,1.64-2.54,2.47-3.88a47,47,0,0,0,2.61-4.56c.82-1.41,1.56-2.9,2.23-4.32a48.16,48.16,0,0,0,2.09-4.63,47.22,47.22,0,0,0,1.79-4.55c.15-.37.3-.75.45-1.19a97.64,97.64,0,0,0,4.1-15.6l.45-2.68c.3-1.64.52-3.36.67-5.07s.3-3.44.38-5.15.15-3.44.15-5.23S522.54,417.44,522.47,415.72ZM127.79,251.66c14.18-24.62,48.5-24.1,75.51-4l129.44,98.71a113.8,113.8,0,0,1,11.86-12.09c-32.53-28-105.34-90.87-126.76-109.37-13.05-11.2-76.1-71.4-122,8.28s37.6,104.22,53.86,109.89c26.71,9.26,117.36,40.89,158,55.14a110.34,110.34,0,0,1,4.55-16.34L162,319C131.15,305.68,113.54,276.28,127.79,251.66Zm361.4,443.17c-5.37-27.76-23.35-122.13-31.41-164.36a106.17,106.17,0,0,1-16.26,4.18L462.18,696.1c3.88,33.42-12.75,63.42-41.25,63.42s-45.07-30-41.19-63.42l20.67-161.45a98.76,98.76,0,0,1-16.27-4.18c-8.05,42.23-26,136.6-31.41,164.36-3.2,16.94-23.8,101.62,68.2,101.62S492.4,711.77,489.19,694.83Z"/>
    <path class="cls-1" d="M522.62,420.94c0,1.79-.08,3.51-.15,5.23s-.23,3.43-.38,5.15-.37,3.43-.67,5.07l-.45,2.68a97.64,97.64,0,0,1-4.1,15.6c-.15.44-.3.82-.45,1.19a47.22,47.22,0,0,1-1.79,4.55,48.16,48.16,0,0,1-2.09,4.63c-.67,1.42-1.41,2.91-2.23,4.32a47,47,0,0,1-2.61,4.56c-.83,1.34-1.65,2.61-2.47,3.88s-1.86,2.68-2.83,3.95-1.94,2.61-3,3.81a103.71,103.71,0,0,1-12.68,12.9c-1.87,1.57-3.88,3.14-5.89,4.63l-3.06,2.16a96.31,96.31,0,0,1-17.31,9.33,48.7,48.7,0,0,1-4.63,1.79,98.52,98.52,0,0,1-16.11,4.47h-.23c-1.64.3-3.35.6-5,.82-.22,0-.44.08-.67.08-1.41.15-2.83.37-4.25.45-.45.07-1,.07-1.42.15-2.38.15-4.77.22-7.23.22-1.5,0-3,0-4.48-.07-2.46-.15-4.93-.3-7.31-.68-1.27-.15-2.54-.29-3.81-.52a5.32,5.32,0,0,0-1-.15c-.67-.15-1.34-.15-2-.3h-.07a97.89,97.89,0,0,1-15.44-4.17A94,94,0,0,1,372,510c-1.27-.68-2.53-1.42-3.73-2.17-1.42-.82-2.76-1.71-4.1-2.61-1-.74-2.09-1.42-3.06-2.16-2-1.49-4-3.06-5.89-4.63a101.07,101.07,0,0,1-11.42-11.34c-.37-.52-.82-1-1.27-1.56-.74-.83-1.41-1.72-2.16-2.69s-1.57-2.09-2.31-3.13c-.9-1.27-1.79-2.54-2.61-3.88s-1.8-2.77-2.62-4.26c-.74-1.26-1.41-2.53-2.08-3.88s-1.42-2.83-2.09-4.25-1.27-2.83-1.87-4.25-1.19-3-1.72-4.55a90.76,90.76,0,0,1-4.1-15.6,17.85,17.85,0,0,1-.45-2.68c-.29-1.64-.52-3.36-.67-5.07s-.3-3.44-.37-5.15-.15-3.44-.15-5.23.08-3.5.15-5.22.22-3.43.37-5.15.38-3.43.67-5.07l.45-2.69a97.8,97.8,0,0,1,4.1-15.59c.53-1.57,1.12-3.06,1.72-4.55s1.19-2.83,1.87-4.25,1.34-2.84,2.09-4.25,1.34-2.62,2.08-3.88c1.65-2.84,3.36-5.53,5.23-8.14.74-1,1.49-2.09,2.31-3.13s1.42-1.79,2.16-2.69c.45-.52.9-1,1.27-1.56a108.23,108.23,0,0,1,11.42-11.34c1.86-1.57,3.88-3.14,5.89-4.63,1-.74,2-1.42,3.06-2.16,1.34-.9,2.68-1.79,4.1-2.61,1.2-.75,2.46-1.5,3.73-2.17a111.42,111.42,0,0,1,14.78-6.64A97.91,97.91,0,0,1,402.2,321h.07a23.32,23.32,0,0,1,2.32-.29,2.5,2.5,0,0,1,.82-.15c1.27-.23,2.53-.38,3.8-.52,2.39-.38,4.78-.53,7.24-.68,1.49-.07,3-.07,4.48-.07,3.05,0,6.11.15,9.1.37,1.49.15,3,.3,4.47.52,1.65.23,3.36.53,5,.82h.23a99.55,99.55,0,0,1,16.11,4.48,48.7,48.7,0,0,1,4.63,1.79,94.29,94.29,0,0,1,13.43,6.87c1.27.82,2.61,1.64,3.88,2.46l3.06,2.16c2,1.49,4,3.06,5.89,4.63a108.76,108.76,0,0,1,12.68,12.9c1,1.27,2,2.54,3,3.81s1.94,2.69,2.83,4,1.64,2.53,2.54,3.8c.89,1.5,1.72,3,2.54,4.55a47.93,47.93,0,0,1,2.23,4.41,88.71,88.71,0,0,1,3.88,9.1c.15.37.3.82.45,1.19a97.8,97.8,0,0,1,4.1,15.59l.45,2.69c.3,1.64.52,3.36.67,5.07s.3,3.44.38,5.15S522.62,419.15,522.62,420.94Z"/>
    <path class="cls-1" d="M522.62,420.94c0,1.79-.08,3.51-.15,5.23s-.23,3.43-.38,5.15-.37,3.43-.67,5.07l-.45,2.68a97.64,97.64,0,0,1-4.1,15.6c-.15.44-.3.82-.45,1.19a47.22,47.22,0,0,1-1.79,4.55,48.16,48.16,0,0,1-2.09,4.63c-.67,1.42-1.41,2.91-2.23,4.32a47,47,0,0,1-2.61,4.56c-.83,1.34-1.65,2.61-2.47,3.88s-1.86,2.68-2.83,3.95-1.94,2.61-3,3.81a103.71,103.71,0,0,1-12.68,12.9c-1.87,1.57-3.88,3.14-5.89,4.63l-3.06,2.16a96.31,96.31,0,0,1-17.31,9.33,48.7,48.7,0,0,1-4.63,1.79,98.52,98.52,0,0,1-16.11,4.47h-.23c-1.64.3-3.35.6-5,.82-.22,0-.44.08-.67.08-1.41.15-2.83.37-4.25.45-.45.07-1,.07-1.42.15-2.38.22-4.77.3-7.23.3-1.5,0-3-.08-4.48-.15-2.46-.15-4.93-.3-7.31-.68-1.27-.15-2.54-.29-3.81-.52a5.32,5.32,0,0,0-1-.15c-.67-.15-1.34-.15-2-.3h-.07a97.89,97.89,0,0,1-15.44-4.17A94,94,0,0,1,372,510c-1.27-.68-2.53-1.42-3.73-2.17-1.42-.82-2.76-1.71-4.1-2.61-1-.74-2.09-1.42-3.06-2.16-2-1.49-4-3.06-5.89-4.63a101.07,101.07,0,0,1-11.42-11.34c-.37-.52-.82-1-1.27-1.56-.74-.83-1.41-1.72-2.16-2.69s-1.57-2.09-2.31-3.13c-.9-1.27-1.79-2.54-2.61-3.88s-1.8-2.77-2.62-4.26c-.74-1.26-1.41-2.53-2.08-3.88s-1.42-2.83-2.09-4.25-1.27-2.83-1.87-4.25-1.19-3-1.72-4.55a90.76,90.76,0,0,1-4.1-15.6,17.85,17.85,0,0,1-.45-2.68c-.29-1.64-.52-3.36-.67-5.07s-.3-3.44-.37-5.15-.15-3.44-.15-5.23.08-3.5.15-5.22.22-3.43.37-5.15.38-3.43.67-5.07l.45-2.69a97.8,97.8,0,0,1,4.1-15.59c.53-1.57,1.12-3.06,1.72-4.55s1.19-2.83,1.87-4.25,1.34-2.84,2.09-4.25,1.34-2.62,2.08-3.88c1.65-2.84,3.36-5.53,5.23-8.14.74-1,1.49-2.09,2.31-3.13s1.42-1.79,2.16-2.69c.45-.52.9-1,1.27-1.56a108.23,108.23,0,0,1,11.42-11.34c1.86-1.57,3.88-3.14,5.89-4.63,1-.74,2-1.42,3.06-2.16,1.34-.9,2.68-1.79,4.1-2.61,1.2-.75,2.46-1.5,3.73-2.17a111.42,111.42,0,0,1,14.78-6.64A97.91,97.91,0,0,1,402.2,321h.07a23.32,23.32,0,0,1,2.32-.29,2.5,2.5,0,0,1,.82-.15c1.27-.23,2.53-.38,3.8-.52,2.39-.38,4.78-.53,7.24-.68,1.49-.07,3-.15,4.48-.15,3.05,0,6.11.15,9.1.45,1.49.15,3,.3,4.47.52,1.65.23,3.36.53,5,.82h.23a99.55,99.55,0,0,1,16.11,4.48,48.7,48.7,0,0,1,4.63,1.79,94.29,94.29,0,0,1,13.43,6.87c1.27.82,2.61,1.64,3.88,2.46l3.06,2.16c2,1.49,4,3.06,5.89,4.63a108.76,108.76,0,0,1,12.68,12.9c1,1.27,2,2.54,3,3.81s1.94,2.69,2.83,4,1.64,2.53,2.54,3.8c.89,1.5,1.72,3,2.54,4.55a47.93,47.93,0,0,1,2.23,4.41,88.71,88.71,0,0,1,3.88,9.1c.15.37.3.82.45,1.19a97.8,97.8,0,0,1,4.1,15.59l.45,2.69c.3,1.64.52,3.36.67,5.07s.3,3.44.38,5.15S522.62,419.15,522.62,420.94Z"/>
  </g>
</svg>
