<svg id="Livello_1" data-name="Livello 1" xmlns="http://www.w3.org/2000/svg" viewBox="0 0 841.89 841.89">
  
  <title>prove stampe</title>
  <g>
    <path class="cls-1" d="M442.45,334a90.53,90.53,0,0,0-43.08,0c-6-13.66-66.57-157.86-22.55-238.31,16.62-29.78,44.09-29.35,44.09-29.35s27.47-.43,44.09,29.35C509,176.16,448.45,320.36,442.45,334Z"/>
    <path class="cls-1" d="M374.79,344.29a88.69,88.69,0,0,0-30.5,30.5h-.07c-14-5.56-158.74-64.62-184.47-152.66-9.33-32.82,10.41-51.9,10.41-51.9s19.15-19.73,52-10.41C310.1,185.55,369.23,330.34,374.79,344.29Z"/>
    <path class="cls-1" d="M331.42,421a88.54,88.54,0,0,0,2.6,21.54c-13.66,6-157.86,66.57-238.31,22.55C65.93,448.45,66.36,421,66.36,421s-.43-27.47,29.35-44.09c80.45-44,224.65,16.55,238.31,22.55A88.6,88.6,0,0,0,331.42,421Z"/>
    <path class="cls-1" d="M374.79,497.67c-5.56,13.95-64.69,158.74-152.66,184.47-32.82,9.25-52-10.48-52-10.48s-19.74-19.08-10.41-51.9c25.73-88,170.52-147.1,184.47-152.66A89.61,89.61,0,0,0,374.79,497.67Z"/>
    <path class="cls-1" d="M465,746.18c-16.62,29.78-44.09,29.35-44.09,29.35s-27.47.43-44.09-29.35c-44-80.45,16.55-224.65,22.55-238.31a90.53,90.53,0,0,0,43.08,0C448.45,521.53,509,665.73,465,746.18Z"/>
    <path class="cls-1" d="M671.66,671.66s-19.16,19.73-52,10.48c-88-25.73-147.1-170.52-152.66-184.47A89.09,89.09,0,0,0,497.6,467.1c13.95,5.56,158.74,64.69,184.47,152.66C691.39,652.58,671.66,671.66,671.66,671.66Z"/>
    <path class="cls-1" d="M775.53,421s.43,27.47-29.35,44.09c-80.45,44-224.65-16.55-238.31-22.55a90.53,90.53,0,0,0,0-43.08c13.66-6,157.86-66.57,238.31-22.55C776,393.51,775.53,421,775.53,421Z"/>
    <path class="cls-1" d="M682.07,222.13c-25.73,88-170.52,147.1-184.47,152.66h-.07a88.09,88.09,0,0,0-30.5-30.5c5.56-14,64.69-158.74,152.66-184.47,32.81-9.32,52,10.41,52,10.41S691.39,189.31,682.07,222.13Z"/>
  </g>
</svg>
