<svg id="Livello_1" data-name="Livello 1" xmlns="http://www.w3.org/2000/svg" viewBox="0 0 841.89 841.89">
 
  <title>prove stampe</title>
  <g>
    <path class="cls-1" d="M176.12,419.82c-1.71-.7-.53-6.09,0-8.12,5.51-23,12.08-44.39,18.44-67.17,3.44-12.35,4-24.67,4.07-37.19,0-2.73-1.41-3.56-4-2.39-9.31,5.35-12.44,4.82-14.71,3.43-4-2.45-3.72-7.52.75-9.61,4.3-2,19.74-6.82,20.26-15.6.42-6.92-.72-25.39,7.37-25.42,6.12,0,5.33,17.88,4.95,23.07-.59,8,21.07,20.38,22.91,21.83a5.53,5.53,0,0,1,1.68,6.41c-3.07,4.65-9.09,1.66-15.92-1.88-4.59-2.38-6-2.26-7.41,2.73-.57,2.1-2.85,19.15,3.11,48.07,3.81,19.09,8.27,38.06,11.81,57.21.23,1.22,0,3.77-1.76,4.13-1.84.05-2.29-1.93-2.58-3.1-1.55-6.48-13.68-56.74-14.83-58.89-1.89-3.88-5.28-3.44-8-.37-4.36,4.49-15.85,41.91-20.47,55.2C180.55,415.56,179.44,420.59,176.12,419.82Z"/>
    <path class="cls-1" d="M203.68,566.78c-.82-12-1.55-43-4.79-49.83-1.55-3.29-3.26-3.85-6.13-1.61-2.31,1.8-9.71,9.73-12.81,6.6-2.07-1.92,0-4,1.18-5.55q5.85-7.61,12.14-14.88a23.06,23.06,0,0,0,5.8-16.1,18.72,18.72,0,0,1,.87-6.18c1.27-3.8,5-4.51,7.32-1.27a13.35,13.35,0,0,1,2.52,6.76c.33,6.89,3.23,12.12,8.42,16.54,3.82,3.25,11.91,10.6,13.13,14.58.32,1,.85,2.39-.36,3.42-2.86,2.43-8.54-2.5-11.25-5-3.59-3.24-8.63-3.88-6.37,4.05,2.47,13.19,4.72,26.45,8,39.45,1.73,6.92,11.22,27.35,12.79,36,.26,1,.65,2.5-.75,3.45s-2.76-.54-3.31-1.37c-2-3-7.55-14.33-8.91-16.59-2-3.34-5.18-3.33-7.47-.17s-2.93,14.37-3.25,18.11a1.24,1.24,0,0,1,0,.27c-.5,2.05-.31,4.94-3.28,4.89s-3.23-3-3.27-5.15C203.68,588.22,203.73,579.16,203.68,566.78Z"/>
    <path class="cls-1" d="M234.65,189.68c-2.81.41-3.83-2.3-4.4-3.4-6.68-12.87-16-58.45-22.79-56.53-5.32.21-17.65,44.63-20.18,52.07-.55,1.62-.79,4.11-3.1,3.7-1.85-.54-1.37-3.17-1.15-4.76,2.78-20.36,23.71-71.24,17.75-78.23-4-4.68-15.22,2.76-20.21,5-1.28.58-5.16,3.15-5.18-.93,0-1.58,2.59-2.91,4.14-4,5.56-3.86,25.68-13.3,23.68-22-1.11-3.16-2.83-15.24,6-14.63s3.39,12.21,3,15.53c-.32,2.4-.24,4.48,2,6.08,6.75,4.87,22.33,16.45,23.19,17.48.45.54,1.09,1.16.49,2.2a2,2,0,0,1-2.23,1.08c-2.12-.46-17.66-11.43-20.49-8.56-4.38,3.87,19.14,82,20,85.09C235.49,186.29,236.36,189.2,234.65,189.68Z"/>
    <path class="cls-1" d="M196.28,744.32c.38-13.44.19-26.9.17-40.36,0-2.37-1-3.84-3.8-4-3.4-.22-4.57-2.68-2.42-5.3,2.94-3.6,8.18-9.41,7.21-16.87-.46-3.46-1.66-13.8,4.43-14.22,5.48-.38,6.16,9.73,6.54,13.15.52,4.56,2,8.48,5.38,11.68,2.31,2.22,8.51,9.16,9.39,10.3,2.71,3.51.84,8.21-8.9,2.91-3.74-2-5.37-1.51-5.52,2.76-.23,6.47.23,13,.21,19.46-.09,37.93,9.54,57.28,2.57,59.39-3.16,1-6.91-8.17-10-7.2-2.13.66-2.57,7.53-4.75,7.54-1.08,0-1.75-1-2-2.52C194.4,777.77,196,753.27,196.28,744.32Z"/>
    <path class="cls-1" d="M84.16,526.31c0-4.33-2-14.39-10.71-8.29-2,1.42-8.32,7.07-9.9,7.67-2,.76-3.36-.35-3-2.45.72-4.39,9.8-13.63,14.28-18,4.17-4.1,5.34-8.39,4-14.13-1-4.34-2.8-20.84,5.85-21.62,9.56-.87,9.23,19.84,8.85,22.64-.49,3.48.43,6.34,3.44,8,10.12,5.71,19.35,15.13,22.76,22.85.44,1,1.13,2.33.08,3.53-1.19,1.36-2.69.32-3.54-.26-3.25-2.18-12.2-13.56-16.54-11.1-2.8,1.59-2.14,11.92-1.63,15.52,2.32,16.29,4.66,32.57,7.27,48.8,1,6.12,4.9,18.72,4.39,26.66-.06.94-.36,2.61-1.39,2.77s-1.82-1.42-2.27-2.35c-.94-2-.92-9.53-5.51-10.16-7.42-1-9,5.69-9.43,6.88-.27.71-.55,1.85-1.32,1.94s-1.28-.93-1.69-1.55c-2.82-4.21-3.4-9-3.44-13.91C84.58,580,84.15,537.66,84.16,526.31Z"/>
    <path class="cls-1" d="M98.06,404.25c-.12,1.43-.12,4.2-2,4.38-2.08,0-2.51-2.74-2.69-4.24-.68-5.44-.66-11-1.34-16.41-.88-7-2.27-26.35-7-25.92-3.57.19-6.45,19-7.86,26-.79,3.94-1.67,7.87-2.74,11.74-.26.94-.87,2.64-2.17,2.45-1.59-.42-1.53-1.94-1.55-2.85-.29-15.29,10.5-51.12,8.92-71.49-.28-3.65-2.86-4.79-6.21-3.2-2.78,1.32-13,8.09-15.7,9.44-1.78.9-4.08,1.57-5.52-.39-1.54-2.11-.18-4.07,1.42-5.56C56,326,81.54,310.47,82.46,297.74c.39-5.48-4.06-28.68,6.55-28.72,12.37,0,7.12,23.58,6.94,27.68-2.12,15.48,6.49,8.16,30.75,39.92,1.53,1.48,2.86,5,2.43,6.74-1,3.24-4,2.89-6.42,1.25-2.7-1.82-15.11-14.3-19.11-18.05-3.11-2.9-5.65-2.29-7,1.75C93,335.3,98.9,394.43,98.06,404.25Z"/>
    <path class="cls-1" d="M76.93,93.91c-1.11-4.27-3.13-4.7-6.48-1.85-2.37,2-9.29,7.76-10.51,8.35-2.16,1-4.49,1.47-6.36-.48s-2.55-4.65-1-6.81S66.76,81.87,70.8,79c3.46-2.44,4.53-5.73,3.44-9.86a12.11,12.11,0,0,1,.86-9.32c.68-1.26.25-3.08.74-4.5A14.4,14.4,0,0,1,78,52.15c.78,1,1.9,1.94,2.26,3.1a12.1,12.1,0,0,0,2.55,4.82,8.47,8.47,0,0,1,1.87,6c-.77,6.06,2.61,9.09,7.23,11.65,5.74,3.19,19,11.54,19.94,12.36,1.3,1.14,2,2.55,1.68,3.7-.36,1.37-3,.41-4.22-.1-3-1.28-14.61-9.81-17.34-6.52-3.9,4.69,24.44,77,36.22,98,.18.31,1.87,3.49.07,5.07-2.49,2.2-5-1.71-6-3.39-10-16.72-27.91-58.39-33.54-56.53-5.26,1.73-7.72,70-7.89,71.22-.2,1.5-1.6,2.11-3.21,2a3.4,3.4,0,0,1-2.95-2.35C74.2,199,77.92,97.68,76.93,93.91Z"/>
    <path class="cls-1" d="M85.85,785.52c-1.59-.35-1.15-3.08-.84-4.92,4.47-30.21-1.69-81.74-3.3-86.38-1.29-3.71-3-4-6.49-2.25-4.07,2.08-8.07,4.27-12.22,6.16-1.66.75-4.11,2.14-5.18-.32-.39-.91,1.32-3.38,2.65-4.28,5.43-3.65,11.12-6.92,16.63-10.44,6-3.84,6-3.9,4.63-10.81-.27-1.36-1.93-10.15,4.77-10.73,7.62-.65,6.57,10.55,6.15,12.88-.71,3.9-.22,5.22,3.53,6.71,3,1.2,23.61,9.74,24.5,10.15s2.85,1.21,2.26,3.21-3.2.85-4,.58c-1.94-.71-13-5-17.19-6.15-3-.85-4,.16-4.63,3.24-1.74,8.37,11.49,74,17,88.49a1.85,1.85,0,0,1-1.08,2.33,2.13,2.13,0,0,1-2.37-1c-.67-.89-8.32-17.86-13.07-17.79-4.55.06-7.53,13.19-8.81,17.56C88.14,784.05,87.36,785.8,85.85,785.52Z"/>
    <path class="cls-1" d="M735.66,86.15c3.71-2.2,11.48-13,8.85-17.67-3.82-6.76-4.88-20.75,3.1-20.76,11.69,0,10.45,16.44,10.48,20.81,0,3.57,4.58,7.34,13.94,9.71,7,1.76,11.36,7.55,10.27,17.26C781,107,767.49,129.76,767.66,132.77c.73,13.23,4,26.19,6.09,39.27,1.11,6.94,5.94,26.8,1.93,28.27-3,1.1-4.27-.63-5.52-1.9-1.49-1.53-4.51-10.8-5.8-12.84-2-3.09-5-3.07-6.72.1-1.24,2.27-2.48,22.32-7.56,22.34-3,0-2.64-7.35-2.45-9.88,1.56-20.87,2.83-91.54-4-100.2-3.31-4.17-11.86-3.21-10.81,23.69.42,3.47-.42,9.15-3.9,8.55-2.22-.38-2.8-4.53-3.09-6.75C725.3,119.61,720.33,95.22,735.66,86.15Zm37.76,17.15c0-3,.4-16.86-8.43-15.66-5.45.75-.27,28.3.56,33.08C767.38,114.27,768.2,107.64,773.42,103.3Z"/>
    <path class="cls-1" d="M785.42,711.64c-2.59-.3-3.44.41-4.94-1.15-2.79-2.89-13.43-13.31-19.27-7.9-2.46,2.28-.62,18,.69,24.39a272.17,272.17,0,0,0,15.91,50.93c.24.59,2,4.79.66,5.72-1.72,1.22-3.24-.48-4.06-1.42-2.07-2.37-8.77-13.16-11.06-15.09-3.51-3-8.2-.91-8.41,3.69-.13,3,.41,7.74-3.26,7.9s-4-4.74-4-7.64c.1-16.2,1.26-32.37,1.68-48.56.75-14.08-4.27-20-9.54-14.75-4.51,4.53-7.76,10.17-11.6,15.28-1.6,2.13-2.62,5.05-6.25,4.29-.32-.07-1.49,3.46-3.3,2.78-2.83-1.06-1.95-4.65-.54-7,5.71-9.67,11.48-19.33,17.78-28.63,3.54-5.22,3.93-10,1-15.32-1.09-2-6.23-13.85,3.53-15.82,11.71-2.37,9.95,11.26,9.86,14.43-.22,7.22,4.89,10.51,9.7,10.84,7.71.53,13.18,4.34,18.92,9.26,4.14,3.56,13.92,14,10.74,15.84C788,714.66,786.14,711.72,785.42,711.64Z"/>
    <path class="cls-1" d="M763.22,560.61c1.14,9.22,3.58,18.27,5.18,27.45a105.26,105.26,0,0,1,1.12,12.81c.05.85-.38,2.5-1.37,2.61s-1.82-1.42-2-2.3c-1.25-4.86-3.72-16.49-4-17.33-1.5-3.84-6.1-4.76-8.52-1.44-1.44,2-4.91,13.05-6.37,15.85-.82,1.57-2.57,2.79-4.13,3.8-.73.46-2.44.88-3,0s.35-1.91.88-2.59a30.72,30.72,0,0,0,6.38-18.34c.22-7.22.39-14.45.41-21.67,0-14,.61-38.82-.17-43.65-.68-4.19-2.56-5.63-6.63-4.31-2.51.81-10.13,7.07-12.21,3.85-3.09-4.8,13.42-14.34,16.94-18.26,2.61-2.91,3.51-6.74,3.55-10.72,0-2.29-2-11.55,4.88-11.57,7.11.26,5.1,11.29,5.45,14.83.42,4.23,2.42,7.45,6.33,9.26,3,1.38,14,4.26,13,7.82-.8,2.81-7.29.77-9.53.38-4.33-.77-6-.24-6.81,4.08C761.28,517,761.91,550.09,763.22,560.61Z"/>
    <path class="cls-1" d="M743.4,363.63c-.16,1.39-2.18,3.36-2.22,4.75-.19,7.54,1.83,14.44,3.65,21.83a55.66,55.66,0,0,1,.9,19.72,7.18,7.18,0,0,1-1,2.72c-.71,1.2-3.79,1.75-4.3.48a19.23,19.23,0,0,1-1.19-4.66c-.54-4.51-.83-9.06-1.44-13.56-.55-4.13-1.48-8.21-2.07-12.33s-.94-8.14-1.39-12.21c-.11-1.05-.14-2.1-.23-3.15-.47-5.67,5-12,6.53-17.48A97.26,97.26,0,0,0,744.33,323a36.14,36.14,0,0,0-2.19-11.81,8.8,8.8,0,0,0-7.68-6.23c-1.52-.21-3.05-.44-4.55-.77-5.22-1.14-8-4.28-8.22-9.7-.17-4,0-8.12,0-12.18,0-2.33.13-4.66.29-7a4,4,0,0,1,.7-1.87,2.71,2.71,0,0,1,4.7-.09,9.53,9.53,0,0,1,1.81,5.94c0,3.35,0,6.7.08,10a15.05,15.05,0,0,0,.6,3.31,6.51,6.51,0,0,0,6,5.06,44.33,44.33,0,0,0,6.72.24c4.62-.13,8.38-4.6,8.85-9.09a16.89,16.89,0,0,0-3-12,1.81,1.81,0,0,1,.87-3,8.66,8.66,0,0,1,2.53-.43c2.45-.13,3.88-1.35,4.06-3.78.4-5.33.65-10.67,1.1-16,.22-2.57.71-5.12,1.16-7.67a1.65,1.65,0,0,1,.82-1.14,1.57,1.57,0,0,1,1.94.73,11.7,11.7,0,0,1,1.68,5.66,60.51,60.51,0,0,1-1.21,14,12.78,12.78,0,0,0,1.51,9.12,1.41,1.41,0,0,0,1.84.8c.46-.14,1.33-.06,1.51.23a2.29,2.29,0,0,1,.16,1.78,9,9,0,0,1-1.35,2.2c-.57.74-1.22,1.43-1.84,2.13-4,4.48-4.8,9.74-3.6,15.39a12.7,12.7,0,0,0,5.14,7.36c3.11,2.36,6.41,4.48,9.51,6.85,4.43,3.38,8.44,7.17,10.73,12.41a6.37,6.37,0,0,1,.51,2.05c.08,1-.41,1.44-1.38,1.14a7.23,7.23,0,0,1-2.42-1.16c-3-2.43-6-4.94-8.93-7.42-1.29-1.09-2.53-2.26-3.89-3.25-3.41-2.47-6.52-1.7-8.51,2a24.89,24.89,0,0,0-2.41,9.67c-.53,5.8-1,11.62-1.2,17.44-.11,3.48.49,7,.62,10.46.14,3.95.23,7.9.13,11.85q-.22,8.91-.75,17.82c-.26,4.5-.76,9-1.11,13.49-.37,4.84-.63,9.69-1,14.52-.45,5.36-1,10.7-1.56,16a12.88,12.88,0,0,1-1,3.23,2.29,2.29,0,0,1-2.42,1.44c-1.13-.27-1.28-1.2-1.26-2.12.14-6.7.19-13.4.52-20.09a107.63,107.63,0,0,0-.86-21.6,97.24,97.24,0,0,1-1-17.89c.07-2.18,0-4.36-.11-6.54,0-.42-3-.54-3.05-1Z"/>
    <path class="cls-1" d="M506.69,484.74c-1-6.19-.21-10.82,2.27-15.25,1.05-1.87,2-7.26,3.39-8.19s1.51.19,4.3.09,9.25,14.18,5.84,25.05c-1.7,5.39,1.18,9.2,5.58,12,6.86,4.35,31.58,15.7,28.8,23.55-.63,1.79-4,2.8-7.43,1.46-3.89-1.54-12.37-7-16.81-8.58-4.92-1.75-9.75-1.13-11.36,4.33-1.84,6.24-.36,14.08,1,18.5,4,13.08,16.18,41.57,20.08,50.92,1.49,3.57,9.87,9.15,7.32,13.58-5,8.67-19.37-20.78-23.82-30.49-2.61-5.69-9.26-20.33-13.33-19.67-3.66.59-5.27,18.41-6.34,26-1.73,12.13-2.78,27.45-4.5,36.47-.16.84-.38,2.91-1.76,2.92-1.1,0-1.43-1-1.88-3-1.27-5.6-7-52.92,6.08-80.88,4.44-9.54,3-16.65-3.85-18.52-2.72-.75-14.27-2.8-15.31-6.63-1.45-5.37-3.49-10.77-8.17-13.73-6-3.82-9.64-14.73-1.67-17.57s9.81,7.05,10.62,13.33c.55,4.23,5,12.22,13,11.1,3.41-.48,5.89-2.26,6.52-5.73C506,491.73,506.32,487.63,506.69,484.74Z"/>
    <path class="cls-1" d="M510.25,719.45c-2.08-4.09-6.69-5.62-10.08-2.57a9.43,9.43,0,0,0-3,4.42c-1.43,6.48-15.9,17.63-19.44,10.9-2.36-4.49,9.38-11.62,10.32-15.4,2.66-10.75,9.88-17.65,18.8-23.25,4.76-3,5.31-4.19,2.8-9.13s-3.39-9.95-1.94-15.36a13.17,13.17,0,0,0,.16-3.56c0-2.23.78-3.88,3-4.73a4.71,4.71,0,0,1,5.73,1.36c3.15,3.86,7.6,9.7,7.25,21.91-.06,2.26,1.33,3.78,3.29,4.68,35.06,9.81,21.22,22.65,16.41,28.85a49.44,49.44,0,0,1-6,6,19.82,19.82,0,0,0-6.83,16.08c.41,13.24,6.89,42.71,7,44.61,0,.79-.39,2.2-1.29,2.44s-1.84-.72-2.13-1.36c-1.62-3.57-2.82-12.59-8-14.62-2.71-1.06-4.87-.37-5.52,2.95-.41,2.06-.77,9.41-4.36,9.26-4-.17-4-5.88-4.06-7.42C512.17,767.65,513.11,725,510.25,719.45Zm20.63-5.72c1.75,1,11.13-1.13,6.38-8.23-1.31-2-3.53-3.56-5.49-2.47C529.39,704.36,528.13,712.14,530.88,713.73Z"/>
    <path class="cls-1" d="M524.89,334.55c0,15.67,4.35,30.29,9.52,44.88,3.08,8.73,4.53,18,6.68,27.08.13.53.79,2.64-1,3.58-.87.44-1.7-.35-2-.9-1.42-2.23-14.15-36.51-15.84-40.45a5.62,5.62,0,0,0-2.94-2.84c-.58-.2-2.15,1.25-2.66,2.26-3.64,7.16-16.21,34.16-19.14,40.35-.46,1-1.17,2.67-2.6,2.3-1.73-.63-1.53-2.35-1.33-3.32.86-4.09,11.38-33.06,15.08-43.66,4.16-7.25.89-35.21-.22-38.61-1.27-3.91-3.64-5-7.09-2.63s-17.82,16-19.29,16.53c-1.29.5-2.44,1.11-4.26.09a4.17,4.17,0,0,1-1.77-4.18c.19-5.25,23.36-26.08,30.75-28.2,2.55-1,3.7-2.54,3.83-5,.16-3-.21-21.12-.21-27.16,0-2.06.06-7.49,5.84-7.85,5.79,0,6.15,5,6.38,8.24.65,8.85,1.25,17.71,1.72,26.57.13,2.39.69,3.86,3.36,4.42a15,15,0,0,1,8.85,6.15c4.67,6.31,15.14,21.87,15.25,23.25a4.59,4.59,0,0,1-1.22,3.58,3.92,3.92,0,0,1-3.7.16c-2.66-2-12.35-17.41-16.41-19.86C526.61,316.74,524.6,320,524.89,334.55Z"/>
    <path class="cls-1" d="M509.13,152a46.29,46.29,0,0,0-.94,4.62c-1.77,19.57-1.75,39.16-1,58.77a6.57,6.57,0,0,1,0,1c-.16,1.36.77,3.36-1,3.84a11.43,11.43,0,0,1-5.69-.1,2.81,2.81,0,0,1-1.54-4c2.44-5.1.89-10.1,0-15.11a82.57,82.57,0,0,1-1.39-17.12c.15-6.27-.09-12.54,0-18.81.17-10.29.32-20.59.8-30.87.18-3.85,1.45-7.63,1.91-11.49a71.06,71.06,0,0,0-.8-20.69,10.16,10.16,0,0,0-7.87-8.51c-2-.56-4.06-1.13-6.05-1.82-5.52-1.91-7.67-5.48-6.52-11.14.82-4.06,2.1-8,2.82-12.11a81.94,81.94,0,0,0,.59-8.46,6.05,6.05,0,0,1,.43-1.71c.53-1.43,1.29-2.83,3-2.61a2.83,2.83,0,0,1,2.35,3.23c-.29,3-1,6.07-1.54,9.1s-1.45,6.15-1.75,9.26a5.4,5.4,0,0,0,4.2,6.13,33.24,33.24,0,0,0,6.9,1.44c3.73.19,4.69-1,5.14-4.65.58-4.9,1-9.85,2-14.66,1.61-7.67,3.54-15.27,5.6-22.82A19,19,0,0,1,512,36.51c1.31-1.75,3.2-1.7,4.89-.28,2.17,1.81,3.62,4.05,3.2,7q-.57,4.11-1.36,8.18a4.62,4.62,0,0,0,2.61,5.41,19.54,19.54,0,0,1,1.69,1c2.09,1.44,3,3.37,1.83,5.64-1.87,3.76-4.17,7.3-6.25,11a16.83,16.83,0,0,0-2,4.06c-.93,3.84.86,6.79,4.77,8.73,3.53,1.75,7.23,3.32,10.42,5.59a35.26,35.26,0,0,1,11.8,14.58c1,2.2,2.63,4.08,3.81,6.21a12.4,12.4,0,0,1,1.45,4c.32,2-1,3.21-2.74,3.82a3.54,3.54,0,0,1-4.36-1.83c-2.72-4.44-5.28-9-8.2-13.3a18.55,18.55,0,0,0-5-4.85c-2.28-1.5-4.31-.71-5.57,1.72a25.39,25.39,0,0,0-2.94,15.09c.72,5.89,1.33,11.79,1.88,17.7a72.93,72.93,0,0,1-1.55,23.79,30.5,30.5,0,0,0,.22,14.89c1.48,5.75,1.17,11.49.48,17.29-.62,5.24-1,10.5-1.6,15.75-.18,1.68-.58,3.39-2.56,3.79-1.38.27-2.93-1.45-3.36-3.61a15,15,0,0,1-.27-3.34A40.86,40.86,0,0,0,512,191.61a18.35,18.35,0,0,1-.27-10,11.16,11.16,0,0,0,.34-2.94q-.1-9.18-.3-18.36C511.69,156.38,511.11,154.38,509.13,152Z"/>
    <path class="cls-1" d="M290.72,724.53C291.1,714,287.65,706.27,280,704c-11.26-3-19.46-14.12-23.24-18.77-5.24-6.43-6.08-20,4.73-19.15,10.17.83,10.53,28.26,20.87,25.38,4.33-1.2,6.13-3.07,6.35-9.38.09-6-10.85-45.14,4.18-41.47,9.82,2.55,13.14,29.61,12.38,39.33a6.43,6.43,0,0,0,4,6.8c2.29,1.11,38.91,11.18,38.09,16.48-.82,5-23.18.38-34.4-1.65-5.76-.9-9.21,10.27-4.47,19.57,4.21,8.11,22,40.21,27.64,56,.85,1.87,1.86,3.23,4,3.75,2.48.6,3.49,2.59,3.53,5,.06,2.92.59,11.21-3.21,10.12-3.23-1.08-30-47.46-32.37-49.68-3.45-3.29-7-1.94-7.52,2.78-.6,5.64-3,40.71-4.94,51.9-.3,2-.86,5.7-3.14,5.71-3.12,0-2.85-6.34-3.09-8.87S290.32,746.5,290.72,724.53Z"/>
    <path class="cls-1" d="M299.08,553.22c-3.08.29-9.07,39.3-9.64,40.75-.34.85-.71,2-2.17,1.79-1.2-.15-1.16-1-1.29-2.19-.16-1.53,2.79-27.47,4.13-38.91,1.12-9.62,2.32-29.64-.71-36-1.58-3.36-3.25-4-6.43-1.88-2.22,1.45-15.29,12.06-18.7,7.22-4.59-4.8,18.72-19.65,24.22-24.18a9.21,9.21,0,0,0,3.38-7.75c0-1.56-.07-3.12-.08-4.67,0-3.78,1.87-6.11,5.62-7,2.89-.66,5.52.7,6.86,4.07a25.88,25.88,0,0,1,1.57,6.91,12.22,12.22,0,0,0,4.41,8.22c7.48,6.6,30.81,23.22,25.82,27.28-7.74,3.8-20.28-8.41-21.47-9.26-3.25-2.32-5.78-1.61-7.17,4.33-2.09,8.55,2,29.3,2.81,37,1.06,10.47,3.41,35.24,3.27,37.15a2,2,0,0,1-1.23,2c-1.07.24-1.55-.85-1.77-1.47C309.27,593.08,303,552.87,299.08,553.22Z"/>
    <path class="cls-1" d="M308.15,390.7c-2.17.11-2.2-4-2.29-6.12-.59-14.35-1.45-46.45-4.64-59-1.23-4.83-3.84-6-8.43-4-2.93,1.26-10.58,5.41-11.63,3.35-.49-.95.63-2.3,1.38-2.83,4.19-2.94,8.53-5.67,12.8-8.48a8.54,8.54,0,0,0,4.22-8.32c-.27-3.73-6-17.5,4.05-18.34,8.48-.71,6.58,10.83,6.76,14.18a9.05,9.05,0,0,0,5.94,8.45c3.77,1.6,7.77,2.65,11.63,4.05,2.48.89,9,3.28,8.82,5.21-.35,3.24-12.53-.3-15.92-1-5.56-1.19-7.57.42-7.59,6-.08,15.84,2.82,31.28,6.44,46.61,1.15,4.88,2.66,9.67,3.93,14.53.17.68.47,1.8-.14,2.22-.76.53-1.75.23-2.59-.83a44.93,44.93,0,0,1-3.85-6.63c-1-1.91-2.26-3.35-4.73-2.8s-2.83,2.36-2.95,4.36C309.21,383.85,309.7,390.61,308.15,390.7Z"/>
    <path class="cls-1" d="M294.38,188.06c.1,6.9,2.6,22.19,2.15,24.63-.65,3.63-15.15,2.58-8.17-1,2.24-1.15,2.1-3.68,1.65-6-3.74-16.59-6-61.74-1.85-79.93,1.58-6.89-1-18.9-1.63-21.72-1-4.85-3.26-6.93-8.18-7.62-2.12-.31-13.82,1.94-12.18-7.36.55-3.16,4.77-33,9.63-33.19,1.15,0,1.65,2,1.54,2.89-.47,3.87-5.95,29.6-1.38,31,3.86,1.21,9.29.39,13.28-.12s6-3,6.17-7-4.52-20.27-1-20.57c1.24-.1,5.25,4.2,6.67,2.86.93-.87,10.51-30.13,13.67-29.07,2.78.93-7.42,28.73-7.06,30.63s5.7.79,6.54,1.37c2.14,1.5-5.6,13.18-6.67,15.2-2.43,4.55-1.84,8.75,1.84,12.31,2.39,2.3,27.67,21,24.83,25.83-2.76,4-17.22-12.74-23.67-15.7-.93-.42-3.24-.34-3.66,1.77-1.41,7.2-2.83,14.26-1.68,21.85,2.53,16.69,3.53,33.61,1.29,50.39a199.78,199.78,0,0,0-1.91,31.56c.06,2.62,7.19,6.07,5.3,8.61-.73,1-9-1.1-10.93-3.33-1.71-2-.28-11.15-.95-16-.63-4.62-1.64-9.51-.64-14,1.81-8.09-.58-31.14-1-34.57C296.16,151.81,294.22,177.72,294.38,188.06Z"/>
    <path class="cls-1" d="M382.61,436.16c-1-.17-1.15-2.23-1-3.35,1.82-19.39,3.19-38.84,5.83-58.12,1.31-9.49,11.27-18.56,14.19-27.77,3.72-11.72,5.58-32.68,4.39-40.5-.65-3-1.88-3.75-4.71-2.39-2.19,1.06-13.82,10.3-17.87,13.11-7.57,5.15-9.28-7.28-7.18-8.81,1.4-.92,4.66,1.71,5.15,1.3,7.22-5.88,14.32-11.64,20.8-18.61,5.81-6.26,1.57-23.06.61-28.64-.39-2.25-1.71-3.27-4.24-3.29a8.81,8.81,0,0,1-1-17.54c4.56-.81,11.84,5.28,10,10-1,2.53.11,4.57,1,7,2,5.53,3.49,28.9,15.59,33.52,1.54.59,6.09,2.32,5.29,4.81a2.08,2.08,0,0,1-2.18,1.58c-2.07,0-10.44-2.74-10.79,2.38-.25,2.52,1.73,28.52,6.75,34.63,8.73,10.59,6.39,25.75.39,38.65-3.51,7.54-7.31,14.93-11,22.39-.9,1.82-1.76,3.41,0,5.45,1.36,1.55.44,5.31-1.41,6.68-2.86,2.11-10,16.23-12.34,20.18-.47.8-1.68,2.07-2.65,1.7-1.16-.51-1-2.11-.69-2.91,1.51-4.39,8.51-21.35,9.06-26.17.6-5.31,3-10.46,4.91-15.57,3.55-9.59,18.9-39.73,7.29-39-7.05.43-26.89,35.84-25.72,54.11a12.48,12.48,0,0,0,1.79,5.28c1.62,2.73,1.36,3.18-1.42,4.55-4,1.41-5.09,15.58-6.26,21.31C384.82,433.54,384.35,436.39,382.61,436.16Z"/>
    <path class="cls-1" d="M438,129.65c-1.78.78-3.51-2.23-4.73-3.71-4.08-4.93-14.24-18.49-15.85-19.8-4.07-3.31-9.17-1.42-9.93,3.34-1.25,8.89,11.74,69.24,22.26,75.27,2.89,1.52,6.12,2.7,5.54,4.77-.55,1.91-2.88,1.88-5,1.44-2.53-.5-3.17.76-3.25,3-.07,2,.32,7.57-2.18,7.73-2.17.13-3.84-5-4.29-7C419,187.83,409,143.93,406.1,139.74c-1.5-3.08-3.87-3.46-5.63-.59-3.22,4.83-8.78,29.35-10.08,38.3-.89,6,1.82,9.73,1.67,12.36-.16,2.9-4.24,1.79-4.75,4.82-.31,1.79.16,7.32-3.36,7.33-3.13,0-3.42-8.16-2.89-11.11,2.78-15.56,11.15-53.25,12.9-59.69a48.6,48.6,0,0,0,.89-22c-1-5-4-7.35-9-7.62-16.36-.33-19.64-23.35-19.64-24.77s-.25-2.63,1.67-3.51c1.76-.27,2.46,1.11,2.9,2.13,8.95,20.72,24.35,20,23.31,9.47-.48-6.44-15.75-26.65-1-30.81,18.54-3.53,12.36,28.93,12.26,30.48-.32,5.27,1,9.14,6.75,11.15,10.66,1.8,22.07,24.36,25.85,30.19C438.85,127.28,439.08,129.08,438,129.65Z"/>
    <path class="cls-1" d="M426,585.46c-4.29-9.49-15.71-34.61-17.45-37.5-1.59-2.63-3.68-2.62-5.36,0-.93,1.42-8.56,26.06-11.85,36.7-.52,1.68-1,5.52-2.9,5.23-2.16-.39-1.36-4.33-1.11-6.37.72-5.8,7-35.67,8.41-45,1-6.27.74-12.75.74-19.14,0-3-1.4-3.81-4.14-2.36-4.12,2.17-8,4.76-12.08,7a10.85,10.85,0,0,1-4.56,1.57c-2.42.12-3.54-1.93-2.1-3.88,1.27-1.73,15.71-12.37,21.31-16.17a4.21,4.21,0,0,0,1.9-5.15c-.47-1.82-3.19-11.69,5.48-12,7.33-.25,5.95,10,5.85,10.73-.65,4.89,1.89,5.44,5.94,7.74,5.31,3,16.5,10.71,17,11.07a1.58,1.58,0,0,1,.6,2.2c-.48,1.06-1.57.64-2.15.42-2.38-.93-11.95-5.52-14.49-6.55-3.57-1.44-5.27-.28-5.24,3.56a83.81,83.81,0,0,0,5.81,29.15c4.27,11.37,13,36.06,13.49,37.73.31,1.09,1.16,2.81-.39,3.5S426.47,586.46,426,585.46Z"/>
    <path class="cls-1" d="M384.77,683.59c4.08-.88,5.9-3,5.72-7.94-.08-2.24-1.59-14,3.71-14.77,9.46-1.27,9,11.81,8.85,14.69-.2,3.63.67,6.93,3.45,8,6.36,2.5,16.81,26.83,23.55,31.21,1.39.9,9.46,3.45,9.48,10.35.13,3.73-6.18,4.68-9-.67a21.25,21.25,0,0,0-9.76-9.25c-3.71-1.8-11.19-17.65-15.22-12.72-1.4,1.7-1.38,9.86,1.75,15.38,6,10.61,4.69,37.38,5.33,45.6.54,6.94.56,12.13,5.72,14.18,2.31.92,5.82,4.63,3.19,6.18-3.52,2.06-7.25,2.1-11.27,1.21-1.56-.35-2.23-1.41-2.6-3.26-.67-3.3-.14-7.39-.94-10.54-1.71-6.75-2.73-26.52-4.09-29.09-1.93-3.65-4.76-3.32-5.93.75-1.51,5.26-9.52,33.79-1.46,37.42,1.41.63,3.38,2.14,2.44,4.18-2.52,4.78-11.38-1.46-12.37-3.6-1.94-4.23-.07-20.86.33-24.51,1.26-11.49-1.35-22.68,5.18-41,3.4-9.5-3.57-21.63-12.17-23.18-7.12-1.27-12.53-5-12.7-13.66-.09-4.63-.34-9.26-.58-13.89-.09-1.73.66-2.56,1.94-2.87a3.12,3.12,0,0,1,3.78,2.92C371.71,679.48,372.59,686.23,384.77,683.59Z"/>
    <path class="cls-1" d="M635.6,749.36c-1.52.39-3.38,18.92-3.94,20.62-.31.93-.89,2.21-2.1,2.22-1.69,0-2.25-1.34-2.7-2.23-2.9-5.64-1.52-27.25-.2-35.85.69-4.5.38-16.94-.23-18.43-2.17-5.29-8.37-6.78-11.93-2.43-2.82,3.45-8.41,17.16-11.19,18.35-1.21.52-3.11.91-4,.31a4.27,4.27,0,0,1-1.25-3.8c1.15-3.72,7.11-18.39,8-22.25,1.2-5.25,2.49-6.54,7.78-6.27,8.85.46,13.43-4.54,12.32-13.44-.21-1.72-1.58-10.64,5.9-11.29,5.42-.08,9.58,3.42,8.94,8.78-1,8.05,2.92,12.36,9.23,16.31,7.74,4.84,24.63,18.12,25.38,19.42.47.84,1.08,2.32.26,3.41s-2.63.85-3.53.47c-2-.83-12.7-8.89-16.55-11.15-9.19-5.4-15.55-2.09-15.95,8.52-.22,6,.62,12,4,17.41,4.32,7,5.47,14.68,4.81,22.68-.11,1.35-.7,3.58-2.37,3.88-1.82.09-3.1-1.58-3.86-2.84C641,759.52,636.93,749.19,635.6,749.36Z"/>
    <path class="cls-1" d="M663,593.21c-2.73.64-4.41-3.07-5.59-7.43-2.6-9.51-13.78-38.2-19.46-37.38-4.43.65-3.19,37.9-3.21,44.12,0,1.51,0,4.27-1.8,4.52-1.45.2-2.21-2.49-2.72-3.95-5.05-14.31-4.77-28.91-2.12-43.61,1.48-8.21,1.68-27.94,1.37-29.45-.62-3-2.34-3.75-4.82-1.9s-12.82,9.23-15.79,10.57c-.77.35-1.73,1.23-3-.53-1.08-1.12.34-2,.93-2.63,5.59-5.65,11-11.52,17-16.68,3.62-3.11,4.76-6.36,4.05-10.77-.41-2.52-5.69-16.77,6.79-16.81,9.56,0,5,15.86,4.91,17.13a5.59,5.59,0,0,0,3.37,6.21c7.31,3.75,24.26,13.24,25.13,14.36a2.52,2.52,0,0,1,.49,2.94,2.1,2.1,0,0,1-2.32,1.38c-2.67-.42-15.12-5.46-18.82-7-3.33-1.39-4.45-.55-4.31,3a66.38,66.38,0,0,0,6.42,27c5.91,12.07,11.31,24.39,14.42,37.55C664.57,586.65,665.43,592.75,663,593.21Z"/>
    <path class="cls-1" d="M634.91,205.42a12.4,12.4,0,0,1-2.09,1.22,13.33,13.33,0,0,1-4.3,1.14c-1,0-1.94-1-2.91-1.57a8.77,8.77,0,0,1,1.67-2.44c4.92-3.52,6.24-8.21,5-13.92-2.12-9.71-4.5-19.38-6.14-29.17a142.88,142.88,0,0,1-1.9-21.66,92.85,92.85,0,0,1,1.69-16.67c1.44-8.6-.23-16.64-3.61-24.45-1.09-2.52-3.36-3.81-5.9-4.61-2.32-.74-4.71-1.34-6.94-2.29-3.8-1.63-5.17-4.67-3.82-8.55A66.21,66.21,0,0,1,609,74.9a10.51,10.51,0,0,0,1.07-7.63,7.34,7.34,0,0,1-.13-3.88c.37-1.11,1.45-2.63,2.4-2.76,1.79-.27,2.14-1.34,2.68-2.61,1.38-3.27,2.79-6.53,4.27-9.76a10.69,10.69,0,0,1,1.46-1.88l.54.25a12.65,12.65,0,0,1-.27,1.76c-.37,1.2-.77,2.39-1.24,3.54a60.39,60.39,0,0,0-4.45,18.32c-.27,3.23-1.44,6.4-2.35,9.56-1,3.67.78,6.59,4.58,6.76,2.9.12,5.81,0,8.71-.12,3.3-.12,5-2.27,4.46-5.57-.35-2.22-.84-4.41-1.06-6.63a13.72,13.72,0,0,1,2.57-10.13,9.14,9.14,0,0,0,1.62-8.88,10.72,10.72,0,0,1,1.42-9.64A6.72,6.72,0,0,1,637,43.91c2.19-1.49,4.5-.82,5.06,1.75a60.46,60.46,0,0,1,1,8.82c.14,2,0,4,0,5.94,0,3.78-.39,7.51.94,11.29s.24,7.6-1.23,11.18c-2,5-3.18,6.12,3.38,10,5.32,3.13,11.1,5.49,16.62,8.29a55.09,55.09,0,0,1,5.73,3.49,1.75,1.75,0,0,1,.67,1.44,1.67,1.67,0,0,1-1.24,1,13.29,13.29,0,0,1-4.19-.69c-3.29-1.35-6.49-2.93-9.72-4.42-4.56-2.11-8.27-.84-10.56,3.65-3,5.89-3.21,12.24-2.42,18.56.54,4.28,2.07,8.43,2.91,12.68,1.62,8.13.91,16.28,0,24.43-.52,4.65-1.13,9.3-1.24,14-.2,7.76.28,15.52-1.64,23.21-.86,3.48-.8,7.19,1.59,10.42.92,1.26-.28,3.2-2,3.57a4.21,4.21,0,0,1-5.06-3.31C635.23,208,635.13,206.77,634.91,205.42Z"/>
    <path class="cls-1" d="M636.36,376.76c.39-8.44-2.62-25.78-4.17-28.75-1.8-3.43-3.79-3.55-5.62-.19-1.57,2.88-10.18,43.69-10.36,45.91-.43,5.17-2.94,7.07-7.12,5.42a3.74,3.74,0,0,1-1.76-4.55c3.08-7,9.16-36.24,10.13-40.58,1.9-8.46,13-46.82,3.51-54-2.53-1.91-8.2,2.16-10.6,9.19-2.83,8.35-9.4,3.49-9.79-.8-.27-2.89.9-6.28,3.31-6.75,4.13-.8,6.57-4.27,9.33-7.2,2.53-2.69,4.92-3.89,8.26-1.95,5,3.88,10.5-2,10.3-6.22-.14-3.06-1.79-14.76,5.71-14.79,8.21,0,6.39,13.13,4.5,16.51a6.5,6.5,0,0,0,.15,7.32c3.33,5.23,7,10.19,10.15,15.54,3.73,6.27,8.84,9.35,15,10.92,2.32.59,7.09,7.38,6.35,9.83s-7.26-.07-9.07-1.46c-5.61-4.28-17.64-14.57-18.26-15-3-2.28-4.9-1.68-5.84,2.45-1.8,7.9-3.12,15.81-.63,24.05,2.73,9,4.23,42.4,4.27,49.63,0,4.55,1.45,7.94,4.77,10.31.79.56,2.13,1.48,1.89,2.6-.77,3.59-11.67,2.39-11.42-3.39C639.64,394.14,636,384.12,636.36,376.76Z"/>
  </g>
</svg>
