<svg id="Livello_1" data-name="Livello 1" xmlns="http://www.w3.org/2000/svg" viewBox="0 0 841.89 841.89">
 
  <title>prove stampe</title>
  <g>
    <path class="cls-1" d="M355.34,492.71C336.18,448.13,256,429,234.55,366.38c0,0,79-46.6,76.71-158.92S198.47,76.81,145.57,106.14c0,0-34.66-78.61-91.8-32.34s-12,117.11,7.49,146.89C71.93,237,94.92,250.23,152.82,235s3.92,17.08,42.82,11.92c14-6.66.15-55.17-31.25-63,0,0,45.32-62.39,67.27,41.7S59.19,276.89,57.78,403.4s147.8,71.39,202.06,154.68c24.19,38.92-1.78,78.73-1.78,78.73l-52.92-71.3,27,3.1s-11.47-45-80.05-54.76c-27.74-4-48.49-19.32-48.49-19.32s9.63,124.84-9.06,142.07c-25.37,23.38-47.71-30-47.71-30S16,688.3,112.1,672.16c0,0,30.83,45.51-48,49.54,0,0,39.55,63.45,89.92,32.85C189.93,732.74,172,640,172,640s20.35,97.11,47.93,117.23C315.67,827,400.72,598.28,355.34,492.71Z"/>
    <path class="cls-1" d="M541.61,782.68H300.22s128.19-149.13,66.07-292.39l2.76-326H472.86l2.76,326C413.5,633.55,541.61,782.68,541.61,782.68Z"/>
    <path class="cls-1" d="M486.55,492.71c19.16-44.58,99.3-63.68,120.79-126.33,0,0-79-46.6-76.71-158.92S643.42,76.81,696.32,106.14c0,0,34.66-78.61,91.8-32.34s12,117.11-7.49,146.89C770,237,747,250.23,689.07,235s-3.92,17.08-42.82,11.92c-14-6.66-.15-55.17,31.25-63,0,0-45.32-62.39-67.27,41.7S782.7,276.89,784.11,403.4s-147.8,71.39-202.06,154.68c-24.2,38.92,1.78,78.73,1.78,78.73l52.92-71.3-27,3.1s11.47-45,80.05-54.76c27.74-4,48.49-19.32,48.49-19.32s-9.63,124.84,9.06,142.07c25.37,23.38,47.71-30,47.71-30s30.84,81.7-65.3,65.56c0,0-30.83,45.51,48,49.54,0,0-39.55,63.45-89.92,32.85C652,732.74,669.88,640,669.88,640S649.53,737.08,622,757.2C526.22,827,441.17,598.28,486.55,492.71Z"/>
    <path class="cls-1" d="M496.81,127.52l-2.33,4.91A29.43,29.43,0,0,1,468,149H373.88a29.43,29.43,0,0,1-26.45-16.54L345,127.52Z"/>
  </g>
</svg>
