<svg id="Livello_1" data-name="Livello 1" xmlns="http://www.w3.org/2000/svg" viewBox="0 0 841.89 841.89">
  <title>Glos</title>
  <path d="M803.84,748.09c0,1-.22,1.61-.62,1.79-3,1.36-3.14,4.23-3.32,6.77a14.86,14.86,0,0,1-2.34,7.3c-2.43,3.76-2.46,8.75-1.18,14.82.47,2.32-1.33,3.63-3.29,2.28-2.31-1.59-5-3.13-6.06-1.59-1.91,2.82-7.19,2.55-9.1-.78-1.37-2.42-2.88-5-5.77-5.25a2.23,2.23,0,0,1-1.79-2.88c.68-2.83-5.43-7.1-10.75-1.84v0h0c-5.26,5.33-1,11.43,1.84,10.75a2.24,2.24,0,0,1,2.88,1.79c.26,2.89,2.83,4.4,5.25,5.78,3.33,1.9,3.6,7.19.78,9.09-1.54,1,0,3.76,1.58,6.06,1.35,2,0,3.77-2.27,3.29-6.07-1.27-11.06-1.25-14.82,1.18a14.9,14.9,0,0,1-7.31,2.34c-2.53.18-5.4.29-6.76,3.32-.18.4-.75.62-1.79.62s-1.61-.22-1.79-.62c-1.36-3-4.23-3.14-6.76-3.32a14.93,14.93,0,0,1-7.31-2.34c-3.75-2.43-8.74-2.45-14.82-1.18-2.31.48-3.62-1.32-2.27-3.29,1.58-2.3,3.12-5,1.58-6.06-2.82-1.9-2.55-7.19.78-9.09,2.42-1.38,5-2.89,5.25-5.78a2.24,2.24,0,0,1,2.88-1.79c2.83.68,7.1-5.42,1.84-10.75h0v0c-5.32-5.26-11.43-1-10.75,1.84a2.22,2.22,0,0,1-1.79,2.88c-2.89.26-4.4,2.83-5.77,5.25-1.91,3.33-7.19,3.6-9.1.78-1-1.54-3.75,0-6,1.59-2,1.35-3.77,0-3.3-2.28,1.28-6.07,1.25-11.06-1.18-14.82a15,15,0,0,1-2.34-7.3c-.18-2.54-.28-5.41-3.32-6.77-.4-.18-.62-.74-.62-1.79s.22-1.6.62-1.78c3-1.37,3.14-4.24,3.32-6.77a15,15,0,0,1,2.34-7.31c2.43-3.75,2.46-8.74,1.18-14.81-.47-2.32,1.33-3.63,3.3-2.28,2.3,1.58,5,3.13,6,1.58,1.91-2.81,7.19-2.54,9.1.79,1.37,2.42,2.88,5,5.77,5.24a2.24,2.24,0,0,1,1.79,2.89c-.68,2.83,5.43,7.1,10.75,1.84v0h0c5.26-5.33,1-11.44-1.84-10.76a2.23,2.23,0,0,1-2.88-1.78c-.25-2.9-2.83-4.4-5.25-5.78-3.33-1.9-3.6-7.19-.78-9.09,1.54-1,0-3.76-1.58-6.06-1.35-2,0-3.77,2.27-3.29,6.08,1.27,11.07,1.24,14.82-1.19a15.14,15.14,0,0,1,7.31-2.34c2.53-.18,5.4-.28,6.76-3.32.18-.39.75-.61,1.79-.61s1.61.22,1.79.61c1.36,3,4.23,3.14,6.76,3.32a15.11,15.11,0,0,1,7.31,2.34c3.76,2.43,8.75,2.46,14.82,1.19,2.31-.48,3.62,1.32,2.27,3.29-1.58,2.3-3.12,5-1.58,6.06,2.82,1.9,2.55,7.19-.78,9.09-2.42,1.38-5,2.88-5.25,5.78a2.23,2.23,0,0,1-2.88,1.78c-2.83-.68-7.1,5.43-1.84,10.76h0v0c5.32,5.26,11.43,1,10.75-1.84a2.24,2.24,0,0,1,1.79-2.89c2.89-.25,4.4-2.82,5.77-5.24,1.91-3.33,7.19-3.6,9.1-.79,1,1.55,3.75,0,6.06-1.58,2-1.35,3.76,0,3.29,2.28-1.28,6.07-1.25,11.06,1.18,14.81a14.93,14.93,0,0,1,2.34,7.31c.18,2.53.29,5.4,3.32,6.77C803.62,746.49,803.84,747.05,803.84,748.09Z"/>
  <path d="M803.84,594.9c0,1-.22,1.61-.62,1.79-3,1.36-3.14,4.23-3.32,6.77a14.9,14.9,0,0,1-2.34,7.3c-2.43,3.76-2.46,8.75-1.18,14.82.47,2.31-1.33,3.63-3.29,2.27-2.31-1.58-5-3.12-6.06-1.58-1.91,2.82-7.19,2.55-9.1-.78-1.37-2.42-2.88-5-5.77-5.25a2.23,2.23,0,0,1-1.79-2.88c.68-2.83-5.43-7.1-10.75-1.84v0h0c-5.26,5.32-1,11.43,1.84,10.75a2.23,2.23,0,0,1,2.88,1.79c.26,2.89,2.83,4.4,5.25,5.77,3.33,1.91,3.6,7.19.78,9.1-1.54,1,0,3.75,1.58,6.06,1.35,2,0,3.76-2.27,3.29-6.07-1.27-11.06-1.25-14.82,1.18a14.9,14.9,0,0,1-7.31,2.34c-2.53.18-5.4.29-6.76,3.32-.18.4-.75.62-1.79.62s-1.61-.22-1.79-.62c-1.36-3-4.23-3.14-6.76-3.32a14.93,14.93,0,0,1-7.31-2.34c-3.75-2.43-8.74-2.45-14.82-1.18-2.31.47-3.62-1.33-2.27-3.29,1.58-2.31,3.12-5,1.58-6.06-2.82-1.91-2.55-7.19.78-9.1,2.42-1.37,5-2.88,5.25-5.77a2.23,2.23,0,0,1,2.88-1.79c2.83.68,7.1-5.43,1.84-10.75h0v0c-5.32-5.26-11.43-1-10.75,1.84a2.23,2.23,0,0,1-1.79,2.88c-2.89.26-4.4,2.83-5.77,5.25-1.91,3.33-7.19,3.6-9.1.78-1-1.54-3.75,0-6,1.58-2,1.36-3.77,0-3.3-2.27,1.28-6.07,1.25-11.06-1.18-14.82a15,15,0,0,1-2.34-7.3c-.18-2.54-.28-5.41-3.32-6.77-.4-.18-.62-.75-.62-1.79s.22-1.61.62-1.79c3-1.36,3.14-4.23,3.32-6.76a15,15,0,0,1,2.34-7.31c2.43-3.75,2.46-8.74,1.18-14.81-.47-2.32,1.33-3.63,3.3-2.28,2.3,1.58,5,3.12,6,1.58,1.91-2.82,7.19-2.55,9.1.79,1.37,2.41,2.88,5,5.77,5.24a2.23,2.23,0,0,1,1.79,2.88c-.68,2.83,5.43,7.1,10.75,1.84v0h0c5.26-5.33,1-11.44-1.84-10.76a2.23,2.23,0,0,1-2.88-1.79c-.25-2.89-2.83-4.39-5.25-5.77-3.33-1.9-3.6-7.19-.78-9.09,1.54-1.05,0-3.76-1.58-6.06-1.35-2,0-3.77,2.27-3.3,6.08,1.28,11.07,1.25,14.82-1.18a15.14,15.14,0,0,1,7.31-2.34c2.53-.18,5.4-.28,6.76-3.32.18-.4.75-.62,1.79-.62s1.61.22,1.79.62c1.36,3,4.23,3.14,6.76,3.32a15.11,15.11,0,0,1,7.31,2.34c3.76,2.43,8.75,2.46,14.82,1.18,2.31-.47,3.62,1.33,2.27,3.3-1.58,2.3-3.12,5-1.58,6.06,2.82,1.9,2.55,7.19-.78,9.09-2.42,1.38-5,2.88-5.25,5.77a2.23,2.23,0,0,1-2.88,1.79c-2.83-.68-7.1,5.43-1.84,10.76h0v0c5.32,5.26,11.43,1,10.75-1.84a2.23,2.23,0,0,1,1.79-2.88c2.89-.25,4.4-2.83,5.77-5.24,1.91-3.34,7.19-3.61,9.1-.79,1,1.54,3.75,0,6.06-1.58,2-1.35,3.76,0,3.29,2.28-1.28,6.07-1.25,11.06,1.18,14.81a14.93,14.93,0,0,1,2.34,7.31c.18,2.53.29,5.4,3.32,6.76C803.62,593.29,803.84,593.86,803.84,594.9Z"/>
  <path d="M178.82,594.9c0,1-.22,1.61-.62,1.79-3,1.36-3.14,4.23-3.32,6.77a14.9,14.9,0,0,1-2.34,7.3c-2.43,3.76-2.46,8.75-1.18,14.82.47,2.31-1.33,3.63-3.3,2.27-2.3-1.58-5-3.12-6.05-1.58-1.91,2.82-7.19,2.55-9.1-.78-1.37-2.42-2.88-5-5.77-5.25a2.23,2.23,0,0,1-1.79-2.88c.68-2.83-5.43-7.1-10.75-1.84v0h0c-5.26,5.32-1,11.43,1.84,10.75a2.23,2.23,0,0,1,2.88,1.79c.26,2.89,2.83,4.4,5.25,5.77,3.33,1.91,3.6,7.19.78,9.1-1.54,1,0,3.75,1.58,6.06,1.35,2,0,3.76-2.27,3.29-6.07-1.27-11.07-1.25-14.82,1.18a14.93,14.93,0,0,1-7.31,2.34c-2.53.18-5.4.29-6.76,3.32-.18.4-.75.62-1.79.62s-1.61-.22-1.79-.62c-1.36-3-4.23-3.14-6.76-3.32a14.93,14.93,0,0,1-7.31-2.34c-3.76-2.43-8.75-2.45-14.82-1.18C81,652.79,79.64,651,81,649c1.58-2.31,3.12-5,1.58-6.06-2.82-1.91-2.55-7.19.78-9.1,2.42-1.37,5-2.88,5.25-5.77a2.23,2.23,0,0,1,2.88-1.79c2.83.68,7.1-5.43,1.84-10.75h0v0c-5.32-5.26-11.43-1-10.75,1.84a2.23,2.23,0,0,1-1.79,2.88c-2.89.26-4.4,2.83-5.77,5.25-1.91,3.33-7.19,3.6-9.1.78-1-1.54-3.75,0-6.05,1.58-2,1.36-3.77,0-3.3-2.27,1.28-6.07,1.25-11.06-1.18-14.82a14.9,14.9,0,0,1-2.34-7.3c-.18-2.54-.28-5.41-3.32-6.77-.4-.18-.62-.75-.62-1.79s.22-1.61.62-1.79c3-1.36,3.14-4.23,3.32-6.76A14.93,14.93,0,0,1,55.34,579c2.43-3.75,2.46-8.74,1.18-14.81-.47-2.32,1.33-3.63,3.3-2.28,2.3,1.58,5,3.12,6.05,1.58,1.91-2.82,7.19-2.55,9.1.79,1.37,2.41,2.88,5,5.77,5.24a2.23,2.23,0,0,1,1.79,2.88c-.68,2.83,5.43,7.1,10.75,1.84v0h0c5.26-5.33,1-11.44-1.84-10.76a2.23,2.23,0,0,1-2.88-1.79c-.26-2.89-2.83-4.39-5.25-5.77-3.33-1.9-3.6-7.19-.78-9.09,1.54-1.05,0-3.76-1.58-6.06-1.35-2,0-3.77,2.27-3.3,6.07,1.28,11.06,1.25,14.82-1.18a15.14,15.14,0,0,1,7.31-2.34c2.53-.18,5.4-.28,6.76-3.32.18-.4.75-.62,1.79-.62s1.61.22,1.79.62c1.36,3,4.23,3.14,6.76,3.32a15.14,15.14,0,0,1,7.31,2.34c3.75,2.43,8.75,2.46,14.82,1.18,2.31-.47,3.62,1.33,2.27,3.3-1.58,2.3-3.12,5-1.58,6.06,2.82,1.9,2.55,7.19-.78,9.09-2.42,1.38-5,2.88-5.25,5.77a2.23,2.23,0,0,1-2.88,1.79c-2.83-.68-7.1,5.43-1.84,10.76h0v0c5.32,5.26,11.43,1,10.75-1.84a2.23,2.23,0,0,1,1.79-2.88c2.89-.25,4.4-2.83,5.77-5.24,1.91-3.34,7.19-3.61,9.1-.79,1,1.54,3.75,0,6.05-1.58,2-1.35,3.77,0,3.3,2.28-1.28,6.07-1.25,11.06,1.18,14.81a14.93,14.93,0,0,1,2.34,7.31c.18,2.53.28,5.4,3.32,6.76C178.6,593.29,178.82,593.86,178.82,594.9Z"/>
  <path d="M178.82,96.52c0,1-.22,1.61-.62,1.79-3,1.36-3.14,4.23-3.32,6.76a14.93,14.93,0,0,1-2.34,7.31c-2.43,3.75-2.46,8.74-1.18,14.82.47,2.31-1.33,3.62-3.3,2.27-2.3-1.58-5-3.12-6.05-1.58-1.91,2.82-7.19,2.55-9.1-.78-1.37-2.42-2.88-5-5.77-5.25a2.23,2.23,0,0,1-1.79-2.88c.68-2.83-5.43-7.1-10.75-1.84v0h0c-5.26,5.32-1,11.43,1.84,10.75a2.23,2.23,0,0,1,2.88,1.79c.26,2.89,2.83,4.4,5.25,5.77,3.33,1.91,3.6,7.19.78,9.1-1.54,1,0,3.75,1.58,6,1.35,2,0,3.77-2.27,3.3-6.07-1.28-11.07-1.25-14.82,1.18a15,15,0,0,1-7.31,2.34c-2.53.18-5.4.28-6.76,3.32-.18.4-.75.62-1.79.62s-1.61-.22-1.79-.62c-1.36-3-4.23-3.14-6.76-3.32a15,15,0,0,1-7.31-2.34c-3.76-2.43-8.75-2.46-14.82-1.18-2.31.47-3.62-1.33-2.27-3.3,1.58-2.3,3.12-5,1.58-6-2.82-1.91-2.55-7.19.78-9.1,2.42-1.37,5-2.88,5.25-5.77a2.23,2.23,0,0,1,2.88-1.79c2.83.68,7.1-5.43,1.84-10.75h0v0c-5.32-5.26-11.43-1-10.75,1.84a2.23,2.23,0,0,1-1.79,2.88c-2.89.25-4.4,2.83-5.77,5.25-1.91,3.33-7.19,3.6-9.1.78-1-1.54-3.75,0-6.05,1.58-2,1.35-3.77,0-3.3-2.27,1.28-6.08,1.25-11.07-1.18-14.82A14.93,14.93,0,0,1,53,105.07c-.18-2.53-.28-5.4-3.32-6.76-.4-.18-.62-.75-.62-1.79s.22-1.61.62-1.79c3-1.36,3.14-4.23,3.32-6.76a14.9,14.9,0,0,1,2.34-7.31c2.43-3.76,2.46-8.75,1.18-14.82-.47-2.31,1.33-3.62,3.3-2.27,2.3,1.58,5,3.12,6.05,1.58,1.91-2.82,7.19-2.55,9.1.78,1.37,2.42,2.88,5,5.77,5.25a2.23,2.23,0,0,1,1.79,2.88c-.68,2.83,5.43,7.1,10.75,1.84v0h0c5.26-5.32,1-11.43-1.84-10.75a2.23,2.23,0,0,1-2.88-1.79c-.26-2.89-2.83-4.4-5.25-5.77-3.33-1.91-3.6-7.19-.78-9.1,1.54-1,0-3.75-1.58-6.06-1.35-2,0-3.76,2.27-3.29,6.07,1.28,11.06,1.25,14.82-1.18a14.93,14.93,0,0,1,7.31-2.34c2.53-.18,5.4-.29,6.76-3.32.18-.4.75-.62,1.79-.62s1.61.22,1.79.62c1.36,3,4.23,3.14,6.76,3.32a14.93,14.93,0,0,1,7.31,2.34c3.75,2.43,8.75,2.46,14.82,1.18,2.31-.47,3.62,1.33,2.27,3.29-1.58,2.31-3.12,5-1.58,6.06,2.82,1.91,2.55,7.19-.78,9.1-2.42,1.37-5,2.88-5.25,5.77a2.23,2.23,0,0,1-2.88,1.79c-2.83-.68-7.1,5.43-1.84,10.75h0v0c5.32,5.26,11.43,1,10.75-1.84a2.23,2.23,0,0,1,1.79-2.88c2.89-.26,4.4-2.83,5.77-5.25,1.91-3.33,7.19-3.6,9.1-.78,1,1.54,3.75,0,6.05-1.58,2-1.35,3.77,0,3.3,2.27-1.28,6.07-1.25,11.06,1.18,14.82A14.9,14.9,0,0,1,174.88,88c.18,2.53.28,5.4,3.32,6.76C178.6,94.91,178.82,95.48,178.82,96.52Z"/>
</svg>
