<svg id="Livello_1" data-name="Livello 1" xmlns="http://www.w3.org/2000/svg" viewBox="0 0 841.89 841.89">
  <defs>
    <style>
      .cls-1 {
        fill: #231f20;
      }
    </style>
  </defs>
  <title>Glos</title>
  <g>
    <g>
      <path class="cls-1" d="M404.23,93.06l27.56-.15c33.6,1.71,67.62,8.44,97.35,24.48,6.65,3.59,13.35,7.62,18.67,13,1.41,1.43,7,7.55,7.58,9a2,2,0,0,1,0,1.78c-2.78,6.8-5.5,13.73-8.66,20.37-.39.81-1.59,3.9-2.5,3.7-.42-.1-4.31-4.37-5.16-5.13C495.65,121.15,412.24,111.8,357.47,128c-24.74,7.3-50.08,18.52-61.82,43.06-6.26-10-10.34-21.15-14.95-31.94-.13-2.5,9.58-10.42,11.91-12.15C322.34,104.81,367.66,94.47,404.23,93.06Z"/>
      <path class="cls-1" d="M512.1,83.52c11.62,11.56,30.66,26.16,45.6,11a32.66,32.66,0,0,0,14.45.8l-13.84,36.59c-.69.17-.72-.1-1.08-.47-3.1-3.11-5.13-6.06-8.73-9.13C504,84.42,413.65,81.36,358.81,92c-26.07,5-58.24,15.46-76.53,35.48-.61.67-3.06,4.56-3.78,4L264.22,93.75c-.14-.61,0-.84.65-.66,3.34,1,6.07,2.67,9.88,3.07,2,.21,4.73-.3,6.53.16.94.24,3.37,2.39,5,3.09a18.27,18.27,0,0,0,5.93,1.65c17.5,1.41,36.8-20.67,46.39-33.4,20.6,14.55,44.2,16.77,66.62,4.61,1.91-1,9.78-6.69,10.56-6.84a29.33,29.33,0,0,1,6.15.08c1,.29,7.76,5.54,9.83,6.68,22.5,12.32,46.21,9.93,67-4.52A116.75,116.75,0,0,0,512.1,83.52Z"/>
      <path class="cls-1" d="M299.62,176.69a6.75,6.75,0,0,1-.95-1.49l5.48-9.06c3.59,4.61,11,6.53,16.55,8,12.64,3.33,27.51,5,40.58,6.28a561.34,561.34,0,0,0,122.72-.9c12.37-1.44,34.78-4,45-10.79,2-1.3,3.76-2.22,3.42-5-.2-1.63-1.87-3.06-2-4.73a43.38,43.38,0,0,1,5.58,4.24c1.07,1,6.61,6.35,6.7,7.16.31,3-8.44,7.86-10.87,9.21-22.78,12.64-52.94,16.22-78.63,18.22-44.38,3.44-110.83,4-150.18-19A23.46,23.46,0,0,1,299.62,176.69Z"/>
      <circle class="cls-1" cx="418.59" cy="46.09" r="14.26"/>
      <path class="cls-1" d="M407.91,62.73c-2.82,1.32-5.23,3.32-8,4.71C382.1,76.33,362.2,75,346.19,63.1c-.54-.4-2.26-1.29-2.1-1.92l3.29-2.42a45.81,45.81,0,0,0,48.2,6.15c3.31-1.48,6.28-3.61,9.52-5.22C405.82,59.63,408.29,62.18,407.91,62.73Z"/>
      <path class="cls-1" d="M429.34,61.85c1.49-.12,1.79-1.93,3.31-1.8.58.05,8.44,4.72,10.22,5.45,15.95,6.54,32.89,4,46.57-6.27l3.26,2.39c-6.24,5.12-14.64,9.41-22.65,10.82-12.67,2.22-29.16-1-39.52-8.89C430,63.11,429.15,62.77,429.34,61.85Z"/>
      <path class="cls-1" d="M522.44,82.54c6.61,6.93,14.16,13,24.37,10,3-.88,4.22-3.15,7,.78-16.55,12-32.65-4-41.87-17-1.26-1.78-6-8.57-6.34-10.18-.24-1.24,2.91-.43,3.77-1C513.46,71.16,517.37,77.22,522.44,82.54Z"/>
      <path class="cls-1" d="M332.05,65c-6.61,12.5-21,32.9-36.84,32.61-1.95,0-9.64-1.65-10.47-3.38-.37-.78,3.36-1.61,3.83-2,2.48.13,5,1.44,7.48,1.3,13.32-.72,25.48-18.23,31.53-28.78Z"/>
    </g>
    <circle class="cls-1" cx="332.05" cy="46.7" r="14.26"/>
    <circle class="cls-1" cx="276.44" cy="76.64" r="14.26"/>
    <circle class="cls-1" cx="565.45" cy="76.64" r="14.26"/>
    <circle class="cls-1" cx="504.41" cy="46.7" r="14.26"/>
  </g>
</svg>
