<svg id="Livello_1" data-name="Livello 1" xmlns="http://www.w3.org/2000/svg" viewBox="0 0 841.89 841.89">
  <title>Glos</title>
  <g>
    <g>
      <g>
        <path d="M260.89,88.42c-2.3.29-4.6.61-6.85.91a6.12,6.12,0,0,0-1.51,2.47c-1.3,2.72-2.51,5.5-4,8.11a62,62,0,0,1-15,17.9A38.92,38.92,0,0,1,222.89,124,27.76,27.76,0,0,1,211.24,126a25.42,25.42,0,0,1-17-7.42,34.45,34.45,0,0,1-5.12-6.43,51.25,51.25,0,0,1-4.67-10,2.41,2.41,0,0,1,.64-2.64,2.94,2.94,0,0,1,4.38-.12c.1.09.16.23.26.32.92.88,1.6.85,2.36,0a6.55,6.55,0,0,0,1.61-5A10.25,10.25,0,0,0,186,85.19a7.13,7.13,0,0,0-8.39,3.56,23,23,0,0,0-2.42,6.53c-.18.94-.4,1.88-.61,2.82a.64.64,0,0,1-1,.3c-4.48-4.26-9-4.58-11-4.45a6,6,0,0,0-4.79,2.8c-2.42,3.56-2.28,7.22-.4,10.9a8.54,8.54,0,0,0,1.78,2.25,6.85,6.85,0,0,0,4.38,2,1.5,1.5,0,0,0,1.69-1.37c0-.42-.11-.83-.07-1.24a2.85,2.85,0,0,1,3.92-2.47c1.47.35,9.08,31.88,38.1,34,21.64,1.57,48.43-12.9,55.3-50.65A1.43,1.43,0,0,0,260.89,88.42Zm-88.4,18.09c-.09.28-.36.36-.66.17s-.63-.51-1-.73a4.73,4.73,0,0,0-5.75.34c-.54.4-1,.87-1.57,1.29a.29.29,0,0,1-.3,0,.63.63,0,0,1-.17-.37A2.53,2.53,0,0,1,164,105a7.94,7.94,0,0,1,2.15-1.15,4.05,4.05,0,0,1,1.22-.12,6.35,6.35,0,0,1,4.61,1.42,1.68,1.68,0,0,1,.55.58A1.28,1.28,0,0,1,172.49,106.51ZM182.72,101a1.55,1.55,0,0,1-.24.76c-.11.13-.45.09-.67.06a.4.4,0,0,1-.26-.3,6.17,6.17,0,0,1,2.62-5.28,4.08,4.08,0,0,1,4.6-.44c.2.11.29.43.44.66,0,.11,0,.27-.05.32-.61.49-1.31.08-2,.18C184.77,97.31,183.18,98.53,182.72,101Z"/>
        <path d="M237.38,74.42c-.62,1-.26,1.92-.19,2.84s.33,1.88.44,2.83a.77.77,0,0,1-.44.59,4.55,4.55,0,0,1-1.18.18c-1.23.11-1.42.26-1.52,1.41-.09,1-.08,1.92-.21,2.87a25,25,0,0,1-.6,3.22,1.94,1.94,0,0,1-3.24,1c-.92-.81-1.81-1.66-2.72-2.48a.73.73,0,0,0-1,.25c-.15.38-.26.77-.42,1.15s-.34.74-.53,1.1a1.07,1.07,0,0,1-1.41.4c-.35-.12-.6-.66-1-.41a2.51,2.51,0,0,0-.76.91c-.2.36-.27.78-.45,1.15a2.15,2.15,0,0,1-2.22,1.49c-1.21-.15-1.73.5-2.1,1.49-.62,1.67-1.28,3.32-1.92,5a5.27,5.27,0,0,1-1.66,2.3,1.85,1.85,0,0,1-2.82-.48c-.42-.86-.71-1.78-1.14-2.63s-1-1.62-1.51-2.49a6.31,6.31,0,0,0-1.08.72c-1.29,1.48-2.39.8-3-.78-.44-1.15-.92-2.28-1.4-3.42-.14-.33-.57-.38-1-.14s-.69.56-1.06.6a12.68,12.68,0,0,0-2.39,0,9,9,0,0,0-2,1.35c-.39.28-1.15-.09-1.29-.6a2.92,2.92,0,0,1-.14-.38,9.47,9.47,0,0,1,1.79-7.37,2.19,2.19,0,0,1,2.14-1c6.05.83,11.7-.81,17.2-3a68,68,0,0,0,14-7.67A44.66,44.66,0,0,0,242.05,62.9c.22-.34.48-.66.73-1a.76.76,0,0,1,1.07-.13,14.42,14.42,0,0,1,3.8,7.14,2.84,2.84,0,0,1,0,.41,1.48,1.48,0,0,1-1.28,1.37c-1.09,0-2.19,0-3.28.08a1,1,0,0,0-1,1c-.06.68,0,1.37-.16,2a3.17,3.17,0,0,1-.52,1.08,1.26,1.26,0,0,1-1.41.53c-.5-.23-1-.53-1.46-.74A6.75,6.75,0,0,0,237.38,74.42Z"/>
        <path d="M236.34,61.71h0l0,0,0,0-.07.09,0-.15h0Z"/>
        <path d="M241.75,60.89a26.22,26.22,0,0,1-4.44,5.91,60.5,60.5,0,0,1-29.72,16.71,30.83,30.83,0,0,1-8.18.49c-.69,0-1-.77-.73-1.53a3.59,3.59,0,0,1,.59-1.07,2.45,2.45,0,0,1,1-.54,1.4,1.4,0,0,1,.81,0c3.47.88,6.81.12,10.09-.93a44,44,0,0,0,11.36-5.69,1.16,1.16,0,0,0,.55-.86v-.15H223a2.36,2.36,0,0,0-1.44.44,55.73,55.73,0,0,1-8,4.19,23.67,23.67,0,0,1-9.53,2.22,18.57,18.57,0,0,1-3.25-.35,1.19,1.19,0,0,1-.73-.85,3.47,3.47,0,0,1,1.3-3.65c.41-.3.89-.53,1.06-1h-.28a1,1,0,0,1-.71-.86,2,2,0,0,1,.11-.81c.94-2.65.36-5.15-.73-7.59a11.41,11.41,0,0,0-5.25-5.59,7.63,7.63,0,0,0-2.72-.88,11.23,11.23,0,0,0-9.14,2.78,23.89,23.89,0,0,0-4.08,4.62c-4,6-5.76,30.19-6,30.5-4-3.34-13.67-6.47-27.34-3.93a4.75,4.75,0,0,0-3.92,3.78,2.12,2.12,0,0,0,.28,1.93c.49.66,1,1.28,1.48,2a2,2,0,0,1-.47,2.25,6.9,6.9,0,0,1-1,.67,11.9,11.9,0,0,0-1.81.94c-2.16,1.76-3.39,4-2.92,6.85a7.24,7.24,0,0,0,5.39,6.14,6.24,6.24,0,0,0,2.85.14c2.79-.54,3.93-1.31,3.27-4.46a4.45,4.45,0,0,0-.23-.79c0-.11-.16-.29-.22-.28-.25,0-.6,0-.71.2-.29.46-.42,1-.73,1.45a1.7,1.7,0,0,1-1,.59c-.94.13-1.79-.53-2.8-.36-.72.12-1.68-.89-1.61-1.59a16.83,16.83,0,0,0-.07-3.62,1.81,1.81,0,0,1,.68-1.41c1.11-.79,2.34-1.42,3.66-2.19a11.91,11.91,0,0,1,.67-2.59,9.13,9.13,0,0,0,.5-2.8,2.33,2.33,0,0,1,2.77-1.83,1.78,1.78,0,0,1,1.06.57,10.67,10.67,0,0,1,1.31,2.53c.82,2.62,1.58,5.25,2.24,7.92a12.36,12.36,0,0,0,1.38,3.84,4.93,4.93,0,0,1,.54,4,2.69,2.69,0,0,1-.7,1.43,2.14,2.14,0,0,0-.88,2.14,2.9,2.9,0,0,1,0,.83,3,3,0,0,1-2,2.4c-.89.32-1.82.57-2.82.87l-.76,2.25c0,1.26.81,2.29,1.09,3.53l-1.39,2.09a22.9,22.9,0,0,1,2.25,3.36,23.72,23.72,0,0,1,1,4,13.43,13.43,0,0,1,.79,4.43,2.66,2.66,0,0,1-.4,1.54,4.85,4.85,0,0,0-1.36,2.9,3.07,3.07,0,0,1-.82,1.38,1.75,1.75,0,0,1-1.88.51c-.86-.26-1.59-1.44-2.57-.71s-.52,1.78-.69,2.71a3,3,0,0,1-1.14,2.12,2.38,2.38,0,0,0-1,2.11,21.73,21.73,0,0,1-.75,6.11c-.13.39-.25.78-.41,1.16a2.59,2.59,0,0,1-3,1.53,1.93,1.93,0,0,1-1.59-1.65,5.61,5.61,0,0,1,0-1.23,3.93,3.93,0,0,0-.68-3.5,4.39,4.39,0,0,1-.5-1.12,2.25,2.25,0,0,1,.09-2c.44-.84.93-1.67,1.36-2.52a1.41,1.41,0,0,0,0-1.56c-1.3-1.53-1.72-3.4-2.23-5.26a2.25,2.25,0,0,0-2-1.82A3.2,3.2,0,0,1,131.2,142a6.2,6.2,0,0,0-1.11-2.17,16.12,16.12,0,0,1-2.76-5A3.08,3.08,0,0,1,128,131c.07-.08.06-.24.1-.44a24.24,24.24,0,0,1-2.72-11.85,42.69,42.69,0,0,1,.76-9.43,15.39,15.39,0,0,0,.33-1.53h0s0,0,0,0a.58.58,0,0,1,0-.1h0v-.16h0a2.79,2.79,0,0,0-.12-.94c-.24.14-.58.21-.68.41s-.15.28-.22.42h0c-.7.34-2.19,4.28-3.5,8.22-.12.36-.24.71-.35,1.06-1,3.11-1.85,6-2,6.92-.43,2.17,3.23.75,5,10.17h0c.79,19.42-17.76,20.74-25,18.14-6.8-2.43-18.28-16.38,2.34-28.81.29-.18,1,0,1.37,0a8.16,8.16,0,0,1,1.72.6h0a.67.67,0,0,1,.12.06,2.64,2.64,0,0,1,1.49,2.3c.12,1.3,0,2.48-1.31,3.2l0,0a5.21,5.21,0,0,0-2,2h0c-.9,1.15-1.49,2.46-.12,3h0a1.25,1.25,0,0,0,.59.25,4.18,4.18,0,0,0,2.77-.54,7.73,7.73,0,0,0,2.86-2.9,3.88,3.88,0,0,0,.5-1.54c.07-.95,0-1.91,0-2.88a40.43,40.43,0,0,1,.29-5.74v0a64.21,64.21,0,0,1,1.47-6.94c0-.09,0-.17.07-.26a51.8,51.8,0,0,1,2.67-6.93,38.88,38.88,0,0,1,6.15-9.72c.52-.57,1-1.12,1.59-1.65a22.1,22.1,0,0,1,5.49-3.69h0c.41-.15.82-.29,1.25-.41a4.14,4.14,0,0,0,.93-.38c.65-.37,1.27-.85,1.93-1.18a1.72,1.72,0,0,1,2-.06c1.93,1.55,4.09,1.32,6.27.87a10,10,0,0,0,1.95-.66c4.28-1.81,17.16-3.59,23.45-.19.28.15-1.37-2.78-1.79-3.47a71.34,71.34,0,0,0-8.05-10.94,44.74,44.74,0,0,0-10.35-8.75c-1.4-.85-2.88-1.59-4.35-2.32A28.23,28.23,0,0,0,123.44,62a23.65,23.65,0,0,0-12.32,6.23,39.37,39.37,0,0,0-9.55,14.26c-.31.76-.61,1.52-.86,2.3A3,3,0,0,0,106,87.25a1.31,1.31,0,0,1,2.11,0,6,6,0,0,1,1.6,3.28,10.13,10.13,0,0,1-6.12,10.64,8.35,8.35,0,0,1-4.81.73,8.08,8.08,0,0,1-6.21-5.42,13.06,13.06,0,0,1-1-4A34.91,34.91,0,0,0,91,88.8c-.06-.32-.75-.51-1-.29-1,.72-2,1.5-3,2.17a13.31,13.31,0,0,1-4.9,2c-3.88.75-6.66-.56-8.64-4-2.59-4.46-.74-10.07,2.51-12.66a8.15,8.15,0,0,1,3.74-1.61,1.65,1.65,0,0,1,2,1.51c0,.27-.09.55-.08.82a3.19,3.19,0,0,0,3.11,3.13,2.38,2.38,0,0,0,1.84-1.34c1.52-2.9,37.81-60.24,82.43-7.08,6.62-20.1,15.3-26.15,24.49-27,5.21-.5,7.75,0,21.15,4.88,2.06.74,13.63,4.95,19.16,4.47,3.3-.29,2.84.76,2.12,1.8-.53.76-1.9,1.61-1.54,2s2.24-1.14,3.06-2c.32-.34,1.07-.12,1.36.35a1.31,1.31,0,0,1,.08,1.51c-.75,1.12-1.59,2.18-2.33,3.3a2.53,2.53,0,0,0-.26,1,2.16,2.16,0,0,0-.32.05l.32-.05,0,.15h0l.13,0a3.29,3.29,0,0,0,1.44-1.2c.65-.7,1.26-1.43,1.94-2.11a1,1,0,0,1,1.15,0A1.68,1.68,0,0,1,241.75,60.89Z"/>
        <path d="M236.34,61.72s0,.09,0,.14l-.13,0h0l.07-.09,0,0Z"/>
        <path d="M236.34,61.72s0,.09,0,.14l-.13,0h0l0-.15h.12Z"/>
      </g>
      <g>
        <path d="M429.59,88.42c-2.3.29-4.6.61-6.85.91a6.15,6.15,0,0,0-1.52,2.47c-1.3,2.72-2.51,5.5-4,8.11a62,62,0,0,1-15,17.9A38.72,38.72,0,0,1,391.59,124,27.8,27.8,0,0,1,379.93,126,25.42,25.42,0,0,1,363,118.62a35.29,35.29,0,0,1-5.12-6.43,52.43,52.43,0,0,1-4.67-10,2.4,2.4,0,0,1,.65-2.64,2.93,2.93,0,0,1,4.37-.12c.1.09.17.23.26.32.92.88,1.6.85,2.36,0a6.56,6.56,0,0,0,1.62-5,10.27,10.27,0,0,0-7.74-9.56,7.14,7.14,0,0,0-8.39,3.56,23.34,23.34,0,0,0-2.42,6.53c-.18.94-.4,1.88-.61,2.82a.63.63,0,0,1-1,.3c-4.49-4.26-9-4.58-11-4.45a6.06,6.06,0,0,0-4.8,2.8c-2.41,3.56-2.28,7.22-.39,10.9a8.71,8.71,0,0,0,1.77,2.25,6.87,6.87,0,0,0,4.38,2,1.5,1.5,0,0,0,1.7-1.37c0-.42-.11-.83-.07-1.24a3.07,3.07,0,0,1,.33-1.17,3.47,3.47,0,0,1,3.59-1.3c1.46.35,9.08,31.88,38.09,34,21.65,1.57,48.43-12.9,55.3-50.65A1.42,1.42,0,0,0,429.59,88.42Zm-88.4,18.09c-.09.28-.37.36-.66.17s-.64-.51-1-.73a4.72,4.72,0,0,0-5.74.34c-.55.4-1.05.87-1.58,1.29a.3.3,0,0,1-.3,0,.63.63,0,0,1-.17-.37,2.56,2.56,0,0,1,.95-2.18,7.73,7.73,0,0,1,2.14-1.15,4.12,4.12,0,0,1,1.23-.12,6.37,6.37,0,0,1,4.61,1.42,1.78,1.78,0,0,1,.55.58A1.36,1.36,0,0,1,341.19,106.51ZM351.41,101a1.55,1.55,0,0,1-.23.76c-.12.13-.45.09-.68.06a.44.44,0,0,1-.26-.3,6.18,6.18,0,0,1,2.63-5.28,4.06,4.06,0,0,1,4.59-.44c.21.11.3.43.44.66s0,.27,0,.32c-.62.49-1.31.08-2,.18C353.46,97.31,351.87,98.53,351.41,101Z"/>
        <path d="M406.08,74.42c-.63,1-.26,1.92-.19,2.84s.33,1.88.43,2.83a.76.76,0,0,1-.43.59,4.69,4.69,0,0,1-1.19.18c-1.22.11-1.41.26-1.52,1.41-.09,1-.08,1.92-.2,2.87a26.85,26.85,0,0,1-.6,3.22,1.94,1.94,0,0,1-3.24,1c-.93-.81-1.81-1.66-2.73-2.48a.73.73,0,0,0-1,.25c-.15.38-.26.77-.41,1.15s-.34.74-.54,1.1a1.06,1.06,0,0,1-1.4.4c-.36-.12-.61-.66-1-.41a2.48,2.48,0,0,0-.75.91c-.2.36-.27.78-.45,1.15a2.16,2.16,0,0,1-2.22,1.49c-1.22-.15-1.73.5-2.1,1.49-.63,1.67-1.28,3.32-1.92,5a5.43,5.43,0,0,1-1.66,2.3,1.87,1.87,0,0,1-2.83-.48c-.41-.86-.7-1.78-1.14-2.63s-1-1.62-1.5-2.49a5.6,5.6,0,0,0-1.08.72c-1.3,1.48-2.4.8-3-.78-.43-1.15-.92-2.28-1.4-3.42-.14-.33-.56-.38-1-.14s-.69.56-1.05.6a12.77,12.77,0,0,0-2.4,0,8.91,8.91,0,0,0-2,1.35c-.4.28-1.15-.09-1.3-.6,0-.13-.11-.25-.13-.38a9.43,9.43,0,0,1,1.79-7.37,2.19,2.19,0,0,1,2.14-1c6.05.83,11.7-.81,17.19-3a68,68,0,0,0,14-7.67A44.62,44.62,0,0,0,410.74,62.9c.23-.34.49-.66.74-1a.76.76,0,0,1,1.07-.13,14.48,14.48,0,0,1,3.79,7.14,2.84,2.84,0,0,1,0,.41,1.48,1.48,0,0,1-1.27,1.37c-1.1,0-2.19,0-3.28.08a1,1,0,0,0-1,1,19.78,19.78,0,0,1-.15,2,3.2,3.2,0,0,1-.53,1.08,1.25,1.25,0,0,1-1.41.53c-.5-.23-1-.53-1.46-.74A6.64,6.64,0,0,0,406.08,74.42Z"/>
        <path d="M405,61.71h0l0,0,0,0-.08.09,0-.15h0Z"/>
        <path d="M410.45,60.89A26.53,26.53,0,0,1,406,66.8a60.58,60.58,0,0,1-29.72,16.71,30.88,30.88,0,0,1-8.19.49c-.69,0-1-.77-.73-1.53a3.4,3.4,0,0,1,.6-1.07,2.41,2.41,0,0,1,1-.54,1.4,1.4,0,0,1,.81,0c3.48.88,6.81.12,10.1-.93a43.92,43.92,0,0,0,11.35-5.69,1.13,1.13,0,0,0,.55-.86.71.71,0,0,0,0-.15h-.11a2.35,2.35,0,0,0-1.43.44,55.84,55.84,0,0,1-8,4.19,23.63,23.63,0,0,1-9.53,2.22,18.68,18.68,0,0,1-3.25-.35,1.19,1.19,0,0,1-.73-.85,3.48,3.48,0,0,1,1.31-3.65c.4-.3.89-.53,1.05-1h-.28a1,1,0,0,1-.71-.86,2,2,0,0,1,.11-.81c.95-2.65.37-5.15-.72-7.59a11.48,11.48,0,0,0-5.26-5.59,7.51,7.51,0,0,0-2.71-.88,11.22,11.22,0,0,0-9.14,2.78,23.56,23.56,0,0,0-4.08,4.62c-4,6-5.77,30.19-6,30.5-4-3.34-13.66-6.47-27.33-3.93a4.73,4.73,0,0,0-3.92,3.78,2.09,2.09,0,0,0,.27,1.93c.5.66,1,1.28,1.49,2a2,2,0,0,1-.47,2.25,6.9,6.9,0,0,1-1,.67,12,12,0,0,0-1.82.94c-2.16,1.76-3.38,4-2.91,6.85A7.23,7.23,0,0,0,312,117a6.24,6.24,0,0,0,2.85.14c2.79-.54,3.93-1.31,3.28-4.46a5.53,5.53,0,0,0-.24-.79c0-.11-.15-.29-.22-.28-.24,0-.6,0-.7.2-.29.46-.42,1-.74,1.45a1.64,1.64,0,0,1-1,.59c-.94.13-1.78-.53-2.8-.36-.71.12-1.67-.89-1.6-1.59a16.83,16.83,0,0,0-.08-3.62,1.84,1.84,0,0,1,.68-1.41c1.12-.79,2.35-1.42,3.67-2.19a11.34,11.34,0,0,1,.66-2.59,9.15,9.15,0,0,0,.51-2.8,2.32,2.32,0,0,1,2.77-1.83,1.73,1.73,0,0,1,1,.57,10.31,10.31,0,0,1,1.31,2.53c.82,2.62,1.59,5.25,2.25,7.92a12.6,12.6,0,0,0,1.37,3.84,4.85,4.85,0,0,1,.54,4,2.55,2.55,0,0,1-.7,1.43,2.13,2.13,0,0,0-.87,2.14,3.86,3.86,0,0,1-.05.83,3,3,0,0,1-2,2.4c-.9.32-1.83.57-2.82.87-.25.72-.5,1.48-.76,2.25,0,1.26.81,2.29,1.08,3.53-.45.69-.9,1.36-1.39,2.09a22.13,22.13,0,0,1,2.25,3.36,23.72,23.72,0,0,1,1,4,12.93,12.93,0,0,1,.79,4.43,2.73,2.73,0,0,1-.39,1.54,4.81,4.81,0,0,0-1.37,2.9,3,3,0,0,1-.82,1.38,1.73,1.73,0,0,1-1.87.51c-.87-.26-1.6-1.44-2.58-.71s-.52,1.78-.68,2.71a3,3,0,0,1-1.15,2.12,2.38,2.38,0,0,0-1,2.11,21.37,21.37,0,0,1-.75,6.11c-.13.39-.24.78-.4,1.16a2.59,2.59,0,0,1-3.05,1.53,1.9,1.9,0,0,1-1.59-1.65,5.61,5.61,0,0,1,0-1.23,3.9,3.9,0,0,0-.68-3.5,4.37,4.37,0,0,1-.49-1.12,2.28,2.28,0,0,1,.08-2c.45-.84.94-1.67,1.37-2.52a1.39,1.39,0,0,0,0-1.56,12.72,12.72,0,0,1-2.22-5.26,2.25,2.25,0,0,0-2-1.82A3.2,3.2,0,0,1,299.9,142a6.2,6.2,0,0,0-1.11-2.17,15.73,15.73,0,0,1-2.76-5,3.08,3.08,0,0,1,.65-3.77c.08-.08.06-.24.11-.44a24.13,24.13,0,0,1-2.72-11.85,42.69,42.69,0,0,1,.75-9.43c.11-.5.27-1,.34-1.53h0v0a.25.25,0,0,0,0-.1h0a.43.43,0,0,0,0-.16h0a2.55,2.55,0,0,0-.11-.94c-.24.14-.58.21-.69.41l-.22.42h0c-.71.34-2.2,4.28-3.51,8.22-.12.36-.23.71-.35,1.06-1,3.11-1.84,6-2,6.92-.43,2.17,3.23.75,5,10.17h0c.79,19.42-17.76,20.74-25,18.14-6.81-2.43-18.28-16.38,2.33-28.81.29-.18,1,0,1.37,0a8,8,0,0,1,1.72.6h0l.12.06a2.64,2.64,0,0,1,1.48,2.3c.13,1.3,0,2.48-1.3,3.2l0,0a5.28,5.28,0,0,0-2,2h0c-.9,1.15-1.49,2.46-.11,3h0a1.29,1.29,0,0,0,.59.25,4.16,4.16,0,0,0,2.77-.54,7.76,7.76,0,0,0,2.87-2.9,4,4,0,0,0,.5-1.54c.07-.95,0-1.91,0-2.88a40.43,40.43,0,0,1,.29-5.74,0,0,0,0,0,0,0,61.9,61.9,0,0,1,1.47-6.94,2.5,2.5,0,0,1,.07-.26,51.8,51.8,0,0,1,2.67-6.93,38.6,38.6,0,0,1,6.15-9.72c.51-.57,1-1.12,1.58-1.65a22.28,22.28,0,0,1,5.49-3.69h0c.4-.15.82-.29,1.25-.41a4.14,4.14,0,0,0,.93-.38c.65-.37,1.26-.85,1.93-1.18a1.7,1.7,0,0,1,1.94-.06c1.93,1.55,4.09,1.32,6.27.87A9.74,9.74,0,0,0,310.5,90c4.28-1.81,17.17-3.59,23.45-.19.29.15-1.36-2.78-1.79-3.47a72,72,0,0,0-8-10.94,45.16,45.16,0,0,0-10.35-8.75c-1.41-.85-2.88-1.59-4.35-2.32A28.25,28.25,0,0,0,292.14,62a23.68,23.68,0,0,0-12.33,6.23,39.48,39.48,0,0,0-9.54,14.26c-.32.76-.61,1.52-.87,2.3a3,3,0,0,0,5.29,2.46,1.31,1.31,0,0,1,2.11,0,6,6,0,0,1,1.59,3.28,10.12,10.12,0,0,1-6.11,10.64,8.37,8.37,0,0,1-4.82.73,8.09,8.09,0,0,1-6.21-5.42,13.35,13.35,0,0,1-1-4,34.91,34.91,0,0,0-.59-3.64c-.06-.32-.75-.51-1-.29-1,.72-2,1.5-3,2.17a13.36,13.36,0,0,1-4.91,2c-3.87.75-6.65-.56-8.63-4-2.6-4.46-.75-10.07,2.51-12.66a8.11,8.11,0,0,1,3.73-1.61,1.65,1.65,0,0,1,2,1.51c0,.27-.09.55-.08.82a3.2,3.2,0,0,0,3.12,3.13,2.41,2.41,0,0,0,1.84-1.34c1.52-2.9,37.8-60.24,82.42-7.08,6.62-20.1,15.3-26.15,24.5-27,5.2-.5,7.74,0,21.14,4.88,2.06.74,13.63,4.95,19.16,4.47,3.3-.29,2.84.76,2.13,1.8-.53.76-1.91,1.61-1.55,2s2.24-1.14,3.06-2c.32-.34,1.07-.12,1.37.35a1.33,1.33,0,0,1,.07,1.51c-.75,1.12-1.59,2.18-2.32,3.3a2.73,2.73,0,0,0-.27,1l-.31.05.31-.05,0,.15h0l.13,0a3.23,3.23,0,0,0,1.44-1.2c.65-.7,1.26-1.43,1.94-2.11a1,1,0,0,1,1.16,0A1.68,1.68,0,0,1,410.45,60.89Z"/>
        <path d="M405,61.72a.78.78,0,0,1,0,.14l-.13,0h0l.08-.09,0,0Z"/>
        <path d="M405,61.72a.78.78,0,0,1,0,.14l-.13,0h0l0-.15Z"/>
      </g>
      <g>
        <path d="M599.39,88.42c-2.31.29-4.61.61-6.86.91A6.12,6.12,0,0,0,591,91.8c-1.3,2.72-2.51,5.5-4,8.11a62,62,0,0,1-15,17.9A38.86,38.86,0,0,1,561.39,124,27.83,27.83,0,0,1,549.73,126a25.42,25.42,0,0,1-17-7.42,34.87,34.87,0,0,1-5.12-6.43,51.84,51.84,0,0,1-4.67-10,2.4,2.4,0,0,1,.65-2.64,2.93,2.93,0,0,1,4.37-.12c.1.09.16.23.26.32.92.88,1.6.85,2.36,0a6.6,6.6,0,0,0,1.62-5,10.27,10.27,0,0,0-7.74-9.56,7.13,7.13,0,0,0-8.39,3.56,23.34,23.34,0,0,0-2.42,6.53c-.18.94-.4,1.88-.61,2.82a.64.64,0,0,1-1,.3c-4.48-4.26-9-4.58-11-4.45a6,6,0,0,0-4.79,2.8c-2.42,3.56-2.28,7.22-.4,10.9a8.75,8.75,0,0,0,1.78,2.25,6.85,6.85,0,0,0,4.38,2,1.5,1.5,0,0,0,1.69-1.37c0-.42-.11-.83-.07-1.24a2.85,2.85,0,0,1,3.92-2.47c1.47.35,9.08,31.88,38.1,34,21.65,1.57,48.43-12.9,55.3-50.65A1.42,1.42,0,0,0,599.39,88.42ZM511,106.51c-.08.28-.36.36-.66.17s-.63-.51-1-.73a4.72,4.72,0,0,0-5.74.34c-.55.4-1.05.87-1.58,1.29a.3.3,0,0,1-.3,0,.63.63,0,0,1-.17-.37,2.53,2.53,0,0,1,.94-2.18,7.94,7.94,0,0,1,2.15-1.15,4.05,4.05,0,0,1,1.22-.12,6.35,6.35,0,0,1,4.61,1.42,1.68,1.68,0,0,1,.55.58A1.28,1.28,0,0,1,511,106.51ZM521.21,101a1.55,1.55,0,0,1-.24.76c-.11.13-.44.09-.67.06a.4.4,0,0,1-.26-.3,6.19,6.19,0,0,1,2.62-5.28,4.08,4.08,0,0,1,4.6-.44c.2.11.3.43.44.66,0,.11,0,.27-.05.32-.61.49-1.31.08-2,.18C523.26,97.31,521.67,98.53,521.21,101Z"/>
        <path d="M575.87,74.42c-.62,1-.26,1.92-.19,2.84s.33,1.88.44,2.83a.77.77,0,0,1-.44.59,4.55,4.55,0,0,1-1.18.18c-1.23.11-1.42.26-1.52,1.41-.09,1-.08,1.92-.21,2.87a26.83,26.83,0,0,1-.59,3.22,2,2,0,0,1-3.25,1c-.92-.81-1.81-1.66-2.72-2.48a.73.73,0,0,0-1,.25c-.15.38-.26.77-.42,1.15s-.34.74-.53,1.1a1.07,1.07,0,0,1-1.41.4c-.35-.12-.6-.66-1-.41a2.61,2.61,0,0,0-.76.91c-.2.36-.27.78-.45,1.15a2.15,2.15,0,0,1-2.22,1.49c-1.21-.15-1.73.5-2.1,1.49-.62,1.67-1.28,3.32-1.92,5a5.27,5.27,0,0,1-1.66,2.3,1.86,1.86,0,0,1-2.82-.48c-.41-.86-.7-1.78-1.14-2.63s-1-1.62-1.51-2.49a6.31,6.31,0,0,0-1.08.72c-1.29,1.48-2.39.8-3-.78-.44-1.15-.92-2.28-1.4-3.42-.14-.33-.57-.38-1-.14s-.69.56-1.06.6a12.68,12.68,0,0,0-2.39,0,8.91,8.91,0,0,0-2,1.35c-.4.28-1.16-.09-1.3-.6a2.92,2.92,0,0,1-.14-.38,9.47,9.47,0,0,1,1.79-7.37,2.19,2.19,0,0,1,2.14-1c6,.83,11.7-.81,17.2-3a67.71,67.71,0,0,0,14-7.67A44.51,44.51,0,0,0,580.54,62.9c.23-.34.48-.66.73-1a.76.76,0,0,1,1.07-.13,14.42,14.42,0,0,1,3.8,7.14,2.84,2.84,0,0,1,0,.41,1.48,1.48,0,0,1-1.28,1.37c-1.09,0-2.18,0-3.28.08a1,1,0,0,0-1,1c-.06.68,0,1.37-.15,2a3.39,3.39,0,0,1-.53,1.08,1.25,1.25,0,0,1-1.41.53c-.5-.23-1-.53-1.46-.74A6.5,6.5,0,0,0,575.87,74.42Z"/>
        <path d="M574.83,61.71h0l0,0,0,0-.07.09s0-.1,0-.15h0Z"/>
        <path d="M580.24,60.89a26.22,26.22,0,0,1-4.44,5.91,60.5,60.5,0,0,1-29.72,16.71,30.83,30.83,0,0,1-8.18.49c-.69,0-1-.77-.73-1.53a3.59,3.59,0,0,1,.59-1.07,2.45,2.45,0,0,1,1-.54,1.4,1.4,0,0,1,.81,0c3.47.88,6.81.12,10.09-.93a44,44,0,0,0,11.36-5.69,1.16,1.16,0,0,0,.55-.86.71.71,0,0,0,0-.15h-.11a2.31,2.31,0,0,0-1.43.44,55.84,55.84,0,0,1-8,4.19,23.67,23.67,0,0,1-9.53,2.22,18.57,18.57,0,0,1-3.25-.35,1.19,1.19,0,0,1-.73-.85,3.47,3.47,0,0,1,1.3-3.65c.41-.3.89-.53,1.06-1h-.28a1,1,0,0,1-.71-.86,2,2,0,0,1,.11-.81c.94-2.65.36-5.15-.73-7.59a11.41,11.41,0,0,0-5.25-5.59,7.63,7.63,0,0,0-2.72-.88,11.23,11.23,0,0,0-9.14,2.78,23.51,23.51,0,0,0-4.07,4.62c-4,6-5.77,30.19-6,30.5-4-3.34-13.67-6.47-27.33-3.93a4.75,4.75,0,0,0-3.93,3.78,2.12,2.12,0,0,0,.28,1.93c.49.66,1,1.28,1.48,2a2,2,0,0,1-.47,2.25,7.37,7.37,0,0,1-1,.67,11.55,11.55,0,0,0-1.82.94c-2.16,1.76-3.38,4-2.92,6.85a7.24,7.24,0,0,0,5.39,6.14,6.24,6.24,0,0,0,2.85.14c2.79-.54,3.93-1.31,3.28-4.46a5.53,5.53,0,0,0-.24-.79c0-.11-.16-.29-.22-.28-.25,0-.6,0-.71.2-.29.46-.42,1-.73,1.45a1.7,1.7,0,0,1-1,.59c-.94.13-1.78-.53-2.8-.36-.72.12-1.68-.89-1.6-1.59a17.5,17.5,0,0,0-.08-3.62,1.81,1.81,0,0,1,.68-1.41c1.11-.79,2.34-1.42,3.66-2.19a11.91,11.91,0,0,1,.67-2.59,9.13,9.13,0,0,0,.5-2.8,2.33,2.33,0,0,1,2.77-1.83A1.75,1.75,0,0,1,490,98a10.67,10.67,0,0,1,1.31,2.53c.82,2.62,1.58,5.25,2.24,7.92a12.36,12.36,0,0,0,1.38,3.84,4.89,4.89,0,0,1,.54,4,2.62,2.62,0,0,1-.7,1.43,2.14,2.14,0,0,0-.88,2.14,2.9,2.9,0,0,1,0,.83,3,3,0,0,1-2,2.4c-.89.32-1.82.57-2.82.87-.24.72-.49,1.48-.76,2.25,0,1.26.82,2.29,1.09,3.53l-1.39,2.09a22.9,22.9,0,0,1,2.25,3.36,23.72,23.72,0,0,1,1,4,13.43,13.43,0,0,1,.79,4.43,2.66,2.66,0,0,1-.4,1.54,4.85,4.85,0,0,0-1.36,2.9,3.07,3.07,0,0,1-.82,1.38,1.73,1.73,0,0,1-1.87.51c-.87-.26-1.6-1.44-2.58-.71s-.52,1.78-.69,2.71a3,3,0,0,1-1.14,2.12,2.38,2.38,0,0,0-1,2.11,21.73,21.73,0,0,1-.75,6.11c-.13.39-.25.78-.41,1.16a2.58,2.58,0,0,1-3,1.53,1.93,1.93,0,0,1-1.6-1.65,5.61,5.61,0,0,1,0-1.23,3.93,3.93,0,0,0-.68-3.5,4.76,4.76,0,0,1-.5-1.12,2.25,2.25,0,0,1,.09-2c.44-.84.93-1.67,1.37-2.52a1.41,1.41,0,0,0,0-1.56c-1.3-1.53-1.72-3.4-2.23-5.26a2.25,2.25,0,0,0-2-1.82,3.2,3.2,0,0,1-2.68-2.28,6.2,6.2,0,0,0-1.11-2.17,16.12,16.12,0,0,1-2.76-5,3.08,3.08,0,0,1,.66-3.77c.07-.08.06-.24.1-.44a24.24,24.24,0,0,1-2.72-11.85,42.69,42.69,0,0,1,.76-9.43,15.39,15.39,0,0,0,.33-1.53h0s0,0,0,0a.58.58,0,0,1,0-.1h0v-.16h0a2.79,2.79,0,0,0-.12-.94c-.24.14-.57.21-.68.41s-.15.28-.22.42h0c-.7.34-2.19,4.28-3.5,8.22-.12.36-.24.71-.35,1.06-1,3.11-1.85,6-2,6.92-.43,2.17,3.23.75,4.95,10.17h0c.79,19.42-17.76,20.74-25,18.14-6.8-2.43-18.28-16.38,2.34-28.81.29-.18,1,0,1.37,0a8.16,8.16,0,0,1,1.72.6h0a.67.67,0,0,1,.12.06,2.64,2.64,0,0,1,1.49,2.3c.12,1.3,0,2.48-1.31,3.2l0,0a5.21,5.21,0,0,0-2,2h0c-.9,1.15-1.49,2.46-.12,3h0a1.25,1.25,0,0,0,.59.25,4.18,4.18,0,0,0,2.77-.54,7.66,7.66,0,0,0,2.86-2.9,3.88,3.88,0,0,0,.5-1.54c.07-.95,0-1.91,0-2.88a40.43,40.43,0,0,1,.29-5.74v0a66.71,66.71,0,0,1,1.47-6.94c0-.09,0-.17.07-.26a51.8,51.8,0,0,1,2.67-6.93,39.17,39.17,0,0,1,6.15-9.72c.52-.57,1-1.12,1.59-1.65A22.1,22.1,0,0,1,466,91.8h0c.41-.15.82-.29,1.25-.41a4.41,4.41,0,0,0,.94-.38c.64-.37,1.26-.85,1.92-1.18a1.72,1.72,0,0,1,1.95-.06c1.93,1.55,4.09,1.32,6.27.87A9.74,9.74,0,0,0,480.3,90c4.28-1.81,17.16-3.59,23.45-.19.28.15-1.37-2.78-1.79-3.47a71.34,71.34,0,0,0-8-10.94,44.9,44.9,0,0,0-10.34-8.75c-1.41-.85-2.88-1.59-4.36-2.32A28.21,28.21,0,0,0,461.94,62a23.65,23.65,0,0,0-12.33,6.23,39.37,39.37,0,0,0-9.55,14.26c-.31.76-.61,1.52-.86,2.3a3,3,0,0,0,5.28,2.46,1.32,1.32,0,0,1,2.12,0,6.1,6.1,0,0,1,1.59,3.28,10.13,10.13,0,0,1-6.12,10.64,8.34,8.34,0,0,1-4.81.73,8.09,8.09,0,0,1-6.21-5.42,13.06,13.06,0,0,1-1-4,34.91,34.91,0,0,0-.59-3.64c-.06-.32-.75-.51-1-.29-1,.72-2,1.5-3,2.17a13.31,13.31,0,0,1-4.9,2c-3.87.75-6.66-.56-8.64-4-2.59-4.46-.74-10.07,2.51-12.66a8.15,8.15,0,0,1,3.74-1.61,1.65,1.65,0,0,1,2,1.51c0,.27-.09.55-.08.82a3.19,3.19,0,0,0,3.12,3.13A2.41,2.41,0,0,0,425,78.59c1.51-2.9,37.8-60.24,82.42-7.08,6.62-20.1,15.3-26.15,24.49-27,5.21-.5,7.75,0,21.15,4.88,2.06.74,13.63,4.95,19.16,4.47,3.3-.29,2.84.76,2.12,1.8-.53.76-1.9,1.61-1.54,2s2.24-1.14,3.06-2c.32-.34,1.07-.12,1.37.35a1.33,1.33,0,0,1,.07,1.51c-.75,1.12-1.59,2.18-2.33,3.3a2.53,2.53,0,0,0-.26,1,1.82,1.82,0,0,0-.31.05l.31-.05c0,.05,0,.11,0,.15h0l.13,0a3.29,3.29,0,0,0,1.44-1.2c.65-.7,1.26-1.43,1.94-2.11a1,1,0,0,1,1.16,0A1.68,1.68,0,0,1,580.24,60.89Z"/>
        <path d="M574.83,61.72s0,.09,0,.14l-.13,0h0l.07-.09,0,0Z"/>
        <path d="M574.83,61.72s0,.09,0,.14l-.13,0h0s0-.1,0-.15h.12Z"/>
      </g>
      <g>
        <path d="M768.08,88.42c-2.3.29-4.6.61-6.85.91a6.15,6.15,0,0,0-1.52,2.47c-1.3,2.72-2.51,5.5-4,8.11a62,62,0,0,1-15,17.9A38.72,38.72,0,0,1,730.08,124,27.8,27.8,0,0,1,718.42,126a25.39,25.39,0,0,1-16.94-7.42,34.92,34.92,0,0,1-5.13-6.43,52.43,52.43,0,0,1-4.67-10,2.4,2.4,0,0,1,.65-2.64,2.93,2.93,0,0,1,4.37-.12c.1.09.17.23.26.32.92.88,1.6.85,2.36,0a6.56,6.56,0,0,0,1.62-5,10.24,10.24,0,0,0-7.74-9.56,7.12,7.12,0,0,0-8.38,3.56,23.06,23.06,0,0,0-2.43,6.53c-.18.94-.4,1.88-.61,2.82a.63.63,0,0,1-1,.3c-4.49-4.26-9-4.58-11-4.45a6.06,6.06,0,0,0-4.8,2.8c-2.41,3.56-2.28,7.22-.39,10.9a8.71,8.71,0,0,0,1.77,2.25,6.87,6.87,0,0,0,4.38,2,1.5,1.5,0,0,0,1.7-1.37c0-.42-.11-.83-.07-1.24a3.07,3.07,0,0,1,.33-1.17,3.47,3.47,0,0,1,3.59-1.3c1.46.35,9.08,31.88,38.09,34,21.65,1.57,48.43-12.9,55.3-50.65A1.42,1.42,0,0,0,768.08,88.42Zm-88.4,18.09c-.09.28-.36.36-.66.17s-.64-.51-1-.73a4.72,4.72,0,0,0-5.74.34c-.55.4-1,.87-1.57,1.29a.31.31,0,0,1-.31,0,.63.63,0,0,1-.17-.37,2.56,2.56,0,0,1,1-2.18,7.79,7.79,0,0,1,2.15-1.15,4.05,4.05,0,0,1,1.22-.12,6.37,6.37,0,0,1,4.61,1.42,1.78,1.78,0,0,1,.55.58A1.36,1.36,0,0,1,679.68,106.51ZM689.9,101a1.55,1.55,0,0,1-.23.76c-.12.13-.45.09-.68.06a.44.44,0,0,1-.26-.3,6.18,6.18,0,0,1,2.63-5.28,4.06,4.06,0,0,1,4.59-.44c.21.11.3.43.44.66s0,.27,0,.32c-.61.49-1.31.08-2,.18C692,97.31,690.36,98.53,689.9,101Z"/>
        <path d="M744.57,74.42c-.63,1-.26,1.92-.19,2.84s.33,1.88.43,2.83a.76.76,0,0,1-.43.59,4.69,4.69,0,0,1-1.19.18c-1.22.11-1.41.26-1.52,1.41-.08,1-.08,1.92-.2,2.87a26.85,26.85,0,0,1-.6,3.22,1.94,1.94,0,0,1-3.24,1c-.92-.81-1.81-1.66-2.73-2.48a.74.74,0,0,0-1,.25c-.15.38-.25.77-.41,1.15s-.34.74-.54,1.1a1.06,1.06,0,0,1-1.4.4c-.36-.12-.61-.66-1-.41a2.48,2.48,0,0,0-.75.91c-.2.36-.27.78-.45,1.15a2.16,2.16,0,0,1-2.22,1.49c-1.22-.15-1.73.5-2.1,1.49-.63,1.67-1.28,3.32-1.92,5a5.35,5.35,0,0,1-1.66,2.3,1.85,1.85,0,0,1-2.82-.48c-.42-.86-.71-1.78-1.14-2.63s-1-1.62-1.51-2.49a5.6,5.6,0,0,0-1.08.72c-1.3,1.48-2.4.8-3-.78-.43-1.15-.92-2.28-1.4-3.42-.14-.33-.56-.38-1-.14s-.69.56-1,.6a12.77,12.77,0,0,0-2.4,0,9.13,9.13,0,0,0-2,1.35c-.4.28-1.15-.09-1.3-.6,0-.13-.11-.25-.13-.38a9.43,9.43,0,0,1,1.79-7.37,2.19,2.19,0,0,1,2.14-1c6,.83,11.7-.81,17.19-3a68,68,0,0,0,14-7.67A44.62,44.62,0,0,0,749.23,62.9c.23-.34.49-.66.74-1a.76.76,0,0,1,1.07-.13,14.5,14.5,0,0,1,3.8,7.14,2.88,2.88,0,0,1,0,.41,1.48,1.48,0,0,1-1.27,1.37c-1.09,0-2.19,0-3.28.08a1,1,0,0,0-1,1c-.06.68,0,1.37-.16,2a3.2,3.2,0,0,1-.53,1.08,1.25,1.25,0,0,1-1.41.53c-.49-.23-1-.53-1.46-.74A6.64,6.64,0,0,0,744.57,74.42Z"/>
        <path d="M743.52,61.71h0l0,0,0,0-.08.09s0-.1,0-.15h0Z"/>
        <path d="M748.94,60.89a26.53,26.53,0,0,1-4.44,5.91,60.58,60.58,0,0,1-29.72,16.71,30.88,30.88,0,0,1-8.19.49c-.69,0-1-.77-.72-1.53a3.19,3.19,0,0,1,.59-1.07,2.41,2.41,0,0,1,1-.54,1.4,1.4,0,0,1,.81,0c3.48.88,6.81.12,10.1-.93a43.92,43.92,0,0,0,11.35-5.69,1.1,1.1,0,0,0,.55-.86.71.71,0,0,0,0-.15h-.11a2.35,2.35,0,0,0-1.43.44,55.84,55.84,0,0,1-8,4.19,23.63,23.63,0,0,1-9.53,2.22,18.68,18.68,0,0,1-3.25-.35,1.21,1.21,0,0,1-.73-.85,3.48,3.48,0,0,1,1.31-3.65c.41-.3.89-.53,1-1h-.28a1,1,0,0,1-.71-.86,2,2,0,0,1,.11-.81c1-2.65.37-5.15-.72-7.59a11.46,11.46,0,0,0-5.25-5.59,7.63,7.63,0,0,0-2.72-.88,11.22,11.22,0,0,0-9.14,2.78,23.56,23.56,0,0,0-4.08,4.62c-4,6-5.77,30.19-6,30.5-4-3.34-13.66-6.47-27.33-3.93a4.74,4.74,0,0,0-3.92,3.78,2.09,2.09,0,0,0,.27,1.93c.5.66,1,1.28,1.49,2a2,2,0,0,1-.47,2.25,6.9,6.9,0,0,1-1,.67,12,12,0,0,0-1.82.94c-2.16,1.76-3.38,4-2.91,6.85a7.23,7.23,0,0,0,5.38,6.14,6.24,6.24,0,0,0,2.85.14c2.8-.54,3.93-1.31,3.28-4.46a7.15,7.15,0,0,0-.23-.79c0-.11-.16-.29-.23-.28-.24,0-.6,0-.7.2-.29.46-.42,1-.74,1.45a1.64,1.64,0,0,1-1,.59c-.94.13-1.78-.53-2.8-.36-.71.12-1.67-.89-1.6-1.59a16.83,16.83,0,0,0-.08-3.62,1.84,1.84,0,0,1,.68-1.41c1.12-.79,2.35-1.42,3.67-2.19a11.34,11.34,0,0,1,.66-2.59,9.15,9.15,0,0,0,.51-2.8,2.32,2.32,0,0,1,2.77-1.83,1.73,1.73,0,0,1,1,.57,10.31,10.31,0,0,1,1.31,2.53c.82,2.62,1.59,5.25,2.25,7.92a12.6,12.6,0,0,0,1.37,3.84,4.85,4.85,0,0,1,.54,4,2.55,2.55,0,0,1-.7,1.43,2.13,2.13,0,0,0-.87,2.14,3.86,3.86,0,0,1,0,.83,3,3,0,0,1-2,2.4c-.9.32-1.83.57-2.82.87-.25.72-.5,1.48-.76,2.25,0,1.26.81,2.29,1.09,3.53l-1.4,2.09a22.13,22.13,0,0,1,2.25,3.36,24.74,24.74,0,0,1,1,4,13.43,13.43,0,0,1,.79,4.43,2.82,2.82,0,0,1-.4,1.54,4.87,4.87,0,0,0-1.37,2.9,2.9,2.9,0,0,1-.82,1.38,1.73,1.73,0,0,1-1.87.51c-.87-.26-1.6-1.44-2.58-.71s-.51,1.78-.68,2.71a3,3,0,0,1-1.14,2.12,2.35,2.35,0,0,0-1,2.11,21.74,21.74,0,0,1-.76,6.11c-.13.39-.24.78-.4,1.16a2.59,2.59,0,0,1-3.05,1.53,1.9,1.9,0,0,1-1.59-1.65,5.61,5.61,0,0,1,0-1.23,3.9,3.9,0,0,0-.68-3.5,4.37,4.37,0,0,1-.49-1.12,2.28,2.28,0,0,1,.08-2c.45-.84.94-1.67,1.37-2.52a1.39,1.39,0,0,0,0-1.56,12.72,12.72,0,0,1-2.22-5.26,2.25,2.25,0,0,0-2-1.82,3.2,3.2,0,0,1-2.67-2.28,6.2,6.2,0,0,0-1.11-2.17,15.73,15.73,0,0,1-2.76-5,3.08,3.08,0,0,1,.65-3.77c.08-.08.06-.24.11-.44a24.13,24.13,0,0,1-2.72-11.85,42.69,42.69,0,0,1,.75-9.43c.11-.5.27-1,.34-1.53h0v0a.25.25,0,0,0,0-.1h0a.43.43,0,0,0,0-.16h0a2.55,2.55,0,0,0-.11-.94c-.24.14-.58.21-.69.41l-.22.42h0c-.71.34-2.2,4.28-3.51,8.22-.12.36-.23.71-.35,1.06-1,3.11-1.84,6-2,6.92-.44,2.17,3.22.75,5,10.17h0c.79,19.42-17.77,20.74-25.05,18.14-6.81-2.43-18.28-16.38,2.33-28.81.29-.18,1,0,1.37,0a8,8,0,0,1,1.72.6h0l.12.06a2.64,2.64,0,0,1,1.48,2.3c.13,1.3,0,2.48-1.3,3.2l0,0a5.28,5.28,0,0,0-2,2h0c-.91,1.15-1.5,2.46-.12,3h0a1.34,1.34,0,0,0,.59.25,4.16,4.16,0,0,0,2.77-.54,7.76,7.76,0,0,0,2.87-2.9,4,4,0,0,0,.5-1.54c.07-.95,0-1.91,0-2.88a40.43,40.43,0,0,1,.29-5.74,0,0,0,0,0,0,0,64.21,64.21,0,0,1,1.47-6.94,2.5,2.5,0,0,1,.07-.26,51.8,51.8,0,0,1,2.67-6.93,38.6,38.6,0,0,1,6.15-9.72c.51-.57,1-1.12,1.58-1.65a22.28,22.28,0,0,1,5.49-3.69h0c.4-.15.82-.29,1.25-.41a4.14,4.14,0,0,0,.93-.38c.65-.37,1.26-.85,1.93-1.18a1.7,1.7,0,0,1,1.94-.06c1.93,1.55,4.09,1.32,6.28.87A9.87,9.87,0,0,0,649,90c4.28-1.81,17.17-3.59,23.45-.19.29.15-1.36-2.78-1.79-3.47a72,72,0,0,0-8-10.94,45,45,0,0,0-10.35-8.75c-1.41-.85-2.88-1.59-4.35-2.32A28.25,28.25,0,0,0,630.63,62a23.68,23.68,0,0,0-12.33,6.23,39.48,39.48,0,0,0-9.54,14.26c-.32.76-.61,1.52-.87,2.3a3,3,0,0,0,5.29,2.46,1.31,1.31,0,0,1,2.11,0,6,6,0,0,1,1.59,3.28,10.12,10.12,0,0,1-6.11,10.64,8.37,8.37,0,0,1-4.82.73,8.09,8.09,0,0,1-6.21-5.42,13.35,13.35,0,0,1-1-4,32.45,32.45,0,0,0-.59-3.64c-.06-.32-.75-.51-1-.29-1,.72-2,1.5-3,2.17a13.36,13.36,0,0,1-4.91,2c-3.87.75-6.65-.56-8.63-4-2.6-4.46-.75-10.07,2.51-12.66a8.11,8.11,0,0,1,3.73-1.61,1.65,1.65,0,0,1,2,1.51c0,.27-.09.55-.08.82a3.21,3.21,0,0,0,3.12,3.13,2.41,2.41,0,0,0,1.84-1.34c1.52-2.9,37.8-60.24,82.42-7.08,6.62-20.1,15.3-26.15,24.5-27,5.2-.5,7.74,0,21.15,4.88,2,.74,13.62,4.95,19.15,4.47,3.3-.29,2.85.76,2.13,1.8-.53.76-1.91,1.61-1.55,2s2.24-1.14,3.06-2c.32-.34,1.07-.12,1.37.35a1.31,1.31,0,0,1,.07,1.51c-.75,1.12-1.58,2.18-2.32,3.3a2.73,2.73,0,0,0-.27,1l-.31.05.31-.05c0,.05,0,.11,0,.15h0l.13,0a3.26,3.26,0,0,0,1.45-1.2c.64-.7,1.26-1.43,1.93-2.11a1,1,0,0,1,1.16,0A1.68,1.68,0,0,1,748.94,60.89Z"/>
        <path d="M743.52,61.72a.78.78,0,0,1,0,.14l-.13,0h0l.08-.09,0,0Z"/>
        <path d="M743.52,61.72a.78.78,0,0,1,0,.14l-.13,0h0s0-.1,0-.15Z"/>
      </g>
    </g>
    <g>
      <g>
        <path d="M260.89,721c-2.3.29-4.6.61-6.85.91a6.12,6.12,0,0,0-1.51,2.47c-1.3,2.72-2.51,5.5-4,8.11a62,62,0,0,1-15,17.9,38.92,38.92,0,0,1-10.65,6.15,27.76,27.76,0,0,1-11.65,2.08,25.42,25.42,0,0,1-17-7.42,34.45,34.45,0,0,1-5.12-6.43,51.25,51.25,0,0,1-4.67-10,2.41,2.41,0,0,1,.64-2.64,2.94,2.94,0,0,1,4.38-.12c.1.09.16.23.26.32.92.87,1.6.85,2.36,0a6.55,6.55,0,0,0,1.61-5,10.24,10.24,0,0,0-7.73-9.56,7.13,7.13,0,0,0-8.39,3.56,23,23,0,0,0-2.42,6.53c-.18.94-.4,1.88-.61,2.82a.64.64,0,0,1-1,.3c-4.48-4.26-9-4.58-11-4.45a6,6,0,0,0-4.79,2.8c-2.42,3.56-2.28,7.22-.4,10.9a8.54,8.54,0,0,0,1.78,2.25,6.85,6.85,0,0,0,4.38,2,1.5,1.5,0,0,0,1.69-1.37c0-.42-.11-.83-.07-1.24a2.85,2.85,0,0,1,3.92-2.47c1.47.35,9.08,31.88,38.1,34,21.64,1.57,48.43-12.9,55.3-50.65A1.43,1.43,0,0,0,260.89,721Zm-88.4,18.09c-.09.28-.36.36-.66.17s-.63-.51-1-.73a4.73,4.73,0,0,0-5.75.34c-.54.4-1,.87-1.57,1.29a.35.35,0,0,1-.3,0,.63.63,0,0,1-.17-.37,2.52,2.52,0,0,1,.94-2.18,7.94,7.94,0,0,1,2.15-1.15,4.39,4.39,0,0,1,1.22-.13,6.41,6.41,0,0,1,4.61,1.43,1.68,1.68,0,0,1,.55.58A1.28,1.28,0,0,1,172.49,739.11Zm10.23-5.49a1.55,1.55,0,0,1-.24.76c-.11.13-.45.09-.67.06a.4.4,0,0,1-.26-.3,6.17,6.17,0,0,1,2.62-5.28,4.08,4.08,0,0,1,4.6-.44c.2.1.29.43.44.66,0,.11,0,.27-.05.32-.61.49-1.31.08-2,.18C184.77,729.91,183.18,731.12,182.72,733.62Z"/>
        <path d="M237.38,707c-.62,1-.26,1.92-.19,2.84s.33,1.88.44,2.83a.77.77,0,0,1-.44.59,4.55,4.55,0,0,1-1.18.18c-1.23.11-1.42.26-1.52,1.41-.09,1-.08,1.92-.21,2.86a25.16,25.16,0,0,1-.6,3.23,1.94,1.94,0,0,1-3.24,1c-.92-.81-1.81-1.66-2.72-2.48a.73.73,0,0,0-1,.25c-.15.38-.26.77-.42,1.15s-.34.74-.53,1.1a1.08,1.08,0,0,1-1.41.4c-.35-.13-.6-.66-1-.41a2.51,2.51,0,0,0-.76.91c-.2.36-.27.78-.45,1.15a2.15,2.15,0,0,1-2.22,1.49c-1.21-.15-1.73.5-2.1,1.49-.62,1.66-1.28,3.32-1.92,5a5.27,5.27,0,0,1-1.66,2.3,1.86,1.86,0,0,1-2.82-.48c-.42-.86-.71-1.78-1.14-2.63s-1-1.62-1.51-2.49a5.77,5.77,0,0,0-1.08.72c-1.29,1.48-2.39.8-3-.78-.44-1.15-.92-2.28-1.4-3.42-.14-.33-.57-.39-1-.14s-.69.56-1.06.6a12.68,12.68,0,0,0-2.39,0,9,9,0,0,0-2,1.35,1,1,0,0,1-1.29-.6,2.58,2.58,0,0,1-.14-.39,9.49,9.49,0,0,1,1.79-7.37,2.2,2.2,0,0,1,2.14-.95c6.05.83,11.7-.81,17.2-3a68,68,0,0,0,14-7.67,44.82,44.82,0,0,0,11.57-11.57c.22-.34.48-.66.73-1a.76.76,0,0,1,1.07-.13,14.42,14.42,0,0,1,3.8,7.14,2.84,2.84,0,0,1,0,.41,1.48,1.48,0,0,1-1.28,1.37c-1.09,0-2.19,0-3.28.08a1,1,0,0,0-1,1c-.06.68,0,1.37-.16,2a3.17,3.17,0,0,1-.52,1.08,1.26,1.26,0,0,1-1.41.53c-.5-.23-1-.53-1.46-.75A7.82,7.82,0,0,0,237.38,707Z"/>
        <path d="M236.34,694.31h0l0,0,0,0-.07.09,0-.15h0Z"/>
        <path d="M241.75,693.49a26.22,26.22,0,0,1-4.44,5.91,60.5,60.5,0,0,1-29.72,16.71,30.83,30.83,0,0,1-8.18.49c-.69,0-1-.77-.73-1.53a3.47,3.47,0,0,1,.59-1.07,2.45,2.45,0,0,1,1-.54,1.4,1.4,0,0,1,.81,0c3.47.88,6.81.12,10.09-.93a44,44,0,0,0,11.36-5.69,1.16,1.16,0,0,0,.55-.86v-.15H223a2.36,2.36,0,0,0-1.44.44,55.73,55.73,0,0,1-8,4.19,23.67,23.67,0,0,1-9.53,2.22,18.57,18.57,0,0,1-3.25-.35,1.19,1.19,0,0,1-.73-.85,3.47,3.47,0,0,1,1.3-3.65c.41-.3.89-.53,1.06-1h-.28a1,1,0,0,1-.71-.86,2,2,0,0,1,.11-.81c.94-2.65.36-5.15-.73-7.59a11.41,11.41,0,0,0-5.25-5.59,7.63,7.63,0,0,0-2.72-.88,11.23,11.23,0,0,0-9.14,2.78,23.6,23.6,0,0,0-4.08,4.62c-4,6-5.76,30.19-6,30.5-4-3.34-13.67-6.47-27.34-3.93a4.74,4.74,0,0,0-3.92,3.78,2.12,2.12,0,0,0,.28,1.93c.49.66,1,1.28,1.48,2a2,2,0,0,1-.47,2.26,6.9,6.9,0,0,1-1,.67,11.9,11.9,0,0,0-1.81.94c-2.16,1.76-3.39,4-2.92,6.85a7.24,7.24,0,0,0,5.39,6.14,6.24,6.24,0,0,0,2.85.14c2.79-.54,3.93-1.31,3.27-4.46a4.45,4.45,0,0,0-.23-.79c0-.11-.16-.29-.22-.28-.25,0-.6.05-.71.2-.29.46-.42,1-.73,1.45a1.7,1.7,0,0,1-1,.59c-.94.13-1.79-.53-2.8-.36-.72.12-1.68-.89-1.61-1.59a16.83,16.83,0,0,0-.07-3.62,1.81,1.81,0,0,1,.68-1.41c1.11-.79,2.34-1.42,3.66-2.19a11.91,11.91,0,0,1,.67-2.59,9.18,9.18,0,0,0,.5-2.8A2.33,2.33,0,0,1,150.4,730a1.82,1.82,0,0,1,1.06.56,10.93,10.93,0,0,1,1.31,2.54c.82,2.62,1.58,5.25,2.24,7.92a12.36,12.36,0,0,0,1.38,3.84,4.93,4.93,0,0,1,.54,4,2.69,2.69,0,0,1-.7,1.43,2.14,2.14,0,0,0-.88,2.14,2.83,2.83,0,0,1,0,.82,3,3,0,0,1-2,2.41c-.89.32-1.82.57-2.82.87l-.76,2.25c0,1.25.81,2.28,1.09,3.53l-1.39,2.09a22.9,22.9,0,0,1,2.25,3.36,23.84,23.84,0,0,1,1,4,13.53,13.53,0,0,1,.79,4.44,2.66,2.66,0,0,1-.4,1.54,4.85,4.85,0,0,0-1.36,2.9,3.12,3.12,0,0,1-.82,1.38,1.75,1.75,0,0,1-1.88.51c-.86-.26-1.59-1.44-2.57-.71s-.52,1.78-.69,2.71a3,3,0,0,1-1.14,2.12,2.36,2.36,0,0,0-1,2.11,21.73,21.73,0,0,1-.75,6.11c-.13.39-.25.78-.41,1.16a2.6,2.6,0,0,1-3,1.53,1.93,1.93,0,0,1-1.59-1.65,5.61,5.61,0,0,1,0-1.23,3.93,3.93,0,0,0-.68-3.5,4.39,4.39,0,0,1-.5-1.12,2.25,2.25,0,0,1,.09-2c.44-.84.93-1.67,1.36-2.52a1.42,1.42,0,0,0,0-1.57c-1.3-1.52-1.72-3.39-2.23-5.25a2.25,2.25,0,0,0-2-1.82,3.2,3.2,0,0,1-2.67-2.28,6.2,6.2,0,0,0-1.11-2.17,16.12,16.12,0,0,1-2.76-5,3.1,3.1,0,0,1,.66-3.78c.07-.07.06-.24.1-.43a24.24,24.24,0,0,1-2.72-11.85,42.69,42.69,0,0,1,.76-9.43,15.39,15.39,0,0,0,.33-1.53h0v0a.89.89,0,0,1,0-.11h0v-.16h0a2.76,2.76,0,0,0-.12-.94c-.24.14-.58.21-.68.41s-.15.28-.22.42h0c-.7.34-2.19,4.28-3.5,8.22-.12.35-.24.71-.35,1.06-1,3.11-1.85,6-2,6.92-.43,2.17,3.23.75,5,10.17h0c.79,19.42-17.76,20.73-25,18.14-6.8-2.43-18.28-16.38,2.34-28.81.29-.18,1,0,1.37,0a8.16,8.16,0,0,1,1.72.6h0l.12.05a2.67,2.67,0,0,1,1.49,2.31c.12,1.3,0,2.48-1.31,3.2l0,0a5.21,5.21,0,0,0-2,2h0c-.9,1.16-1.49,2.47-.12,3.05h0a1.25,1.25,0,0,0,.59.25,4.18,4.18,0,0,0,2.77-.54,7.73,7.73,0,0,0,2.86-2.9,3.88,3.88,0,0,0,.5-1.54c.07-1,0-1.91,0-2.88a40.43,40.43,0,0,1,.29-5.74v0a64.21,64.21,0,0,1,1.47-6.94c0-.09,0-.18.07-.26a51.8,51.8,0,0,1,2.67-6.93,38.88,38.88,0,0,1,6.15-9.72c.52-.57,1-1.12,1.59-1.65a22.1,22.1,0,0,1,5.49-3.69h0c.41-.15.82-.29,1.25-.41a4.14,4.14,0,0,0,.93-.38c.65-.37,1.27-.85,1.93-1.18a1.72,1.72,0,0,1,2-.06c1.93,1.55,4.09,1.32,6.27.87a10,10,0,0,0,1.95-.66c4.28-1.81,17.16-3.59,23.45-.19.28.15-1.37-2.78-1.79-3.47A71.92,71.92,0,0,0,155.42,708a45,45,0,0,0-10.35-8.74c-1.4-.85-2.88-1.59-4.35-2.32a28.23,28.23,0,0,0-17.28-2.3,23.65,23.65,0,0,0-12.32,6.23,39.37,39.37,0,0,0-9.55,14.26c-.31.76-.61,1.52-.86,2.3a3,3,0,0,0,5.28,2.46,1.31,1.31,0,0,1,2.11-.05,6,6,0,0,1,1.6,3.28,10.13,10.13,0,0,1-6.12,10.64,8.43,8.43,0,0,1-4.81.73A8.08,8.08,0,0,1,92.56,729a13.13,13.13,0,0,1-1-4A34.91,34.91,0,0,0,91,721.4c-.06-.32-.75-.51-1-.29-1,.72-2,1.5-3,2.17a13.31,13.31,0,0,1-4.9,2c-3.88.75-6.66-.56-8.64-4-2.59-4.46-.74-10.07,2.51-12.66a8.15,8.15,0,0,1,3.74-1.61,1.65,1.65,0,0,1,2,1.51c0,.27-.09.55-.08.82a3.19,3.19,0,0,0,3.11,3.13,2.38,2.38,0,0,0,1.84-1.34c1.52-2.9,37.81-60.24,82.43-7.08,6.62-20.1,15.3-26.15,24.49-27,5.21-.5,7.75,0,21.15,4.88,2.06.74,13.63,4.95,19.16,4.47,3.3-.29,2.84.76,2.12,1.8-.53.76-1.9,1.6-1.54,2s2.24-1.14,3.06-2c.32-.34,1.07-.12,1.36.35a1.31,1.31,0,0,1,.08,1.51c-.75,1.12-1.59,2.18-2.33,3.3a2.48,2.48,0,0,0-.26,1,2.16,2.16,0,0,0-.32,0l.32,0,0,.15h0l.13,0a3.29,3.29,0,0,0,1.44-1.2c.65-.7,1.26-1.44,1.94-2.11a1,1,0,0,1,1.15,0A1.68,1.68,0,0,1,241.75,693.49Z"/>
        <path d="M236.34,694.32s0,.09,0,.14l-.13,0h0l.07-.09,0,0Z"/>
        <path d="M236.34,694.32s0,.09,0,.14l-.13,0h0l0-.15h.12Z"/>
      </g>
      <g>
        <path d="M429.59,721c-2.3.29-4.6.61-6.85.91a6.15,6.15,0,0,0-1.52,2.47c-1.3,2.72-2.51,5.5-4,8.11a62,62,0,0,1-15,17.9,38.72,38.72,0,0,1-10.64,6.15,27.8,27.8,0,0,1-11.66,2.08A25.42,25.42,0,0,1,363,751.22a35.29,35.29,0,0,1-5.12-6.43,52.43,52.43,0,0,1-4.67-10,2.39,2.39,0,0,1,.65-2.64,2.93,2.93,0,0,1,4.37-.12c.1.09.17.23.26.32.92.87,1.6.85,2.36,0a6.56,6.56,0,0,0,1.62-5,10.26,10.26,0,0,0-7.74-9.56,7.14,7.14,0,0,0-8.39,3.56,23.34,23.34,0,0,0-2.42,6.53c-.18.94-.4,1.88-.61,2.82a.63.63,0,0,1-1,.3c-4.49-4.26-9-4.58-11-4.45a6.06,6.06,0,0,0-4.8,2.8c-2.41,3.56-2.28,7.22-.39,10.9a8.71,8.71,0,0,0,1.77,2.25,6.87,6.87,0,0,0,4.38,2,1.5,1.5,0,0,0,1.7-1.37c0-.42-.11-.83-.07-1.24a3.07,3.07,0,0,1,.33-1.17,3.47,3.47,0,0,1,3.59-1.3c1.46.35,9.08,31.88,38.09,34,21.65,1.57,48.43-12.9,55.3-50.65A1.42,1.42,0,0,0,429.59,721Zm-88.4,18.09c-.09.28-.37.36-.66.17s-.64-.51-1-.73a4.72,4.72,0,0,0-5.74.34c-.55.4-1.05.87-1.58,1.29a.35.35,0,0,1-.3,0,.63.63,0,0,1-.17-.37,2.55,2.55,0,0,1,.95-2.18,7.73,7.73,0,0,1,2.14-1.15,4.47,4.47,0,0,1,1.23-.13,6.42,6.42,0,0,1,4.61,1.43,1.78,1.78,0,0,1,.55.58A1.36,1.36,0,0,1,341.19,739.11Zm10.22-5.49a1.55,1.55,0,0,1-.23.76c-.12.13-.45.09-.68.06a.44.44,0,0,1-.26-.3,6.18,6.18,0,0,1,2.63-5.28,4.06,4.06,0,0,1,4.59-.44c.21.1.3.43.44.66s0,.27,0,.32c-.62.49-1.31.08-2,.18C353.46,729.91,351.87,731.12,351.41,733.62Z"/>
        <path d="M406.08,707c-.63,1-.26,1.92-.19,2.84s.33,1.88.43,2.83a.76.76,0,0,1-.43.59,4.69,4.69,0,0,1-1.19.18c-1.22.11-1.41.26-1.52,1.41-.09,1-.08,1.92-.2,2.86a27,27,0,0,1-.6,3.23,1.94,1.94,0,0,1-3.24,1c-.93-.81-1.81-1.66-2.73-2.48a.73.73,0,0,0-1,.25c-.15.38-.26.77-.41,1.15s-.34.74-.54,1.1a1.07,1.07,0,0,1-1.4.4c-.36-.13-.61-.66-1-.41a2.48,2.48,0,0,0-.75.91c-.2.36-.27.78-.45,1.15a2.16,2.16,0,0,1-2.22,1.49c-1.22-.15-1.73.5-2.1,1.49-.63,1.66-1.28,3.32-1.92,5a5.43,5.43,0,0,1-1.66,2.3,1.87,1.87,0,0,1-2.83-.48c-.41-.86-.7-1.78-1.14-2.63s-1-1.62-1.5-2.49a5.18,5.18,0,0,0-1.08.72c-1.3,1.48-2.4.8-3-.78-.43-1.15-.92-2.28-1.4-3.42-.14-.33-.56-.39-1-.14s-.69.56-1.05.6a12.77,12.77,0,0,0-2.4,0,8.91,8.91,0,0,0-2,1.35,1,1,0,0,1-1.3-.6c0-.13-.11-.25-.13-.39a9.45,9.45,0,0,1,1.79-7.37,2.2,2.2,0,0,1,2.14-.95c6.05.83,11.7-.81,17.19-3a68,68,0,0,0,14-7.67,44.78,44.78,0,0,0,11.56-11.57c.23-.34.49-.66.74-1a.76.76,0,0,1,1.07-.13,14.48,14.48,0,0,1,3.79,7.14,2.84,2.84,0,0,1,0,.41,1.48,1.48,0,0,1-1.27,1.37c-1.1,0-2.19,0-3.28.08a1,1,0,0,0-1,1,19.78,19.78,0,0,1-.15,2,3.2,3.2,0,0,1-.53,1.08,1.25,1.25,0,0,1-1.41.53c-.5-.23-1-.53-1.46-.75A7.69,7.69,0,0,0,406.08,707Z"/>
        <path d="M405,694.31h0l0,0,0,0-.08.09,0-.15h0Z"/>
        <path d="M410.45,693.49A26.53,26.53,0,0,1,406,699.4a60.58,60.58,0,0,1-29.72,16.71,30.88,30.88,0,0,1-8.19.49c-.69,0-1-.77-.73-1.53A3.29,3.29,0,0,1,368,714a2.41,2.41,0,0,1,1-.54,1.4,1.4,0,0,1,.81,0c3.48.88,6.81.12,10.1-.93a43.92,43.92,0,0,0,11.35-5.69,1.13,1.13,0,0,0,.55-.86.76.76,0,0,0,0-.15h-.11a2.35,2.35,0,0,0-1.43.44,55.84,55.84,0,0,1-8,4.19,23.63,23.63,0,0,1-9.53,2.22,18.68,18.68,0,0,1-3.25-.35,1.19,1.19,0,0,1-.73-.85,3.47,3.47,0,0,1,1.31-3.65c.4-.3.89-.53,1.05-1h-.28a1,1,0,0,1-.71-.86,2,2,0,0,1,.11-.81c.95-2.65.37-5.15-.72-7.59a11.48,11.48,0,0,0-5.26-5.59,7.51,7.51,0,0,0-2.71-.88,11.22,11.22,0,0,0-9.14,2.78,23.27,23.27,0,0,0-4.08,4.62c-4,6-5.77,30.19-6,30.5-4-3.34-13.66-6.47-27.33-3.93a4.72,4.72,0,0,0-3.92,3.78,2.09,2.09,0,0,0,.27,1.93c.5.66,1,1.28,1.49,2a2,2,0,0,1-.47,2.26,6.9,6.9,0,0,1-1,.67,12,12,0,0,0-1.82.94c-2.16,1.76-3.38,4-2.91,6.85a7.23,7.23,0,0,0,5.38,6.14,6.24,6.24,0,0,0,2.85.14c2.79-.54,3.93-1.31,3.28-4.46a5.53,5.53,0,0,0-.24-.79c0-.11-.15-.29-.22-.28-.24,0-.6.05-.7.2-.29.46-.42,1-.74,1.45a1.64,1.64,0,0,1-1,.59c-.94.13-1.78-.53-2.8-.36-.71.12-1.67-.89-1.6-1.59a16.83,16.83,0,0,0-.08-3.62,1.84,1.84,0,0,1,.68-1.41c1.12-.79,2.35-1.42,3.67-2.19a11.34,11.34,0,0,1,.66-2.59,9.2,9.2,0,0,0,.51-2.8A2.32,2.32,0,0,1,319.1,730a1.77,1.77,0,0,1,1,.56,10.55,10.55,0,0,1,1.31,2.54c.82,2.62,1.59,5.25,2.25,7.92a12.6,12.6,0,0,0,1.37,3.84,4.85,4.85,0,0,1,.54,4,2.55,2.55,0,0,1-.7,1.43,2.13,2.13,0,0,0-.87,2.14,3.77,3.77,0,0,1-.05.82,3,3,0,0,1-2,2.41c-.9.32-1.83.57-2.82.87-.25.72-.5,1.48-.76,2.25,0,1.25.81,2.28,1.08,3.53-.45.69-.9,1.36-1.39,2.09a22.13,22.13,0,0,1,2.25,3.36,23.84,23.84,0,0,1,1,4,13,13,0,0,1,.79,4.44,2.73,2.73,0,0,1-.39,1.54,4.81,4.81,0,0,0-1.37,2.9,3,3,0,0,1-.82,1.38,1.73,1.73,0,0,1-1.87.51c-.87-.26-1.6-1.44-2.58-.71s-.52,1.78-.68,2.71a3,3,0,0,1-1.15,2.12,2.36,2.36,0,0,0-1,2.11,21.37,21.37,0,0,1-.75,6.11c-.13.39-.24.78-.4,1.16a2.61,2.61,0,0,1-3.05,1.53,1.9,1.9,0,0,1-1.59-1.65,5.61,5.61,0,0,1,0-1.23,3.9,3.9,0,0,0-.68-3.5,4.37,4.37,0,0,1-.49-1.12,2.28,2.28,0,0,1,.08-2c.45-.84.94-1.67,1.37-2.52a1.41,1.41,0,0,0,0-1.57c-1.3-1.52-1.72-3.39-2.22-5.25a2.25,2.25,0,0,0-2-1.82,3.2,3.2,0,0,1-2.67-2.28,6.2,6.2,0,0,0-1.11-2.17,15.73,15.73,0,0,1-2.76-5,3.09,3.09,0,0,1,.65-3.78c.08-.07.06-.24.11-.43a24.13,24.13,0,0,1-2.72-11.85,42.69,42.69,0,0,1,.75-9.43c.11-.5.27-1,.34-1.53h0v0a.27.27,0,0,0,0-.11h0a.43.43,0,0,0,0-.16h0a2.53,2.53,0,0,0-.11-.94c-.24.14-.58.21-.69.41l-.22.42h0c-.71.34-2.2,4.28-3.51,8.22-.12.35-.23.71-.35,1.06-1,3.11-1.84,6-2,6.92-.43,2.17,3.23.75,5,10.17h0c.79,19.42-17.76,20.73-25,18.14-6.81-2.43-18.28-16.38,2.33-28.81.29-.18,1,0,1.37,0a8,8,0,0,1,1.72.6h0l.12.05a2.66,2.66,0,0,1,1.48,2.31c.13,1.3,0,2.48-1.3,3.2l0,0a5.28,5.28,0,0,0-2,2h0c-.9,1.16-1.49,2.47-.11,3.05h0a1.29,1.29,0,0,0,.59.25,4.16,4.16,0,0,0,2.77-.54,7.76,7.76,0,0,0,2.87-2.9,4,4,0,0,0,.5-1.54c.07-1,0-1.91,0-2.88a40.43,40.43,0,0,1,.29-5.74,0,0,0,0,0,0,0,61.9,61.9,0,0,1,1.47-6.94,2,2,0,0,1,.07-.26,51.8,51.8,0,0,1,2.67-6.93,38.6,38.6,0,0,1,6.15-9.72c.51-.57,1-1.12,1.58-1.65a22.28,22.28,0,0,1,5.49-3.69h0c.4-.15.82-.29,1.25-.41a4.14,4.14,0,0,0,.93-.38c.65-.37,1.26-.85,1.93-1.18a1.7,1.7,0,0,1,1.94-.06c1.93,1.55,4.09,1.32,6.27.87a9.74,9.74,0,0,0,1.95-.66c4.28-1.81,17.17-3.59,23.45-.19.29.15-1.36-2.78-1.79-3.47a72.53,72.53,0,0,0-8-10.95,45.37,45.37,0,0,0-10.35-8.74c-1.41-.85-2.88-1.59-4.35-2.32a28.25,28.25,0,0,0-17.28-2.3,23.68,23.68,0,0,0-12.33,6.23,39.48,39.48,0,0,0-9.54,14.26c-.32.76-.61,1.52-.87,2.3a3,3,0,0,0,5.29,2.46,1.31,1.31,0,0,1,2.11-.05,6,6,0,0,1,1.59,3.28,10.12,10.12,0,0,1-6.11,10.64,8.46,8.46,0,0,1-4.82.73,8.09,8.09,0,0,1-6.21-5.42,13.43,13.43,0,0,1-1-4,34.91,34.91,0,0,0-.59-3.64c-.06-.32-.75-.51-1-.29-1,.72-2,1.5-3,2.17a13.36,13.36,0,0,1-4.91,2c-3.87.75-6.65-.56-8.63-4-2.6-4.46-.75-10.07,2.51-12.66a8.11,8.11,0,0,1,3.73-1.61,1.65,1.65,0,0,1,2,1.51c0,.27-.09.55-.08.82a3.2,3.2,0,0,0,3.12,3.13,2.41,2.41,0,0,0,1.84-1.34c1.52-2.9,37.8-60.24,82.42-7.08,6.62-20.1,15.3-26.15,24.5-27,5.2-.5,7.74,0,21.14,4.88,2.06.74,13.63,4.95,19.16,4.47,3.3-.29,2.84.76,2.13,1.8-.53.76-1.91,1.6-1.55,2s2.24-1.14,3.06-2c.32-.34,1.07-.12,1.37.35a1.33,1.33,0,0,1,.07,1.51c-.75,1.12-1.59,2.18-2.32,3.3a2.67,2.67,0,0,0-.27,1l-.31,0,.31,0,0,.15h0l.13,0a3.23,3.23,0,0,0,1.44-1.2c.65-.7,1.26-1.44,1.94-2.11a1,1,0,0,1,1.16,0A1.68,1.68,0,0,1,410.45,693.49Z"/>
        <path d="M405,694.32a.78.78,0,0,1,0,.14l-.13,0h0l.08-.09,0,0Z"/>
        <path d="M405,694.32a.78.78,0,0,1,0,.14l-.13,0h0l0-.15Z"/>
      </g>
      <g>
        <path d="M599.39,721c-2.31.29-4.61.61-6.86.91A6.12,6.12,0,0,0,591,724.4c-1.3,2.72-2.51,5.5-4,8.11a62,62,0,0,1-15,17.9,38.86,38.86,0,0,1-10.64,6.15,27.83,27.83,0,0,1-11.66,2.08,25.42,25.42,0,0,1-17-7.42,34.87,34.87,0,0,1-5.12-6.43,51.84,51.84,0,0,1-4.67-10,2.39,2.39,0,0,1,.65-2.64A2.93,2.93,0,0,1,528,732c.1.09.16.23.26.32.92.87,1.6.85,2.36,0a6.6,6.6,0,0,0,1.62-5,10.26,10.26,0,0,0-7.74-9.56,7.13,7.13,0,0,0-8.39,3.56,23.34,23.34,0,0,0-2.42,6.53c-.18.94-.4,1.88-.61,2.82a.64.64,0,0,1-1,.3c-4.48-4.26-9-4.58-11-4.45a6,6,0,0,0-4.79,2.8c-2.42,3.56-2.28,7.22-.4,10.9a8.75,8.75,0,0,0,1.78,2.25,6.85,6.85,0,0,0,4.38,2,1.5,1.5,0,0,0,1.69-1.37c0-.42-.11-.83-.07-1.24a2.85,2.85,0,0,1,3.92-2.47c1.47.35,9.08,31.88,38.1,34,21.65,1.57,48.43-12.9,55.3-50.65A1.42,1.42,0,0,0,599.39,721ZM511,739.11c-.08.28-.36.36-.66.17s-.63-.51-1-.73a4.72,4.72,0,0,0-5.74.34c-.55.4-1.05.87-1.58,1.29a.35.35,0,0,1-.3,0,.63.63,0,0,1-.17-.37,2.52,2.52,0,0,1,.94-2.18,7.94,7.94,0,0,1,2.15-1.15,4.39,4.39,0,0,1,1.22-.13,6.41,6.41,0,0,1,4.61,1.43,1.68,1.68,0,0,1,.55.58A1.28,1.28,0,0,1,511,739.11Zm10.23-5.49a1.55,1.55,0,0,1-.24.76c-.11.13-.44.09-.67.06a.4.4,0,0,1-.26-.3,6.19,6.19,0,0,1,2.62-5.28,4.08,4.08,0,0,1,4.6-.44c.2.1.3.43.44.66,0,.11,0,.27-.05.32-.61.49-1.31.08-2,.18C523.26,729.91,521.67,731.12,521.21,733.62Z"/>
        <path d="M575.87,707c-.62,1-.26,1.92-.19,2.84s.33,1.88.44,2.83a.77.77,0,0,1-.44.59,4.55,4.55,0,0,1-1.18.18c-1.23.11-1.42.26-1.52,1.41-.09,1-.08,1.92-.21,2.86a27,27,0,0,1-.59,3.23,2,2,0,0,1-3.25,1c-.92-.81-1.81-1.66-2.72-2.48a.73.73,0,0,0-1,.25c-.15.38-.26.77-.42,1.15s-.34.74-.53,1.1a1.08,1.08,0,0,1-1.41.4c-.35-.13-.6-.66-1-.41a2.61,2.61,0,0,0-.76.91c-.2.36-.27.78-.45,1.15a2.15,2.15,0,0,1-2.22,1.49c-1.21-.15-1.73.5-2.1,1.49-.62,1.66-1.28,3.32-1.92,5a5.27,5.27,0,0,1-1.66,2.3,1.86,1.86,0,0,1-2.82-.48c-.41-.86-.7-1.78-1.14-2.63s-1-1.62-1.51-2.49a5.77,5.77,0,0,0-1.08.72c-1.29,1.48-2.39.8-3-.78-.44-1.15-.92-2.28-1.4-3.42-.14-.33-.57-.39-1-.14s-.69.56-1.06.6a12.68,12.68,0,0,0-2.39,0,8.91,8.91,0,0,0-2,1.35,1,1,0,0,1-1.3-.6,2.58,2.58,0,0,1-.14-.39,9.49,9.49,0,0,1,1.79-7.37,2.2,2.2,0,0,1,2.14-.95c6,.83,11.7-.81,17.2-3a67.71,67.71,0,0,0,14-7.67,44.66,44.66,0,0,0,11.57-11.57c.23-.34.48-.66.73-1a.76.76,0,0,1,1.07-.13,14.42,14.42,0,0,1,3.8,7.14,2.84,2.84,0,0,1,0,.41,1.48,1.48,0,0,1-1.28,1.37c-1.09,0-2.18,0-3.28.08a1,1,0,0,0-1,1c-.06.68,0,1.37-.15,2a3.39,3.39,0,0,1-.53,1.08,1.25,1.25,0,0,1-1.41.53c-.5-.23-1-.53-1.46-.75A7.5,7.5,0,0,0,575.87,707Z"/>
        <path d="M574.83,694.31h0l0,0,0,0-.07.09s0-.1,0-.15h0Z"/>
        <path d="M580.24,693.49a26.22,26.22,0,0,1-4.44,5.91,60.5,60.5,0,0,1-29.72,16.71,30.83,30.83,0,0,1-8.18.49c-.69,0-1-.77-.73-1.53a3.47,3.47,0,0,1,.59-1.07,2.45,2.45,0,0,1,1-.54,1.4,1.4,0,0,1,.81,0c3.47.88,6.81.12,10.09-.93a44,44,0,0,0,11.36-5.69,1.16,1.16,0,0,0,.55-.86.76.76,0,0,0,0-.15h-.11a2.31,2.31,0,0,0-1.43.44,55.84,55.84,0,0,1-8,4.19,23.67,23.67,0,0,1-9.53,2.22,18.57,18.57,0,0,1-3.25-.35,1.19,1.19,0,0,1-.73-.85,3.47,3.47,0,0,1,1.3-3.65c.41-.3.89-.53,1.06-1h-.28a1,1,0,0,1-.71-.86,2,2,0,0,1,.11-.81c.94-2.65.36-5.15-.73-7.59a11.41,11.41,0,0,0-5.25-5.59,7.63,7.63,0,0,0-2.72-.88,11.23,11.23,0,0,0-9.14,2.78,23.22,23.22,0,0,0-4.07,4.62c-4,6-5.77,30.19-6,30.5-4-3.34-13.67-6.47-27.33-3.93a4.74,4.74,0,0,0-3.93,3.78,2.12,2.12,0,0,0,.28,1.93c.49.66,1,1.28,1.48,2a2,2,0,0,1-.47,2.26,7.37,7.37,0,0,1-1,.67,11.55,11.55,0,0,0-1.82.94c-2.16,1.76-3.38,4-2.92,6.85a7.24,7.24,0,0,0,5.39,6.14,6.24,6.24,0,0,0,2.85.14c2.79-.54,3.93-1.31,3.28-4.46a5.53,5.53,0,0,0-.24-.79c0-.11-.16-.29-.22-.28-.25,0-.6.05-.71.2-.29.46-.42,1-.73,1.45a1.7,1.7,0,0,1-1,.59c-.94.13-1.78-.53-2.8-.36-.72.12-1.68-.89-1.6-1.59a17.5,17.5,0,0,0-.08-3.62,1.81,1.81,0,0,1,.68-1.41c1.11-.79,2.34-1.42,3.66-2.19a11.91,11.91,0,0,1,.67-2.59,9.18,9.18,0,0,0,.5-2.8,2.33,2.33,0,0,1,2.77-1.83,1.79,1.79,0,0,1,1.06.56,10.93,10.93,0,0,1,1.31,2.54c.82,2.62,1.58,5.25,2.24,7.92a12.36,12.36,0,0,0,1.38,3.84,4.89,4.89,0,0,1,.54,4,2.62,2.62,0,0,1-.7,1.43,2.14,2.14,0,0,0-.88,2.14,2.83,2.83,0,0,1,0,.82,3,3,0,0,1-2,2.41c-.89.32-1.82.57-2.82.87-.24.72-.49,1.48-.76,2.25,0,1.25.82,2.28,1.09,3.53l-1.39,2.09a22.9,22.9,0,0,1,2.25,3.36,23.84,23.84,0,0,1,1,4,13.53,13.53,0,0,1,.79,4.44,2.66,2.66,0,0,1-.4,1.54,4.85,4.85,0,0,0-1.36,2.9,3.12,3.12,0,0,1-.82,1.38,1.73,1.73,0,0,1-1.87.51c-.87-.26-1.6-1.44-2.58-.71s-.52,1.78-.69,2.71a3,3,0,0,1-1.14,2.12,2.36,2.36,0,0,0-1,2.11,21.73,21.73,0,0,1-.75,6.11c-.13.39-.25.78-.41,1.16a2.59,2.59,0,0,1-3,1.53,1.93,1.93,0,0,1-1.6-1.65,5.61,5.61,0,0,1,0-1.23,3.93,3.93,0,0,0-.68-3.5,4.76,4.76,0,0,1-.5-1.12,2.25,2.25,0,0,1,.09-2c.44-.84.93-1.67,1.37-2.52a1.42,1.42,0,0,0,0-1.57c-1.3-1.52-1.72-3.39-2.23-5.25a2.25,2.25,0,0,0-2-1.82,3.2,3.2,0,0,1-2.68-2.28,6.2,6.2,0,0,0-1.11-2.17,16.12,16.12,0,0,1-2.76-5,3.1,3.1,0,0,1,.66-3.78c.07-.07.06-.24.1-.43a24.24,24.24,0,0,1-2.72-11.85,42.69,42.69,0,0,1,.76-9.43,15.39,15.39,0,0,0,.33-1.53h0v0a.89.89,0,0,1,0-.11h0v-.16h0a2.76,2.76,0,0,0-.12-.94c-.24.14-.57.21-.68.41s-.15.28-.22.42h0c-.7.34-2.19,4.28-3.5,8.22-.12.35-.24.71-.35,1.06-1,3.11-1.85,6-2,6.92-.43,2.17,3.23.75,4.95,10.17h0c.79,19.42-17.76,20.73-25,18.14-6.8-2.43-18.28-16.38,2.34-28.81.29-.18,1,0,1.37,0a8.16,8.16,0,0,1,1.72.6h0l.12.05a2.67,2.67,0,0,1,1.49,2.31c.12,1.3,0,2.48-1.31,3.2l0,0a5.21,5.21,0,0,0-2,2h0c-.9,1.16-1.49,2.47-.12,3.05h0a1.25,1.25,0,0,0,.59.25,4.18,4.18,0,0,0,2.77-.54,7.66,7.66,0,0,0,2.86-2.9,3.88,3.88,0,0,0,.5-1.54c.07-1,0-1.91,0-2.88a40.43,40.43,0,0,1,.29-5.74v0a66.71,66.71,0,0,1,1.47-6.94c0-.09,0-.18.07-.26a51.8,51.8,0,0,1,2.67-6.93,39.17,39.17,0,0,1,6.15-9.72c.52-.57,1-1.12,1.59-1.65A22.1,22.1,0,0,1,466,724.4h0c.41-.15.82-.29,1.25-.41a4.41,4.41,0,0,0,.94-.38c.64-.37,1.26-.85,1.92-1.18a1.72,1.72,0,0,1,1.95-.06c1.93,1.55,4.09,1.32,6.27.87a9.74,9.74,0,0,0,1.95-.66c4.28-1.81,17.16-3.59,23.45-.19.28.15-1.37-2.78-1.79-3.47a71.92,71.92,0,0,0-8-10.95,45.11,45.11,0,0,0-10.34-8.74c-1.41-.85-2.88-1.59-4.36-2.32a28.21,28.21,0,0,0-17.27-2.3,23.65,23.65,0,0,0-12.33,6.23,39.37,39.37,0,0,0-9.55,14.26c-.31.76-.61,1.52-.86,2.3a3,3,0,0,0,5.28,2.46,1.32,1.32,0,0,1,2.12-.05,6.1,6.1,0,0,1,1.59,3.28,10.13,10.13,0,0,1-6.12,10.64,8.42,8.42,0,0,1-4.81.73,8.09,8.09,0,0,1-6.21-5.42,13.13,13.13,0,0,1-1-4,34.91,34.91,0,0,0-.59-3.64c-.06-.32-.75-.51-1-.29-1,.72-2,1.5-3,2.17a13.31,13.31,0,0,1-4.9,2c-3.87.75-6.66-.56-8.64-4-2.59-4.46-.74-10.07,2.51-12.66a8.15,8.15,0,0,1,3.74-1.61,1.65,1.65,0,0,1,2,1.51c0,.27-.09.55-.08.82a3.19,3.19,0,0,0,3.12,3.13,2.41,2.41,0,0,0,1.84-1.34c1.51-2.9,37.8-60.24,82.42-7.08,6.62-20.1,15.3-26.15,24.49-27,5.21-.5,7.75,0,21.15,4.88,2.06.74,13.63,4.95,19.16,4.47,3.3-.29,2.84.76,2.12,1.8-.53.76-1.9,1.6-1.54,2s2.24-1.14,3.06-2c.32-.34,1.07-.12,1.37.35a1.33,1.33,0,0,1,.07,1.51c-.75,1.12-1.59,2.18-2.33,3.3a2.48,2.48,0,0,0-.26,1,1.82,1.82,0,0,0-.31,0l.31,0s0,.11,0,.15h0l.13,0a3.29,3.29,0,0,0,1.44-1.2c.65-.7,1.26-1.44,1.94-2.11a1,1,0,0,1,1.16,0A1.68,1.68,0,0,1,580.24,693.49Z"/>
        <path d="M574.83,694.32s0,.09,0,.14l-.13,0h0l.07-.09,0,0Z"/>
        <path d="M574.83,694.32s0,.09,0,.14l-.13,0h0s0-.1,0-.15h.12Z"/>
      </g>
      <g>
        <path d="M768.08,721c-2.3.29-4.6.61-6.85.91a6.15,6.15,0,0,0-1.52,2.47c-1.3,2.72-2.51,5.5-4,8.11a62,62,0,0,1-15,17.9,38.72,38.72,0,0,1-10.64,6.15,27.8,27.8,0,0,1-11.66,2.08,25.39,25.39,0,0,1-16.94-7.42,34.92,34.92,0,0,1-5.13-6.43,52.43,52.43,0,0,1-4.67-10,2.39,2.39,0,0,1,.65-2.64,2.93,2.93,0,0,1,4.37-.12c.1.09.17.23.26.32.92.87,1.6.85,2.36,0a6.56,6.56,0,0,0,1.62-5,10.24,10.24,0,0,0-7.74-9.56,7.12,7.12,0,0,0-8.38,3.56,23.06,23.06,0,0,0-2.43,6.53c-.18.94-.4,1.88-.61,2.82a.63.63,0,0,1-1,.3c-4.49-4.26-9-4.58-11-4.45a6.06,6.06,0,0,0-4.8,2.8c-2.41,3.56-2.28,7.22-.39,10.9a8.71,8.71,0,0,0,1.77,2.25,6.87,6.87,0,0,0,4.38,2,1.5,1.5,0,0,0,1.7-1.37c0-.42-.11-.83-.07-1.24a3.07,3.07,0,0,1,.33-1.17,3.47,3.47,0,0,1,3.59-1.3c1.46.35,9.08,31.88,38.09,34,21.65,1.57,48.43-12.9,55.3-50.65A1.42,1.42,0,0,0,768.08,721Zm-88.4,18.09c-.09.28-.36.36-.66.17s-.64-.51-1-.73a4.72,4.72,0,0,0-5.74.34c-.55.4-1,.87-1.57,1.29a.37.37,0,0,1-.31,0,.63.63,0,0,1-.17-.37,2.55,2.55,0,0,1,1-2.18,7.79,7.79,0,0,1,2.15-1.15,4.39,4.39,0,0,1,1.22-.13,6.42,6.42,0,0,1,4.61,1.43,1.78,1.78,0,0,1,.55.58A1.36,1.36,0,0,1,679.68,739.11Zm10.22-5.49a1.55,1.55,0,0,1-.23.76c-.12.13-.45.09-.68.06a.44.44,0,0,1-.26-.3,6.18,6.18,0,0,1,2.63-5.28,4.06,4.06,0,0,1,4.59-.44c.21.1.3.43.44.66s0,.27,0,.32c-.61.49-1.31.08-2,.18C692,729.91,690.36,731.12,689.9,733.62Z"/>
        <path d="M744.57,707c-.63,1-.26,1.92-.19,2.84s.33,1.88.43,2.83a.76.76,0,0,1-.43.59,4.69,4.69,0,0,1-1.19.18c-1.22.11-1.41.26-1.52,1.41-.08,1-.08,1.92-.2,2.86a27,27,0,0,1-.6,3.23,1.94,1.94,0,0,1-3.24,1c-.92-.81-1.81-1.66-2.73-2.48a.74.74,0,0,0-1,.25c-.15.38-.25.77-.41,1.15s-.34.74-.54,1.1a1.07,1.07,0,0,1-1.4.4c-.36-.13-.61-.66-1-.41a2.48,2.48,0,0,0-.75.91c-.2.36-.27.78-.45,1.15a2.16,2.16,0,0,1-2.22,1.49c-1.22-.15-1.73.5-2.1,1.49-.63,1.66-1.28,3.32-1.92,5a5.35,5.35,0,0,1-1.66,2.3,1.86,1.86,0,0,1-2.82-.48c-.42-.86-.71-1.78-1.14-2.63s-1-1.62-1.51-2.49a5.18,5.18,0,0,0-1.08.72c-1.3,1.48-2.4.8-3-.78-.43-1.15-.92-2.28-1.4-3.42-.14-.33-.56-.39-1-.14s-.69.56-1,.6a12.77,12.77,0,0,0-2.4,0,9.13,9.13,0,0,0-2,1.35,1,1,0,0,1-1.3-.6c0-.13-.11-.25-.13-.39a9.45,9.45,0,0,1,1.79-7.37,2.2,2.2,0,0,1,2.14-.95c6,.83,11.7-.81,17.19-3a68,68,0,0,0,14-7.67,44.78,44.78,0,0,0,11.56-11.57c.23-.34.49-.66.74-1a.76.76,0,0,1,1.07-.13,14.5,14.5,0,0,1,3.8,7.14,2.88,2.88,0,0,1,0,.41,1.48,1.48,0,0,1-1.27,1.37c-1.09,0-2.19,0-3.28.08a1,1,0,0,0-1,1c-.06.68,0,1.37-.16,2a3.2,3.2,0,0,1-.53,1.08,1.25,1.25,0,0,1-1.41.53c-.49-.23-1-.53-1.46-.75A7.69,7.69,0,0,0,744.57,707Z"/>
        <path d="M743.52,694.31h0l0,0,0,0-.08.09,0-.15h0Z"/>
        <path d="M748.94,693.49a26.53,26.53,0,0,1-4.44,5.91,60.58,60.58,0,0,1-29.72,16.71,30.88,30.88,0,0,1-8.19.49c-.69,0-1-.77-.72-1.53a3.1,3.1,0,0,1,.59-1.07,2.41,2.41,0,0,1,1-.54,1.4,1.4,0,0,1,.81,0c3.48.88,6.81.12,10.1-.93a43.92,43.92,0,0,0,11.35-5.69,1.1,1.1,0,0,0,.55-.86.76.76,0,0,0,0-.15h-.11a2.35,2.35,0,0,0-1.43.44,55.84,55.84,0,0,1-8,4.19,23.63,23.63,0,0,1-9.53,2.22,18.68,18.68,0,0,1-3.25-.35,1.21,1.21,0,0,1-.73-.85,3.47,3.47,0,0,1,1.31-3.65c.41-.3.89-.53,1-1h-.28a1,1,0,0,1-.71-.86,2,2,0,0,1,.11-.81c1-2.65.37-5.15-.72-7.59a11.46,11.46,0,0,0-5.25-5.59,7.63,7.63,0,0,0-2.72-.88,11.22,11.22,0,0,0-9.14,2.78,23.27,23.27,0,0,0-4.08,4.62c-4,6-5.77,30.19-6,30.5-4-3.34-13.66-6.47-27.33-3.93a4.73,4.73,0,0,0-3.92,3.78,2.09,2.09,0,0,0,.27,1.93c.5.66,1,1.28,1.49,2a2,2,0,0,1-.47,2.26,6.9,6.9,0,0,1-1,.67,12,12,0,0,0-1.82.94c-2.16,1.76-3.38,4-2.91,6.85a7.23,7.23,0,0,0,5.38,6.14,6.24,6.24,0,0,0,2.85.14c2.8-.54,3.93-1.31,3.28-4.46a7.15,7.15,0,0,0-.23-.79c0-.11-.16-.29-.23-.28-.24,0-.6.05-.7.2-.29.46-.42,1-.74,1.45a1.64,1.64,0,0,1-1,.59c-.94.13-1.78-.53-2.8-.36-.71.12-1.67-.89-1.6-1.59a16.83,16.83,0,0,0-.08-3.62,1.84,1.84,0,0,1,.68-1.41c1.12-.79,2.35-1.42,3.67-2.19a11.34,11.34,0,0,1,.66-2.59,9.2,9.2,0,0,0,.51-2.8,2.32,2.32,0,0,1,2.77-1.83,1.77,1.77,0,0,1,1,.56,10.55,10.55,0,0,1,1.31,2.54c.82,2.62,1.59,5.25,2.25,7.92a12.6,12.6,0,0,0,1.37,3.84,4.85,4.85,0,0,1,.54,4,2.55,2.55,0,0,1-.7,1.43,2.13,2.13,0,0,0-.87,2.14,3.77,3.77,0,0,1,0,.82,3,3,0,0,1-2,2.41c-.9.32-1.83.57-2.82.87-.25.72-.5,1.48-.76,2.25,0,1.25.81,2.28,1.09,3.53l-1.4,2.09a22.13,22.13,0,0,1,2.25,3.36,24.88,24.88,0,0,1,1,4,13.53,13.53,0,0,1,.79,4.44,2.82,2.82,0,0,1-.4,1.54,4.87,4.87,0,0,0-1.37,2.9A3,3,0,0,1,658,782a1.73,1.73,0,0,1-1.87.51c-.87-.26-1.6-1.44-2.58-.71s-.51,1.78-.68,2.71a3,3,0,0,1-1.14,2.12,2.34,2.34,0,0,0-1,2.11,21.74,21.74,0,0,1-.76,6.11c-.13.39-.24.78-.4,1.16a2.61,2.61,0,0,1-3.05,1.53,1.9,1.9,0,0,1-1.59-1.65,5.61,5.61,0,0,1,0-1.23,3.9,3.9,0,0,0-.68-3.5,4.37,4.37,0,0,1-.49-1.12,2.28,2.28,0,0,1,.08-2c.45-.84.94-1.67,1.37-2.52a1.41,1.41,0,0,0,0-1.57c-1.3-1.52-1.72-3.39-2.22-5.25a2.25,2.25,0,0,0-2-1.82,3.2,3.2,0,0,1-2.67-2.28,6.2,6.2,0,0,0-1.11-2.17,15.73,15.73,0,0,1-2.76-5,3.09,3.09,0,0,1,.65-3.78c.08-.07.06-.24.11-.43a24.13,24.13,0,0,1-2.72-11.85,42.69,42.69,0,0,1,.75-9.43c.11-.5.27-1,.34-1.53h0v0a.27.27,0,0,0,0-.11h0a.43.43,0,0,0,0-.16h0a2.53,2.53,0,0,0-.11-.94c-.24.14-.58.21-.69.41l-.22.42h0c-.71.34-2.2,4.28-3.51,8.22-.12.35-.23.71-.35,1.06-1,3.11-1.84,6-2,6.92-.44,2.17,3.22.75,5,10.17h0c.79,19.42-17.77,20.73-25.05,18.14-6.81-2.43-18.28-16.38,2.33-28.81.29-.18,1,0,1.37,0a8,8,0,0,1,1.72.6h0l.12.05a2.66,2.66,0,0,1,1.48,2.31c.13,1.3,0,2.48-1.3,3.2l0,0a5.28,5.28,0,0,0-2,2h0c-.91,1.16-1.5,2.47-.12,3.05h0a1.34,1.34,0,0,0,.59.25,4.16,4.16,0,0,0,2.77-.54,7.76,7.76,0,0,0,2.87-2.9,4,4,0,0,0,.5-1.54c.07-1,0-1.91,0-2.88a40.43,40.43,0,0,1,.29-5.74,0,0,0,0,0,0,0,64.21,64.21,0,0,1,1.47-6.94,2,2,0,0,1,.07-.26,51.8,51.8,0,0,1,2.67-6.93,38.6,38.6,0,0,1,6.15-9.72c.51-.57,1-1.12,1.58-1.65a22.28,22.28,0,0,1,5.49-3.69h0c.4-.15.82-.29,1.25-.41a4.14,4.14,0,0,0,.93-.38c.65-.37,1.26-.85,1.93-1.18a1.7,1.7,0,0,1,1.94-.06c1.93,1.55,4.09,1.32,6.28.87a9.87,9.87,0,0,0,1.94-.66c4.28-1.81,17.17-3.59,23.45-.19.29.15-1.36-2.78-1.79-3.47a72.53,72.53,0,0,0-8-10.95,45.16,45.16,0,0,0-10.35-8.74c-1.41-.85-2.88-1.59-4.35-2.32a28.25,28.25,0,0,0-17.28-2.3,23.68,23.68,0,0,0-12.33,6.23,39.48,39.48,0,0,0-9.54,14.26c-.32.76-.61,1.52-.87,2.3a3,3,0,0,0,5.29,2.46,1.31,1.31,0,0,1,2.11-.05,6,6,0,0,1,1.59,3.28,10.12,10.12,0,0,1-6.11,10.64,8.46,8.46,0,0,1-4.82.73,8.09,8.09,0,0,1-6.21-5.42,13.43,13.43,0,0,1-1-4,32.45,32.45,0,0,0-.59-3.64c-.06-.32-.75-.51-1-.29-1,.72-2,1.5-3,2.17a13.36,13.36,0,0,1-4.91,2c-3.87.75-6.65-.56-8.63-4-2.6-4.46-.75-10.07,2.51-12.66a8.11,8.11,0,0,1,3.73-1.61,1.65,1.65,0,0,1,2,1.51c0,.27-.09.55-.08.82a3.21,3.21,0,0,0,3.12,3.13,2.41,2.41,0,0,0,1.84-1.34c1.52-2.9,37.8-60.24,82.42-7.08,6.62-20.1,15.3-26.15,24.5-27,5.2-.5,7.74,0,21.15,4.88,2,.74,13.62,4.95,19.15,4.47,3.3-.29,2.85.76,2.13,1.8-.53.76-1.91,1.6-1.55,2s2.24-1.14,3.06-2c.32-.34,1.07-.12,1.37.35a1.31,1.31,0,0,1,.07,1.51c-.75,1.12-1.58,2.18-2.32,3.3a2.67,2.67,0,0,0-.27,1l-.31,0,.31,0,0,.15h0l.13,0a3.26,3.26,0,0,0,1.45-1.2c.64-.7,1.26-1.44,1.93-2.11a1,1,0,0,1,1.16,0A1.68,1.68,0,0,1,748.94,693.49Z"/>
        <path d="M743.52,694.32a.78.78,0,0,1,0,.14l-.13,0h0l.08-.09,0,0Z"/>
        <path d="M743.52,694.32a.78.78,0,0,1,0,.14l-.13,0h0l0-.15Z"/>
      </g>
    </g>
  </g>
</svg>
