<svg id="Livello_1" data-name="Livello 1" xmlns="http://www.w3.org/2000/svg" viewBox="0 0 841.89 841.89">
  <defs>
    <style>
      .cls-1 {
        fill: #231f20;
      }
    </style>
  </defs>
  <title>Glos</title>
  <g>
    <g>
      <g>
        <g>
          <path class="cls-1" d="M143.8,213.91c-3.52-1.21-18.36-4.65-33.07-24-14.72,19.34-29.54,22.78-33.06,24-1.1.37-3.83-.38-1.5-2.86C106.47,179.85,90,170.87,90,170.87V164c3.48-1.51,5.39-6,5.39-6h30.65s1.9,4.53,5.37,6v6.88s-16.43,9,13.87,40.18C147.63,213.53,144.88,214.28,143.8,213.91Z"/>
          <path class="cls-1" d="M117,156.12h9.41s3.88-6,12.66-5.84,8.2,5.84,7.38,7.08c-2.18,3.29-7.63,9.21-7.58,12.62s.55,8,13.27,4.68,27.87-14.8,26.35-29.66-18.73-23.2-36.31-20.23S117.36,140.58,117,156.12Z"/>
          <path class="cls-1" d="M123.88,205.28s-1.66,33.06-13.15,33c-11.49.08-13.16-33-13.16-33,2.55-.76,12.64-12,12.64-12s-1,38.75.52,38.78.53-38.78.53-38.78S121.35,204.52,123.88,205.28Z"/>
        </g>
        <g>
          <path class="cls-1" d="M121.57,126.31c-5.65,12-6.1,29.71-6.1,29.71l-4.74.1L106,156s-.44-17.72-6.1-29.71S67.72,77.73,83.22,57.58c12.67-16.47,20.17-7.84,27.51-27.79,7.35,20,14.83,11.32,27.52,27.79C153.75,77.73,127.21,114.32,121.57,126.31Z"/>
          <path class="cls-1" d="M104.42,156.12H95s-3.87-6-12.65-5.84-8.2,5.84-7.38,7.08c2.17,3.29,7.62,9.21,7.58,12.62s-.55,8-13.28,4.68S41.41,159.86,42.93,145s18.73-23.2,36.31-20.23S104.11,140.58,104.42,156.12Z"/>
        </g>
      </g>
      <g>
        <g>
          <path class="cls-1" d="M764.23,213.91c-3.53-1.21-18.36-4.65-33.08-24-14.71,19.34-29.53,22.78-33.06,24-1.09.37-3.82-.38-1.49-2.86,30.3-31.2,13.85-40.18,13.85-40.18V164c3.47-1.51,5.39-6,5.39-6h30.65s1.89,4.53,5.37,6v6.88s-16.43,9,13.87,40.18C768.05,213.53,765.31,214.28,764.23,213.91Z"/>
          <path class="cls-1" d="M737.47,156.12h9.41s3.87-6,12.65-5.84,8.2,5.84,7.38,7.08c-2.17,3.29-7.62,9.21-7.58,12.62s.55,8,13.28,4.68S800.48,159.86,799,145s-18.73-23.2-36.31-20.23S737.78,140.58,737.47,156.12Z"/>
          <path class="cls-1" d="M744.31,205.28s-1.67,33.06-13.16,33c-11.49.08-13.15-33-13.15-33,2.54-.76,12.64-12,12.64-12s-1,38.75.51,38.78.53-38.78.53-38.78S741.78,204.52,744.31,205.28Z"/>
        </g>
        <g>
          <path class="cls-1" d="M742,126.31c-5.66,12-6.11,29.71-6.11,29.71l-4.74.1-4.72-.1s-.45-17.72-6.1-29.71-32.18-48.58-16.68-68.73c12.67-16.47,20.17-7.84,27.5-27.79,7.35,20,14.84,11.32,27.52,27.79C774.17,77.73,747.63,114.32,742,126.31Z"/>
          <path class="cls-1" d="M724.85,156.12h-9.41s-3.88-6-12.66-5.84-8.2,5.84-7.38,7.08c2.18,3.29,7.63,9.21,7.58,12.62s-.55,8-13.28,4.68-27.86-14.8-26.34-29.66,18.73-23.2,36.31-20.23S724.53,140.58,724.85,156.12Z"/>
        </g>
      </g>
    </g>
    <g>
      <g>
        <g>
          <path class="cls-1" d="M143.8,628c-3.52,1.21-18.36,4.65-33.07,24C96,632.63,81.19,629.19,77.67,628c-1.1-.37-3.83.38-1.5,2.86C106.47,662,90,671,90,671v6.88c3.48,1.51,5.39,6,5.39,6h30.65s1.9-4.53,5.37-6V671S115,662,145.3,630.84C147.63,628.36,144.88,627.61,143.8,628Z"/>
          <path class="cls-1" d="M117,685.77h9.41s3.88,6,12.66,5.84,8.2-5.84,7.38-7.08c-2.18-3.29-7.63-9.21-7.58-12.62s.55-8,13.27-4.68,27.87,14.8,26.35,29.66-18.73,23.2-36.31,20.23S117.36,701.31,117,685.77Z"/>
          <path class="cls-1" d="M123.88,636.61s-1.66-33.06-13.15-33c-11.49-.08-13.16,33-13.16,33,2.55.76,12.64,12,12.64,12s-1-38.75.52-38.78.53,38.78.53,38.78S121.35,637.37,123.88,636.61Z"/>
        </g>
        <g>
          <path class="cls-1" d="M121.57,715.58c-5.65-12-6.1-29.71-6.1-29.71l-4.74-.1-4.73.1s-.44,17.72-6.1,29.71-32.18,48.58-16.68,68.73c12.67,16.47,20.17,7.84,27.51,27.79,7.35-20,14.83-11.32,27.52-27.79C153.75,764.16,127.21,727.57,121.57,715.58Z"/>
          <path class="cls-1" d="M104.42,685.77H95s-3.87,6-12.65,5.84-8.2-5.84-7.38-7.08c2.17-3.29,7.62-9.21,7.58-12.62s-.55-8-13.28-4.68S41.41,682,42.93,696.89s18.73,23.2,36.31,20.23S104.11,701.31,104.42,685.77Z"/>
        </g>
      </g>
      <g>
        <g>
          <path class="cls-1" d="M764.23,628c-3.53,1.21-18.36,4.65-33.08,24-14.71-19.34-29.53-22.78-33.06-24-1.09-.37-3.82.38-1.49,2.86C726.9,662,710.45,671,710.45,671v6.88c3.47,1.51,5.39,6,5.39,6h30.65s1.89-4.53,5.37-6V671s-16.43-9,13.87-40.18C768.05,628.36,765.31,627.61,764.23,628Z"/>
          <path class="cls-1" d="M737.47,685.77h9.41s3.87,6,12.65,5.84,8.2-5.84,7.38-7.08c-2.17-3.29-7.62-9.21-7.58-12.62s.55-8,13.28-4.68S800.48,682,799,696.89s-18.73,23.2-36.31,20.23S737.78,701.31,737.47,685.77Z"/>
          <path class="cls-1" d="M744.31,636.61s-1.67-33.06-13.16-33c-11.49-.08-13.15,33-13.15,33,2.54.76,12.64,12,12.64,12s-1-38.75.51-38.78.53,38.78.53,38.78S741.78,637.37,744.31,636.61Z"/>
        </g>
        <g>
          <path class="cls-1" d="M742,715.58c-5.66-12-6.11-29.71-6.11-29.71l-4.74-.1-4.72.1s-.45,17.72-6.1,29.71-32.18,48.58-16.68,68.73c12.67,16.47,20.17,7.84,27.5,27.79,7.35-20,14.84-11.32,27.52-27.79C774.17,764.16,747.63,727.57,742,715.58Z"/>
          <path class="cls-1" d="M724.85,685.77h-9.41s-3.88,6-12.66,5.84-8.2-5.84-7.38-7.08c2.18-3.29,7.63-9.21,7.58-12.62s-.55-8-13.28-4.68-27.86,14.8-26.34,29.66,18.73,23.2,36.31,20.23S724.53,701.31,724.85,685.77Z"/>
        </g>
      </g>
    </g>
  </g>
</svg>
