<svg id="Livello_1" data-name="Livello 1" xmlns="http://www.w3.org/2000/svg" viewBox="0 0 841.89 841.89">
  <defs>
    <style>
      .cls-1 {
        fill: #231f20;
      }
    </style>
  </defs>
  <title>Glos</title>
  <g>
    <path class="cls-1" d="M738.33,679.14l1.38.67c7.7,3,27.62,9.72,32.34,16.16,4.39,6,3.37,14.45-2.56,21.83-4.41,5.47-15.19,7.17-21.85,7.68-24.74,1.91-57.06-2.93-76-20.23-9.3-8.48-10.73-22.68-24.34-25.25-12.76-2.41-21.74,8.18-30.8,15.27a.65.65,0,0,0-.05,1c1.28,1.22,3.56,4.17,3.69,5.82a.92.92,0,0,1-1.56.71c-.73-.72-1-2-1.7-2.94-1-1.41-3.9-4-5.57-4.27-4.77-.66-9.11,1.79-13.56.65a.31.31,0,0,0-.3.51c1.38,1.42,4,2.12,4.47,3.88a.74.74,0,0,1-.95.9c-1.58-.52-4.36-2.84-5-3.38-5-4.41-10.82-13-10.76-19.87,0-6.06,6.07-14.7,10-19.15,2.73-3.08,9.12-7.8,9.63-11.87s-2.6-4.61-5.8-3.25c-4.27,1.82-14.32,12.28-17.29,16.25-21.32,28.59,3.57,49.18,27.62,62A93.37,93.37,0,0,0,624,728.16a1.32,1.32,0,0,1,.9,1.22.84.84,0,0,1-1,.86,56.15,56.15,0,0,1-6.46-2.25,1.84,1.84,0,0,0-2.44,1.28c-2.31,9.33-18.07,69.86-22.75,78.24a1,1,0,0,0-.09.76l.06.22a.61.61,0,0,0,.53.44c9,.65,18.09.93,27,2.68a1.73,1.73,0,0,0,2-1.44c.59-3.75,13.88-59.18,15.87-62.33.82-1.29,2.8-4.05,4.39-3.1a.78.78,0,0,1,.38.67.94.94,0,0,1-.6.89c-1.45.55-3.18,3.69-4.13,6a1.52,1.52,0,0,0,1.54,2.1c2.91-.25,5.93-.12,8.84-.48,8.15-1,12.67-3.15,18.08-9.26,4.51-5.08,6.4-8.77,5.82-15.82-.11-1.34-2.09-5.15,0-4.63,1.82.44,2.17,4.57,2.21,7.33a2.42,2.42,0,0,0,1.87,2.33,31.43,31.43,0,0,1,3.19,1c11.08,4,22.13,9.83,33.2,14.2,14.81,5.86,30.48,9.16,42.65,20.07a32.72,32.72,0,0,1,4.31,4.44c6.72,10.08-7.09,26.76,2.29,34.18,5.24,4.15,29.67,11.18,37.08,12.87,4.59,1.05,8.07-.5,12.13-2.61,4.5-2.35,13.56-12.86,15.73-17.46,3.63-7.73-8.07-8.87-13-11.23-9.05-4.34-19.51-12.63-22.29-22.56a34.8,34.8,0,0,1,1.17-22.33.68.68,0,0,0-1.12-.73A43.2,43.2,0,0,1,777.72,753c-1.53.62-5.65,2.07-7.12,2s-1.8-1.24-.43-1.93c1-.52,3.7-.83,5.19-1.36,19.75-7,33.83-33.65,29.11-53.91-2.62-11.22-10.19-18.6-16.5-27.58a2.36,2.36,0,0,0-3-.76c-3.73,1.89-7.67,4.17-11.81,4.22a.73.73,0,0,1-.72-.87,1.23,1.23,0,0,1,1-1c7.65-1.57,19-7.17,17.79-16.21a5.67,5.67,0,0,0-.82-2.25,1.64,1.64,0,0,0-2.23-.5,42,42,0,0,1-17.22,6.14.64.64,0,0,1-.71-.54,1.1,1.1,0,0,1,.83-1.26,72.32,72.32,0,0,0,8.24-2.26c2.09-.78,6.69-2.74,8.27-4.13,2.49-2.18,4.88-7.33.75-9.09-5.17-2.2-13.59,2.52-19.86,4.71a4.76,4.76,0,0,1-5.18-1.4c-5.06-5.91-10.73-12.44-18.27-14.69-7.28-2.18-14,.54-9.49,8.75,3.81,6.88,8.69,12.83,10.34,21v0a1,1,0,0,1-2,.52c-.28-.86-.52-1.84-.78-2.67a1.92,1.92,0,0,0-2.62-1.18c-5.32,2.38-11.13,4.65-15.8,8.05-4.52,3.31-4.55,6-.55,10s6.45,3.22,11.4,1.89a96,96,0,0,0,14.08-5.41,1.5,1.5,0,0,1,1.86.54.24.24,0,0,1,0,.14c0,.43-.32.56-.62.78-2.94,2.2-8.46,3.77-12.47,5a.63.63,0,0,0-.08,1.18"/>
    <path class="cls-1" d="M103.56,679.14l-1.38.67c-7.7,3-27.62,9.72-32.34,16.16-4.39,6-3.37,14.45,2.56,21.83,4.41,5.47,15.19,7.17,21.85,7.68,24.73,1.91,57.06-2.93,76-20.23,9.3-8.48,10.73-22.68,24.34-25.25,12.76-2.41,21.74,8.18,30.8,15.27a.65.65,0,0,1,.05,1c-1.28,1.22-3.56,4.17-3.69,5.82a.92.92,0,0,0,1.56.71c.73-.72,1-2,1.7-2.94,1-1.41,3.9-4,5.57-4.27,4.77-.66,9.11,1.79,13.56.65a.31.31,0,0,1,.3.51c-1.38,1.42-4,2.12-4.48,3.88a.75.75,0,0,0,1,.9c1.58-.52,4.36-2.84,5-3.38,5-4.41,10.82-13,10.76-19.87,0-6.06-6.07-14.7-10-19.15-2.73-3.08-9.12-7.8-9.63-11.87s2.6-4.61,5.8-3.25c4.27,1.82,14.32,12.28,17.29,16.25,21.32,28.59-3.57,49.18-27.62,62a93.37,93.37,0,0,1-14.63,5.89,1.32,1.32,0,0,0-.9,1.22.84.84,0,0,0,1,.86,56.15,56.15,0,0,0,6.46-2.25,1.84,1.84,0,0,1,2.44,1.28c2.31,9.33,18.07,69.86,22.75,78.24a1,1,0,0,1,.09.76l-.06.22a.61.61,0,0,1-.53.44c-9,.65-18.09.93-27,2.68a1.73,1.73,0,0,1-2.05-1.44c-.59-3.75-13.88-59.18-15.87-62.33-.82-1.29-2.8-4.05-4.39-3.1a.78.78,0,0,0-.38.67.94.94,0,0,0,.6.89c1.45.55,3.18,3.69,4.13,6a1.52,1.52,0,0,1-1.54,2.1c-2.91-.25-5.93-.12-8.84-.48-8.15-1-12.67-3.15-18.09-9.26-4.5-5.08-6.39-8.77-5.81-15.82.11-1.34,2.09-5.15-.05-4.63-1.82.44-2.17,4.57-2.21,7.33a2.42,2.42,0,0,1-1.87,2.33,31.43,31.43,0,0,0-3.19,1c-11.08,4-22.13,9.83-33.2,14.2-14.81,5.86-30.48,9.16-42.65,20.07a32.72,32.72,0,0,0-4.31,4.44c-6.72,10.08,7.09,26.76-2.29,34.18-5.24,4.15-29.67,11.18-37.08,12.87-4.59,1.05-8.07-.5-12.13-2.61-4.5-2.35-13.56-12.86-15.73-17.46-3.63-7.73,8.07-8.87,13-11.23,9.05-4.34,19.51-12.63,22.29-22.56a34.8,34.8,0,0,0-1.17-22.33.68.68,0,0,1,1.12-.73A43.2,43.2,0,0,0,64.17,753c1.53.62,5.65,2.07,7.12,2s1.8-1.24.43-1.93c-1-.52-3.7-.83-5.19-1.36-19.75-7-33.83-33.65-29.11-53.91,2.62-11.22,10.19-18.6,16.5-27.58a2.36,2.36,0,0,1,3-.76c3.73,1.89,7.67,4.17,11.81,4.22a.73.73,0,0,0,.72-.87,1.23,1.23,0,0,0-1-1c-7.65-1.57-19-7.17-17.79-16.21a5.67,5.67,0,0,1,.82-2.25,1.64,1.64,0,0,1,2.23-.5A42,42,0,0,0,71,659.08a.64.64,0,0,0,.71-.54,1.1,1.1,0,0,0-.83-1.26A71.76,71.76,0,0,1,62.61,655c-2.09-.78-6.69-2.74-8.27-4.13-2.49-2.18-4.88-7.33-.75-9.09,5.17-2.2,13.59,2.52,19.85,4.71a4.77,4.77,0,0,0,5.19-1.4c5.06-5.91,10.73-12.44,18.27-14.69,7.28-2.18,14,.54,9.49,8.75-3.81,6.88-8.69,12.83-10.34,21v0a1,1,0,0,0,2,.52c.28-.86.52-1.84.78-2.67a1.92,1.92,0,0,1,2.62-1.18c5.32,2.38,11.13,4.65,15.8,8.05,4.52,3.31,4.55,6,.55,10s-6.45,3.22-11.4,1.89a96,96,0,0,1-14.08-5.41,1.5,1.5,0,0,0-1.86.54.24.24,0,0,0,0,.14c0,.43.32.56.62.78,2.94,2.2,8.46,3.77,12.47,5a.63.63,0,0,1,.08,1.18"/>
  </g>
</svg>
