<svg id="Livello_1" data-name="Livello 1" xmlns="http://www.w3.org/2000/svg" viewBox="0 0 841.89 841.89">
  <defs>
    <style>
      .cls-1 {
        fill: #231f20;
      }
    </style>
  </defs>
  <title>Glos</title>
  <g>
    <g>
      <path class="cls-1" d="M277,182.06c-8.09-4.31-17.26-6.52-22.67-4.95-2.82.82-7.89,7.71-8.85,9a2,2,0,0,0-.17.24l-.18-.24c-1-1.34-6-8.23-8.85-9-5.41-1.57-14.55.64-22.67,4.95-8.15-15.92-15.66-32.34-14.15-36.41,6.18-16.51,45.85-17.52,45.85-17.52s39.67,1,45.84,17.52C292.64,149.72,285.13,166.14,277,182.06Z"/>
      <path class="cls-1" d="M156.37,275.08c-1.57,5.41.64,14.55,4.92,22.67-15.92,8.15-32.34,15.66-36.41,14.15-16.51-6.17-17.53-45.84-17.53-45.84s1-39.67,17.53-45.84c4.07-1.52,20.49,6,36.41,14.14-4.28,8.09-6.49,17.26-4.92,22.68.81,2.82,7.71,7.88,9,8.84l.23.18-.23.17C164.08,267.19,157.18,272.26,156.37,275.08Z"/>
      <path class="cls-1" d="M230.05,282.09H230a240.33,240.33,0,0,0-18.92,21.1c-7,9-13.47,19.07-14,26.49a11,11,0,0,0,.14,3.26c1.05,5.18,5.59,10.16,11.41,14.09-5.56,17.31-12,34.75-16,36.58-16,7.31-44.82-20.05-44.82-20.05s-27.33-28.76-20-44.8c1.83-4,19.26-10.44,36.58-16,3.93,5.79,8.91,10.36,14.09,11.41a10.93,10.93,0,0,0,3.26.14c7.42-.58,17.52-7,26.49-14.06a238.5,238.5,0,0,0,21.1-18.92v-.05C229.5,281.57,229.79,281.83,230.05,282.09Z"/>
      <path class="cls-1" d="M291.13,386.47C285,403,245.29,404,245.29,404s-39.67-1-45.85-17.52c-1.51-4.08,6-20.49,14.15-36.41,8.09,4.28,17.26,6.49,22.67,4.92,2.83-.82,7.89-7.72,8.85-9.05l.18-.24a2,2,0,0,0,.17.24c1,1.33,6,8.23,8.85,9.05,5.41,1.57,14.55-.64,22.67-4.92C285.13,366,292.64,382.39,291.13,386.47Z"/>
      <path class="cls-1" d="M383.22,266.06s-1,39.67-17.52,45.84c-4.08,1.51-20.49-6-36.41-14.15,4.3-8.09,6.52-17.26,4.94-22.67-.81-2.82-7.71-7.89-9.05-8.85l-.23-.17a2.69,2.69,0,0,0,.23-.18c1.34-1,8.24-6,9.05-8.84,1.58-5.42-.64-14.56-4.94-22.68,15.92-8.15,32.33-15.66,36.41-14.14C382.2,226.39,383.22,266.06,383.22,266.06Z"/>
    </g>
    <path class="cls-1" d="M165.42,265.88l.23.18-.23.17Z"/>
    <path class="cls-1" d="M245.29,186.4l-.18-.24h.35A2,2,0,0,0,245.29,186.4Z"/>
    <path class="cls-1" d="M245.27,345.69a2.77,2.77,0,0,1-.17.23h.35Zm79.67-79.64.23.18v-.35Z"/>
    <path class="cls-1" d="M267.42,266.05a21.94,21.94,0,0,1-6.08,15.2,11.1,11.1,0,0,1-.84.84,22.1,22.1,0,0,1-30.45,0c-.26-.26-.55-.52-.81-.81a22.11,22.11,0,0,1,0-30.48c.26-.29.55-.55.81-.81a22.08,22.08,0,0,1,30.45,0,11.1,11.1,0,0,1,.84.84A22,22,0,0,1,267.42,266.05Z"/>
    <path class="cls-1" d="M342.81,363.56s-28.76,27.36-44.8,20.05c-4-1.83-10.47-19.29-16-36.61,5.79-3.93,10.33-8.88,11.38-14.06a11,11,0,0,0,.14-3.26c-.58-7.42-7-17.49-14.06-26.46a234.43,234.43,0,0,0-18.92-21.13h-.05a11.1,11.1,0,0,0,.84-.84v.08a238.5,238.5,0,0,0,21.1,18.92c9,7,19.07,13.48,26.49,14.06a11,11,0,0,0,3.26-.14c5.18-1.05,10.16-5.59,14.09-11.41,17.29,5.56,34.72,12,36.55,16C370.14,334.8,342.81,363.56,342.81,363.56Z"/>
    <path class="cls-1" d="M362.83,213.31c-1.83,4-19.29,10.48-36.58,16-3.93-5.79-8.88-10.33-14.06-11.38a11,11,0,0,0-3.26-.14c-7.42.58-17.49,7-26.46,14a236.19,236.19,0,0,0-21.13,18.92v.06a11.1,11.1,0,0,0-.84-.84h.05a236.08,236.08,0,0,0,18.92-21.13c7-9,13.48-19,14.06-26.46a10.93,10.93,0,0,0-.14-3.26C292.34,194,287.8,189,282,185.05c5.56-17.29,12-34.72,16-36.56,16-7.3,44.8,20,44.8,20S370.14,197.28,362.83,213.31Z"/>
    <path class="cls-1" d="M229.24,250.8v0a237.86,237.86,0,0,0-21.13-18.92c-9-7-19-13.47-26.46-14a10.93,10.93,0,0,0-3.26.14c-5.18,1.05-10.16,5.59-14.09,11.38-17.32-5.56-34.75-12-36.58-16-7.31-16,20-44.79,20-44.79s28.79-27.33,44.82-20c4,1.84,10.45,19.27,16,36.56-5.79,3.93-10.36,8.91-11.41,14.09a10.93,10.93,0,0,0-.14,3.26c.58,7.42,7,17.52,14,26.49A240.33,240.33,0,0,0,230,250h.06C229.79,250.25,229.5,250.51,229.24,250.8Z"/>
  </g>
</svg>
