<svg id="Livello_1" data-name="Livello 1" xmlns="http://www.w3.org/2000/svg" viewBox="0 0 841.89 841.89">
  <title>Glos</title>
  <g>
    <path d="M616.48,528.31a14,14,0,0,1,2.21-2.91,13.51,13.51,0,0,1,3-2.35l.88-.46c.3-.14.62-.25.94-.38a4.64,4.64,0,0,1,2-.35,11.73,11.73,0,0,1,4.08.68l-1.7,2.72a3.54,3.54,0,0,1-.44-.52,3.68,3.68,0,0,1-.28-.45,7.24,7.24,0,0,1-.43-.89,8,8,0,0,1-.46-1.79,12.06,12.06,0,0,1,0-3.45,19.94,19.94,0,0,1,.74-3.13c.29-1,.61-2,.94-2.93.69-1.92,1.44-3.82,2.33-5.69a31.19,31.19,0,0,1,3.24-5.42l1.29-1.68,1.3,1.68a31.19,31.19,0,0,1,3.24,5.42c.89,1.87,1.64,3.77,2.33,5.69.33,1,.65,1.93.94,2.93a19.94,19.94,0,0,1,.74,3.13,12.06,12.06,0,0,1,0,3.45,8,8,0,0,1-.46,1.79,7.24,7.24,0,0,1-.43.89,3.68,3.68,0,0,1-.28.45,3.54,3.54,0,0,1-.44.52l-1.71-2.72a11.81,11.81,0,0,1,4.08-.68,4.7,4.7,0,0,1,2,.37c.31.13.63.24.93.38l.89.46a13.69,13.69,0,0,1,3,2.35,14.55,14.55,0,0,1,2.22,2.89,17.92,17.92,0,0,0-3-1.82,14.8,14.8,0,0,0-3.14-1.08l-.78-.13c-.25,0-.51,0-.77,0a4.56,4.56,0,0,0-.74,0c-.25,0-.48-.08-.72-.07a7.29,7.29,0,0,0-2.84.45l-1.71-2.72c-.08.07,0,0,0-.06l.12-.18a2.78,2.78,0,0,0,.21-.46,4.58,4.58,0,0,0,.28-1.09,8.69,8.69,0,0,0,0-2.49,17.25,17.25,0,0,0-.64-2.68c-.26-.91-.57-1.84-.89-2.75a53.7,53.7,0,0,0-2.19-5.36,27.55,27.55,0,0,0-2.87-4.81h2.59a27.55,27.55,0,0,0-2.87,4.81,53.7,53.7,0,0,0-2.19,5.36c-.32.91-.63,1.84-.89,2.75a17.25,17.25,0,0,0-.64,2.68,8.69,8.69,0,0,0,0,2.49,4.58,4.58,0,0,0,.28,1.09,2.78,2.78,0,0,0,.21.46l.11.18s.12.13,0,.06l-1.71,2.72a7.29,7.29,0,0,0-2.84-.45c-.24,0-.47.07-.72.08s-.49,0-.74,0-.51,0-.77,0l-.78.13A16.68,16.68,0,0,0,616.48,528.31Z"/>
    <path d="M523.64,622.48a13.83,13.83,0,0,1-2.08-3,13.31,13.31,0,0,1-1.31-3.58l-.16-1c-.05-.33-.05-.67-.08-1a4.75,4.75,0,0,1,.29-2,12,12,0,0,1,1.91-3.67l2.06,2.47a3.31,3.31,0,0,1-.63.25,3.83,3.83,0,0,1-.51.13,7,7,0,0,1-1,.13,8,8,0,0,1-1.85-.11A12.05,12.05,0,0,1,517,610a19,19,0,0,1-2.74-1.67c-.86-.58-1.68-1.18-2.49-1.8a58.92,58.92,0,0,1-4.69-4,31.41,31.41,0,0,1-4.16-4.76l-1.2-1.75,2-.71a30.39,30.39,0,0,1,6.16-1.4,55.14,55.14,0,0,1,6.13-.46c1,0,2,0,3.07,0a20.13,20.13,0,0,1,3.2.27,11.64,11.64,0,0,1,3.29,1,7.49,7.49,0,0,1,1.56,1,5.71,5.71,0,0,1,.72.68,4.47,4.47,0,0,1,.34.4,3.36,3.36,0,0,1,.36.58l-3.11.79a11.61,11.61,0,0,1,.61-4.09,4.56,4.56,0,0,1,1-1.81c.22-.26.42-.53.65-.78l.71-.69a13.82,13.82,0,0,1,3.16-2.13,14.1,14.1,0,0,1,3.44-1.21,17.32,17.32,0,0,0-2.66,2.29,14.08,14.08,0,0,0-2,2.65l-.37.7c-.11.23-.19.48-.28.71a6,6,0,0,0-.23.72c-.06.23-.22.43-.29.66a7.53,7.53,0,0,0-.44,2.83l-3.12.79c0,.1,0,0,0-.05l-.14-.16a2.49,2.49,0,0,0-.37-.35,4.67,4.67,0,0,0-1-.6,8.72,8.72,0,0,0-2.38-.74,16.71,16.71,0,0,0-2.74-.22c-1,0-1.93,0-2.9,0a52.76,52.76,0,0,0-5.77.43,27.31,27.31,0,0,0-5.46,1.23l.79-2.45a28,28,0,0,0,3.7,4.21,53.19,53.19,0,0,0,4.42,3.74c.76.59,1.56,1.16,2.34,1.7a17.12,17.12,0,0,0,2.34,1.43,8.62,8.62,0,0,0,2.37.8,4.85,4.85,0,0,0,1.12.08,3.54,3.54,0,0,0,.5-.07l.21-.05s.16-.06.06,0l2.06,2.46a7.66,7.66,0,0,0-1.3,2.56c-.07.23-.08.48-.15.71s-.18.46-.23.71-.13.49-.19.74l-.11.78A16.62,16.62,0,0,0,523.64,622.48Z"/>
    <path d="M584.51,739.87a14.12,14.12,0,0,1-3.49,1.06,13.44,13.44,0,0,1-3.81.13l-1-.14c-.32-.07-.65-.16-1-.25a4.63,4.63,0,0,1-1.85-.9,12.12,12.12,0,0,1-2.9-2.95l3-1.2a3.13,3.13,0,0,1,0,.68,4.45,4.45,0,0,1,0,.53,6,6,0,0,1-.19,1,8,8,0,0,1-.67,1.73,12.29,12.29,0,0,1-2,2.77,19.17,19.17,0,0,1-2.43,2.1c-.83.64-1.65,1.23-2.49,1.81a57.76,57.76,0,0,1-5.23,3.23,29.89,29.89,0,0,1-5.81,2.48l-2,.6-.06-2.11a30.87,30.87,0,0,1,.57-6.29,56.69,56.69,0,0,1,1.46-6c.29-1,.6-1.94,1-2.92a20.8,20.8,0,0,1,1.24-3,12.2,12.2,0,0,1,2-2.81,7.84,7.84,0,0,1,1.43-1.17,6.06,6.06,0,0,1,.87-.48c.15-.07.32-.13.49-.19a4,4,0,0,1,.66-.17l-.21,3.2a11.56,11.56,0,0,1-3.7-1.84,4.59,4.59,0,0,1-1.42-1.49c-.18-.29-.37-.57-.54-.86l-.44-.89a13.7,13.7,0,0,1-1-3.66,14.9,14.9,0,0,1-.09-3.65,17.29,17.29,0,0,0,1.36,3.24,14.31,14.31,0,0,0,1.9,2.72l.55.57.6.49a5.16,5.16,0,0,0,.61.43c.2.14.34.34.54.48a7.3,7.3,0,0,0,2.56,1.3l-.22,3.21c.11,0,0,0-.06,0l-.2.09a2.76,2.76,0,0,0-.44.24,4.75,4.75,0,0,0-.87.72,8.86,8.86,0,0,0-1.44,2,16.17,16.17,0,0,0-1,2.54c-.32.89-.62,1.82-.9,2.75a52.33,52.33,0,0,0-1.38,5.62,27.46,27.46,0,0,0-.51,5.58l-2.09-1.52a27.47,27.47,0,0,0,5.15-2.21,52.19,52.19,0,0,0,4.92-3c.8-.55,1.59-1.12,2.34-1.7a16.52,16.52,0,0,0,2.09-1.79,8.39,8.39,0,0,0,1.49-2,4.61,4.61,0,0,0,.42-1,2.32,2.32,0,0,0,.09-.49.86.86,0,0,0,0-.22s0-.17,0-.06l3-1.19a7.36,7.36,0,0,0,2,2c.19.14.43.22.63.36a6.61,6.61,0,0,0,.6.44c.21.13.42.28.65.41l.7.35A16.6,16.6,0,0,0,584.51,739.87Z"/>
    <path d="M715,718.25a14.05,14.05,0,0,1-.08,3.66,13.32,13.32,0,0,1-1,3.66l-.45.89c-.16.29-.35.57-.53.86a4.6,4.6,0,0,1-1.43,1.48,11.71,11.71,0,0,1-3.71,1.84l-.22-3.2a3.94,3.94,0,0,1,.67.17c.17.06.34.12.49.19a6.06,6.06,0,0,1,.87.48,8.19,8.19,0,0,1,1.43,1.17,12.2,12.2,0,0,1,2,2.81,20.8,20.8,0,0,1,1.24,3c.35,1,.66,1.95.95,2.92a56.69,56.69,0,0,1,1.46,6,30.87,30.87,0,0,1,.57,6.29l-.06,2.11-2-.6a29.89,29.89,0,0,1-5.81-2.48,57.76,57.76,0,0,1-5.23-3.23c-.84-.58-1.66-1.17-2.49-1.81a19.17,19.17,0,0,1-2.43-2.1,12.29,12.29,0,0,1-2-2.77,8,8,0,0,1-.67-1.73,6,6,0,0,1-.19-1,4.45,4.45,0,0,1,0-.53,3.13,3.13,0,0,1,0-.68l3,1.2a12,12,0,0,1-2.9,2.95,4.69,4.69,0,0,1-1.86.88c-.33.09-.65.18-1,.25l-1,.14a13.43,13.43,0,0,1-3.81-.13,14.53,14.53,0,0,1-3.49-1,17.44,17.44,0,0,0,3.49-.29,14.37,14.37,0,0,0,3.18-1l.71-.35.65-.41a5.22,5.22,0,0,0,.6-.45c.19-.15.43-.22.62-.36a7.69,7.69,0,0,0,2-2l3,1.19c0-.11,0,0,0,.06a.86.86,0,0,0,0,.22,2.32,2.32,0,0,0,.09.49,5.07,5.07,0,0,0,.41,1,8.72,8.72,0,0,0,1.5,2,16.52,16.52,0,0,0,2.09,1.79c.75.58,1.54,1.15,2.34,1.7a52.19,52.19,0,0,0,4.92,3,27.47,27.47,0,0,0,5.15,2.21l-2.09,1.52a26.79,26.79,0,0,0-.52-5.58,52.28,52.28,0,0,0-1.37-5.62c-.28-.93-.58-1.86-.9-2.75a16.17,16.17,0,0,0-1-2.54,8.6,8.6,0,0,0-1.45-2,4.39,4.39,0,0,0-.86-.72,2.76,2.76,0,0,0-.44-.24l-.2-.09s-.17,0-.06,0l-.22-3.21a7.3,7.3,0,0,0,2.56-1.3c.19-.14.34-.34.53-.49s.42-.26.61-.43.4-.32.59-.5l.55-.56A16.58,16.58,0,0,0,715,718.25Z"/>
    <path d="M734.72,587.51a13.73,13.73,0,0,1,3.45,1.2,13.26,13.26,0,0,1,3.16,2.12l.71.7c.23.25.44.51.66.78a4.72,4.72,0,0,1,1,1.81,11.93,11.93,0,0,1,.61,4.1l-3.11-.79a3.36,3.36,0,0,1,.36-.58,4.47,4.47,0,0,1,.34-.4,5.71,5.71,0,0,1,.72-.68,7.49,7.49,0,0,1,1.56-1,11.64,11.64,0,0,1,3.29-1,20.13,20.13,0,0,1,3.2-.27c1,0,2,0,3.07,0a55.14,55.14,0,0,1,6.13.46,30.39,30.39,0,0,1,6.16,1.4l2,.71-1.2,1.75a31.41,31.41,0,0,1-4.16,4.76,58.92,58.92,0,0,1-4.69,4c-.81.62-1.63,1.22-2.49,1.8a19,19,0,0,1-2.74,1.67,12.05,12.05,0,0,1-3.28,1.09,8,8,0,0,1-1.85.11,7,7,0,0,1-1-.13,3.83,3.83,0,0,1-.51-.13,3.31,3.31,0,0,1-.63-.25l2-2.47a11.82,11.82,0,0,1,1.92,3.67,4.9,4.9,0,0,1,.27,2c0,.34,0,.68-.08,1l-.16,1a14,14,0,0,1-1.3,3.58,15.08,15.08,0,0,1-2.07,3,18.22,18.22,0,0,0,.8-3.42,14.25,14.25,0,0,0,.06-3.32l-.11-.78c-.05-.25-.13-.5-.19-.74a7.39,7.39,0,0,0-.24-.71c-.09-.23-.08-.48-.16-.71a7.47,7.47,0,0,0-1.3-2.56l2.06-2.46c-.1,0,0,0,.06,0l.21.05a3.54,3.54,0,0,0,.5.07,4.85,4.85,0,0,0,1.12-.08,8.62,8.62,0,0,0,2.37-.8,17.12,17.12,0,0,0,2.34-1.43c.78-.54,1.57-1.11,2.34-1.7a53.19,53.19,0,0,0,4.42-3.74,28,28,0,0,0,3.7-4.21l.79,2.45a27.31,27.31,0,0,0-5.46-1.23,52.76,52.76,0,0,0-5.77-.43c-1,0-2,0-2.9,0A16.71,16.71,0,0,0,748,597a8.72,8.72,0,0,0-2.38.74,4.67,4.67,0,0,0-1,.6,2.49,2.49,0,0,0-.37.35l-.14.16s-.09.15,0,.05l-3.12-.79a7.16,7.16,0,0,0-.45-2.83c-.07-.23-.22-.43-.29-.66s-.13-.48-.24-.71-.17-.48-.28-.71l-.36-.7A16.48,16.48,0,0,0,734.72,587.51Z"/>
    <g>
      <path d="M686.21,726.58c0,31.91-23,57.79-51.36,57.79s-51.33-25.88-51.33-57.79a63.42,63.42,0,0,1,1.08-11.81,25.25,25.25,0,0,1,4.5,6.27,25.59,25.59,0,0,0,4.46,6c2.42,2.59,5.8,3.47,9.18,4,5.67.95,11.12-.06,15.58-3.7,7-5.78,11.74-13.06,12.4-22.47a25.42,25.42,0,0,1,.49-3.28c1.38-5.81,1.18-11.71.75-17.61-.13-1.74-.19-3.41,1-4.86a3.66,3.66,0,0,1,4.29-1.28c1.58.59,2.86,1.51,2.92,3.42.2,3.7.3,7.41.56,11.08.46,6.49,1,13,1.51,19.45a20.34,20.34,0,0,1,.23,2.69c-.2,4.33,1.24,8.3,2.82,12.2,1.64,4.1,5.15,6.17,9.25,6.79a16.6,16.6,0,0,0,10.76-1.8,28.61,28.61,0,0,0,7.44-5.94c2.56-2.82,5.12-5.67,7.9-8.27a23.89,23.89,0,0,1,4.4-3.18A62.58,62.58,0,0,1,686.21,726.58Z"/>
      <path d="M772.86,684.14c-8.75,27-40.47,40.83-70.84,31a63.61,63.61,0,0,1-8.95-3.67l5-1.28a12.51,12.51,0,0,0,6.83-4.63,21.66,21.66,0,0,0,5-13.25,15.42,15.42,0,0,0-1.12-7,47.86,47.86,0,0,0-3.28-6.42c-3.05-4.66-6.85-8.66-12-11.09-5.31-2.53-10.4-5.61-16.17-7-1.83-.43-3.64-1.05-5.44-1.61a16.73,16.73,0,0,1-2.86-.92,4,4,0,0,1-1.9-5.08,4.11,4.11,0,0,1,5.15-2.43c3.18.85,6.36,1.74,9.55,2.56,5.57,1.48,11.18,2.92,16.79,4.33,1.64.43,3.34.62,5,1,3,.56,11.52,1.41,12.76,1.18a13.77,13.77,0,0,0,4.76-1.57c5-3.28,6.69-8.24,6.46-14-.13-4.42-1.9-8.33-4.17-12.06a88,88,0,0,1-4.78-9,24,24,0,0,1-2.07-8.79,65.3,65.3,0,0,1,17.22,3.15C764.11,627.3,781.62,657.15,772.86,684.14Z"/>
      <path d="M727.73,598.83c-3.28,4.49-7,5.75-11.1,9.06.2-1.87.31-1,.44-2.86.46-7.09-3.6-11.84-8.92-15.28a18.62,18.62,0,0,0-14-3c-8.1,1.44-15.12,4.42-20.53,10.75-1,1.22-2.33,2.2-3.44,3.35a23.83,23.83,0,0,0-2.66,2.85c-2.59,3.54-5.09,7.15-7.64,10.76a8.84,8.84,0,0,1-1.32,1.61,4.37,4.37,0,0,1-4.72.52,3.57,3.57,0,0,1-.56-.36,4.07,4.07,0,0,1-1-5.35c2-3.11,4.17-6.16,6.14-9.28,3.28-5.24,6.49-10.53,9.74-15.81a26,26,0,0,1,1.54-2.59c2.76-3.47,4-7.61,5.08-11.77a10.91,10.91,0,0,0-3.31-11,18.65,18.65,0,0,0-17.15-4.95c-1.77.36-3.54.69-5.28,1.08-4.63,1-6,2-10.69,1.21,2-6.65,1.9-13.18,6.29-19.25,18.76-25.84,52.58-33.26,75.54-16.59S746.49,573,727.73,598.83Z"/>
      <path d="M631.34,557.67a10.89,10.89,0,0,1-1.35-.3c-2.09-.52-11-5.64-15.64-4.23-7.61,2.33-13.09,6.79-15.32,14.6a39.33,39.33,0,0,0-1,6.52c-1,10,3.8,18.24,8.56,26.34,2.19,3.77,5.18,7.09,7.8,10.63a7.42,7.42,0,0,1,1,1.51,4.28,4.28,0,0,1-.79,4.62.42.42,0,0,1-.23.17,13,13,0,0,1-1.34.78h0a3.89,3.89,0,0,1-4.62-1.28c-2.23-2.78-4.4-5.67-6.73-8.43-4-4.85-8.13-9.61-12.23-14.39-.62-.76-1.41-1.45-2-2.27-2.46-3.7-6-6.13-9.67-8.43s-7.58-2.06-11.19-.16a18.75,18.75,0,0,0-10,14.46c-.5,3.38-.72,6.79-1.18,10.14a31.26,31.26,0,0,1-.76,3.9,62.39,62.39,0,0,1-12.59-13c-18.76-25.81-15.35-60.25,7.57-76.94s56.78-9.25,75.54,16.59C629.5,544.52,629.37,551,631.34,557.67Z"/>
      <path d="M574.14,707.75a37.13,37.13,0,0,1,4.82,2.5,64.36,64.36,0,0,1-11.25,4.85c-30.37,9.87-62.09-4-70.84-31s8.75-56.84,39.09-66.71c6-2,8.62-1,14.66.13,1.11,2.47.06,3.45-1.47,5.11-1.7,1.85-3.15,3.91-4.73,5.84a10,10,0,0,0-2.29,6.1,35.46,35.46,0,0,0,.42,7.45,18.62,18.62,0,0,0,7.58,11.87A34.07,34.07,0,0,0,566,659.77c5.8.66,11.34-.89,16.92-1.8,4.56-.73,8.89-2.83,13.38-4.24a11.56,11.56,0,0,1,3.48-.68,3.61,3.61,0,0,1,3.64,3,4.12,4.12,0,0,1-2.3,4.72c-3.44,1.35-7,2.53-10.39,3.91-5.84,2.33-11.62,4.78-17.42,7.18a27.76,27.76,0,0,1-3.05,1.28c-4.23,1.28-7.68,3.87-10.92,6.69s-4.1,6.85-3.32,11a17.22,17.22,0,0,0,6.5,10.82,31.28,31.28,0,0,0,4.79,3C569.51,705.82,571.88,706.74,574.14,707.75Z"/>
      <path d="M664.29,643.53A29.24,29.24,0,1,1,635,614.28,29.25,29.25,0,0,1,664.29,643.53Z"/>
    </g>
  </g>
</svg>
