<svg id="Livello_1" data-name="Livello 1" xmlns="http://www.w3.org/2000/svg" viewBox="0 0 841.89 841.89">
  <defs>
    <style>
      .cls-1 {
        fill: #231f20;
      }
    </style>
  </defs>
  <title>Glos</title>
  <g>
    <path class="cls-1" d="M689.8,335.87V316.08h-.32c-38.13,18.83-46.65,32.44-46.65,63,0,29.41,20.57,54.67,29.21,64a76.16,76.16,0,0,1,19.18-10.18c-9.39-7.31-29.74-26.38-30.63-55C659.62,347.92,680.63,338.43,689.8,335.87Z"/>
    <path class="cls-1" d="M801.73,377.9c-.9,28.57-21.24,47.64-30.63,55A76.27,76.27,0,0,1,790.27,443c8.65-9.29,29.22-34.55,29.22-64,0-30.55-8.52-44.16-46.65-63h-.33v19.79C781.68,338.43,802.69,347.92,801.73,377.9Z"/>
    <path class="cls-1" d="M787.51,307.28c-8.62-.27-12.34,1.2-13.88,2.79h-85c-1.54-1.59-5.27-3.06-13.89-2.79-5.26.15-2.06-23.54-2.06-23.54H789.58S792.78,307.43,787.51,307.28Z"/>
    <path class="cls-1" d="M766.33,637.5s.24,17.88,0,23.45-2.34,4.74-2.34,4.74H698.32s-2.09.82-2.34-4.74,0-23.45,0-23.45S602.78,497,675.74,446.83c0,0,14.5-10.06,20.12-10.23V335a.06.06,0,0,0-.05,0v-19H766.5v19a.06.06,0,0,0,0,0V436.6c5.61.17,20.12,10.23,20.12,10.23C859.52,497,766.33,637.5,766.33,637.5Z"/>
  </g>
  <g>
    <path class="cls-1" d="M715.67,794.76c-9.15-1.46-19.81-14-21.42-25-.23-.14-.44-.4-.67-.4-4.88-.18-6.28-1.41-6.26-6.44a94.63,94.63,0,0,1,1-9.86,24.42,24.42,0,0,0,.32-3.29c-.09-3.17-1.48-5.07-3.9-5.58a6.48,6.48,0,0,0-7.12,3,12.68,12.68,0,0,0-1,10.42,28.67,28.67,0,0,1,1.25,3.5c.42,1.92.65,4.05-1.25,5.28-2.49,1.63-2.67,4-2.8,6.53a77.26,77.26,0,0,1-3.49,19.92c-.5,1.54-1.16,3-1.9,5a15.78,15.78,0,0,1-5.09-11.3,59,59,0,0,1,.59-7.84,12,12,0,0,0-2.67-9.67c-2.34-2.71-4.55-5.53-6.95-8.18-7-7.74-10.27-16.53-8-27a15,15,0,0,1,4.39-7.8,39.61,39.61,0,0,1,11.6-7.85c5.28-2.32,9.56-6.07,13.71-9.87s4.55-8.69,3.36-13.8c-.48-2.07-1.71-3.8-4.17-4.05s-4.51-.1-6.12,2.32c-2.75,4.15-9.33,10.59-13.46,11.77-3.44,1-4.78.19-6-3.07-3.42-9.41-2.9-19-1.92-28.67.54-5.51.56-10.63-2.61-15.51-2.17-3.34-2.56-7.29-2.23-11.21.23-2.78-.56-5.76,1.19-8.58a9,9,0,0,1,3.88,5.34c1.23,3.64,3.45,6.24,6.26,8.92,6,5.8,9.08,13.1,7.64,21.76-.35,2.09-.65,4.18-1,6.41,3.83-3.65,16.64-8.74,25.32,1,5.77,6.44,6.86,14.28,5.59,22.56-.85,5.41-2.46,10.46-7.3,13.86-.94.65-3.27,2.21-2.76,3.22s1.77,0,2.09-.21a22.72,22.72,0,0,0,9.91-18.62c.11-3.71-.31-7.43-.35-11.14,0-1.13-.23-2.95.71-3.34,4.11-1.69,9.78,3.48,12,8.91a94.15,94.15,0,0,1,6.24,47.56c-1,8.19-2.26,16.39-3.86,24.51-1.36,7,.6,13.09,3.4,19.16C713,789.9,714.37,792.26,715.67,794.76Z"/>
    <g>
      <path class="cls-1" d="M746.64,794.76c9.16-1.46,19.81-14,21.43-25,.23-.14.44-.4.67-.4,4.87-.18,6.28-1.41,6.26-6.44a97.43,97.43,0,0,0-1-9.86,22.92,22.92,0,0,1-.33-3.29c.1-3.17,1.48-5.07,3.9-5.58a6.48,6.48,0,0,1,7.12,3,12.68,12.68,0,0,1,1,10.42,30.45,30.45,0,0,0-1.25,3.5c-.42,1.92-.65,4.05,1.25,5.28,2.5,1.63,2.67,4,2.8,6.53a77.71,77.71,0,0,0,3.5,19.92c.5,1.54,1.15,3,1.9,5A15.81,15.81,0,0,0,799,786.6a60.72,60.72,0,0,0-.6-7.84,12,12,0,0,1,2.67-9.67c2.34-2.71,4.55-5.53,7-8.18,7-7.74,10.27-16.53,8-27a15.12,15.12,0,0,0-4.4-7.8,39.61,39.61,0,0,0-11.6-7.85c-5.28-2.32-9.56-6.07-13.7-9.87s-4.55-8.69-3.36-13.8c.48-2.07,1.71-3.8,4.16-4.05s4.51-.1,6.13,2.32c2.74,4.15,9.32,10.59,13.45,11.77,3.44,1,4.79.19,6-3.07,3.41-9.41,2.89-19,1.92-28.67-.54-5.51-.56-10.63,2.61-15.51,2.17-3.34,2.55-7.29,2.22-11.21-.23-2.78.56-5.76-1.19-8.58a9.06,9.06,0,0,0-3.88,5.34c-1.22,3.64-3.45,6.24-6.25,8.92-6,5.8-9.08,13.1-7.64,21.76.34,2.09.65,4.18,1,6.41-3.83-3.65-16.64-8.74-25.32,1-5.77,6.44-6.85,14.28-5.58,22.56.84,5.41,2.45,10.46,7.29,13.86.94.65,3.28,2.21,2.76,3.22s-1.76,0-2.09-.21a22.73,22.73,0,0,1-9.9-18.62c-.12-3.71.3-7.43.34-11.14,0-1.13.24-2.95-.71-3.34-4.1-1.69-9.77,3.48-12,8.91A94.26,94.26,0,0,0,750,743.77c1,8.19,2.27,16.39,3.86,24.51,1.36,7-.6,13.09-3.4,19.16C749.29,789.9,748,792.26,746.64,794.76Z"/>
      <path class="cls-1" d="M774.91,676.8a60.78,60.78,0,0,1-6.39,7.3c-11-2.4-15.65,10.39-16.82,13.84-4.53,13.35-6.93,27-5.88,41.11.37,4.85-1.28,6.62-6.1,7.43a16.69,16.69,0,0,0-5.28,1.93,5.06,5.06,0,0,1-6.57,0,16.6,16.6,0,0,0-5.28-1.93c-4.81-.81-6.47-2.58-6.1-7.43,1.06-14.15-1.34-27.76-5.88-41.11-1.17-3.45-5.77-16.24-16.81-13.84a61.43,61.43,0,0,1-6.4-7.3c0,.29,43.76,0,43.76,0S774.91,677.09,774.91,676.8Z"/>
      <path class="cls-1" d="M748.4,759.61c-.64,2.72-3.11,3.84-3.79,5.68a4,4,0,0,1-3.93,3c-2.4.21-5-.14-6.74,2.32-.34.48-1.55.56-2.34.5l-.44,0-.44,0c-.79.06-2,0-2.35-.5-1.74-2.46-4.34-2.11-6.74-2.32a4,4,0,0,1-3.93-3c-.67-1.84-3.15-3-3.78-5.68-1-4.13,1.26-8.81,1.9-13.17,3.11.75,7.6,1.09,9.62,2.42s3.8,2.45,5.72,2.65c1.92-.2,3.59-1.25,5.72-2.65s6.51-1.67,9.62-2.42C747.13,750.8,749.36,755.48,748.4,759.61Z"/>
    </g>
  </g>
</svg>
