<svg id="Livello_1" data-name="Livello 1" xmlns="http://www.w3.org/2000/svg" viewBox="0 0 841.89 841.89">
  <defs>
    <style>
      .cls-1 {
        fill: #231f20;
      }
    </style>
  </defs>
  <title>Glos</title>
  <g>
    <g>
      <path class="cls-1" d="M680.86,338v-19.8h-.32c-38.13,18.83-46.65,32.44-46.65,63,0,29.41,20.57,54.67,29.21,64a76.65,76.65,0,0,1,19.18-10.18c-9.39-7.3-29.73-26.38-30.63-54.94C650.68,350,671.7,340.52,680.86,338Z"/>
      <path class="cls-1" d="M792.79,380c-.89,28.56-21.24,47.64-30.63,54.94a76.65,76.65,0,0,1,19.18,10.18c8.64-9.29,29.21-34.55,29.21-64,0-30.55-8.52-44.16-46.65-63h-.32V338C772.74,340.52,793.76,350,792.79,380Z"/>
      <path class="cls-1" d="M778.58,309.37c-8.62-.27-12.35,1.19-13.89,2.78h-85c-1.54-1.59-5.26-3-13.88-2.78-5.27.15-2.06-23.55-2.06-23.55H780.64S783.84,309.52,778.58,309.37Z"/>
      <path class="cls-1" d="M757.39,639.58s.25,17.89,0,23.45-2.33,4.74-2.33,4.74H689.38s-2.09.82-2.33-4.74,0-23.45,0-23.45-93.2-140.46-20.25-190.67c0,0,14.51-10.05,20.12-10.23V337.11s0,0,0,0v-19h70.69v19a.06.06,0,0,0,0,0V438.68c5.62.18,20.12,10.23,20.12,10.23C850.59,499.12,757.39,639.58,757.39,639.58Z"/>
    </g>
    <g>
      <path class="cls-1" d="M706.74,796.84c-9.16-1.46-19.81-14-21.43-25-.23-.13-.44-.4-.67-.4-4.88-.17-6.28-1.4-6.26-6.43a94.55,94.55,0,0,1,1-9.87,24.46,24.46,0,0,0,.33-3.28c-.1-3.17-1.48-5.07-3.9-5.59a6.51,6.51,0,0,0-7.12,3,12.7,12.7,0,0,0-1,10.43,29.64,29.64,0,0,1,1.25,3.49c.42,1.92.65,4-1.25,5.28-2.5,1.63-2.67,4-2.81,6.53A77.26,77.26,0,0,1,661.41,795c-.5,1.53-1.15,3-1.9,5a15.85,15.85,0,0,1-5.09-11.31,58.71,58.71,0,0,1,.6-7.83,12,12,0,0,0-2.67-9.68c-2.34-2.71-4.55-5.53-7-8.18-7-7.73-10.27-16.53-8-27a14.92,14.92,0,0,1,4.4-7.79,39.54,39.54,0,0,1,11.59-7.86c5.28-2.32,9.57-6.06,13.71-9.86s4.55-8.7,3.36-13.81c-.48-2.07-1.71-3.8-4.16-4s-4.52-.09-6.13,2.32c-2.74,4.15-9.33,10.59-13.46,11.77-3.44,1-4.78.2-6-3.07-3.41-9.41-2.9-19-1.92-28.66.54-5.51.56-10.64-2.61-15.51-2.17-3.34-2.55-7.3-2.22-11.22.23-2.78-.56-5.76,1.19-8.58a9,9,0,0,1,3.87,5.34c1.23,3.65,3.46,6.24,6.26,8.93,6,5.79,9.08,13.09,7.64,21.75-.34,2.09-.65,4.18-1,6.41,3.84-3.65,16.64-8.73,25.33,1,5.76,6.44,6.85,14.28,5.58,22.56-.84,5.41-2.45,10.46-7.29,13.86-.94.65-3.28,2.21-2.77,3.23s1.77,0,2.1-.22a22.72,22.72,0,0,0,9.9-18.62c.12-3.7-.3-7.43-.34-11.13,0-1.14-.24-3,.71-3.34,4.1-1.7,9.77,3.47,12,8.9a94.26,94.26,0,0,1,6.24,47.56c-1,8.2-2.27,16.39-3.86,24.51-1.36,6.95.59,13.1,3.4,19.16C704.09,792,705.43,794.34,706.74,796.84Z"/>
      <g>
        <path class="cls-1" d="M737.71,796.84c9.15-1.46,19.81-14,21.42-25,.23-.13.44-.4.67-.4,4.88-.17,6.28-1.4,6.26-6.43a94.55,94.55,0,0,0-1-9.87,24.44,24.44,0,0,1-.32-3.28c.09-3.17,1.47-5.07,3.89-5.59a6.52,6.52,0,0,1,7.13,3,12.78,12.78,0,0,1,1,10.43,27.94,27.94,0,0,0-1.25,3.49c-.42,1.92-.66,4,1.25,5.28,2.49,1.63,2.66,4,2.8,6.53A77.26,77.26,0,0,0,783,795c.5,1.53,1.15,3,1.9,5A15.81,15.81,0,0,0,790,788.68a60.42,60.42,0,0,0-.59-7.83,12,12,0,0,1,2.66-9.68c2.35-2.71,4.55-5.53,6.95-8.18,7-7.73,10.28-16.53,8-27a14.92,14.92,0,0,0-4.4-7.79A39.28,39.28,0,0,0,791,720.33c-5.28-2.32-9.56-6.06-13.71-9.86s-4.55-8.7-3.36-13.81c.48-2.07,1.71-3.8,4.17-4s4.51-.09,6.12,2.32c2.75,4.15,9.33,10.59,13.46,11.77,3.44,1,4.78.2,6-3.07,3.42-9.41,2.9-19,1.92-28.66-.54-5.51-.56-10.64,2.61-15.51,2.17-3.34,2.55-7.3,2.23-11.22-.23-2.78.55-5.76-1.19-8.58a9,9,0,0,0-3.88,5.34c-1.23,3.65-3.46,6.24-6.26,8.93-6,5.79-9.08,13.09-7.64,21.75.35,2.09.65,4.18,1,6.41-3.83-3.65-16.64-8.73-25.32,1-5.77,6.44-6.86,14.28-5.59,22.56.84,5.41,2.46,10.46,7.29,13.86.95.65,3.28,2.21,2.77,3.23s-1.77,0-2.09-.22a22.7,22.7,0,0,1-9.91-18.62c-.11-3.7.31-7.43.35-11.13,0-1.14.23-3-.71-3.34-4.11-1.7-9.78,3.47-12,8.9a94,94,0,0,0-6.24,47.56c1,8.2,2.26,16.39,3.85,24.51,1.37,6.95-.59,13.1-3.39,19.16C740.35,792,739,794.34,737.71,796.84Z"/>
        <path class="cls-1" d="M766,678.89a60.32,60.32,0,0,1-6.39,7.29c-11-2.4-15.65,10.39-16.82,13.85-4.53,13.34-6.93,27-5.87,41.1.36,4.86-1.29,6.62-6.11,7.43a17.05,17.05,0,0,0-5.28,1.94,5.05,5.05,0,0,1-6.56,0,17,17,0,0,0-5.28-1.94c-4.82-.81-6.47-2.57-6.11-7.43,1.06-14.15-1.34-27.76-5.87-41.1-1.17-3.46-5.78-16.25-16.82-13.85a60.32,60.32,0,0,1-6.39-7.29c0,.29,43.75,0,43.75,0S766,679.18,766,678.89Z"/>
        <path class="cls-1" d="M739.46,761.69c-.63,2.73-3.11,3.84-3.78,5.68a4,4,0,0,1-3.94,3c-2.4.21-5-.13-6.73,2.32-.35.48-1.56.56-2.35.5l-.44,0-.44,0c-.79.06-2,0-2.34-.5-1.75-2.45-4.34-2.11-6.74-2.32a4,4,0,0,1-3.94-3c-.67-1.84-3.15-3-3.78-5.68-1-4.13,1.27-8.81,1.9-13.17,3.11.75,7.6,1.09,9.62,2.42s3.8,2.46,5.72,2.65c1.92-.19,3.59-1.25,5.72-2.65s6.51-1.67,9.62-2.42C738.19,752.88,740.42,757.56,739.46,761.69Z"/>
      </g>
    </g>
    <g>
      <path class="cls-1" d="M78.31,503.93v19.8H78c-38.13-18.83-46.65-32.44-46.65-63,0-29.41,20.57-54.67,29.21-64A76.65,76.65,0,0,0,79.73,407C70.34,414.26,50,433.34,49.1,461.9,48.13,491.89,69.15,501.37,78.31,503.93Z"/>
      <path class="cls-1" d="M190.24,461.9c-.9-28.56-21.24-47.64-30.63-54.94a76.65,76.65,0,0,0,19.18-10.18c8.64,9.29,29.21,34.55,29.21,64,0,30.55-8.52,44.16-46.65,63H161v-19.8C170.19,501.37,191.21,491.89,190.24,461.9Z"/>
      <path class="cls-1" d="M176,532.52c-8.62.27-12.35-1.19-13.89-2.78H77.19c-1.54,1.59-5.27,3-13.88,2.78-5.27-.15-2.07,23.55-2.07,23.55H178.09S181.29,532.37,176,532.52Z"/>
      <path class="cls-1" d="M154.84,202.31s.25-17.89,0-23.45-2.34-4.74-2.34-4.74H86.83s-2.09-.82-2.34,4.74,0,23.45,0,23.45S-8.7,342.77,64.25,393c0,0,14.51,10.06,20.12,10.24V504.78a.06.06,0,0,1-.05,0v19H155v-19a.06.06,0,0,1,0,0V403.21C160.58,403,175.08,393,175.08,393,248,342.77,154.84,202.31,154.84,202.31Z"/>
    </g>
    <g>
      <path class="cls-1" d="M104.18,45.05C95,46.51,84.37,59,82.76,70c-.23.13-.44.4-.67.4-4.88.17-6.28,1.4-6.26,6.43a94.55,94.55,0,0,0,1,9.87A24.44,24.44,0,0,1,77.15,90c-.09,3.17-1.48,5.07-3.89,5.59a6.52,6.52,0,0,1-7.13-3,12.78,12.78,0,0,1-1-10.43,27.94,27.94,0,0,0,1.25-3.49c.42-1.92.65-4.05-1.25-5.28-2.49-1.63-2.66-4-2.8-6.53a77.26,77.26,0,0,0-3.49-19.93c-.5-1.53-1.15-3-1.9-5a15.81,15.81,0,0,0-5.09,11.31A60.42,60.42,0,0,0,52.46,61a12,12,0,0,1-2.66,9.68c-2.35,2.71-4.55,5.53-6.95,8.18-7,7.73-10.28,16.53-8,27a15,15,0,0,0,4.4,7.79,39.28,39.28,0,0,0,11.59,7.86c5.28,2.32,9.56,6.06,13.71,9.86s4.55,8.7,3.36,13.81c-.48,2.07-1.71,3.8-4.17,4.05s-4.51.09-6.12-2.32c-2.75-4.15-9.33-10.59-13.46-11.77-3.44-1-4.78-.2-6,3.07-3.42,9.41-2.9,19-1.92,28.66.54,5.51.56,10.64-2.61,15.51-2.17,3.34-2.55,7.3-2.23,11.22.23,2.78-.55,5.76,1.19,8.58a9,9,0,0,0,3.88-5.34c1.23-3.65,3.46-6.24,6.26-8.93,6-5.79,9.08-13.09,7.64-21.75-.35-2.09-.65-4.18-1-6.41,3.83,3.65,16.64,8.73,25.32-1,5.77-6.44,6.86-14.28,5.59-22.56-.84-5.41-2.46-10.46-7.3-13.86-.94-.65-3.27-2.21-2.76-3.23s1.77,0,2.09.22A22.7,22.7,0,0,1,82.28,138c.11,3.7-.31,7.43-.35,11.13,0,1.14-.23,3,.71,3.34,4.11,1.7,9.78-3.47,12-8.9A94,94,0,0,0,100.84,96c-1-8.2-2.26-16.39-3.85-24.51-1.37-7,.59-13.1,3.39-19.17C101.54,49.91,102.88,47.55,104.18,45.05Z"/>
      <g>
        <path class="cls-1" d="M135.15,45.05c9.16,1.46,19.81,14,21.43,25,.23.13.44.4.67.4,4.88.17,6.28,1.4,6.26,6.43a94.55,94.55,0,0,1-1,9.87,22.93,22.93,0,0,0-.33,3.28c.1,3.17,1.48,5.07,3.9,5.59a6.51,6.51,0,0,0,7.12-3,12.7,12.7,0,0,0,1-10.43,29.64,29.64,0,0,1-1.25-3.49c-.42-1.92-.65-4.05,1.25-5.28,2.5-1.63,2.67-4,2.81-6.53a77.26,77.26,0,0,1,3.49-19.93c.5-1.53,1.15-3,1.9-5a15.85,15.85,0,0,1,5.09,11.31,58.71,58.71,0,0,1-.6,7.83,12,12,0,0,0,2.67,9.68c2.34,2.71,4.55,5.53,7,8.18,7,7.73,10.27,16.53,8,27a15,15,0,0,1-4.4,7.79,39.54,39.54,0,0,1-11.59,7.86c-5.28,2.32-9.57,6.06-13.71,9.86s-4.55,8.7-3.36,13.81c.48,2.07,1.71,3.8,4.16,4.05s4.52.09,6.13-2.32c2.74-4.15,9.32-10.59,13.46-11.77,3.44-1,4.78-.2,6,3.07,3.41,9.41,2.9,19,1.92,28.66-.54,5.51-.56,10.64,2.61,15.51,2.17,3.34,2.55,7.3,2.22,11.22-.23,2.78.56,5.76-1.19,8.58a9,9,0,0,1-3.87-5.34c-1.23-3.65-3.46-6.24-6.26-8.93-6-5.79-9.08-13.09-7.64-21.75.34-2.09.65-4.18,1-6.41-3.84,3.65-16.64,8.73-25.33-1-5.76-6.44-6.85-14.28-5.58-22.56.84-5.41,2.45-10.46,7.29-13.86.94-.65,3.28-2.21,2.77-3.23s-1.77,0-2.1.22a22.72,22.72,0,0,0-9.9,18.62c-.12,3.7.3,7.43.34,11.13,0,1.14.24,3-.71,3.34-4.1,1.7-9.77-3.47-12-8.9A94.26,94.26,0,0,1,138.49,96c1-8.2,2.27-16.39,3.86-24.51,1.36-7-.59-13.1-3.4-19.17C137.8,49.91,136.46,47.55,135.15,45.05Z"/>
        <path class="cls-1" d="M163.42,163a60.32,60.32,0,0,0-6.39-7.29c-11,2.4-15.65-10.39-16.82-13.85-4.53-13.34-6.93-27-5.87-41.1.36-4.86-1.29-6.62-6.11-7.43A17,17,0,0,1,123,91.39a8.36,8.36,0,0,0-3.28-1.21,8.36,8.36,0,0,0-3.28,1.21,17.05,17.05,0,0,1-5.28,1.94c-4.82.81-6.47,2.57-6.11,7.43,1.06,14.15-1.34,27.76-5.87,41.1-1.18,3.46-5.78,16.25-16.82,13.85A60.32,60.32,0,0,0,75.92,163c0-.29,43.75,0,43.75,0S163.42,162.71,163.42,163Z"/>
        <path class="cls-1" d="M136.91,80.2c-.64-2.73-3.11-3.84-3.78-5.68a4,4,0,0,0-3.94-3c-2.4-.21-5,.13-6.74-2.32-.34-.48-1.55-.56-2.34-.5l-.44,0-.44,0c-.79-.06-2,0-2.35.5-1.74,2.45-4.33,2.11-6.73,2.32a4,4,0,0,0-3.94,3c-.67,1.84-3.15,3-3.78,5.68-1,4.13,1.27,8.81,1.9,13.17,3.11-.75,7.6-1.1,9.62-2.42s3.8-2.46,5.72-2.65c1.92.19,3.59,1.25,5.72,2.65s6.51,1.67,9.62,2.42C135.64,89,137.87,84.33,136.91,80.2Z"/>
      </g>
    </g>
  </g>
</svg>
