<svg id="Livello_1" data-name="Livello 1" xmlns="http://www.w3.org/2000/svg" viewBox="0 0 841.89 841.89">
  <defs>
    <style>
      .cls-1 {
        fill: #231f20;
      }
    </style>
  </defs>
  <title>Glos</title>
  <g>
    <path d="M270.15,85.55c-3.11.39-6.22.82-9.26,1.23a8.27,8.27,0,0,0-2.05,3.33c-1.76,3.69-3.4,7.44-5.43,11a84,84,0,0,1-20.25,24.21,53.08,53.08,0,0,1-14.4,8.32A37.76,37.76,0,0,1,203,136.43a34.42,34.42,0,0,1-22.92-10,46.9,46.9,0,0,1-6.93-8.7,70.22,70.22,0,0,1-6.32-13.59,3.25,3.25,0,0,1,.88-3.57,4,4,0,0,1,5.92-.16c.13.13.22.31.35.43,1.24,1.19,2.16,1.16,3.19,0a8.83,8.83,0,0,0,2.18-6.7,13.84,13.84,0,0,0-10.46-12.92A9.64,9.64,0,0,0,157.55,86a31.65,31.65,0,0,0-3.28,8.83c-.24,1.28-.54,2.55-.82,3.82a.87.87,0,0,1-1.31.41c-6.06-5.77-12.14-6.2-14.92-6a8.15,8.15,0,0,0-6.48,3.79c-3.26,4.81-3.09,9.76-.53,14.74a11.85,11.85,0,0,0,2.39,3,9.27,9.27,0,0,0,5.93,2.77,2,2,0,0,0,2.29-1.86c0-.56-.15-1.11-.09-1.67a4.39,4.39,0,0,1,.44-1.58c.76-1.45,3.17-2.17,4.86-1.77,2,.48,12.28,43.12,51.52,46C226.82,158.58,263,139,272.33,88A1.92,1.92,0,0,0,270.15,85.55ZM150.6,110c-.12.38-.49.48-.89.24s-.86-.7-1.32-1c-2.69-1.71-5.29-1.33-7.77.47-.73.53-1.41,1.17-2.13,1.74a.41.41,0,0,1-.4,0,.84.84,0,0,1-.24-.49,3.48,3.48,0,0,1,1.28-3,10.68,10.68,0,0,1,2.91-1.55,5.89,5.89,0,0,1,1.65-.17,8.66,8.66,0,0,1,6.23,1.92,2.47,2.47,0,0,1,.75.8A1.67,1.67,0,0,1,150.6,110Zm13.83-7.42a2.12,2.12,0,0,1-.32,1c-.16.17-.61.12-.92.08a.59.59,0,0,1-.35-.4,8.37,8.37,0,0,1,3.55-7.15,5.53,5.53,0,0,1,6.22-.6c.28.15.4.59.6.89,0,.16,0,.38-.07.44-.82.67-1.77.12-2.67.24C167.2,97.57,165.05,99.22,164.43,102.59Z"/>
    <path d="M238.35,66.62c-.84,1.3-.35,2.6-.25,3.84s.44,2.54.58,3.82a1,1,0,0,1-.58.8,5.7,5.7,0,0,1-1.61.24c-1.65.15-1.91.36-2.05,1.91-.12,1.29-.11,2.59-.28,3.88a34.13,34.13,0,0,1-.81,4.36A2.62,2.62,0,0,1,229,86.82c-1.25-1.09-2.45-2.24-3.69-3.35a1,1,0,0,0-1.4.33c-.21.51-.35,1-.56,1.56s-.46,1-.73,1.48a1.43,1.43,0,0,1-1.9.54c-.48-.16-.82-.88-1.37-.54a3.34,3.34,0,0,0-1,1.23c-.27.48-.37,1.05-.61,1.55-.6,1.24-1.51,2.19-3,2s-2.34.68-2.84,2c-.84,2.25-1.73,4.49-2.6,6.73A7.27,7.27,0,0,1,207,103.5a2.52,2.52,0,0,1-3.82-.66c-.56-1.16-.95-2.4-1.54-3.55s-1.32-2.19-2-3.37a7.53,7.53,0,0,0-1.46,1c-1.75,2-3.24,1.08-4.05-1.07-.59-1.55-1.25-3.08-1.89-4.61-.2-.45-.77-.52-1.38-.19s-.93.75-1.43.8c-1.08.11-2.25-.27-3.24,0a12,12,0,0,0-2.74,1.83,1.34,1.34,0,0,1-1.75-.82,5.34,5.34,0,0,1-.18-.52,12.8,12.8,0,0,1,2.42-10,3,3,0,0,1,2.89-1.29c8.18,1.12,15.83-1.1,23.26-4a91.29,91.29,0,0,0,19-10.37A60.53,60.53,0,0,0,244.66,51c.31-.46.66-.9,1-1.34a1,1,0,0,1,1.44-.18,19.58,19.58,0,0,1,5.14,9.66,3.45,3.45,0,0,1,0,.55,2,2,0,0,1-1.72,1.86c-1.48,0-3,0-4.44.1a1.38,1.38,0,0,0-1.38,1.39c-.08.92-.05,1.86-.21,2.77a4.26,4.26,0,0,1-.71,1.45,1.7,1.7,0,0,1-1.91.73c-.67-.31-1.3-.73-2-1A9.21,9.21,0,0,0,238.35,66.62Z"/>
    <path d="M236.94,49.43h0l-.05.05,0,0-.1.12a1.77,1.77,0,0,1,0-.2h0Z"/>
    <path d="M244.26,48.32a35.81,35.81,0,0,1-6,8c-11.31,11.23-24.54,19-40.19,22.6a41.2,41.2,0,0,1-11.07.66c-.94,0-1.41-1-1-2.06a4.8,4.8,0,0,1,.8-1.46,3.49,3.49,0,0,1,1.42-.73,2,2,0,0,1,1.09,0c4.71,1.18,9.21.16,13.65-1.26a59.59,59.59,0,0,0,15.36-7.69,1.56,1.56,0,0,0,.75-1.17,1.34,1.34,0,0,0,0-.2h-.15a3.13,3.13,0,0,0-1.94.59,75.65,75.65,0,0,1-10.81,5.67,32.14,32.14,0,0,1-12.89,3,26,26,0,0,1-4.4-.47,1.64,1.64,0,0,1-1-1.15,4.71,4.71,0,0,1,1.76-4.94c.55-.41,1.21-.71,1.43-1.41h-.38a1.29,1.29,0,0,1-1-1.16,2.74,2.74,0,0,1,.15-1.1c1.28-3.58.49-7-1-10.26a15.52,15.52,0,0,0-7.1-7.56A10.47,10.47,0,0,0,178.16,45,15.18,15.18,0,0,0,165.8,48.8,31.42,31.42,0,0,0,160.29,55c-5.41,8.08-7.8,40.83-8.08,41.25-5.4-4.52-18.49-8.75-37-5.31a6.38,6.38,0,0,0-5.3,5.11,2.84,2.84,0,0,0,.37,2.61c.67.88,1.4,1.72,2,2.64a2.71,2.71,0,0,1-.64,3,11.75,11.75,0,0,1-1.38.91,16.14,16.14,0,0,0-2.45,1.26c-2.93,2.38-4.58,5.42-3.95,9.27a9.81,9.81,0,0,0,7.28,8.3,8.27,8.27,0,0,0,3.86.19c3.78-.73,5.31-1.77,4.43-6a6.11,6.11,0,0,0-.32-1.06c-.05-.15-.21-.39-.3-.38-.33,0-.81.07-.95.28-.39.61-.57,1.37-1,1.95a2.18,2.18,0,0,1-1.33.8c-1.27.17-2.41-.71-3.79-.48-1,.16-2.26-1.21-2.16-2.16a23.51,23.51,0,0,0-.11-4.89,2.48,2.48,0,0,1,.92-1.91c1.51-1.06,3.17-1.91,5-3a15.16,15.16,0,0,1,.9-3.5c.64-1.25.44-2.53.68-3.79a3.14,3.14,0,0,1,3.75-2.47,2.38,2.38,0,0,1,1.42.76,14.35,14.35,0,0,1,1.78,3.43c1.1,3.54,2.14,7.11,3,10.7a16.94,16.94,0,0,0,1.86,5.2,6.62,6.62,0,0,1,.73,5.37,3.66,3.66,0,0,1-.94,1.94,2.88,2.88,0,0,0-1.19,2.9,4.64,4.64,0,0,1-.07,1.11,4,4,0,0,1-2.7,3.24c-1.21.44-2.47.77-3.81,1.19-.33,1-.68,2-1,3,0,1.7,1.1,3.09,1.47,4.77-.62.94-1.23,1.84-1.88,2.83a30.31,30.31,0,0,1,3,4.55,31.77,31.77,0,0,1,1.31,5.38c.48,2,1.28,3.91,1.07,6a3.64,3.64,0,0,1-.54,2.08,6.59,6.59,0,0,0-1.84,3.92,4.1,4.1,0,0,1-1.11,1.87,2.34,2.34,0,0,1-2.53.68c-1.18-.34-2.16-1.93-3.49-.95-1.13.84-.7,2.4-.93,3.66a4.08,4.08,0,0,1-1.54,2.87,3.18,3.18,0,0,0-1.39,2.85,29.58,29.58,0,0,1-1,8.27c-.18.53-.33,1.06-.55,1.57a3.5,3.5,0,0,1-4.12,2.06,2.57,2.57,0,0,1-2.15-2.23,7.08,7.08,0,0,1,0-1.66,5.3,5.3,0,0,0-.92-4.73,6.15,6.15,0,0,1-.67-1.52,3,3,0,0,1,.12-2.68c.6-1.15,1.26-2.27,1.84-3.42a1.87,1.87,0,0,0,0-2.11c-1.76-2.07-2.33-4.6-3-7.1a3,3,0,0,0-2.67-2.47A4.36,4.36,0,0,1,94.76,158a8.35,8.35,0,0,0-1.5-2.94c-1.88-1.95-2.7-4.42-3.73-6.79a4.18,4.18,0,0,1,.88-5.1c.11-.1.08-.33.15-.59a32.49,32.49,0,0,1-3.68-16,57,57,0,0,1,1-12.76c.15-.67.36-1.37.45-2.07v0s0,0,0,0a1.21,1.21,0,0,1,0-.14h0v-.22h0a3.73,3.73,0,0,0-.16-1.27c-.33.19-.78.29-.93.56s-.2.38-.29.56h0c-1,.47-3,5.79-4.74,11.12-.16.48-.32,1-.47,1.44-1.37,4.2-2.5,8.12-2.75,9.35-.58,2.93,4.37,1,6.7,13.76h0c1.07,26.26-24,28-33.87,24.53-9.21-3.28-24.73-22.16,3.15-39,.4-.24,1.32,0,1.85,0a10.73,10.73,0,0,1,2.33.81h0l.16.07a3.64,3.64,0,0,1,2,3.13c.17,1.75,0,3.34-1.76,4.32l0,0a7.08,7.08,0,0,0-2.7,2.73h0c-1.22,1.56-2,3.34-.15,4.12h0a1.72,1.72,0,0,0,.8.34,5.63,5.63,0,0,0,3.75-.73,10.55,10.55,0,0,0,3.87-3.92,5.37,5.37,0,0,0,.68-2.08c.09-1.29,0-2.59,0-3.9a53.94,53.94,0,0,1,.39-7.76s0,0,0,0a88.3,88.3,0,0,1,2-9.38,3.58,3.58,0,0,1,.09-.35,70.38,70.38,0,0,1,3.61-9.37,52.64,52.64,0,0,1,8.32-13.14c.69-.78,1.41-1.53,2.14-2.24a30.57,30.57,0,0,1,7.43-5h0a15.18,15.18,0,0,1,1.69-.55A6.25,6.25,0,0,0,92.75,89c.87-.49,1.71-1.14,2.61-1.59A2.32,2.32,0,0,1,98,87.36c2.6,2.1,5.53,1.78,8.48,1.18a13.81,13.81,0,0,0,2.63-.89c5.79-2.45,23.22-4.86,31.72-.27.38.21-1.85-3.75-2.42-4.69a98,98,0,0,0-10.88-14.8,61.25,61.25,0,0,0-14-11.83c-1.9-1.14-3.89-2.14-5.89-3.13-7.43-3.67-15.34-4.38-23.36-3.11A32,32,0,0,0,67.6,58.24c-5.87,5.39-9.87,12-12.91,19.29-.42,1-.82,2.06-1.17,3.11A4,4,0,0,0,60.67,84a1.76,1.76,0,0,1,2.85-.07,8.16,8.16,0,0,1,2.16,4.44,13.69,13.69,0,0,1-8.27,14.38,11.42,11.42,0,0,1-6.52,1c-4.26-.81-6.88-3.51-8.39-7.33A17.78,17.78,0,0,1,41.16,91a46.41,46.41,0,0,0-.8-4.93c-.08-.43-1-.68-1.41-.39-1.35,1-2.66,2-4.06,2.94a18.13,18.13,0,0,1-6.63,2.75c-5.24,1-9-.76-11.68-5.37-3.51-6-1-13.62,3.39-17.13A11,11,0,0,1,25,66.68a2.23,2.23,0,0,1,2.69,2c0,.37-.12.75-.11,1.11a4.32,4.32,0,0,0,4.21,4.24,3.23,3.23,0,0,0,2.49-1.81c2.06-3.93,51.12-81.47,111.47-9.58,8.95-27.18,20.69-35.37,33.12-36.57,7-.68,10.48.06,28.6,6.6,2.79,1,18.43,6.7,25.91,6,4.46-.39,3.85,1,2.88,2.44-.72,1-2.58,2.17-2.09,2.67s3-1.55,4.13-2.7c.44-.46,1.45-.16,1.85.47a1.8,1.8,0,0,1,.1,2c-1,1.51-2.15,3-3.14,4.46a3.43,3.43,0,0,0-.36,1.31,3,3,0,0,0-.42.07l.42-.06a1.77,1.77,0,0,0,0,.2h0l.17,0a4.42,4.42,0,0,0,2-1.62c.87-.95,1.7-1.94,2.62-2.85a1.32,1.32,0,0,1,1.56,0A2.27,2.27,0,0,1,244.26,48.32Z"/>
    <path d="M236.94,49.44a.68.68,0,0,1,0,.19l-.17,0h0l.1-.12,0,0Z"/>
    <path d="M236.94,49.44a.68.68,0,0,1,0,.19l-.17,0h0a1.77,1.77,0,0,1,0-.2l.16,0Z"/>
  </g>
  <g>
    <path d="M560.21,85.55c3.12.39,6.22.82,9.27,1.23a8.36,8.36,0,0,1,2,3.33c1.76,3.69,3.4,7.44,5.43,11A84,84,0,0,0,597.2,125.3a53.08,53.08,0,0,0,14.4,8.32,37.78,37.78,0,0,0,15.77,2.81,34.41,34.41,0,0,0,22.91-10,46.9,46.9,0,0,0,6.93-8.7,70.22,70.22,0,0,0,6.32-13.59,3.24,3.24,0,0,0-.88-3.57,4,4,0,0,0-5.91-.16c-.14.13-.23.31-.36.43-1.24,1.19-2.16,1.16-3.19,0a8.83,8.83,0,0,1-2.18-6.7,13.84,13.84,0,0,1,10.46-12.92A9.64,9.64,0,0,1,672.81,86a31.34,31.34,0,0,1,3.28,8.83c.25,1.28.54,2.55.82,3.82a.87.87,0,0,0,1.31.41c6.06-5.77,12.15-6.2,14.92-6a8.13,8.13,0,0,1,6.48,3.79c3.27,4.81,3.09,9.76.54,14.74a12.11,12.11,0,0,1-2.4,3,9.27,9.27,0,0,1-5.93,2.77,2,2,0,0,1-2.29-1.86c0-.56.15-1.11.09-1.67a4.39,4.39,0,0,0-.44-1.58c-.75-1.45-3.17-2.17-4.86-1.77-2,.48-12.28,43.12-51.52,46C603.54,158.58,567.32,139,558,88A1.92,1.92,0,0,1,560.21,85.55ZM679.76,110c.12.38.49.48.89.24s.86-.7,1.33-1c2.68-1.71,5.28-1.33,7.76.47.74.53,1.41,1.17,2.13,1.74a.43.43,0,0,0,.41,0,.83.83,0,0,0,.23-.49,3.48,3.48,0,0,0-1.28-3,10.68,10.68,0,0,0-2.91-1.55,5.85,5.85,0,0,0-1.65-.17,8.66,8.66,0,0,0-6.23,1.92,2.47,2.47,0,0,0-.75.8A1.83,1.83,0,0,0,679.76,110Zm-13.83-7.42a2.12,2.12,0,0,0,.32,1c.16.17.61.12.92.08a.59.59,0,0,0,.35-.4A8.37,8.37,0,0,0,664,96.15a5.53,5.53,0,0,0-6.22-.6c-.28.15-.4.59-.59.89,0,.16,0,.38.06.44.83.67,1.77.12,2.67.24C663.16,97.57,665.31,99.22,665.93,102.59Z"/>
    <path d="M592,66.62c.84,1.3.35,2.6.25,3.84s-.44,2.54-.58,3.82a1,1,0,0,0,.58.8,5.75,5.75,0,0,0,1.61.24c1.65.15,1.91.36,2,1.91.12,1.29.11,2.59.28,3.88a34.13,34.13,0,0,0,.81,4.36,2.62,2.62,0,0,0,4.38,1.35c1.25-1.09,2.45-2.24,3.69-3.35a1,1,0,0,1,1.4.33c.21.51.35,1,.56,1.56s.47,1,.73,1.48a1.43,1.43,0,0,0,1.9.54c.48-.16.82-.88,1.37-.54a3.34,3.34,0,0,1,1,1.23c.27.48.37,1.05.61,1.55.61,1.24,1.51,2.19,3,2s2.34.68,2.84,2c.85,2.25,1.74,4.49,2.6,6.73a7.27,7.27,0,0,0,2.24,3.12,2.52,2.52,0,0,0,3.82-.66c.56-1.16,1-2.4,1.54-3.55s1.32-2.19,2-3.37a7.53,7.53,0,0,1,1.46,1c1.76,2,3.24,1.08,4-1.07.59-1.55,1.25-3.08,1.89-4.61.2-.45.77-.52,1.39-.19s.93.75,1.42.8c1.08.11,2.26-.27,3.24,0a11.81,11.81,0,0,1,2.74,1.83,1.34,1.34,0,0,0,1.75-.82,3.56,3.56,0,0,0,.18-.52,12.8,12.8,0,0,0-2.42-10,3,3,0,0,0-2.89-1.29c-8.18,1.12-15.83-1.1-23.26-4a91,91,0,0,1-19-10.37A60.41,60.41,0,0,1,585.7,51c-.31-.46-.66-.9-1-1.34a1,1,0,0,0-1.45-.18,19.66,19.66,0,0,0-5.14,9.66,3.45,3.45,0,0,0,0,.55,2,2,0,0,0,1.72,1.86c1.48,0,3,0,4.44.1a1.38,1.38,0,0,1,1.38,1.39c.08.92.05,1.86.21,2.77a4.26,4.26,0,0,0,.71,1.45,1.7,1.7,0,0,0,1.91.73c.67-.31,1.3-.73,2-1A9.21,9.21,0,0,1,592,66.62Z"/>
    <path d="M593.42,49.43h0l0,.05,0,0,.11.12c0-.06,0-.13,0-.2h0Z"/>
    <path d="M586.1,48.32a35.81,35.81,0,0,0,6,8c11.32,11.23,24.54,19,40.2,22.6a41.11,41.11,0,0,0,11.06.66c.94,0,1.41-1,1-2.06a4.8,4.8,0,0,0-.8-1.46,3.49,3.49,0,0,0-1.42-.73,2,2,0,0,0-1.09,0c-4.7,1.18-9.21.16-13.65-1.26A59.59,59.59,0,0,1,612,66.38a1.58,1.58,0,0,1-.75-1.17,1.34,1.34,0,0,1,0-.2h.15a3.13,3.13,0,0,1,1.94.59,75.65,75.65,0,0,0,10.81,5.67,32.14,32.14,0,0,0,12.89,3,26,26,0,0,0,4.4-.47,1.64,1.64,0,0,0,1-1.15,4.71,4.71,0,0,0-1.76-4.94c-.55-.41-1.21-.71-1.43-1.41h.38a1.29,1.29,0,0,0,1-1.16,2.74,2.74,0,0,0-.15-1.1c-1.28-3.58-.49-7,1-10.26a15.52,15.52,0,0,1,7.1-7.56A10.53,10.53,0,0,1,652.2,45a15.18,15.18,0,0,1,12.36,3.77A31.79,31.79,0,0,1,670.08,55c5.4,8.08,7.79,40.83,8.08,41.25,5.39-4.52,18.48-8.75,37-5.31a6.38,6.38,0,0,1,5.3,5.11,2.78,2.78,0,0,1-.37,2.61c-.67.88-1.4,1.72-2,2.64a2.69,2.69,0,0,0,.63,3,11.75,11.75,0,0,0,1.38.91,16.14,16.14,0,0,1,2.45,1.26c2.93,2.38,4.58,5.42,4,9.27a9.81,9.81,0,0,1-7.28,8.3,8.27,8.27,0,0,1-3.86.19c-3.78-.73-5.31-1.77-4.43-6a8.55,8.55,0,0,1,.32-1.06c0-.15.21-.39.3-.38.33,0,.81.07,1,.28.39.61.57,1.37,1,1.95a2.18,2.18,0,0,0,1.33.8c1.27.17,2.41-.71,3.79-.48,1,.16,2.26-1.21,2.16-2.16a23.51,23.51,0,0,1,.11-4.89,2.48,2.48,0,0,0-.92-1.91c-1.51-1.06-3.17-1.91-5-3a15.16,15.16,0,0,0-.9-3.5c-.64-1.25-.44-2.53-.68-3.79a3.14,3.14,0,0,0-3.75-2.47,2.38,2.38,0,0,0-1.42.76,14.31,14.31,0,0,0-1.77,3.43c-1.11,3.54-2.15,7.11-3,10.7a16.94,16.94,0,0,1-1.86,5.2,6.62,6.62,0,0,0-.73,5.37,3.66,3.66,0,0,0,.94,1.94,2.88,2.88,0,0,1,1.19,2.9,4.64,4.64,0,0,0,.07,1.11,4,4,0,0,0,2.7,3.24c1.22.44,2.47.77,3.81,1.19.34,1,.68,2,1,3,0,1.7-1.09,3.09-1.47,4.77.62.94,1.23,1.84,1.89,2.83a28.86,28.86,0,0,0-3,4.55,30.87,30.87,0,0,0-1.32,5.38c-.48,2-1.28,3.91-1.07,6a3.64,3.64,0,0,0,.54,2.08,6.6,6.6,0,0,1,1.85,3.92A3.93,3.93,0,0,0,709,168a2.33,2.33,0,0,0,2.53.68c1.17-.34,2.15-1.93,3.48-.95,1.13.84.7,2.4.93,3.66a4.08,4.08,0,0,0,1.54,2.87,3.18,3.18,0,0,1,1.39,2.85,29.58,29.58,0,0,0,1,8.27c.18.53.34,1.06.55,1.57A3.51,3.51,0,0,0,724.6,189a2.57,2.57,0,0,0,2.15-2.23,7.08,7.08,0,0,0,0-1.66,5.3,5.3,0,0,1,.92-4.73,6.15,6.15,0,0,0,.67-1.52,3,3,0,0,0-.12-2.68c-.6-1.15-1.26-2.27-1.84-3.42a1.85,1.85,0,0,1,0-2.11c1.75-2.07,2.32-4.6,3-7.1a3,3,0,0,1,2.68-2.47A4.34,4.34,0,0,0,735.6,158a8.35,8.35,0,0,1,1.5-2.94c1.88-1.95,2.7-4.42,3.73-6.79a4.18,4.18,0,0,0-.88-5.1c-.1-.1-.08-.33-.15-.59a32.61,32.61,0,0,0,3.69-16,58.17,58.17,0,0,0-1-12.76,20,20,0,0,1-.46-2.07v0s0,0,0,0,0-.09,0-.14h0a.81.81,0,0,1,0-.22h0a3.48,3.48,0,0,1,.15-1.27c.33.19.78.29.93.56s.2.38.29.56h0c.95.47,3,5.79,4.74,11.12.16.48.32,1,.47,1.44,1.37,4.2,2.5,8.12,2.75,9.35.58,2.93-4.37,1-6.7,13.76h0c-1.07,26.26,24,28,33.87,24.53,9.21-3.28,24.73-22.16-3.15-39-.4-.24-1.32,0-1.85,0a10.73,10.73,0,0,0-2.33.81h0l-.16.07a3.64,3.64,0,0,0-2,3.13c-.17,1.75,0,3.34,1.77,4.32l0,0a7.08,7.08,0,0,1,2.7,2.73h0c1.22,1.56,2,3.34.15,4.12h0a1.72,1.72,0,0,1-.8.34,5.63,5.63,0,0,1-3.75-.73,10.55,10.55,0,0,1-3.87-3.92,5.54,5.54,0,0,1-.68-2.08c-.09-1.29,0-2.59,0-3.9a53.94,53.94,0,0,0-.39-7.76s0,0,0,0a91,91,0,0,0-2-9.38c0-.12-.07-.24-.1-.35a70.38,70.38,0,0,0-3.61-9.37,52.36,52.36,0,0,0-8.32-13.14c-.69-.78-1.4-1.53-2.14-2.24a30.38,30.38,0,0,0-7.43-5h0a15.18,15.18,0,0,0-1.69-.55,6.25,6.25,0,0,1-1.26-.53c-.87-.49-1.71-1.14-2.6-1.59a2.34,2.34,0,0,0-2.64-.08c-2.6,2.1-5.53,1.78-8.48,1.18a13.81,13.81,0,0,1-2.63-.89c-5.79-2.45-23.21-4.86-31.72-.27-.38.21,1.85-3.75,2.42-4.69a98,98,0,0,1,10.88-14.8,61.25,61.25,0,0,1,14-11.83c1.9-1.14,3.89-2.14,5.89-3.13,7.43-3.67,15.34-4.38,23.36-3.11a32,32,0,0,1,16.67,8.42c5.88,5.39,9.87,12,12.91,19.29.43,1,.83,2.06,1.17,3.11A4,4,0,0,1,769.69,84a1.76,1.76,0,0,0-2.85-.07,8.08,8.08,0,0,0-2.15,4.44A13.67,13.67,0,0,0,773,102.72a11.42,11.42,0,0,0,6.52,1c4.26-.81,6.88-3.51,8.39-7.33A17.78,17.78,0,0,0,789.2,91a46.41,46.41,0,0,1,.8-4.93c.08-.43,1-.68,1.41-.39,1.35,1,2.66,2,4.06,2.94a18.13,18.13,0,0,0,6.63,2.75c5.24,1,9-.76,11.68-5.37,3.51-6,1-13.62-3.39-17.13a11,11,0,0,0-5.06-2.18,2.23,2.23,0,0,0-2.69,2c0,.37.12.75.11,1.11a4.32,4.32,0,0,1-4.21,4.24,3.23,3.23,0,0,1-2.49-1.81C794,68.33,744.93-9.21,684.58,62.68c-9-27.18-20.69-35.37-33.12-36.57-7-.68-10.48.06-28.6,6.6-2.79,1-18.43,6.7-25.91,6-4.46-.39-3.84,1-2.88,2.44.72,1,2.58,2.17,2.09,2.67-.34.35-3-1.55-4.13-2.7-.44-.46-1.45-.16-1.85.47a1.8,1.8,0,0,0-.1,2c1,1.51,2.15,3,3.15,4.46a3.62,3.62,0,0,1,.35,1.31,3,3,0,0,1,.42.07l-.42-.06c0,.07,0,.14,0,.2h0l-.18,0a4.34,4.34,0,0,1-2-1.62c-.88-.95-1.71-1.94-2.62-2.85a1.33,1.33,0,0,0-1.57,0A2.28,2.28,0,0,0,586.1,48.32Z"/>
    <path d="M593.42,49.44a1.48,1.48,0,0,0,0,.19l.18,0h0l-.11-.12,0,0Z"/>
    <path d="M593.42,49.44a1.48,1.48,0,0,0,0,.19l.18,0h0c0-.06,0-.13,0-.2l-.15,0Z"/>
  </g>
  <path class="cls-1" d="M422.54,56.39c20.5,11.68,42.28,40.49,52.68,46.5,18.7,10.8,35.37-3.76,30.78,8.86-12.86,15.43-43.08,3.07-52.62-9.63C430.54,71.75,425,86.27,423.52,91.64s6.51,15,12,29.37c7,18.35,3.12,113.46,1.33,116.23-2.32,3.58-30.31,6-35.06-2.39-5.46-9.67-14.64-103.14-13-114.75s8.42-21.44,6.86-27.81c-7.39-16.56-16.07-4.67-32.08,16.87-18.56,20.66-30.4,15.2-36.62,14s-2.79-9.69,1.88-9.71c18-1.26,21.93-5.77,36.44-29.44s26.89-27.23,26.89-27.23c2.74-2,3.67-3.6,3-6.88-.28-1.32-13-30.19,12.09-30.29,22.12-.08,14,27.82,13.36,30.19A6.54,6.54,0,0,0,422.54,56.39Z"/>
</svg>
