<svg id="Livello_1" data-name="Livello 1" xmlns="http://www.w3.org/2000/svg" viewBox="0 0 841.89 841.89">
  <defs>
    <style>
      .cls-1 {
        fill: #231f20;
      }
    </style>
  </defs>
  <title>Glos</title>
  <g>
    <path class="cls-1" d="M393.92,678.47c.47.45-6.62,3.27-20.36,3.27s-20.82-2.82-20.36-3.27a4.33,4.33,0,0,1,3.63-1c8.73,1.52,12.54,2.11,16.73,2.11s8-.59,16.74-2.11A4.31,4.31,0,0,1,393.92,678.47Z"/>
    <path class="cls-1" d="M412.87,734c7.46,14.8-2.49,36.38-2.25,39.08s-3.27,2.7-3.2-.07-2.73-7.41-3.59-9.89c-1.76-5.13-2.68-14.24-1.56-21.65s4.49-10.26,4.49-10.26c-.27-4.54,8.6-42.74,4.78-46.19s-18.38,9-21.82,14.63c-2.3,3.77-4.23,12.89,1.63,17.61,8,6.4,11.85,11.14,13.46,13.41,0,0-2.61,1.48-4.22,10.74-2.16,12.48,2.34,23.83,2.55,24.6-1.87,7.19-7.43,25.66-16.52,30.93-7.38,4.25,7.59,18.21,7.59,18.78,0,1.51-8.23,8.19-20.65,8.19s-20.69-6.68-20.65-8.19c0-.57,15-14.53,7.6-18.78-9.1-5.27-14.65-23.74-16.52-30.93.2-.77,4.7-12.12,2.55-24.6-1.61-9.26-4.22-10.74-4.22-10.74,1.6-2.27,5.48-7,13.46-13.41,5.86-4.72,3.93-13.84,1.62-17.61-3.43-5.6-18-18.07-21.81-14.63s5.05,41.65,4.78,46.19c0,0,3.38,2.85,4.49,10.26s.2,16.52-1.57,21.65c-.85,2.48-3.65,7.12-3.59,9.89s-3.41,2.65-3.19.07-9.72-24.28-2.25-39.08c3.66-7.29-16.84-52-4-57.87,12.47-5.78,24.68,10.57,25.32,11.44-.38-.65-2.82-4.21-2.94-6.51,7.83,3.4,20.94,2.9,20.94,2.9s13.12.5,20.95-2.9c-.12,2.3-2.56,5.86-2.95,6.51.65-.87,12.85-17.22,25.33-11.44C429.71,682,409.2,726.69,412.87,734Z"/>
  </g>
  <g>
    <path class="cls-1" d="M108.37,515.28c.46.45-6.63,3.28-20.37,3.28s-20.82-2.83-20.36-3.28a4.33,4.33,0,0,1,3.63-1c8.73,1.52,12.54,2.11,16.73,2.11s8-.59,16.74-2.11A4.33,4.33,0,0,1,108.37,515.28Z"/>
    <path class="cls-1" d="M127.31,570.79c7.46,14.8-2.49,36.38-2.25,39.08s-3.27,2.7-3.19-.07-2.74-7.4-3.59-9.89c-1.77-5.13-2.69-14.23-1.57-21.65S121.2,568,121.2,568c-.27-4.54,8.6-42.75,4.78-46.19s-18.38,9-21.81,14.63c-2.31,3.76-4.24,12.89,1.62,17.6,8,6.41,11.86,11.14,13.46,13.41,0,0-2.61,1.48-4.22,10.75-2.15,12.47,2.35,23.82,2.55,24.59-1.87,7.19-7.42,25.67-16.52,30.93-7.37,4.25,7.59,18.22,7.6,18.79,0,1.51-8.24,8.18-20.66,8.18S67.32,654,67.35,652.52c0-.57,15-14.54,7.6-18.79C65.85,628.47,60.3,610,58.43,602.8c.2-.77,4.7-12.12,2.55-24.59-1.61-9.27-4.22-10.75-4.22-10.75,1.6-2.27,5.48-7,13.46-13.41,5.86-4.71,3.93-13.84,1.62-17.6-3.43-5.6-18-18.08-21.81-14.63s5,41.65,4.78,46.19c0,0,3.38,2.84,4.49,10.25s.2,16.52-1.57,21.65c-.85,2.49-3.65,7.12-3.59,9.89s-3.41,2.65-3.19.07-9.71-24.28-2.25-39.08c3.66-7.28-16.84-51.94-4-57.87,12.47-5.77,24.68,10.57,25.33,11.44-.39-.65-2.83-4.21-3-6.51,7.83,3.41,20.94,2.9,20.94,2.9s13.12.51,21-2.9c-.12,2.3-2.56,5.86-3,6.51.65-.87,12.86-17.21,25.33-11.44C144.15,518.85,123.65,563.51,127.31,570.79Z"/>
  </g>
  <g>
    <path class="cls-1" d="M489.11,352.1c.47.44-6.63,3.27-20.36,3.27s-20.83-2.83-20.36-3.27a4.29,4.29,0,0,1,3.63-1.05c8.73,1.52,12.54,2.11,16.73,2.11s8-.59,16.73-2.11A4.29,4.29,0,0,1,489.11,352.1Z"/>
    <path class="cls-1" d="M508.06,407.61c7.46,14.79-2.5,36.37-2.26,39.07s-3.27,2.7-3.19-.07-2.74-7.4-3.59-9.89c-1.76-5.12-2.68-14.23-1.57-21.64s4.49-10.26,4.49-10.26c-.27-4.54,8.61-42.74,4.78-46.19s-18.37,9-21.81,14.63c-2.3,3.77-4.24,12.89,1.63,17.6,8,6.41,11.85,11.14,13.46,13.42,0,0-2.62,1.48-4.22,10.74-2.16,12.47,2.34,23.82,2.54,24.6-1.86,7.19-7.42,25.66-16.52,30.93-7.37,4.24,7.59,18.21,7.6,18.78,0,1.51-8.23,8.19-20.65,8.19s-20.69-6.68-20.65-8.19c0-.57,15-14.54,7.6-18.78-9.1-5.27-14.66-23.74-16.52-30.93.2-.78,4.7-12.13,2.54-24.6-1.6-9.26-4.22-10.74-4.22-10.74,1.61-2.28,5.49-7,13.46-13.42,5.87-4.71,3.93-13.83,1.63-17.6-3.44-5.6-18-18.07-21.81-14.63s5.05,41.65,4.78,46.19c0,0,3.37,2.84,4.49,10.26s.19,16.52-1.57,21.64c-.85,2.49-3.66,7.13-3.59,9.89s-3.42,2.66-3.19.07-9.72-24.28-2.26-39.07c3.67-7.29-16.84-51.95-4-57.87,12.47-5.78,24.67,10.56,25.32,11.44-.39-.65-2.83-4.21-2.94-6.52,7.83,3.41,20.94,2.91,20.94,2.91s13.11.5,20.94-2.91c-.11,2.31-2.55,5.87-2.94,6.52.65-.88,12.85-17.22,25.32-11.44C524.9,355.66,504.39,400.32,508.06,407.61Z"/>
  </g>
  <g>
    <path class="cls-1" d="M203.55,188.91c.47.45-6.63,3.27-20.36,3.27s-20.82-2.82-20.36-3.27a4.32,4.32,0,0,1,3.63-1c8.73,1.52,12.54,2.11,16.73,2.11s8-.59,16.73-2.11A4.32,4.32,0,0,1,203.55,188.91Z"/>
    <path class="cls-1" d="M222.5,244.42c7.46,14.8-2.5,36.38-2.25,39.08s-3.28,2.7-3.2-.07-2.74-7.4-3.59-9.89c-1.76-5.13-2.68-14.24-1.57-21.65s4.49-10.26,4.49-10.26c-.27-4.54,8.61-42.74,4.78-46.19s-18.37,9-21.81,14.64c-2.3,3.76-4.24,12.89,1.63,17.6,8,6.4,11.85,11.14,13.46,13.41,0,0-2.61,1.48-4.22,10.74-2.16,12.48,2.34,23.83,2.54,24.6-1.86,7.19-7.42,25.67-16.51,30.93-7.38,4.25,7.58,18.21,7.59,18.78,0,1.51-8.23,8.19-20.65,8.19s-20.69-6.68-20.65-8.19c0-.57,15-14.53,7.6-18.78-9.1-5.26-14.65-23.74-16.52-30.93.2-.77,4.7-12.12,2.54-24.6-1.6-9.26-4.22-10.74-4.22-10.74,1.61-2.27,5.49-7,13.46-13.41,5.87-4.71,3.93-13.84,1.63-17.6-3.43-5.61-18-18.08-21.81-14.64s5.05,41.65,4.78,46.19c0,0,3.38,2.85,4.49,10.26s.19,16.52-1.57,21.65c-.85,2.49-3.66,7.12-3.59,9.89s-3.42,2.65-3.19.07-9.72-24.28-2.26-39.08c3.67-7.29-16.84-51.95-4-57.87,12.47-5.78,24.67,10.57,25.32,11.44-.39-.65-2.82-4.21-2.94-6.51,7.83,3.4,20.94,2.9,20.94,2.9s13.11.5,20.94-2.9c-.11,2.3-2.55,5.86-2.94,6.51.65-.87,12.85-17.22,25.33-11.44C239.34,192.47,218.83,237.13,222.5,244.42Z"/>
  </g>
  <g>
    <path class="cls-1" d="M722.59,515.28c.46.45-6.63,3.28-20.36,3.28s-20.83-2.83-20.36-3.28a4.3,4.3,0,0,1,3.62-1c8.73,1.52,12.55,2.11,16.74,2.11s8-.59,16.73-2.11A4.33,4.33,0,0,1,722.59,515.28Z"/>
    <path class="cls-1" d="M741.53,570.79c7.47,14.8-2.49,36.38-2.25,39.08s-3.27,2.7-3.19-.07-2.74-7.4-3.59-9.89c-1.77-5.13-2.68-14.23-1.57-21.65S735.42,568,735.42,568c-.27-4.54,8.6-42.75,4.78-46.19s-18.38,9-21.81,14.63c-2.31,3.76-4.24,12.89,1.62,17.6,8,6.41,11.86,11.14,13.46,13.41,0,0-2.61,1.48-4.22,10.75-2.15,12.47,2.35,23.82,2.55,24.59-1.87,7.19-7.42,25.67-16.52,30.93-7.37,4.25,7.59,18.22,7.6,18.79,0,1.51-8.24,8.18-20.65,8.18s-20.69-6.67-20.66-8.18c0-.57,15-14.54,7.6-18.79-9.1-5.26-14.65-23.74-16.52-30.93.21-.77,4.71-12.12,2.55-24.59-1.61-9.27-4.22-10.75-4.22-10.75,1.6-2.27,5.49-7,13.46-13.41,5.86-4.71,3.93-13.84,1.62-17.6-3.43-5.6-18-18.08-21.81-14.63s5,41.65,4.78,46.19c0,0,3.38,2.84,4.49,10.25s.2,16.52-1.56,21.65c-.86,2.49-3.66,7.12-3.59,9.89s-3.42,2.65-3.2.07-9.71-24.28-2.25-39.08c3.66-7.28-16.84-51.94-4-57.87,12.47-5.77,24.68,10.57,25.33,11.44-.39-.65-2.83-4.21-3-6.51,7.83,3.41,21,2.9,21,2.9s13.11.51,20.94-2.9c-.12,2.3-2.56,5.86-2.94,6.51.64-.87,12.85-17.21,25.32-11.44C758.37,518.85,737.87,563.51,741.53,570.79Z"/>
  </g>
  <g>
    <path class="cls-1" d="M800.92,25.73c.47.44-6.63,3.27-20.36,3.27s-20.82-2.83-20.36-3.27a4.3,4.3,0,0,1,3.63-1.05c8.73,1.52,12.54,2.11,16.73,2.11s8-.59,16.73-2.11A4.29,4.29,0,0,1,800.92,25.73Z"/>
    <path class="cls-1" d="M819.87,81.23c7.46,14.8-2.5,36.38-2.25,39.08s-3.27,2.7-3.2-.07-2.74-7.4-3.59-9.89c-1.76-5.13-2.68-14.23-1.56-21.65s4.49-10.25,4.49-10.25c-.28-4.54,8.6-42.75,4.78-46.19s-18.38,9-21.82,14.63c-2.3,3.76-4.23,12.89,1.63,17.6,8,6.41,11.85,11.14,13.46,13.41,0,0-2.61,1.49-4.22,10.75-2.16,12.47,2.34,23.82,2.55,24.6-1.87,7.19-7.43,25.66-16.52,30.92-7.38,4.25,7.58,18.22,7.59,18.79,0,1.51-8.23,8.18-20.65,8.18s-20.69-6.67-20.65-8.18c0-.57,15-14.54,7.6-18.79-9.1-5.26-14.65-23.73-16.52-30.92.2-.78,4.7-12.13,2.54-24.6-1.6-9.26-4.21-10.75-4.21-10.75,1.6-2.27,5.48-7,13.46-13.41,5.86-4.71,3.93-13.84,1.62-17.6-3.43-5.6-18-18.08-21.81-14.63s5,41.65,4.78,46.19c0,0,3.38,2.84,4.49,10.25s.19,16.52-1.57,21.65c-.85,2.49-3.66,7.12-3.59,9.89s-3.41,2.65-3.19.07S733.79,96,741.25,81.23c3.67-7.28-16.83-51.94-4-57.87,12.47-5.77,24.68,10.57,25.32,11.44-.38-.65-2.82-4.21-2.94-6.51,7.83,3.41,20.94,2.9,20.94,2.9s13.12.51,20.94-2.9c-.11,2.3-2.55,5.86-2.94,6.51.65-.87,12.85-17.21,25.33-11.44C836.71,29.29,816.2,74,819.87,81.23Z"/>
  </g>
  <g>
    <path class="cls-1" d="M298.74,25.73c.46.44-6.63,3.27-20.36,3.27S257.55,26.17,258,25.73a4.29,4.29,0,0,1,3.63-1.05c8.72,1.52,12.54,2.11,16.73,2.11s8-.59,16.73-2.11A4.29,4.29,0,0,1,298.74,25.73Z"/>
    <path class="cls-1" d="M317.69,81.23c7.46,14.8-2.5,36.38-2.26,39.08s-3.27,2.7-3.19-.07-2.74-7.4-3.59-9.89c-1.76-5.13-2.68-14.23-1.57-21.65s4.49-10.25,4.49-10.25c-.27-4.54,8.6-42.75,4.78-46.19s-18.38,9-21.81,14.63c-2.3,3.76-4.24,12.89,1.62,17.6,8,6.41,11.86,11.14,13.47,13.41,0,0-2.62,1.49-4.22,10.75-2.16,12.47,2.34,23.82,2.54,24.6-1.87,7.19-7.42,25.66-16.52,30.92-7.37,4.25,7.59,18.22,7.6,18.79,0,1.51-8.24,8.18-20.65,8.18s-20.69-6.67-20.65-8.18c0-.57,15-14.54,7.59-18.79-9.09-5.26-14.65-23.73-16.52-30.92.21-.78,4.71-12.13,2.55-24.6-1.61-9.26-4.22-10.75-4.22-10.75,1.61-2.27,5.49-7,13.46-13.41,5.87-4.71,3.93-13.84,1.63-17.6-3.44-5.6-18-18.08-21.82-14.63s5.06,41.65,4.79,46.19c0,0,3.37,2.84,4.49,10.25s.19,16.52-1.57,21.65c-.85,2.49-3.66,7.12-3.59,9.89s-3.42,2.65-3.2.07S231.61,96,239.07,81.23c3.67-7.28-16.84-51.94-4-57.87,12.48-5.77,24.68,10.57,25.33,11.44-.39-.65-2.83-4.21-2.94-6.51,7.83,3.41,20.94,2.9,20.94,2.9s13.11.51,20.94-2.9c-.12,2.3-2.56,5.86-2.94,6.51.65-.87,12.85-17.21,25.32-11.44C334.52,29.29,314,74,317.69,81.23Z"/>
  </g>
</svg>
