<svg id="Livello_1" data-name="Livello 1" xmlns="http://www.w3.org/2000/svg" viewBox="0 0 841.89 841.89">
  <title>Glos</title>
  <g>
    <path d="M616.84,560.3c9.17,1,18.35,1.56,25.34-6.56h4.75c6.94-.62,12.65-5,14.26-11.56,1.57-6.84-1.28-13.12-7.6-17.16a7.43,7.43,0,0,0-1.57-.95c1.28-4.66.33-9.37-1.28-14a20.5,20.5,0,0,0,2.52-1,22.42,22.42,0,0,0,13-10.31,6.76,6.76,0,0,1,3.47-3.14c6.33-2.19,9.18-7.18,10.13-13.74a21.69,21.69,0,0,0-4.42-16.21c-.33-.62-.95-1.23-1.28-1.85,4.75-7.51,4.75-14,.33-21.82,1.9-1.57,3.8-3.14,5.7-4.66a33.69,33.69,0,0,0,4.76-5.33,82,82,0,0,1-6-5.61c-5.09,5.33-10.46,10.6-15.83,16.21a47.3,47.3,0,0,1,4.75,3.76c6,5.94,4.42,13.12-3.8,15.93a27.59,27.59,0,0,1-3.47.95c1.28,1,2.23,1.85,3.18,2.52,1.9,1.57,3.81,2.8,5.37,4.37,3.19,3.14,4.76,7.18,3.47,11.55s-4.75,6.85-9.5,7.8c-.62,0-1,.33-1.9.33-1.91,5.33-5.09,9.37-10.46,11.55a19.37,19.37,0,0,1-15.5-1.23c-1.29,3.14-2.52,6.23-4.14,9.36a7.33,7.33,0,0,0,2.52.34c1,0,2.24-.34,3.19-.34a7.07,7.07,0,0,1,7.6,4,7.84,7.84,0,0,1-.95,9c-.33.33-1,.61-1.28,1.23-1.29,1.57-.95,2.81,1,3.43,1.28.61,2.52.61,3.8,1.23,4.42,2.19,6.33,5.61,5.37,10-.95,5-4.42,7.79-9.17,7.79a17.44,17.44,0,0,1-7.89-1.85c-.62-.33-1-.33-1.57-.62-2.52,4-5.37,7.51-10.13,9-5.08,1.57-8.55-1.57-12.36-4.37-1.28,3.42-2.52,6.56-3.8,10,4.42,4,5.7,9.66,6,15.31,0,.62.33,1.57,0,2.19-1.28,2.8.33,4.37,2.52,5.61a16.09,16.09,0,0,1,6.32,6.84c3.19,6,.33,11.84-6.32,13.41a22,22,0,0,1-9.18-.33c-1-.33-2.23-.62-3.47-1-1.57,7.79-4.75,14.36-13.93,15.92,1.29,5.33,2.24,10.94.34,16.55,1.28.33,2.23.62,3.18,1a10.78,10.78,0,0,1,6.94,4.66c3.19,3.75,2.24,7.79-2.23,10-2.52,1.24-5.37,1.57-7.89,2.19-1.57.33-3.19,0-5.09,0-3.19,5.94-8.56,7.8-14.88,8.41-6.66.34-11.41-2.52-15.21-8.41-1.91,2.8-3.48,5.32-5.38,8.13,1.29,1,2.52,1.57,3.81,2.52a10.4,10.4,0,0,1,5.08,5.94c1.57,4.37,1.9,8.42.34,12.79a11,11,0,0,1-4.76,5.94c-2.52,1.57-2.52,1.86-.95,4.38a15.18,15.18,0,0,1,2.24,9c-.62,6.23-5.09,9-10.75,5.94a19,19,0,0,1-9.17-10c-.62-1.57-1.29-3.43-2.24-5.61-2.85,2.18-5.7,4-8.56,5.94-2.85,1.57-6,2.8-8.84,4,7.27,10,6.94,18.4-.62,24-10.46-12.17-20.25-25-33.56-34.33a3.66,3.66,0,0,1,2.23-3.75c3.19-1.57,6-3.42,9.18-4.66a11.18,11.18,0,0,0,5.37-4.66,27.4,27.4,0,0,1,15.21-14.36c2.52-1,4.76-2.18,7.28-3.42a19.65,19.65,0,0,0,8.84-9.36,90.66,90.66,0,0,0,3.47-8.42,18.28,18.28,0,0,1,9.79-10.6c1.91-.95,3.81-1.85,5.71-2.81a8.48,8.48,0,0,0,5.37-8.13c0-1.85-.33-3.42-.33-5.32-.33-2.19-.33-4.37-.62-6.56-.33-7.51,2.52-13.12,8.56-17.5,1.9-1.23,3.8-2.52,6-3.75,1.9-1.24,4.13-2.19,6-3.43,5.37-3.13,7.61-7.79,7.27-13.73a39,39,0,0,0-.95-8.42c-2.23-18.4,4.42-33.09,19.64-44,1.57-1,3.18-2.19,4.75-3.14a8.61,8.61,0,0,0,4.14-7.8,72,72,0,0,0-.62-7.79,5.07,5.07,0,0,0-.33-2.19c-1.29-9.37,1.9-17.16,8.84-23.72,1.28-1.24,2.52-2.52,3.8-3.76a29.08,29.08,0,0,0,8.84-12.5,39.25,39.25,0,0,0,1.91-8.13,33,33,0,0,1,5.37-14c10.12-15,24.39-24,42.4-26.81,5.71-1,11.41-1.24,17.07-1.85a12.86,12.86,0,0,0,3.19-.62c2.85-.95,5.37-.33,8.22,1.24a89.57,89.57,0,0,1,20.59,15.3,13.88,13.88,0,0,1,2.52,3.43c5.37,9,9.51,18.73,11.07,29a69.54,69.54,0,0,1-4.42,36.79c-1,2.19-2.52,4.05-3.8,6.23-.33.62-1.28,1.24-1.28,1.86a2.43,2.43,0,0,0,.33,2.18c.33.62,1.57.62,2.23.34.62,0,1.29-.95,1.9-1.24A36.76,36.76,0,0,0,744.06,486a65.67,65.67,0,0,0,4.42-17.78,12.52,12.52,0,0,1,.95-4.37c.62,1.57,1.29,3.42,1.9,5,3.19,10.32,4.42,20.92,2.24,31.52a38.82,38.82,0,0,1-2.85,8.75,81.84,81.84,0,0,1-7.61,12.17c-2.85,4-6,7.51-11.08,9-.62,0-1.28.62-1.28.95a5.1,5.1,0,0,0,0,3.14,2.45,2.45,0,0,0,2.52.62,38.37,38.37,0,0,0,8.84-4.38c8.22-5.61,13.6-13.4,17.4-22.48a18,18,0,0,1,1.57-3.43c.62-.95,1.57-1.85,2.52-3.13a22.92,22.92,0,0,1,1.9,3.42,69.57,69.57,0,0,1,2.23,19.63A168,168,0,0,1,763,558.4a42.69,42.69,0,0,1-6.32,15c-1.29,1.85-.95,3.42,1.57,5,1.28-1.57,2.52-2.81,3.8-4.38a58.77,58.77,0,0,0,9.79-18.11c2.86-8.41,4.42-17.16,5.71-25.91a56.36,56.36,0,0,0-3.47-25.91c-.33-1.24-.62-2.19-.95-3.42a4,4,0,0,1,.33-1.57c1.57,1.24,2.52,2.19,3.8,3.14,4.14,3.13,7.89,6.56,12.36,9.65a17.7,17.7,0,0,0,5.38,2.8,8.49,8.49,0,0,0,4.13,0,3.34,3.34,0,0,0,1.29-2.52c0-.61-1.29-1.57-1.91-1.57-2.52.34-4.42-.95-6-2.52a163.62,163.62,0,0,1-13.59-11.55,30.71,30.71,0,0,1-8.56-15.59c-.33-1.57-.33-3.14-.62-5.61,1.29.95,1.9,1.23,2.24,1.85,7.27,8.13,15.83,14.36,24.67,20.3,1.57.95,3.47,1.86,5.37,2.81a5.5,5.5,0,0,0,2.24.62,1.94,1.94,0,0,0,2.52-1.57,2,2,0,0,0-1.57-2.52c-7.28-2.52-13-7.52-19-12.17a47.63,47.63,0,0,1-11.41-13.41c-3.19-5.33-6-10.6-8.56-15.93-9.51-22.15-24.67-39-44.93-52.1a6.05,6.05,0,0,1-1.56-1.24c13.31-2.81,26.29-5.32,39.88-5a95.75,95.75,0,0,1,29.76,5.32c13.6,5,24.06,13.74,31,26.53A26.89,26.89,0,0,1,823.88,440c1.28,10-3.18,17.5-12.36,22.16,1,.95,1.57,2.18,2.52,2.8,2.23,2.19,4.75,4.37,7.27,6.56,6.66,5.94,8.23,13.41,5.71,21.82-2.85,9-8.23,15.93-16.78,20.3-1.29.62-2.24,1.24-3.47,1.86a11.08,11.08,0,0,0,1.57,2.8c5.08,6.85,5.7,14.65,4.42,22.77-2.24,12.79-7.9,24-16.45,34a38.15,38.15,0,0,1-27.86,13.74c-8.84.61-14.88-3.76-19.92-10.32a4.34,4.34,0,0,1-.95-2.81,2.88,2.88,0,0,0-2.52-3.13c-8.23-2.52-11.7-8.13-10.46-16.55a15.09,15.09,0,0,0,.62-3.42c.33-2.19-1-3.42-2.86-2.81-2.85,1-4.42-.33-6.32-1.85-4.42-4.37-7.27-9.37-6.94-15.59,0-2.52,0-2.81-2.52-3.43a16.92,16.92,0,0,1-9.17-5.94,11.24,11.24,0,0,1-2.86-7.8c0-2.18-.62-3.13-2.85-3.75h-.62c-6.32-.95-10.46-6.23-7.89-13.74a18.82,18.82,0,0,1,4.75-7.51c.62-.62,1.29-.95,1.57-1.57,1-1.57.62-2.52-1-3.42A14.54,14.54,0,0,1,693.81,464c1.28-1.57,1.28-2.52.33-4.37-2.52-5.94-3.8-12.17-2.52-18.73a33,33,0,0,1,1.57-5,2.38,2.38,0,0,0-.33-3.14,2.47,2.47,0,0,0-3.47,0c-.95.95-2.24,2.19-2.52,3.42a23.36,23.36,0,0,0-1.57,8.13,31.72,31.72,0,0,0,2.85,17.78c-4.42,9.65-2.52,18.4,3.8,26.81a12.55,12.55,0,0,0-1.56,2.19,19,19,0,0,0-4.14,12.79A14.06,14.06,0,0,0,697,516.66a18.94,18.94,0,0,0,2.52.62c1.29,8.12,5.09,14,13.31,16.83,1.57,10,4.43,19,16.17,21.53.33,3.42.33,6.85.62,10a15.72,15.72,0,0,0,3.47,8.12,12,12,0,0,0,8.22,4.38c2.24,8.13,7.89,12.79,14.88,16.54-.33,2.52-1.9,4.38-3.47,6a4.84,4.84,0,0,0-1.28,5.94,35.88,35.88,0,0,1,3.18,11.22c.62,7.51-1.9,13.74-6.94,19.35-1.57,1.57-3.18,3.42-5.08,5.32a5.8,5.8,0,0,0,.61,1.57c2.52,7.18.95,13.74-4.13,19.35a11.58,11.58,0,0,0-2.85,6.23c-.62,6.85-4.14,11.84-9.51,15.93a4.26,4.26,0,0,0-1.9,4.66,60.75,60.75,0,0,1,1.56,7.51c.62,5.32-.61,10-5.37,12.5-4.42,2.52-6.32,5.94-6.94,10.94-.62,5.94-4.42,9.65-10.13,11.55-1.56.61-2.85.95-4.42,1.57a9.14,9.14,0,0,0-6.32,7.51c-.33,2.19-1,4-1.28,6.23a8,8,0,0,1-6.94,6.22,26.22,26.22,0,0,1-6.94.34,12.59,12.59,0,0,0-10.46,5c-2.24,2.52-4.43,5-7,7.51a14.71,14.71,0,0,1-11.07,4h-.62c-6-1-11.08,1.57-15.5,5.33-6.32,5.32-13.6,5.94-21.53,4.37a14.9,14.9,0,0,1-6.66-4c-4.42-4.37-7.27-9.65-10.13-15.31-.33-.33-.33-.62-.61-1.23a25.66,25.66,0,0,0-5.09-.62,195.27,195.27,0,0,0-46.54,3.75c-2.86.62-5.38,1.57-7.9,2.19-1.57-4.66-3.47-9.36-5.08-14.36,3.18-.33,6.32-.61,9.17-.95a128.22,128.22,0,0,0,50.35-18.4c3.18-1.85,6.65-4,9.79-5.94,9.51-5.32,19.3-6.56,30-4.66a29.67,29.67,0,0,0,20.58-3.75,49,49,0,0,0,6.33-4.66c1-1,2.23-1.86,1.28-3.43s-2.52-1.23-3.8-.95a20.14,20.14,0,0,0-3.81,1.24c-8.84,3.14-17.73,4.37-27.24,4.66a54.82,54.82,0,0,0-7.27.95h-1.9a7,7,0,0,1,1.28-1.85c.33-.34.95-.62,1.28-1,9.8-6,19.64-11.84,29.76-17.5,6.33-3.76,13.93-4.66,21.21-5.61,6-.62,12-1,17.73.62,1.28.33,2.52,0,2.85-1.57s-.61-2.19-1.9-2.52a33.06,33.06,0,0,0-6-.95c-11.08-.62-21.82,1.24-32.28,4-1,.33-2.23.62-3.8,1.24a25.18,25.18,0,0,0,1.28-2.19c13.93-14,30.71-22.49,51-23.39a29.32,29.32,0,0,1,7.27,1,2.62,2.62,0,0,0,3.18-1.24,2,2,0,0,0-1.56-2.8,14.6,14.6,0,0,0-5.09-1,85.1,85.1,0,0,0-21.82,2.19c-6.66,1.56-13,3.42-19.64,5a17.6,17.6,0,0,0-2.23.61c1-1.23,1.28-1.85,1.9-2.51,2.85-3.76,6-7.52,8.56-11.56a42.6,42.6,0,0,1,19-15.92c4.75-2.19,10.12-3.14,15.49-3.76h1.91c1.28-.33,1.9-.95,1.9-2.19s-.62-1.85-1.9-2.18h-2.86a98.39,98.39,0,0,0-25,6.56c-.95.33-1.57.61-3.19,1.23a15,15,0,0,1,2.52-4c2.85-4.37,6.94-7.51,11.08-10.6,7.89-6.23,17.07-9.65,26.57-12.5.62-.34,1.57-.34,2.24-.62,1.28-.62,1.57-1.24,1.28-2.52a1.88,1.88,0,0,0-2.52-1.24c-1,.34-1.9.62-2.85,1a165.55,165.55,0,0,0-26.91,10.61c-.62.33-1.57.61-2.85,1.23.33-1,0-1.85.33-2.52,4.76-8.41,10.46-15.92,18.35-21.53a12.13,12.13,0,0,1,4.42-2.19c5.71-1.85,11.08-3.42,16.79-5.33,1-.33,1.56-.33,2.52-.61a2,2,0,0,0,1.28-2.52c-.33-1.24-1-1.57-2.24-1.57-1,0-1.9.33-2.52.33a104.68,104.68,0,0,0-31.94,12.5c-.62.34-1.29.62-2.52,1.24a6,6,0,0,1,.33-2.52c.62-1.24,1.28-2.19,1.9-3.42a109.4,109.4,0,0,1,18-21.83c2.85-2.51,5.71-5,9.51-6.22a3.27,3.27,0,0,0,2.23-3.76c-1.28.33-2.52.33-3.8.62-6.94,1.57-13,5-18.68,9a32.79,32.79,0,0,0-3.47,3.42c-1,.95-1.57,1.86-3.19,1.24s-1.57-1.57-1.28-3.14c.61-5.94,1.57-11.84,2.23-17.49.62-5,1-10,1.9-15a51.5,51.5,0,0,1,3.19-9.36c1-2.52,1-4-.62-4.38-1.28-.61-2.52.34-3.19,2.81-1.28,4-2.52,7.8-3.8,11.84-.33,1.23-.62,2.8-2.85,3.42a25.45,25.45,0,0,1-1.9-3.14c-1.57-4-3.19-8.13-4.76-11.84a69.59,69.59,0,0,0-8.84-16.21,29.45,29.45,0,0,0-4.42-4.37c-1-.95-2.24-.95-2.85,0a2.39,2.39,0,0,0,0,3.14c10.74,10.93,14.88,25,17.73,39.31,1,4.66.33,9-.62,13.74a132.46,132.46,0,0,1-7.61,27.15,104.1,104.1,0,0,1-5.37,10.6,12.9,12.9,0,0,1-2.85,3.42,12,12,0,0,0-.95-2.52,71.44,71.44,0,0,0-10.46-25.91,21,21,0,0,0-2.52-3.13c-1-.95-1.9-1.24-2.85-.34a1.74,1.74,0,0,0-.33,2.81c.33.62,1,1.23,1.28,1.85,7.89,10.94,10.13,22.77,7.89,35.9-.33,1.57-.33,3.42-2.52,4.65-.33-1.23-.62-2.18-1-3.13-1.28-4.66-2.52-9.37-4.14-13.74-1-2.81-2.52-5.33-3.8-8.13a8.68,8.68,0,0,0-1.28-1.85,3.24,3.24,0,0,0-2.52,0c-.62.33-.62,1.56-.95,2.18a2.38,2.38,0,0,0,.61,1.24c7,11.55,8.56,23.72,6,36.8-.95,3.75-1.9,7.79-2.85,11.55a4.35,4.35,0,0,1-3.47,3.75c-.33-2.52-.62-5-1-7.18a55.39,55.39,0,0,0-6.65-20c0-.34-.34-.34-.34-.62-.95-1.85-2.23-2.19-3.47-1.57s-1.28,1.85-.33,3.76c.62,1.57,1.57,3.13,2.23,4.66,5.38,11.83,5.09,23.72.34,35.89a19.16,19.16,0,0,1-6,8.41c.33-2.52.61-4.65.95-6.56a52.24,52.24,0,0,0-1.9-23.1,6.42,6.42,0,0,0-1.29-2.52,2.5,2.5,0,0,0-2.52-.62c-.62.33-.95,1.24-1.28,2.19,0,.33.33,1,.33,1.23,3.47,8.42,2.52,16.83,0,25.3-4.75,14.64-13.6,26.53-25,36.79-10.12,9-21.82,15.6-33.84,21.21a164.49,164.49,0,0,1-36.42,11.55,3.22,3.22,0,0,0-1.57.33c-1.57-2.18-3.19-4.37-4.75-6.84,7.27-6.23,9.79-13.74,6.65-22.78,1.9-.95,3.8-1.57,5.37-2.52s2.86-.33,4.14,1a68.2,68.2,0,0,0,6.94,5.95,16.83,16.83,0,0,0,9.51,2.52,11.56,11.56,0,0,0,11.08-10.6c.33-5-1.57-9.37-4.76-13.41a12.48,12.48,0,0,0,6.66-7.18,19.77,19.77,0,0,0,0-12.17,18.74,18.74,0,0,1-.62-3.14,21.56,21.56,0,0,0,3.8.62,91.42,91.42,0,0,0,9.51,0c4.76-.62,7.89-3.14,10.13-7.18a5.41,5.41,0,0,1,.62-1c3.8-.33,7.27,0,10.45-.62,5.38-.62,8.85-3.75,10.75-8.75,1.9-5.32,1.28-10.6-2.85-14.64a26.63,26.63,0,0,0-4.76-3.42,3.12,3.12,0,0,1-1.9-3.14,62.77,62.77,0,0,0-1.28-7.8c-.34-2.18-.34-2.51,1.57-3.42a.81.81,0,0,0,.61-.33c3.19-1.24,5.38-3.14,6.33-6.56.61-2.19.95-2.81,3.18-2.19,9.18,3.14,20.59-6.84,19.64-18.11a14.2,14.2,0,0,0-6.66-10.94,8.5,8.5,0,0,1-3.8-6.56c-.34-3.75-1.9-7.51-2.85-11.22,5.08.95,4.42,0,4.13-1.23Z"/>
    <path d="M367.15,831.42H363c-14.55-.33-29.43-.33-44-.61a4.93,4.93,0,0,1-4.75-2.81c-7.28-14.64-9.18-29.62-3.47-45.26.33-.62.33-1.23.61-1.85,6-13.74,11.41-27.48,17.74-40.56,8.22-17.49,21.82-30.9,38-42.12,8.23-5.61,17.4-10.31,27.24-12.5a106.52,106.52,0,0,1,14.88-1.85,204.32,204.32,0,0,1,31,.61,64.19,64.19,0,0,1,26.91,9A117.06,117.06,0,0,1,507.35,731a82.3,82.3,0,0,1,7.89,15.31c4.76,10.93,9.18,21.82,13.6,32.75,2.85,6.56,5.09,13.12,5.37,20.3a62.25,62.25,0,0,1-7.27,31.19A4.16,4.16,0,0,1,522.8,833c-14.55-.33-28.81-.33-43.36-.33-2.85,0-3.18,0-4.13-2.81a31.79,31.79,0,0,1-1.29-7.51,11.85,11.85,0,0,1,11.7-11.84,51.87,51.87,0,0,1,6.66.62c2.23.33,3.18,0,3.18-1.24.33-1.57-.95-2.52-2.23-2.8a12.58,12.58,0,0,1-7.9-5c-1.56-1.86-2.85-4-1.9-6.57.34-1.85-.62-2.51-2.52-2.51a15.82,15.82,0,0,1-4.13-.34c-3.19-1-4.14-4-2.52-6.84s4.13-4,7.27-4.66c3.47-.62,3.47-1,1.9-4a17.15,17.15,0,0,1-.95-13.13c0-.33.62-.95.33-1.23,0-1,0-1.86-.61-2.19a2.69,2.69,0,0,0-2.24-.33c-2.85,1.85-5.37.62-7.6-1.24a15.13,15.13,0,0,1-5.09-11.55,7,7,0,0,1,1.9-5.32c1-1,1-1.86.33-3.14a2.06,2.06,0,0,0-2.85-.34,5.49,5.49,0,0,1-5.7.34,45.18,45.18,0,0,1-8.56-4.38A35.32,35.32,0,0,1,442,721.89a21.79,21.79,0,0,1-1.28-4,28.71,28.71,0,0,0-1.57-4.37,1.69,1.69,0,0,0-2.52-1,28.76,28.76,0,0,1,.62,5c0,5.61-3.81,8.42-8.85,6a2.42,2.42,0,0,0-3.18,0c-.95.61-.62,1.56-.34,2.8.62,2.52,0,3.76-2.23,4.37-1.9.62-4.42,0-5.09-1.57-.33-.61,0-1.85,0-2.8s0-2.19-.33-2.52c-.62-.33-1.9,0-2.85,0-.33,0-.62.33-1.29.62-3.8,1.57-6.94,0-7.6-3.76-.62-2.52,0-5,0-7.8a1.41,1.41,0,0,0-1.9,1,14.91,14.91,0,0,0-1.57,4c-.34,3.75-2.24,6.56-4.14,9.36-3.18,4.38-6.94,8.42-12,10.6-3.18,1.57-6.65,3.14-10.46.62a2,2,0,0,0-2.23.62c-.33.62-.62,2.19,0,2.52,2.23,2.19,2.23,5.32,1.9,8.13a14,14,0,0,1-4.42,8.75,16.74,16.74,0,0,1-3.8,2.52,7.43,7.43,0,0,1-3.81-.34c-.95-.33-1.9-1-2.85,0s-.62,1.86-.33,3.14a16.35,16.35,0,0,1,.33,10.32,14.59,14.59,0,0,1-1.28,3.42c-1.57,2.8-1.29,3.42,1.9,3.76a11,11,0,0,1,6.32,3.13c1.57,1.57,2.85,3.43,1.9,5.95s-3.18,2.8-5.37,3.13H362.4c-2.85,0-3.19.34-3.19,3.14a9.62,9.62,0,0,1-.95,4,12.42,12.42,0,0,1-8.22,6.56c-.62.33-1.29.33-1.9.62-1,.62-1.91,1.57-1.29,2.8.33,1.24,1.29,1.24,2.52,1.24a6.8,6.8,0,0,0,2.24-.62c2.52,0,5.08-.33,7.27,0a11.69,11.69,0,0,1,9.51,13.41c0,1.85-.95,4.37-1.57,6.85Z"/>
    <path d="M412.7,728.45c1.9,5.61,4.42,7.51,8.84,7.51s6.65-2.19,8.56-7.18c3.18,0,6.65-.33,9.17-3.14,6,9,13,16.83,24.39,18.12-1.28,12.17,5.37,20.3,13.93,21.82.33,4,.62,7.8,1,12.17A14.43,14.43,0,0,1,476,779c-2.85,1.57-5.37,3.75-6.32,6.84a8.08,8.08,0,0,0,4.42,10.32,42.58,42.58,0,0,0,4.75,1.57,25.69,25.69,0,0,0,1.91,4.66c.61,1.57,1.9,2.8,2.85,4.37-5.71,1.57-10.13,4.37-12.36,10-2.24,5.33-.95,10.32.33,15.6H429.19c.34-2.19.34-4,.62-5.61a68.62,68.62,0,0,1,15.83-29c3.19-3.76,7.61-6.56,11.7-9,.62-.34,1.57-1,2.23-1.24a1.67,1.67,0,0,0,.62-2.52,1.71,1.71,0,0,0-2.52-.62,20.37,20.37,0,0,0-2.23,1.24c-6.95,4-12.65,9-18.35,14.36-1,1-1.57,2.52-3.19,1.56-1.28-.61-.95-2.52-.62-3.75,1.29-5.61,3.47-10.6,7.61-14.64,4.13-3.76,8.22-7.52,13.31-10,.33-.33.95-.33,1.28-.62.34-.61.95-1.57.62-1.85a2.66,2.66,0,0,0-1.9-1.24,6.89,6.89,0,0,0-3.19,1.24c-4.75,2.52-8.55,5.94-12.36,9.37-.95,1-1.9,2.52-3.47,1.57s-1.28-2.81-.95-4c2.24-8.13,6.33-15,13.6-19.35.95-.61,1.9-1.23,1.28-2.52-.33-1.23-1.57-1.56-2.85-1.23-2.52,1-5.09,1.57-7.27,3.14-2.86,1.85-5.38,4.37-8.56,6.84.62-4.66-1.57-9.36.33-14,.62-1.57,1.29-2.81,1.9-4s.95-2.19-.33-3.14-2.52,0-3.18.95c-1.29,1.85-2.24,3.75-3.19,5.32-.62.95-.95,2.19-1.9,3.76a11.81,11.81,0,0,1-.62-2.52c0-1.57.33-3.14.33-4.66,0-2.19-.62-3.14-2.52-3.14-1.57,0-2.23.62-2.23,2.81a19.52,19.52,0,0,0,.33,4.37,3.84,3.84,0,0,1-.62,2.52c-1.28-2.18-2.23-4.66-3.47-6.84a19,19,0,0,0-1.9-2.52,2.54,2.54,0,0,0-2.23,0c-.62.33-.62,1.57-.62,2.18s.62,1.24,1.28,1.86c1.29,2.8,2.24,5.61,1.57,8.74-.33,2.52-.33,4.66-.62,7.52a14.93,14.93,0,0,0-2.52-2.19c-3.18-2.81-6.32-5.61-10.46-6.85a10.84,10.84,0,0,0-3.18-.61c-.62,0-1.9.61-1.9,1.23-.34.62.62,1.57.95,2.19a.32.32,0,0,1,.33.33c6.94,3.76,10.13,10.32,12.65,17.17a14.72,14.72,0,0,1,.62,5.32c0,1.9-1.29,2.19-2.86,1-.62-.33-.95-1.23-1.57-1.57-2.85-2.52-5.7-4.66-8.84-7.18a25.21,25.21,0,0,0-4.75-2.52c-1.9-.95-3.19-.61-3.47.62-.62,1.57.61,2.19,1.9,2.81a43.66,43.66,0,0,1,13.93,10.93c3.47,4,5.08,9,6,14.36v1.57c-.33,1.23-1.29,1.57-2.24.62l-1.9-1.86a68,68,0,0,0-17.4-14c-.62-.34-1.57-1-2.23-1.24a5.13,5.13,0,0,0-2.24.62,1.64,1.64,0,0,0,.34,2.52,6.67,6.67,0,0,0,2.23,1.23c6.32,3.43,11.7,7.8,15.21,14,3.81,6.84,7.61,13.74,11.08,20.59,1.28,2.8,2.23,5.6,1.57,8.74H371.91c.33-1.23.61-2.52.95-3.42,2.85-10.93-3.19-19.63-11.7-21.54a1,1,0,0,1-.62-.33c1.57-3.14,3.19-5.94,5.09-9.36a17.49,17.49,0,0,0,2.52-.62c6-1.86,8.22-7.8,4.75-13.12a17.75,17.75,0,0,0-7.6-6c.33-4,.62-8.13,1.28-12.17,5.09-.61,8.56-3.42,11.41-7.79a19,19,0,0,0,2.24-13.74c11.69-1.57,18.68-9,24.67-18.12,1.57,2.81,4.42,4.05,7.89,3.43Z"/>
    <path d="M290.56,737.48a5.54,5.54,0,0,0,2.52.62v.33c-.62-.33-1.57-.33-2.23-.61-.33,0-.33-.34-.62-.34Z"/>
    <path d="M270.6,644.21a48.71,48.71,0,0,1,2.85,4A4.19,4.19,0,0,1,270.6,644.21Z"/>
    <path d="M225.05,560.3c-9.17,1-18.35,1.56-25.34-6.56H195c-6.94-.62-12.65-5-14.26-11.56-1.57-6.84,1.28-13.12,7.6-17.16a7.43,7.43,0,0,1,1.57-.95c-1.28-4.66-.33-9.37,1.28-14a20.5,20.5,0,0,1-2.52-1,22.42,22.42,0,0,1-13-10.31,6.8,6.8,0,0,0-3.47-3.14c-6.33-2.19-9.18-7.18-10.13-13.74a21.69,21.69,0,0,1,4.42-16.21c.33-.62,1-1.23,1.28-1.85-4.75-7.51-4.75-14-.33-21.82-1.9-1.57-3.8-3.14-5.7-4.66A33.69,33.69,0,0,1,157,432a82,82,0,0,0,6-5.61c5.09,5.33,10.46,10.6,15.83,16.21a47.3,47.3,0,0,0-4.75,3.76c-6,5.94-4.42,13.12,3.8,15.93a27.59,27.59,0,0,0,3.47.95c-1.28,1-2.23,1.85-3.18,2.52-1.9,1.57-3.81,2.8-5.37,4.37-3.19,3.14-4.76,7.18-3.48,11.55s4.76,6.85,9.51,7.8c.62,0,1,.33,1.9.33,1.91,5.33,5.09,9.37,10.46,11.55a19.37,19.37,0,0,0,15.5-1.23c1.29,3.14,2.52,6.23,4.14,9.36a7.33,7.33,0,0,1-2.52.34c-1,0-2.24-.34-3.19-.34a7.07,7.07,0,0,0-7.6,4,7.84,7.84,0,0,0,1,9c.33.33.95.61,1.28,1.23,1.28,1.57.95,2.81-1,3.43-1.28.61-2.52.61-3.8,1.23-4.42,2.19-6.33,5.61-5.38,10,1,5,4.43,7.79,9.18,7.79a17.44,17.44,0,0,0,7.89-1.85c.62-.33.95-.33,1.57-.62,2.52,4,5.37,7.51,10.13,9,5.08,1.57,8.55-1.57,12.36-4.37,1.28,3.42,2.52,6.56,3.8,10-4.42,4-5.7,9.66-6,15.31,0,.62-.33,1.57,0,2.19,1.28,2.8-.33,4.37-2.52,5.61a16.09,16.09,0,0,0-6.32,6.84c-3.19,6-.33,11.84,6.32,13.41a22,22,0,0,0,9.18-.33c.95-.33,2.23-.62,3.47-1,1.57,7.79,4.75,14.36,13.93,15.92-1.29,5.33-2.24,10.94-.34,16.55-1.28.33-2.23.62-3.18,1a10.78,10.78,0,0,0-6.94,4.66c-3.19,3.75-2.24,7.79,2.23,10,2.52,1.24,5.37,1.57,7.89,2.19,1.57.33,3.19,0,5.09,0,3.19,5.94,8.56,7.8,14.88,8.41,6.66.34,11.41-2.52,15.21-8.41,1.91,2.8,3.48,5.32,5.38,8.13-1.29,1-2.52,1.57-3.81,2.52a10.4,10.4,0,0,0-5.08,5.94c-1.57,4.37-1.9,8.42-.34,12.79a11,11,0,0,0,4.76,5.94c2.52,1.57,2.52,1.86.95,4.38a15.18,15.18,0,0,0-2.24,9c.62,6.23,5.09,9,10.75,5.94a19,19,0,0,0,9.17-10c.62-1.57,1.29-3.43,2.24-5.61,2.85,2.18,5.7,4,8.56,5.94,2.85,1.57,6,2.8,8.84,4-7.28,10-6.94,18.4.62,24,10.46-12.17,20.25-25,33.56-34.33a3.66,3.66,0,0,0-2.23-3.75c-3.19-1.57-6-3.42-9.18-4.66a11.13,11.13,0,0,1-5.37-4.66,27.4,27.4,0,0,0-15.21-14.36c-2.52-1-4.76-2.18-7.28-3.42a19.65,19.65,0,0,1-8.84-9.36,90.66,90.66,0,0,1-3.47-8.42,18.28,18.28,0,0,0-9.79-10.6c-1.91-.95-3.81-1.85-5.71-2.81a8.48,8.48,0,0,1-5.37-8.13c0-1.85.33-3.42.33-5.32.33-2.19.33-4.37.62-6.56.33-7.51-2.52-13.12-8.56-17.5-1.9-1.23-3.8-2.52-6-3.75-1.9-1.24-4.13-2.19-6-3.43-5.37-3.13-7.61-7.79-7.27-13.73a39,39,0,0,1,.95-8.42c2.23-18.4-4.42-33.09-19.64-44-1.57-1-3.18-2.19-4.75-3.14a8.61,8.61,0,0,1-4.14-7.8,72,72,0,0,1,.62-7.79,5.07,5.07,0,0,1,.33-2.19c1.29-9.37-1.9-17.16-8.84-23.72l-3.8-3.76a29.08,29.08,0,0,1-8.84-12.5,38.63,38.63,0,0,1-1.91-8.13,33,33,0,0,0-5.37-14c-10.12-15-24.39-24-42.4-26.81-5.71-1-11.41-1.24-17.07-1.85a12.86,12.86,0,0,1-3.19-.62c-2.85-.95-5.37-.33-8.22,1.24a89.57,89.57,0,0,0-20.59,15.3,13.88,13.88,0,0,0-2.52,3.43c-5.37,9-9.51,18.73-11.07,29a69.54,69.54,0,0,0,4.42,36.79c1,2.19,2.52,4.05,3.8,6.23.33.62,1.28,1.24,1.28,1.86a2.43,2.43,0,0,1-.33,2.18c-.33.62-1.57.62-2.23.34-.62,0-1.29-.95-1.91-1.24A36.87,36.87,0,0,1,97.83,486a65.67,65.67,0,0,1-4.42-17.78,12.52,12.52,0,0,0-1-4.37c-.62,1.57-1.29,3.42-1.9,5-3.19,10.32-4.42,20.92-2.24,31.52a38.82,38.82,0,0,0,2.85,8.75,81.84,81.84,0,0,0,7.61,12.17c2.85,4,6,7.51,11.08,9,.62,0,1.28.62,1.28.95a5.1,5.1,0,0,1,0,3.14,2.45,2.45,0,0,1-2.52.62,38.37,38.37,0,0,1-8.84-4.38c-8.23-5.61-13.6-13.4-17.4-22.48a18,18,0,0,0-1.57-3.43c-.62-.95-1.57-1.85-2.52-3.13a22.92,22.92,0,0,0-1.9,3.42,69.94,69.94,0,0,0-2.24,19.63,168.68,168.68,0,0,0,4.76,33.71,42.69,42.69,0,0,0,6.32,15c1.29,1.85,1,3.42-1.57,5-1.28-1.57-2.52-2.81-3.8-4.38a58.77,58.77,0,0,1-9.79-18.11c-2.86-8.41-4.42-17.16-5.71-25.91a56.36,56.36,0,0,1,3.47-25.91c.33-1.24.62-2.19,1-3.42a4,4,0,0,0-.33-1.57c-1.57,1.24-2.52,2.19-3.8,3.14-4.14,3.13-7.9,6.56-12.36,9.65a17.7,17.7,0,0,1-5.38,2.8,8.49,8.49,0,0,1-4.13,0,3.34,3.34,0,0,1-1.29-2.52c0-.61,1.29-1.57,1.91-1.57,2.52.34,4.42-.95,6-2.52A163.62,163.62,0,0,0,63,496.5a30.71,30.71,0,0,0,8.56-15.59c.33-1.57.33-3.14.62-5.61-1.29.95-1.9,1.23-2.24,1.85-7.27,8.13-15.83,14.36-24.67,20.3-1.57.95-3.47,1.86-5.37,2.81a5.5,5.5,0,0,1-2.24.62,1.94,1.94,0,0,1-2.52-1.57,2,2,0,0,1,1.57-2.52c7.28-2.52,13-7.52,19-12.17a47.63,47.63,0,0,0,11.41-13.41c3.19-5.33,6-10.6,8.56-15.93,9.51-22.15,24.67-39,44.92-52.1a5.93,5.93,0,0,0,1.57-1.24c-13.31-2.81-26.29-5.32-39.88-5a95.75,95.75,0,0,0-29.76,5.32c-13.6,5-24.06,13.74-31,26.53A26.89,26.89,0,0,0,18,440c-1.29,10,3.18,17.5,12.36,22.16-.95.95-1.57,2.18-2.52,2.8-2.24,2.19-4.75,4.37-7.27,6.56-6.66,5.94-8.23,13.41-5.71,21.82,2.85,9,8.23,15.93,16.78,20.3,1.29.62,2.24,1.24,3.47,1.86a11.08,11.08,0,0,1-1.57,2.8c-5.08,6.85-5.7,14.65-4.42,22.77a70.13,70.13,0,0,0,16.45,34,38.15,38.15,0,0,0,27.86,13.74c8.84.61,14.88-3.76,19.92-10.32a4.34,4.34,0,0,0,1-2.81,2.88,2.88,0,0,1,2.52-3.13c8.23-2.52,11.7-8.13,10.46-16.55a15.09,15.09,0,0,1-.62-3.42c-.33-2.19,1-3.42,2.86-2.81,2.85,1,4.42-.33,6.32-1.85,4.42-4.37,7.27-9.37,6.94-15.59,0-2.52,0-2.81,2.52-3.43a16.92,16.92,0,0,0,9.17-5.94,11.24,11.24,0,0,0,2.86-7.8c0-2.18.61-3.13,2.85-3.75h.62c6.32-.95,10.46-6.23,7.89-13.74a18.82,18.82,0,0,0-4.75-7.51c-.62-.62-1.29-.95-1.57-1.57-.95-1.57-.62-2.52,1-3.42A14.54,14.54,0,0,0,148.08,464c-1.28-1.57-1.28-2.52-.33-4.37,2.52-5.94,3.8-12.17,2.52-18.73a33,33,0,0,0-1.57-5,2.38,2.38,0,0,1,.33-3.14,2.47,2.47,0,0,1,3.47,0c.95.95,2.24,2.19,2.52,3.42a23.36,23.36,0,0,1,1.57,8.13,31.72,31.72,0,0,1-2.85,17.78c4.42,9.65,2.52,18.4-3.8,26.81a12.55,12.55,0,0,1,1.56,2.19,19,19,0,0,1,4.14,12.79,14.06,14.06,0,0,1-10.74,12.79,18.94,18.94,0,0,1-2.52.62c-1.29,8.12-5.09,14-13.32,16.83-1.56,10-4.42,19-16.16,21.53-.33,3.42-.33,6.85-.62,10a15.72,15.72,0,0,1-3.47,8.12,12,12,0,0,1-8.22,4.38c-2.24,8.13-7.89,12.79-14.88,16.54.33,2.52,1.9,4.38,3.47,6a4.84,4.84,0,0,1,1.28,5.94,35.88,35.88,0,0,0-3.18,11.22c-.62,7.51,1.9,13.74,6.94,19.35,1.57,1.57,3.18,3.42,5.08,5.32a5.8,5.8,0,0,1-.61,1.57c-2.52,7.18-1,13.74,4.13,19.35a11.58,11.58,0,0,1,2.85,6.23c.62,6.85,4.14,11.84,9.51,15.93a4.26,4.26,0,0,1,1.9,4.66,60.75,60.75,0,0,0-1.56,7.51c-.62,5.32.61,10,5.37,12.5,4.42,2.52,6.32,5.94,6.94,10.94.62,5.94,4.42,9.65,10.12,11.55,1.57.61,2.86.95,4.43,1.57a9.14,9.14,0,0,1,6.32,7.51c.33,2.19,1,4,1.28,6.23a8,8,0,0,0,6.94,6.22,26.22,26.22,0,0,0,6.94.34,12.59,12.59,0,0,1,10.46,5c2.24,2.52,4.43,5,6.94,7.51a14.74,14.74,0,0,0,11.08,4H193c6-1,11.08,1.57,15.5,5.33,6.32,5.32,13.6,5.94,21.53,4.37a14.9,14.9,0,0,0,6.66-4c4.42-4.37,7.27-9.65,10.13-15.31.33-.33.33-.62.61-1.23a25.66,25.66,0,0,1,5.09-.62A195.27,195.27,0,0,1,299,763.35c2.86.62,5.38,1.57,7.9,2.19,1.57-4.66,3.47-9.36,5.08-14.36-3.18-.33-6.32-.61-9.17-.95a128.22,128.22,0,0,1-50.35-18.4c-3.18-1.85-6.65-4-9.79-5.94-9.51-5.32-19.3-6.56-30.05-4.66a29.67,29.67,0,0,1-20.58-3.75,49,49,0,0,1-6.33-4.66c-.95-1-2.23-1.86-1.28-3.43s2.52-1.23,3.8-.95a20.14,20.14,0,0,1,3.81,1.24c8.84,3.14,17.73,4.37,27.24,4.66a54.82,54.82,0,0,1,7.27.95h1.9a7,7,0,0,0-1.28-1.85c-.33-.34-.95-.62-1.28-1-9.8-6-19.64-11.84-29.76-17.5-6.33-3.76-13.93-4.66-21.21-5.61-6-.62-12-1-17.73.62-1.28.33-2.52,0-2.85-1.57s.61-2.19,1.9-2.52a33.06,33.06,0,0,1,6-.95c11.08-.62,21.82,1.24,32.28,4,.95.33,2.23.62,3.8,1.24a25.18,25.18,0,0,1-1.28-2.19c-13.93-14-30.71-22.49-51-23.39a29.26,29.26,0,0,0-7.27,1,2.62,2.62,0,0,1-3.18-1.24,2,2,0,0,1,1.56-2.8,14.56,14.56,0,0,1,5.09-1,85.14,85.14,0,0,1,21.82,2.19c6.66,1.56,13,3.42,19.64,5a17.6,17.6,0,0,1,2.23.61c-.95-1.23-1.28-1.85-1.9-2.51-2.85-3.76-6-7.52-8.56-11.56a42.6,42.6,0,0,0-19-15.92c-4.75-2.19-10.12-3.14-15.49-3.76h-1.91c-1.28-.33-1.9-.95-1.9-2.19s.62-1.85,1.9-2.18H142a98.39,98.39,0,0,1,25,6.56c.95.33,1.57.61,3.19,1.23a15,15,0,0,0-2.52-4c-2.85-4.37-6.94-7.51-11.08-10.6-7.89-6.23-17.07-9.65-26.57-12.5-.62-.34-1.57-.34-2.24-.62-1.28-.62-1.57-1.24-1.28-2.52a1.88,1.88,0,0,1,2.52-1.24c.95.34,1.9.62,2.85,1a165.55,165.55,0,0,1,26.91,10.61c.62.33,1.57.61,2.85,1.23-.33-1,0-1.85-.33-2.52-4.76-8.41-10.46-15.92-18.35-21.53a12.13,12.13,0,0,0-4.42-2.19c-5.71-1.85-11.08-3.42-16.79-5.33-.95-.33-1.56-.33-2.52-.61a2,2,0,0,1-1.28-2.52c.33-1.24,1-1.57,2.24-1.57.95,0,1.9.33,2.51.33a104.63,104.63,0,0,1,31.95,12.5c.62.34,1.29.62,2.52,1.24a6,6,0,0,0-.33-2.52c-.62-1.24-1.28-2.19-1.9-3.42a109.4,109.4,0,0,0-18-21.83c-2.85-2.51-5.71-5-9.51-6.22a3.27,3.27,0,0,1-2.23-3.76c1.28.33,2.52.33,3.8.62,6.94,1.57,13,5,18.68,9a32.79,32.79,0,0,1,3.47,3.42c1,.95,1.57,1.86,3.19,1.24s1.57-1.57,1.28-3.14c-.61-5.94-1.57-11.84-2.23-17.49-.62-5-1-10-1.9-15a51.5,51.5,0,0,0-3.19-9.36c-1-2.52-1-4,.62-4.38,1.28-.61,2.52.34,3.19,2.81,1.28,4,2.51,7.8,3.8,11.84.33,1.23.62,2.8,2.85,3.42a25.45,25.45,0,0,0,1.9-3.14c1.57-4,3.19-8.13,4.76-11.84a69.59,69.59,0,0,1,8.84-16.21,29.45,29.45,0,0,1,4.42-4.37c.95-.95,2.24-.95,2.85,0a2.39,2.39,0,0,1,0,3.14c-10.74,10.93-14.88,25-17.73,39.31-1,4.66-.33,9,.62,13.74a133.07,133.07,0,0,0,7.6,27.15,106.25,106.25,0,0,0,5.38,10.6,12.9,12.9,0,0,0,2.85,3.42,12,12,0,0,1,.95-2.52,71.44,71.44,0,0,1,10.46-25.91,21,21,0,0,1,2.52-3.13c.95-.95,1.9-1.24,2.85-.34a1.74,1.74,0,0,1,.33,2.81c-.33.62-1,1.23-1.28,1.85-7.89,10.94-10.13,22.77-7.89,35.9.33,1.57.33,3.42,2.52,4.65.33-1.23.62-2.18.95-3.13,1.28-4.66,2.52-9.37,4.14-13.74.95-2.81,2.52-5.33,3.8-8.13a8.68,8.68,0,0,1,1.28-1.85,3.24,3.24,0,0,1,2.52,0c.62.33.62,1.56.95,2.18a2.38,2.38,0,0,1-.61,1.24c-7,11.55-8.56,23.72-6,36.8,1,3.75,1.91,7.79,2.86,11.55a4.35,4.35,0,0,0,3.47,3.75c.33-2.52.62-5,1-7.18a55.39,55.39,0,0,1,6.65-20c0-.34.34-.34.34-.62,1-1.85,2.23-2.19,3.47-1.57s1.28,1.85.33,3.76c-.62,1.57-1.57,3.13-2.23,4.66-5.38,11.83-5.09,23.72-.34,35.89a19.16,19.16,0,0,0,6,8.41c-.33-2.52-.61-4.65-.95-6.56a52.09,52.09,0,0,1,1.9-23.1,6.42,6.42,0,0,1,1.29-2.52,2.6,2.6,0,0,1,2.52-.62c.62.33.95,1.24,1.28,2.19,0,.33-.33,1-.33,1.23-3.47,8.42-2.52,16.83,0,25.3,4.75,14.64,13.6,26.53,25,36.79,10.12,9,21.82,15.6,33.84,21.21a164.49,164.49,0,0,0,36.42,11.55,3.22,3.22,0,0,1,1.57.33c1.57-2.18,3.19-4.37,4.75-6.84-7.27-6.23-9.79-13.74-6.65-22.78-1.9-.95-3.8-1.57-5.37-2.52s-2.86-.33-4.14,1a68.2,68.2,0,0,1-6.94,5.95,16.83,16.83,0,0,1-9.51,2.52,11.56,11.56,0,0,1-11.08-10.6c-.33-5,1.57-9.37,4.76-13.41a12.48,12.48,0,0,1-6.66-7.18,19.77,19.77,0,0,1,0-12.17,21,21,0,0,0,.62-3.14,21.56,21.56,0,0,1-3.8.62,91.42,91.42,0,0,1-9.51,0c-4.76-.62-7.89-3.14-10.13-7.18a5.41,5.41,0,0,0-.62-1c-3.8-.33-7.27,0-10.45-.62-5.38-.62-8.85-3.75-10.75-8.75-1.9-5.32-1.28-10.6,2.85-14.64a26.63,26.63,0,0,1,4.76-3.42,3.12,3.12,0,0,0,1.9-3.14,62.77,62.77,0,0,1,1.28-7.8c.34-2.18.34-2.51-1.57-3.42a.81.81,0,0,1-.61-.33c-3.19-1.24-5.38-3.14-6.33-6.56-.62-2.19-1-2.81-3.18-2.19-9.18,3.14-20.59-6.84-19.64-18.11a14.2,14.2,0,0,1,6.66-10.94,8.5,8.5,0,0,0,3.8-6.56c.33-3.75,1.9-7.51,2.85-11.22-4.75.95-4.42,0-4.13-1.23Z"/>
  </g>
</svg>
