<svg id="Livello_1" data-name="Livello 1" xmlns="http://www.w3.org/2000/svg" viewBox="0 0 841.89 841.89">
  <defs>
    <style>
      .cls-1 {
        fill: #231f20;
      }
    </style>
  </defs>
  <title>Glos</title>
  <g>
    <path class="cls-1" d="M248.36,213.78s122.06-53.48,129.07-22C386,230.09,248.36,213.78,248.36,213.78Z"/>
    <path class="cls-1" d="M158.06,671s8.08-70.74,36.24-47.53C229.58,652.56,158.06,671,158.06,671Z"/>
    <path class="cls-1" d="M386.13,665.25S295.71,677.19,300,637.93C303.48,606.16,386.13,665.25,386.13,665.25Z"/>
    <path class="cls-1" d="M399.38,653.33S291.63,621.74,314.5,584.8C336.53,549.23,399.38,653.33,399.38,653.33Z"/>
    <path class="cls-1" d="M411.13,645.29S317,565.42,356.08,527C388,495.61,411.13,645.29,411.13,645.29Z"/>
    <path class="cls-1" d="M248,222.4s103.28-2.66,80,33.13C315.48,274.9,248,222.4,248,222.4Z"/>
    <path class="cls-1" d="M244.8,201.78s65.8-79.65,77.53-38.61C328.69,185.37,244.8,201.78,244.8,201.78Z"/>
    <path class="cls-1" d="M148,182.74c-.85,3.79-1.24,7.09-2.32,10.14-4.9,13.75-13.25,25-25.57,32.89a50.49,50.49,0,0,1-13.68,5.74c-6.8,1.89-11.37-2.27-10.48-9.39A22.74,22.74,0,0,1,99,212.77,71.17,71.17,0,0,1,109.3,200c9.45-9,20.43-15.38,33.62-17.23A40.59,40.59,0,0,1,148,182.74Z"/>
    <path class="cls-1" d="M248.36,235.53s62.84,28.19,41.09,47.06C276.09,294.19,248.36,235.53,248.36,235.53Z"/>
    <path class="cls-1" d="M233.55,195.35s61.14-31.7,38.36-49.31C257.9,135.22,233.55,195.35,233.55,195.35Z"/>
    <path class="cls-1" d="M223.86,244.25c-4.51-8.07-10.19-14.37-19.23-17.26,8.16-7.88,9.37-17.48,8.78-28.26,6.83-2,13.32-.56,19.12,3.83,7.75,5.88,10.8,14,8.88,23.36S233.63,241.38,223.86,244.25Z"/>
    <path class="cls-1" d="M215.94,194.22a5.47,5.47,0,0,1-.21-1.73c2.65-8.92,2.68-18,2.28-27.23a42.74,42.74,0,0,1,.73-10.42c1.08-5.23,3.79-9.56,8.83-12s10-1.75,14.66,1.25a7.13,7.13,0,0,1,3.53,7.67c-.55,2.92-1,6-2.36,8.61A102,102,0,0,1,219,192.23,29.12,29.12,0,0,1,215.94,194.22Z"/>
    <path class="cls-1" d="M242.21,246.12a5.47,5.47,0,0,0-.21,1.73c2.66,8.92,2.69,18,2.29,27.23A42.8,42.8,0,0,0,245,285.5c1.08,5.23,3.79,9.56,8.84,12s10,1.75,14.66-1.25a7.13,7.13,0,0,0,3.52-7.67,33.2,33.2,0,0,0-2.35-8.62,102.09,102.09,0,0,0-24.46-31.88A26.64,26.64,0,0,0,242.21,246.12Z"/>
    <path class="cls-1" d="M57.22,431.22s-60.06-22.81-40.07-45.86C33.78,366.18,57.22,431.22,57.22,431.22Z"/>
    <path class="cls-1" d="M210.22,187.14c-5-6.53-11.6-7.72-18.33-8.69-.82-.12-1.64-.25-2.44-.44-5.85-1.37-7.52-5.15-4.62-10.36a11.68,11.68,0,0,1,14.48-5.42,14.72,14.72,0,0,1,9.23,8.5A29.84,29.84,0,0,1,210.22,187.14Z"/>
    <path class="cls-1" d="M226.15,249c1.82,8-1.53,13.85-5.1,19.63-.44.7-.86,1.42-1.24,2.15-2.69,5.37-.87,9.08,5,10.2a11.69,11.69,0,0,0,13.46-7.63,14.71,14.71,0,0,0-.59-12.53A29.94,29.94,0,0,0,226.15,249Z"/>
    <path class="cls-1" d="M805.91,489.66c-23.93,29.86-62.54,5.79-30-24,13.58-11.18,27.32,5.69,17.44,21.14,44.74-66.2-42-33.65-71.35,63.44-15.22,50.36-3.43,97.16-22,148.41-32.07,75.88-121.28,88-170.11,18.36-71.92,64.93-41.53-61.61-21.8-11.2,2.62,6.72-4.26,17-10.75,8,3.13,0,6.38-14.88-.2-6.6-23.44,29.4,45.83,8.68,10.53-14.27-58.45-38-12.34,72-86.73,75.85-74.39-3.88-28.26-113.84-86.73-75.85-35.28,23,34,43.67,10.54,14.27-6.59-8.28-3.34,6.6-.21,6.6-6.49,9-13.37-1.23-10.74-8,19.72-50.41,50.11,76.13-21.81,11.2-48.83,69.63-138,57.52-170.11-18.36-18.56-51.25-6.77-98-22-148.41C90.53,453.13,3.8,420.58,48.54,486.78,38.66,471.33,52.4,454.46,66,465.64c32.53,29.81-6.08,53.88-30,24-32.47-41.14,1.48-72.62,40.35-39C-81.74,152.83,145.63,356,282.2,298.57c44.21-19.43,119.61-62.18,113.07-104.27-8.23-53-149-99.67-225.07-23.7-22.26,22.24-3.47,71.37,21.63,49.17,20.9-18.47-8.05-27.48-10.31-13.65,30.73-.55-6,28.56-8.89,6.59-5.26-40.76,65-20.92,23.18,16.78,70.87,44.87-41.54,90-30.11,30.58,3.2-16.68,23.34-9.12,18.54,3.25-13.1-15.77-3,15.34,9.69,6,33.06-24.24-74.5-28.26-33.83-97.48C53,188,153.68,100.8,129.19,73.17c72.61,2.78,36.31,28.23,7.73,55.36,85.45-19.52-16.14,70,4.87,8.49-26.31,9.3-4.85,35.86,9.23,25.26,90.94-68.47,248.36-72,259.5,26.19,10.76,95-142,183.94-304.67,122.88,16.28,33-6.4,73.18-39.11,44.12-22.38-27,5.51-68.4,22.56-33.26,8.18,30.29-21.72,22.7-15.73,3.06,3.71,9.24,5.35,7.09,9,5.81,6.36-15.52-14-11.73-13.17-2.63-4,22.84,30.73,31.64,28.65,3.41-2.13-52.79-91.49-26-29.4,81.7,68.79,119.31,73.29,123.33,84.1,271.65,59.31-52.55,141.4,78,41.59,52.79,72.7,66,159.68-156.25,194.09-10.13,3.72,15.59,17.92,25.24,32.48,25.13,14.56.11,28.76-9.54,32.49-25.13C487.83,581.75,574.82,804,647.51,738c-99.81,25.22-17.71-105.34,41.59-52.79,10.81-148.32,15.31-152.34,84.1-271.65,62.09-107.67-27.27-134.49-29.4-81.7-2.08,28.23,32.6,19.43,28.65-3.41.86-9.1-19.53-12.89-13.17,2.63,3.68,1.28,5.33,3.43,9-5.81,6,19.64-23.91,27.23-15.73-3.06,17-35.14,44.94,6.31,22.56,33.26-32.71,29.06-55.39-11.13-39.11-44.12C573.42,372.41,420.6,283.48,431.36,188.47c11.14-98.16,168.56-94.66,259.5-26.19,14.08,10.6,35.55-16,9.23-25.26,21,61.47-80.58-28,4.87-8.49C676.39,101.4,640.08,76,712.69,73.17,688.2,100.8,788.91,188,681.78,171.88c40.67,69.22-66.87,73.24-33.83,97.48,12.71,9.3,22.81-21.81,9.71-6C652.84,251,673,243.39,676.2,260.07c11.43,59.46-101,14.29-30.13-30.58-41.83-37.7,28.46-57.54,23.18-16.78-2.83,22-39.61-7.14-8.89-6.59-2.26-13.83-31.2-4.82-10.31,13.65,25.12,22.2,43.89-26.93,21.63-49.17-76-76-216.84-29.31-225.07,23.7-6.54,42.09,68.86,84.84,113.07,104.27C696.25,356,923.62,152.83,765.57,450.71,804.43,417,838.38,448.52,805.91,489.66Z"/>
    <path class="cls-1" d="M420.94,635.22s-57.52-124.36,0-141C478.48,510.86,420.94,635.22,420.94,635.22Z"/>
    <path class="cls-1" d="M593.53,213.78s-122.06-53.48-129.07-22C455.94,230.09,593.53,213.78,593.53,213.78Z"/>
    <path class="cls-1" d="M454.43,678.26c-16.92,10.18-24,27.12-33.49,41.36-9.49-14.24-16.57-31.18-33.49-41.36,7.22-10.74,18.11-25.16,33.49-24.3C436.35,653.1,447.21,667.52,454.43,678.26Z"/>
    <path class="cls-1" d="M683.83,671s-8.08-70.74-36.24-47.53C612.31,652.56,683.83,671,683.83,671Z"/>
    <path class="cls-1" d="M455.76,665.25s90.42,11.94,86.13-27.32C538.41,606.16,455.76,665.25,455.76,665.25Z"/>
    <path class="cls-1" d="M442.51,653.33s107.75-31.59,84.88-68.53C505.36,549.23,442.51,653.33,442.51,653.33Z"/>
    <path class="cls-1" d="M430.76,645.29S524.87,565.42,485.81,527C453.87,495.61,430.76,645.29,430.76,645.29Z"/>
    <path class="cls-1" d="M593.86,222.4s-103.28-2.66-80,33.13C526.41,274.9,593.86,222.4,593.86,222.4Z"/>
    <path class="cls-1" d="M597.09,201.78s-65.8-79.65-77.53-38.61C513.2,185.37,597.09,201.78,597.09,201.78Z"/>
    <path class="cls-1" d="M693.94,182.74c.85,3.79,1.24,7.09,2.32,10.14,4.9,13.75,13.25,25,25.57,32.89a50.49,50.49,0,0,0,13.68,5.74c6.8,1.89,11.37-2.27,10.48-9.39a22.74,22.74,0,0,0-3.13-9.35A71.17,71.17,0,0,0,732.59,200c-9.45-9-20.43-15.38-33.62-17.23A40.59,40.59,0,0,0,693.94,182.74Z"/>
    <path class="cls-1" d="M593.53,235.53s-62.84,28.19-41.09,47.06C565.8,294.19,593.53,235.53,593.53,235.53Z"/>
    <path class="cls-1" d="M608.34,195.35S547.2,163.65,570,146C584,135.22,608.34,195.35,608.34,195.35Z"/>
    <path class="cls-1" d="M618,244.25c4.51-8.07,10.19-14.37,19.23-17.26-8.16-7.88-9.37-17.48-8.78-28.26-6.83-2-13.32-.56-19.12,3.83-7.75,5.88-10.8,14-8.88,23.36S608.26,241.38,618,244.25Z"/>
    <path class="cls-1" d="M626,194.22a5.47,5.47,0,0,0,.21-1.73c-2.65-8.92-2.68-18-2.28-27.23a42.74,42.74,0,0,0-.73-10.42c-1.08-5.23-3.79-9.56-8.83-12s-10-1.75-14.66,1.25a7.13,7.13,0,0,0-3.53,7.67c.55,2.92,1,6,2.36,8.61a102,102,0,0,0,24.45,31.89A29.12,29.12,0,0,0,626,194.22Z"/>
    <path class="cls-1" d="M599.68,246.12a5.47,5.47,0,0,1,.21,1.73c-2.66,8.92-2.69,18-2.29,27.23a43.3,43.3,0,0,1-.72,10.42c-1.08,5.23-3.79,9.56-8.84,12s-10,1.75-14.66-1.25a7.13,7.13,0,0,1-3.52-7.67,33.2,33.2,0,0,1,2.35-8.62,102.09,102.09,0,0,1,24.46-31.88A26.64,26.64,0,0,1,599.68,246.12Z"/>
    <path class="cls-1" d="M784.67,431.22s60.06-22.81,40.07-45.86C808.11,366.18,784.67,431.22,784.67,431.22Z"/>
    <path class="cls-1" d="M631.67,187.14c5-6.53,11.6-7.72,18.33-8.69.82-.12,1.64-.25,2.44-.44,5.85-1.37,7.52-5.15,4.62-10.36a11.68,11.68,0,0,0-14.48-5.42,14.72,14.72,0,0,0-9.23,8.5A29.84,29.84,0,0,0,631.67,187.14Z"/>
    <path class="cls-1" d="M615.74,249c-1.82,8,1.53,13.85,5.1,19.63.44.7.86,1.42,1.24,2.15,2.69,5.37.87,9.08-5,10.2a11.69,11.69,0,0,1-13.46-7.63,14.71,14.71,0,0,1,.59-12.53A29.94,29.94,0,0,1,615.74,249Z"/>
  </g>
</svg>
