<svg id="Livello_1" data-name="Livello 1" xmlns="http://www.w3.org/2000/svg" viewBox="0 0 841.89 841.89">
  <title>Glos</title>
  <g>
    <path d="M428.65,234.43c-18.26-31.64-43.26-7.76-48.44-3.32-8.47,7.34-37.32,32.26-50.25,43.39a46.21,46.21,0,0,1,4.7,4.79L386,240.14c10.71-8,24.33-8.17,30,1.6s-1.36,21.42-13.62,26.72L342.8,293.38a44.38,44.38,0,0,1,1.81,6.48c16.1-5.65,52.08-18.2,62.68-21.87C413.74,275.74,446.91,266,428.65,234.43ZM407.29,339.76c-10.6-3.67-46.58-16.19-62.68-21.85a44.86,44.86,0,0,1-1.81,6.49l59.57,24.89c12.26,5.29,19.24,17,13.59,26.75s-19.24,9.53-29.95,1.57l-51.32-39.13a45.34,45.34,0,0,1-4.7,4.8c12.93,11.15,41.75,36,50.22,43.35,5.18,4.47,30.18,28.36,48.44-3.25S413.74,342,407.29,339.76Zm-142.65-1.28-51.32,39.13c-10.71,8-24.32,8.19-30-1.57s1.36-21.46,13.62-26.73L256.5,324.4a43.59,43.59,0,0,1-1.8-6.49c-16.1,5.66-52.06,18.21-62.66,21.87-6.45,2.25-39.62,12-21.39,43.57s43.26,7.75,48.44,3.28c8.5-7.31,37.32-32.23,50.26-43.35A44.48,44.48,0,0,1,264.64,338.48Zm35-178.54c-36.52,0-28.35,33.59-27.08,40.31,2.13,11,9.26,48.44,12.46,65.19a38.35,38.35,0,0,1,6.45-1.65l-8.2-64.05c-1.53-13.26,5.07-25.15,16.37-25.15s17.88,11.89,16.34,25.15l-8.2,64.05a41.47,41.47,0,0,1,6.45,1.65c3.2-16.75,10.33-54.19,12.46-65.19C328,193.53,336.17,159.94,299.68,159.94Zm40.25,146.88c0-.68-.09-1.36-.15-2.05s-.15-1.36-.27-2c-.05-.35-.11-.71-.17-1.06a39.35,39.35,0,0,0-1.63-6.19l-.18-.47a18.87,18.87,0,0,0-.71-1.81,19.55,19.55,0,0,0-.83-1.8,19.08,19.08,0,0,0-.88-1.75c-.33-.62-.66-1.21-1-1.8s-.68-1-1-1.51-.74-1.07-1.12-1.6-.77-1-1.19-1.51a41.92,41.92,0,0,0-5-5.12c-.74-.62-1.54-1.24-2.33-1.84l-1.22-.85c-.5-.33-1-.66-1.54-1a37,37,0,0,0-5.32-2.72,17.9,17.9,0,0,0-1.84-.71,38.77,38.77,0,0,0-6.39-1.78H307c-.65-.12-1.33-.24-2-.33s-1.19-.14-1.78-.2a35.91,35.91,0,0,0-3.61-.18c-.59,0-1.18,0-1.78.06-1,.06-1.92.12-2.87.27-.5.05-1,.11-1.51.2a1.07,1.07,0,0,0-.32.06,8.54,8.54,0,0,0-.92.12h0a38.37,38.37,0,0,0-6.12,1.66,43.71,43.71,0,0,0-5.86,2.63c-.51.27-1,.56-1.48.86s-1.1.68-1.63,1-.83.56-1.21.85c-.8.6-1.6,1.22-2.34,1.84a42.78,42.78,0,0,0-4.53,4.5c-.15.2-.33.41-.5.62s-.57.71-.86,1.06-.62.83-.92,1.25c-.74,1-1.42,2.1-2.07,3.22-.3.51-.56,1-.83,1.54s-.56,1.13-.83,1.69-.5,1.12-.74,1.69-.47,1.18-.68,1.8A39.35,39.35,0,0,0,260,301.7l-.17,1.06c-.12.65-.21,1.33-.27,2s-.12,1.37-.15,2.05-.06,1.36-.06,2.07,0,1.39.06,2.07.09,1.36.15,2,.15,1.36.27,2a6.61,6.61,0,0,0,.17,1.07,36.22,36.22,0,0,0,1.63,6.18c.21.63.45,1.25.68,1.81s.48,1.12.74,1.69.53,1.12.83,1.68.53,1,.83,1.54.68,1.16,1,1.69.69,1,1,1.54.59.83.92,1.24.56.74.86,1.07.35.41.5.62a40.1,40.1,0,0,0,4.53,4.5c.74.62,1.54,1.24,2.34,1.83.38.3.79.56,1.21.86s1.06.71,1.63,1,1,.59,1.48.85a36.41,36.41,0,0,0,5.86,2.64,39.46,39.46,0,0,0,6.12,1.66h0c.27.05.53.05.8.11a2,2,0,0,1,.42.06c.5.09,1,.15,1.5.21.95.15,1.93.21,2.9.27.6,0,1.19.06,1.78.06,1,0,1.92,0,2.87-.12.18,0,.39,0,.56-.06.57,0,1.13-.12,1.69-.18l.27,0c.65-.09,1.33-.21,2-.32h.09a39.78,39.78,0,0,0,6.39-1.78c.62-.21,1.24-.44,1.84-.71a38.67,38.67,0,0,0,6.86-3.7l1.22-.86c.79-.59,1.59-1.21,2.33-1.83a40.54,40.54,0,0,0,5-5.12c.42-.48.8-1,1.19-1.51s.77-1,1.12-1.57.65-1,1-1.54a18.58,18.58,0,0,0,1-1.81c.32-.56.62-1.15.88-1.71s.59-1.22.83-1.84a18.69,18.69,0,0,0,.71-1.8c.06-.15.12-.3.18-.48a39.23,39.23,0,0,0,1.63-6.18c.06-.36.12-.71.17-1.07.12-.65.21-1.33.27-2s.12-1.36.15-2,.06-1.36.06-2.07S340,307.5,339.93,306.82ZM183.37,241.74c5.63-9.77,19.24-9.56,29.95-1.6l51.35,39.15a45.32,45.32,0,0,1,4.71-4.79c-12.91-11.1-41.79-36.05-50.29-43.39-5.18-4.44-30.18-28.32-48.41,3.29S185.59,275.74,192,278c10.6,3.67,46.56,16.22,62.66,21.87a43.13,43.13,0,0,1,1.8-6.48L197,268.46C184.7,263.16,177.72,251.5,183.37,241.74ZM326.73,417.53c-2.13-11-9.26-48.45-12.46-65.2a41.49,41.49,0,0,1-6.45,1.66l8.2,64c1.54,13.26-5.06,25.16-16.37,25.16s-17.87-11.9-16.34-25.16l8.2-64a38.37,38.37,0,0,1-6.45-1.66c-3.2,16.75-10.33,54.19-12.46,65.2-1.27,6.72-9.44,40.31,27,40.31S328,424.25,326.73,417.53Z"/>
    <path d="M340,308.89c0,.71,0,1.39-.06,2.07s-.09,1.36-.15,2-.15,1.36-.27,2c-.05.36-.11.71-.17,1.07a39.23,39.23,0,0,1-1.63,6.18c-.06.18-.12.33-.18.48a18.69,18.69,0,0,1-.71,1.8c-.24.62-.53,1.25-.83,1.84s-.56,1.15-.88,1.71a18.58,18.58,0,0,1-1,1.81c-.33.53-.65,1-1,1.54s-.74,1.06-1.12,1.57-.77,1-1.19,1.51a40.54,40.54,0,0,1-5,5.12c-.74.62-1.54,1.24-2.33,1.83l-1.22.86a38.67,38.67,0,0,1-6.86,3.7c-.6.27-1.22.5-1.84.71a39.78,39.78,0,0,1-6.39,1.78H307c-.65.11-1.33.23-2,.32l-.27,0c-.56.06-1.12.15-1.69.18-.17,0-.38,0-.56.06-.95.06-1.89.09-2.87.09-.59,0-1.18,0-1.78,0-1-.06-1.95-.12-2.9-.27-.5-.06-1-.12-1.5-.21a2,2,0,0,0-.42-.06c-.27-.06-.53-.06-.8-.11h0a39.46,39.46,0,0,1-6.12-1.66,36.41,36.41,0,0,1-5.86-2.64c-.51-.26-1-.56-1.48-.85s-1.1-.68-1.63-1-.83-.56-1.21-.86c-.8-.59-1.6-1.21-2.34-1.83a40.1,40.1,0,0,1-4.53-4.5c-.15-.21-.33-.42-.5-.62s-.57-.68-.86-1.07-.62-.83-.92-1.24-.71-1-1-1.54-.71-1.1-1-1.69-.56-1-.83-1.54-.56-1.12-.83-1.68-.5-1.13-.74-1.69-.47-1.18-.68-1.81a36.22,36.22,0,0,1-1.63-6.18,6.61,6.61,0,0,1-.17-1.07c-.12-.65-.21-1.33-.27-2s-.12-1.36-.15-2-.06-1.36-.06-2.07,0-1.39.06-2.07.09-1.36.15-2.05.15-1.36.27-2l.17-1.06a39.35,39.35,0,0,1,1.63-6.19c.21-.62.45-1.21.68-1.8s.48-1.13.74-1.69.53-1.13.83-1.69.53-1,.83-1.54c.65-1.12,1.33-2.19,2.07-3.22.3-.42.59-.83.92-1.25s.56-.71.86-1.06.35-.42.5-.62a42.78,42.78,0,0,1,4.53-4.5c.74-.62,1.54-1.24,2.34-1.84.38-.29.79-.56,1.21-.85s1.06-.71,1.63-1,1-.59,1.48-.86a43.71,43.71,0,0,1,5.86-2.63,38.37,38.37,0,0,1,6.12-1.66h0a8.54,8.54,0,0,1,.92-.12,1.07,1.07,0,0,1,.32-.06c.51-.09,1-.15,1.51-.2.95-.15,1.9-.21,2.87-.27.6,0,1.19,0,1.78,0,1.21,0,2.43.06,3.61.15.59.06,1.19.12,1.78.2s1.33.21,2,.33h.09A38.77,38.77,0,0,1,313.5,271a17.9,17.9,0,0,1,1.84.71,37,37,0,0,1,5.32,2.72c.51.32,1,.65,1.54,1l1.22.85c.79.6,1.59,1.22,2.33,1.84a41.92,41.92,0,0,1,5,5.12c.42.5.8,1,1.19,1.51s.77,1.06,1.12,1.6.65,1,1,1.51.68,1.18,1,1.8a19.08,19.08,0,0,1,.88,1.75,19.55,19.55,0,0,1,.83,1.8,18.87,18.87,0,0,1,.71,1.81l.18.47a39.35,39.35,0,0,1,1.63,6.19c.06.35.12.71.17,1.06.12.65.21,1.33.27,2s.12,1.37.15,2.05S340,308.18,340,308.89Z"/>
    <path d="M340,308.89c0,.71,0,1.39-.06,2.07s-.09,1.36-.15,2-.15,1.36-.27,2c-.05.36-.11.71-.17,1.07a39.23,39.23,0,0,1-1.63,6.18c-.06.18-.12.33-.18.48a18.69,18.69,0,0,1-.71,1.8c-.24.62-.53,1.25-.83,1.84s-.56,1.15-.88,1.71a18.58,18.58,0,0,1-1,1.81c-.33.53-.65,1-1,1.54s-.74,1.06-1.12,1.57-.77,1-1.19,1.51a40.54,40.54,0,0,1-5,5.12c-.74.62-1.54,1.24-2.33,1.83l-1.22.86a38.67,38.67,0,0,1-6.86,3.7c-.6.27-1.22.5-1.84.71a39.78,39.78,0,0,1-6.39,1.78H307c-.65.11-1.33.23-2,.32l-.27,0c-.56.06-1.12.15-1.69.18-.17,0-.38,0-.56.06-.95.09-1.89.12-2.87.12-.59,0-1.18,0-1.78-.06-1-.06-1.95-.12-2.9-.27-.5-.06-1-.12-1.5-.21a2,2,0,0,0-.42-.06c-.27-.06-.53-.06-.8-.11h0a39.46,39.46,0,0,1-6.12-1.66,36.41,36.41,0,0,1-5.86-2.64c-.51-.26-1-.56-1.48-.85s-1.1-.68-1.63-1-.83-.56-1.21-.86c-.8-.59-1.6-1.21-2.34-1.83a40.1,40.1,0,0,1-4.53-4.5c-.15-.21-.33-.42-.5-.62s-.57-.68-.86-1.07-.62-.83-.92-1.24-.71-1-1-1.54-.71-1.1-1-1.69-.56-1-.83-1.54-.56-1.12-.83-1.68-.5-1.13-.74-1.69-.47-1.18-.68-1.81a36.22,36.22,0,0,1-1.63-6.18,6.61,6.61,0,0,1-.17-1.07c-.12-.65-.21-1.33-.27-2s-.12-1.36-.15-2-.06-1.36-.06-2.07,0-1.39.06-2.07.09-1.36.15-2.05.15-1.36.27-2l.17-1.06a39.35,39.35,0,0,1,1.63-6.19c.21-.62.45-1.21.68-1.8s.48-1.13.74-1.69.53-1.13.83-1.69.53-1,.83-1.54c.65-1.12,1.33-2.19,2.07-3.22.3-.42.59-.83.92-1.25s.56-.71.86-1.06.35-.42.5-.62a42.78,42.78,0,0,1,4.53-4.5c.74-.62,1.54-1.24,2.34-1.84.38-.29.79-.56,1.21-.85s1.06-.71,1.63-1,1-.59,1.48-.86a43.71,43.71,0,0,1,5.86-2.63,38.37,38.37,0,0,1,6.12-1.66h0a8.54,8.54,0,0,1,.92-.12,1.07,1.07,0,0,1,.32-.06c.51-.09,1-.15,1.51-.2.95-.15,1.9-.21,2.87-.27.6,0,1.19-.06,1.78-.06a35.91,35.91,0,0,1,3.61.18c.59.06,1.19.12,1.78.2s1.33.21,2,.33h.09A38.77,38.77,0,0,1,313.5,271a17.9,17.9,0,0,1,1.84.71,37,37,0,0,1,5.32,2.72c.51.32,1,.65,1.54,1l1.22.85c.79.6,1.59,1.22,2.33,1.84a41.92,41.92,0,0,1,5,5.12c.42.5.8,1,1.19,1.51s.77,1.06,1.12,1.6.65,1,1,1.51.68,1.18,1,1.8a19.08,19.08,0,0,1,.88,1.75,19.55,19.55,0,0,1,.83,1.8,18.87,18.87,0,0,1,.71,1.81l.18.47a39.35,39.35,0,0,1,1.63,6.19c.06.35.12.71.17,1.06.12.65.21,1.33.27,2s.12,1.37.15,2.05S340,308.18,340,308.89Z"/>
  </g>
</svg>
