<svg id="Livello_1" data-name="Livello 1" xmlns="http://www.w3.org/2000/svg" viewBox="0 0 841.89 841.89">
  <title>Glos</title>
  <g>
    <path d="M720.23,382.21c-1.37-5.37-7.68-17-17-9.82-5,3.86-35.83,55.19-54.64,55.63-9.43.22-31.39-7-28.1-14.47,3.11-7.07,26.16-.9,38.6-17.76,10-13.6,31.6-49.16,55-59.71,8.38-3.79,10.46-12.54,10.92-21.17.29-5.25-.45-10.58,0-15.8.59-6.19,1.31-12.54,3.24-18.4,3-9.18,0-33.27,16.64-33.3,11.24,0,8.48,26.17,10.7,32.37,2.35,6.53.94,14.58.38,21.9-.3,3.93-2,7.83-3.53,11.57-3.39,8.38-.91,15.36,5.57,20.64,5.45,4.44,47.8,18.27,49.42,60.93,1.82,48-40.58,60.47-43.11,85.25-2.65,26-1,91.74-6.52,117.27-2.49,11.56-37.35,10.33-42.55,1.8C696.75,568.81,733.64,434.91,720.23,382.21Zm63.52,49c15.33-5.46,13.07-44.49,4.64-56.53-7.4-10.59-16.89-10.86-24.58-.34C757.63,382.78,757.23,440.66,783.75,431.2Z"/>
    <path d="M121.66,382.21c1.37-5.37,7.68-17,17-9.82,5,3.86,35.83,55.19,54.64,55.63,9.43.22,31.39-7,28.1-14.47-3.11-7.07-26.16-.9-38.6-17.76-10-13.6-31.6-49.16-55-59.71-8.38-3.79-10.46-12.54-10.92-21.17-.29-5.25.45-10.58,0-15.8-.59-6.19-1.31-12.54-3.24-18.4-3-9.18,0-33.27-16.64-33.3-11.24,0-8.48,26.17-10.7,32.37-2.35,6.53-.94,14.58-.38,21.9.3,3.93,2,7.83,3.53,11.57,3.39,8.38.91,15.36-5.57,20.64-5.45,4.44-47.8,18.27-49.42,60.93-1.82,48,40.58,60.47,43.11,85.25,2.65,26,1,91.74,6.52,117.27,2.49,11.56,37.35,10.33,42.55,1.8C145.13,568.81,108.25,434.91,121.66,382.21Zm-63.52,49c-15.33-5.46-13.07-44.49-4.64-56.53,7.4-10.59,16.89-10.86,24.58-.34C84.26,382.78,84.66,440.66,58.14,431.2Z"/>
  </g>
</svg>
