<svg id="Livello_1" data-name="Livello 1" xmlns="http://www.w3.org/2000/svg" viewBox="0 0 841.89 841.89">
  <defs>
    <style>
      .cls-1 {
        fill: #231f20;
      }
    </style>
  </defs>
  <title>Glos</title>
  <g>
    <path class="cls-1" d="M801.3,125.74a7.18,7.18,0,0,1-12,2.14,6.12,6.12,0,0,1-.22.69,7.17,7.17,0,1,1-13.31-5.31,6.91,6.91,0,0,1,1.3-2.08l-25.09-10L644,381.58l-8.79-3.51,108-270.42L718,97.6a6.6,6.6,0,0,1-.49,2.4,7.16,7.16,0,1,1-13.3-5.3c.09-.24.19-.44.29-.66a7.08,7.08,0,0,1-3.18-.5,7.16,7.16,0,1,1,8-11.47c.07-.21.14-.44.24-.68a7.16,7.16,0,0,1,13.3,5.31,6.84,6.84,0,0,1-1.31,2.1l25.21,10.06,7.66-19.19a7.07,7.07,0,0,1-2.4-.51,7.16,7.16,0,1,1,5.3-13.3,4.45,4.45,0,0,1,.66.31,7,7,0,0,1,.5-3.2,7.16,7.16,0,1,1,11.46,8,5.58,5.58,0,0,1,.69.23,7.16,7.16,0,0,1-5.31,13.3,7.38,7.38,0,0,1-2.11-1.29l-7.66,19.19,25.1,10a6.93,6.93,0,0,1,.5-2.42,7.16,7.16,0,0,1,13.3,5.31,3.91,3.91,0,0,1-.31.65,7.19,7.19,0,0,1,7.2,9.82Z"/>
    <path class="cls-1" d="M40.59,125.74a7.18,7.18,0,0,0,12,2.14,6.12,6.12,0,0,0,.22.69,7.17,7.17,0,1,0,13.31-5.31,6.91,6.91,0,0,0-1.3-2.08l25.09-10,108,270.42,8.79-3.51-108-270.42L123.89,97.6a6.6,6.6,0,0,0,.49,2.4,7.16,7.16,0,1,0,13.3-5.3c-.09-.24-.19-.44-.29-.66a7.08,7.08,0,0,0,3.18-.5,7.16,7.16,0,1,0-8-11.47c-.07-.21-.14-.44-.24-.68a7.16,7.16,0,0,0-13.3,5.31,6.84,6.84,0,0,0,1.31,2.1L95.17,98.86,87.51,79.67a7.07,7.07,0,0,0,2.4-.51,7.16,7.16,0,1,0-5.3-13.3,4.45,4.45,0,0,0-.66.31,7,7,0,0,0-.5-3.2,7.16,7.16,0,1,0-11.46,8,5.58,5.58,0,0,0-.69.23,7.16,7.16,0,0,0,5.31,13.3,7.52,7.52,0,0,0,2.11-1.29l7.66,19.19-25.1,10a6.93,6.93,0,0,0-.5-2.42,7.16,7.16,0,0,0-13.3,5.31,3.91,3.91,0,0,0,.31.65,7.19,7.19,0,0,0-7.2,9.82Z"/>
  </g>
</svg>
