<svg id="Livello_1" data-name="Livello 1" xmlns="http://www.w3.org/2000/svg" viewBox="0 0 841.89 841.89">
  <defs>
    <style>
      .cls-1 {
        fill: #231f20;
      }
    </style>
  </defs>
  <title>Glos</title>
  <path class="cls-1" d="M754.51,782.55a.53.53,0,0,0,.53.53.5.5,0,0,0,.5-.47c.59-6.76,12-26.78,25-26.78a12.86,12.86,0,0,1,6.3,1.69c4.93,2.71,6.62,14.66-4.52,21.12-4.32,2.5-5,7.42-5.63,11.91-.33,2.58.44,3.53,3.79,3.51,9.81,0,11.91,8.46,8.18,12.84h7.73a4.2,4.2,0,0,1,2.42,1.33,2.59,2.59,0,0,1,.47,1.55,2.76,2.76,0,0,1-.63,1.78,2.66,2.66,0,0,1-2.12,1.09,12.13,12.13,0,0,1,6,5.89c0,.14.13.27.19.41H787.5c-15.73,0-30.2,0-46.71,0s-31,0-46.71,0H678.9c.06-.14.14-.27.2-.41a12.15,12.15,0,0,1,6-5.89,2.67,2.67,0,0,1-2.12-1.09,2.82,2.82,0,0,1-.63-1.78,2.65,2.65,0,0,1,.47-1.55,4.23,4.23,0,0,1,2.42-1.33H693c-3.72-4.38-1.62-12.86,8.19-12.84,3.34,0,4.12-.93,3.78-3.51-.61-4.49-1.31-9.41-5.63-11.91-11.14-6.46-9.45-18.41-4.52-21.12a12.89,12.89,0,0,1,6.31-1.69c12.94,0,24.35,20,24.95,26.78a.49.49,0,0,0,.49.47.54.54,0,0,0,.54-.53c-.2-29.11-39.64-43.11-42-47.82-2.89,3.17-6.22,2.1-10.14,1.5.79-2.87,1.5-5.45,2.22-8.1-1.07-.22-2.08-.42-3.47-.72.41-1.52,6.4-27.92,25.52-43.14,5.14-4.06,14.65-8.62,14.87-30.76a.72.72,0,0,0-.72-.67.71.71,0,0,0-.63.42c-.12,5.19-7.65,26.13-14.55,26.35-8.36.28-15.12-11.87-15.2-17.32-.06-4.66-2-8.8-4.08-12.78a8.84,8.84,0,0,1-.57-7.51c3.5-9.73,9-18.19,19.62-20.47,32.56-7.08,42.84,36.8,42.84,36.8s10.29-43.88,42.85-36.8c10.58,2.28,16.11,10.74,19.62,20.47a8.87,8.87,0,0,1-.58,7.51c-2.1,4-4,8.12-4.08,12.78-.08,5.45-6.84,17.6-15.2,17.32-6.9-.22-14.43-21.16-14.55-26.35a.69.69,0,0,0-.63-.42.71.71,0,0,0-.71.67c.21,22.14,9.73,26.7,14.86,30.76,19.12,15.22,25.11,41.62,25.53,43.14-1.39.3-2.4.5-3.47.72.71,2.65,1.42,5.23,2.22,8.1-3.93.6-7.26,1.67-10.15-1.5C794.14,739.44,754.7,753.44,754.51,782.55Z"/>
  <path class="cls-1" d="M754.51,559.53a.53.53,0,0,0,.53.54.5.5,0,0,0,.5-.48c.59-6.76,12-26.77,25-26.77a12.84,12.84,0,0,1,6.3,1.68c4.93,2.72,6.62,14.67-4.52,21.13-4.32,2.49-5,7.41-5.63,11.91-.33,2.57.44,3.53,3.79,3.51,9.81,0,11.91,8.46,8.18,12.84h7.73a4.15,4.15,0,0,1,2.42,1.33,2.56,2.56,0,0,1,.47,1.54,2.76,2.76,0,0,1-.63,1.78,2.66,2.66,0,0,1-2.12,1.09,12.13,12.13,0,0,1,6,5.89c0,.14.13.28.19.42H787.5c-15.73,0-30.2,0-46.71,0s-31,0-46.71,0H678.9c.06-.14.14-.28.2-.42a12.15,12.15,0,0,1,6-5.89,2.67,2.67,0,0,1-2.12-1.09,2.82,2.82,0,0,1-.63-1.78,2.62,2.62,0,0,1,.47-1.54,4.18,4.18,0,0,1,2.42-1.33H693c-3.72-4.38-1.62-12.86,8.19-12.84,3.34,0,4.12-.94,3.78-3.51-.61-4.5-1.31-9.42-5.63-11.91-11.14-6.46-9.45-18.41-4.52-21.13a12.88,12.88,0,0,1,6.31-1.68c12.94,0,24.35,20,24.95,26.77a.49.49,0,0,0,.49.48.54.54,0,0,0,.54-.54c-.2-29.11-39.64-43.1-42-47.82-2.89,3.17-6.22,2.1-10.14,1.51.79-2.88,1.5-5.45,2.22-8.11l-3.47-.71c.41-1.53,6.4-27.93,25.52-43.15,5.14-4.06,14.65-8.62,14.87-30.75a.72.72,0,0,0-.72-.68.71.71,0,0,0-.63.42c-.12,5.19-7.65,26.14-14.55,26.36-8.36.27-15.12-11.87-15.2-17.32-.06-4.66-2-8.8-4.08-12.79a8.83,8.83,0,0,1-.57-7.51c3.5-9.73,9-18.19,19.62-20.47,32.56-7.08,42.84,36.8,42.84,36.8s10.29-43.88,42.85-36.8c10.58,2.28,16.11,10.74,19.62,20.47a8.87,8.87,0,0,1-.58,7.51c-2.1,4-4,8.13-4.08,12.79-.08,5.45-6.84,17.59-15.2,17.32-6.9-.22-14.43-21.17-14.55-26.36a.69.69,0,0,0-.63-.42.71.71,0,0,0-.71.68c.21,22.13,9.73,26.69,14.86,30.75,19.12,15.22,25.11,41.62,25.53,43.15l-3.47.71c.71,2.66,1.42,5.23,2.22,8.11-3.93.59-7.26,1.66-10.15-1.51C794.14,516.43,754.7,530.42,754.51,559.53Z"/>
  <path class="cls-1" d="M299,196a.53.53,0,0,0,.53.53.5.5,0,0,0,.5-.47c.59-6.76,12-26.78,24.95-26.78a12.86,12.86,0,0,1,6.3,1.69c4.93,2.71,6.62,14.66-4.52,21.12-4.32,2.5-5,7.41-5.63,11.91-.33,2.58.44,3.53,3.79,3.51,9.81,0,11.91,8.46,8.18,12.84h7.73a4.2,4.2,0,0,1,2.42,1.33,2.59,2.59,0,0,1,.48,1.55,2.79,2.79,0,0,1-.64,1.78,2.69,2.69,0,0,1-2.12,1.09,12.13,12.13,0,0,1,6,5.89c.06.13.13.27.19.41H332c-15.73,0-30.2,0-46.71,0s-31,0-46.71,0H223.41c.06-.14.14-.28.2-.41a12.15,12.15,0,0,1,6-5.89,2.7,2.7,0,0,1-2.12-1.09,2.84,2.84,0,0,1-.63-1.78,2.65,2.65,0,0,1,.47-1.55,4.23,4.23,0,0,1,2.42-1.33h7.73c-3.72-4.38-1.62-12.86,8.19-12.84,3.35,0,4.12-.93,3.78-3.51-.61-4.5-1.31-9.41-5.63-11.91-11.13-6.46-9.45-18.41-4.52-21.12a12.92,12.92,0,0,1,6.31-1.69c12.94,0,24.35,20,24.95,26.78a.5.5,0,0,0,.49.47.54.54,0,0,0,.54-.53c-.2-29.12-39.64-43.11-42-47.82-2.89,3.17-6.22,2.1-10.14,1.5.79-2.87,1.5-5.45,2.22-8.1-1.07-.22-2.08-.42-3.47-.72.41-1.52,6.4-27.92,25.52-43.14,5.14-4.06,14.65-8.62,14.87-30.76a.71.71,0,0,0-1.35-.26c-.12,5.2-7.65,26.14-14.55,26.36-8.36.28-15.12-11.87-15.2-17.32-.06-4.66-2-8.8-4.08-12.78a8.84,8.84,0,0,1-.57-7.51c3.5-9.73,9-18.2,19.62-20.47,32.56-7.08,42.84,36.8,42.84,36.8s10.29-43.88,42.85-36.8c10.58,2.27,16.11,10.74,19.62,20.47a8.88,8.88,0,0,1-.58,7.51c-2.1,4-4,8.12-4.08,12.78-.08,5.45-6.84,17.6-15.2,17.32-6.9-.22-14.43-21.16-14.55-26.36a.69.69,0,0,0-.63-.41.71.71,0,0,0-.71.67c.21,22.14,9.73,26.7,14.86,30.76C346,112.9,352,139.3,352.41,140.82c-1.39.3-2.4.5-3.47.72.71,2.65,1.42,5.23,2.22,8.1-3.93.6-7.26,1.67-10.15-1.5C338.65,152.85,299.21,166.84,299,196Z"/>
  <path class="cls-1" d="M133.57,559.53a.54.54,0,0,0,.53.54.5.5,0,0,0,.5-.48c.59-6.76,12-26.77,25-26.77a12.84,12.84,0,0,1,6.3,1.68c4.94,2.72,6.62,14.67-4.52,21.13-4.32,2.49-5,7.41-5.62,11.91-.34,2.57.43,3.53,3.78,3.51,9.81,0,11.91,8.46,8.19,12.84h7.73a4.12,4.12,0,0,1,2.41,1.33,2.56,2.56,0,0,1,.48,1.54,2.77,2.77,0,0,1-.64,1.78,2.64,2.64,0,0,1-2.12,1.09,12.13,12.13,0,0,1,6,5.89c.06.14.14.28.2.42H166.57c-15.74,0-30.21,0-46.71,0s-31,0-46.72,0H58c.06-.14.14-.28.2-.42a12.13,12.13,0,0,1,6-5.89,2.64,2.64,0,0,1-2.12-1.09,2.77,2.77,0,0,1-.64-1.78,2.56,2.56,0,0,1,.48-1.54,4.12,4.12,0,0,1,2.42-1.33H72c-3.72-4.38-1.62-12.86,8.19-12.84,3.35,0,4.12-.94,3.78-3.51-.61-4.5-1.3-9.42-5.62-11.91-11.14-6.46-9.46-18.41-4.52-21.13a12.84,12.84,0,0,1,6.3-1.68c12.94,0,24.36,20,25,26.77a.5.5,0,0,0,.5.48.54.54,0,0,0,.53-.54c-.2-29.11-39.63-43.1-42-47.82-2.9,3.17-6.23,2.1-10.15,1.51.79-2.88,1.51-5.45,2.22-8.11l-3.47-.71c.42-1.53,6.4-27.93,25.53-43.15,5.13-4.06,14.64-8.62,14.86-30.75a.72.72,0,0,0-.71-.68.71.71,0,0,0-.64.42c-.12,5.19-7.65,26.14-14.54,26.36-8.37.27-15.12-11.87-15.2-17.32-.06-4.66-2-8.8-4.09-12.79a8.91,8.91,0,0,1-.57-7.51c3.51-9.73,9.06-18.19,19.62-20.47,32.56-7.08,42.85,36.8,42.85,36.8s10.28-43.88,42.84-36.8c10.58,2.28,16.11,10.74,19.62,20.47a8.91,8.91,0,0,1-.57,7.51c-2.1,4-4,8.13-4.09,12.79-.07,5.45-6.83,17.59-15.2,17.32-6.89-.22-14.42-21.17-14.54-26.36a.71.71,0,0,0-.64-.42.72.72,0,0,0-.71.68c.22,22.13,9.73,26.69,14.86,30.75,19.13,15.22,25.11,41.62,25.53,43.15l-3.47.71c.71,2.66,1.43,5.23,2.22,8.11-3.92.59-7.25,1.66-10.15-1.51C173.21,516.43,133.77,530.42,133.57,559.53Z"/>
</svg>
