<svg id="Livello_1" data-name="Livello 1" xmlns="http://www.w3.org/2000/svg" viewBox="0 0 841.89 841.89">
  <title>Glos</title>
  <g>
    <g>
      <path d="M155,192.78a1.83,1.83,0,0,1,1.36,2.13,41.65,41.65,0,0,0-1,8,41.38,41.38,0,0,0,1,8A1.84,1.84,0,0,1,155,213c-71.42,17.72-101.22-3-107.79-8.71a1.83,1.83,0,0,1,0-2.76C53.73,195.79,83.53,175.06,155,192.78Z"/>
      <path d="M169.62,174.6c.71,1.25,1.32,2.49,2.11,3.64A55.3,55.3,0,0,0,182.16,189a20.17,20.17,0,0,0,12,4.46,39.82,39.82,0,0,0,23.36-5.37c1.46-.87,2.81-1.94,4.19-2.9,3.47,4.06,3.64,13.2,3.64,17.66s-.17,13.59-3.64,17.66c-1.38-1-2.73-2-4.19-2.92a39.67,39.67,0,0,0-23.36-5.37,20.13,20.13,0,0,0-12,4.48,55,55,0,0,0-10.43,10.8c-.79,1.13-1.4,2.39-2.11,3.62-5-4.9-9.64-20.81-9.64-28.28S164.64,179.5,169.62,174.6Z"/>
      <path d="M125.8,159.62c-1.83,13.71,21.88,20,34.36,22.44-.79,2-1.52,4.08-2.17,6.18-7.46-1.48-12.46-2.43-21.19-4-30-5.29-28.71-20.28-14.65-27C125.49,155.64,126,157.93,125.8,159.62Z"/>
      <path d="M241.12,162c4.23,1.62,7.62,10,1.64,16.75a25,25,0,0,1-10.17,6.65c1.15-.17,19.55-3.47,20.24-15.16.12-2.15,1.38-1.78,3.3-.2,4.44,3.65,6.18,11.91-7.29,18.76-4.19,2.11-14.26,4.6-14.26,4.6s11.48.22,18.15-2.23c2.94-1.09,7.84-4.11,9.08-8.65.58-2.05,1.72-1.42,3.26.51,3.6,4.51,3.36,12.27-11.06,16.85-5.39,1.71-20.41,2.72-25,3,0-4.72-.2-14-3.58-18.66,2-1.54,12.18-10.11,12.42-20.81C237.92,160.91,240.71,161.8,241.12,162Z"/>
      <path d="M145,147.12c1.56,10.94,16.23,22.75,20.3,25.83a24.34,24.34,0,0,0-3.68,5.79c-5.74-1.36-20-13.09-21.2-21.6C139,147.36,144.8,145.76,145,147.12Z"/>
      <path d="M203.56,112.4c52.72,1.27,64.14,66.76,95.12,77.49,37.56,13,33.86-48.88,2.9-32.82-13,6.75,2.13,21.15,3,10.17.22-3,2.79-3.34,3.68-2.75,7.86,5.22,1.87,16.94-6.89,16.31-16.83-1.22-19.08-20.87-4.76-32.05,10.13-7.91,28.1-6.59,36.74,9.48,9.11,17-8.61,41.63-9.79,44.65,1.18,3,18.9,27.66,9.79,44.66-8.64,16.08-26.61,17.4-36.74,9.48-14.32-11.17-12.07-30.82,4.76-32,8.76-.65,14.75,11.1,6.89,16.31-.89.6-3.46.28-3.68-2.74-.83-11-16,3.4-3,10.15,31,16.05,34.66-45.81-2.9-32.8-31,10.72-42.4,76.22-95.12,77.48-17.89.42-35.5-10.89-35.5-42,0-10.77,9.81-39.64,34.89-34.52,20.46,4.17,28.87,24.74,10.92,39.25-9.69,7.86-20.44-3.61-17.28-11.15,1.25-3,5.63-4.07,7.74.33.32,0,9.68-6.39-.06-13.29-12.36-8.72-23,7.31-22.64,19.1.53,16.37,9.12,23.08,22.84,22.83,47.67-.87,74.62-71,74.62-71s-26.95-70.14-74.62-71c-13.72-.23-22.31,6.48-22.84,22.83-.38,11.79,10.28,27.84,22.64,19.11,9.74-6.89.38-13.27.06-13.31-2.11,4.43-6.49,3.32-7.74.34-3.16-7.54,7.59-19,17.28-11.16,17.95,14.54,9.54,35.11-10.92,39.28-25.08,5.09-34.89-23.76-34.89-34.52C168.06,123.28,185.67,112,203.56,112.4Z"/>
      <path d="M158,217.54c.65,2.11,1.38,4.21,2.19,6.18-12.48,2.41-36.21,8.71-34.38,22.43.22,1.7-.31,4-3.65,2.37-14.06-6.71-15.3-21.7,14.65-27C145.53,220,150.53,219,158,217.54Z"/>
      <path d="M229,203c4.56.25,19.58,1.26,25,3,14.42,4.58,14.66,12.34,11.06,16.82-1.54,2-2.68,2.59-3.26.52-1.24-4.53-6.14-7.55-9.08-8.63-6.67-2.47-18.15-2.25-18.15-2.25s10.07,2.48,14.26,4.62c13.47,6.83,11.73,15.1,7.29,18.75-1.92,1.58-3.18,2-3.3-.19-.69-11.69-19.09-15-20.24-15.17a24.83,24.83,0,0,1,10.17,6.66c6,6.75,2.59,15.12-1.64,16.74-.41.16-3.2,1.05-3.24-1.38-.24-10.62-10.29-19.15-12.38-20.81C228.84,216.93,229,207.65,229,203Z"/>
      <path d="M161.62,227a24.47,24.47,0,0,0,3.68,5.78c-4.07,3.08-18.74,14.89-20.3,25.83-.2,1.36-6-.24-4.58-10C141.66,240.13,155.88,228.4,161.62,227Z"/>
    </g>
    <g>
      <path d="M686.94,628.89a1.83,1.83,0,0,0-1.36,2.13,32.58,32.58,0,0,1,0,15.94,1.83,1.83,0,0,0,1.36,2.13c71.42,17.72,101.22-3,107.79-8.71a1.83,1.83,0,0,0,0-2.76C788.16,631.9,758.36,611.17,686.94,628.89Z"/>
      <path d="M672.27,610.71c-.71,1.25-1.32,2.49-2.11,3.64a55.31,55.31,0,0,1-10.43,10.8,20.11,20.11,0,0,1-12,4.46,39.67,39.67,0,0,1-23.36-5.37c-1.46-.87-2.81-1.93-4.19-2.9-3.48,4.07-3.65,13.2-3.64,17.66s.16,13.6,3.64,17.66c1.38-1,2.73-2,4.19-2.92a39.82,39.82,0,0,1,23.36-5.37,20.2,20.2,0,0,1,12,4.48,55.59,55.59,0,0,1,10.43,10.8c.79,1.13,1.4,2.39,2.11,3.62,5-4.9,9.64-20.81,9.64-28.28S677.25,615.61,672.27,610.71Z"/>
      <path d="M716.09,595.74c1.83,13.7-21.88,20-34.36,22.43.79,2,1.52,4.09,2.17,6.18,7.46-1.48,12.46-2.43,21.19-4,29.95-5.29,28.71-20.28,14.65-27C716.4,591.75,715.87,594,716.09,595.74Z"/>
      <path d="M600.77,598.07c-4.23,1.62-7.62,10-1.64,16.74a25.07,25.07,0,0,0,10.17,6.66c-1.15-.18-19.55-3.48-20.24-15.17-.12-2.15-1.38-1.78-3.3-.2-4.44,3.66-6.18,11.91,7.29,18.76,4.19,2.12,14.26,4.6,14.26,4.6s-11.48.22-18.15-2.23c-2.94-1.08-7.84-4.11-9.08-8.65-.58-2.05-1.72-1.42-3.26.52-3.6,4.5-3.36,12.26,11.06,16.84,5.39,1.72,20.41,2.72,25,3,0-4.72.2-14,3.58-18.66-2-1.54-12.18-10.11-12.42-20.81C604,597,601.18,597.91,600.77,598.07Z"/>
      <path d="M696.89,583.24c-1.56,10.94-16.23,22.75-20.3,25.83a24.26,24.26,0,0,1,3.68,5.78c5.74-1.36,20-13.09,21.2-21.6C702.92,583.47,697.09,581.88,696.89,583.24Z"/>
      <path d="M638.33,548.51c-52.73,1.27-64.14,66.77-95.12,77.49-37.56,13-33.86-48.87-2.9-32.82,13,6.75-2.14,21.15-3,10.17-.22-3-2.79-3.34-3.68-2.74-7.86,5.21-1.87,16.94,6.89,16.31,16.83-1.23,19.08-20.88,4.76-32-10.13-7.92-28.1-6.6-36.74,9.48-9.11,17,8.6,41.62,9.79,44.64-1.19,3-18.9,27.67-9.79,44.67,8.64,16.07,26.61,17.39,36.74,9.48,14.32-11.18,12.07-30.83-4.76-32-8.76-.65-14.75,11.09-6.89,16.31.89.59,3.46.27,3.68-2.75.82-11,16,3.4,3,10.15-31,16.06-34.66-45.81,2.9-32.8,31,10.73,42.39,76.22,95.12,77.49,17.89.41,35.5-10.9,35.5-42,0-10.76-9.81-39.63-34.89-34.52-20.46,4.17-28.87,24.74-10.92,39.26,9.69,7.86,20.44-3.62,17.28-11.16-1.25-3-5.63-4.07-7.74.34-.32,0-9.68-6.4.06-13.29,12.36-8.73,23,7.3,22.64,19.09-.53,16.37-9.12,23.08-22.84,22.83-47.67-.87-74.62-71-74.62-71s27-70.14,74.62-71c13.72-.23,22.31,6.48,22.84,22.83.38,11.79-10.28,27.84-22.64,19.12-9.74-6.9-.38-13.27-.06-13.31,2.11,4.42,6.49,3.31,7.74.33,3.16-7.54-7.59-19-17.28-11.15-17.95,14.53-9.54,35.1,10.92,39.27,25.08,5.1,34.89-23.75,34.89-34.52C673.83,559.39,656.22,548.1,638.33,548.51Z"/>
      <path d="M683.9,653.65c-.65,2.12-1.38,4.21-2.19,6.18,12.48,2.41,36.21,8.71,34.38,22.43-.22,1.7.31,4,3.65,2.37,14.06-6.71,15.3-21.7-14.65-27C696.36,656.08,691.36,655.13,683.9,653.65Z"/>
      <path d="M612.85,639.08c-4.56.26-19.58,1.26-25,3-14.42,4.58-14.66,12.34-11.06,16.82,1.54,2,2.68,2.59,3.26.52,1.24-4.52,6.14-7.54,9.08-8.63,6.67-2.47,18.15-2.25,18.15-2.25s-10.07,2.49-14.26,4.62c-13.47,6.83-11.73,15.1-7.29,18.76,1.92,1.58,3.18,2,3.3-.2.69-11.69,19.09-15,20.24-15.17a24.87,24.87,0,0,0-10.17,6.66c-6,6.75-2.59,15.12,1.64,16.74.41.16,3.2,1.05,3.24-1.38.24-10.62,10.29-19.15,12.38-20.81C613.05,653,612.85,643.76,612.85,639.08Z"/>
      <path d="M680.27,663.15a24.77,24.77,0,0,1-3.68,5.79c4.07,3.08,18.74,14.88,20.3,25.82.2,1.37,6-.23,4.58-10C700.23,676.24,686,664.51,680.27,663.15Z"/>
    </g>
  </g>
</svg>
