<svg id="Livello_1" data-name="Livello 1" xmlns="http://www.w3.org/2000/svg" viewBox="0 0 841.89 841.89">
  <title>Glos</title>
  <path d="M235.68,592.85c23.65,11,30.17,52.93,35.82,67.39,11.53,33.67,39,48.81,31.75,61.93-3,5.39-9.74,5.92-14.62,3.24-13.52-9.85-39.66-75-50.78-72.82-12.18,2.38,14.69,34.16,19.55,38.17,15,12.39,16.08,33.74-1.66,41.18-11.81,4.95-24.94,7.25-37.71,9.26-10.86,1.7-21.9,12.06-36,12.6-6.34.24-10,4.54-11.87,11.34s-9.39,9.31-16.16,7.44c-7.51-2.07-11.88-7.39-10.94-14.87s6.06-23.51,2.39-45c-3.41-20,18.33-44.1,21.86-56.53,4.9-17.32-4.63-27.43-9.62-23.15-19,16.36-44,34.75-64.16,37.88-3.27.5-37.16,5.68-40.17-5.74-1.54-5.86.13-10.11,4.79-13.48,7.12-5.15,26.47,6.85,54.76-9.77,14-8.24,30.55-31.17,42.1-38.71,7.64-5,9.76-11.5,8.17-20.31-1.07-5.93-6.79-52.95,27.42-51.55,17,.69,30.93,13.78,34,32.14C227,577.86,218.65,584.93,235.68,592.85Z"/>
</svg>
