<svg id="Livello_1" data-name="Livello 1" xmlns="http://www.w3.org/2000/svg" viewBox="0 0 841.89 841.89">
  <defs>
    <style>
      .cls-1 {
        fill: #231f20;
      }
    </style>
  </defs>
  <title>Glos</title>
  <g>
    <g>
      <path class="cls-1" d="M418.75,15.39c7.16.6,10.89,7,13.87,12.82,4.23,8.18,9.61,25.6,5.14,34.14-.32.61-3,3.34-.78,3.33,1.07,0,2.6-3,2.95-4,2-5.44,1.14-11.1.4-16.68a.85.85,0,0,1,.83-1h.12c2.28-.24,8-6.18,10.07-7.9,7.22-6,15.68-11.91,25.62-10.49C489.68,27.5,493.21,37,488,48.14c-2.81,6-10.36,13.39-16,16.87-.93.58-5.42,2.61-5.63,2.85a.87.87,0,0,0-.22.74.84.84,0,0,0,1,.66A23.71,23.71,0,0,0,472.17,67a52,52,0,0,0,12-10.3c.68-.79,3.7-5.09,4-5.26s1.9-.42,2.63-.71c9.38-3.73,18.55-7.14,28.88-4.64,29.6,7.15-4.94,37.29-20,42a3.49,3.49,0,0,1-2.87-.35c-15.34-9.3-32.94-14.4-50.63-17.13-31.18-4.8-79.82-3.66-105.92,16.13-.72.55-2.32,2.33-3.06,2.3a35.63,35.63,0,0,1-5.72-2C322.4,83.14,310,73.57,305,65c-8.95-15.51,7-20.41,19.57-19.57,6.43.42,12.41,3,18.29,5.32.72.29,2.25.44,2.62.71.74.55,2.42,3.36,3,4a38.22,38.22,0,0,0,4.63,4.36c1.18.93,8.84,6,9.86,5.54a1,1,0,0,0,.27-1.56c-.36-.39-4.28-2.17-5.22-2.74-8.77-5.38-17.34-16.11-13.2-27,1.64-4.31,4.54-6.57,8.92-7.76,10.42-2.83,19.25,2.29,27.06,8.6,2.47,2,8.34,8.15,10.77,9a4.21,4.21,0,0,0,.83.21.84.84,0,0,1,.71.95c-.85,5.44-1.28,11.55.72,16.71a.84.84,0,0,0,1.56,0v0a.84.84,0,0,0,0-.47c-3.47-12.73,1-25.84,7.65-36.7,4-6.49,7.58-9.84,15.72-9.15"/>
      <path class="cls-1" d="M487.51,101.11a.68.68,0,0,1,.17,1.06h0c-7.55,8.2-29.93,8.18-40.34,8.06-16.19-.18-32.32-.49-48.51-.26a370.41,370.41,0,0,1-41-2.17,28.34,28.34,0,0,1-11.1-3.37.68.68,0,0,1-.15-1.06,16,16,0,0,1,1.8-1.42C365,89.59,393.26,86.57,413.52,86.27a219.19,219.19,0,0,1,36.13,2.85C462.8,91.13,475.82,94.77,487.51,101.11Z"/>
      <path class="cls-1" d="M495,90.66a.93.93,0,0,1,.41,1.08,27.65,27.65,0,0,0-1.09,4.43,5.6,5.6,0,0,1-.46,1.71.47.47,0,0,1-.58.17A199.19,199.19,0,0,0,440.79,83.8c-28.86-3.82-68.85-2.72-94.24,12.94-.91.56-5.41,3.88-5.79,4s-.34,0-.42-.36c-.29-1.41-.66-2.76-.89-4.07a18.64,18.64,0,0,1-.63-3.65c.3-1.41,8.23-6.47,9.84-7.36,25.8-14.3,67.09-15.41,95.71-11.21C462,76.64,479.63,81.53,495,90.66Z"/>
    </g>
    <g>
      <path class="cls-1" d="M133.17,15.39c7.15.6,10.88,7,13.87,12.82,4.22,8.18,9.6,25.6,5.14,34.14-.32.61-3,3.34-.79,3.33,1.08,0,2.6-3,3-4,2-5.44,1.14-11.1.4-16.68a.84.84,0,0,1,.83-1h.11c2.28-.24,8-6.18,10.08-7.9,7.22-6,15.68-11.91,25.61-10.49,12.72,1.82,16.24,11.27,11,22.46-2.81,6-10.37,13.39-16,16.87-.94.58-5.42,2.61-5.63,2.85a.87.87,0,0,0-.22.74.83.83,0,0,0,1,.66A23.94,23.94,0,0,0,186.59,67a52.16,52.16,0,0,0,12-10.3c.68-.79,3.7-5.09,4-5.26s1.9-.42,2.63-.71c9.37-3.73,18.54-7.14,28.88-4.64,29.59,7.15-4.95,37.29-20,42a3.51,3.51,0,0,1-2.88-.35c-15.33-9.3-32.93-14.4-50.62-17.13-31.18-4.8-79.82-3.66-105.93,16.13-.72.55-2.31,2.33-3,2.3a35.3,35.3,0,0,1-5.72-2c-9.07-3.88-21.51-13.45-26.47-22-8.94-15.51,7-20.41,19.58-19.57,6.43.42,12.4,3,18.28,5.32.73.29,2.26.44,2.63.71.74.55,2.42,3.36,3,4a39,39,0,0,0,4.63,4.36c1.18.93,8.84,6,9.87,5.54a1,1,0,0,0,.26-1.56c-.35-.39-4.28-2.17-5.21-2.74-8.77-5.38-17.34-16.11-13.2-27,1.64-4.31,4.54-6.57,8.92-7.76,10.42-2.83,19.25,2.29,27.06,8.6,2.47,2,8.34,8.15,10.77,9a4.21,4.21,0,0,0,.83.21.82.82,0,0,1,.7.95c-.84,5.44-1.28,11.55.72,16.71a.84.84,0,0,0,1.56,0v0a.84.84,0,0,0,0-.47c-3.46-12.73,1-25.84,7.65-36.7,4-6.49,7.59-9.84,15.73-9.15"/>
      <path class="cls-1" d="M201.93,101.11a.68.68,0,0,1,.17,1.06h0c-7.56,8.2-29.93,8.18-40.34,8.06-16.19-.18-32.33-.49-48.52-.26a370.23,370.23,0,0,1-41-2.17,28.34,28.34,0,0,1-11.1-3.37.68.68,0,0,1-.15-1.06A16,16,0,0,1,62.8,102c16.65-12.37,44.88-15.39,65.13-15.69a219.31,219.31,0,0,1,36.14,2.85C177.21,91.13,190.24,94.77,201.93,101.11Z"/>
      <path class="cls-1" d="M209.38,90.66a.93.93,0,0,1,.41,1.08,27.74,27.74,0,0,0-1.1,4.43,5.62,5.62,0,0,1-.45,1.71.48.48,0,0,1-.59.17A199,199,0,0,0,155.2,83.8C126.35,80,86.36,81.08,61,96.74c-.9.56-5.41,3.88-5.79,4s-.34,0-.41-.36c-.3-1.41-.66-2.76-.89-4.07a17.93,17.93,0,0,1-.63-3.65c.29-1.41,8.23-6.47,9.84-7.36,25.8-14.3,67.08-15.41,95.71-11.21C176.42,76.64,194,81.53,209.38,90.66Z"/>
    </g>
    <g>
      <path class="cls-1" d="M704.34,15.39c7.15.6,10.88,7,13.86,12.82,4.23,8.18,9.61,25.6,5.14,34.14-.31.61-3,3.34-.78,3.33,1.07,0,2.6-3,3-4,2-5.44,1.14-11.1.4-16.68a.83.83,0,0,1,.82-1h.12c2.28-.24,8-6.18,10.07-7.9,7.22-6,15.69-11.91,25.62-10.49,12.71,1.82,16.24,11.27,11,22.46-2.81,6-10.37,13.39-16,16.87-.93.58-5.41,2.61-5.63,2.85a.84.84,0,0,0,.77,1.4A23.81,23.81,0,0,0,757.76,67a52.37,52.37,0,0,0,12-10.3c.68-.79,3.69-5.09,4-5.26s1.89-.42,2.62-.71c9.38-3.73,18.55-7.14,28.89-4.64,29.59,7.15-4.95,37.29-20,42a3.49,3.49,0,0,1-2.87-.35c-15.33-9.3-32.94-14.4-50.63-17.13-31.18-4.8-79.81-3.66-105.92,16.13-.72.55-2.31,2.33-3.06,2.3a35.63,35.63,0,0,1-5.72-2c-9.06-3.88-21.51-13.45-26.46-22-9-15.51,7-20.41,19.58-19.57,6.42.42,12.4,3,18.28,5.32.72.29,2.25.44,2.63.71.74.55,2.42,3.36,2.95,4a38.22,38.22,0,0,0,4.63,4.36c1.18.93,8.84,6,9.87,5.54a1,1,0,0,0,.26-1.56c-.36-.39-4.28-2.17-5.21-2.74-8.77-5.38-17.34-16.11-13.21-27,1.65-4.31,4.55-6.57,8.93-7.76,10.41-2.83,19.25,2.29,27.06,8.6,2.47,2,8.33,8.15,10.77,9a4.3,4.3,0,0,0,.82.21.84.84,0,0,1,.71.95c-.85,5.44-1.28,11.55.72,16.71a.84.84,0,0,0,1.56,0v0a.84.84,0,0,0,0-.47c-3.47-12.73,1-25.84,7.65-36.7,3.95-6.49,7.59-9.84,15.73-9.15"/>
      <path class="cls-1" d="M773.1,101.11a.67.67,0,0,1,.16,1.06h0c-7.56,8.2-29.94,8.18-40.34,8.06-16.2-.18-32.33-.49-48.52-.26a370.41,370.41,0,0,1-41-2.17,28.29,28.29,0,0,1-11.09-3.37.67.67,0,0,1-.15-1.06A16,16,0,0,1,634,102c16.66-12.37,44.88-15.39,65.14-15.69a219.19,219.19,0,0,1,36.13,2.85C748.38,91.13,761.4,94.77,773.1,101.11Z"/>
      <path class="cls-1" d="M780.54,90.66a.92.92,0,0,1,.42,1.08,27.74,27.74,0,0,0-1.1,4.43,5.62,5.62,0,0,1-.45,1.71.49.49,0,0,1-.59.17A199.19,199.19,0,0,0,726.37,83.8c-28.85-3.82-68.84-2.72-94.24,12.94-.91.56-5.41,3.88-5.79,4s-.34,0-.42-.36c-.29-1.41-.65-2.76-.88-4.07a18,18,0,0,1-.64-3.65c.3-1.41,8.24-6.47,9.85-7.36C660,71,701.33,69.85,730,74.05,747.59,76.64,765.21,81.53,780.54,90.66Z"/>
    </g>
  </g>
  <g>
    <g>
      <path class="cls-1" d="M427,826.5c7.15-.6,10.88-7,13.86-12.82,4.23-8.18,9.61-25.6,5.14-34.14-.32-.61-3-3.35-.78-3.33,1.07,0,2.6,3,2.95,4,2,5.44,1.15,11.1.41,16.68a.83.83,0,0,0,.82,1h.12c2.28.24,8,6.18,10.07,7.9,7.22,6,15.69,11.91,25.62,10.49,12.71-1.82,16.24-11.27,11-22.46-2.8-6-10.36-13.39-16-16.87-.93-.58-5.41-2.61-5.63-2.85a.84.84,0,0,1,.77-1.4,23.81,23.81,0,0,1,5.06,2.26,52.37,52.37,0,0,1,12,10.3c.68.79,3.69,5.09,4,5.26s1.89.42,2.62.71c9.38,3.73,18.55,7.14,28.89,4.64,29.59-7.15-5-37.29-20-42a3.49,3.49,0,0,0-2.87.35c-15.34,9.3-32.94,14.4-50.63,17.13-31.18,4.8-79.81,3.66-105.92-16.13-.72-.55-2.31-2.33-3.06-2.3a35.63,35.63,0,0,0-5.72,2c-9.06,3.88-21.51,13.45-26.46,22-8.95,15.51,7,20.41,19.58,19.57,6.42-.42,12.4-3,18.28-5.32.72-.29,2.25-.44,2.62-.71.75-.55,2.42-3.36,3-4a38.22,38.22,0,0,1,4.63-4.36c1.18-.93,8.84-6,9.87-5.54a1,1,0,0,1,.26,1.56c-.36.39-4.28,2.17-5.21,2.74-8.77,5.38-17.34,16.11-13.21,27,1.65,4.31,4.55,6.57,8.93,7.76,10.41,2.83,19.25-2.29,27.06-8.6,2.46-2,8.33-8.15,10.76-9a4.39,4.39,0,0,1,.83-.21.84.84,0,0,0,.71-.95c-.85-5.44-1.28-11.55.72-16.71a.84.84,0,0,1,1.56,0v0a.84.84,0,0,1,0,.47c-3.47,12.73,1,25.84,7.65,36.7,3.95,6.49,7.59,9.84,15.73,9.15"/>
      <path class="cls-1" d="M495.71,740.78a.68.68,0,0,0,.16-1.06h0c-7.56-8.2-29.94-8.18-40.34-8.06-16.2.18-32.33.49-48.52.26a370.41,370.41,0,0,0-41,2.17,28.29,28.29,0,0,0-11.09,3.37.67.67,0,0,0-.15,1.06,16,16,0,0,0,1.79,1.42c16.66,12.37,44.88,15.39,65.14,15.69a219.19,219.19,0,0,0,36.13-2.85C471,750.76,484,747.12,495.71,740.78Z"/>
      <path class="cls-1" d="M503.15,751.23a.92.92,0,0,0,.42-1.08,27.74,27.74,0,0,1-1.1-4.43A5.62,5.62,0,0,0,502,744a.49.49,0,0,0-.59-.17A199.57,199.57,0,0,1,449,758.09c-28.85,3.82-68.85,2.72-94.24-12.94-.91-.56-5.41-3.88-5.79-4s-.34,0-.42.36c-.29,1.41-.66,2.76-.89,4.07a18.64,18.64,0,0,0-.63,3.65c.3,1.41,8.24,6.47,9.84,7.36,25.8,14.3,67.09,15.41,95.72,11.21C470.2,765.25,487.82,760.36,503.15,751.23Z"/>
    </g>
    <g>
      <path class="cls-1" d="M141.36,826.5c7.15-.6,10.88-7,13.87-12.82,4.22-8.18,9.61-25.6,5.14-34.14-.32-.61-3-3.35-.78-3.33,1.07,0,2.59,3,2.95,4,2,5.44,1.14,11.1.4,16.68a.84.84,0,0,0,.83,1h.12c2.28.24,8,6.18,10.07,7.9,7.22,6,15.68,11.91,25.62,10.49,12.71-1.82,16.24-11.27,11-22.46-2.81-6-10.36-13.39-16-16.87-.93-.58-5.42-2.61-5.63-2.85a.87.87,0,0,1-.22-.74.83.83,0,0,1,1-.66,23.94,23.94,0,0,1,5.05,2.26,52,52,0,0,1,12,10.3c.68.79,3.7,5.09,4,5.26s1.9.42,2.63.71c9.37,3.73,18.54,7.14,28.88,4.64,29.6-7.15-4.94-37.29-20-42a3.49,3.49,0,0,0-2.87.35c-15.34,9.3-32.94,14.4-50.63,17.13C137.6,776.1,89,775,62.85,755.17c-.71-.55-2.31-2.33-3.05-2.3a35.3,35.3,0,0,0-5.72,2c-9.07,3.88-21.51,13.45-26.46,22-8.95,15.51,7,20.41,19.57,19.57,6.43-.42,12.41-3,18.28-5.32.73-.29,2.26-.44,2.63-.71.74-.55,2.42-3.36,3-4a38.88,38.88,0,0,1,4.62-4.36c1.18-.93,8.84-6,9.87-5.54a1,1,0,0,1,.27,1.56c-.36.39-4.28,2.17-5.22,2.74-8.77,5.38-17.34,16.11-13.2,27,1.64,4.31,4.54,6.57,8.92,7.76,10.42,2.83,19.25-2.29,27.06-8.6,2.47-2,8.34-8.15,10.77-9a4.21,4.21,0,0,1,.83-.21.84.84,0,0,0,.71-.95c-.85-5.44-1.28-11.55.72-16.71a.84.84,0,0,1,1.56,0v0a.69.69,0,0,1,0,.47c-3.46,12.73,1,25.84,7.65,36.7,4,6.49,7.59,9.84,15.73,9.15"/>
      <path class="cls-1" d="M210.12,740.78a.68.68,0,0,0,.17-1.06h0c-7.55-8.2-29.93-8.18-40.34-8.06-16.19.18-32.32.49-48.52.26a370.36,370.36,0,0,0-41,2.17,28.34,28.34,0,0,0-11.1,3.37.68.68,0,0,0-.15,1.06,16,16,0,0,0,1.8,1.42c16.66,12.37,44.88,15.39,65.14,15.69a219.19,219.19,0,0,0,36.13-2.85C185.4,750.76,198.43,747.12,210.12,740.78Z"/>
      <path class="cls-1" d="M217.57,751.23a.93.93,0,0,0,.41-1.08,28.86,28.86,0,0,1-1.1-4.43,5.35,5.35,0,0,0-.45-1.71.47.47,0,0,0-.58-.17,199.57,199.57,0,0,1-52.45,14.25c-28.86,3.82-68.85,2.72-94.24-12.94-.91-.56-5.42-3.88-5.79-4s-.35,0-.42.36c-.29,1.41-.66,2.76-.89,4.07a18.64,18.64,0,0,0-.63,3.65c.3,1.41,8.23,6.47,9.84,7.36,25.8,14.3,67.09,15.41,95.71,11.21C184.61,765.25,202.24,760.36,217.57,751.23Z"/>
    </g>
    <g>
      <path class="cls-1" d="M712.53,826.5c7.15-.6,10.88-7,13.87-12.82,4.22-8.18,9.6-25.6,5.14-34.14-.32-.61-3-3.35-.79-3.33,1.08,0,2.6,3,3,4,2,5.44,1.14,11.1.4,16.68a.84.84,0,0,0,.83,1h.11c2.28.24,8,6.18,10.08,7.9,7.22,6,15.68,11.91,25.61,10.49,12.72-1.82,16.24-11.27,11-22.46-2.81-6-10.37-13.39-16-16.87-.94-.58-5.42-2.61-5.63-2.85a.87.87,0,0,1-.22-.74.83.83,0,0,1,1-.66,23.94,23.94,0,0,1,5.05,2.26,52.16,52.16,0,0,1,12,10.3c.68.79,3.7,5.09,4,5.26s1.9.42,2.63.71c9.37,3.73,18.54,7.14,28.88,4.64,29.59-7.15-5-37.29-20-42a3.51,3.51,0,0,0-2.88.35c-15.33,9.3-32.94,14.4-50.62,17.13C708.76,776.1,660.13,775,634,755.17c-.72-.55-2.31-2.33-3-2.3a35.3,35.3,0,0,0-5.72,2c-9.07,3.88-21.51,13.45-26.47,22-8.95,15.51,7.05,20.41,19.58,19.57,6.43-.42,12.4-3,18.28-5.32.73-.29,2.26-.44,2.63-.71.74-.55,2.42-3.36,3-4a39,39,0,0,1,4.63-4.36c1.18-.93,8.84-6,9.87-5.54a1,1,0,0,1,.26,1.56c-.35.39-4.28,2.17-5.21,2.74-8.77,5.38-17.34,16.11-13.2,27,1.64,4.31,4.54,6.57,8.92,7.76,10.41,2.83,19.25-2.29,27.06-8.6,2.47-2,8.33-8.15,10.77-9a4.21,4.21,0,0,1,.83-.21.82.82,0,0,0,.7-.95c-.84-5.44-1.28-11.55.72-16.71a.84.84,0,0,1,1.56,0v0a.84.84,0,0,1,0,.47c-3.47,12.73,1,25.84,7.65,36.7,4,6.49,7.59,9.84,15.73,9.15"/>
      <path class="cls-1" d="M781.29,740.78a.68.68,0,0,0,.17-1.06h0c-7.56-8.2-29.93-8.18-40.34-8.06-16.19.18-32.33.49-48.52.26a370.23,370.23,0,0,0-41,2.17,28.34,28.34,0,0,0-11.1,3.37.68.68,0,0,0-.15,1.06,16,16,0,0,0,1.8,1.42c16.65,12.37,44.88,15.39,65.13,15.69a219.31,219.31,0,0,0,36.14-2.85C756.57,750.76,769.6,747.12,781.29,740.78Z"/>
      <path class="cls-1" d="M788.74,751.23a.93.93,0,0,0,.41-1.08,27.74,27.74,0,0,1-1.1-4.43,5.62,5.62,0,0,0-.45-1.71.48.48,0,0,0-.59-.17,199.47,199.47,0,0,1-52.45,14.25c-28.85,3.82-68.84,2.72-94.24-12.94-.9-.56-5.41-3.88-5.79-4s-.34,0-.41.36c-.3,1.41-.66,2.76-.89,4.07a18.69,18.69,0,0,0-.64,3.65c.3,1.41,8.24,6.47,9.85,7.36,25.8,14.3,67.08,15.41,95.71,11.21C755.78,765.25,773.4,760.36,788.74,751.23Z"/>
    </g>
  </g>
</svg>
