<svg id="Livello_1" data-name="Livello 1" xmlns="http://www.w3.org/2000/svg" viewBox="0 0 841.89 841.89">
  <defs>
    <style>
      .cls-1 {
        fill: #231f20;
      }
    </style>
  </defs>
  <title>Glos</title>
  <g>
    <path class="cls-1" d="M470.46,755.68s14.23-37.6-30.35-45.66c0,0,14.71-6.94.95-20.71-10-9.95-19.35-34-20.12-36.19-.76,2.21-10.15,26.24-20.11,36.19-13.76,13.77.95,20.71.95,20.71-44.58,8.06-30.35,45.66-30.35,45.66C343,764.41,334,811.56,393.92,811c14.82-.13,27,8,27,8s12.21-8.08,27-8C507.92,811.56,498.91,764.41,470.46,755.68Zm-39.17,18.51a39.41,39.41,0,0,1-6.13,9.79,41.58,41.58,0,0,1-4.22,4.22,42.69,42.69,0,0,1-4.21-4.22,40.44,40.44,0,0,1-9.58-25.89,38.27,38.27,0,0,1,2.48-13,47.16,47.16,0,0,1,10.92-17.25l.39.4c3.48,3.53,8.57,9.09,11.32,16.85a38.27,38.27,0,0,1,2.48,13A39.72,39.72,0,0,1,431.29,774.19Z"/>
    <path class="cls-1" d="M470.46,86.21s14.23,37.6-30.35,45.66c0,0,14.71,6.94.95,20.7-10,10-19.35,34-20.12,36.2-.76-2.21-10.15-26.24-20.11-36.2-13.76-13.76.95-20.7.95-20.7-44.58-8.06-30.35-45.66-30.35-45.66C343,77.48,334,30.33,393.92,30.89c14.82.13,27-7.95,27-7.95s12.21,8.08,27,8C507.92,30.33,498.91,77.48,470.46,86.21ZM431.29,67.7a39.41,39.41,0,0,0-6.13-9.79,41.58,41.58,0,0,0-4.22-4.22,42.69,42.69,0,0,0-4.21,4.22,40.44,40.44,0,0,0-9.58,25.89,38.27,38.27,0,0,0,2.48,13,47.16,47.16,0,0,0,10.92,17.25c.13-.13.26-.26.39-.41,3.48-3.52,8.57-9.08,11.32-16.84a38.27,38.27,0,0,0,2.48-13A39.72,39.72,0,0,0,431.29,67.7Z"/>
  </g>
</svg>
