<svg id="Livello_1" data-name="Livello 1" xmlns="http://www.w3.org/2000/svg" viewBox="0 0 841.89 841.89">
  <defs>
    <style>
      .cls-1 {
        fill: #231f20;
      }
    </style>
  </defs>
  <title>Glos</title>
  <g>
    <g>
      <path class="cls-1" d="M127.7,74.83a30.43,30.43,0,0,1,7.51,24.46,25.3,25.3,0,0,1-4.32,11.39,23.83,23.83,0,0,1-11.12,8.73,19.63,19.63,0,0,1-11.92.89A30.91,30.91,0,0,1,97,115.61a23,23,0,0,0-8.8-3.74,7.76,7.76,0,0,1-3.61-1.48,1.43,1.43,0,0,1,.07-2c2.34-1.24,8.63-1.1,9.38-2.13.48-.67-1-3.73-.7-5.83.6-4.07,2.85-6.75,6.74-8.36a9.93,9.93,0,0,1,12.82,5.16c1.71,3.67-.36,8-4.41,9.51a12,12,0,0,1-4.55.6c-.26,0-.57.39-.78.65s1.71,2.56,2.76,3.26c3.73,2.53,10.79,2.37,14.63-.77a15.66,15.66,0,0,0,5.72-8.85c1.29-6.08,1.15-12-1.91-17.61a28.36,28.36,0,0,0-13-12.48,28.91,28.91,0,0,0-2.78-1c0,1,.11,1.91.11,2.77,0,1.61-2.25.75-3,.54A23.54,23.54,0,0,0,99,72.84a26.89,26.89,0,0,0-14.75,4.49,41.5,41.5,0,0,0-10.94,10c-.19.24,3.66.16,4.21.13.88,0,1.75,1.26,1.3,2-.68,1.12-1.39,2.2-2.15,3.28a28.17,28.17,0,0,0-5.07,18.83,25.72,25.72,0,0,0,4.66,13.21,29.17,29.17,0,0,0,17.39,12.12c2.76.64-2.73-4.14-4-6.6-1.12-2.11.9-7.92,4.13-2.93,7,10.89,28.42-5.24,41.88,6.53,3.19,2.79,6.48,6.13,5.88,10.52h0c6.42,2.24,4.45,9,4.45,9L289,296.59l-5.87,5.87-143-143.18s-2.87,3.25-7.32-.35c0,0-2.87,5.76-9.24-1.15-1.46-1.57-8.79-8.34-13.54-7a4.6,4.6,0,0,0-3.36,2.78c-.25.69-.23,2.89-1.95,2.76-5.23-.37-3.92-3.21-5.39-5.64-16.35.22-25.63-7.39-32.92-16.89-3.18-4.15-5.73-8.62-6.35-13.77-.28-2.41-1.16-5.36-3.33-6.24-5.55-2.28-5-6.64-3-6.37s3.63.56,4.75.79c.69.13,1.45-.39,1.48-2.94A41.69,41.69,0,0,1,73.39,74.89,32.72,32.72,0,0,1,90,66.08a4.08,4.08,0,0,0,3.49-4.27c0-4.45,4.55-8.65,5.83-4.82.28.86,1.5,5.83,1.93,6.26a2.42,2.42,0,0,0,1.61.3C113.29,63.19,121.35,67.51,127.7,74.83Z"/>
      <path class="cls-1" d="M714.19,74.83a30.43,30.43,0,0,0-7.51,24.46A25.3,25.3,0,0,0,711,110.68a23.83,23.83,0,0,0,11.12,8.73,19.63,19.63,0,0,0,11.92.89,30.91,30.91,0,0,0,10.84-4.69,23,23,0,0,1,8.8-3.74,7.81,7.81,0,0,0,3.61-1.48,1.43,1.43,0,0,0-.07-2c-2.34-1.24-8.63-1.1-9.38-2.13-.48-.67,1-3.73.7-5.83-.6-4.07-2.85-6.75-6.74-8.36A9.93,9.93,0,0,0,729,97.27c-1.71,3.67.36,8,4.41,9.51a12,12,0,0,0,4.55.6c.26,0,.57.39.78.65s-1.71,2.56-2.76,3.26c-3.73,2.53-10.79,2.37-14.63-.77a15.66,15.66,0,0,1-5.72-8.85c-1.29-6.08-1.15-12,1.91-17.61a28.36,28.36,0,0,1,13-12.48,28.91,28.91,0,0,1,2.78-1c0,1-.11,1.91-.11,2.77,0,1.61,2.24.75,3,.54a23.54,23.54,0,0,1,6.76-1.08,26.89,26.89,0,0,1,14.75,4.49,41.5,41.5,0,0,1,10.94,10c.19.24-3.66.16-4.21.13-.88,0-1.75,1.26-1.3,2,.68,1.12,1.39,2.2,2.15,3.28a28.17,28.17,0,0,1,5.07,18.83,25.72,25.72,0,0,1-4.66,13.21,29.17,29.17,0,0,1-17.39,12.12c-2.76.64,2.73-4.14,4-6.6,1.12-2.11-.9-7.92-4.13-2.93-7,10.89-28.42-5.24-41.88,6.53-3.19,2.79-6.48,6.13-5.88,10.52h0c-6.42,2.24-4.45,9-4.45,9l-143,143.18,5.87,5.87,143-143.18s2.87,3.25,7.32-.35c0,0,2.87,5.76,9.24-1.15,1.46-1.57,8.79-8.34,13.54-7a4.6,4.6,0,0,1,3.36,2.78c.25.69.23,2.89,2,2.76,5.23-.37,3.92-3.21,5.39-5.64,16.35.22,25.63-7.39,32.92-16.89,3.17-4.15,5.73-8.62,6.35-13.77.28-2.41,1.16-5.36,3.33-6.24,5.55-2.28,5-6.64,3-6.37s-3.63.56-4.75.79c-.7.13-1.45-.39-1.48-2.94A41.69,41.69,0,0,0,768.5,74.89a32.72,32.72,0,0,0-16.59-8.81,4.08,4.08,0,0,1-3.49-4.27c.05-4.45-4.55-8.65-5.83-4.82-.28.86-1.5,5.83-1.94,6.26s-1,.31-1.6.3C728.6,63.19,720.54,67.51,714.19,74.83Z"/>
    </g>
    <g>
      <path class="cls-1" d="M127.7,767.06a30.44,30.44,0,0,0,7.51-24.46,25.38,25.38,0,0,0-4.32-11.4,23.87,23.87,0,0,0-11.12-8.72,19.71,19.71,0,0,0-11.92-.9A31.12,31.12,0,0,0,97,726.28a23,23,0,0,1-8.8,3.74,7.76,7.76,0,0,0-3.61,1.48,1.43,1.43,0,0,0,.07,2c2.34,1.24,8.63,1.1,9.38,2.13.48.67-1,3.73-.7,5.83.6,4.07,2.85,6.75,6.74,8.36a9.93,9.93,0,0,0,12.82-5.17c1.71-3.66-.36-8-4.41-9.5a12,12,0,0,0-4.55-.6c-.26,0-.57-.39-.78-.65s1.71-2.56,2.76-3.26c3.73-2.53,10.79-2.37,14.63.77a15.66,15.66,0,0,1,5.72,8.85c1.29,6.08,1.15,11.95-1.91,17.61a28.36,28.36,0,0,1-13,12.48,28.91,28.91,0,0,1-2.78,1c0-1,.11-1.91.11-2.77,0-1.61-2.25-.75-3-.54A23.54,23.54,0,0,1,99,769.05a26.89,26.89,0,0,1-14.75-4.49,41.5,41.5,0,0,1-10.94-10c-.19-.24,3.66-.16,4.21-.13.88,0,1.75-1.26,1.3-2-.68-1.11-1.39-2.19-2.15-3.27a28.17,28.17,0,0,1-5.07-18.83,25.72,25.72,0,0,1,4.66-13.21,29.17,29.17,0,0,1,17.39-12.12c2.76-.64-2.73,4.14-4,6.6-1.12,2.11.9,7.92,4.13,2.93,7-10.89,28.42,5.24,41.88-6.53,3.19-2.79,6.48-6.13,5.88-10.52h0c6.42-2.24,4.45-9,4.45-9L289,545.3l-5.87-5.87-143,143.18s-2.87-3.25-7.32.35c0,0-2.87-5.76-9.24,1.15-1.46,1.57-8.79,8.34-13.54,7a4.6,4.6,0,0,1-3.36-2.78c-.25-.69-.23-2.89-1.95-2.76-5.23.37-3.92,3.21-5.39,5.64C82.94,691,73.66,698.6,66.37,708.1c-3.18,4.15-5.73,8.61-6.35,13.77-.28,2.41-1.16,5.36-3.33,6.24-5.55,2.28-5,6.64-3,6.37s3.63-.56,4.75-.79c.69-.13,1.45.39,1.48,2.94A41.69,41.69,0,0,0,73.39,767,32.72,32.72,0,0,0,90,775.81a4.07,4.07,0,0,1,3.49,4.27c0,4.45,4.55,8.65,5.83,4.82.28-.86,1.5-5.83,1.93-6.26a2.42,2.42,0,0,1,1.61-.3C113.29,778.7,121.35,774.38,127.7,767.06Z"/>
      <path class="cls-1" d="M714.19,767.06a30.44,30.44,0,0,1-7.51-24.46A25.38,25.38,0,0,1,711,731.2a23.87,23.87,0,0,1,11.12-8.72,19.71,19.71,0,0,1,11.92-.9,31.12,31.12,0,0,1,10.84,4.7,23,23,0,0,0,8.8,3.74,7.81,7.81,0,0,1,3.61,1.48,1.43,1.43,0,0,1-.07,2c-2.34,1.24-8.63,1.1-9.38,2.13-.48.67,1,3.73.7,5.83-.6,4.07-2.85,6.75-6.74,8.36A9.93,9.93,0,0,1,729,744.61c-1.71-3.66.36-8,4.41-9.5a12,12,0,0,1,4.55-.6c.26,0,.57-.39.78-.65S737,731.3,736,730.6c-3.73-2.53-10.79-2.37-14.63.77a15.66,15.66,0,0,0-5.72,8.85c-1.29,6.08-1.15,11.95,1.91,17.61a28.36,28.36,0,0,0,13,12.48,28.91,28.91,0,0,0,2.78,1c0-1-.11-1.91-.11-2.77,0-1.61,2.24-.75,3-.54a23.54,23.54,0,0,0,6.76,1.08,26.89,26.89,0,0,0,14.75-4.49,41.5,41.5,0,0,0,10.94-10c.19-.24-3.66-.16-4.21-.13-.88,0-1.75-1.26-1.3-2,.68-1.11,1.39-2.19,2.15-3.27a28.17,28.17,0,0,0,5.07-18.83,25.72,25.72,0,0,0-4.66-13.21,29.17,29.17,0,0,0-17.39-12.12c-2.76-.64,2.73,4.14,4,6.6,1.12,2.11-.9,7.92-4.13,2.93-7-10.89-28.42,5.24-41.88-6.53-3.19-2.79-6.48-6.13-5.88-10.52h0c-6.42-2.24-4.45-9-4.45-9l-143-143.18,5.87-5.87,143,143.18s2.87-3.25,7.32.35c0,0,2.87-5.76,9.24,1.15,1.46,1.57,8.79,8.34,13.54,7a4.6,4.6,0,0,0,3.36-2.78c.25-.69.23-2.89,2-2.76,5.23.37,3.92,3.21,5.39,5.64,16.35-.22,25.63,7.39,32.92,16.89,3.17,4.15,5.73,8.61,6.35,13.77.28,2.41,1.16,5.36,3.33,6.24,5.55,2.28,5,6.64,3,6.37s-3.63-.56-4.75-.79c-.7-.13-1.45.39-1.48,2.94A41.69,41.69,0,0,1,768.5,767a32.72,32.72,0,0,1-16.59,8.81,4.07,4.07,0,0,0-3.49,4.27c.05,4.45-4.55,8.65-5.83,4.82-.28-.86-1.5-5.83-1.94-6.26s-1-.31-1.6-.3C728.6,778.7,720.54,774.38,714.19,767.06Z"/>
    </g>
  </g>
</svg>
