<svg id="Livello_1" data-name="Livello 1" xmlns="http://www.w3.org/2000/svg" viewBox="0 0 841.89 841.89">
  <defs>
    <style>
      .cls-1 {
        fill: #231f20;
      }
    </style>
  </defs>
  <title>Glos</title>
  <g>
    <path class="cls-1" d="M798.16,137.72a41.68,41.68,0,0,0-17.24-56.3,42.3,42.3,0,0,0-52-37.48,41.68,41.68,0,0,0-58.88-1,40.76,40.76,0,0,0-9.57-1.11,42.24,42.24,0,0,0-42.15,39,41.7,41.7,0,0,0-19.18,55.66,42.37,42.37,0,0,0,20,60.92,41.66,41.66,0,0,0,47,35.41h0a40.52,40.52,0,0,0,7.08,6.52,42.26,42.26,0,0,0,57-6.71,41.73,41.73,0,0,0,48.25-33.82A41.11,41.11,0,0,0,787,194,42.31,42.31,0,0,0,798.16,137.72Zm-121.94-6.25c0-.12.08-.22.13-.34s0,0,0,0a.88.88,0,0,0,0-.15s0-.08,0-.1A23.76,23.76,0,1,1,685,157.74a2.69,2.69,0,0,0-.27-.2,23.78,23.78,0,0,1-9.54-19.06A24.5,24.5,0,0,1,676.22,131.47ZM626.72,167a41.74,41.74,0,0,0-8,23.91A36.61,36.61,0,0,1,600.57,147a31.6,31.6,0,0,1,2-4.8,41.53,41.53,0,0,0,30.77,17.61A41.27,41.27,0,0,0,626.72,167Zm22.84-88.42a41.72,41.72,0,0,0-25.23-.17,36.6,36.6,0,0,1,36.15-30.84,35.15,35.15,0,0,1,5.17.37A41.47,41.47,0,0,0,657.26,73a42,42,0,0,0,1.13,9.64A42.24,42.24,0,0,0,649.56,78.54Zm27.11,156.15a34.6,34.6,0,0,1-4-3.34A41.36,41.36,0,0,0,694.23,216a42.4,42.4,0,0,0,4.74-8.46,42.11,42.11,0,0,0,4.78,8.46A41,41,0,0,0,724,231,36.57,36.57,0,0,1,676.67,234.69ZM748.41,78.54a42.24,42.24,0,0,0-8.83,4.06,41.6,41.6,0,0,0-6.52-33.67,36.52,36.52,0,0,1,40.51,24.82,33.88,33.88,0,0,1,1.23,5A41.4,41.4,0,0,0,748.41,78.54ZM783.6,189.41a34.2,34.2,0,0,1-4.42,2.76A41.37,41.37,0,0,0,771.23,167a42.32,42.32,0,0,0-6.56-7.16,41.54,41.54,0,0,0,30-16.6A36.6,36.6,0,0,1,783.6,189.41Z"/>
    <path class="cls-1" d="M242.59,701a41.7,41.7,0,0,0-17.24-56.3,42.3,42.3,0,0,0-52-37.48,41.68,41.68,0,0,0-58.88-1,40.89,40.89,0,0,0-9.57-1.11,42.25,42.25,0,0,0-42.16,39A41.7,41.7,0,0,0,43.57,699.7a42.41,42.41,0,0,0,20,60.92,41.66,41.66,0,0,0,47,35.41h0a41,41,0,0,0,7.09,6.52,42.25,42.25,0,0,0,57-6.71A41.74,41.74,0,0,0,223,762a40.32,40.32,0,0,0,8.38-4.72A42.3,42.3,0,0,0,242.59,701Zm-121.94-6.25c0-.12.07-.22.12-.34s0,0,0,0a.88.88,0,0,1,0-.15s0-.08,0-.1A23.77,23.77,0,1,1,129.43,721l-.27-.2a23.78,23.78,0,0,1-9.54-19.06A24.5,24.5,0,0,1,120.65,694.73ZM71.14,730.22a41.81,41.81,0,0,0-8,23.91A36.62,36.62,0,0,1,45,710.25a32.62,32.62,0,0,1,2-4.8,41.53,41.53,0,0,0,30.77,17.61A41.67,41.67,0,0,0,71.14,730.22ZM94,641.8a41.72,41.72,0,0,0-25.23-.17,36.6,36.6,0,0,1,36.15-30.84,35,35,0,0,1,5.16.37,41.67,41.67,0,0,0-7.25,34.7A42.24,42.24,0,0,0,94,641.8ZM121.09,798a35.48,35.48,0,0,1-4-3.34,41.32,41.32,0,0,0,21.52-15.35,42,42,0,0,0,4.75-8.46,42.55,42.55,0,0,0,4.77,8.46,41.05,41.05,0,0,0,20.29,15A36.56,36.56,0,0,1,121.09,798ZM192.83,641.8a42.39,42.39,0,0,0-8.82,4.06,42,42,0,0,0,1.13-9.64,41.37,41.37,0,0,0-7.65-24A36.54,36.54,0,0,1,218,637a33.83,33.83,0,0,1,1.22,5A41.4,41.4,0,0,0,192.83,641.8ZM228,752.67a34.31,34.31,0,0,1-4.43,2.76,41.42,41.42,0,0,0-7.94-25.21,42.38,42.38,0,0,0-6.57-7.16,41.5,41.5,0,0,0,30-16.6A36.58,36.58,0,0,1,228,752.67Z"/>
  </g>
  <g>
    <path class="cls-1" d="M54.94,194a41.11,41.11,0,0,0,8.39,4.72,41.73,41.73,0,0,0,48.25,33.82,42.26,42.26,0,0,0,57,6.71,40.52,40.52,0,0,0,7.08-6.52h0a41.66,41.66,0,0,0,47-35.41,42.37,42.37,0,0,0,20-60.92,41.7,41.7,0,0,0-19.18-55.66,42.24,42.24,0,0,0-42.15-39,40.76,40.76,0,0,0-9.57,1.11,41.68,41.68,0,0,0-58.88,1A42.24,42.24,0,0,0,62.88,72,43,43,0,0,0,61,81.42a41.68,41.68,0,0,0-17.24,56.3A42.31,42.31,0,0,0,54.94,194ZM166.7,138.48a23.78,23.78,0,0,1-9.54,19.06,2.69,2.69,0,0,0-.27.2,23.81,23.81,0,1,1,8.55-26.91s0,.07,0,.1a.88.88,0,0,0,.05.15s0,0,0,0,.08.22.13.34A24.5,24.5,0,0,1,166.7,138.48Zm41.88,21.32a41.53,41.53,0,0,0,30.77-17.61,31.6,31.6,0,0,1,2,4.8,36.61,36.61,0,0,1-18.18,43.88,41.74,41.74,0,0,0-8-23.91A41.27,41.27,0,0,0,208.58,159.8ZM183.5,82.6A42,42,0,0,0,184.63,73a41.47,41.47,0,0,0-8.39-25.06,35.15,35.15,0,0,1,5.17-.37,36.6,36.6,0,0,1,36.15,30.84,41.72,41.72,0,0,0-25.23.17A42.24,42.24,0,0,0,183.5,82.6ZM117.85,231A41,41,0,0,0,138.14,216a42.11,42.11,0,0,0,4.78-8.46,42.4,42.4,0,0,0,4.74,8.46,41.36,41.36,0,0,0,21.52,15.35,34.6,34.6,0,0,1-4,3.34A36.57,36.57,0,0,1,117.85,231ZM67.09,78.76a33.88,33.88,0,0,1,1.23-5,36.52,36.52,0,0,1,40.51-24.82,41.6,41.6,0,0,0-6.52,33.67,42.24,42.24,0,0,0-8.83-4.06A41.4,41.4,0,0,0,67.09,78.76ZM47.19,143.2a41.54,41.54,0,0,0,30,16.6A42.32,42.32,0,0,0,70.66,167a41.37,41.37,0,0,0-7.95,25.21,34.2,34.2,0,0,1-4.42-2.76A36.6,36.6,0,0,1,47.19,143.2Z"/>
    <path class="cls-1" d="M610.52,757.3A40.32,40.32,0,0,0,618.9,762a41.74,41.74,0,0,0,48.26,33.82,42.25,42.25,0,0,0,57,6.71,41,41,0,0,0,7.09-6.52h0a41.66,41.66,0,0,0,47-35.41,42.41,42.41,0,0,0,20.05-60.92A41.7,41.7,0,0,0,779.14,644a42.25,42.25,0,0,0-42.16-39,40.82,40.82,0,0,0-9.57,1.11,41.68,41.68,0,0,0-58.88,1,42.3,42.3,0,0,0-52,37.48A41.7,41.7,0,0,0,599.3,701,42.3,42.3,0,0,0,610.52,757.3Zm111.75-55.56a23.78,23.78,0,0,1-9.54,19.06l-.27.2A23.81,23.81,0,1,1,721,694.09s0,.07,0,.1a.88.88,0,0,1,.05.15s0,0,0,0,.07.22.12.34A24.5,24.5,0,0,1,722.27,701.74Zm41.89,21.32a41.53,41.53,0,0,0,30.77-17.61,32.62,32.62,0,0,1,2,4.8,36.62,36.62,0,0,1-18.17,43.88,41.87,41.87,0,0,0-14.56-31.07Zm-25.09-77.2a41.67,41.67,0,0,0-7.25-34.7,35,35,0,0,1,5.16-.37,36.6,36.6,0,0,1,36.15,30.84,41.72,41.72,0,0,0-25.23.17A42.24,42.24,0,0,0,739.07,645.86ZM673.43,794.21a41.05,41.05,0,0,0,20.29-15,42.55,42.55,0,0,0,4.77-8.46,42,42,0,0,0,4.75,8.46,41.28,41.28,0,0,0,21.52,15.35,35.48,35.48,0,0,1-4,3.34A36.56,36.56,0,0,1,673.43,794.21ZM622.66,642a35.18,35.18,0,0,1,1.23-5,36.54,36.54,0,0,1,40.51-24.82,41.37,41.37,0,0,0-7.65,24,42,42,0,0,0,1.13,9.64,42.24,42.24,0,0,0-8.83-4.06A41.4,41.4,0,0,0,622.66,642Zm-19.89,64.44a41.5,41.5,0,0,0,30,16.6,42.38,42.38,0,0,0-6.57,7.16,41.42,41.42,0,0,0-7.94,25.21,34.31,34.31,0,0,1-4.43-2.76A36.58,36.58,0,0,1,602.77,706.46Z"/>
  </g>
</svg>
