<svg id="Livello_1" data-name="Livello 1" xmlns="http://www.w3.org/2000/svg" viewBox="0 0 841.89 841.89">
  <defs>
    <style>
      .cls-1 {
        fill: #231f20;
      }
    </style>
  </defs>
  <title>Glos</title>
  <g>
    <path class="cls-1" d="M167.18,419.78c-1.78-.72-.55-6.31,0-8.41,5.71-23.85,12.52-46,19.11-69.63,3.57-12.8,4.13-25.57,4.22-38.56,0-2.82-1.46-3.68-4.13-2.47-9.66,5.55-12.9,5-15.25,3.55-4.16-2.53-3.86-7.78.78-9.95,4.45-2.08,20.45-7.08,21-16.18.43-7.17-.76-26.31,7.63-26.35,6.35,0,5.53,18.54,5.13,23.92-.61,8.3,21.84,21.12,23.76,22.63a5.74,5.74,0,0,1,1.74,6.64c-3.19,4.82-9.42,1.73-16.51-2-4.75-2.47-6.26-2.34-7.67,2.83-.6,2.17-3,19.85,3.22,49.84,4,19.78,8.57,39.45,12.24,59.29.23,1.27,0,3.91-1.83,4.29-1.91,0-2.37-2-2.67-3.22-1.61-6.72-14.18-58.81-15.37-61-2-4-5.48-3.57-8.33-.38-4.52,4.65-16.43,43.43-21.21,57.21C171.77,415.37,170.62,420.58,167.18,419.78Z"/>
    <path class="cls-1" d="M195.75,572.12c-.85-12.4-1.61-44.54-5-51.65-1.61-3.42-3.37-4-6.35-1.67-2.39,1.87-10.07,10.08-13.28,6.83-2.15-2,0-4.17,1.22-5.74Q178.45,512,185,504.46a23.81,23.81,0,0,0,6-16.68,19.87,19.87,0,0,1,.91-6.42c1.31-3.93,5.16-4.67,7.58-1.31a13.72,13.72,0,0,1,2.62,7c.34,7.14,3.35,12.56,8.73,17.14,3.95,3.37,12.35,11,13.6,15.11.34,1.09.88,2.49-.37,3.55-3,2.52-8.85-2.59-11.66-5.14-3.71-3.36-8.94-4-6.6,4.2,2.56,13.67,4.89,27.42,8.28,40.89,1.8,7.17,11.64,28.35,13.26,37.35.27,1.06.67,2.59-.78,3.58s-2.86-.57-3.43-1.42c-2.08-3.13-7.83-14.86-9.24-17.2-2.09-3.46-5.36-3.46-7.73-.18s-3,14.9-3.38,18.77a2.64,2.64,0,0,1,0,.28c-.53,2.13-.33,5.12-3.41,5.08s-3.34-3.1-3.39-5.34C195.74,594.34,195.8,585,195.75,572.12Z"/>
    <path class="cls-1" d="M227.85,181.22c-2.91.43-4-2.38-4.56-3.52-6.92-13.34-16.6-60.59-23.62-58.6-5.52.23-18.3,46.27-20.92,54-.58,1.69-.82,4.27-3.22,3.84-1.92-.56-1.41-3.28-1.19-4.93,2.89-21.11,24.58-73.85,18.4-81.09-4.13-4.86-15.77,2.85-21,5.19-1.32.6-5.35,3.27-5.36-1,0-1.63,2.68-3,4.29-4.13,5.75-4,26.61-13.78,24.54-22.76-1.15-3.27-2.93-15.8,6.21-15.16s3.51,12.65,3.05,16.09c-.33,2.49-.24,4.64,2.07,6.31,7,5,23.14,17,24,18.12.47.55,1.12,1.19.5,2.27A2,2,0,0,1,228.82,97c-2.19-.47-18.3-11.84-21.23-8.87-4.54,4,19.83,85,20.73,88.2C228.72,177.71,229.63,180.73,227.85,181.22Z"/>
    <path class="cls-1" d="M188.07,756.16c.4-13.94.2-27.9.18-41.84,0-2.46-1.06-4-3.94-4.17-3.52-.23-4.73-2.78-2.5-5.5,3-3.72,8.47-9.75,7.46-17.48-.47-3.59-1.71-14.31,4.6-14.74,5.68-.4,6.39,10.08,6.78,13.63.54,4.73,2.11,8.79,5.57,12.11,2.4,2.29,8.83,9.49,9.74,10.67,2.81,3.64.87,8.51-9.22,3-3.89-2.11-5.58-1.56-5.73,2.86-.23,6.71.24,13.45.22,20.17-.1,39.32,9.89,59.37,2.66,61.57-3.27,1-7.16-8.47-10.35-7.47-2.2.69-2.66,7.81-4.93,7.82-1.11,0-1.81-1.09-2-2.61C186.12,790.83,187.81,765.43,188.07,756.16Z"/>
    <path class="cls-1" d="M71.85,530.17c0-4.49-2.11-14.91-11.1-8.59-2.09,1.47-8.62,7.32-10.26,7.94-2.07.79-3.48-.36-3.12-2.53.74-4.56,10.15-14.13,14.79-18.71,4.32-4.25,5.54-8.69,4.14-14.64-1.07-4.5-2.9-21.6,6.07-22.41,9.91-.9,9.57,20.57,9.16,23.47-.5,3.61.46,6.57,3.57,8.33,10.49,5.92,20.06,15.69,23.6,23.69.45,1,1.16,2.41.08,3.65-1.23,1.42-2.79.33-3.67-.26-3.37-2.26-12.65-14.06-17.15-11.51-2.9,1.65-2.22,12.35-1.69,16.09,2.41,16.88,4.83,33.76,7.54,50.59,1,6.34,5.08,19.39,4.55,27.63-.06,1-.37,2.71-1.44,2.87s-1.89-1.47-2.35-2.44c-1-2-1-9.87-5.71-10.52-7.7-1.05-9.32,5.89-9.78,7.13-.28.73-.56,1.91-1.37,2s-1.33-1-1.75-1.6C73,606,72.44,601,72.39,595.93,72.29,585.77,71.85,541.93,71.85,530.17Z"/>
    <path class="cls-1" d="M86.26,403.64c-.12,1.49-.13,4.35-2,4.54-2.15,0-2.6-2.84-2.79-4.39-.7-5.64-.68-11.37-1.39-17-.91-7.22-2.35-27.32-7.21-26.87-3.7.2-6.68,19.67-8.14,26.91C63.87,390.9,63,395,61.85,399c-.27,1-.9,2.73-2.25,2.54-1.65-.43-1.58-2-1.6-3-.3-15.84,10.88-53,9.25-74.1-.3-3.79-3-5-6.44-3.32-2.89,1.37-13.5,8.39-16.28,9.79-1.85.93-4.23,1.62-5.72-.41s-.19-4.21,1.47-5.76c2.42-2.26,28.86-18.34,29.81-31.54.41-5.67-4.21-29.72,6.8-29.76,12.82-.05,7.37,24.44,7.18,28.69-2.19,16,6.74,8.46,31.88,41.38,1.59,1.54,3,5.17,2.52,7-1.08,3.35-4.11,3-6.65,1.29C109,339.93,96.16,327,92,323.11c-3.22-3-5.85-2.37-7.3,1.82C81,332.17,87.14,393.46,86.26,403.64Z"/>
    <path class="cls-1" d="M64.36,82c-1.15-4.43-3.24-4.87-6.72-1.92-2.45,2.09-9.62,8-10.89,8.66-2.24,1.07-4.66,1.52-6.59-.5s-2.65-4.81-1.09-7.06S53.82,69.47,58,66.53c3.6-2.53,4.7-6,3.57-10.23a12.58,12.58,0,0,1,.89-9.65c.71-1.31.26-3.2.77-4.67a15.18,15.18,0,0,1,2.26-3.31c.81,1.06,2,2,2.34,3.21a12.59,12.59,0,0,0,2.65,5,8.84,8.84,0,0,1,1.94,6.24c-.8,6.28,2.7,9.42,7.49,12.07,6,3.3,19.7,12,20.67,12.81,1.35,1.18,2.06,2.64,1.74,3.84-.38,1.42-3.12.43-4.37-.1C94.82,80.4,82.81,71.55,80,75c-4,4.87,25.33,79.8,37.55,101.62.18.33,1.93,3.61.07,5.26-2.58,2.28-5.18-1.77-6.23-3.52C101,161,82.43,117.8,76.59,119.72c-5.45,1.8-8,72.55-8.17,73.83-.21,1.56-1.66,2.19-3.34,2.07a3.51,3.51,0,0,1-3-2.43C61.53,190.9,65.39,85.86,64.36,82Z"/>
    <path class="cls-1" d="M73.6,798.86c-1.64-.36-1.18-3.2-.86-5.1C77.37,762.45,71,709,69.31,704.22c-1.33-3.84-3.13-4.17-6.73-2.33-4.21,2.15-8.36,4.43-12.66,6.38-1.72.78-4.25,2.22-5.36-.33-.41-.94,1.36-3.5,2.74-4.43,5.62-3.79,11.52-7.17,17.24-10.83,6.23-4,6.18-4,4.79-11.2-.27-1.41-2-10.53,5-11.12,7.9-.68,6.81,10.93,6.37,13.34-.73,4-.22,5.42,3.66,7,3.14,1.24,24.48,10.09,25.4,10.52s3,1.26,2.34,3.33-3.32.88-4.09.6c-2-.73-13.49-5.13-17.82-6.37-3.09-.88-4.13.16-4.8,3.35-1.8,8.69,11.91,76.75,17.61,91.73a1.94,1.94,0,0,1-1.13,2.42,2.21,2.21,0,0,1-2.45-1c-.7-.92-8.62-18.51-13.56-18.44-4.71.06-7.79,13.68-9.13,18.2C76,797.33,75.17,799.15,73.6,798.86Z"/>
    <path class="cls-1" d="M747.18,73.91c3.85-2.28,11.91-13.49,9.18-18.32-4-7-5.06-21.5,3.22-21.52,12.11,0,10.82,17,10.85,21.57,0,3.7,4.76,7.62,14.45,10.07,7.24,1.83,11.78,7.83,10.65,17.89-1.33,11.88-15.35,35.51-15.18,38.63.76,13.71,4.14,27.15,6.32,40.71,1.15,7.2,6.16,27.79,2,29.31-3.11,1.14-4.43-.66-5.72-2-1.55-1.58-4.68-11.19-6-13.31-2-3.2-5.16-3.18-7,.11-1.29,2.35-2.57,23.14-7.83,23.16-3.16,0-2.74-7.62-2.54-10.25,1.61-21.63,2.93-94.88-4.19-103.86-3.42-4.32-12.29-3.33-11.2,24.56.44,3.59-.44,9.48-4,8.86-2.3-.4-2.91-4.69-3.21-7C736.45,108.59,731.29,83.31,747.18,73.91Zm39.14,17.77c0-3.1.42-17.47-8.73-16.22-5.65.77-.28,29.32.58,34.28C780.07,103.06,780.92,96.19,786.32,91.68Z"/>
    <path class="cls-1" d="M798.77,722.28c-2.69-.32-3.57.42-5.13-1.2-2.88-3-13.91-13.8-20-8.18-2.55,2.36-.64,18.61.71,25.28A283.27,283.27,0,0,0,790.87,791c.26.61,2,5,.69,5.92-1.78,1.26-3.35-.5-4.2-1.47-2.15-2.46-9.1-13.65-11.47-15.65-3.64-3.07-8.5-.94-8.71,3.83-.15,3.09.42,8-3.39,8.19s-4.15-4.91-4.13-7.92c.1-16.79,1.3-33.55,1.74-50.34.77-14.59-4.43-20.78-9.89-15.29-4.67,4.7-8,10.54-12,15.84-1.66,2.21-2.72,5.24-6.49,4.45-.33-.07-1.54,3.59-3.42,2.89-2.93-1.1-2-4.82-.56-7.3,5.93-10,11.91-20,18.44-29.68,3.66-5.42,4.07-10.32,1-15.88-1.13-2.06-6.46-14.36,3.66-16.4,12.14-2.45,10.32,11.67,10.22,15-.23,7.48,5.07,10.89,10,11.23,8,.55,13.67,4.5,19.62,9.61,4.29,3.68,14.42,14.47,11.13,16.41C801.42,725.41,799.51,722.36,798.77,722.28Z"/>
    <path class="cls-1" d="M775.75,565.72c1.19,9.56,3.71,18.94,5.37,28.46a110.84,110.84,0,0,1,1.17,13.28c0,.87-.4,2.58-1.43,2.71s-1.89-1.48-2.12-2.39c-1.29-5-3.85-17.09-4.19-18-1.56-4-6.32-4.94-8.82-1.5-1.5,2.06-5.1,13.53-6.61,16.43-.86,1.63-2.66,2.89-4.29,3.94-.75.48-2.53.91-3.15,0s.36-2,.9-2.69a31.73,31.73,0,0,0,6.62-19c.23-7.48.4-15,.42-22.46,0-14.51.64-40.24-.17-45.24-.7-4.35-2.66-5.84-6.88-4.48-2.59.85-10.5,7.33-12.65,4-3.21-5,13.91-14.86,17.56-18.93,2.7-3,3.64-7,3.68-11.12,0-2.36-2.13-12,5.06-12,7.36.27,5.29,11.7,5.65,15.38.43,4.39,2.5,7.72,6.55,9.6,3.09,1.43,14.5,4.42,13.45,8.1-.83,2.91-7.55.81-9.88.4-4.49-.8-6.17-.25-7.06,4.22C773.75,520.49,774.4,554.82,775.75,565.72Z"/>
    <path class="cls-1" d="M755.21,361.54c-.16,1.44-2.26,3.48-2.3,4.92-.2,7.81,1.9,15,3.79,22.63a57.86,57.86,0,0,1,.92,20.45,7.31,7.31,0,0,1-1,2.81c-.74,1.24-3.93,1.82-4.46.49a19.51,19.51,0,0,1-1.23-4.82c-.57-4.68-.87-9.39-1.49-14.06-.58-4.28-1.54-8.51-2.15-12.78s-1-8.44-1.44-12.66c-.11-1.08-.15-2.18-.24-3.26-.49-5.88,5.2-12.47,6.77-18.12a101.17,101.17,0,0,0,3.81-27.69,37.68,37.68,0,0,0-2.28-12.24,9.12,9.12,0,0,0-7.95-6.46c-1.58-.22-3.17-.45-4.73-.79-5.41-1.19-8.28-4.44-8.52-10.06-.17-4.2,0-8.42.06-12.62,0-2.42.13-4.84.3-7.24a4.17,4.17,0,0,1,.72-1.94c1.32-1.91,3.45-1.93,4.88-.09a9.9,9.9,0,0,1,1.87,6.15c.05,3.47,0,6.95.09,10.42a15.09,15.09,0,0,0,.62,3.43,6.74,6.74,0,0,0,6.17,5.24,46.33,46.33,0,0,0,7,.25c4.79-.14,8.69-4.77,9.17-9.42a17.46,17.46,0,0,0-3.15-12.49,1.88,1.88,0,0,1,.9-3.11,9.35,9.35,0,0,1,2.63-.44c2.53-.13,4-1.4,4.21-3.92.41-5.52.67-11.06,1.14-16.57.22-2.67.73-5.32,1.19-8a1.72,1.72,0,0,1,.86-1.18,1.64,1.64,0,0,1,2,.76,12.09,12.09,0,0,1,1.74,5.87,62.16,62.16,0,0,1-1.25,14.53,13.2,13.2,0,0,0,1.56,9.45,1.45,1.45,0,0,0,1.91.83c.48-.14,1.37-.06,1.57.24a2.37,2.37,0,0,1,.16,1.85,9.1,9.1,0,0,1-1.4,2.27c-.59.78-1.26,1.49-1.91,2.21-4.14,4.65-5,10.1-3.73,16a13.14,13.14,0,0,0,5.32,7.62c3.23,2.46,6.65,4.65,9.87,7.11,4.59,3.5,8.74,7.43,11.12,12.86a6.54,6.54,0,0,1,.53,2.13c.08,1.06-.42,1.49-1.43,1.18a7.79,7.79,0,0,1-2.51-1.21c-3.12-2.51-6.18-5.11-9.25-7.69-1.35-1.12-2.63-2.34-4-3.37-3.53-2.56-6.76-1.75-8.82,2.09-1.69,3.13-2.18,6.58-2.5,10-.55,6-1,12.05-1.24,18.08-.11,3.6.5,7.22.64,10.84.14,4.09.23,8.19.13,12.28q-.22,9.24-.78,18.47c-.27,4.67-.78,9.33-1.14,14-.38,5-.65,10-1.07,15.06q-.71,8.31-1.62,16.62a13.41,13.41,0,0,1-1,3.35,2.37,2.37,0,0,1-2.51,1.49c-1.17-.28-1.33-1.24-1.31-2.2.15-6.94.19-13.89.54-20.82a111.77,111.77,0,0,0-.89-22.39,101.78,101.78,0,0,1-1-18.55c.08-2.25,0-4.52-.11-6.78,0-.44-3-.55-3.16-1Z"/>
    <path class="cls-1" d="M509.84,487.08c-1-6.42-.22-11.22,2.36-15.81,1.09-1.94,2.09-7.53,3.5-8.49s1.57.19,4.46.1,9.59,14.69,6.06,26c-1.76,5.59,1.22,9.53,5.78,12.43,7.12,4.51,32.74,16.27,29.86,24.41-.65,1.85-4.19,2.91-7.7,1.51-4-1.6-12.82-7.25-17.43-8.89-5.1-1.81-10.11-1.17-11.77,4.48-1.91,6.48-.38,14.6,1,19.19,4.18,13.55,16.77,43.08,20.82,52.78,1.54,3.7,10.22,9.48,7.58,14.08-5.15,9-20.07-21.54-24.69-31.61-2.7-5.9-9.6-21.07-13.82-20.39-3.79.61-5.46,19.08-6.57,26.93-1.79,12.57-2.88,28.45-4.66,37.81-.17.87-.4,3-1.83,3-1.14,0-1.48-1.09-1.95-3.13-1.31-5.8-7.21-54.86,6.3-83.84,4.61-9.89,3.09-17.26-4-19.2-2.82-.77-14.8-2.9-15.87-6.87-1.51-5.56-3.62-11.16-8.47-14.23-6.27-4-10-15.26-1.74-18.22s10.18,7.32,11,13.83c.56,4.38,5.13,12.66,13.43,11.5,3.55-.5,6.11-2.35,6.77-5.94C509.09,494.32,509.46,490.08,509.84,487.08Z"/>
    <path class="cls-1" d="M513.53,730.37c-2.15-4.23-6.93-5.82-10.45-2.66a9.86,9.86,0,0,0-3.15,4.58c-1.48,6.72-16.49,18.28-20.15,11.3-2.45-4.66,9.73-12,10.7-16,2.76-11.14,10.24-18.29,19.49-24.1,4.93-3.09,5.5-4.34,2.9-9.45s-3.52-10.32-2-15.93a14.14,14.14,0,0,0,.18-3.69c0-2.31.8-4,3.07-4.91A4.88,4.88,0,0,1,520,671c3.26,4,7.88,10,7.52,22.71-.07,2.35,1.37,3.92,3.41,4.84,36.34,10.18,22,23.49,17,29.91a50.92,50.92,0,0,1-6.23,6.23,20.57,20.57,0,0,0-7.08,16.67c.42,13.73,7.14,44.28,7.23,46.24,0,.82-.4,2.28-1.34,2.53s-1.9-.74-2.21-1.41c-1.67-3.7-2.92-13-8.29-15.15-2.8-1.1-5-.39-5.72,3.06-.42,2.13-.8,9.75-4.51,9.59-4.16-.17-4.2-6.09-4.22-7.68C515.52,780.34,516.49,736.17,513.53,730.37Zm21.38-5.93c1.82,1,11.54-1.17,6.62-8.53-1.36-2-3.66-3.69-5.69-2.55C533.37,714.73,532.07,722.79,534.91,724.44Z"/>
    <path class="cls-1" d="M528.71,331.4c0,16.23,4.51,31.39,9.86,46.52,3.2,9,4.7,18.69,6.93,28.07.13.54.82,2.73-1.08,3.7-.9.46-1.76-.35-2.13-.93-1.47-2.31-14.66-37.84-16.41-41.93a5.81,5.81,0,0,0-3-2.93c-.6-.21-2.23,1.28-2.76,2.33-3.77,7.43-16.8,35.41-19.84,41.83-.47,1-1.21,2.77-2.69,2.38-1.79-.65-1.59-2.43-1.38-3.43.89-4.24,11.79-34.28,15.63-45.27,4.31-7.51.92-36.49-.23-40-1.32-4.05-3.77-5.16-7.35-2.73s-18.47,16.54-20,17.14c-1.34.52-2.53,1.15-4.42.09A4.29,4.29,0,0,1,478,331.9c.19-5.45,24.21-27,31.87-29.24,2.64-1,3.84-2.64,4-5.21.16-3.12-.21-21.9-.22-28.16,0-2.13.06-7.77,6.06-8.14,6,0,6.37,5.23,6.61,8.54.67,9.18,1.29,18.36,1.79,27.55.13,2.48.71,4,3.48,4.58a15.52,15.52,0,0,1,9.17,6.37c4.84,6.55,15.69,22.68,15.81,24.11a4.82,4.82,0,0,1-1.26,3.71,4.06,4.06,0,0,1-3.84.16c-2.76-2.08-12.81-18-17-20.58C530.49,312.93,528.41,316.26,528.71,331.4Z"/>
    <path class="cls-1" d="M512.36,142.19c-.39,1.94-.83,3.35-1,4.79-1.84,20.28-1.82,40.59-1.07,60.92a7.09,7.09,0,0,1,0,1c-.17,1.4.79,3.48-1.07,4a11.8,11.8,0,0,1-5.9-.1,2.93,2.93,0,0,1-1.61-4.14c2.54-5.28.93-10.47,0-15.65a85.2,85.2,0,0,1-1.43-17.75c.15-6.5-.1-13,0-19.51.17-10.66.32-21.34.82-32,.19-4,1.51-7.92,2-11.91a73.82,73.82,0,0,0-.83-21.45,10.56,10.56,0,0,0-8.16-8.82c-2.11-.58-4.21-1.18-6.28-1.89-5.72-2-7.95-5.68-6.75-11.55.85-4.21,2.17-8.33,2.92-12.55a82.07,82.07,0,0,0,.61-8.77,6.47,6.47,0,0,1,.44-1.77c.55-1.48,1.35-2.93,3.15-2.7a2.94,2.94,0,0,1,2.44,3.34c-.31,3.17-1,6.3-1.6,9.43s-1.51,6.38-1.81,9.6a5.6,5.6,0,0,0,4.35,6.36,34.34,34.34,0,0,0,7.15,1.49c3.86.2,4.87-1,5.32-4.82.61-5.08,1-10.21,2.09-15.2,1.67-7.94,3.67-15.82,5.8-23.65a20.09,20.09,0,0,1,3.36-6.45c1.36-1.81,3.32-1.76,5.07-.29,2.25,1.88,3.76,4.2,3.33,7.3q-.6,4.26-1.41,8.48A4.78,4.78,0,0,0,525,43.55c.6.33,1.19.68,1.76,1.06,2.16,1.5,3.07,3.5,1.89,5.86-1.93,3.89-4.32,7.56-6.47,11.35a17.32,17.32,0,0,0-2,4.21c-1,4,.88,7,4.94,9,3.66,1.81,7.49,3.44,10.8,5.79A36.6,36.6,0,0,1,548.14,96c1,2.27,2.73,4.23,4,6.43a12.87,12.87,0,0,1,1.51,4.12c.32,2.07-1,3.33-2.84,4s-3.43-.1-4.53-1.9c-2.81-4.6-5.47-9.32-8.49-13.78a19.34,19.34,0,0,0-5.21-5c-2.36-1.55-4.47-.74-5.77,1.78a26.28,26.28,0,0,0-3,15.64c.75,6.1,1.38,12.23,1.95,18.35a75.46,75.46,0,0,1-1.61,24.66,31.59,31.59,0,0,0,.23,15.43c1.53,6,1.21,11.92.5,17.93-.65,5.43-1.08,10.89-1.66,16.32-.18,1.74-.61,3.52-2.66,3.93-1.42.28-3-1.5-3.47-3.74a14.89,14.89,0,0,1-.29-3.46,42,42,0,0,0-1.37-13.4,19.08,19.08,0,0,1-.28-10.33,11.62,11.62,0,0,0,.36-3.05c-.07-6.35-.19-12.69-.31-19C515,146.7,514.42,144.63,512.36,142.19Z"/>
    <path class="cls-1" d="M286,735.64c.4-10.93-3.18-18.93-11.1-21.28-11.68-3.1-20.17-14.63-24.09-19.45-5.43-6.68-6.3-20.77,4.9-19.86,10.55.86,10.92,29.29,21.64,26.31,4.48-1.24,6.35-3.18,6.57-9.72.1-6.19-11.24-46.8,4.34-43,10.18,2.64,13.62,30.69,12.83,40.77a6.68,6.68,0,0,0,4.18,7.05c2.38,1.15,40.33,11.58,39.48,17.08-.85,5.15-24,.39-35.66-1.71-6-.93-9.54,10.64-4.63,20.28,4.37,8.41,22.77,41.68,28.66,58.1.87,1.93,1.93,3.34,4.13,3.88,2.57.63,3.62,2.69,3.66,5.14.06,3,.61,11.61-3.33,10.49-3.35-1.13-31.14-49.2-33.56-51.51-3.57-3.41-7.28-2-7.79,2.89-.62,5.84-3.13,42.19-5.12,53.8-.31,2-.89,5.91-3.25,5.91-3.23,0-3-6.57-3.21-9.19S285.56,758.41,286,735.64Z"/>
    <path class="cls-1" d="M294.64,558.06c-3.2.31-9.4,40.74-10,42.24-.35.88-.74,2.06-2.24,1.86-1.25-.15-1.21-1-1.34-2.27-.17-1.58,2.89-28.48,4.28-40.33,1.16-10,2.4-30.73-.74-37.38-1.64-3.48-3.37-4.11-6.67-1.94-2.29,1.5-15.84,12.5-19.38,7.49-4.75-5,19.4-20.38,25.11-25.08a9.54,9.54,0,0,0,3.5-8c0-1.61-.07-3.23-.08-4.84,0-3.91,1.94-6.33,5.83-7.21,3-.69,5.72.73,7.11,4.22a26.5,26.5,0,0,1,1.62,7.16,12.73,12.73,0,0,0,4.58,8.53c7.75,6.84,31.94,24.06,26.76,28.27-8,3.94-21-8.72-22.26-9.6-3.36-2.4-6-1.66-7.43,4.49-2.16,8.86,2.1,30.37,2.91,38.39,1.1,10.85,3.53,36.53,3.39,38.5a2.05,2.05,0,0,1-1.27,2c-1.11.25-1.61-.88-1.83-1.52C305.2,599.38,298.72,557.7,294.64,558.06Z"/>
    <path class="cls-1" d="M304,389.6c-2.25.12-2.29-4.18-2.38-6.34-.61-14.88-1.5-48.15-4.81-61.16-1.27-5-4-6.18-8.73-4.13-3,1.31-11,5.61-12.06,3.48-.5-1,.65-2.39,1.44-2.94,4.34-3,8.83-5.87,13.26-8.79a8.84,8.84,0,0,0,4.37-8.62c-.27-3.87-6.23-18.14,4.2-19,8.79-.73,6.83,11.23,7,14.7a9.39,9.39,0,0,0,6.16,8.76c3.91,1.66,8.05,2.75,12.05,4.2,2.57.93,9.36,3.4,9.14,5.4-.36,3.36-13-.31-16.5-1.06-5.76-1.23-7.84.43-7.87,6.2-.08,16.42,2.93,32.43,6.68,48.32,1.2,5,2.76,10,4.07,15.06.19.7.49,1.86-.14,2.3-.79.55-1.81.24-2.68-.87a45.86,45.86,0,0,1-4-6.86c-1.07-2-2.34-3.47-4.9-2.91s-2.94,2.45-3.06,4.53C305.14,382.5,305.65,389.51,304,389.6Z"/>
    <path class="cls-1" d="M289.76,179.54c.11,7.16,2.7,23,2.24,25.54-.68,3.76-15.71,2.67-8.47-1.06,2.32-1.19,2.17-3.81,1.71-6.26-3.88-17.2-6.26-64-1.93-82.86,1.64-7.14-1.07-19.59-1.68-22.51-1.05-5-3.38-7.18-8.48-7.9-2.2-.31-14.33,2-12.63-7.63.58-3.28,5-34.2,10-34.4,1.19,0,1.72,2,1.6,3-.48,4-6.16,30.68-1.43,32.15,4,1.25,9.63.4,13.76-.13s6.24-3.15,6.41-7.22-4.69-21-1.06-21.32c1.28-.11,5.43,4.35,6.91,3,1-.9,10.9-31.23,14.17-30.13,2.88,1-7.7,29.78-7.32,31.74.4,2.13,5.91.83,6.78,1.43,2.21,1.55-5.8,13.67-6.92,15.76-2.51,4.71-1.9,9.07,1.91,12.75,2.48,2.39,28.69,21.79,25.74,26.78C328.19,114.35,313.2,97,306.51,94c-.95-.44-3.36-.35-3.78,1.83-1.47,7.46-2.94,14.78-1.75,22.65,2.62,17.3,3.66,34.84,1.34,52.23a207.26,207.26,0,0,0-2,32.71c.07,2.72,7.47,6.3,5.5,8.93-.75,1-9.32-1.14-11.32-3.45-1.78-2.06-.3-11.56-1-16.56-.66-4.79-1.7-9.86-.66-14.51,1.87-8.38-.61-32.27-1-35.83C291.61,142,289.6,168.83,289.76,179.54Z"/>
    <path class="cls-1" d="M381.22,436.72c-1.06-.18-1.19-2.32-1.08-3.47,1.89-20.1,3.31-40.26,6.05-60.25,1.35-9.84,11.67-19.23,14.71-28.78,3.86-12.15,5.78-33.88,4.55-42-.68-3.11-1.95-3.88-4.88-2.47-2.27,1.1-14.33,10.67-18.53,13.59-7.85,5.34-9.62-7.55-7.45-9.14,1.46-.94,4.84,1.77,5.35,1.36,7.48-6.1,14.85-12.07,21.55-19.3,6-6.48,1.64-23.91.64-29.68-.41-2.34-1.77-3.39-4.39-3.41A9.14,9.14,0,0,1,396.68,235c4.73-.84,12.27,5.47,10.38,10.34-1,2.63.12,4.75,1,7.21,2.09,5.74,3.62,30,16.16,34.75,1.59.61,6.31,2.4,5.48,5a2.14,2.14,0,0,1-2.25,1.64c-2.16,0-10.83-2.84-11.19,2.47-.26,2.61,1.79,29.56,7,35.89,9,11,6.62,26.7.4,40.07-3.64,7.81-7.58,15.48-11.4,23.2-.94,1.9-1.83,3.55,0,5.66,1.4,1.61.46,5.5-1.47,6.92-3,2.19-10.4,16.83-12.79,20.92-.49.83-1.74,2.15-2.74,1.77-1.2-.53-1-2.2-.72-3,1.57-4.56,8.83-22.14,9.39-27.13.63-5.51,3.13-10.84,5.09-16.14,3.68-9.95,19.59-41.18,7.56-40.44-7.31.45-27.87,37.16-26.66,56.1a12.9,12.9,0,0,0,1.85,5.46c1.68,2.83,1.41,3.3-1.47,4.72-4.11,1.47-5.27,16.15-6.49,22.09C383.51,434,383,437,381.22,436.72Z"/>
    <path class="cls-1" d="M438.63,119c-1.85.8-3.65-2.31-4.91-3.84C429.5,110,419,96,417.29,94.63c-4.22-3.43-9.5-1.47-10.29,3.46-1.3,9.22,12.17,71.77,23.08,78,3,1.57,6.34,2.79,5.73,4.94-.56,2-3,1.95-5.18,1.49-2.63-.52-3.29.79-3.37,3.1-.08,2.08.32,7.85-2.26,8-2.26.14-4-5.17-4.45-7.25-1.6-7.1-12-52.61-15-56.95-1.55-3.19-4-3.59-5.83-.62-3.35,5-9.11,30.43-10.45,39.7-.93,6.17,1.89,10.09,1.73,12.82-.16,3-4.4,1.86-4.93,5-.32,1.87.17,7.59-3.48,7.61-3.24,0-3.54-8.47-3-11.52,2.89-16.13,11.56-55.2,13.38-61.87a50.45,50.45,0,0,0,.92-22.82c-1-5.19-4.15-7.62-9.37-7.89-17-.35-20.35-24.22-20.36-25.69s-.26-2.72,1.73-3.63c1.83-.29,2.56,1.15,3,2.2,9.28,21.48,25.23,20.74,24.16,9.82-.49-6.67-16.33-27.62-1.07-31.94,19.22-3.65,12.82,30,12.72,31.6-.34,5.47,1,9.47,7,11.55,11.05,1.87,22.88,25.26,26.8,31.3C439.52,116.54,439.76,118.41,438.63,119Z"/>
    <path class="cls-1" d="M426.22,591.48c-4.45-9.83-16.28-35.88-18.09-38.87-1.64-2.73-3.81-2.71-5.56,0-.95,1.48-8.87,27-12.28,38-.54,1.74-1,5.72-3,5.43-2.24-.41-1.41-4.49-1.15-6.61.74-6,7.22-37,8.72-46.59,1-6.5.76-13.22.76-19.85,0-3.13-1.46-3.94-4.3-2.44-4.26,2.25-8.3,4.94-12.51,7.29a11.52,11.52,0,0,1-4.73,1.63c-2.51.12-3.67-2-2.18-4,1.32-1.79,16.29-12.82,22.09-16.76a4.37,4.37,0,0,0,2-5.34c-.49-1.89-3.31-12.11,5.68-12.42,7.6-.26,6.17,10.38,6.07,11.12-.68,5.06,2,5.64,6.15,8,5.51,3.14,17.11,11.1,17.59,11.47a1.64,1.64,0,0,1,.63,2.28c-.5,1.1-1.64.67-2.23.44-2.47-1-12.39-5.72-15-6.79-3.7-1.49-5.46-.28-5.44,3.69a87,87,0,0,0,6,30.21c4.42,11.79,13.51,37.39,14,39.12.31,1.13,1.19,2.91-.41,3.63S426.69,592.52,426.22,591.48Z"/>
    <path class="cls-1" d="M383.46,693.21c4.23-.92,6.12-3.13,5.93-8.24-.09-2.32-1.64-14.57,3.85-15.3,9.8-1.32,9.33,12.23,9.17,15.22-.21,3.76.69,7.18,3.58,8.31,6.59,2.6,17.42,27.81,24.4,32.35,1.44.94,9.81,3.58,9.83,10.73.14,3.87-6.4,4.85-9.36-.69A22,22,0,0,0,420.75,726c-3.85-1.87-11.6-18.3-15.78-13.19-1.45,1.77-1.43,10.23,1.82,15.94,6.25,11,4.85,38.75,5.52,47.27.56,7.19.58,12.57,5.93,14.7,2.39,1,6,4.8,3.3,6.4-3.64,2.15-7.51,2.19-11.68,1.26-1.62-.36-2.31-1.46-2.69-3.38-.7-3.42-.15-7.66-1-10.92-1.78-7-2.84-27.5-4.24-30.15-2-3.79-4.94-3.45-6.15.77-1.57,5.46-9.87,35-1.52,38.79,1.46.66,3.51,2.21,2.53,4.33-2.61,5-11.8-1.51-12.82-3.73-2-4.38-.08-21.63.34-25.4,1.31-11.92-1.39-23.52,5.38-42.47,3.51-9.84-3.71-22.41-12.62-24-7.39-1.32-13-5.21-13.17-14.16-.09-4.8-.35-9.6-.6-14.4-.09-1.8.68-2.65,2-3a3.22,3.22,0,0,1,3.91,3C369.92,688.94,370.83,695.93,383.46,693.21Z"/>
    <path class="cls-1" d="M643.46,761.37c-1.57.41-3.49,19.62-4.08,21.38-.32,1-.92,2.29-2.17,2.31-1.76,0-2.33-1.4-2.81-2.32-3-5.85-1.57-28.24-.2-37.16.72-4.66.39-17.56-.24-19.11-2.25-5.48-8.68-7-12.36-2.51-2.93,3.57-8.72,17.78-11.61,19-1.25.54-3.22.94-4.13.32a4.43,4.43,0,0,1-1.3-3.94c1.2-3.86,7.38-19.06,8.29-23.07,1.24-5.43,2.58-6.77,8.06-6.49,9.18.47,13.92-4.71,12.78-13.93-.23-1.79-1.64-11,6.11-11.7,5.61-.09,9.93,3.54,9.27,9.1-1,8.33,3,12.81,9.56,16.9,8,5,25.53,18.78,26.31,20.14.49.86,1.11,2.4.26,3.52s-2.72.89-3.65.5c-2.06-.87-13.16-9.22-17.15-11.57-9.53-5.6-16.12-2.16-16.54,8.84-.23,6.23.65,12.47,4.11,18,4.48,7.21,5.66,15.22,5,23.51-.12,1.4-.73,3.72-2.46,4-1.88.1-3.21-1.63-4-2.94C649.1,771.9,644.84,761.2,643.46,761.37Z"/>
    <path class="cls-1" d="M671.87,599.52c-2.83.66-4.57-3.19-5.79-7.71-2.7-9.85-14.29-39.6-20.18-38.74-4.59.67-3.31,39.28-3.33,45.73,0,1.56,0,4.42-1.87,4.69-1.5.2-2.28-2.59-2.81-4.1-5.24-14.83-4.95-30-2.2-45.2,1.53-8.52,1.74-29,1.42-30.53-.64-3.12-2.43-3.89-5-2s-13.28,9.57-16.36,11c-.8.37-1.8,1.29-3.15-.54-1.11-1.17.36-2.11,1-2.73,5.79-5.86,11.41-11.94,17.64-17.29,3.75-3.22,4.94-6.6,4.2-11.17-.42-2.61-5.9-17.37,7-17.42,9.91,0,5.24,16.44,5.09,17.76a5.79,5.79,0,0,0,3.49,6.43c7.58,3.9,25.15,13.73,26.06,14.89a2.61,2.61,0,0,1,.5,3,2.17,2.17,0,0,1-2.4,1.43c-2.77-.44-15.67-5.66-19.52-7.26-3.44-1.44-4.61-.57-4.46,3.12a68.61,68.61,0,0,0,6.66,28c6.12,12.51,11.72,25.29,14.94,38.92C673.5,592.72,674.39,599,671.87,599.52Z"/>
    <path class="cls-1" d="M642.75,197.54a12.7,12.7,0,0,1-2.17,1.27,13.94,13.94,0,0,1-4.45,1.18c-1,0-2-1.05-3-1.63.57-.86.95-2,1.73-2.53,5.1-3.64,6.47-8.51,5.17-14.43-2.19-10.07-4.66-20.09-6.36-30.24a149.33,149.33,0,0,1-2-22.45,97,97,0,0,1,1.75-17.28c1.5-8.91-.24-17.25-3.74-25.34-1.14-2.62-3.48-4-6.12-4.79-2.41-.76-4.88-1.38-7.19-2.37-3.94-1.68-5.36-4.84-4-8.85a65.17,65.17,0,0,1,3.5-7.83A10.85,10.85,0,0,0,617,54.34a7.65,7.65,0,0,1-.13-4c.38-1.15,1.51-2.73,2.48-2.87,1.87-.27,2.23-1.39,2.78-2.7,1.43-3.39,2.9-6.77,4.43-10.11a10.36,10.36,0,0,1,1.52-2l.55.25a11.07,11.07,0,0,1-.28,1.83c-.38,1.24-.79,2.47-1.29,3.67a62.5,62.5,0,0,0-4.6,19c-.28,3.35-1.5,6.64-2.44,9.91-1.09,3.81.81,6.84,4.75,7,3,.13,6,0,9-.12,3.41-.13,5.16-2.36,4.62-5.78-.37-2.29-.87-4.57-1.1-6.87A14.18,14.18,0,0,1,640,51.08a9.47,9.47,0,0,0,1.67-9.21,11.08,11.08,0,0,1,1.48-10,7,7,0,0,1,1.68-1.76c2.27-1.54,4.67-.84,5.25,1.82a61.94,61.94,0,0,1,1.06,9.14c.14,2,0,4.1-.06,6.15,0,3.93-.4,7.8,1,11.71s.25,7.87-1.27,11.59c-2.11,5.14-3.3,6.35,3.5,10.36,5.51,3.25,11.5,5.69,17.23,8.59a61,61,0,0,1,5.93,3.62,1.81,1.81,0,0,1,.7,1.5,1.72,1.72,0,0,1-1.29,1.05,14,14,0,0,1-4.34-.72c-3.41-1.4-6.72-3-10.07-4.58-4.73-2.18-8.58-.87-11,3.78-3.12,6.11-3.32,12.69-2.5,19.24.55,4.44,2.13,8.74,3,13.14,1.68,8.43.94,16.88,0,25.33-.54,4.82-1.17,9.64-1.29,14.48-.2,8.05.29,16.09-1.7,24.06-.89,3.6-.83,7.45,1.65,10.8,1,1.3-.29,3.32-2.05,3.7a4.36,4.36,0,0,1-5.24-3.43C643.09,200.22,643,198.94,642.75,197.54Z"/>
    <path class="cls-1" d="M644.25,375.15c.41-8.75-2.71-26.72-4.32-29.8-1.86-3.56-3.93-3.68-5.83-.2-1.62,3-10.55,45.28-10.73,47.59-.45,5.35-3,7.33-7.38,5.62a3.87,3.87,0,0,1-1.82-4.72c3.18-7.28,9.49-37.56,10.5-42.06,2-8.77,13.51-48.54,3.63-56-2.62-2-8.5,2.24-11,9.53-2.94,8.65-9.75,3.61-10.16-.83-.27-3,.94-6.51,3.44-7,4.28-.83,6.81-4.42,9.67-7.46,2.62-2.79,5.1-4,8.56-2,5.17,4,10.88-2,10.68-6.45-.15-3.17-1.86-15.3,5.92-15.33,8.5,0,6.62,13.6,4.66,17.11a6.76,6.76,0,0,0,.15,7.59c3.46,5.42,7.23,10.57,10.52,16.11,3.87,6.49,9.17,9.69,15.55,11.31,2.4.62,7.35,7.65,6.58,10.19s-7.53-.07-9.4-1.5c-5.82-4.45-18.3-15.11-18.93-15.6-3.08-2.36-5.09-1.74-6.06,2.54-1.86,8.19-3.23,16.39-.64,24.93,2.82,9.31,4.38,43.95,4.41,51.45,0,4.72,1.51,8.22,5,10.68.82.58,2.21,1.54,2,2.69-.8,3.73-12.1,2.49-11.83-3.5C647.65,393.17,643.91,382.78,644.25,375.15Z"/>
  </g>
</svg>
