<svg id="Livello_1" data-name="Livello 1" xmlns="http://www.w3.org/2000/svg" viewBox="0 0 841.89 841.89">
  <defs>
    <style>
      .cls-1 {
        fill: #231f20;
      }
    </style>
  </defs>
  <title>Glos</title>
  <g>
    <path class="cls-1" d="M302.56,375.9l-3.12-13.4a4.41,4.41,0,0,0-.23-.7,16.86,16.86,0,0,0,4.66-14c-.92-8.7-7.53-15.13-14.74-14.35s-12.33,8.45-11.41,17.16c.72,6.7,4.79,12.05,9.94,13.81a5.82,5.82,0,0,0,.11.81L291,378.91c-12.36-.46-23.11-11.92-24.71-27.05-1.73-16.34,7.85-30.76,21.41-32.22s25.95,10.62,27.69,27C316.69,359.2,311.29,370.65,302.56,375.9Z"/>
    <path class="cls-1" d="M316.13,445.08c-12.62,4.27-27.23-4.27-32.85-19.4-5.37-14.4-.74-29.62,10.32-35.47l3.19,13.66a5.62,5.62,0,0,0,.22.73c-4,3.82-5.34,10.57-2.94,17,2.36,6.29,7.57,10.43,12.95,10.87h0a5.84,5.84,0,0,0,.9,1.73Z"/>
    <path class="cls-1" d="M325.93,438.15l-8.32-11a17.67,17.67,0,0,0-9-25,7.58,7.58,0,0,0-.13-.94l-3.09-13.24c10,.91,19.79,8.68,24.15,20.4C333.6,419.26,331.88,430.74,325.93,438.15Z"/>
    <path class="cls-1" d="M372.89,491.64c-7.14,11.2-23.7,13.8-37.54,5.73-14.15-8.24-20.08-24.53-13.23-36.38a20.79,20.79,0,0,1,3-4l8.13,10.78a4.85,4.85,0,0,0,.61.67c-3.24,6.26-.05,14.62,7.29,18.9,6.15,3.58,13.33,3.21,17.73-.47a5.63,5.63,0,0,0,1.59.79Z"/>
    <path class="cls-1" d="M376.22,480.11l-12.13-3.89a5.64,5.64,0,0,0-1.38-.28,16.91,16.91,0,0,0-8.37-11.43,17.51,17.51,0,0,0-10.7-2.4,5.44,5.44,0,0,0-.85-1.59l-7.28-9.66c7.53-2.15,16.54-1.08,24.62,3.63C370.32,460.42,376.24,470.5,376.22,480.11Z"/>
    <path class="cls-1" d="M447.15,486l-12.36,4a4.15,4.15,0,0,0-.69.28h0a17.57,17.57,0,0,0-26.29,0,4.26,4.26,0,0,0-.7-.28l-12.36-4c4.93-7.88,14.83-13.25,26.21-13.25S442.21,478.16,447.15,486Z"/>
    <path class="cls-1" d="M450.57,497.55v0c0,13.68-13.26,24.78-29.62,24.78s-29.63-11.1-29.63-24.78v0l12.15,3.9a6,6,0,0,0,2.47.23c2.06,5.28,8,9.11,15,9.11s13-3.83,15-9.11h0a5.89,5.89,0,0,0,2.45-.23Z"/>
    <path class="cls-1" d="M308.58,402.07a6,6,0,0,1-4.55,6.21l-.11,0A5.94,5.94,0,0,1,297,404.6a5.62,5.62,0,0,1-.22-.73l-3.19-13.66L291,378.91l-3.19-13.66a5.82,5.82,0,0,1-.11-.81,5.94,5.94,0,0,1,4.53-6.35l.11,0a5.91,5.91,0,0,1,6.91,3.73,4.41,4.41,0,0,1,.23.7l3.12,13.4,2.8,12,3.09,13.24A7.58,7.58,0,0,1,308.58,402.07Z"/>
    <path class="cls-1" d="M341.63,468.94a5.94,5.94,0,0,1-7.78-.49,4.85,4.85,0,0,1-.61-.67L325.11,457l-9-11.92-8.19-10.87a5.84,5.84,0,0,1-.9-1.73h0a6.09,6.09,0,0,1,2.08-6.7,5.86,5.86,0,0,1,3.6-1.2,5.92,5.92,0,0,1,4.77,2.37l.14.16,8.32,11,9.58,12.71,7.28,9.66a5.44,5.44,0,0,1,.85,1.59A6.05,6.05,0,0,1,341.63,468.94Z"/>
    <path class="cls-1" d="M411,497.55a6,6,0,0,1-7.52,3.9l-12.15-3.9-18.43-5.91-12.43-4a5.63,5.63,0,0,1-1.59-.79,6,6,0,0,1,3.4-11,3.17,3.17,0,0,1,.44,0,5.64,5.64,0,0,1,1.38.28l12.13,3.89L394.74,486l12.36,4a4.26,4.26,0,0,1,.7.28A6,6,0,0,1,411,497.55Z"/>
    <path class="cls-1" d="M539.33,375.9l3.12-13.4a4.41,4.41,0,0,1,.23-.7,16.86,16.86,0,0,1-4.66-14c.92-8.7,7.53-15.13,14.74-14.35s12.33,8.45,11.41,17.16c-.72,6.7-4.79,12.05-9.94,13.81a5.82,5.82,0,0,1-.11.81l-3.19,13.66c12.36-.46,23.11-11.92,24.71-27.05,1.73-16.34-7.85-30.76-21.41-32.22s-26,10.62-27.69,27C525.2,359.2,530.6,370.65,539.33,375.9Z"/>
    <path class="cls-1" d="M525.76,445.08c12.62,4.27,27.23-4.27,32.85-19.4,5.37-14.4.74-29.62-10.32-35.47l-3.19,13.66a5.62,5.62,0,0,1-.22.73c4,3.82,5.34,10.57,2.94,17-2.36,6.29-7.57,10.43-13,10.87h0a5.84,5.84,0,0,1-.9,1.73Z"/>
    <path class="cls-1" d="M516,438.15l8.32-11a17.67,17.67,0,0,1,9-25,7.58,7.58,0,0,1,.13-.94l3.09-13.24c-10,.91-19.79,8.68-24.15,20.4C508.29,419.26,510,430.74,516,438.15Z"/>
    <path class="cls-1" d="M506.54,497.37c-13.84,8.07-30.41,5.47-37.54-5.73l12.43-4a5.63,5.63,0,0,0,1.59-.79c4.4,3.68,11.58,4.05,17.73.47,7.34-4.28,10.53-12.64,7.29-18.9a4.85,4.85,0,0,0,.61-.67L516.78,457a20.79,20.79,0,0,1,3,4C526.62,472.84,520.69,489.13,506.54,497.37Z"/>
    <path class="cls-1" d="M506.38,450.86l-7.28,9.66a5.44,5.44,0,0,0-.85,1.59,17.51,17.51,0,0,0-10.7,2.4,16.91,16.91,0,0,0-8.37,11.43,5.64,5.64,0,0,0-1.38.28l-12.13,3.89c0-9.61,5.9-19.69,16.09-25.62C489.84,449.78,498.85,448.71,506.38,450.86Z"/>
    <path class="cls-1" d="M533.31,402.07a6,6,0,0,0,4.55,6.21l.11,0a5.94,5.94,0,0,0,6.91-3.71,5.62,5.62,0,0,0,.22-.73l3.19-13.66,2.64-11.3,3.19-13.66a5.82,5.82,0,0,0,.11-.81,5.94,5.94,0,0,0-4.53-6.35l-.11,0a5.91,5.91,0,0,0-6.91,3.73,4.41,4.41,0,0,0-.23.7l-3.12,13.4-2.8,12-3.09,13.24A7.58,7.58,0,0,0,533.31,402.07Z"/>
    <path class="cls-1" d="M500.26,468.94a5.94,5.94,0,0,0,7.78-.49,4.85,4.85,0,0,0,.61-.67L516.78,457l9-11.92L534,434.21a5.84,5.84,0,0,0,.9-1.73h0a6.09,6.09,0,0,0-2.08-6.7,5.86,5.86,0,0,0-3.6-1.2,5.92,5.92,0,0,0-4.77,2.37l-.14.16-8.32,11-9.58,12.71-7.28,9.66a5.44,5.44,0,0,0-.85,1.59A6.05,6.05,0,0,0,500.26,468.94Z"/>
    <path class="cls-1" d="M483,486.88a5.63,5.63,0,0,1-1.59.79l-12.43,4-18.43,5.91-12.15,3.9a5.89,5.89,0,0,1-2.45.23h0a5.93,5.93,0,0,1-5.05-4.13,6,6,0,0,1,3.19-7.27h0a4.15,4.15,0,0,1,.69-.28l12.36-4,18.52-5.93,12.13-3.89a5.64,5.64,0,0,1,1.38-.28,3.17,3.17,0,0,1,.44,0,6,6,0,0,1,3.4,11Z"/>
  </g>
</svg>
