<svg id="Livello_1" data-name="Livello 1" xmlns="http://www.w3.org/2000/svg" viewBox="0 0 841.89 841.89">
  <defs>
    <style>
      .cls-1 {
        fill: #231f20;
      }
    </style>
  </defs>
  <title>Glos</title>
  <g>
    <g>
      <path class="cls-1" d="M812.87,654.87a2.89,2.89,0,0,0-1.38-2.24c-.55-.34-29.74-9.6-32.73-10.43-1.85-.5-4-2.34-2.8-4.67.58-1.06,12.47-20.46,14.66-24.85,1.79-3.58-2.3-8-7.65-11.34s-11.17-5.64-14.77-2.68c-.73.59-14.48,26.1-16,27.38a2.48,2.48,0,0,1-2.13.49c-.92-.21-24.69-15.41-27.23-15.9-3-.56-11.11,1.71-11.57,1.84-6.27,1.95-95.46,30.32-103,32.88a2.71,2.71,0,0,0-1.68,2.73c-.64,1.62,28.41,44.58,32.12,49.66a4,4,0,0,0,5.35,1c.79-.56,59-57.17,59.34-57.46,3.08-2.56,6.21-5.45,14.1-2.47.18.06,13.61,5.78,14.81,6.44,2.16,1.17,2.22,2.86,1.7,3.77-.32.55-23.51,40.31-24.28,42.17-.27.62-.93,3.53,2.71,6.65,1.1.93.22,1.72,0,2.39s-45,76.47-60.76,101.52c-2.53,4-9.11,14-.91,19.08,8.44,5.28,14.18-5.18,16.59-9.27,15-25.45,62.35-100.07,62.63-100.35.57-.63,1.56-1.39,2.25-1,2.25,1.28,3.56,1.34,6-1.17,1.81-1.82,28.2-43.91,28.61-44.49a1.64,1.64,0,0,1,2.11-.37c.39.28,24,18.87,27,18.4a2.59,2.59,0,0,0,1.72-.69C802.94,676.18,813.13,657.71,812.87,654.87Zm-43.49-57c8.54.14,18.68,5.67,21.65,13.23C784.85,612.74,771,604.43,769.38,597.9Z"/>
      <path class="cls-1" d="M711.42,699.26a35.88,35.88,0,0,0,19.86,12.42"/>
    </g>
    <g>
      <path class="cls-1" d="M29,654.87a2.86,2.86,0,0,1,1.38-2.24c.55-.34,29.74-9.6,32.73-10.43,1.85-.5,4-2.34,2.8-4.67-.58-1.06-12.47-20.46-14.66-24.85-1.79-3.58,2.3-8,7.65-11.34s11.17-5.64,14.77-2.68c.73.59,14.48,26.1,16,27.38a2.48,2.48,0,0,0,2.13.49c.92-.21,24.69-15.41,27.23-15.9,3-.56,11.11,1.71,11.57,1.84,6.27,1.95,95.46,30.32,103,32.88a2.71,2.71,0,0,1,1.68,2.73c.64,1.62-28.41,44.58-32.12,49.66a4,4,0,0,1-5.35,1c-.79-.56-59-57.17-59.34-57.46-3.08-2.56-6.21-5.45-14.1-2.47-.18.06-13.61,5.78-14.81,6.44-2.16,1.17-2.22,2.86-1.7,3.77.32.55,23.51,40.31,24.28,42.17.27.62.93,3.53-2.71,6.65-1.1.93-.22,1.72,0,2.39s45.05,76.47,60.76,101.52c2.53,4,9.11,14,.91,19.08-8.44,5.28-14.18-5.18-16.59-9.27-15.05-25.45-62.35-100.07-62.63-100.35-.57-.63-1.56-1.39-2.25-1-2.25,1.28-3.56,1.34-6-1.17-1.81-1.82-28.2-43.91-28.62-44.49a1.63,1.63,0,0,0-2.1-.37c-.39.28-24,18.87-27,18.4a2.59,2.59,0,0,1-1.72-.69C39,676.18,28.76,657.71,29,654.87Zm43.49-57c-8.54.14-18.68,5.67-21.66,13.23C57,612.74,70.93,604.43,72.51,597.9Z"/>
      <path class="cls-1" d="M130.47,699.26a35.88,35.88,0,0,1-19.86,12.42"/>
    </g>
  </g>
</svg>
