<svg id="Livello_1" data-name="Livello 1" xmlns="http://www.w3.org/2000/svg" viewBox="0 0 841.89 841.89">
  <defs>
    <style>
      .cls-1 {
        fill: #231f20;
      }
    </style>
  </defs>
  <title>Glos</title>
  <path class="cls-1" d="M680.89,475.84c-10.47-20.86-23.91-19.12-35.8-27.3-14.37-9.91,2.83-20.56,6.34-27s-.26-8.07-.26-8.07,2.39-26.67-23.27-26.13-23.72,21.75-26.77,27.87c-2,4-2,13.28.34,16.79,2.55,3.87,5.64,10.82-3.47,18.24-15.25,12.4-28.36,35.16-28.36,35.16S565,501,576.43,504.8s12.24-3,18.35-11.21S614.7,490.8,606,526c-14.61,29.2-11.35,65.95-9.76,78s7,97.13,5,113.93-5.5,19.53,1.79,24,34.68,3.91,47.45.74,10.24-19.77,6.66-29.42,7.14-124.63,7.63-134.88-.09-3.2,14.35-31.52C706.26,505.16,691.37,496.71,680.89,475.84Zm-26.82,65.58s-9.47-5.19-6.77-43.27c1.21-12.61,15.1-3.7,15.1-3.7S691.09,510.4,654.07,541.42Z"/>
  <path class="cls-1" d="M232.05,131.37c-10.48-20.86-23.92-19.11-35.8-27.3-14.37-9.91,2.82-20.56,6.33-26.95s-.26-8.08-.26-8.08,2.4-26.67-23.27-26.13-23.72,21.75-26.77,27.87c-2,4-2,13.28.34,16.79,2.55,3.87,5.65,10.83-3.46,18.24C133.91,118.21,120.79,141,120.79,141s-4.65,15.54,6.79,19.36,12.25-3,18.35-11.21,19.93-2.8,11.22,32.38c-14.61,29.2-11.35,65.94-9.75,78s6.95,97.14,5,113.94-5.5,19.53,1.78,23.95,34.68,3.92,47.45.75,10.25-19.77,6.66-29.42,7.14-124.63,7.63-134.89-.08-3.2,14.35-31.52C257.42,160.69,242.52,152.24,232.05,131.37ZM205.22,197s-9.47-5.19-6.76-43.27c1.21-12.61,15.09-3.69,15.09-3.69S242.25,165.94,205.22,197Z"/>
</svg>
