<svg id="Livello_1" data-name="Livello 1" xmlns="http://www.w3.org/2000/svg" viewBox="0 0 841.89 841.89">
  <defs>
    <style>
      .cls-1 {
        fill: #231f20;
      }
    </style>
  </defs>
  <title>Glos</title>
  <g>
    <path class="cls-1" d="M61.66,681.35c-5-1.06-8.15.68-9.93-2.46-3.4-5.49,27.66,1.2,27.35,3.92-.24,2-9.41.24-17.42-1.46M40.9,697.55c2.5-2.58,5.14-.1,10.21.13,8.19.38,17.5,1,17.22,3C68,703.36,36.21,702,40.9,697.55m-1.31,14.83c-4.55-.31-7.54-2-5.92-4.49,1.37-2.06,2.23-1.08,4.27-.73,14.79,2.5,26.58-1,27.1.11,1.22,2.54-12.86,6-25.45,5.11m20.64,7.42c-.33.82-10.1-.47-21.78,2.72-1.61.45-2.21,1.22-3.5-.1-1.5-1.54.75-3,4.39-3.71,10-1.85,21.65-.81,20.89,1.09m-6-55.58c12.4,2.31,25.16,9.2,23.34,11.35-.78.93-11.31-5.4-26.26-6.72-2.06-.17-3.15.57-3.94-1.79-1-2.77,2.37-3.68,6.86-2.84m-1.95-10.89c1.56-1,2-.06,3.41.78,10.48,6,20.26,7.26,20.38,8.13.26,2-11.24.11-20.5-4.22-3.35-1.56-5.15-3.57-3.29-4.69M385.59,761.91c-2.72-9.56-21.32-1.83-23.49-3.65-1.89-1.58-17-14.24-23.9-17.22-2.21-.33,5.53-60.69-40.11-71.52-23.5-5.58-43.85-41.71-108.35-30.91-2.07.35,33.84,34.66,31.1,35.88-20.8,1.7-47,23.57-57.2,34-16.78,17.12-27.15,14.33-37.54,3.51A60.43,60.43,0,0,0,92.83,691.1a5.78,5.78,0,0,1-4.11-5.51c-.14-3.54,4.74-17.91-15-29.56a33.34,33.34,0,0,1-8.46-8.54c-2-2.94-13.06-23.16-21.42-2.24-5,12.54.81,39.42,1.36,40.63a3,3,0,0,1-1,3.6c-1.3.85-24.21,14.72-21.84,33.88.33,2.72,2.08,17.23,17.35,6.28,1.73-1.24,5.61-4.44,13.64-3.55,15,1.5,21.81-15.38,24.37-14.89,25,4.75,34.58,42.71,50.15,54.06,28.06,20.45,78.22,16.15,79.65,15.63-3.94,3.12-30.08,24.39-28.65,30.14.73,3,24.92-7.67,25.08-6.32,1.53,12.95,0,19.18,22.23,1.5,1.42-1.13-.13,10.3,6.15,9.28,3.47-.54,49.49-35.11,53.2-35.12,4.05,0,80.61,20.81,83.22-2.21.23-2.11,18.37-11,16.87-16.25"/>
    <path class="cls-1" d="M780.23,681.35c5-1.06,8.15.68,9.92-2.46,3.41-5.49-27.65,1.2-27.34,3.92.24,2,9.41.24,17.42-1.46M801,697.55c-2.5-2.58-5.14-.1-10.21.13-8.19.38-17.5,1-17.22,3,.37,2.69,32.12,1.34,27.43-3.12m1.31,14.83c4.55-.31,7.54-2,5.92-4.49-1.37-2.06-2.24-1.08-4.27-.73-14.79,2.5-26.58-1-27.1.11-1.22,2.54,12.86,6,25.45,5.11m-20.64,7.42c.33.82,10.1-.47,21.78,2.72,1.6.45,2.21,1.22,3.5-.1,1.5-1.54-.75-3-4.39-3.71-10-1.85-21.65-.81-20.89,1.09m6-55.58c-12.41,2.31-25.16,9.2-23.34,11.35.78.93,11.31-5.4,26.26-6.72,2.06-.17,3.15.57,3.94-1.79,1-2.77-2.37-3.68-6.86-2.84m2-10.89c-1.56-1-2-.06-3.41.78-10.48,6-20.26,7.26-20.38,8.13-.26,2,11.24.11,20.5-4.22,3.35-1.56,5.15-3.57,3.29-4.69M456.3,761.91c2.72-9.56,21.32-1.83,23.49-3.65,1.89-1.58,17-14.24,23.9-17.22,2.21-.33-5.53-60.69,40.11-71.52,23.5-5.58,43.85-41.71,108.35-30.91,2.07.35-33.84,34.66-31.1,35.88,20.8,1.7,47,23.57,57.2,34C695,725.62,705.4,722.83,715.79,712a60.43,60.43,0,0,1,33.27-20.91,5.75,5.75,0,0,0,4.1-5.51c.15-3.54-4.73-17.91,15.06-29.56a33.34,33.34,0,0,0,8.46-8.54c2-2.94,13.06-23.16,21.42-2.24,5,12.54-.81,39.42-1.36,40.63a3,3,0,0,0,1,3.6c1.3.85,24.21,14.72,21.84,33.88-.33,2.72-2.08,17.23-17.35,6.28-1.73-1.24-5.61-4.44-13.64-3.55-15,1.5-21.81-15.38-24.37-14.89-25,4.75-34.58,42.71-50.15,54.06-28.06,20.45-78.22,16.15-79.65,15.63,3.94,3.12,30.08,24.39,28.65,30.14-.73,3-24.92-7.67-25.08-6.32-1.53,12.95,0,19.18-22.23,1.5-1.42-1.13.13,10.3-6.15,9.28-3.47-.54-49.49-35.11-53.2-35.12-4,0-80.61,20.81-83.22-2.21-.23-2.11-18.37-11-16.87-16.25"/>
  </g>
</svg>
