<svg id="Livello_1" data-name="Livello 1" xmlns="http://www.w3.org/2000/svg" viewBox="0 0 841.89 841.89">
  <title>Glos</title>
  <path d="M786.84,721.45c-5.52,20.72-31.87,69.3-94.37,69.3s-88.85-48.58-94.37-69.3c-7.18-26.92-10.19-98.18,61-103.51a32.44,32.44,0,0,1,7.64,0,65.81,65.81,0,0,1,9.58,5.95c.22.17,1.14.9,1.8.28s-.29-1.47-.48-1.63a82.2,82.2,0,0,0-8.57-6.16,1.25,1.25,0,0,1-.81-1.21c0-.59-.16-1.17-.18-1.76-.24-5.46-7.53-13.28-9.29-16a4.25,4.25,0,0,1-.48-2.87,5.93,5.93,0,0,1,1.69-3.89,4.76,4.76,0,0,1,.69-.55c.85-.53,1.12-.57,1.82.13,1.06,1.08,3.19,3.65,3.3,3.79a.61.61,0,0,0,.86.22.54.54,0,0,0,.2-.77,22.58,22.58,0,0,0-3.72-4.3.74.74,0,0,1-.26-1,3.34,3.34,0,0,1,.66-1,6.1,6.1,0,0,1,4.27-1.72,1.57,1.57,0,0,1,1,.36,12,12,0,0,1,3,3.87,4.34,4.34,0,0,1,.18.77.56.56,0,0,0,.57.55.59.59,0,0,0,.68-.57,3.41,3.41,0,0,0-.35-1.5,35.86,35.86,0,0,0-2.18-3c-.66-.85-.68-1.21.2-1.82a4.84,4.84,0,0,1,3-.71,8.24,8.24,0,0,1,3.33.84,19,19,0,0,1,5,3.39,15.72,15.72,0,0,1,3.81,4.84,1.22,1.22,0,0,0,.2.35.6.6,0,0,0,1-.61,1.89,1.89,0,0,0-.19-.44,16.5,16.5,0,0,0-1.15-2,2.09,2.09,0,0,1-.35-2,10.41,10.41,0,0,1,1.25-3.1,4,4,0,0,1,5-1.63,1.52,1.52,0,0,0,1.36,0,4,4,0,0,1,5,1.63,9.9,9.9,0,0,1,1.25,3.1,2.07,2.07,0,0,1-.35,2,15.19,15.19,0,0,0-1.14,2,1.58,1.58,0,0,0-.2.44.6.6,0,0,0,1,.61,1,1,0,0,0,.2-.35,15.72,15.72,0,0,1,3.81-4.84,19.28,19.28,0,0,1,5-3.39,8.24,8.24,0,0,1,3.33-.84,4.82,4.82,0,0,1,3,.71c.89.61.86,1,.2,1.82a35.86,35.86,0,0,0-2.18,3,3.56,3.56,0,0,0-.35,1.5.59.59,0,0,0,.68.57.57.57,0,0,0,.58-.55,3.62,3.62,0,0,1,.17-.77,11.88,11.88,0,0,1,3-3.87,1.52,1.52,0,0,1,1-.36,6.12,6.12,0,0,1,4.28,1.72,3.78,3.78,0,0,1,.66,1,.75.75,0,0,1-.27,1,22.58,22.58,0,0,0-3.72,4.3.55.55,0,0,0,.2.77.61.61,0,0,0,.86-.22c.11-.14,2.24-2.71,3.3-3.79.7-.7,1-.66,1.83-.13a5.27,5.27,0,0,1,.68.55,5.93,5.93,0,0,1,1.69,3.89,4.25,4.25,0,0,1-.48,2.87c-1.76,2.7-9,10.52-9.29,16,0,.59-.18,1.17-.18,1.76a1.25,1.25,0,0,1-.81,1.21,81,81,0,0,0-8.56,6.16c-.2.16-1.13,1-.49,1.63s1.59-.11,1.81-.28a65.82,65.82,0,0,1,9.57-5.95,32.44,32.44,0,0,1,7.64,0C797,623.27,794,694.53,786.84,721.45Z"/>
</svg>
