<svg id="Livello_1" data-name="Livello 1" xmlns="http://www.w3.org/2000/svg" viewBox="0 0 841.89 841.89">
  <title>Glos</title>
  <g>
    <path d="M601.9,547.84c8.47.87,17,1.45,23.41-6.06h4.39c6.41-.57,11.68-4.62,13.17-10.68,1.45-6.32-1.18-12.12-7-15.85a7.07,7.07,0,0,0-1.45-.88c1.18-4.3.3-8.65-1.19-12.95a18.76,18.76,0,0,0,2.33-.88,20.74,20.74,0,0,0,12-9.53,6.2,6.2,0,0,1,3.2-2.9c5.84-2,8.48-6.63,9.36-12.69a20,20,0,0,0-4.09-15c-.3-.57-.88-1.15-1.18-1.72,4.39-6.93,4.39-13,.3-20.15,1.76-1.45,3.52-2.9,5.27-4.31a30.92,30.92,0,0,0,4.4-4.92c-2.07-1.71-3.82-3.47-5.54-5.18-4.7,4.92-9.66,9.8-14.62,15a42.94,42.94,0,0,1,4.39,3.47c5.53,5.49,4.08,12.12-3.51,14.71a24.16,24.16,0,0,1-3.21.88c1.19.87,2.07,1.71,2.94,2.32,1.76,1.45,3.52,2.6,5,4,2.94,2.9,4.39,6.64,3.2,10.68s-4.39,6.32-8.78,7.2c-.57,0-.88.3-1.76.3-1.75,4.92-4.7,8.66-9.66,10.68a17.9,17.9,0,0,1-14.32-1.15c-1.18,2.9-2.32,5.76-3.82,8.66a7.09,7.09,0,0,0,2.33.3c.88,0,2.07-.3,2.94-.3a6.53,6.53,0,0,1,7,3.73,7.24,7.24,0,0,1-.88,8.34c-.31.31-.88.57-1.18,1.14-1.19,1.45-.88,2.6.87,3.17,1.19.57,2.33.57,3.52,1.14,4.08,2,5.84,5.18,5,9.22-.88,4.61-4.08,7.2-8.48,7.2a16.08,16.08,0,0,1-7.29-1.71c-.57-.31-.87-.31-1.44-.57-2.33,3.73-5,6.94-9.36,8.34-4.7,1.45-7.9-1.45-11.42-4-1.18,3.16-2.32,6.06-3.51,9.23,4.08,3.73,5.27,8.91,5.53,14.14,0,.57.31,1.45,0,2-1.18,2.59.31,4,2.33,5.18a14.83,14.83,0,0,1,5.84,6.32c2.94,5.49.31,10.94-5.84,12.39a20.33,20.33,0,0,1-8.47-.31c-.88-.31-2.07-.57-3.21-.88-1.45,7.2-4.39,13.26-12.87,14.71,1.19,4.92,2.07,10.1.31,15.29,1.19.3,2.06.57,2.94.87a9.9,9.9,0,0,1,6.41,4.31c3,3.47,2.07,7.2-2.06,9.22-2.33,1.14-5,1.45-7.29,2a23.75,23.75,0,0,1-4.7,0c-2.94,5.49-7.9,7.2-13.74,7.77-6.15.31-10.54-2.33-14.06-7.77-1.75,2.59-3.2,4.92-5,7.51,1.19.88,2.33,1.45,3.51,2.33a9.63,9.63,0,0,1,4.7,5.49,16.59,16.59,0,0,1,.31,11.81,10.1,10.1,0,0,1-4.39,5.49c-2.33,1.45-2.33,1.71-.88,4a14,14,0,0,1,2.06,8.34c-.57,5.76-4.7,8.35-9.92,5.49a17.55,17.55,0,0,1-8.48-9.22c-.57-1.45-1.18-3.16-2.06-5.18-2.64,2-5.27,3.73-7.91,5.49-2.63,1.45-5.53,2.59-8.16,3.73,6.71,9.22,6.41,17-.58,22.18-9.66-11.25-18.7-23.06-31-31.71a3.39,3.39,0,0,1,2.06-3.47c2.95-1.45,5.54-3.16,8.48-4.3a10.31,10.31,0,0,0,5-4.31,25.27,25.27,0,0,1,14.06-13.26c2.32-.88,4.39-2,6.71-3.16a18.07,18.07,0,0,0,8.17-8.65,81.36,81.36,0,0,0,3.21-7.78,16.87,16.87,0,0,1,9.05-9.79c1.75-.88,3.51-1.71,5.27-2.59a7.85,7.85,0,0,0,5-7.51c0-1.71-.31-3.16-.31-4.92-.31-2-.31-4-.57-6.06-.31-6.94,2.33-12.12,7.9-16.16,1.76-1.14,3.52-2.33,5.54-3.47,1.75-1.14,3.82-2,5.53-3.16,5-2.9,7-7.2,6.72-12.69a36.09,36.09,0,0,0-.88-7.77c-2.06-17,4.09-30.57,18.14-40.63,1.45-.87,2.94-2,4.39-2.89a7.93,7.93,0,0,0,3.82-7.21,66.53,66.53,0,0,0-.57-7.2,4.6,4.6,0,0,0-.31-2c-1.18-8.65,1.76-15.85,8.17-21.91,1.19-1.14,2.33-2.33,3.51-3.47a26.87,26.87,0,0,0,8.17-11.55,35.84,35.84,0,0,0,1.76-7.51,30.52,30.52,0,0,1,5-12.95C628.78,417,642,408.63,658.59,406c5.27-.88,10.54-1.14,15.77-1.71a11.76,11.76,0,0,0,2.94-.57c2.64-.88,5-.31,7.6,1.14a82.63,82.63,0,0,1,19,14.14,13,13,0,0,1,2.32,3.16c5,8.34,8.79,17.3,10.23,26.79a64.38,64.38,0,0,1-4.08,34c-.88,2-2.33,3.73-3.51,5.75-.31.57-1.19,1.14-1.19,1.71a2.24,2.24,0,0,0,.31,2c.31.57,1.45.57,2.06.31.57,0,1.19-.88,1.76-1.14a34.08,34.08,0,0,0,7.6-12.38,60.71,60.71,0,0,0,4.08-16.43,11.63,11.63,0,0,1,.88-4c.57,1.45,1.19,3.16,1.76,4.61,2.94,9.53,4.08,19.33,2.06,29.12a35.73,35.73,0,0,1-2.63,8.08,75.53,75.53,0,0,1-7,11.24c-2.64,3.74-5.53,6.94-10.23,8.35-.57,0-1.19.57-1.19.87a4.64,4.64,0,0,0,0,2.9,2.26,2.26,0,0,0,2.33.57,35.57,35.57,0,0,0,8.17-4c7.59-5.18,12.56-12.38,16.07-20.77a17.09,17.09,0,0,1,1.45-3.16c.57-.88,1.45-1.71,2.33-2.9a20.44,20.44,0,0,1,1.75,3.16A64.61,64.61,0,0,1,741.29,515a156,156,0,0,1-4.39,31.14,39.8,39.8,0,0,1-5.84,13.83c-1.19,1.71-.88,3.16,1.44,4.61,1.19-1.45,2.33-2.59,3.52-4a54.45,54.45,0,0,0,9-16.73,134.68,134.68,0,0,0,5.27-23.94,52,52,0,0,0-3.2-23.93c-.31-1.14-.57-2-.88-3.16a3.63,3.63,0,0,1,.31-1.45c1.45,1.14,2.32,2,3.51,2.9,3.82,2.89,7.29,6.06,11.42,8.91a16.21,16.21,0,0,0,5,2.59,8,8,0,0,0,3.82,0,3.08,3.08,0,0,0,1.19-2.32c0-.58-1.19-1.45-1.76-1.45-2.33.3-4.08-.88-5.53-2.33a151.08,151.08,0,0,1-12.56-10.67,28.41,28.41,0,0,1-7.91-14.41c-.3-1.45-.3-2.9-.57-5.18,1.19.88,1.76,1.14,2.07,1.71,6.71,7.51,14.62,13.27,22.79,18.76,1.45.87,3.2,1.71,5,2.59A5.13,5.13,0,0,0,775,493a1.79,1.79,0,0,0,2.33-1.45,1.82,1.82,0,0,0-1.45-2.33c-6.72-2.33-12-6.94-17.52-11.24a44.08,44.08,0,0,1-10.54-12.39c-2.94-4.92-5.53-9.79-7.9-14.71-8.79-20.46-22.8-36-41.5-48.13a5.4,5.4,0,0,1-1.45-1.14c12.29-2.59,24.28-4.92,36.84-4.61a88.47,88.47,0,0,1,27.49,4.91A51.87,51.87,0,0,1,790,426.37a24.92,24.92,0,0,1,3.2,10.36c1.19,9.23-2.94,16.17-11.42,20.47.88.88,1.45,2,2.33,2.59,2.07,2,4.39,4,6.72,6.06,6.15,5.49,7.6,12.38,5.27,20.16-2.63,8.34-7.6,14.71-15.5,18.75-1.19.57-2.07,1.14-3.21,1.71a10.43,10.43,0,0,0,1.45,2.59c4.7,6.33,5.27,13.53,4.09,21a64.73,64.73,0,0,1-15.2,31.4A35.2,35.2,0,0,1,742,574.19c-8.17.57-13.75-3.47-18.4-9.53a4,4,0,0,1-.88-2.59,2.67,2.67,0,0,0-2.33-2.9c-7.6-2.33-10.8-7.51-9.66-15.28a13.7,13.7,0,0,0,.57-3.16c.31-2-.88-3.17-2.64-2.59-2.63.87-4.08-.31-5.84-1.72-4.08-4-6.72-8.65-6.41-14.4,0-2.33,0-2.59-2.33-3.16a15.68,15.68,0,0,1-8.47-5.49,10.41,10.41,0,0,1-2.64-7.2c0-2-.57-2.9-2.63-3.47h-.57c-5.84-.88-9.66-5.76-7.29-12.7a17.47,17.47,0,0,1,4.39-6.93c.57-.57,1.19-.88,1.45-1.45.88-1.45.57-2.33-.88-3.17A13.41,13.41,0,0,1,673,458.87c1.18-1.45,1.18-2.33.31-4-2.33-5.49-3.52-11.24-2.33-17.3a31.55,31.55,0,0,1,1.45-4.62,2.19,2.19,0,0,0-.31-2.89,2.28,2.28,0,0,0-3.21,0c-.87.87-2.06,2-2.32,3.16a21.52,21.52,0,0,0-1.45,7.51,29.33,29.33,0,0,0,2.63,16.42c-4.08,8.92-2.32,17,3.52,24.77a11.37,11.37,0,0,0-1.45,2A17.55,17.55,0,0,0,666,495.71a13,13,0,0,0,9.92,11.82,18.52,18.52,0,0,0,2.33.57c1.18,7.51,4.7,12.95,12.29,15.54,1.45,9.23,4.09,17.57,14.94,19.9.3,3.16.3,6.32.57,9.22a14.55,14.55,0,0,0,3.2,7.51,11.08,11.08,0,0,0,7.6,4c2.06,7.51,7.29,11.81,13.75,15.28a9.7,9.7,0,0,1-3.21,5.49,4.48,4.48,0,0,0-1.19,5.49,33.34,33.34,0,0,1,2.95,10.36c.57,6.94-1.76,12.7-6.41,17.88-1.45,1.45-3,3.16-4.7,4.92a5.07,5.07,0,0,0,.57,1.45c2.32,6.63.88,12.69-3.82,17.87a10.71,10.71,0,0,0-2.64,5.75c-.57,6.33-3.82,10.94-8.78,14.72a4,4,0,0,0-1.76,4.3,55.27,55.27,0,0,1,1.45,6.94c.57,4.92-.57,9.22-5,11.55-4.09,2.33-5.84,5.49-6.41,10.1-.57,5.49-4.09,8.91-9.36,10.67-1.45.57-2.63.88-4.08,1.45a8.45,8.45,0,0,0-5.84,6.94c-.31,2-.88,3.73-1.19,5.75a7.46,7.46,0,0,1-6.41,5.76,24.29,24.29,0,0,1-6.41.3,11.64,11.64,0,0,0-9.66,4.61c-2.07,2.33-4.09,4.62-6.41,6.94a13.71,13.71,0,0,1-10.24,3.74h-.57c-5.53-.88-10.23,1.45-14.31,4.92-5.84,4.91-12.56,5.48-19.9,4a13.8,13.8,0,0,1-6.15-3.74c-4.08-4-6.71-8.91-9.35-14.14-.31-.31-.31-.57-.57-1.14a24,24,0,0,0-4.7-.57,180.08,180.08,0,0,0-43,3.47c-2.64.57-5,1.45-7.29,2-1.45-4.3-3.21-8.65-4.7-13.26,2.94-.31,5.84-.57,8.47-.88a118.49,118.49,0,0,0,46.51-17c2.94-1.71,6.15-3.73,9.05-5.49,8.78-4.92,17.83-6.06,27.75-4.3a27.43,27.43,0,0,0,19-3.47,45.34,45.34,0,0,0,5.84-4.3c.88-.88,2.06-1.72,1.18-3.17s-2.32-1.14-3.51-.87a17.51,17.51,0,0,0-3.51,1.14,80.8,80.8,0,0,1-25.17,4.3,50.08,50.08,0,0,0-6.72.88h-1.75a6.88,6.88,0,0,1,1.18-1.71c.31-.31.88-.57,1.19-.88,9-5.49,18.14-10.94,27.49-16.16,5.84-3.47,12.87-4.3,19.59-5.18,5.53-.57,11.11-.88,16.38.57a1.9,1.9,0,0,0,2.63-1.45c.31-1.45-.57-2-1.75-2.33a30.27,30.27,0,0,0-5.54-.88c-10.23-.57-20.16,1.14-29.82,3.74-.88.3-2.06.57-3.51,1.14.57-.88.88-1.45,1.19-2,12.86-13,28.37-20.77,47.07-21.61a27.19,27.19,0,0,1,6.72.88A2.42,2.42,0,0,0,684.5,644a1.79,1.79,0,0,0-1.44-2.59,13.53,13.53,0,0,0-4.7-.88,78.46,78.46,0,0,0-20.16,2c-6.15,1.45-12,3.16-18.14,4.61a16.42,16.42,0,0,0-2.06.57c.88-1.14,1.18-1.71,1.75-2.33,2.64-3.47,5.54-6.94,7.91-10.67A39.42,39.42,0,0,1,665.18,620c4.39-2,9.36-2.9,14.32-3.47h1.75c1.19-.31,1.76-.88,1.76-2s-.57-1.71-1.76-2h-2.63a91,91,0,0,0-23.1,6.06c-.88.31-1.45.57-2.94,1.14a13.7,13.7,0,0,1,2.33-3.73c2.63-4,6.41-6.94,10.23-9.8,7.29-5.75,15.76-8.91,24.55-11.54.57-.31,1.45-.31,2.06-.58,1.19-.57,1.45-1.14,1.19-2.32a1.73,1.73,0,0,0-2.33-1.14c-.88.3-1.76.57-2.64.87a153,153,0,0,0-24.85,9.8c-.57.3-1.45.57-2.64,1.14.31-.88,0-1.71.31-2.33,4.39-7.77,9.66-14.71,17-19.89a11,11,0,0,1,4.09-2c5.27-1.72,10.23-3.16,15.5-4.92.88-.31,1.45-.31,2.33-.57a1.87,1.87,0,0,0,1.18-2.33c-.31-1.14-.88-1.45-2.06-1.45-.88,0-1.76.31-2.33.31a96.59,96.59,0,0,0-29.51,11.55c-.57.3-1.19.57-2.33,1.14a5.43,5.43,0,0,1,.31-2.33c.57-1.14,1.18-2,1.75-3.16a100.93,100.93,0,0,1,16.65-20.16c2.63-2.33,5.27-4.61,8.78-5.75a3,3,0,0,0,2.07-3.47c-1.19.31-2.33.31-3.52.57-6.41,1.45-12,4.61-17.26,8.34a30.76,30.76,0,0,0-3.2,3.17c-.88.87-1.45,1.71-2.94,1.14s-1.45-1.45-1.19-2.9c.57-5.49,1.45-10.94,2.06-16.16.57-4.61.88-9.22,1.76-13.83a48.36,48.36,0,0,1,2.94-8.66c.88-2.32.88-3.73-.57-4-1.18-.57-2.33.31-2.94,2.6-1.19,3.73-2.33,7.2-3.51,10.93-.31,1.14-.57,2.59-2.64,3.16a25.13,25.13,0,0,1-1.76-2.9c-1.44-3.73-2.94-7.51-4.39-10.93a64.52,64.52,0,0,0-8.17-15,27.33,27.33,0,0,0-4.08-4,1.65,1.65,0,0,0-2.63,0,2.19,2.19,0,0,0,0,2.9c9.92,10.1,13.74,23.06,16.38,36.32.87,4.3.3,8.34-.57,12.69a123.32,123.32,0,0,1-7,25.08,98.54,98.54,0,0,1-5,9.79,11.91,11.91,0,0,1-2.64,3.16,11,11,0,0,0-.88-2.33,65.86,65.86,0,0,0-9.66-23.93,19.1,19.1,0,0,0-2.33-2.9c-.87-.88-1.75-1.14-2.63-.3a1.61,1.61,0,0,0-.31,2.59c.31.57.88,1.14,1.19,1.71,7.29,10.1,9.35,21,7.29,33.16-.31,1.44-.31,3.16-2.33,4.3-.31-1.14-.57-2-.88-2.9-1.18-4.3-2.33-8.65-3.82-12.69-.88-2.59-2.33-4.92-3.51-7.51a8.14,8.14,0,0,0-1.19-1.71,3,3,0,0,0-2.33,0c-.57.31-.57,1.45-.87,2a2.1,2.1,0,0,0,.57,1.14c6.41,10.67,7.9,21.91,5.53,34-.88,3.47-1.76,7.2-2.63,10.67a4,4,0,0,1-3.21,3.47c-.31-2.33-.57-4.61-.88-6.63a51.07,51.07,0,0,0-6.15-18.44c0-.31-.3-.31-.3-.57-.88-1.72-2.07-2-3.21-1.45s-1.19,1.71-.31,3.47c.57,1.44,1.45,2.89,2.07,4.3,5,10.93,4.7,21.91.3,33.16a17.63,17.63,0,0,1-5.53,7.77c.31-2.33.57-4.31.88-6.06a48,48,0,0,0-1.76-21.34,5.9,5.9,0,0,0-1.18-2.33,2.31,2.31,0,0,0-2.33-.57c-.57.3-.88,1.14-1.19,2,0,.3.31.88.31,1.14,3.21,7.77,2.33,15.55,0,23.36-4.39,13.53-12.56,24.51-23.1,34-9.35,8.35-20.16,14.41-31.27,19.59A151.49,151.49,0,0,1,514,709.28a3,3,0,0,0-1.45.31c-1.44-2-2.94-4-4.39-6.33,6.72-5.75,9.05-12.69,6.15-21,1.76-.88,3.51-1.45,5-2.33s2.64-.31,3.82.88a65,65,0,0,0,6.42,5.49,15.52,15.52,0,0,0,8.78,2.33,10.67,10.67,0,0,0,10.23-9.8c.31-4.61-1.45-8.65-4.39-12.38a11.51,11.51,0,0,0,6.15-6.63,18.32,18.32,0,0,0,0-11.25,17.6,17.6,0,0,1-.57-2.89,20.28,20.28,0,0,0,3.51.57,85.71,85.71,0,0,0,8.78,0c4.4-.57,7.29-2.9,9.36-6.63a5,5,0,0,1,.57-.88c3.51-.31,6.72,0,9.66-.57,5-.57,8.17-3.47,9.92-8.08,1.76-4.92,1.19-9.8-2.63-13.53a24.25,24.25,0,0,0-4.39-3.16,2.88,2.88,0,0,1-1.76-2.9,58.4,58.4,0,0,0-1.18-7.2c-.31-2-.31-2.33,1.45-3.16a.79.79,0,0,0,.57-.31c2.94-1.14,5-2.9,5.84-6.06.57-2,.88-2.59,2.94-2,8.47,2.9,19-6.32,18.14-16.73a13.08,13.08,0,0,0-6.15-10.1,7.86,7.86,0,0,1-3.51-6.06c-.31-3.47-1.76-6.94-2.64-10.37,4.7.88,4.08,0,3.82-1.14Z"/>
    <path d="M371.25,798.29h-3.82c-13.43-.31-27.18-.31-40.62-.57a4.56,4.56,0,0,1-4.39-2.6c-6.72-13.52-8.48-27.35-3.21-41.8.31-.57.31-1.14.58-1.72,5.53-12.69,10.54-25.38,16.38-37.46,7.59-16.16,20.15-28.54,35.08-38.91,7.6-5.18,16.08-9.52,25.17-11.54A99.39,99.39,0,0,1,410.16,662a190.12,190.12,0,0,1,28.64.57,59.25,59.25,0,0,1,24.85,8.35,108.24,108.24,0,0,1,37.11,34.6,77.41,77.41,0,0,1,7.29,14.14c4.39,10.1,8.48,20.16,12.56,30.26,2.64,6.06,4.7,12.12,5,18.75a57.37,57.37,0,0,1-6.72,28.81,3.83,3.83,0,0,1-3.82,2.33c-13.43-.31-26.61-.31-40-.31-2.63,0-2.94,0-3.82-2.59a29.5,29.5,0,0,1-1.18-6.94A10.93,10.93,0,0,1,480.78,779a47.51,47.51,0,0,1,6.15.57c2.06.3,2.94,0,2.94-1.15.31-1.45-.88-2.32-2.06-2.59a11.51,11.51,0,0,1-7.29-4.61c-1.45-1.71-2.64-3.73-1.76-6.06.31-1.71-.57-2.33-2.33-2.33a15.35,15.35,0,0,1-3.82-.3c-2.94-.88-3.82-3.74-2.33-6.33s3.82-3.73,6.72-4.3c3.21-.57,3.21-.88,1.76-3.73a15.84,15.84,0,0,1-.88-12.12c0-.31.57-.88.31-1.15,0-.87,0-1.71-.57-2a2.5,2.5,0,0,0-2.07-.3c-2.63,1.71-5,.57-7-1.15a14,14,0,0,1-4.7-10.67,6.53,6.53,0,0,1,1.76-4.92c.87-.87.87-1.71.3-2.89a1.89,1.89,0,0,0-2.63-.31A5.09,5.09,0,0,1,458,713a42.43,42.43,0,0,1-7.91-4,32.73,32.73,0,0,1-9.66-11.82,19.86,19.86,0,0,1-1.18-3.73,25.14,25.14,0,0,0-1.45-4,1.56,1.56,0,0,0-2.33-.88,26.07,26.07,0,0,1,.57,4.61c0,5.18-3.51,7.78-8.17,5.49a2.25,2.25,0,0,0-2.94,0c-.88.57-.57,1.45-.31,2.59.57,2.33,0,3.47-2.06,4-1.76.57-4.09,0-4.7-1.45-.31-.57,0-1.71,0-2.59s0-2-.31-2.33c-.57-.3-1.76,0-2.63,0-.31,0-.57.31-1.19.58-3.51,1.44-6.41,0-7-3.47-.57-2.33,0-4.62,0-7.21a1.3,1.3,0,0,0-1.75.88,13.93,13.93,0,0,0-1.45,3.74c-.31,3.47-2.07,6.06-3.82,8.65-2.94,4-6.41,7.77-11.11,9.79-2.95,1.45-6.15,2.9-9.66.57a1.84,1.84,0,0,0-2.07.57c-.31.57-.57,2,0,2.33,2.07,2,2.07,4.92,1.76,7.51a13,13,0,0,1-4.09,8.08,15.1,15.1,0,0,1-3.51,2.33,6.92,6.92,0,0,1-3.51-.31c-.88-.31-1.76-.88-2.64,0s-.57,1.71-.3,2.9a15.09,15.09,0,0,1,.3,9.53,13.11,13.11,0,0,1-1.18,3.16c-1.45,2.59-1.19,3.16,1.75,3.47a10,10,0,0,1,5.84,2.9c1.45,1.44,2.64,3.16,1.76,5.48s-2.94,2.6-5,2.9h-1.19c-2.63,0-2.94.31-2.94,2.9a8.92,8.92,0,0,1-.88,3.73,11.4,11.4,0,0,1-7.6,6.06c-.57.31-1.18.31-1.75.57-.88.57-1.76,1.45-1.19,2.6.31,1.14,1.19,1.14,2.33,1.14a6.38,6.38,0,0,0,2.06-.57,48.56,48.56,0,0,1,6.72,0A10.8,10.8,0,0,1,372.4,792c0,1.71-.88,4-1.45,6.33Z"/>
    <path d="M413.33,703.16c1.75,5.19,4.08,6.94,8.16,6.94s6.15-2,7.91-6.63c2.94,0,6.15-.31,8.47-2.9,5.54,8.35,12,15.55,22.53,16.74-1.18,11.24,5,18.75,12.87,20.15.31,3.74.57,7.21.88,11.25a13.69,13.69,0,0,1-2.33,1.14c-2.63,1.45-5,3.47-5.84,6.32a7.46,7.46,0,0,0,4.08,9.53,39.83,39.83,0,0,0,4.4,1.45,23.53,23.53,0,0,0,1.75,4.3c.57,1.45,1.76,2.6,2.64,4-5.27,1.45-9.36,4-11.42,9.23-2.06,4.92-.88,9.53.31,14.4H428.56c.31-2,.31-3.73.58-5.18a63.3,63.3,0,0,1,14.62-26.79c2.94-3.47,7-6.06,10.8-8.34.57-.31,1.45-.88,2.07-1.14a1.55,1.55,0,0,0,.57-2.33,1.58,1.58,0,0,0-2.33-.57,21.11,21.11,0,0,0-2.06,1.14c-6.42,3.73-11.69,8.34-17,13.26-.87.88-1.45,2.33-2.94,1.45-1.18-.57-.88-2.33-.57-3.47,1.19-5.18,3.21-9.79,7-13.52,3.82-3.47,7.59-6.94,12.29-9.23.31-.3.88-.3,1.19-.57.31-.57.88-1.45.57-1.71a2.48,2.48,0,0,0-1.76-1.14,6.36,6.36,0,0,0-2.94,1.14c-4.39,2.33-7.9,5.49-11.42,8.65-.88.88-1.75,2.33-3.2,1.45s-1.19-2.59-.88-3.73c2.06-7.51,5.84-13.83,12.56-17.88.88-.57,1.76-1.14,1.18-2.32-.3-1.15-1.44-1.45-2.63-1.15-2.33.88-4.7,1.45-6.72,2.9-2.63,1.71-5,4-7.9,6.33.57-4.31-1.45-8.66.3-13,.57-1.45,1.19-2.59,1.76-3.73s.88-2-.31-2.9-2.33,0-2.94.88c-1.19,1.71-2.06,3.47-2.94,4.92-.57.88-.88,2-1.76,3.47a10.75,10.75,0,0,1-.57-2.33c0-1.45.31-2.9.31-4.3,0-2-.57-2.9-2.33-2.9-1.45,0-2.06.57-2.06,2.59a18.34,18.34,0,0,0,.3,4,3.56,3.56,0,0,1-.57,2.33c-1.18-2-2.06-4.31-3.2-6.33a17.3,17.3,0,0,0-1.76-2.32,2.38,2.38,0,0,0-2.06,0c-.58.3-.58,1.44-.58,2s.58,1.15,1.19,1.72c1.19,2.59,2.06,5.18,1.45,8.08-.31,2.33-.31,4.3-.57,6.94a13.54,13.54,0,0,0-2.33-2c-2.94-2.59-5.84-5.18-9.66-6.33a10.2,10.2,0,0,0-2.94-.57c-.57,0-1.76.57-1.76,1.15-.31.57.57,1.44.88,2a.3.3,0,0,1,.31.31c6.41,3.47,9.35,9.53,11.68,15.86a13.68,13.68,0,0,1,.57,4.92c0,1.75-1.19,2-2.64.87-.57-.3-.87-1.14-1.45-1.45-2.63-2.32-5.27-4.3-8.16-6.63a23.18,23.18,0,0,0-4.39-2.32c-1.76-.88-3-.58-3.21.57-.57,1.45.57,2,1.76,2.59a40.06,40.06,0,0,1,12.86,10.1c3.21,3.73,4.7,8.34,5.54,13.26v1.45c-.31,1.14-1.19,1.45-2.07.57l-1.75-1.71a63,63,0,0,0-16.08-13c-.57-.3-1.45-.87-2.06-1.14a4.85,4.85,0,0,0-2.07.57,1.53,1.53,0,0,0,.31,2.33,6.34,6.34,0,0,0,2.07,1.14c5.84,3.16,10.8,7.2,14.05,13,3.51,6.32,7,12.69,10.23,19,1.19,2.59,2.07,5.18,1.45,8.08H375.65c.3-1.14.57-2.32.87-3.16,2.64-10.1-2.94-18.14-10.8-19.89a.89.89,0,0,1-.57-.31c1.45-2.9,2.94-5.49,4.7-8.65a15.8,15.8,0,0,0,2.33-.57c5.53-1.71,7.59-7.2,4.39-12.12a16.35,16.35,0,0,0-7-5.49c.31-3.74.57-7.51,1.19-11.24,4.7-.58,7.9-3.17,10.54-7.21a17.56,17.56,0,0,0,2.06-12.69c10.8-1.45,17.26-8.34,22.79-16.73,1.45,2.59,4.09,3.73,7.29,3.16Z"/>
    <path d="M300.51,711.51a5.15,5.15,0,0,0,2.32.57v.31c-.57-.31-1.45-.31-2.06-.57-.31,0-.31-.31-.57-.31Z"/>
    <path d="M282.06,625.35a44.6,44.6,0,0,1,2.64,3.73A3.87,3.87,0,0,1,282.06,625.35Z"/>
    <path d="M240,547.84c-8.47.87-17,1.45-23.41-6.06h-4.39c-6.41-.57-11.68-4.62-13.17-10.68-1.45-6.32,1.18-12.12,7-15.85a7.07,7.07,0,0,1,1.45-.88c-1.18-4.3-.3-8.65,1.19-12.95a18.76,18.76,0,0,1-2.33-.88,20.74,20.74,0,0,1-12-9.53,6.2,6.2,0,0,0-3.2-2.9c-5.84-2-8.48-6.63-9.36-12.69a20,20,0,0,1,4.09-15c.3-.57.88-1.15,1.18-1.72-4.39-6.93-4.39-13-.31-20.15-1.75-1.45-3.51-2.9-5.26-4.31a30.92,30.92,0,0,1-4.4-4.92c2.07-1.71,3.82-3.47,5.54-5.18,4.7,4.92,9.66,9.8,14.62,15a42.94,42.94,0,0,0-4.39,3.47c-5.53,5.49-4.08,12.12,3.51,14.71a24.16,24.16,0,0,0,3.21.88c-1.19.87-2.07,1.71-2.94,2.32-1.76,1.45-3.52,2.6-5,4-2.94,2.9-4.39,6.64-3.2,10.68s4.39,6.32,8.78,7.2c.57,0,.88.3,1.76.3,1.75,4.92,4.7,8.66,9.66,10.68A17.9,17.9,0,0,0,223,492.28c1.18,2.9,2.32,5.76,3.82,8.66a7.09,7.09,0,0,1-2.33.3c-.88,0-2.07-.3-2.94-.3a6.53,6.53,0,0,0-7,3.73,7.24,7.24,0,0,0,.88,8.34c.31.31.88.57,1.18,1.14,1.19,1.45.88,2.6-.87,3.17-1.19.57-2.33.57-3.52,1.14-4.08,2-5.84,5.18-5,9.22.88,4.61,4.08,7.2,8.48,7.2a16.08,16.08,0,0,0,7.29-1.71c.57-.31.87-.31,1.44-.57,2.33,3.73,5,6.94,9.36,8.34,4.7,1.45,7.9-1.45,11.42-4,1.18,3.16,2.32,6.06,3.51,9.23-4.08,3.73-5.27,8.91-5.53,14.14,0,.57-.31,1.45,0,2,1.18,2.59-.31,4-2.33,5.18a14.83,14.83,0,0,0-5.84,6.32c-2.94,5.49-.31,10.94,5.84,12.39a20.33,20.33,0,0,0,8.47-.31c.88-.31,2.07-.57,3.21-.88,1.45,7.2,4.39,13.26,12.87,14.71-1.19,4.92-2.07,10.1-.31,15.29-1.19.3-2.06.57-2.94.87a9.88,9.88,0,0,0-6.41,4.31c-2.95,3.47-2.07,7.2,2.06,9.22,2.33,1.14,5,1.45,7.29,2a23.75,23.75,0,0,0,4.7,0c2.94,5.49,7.9,7.2,13.74,7.77,6.15.31,10.54-2.33,14.06-7.77,1.75,2.59,3.2,4.92,5,7.51-1.19.88-2.33,1.45-3.51,2.33a9.63,9.63,0,0,0-4.7,5.49,16.59,16.59,0,0,0-.31,11.81,10.1,10.1,0,0,0,4.39,5.49c2.33,1.45,2.33,1.71.88,4a14,14,0,0,0-2.06,8.34c.57,5.76,4.7,8.35,9.92,5.49a17.55,17.55,0,0,0,8.48-9.22c.57-1.45,1.18-3.16,2.06-5.18,2.64,2,5.27,3.73,7.91,5.49,2.63,1.45,5.53,2.59,8.16,3.73-6.72,9.22-6.41,17,.57,22.18,9.67-11.25,18.71-23.06,31-31.71a3.39,3.39,0,0,0-2.06-3.47c-2.95-1.45-5.54-3.16-8.48-4.3a10.31,10.31,0,0,1-5-4.31,25.27,25.27,0,0,0-14.06-13.26c-2.32-.88-4.39-2-6.72-3.16a18.09,18.09,0,0,1-8.16-8.65,81.36,81.36,0,0,1-3.21-7.78,16.87,16.87,0,0,0-9.05-9.79c-1.75-.88-3.51-1.71-5.27-2.59a7.85,7.85,0,0,1-5-7.51c0-1.71.31-3.16.31-4.92.31-2,.31-4,.57-6.06.31-6.94-2.33-12.12-7.9-16.16-1.76-1.14-3.52-2.33-5.54-3.47-1.75-1.14-3.82-2-5.53-3.16-5-2.9-7-7.2-6.72-12.69a36.09,36.09,0,0,1,.88-7.77c2.06-17-4.09-30.57-18.14-40.63-1.45-.87-2.94-2-4.39-2.89a7.93,7.93,0,0,1-3.82-7.21,66.53,66.53,0,0,1,.57-7.2,4.6,4.6,0,0,1,.31-2c1.18-8.65-1.76-15.85-8.17-21.91l-3.51-3.47a26.79,26.79,0,0,1-8.17-11.55,35.84,35.84,0,0,1-1.76-7.51,30.52,30.52,0,0,0-5-12.95C213.11,417,199.94,408.63,183.3,406c-5.27-.88-10.54-1.14-15.77-1.71a11.76,11.76,0,0,1-2.94-.57c-2.64-.88-5-.31-7.6,1.14A82.63,82.63,0,0,0,138,419a13,13,0,0,0-2.32,3.16c-5,8.34-8.79,17.3-10.24,26.79a64.49,64.49,0,0,0,4.09,34c.88,2,2.33,3.73,3.51,5.75.31.57,1.19,1.14,1.19,1.71a2.24,2.24,0,0,1-.31,2c-.31.57-1.45.57-2.06.31-.57,0-1.19-.88-1.76-1.14a34.08,34.08,0,0,1-7.6-12.38,60.71,60.71,0,0,1-4.08-16.43,11.63,11.63,0,0,0-.88-4c-.57,1.45-1.19,3.16-1.76,4.61-2.94,9.53-4.08,19.33-2.06,29.12a35.73,35.73,0,0,0,2.63,8.08,75.53,75.53,0,0,0,7,11.24c2.64,3.74,5.53,6.94,10.23,8.35.57,0,1.19.57,1.19.87a4.64,4.64,0,0,1,0,2.9,2.26,2.26,0,0,1-2.33.57,35.57,35.57,0,0,1-8.17-4c-7.59-5.18-12.56-12.38-16.07-20.77a17.09,17.09,0,0,0-1.45-3.16c-.57-.88-1.45-1.71-2.33-2.9a20.44,20.44,0,0,0-1.75,3.16A64.61,64.61,0,0,0,100.6,515,156,156,0,0,0,105,546.09a39.8,39.8,0,0,0,5.84,13.83c1.19,1.71.88,3.16-1.44,4.61-1.19-1.45-2.33-2.59-3.52-4a54.45,54.45,0,0,1-9-16.73,134.68,134.68,0,0,1-5.27-23.94,52,52,0,0,1,3.2-23.93c.31-1.14.57-2,.88-3.16a3.63,3.63,0,0,0-.31-1.45c-1.45,1.14-2.32,2-3.51,2.9-3.82,2.89-7.29,6.06-11.42,8.91a16.21,16.21,0,0,1-5,2.59,8,8,0,0,1-3.82,0,3.08,3.08,0,0,1-1.19-2.32c0-.58,1.19-1.45,1.76-1.45,2.33.3,4.08-.88,5.53-2.33a151.08,151.08,0,0,0,12.56-10.67,28.41,28.41,0,0,0,7.91-14.41c.3-1.45.3-2.9.57-5.18-1.19.88-1.76,1.14-2.07,1.71C90,478.54,82.07,484.3,73.9,489.79c-1.45.87-3.2,1.71-5,2.59a5.13,5.13,0,0,1-2.06.57,1.79,1.79,0,0,1-2.33-1.45A1.82,1.82,0,0,1,66,489.17c6.72-2.33,12-6.94,17.52-11.24a44.08,44.08,0,0,0,10.54-12.39c2.94-4.92,5.53-9.79,7.9-14.71,8.79-20.46,22.8-36,41.5-48.13a5.56,5.56,0,0,0,1.45-1.14c-12.29-2.59-24.28-4.92-36.84-4.61a88.47,88.47,0,0,0-27.49,4.91,51.87,51.87,0,0,0-28.64,24.51,24.92,24.92,0,0,0-3.2,10.36C47.55,446,51.68,452.9,60.16,457.2c-.88.88-1.45,2-2.33,2.59-2.07,2-4.39,4-6.72,6.06-6.15,5.49-7.6,12.38-5.27,20.16,2.63,8.34,7.6,14.71,15.5,18.75,1.19.57,2.07,1.14,3.21,1.71a10.43,10.43,0,0,1-1.45,2.59c-4.7,6.33-5.27,13.53-4.09,21a64.73,64.73,0,0,0,15.2,31.4,35.2,35.2,0,0,0,25.73,12.69c8.17.57,13.75-3.47,18.4-9.53a4,4,0,0,0,.88-2.59,2.67,2.67,0,0,1,2.33-2.9c7.6-2.33,10.8-7.51,9.66-15.28a13.7,13.7,0,0,1-.57-3.16c-.31-2,.88-3.17,2.64-2.59,2.63.87,4.08-.31,5.84-1.72,4.08-4,6.72-8.65,6.41-14.4,0-2.33,0-2.59,2.33-3.16a15.68,15.68,0,0,0,8.47-5.49,10.41,10.41,0,0,0,2.64-7.2c0-2,.57-2.9,2.63-3.47h.57c5.84-.88,9.66-5.76,7.29-12.7a17.47,17.47,0,0,0-4.39-6.93c-.57-.57-1.19-.88-1.45-1.45-.88-1.45-.57-2.33.88-3.17a13.41,13.41,0,0,0,4.39-19.58c-1.18-1.45-1.18-2.33-.31-4,2.33-5.49,3.52-11.24,2.33-17.3a31.55,31.55,0,0,0-1.45-4.62,2.19,2.19,0,0,1,.31-2.89,2.28,2.28,0,0,1,3.21,0c.87.87,2.06,2,2.32,3.16a21.52,21.52,0,0,1,1.45,7.51,29.33,29.33,0,0,1-2.63,16.42c4.08,8.92,2.32,17-3.52,24.77a11.37,11.37,0,0,1,1.45,2,17.55,17.55,0,0,1,3.82,11.81A13,13,0,0,1,166,507.53a18.52,18.52,0,0,1-2.33.57c-1.18,7.51-4.7,12.95-12.3,15.54-1.44,9.23-4.08,17.57-14.93,19.9-.3,3.16-.3,6.32-.57,9.22a14.55,14.55,0,0,1-3.2,7.51,11.08,11.08,0,0,1-7.6,4c-2.06,7.51-7.29,11.81-13.75,15.28a9.7,9.7,0,0,0,3.21,5.49,4.48,4.48,0,0,1,1.19,5.49,33.34,33.34,0,0,0-3,10.36c-.57,6.94,1.76,12.7,6.41,17.88,1.45,1.45,3,3.16,4.7,4.92a5.07,5.07,0,0,1-.57,1.45c-2.32,6.63-.88,12.69,3.82,17.87a10.71,10.71,0,0,1,2.64,5.75c.57,6.33,3.82,10.94,8.78,14.72a4,4,0,0,1,1.76,4.3,55.27,55.27,0,0,0-1.45,6.94c-.57,4.92.57,9.22,5,11.55,4.09,2.33,5.84,5.49,6.41,10.1.57,5.49,4.09,8.91,9.36,10.67,1.45.57,2.63.88,4.08,1.45a8.45,8.45,0,0,1,5.84,6.94c.31,2,.88,3.73,1.19,5.75a7.46,7.46,0,0,0,6.41,5.76,24.29,24.29,0,0,0,6.41.3,11.64,11.64,0,0,1,9.66,4.61c2.07,2.33,4.09,4.62,6.41,6.94a13.71,13.71,0,0,0,10.24,3.74h.57c5.53-.88,10.23,1.45,14.31,4.92,5.84,4.91,12.56,5.48,19.9,4a13.8,13.8,0,0,0,6.15-3.74c4.08-4,6.71-8.91,9.35-14.14.31-.31.31-.57.57-1.14a24,24,0,0,1,4.7-.57,180.08,180.08,0,0,1,43,3.47c2.64.57,5,1.45,7.29,2,1.45-4.3,3.21-8.65,4.7-13.26-2.94-.31-5.84-.57-8.47-.88a118.49,118.49,0,0,1-46.51-17c-2.94-1.71-6.15-3.73-9.05-5.49-8.78-4.92-17.83-6.06-27.75-4.3a27.43,27.43,0,0,1-19-3.47,45.34,45.34,0,0,1-5.84-4.3c-.88-.88-2.06-1.72-1.18-3.17s2.32-1.14,3.51-.87a17.51,17.51,0,0,1,3.51,1.14,80.8,80.8,0,0,0,25.17,4.3,50.08,50.08,0,0,1,6.72.88h1.75A6.88,6.88,0,0,0,242,689.3c-.31-.31-.88-.57-1.19-.88-9.05-5.49-18.14-10.94-27.49-16.16-5.84-3.47-12.87-4.3-19.59-5.18-5.53-.57-11.11-.88-16.38.57a1.9,1.9,0,0,1-2.63-1.45c-.31-1.45.57-2,1.75-2.33A30.27,30.27,0,0,1,182,663c10.23-.57,20.15,1.14,29.82,3.74.87.3,2.06.57,3.51,1.14-.57-.88-.88-1.45-1.19-2-12.86-13-28.37-20.77-47.07-21.61a27.13,27.13,0,0,0-6.72.88,2.42,2.42,0,0,1-2.94-1.14,1.79,1.79,0,0,1,1.44-2.59,13.53,13.53,0,0,1,4.7-.88,78.46,78.46,0,0,1,20.16,2c6.15,1.45,12,3.16,18.14,4.61a16.42,16.42,0,0,1,2.06.57c-.88-1.14-1.18-1.71-1.76-2.33-2.63-3.47-5.53-6.94-7.9-10.67A39.42,39.42,0,0,0,176.71,620c-4.39-2-9.36-2.9-14.32-3.47h-1.76c-1.18-.31-1.75-.88-1.75-2s.57-1.71,1.75-2h2.64a91,91,0,0,1,23.1,6.06c.88.31,1.45.57,2.94,1.14A13.7,13.7,0,0,0,187,616c-2.63-4-6.41-6.94-10.23-9.8-7.29-5.75-15.76-8.91-24.55-11.54-.57-.31-1.45-.31-2.06-.58-1.19-.57-1.45-1.14-1.19-2.32a1.73,1.73,0,0,1,2.33-1.14c.88.3,1.76.57,2.64.87a153,153,0,0,1,24.85,9.8c.57.3,1.45.57,2.64,1.14-.31-.88,0-1.71-.31-2.33-4.39-7.77-9.66-14.71-16.95-19.89a11,11,0,0,0-4.09-2c-5.27-1.72-10.23-3.16-15.5-4.92-.88-.31-1.45-.31-2.33-.57a1.87,1.87,0,0,1-1.18-2.33c.31-1.14.88-1.45,2.06-1.45.88,0,1.76.31,2.33.31A96.59,96.59,0,0,1,175,580.74c.57.3,1.19.57,2.33,1.14a5.43,5.43,0,0,0-.31-2.33c-.57-1.14-1.18-2-1.75-3.16a100.93,100.93,0,0,0-16.65-20.16c-2.63-2.33-5.27-4.61-8.78-5.75a3,3,0,0,1-2.07-3.47c1.19.31,2.33.31,3.52.57,6.41,1.45,12,4.61,17.26,8.34a30.76,30.76,0,0,1,3.2,3.17c.88.87,1.45,1.71,2.94,1.14s1.45-1.45,1.19-2.9c-.57-5.49-1.45-10.94-2.06-16.16-.57-4.61-.88-9.22-1.76-13.83a48.36,48.36,0,0,0-2.94-8.66c-.88-2.32-.88-3.73.57-4,1.18-.57,2.33.31,2.94,2.6,1.19,3.73,2.33,7.2,3.51,10.93.31,1.14.57,2.59,2.64,3.16a25.13,25.13,0,0,0,1.76-2.9c1.44-3.73,2.94-7.51,4.39-10.93a64.85,64.85,0,0,1,8.16-15,27.88,27.88,0,0,1,4.09-4,1.65,1.65,0,0,1,2.63,0,2.21,2.21,0,0,1,0,2.9c-9.92,10.1-13.74,23.06-16.38,36.32-.87,4.3-.3,8.34.57,12.69a122.68,122.68,0,0,0,7,25.08,98.54,98.54,0,0,0,5,9.79,11.91,11.91,0,0,0,2.64,3.16,11,11,0,0,1,.88-2.33,65.86,65.86,0,0,1,9.66-23.93,19.1,19.1,0,0,1,2.33-2.9c.87-.88,1.75-1.14,2.63-.3a1.61,1.61,0,0,1,.31,2.59c-.31.57-.88,1.14-1.19,1.71-7.29,10.1-9.35,21-7.29,33.16.31,1.44.31,3.16,2.33,4.3.31-1.14.57-2,.88-2.9,1.18-4.3,2.33-8.65,3.82-12.69.88-2.59,2.33-4.92,3.51-7.51a8.14,8.14,0,0,1,1.19-1.71,3,3,0,0,1,2.33,0c.57.31.57,1.45.87,2a2.1,2.1,0,0,1-.57,1.14c-6.41,10.67-7.9,21.91-5.53,34,.88,3.47,1.76,7.2,2.63,10.67a4,4,0,0,0,3.21,3.47c.31-2.33.57-4.61.88-6.63a51.07,51.07,0,0,1,6.15-18.44c0-.31.3-.31.3-.57.88-1.72,2.07-2,3.21-1.45s1.19,1.71.31,3.47c-.57,1.44-1.45,2.89-2.07,4.3-5,10.93-4.7,21.91-.3,33.16a17.63,17.63,0,0,0,5.53,7.77c-.31-2.33-.57-4.31-.88-6.06a48,48,0,0,1,1.76-21.34,5.78,5.78,0,0,1,1.18-2.33,2.4,2.4,0,0,1,2.33-.57c.57.3.88,1.14,1.19,2,0,.3-.31.88-.31,1.14-3.21,7.77-2.33,15.55,0,23.36,4.39,13.53,12.56,24.51,23.1,34,9.35,8.35,20.16,14.41,31.27,19.59a151.49,151.49,0,0,0,33.64,10.67,2.9,2.9,0,0,1,1.44.31c1.45-2,2.95-4,4.4-6.33-6.72-5.75-9-12.69-6.15-21-1.76-.88-3.51-1.45-5-2.33s-2.64-.31-3.82.88a65,65,0,0,1-6.42,5.49,15.52,15.52,0,0,1-8.78,2.33,10.67,10.67,0,0,1-10.23-9.8c-.31-4.61,1.45-8.65,4.39-12.38a11.51,11.51,0,0,1-6.15-6.63,18.32,18.32,0,0,1,0-11.25,17.6,17.6,0,0,0,.57-2.89,20.28,20.28,0,0,1-3.51.57,85.71,85.71,0,0,1-8.78,0c-4.4-.57-7.29-2.9-9.36-6.63a5.81,5.81,0,0,0-.57-.88c-3.51-.31-6.72,0-9.66-.57-5-.57-8.17-3.47-9.93-8.08-1.75-4.92-1.18-9.8,2.64-13.53a24.25,24.25,0,0,1,4.39-3.16,2.88,2.88,0,0,0,1.76-2.9,58.4,58.4,0,0,1,1.18-7.2c.31-2,.31-2.33-1.45-3.16a.79.79,0,0,1-.57-.31c-2.94-1.14-5-2.9-5.84-6.06-.57-2-.88-2.59-2.94-2-8.48,2.9-19-6.32-18.14-16.73a13.08,13.08,0,0,1,6.15-10.1,7.86,7.86,0,0,0,3.51-6.06c.31-3.47,1.76-6.94,2.64-10.37-4.39.88-4.08,0-3.82-1.14Z"/>
  </g>
</svg>
