<svg id="Livello_1" data-name="Livello 1" xmlns="http://www.w3.org/2000/svg" viewBox="0 0 841.89 841.89">
  <title>Glos</title>
  <g>
    <path d="M660.93,600.06a10.39,10.39,0,0,1,3.75-3.79,7.82,7.82,0,0,1,1.31-.6,3.3,3.3,0,0,1,1.46-.26,8.55,8.55,0,0,1,2.93.49l-1.23,2a3,3,0,0,1-.51-.7,3.75,3.75,0,0,1-.31-.64,5.6,5.6,0,0,1-.34-1.29,8.93,8.93,0,0,1,0-2.48,14.28,14.28,0,0,1,.53-2.25c.21-.72.44-1.42.68-2.11a42.53,42.53,0,0,1,1.68-4.1,23.09,23.09,0,0,1,2.33-3.9l.93-1.21.93,1.21a21.84,21.84,0,0,1,2.33,3.9,40.12,40.12,0,0,1,1.68,4.1c.24.69.47,1.39.68,2.11a14.28,14.28,0,0,1,.53,2.25,8.56,8.56,0,0,1,0,2.48,5.6,5.6,0,0,1-.34,1.29,4.6,4.6,0,0,1-.3.64,3.1,3.1,0,0,1-.52.7l-1.23-2a8.6,8.6,0,0,1,2.94-.49,3.4,3.4,0,0,1,1.45.27,7.86,7.86,0,0,1,1.31.61,10.45,10.45,0,0,1,3.76,3.77A11.7,11.7,0,0,0,683,598a5.42,5.42,0,0,0-1.12-.13,3.13,3.13,0,0,0-.53,0c-.18,0-.35-.05-.52-.05a5.49,5.49,0,0,0-2,.33l-1.23-2c-.06.05.07-.09.1-.17a2.53,2.53,0,0,0,.16-.33,3.65,3.65,0,0,0,.2-.79,6.73,6.73,0,0,0,0-1.79,11.74,11.74,0,0,0-.47-1.93c-.19-.65-.41-1.32-.64-2a27.53,27.53,0,0,0-3.64-7.32h1.86a27.83,27.83,0,0,0-3.64,7.32c-.23.66-.45,1.33-.64,2a12.77,12.77,0,0,0-.46,1.93,6,6,0,0,0,0,1.79,3.65,3.65,0,0,0,.2.79,2.52,2.52,0,0,0,.15.33c0,.08.16.22.11.17l-1.23,2a5.13,5.13,0,0,0-2-.32c-.17,0-.35.05-.52.05s-.36,0-.54,0a7.28,7.28,0,0,0-1.11.13A11.81,11.81,0,0,0,660.93,600.06Z"/>
    <path d="M594.1,667.84a10.38,10.38,0,0,1-2.44-4.74,8.34,8.34,0,0,1-.17-1.43,3.37,3.37,0,0,1,.21-1.47,8.54,8.54,0,0,1,1.38-2.64l1.48,1.78a3.39,3.39,0,0,1-.83.27,4.37,4.37,0,0,1-.7.1,6.43,6.43,0,0,1-1.33-.08,8.86,8.86,0,0,1-2.36-.79,14.44,14.44,0,0,1-2-1.2c-.62-.42-1.2-.85-1.79-1.3a41.24,41.24,0,0,1-3.38-2.86,22.49,22.49,0,0,1-3-3.42l-.86-1.26,1.44-.51a22.27,22.27,0,0,1,4.43-1,40.89,40.89,0,0,1,4.41-.33c.74,0,1.47,0,2.22,0a14.45,14.45,0,0,1,2.3.19,8.93,8.93,0,0,1,2.37.75,5.56,5.56,0,0,1,1.64,1.21,3.13,3.13,0,0,1,.5.71l-2.24.57a8.69,8.69,0,0,1,.44-3,3.25,3.25,0,0,1,.71-1.3,8.26,8.26,0,0,1,1-1.06,10.49,10.49,0,0,1,4.74-2.4,11.73,11.73,0,0,0-3.35,3.55,6.22,6.22,0,0,0-.47,1,3.45,3.45,0,0,0-.16.52c0,.16-.16.31-.21.47a5.63,5.63,0,0,0-.32,2l-2.24.57c0,.07-.06-.1-.13-.16l-.27-.24a3.47,3.47,0,0,0-.68-.44,6.52,6.52,0,0,0-1.72-.53,12.09,12.09,0,0,0-2-.16c-.68,0-1.39,0-2.08,0a27.43,27.43,0,0,0-8.09,1.2l.57-1.77a27.64,27.64,0,0,0,5.84,5.73c.56.42,1.12.83,1.69,1.22a11.43,11.43,0,0,0,1.69,1,6.34,6.34,0,0,0,1.7.58,3.75,3.75,0,0,0,.81.05,2,2,0,0,0,.36-.05c.09,0,.26-.08.19,0l1.48,1.77a5.33,5.33,0,0,0-.93,1.84c-.06.17-.06.35-.11.51a4.32,4.32,0,0,0-.16.51,5.64,5.64,0,0,0-.22,1.1A12,12,0,0,0,594.1,667.84Z"/>
    <path d="M637.92,752.34a10.39,10.39,0,0,1-5.26.86,9.13,9.13,0,0,1-1.42-.28,3.51,3.51,0,0,1-1.33-.65,8.59,8.59,0,0,1-2.08-2.13l2.14-.86a2.82,2.82,0,0,1,0,.87,3.78,3.78,0,0,1-.13.7,5.43,5.43,0,0,1-.49,1.24,8.55,8.55,0,0,1-1.47,2,14,14,0,0,1-1.75,1.51c-.6.46-1.19.88-1.79,1.3a42.19,42.19,0,0,1-3.76,2.33A22.08,22.08,0,0,1,616.4,761l-1.46.44,0-1.53a21.82,21.82,0,0,1,.41-4.53,38.9,38.9,0,0,1,1.05-4.29c.21-.71.43-1.4.69-2.11a13.07,13.07,0,0,1,.89-2.13,8.91,8.91,0,0,1,1.44-2,6.13,6.13,0,0,1,1-.85,5.37,5.37,0,0,1,.63-.34,3.4,3.4,0,0,1,.83-.26l-.16,2.31a8.41,8.41,0,0,1-2.66-1.33,3.36,3.36,0,0,1-1-1.07,9.86,9.86,0,0,1-.71-1.26,10.69,10.69,0,0,1-.82-5.26,11.8,11.8,0,0,0,2.35,4.29,6.48,6.48,0,0,0,.82.76c.14.12.3.21.44.31s.25.25.39.35a5.51,5.51,0,0,0,1.84.93l-.15,2.31c.07,0-.11,0-.19.08a1.59,1.59,0,0,0-.31.17,3.34,3.34,0,0,0-.63.52,6.24,6.24,0,0,0-1,1.47,14,14,0,0,0-.76,1.82c-.23.65-.44,1.32-.64,2a27.7,27.7,0,0,0-1.36,8.07l-1.5-1.1A27.63,27.63,0,0,0,623,755c.57-.4,1.14-.81,1.68-1.23a11.41,11.41,0,0,0,1.5-1.28,6.23,6.23,0,0,0,1.08-1.44,4,4,0,0,0,.3-.76,2.33,2.33,0,0,0,.06-.35c0-.09,0-.28,0-.2l2.15-.86a5.2,5.2,0,0,0,1.46,1.46c.14.1.31.16.45.25a4.8,4.8,0,0,0,.43.32,7.1,7.1,0,0,0,1,.55A11.84,11.84,0,0,0,637.92,752.34Z"/>
    <path d="M731.82,736.78a10.39,10.39,0,0,1-.81,5.27,9.27,9.27,0,0,1-.7,1.26,3.36,3.36,0,0,1-1,1.06,8.46,8.46,0,0,1-2.67,1.33l-.15-2.31a3.56,3.56,0,0,1,.83.26,5.22,5.22,0,0,1,.62.34,5.76,5.76,0,0,1,1,.85,8.65,8.65,0,0,1,1.45,2,14,14,0,0,1,.89,2.13c.25.71.48,1.4.69,2.11a44,44,0,0,1,1,4.29,21.82,21.82,0,0,1,.4,4.53l0,1.53-1.46-.44a22,22,0,0,1-4.18-1.78A42.19,42.19,0,0,1,724,756.9c-.61-.42-1.2-.84-1.79-1.3a14,14,0,0,1-1.75-1.51,8.58,8.58,0,0,1-1.48-2,5.42,5.42,0,0,1-.48-1.24,4.82,4.82,0,0,1-.14-.7,3.64,3.64,0,0,1,0-.87l2.15.86a8.42,8.42,0,0,1-2.09,2.12,3.22,3.22,0,0,1-1.33.64,9.13,9.13,0,0,1-1.42.28,10.45,10.45,0,0,1-5.25-.84,11.58,11.58,0,0,0,4.8-.91,6.2,6.2,0,0,0,1-.55,2.67,2.67,0,0,0,.43-.32c.14-.11.31-.16.45-.26a5.48,5.48,0,0,0,1.46-1.46l2.15.86c0-.08,0,.11,0,.2a2.41,2.41,0,0,0,.07.35,3.43,3.43,0,0,0,.3.76,6.48,6.48,0,0,0,1.07,1.44,11.53,11.53,0,0,0,1.51,1.28c.54.42,1.11.83,1.68,1.23a27.32,27.32,0,0,0,7.25,3.78l-1.5,1.1a27.7,27.7,0,0,0-1.36-8.07c-.2-.66-.42-1.33-.65-2a11.71,11.71,0,0,0-.76-1.82,6,6,0,0,0-1-1.47,3.29,3.29,0,0,0-.62-.52,2,2,0,0,0-.32-.17c-.07,0-.26-.09-.18-.08l-.16-2.31a5.18,5.18,0,0,0,1.84-.94c.14-.1.25-.24.39-.35s.3-.19.43-.31a6.48,6.48,0,0,0,.82-.76A11.77,11.77,0,0,0,731.82,736.78Z"/>
    <path d="M746,642.67a10.29,10.29,0,0,1,4.76,2.39,8.26,8.26,0,0,1,1,1.06,3.47,3.47,0,0,1,.7,1.31,8.48,8.48,0,0,1,.43,3l-2.24-.57a3.11,3.11,0,0,1,.51-.71,5.84,5.84,0,0,1,.51-.49,6,6,0,0,1,1.13-.72,8.75,8.75,0,0,1,2.36-.75,14.57,14.57,0,0,1,2.31-.19c.75,0,1.48,0,2.21,0a41.26,41.26,0,0,1,4.42.33,22.27,22.27,0,0,1,4.43,1l1.44.51-.87,1.26a22.49,22.49,0,0,1-3,3.42,39.5,39.5,0,0,1-3.37,2.86c-.59.45-1.18.88-1.8,1.3a14.31,14.31,0,0,1-2,1.2,9.11,9.11,0,0,1-2.36.79,6.43,6.43,0,0,1-1.33.08,4.66,4.66,0,0,1-.71-.1,3.34,3.34,0,0,1-.82-.27l1.48-1.78a8.52,8.52,0,0,1,1.37,2.64,3.37,3.37,0,0,1,.2,1.47,8.34,8.34,0,0,1-.17,1.43,10.57,10.57,0,0,1-2.43,4.74,11.8,11.8,0,0,0,.63-4.85,6.5,6.5,0,0,0-.23-1.1,3.05,3.05,0,0,0-.17-.51c-.06-.16-.05-.34-.11-.51a5.36,5.36,0,0,0-.94-1.84l1.48-1.77c-.06,0,.11,0,.2,0a2,2,0,0,0,.36.05,3.79,3.79,0,0,0,.81-.05,6.34,6.34,0,0,0,1.7-.58,12.56,12.56,0,0,0,1.69-1c.56-.39,1.13-.8,1.68-1.22a27.64,27.64,0,0,0,5.84-5.73l.58,1.77a27.53,27.53,0,0,0-8.09-1.2c-.7,0-1.4,0-2.08,0a12.22,12.22,0,0,0-2,.16,6.34,6.34,0,0,0-1.71.53,3.89,3.89,0,0,0-.69.44,2.05,2.05,0,0,0-.26.24c-.07.06-.17.23-.13.16l-2.24-.57a5.43,5.43,0,0,0-.33-2c-.05-.16-.16-.31-.21-.47a4.36,4.36,0,0,0-.17-.51,6.22,6.22,0,0,0-.47-1A11.71,11.71,0,0,0,746,642.67Z"/>
    <g>
      <path d="M711.12,742.77c0,23-16.55,41.6-37,41.6s-36.95-18.63-36.95-41.6a45.47,45.47,0,0,1,.78-8.5,18.14,18.14,0,0,1,3.24,4.51,18.32,18.32,0,0,0,3.21,4.32c1.75,1.87,4.18,2.5,6.61,2.91a13.61,13.61,0,0,0,11.21-2.67c5.08-4.16,8.45-9.4,8.93-16.17a20,20,0,0,1,.35-2.36,41.49,41.49,0,0,0,.54-12.68,4.6,4.6,0,0,1,.71-3.5,2.64,2.64,0,0,1,3.09-.92,2.7,2.7,0,0,1,2.11,2.46c.14,2.67.21,5.33.4,8,.33,4.67.71,9.32,1.08,14a12.69,12.69,0,0,1,.17,1.93c-.14,3.12.9,6,2,8.79a8,8,0,0,0,6.66,4.88,11.94,11.94,0,0,0,7.74-1.3,20.56,20.56,0,0,0,5.36-4.27c1.84-2,3.68-4.08,5.69-5.95a17.19,17.19,0,0,1,3.16-2.29A45,45,0,0,1,711.12,742.77Z"/>
      <path d="M773.5,712.22c-6.31,19.41-29.14,29.39-51,22.29a45.1,45.1,0,0,1-6.44-2.65l3.61-.92a9,9,0,0,0,4.91-3.32,15.63,15.63,0,0,0,3.56-9.54,11,11,0,0,0-.8-5.05A35.32,35.32,0,0,0,725,708.4a21.45,21.45,0,0,0-8.62-8c-3.82-1.82-7.48-4-11.64-5.08-1.32-.3-2.62-.75-3.91-1.15a12.1,12.1,0,0,1-2.06-.67,2.86,2.86,0,0,1-1.37-3.65,3,3,0,0,1,3.71-1.75c2.29.61,4.58,1.25,6.87,1.84,4,1.06,8,2.1,12.09,3.12,1.18.3,2.4.44,3.58.68a61.91,61.91,0,0,0,9.19.85,10,10,0,0,0,3.42-1.13c3.59-2.36,4.82-5.93,4.65-10.06a17.71,17.71,0,0,0-3-8.69,62.66,62.66,0,0,1-3.44-6.47,17.19,17.19,0,0,1-1.49-6.32,47.31,47.31,0,0,1,12.39,2.26C767.19,671.31,779.8,692.79,773.5,712.22Z"/>
      <path d="M741,650.82c-2.36,3.23-5.07,4.13-8,6.52.14-1.35.22-.72.32-2.06.33-5.1-2.6-8.52-6.42-11a13.5,13.5,0,0,0-10.06-2.2c-5.83,1-10.88,3.19-14.78,7.75-.76.87-1.68,1.58-2.48,2.4a16.89,16.89,0,0,0-1.91,2.06c-1.87,2.55-3.66,5.14-5.5,7.74a6.6,6.6,0,0,1-1,1.16,3.16,3.16,0,0,1-3.4.38,3.94,3.94,0,0,1-.4-.26,2.92,2.92,0,0,1-.75-3.85c1.46-2.25,3-4.44,4.41-6.68,2.36-3.78,4.68-7.58,7-11.38a18.41,18.41,0,0,1,1.11-1.87c2-2.5,2.88-5.47,3.66-8.47a7.85,7.85,0,0,0-2.38-7.91,13.43,13.43,0,0,0-12.35-3.57c-1.27.26-2.55.5-3.8.78-3.33.71-4.3,1.42-7.7.88,1.44-4.8,1.37-9.49,4.54-13.86,13.5-18.61,37.84-23.94,54.37-12S754.51,632.24,741,650.82Z"/>
      <path d="M671.63,621.19a8,8,0,0,1-1-.21c-1.51-.38-7.91-4.06-11.26-3.05-5.48,1.68-9.42,4.89-11,10.51a28.11,28.11,0,0,0-.73,4.69c-.76,7.23,2.74,13.13,6.16,19a85.76,85.76,0,0,0,5.62,7.65,5.82,5.82,0,0,1,.71,1.09,3.1,3.1,0,0,1-.57,3.33.25.25,0,0,1-.16.11,6.83,6.83,0,0,1-1,.57h0a2.81,2.81,0,0,1-3.32-.92c-1.61-2-3.17-4.08-4.84-6.07-2.91-3.49-5.86-6.91-8.81-10.36-.45-.54-1-1-1.42-1.63-1.77-2.67-4.34-4.42-7-6.07a7.72,7.72,0,0,0-8-.12,13.52,13.52,0,0,0-7.23,10.42c-.35,2.43-.51,4.88-.85,7.29a19.93,19.93,0,0,1-.54,2.81,44.88,44.88,0,0,1-9.06-9.37c-13.51-18.58-11.05-43.37,5.45-55.39s40.87-6.66,54.37,12C670.3,611.72,670.21,616.4,671.63,621.19Z"/>
      <path d="M630.45,729.22a26.34,26.34,0,0,1,3.47,1.79,45.2,45.2,0,0,1-8.1,3.5c-21.86,7.1-44.69-2.88-51-22.29s6.3-40.91,28.14-48c4.3-1.41,6.2-.73,10.56.1.79,1.78,0,2.48-1.07,3.68s-2.26,2.81-3.4,4.2a7.25,7.25,0,0,0-1.65,4.39,25.09,25.09,0,0,0,.31,5.36,13.37,13.37,0,0,0,5.45,8.55,24.46,24.46,0,0,0,11.43,4.2c4.18.47,8.17-.64,12.18-1.3,3.28-.52,6.4-2,9.63-3a8.23,8.23,0,0,1,2.5-.5,2.61,2.61,0,0,1,2.62,2.15,3,3,0,0,1-1.65,3.4c-2.48,1-5,1.82-7.48,2.81-4.2,1.68-8.36,3.45-12.54,5.17a18.84,18.84,0,0,1-2.19.92,21.8,21.8,0,0,0-7.87,4.82c-2.38,2.07-2.95,4.93-2.38,7.9a12.44,12.44,0,0,0,4.67,7.8,23.6,23.6,0,0,0,3.45,2.19C627.12,727.83,628.82,728.49,630.45,729.22Z"/>
      <path d="M695.34,683a21,21,0,1,1-21.06-21.06A21,21,0,0,1,695.34,683Z"/>
    </g>
  </g>
</svg>
