<svg id="Livello_1" data-name="Livello 1" xmlns="http://www.w3.org/2000/svg" viewBox="0 0 841.89 841.89">
  <defs>
    <style>
      .cls-1 {
        fill: #231f20;
      }
    </style>
  </defs>
  <title>Glos</title>
  <path class="cls-1" d="M787.05,239.77c3.31,42.52-18.35,78.31-25.19,120.34-10.63,50.42,31.63,131.21,7.59,164.49-10.61,15.67-23.49,32-25.44,53-1.57,43.27,34.68,74.54,33.64,119-.88,26.8-19.83,47.81-32.43,70-7.4-.83-36.36-.64-32.15-14.38.62-8.45,3-14.07,7.59-22.24C764.23,662.34,707,631.36,710,569.23c2-11.88,4.89-22.87,12.53-34.43,47.57-64.48,2.47-90.6,1.83-155.41-1-20.46,7.75-37.7,14.5-57.32q23.72-59.31,14-123.66c-2.6-64.5-41.33-14.82-4.76-95.29,18.66-41.06,32.54-35.5,37.5,8.68,2.11,17.83,14.65,41-2.74,53.67C775.17,189.1,789.4,215,787.05,239.77Z"/>
  <path class="cls-1" d="M113.83,602.12c3.32-42.52-18.35-78.31-25.19-120.34C78,431.36,120.28,350.57,96.24,317.29c-10.61-15.67-23.49-32.05-25.44-53-1.57-43.27,34.68-74.54,33.64-119-.88-26.8-19.83-47.81-32.43-70-7.4.83-36.36.64-32.15,14.38.61,8.45,3,14.07,7.59,22.24C91,179.54,33.82,210.53,36.83,272.66c2,11.87,4.89,22.87,12.53,34.43,47.57,64.48,2.47,90.6,1.82,155.41-1,20.46,7.76,37.7,14.51,57.32q23.72,59.31,14,123.66c-2.6,64.5-41.33,14.82-4.76,95.29,18.66,41.06,32.54,35.5,37.5-8.68,2.11-17.83,14.65-41-2.75-53.67C102,652.79,116.19,626.87,113.83,602.12Z"/>
</svg>
