<svg id="Livello_1" data-name="Livello 1" xmlns="http://www.w3.org/2000/svg" viewBox="0 0 841.89 841.89">
  <defs>
    <style>
      .cls-1 {
        fill: #231f20;
      }
    </style>
  </defs>
  <title>Glos</title>
  <g>
    <g>
      <path class="cls-1" d="M84.69,767.06c-1.55-.35-3-.63-4.37-1a15.49,15.49,0,0,1-7.67-4.71c-.84-.94-.64-1.64.43-1.89a46.09,46.09,0,0,0-10.8-8.93,184.74,184.74,0,0,0-29.5-15.91,64.76,64.76,0,0,0-14.13-4.36c-1.14-.18-2.3-.22-3.45-.33l-.06.22.68.41a207.06,207.06,0,0,1,43.24,31,52,52,0,0,1,8.82,9.93,3.78,3.78,0,0,0,2.23,2,7.83,7.83,0,0,1,.55-1.49c.4-.65,1-.57,1.61-.22a30.52,30.52,0,0,1,8.31,6.55s.11,0,.3.08a6.37,6.37,0,0,1-.07-1.21c.06-.4.13-1,.4-1.15a1.25,1.25,0,0,1,1.2,0,24.56,24.56,0,0,1,3.43,3.25A33.47,33.47,0,0,1,91,789.07c.45-1.24.87-2.28,1.22-3.34s1-1.41,1.82-.7a36.62,36.62,0,0,1,3.71,3.66c3.21,3.61,4.78,8,5.85,12.62.14.61.13,1.31-.67,1.44s-.9-.43-1.06-1.06a32.25,32.25,0,0,0-7-13.74c-.3-.36-1.11-1.05-1.25-1-.47,1.49-1,3-1.38,4.48-.18.71-.44,1.2-1.18,1.25s-1-.52-1.14-1.14a34.89,34.89,0,0,0-6.22-12.19c-.22-.27-.48-.51-.72-.76a2.53,2.53,0,0,0-.34-.17c-.14,2.14-1.54,3.61-2.58,5.25-1.14,1.8-1,3.74-.69,5.64.69,4.79,3.2,8.7,6.37,12.21a39.46,39.46,0,0,0,13.73,9.69,10,10,0,0,0,2.11.53c.63.13,1.26.28,1.13,1.1s-.8.7-1.36.64A10.1,10.1,0,0,1,96.67,812a2.23,2.23,0,0,0-2-.24,8.51,8.51,0,0,0-4.42,2.65c-1.17,1.4-1.76,3-.9,4.75a4.53,4.53,0,0,0,4.25,2.72l68.82.7a5.15,5.15,0,0,0,.65-.07c-1.68-4.35-5.93-7.11-11-5.62a21.8,21.8,0,0,0-4.1,1.75,10.71,10.71,0,0,1-6.58.91,31.47,31.47,0,0,1-10.37-2.93,18.83,18.83,0,0,0-13.17-1.11c-1.47.36-5.24,1.12-6.1.84a.72.72,0,0,1-.49-.88.8.8,0,0,1,.67-.64c4.66-.43,9.13-2.38,13.91-1.67,1.62.24,3.24.56,4.84.94a1.92,1.92,0,0,0,1.68-.25,22,22,0,0,0,5.69-6.08,40.75,40.75,0,0,0,5.72-13.13c-1.31-.31-2.65-.53-3.93-.94a9.84,9.84,0,0,1-4.87-3.51c-.35-.46-.46-.94,0-1.33s1-.2,1.32.26a10.35,10.35,0,0,0,15.55.22A21.63,21.63,0,0,0,157.17,779a39.68,39.68,0,0,0-3-26c-.09-.2-2.08,3.36-3.39,4.11a.8.8,0,0,1-1-.29.84.84,0,0,1,.14-1.06c1.81-1.3,2.2-3.3,2.55-5.25a34.09,34.09,0,0,0-.6-14.06,5.93,5.93,0,0,1-1.16,1.1.91.91,0,0,1-1.16-.06.63.63,0,0,1-.09-1c1.36-1.52,1.75-3.43,2.19-5.3.37-1.56.59-3.17.9-4.88-3.17,2.64-10.18,4.39-14.8,2.1-.56-.28-1.1-.68-.67-1.4s.95-.41,1.49-.11a9.06,9.06,0,0,0,5.66.74A14,14,0,0,0,151.1,725a4.24,4.24,0,0,0,1.76-3.51c0-3.27.17-6.54-.59-9.76-.11-.47-.47-2.36.13-2.52,1.32-.37,1.55,1.86,1.65,2.54,1,6.64,1.25,13.27-.47,19.84-.16.62-.41,1.2-.61,1.8a1.64,1.64,0,0,0,.77,1.9c7.49,3,29,16.43,33,18.69,6.54,3.64,13.41,4,20.5,1.66,5.62-1.84,11.24-3.71,16.94-5.28,5.25-1.44,10.56-2.68,15.91-3.63,3.29-.59,6.69-.13,10.05.23a10,10,0,0,0,9.14-3.3c.32-.36,1.27-1.35.57-2.16-.4-.45-1.26-.19-1.78,0-2.19.81-6.65,2.56-7.24,2.73-.87.24-1-.33-1-.73a.92.92,0,0,1,.82-.94,19.9,19.9,0,0,0,6.41-2.58c.52-.31,1.29-1,1.12-1.62-.29-1.14-1.2-.89-1.69-.6a44.36,44.36,0,0,1-8,3c-.39,0-1,.1-1.19-.38a.81.81,0,0,1,.51-1.19c.89-.32,5.78-2,6.93-2.38a28.1,28.1,0,0,0-4.6-.92c-4.45-.52-11,0-13.89,2.14-1.86,1.42-4.29,1.51-6.53,1.15-7.93-1.27-30.75,3.57-31.15,3.65a31.52,31.52,0,0,1,1.85,2.69c.18.34.58.93.07,1.35s-1.12,0-1.52-.4c-3.44-3.83-6.8-7.71-11-10.77-2.24-1.64-20.39-10.48-25.33-16.62a2.12,2.12,0,0,1-.57-1.34c.59-4.83-1.49-8.78-4.15-12.5a21.16,21.16,0,0,0-6.64-6.2,1.36,1.36,0,0,0-1.4-.06,71.68,71.68,0,0,0-12.4,7.55c-4.56,3.34-9.19,6.59-13.16,10.65-1.31,1.34-3.55,4.69-4.62,4s.33-2.5,1.25-3.52c8.12-9,18-15.65,28.93-21,1.78-.88,3.64-1.62,5.48-2.37a14.74,14.74,0,0,0,7.95-7.8,49,49,0,0,0,3.78-12.91,134.09,134.09,0,0,0,1.28-30.68c-.35-5.6-1.11-11.17-1.71-16.76a2.85,2.85,0,0,1,.82-2.58c1.18-1.19,1.36-2.84,1.68-4.38a27.14,27.14,0,0,0-.08-9.47c0-.29-.5-.76-.71-.73-1.65.22-3.28.55-4.92.85.28,1.51.52,2.74.75,4,.09.51.18,1.15-.47,1.26a1.61,1.61,0,0,1-1.15-.55c-1.57-1.82-3.07-3.72-4.66-5.52a3,3,0,0,0-1.46-.64,48.93,48.93,0,0,1-5.29-1.4,27.2,27.2,0,0,1-10.15-7.07,22.08,22.08,0,0,0-1.71-1.95,24.17,24.17,0,0,0,.25,2.84,21.58,21.58,0,0,0,6.91,11.47,62.06,62.06,0,0,0,5,3.93,19.12,19.12,0,0,1,7.66,11.22,13.58,13.58,0,0,1-.41,6.2c-1.11,4.69-2.15,9.39-3.28,14.06-.7,2.89-1.78,5.71-2.24,8.64-.59,3.72-.78,7.5-1,11.27-.12,1.89,0,3.8,0,5.71a1,1,0,0,1-.36.68q-8.25,5.81-16.52,11.57l-.48.31c-.91-.88-.9-1.72.09-2.43,1.84-1.31,3.69-2.59,5.57-3.84.45-.3.59-.53.38-1.07-.64-1.57-1-3.27-2.23-4.57a1.15,1.15,0,0,1-.06-1c.08-.18.59-.3.87-.23a3.94,3.94,0,0,0,3.74-1.28,1.63,1.63,0,0,0,.26-1.3c-.42-2,.48-3.42,1.56-4.89a9.14,9.14,0,0,0,1.32-2.46,1.22,1.22,0,0,0-1-1.62,15.65,15.65,0,0,0-2.21-.5,2.74,2.74,0,0,1-2.51-2.12c-.45-1.32-1-1.53-2-.64-1.57,1.3-2.95,2.72-2.32,5.1.22.84.59,1.27,1.38,1.2,1.31-.14,2.63-.34,3.92-.61.67-.14,1.32-.33,1.59.47s-.32,1.23-1,1.38c-1.57.32-3.15.6-4.84.91.6,2.21.44,4.27-2.47,5.08.05.54.13,1.1.16,1.65a22.93,22.93,0,0,1-3,11.66,65.39,65.39,0,0,1-3.75,5.82,3.52,3.52,0,0,1-.31.35c-.45.48-1,.68-1.51.21s-.37-1,.07-1.51a27.52,27.52,0,0,0,6.26-12.74,15,15,0,0,0,.27-3.78,7.93,7.93,0,0,0-.8-2c-.13-.35-.31-.83-.18-1.11s.63-.36,1-.46c.2-.05.44.06.66.06,1.58,0,2.18-.52,1.84-2-.55-2.52-1.21-5-1.9-7.51-.31-1.09-1-1.25-2-.61a4.22,4.22,0,0,0-1.83,3.67c0,1.24,0,2.48,0,3.71,0,1-.39,1.18-1.35.95-1.53-.36-3.07-.66-4.6-1-.61,2.59-3,3.44-5.16,1.34-1.13,3-.65,5.82,0,8.56a6.94,6.94,0,0,1,1.6,0,1.13,1.13,0,0,1,.68.73,1,1,0,0,1-.41.84c-1.29.78-1.38,1.18-.42,2.42.09.12,1.05-.16,1.43-.15a1.08,1.08,0,0,1,1,.57.92.92,0,0,1-.07,1,5.43,5.43,0,0,1-4.25,2.16c-.64,0-1.4-.19-1.58-.58s-.26-1.14.23-1.42a5.82,5.82,0,0,0,1.21-.82,2.27,2.27,0,0,0-1.88-2.2,3.39,3.39,0,0,1-1.43-.68,1.19,1.19,0,0,1-.21-1.12c.15-.24.74-.3,1.12-.27s.66.29,1.08.37a22.23,22.23,0,0,0-3.9-7.27c.27,1.51,0,2.77-1.28,3.63-1,.66-1.85.57-3.08-.27a4,4,0,0,0-.74,4c1.63,5.31,5.16,9,9.8,11.8,1.48.88,3.19,1.35,4.77,2.09.38.18.89.38.88,1a1.22,1.22,0,0,1-.88,1.12c-3,1-5.85,6.14-6,6.5s-.88,1.26-1.69.87-.5-1.28-.36-1.84c.54-2.16,4.73-6,5.39-6.48A25.79,25.79,0,0,1,108.78,684c-1.37,1.28-4.43,4.23-4.65,4.4a.93.93,0,0,1-1.4-1.15,57,57,0,0,1,4.83-4.7c-.68-2-1.32-3.9-2-5.82a1.3,1.3,0,0,0-.81-.71c-1.92-.39-3.69.32-5.47.87a9.26,9.26,0,0,0-1.72.8c-.59.35-1.12.35-1.47-.25a.94.94,0,0,1,.52-1.42q2.53-1,5.13-1.88a10.09,10.09,0,0,1,1.76-.27c-3.5-6.47-2.26-12.34,1.12-17.53a5.9,5.9,0,0,0-4-2.4,3.11,3.11,0,0,0-3.34,1.67,4.82,4.82,0,0,1-.73,1.23,11.19,11.19,0,0,1-1.87,1.31c-.65.37-1.42.56-2,1a4.66,4.66,0,0,0-.94,1.22c.44.28.84.72,1.31.8a26.25,26.25,0,0,0,3.2.3,4.91,4.91,0,0,0,.85-.09c.67-.07,1.19.19,1.25.87s-.41,1-1.08,1H92.91c.37.34.61.57.86.78a2,2,0,0,1,.72,2c-.18,1,.1,1.31,1.13,1.58a7.75,7.75,0,0,1,2.39,1,1.76,1.76,0,0,1,.6,1.45c0,.32-.72.64-1.17.79-.63.22-1.06.55-1,1.2.09,1.92-1,2.95-2.59,3.65-.6.25-1.36.56-1.13,1.5a1.9,1.9,0,0,0,1.91,1.65c.79,0,1.58,0,2.37,0s1,.44,1.17,1.13c.06.36.32,1,.5,1a2.49,2.49,0,0,0,1.22-.48c.21-.12.32-.39.47-.59a1.46,1.46,0,0,1,2.3-.36,1.35,1.35,0,0,1,.27,2.14,7.54,7.54,0,0,1-1.66,1.53c-.5.35-.74.61-.4,1.21s.57,1.29-.14,1.67a5.23,5.23,0,0,1-1.88.14,2.49,2.49,0,0,0,.22.86,2.55,2.55,0,0,0,.8.8,3.3,3.3,0,0,1,1.42,2.75c.15,2.33.24,2.34,2.26,1.14.85-.5,1.68-1,2.55-1.48,2.4-1.2,4.5.2,4.36,2.86a23.34,23.34,0,0,1-1.84,8.4c-1.68,3.74-1.6,7.67-1.22,11.6a36.44,36.44,0,0,0,6.2,17.36c.41.6.56,1.2-.18,1.63s-1.14-.07-1.46-.63c-1.37-2.42-2.75-4.84-4.07-7.3a1.08,1.08,0,0,0-1.42-.66,5.61,5.61,0,0,1-6.32-2.38,1.11,1.11,0,0,0-.8-.38A6.45,6.45,0,0,1,92.63,716a1.43,1.43,0,0,0-1-1.08c-2.88-1.32-4.29-3.72-4.8-6.76a1.07,1.07,0,0,0-.41-.72c-2.81-1.55-3.86-4.06-4-7.1,0-.23,0-.45,0-.74-4.28-.67-5-7.51-3.84-9.83l-3.13-1.66c-.15,1.49-2,28.16,9.44,38.51,12,10.93,24.33,8.21,28.93,7.74a4.65,4.65,0,0,1,1.57.14,18.81,18.81,0,0,0,13.16-1.16c2.54-1.25,4.45-3,4.82-6a.66.66,0,0,1,.8-.52.76.76,0,0,1,.7.8,11.73,11.73,0,0,1-.73,3,9.65,9.65,0,0,1-5.07,4.69,21.58,21.58,0,0,1-14.45.8c.33,5.05,5.31,13.05,10.87,16.38a21.08,21.08,0,0,0,3.1,1.39c.55.22,1,.44.89,1.12a.83.83,0,0,1-1.2.59c-1.28-.42-2.55-.88-4-1.38-2.38,5.64,3,13.79,5.49,15.32a1.09,1.09,0,0,1,.65,1.13c-.12.53-.84.61-1.15.49-2.89-1.2-5.09-5.53-5.26-5.85-2.74,3.35-3.8,9.85.57,13.21,2.21,1.7,4.43,3.26,7.28,3.66,1.3.19,2.82,0,2.84.85a.83.83,0,0,1-.82.94c-5.76.71-10.5-4.74-11.81-4.8-1.87-.1-.94,1.43-3.46.7-13.21-3.87-25-14.39-30.74-22.93-15.62-23.22-39.11-24.16-40-24.16.17.12,19.87,10.93,25.4,17.63.18.21.38.68.19.94s-.58.14-.86.12c-1.16-.1-2.32-.22-3.78-.37a15.26,15.26,0,0,0,.8,1.84c1.46,2.3,3.12,4.4,5.69,5.58a1,1,0,0,1,.1,1.84,7.8,7.8,0,0,1-.91.44A11.7,11.7,0,0,0,80,763.54c2.57.76,5.12,1.61,7.67,2.46a3.51,3.51,0,0,1,1.23.67.87.87,0,0,1,.37.89c-.1.37-.5.35-.7.34-2.55-.14-4.28,1.5-6.38,2.82.63.42,1.11.78,1.63,1.09a13,13,0,0,0,5.55,2.29c.41,0,1,.31,1.11.62s-.22.83-.44,1.21a6.43,6.43,0,0,1-.87,1A18,18,0,0,0,92.22,778c2.57.42,5.17.57,7.73,1a30.65,30.65,0,0,1,4.7,1.44c.25.08.75.31.72.84s-.54.71-.84.84a9.45,9.45,0,0,0-4.31,4c.83.21,1.64.4,2.44.62a13.61,13.61,0,0,1,5.31,2.64,2.49,2.49,0,0,1,1.2,2.46c2.55.2,8.66,1.57,11.42,4.87.18.26,1,1.16.16,1.77a1,1,0,0,1-1.12-.1c-2.06-2.79-5-3.63-8.24-4.4-1.57-.39-4.41.19-5-1.57-.15-.45.87-.6.76-1.25s-1-1-1.74-1.32c-1.5-.67-3.06-1.19-4.6-1.76-.92-.34-1.87-.6-2.75-1s-.79-1-.22-1.63c1.31-1.33,2.61-2.65,4.06-4.14-1.48-.28-3-.7-4.46-.83-2.56-.22-5.14-.21-7.53-1.35-.55-.26-1.1-.5-1.62-.8-1.35-.81-1.48-1.37-.62-2.77-1.28-.6-2.53-1.22-3.82-1.77a7.61,7.61,0,0,1-3.41-2.75.83.83,0,0,1,.21-1.25c1-.71,1.94-1.42,2.92-2.11C83.89,767.5,84.25,767.32,84.69,767.06Z"/>
      <path class="cls-1" d="M96.32,681.18l-3.95-.59c.28,1.49.64,3.12.88,4.76a24.4,24.4,0,0,1-.28,8.52.9.9,0,0,1-1.08.82.84.84,0,0,1-.8-1.07c.74-5.44-.46-10.58-2.29-15.65A37.85,37.85,0,0,0,75.38,660a14.52,14.52,0,0,0-8.14-2.7,41.43,41.43,0,0,1-16.5-4.77c-14.22-6.23-25.93-26.08-26.49-26.82-.87,10.34,13.53,58.83,48.86,57.45a8.64,8.64,0,0,1,3.92-6.7c.57-.3,1.22-.66,1.66.1s-.22,1.08-.79,1.41a5,5,0,0,0-2.41,5.12c.18,2.12,1.05,3.92,3.28,4.7a1.16,1.16,0,0,0,1.26-.25,5.43,5.43,0,0,1,1.94-.88.78.78,0,0,1,.85.62.8.8,0,0,1-.51.93c-4.66,2-1.57,9.36.51,9.28A14.4,14.4,0,0,1,85.2,694a.88.88,0,0,1,1.41,0c.43.51.15.92-.25,1.32a6.93,6.93,0,0,0-1.59,7.78A4,4,0,0,0,87,705.39,6.5,6.5,0,0,1,89.78,702a.86.86,0,0,1,1.1.24.87.87,0,0,1-.19,1.13,6,6,0,0,0,.43,9.22,7.22,7.22,0,0,0,1.06.59c.46-.8.87-1.54,1.31-2.26.33-.54.8-.92,1.42-.47s.36.9,0,1.42a4.49,4.49,0,0,0,2.56,6.93,8.59,8.59,0,0,0,1.37.22l.55-4.75c0-.15,0-1.18,1-1.1a.87.87,0,0,1,.75,1.19,7.81,7.81,0,0,0-.21,4.49,4.23,4.23,0,0,0,5.07,3.2c.69-.15.89-.39.65-1.1A38.51,38.51,0,0,1,105,709.78a23.5,23.5,0,0,1,2.22-9.9,16.3,16.3,0,0,0,1.22-6.58c0-1.54-.49-1.83-1.86-1.08-1.09.59-2.11,1.3-3.2,1.88a2.51,2.51,0,0,1-3.89-2.21,3.28,3.28,0,0,0-1.3-2.78,3.71,3.71,0,0,1-1.32-3.59c.06-.51.6-1,1-1.42.22-.29.5-.54.88-1C97.38,682.79,96.51,682.25,96.32,681.18Z"/>
      <path class="cls-1" d="M80.26,594.48c-21.92,14.83-11.76,50.39-2,63.6,1,1.91,11,14.28,12.28,17.67,1.06-.7,2.08-1.44,3.17-2.06.63-.36.59-.83.52-1.37a2.48,2.48,0,0,1,.87-2.63,11.06,11.06,0,0,1-1.77-1,2.34,2.34,0,0,1-1-2.57,1.38,1.38,0,0,0-.36-1.1,4.22,4.22,0,0,1-1.44-2.7,1.55,1.55,0,0,0-.26-.59,2.41,2.41,0,0,1,.25-3.43,26.12,26.12,0,0,1,2.77-2,11.5,11.5,0,0,0,1.44-1.26c.52-.55.92-1.23,1.48-1.73a1.43,1.43,0,0,0,.43-1.67A14.78,14.78,0,0,0,94,646.85c-3-4.18-5.93-8.39-8.93-12.56a38.67,38.67,0,0,1-6.82-18.93,48.2,48.2,0,0,1,.19-10C78.81,601.72,79.63,598.1,80.26,594.48Z"/>
      <path class="cls-1" d="M116.18,671.55c.14-1,.26-1.91.41-2.81a4.08,4.08,0,0,1,2.8-3.2,10.94,10.94,0,0,1,6.72-.14l2.11.52a33.47,33.47,0,0,1,0-3.62,5.85,5.85,0,0,1,2.09-4.21c.19-.15.21-.69.11-1a9.93,9.93,0,0,0-7.1-6.44c-5.37-1.46-10.1.08-14.23,3.58a15.46,15.46,0,0,0-5.76,11.18,12.54,12.54,0,0,0,2.82,8.63c.27-.68.45-1.24.71-1.77a7.5,7.5,0,0,1,5.07-4.09,2.34,2.34,0,0,1,2.48,1C115,670,115.55,670.71,116.18,671.55Z"/>
      <path class="cls-1" d="M112.11,649.67l6-1.35c.19,0,.5-.06.52-.15a8.2,8.2,0,0,0,.39-2.27,1.83,1.83,0,0,0-1.43-1.71,1.68,1.68,0,0,0-1.83.89c-.72,1-1.47,1-2-.13s-.92-2.35-1.33-3.54a2,2,0,0,0-1.86-1.49,8.67,8.67,0,0,1-2.42-.73c-.77-.34-1.45-.4-2,.29a19.49,19.49,0,0,0-2,3.15,3.07,3.07,0,0,0,.18,1.81c.14.54.51,1,.68,1.55a2.11,2.11,0,0,1-1.37,2.89c-1,.34-1,1-.85,1.78a6.48,6.48,0,0,0,3,3.93l4.66-3.89c-.65-1.62-1.33-3.35-2-5.08-.27-.64-.39-1.3.4-1.6s1.14.22,1.4.9C110.84,646.56,111.52,648.19,112.11,649.67Z"/>
      <path class="cls-1" d="M72.56,773.85c0,.61,0,1,0,1.36,0,.94-.65,1.31-1.48.85s-1.34-.84-2-1.28a8.11,8.11,0,0,0-4.69-1.17l13.7,9.91c.66-1,1.27-2,1.93-3A27.16,27.16,0,0,0,72.56,773.85Z"/>
      <path class="cls-1" d="M123,648.53c-.51-1-1-1.95-2.09-1.91-.36,0-.68.86-1.16,1.51Z"/>
    </g>
    <g>
      <path class="cls-1" d="M757.2,767.06c1.55-.35,3-.63,4.37-1a15.49,15.49,0,0,0,7.67-4.71c.84-.94.64-1.64-.43-1.89a46.09,46.09,0,0,1,10.8-8.93,184.74,184.74,0,0,1,29.5-15.91,64.76,64.76,0,0,1,14.13-4.36c1.14-.18,2.3-.22,3.45-.33l.06.22-.68.41a207.06,207.06,0,0,0-43.24,31,52,52,0,0,0-8.82,9.93,3.78,3.78,0,0,1-2.23,2,7.83,7.83,0,0,0-.55-1.49c-.4-.65-1-.57-1.61-.22a30.52,30.52,0,0,0-8.31,6.55s-.11,0-.3.08a6.37,6.37,0,0,0,.07-1.21c-.06-.4-.13-1-.4-1.15a1.25,1.25,0,0,0-1.2,0,24.56,24.56,0,0,0-3.43,3.25,33.47,33.47,0,0,0-5.17,9.74c-.45-1.24-.87-2.28-1.22-3.34s-1-1.41-1.82-.7a36.62,36.62,0,0,0-3.71,3.66c-3.21,3.61-4.78,8-5.85,12.62-.14.61-.13,1.31.67,1.44s.9-.43,1-1.06a32.38,32.38,0,0,1,7-13.74c.3-.36,1.11-1.05,1.25-1,.47,1.49,1,3,1.38,4.48.18.71.44,1.2,1.18,1.25s.95-.52,1.14-1.14a34.89,34.89,0,0,1,6.22-12.19c.22-.27.48-.51.72-.76a2.53,2.53,0,0,1,.34-.17c.14,2.14,1.54,3.61,2.58,5.25,1.14,1.8,1,3.74.69,5.64-.69,4.79-3.2,8.7-6.37,12.21a39.46,39.46,0,0,1-13.73,9.69,10,10,0,0,1-2.11.53c-.63.13-1.26.28-1.13,1.1s.8.7,1.36.64a10.1,10.1,0,0,0,4.65-1.53,2.23,2.23,0,0,1,2-.24,8.45,8.45,0,0,1,4.41,2.65c1.18,1.4,1.77,3,.91,4.75a4.54,4.54,0,0,1-4.25,2.72l-68.82.7a5.15,5.15,0,0,1-.65-.07c1.68-4.35,5.93-7.11,11-5.62a21.8,21.8,0,0,1,4.1,1.75,10.71,10.71,0,0,0,6.58.91,31.47,31.47,0,0,0,10.37-2.93A18.83,18.83,0,0,1,724,815.47c1.47.36,5.24,1.12,6.1.84a.72.72,0,0,0,.49-.88.8.8,0,0,0-.67-.64c-4.66-.43-9.13-2.38-13.91-1.67-1.62.24-3.24.56-4.84.94a1.92,1.92,0,0,1-1.68-.25,22,22,0,0,1-5.69-6.08,40.75,40.75,0,0,1-5.72-13.13c1.31-.31,2.65-.53,3.93-.94a9.84,9.84,0,0,0,4.87-3.51c.35-.46.46-.94,0-1.33s-1-.2-1.32.26a10.35,10.35,0,0,1-15.55.22A21.63,21.63,0,0,1,684.72,779a39.68,39.68,0,0,1,3-26c.09-.2,2.08,3.36,3.39,4.11a.8.8,0,0,0,1-.29.84.84,0,0,0-.14-1.06c-1.81-1.3-2.2-3.3-2.55-5.25a34.09,34.09,0,0,1,.6-14.06,5.93,5.93,0,0,0,1.16,1.1.91.91,0,0,0,1.16-.06.63.63,0,0,0,.09-1c-1.37-1.52-1.75-3.43-2.19-5.3-.37-1.56-.59-3.17-.9-4.88,3.17,2.64,10.18,4.39,14.8,2.1.56-.28,1.1-.68.67-1.4s-1-.41-1.49-.11a9.06,9.06,0,0,1-5.66.74,14,14,0,0,1-6.92-2.67,4.24,4.24,0,0,1-1.76-3.51c0-3.27-.17-6.54.59-9.76.11-.47.47-2.36-.13-2.52-1.32-.37-1.55,1.86-1.65,2.54-1,6.64-1.25,13.27.47,19.84.16.62.41,1.2.61,1.8a1.64,1.64,0,0,1-.77,1.9c-7.49,3-29,16.43-33,18.69-6.54,3.64-13.41,4-20.5,1.66-5.62-1.84-11.24-3.71-16.94-5.28-5.25-1.44-10.56-2.68-15.91-3.63-3.29-.59-6.69-.13-10,.23a10,10,0,0,1-9.14-3.3c-.32-.36-1.27-1.35-.57-2.16.4-.45,1.26-.19,1.78,0,2.19.81,6.65,2.56,7.24,2.73.87.24,1-.33,1-.73a.92.92,0,0,0-.82-.94,19.9,19.9,0,0,1-6.41-2.58c-.52-.31-1.29-1-1.12-1.62.29-1.14,1.2-.89,1.69-.6a44.36,44.36,0,0,0,8,3c.39,0,1,.1,1.19-.38a.81.81,0,0,0-.51-1.19c-.89-.32-5.78-2-6.93-2.38a28.1,28.1,0,0,1,4.6-.92c4.45-.52,11,0,13.89,2.14,1.86,1.42,4.29,1.51,6.53,1.15,7.93-1.27,30.75,3.57,31.15,3.65a31.52,31.52,0,0,0-1.85,2.69c-.18.34-.58.93-.07,1.35s1.12,0,1.52-.4c3.44-3.83,6.8-7.71,11-10.77,2.24-1.64,20.39-10.48,25.33-16.62a2.05,2.05,0,0,0,.56-1.34c-.58-4.83,1.5-8.78,4.16-12.5a21.16,21.16,0,0,1,6.64-6.2A1.36,1.36,0,0,1,692,699a72.05,72.05,0,0,1,12.4,7.55c4.56,3.34,9.19,6.59,13.16,10.65,1.31,1.34,3.55,4.69,4.62,4s-.33-2.5-1.25-3.52c-8.12-9-18-15.65-28.93-21-1.78-.88-3.64-1.62-5.48-2.37a14.74,14.74,0,0,1-8-7.8,49,49,0,0,1-3.78-12.91,134.09,134.09,0,0,1-1.28-30.68c.35-5.6,1.11-11.17,1.71-16.76a2.88,2.88,0,0,0-.82-2.58c-1.18-1.19-1.36-2.84-1.68-4.38a27.14,27.14,0,0,1,.08-9.47c0-.29.5-.76.71-.73,1.65.22,3.27.55,4.92.85-.28,1.51-.52,2.74-.75,4-.09.51-.18,1.15.47,1.26a1.61,1.61,0,0,0,1.15-.55c1.57-1.82,3.07-3.72,4.66-5.52a3,3,0,0,1,1.46-.64,48.93,48.93,0,0,0,5.29-1.4,27.2,27.2,0,0,0,10.15-7.07,22.08,22.08,0,0,1,1.71-1.95,24.17,24.17,0,0,1-.25,2.84,21.58,21.58,0,0,1-6.91,11.47,62.06,62.06,0,0,1-5,3.93,19.12,19.12,0,0,0-7.66,11.22,13.58,13.58,0,0,0,.41,6.2c1.11,4.69,2.15,9.39,3.28,14.06.7,2.89,1.78,5.71,2.24,8.64.59,3.72.78,7.5,1,11.27.12,1.89,0,3.8,0,5.71a1,1,0,0,0,.36.68q8.25,5.81,16.52,11.57l.48.31c.91-.88.9-1.72-.09-2.43-1.84-1.31-3.69-2.59-5.57-3.84-.45-.3-.59-.53-.38-1.07.64-1.57,1-3.27,2.23-4.57a1.15,1.15,0,0,0,.06-1c-.08-.18-.59-.3-.87-.23a3.93,3.93,0,0,1-3.74-1.28,1.63,1.63,0,0,1-.26-1.3c.42-2-.48-3.42-1.56-4.89a9.14,9.14,0,0,1-1.32-2.46,1.22,1.22,0,0,1,1-1.62,15.65,15.65,0,0,1,2.21-.5,2.74,2.74,0,0,0,2.51-2.12c.45-1.32,1-1.53,2-.64,1.57,1.3,2.95,2.72,2.32,5.1-.22.84-.59,1.27-1.38,1.2-1.31-.14-2.63-.34-3.92-.61-.67-.14-1.32-.33-1.59.47s.32,1.23,1,1.38c1.57.32,3.15.6,4.84.91-.6,2.21-.44,4.27,2.47,5.08,0,.54-.14,1.1-.16,1.65a22.93,22.93,0,0,0,3,11.66,65.39,65.39,0,0,0,3.75,5.82,3.52,3.52,0,0,0,.31.35c.45.48,1,.68,1.51.21s.37-1-.07-1.51a27.52,27.52,0,0,1-6.26-12.74,15,15,0,0,1-.27-3.78,7.93,7.93,0,0,1,.8-2c.13-.35.31-.83.18-1.11s-.64-.36-1-.46c-.2-.05-.44.06-.66.06-1.58,0-2.18-.52-1.84-2,.55-2.52,1.21-5,1.9-7.51.31-1.09,1-1.25,2-.61a4.22,4.22,0,0,1,1.83,3.67c0,1.24,0,2.48,0,3.71,0,1,.39,1.18,1.35.95,1.53-.36,3.07-.66,4.6-1,.61,2.59,3,3.44,5.16,1.34,1.13,3,.65,5.82,0,8.56a6.93,6.93,0,0,0-1.6,0,1.13,1.13,0,0,0-.68.73,1,1,0,0,0,.41.84c1.29.78,1.38,1.18.42,2.42-.09.12-1-.16-1.43-.15a1.07,1.07,0,0,0-1,.57.92.92,0,0,0,.07,1,5.43,5.43,0,0,0,4.25,2.16c.64,0,1.4-.19,1.58-.58s.26-1.14-.23-1.42a5.82,5.82,0,0,1-1.21-.82,2.27,2.27,0,0,1,1.88-2.2,3.39,3.39,0,0,0,1.43-.68,1.19,1.19,0,0,0,.21-1.12c-.15-.24-.74-.3-1.12-.27s-.66.29-1.08.37a22.23,22.23,0,0,1,3.9-7.27c-.27,1.51,0,2.77,1.28,3.63,1,.66,1.85.57,3.08-.27a4,4,0,0,1,.74,4c-1.63,5.31-5.16,9-9.8,11.8-1.48.88-3.19,1.35-4.77,2.09-.38.18-.89.38-.88,1a1.22,1.22,0,0,0,.88,1.12c3.05,1,5.85,6.14,6,6.5s.88,1.26,1.69.87.5-1.28.36-1.84c-.54-2.16-4.73-6-5.39-6.48A25.86,25.86,0,0,0,733.11,684c1.37,1.28,4.43,4.23,4.65,4.4a.93.93,0,0,0,1.4-1.15,57,57,0,0,0-4.83-4.7c.68-2,1.32-3.9,2-5.82a1.3,1.3,0,0,1,.81-.71c1.92-.39,3.69.32,5.47.87a9.26,9.26,0,0,1,1.72.8c.59.35,1.12.35,1.47-.25a.94.94,0,0,0-.52-1.42q-2.53-1-5.13-1.88a10.09,10.09,0,0,0-1.76-.27c3.5-6.47,2.26-12.34-1.12-17.53a5.9,5.9,0,0,1,4-2.4,3.11,3.11,0,0,1,3.34,1.67,4.82,4.82,0,0,0,.73,1.23,11.19,11.19,0,0,0,1.87,1.31c.65.37,1.42.56,2,1a4.66,4.66,0,0,1,.94,1.22c-.44.28-.84.72-1.31.8a26.25,26.25,0,0,1-3.2.3,4.91,4.91,0,0,1-.85-.09c-.67-.07-1.19.19-1.25.87s.41,1,1.08,1H749c-.37.34-.61.57-.86.78a2,2,0,0,0-.72,2c.18,1-.1,1.31-1.13,1.58a7.75,7.75,0,0,0-2.39,1,1.76,1.76,0,0,0-.6,1.45c.05.32.72.64,1.17.79.62.22,1.06.55,1,1.2-.09,1.92.95,2.95,2.59,3.65.6.25,1.36.56,1.13,1.5a1.9,1.9,0,0,1-1.91,1.65c-.79,0-1.58,0-2.37,0s-1,.44-1.17,1.13c-.06.36-.32,1-.5,1a2.49,2.49,0,0,1-1.22-.48c-.21-.12-.32-.39-.47-.59a1.46,1.46,0,0,0-2.3-.36,1.35,1.35,0,0,0-.27,2.14,7.54,7.54,0,0,0,1.66,1.53c.5.35.74.61.4,1.21s-.57,1.29.14,1.67a5.23,5.23,0,0,0,1.88.14,2.49,2.49,0,0,1-.22.86,2.55,2.55,0,0,1-.8.8,3.3,3.3,0,0,0-1.42,2.75c-.15,2.33-.24,2.34-2.26,1.14-.85-.5-1.68-1-2.56-1.48-2.39-1.2-4.49.2-4.35,2.86a23.34,23.34,0,0,0,1.84,8.4c1.68,3.74,1.6,7.67,1.22,11.6a36.44,36.44,0,0,1-6.2,17.36c-.41.6-.56,1.2.18,1.63s1.14-.07,1.46-.63c1.37-2.42,2.75-4.84,4.06-7.3a1.1,1.1,0,0,1,1.43-.66,5.61,5.61,0,0,0,6.32-2.38,1.11,1.11,0,0,1,.8-.38,6.45,6.45,0,0,0,6.69-4.83,1.43,1.43,0,0,1,1-1.08c2.88-1.32,4.29-3.72,4.8-6.76a1.07,1.07,0,0,1,.41-.72c2.81-1.55,3.86-4.06,4-7.1,0-.23,0-.45,0-.74,4.28-.67,5-7.51,3.84-9.83l3.13-1.66c.15,1.49,2,28.16-9.44,38.51-12.05,10.93-24.33,8.21-28.93,7.74a4.65,4.65,0,0,0-1.57.14,18.81,18.81,0,0,1-13.16-1.16c-2.54-1.25-4.45-3-4.82-6a.66.66,0,0,0-.8-.52.76.76,0,0,0-.7.8,11.33,11.33,0,0,0,.73,3,9.65,9.65,0,0,0,5.07,4.69,21.58,21.58,0,0,0,14.45.8c-.33,5.05-5.31,13.05-10.87,16.38a21.08,21.08,0,0,1-3.1,1.39c-.55.22-1,.44-.89,1.12a.83.83,0,0,0,1.2.59c1.28-.42,2.55-.88,4-1.38,2.38,5.64-3,13.79-5.49,15.32a1.09,1.09,0,0,0-.65,1.13c.12.53.84.61,1.15.49,2.89-1.2,5.09-5.53,5.26-5.85,2.74,3.35,3.8,9.85-.57,13.21-2.21,1.7-4.43,3.26-7.28,3.66-1.3.19-2.82,0-2.84.85a.83.83,0,0,0,.82.94c5.75.71,10.5-4.74,11.81-4.8,1.87-.1.94,1.43,3.46.7,13.21-3.87,25-14.39,30.74-22.93,15.62-23.22,39.11-24.16,40-24.16-.17.12-19.87,10.93-25.4,17.63-.18.21-.38.68-.19.94s.58.14.86.12c1.16-.1,2.32-.22,3.78-.37a15.26,15.26,0,0,1-.8,1.84c-1.46,2.3-3.12,4.4-5.69,5.58a1,1,0,0,0-.1,1.84,7.8,7.8,0,0,0,.91.44,11.75,11.75,0,0,1-5.38,2.81c-2.57.76-5.12,1.61-7.67,2.46a3.51,3.51,0,0,0-1.23.67.87.87,0,0,0-.37.89c.1.37.5.35.7.34,2.55-.14,4.28,1.5,6.38,2.82-.63.42-1.11.78-1.63,1.09a13,13,0,0,1-5.55,2.29c-.41,0-1,.31-1.11.62s.22.83.44,1.21a6.43,6.43,0,0,0,.87,1,18,18,0,0,1-3.09,1.09c-2.57.42-5.17.57-7.73,1a30.65,30.65,0,0,0-4.7,1.44c-.25.08-.75.31-.72.84s.54.71.84.84a9.5,9.5,0,0,1,4.31,4c-.83.21-1.64.4-2.44.62a13.61,13.61,0,0,0-5.31,2.64,2.49,2.49,0,0,0-1.2,2.46c-2.55.2-8.66,1.57-11.42,4.87-.19.26-1,1.16-.16,1.77a1,1,0,0,0,1.12-.1c2.06-2.79,5-3.63,8.24-4.4,1.57-.39,4.41.19,5-1.57.15-.45-.87-.6-.76-1.25s1-1,1.74-1.32c1.5-.67,3.06-1.19,4.6-1.76.92-.34,1.87-.6,2.75-1s.79-1,.22-1.63c-1.31-1.33-2.61-2.65-4.06-4.14,1.48-.28,3-.7,4.46-.83,2.56-.22,5.14-.21,7.53-1.35.55-.26,1.1-.5,1.62-.8,1.35-.81,1.48-1.37.62-2.77,1.28-.6,2.53-1.22,3.82-1.77a7.61,7.61,0,0,0,3.41-2.75.83.83,0,0,0-.21-1.25c-1-.71-1.94-1.42-2.92-2.11C758,767.5,757.64,767.32,757.2,767.06Z"/>
      <path class="cls-1" d="M745.57,681.18l3.95-.59c-.28,1.49-.64,3.12-.88,4.76a24.4,24.4,0,0,0,.28,8.52.9.9,0,0,0,1.08.82.84.84,0,0,0,.8-1.07c-.74-5.44.46-10.58,2.29-15.65A37.85,37.85,0,0,1,766.51,660a14.5,14.5,0,0,1,8.14-2.7,41.43,41.43,0,0,0,16.5-4.77c14.22-6.23,25.93-26.08,26.49-26.82.87,10.34-13.53,58.83-48.86,57.45a8.64,8.64,0,0,0-3.92-6.7c-.57-.3-1.22-.66-1.66.1s.22,1.08.79,1.41a5,5,0,0,1,2.41,5.12c-.18,2.12-1,3.92-3.28,4.7a1.16,1.16,0,0,1-1.26-.25,5.43,5.43,0,0,0-1.94-.88.78.78,0,0,0-.85.62.8.8,0,0,0,.51.93c4.66,2,1.57,9.36-.51,9.28a14.69,14.69,0,0,0-2.38-3.51.88.88,0,0,0-1.41,0c-.43.51-.15.92.25,1.32a6.93,6.93,0,0,1,1.59,7.78,4,4,0,0,1-2.25,2.31,6.5,6.5,0,0,0-2.76-3.43.86.86,0,0,0-1.1.24.87.87,0,0,0,.19,1.13,6,6,0,0,1-.43,9.22,7.22,7.22,0,0,1-1.06.59c-.46-.8-.87-1.54-1.31-2.26-.33-.54-.8-.92-1.42-.47s-.36.9-.05,1.42a4.49,4.49,0,0,1-2.56,6.93A8.59,8.59,0,0,1,743,719l-.55-4.75c0-.15,0-1.18-1-1.1a.87.87,0,0,0-.75,1.19,7.81,7.81,0,0,1,.21,4.49,4.23,4.23,0,0,1-5.07,3.2c-.69-.15-.89-.39-.65-1.1a38.85,38.85,0,0,0,1.75-11.13,23.5,23.5,0,0,0-2.22-9.9,16.3,16.3,0,0,1-1.22-6.58c0-1.54.49-1.83,1.86-1.08,1.09.59,2.11,1.3,3.2,1.88a2.51,2.51,0,0,0,3.89-2.21,3.28,3.28,0,0,1,1.3-2.78,3.71,3.71,0,0,0,1.32-3.59c-.06-.51-.6-1-.95-1.42-.22-.29-.5-.54-.88-1C744.51,682.79,745.38,682.25,745.57,681.18Z"/>
      <path class="cls-1" d="M761.63,594.48c21.92,14.83,11.76,50.39,2,63.6-1,1.91-11,14.28-12.28,17.67-1.06-.7-2.08-1.44-3.17-2.06-.63-.36-.59-.83-.52-1.37a2.48,2.48,0,0,0-.87-2.63,11.06,11.06,0,0,0,1.77-1,2.34,2.34,0,0,0,1-2.57,1.38,1.38,0,0,1,.36-1.1,4.22,4.22,0,0,0,1.44-2.7,1.55,1.55,0,0,1,.26-.59,2.41,2.41,0,0,0-.25-3.43,26.12,26.12,0,0,0-2.77-2,11.5,11.5,0,0,1-1.44-1.26c-.52-.55-.92-1.23-1.48-1.73a1.43,1.43,0,0,1-.43-1.67,14.78,14.78,0,0,1,2.68-4.87c3-4.18,5.93-8.39,8.93-12.56a38.67,38.67,0,0,0,6.82-18.93,48.2,48.2,0,0,0-.19-10C763.08,601.72,762.26,598.1,761.63,594.48Z"/>
      <path class="cls-1" d="M725.71,671.55c-.14-1-.26-1.91-.41-2.81a4.08,4.08,0,0,0-2.8-3.2,10.94,10.94,0,0,0-6.72-.14l-2.11.52a33.47,33.47,0,0,0,0-3.62,5.85,5.85,0,0,0-2.09-4.21c-.19-.15-.21-.69-.11-1a9.93,9.93,0,0,1,7.1-6.44c5.37-1.46,10.1.08,14.23,3.58a15.46,15.46,0,0,1,5.76,11.18,12.54,12.54,0,0,1-2.82,8.63c-.27-.68-.45-1.24-.71-1.77a7.5,7.5,0,0,0-5.07-4.09,2.34,2.34,0,0,0-2.48,1C726.87,670,726.34,670.71,725.71,671.55Z"/>
      <path class="cls-1" d="M729.78,649.67l-6-1.35c-.18,0-.49-.06-.51-.15a8.2,8.2,0,0,1-.39-2.27,1.81,1.81,0,0,1,1.43-1.71,1.68,1.68,0,0,1,1.83.89c.72,1,1.47,1,2-.13s.92-2.35,1.33-3.54a2,2,0,0,1,1.86-1.49,8.77,8.77,0,0,0,2.42-.73c.77-.34,1.45-.4,2,.29a19.49,19.49,0,0,1,2,3.15,3.07,3.07,0,0,1-.18,1.81c-.14.54-.51,1-.68,1.55a2.11,2.11,0,0,0,1.37,2.89c1,.34,1.05,1,.85,1.78a6.48,6.48,0,0,1-3,3.93l-4.66-3.89c.65-1.62,1.33-3.35,2-5.08.27-.64.39-1.3-.4-1.6s-1.14.22-1.4.9C731.05,646.56,730.37,648.19,729.78,649.67Z"/>
      <path class="cls-1" d="M769.33,773.85c0,.61,0,1,0,1.36,0,.94.65,1.31,1.48.85s1.34-.84,2-1.28a8.11,8.11,0,0,1,4.69-1.17l-13.7,9.91c-.66-1-1.27-2-1.93-3A27.16,27.16,0,0,1,769.33,773.85Z"/>
      <path class="cls-1" d="M718.89,648.53c.5-1,1-1.95,2.09-1.91.36,0,.68.86,1.16,1.51Z"/>
    </g>
  </g>
</svg>
