<svg id="Livello_1" data-name="Livello 1" xmlns="http://www.w3.org/2000/svg" viewBox="0 0 841.89 841.89">
  <title>Glos</title>
  <g>
    <g>
      <path d="M715.07,96.94s-18.53-41.66,0-41.63S715.07,96.94,715.07,96.94Z"/>
      <path d="M695.71,105s-42.57-16.35-29.44-29.44S695.71,105,695.71,105Z"/>
      <path d="M687.69,124.33s-41.67,18.53-41.64,0S687.69,124.33,687.69,124.33Z"/>
      <path d="M695.71,143.69s-16.36,42.57-29.44,29.44S695.71,143.69,695.71,143.69Z"/>
      <path d="M715.07,151.72s18.54,41.66,0,41.63S715.07,151.72,715.07,151.72Z"/>
      <path d="M734.44,143.69s42.57,16.36,29.44,29.44S734.44,143.69,734.44,143.69Z"/>
      <path d="M742.46,124.33s41.66-18.54,41.63,0S742.46,124.33,742.46,124.33Z"/>
      <path d="M734.44,105s16.35-42.56,29.44-29.44S734.44,105,734.44,105Z"/>
      <circle cx="715.07" cy="124.33" r="24.28"/>
      <path d="M701.67,94.23s-55.89-57.92-25.13-69.05S701.67,94.23,701.67,94.23Z"/>
      <path d="M684.31,112.52s-80.47-1.43-66.6-31S684.31,112.52,684.31,112.52Z"/>
      <path d="M685,137.73s-57.91,55.89-69.05,25.13S685,137.73,685,137.73Z"/>
      <path d="M703.27,155.09s-1.43,80.47-31.06,66.6S703.27,155.09,703.27,155.09Z"/>
      <path d="M728.47,154.43s55.9,57.91,25.14,69S728.47,154.43,728.47,154.43Z"/>
      <path d="M745.83,136.13s80.48,1.43,66.6,31.06S745.83,136.13,745.83,136.13Z"/>
      <path d="M745.17,110.93S803.09,55,814.23,85.79,745.17,110.93,745.17,110.93Z"/>
      <path d="M726.88,93.57s1.43-80.47,31-66.6S726.88,93.57,726.88,93.57Z"/>
    </g>
    <g>
      <path d="M126.82,690.17s-18.54-41.66,0-41.63S126.82,690.17,126.82,690.17Z"/>
      <path d="M107.45,698.2S64.88,681.84,78,668.76,107.45,698.2,107.45,698.2Z"/>
      <path d="M99.43,717.56s-41.66,18.54-41.64,0S99.43,717.56,99.43,717.56Z"/>
      <path d="M107.45,736.93S91.1,779.49,78,766.37,107.45,736.93,107.45,736.93Z"/>
      <path d="M126.82,745s18.53,41.66,0,41.63S126.82,745,126.82,745Z"/>
      <path d="M146.18,736.93s42.57,16.35,29.44,29.44S146.18,736.93,146.18,736.93Z"/>
      <path d="M154.2,717.56s41.67-18.53,41.64,0S154.2,717.56,154.2,717.56Z"/>
      <path d="M146.18,698.2s16.36-42.57,29.44-29.44S146.18,698.2,146.18,698.2Z"/>
      <circle cx="126.82" cy="717.56" r="24.28"/>
      <path d="M113.42,687.46s-55.9-57.91-25.14-69.05S113.42,687.46,113.42,687.46Z"/>
      <path d="M96.06,705.76s-80.48-1.44-66.6-31.06S96.06,705.76,96.06,705.76Z"/>
      <path d="M96.72,731S38.8,786.86,27.66,756.1,96.72,731,96.72,731Z"/>
      <path d="M115,748.32s-1.43,80.47-31.06,66.6S115,748.32,115,748.32Z"/>
      <path d="M140.22,747.66s55.89,57.91,25.13,69.05S140.22,747.66,140.22,747.66Z"/>
      <path d="M157.58,729.37s80.47,1.43,66.6,31S157.58,729.37,157.58,729.37Z"/>
      <path d="M156.92,704.16S214.83,648.27,226,679,156.92,704.16,156.92,704.16Z"/>
      <path d="M138.62,686.8s1.43-80.47,31.06-66.6S138.62,686.8,138.62,686.8Z"/>
    </g>
  </g>
  <g>
    <path d="M728.53,826.32c-11.4,1.77-16.27-3.66-20.51-13.06-17.74-39.25-56.29-123.18-57.3-126.12-4-11.59-2.9-17.81,8.76-22.62,17-7,32.39-13.26,49.74-19.38,13.6-4.8,22.07-13.44,20.35-33.36-.53-6.15-7.35-20.86-5.37-40.22.6-11.34,10.26-20.11,20.59-19.89,9.88.2,19.42,9,19.7,19.88,1.53,12.94-7.91,30.63-10.15,35.22-7,14.26-5.47,24.63,8.3,32.79,11.71,6.94,26.87,9.22,40.11,12.57,24.42,6.18,26,12.29,17.24,36.34-5.86,16.13-45,102.86-61.9,130.3-1.25,2-4.73,4.8-7.56,5.31C743.3,825.4,735.82,825.19,728.53,826.32Zm-13.42-30.38c4.41-.69,4.17-6.05,4.37-8.07,3.45-34.65,6.53-69.34,9.93-104,1.8-18.4-11-26.6-21-23.43-10.72,3.4-21.1,8-31.31,12.79-7.54,3.51-9.89,10.24-6.89,17.87q18.12,46.24,36.89,92.25C708.72,787.44,710.75,796.61,715.11,795.94Zm31.71-23.08c.52,5.19-.29,14,4.91,15.23,5,1.2,8.46-6.54,10.79-10.85,13.61-25.21,28.61-49.81,39.8-76.19,5.74-13.55,17.11-30.2-1.21-35a161.06,161.06,0,0,0-21-3.67C760.4,660,752,666,749.91,686.1,747.77,706.4,746,764.41,746.82,772.86Z"/>
    <path d="M97,289.9c-11.39,1.77-16.27-3.67-20.51-13.07-17.74-39.25-56.28-123.18-57.3-126.12-4-11.58-2.9-17.81,8.77-22.62,17-7,32.38-13.26,49.73-19.38,13.6-4.8,22.08-13.44,20.35-33.35-.53-6.15-7.35-20.87-5.37-40.23.6-11.34,10.26-20.11,20.59-19.89,9.88.21,19.42,9,19.71,19.88,1.52,12.94-7.92,30.63-10.16,35.22-7,14.26-5.47,24.63,8.31,32.79,11.7,6.94,26.86,9.22,40.1,12.57,24.42,6.18,26,12.29,17.24,36.34-5.86,16.13-45,102.87-61.9,130.3-1.25,2-4.72,4.8-7.56,5.32C111.73,289,104.25,288.76,97,289.9ZM83.54,259.51c4.41-.68,4.17-6,4.38-8.06,3.44-34.66,6.52-69.35,9.92-104,1.8-18.4-11-26.6-21-23.42-10.72,3.39-21.09,8-31.31,12.78-7.54,3.52-9.88,10.24-6.89,17.88q18.13,46.24,36.89,92.24C77.15,251,79.19,260.19,83.54,259.51Zm31.71-23.08c.52,5.19-.29,14,4.91,15.24,5,1.19,8.47-6.55,10.79-10.85,13.61-25.22,28.61-49.82,39.8-76.2,5.74-13.55,17.11-30.2-1.21-35A161.06,161.06,0,0,0,148.59,126c-19.76-2.44-28.13,3.63-30.25,23.69C116.2,170,114.4,228,115.25,236.43Z"/>
  </g>
</svg>
