<svg id="Livello_1" data-name="Livello 1" xmlns="http://www.w3.org/2000/svg" viewBox="0 0 841.89 841.89">
  <title>Glos</title>
  <g>
    <g>
      <path d="M219,223.14a15.3,15.3,0,0,1-11.87-9c-2-4.32-2.23-16.75-2.24-18.3,0-.09-.15-.43-.45-.31-.7.29-3.29,11.81-4.14,17.13a60.41,60.41,0,0,0-.59,7.21,4.58,4.58,0,0,0,2,4.47,4.11,4.11,0,0,1,1.33,1.56,3.49,3.49,0,0,1,.34,3,5.73,5.73,0,0,1-6.3,3.45,7,7,0,0,1-4.87-3.52,14.38,14.38,0,0,1-1.57-4.37,28.33,28.33,0,0,1,.08-10.82,56.06,56.06,0,0,1,8.5-21.55c.84-1.24,1.15-2.56.85-2.67a.73.73,0,0,0-.91.28c-1.05,1.14-58,57.14-59.82,57.64a4.59,4.59,0,0,1-4.5-1.18,5,5,0,0,1-1.18-4.5c.51-1.85,56.5-58.77,57.64-59.82.3-.28.44-.5.29-.91s-1.44,0-2.68.85a55.84,55.84,0,0,1-21.55,8.5,28.33,28.33,0,0,1-10.82.08,14.38,14.38,0,0,1-4.37-1.57,7,7,0,0,1-3.52-4.87,5.73,5.73,0,0,1,3.45-6.3,3.52,3.52,0,0,1,3,.34,4,4,0,0,1,1.55,1.33,4.58,4.58,0,0,0,4.47,2,58.4,58.4,0,0,0,7.21-.59c5.32-.85,16.85-3.44,17.13-4.14.12-.29-.22-.45-.31-.45-1.55,0-14-.24-18.3-2.24a15.27,15.27,0,0,1-9-11.87,5.27,5.27,0,0,1,3-5.54,3.6,3.6,0,0,1,4.54,1.32c.18.29.31.62.47.93a17.29,17.29,0,0,0,9.73,8.1A22.89,22.89,0,0,0,189.31,168c1.1-.27,1.74-2.28,1.35-3.26-.45-1.14-1.86-1.8-2.88-2.71a25.11,25.11,0,0,1-5.9-8.44,19.18,19.18,0,0,1-1.51-9.14c.37-7.12,3.56-12.69,8.92-17.45,4.26-3.8,8.93,0,10.69,2.13a8,8,0,0,1,1.34,2.19,5.48,5.48,0,0,1-5,7.74,4.12,4.12,0,0,0-3.72,2.26,7.5,7.5,0,0,0-.27,7.46,13.67,13.67,0,0,0,3.77,4.89,29.56,29.56,0,0,0,3.41,2.36c1.63,1,3.6,1.49,4.95,2.74s5.46,7.54,4.45,8.55-8.65-.53-10.55,1.38c-1.75,1.74.52,6.53,2.78,9.34,0,0,.52.62.57.66,2.25,2.35,7.88,4.93,10.57,3.92,1.9-.72-2.17,11,1.87,22.85a16.6,16.6,0,0,0,8.11,9.73c.31.16.63.29.92.47a3.6,3.6,0,0,1,1.32,4.54A5.27,5.27,0,0,1,219,223.14Z"/>
      <path d="M201.29,178.15l-.11-.13h0A1.13,1.13,0,0,0,201.29,178.15Z"/>
      <g>
        <path d="M393.47,105.86a26.28,26.28,0,0,1-17.42-5.37,23.73,23.73,0,0,1-7.46-9.79,22.58,22.58,0,0,1,1.05-20,21.67,21.67,0,0,1,6.06-7,4.92,4.92,0,0,1,3.37-1.07,10.16,10.16,0,0,1,5.8,2,7.32,7.32,0,0,1,2.88,4.19,5.6,5.6,0,0,1-4.33,7.06,6.1,6.1,0,0,1-1.54.06,2.69,2.69,0,0,0-2.18,1.21,6.48,6.48,0,0,0-1.57,5.78,14.32,14.32,0,0,0,1.17,3.41A13.42,13.42,0,0,0,390,93.49a10.79,10.79,0,0,0,9-3.22,22.16,22.16,0,0,0,6.72-13.7A20.55,20.55,0,0,0,404,65.43a15.87,15.87,0,0,0-5.61-6.67,21.21,21.21,0,0,0-10.61-3.83,30,30,0,0,0-7.74.33,43.24,43.24,0,0,0-25.56,14.68,36.14,36.14,0,0,0-5.38,8.23C346.29,84,315,173,292.16,196.18c-18.25,18.54-61.51,29.38-73.18-9.37-1.14-3.78-.86-10.61-.09-15.74a44.3,44.3,0,0,1-5.27-4.51c-9.09-9.1-12.71-20.23-8.08-24.86,2.8-2.8,8-2.58,13.66.05l.09-.44a23,23,0,0,0-.52-9.76,17.37,17.37,0,0,0-7.24-9.8,23.28,23.28,0,0,0-14.86-3.59,37.93,37.93,0,0,0-14.43,4,44.08,44.08,0,0,0-11,7.68,42.36,42.36,0,0,0-8.41,11.12c-5,9.7-45.1,101.6-48.51,106.81-26.2,40.06-68.44,29-81.88,1.85-9.22-18.67,1.93-43,24.23-43.73a26.23,26.23,0,0,1,17.42,5.37A23.82,23.82,0,0,1,81.53,221a22.62,22.62,0,0,1-1.06,20,21.62,21.62,0,0,1-6,7,4.92,4.92,0,0,1-3.37,1.07,10.29,10.29,0,0,1-5.81-2A7.35,7.35,0,0,1,62.37,243a5.59,5.59,0,0,1,4.32-7.06,5.73,5.73,0,0,1,1.55-.07,2.64,2.64,0,0,0,2.17-1.2A6.43,6.43,0,0,0,72,228.86a13.56,13.56,0,0,0-1.17-3.42,13.4,13.4,0,0,0-10.73-7.22,10.78,10.78,0,0,0-9,3.22,22.08,22.08,0,0,0-6.72,13.7,20.46,20.46,0,0,0,1.77,11.14A16,16,0,0,0,51.78,253a21.3,21.3,0,0,0,10.61,3.83,30,30,0,0,0,7.74-.33,43.32,43.32,0,0,0,25.56-14.68,35.83,35.83,0,0,0,5.37-8.24c2.77-5.77,34.08-94.84,56.89-118,18.26-18.54,61.52-29.38,73.18,9.37,1.73,5.72.22,18.43-1.36,21.68-.35.72-.63,1.31-.9,1.76.52.46,1,.95,1.53,1.45,9.09,9.09,12.71,20.22,8.08,24.85-1.8,1.8-4.58,2.35-7.85,1.83a20.88,20.88,0,0,0,.71,3.69,17.33,17.33,0,0,0,7.25,9.79,23.2,23.2,0,0,0,14.86,3.59,37.73,37.73,0,0,0,14.43-3.95,44.26,44.26,0,0,0,11-7.68,42.11,42.11,0,0,0,8.4-11.12c5-9.71,45.1-101.6,48.52-106.82,26.2-40,68.44-29,81.88-1.84C426.92,80.79,415.76,105.11,393.47,105.86Z"/>
        <path d="M231.11,88.57a15.3,15.3,0,0,1,11.88,9c2,4.32,2.23,16.75,2.24,18.3,0,.09.15.43.45.31.7-.29,3.28-11.81,4.14-17.13a60.41,60.41,0,0,0,.59-7.21,4.58,4.58,0,0,0-2-4.47,4.11,4.11,0,0,1-1.33-1.56,3.49,3.49,0,0,1-.34-3A5.73,5.73,0,0,1,253,79.4a7,7,0,0,1,4.87,3.52,14.38,14.38,0,0,1,1.57,4.37,28.33,28.33,0,0,1-.08,10.82,56.06,56.06,0,0,1-8.5,21.55c-.84,1.24-1.15,2.56-.85,2.67a.73.73,0,0,0,.91-.28c1-1.14,58-57.14,59.82-57.64a4.59,4.59,0,0,1,4.5,1.18,5,5,0,0,1,1.18,4.5c-.51,1.85-56.5,58.77-57.64,59.82a.73.73,0,0,0-.29.91c.12.3,1.44,0,2.68-.85a55.84,55.84,0,0,1,21.55-8.5,28.33,28.33,0,0,1,10.82-.08,14.38,14.38,0,0,1,4.37,1.57,7,7,0,0,1,3.52,4.87,5.74,5.74,0,0,1-3.45,6.3,3.52,3.52,0,0,1-3-.34,4,4,0,0,1-1.55-1.33,4.59,4.59,0,0,0-4.47-2,58.4,58.4,0,0,0-7.21.59c-5.32.85-16.85,3.44-17.13,4.14-.12.29.22.45.31.45,1.55,0,14,.24,18.3,2.24a15.27,15.27,0,0,1,9,11.87,5.27,5.27,0,0,1-2.95,5.54,3.59,3.59,0,0,1-4.54-1.32,10.12,10.12,0,0,1-.47-.93,17.32,17.32,0,0,0-9.73-8.1,22.89,22.89,0,0,0-13.77-1.18c-1.1.27-1.74,2.28-1.35,3.26.45,1.14,1.86,1.8,2.88,2.71a25.25,25.25,0,0,1,5.9,8.44,19.17,19.17,0,0,1,1.5,9.14c-.36,7.12-3.55,12.69-8.91,17.45-4.26,3.8-8.94,0-10.69-2.13a8,8,0,0,1-1.34-2.19,5.48,5.48,0,0,1,5-7.74,4.12,4.12,0,0,0,3.72-2.26,7.53,7.53,0,0,0,.27-7.46,13.67,13.67,0,0,0-3.77-4.89,30.45,30.45,0,0,0-3.41-2.36c-1.63-.95-3.6-1.49-4.95-2.74s-5.46-7.54-4.45-8.55,8.65.53,10.55-1.38c1.75-1.74-.52-6.53-2.78-9.34,0-.05-.52-.62-.57-.66-2.25-2.35-7.88-4.93-10.57-3.92-1.91.72,2.17-11-1.87-22.85a16.6,16.6,0,0,0-8.11-9.73c-.31-.16-.63-.29-.92-.47a3.6,3.6,0,0,1-1.32-4.54A5.26,5.26,0,0,1,231.11,88.57Z"/>
      </g>
      <path d="M245.94,142.68a1.34,1.34,0,0,0,.11.14h0Z"/>
    </g>
    <g>
      <path d="M610.78,753.32a15.26,15.26,0,0,1-11.88-9c-2-4.32-2.23-16.75-2.24-18.3,0-.09-.15-.43-.44-.31-.7.29-3.29,11.81-4.15,17.13a60.39,60.39,0,0,0-.58,7.21,4.55,4.55,0,0,0,2,4.47,4,4,0,0,1,1.33,1.56,3.46,3.46,0,0,1,.34,3,5.72,5.72,0,0,1-6.29,3.45A7,7,0,0,1,584,759a14.42,14.42,0,0,1-1.57-4.36,28.38,28.38,0,0,1,.08-10.83,56.06,56.06,0,0,1,8.5-21.55c.84-1.23,1.15-2.56.85-2.67s-.62,0-.91.28c-1.05,1.14-58,57.14-59.82,57.64a4.61,4.61,0,0,1-4.5-1.17,5.07,5.07,0,0,1-1.18-4.51C526,770,582,713,583.1,712a.73.73,0,0,0,.29-.91c-.12-.3-1.44,0-2.68.85a55.84,55.84,0,0,1-21.55,8.5,28.53,28.53,0,0,1-10.82.09,14.93,14.93,0,0,1-4.37-1.57,7,7,0,0,1-3.52-4.88,5.74,5.74,0,0,1,3.46-6.3,3.5,3.5,0,0,1,3,.34,4.05,4.05,0,0,1,1.56,1.34,4.58,4.58,0,0,0,4.46,2,58.56,58.56,0,0,0,7.22-.59c5.31-.85,16.84-3.44,17.12-4.14.12-.29-.21-.45-.31-.45-1.55,0-14-.24-18.3-2.23a15.27,15.27,0,0,1-9-11.88,5.26,5.26,0,0,1,2.94-5.53,3.59,3.59,0,0,1,4.54,1.31c.19.3.32.62.48.93a17.27,17.27,0,0,0,9.72,8.1,22.82,22.82,0,0,0,13.77,1.18c1.1-.27,1.74-2.28,1.35-3.26-.45-1.14-1.86-1.8-2.88-2.71a25.25,25.25,0,0,1-5.9-8.44,19.17,19.17,0,0,1-1.5-9.14c.36-7.12,3.56-12.69,8.91-17.45,4.26-3.8,8.94,0,10.69,2.13a7.73,7.73,0,0,1,1.34,2.19,5.48,5.48,0,0,1-5,7.74,4.12,4.12,0,0,0-3.72,2.26,7.55,7.55,0,0,0-.27,7.46,13.67,13.67,0,0,0,3.77,4.89,31.4,31.4,0,0,0,3.41,2.36c1.64.95,3.61,1.49,4.95,2.74s5.46,7.54,4.45,8.55-8.65-.52-10.55,1.38c-1.74,1.74.53,6.53,2.79,9.34,0,0,.51.62.56.66,2.26,2.35,7.88,4.93,10.57,3.92,1.91-.72-2.17,11,1.87,22.85a16.6,16.6,0,0,0,8.11,9.73c.31.16.63.29.92.47a3.6,3.6,0,0,1,1.32,4.54A5.26,5.26,0,0,1,610.78,753.32Z"/>
      <path d="M593.07,708.34a1.34,1.34,0,0,1-.11-.14h0A1.71,1.71,0,0,1,593.07,708.34Z"/>
      <g>
        <path d="M785.24,636a26.23,26.23,0,0,1-17.42-5.37,23.82,23.82,0,0,1-7.46-9.79,22.62,22.62,0,0,1,1.06-20,21.62,21.62,0,0,1,6.05-7,4.92,4.92,0,0,1,3.37-1.07,10.29,10.29,0,0,1,5.81,2,7.35,7.35,0,0,1,2.87,4.19A5.59,5.59,0,0,1,775.2,606a6.18,6.18,0,0,1-1.55.07,2.64,2.64,0,0,0-2.17,1.2,6.43,6.43,0,0,0-1.57,5.78,13.56,13.56,0,0,0,1.17,3.42,13.4,13.4,0,0,0,10.73,7.22,10.78,10.78,0,0,0,9-3.22,22.08,22.08,0,0,0,6.72-13.7,20.46,20.46,0,0,0-1.77-11.14,16,16,0,0,0-5.62-6.67,21.3,21.3,0,0,0-10.61-3.83,30,30,0,0,0-7.74.33,43.32,43.32,0,0,0-25.56,14.68,35.83,35.83,0,0,0-5.37,8.24c-2.77,5.77-34.09,94.84-56.89,118-18.26,18.54-61.52,29.38-73.18-9.37-1.14-3.78-.87-10.61-.1-15.74a44.23,44.23,0,0,1-5.26-4.51c-9.1-9.09-12.72-20.23-8.09-24.86,2.81-2.8,8-2.58,13.66,0a3.43,3.43,0,0,0,.09-.44,23,23,0,0,0-.52-9.76,17.32,17.32,0,0,0-7.24-9.79,23.2,23.2,0,0,0-14.86-3.59A37.73,37.73,0,0,0,574,652.3,44.08,44.08,0,0,0,563,660a42.11,42.11,0,0,0-8.4,11.12c-5,9.71-45.1,101.6-48.52,106.82-26.2,40.05-68.44,29-81.88,1.84-9.22-18.66,1.94-43,24.23-43.73a26.28,26.28,0,0,1,17.42,5.37,23.73,23.73,0,0,1,7.46,9.79,22.58,22.58,0,0,1-1.05,20,21.77,21.77,0,0,1-6.06,7,4.92,4.92,0,0,1-3.37,1.07,10.16,10.16,0,0,1-5.8-2,7.32,7.32,0,0,1-2.88-4.19,5.59,5.59,0,0,1,4.33-7.06A6.1,6.1,0,0,1,460,766a2.69,2.69,0,0,0,2.18-1.21,6.48,6.48,0,0,0,1.57-5.78,14.32,14.32,0,0,0-1.17-3.41,13.42,13.42,0,0,0-10.74-7.23,10.79,10.79,0,0,0-9,3.22,22.13,22.13,0,0,0-6.72,13.7,20.55,20.55,0,0,0,1.78,11.14,15.87,15.87,0,0,0,5.61,6.67A21.21,21.21,0,0,0,454.16,787a30,30,0,0,0,7.74-.33A43.24,43.24,0,0,0,487.46,772a36.14,36.14,0,0,0,5.38-8.23c2.76-5.78,34.08-94.84,56.89-118,18.25-18.54,61.51-29.38,73.18,9.37,1.72,5.72.21,18.43-1.37,21.68-.35.72-.63,1.31-.9,1.76.52.46,1,1,1.53,1.45,9.09,9.09,12.71,20.22,8.08,24.85-1.8,1.8-4.58,2.36-7.84,1.83a19.22,19.22,0,0,0,.71,3.69,17.32,17.32,0,0,0,7.24,9.79,23.22,23.22,0,0,0,14.86,3.6,37.93,37.93,0,0,0,14.43-4,44.08,44.08,0,0,0,11-7.68,42.11,42.11,0,0,0,8.4-11.12c5-9.7,45.11-101.6,48.52-106.81,26.2-40.06,68.44-29,81.88-1.85C818.69,611,807.54,635.29,785.24,636Z"/>
        <path d="M622.89,618.75a15.27,15.27,0,0,1,11.87,9c2,4.32,2.23,16.75,2.24,18.3,0,.09.15.43.45.31.7-.28,3.29-11.81,4.14-17.13a58.4,58.4,0,0,0,.59-7.21,4.58,4.58,0,0,0-2-4.47,4,4,0,0,1-1.33-1.55,3.52,3.52,0,0,1-.34-3,5.73,5.73,0,0,1,6.3-3.45,7,7,0,0,1,4.87,3.52,14.67,14.67,0,0,1,1.58,4.37,28.53,28.53,0,0,1-.09,10.82,55.9,55.9,0,0,1-8.5,21.55c-.84,1.24-1.15,2.56-.85,2.68s.63,0,.91-.29c1-1.14,58-57.13,59.82-57.64a4.61,4.61,0,0,1,4.51,1.18,5.07,5.07,0,0,1,1.17,4.5c-.5,1.85-56.5,58.77-57.64,59.82a.73.73,0,0,0-.28.91c.11.3,1.43,0,2.67-.85a56,56,0,0,1,21.55-8.5,28.33,28.33,0,0,1,10.82-.08,14.38,14.38,0,0,1,4.37,1.57,7,7,0,0,1,3.52,4.87,5.73,5.73,0,0,1-3.45,6.3,3.49,3.49,0,0,1-3-.34,4.11,4.11,0,0,1-1.56-1.33,4.58,4.58,0,0,0-4.47-2,60.41,60.41,0,0,0-7.21.59c-5.32.85-16.85,3.44-17.13,4.14-.12.29.22.45.31.45,1.55,0,14,.24,18.3,2.24a15.3,15.3,0,0,1,9,11.87,5.27,5.27,0,0,1-2.95,5.54,3.6,3.6,0,0,1-4.54-1.32c-.18-.29-.31-.61-.47-.92a17.27,17.27,0,0,0-9.73-8.11,22.86,22.86,0,0,0-13.76-1.18c-1.11.28-1.74,2.28-1.35,3.26.44,1.14,1.85,1.8,2.87,2.72a25,25,0,0,1,5.9,8.44,19,19,0,0,1,1.51,9.13c-.36,7.12-3.56,12.69-8.91,17.45-4.27,3.8-8.94,0-10.7-2.13a7.93,7.93,0,0,1-1.33-2.19,5.48,5.48,0,0,1,4.95-7.74,4.11,4.11,0,0,0,3.72-2.26,7.53,7.53,0,0,0,.28-7.46,13.58,13.58,0,0,0-3.78-4.89,29.56,29.56,0,0,0-3.41-2.36c-1.63-1-3.6-1.49-4.94-2.73s-5.47-7.55-4.46-8.55,8.65.52,10.55-1.39c1.75-1.73-.52-6.52-2.78-9.34,0,0-.52-.62-.57-.66-2.25-2.35-7.88-4.92-10.57-3.91-1.9.71,2.17-11-1.87-22.86a16.62,16.62,0,0,0-8.1-9.73c-.31-.16-.64-.29-.93-.47a3.6,3.6,0,0,1-1.32-4.54A5.27,5.27,0,0,1,622.89,618.75Z"/>
      </g>
      <path d="M637.71,672.87l.11.13h0A.71.71,0,0,0,637.71,672.87Z"/>
    </g>
  </g>
</svg>
