<svg id="Livello_1" data-name="Livello 1" xmlns="http://www.w3.org/2000/svg" viewBox="0 0 841.89 841.89">
  <title>Glos</title>
  <g>
    <path d="M184.94,139.21c0,18.71-11.56,28-26.74,27.91-9.47-.1-16.13-1.56-23-2.31v.1h-.07c.74,6.92,2.19,13.58,2.28,23,.14,15.19-9.72,26.77-27.91,26.74-18.72,0-28-11.55-27.91-26.74.09-9.46,1.56-16.12,2.3-23h-.09v-.1c-6.92.75-13.58,2.21-23,2.31-15.19.13-26.77-9.2-26.74-27.91,0-18.19,11.55-28.05,26.74-27.91,9.46.09,16.12,1.53,23,2.28v-.07h.09c-.74-6.92-2.21-13.59-2.3-23.05-.13-15.18,9.19-26.75,27.91-26.74,18.19,0,28.05,11.56,27.91,26.74-.09,9.46-1.54,16.13-2.28,23.05h.07v.07c6.92-.75,13.58-2.19,23-2.28C173.38,111.16,185,121,184.94,139.21Z"/>
    <path d="M392.6,139.21c0,18.71-11.56,28-26.74,27.91-9.46-.1-16.13-1.56-23.05-2.31v.1h-.07c.74,6.92,2.19,13.58,2.28,23,.14,15.19-9.72,26.77-27.91,26.74-18.71,0-28-11.55-27.91-26.74.1-9.46,1.56-16.12,2.31-23h-.1v-.1c-6.92.75-13.58,2.21-23,2.31-15.19.13-26.77-9.2-26.74-27.91,0-18.19,11.55-28.05,26.74-27.91,9.46.09,16.12,1.53,23,2.28v-.07h.1c-.75-6.92-2.21-13.59-2.31-23.05-.13-15.18,9.2-26.75,27.91-26.74,18.19,0,28.05,11.56,27.91,26.74-.09,9.46-1.54,16.13-2.28,23.05h.07v.07c6.92-.75,13.59-2.19,23.05-2.28C381,111.16,392.63,121,392.6,139.21Z"/>
    <path d="M600.26,139.21c0,18.71-11.55,28-26.74,27.91-9.46-.1-16.12-1.56-23-2.31v.1h-.08c.75,6.92,2.19,13.58,2.29,23,.13,15.19-9.73,26.77-27.91,26.74-18.72,0-28-11.55-27.91-26.74.09-9.46,1.55-16.12,2.3-23h-.09v-.1c-6.92.75-13.59,2.21-23.05,2.31-15.18.13-26.77-9.2-26.74-27.91,0-18.19,11.56-28.05,26.74-27.91,9.46.09,16.13,1.53,23.05,2.28v-.07h.09c-.75-6.92-2.21-13.59-2.3-23.05-.14-15.18,9.19-26.75,27.91-26.74,18.18,0,28,11.56,27.91,26.74-.1,9.46-1.54,16.13-2.29,23.05h.08v.07c6.92-.75,13.58-2.19,23-2.28C588.71,111.16,600.29,121,600.26,139.21Z"/>
    <path d="M807.92,139.21c0,18.71-11.55,28-26.74,27.91-9.46-.1-16.12-1.56-23-2.31v.1h-.08c.75,6.92,2.2,13.58,2.29,23,.13,15.19-9.73,26.77-27.91,26.74-18.72,0-28.05-11.55-27.91-26.74.09-9.46,1.55-16.12,2.3-23h-.09v-.1c-6.92.75-13.58,2.21-23,2.31-15.18.13-26.77-9.2-26.74-27.91,0-18.19,11.56-28.05,26.74-27.91,9.47.09,16.13,1.53,23,2.28v-.07h.09c-.75-6.92-2.21-13.59-2.3-23.05-.14-15.18,9.19-26.75,27.91-26.74,18.18,0,28,11.56,27.91,26.74-.09,9.46-1.54,16.13-2.29,23.05h.08v.07c6.92-.75,13.58-2.19,23-2.28C796.37,111.16,808,121,807.92,139.21Z"/>
    <path d="M184.94,324c0,18.72-11.56,28-26.74,27.91-9.47-.09-16.13-1.55-23-2.3v.09h-.07c.74,6.92,2.19,13.59,2.28,23.05.14,15.18-9.72,26.77-27.91,26.74-18.72,0-28-11.56-27.91-26.74.09-9.46,1.56-16.13,2.3-23.05h-.09v-.09c-6.92.75-13.58,2.21-23,2.3C45.52,352.09,33.94,342.76,34,324c0-18.18,11.55-28,26.74-27.91,9.46.09,16.12,1.54,23,2.29v-.08h.09c-.74-6.92-2.21-13.58-2.3-23-.13-15.19,9.19-26.76,27.91-26.74,18.19,0,28.05,11.55,27.91,26.74-.09,9.46-1.54,16.12-2.28,23h.07v.08c6.92-.75,13.58-2.2,23-2.29C173.38,296,185,305.86,184.94,324Z"/>
    <path d="M392.6,324c0,18.72-11.56,28-26.74,27.91-9.46-.09-16.13-1.55-23.05-2.3v.09h-.07c.74,6.92,2.19,13.59,2.28,23.05.14,15.18-9.72,26.77-27.91,26.74-18.71,0-28-11.56-27.91-26.74.1-9.46,1.56-16.13,2.31-23.05h-.1v-.09c-6.92.75-13.58,2.21-23,2.3-15.19.14-26.77-9.19-26.74-27.91,0-18.18,11.55-28,26.74-27.91,9.46.09,16.12,1.54,23,2.29v-.08h.1c-.75-6.92-2.21-13.58-2.31-23-.13-15.19,9.2-26.76,27.91-26.74,18.19,0,28.05,11.55,27.91,26.74-.09,9.46-1.54,16.12-2.28,23h.07v.08c6.92-.75,13.59-2.2,23.05-2.29C381,296,392.63,305.86,392.6,324Z"/>
    <path d="M600.26,324c0,18.72-11.55,28-26.74,27.91-9.46-.09-16.12-1.55-23-2.3v.09h-.08c.75,6.92,2.19,13.59,2.29,23.05.13,15.18-9.73,26.77-27.91,26.74-18.72,0-28-11.56-27.91-26.74.09-9.46,1.55-16.13,2.3-23.05h-.09v-.09c-6.92.75-13.59,2.21-23.05,2.3-15.18.14-26.77-9.19-26.74-27.91,0-18.18,11.56-28,26.74-27.91,9.46.09,16.13,1.54,23.05,2.29v-.08h.09c-.75-6.92-2.21-13.58-2.3-23-.14-15.19,9.19-26.76,27.91-26.74,18.18,0,28,11.55,27.91,26.74-.1,9.46-1.54,16.12-2.29,23h.08v.08c6.92-.75,13.58-2.2,23-2.29C588.71,296,600.29,305.86,600.26,324Z"/>
    <path d="M807.92,324c0,18.72-11.55,28-26.74,27.91-9.46-.09-16.12-1.55-23-2.3v.09h-.08c.75,6.92,2.2,13.59,2.29,23.05.13,15.18-9.73,26.77-27.91,26.74-18.72,0-28.05-11.56-27.91-26.74.09-9.46,1.55-16.13,2.3-23.05h-.09v-.09c-6.92.75-13.58,2.21-23,2.3-15.18.14-26.77-9.19-26.74-27.91,0-18.18,11.56-28,26.74-27.91,9.47.09,16.13,1.54,23,2.29v-.08h.09c-.75-6.92-2.21-13.58-2.3-23-.14-15.19,9.19-26.76,27.91-26.74,18.18,0,28,11.55,27.91,26.74-.09,9.46-1.54,16.12-2.29,23h.08v.08c6.92-.75,13.58-2.2,23-2.29C796.37,296,808,305.86,807.92,324Z"/>
    <path d="M184.94,508.88c0,18.72-11.56,28-26.74,27.91-9.47-.09-16.13-1.55-23-2.3v.09h-.07c.74,6.92,2.19,13.58,2.28,23,.14,15.18-9.72,26.77-27.91,26.74-18.72,0-28-11.56-27.91-26.74.09-9.47,1.56-16.13,2.3-23h-.09v-.09c-6.92.75-13.58,2.21-23,2.3-15.19.14-26.77-9.19-26.74-27.91,0-18.18,11.55-28.05,26.74-27.91,9.46.09,16.12,1.54,23,2.29v-.08h.09c-.74-6.92-2.21-13.58-2.3-23.05-.13-15.18,9.19-26.75,27.91-26.73,18.19,0,28.05,11.55,27.91,26.73-.09,9.47-1.54,16.13-2.28,23.05h.07v.08c6.92-.75,13.58-2.2,23-2.29C173.38,480.83,185,490.7,184.94,508.88Z"/>
    <path d="M392.6,508.88c0,18.72-11.56,28-26.74,27.91-9.46-.09-16.13-1.55-23.05-2.3v.09h-.07c.74,6.92,2.19,13.58,2.28,23,.14,15.18-9.72,26.77-27.91,26.74-18.71,0-28-11.56-27.91-26.74.1-9.47,1.56-16.13,2.31-23h-.1v-.09c-6.92.75-13.58,2.21-23,2.3-15.19.14-26.77-9.19-26.74-27.91,0-18.18,11.55-28.05,26.74-27.91,9.46.09,16.12,1.54,23,2.29v-.08h.1c-.75-6.92-2.21-13.58-2.31-23.05-.13-15.18,9.2-26.75,27.91-26.73,18.19,0,28.05,11.55,27.91,26.73-.09,9.47-1.54,16.13-2.28,23.05h.07v.08c6.92-.75,13.59-2.2,23.05-2.29C381,480.83,392.63,490.7,392.6,508.88Z"/>
    <path d="M600.26,508.88c0,18.72-11.55,28-26.74,27.91-9.46-.09-16.12-1.55-23-2.3v.09h-.08c.75,6.92,2.19,13.58,2.29,23,.13,15.18-9.73,26.77-27.91,26.74-18.72,0-28-11.56-27.91-26.74.09-9.47,1.55-16.13,2.3-23h-.09v-.09c-6.92.75-13.59,2.21-23.05,2.3-15.18.14-26.77-9.19-26.74-27.91,0-18.18,11.56-28.05,26.74-27.91,9.46.09,16.13,1.54,23.05,2.29v-.08h.09c-.75-6.92-2.21-13.58-2.3-23.05-.14-15.18,9.19-26.75,27.91-26.73,18.18,0,28,11.55,27.91,26.73-.1,9.47-1.54,16.13-2.29,23.05h.08v.08c6.92-.75,13.58-2.2,23-2.29C588.71,480.83,600.29,490.7,600.26,508.88Z"/>
    <path d="M807.92,508.88c0,18.72-11.55,28-26.74,27.91-9.46-.09-16.12-1.55-23-2.3v.09h-.08c.75,6.92,2.2,13.58,2.29,23,.13,15.18-9.73,26.77-27.91,26.74-18.72,0-28.05-11.56-27.91-26.74.09-9.47,1.55-16.13,2.3-23h-.09v-.09c-6.92.75-13.58,2.21-23,2.3-15.18.14-26.77-9.19-26.74-27.91,0-18.18,11.56-28.05,26.74-27.91,9.47.09,16.13,1.54,23,2.29v-.08h.09c-.75-6.92-2.21-13.58-2.3-23.05-.14-15.18,9.19-26.75,27.91-26.73,18.18,0,28,11.55,27.91,26.73-.09,9.47-1.54,16.13-2.29,23.05h.08v.08c6.92-.75,13.58-2.2,23-2.29C796.37,480.83,808,490.7,807.92,508.88Z"/>
    <path d="M184.94,702.68c0,18.72-11.56,28.05-26.74,27.91-9.47-.09-16.13-1.55-23-2.3v.09h-.07c.74,6.92,2.19,13.59,2.28,23,.14,15.18-9.72,26.77-27.91,26.74-18.72,0-28-11.56-27.91-26.74.09-9.46,1.56-16.13,2.3-23h-.09v-.09c-6.92.75-13.58,2.21-23,2.3-15.19.14-26.77-9.19-26.74-27.91,0-18.18,11.55-28,26.74-27.91,9.46.1,16.12,1.54,23,2.29V677h.09c-.74-6.92-2.21-13.58-2.3-23-.13-15.19,9.19-26.76,27.91-26.74,18.19,0,28.05,11.55,27.91,26.74-.09,9.46-1.54,16.12-2.28,23h.07v.08c6.92-.75,13.58-2.19,23-2.29C173.38,674.64,185,684.5,184.94,702.68Z"/>
    <path d="M392.6,702.68c0,18.72-11.56,28.05-26.74,27.91-9.46-.09-16.13-1.55-23.05-2.3v.09h-.07c.74,6.92,2.19,13.59,2.28,23,.14,15.18-9.72,26.77-27.91,26.74-18.71,0-28-11.56-27.91-26.74.1-9.46,1.56-16.13,2.31-23h-.1v-.09c-6.92.75-13.58,2.21-23,2.3-15.19.14-26.77-9.19-26.74-27.91,0-18.18,11.55-28,26.74-27.91,9.46.1,16.12,1.54,23,2.29V677h.1c-.75-6.92-2.21-13.58-2.31-23-.13-15.19,9.2-26.76,27.91-26.74,18.19,0,28.05,11.55,27.91,26.74-.09,9.46-1.54,16.12-2.28,23h.07v.08c6.92-.75,13.59-2.19,23.05-2.29C381,674.64,392.63,684.5,392.6,702.68Z"/>
    <path d="M600.26,702.68c0,18.72-11.55,28.05-26.74,27.91-9.46-.09-16.12-1.55-23-2.3v.09h-.08c.75,6.92,2.19,13.59,2.29,23,.13,15.18-9.73,26.77-27.91,26.74-18.72,0-28-11.56-27.91-26.74.09-9.46,1.55-16.13,2.3-23h-.09v-.09c-6.92.75-13.59,2.21-23.05,2.3-15.18.14-26.77-9.19-26.74-27.91,0-18.18,11.56-28,26.74-27.91,9.46.1,16.13,1.54,23.05,2.29V677h.09c-.75-6.92-2.21-13.58-2.3-23-.14-15.19,9.19-26.76,27.91-26.74,18.18,0,28,11.55,27.91,26.74-.1,9.46-1.54,16.12-2.29,23h.08v.08c6.92-.75,13.58-2.19,23-2.29C588.71,674.64,600.29,684.5,600.26,702.68Z"/>
    <path d="M807.92,702.68c0,18.72-11.55,28.05-26.74,27.91-9.46-.09-16.12-1.55-23-2.3v.09h-.08c.75,6.92,2.2,13.59,2.29,23,.13,15.18-9.73,26.77-27.91,26.74-18.72,0-28.05-11.56-27.91-26.74.09-9.46,1.55-16.13,2.3-23h-.09v-.09c-6.92.75-13.58,2.21-23,2.3-15.18.14-26.77-9.19-26.74-27.91,0-18.18,11.56-28,26.74-27.91,9.47.1,16.13,1.54,23,2.29V677h.09c-.75-6.92-2.21-13.58-2.3-23-.14-15.19,9.19-26.76,27.91-26.74,18.18,0,28,11.55,27.91,26.74-.09,9.46-1.54,16.12-2.29,23h.08v.08c6.92-.75,13.58-2.19,23-2.29C796.37,674.64,808,684.5,807.92,702.68Z"/>
  </g>
</svg>
