<svg id="Livello_1" data-name="Livello 1" xmlns="http://www.w3.org/2000/svg" viewBox="0 0 841.89 841.89">
  <title>Glos</title>
  <path d="M824.65,409.71c-19.07-8.56-19.71-26.58-20.93-42.5-1.21-17-5.41-31.6-14.62-45.9-15.27-23.6-15.52-54.95-7.44-93.09,3-14.54-8.32-22.79-20.68-14.3-14.47,9.94-31.52,19.63-38.06,9.94-12-17.7-45.17-16-57.13,4.93-8.65,15.19-18.1,31.35-36.28,33-8,.72-13.5,9.05-11.24,18.1,4.29,17.77-34.1,44.6-67.55,11.55v-.24h-.24c-33.05-33.45-6.22-71.84,11.55-67.55,9.05,2.18,17.38-3.24,18.1-11.24,1.54-18.18,17.7-27.63,33-36.28,20.93-12,22.63-45.17,4.93-57.13-9.7-6.54,0-23.59,9.94-38.06,8.48-12.36.16-23.68-14.3-20.68-38.22,8-69.5,7.83-93.09-7.44-14.3-9.21-28.93-13.41-46-14.71-15.84-1.13-33.86-1.77-42.42-20.84-1.13-2.51-4.69-3.88-11.24-3.88s-10.1,1.37-11.23,3.88c-8.56,19.07-26.58,19.71-42.5,20.84-17,1.3-31.6,5.5-45.9,14.71-23.59,15.27-54.95,15.44-93.17,7.44-14.46-3-22.71,8.32-14.3,20.68,10,14.47,19.71,31.52,10,38.06-17.7,12-16.08,45.17,4.93,57.13,15.19,8.65,31.35,18.1,33,36.28.72,8,9.05,13.42,18.1,11.24,17.77-4.29,44.6,34.1,11.55,67.55h-.24v.24c-33.45,33-71.84,6.22-67.55-11.55,2.18-9.05-3.24-17.38-11.24-18.1-18.18-1.62-27.63-17.78-36.28-33-12-20.93-45.17-22.63-57.21-4.93-6.47,9.69-23.51,0-38-9.94-12.36-8.49-23.67-.24-20.69,14.3,8,38.14,7.84,69.49-7.43,93.09-9.21,14.3-13.41,28.93-14.71,45.9-1.13,15.92-1.86,33.94-20.84,42.5-2.51,1.13-3.88,4.69-3.88,11.23s1.37,10.11,3.88,11.24c19,8.56,19.71,26.58,20.84,42.5,1.3,17,5.5,31.6,14.71,45.9,15.27,23.59,15.43,54.95,7.43,93.09-3,14.54,8.33,22.79,20.69,14.3,14.47-9.94,31.51-19.64,38-9.94,12,17.7,45.25,16,57.21-4.93,8.65-15.19,18.1-31.35,36.28-33,8-.72,13.42-9,11.24-18.1-4.29-17.77,34.1-44.6,67.55-11.55v.24h.24c33,33.45,6.22,71.84-11.55,67.55-9.05-2.18-17.38,3.24-18.1,11.24-1.62,18.18-17.78,27.63-33,36.28-21,12-22.63,45.17-4.93,57.13,9.69,6.54,0,23.59-10,38.06-8.41,12.36-.16,23.67,14.3,20.69,38.22-8,69.58-7.84,93.17,7.43,14.3,9.21,28.93,13.41,45.9,14.71,15.92,1.13,33.94,1.77,42.5,20.84,1.13,2.51,4.69,3.88,11.23,3.88s10.11-1.37,11.24-3.88c8.56-19.07,26.58-19.71,42.42-20.84,17-1.3,31.68-5.5,46-14.71,23.59-15.27,54.87-15.43,93.09-7.43,14.46,3,22.78-8.33,14.3-20.69-9.94-14.47-19.64-31.52-9.94-38.06,17.7-12,16-45.17-4.93-57.13-15.27-8.65-31.43-18.1-33-36.28-.72-8-9-13.42-18.1-11.24-17.77,4.29-44.6-34.1-11.55-67.55h.24v-.24c33.45-33.05,71.84-6.22,67.55,11.55-2.26,9.05,3.24,17.38,11.24,18.1,18.18,1.62,27.63,17.78,36.28,33,12,20.93,45.17,22.63,57.13,4.93,6.54-9.7,23.59,0,38.06,9.94,12.36,8.49,23.67.24,20.68-14.3-8.08-38.14-7.83-69.5,7.44-93.09,9.21-14.3,13.41-28.93,14.62-45.9,1.22-15.92,1.86-33.94,20.93-42.5,2.51-1.13,3.88-4.69,3.88-11.24S827.16,410.84,824.65,409.71ZM420.94,548.3A127.4,127.4,0,1,1,548.3,420.94,127.41,127.41,0,0,1,420.94,548.3Z"/>
</svg>
