<svg id="Livello_1" data-name="Livello 1" xmlns="http://www.w3.org/2000/svg" viewBox="0 0 841.89 841.89">
  <defs>
    <style>
      .cls-1 {
        fill: #231f20;
      }
    </style>
  </defs>
  <title>Glos</title>
  <g>
    <path class="cls-1" d="M275.91,362.31c-30.24-.27-55.14,16.22-55.14,16.22S195.88,362,165.64,362.31C43.32,363.45,61.7,267.24,119.75,249.43c0,0-29-76.7,61.92-93.14,0,0-30-14.18-1.93-42.25,20.31-20.31,39.48-69.35,41-73.86,1.56,4.51,20.73,53.55,41,73.86,28.08,28.07-1.93,42.25-1.93,42.25,90.94,16.44,61.92,93.14,61.92,93.14C379.85,267.24,398.23,363.45,275.91,362.31Z"/>
    <path class="cls-1" d="M676.25,362.31c-30.24-.27-55.13,16.22-55.13,16.22S596.22,362,566,362.31C443.66,363.45,462,267.24,520.09,249.43c0,0-29-76.7,61.92-93.14,0,0-30-14.18-1.93-42.25,20.31-20.31,39.48-69.35,41-73.86,1.55,4.51,20.72,53.55,41,73.86,28.08,28.07-1.93,42.25-1.93,42.25,90.94,16.44,61.92,93.14,61.92,93.14C780.19,267.24,798.57,363.45,676.25,362.31Z"/>
  </g>
  <g>
    <path class="cls-1" d="M275.91,447.55c-30.24.26-55.14-16.22-55.14-16.22s-24.89,16.48-55.13,16.22C43.32,446.41,61.7,542.62,119.75,560.43c0,0-29,76.7,61.92,93.14,0,0-30,14.17-1.93,42.25,20.31,20.31,39.48,69.34,41,73.85,1.56-4.51,20.73-53.54,41-73.85,28.08-28.08-1.93-42.25-1.93-42.25,90.94-16.44,61.92-93.14,61.92-93.14C379.85,542.62,398.23,446.41,275.91,447.55Z"/>
    <path class="cls-1" d="M676.25,447.55c-30.24.26-55.13-16.22-55.13-16.22s-24.9,16.48-55.14,16.22C443.66,446.41,462,542.62,520.09,560.43c0,0-29,76.7,61.92,93.14,0,0-30,14.17-1.93,42.25,20.31,20.31,39.48,69.34,41,73.85,1.55-4.51,20.72-53.54,41-73.85,28.08-28.08-1.93-42.25-1.93-42.25,90.94-16.44,61.92-93.14,61.92-93.14C780.19,542.62,798.57,446.41,676.25,447.55Z"/>
  </g>
</svg>
