<svg id="Livello_1" data-name="Livello 1" xmlns="http://www.w3.org/2000/svg" viewBox="0 0 841.89 841.89">
  <defs>
    <style>
      .cls-1 {
        fill: #231f20;
      }
    </style>
  </defs>
  <title>Glos</title>
  <path class="cls-1" d="M716.38,416.2a123.87,123.87,0,0,0-51.23-167.28A125.64,125.64,0,0,0,510.67,137.56a123.81,123.81,0,0,0-174.94-3,121.74,121.74,0,0,0-28.43-3.29A125.51,125.51,0,0,0,182.05,247a123.85,123.85,0,0,0-57,165.37,125.94,125.94,0,0,0,59.56,181A123.81,123.81,0,0,0,324.33,698.64h.07A121.55,121.55,0,0,0,345.45,718a125.54,125.54,0,0,0,169.31-20A124,124,0,0,0,658.14,597.57a121,121,0,0,0,24.92-14A125.71,125.71,0,0,0,716.38,416.2ZM207,503.08a124,124,0,0,0-23.68,71,108.76,108.76,0,0,1-54-130.36,93,93,0,0,1,5.84-14.25,123.59,123.59,0,0,0,91.42,52.32A123.66,123.66,0,0,0,207,503.08Zm90.76-279.29a123.49,123.49,0,0,0,3.36,28.64,123.95,123.95,0,0,0-101.21-12.57A108.76,108.76,0,0,1,307.3,148.23a106.27,106.27,0,0,1,15.35,1.09A123.18,123.18,0,0,0,297.73,223.79Zm57.65,480.54a101.65,101.65,0,0,1-11.76-9.93,122.8,122.8,0,0,0,63.94-45.6,125.93,125.93,0,0,0,14.1-25.14,126.83,126.83,0,0,0,14.18,25.14,122.16,122.16,0,0,0,60.29,44.43A108.68,108.68,0,0,1,355.38,704.33Zm213.17-464a124.05,124.05,0,0,0-26.24,12.06,123.6,123.6,0,0,0-19.36-100A108.51,108.51,0,0,1,643.3,226.12,101.26,101.26,0,0,1,647,241,123,123,0,0,0,568.55,240.37ZM673.12,569.8A103.64,103.64,0,0,1,660,578a123,123,0,0,0-23.61-74.91,126.14,126.14,0,0,0-19.51-21.26,123.5,123.5,0,0,0,89.23-49.33A108.76,108.76,0,0,1,673.12,569.8Z"/>
</svg>
