<svg id="Livello_1" data-name="Livello 1" xmlns="http://www.w3.org/2000/svg" viewBox="0 0 841.89 841.89">
  <defs>
    <style>
      .cls-1 {
        fill: #231f20;
      }
    </style>
  </defs>
  <title>Glos</title>
  <g>
    <path class="cls-1" d="M64.29,338.57s30.6,2.8,32.65,88.76c0,0,93.59-129.59,47.82-179.48S66,246.26,64.18,183.4c0,0,117.78-18.19,154.59,95.19S48.33,554.65,167.51,611.51c70.15,33.46,91-57.06,29.1-57.21,0,0,48,23.61,16.9,50-23.95,20.31-90-54.2-24.84-89.69,50.31-27.4,96,7.08,105.82,35.79,40,116.49-172.94,185.53-239.39,48.1C-1.69,481,99.7,456,64.29,338.57Z"/>
    <path class="cls-1" d="M466.13,367.75s26.08,3.81,26.19,28.74c.1,26.2-31.44,30.53-31.44,30.53,126.46-1.27,25.57,97.51,63.89,183.5,55.29,124,207.94,74,245.65,77.54,29.21,2.74,18.8,51.45,18.8,51.45H52.67s-10.51-48.71,18.8-51.45c37.71-3.59,190.36,46.48,245.55-77.54,38.42-86-62.57-184.77,63.89-183.5,0,0-31.44-4.33-31.33-30.53.1-24.93,26.08-28.74,26.08-28.74s18.5-94.44-122.22-173.56C141.53,131.33,34,204.75,34,102.49l387-.11,387,.11c0,102.26-107.66,28.84-219.57,91.7C447.63,273.31,466.13,367.75,466.13,367.75Z"/>
    <path class="cls-1" d="M777.56,338.57s-30.6,2.8-32.65,88.76c0,0-93.59-129.59-47.82-179.48s78.81-1.59,80.57-64.45c0,0-117.77-18.19-154.58,95.19s170.44,276.06,51.26,332.92c-70.15,33.46-91-57.06-29.1-57.21,0,0-48,23.61-16.9,50,23.95,20.31,90-54.2,24.84-89.69-50.31-27.4-96,7.08-105.82,35.79-40,116.49,172.94,185.53,239.39,48.1C843.53,481,742.15,456,777.56,338.57Z"/>
  </g>
</svg>
