<svg id="Livello_1" data-name="Livello 1" xmlns="http://www.w3.org/2000/svg" viewBox="0 0 841.89 841.89">
  <defs>
    <style>
      .cls-1 {
        fill: #231f20;
      }
    </style>
  </defs>
  <title>Glos</title>
  <path class="cls-1" d="M644.67,310.75H642.4V196.31H528a110.2,110.2,0,0,0-220.4,0H193.28V310.82a110.16,110.16,0,0,0,0,220.18V645.51H307.64a110.2,110.2,0,1,0,220.4,0H642.4V531.07h2.27a110.16,110.16,0,1,0,0-220.32Zm-136.8,153H507V508.2H462.56a42.82,42.82,0,1,1-85.64,0H332.49V463.69a42.81,42.81,0,0,1,0-85.57v-44.5h44.43a42.82,42.82,0,0,1,85.64,0H507v44.5h.88a42.83,42.83,0,0,1,0,85.65Z"/>
</svg>
