<svg id="Livello_1" data-name="Livello 1" xmlns="http://www.w3.org/2000/svg" viewBox="0 0 841.89 841.89">
  <title>Glos</title>
  <g>
    <path d="M445.69,346.15S523,335.62,522,408.57c-.6,6-24-15.21-49.23-10.85-14.05.6-14.44-6.19-14.44-6.19s-1,17.64-16.07,18.85-13.24-4-21.29-3.65c-8-.31-6.21,4.85-21.28,3.65s-16-18.85-16-18.85-.4,6.79-14.47,6.19c-25.22-4.36-48.63,16.82-49.2,10.85-1.1-72.95,76.25-62.42,76.25-62.42-10.46-6.55-14.44-43.48-29.07-49.54s-33.4-11.35-37.72-33.45-27.13-14.54-18.19-17.72c62.65-19.92,75.57,38.64,75.39,36.28s6.37-37.12-19-47c-43.28-12.5-31-34.36-35.83-42.78s-22.62-6.29-15.68-9.91c52.69-21.23,75.26,29,75.26,29s-1-34.29-15.28-41.18C346,167,338.82,139.91,337,130.5s-25.74-13.58-16.8-15.41c70.77-14.58,79.95,62,79.95,62L391.3,307.78c-2.83,43.62,29.64,43,29.64,43s32.51.58,29.68-43l-8.81-130.73s9.15-76.54,79.95-62c8.91,1.83-15,6-16.83,15.41s-9.07,36.46-39.11,39.32C451.54,176.71,450.54,211,450.54,211s22.57-50.2,75.26-29c6.94,3.62-10.86,1.5-15.68,9.91s7.45,30.28-35.83,42.78c-25.38,9.88-18.82,44.64-19,47s12.74-56.2,75.39-36.28c8.94,3.18-13.86-4.37-18.19,17.72s-23.07,27.42-37.69,33.45S456.18,339.6,445.69,346.15Z"/>
    <path d="M434.75,117.12c-4,10.09,8.42,143,10.44,190.67.47,11,.18,34.65-24.25,36.8-24.43-2.15-24.72-25.79-24.25-36.8,2.05-47.68,14.39-180.58,10.46-190.67-15.54-42.23-45.58-29.39-27.26-37.2s29,17.38,30.54,13.63,4.11-.92,1.67-11.85c-12.58-23,8.84-37.93,8.84-37.93s21.44,14.94,8.83,37.93c-2.44,10.93.13,8.08,1.71,11.85S443.69,72.11,462,79.92,450.3,74.89,434.75,117.12Z"/>
  </g>
  <g>
    <path d="M445.69,495.74S523,506.27,522,433.32c-.6-6-24,15.21-49.23,10.85-14.05-.6-14.44,6.19-14.44,6.19s-1-17.64-16.07-18.85-13.24,4-21.29,3.65c-8,.31-6.21-4.85-21.28-3.65s-16,18.85-16,18.85-.4-6.79-14.47-6.19c-25.22,4.36-48.63-16.82-49.2-10.85-1.1,72.95,76.25,62.42,76.25,62.42-10.46,6.55-14.44,43.48-29.07,49.54s-33.4,11.35-37.72,33.45-27.13,14.54-18.19,17.72c62.65,19.92,75.57-38.64,75.39-36.28s6.37,37.11-19,47c-43.28,12.5-31,34.36-35.83,42.78s-22.62,6.29-15.68,9.91c52.69,21.23,75.26-29,75.26-29s-1,34.29-15.28,41.18C346,674.93,338.82,702,337,711.39S311.22,725,320.16,726.8c70.77,14.58,79.95-62,79.95-62L391.3,534.11c-2.83-43.62,29.64-43,29.64-43s32.51-.58,29.68,43l-8.81,130.73s9.15,76.54,79.95,62c8.91-1.83-15-6-16.83-15.41s-9.07-36.46-39.11-39.32c-14.28-6.89-15.28-41.18-15.28-41.18s22.57,50.2,75.26,29c6.94-3.62-10.86-1.5-15.68-9.91s7.45-30.28-35.83-42.78c-25.38-9.89-18.82-44.64-19-47s12.74,56.2,75.39,36.28c8.94-3.18-13.86,4.37-18.19-17.72s-23.07-27.42-37.69-33.45S456.18,502.29,445.69,495.74Z"/>
    <path d="M434.75,724.77c-4-10.09,8.42-143,10.44-190.67.47-11,.18-34.65-24.25-36.8-24.43,2.15-24.72,25.79-24.25,36.8,2.05,47.68,14.39,180.58,10.46,190.67C391.61,767,361.57,754.16,379.89,762s29-17.38,30.54-13.63,4.11.92,1.67,11.85c-12.58,23,8.84,37.93,8.84,37.93s21.44-14.94,8.83-37.93c-2.44-10.93.13-8.08,1.71-11.85S443.69,769.78,462,762,450.3,767,434.75,724.77Z"/>
  </g>
</svg>
