<svg id="Livello_1" data-name="Livello 1" xmlns="http://www.w3.org/2000/svg" viewBox="0 0 841.89 841.89">
  <defs>
    <style>
      .cls-1 {
        fill: #231f20;
      }
    </style>
  </defs>
  <title>Glos</title>
  <g>
    <path class="cls-1" d="M405.83,286.46l.07.1.05,0Zm-41.05-58.55,0,.05.09,0Zm0,0,0,0,.07-.1Zm41.14-63.42,0,.09.1-.07Z"/>
    <path class="cls-1" d="M406,174.73v.05h0v0Zm0,102.08v.05h0v0Zm0,0v.05h0v0Zm0-102.08v.05h0v0Zm0,0v.05h0v0Zm0,102.08v.05h0v0Zm0,.05h0v0l0,0Zm0-102.13v.05h0v0Zm392,82.84a7.43,7.43,0,0,1-4.83-8.72c2.3-11.7.72-22.95-3.58-33.72-8.12-20.53-22.83-35.15-41.76-43-4.28-1.77-4.61-3.37-3.94-4.45,1.14-1.74,2.81-4.41,4.51-7.42s-5.16-7-12.68.76c-2.94,3.06-8.48,2.53-12.71,1.39-9-2.44-18.24-1.17-27.31,1.36-20.8,5.82-39.79,16.24-50.44,43.77-5,.81-8.93-3.3-13.06,5.23-1.36,2.79,2.34,4.25,3.3,5.13,2.15,2,2.72,4.47,2.41,7.48-1,8.86-17.22,16.57-20.82,18-15.86,6-8.15,14.71-8.15,14.71-9,5-5.51,12-5.51,12L520.55,305.4c11.48-33.19,22.25-64.48,24.45-71,1-2.89,1.79-5.83,2.55-8.77a13.92,13.92,0,0,0-1.67-10.79c-1.55-2.6-3.29-5.14-5-7.64C515.72,170.1,471.21,58.51,406,62.45,341,60.92,296.2,170.1,271.05,207.16c-1.72,2.5-3.46,5-5,7.64a13.92,13.92,0,0,0-1.67,10.79c.76,2.94,1.6,5.88,2.55,8.77,2.2,6.56,12.92,37.68,24.36,70.78L119.2,231.66,136.13,192a10.5,10.5,0,0,0,3.27,2.15,11.38,11.38,0,1,0,8.94-20.92c-.39-.16-.72-.28-1.08-.4a11.24,11.24,0,0,0,3-4.16,11.37,11.37,0,1,0-20.92-8.93,11.07,11.07,0,0,0-.91,5c-.33-.17-.67-.33-1-.5a11.38,11.38,0,0,0-8.93,20.94,11.66,11.66,0,0,0,3.85.89l-16.93,39.66-30.21-12.9a11.24,11.24,0,0,0,2.12-3.27,11.38,11.38,0,1,0-20.94-8.93c-.14.36-.26.72-.38,1.08a11,11,0,0,0-4.16-3,11.37,11.37,0,0,0-8.93,20.92,11.16,11.16,0,0,0,5.07.9,9,9,0,0,0-.53,1,11.38,11.38,0,0,0,20.94,8.93,12,12,0,0,0,.91-3.82l30.18,12.9L82.6,279.08a10.78,10.78,0,0,0-3.28-2.15,11.37,11.37,0,0,0-8.93,20.92,5.8,5.8,0,0,0,1.08.38,11.84,11.84,0,0,0-3,4.18,11.39,11.39,0,1,0,20.95,8.93,11.32,11.32,0,0,0,.9-5.06,8.15,8.15,0,0,0,1,.5,11.37,11.37,0,1,0,8.93-20.92,10.56,10.56,0,0,0-3.79-.88l16.85-39.47,184.62,78.85c9.74,28.2,18.91,54.68,22.63,65.43a6.12,6.12,0,0,0,.36.83,9.74,9.74,0,0,0,6.67,5.54A129.74,129.74,0,0,0,341,398.31h0c17,2.15,43.89,4.25,64.88,4.87,21.11-.62,48.11-2.74,65.12-4.89,5.8-.72,10.43-1.46,13.27-2.13a9.83,9.83,0,0,0,6.74-5.7,3.27,3.27,0,0,0,.28-.67c3.73-10.75,12.85-37.11,22.57-65.26v0l95.28-40.67a16.33,16.33,0,0,0,9,3.13,11.83,11.83,0,0,0,9.15-4.49c7,4,14.76.7,21.59-2.77C677.7,265.09,665.09,218.43,688,214c10.53-2,2.17-9.33-2.13-8.88-5,.57-16.69,6.54-13.78,2.36,8.1-11.39,19.08-17.91,32-21a46.5,46.5,0,0,1,25.24,1.1,50.86,50.86,0,0,1,28.13,21.16c1.29,2,2.63,3.92,4,5.8.88,1.22,3.65.65,4.18-.86.31-.93,2.77-7.42,3-7a74.81,74.81,0,0,1,9.32,25c1.74,9.4,1.31,18.69-2.39,27.72a42.92,42.92,0,0,1-6.35,10.6c-.84,1-3.82,4.28-1.1,5.3,1.45.58,3,1.08,4.73,1.68-1.27,1.43-2.27,2.86-3.49,4a51.28,51.28,0,0,1-29.63,13.32c-11.54,1.31-21.45-2.41-30.76-8.67-5.42-3.63-8.88-9-11-15.52-2.7-8.52,1.79-20.46,8.52-25,1.89-1.29,6.83-3.08,7.33-2.44.29.53.74,1.32.55,1.75a21.89,21.89,0,0,0-2,8c-.19,7.79,5.66,14.16,12.94,13.78,8.17-.41,17.39-6.78,17.29-18-.09-7.6-3.06-13.18-9.46-16.93-3.31-1.94-9.45-1.48-10.24-2.75-1.22-1.93,3.22-12.37,2.75-17.12-.17-1.17-2.22-1.93-3.25-1.46-2.06.93-4,3.63-4.9,5.07a42.09,42.09,0,0,1-12.18,12.22,55.61,55.61,0,0,0-15.16,15,35.47,35.47,0,0,0-6.52,20.56c0,8.88,2.2,17.17,7.14,24.47a45.74,45.74,0,0,0,16.17,14.91c14.71,8,30.21,9.33,46,3.86,16.55-5.7,29.18-16.31,35.63-34,.36-.94.76-2.13,1.58-2.49,1-.43,10.14.86,11.79,1C809.32,271,805.38,260.48,797.91,257.57ZM454.76,221.29a5.77,5.77,0,1,1-5.76,5.76A5.77,5.77,0,0,1,454.76,221.29ZM406,149.06h0a5.77,5.77,0,0,1,0,11.53h0a5.77,5.77,0,0,1,0-11.53Zm-3.37,20.49,3.27-5,.1-.07h0l.1.07,3.27,5,37.73,58.26.07.1-.07.09-37.68,53.73-3.3,4.73-.12.07h0l-.12-.07-3.3-4.73L364.85,228l-.07-.09.07-.1ZM406,289.45h0A5.77,5.77,0,0,1,406,301h0a5.77,5.77,0,0,1,0-11.53Zm-48.79-68.16a5.77,5.77,0,1,1-5.78,5.76A5.76,5.76,0,0,1,357.16,221.29Zm131.63,161.5c-5.47-3.44-37.14-15.38-61.57-21.25h0c-2.75-.67-5.4-1.27-7.93-1.74h0a73,73,0,0,0-13.3-1.6,69.72,69.72,0,0,0-12.4,1.43h0c-2.7.48-5.62,1.12-8.62,1.86-24.48,5.85-56.26,17.84-61.76,21.3,0-1.57-.35-2.7.08-3.34,1.55-2.46,26.91-14.81,52-22.09,9.15-2.65,18.25-4.63,26.15-5.21,1.6-.12,3.13-.19,4.61-.19s3.27.07,5,.22a133.74,133.74,0,0,1,25.88,5.23c25.05,7.28,50.29,19.58,51.84,22C489.14,380.09,488.79,381.22,488.79,382.79ZM406,276.84l0,0v.05h0Zm0-102.09,0,0v.05h0Zm0,0v.05h0v0Zm0,102.08v.05h0v0Zm0,0v.05h0v0Zm0-102.08v.05h0v0Z"/>
    <path class="cls-1" d="M364.78,227.91l0,.05.09,0Zm0,0,0,0,.07-.1Zm41.07,58.6.07.1.05,0Zm.07-122,0,.09.1-.07Zm.05,10.29v.05h0v0Zm0,102.08v.05h0v0ZM406,164.44l0,0,.1.07Zm0,122.09,0,0,.07-.1Zm41.17-58.62-.07.09.09,0Zm-.07-.1.07.1,0,0Z"/>
    <path class="cls-1" d="M176.18,452l-4.08-1c1.43.36,2.88.79,4.37,1.29l.35-.14C176.61,452.11,176.39,452,176.18,452Z"/>
    <polygon class="cls-1" points="364.85 228 364.76 227.96 364.78 227.91 364.85 228"/>
    <polygon class="cls-1" points="405.95 164.46 405.85 164.53 405.9 164.44 405.95 164.46"/>
    <polygon class="cls-1" points="405.97 174.75 405.97 174.78 405.95 174.78 405.95 174.73 405.97 174.75"/>
    <polygon class="cls-1" points="364.85 227.81 364.78 227.91 364.76 227.86 364.85 227.81"/>
    <polygon class="cls-1" points="405.95 286.53 405.9 286.56 405.83 286.46 405.95 286.53"/>
    <polygon class="cls-1" points="405.97 276.84 405.97 276.86 405.95 276.86 405.95 276.81 405.97 276.84"/>
    <path class="cls-1" d="M447.14,227.91l-.07.09.09,0Zm-.07-.1.07.1,0,0ZM406,164.44l0,0,.1.07Zm0,122.09,0,0,.07-.1Z"/>
    <path class="cls-1" d="M657.33,448.68a70.27,70.27,0,0,0-21.42,3.65l-.55-.24c.12,0,.26-.07.38-.1a118,118,0,0,1,14.88-3A48.83,48.83,0,0,1,657.33,448.68Z"/>
    <path class="cls-1" d="M742.1,471.17c-6.52-4.39-13.61-7.86-26.63-8.07a48.54,48.54,0,0,1-12-1.72c-8.5-2.32-17-4.54-25.08-8.1-.14,0-.26-.12-.4-.16a52.85,52.85,0,0,0-20.68-4.44,70.27,70.27,0,0,0-21.42,3.65c-1.55.48-3.13,1.05-4.71,1.67a77.09,77.09,0,0,0-13.54,6.9l-52.82-22.56c-.28.64-.57,1.28-.86,1.93a10.26,10.26,0,0,1-9.07,6.28c-5.06,0-22.88.31-27.92.24-1.41,0-1.88-1.12-1.21-2.08,2.45-3.49,7.28-10.55,12.32-17.79,3-4.42,6.16-8.86,8.86-12.61,3.17-4.44,5.75-7.88,6.92-9.1a13.72,13.72,0,0,1,8.81-4.53c2.87-.24,11.8-1.08,17.17-1.48,1.79-.12,2,1.6,1.44,2.81-3.42,7.43-6.91,15-10.32,22.57l39.71,17c-2.46-10.89-8.64-38.93-10.72-41.17a13.71,13.71,0,0,0-10.72-4.66c-9.55.05-18.94,1.41-28.37,2.41a15,15,0,0,0-8,4c-1.19,1.05-4.56,5.4-8.74,11l-53-22.66a9.83,9.83,0,0,1-6.74,5.7c-2.84.67-7.47,1.41-13.27,2.13l7.11,3c-8.47,1.27-20.27,2.68-21.08,2.84-5.9,1.34-6.4,3.7-4.54,9,3.15,9.13,20.63,32.6,23.35,34.58a14.33,14.33,0,0,0,8.58,2.8c2.36,0,67.46,0,69.15,0,3.54.11,6.86-.65,9.46-3,2.34-2.12,4.75-1.86,6.45.24,2.46,3,6.52,16.17,7.61,18.65,1.65,3.82,4.47,8.43,8.74,8.5,1.39,0,7.31.05,16,.05,12.25,0,30,0,48.88,0h37.9c28.91,0,52.82,0,53.56-.07C743.15,473.49,743.41,472.05,742.1,471.17ZM518.52,446.29c-1.65,1.21-3.94.83-5.83-.12a16.92,16.92,0,0,1-6.07-5.23c-1.83-2.49-13.49-25.05-18.84-35.51l47.07,20.11C527.57,435.37,520.45,444.85,518.52,446.29Z"/>
    <polygon class="cls-1" points="406.07 164.53 405.97 164.46 406.02 164.44 406.07 164.53"/>
    <polygon class="cls-1" points="447.16 227.96 447.07 228 447.14 227.91 447.16 227.96"/>
    <polygon class="cls-1" points="406.09 286.46 406.02 286.56 405.97 286.53 406.09 286.46"/>
    <polygon class="cls-1" points="447.16 227.86 447.14 227.91 447.07 227.81 447.16 227.86"/>
    <path class="cls-1" d="M354.82,404.16c-.79-.16-12.39-1.57-20.87-2.81l7.09-3a129.74,129.74,0,0,1-13.46-2.15,9.74,9.74,0,0,1-6.67-5.54l-53,22.64c-4.22-5.66-7.64-10.08-8.83-11.13a15.08,15.08,0,0,0-8-4c-9.43-1-18.82-2.36-28.37-2.41A13.71,13.71,0,0,0,212,400.37c-2.1,2.24-8.33,30.63-10.79,41.38l39.85-17c-3.44-7.62-6.95-15.26-10.39-22.74-.57-1.21-.35-2.93,1.44-2.81,5.37.4,14.3,1.24,17.17,1.48a13.72,13.72,0,0,1,8.81,4.53,113.68,113.68,0,0,1,7,9.27c2.68,3.72,5.78,8.14,8.79,12.51,5,7.21,9.81,14.23,12.27,17.72.67,1,.2,2.05-1.21,2.08-5,.07-22.86-.24-27.92-.24a10.26,10.26,0,0,1-9.07-6.28c-.27-.62-.55-1.22-.82-1.84l-52.41,22.38a78.25,78.25,0,0,0-13.4-6.81c-1.62-.64-3.24-1.22-4.84-1.72s-2.94-.93-4.37-1.29a104,104,0,0,0-10.8-2l-.93-.09c-.74-.1-1.48-.15-2.2-.19l-.64,0c-.84,0-1.65-.07-2.46-.07s-1.86,0-2.77.07a53.13,53.13,0,0,0-15.24,3.15c-1.19.43-2.38.91-3.55,1.41-8.12,3.56-16.58,5.78-25.08,8.1a48.54,48.54,0,0,1-12,1.72c-13,.21-20.11,3.68-26.63,8.07-1.31.88-1,2.32-.17,3.82.77.05,25,.07,54.16.07H161.3c19.08,0,37.09,0,49.29,0,8.4,0,14.06,0,15.43-.05,4.27-.07,7.09-4.68,8.74-8.5,1.09-2.48,5.15-15.62,7.61-18.65,1.7-2.1,4.11-2.36,6.45-.24,2.6,2.34,5.92,3.1,9.46,3,1.69,0,66.79,0,69.15,0a14.28,14.28,0,0,0,8.57-2.8c2.73-2,20.21-25.45,23.36-34.58C361.22,407.86,360.72,405.5,354.82,404.16ZM305.3,440.94a16.92,16.92,0,0,1-6.07,5.23c-1.89.95-4.18,1.33-5.83.12-1.93-1.41-9-10.87-16.28-20.68l46.94-20C318.67,416.08,307.11,438.45,305.3,440.94Z"/>
    <path class="cls-1" d="M152.3,448.73a52.8,52.8,0,0,0-15.23,3.15A43.12,43.12,0,0,1,152.3,448.73Z"/>
    <path class="cls-1" d="M172.1,451a101.25,101.25,0,0,0-10.79-2A68.09,68.09,0,0,1,172.1,451Z"/>
    <path class="cls-1" d="M547.08,294.07a22.24,22.24,0,0,0-8.66-1.86A17.74,17.74,0,0,1,547.08,294.07Z"/>
  </g>
</svg>
