<svg id="Livello_1" data-name="Livello 1" xmlns="http://www.w3.org/2000/svg" viewBox="0 0 841.89 841.89">
  <defs>
    <style>
      .cls-1 {
        fill: #231f20;
      }
    </style>
  </defs>
  <title>Glos</title>
  <g>
    <g>
      <path class="cls-1" d="M512.93,177.17c-23.48-12.5-50.09-18.92-65.8-14.35-8.19,2.36-22.89,22.38-25.68,26.26-.34.43-.51.68-.51.68s-.16-.25-.5-.68c-2.79-3.88-17.49-23.9-25.68-26.26-15.71-4.57-42.23,1.85-65.8,14.35-23.65-46.2-45.44-93.84-41-105.66,17.91-47.9,133-50.85,133-50.85s115.13,2.95,133,50.85C558.37,83.33,536.58,131,512.93,177.17Z"/>
      <path class="cls-1" d="M162.9,447.13c-4.56,15.71,1.86,42.23,14.27,65.8C131,536.58,83.33,558.37,71.51,554c-47.9-17.91-50.85-133-50.85-133s2.95-115.12,50.85-133c11.82-4.39,59.46,17.4,105.66,41-12.41,23.48-18.83,50.09-14.27,65.8,2.36,8.19,22.38,22.89,26.27,25.68.42.34.67.5.67.5s-.25.17-.67.51C185.28,424.24,165.26,438.94,162.9,447.13Z"/>
      <path class="cls-1" d="M376.69,467.5h-.16a690.64,690.64,0,0,0-54.91,61.24c-20.35,26-39.11,55.32-40.79,76.86a31.67,31.67,0,0,0,.42,9.46c3,15,16.22,29.48,33.11,40.88C298.23,706.2,279.47,756.8,267.9,762.12c-46.54,21.2-130.08-58.2-130.08-58.2s-79.31-83.45-58.11-130c5.32-11.58,55.92-30.33,106.18-46.46,11.4,16.81,25.84,30.07,40.88,33.11a31.67,31.67,0,0,0,9.46.42c21.54-1.69,50.85-20.44,76.86-40.79a690.64,690.64,0,0,0,61.24-54.91v-.17C375.09,466,375.93,466.74,376.69,467.5Z"/>
      <path class="cls-1" d="M554,770.38c-17.91,47.9-133,50.85-133,50.85s-115.12-3-133-50.85c-4.39-11.82,17.4-59.46,41-105.66,23.48,12.41,50.09,18.83,65.8,14.27,8.19-2.36,22.89-22.38,25.68-26.27.34-.42.5-.67.5-.67s.17.25.51.67c2.79,3.89,17.49,23.91,25.68,26.27,15.71,4.56,42.23-1.86,65.8-14.27C536.58,710.92,558.37,758.56,554,770.38Z"/>
      <path class="cls-1" d="M821.23,420.94s-3,115.13-50.85,133c-11.82,4.39-59.46-17.4-105.66-41.05,12.5-23.48,18.92-50.09,14.35-65.8-2.36-8.19-22.38-22.89-26.26-25.68-.43-.34-.68-.51-.68-.51s.25-.16.68-.5c3.88-2.79,23.9-17.49,26.26-25.68,4.57-15.71-1.85-42.23-14.35-65.8,46.2-23.65,93.84-45.44,105.66-41C818.28,305.82,821.23,420.94,821.23,420.94Z"/>
    </g>
    <path class="cls-1" d="M189.17,420.44c.42.34.67.5.67.5s-.25.17-.67.51Z"/>
    <path class="cls-1" d="M420.94,189.76s-.16-.25-.5-.68h1C421.11,189.51,420.94,189.76,420.94,189.76Z"/>
    <path class="cls-1" d="M652.31,420.79c-.09.17-.17.17-.17.17h-.08s.08,0,.16.17h.09c.08.08.25.17.42.33v-1C652.56,420.62,652.39,420.7,652.31,420.79ZM420.87,652.14c-.08,0-.08,0-.08.09-.17.17-.26.34-.43.5h1A5.23,5.23,0,0,0,420.87,652.14Z"/>
    <path class="cls-1" d="M703.92,703.92s-83.46,79.4-130,58.2c-11.57-5.32-30.41-56-46.45-106.26,16.81-11.4,30-25.76,33-40.8a32,32,0,0,0,.43-9.46c-1.69-21.54-20.36-50.76-40.8-76.78a685,685,0,0,0-54.9-61.32h-.17c.84-.76,1.69-1.61,2.45-2.45v.25a689.65,689.65,0,0,0,61.23,54.91c26,20.35,55.33,39.1,76.87,40.79a31.69,31.69,0,0,0,9.46-.42c15-3,29.48-16.22,40.88-33.11C706.11,543.6,756.71,562.35,762,573.93,783.23,620.47,703.92,703.92,703.92,703.92Z"/>
    <path class="cls-1" d="M762,267.9c-5.32,11.66-56,30.41-106.17,46.46-11.41-16.81-25.77-30-40.8-33a31.35,31.35,0,0,0-9.46-.43c-21.54,1.69-50.77,20.36-76.78,40.8a685,685,0,0,0-61.32,54.9v.17c-.76-.84-1.61-1.69-2.45-2.45h.17A685,685,0,0,0,520.12,313c20.44-26,39.11-55.24,40.8-76.78a32,32,0,0,0-.43-9.46c-3-15-16.21-29.48-33-40.88C543.6,135.72,562.35,85.12,573.92,79.8c46.54-21.2,130,58.11,130,58.11S783.23,221.36,762,267.9Z"/>
    <path class="cls-1" d="M374.33,376.7v-.09A685,685,0,0,0,313,321.71c-26-20.44-55.24-39.11-76.78-40.8a31.34,31.34,0,0,0-9.46.43c-15,3-29.48,16.21-40.88,33C135.63,298.23,85,279.56,79.71,267.9c-21.2-46.54,58.11-130,58.11-130S221.36,58.6,267.9,79.8c11.57,5.32,30.33,55.92,46.46,106.09-16.81,11.4-30.07,25.84-33.11,40.88a31.69,31.69,0,0,0-.42,9.46c1.68,21.54,20.44,50.85,40.79,76.86a690.64,690.64,0,0,0,54.91,61.24h.16C375.93,375.09,375.09,375.85,374.33,376.7Z"/>
  </g>
</svg>
