<svg id="Livello_1" data-name="Livello 1" xmlns="http://www.w3.org/2000/svg" viewBox="0 0 841.89 841.89">
  <title>Glos</title>
  <g>
    <path d="M466.77,309.06c-.1,0,17.08,1.28,28.38-10.9-3.41,24.48,18.39,62.52,35.91,77.43,12.08,10.28,27.61,49.57,31.77,58.24.65,1.36-1.21,1.95-2.08.49-4.38-8.88-11-17.36-15.4-25.62-5.13-9.78-12.39-17.73-23.2-21.09-11.59-3.57-15.47-.46-18.7,9.32-8.32,25.34,36.15,65.69,39.69,69.29-3.08,0-15.81-.12-20.41.5-7.05.93-12.64,4-14,12-.59,3.54,3.75,7.08,8.85,7.11,10.68,0,21.4.12,32,0,3.11,0,6.21-.09,9.29-.16,19.72-.4,18.14-11.52,12.33-18,6.46,2.67,11.92,3.51,17.61,1.93,5.68,1.58,11.15.74,17.61-1.93-5.81,6.46-7.39,17.58,12.33,18,3.07.07,6.18.13,9.29.16v0h32c5.09,0,9.44-3.57,8.85-7.11-1.37-8-7-11-14-12-4.59-.62-17.33-.5-20.4-.5,3.54-3.6,48-44,39.69-69.29-3.23-9.78-7.12-12.89-18.7-9.32-10.81,3.36-18.08,11.31-23.2,21.09-4.35,8.26-11,16.74-15.4,25.62-.87,1.46-2.74.87-2.08-.49,4.16-8.67,19.69-48,31.77-58.24,17.52-14.91,39.32-52.95,35.9-77.43C693.87,310.34,711,309.1,711,309.06c-12.73-7.14-25.87-32-26.83-34.57-2-5.56-11.06-11-16.5-9.41-17.7,5.31-33.29,43.33-33.79,44.73s-2.17.71-1.8-.28S644.86,264,660.76,259C717.69,241.2,738.19,153.24,675,130.48c11.84-6.56,18.14-38.39,14-42.24-1.21,3.76-17,30.71-29.85,34.16-17.67,4.72-40.15,11.8-47.48,30.22-12.61,31.68,8.23,60.44,30.06,59.17,16.21-.93,16.93-14.82,16.4-18.26-.87-5.32-.22-19.66,8.7-13.52,17.08,11.81,7.73,34.67-6.81,43.86-8.32,5.28-43.63,2-62.24,37.95-8.94,17.24-6.43,72.87-3.69,88.49,4,22.74-3.45,35-5.25,39.54-1.8-4.57-9.26-16.8-5.25-39.54,2.73-15.62,5.25-71.25-3.7-88.49-18.6-35.9-53.91-32.67-62.24-37.95-14.53-9.19-23.88-32.05-6.8-43.86,8.91-6.14,9.57,8.2,8.7,13.52-.53,3.44.18,17.33,16.4,18.26,21.83,1.27,42.67-27.49,30.06-59.17-7.33-18.42-29.82-25.5-47.49-30.22C505.65,119,489.91,92,488.69,88.24c-4.1,3.85,2.21,35.68,14,42.24C439.53,153.24,460,241.2,517,259c15.9,5,28.38,49.44,28.73,50.5s-1.34,1.62-1.8.28-16.09-39.42-33.8-44.73c-5.43-1.62-14.44,3.85-16.49,9.41C492.64,277.1,479.5,301.92,466.77,309.06Z"/>
    <path d="M130.94,532.83c-.09,0,17.08-1.28,28.39,10.9-3.42-24.48,18.38-62.52,35.9-77.43C207.31,456,222.84,416.73,227,408.06c.66-1.36-1.21-1.95-2.08-.49-4.38,8.88-11,17.36-15.4,25.62-5.12,9.78-12.39,17.73-23.2,21.09-11.58,3.57-15.47.46-18.7-9.32-8.32-25.34,36.15-65.69,39.69-69.29-3.07,0-15.81.12-20.4-.5-7-.93-12.64-4-14-12-.59-3.54,3.76-7.08,8.85-7.11,10.69,0,21.4-.12,32.05,0,3.11,0,6.22.09,9.29.16,19.72.4,18.14,11.52,12.33,18,6.46-2.67,11.93-3.51,17.61-1.93,5.69-1.58,11.15-.74,17.61,1.93-5.81-6.46-7.39-17.58,12.33-18,3.08-.07,6.18-.13,9.29-.16v0h32.05c5.09,0,9.44,3.57,8.85,7.11-1.36,8-7,11-14,12-4.6.62-17.34.5-20.41.5,3.54,3.6,48,43.95,39.69,69.29-3.23,9.78-7.11,12.89-18.7,9.32-10.81-3.36-18.07-11.31-23.2-21.09-4.35-8.26-11-16.74-15.4-25.62-.87-1.46-2.73-.87-2.08.49,4.16,8.67,19.69,48,31.77,58.24,17.52,14.91,39.32,52.95,35.91,77.43,11.3-12.18,28.48-10.94,28.38-10.9-12.73,7.14-25.87,32-26.83,34.57-2.05,5.56-11.06,11-16.49,9.41-17.71-5.31-33.3-43.33-33.8-44.73s-2.17-.71-1.8.28,12.83,45.53,28.73,50.5c56.93,17.83,77.43,105.79,14.23,128.55,11.83,6.56,18.14,38.39,14,42.24-1.22-3.76-17-30.71-29.85-34.16-17.67-4.72-40.16-11.8-47.49-30.22-12.61-31.68,8.23-60.44,30.06-59.17,16.22.93,16.93,14.82,16.4,18.26-.87,5.31-.21,19.66,8.7,13.51,17.08-11.8,7.73-34.66-6.8-43.85-8.33-5.28-43.64-2-62.24-37.95-9-17.24-6.43-72.87-3.7-88.49,4-22.74-3.45-35-5.25-39.54-1.8,4.57-9.25,16.8-5.25,39.54,2.74,15.62,5.25,71.25-3.69,88.49C225.48,616,190.17,612.74,181.85,618c-14.54,9.19-23.89,32.05-6.81,43.85,8.92,6.15,9.57-8.2,8.7-13.51-.53-3.44.19-17.33,16.4-18.26,21.83-1.27,42.67,27.49,30.06,59.17-7.33,18.42-29.81,25.5-47.49,30.22-12.88,3.45-28.63,30.4-29.84,34.16-4.1-3.85,2.2-35.68,14-42.24-63.21-22.76-42.71-110.72,14.22-128.55,15.9-5,28.39-49.44,28.73-50.5s-1.34-1.62-1.8-.28S192,571.5,174.27,576.81c-5.44,1.61-14.45-3.85-16.5-9.41C156.81,564.79,143.67,540,130.94,532.83Z"/>
  </g>
</svg>
