<svg id="Livello_1" data-name="Livello 1" xmlns="http://www.w3.org/2000/svg" viewBox="0 0 841.89 841.89">
  <title>Glos</title>
  <g>
    <g>
      <g>
        <path d="M385.06,170.1a8,8,0,0,1-2.39,2.27,36.74,36.74,0,0,1-5.48,3c-5.71,2.3-11.49,4.45-17.23,6.71-3.95,1.57-7.93,3.1-11.87,4.81a21.49,21.49,0,0,0-4,2.53,2.49,2.49,0,0,0-.83,3.45,11.08,11.08,0,0,0,2,2.91,40.44,40.44,0,0,0,3.74,3.42,221.77,221.77,0,0,1,21.45,19.89c2.41,2.62,4.74,5.36,6.92,8.19a46.62,46.62,0,0,1,3.47,5.24,18.93,18.93,0,0,1,2.63,7.54,10.08,10.08,0,0,1,.11,3c-.47,4-2.94,6-7,5.48a22.91,22.91,0,0,1-4.56-1.21,63.78,63.78,0,0,1-15.38-8.43,154.62,154.62,0,0,1-17.12-14.43c-6.42-6.39-12.75-12.88-19.09-19.36-1.44-1.47-2.88-3-4.36-4.47a7.2,7.2,0,0,0-3.44-2.16,8.19,8.19,0,0,0-1.18,1.45,23.23,23.23,0,0,0-1.74,6c-1.18,6-2.3,12.11-3.65,18.12a150.78,150.78,0,0,1-7.72,24.45,63.17,63.17,0,0,1-8.55,15,28.32,28.32,0,0,1-12.63,9.2,17,17,0,0,1-6.16,1.06,10.43,10.43,0,0,1-10.28-9.7,19,19,0,0,1,.41-5.92,38,38,0,0,1,4.21-10.81c2.36-4,4.78-8,7.19-12,2.12-3.59,4.33-7.13,6.39-10.78a69.1,69.1,0,0,0,8.19-22.27,54.76,54.76,0,0,0-.91-22.22c-1.86-8.16-6.27-14.78-12.37-20.29-4-3.69-8.46-7-12.73-10.34a39.11,39.11,0,0,0-8.45-5c-2.69-1.21-2.71-2.45-.3-4.24,1.12-.83,2.27-1.62,3.42-2.42a34.53,34.53,0,0,1,3.56-2.21c4.54-2.36,8.22-5.86,11.76-9.48a53.41,53.41,0,0,0,8.16-11,35.47,35.47,0,0,0,3.86-11.23,55.45,55.45,0,0,0,.47-16.91,61.36,61.36,0,0,0-4.66-16A71.32,71.32,0,0,0,271.76,58c-3.16-4.48-6.4-8.9-9.58-13.38-1.85-2.65-3.77-5.33-5.6-8.1A36,36,0,0,1,251.46,24a12.06,12.06,0,0,1,1.26-7.83,9.62,9.62,0,0,1,8.08-5.36,16.9,16.9,0,0,1,5,.35,26.65,26.65,0,0,1,14.49,8.34A63.14,63.14,0,0,1,290.55,34.8a163.9,163.9,0,0,1,10.72,28.07c1.27,4.39,2.39,8.84,3.66,13.26a31.35,31.35,0,0,0,1.91,5c.8,1.65,1.62,1.79,3,.47a66.64,66.64,0,0,0,4.59-5.07c2.86-3.48,5.6-7,8.49-10.43,5.68-6.69,11.28-13.43,17.58-19.5,3.48-3.3,7.05-6.48,10.67-9.6a54.78,54.78,0,0,1,12.37-7.72A21.29,21.29,0,0,1,368,27.61c3.89-.95,6.92,1.18,7.42,5.18a17.82,17.82,0,0,1-1,8.25A42.08,42.08,0,0,1,369.77,50,116,116,0,0,1,358.9,63.81c-4.75,5.13-9.64,10.08-14.5,15.09a48.35,48.35,0,0,0-3.47,3.68,12.22,12.22,0,0,0-1.86,3.36A2.35,2.35,0,0,0,340.16,89a22.6,22.6,0,0,0,4.18,2.21c4.39,1.5,8.87,2.86,13.35,4.21,5.77,1.83,11.64,3.51,17.38,5.39a26.28,26.28,0,0,1,5.36,2.54,7.59,7.59,0,0,1,2.57,2.44,3.13,3.13,0,0,1-1.09,4.63,9.41,9.41,0,0,1-3.07,1.06,33.69,33.69,0,0,1-5.92.62c-8.75.09-17.53.09-26.28.09-4.48,0-9-.12-13.46,0-10.64.11-20.39,3.09-28.87,9.69-2.74,2.12-5.45,4.36-8,6.72-4.69,4.3-9.28,8.75-14.59,12.31a11.27,11.27,0,0,0-.79.88c6.39,3.51,11.78,8,17.2,12.38a76.72,76.72,0,0,0,11.93,7.8,43.64,43.64,0,0,0,15,4.63,56.92,56.92,0,0,0,13.43.12c8.87-.83,17.79-1.74,26.75-2.39,4.92-.35,9.93-.26,14.91-.29a10.21,10.21,0,0,1,3.21.58C386,165.6,386.68,167.89,385.06,170.1Z"/>
        <path d="M182.55,144.18a41.11,41.11,0,0,0-8.42,5c-4.31,3.39-8.72,6.66-12.76,10.31-6.07,5.54-10.49,12.19-12.37,20.36a55.38,55.38,0,0,0-.92,22.21,72,72,0,0,0,8.19,22.27c2.07,3.62,4.28,7.16,6.46,10.75,2.35,4,4.77,8,7.15,12A38.51,38.51,0,0,1,174.07,258a18.35,18.35,0,0,1,.41,5.92,10.41,10.41,0,0,1-10.28,9.73,15.8,15.8,0,0,1-6.16-1.09,27.75,27.75,0,0,1-12.61-9.17,62.6,62.6,0,0,1-8.57-15,154.59,154.59,0,0,1-7.72-24.42c-1.32-6-2.41-12.05-3.65-18.12a20.69,20.69,0,0,0-1.74-6,9.15,9.15,0,0,0-1.18-1.44,7,7,0,0,0-3.42,2.18c-1.5,1.47-2.88,3-4.39,4.47-6.33,6.46-12.6,13-19.09,19.36a155.73,155.73,0,0,1-17,14.43,60.59,60.59,0,0,1-15.44,8.4,20.6,20.6,0,0,1-4.57,1.24c-4,.53-6.54-1.45-7-5.45a12.68,12.68,0,0,1,.12-3,21,21,0,0,1,2.62-7.54,58.73,58.73,0,0,1,3.48-5.24c2.24-2.77,4.51-5.54,6.95-8.13a225.62,225.62,0,0,1,21.42-19.95,45.1,45.1,0,0,0,3.8-3.39,10.59,10.59,0,0,0,2-2.91,2.47,2.47,0,0,0-.82-3.45,17.25,17.25,0,0,0-4-2.5c-3.95-1.71-7.92-3.3-11.87-4.86-5.75-2.24-11.52-4.39-17.23-6.72a33.86,33.86,0,0,1-5.48-3,8.85,8.85,0,0,1-2.36-2.24c-1.62-2.23-.91-4.56,1.68-5.47a8.34,8.34,0,0,1,3.18-.62c5,0,10,0,14.94.29,8.89.65,17.82,1.53,26.75,2.42a58.06,58.06,0,0,0,13.37-.12,44.5,44.5,0,0,0,15-4.63,76,76,0,0,0,12-7.86c5.39-4.36,10.78-8.81,17.17-12.35a6.54,6.54,0,0,0-.79-.85c-5.31-3.59-9.87-8-14.56-12.34-2.56-2.36-5.27-4.57-8-6.69-8.49-6.66-18.24-9.6-28.87-9.75-4.48,0-9,.09-13.44.09-8.77-.06-17.52,0-26.27-.09a41.32,41.32,0,0,1-5.95-.65,8,8,0,0,1-3-1.09,3.08,3.08,0,0,1-1.09-4.63,9.08,9.08,0,0,1,2.53-2.41,27.8,27.8,0,0,1,5.4-2.56C66,98.9,71.75,97.19,77.53,95.42c4.48-1.41,9-2.74,13.34-4.21A23.1,23.1,0,0,0,95.12,89a2.45,2.45,0,0,0,1.06-3.12,14,14,0,0,0-1.86-3.36c-1.06-1.3-2.36-2.41-3.51-3.62-4.83-5-9.72-10-14.43-15.14a112.22,112.22,0,0,1-10.9-13.82,40,40,0,0,1-4.72-9,17.89,17.89,0,0,1-1-8.22c.5-4,3.54-6.09,7.49-5.15a21.06,21.06,0,0,1,4.47,1.62A55,55,0,0,1,84.07,37c3.59,3.09,7.22,6.24,10.63,9.57,6.34,6.1,11.9,12.82,17.59,19.53,2.89,3.42,5.63,7,8.48,10.4a63.69,63.69,0,0,0,4.63,5.07c1.36,1.3,2.18,1.18,3-.47a30.6,30.6,0,0,0,1.91-5c1.27-4.36,2.39-8.81,3.65-13.2a171.75,171.75,0,0,1,10.73-28.13,64.56,64.56,0,0,1,10.25-15.29A27.18,27.18,0,0,1,169.41,11a17.08,17.08,0,0,1,5-.35,9.58,9.58,0,0,1,8,5.42,11.9,11.9,0,0,1,1.27,7.81,34.69,34.69,0,0,1-5.13,12.6c-1.76,2.77-3.68,5.43-5.59,8.14-3.19,4.44-6.4,8.86-9.58,13.34a73,73,0,0,0-7.13,12.73,60.52,60.52,0,0,0-4.71,15.94,53.41,53.41,0,0,0,.53,16.93,34.39,34.39,0,0,0,3.8,11.23,54.53,54.53,0,0,0,8.16,11c3.53,3.62,7.22,7.13,11.81,9.48a41.49,41.49,0,0,1,3.54,2.24c1.15.77,2.3,1.56,3.39,2.39C185.32,141.76,185.23,143,182.55,144.18Z"/>
      </g>
      <path d="M218.14,246.7c-16.26,0-36.09-64.9-20.45-92.47a23.37,23.37,0,0,0,39.6.47C251.43,182.54,238.55,246.7,218.14,246.7Z"/>
      <path d="M237.29,129.42a23.34,23.34,0,0,0-39.6.47c-15.64-27.57,4.19-92.47,20.45-92.47C238.55,37.42,251.43,101.61,237.29,129.42Z"/>
    </g>
    <g>
      <g>
        <path d="M791.7,170.1a7.83,7.83,0,0,1-2.39,2.27,36.74,36.74,0,0,1-5.48,3c-5.71,2.3-11.49,4.45-17.23,6.71-4,1.57-7.93,3.1-11.87,4.81a21.49,21.49,0,0,0-4,2.53,2.48,2.48,0,0,0-.82,3.45,10.81,10.81,0,0,0,2,2.91,40.44,40.44,0,0,0,3.74,3.42,221.77,221.77,0,0,1,21.45,19.89c2.41,2.62,4.74,5.36,6.92,8.19a45.36,45.36,0,0,1,3.48,5.24,19.07,19.07,0,0,1,2.62,7.54,10.08,10.08,0,0,1,.12,3c-.48,4-3,6-7,5.48a22.91,22.91,0,0,1-4.56-1.21,63.78,63.78,0,0,1-15.38-8.43,154.62,154.62,0,0,1-17.12-14.43c-6.42-6.39-12.75-12.88-19.09-19.36-1.44-1.47-2.88-3-4.36-4.47a7.2,7.2,0,0,0-3.44-2.16,8.19,8.19,0,0,0-1.18,1.45,23.23,23.23,0,0,0-1.74,6c-1.18,6-2.3,12.11-3.65,18.12A150.78,150.78,0,0,1,705,248.44a63.48,63.48,0,0,1-8.54,15,28.35,28.35,0,0,1-12.64,9.2,17,17,0,0,1-6.16,1.06,10.43,10.43,0,0,1-10.28-9.7,19,19,0,0,1,.41-5.92A38.34,38.34,0,0,1,672,247.23c2.36-4,4.78-8,7.19-12,2.12-3.59,4.33-7.13,6.4-10.78a69.57,69.57,0,0,0,8.19-22.27,54.93,54.93,0,0,0-.92-22.22c-1.85-8.16-6.27-14.78-12.37-20.29-4-3.69-8.46-7-12.73-10.34a39.11,39.11,0,0,0-8.45-5c-2.68-1.21-2.71-2.45-.3-4.24,1.12-.83,2.27-1.62,3.42-2.42a34.53,34.53,0,0,1,3.56-2.21c4.54-2.36,8.22-5.86,11.76-9.48a53.41,53.41,0,0,0,8.16-11,35.47,35.47,0,0,0,3.86-11.23,55.13,55.13,0,0,0,.47-16.91,61.73,61.73,0,0,0-4.65-16A71.37,71.37,0,0,0,678.4,58c-3.16-4.48-6.4-8.9-9.58-13.38-1.85-2.65-3.77-5.33-5.59-8.1A35.86,35.86,0,0,1,658.1,24a12,12,0,0,1,1.27-7.83,9.59,9.59,0,0,1,8.07-5.36,16.88,16.88,0,0,1,5,.35,26.65,26.65,0,0,1,14.49,8.34A63.14,63.14,0,0,1,697.19,34.8a163.94,163.94,0,0,1,10.73,28.07c1.26,4.39,2.38,8.84,3.65,13.26a31.35,31.35,0,0,0,1.91,5c.8,1.65,1.62,1.79,3,.47a66.64,66.64,0,0,0,4.59-5.07c2.86-3.48,5.6-7,8.49-10.43,5.68-6.69,11.28-13.43,17.59-19.5,3.47-3.3,7-6.48,10.66-9.6a54.78,54.78,0,0,1,12.37-7.72,21.29,21.29,0,0,1,4.48-1.65c3.89-.95,6.92,1.18,7.43,5.18a17.83,17.83,0,0,1-1,8.25A41.62,41.62,0,0,1,776.41,50a115,115,0,0,1-10.87,13.84c-4.74,5.13-9.63,10.08-14.5,15.09a50.43,50.43,0,0,0-3.47,3.68,12.22,12.22,0,0,0-1.86,3.36A2.36,2.36,0,0,0,746.8,89,22.37,22.37,0,0,0,751,91.24c4.39,1.5,8.86,2.86,13.34,4.21,5.77,1.83,11.64,3.51,17.38,5.39a26.28,26.28,0,0,1,5.36,2.54,7.5,7.5,0,0,1,2.57,2.44,3.13,3.13,0,0,1-1.09,4.63,9.41,9.41,0,0,1-3.07,1.06,33.59,33.59,0,0,1-5.92.62c-8.75.09-17.53.09-26.28.09-4.47,0-9-.12-13.46,0-10.63.11-20.39,3.09-28.87,9.69-2.74,2.12-5.45,4.36-8,6.72-4.69,4.3-9.28,8.75-14.59,12.31a11.27,11.27,0,0,0-.79.88c6.39,3.51,11.78,8,17.2,12.38a76.72,76.72,0,0,0,11.93,7.8,43.7,43.7,0,0,0,15,4.63,56.92,56.92,0,0,0,13.43.12c8.87-.83,17.8-1.74,26.75-2.39,4.92-.35,9.93-.26,14.91-.29a10.21,10.21,0,0,1,3.21.58C792.61,165.6,793.32,167.89,791.7,170.1Z"/>
        <path d="M589.19,144.18a41.11,41.11,0,0,0-8.42,5c-4.3,3.39-8.72,6.66-12.76,10.31-6.07,5.54-10.49,12.19-12.37,20.36a55.2,55.2,0,0,0-.91,22.21,71.77,71.77,0,0,0,8.18,22.27c2.07,3.62,4.28,7.16,6.46,10.75,2.35,4,4.77,8,7.16,12A38.79,38.79,0,0,1,580.71,258a18.35,18.35,0,0,1,.41,5.92,10.41,10.41,0,0,1-10.28,9.73,15.84,15.84,0,0,1-6.16-1.09,27.75,27.75,0,0,1-12.61-9.17,62.6,62.6,0,0,1-8.57-15,154.59,154.59,0,0,1-7.72-24.42c-1.32-6-2.41-12.05-3.65-18.12a20.69,20.69,0,0,0-1.74-6,8.62,8.62,0,0,0-1.18-1.44,6.92,6.92,0,0,0-3.41,2.18c-1.51,1.47-2.89,3-4.39,4.47-6.34,6.46-12.61,13-19.09,19.36a156.78,156.78,0,0,1-17.06,14.43,60.59,60.59,0,0,1-15.44,8.4,20.67,20.67,0,0,1-4.56,1.24c-4,.53-6.54-1.45-7-5.45a13.23,13.23,0,0,1,.12-3,21.18,21.18,0,0,1,2.62-7.54,58.73,58.73,0,0,1,3.48-5.24c2.24-2.77,4.51-5.54,7-8.13a225.62,225.62,0,0,1,21.42-19.95,45.1,45.1,0,0,0,3.8-3.39,10.37,10.37,0,0,0,2-2.91,2.46,2.46,0,0,0-.82-3.45,17.25,17.25,0,0,0-4-2.5c-3.94-1.71-7.92-3.3-11.87-4.86-5.74-2.24-11.52-4.39-17.23-6.72a33.86,33.86,0,0,1-5.48-3,8.85,8.85,0,0,1-2.36-2.24c-1.62-2.23-.91-4.56,1.68-5.47a8.34,8.34,0,0,1,3.18-.62c5,0,10,0,14.94.29,8.89.65,17.82,1.53,26.75,2.42a58.06,58.06,0,0,0,13.37-.12,44.62,44.62,0,0,0,15-4.63,75.89,75.89,0,0,0,12-7.86c5.39-4.36,10.78-8.81,17.17-12.35a6.54,6.54,0,0,0-.79-.85c-5.31-3.59-9.87-8-14.56-12.34-2.56-2.36-5.27-4.57-8-6.69-8.48-6.66-18.24-9.6-28.87-9.75-4.48,0-9,.09-13.43.09-8.78-.06-17.53,0-26.28-.09a41.32,41.32,0,0,1-6-.65,8.11,8.11,0,0,1-3-1.09,3.08,3.08,0,0,1-1.09-4.63,9,9,0,0,1,2.54-2.41,27.44,27.44,0,0,1,5.39-2.56c5.77-1.86,11.57-3.57,17.35-5.34,4.48-1.41,8.95-2.74,13.34-4.21A23.1,23.1,0,0,0,501.76,89a2.45,2.45,0,0,0,1.06-3.12A13.67,13.67,0,0,0,501,82.49c-1.06-1.3-2.36-2.41-3.5-3.62-4.84-5-9.73-10-14.44-15.14a112.22,112.22,0,0,1-10.9-13.82,40,40,0,0,1-4.71-9,17.76,17.76,0,0,1-1-8.22c.51-4,3.54-6.09,7.49-5.15a21.34,21.34,0,0,1,4.48,1.62A55.16,55.16,0,0,1,490.71,37c3.59,3.09,7.22,6.24,10.63,9.57,6.34,6.1,11.91,12.82,17.59,19.53,2.89,3.42,5.63,7,8.49,10.4A61.72,61.72,0,0,0,532,81.52c1.36,1.3,2.18,1.18,3-.47a30.6,30.6,0,0,0,1.91-5c1.27-4.36,2.39-8.81,3.65-13.2a171.75,171.75,0,0,1,10.73-28.13,64.56,64.56,0,0,1,10.25-15.29A27.18,27.18,0,0,1,576.05,11a17.08,17.08,0,0,1,5-.35,9.56,9.56,0,0,1,8,5.42,11.9,11.9,0,0,1,1.27,7.81,34.51,34.51,0,0,1-5.13,12.6c-1.76,2.77-3.68,5.43-5.59,8.14-3.18,4.44-6.4,8.86-9.58,13.34A73,73,0,0,0,563,70.71a60.52,60.52,0,0,0-4.71,15.94,53.41,53.41,0,0,0,.53,16.93,34.39,34.39,0,0,0,3.8,11.23,54.53,54.53,0,0,0,8.16,11c3.54,3.62,7.22,7.13,11.81,9.48a41.49,41.49,0,0,1,3.54,2.24c1.15.77,2.3,1.56,3.39,2.39C592,141.76,591.87,143,589.19,144.18Z"/>
      </g>
      <path d="M624.78,246.7c-16.26,0-36.09-64.9-20.45-92.47a23.37,23.37,0,0,0,39.6.47C658.07,182.54,645.2,246.7,624.78,246.7Z"/>
      <path d="M643.93,129.42a23.34,23.34,0,0,0-39.6.47c-15.64-27.57,4.19-92.47,20.45-92.47C645.2,37.42,658.07,101.61,643.93,129.42Z"/>
    </g>
    <g>
      <g>
        <path d="M385.06,448.91a8,8,0,0,1-2.39,2.27,36.74,36.74,0,0,1-5.48,3c-5.71,2.29-11.49,4.44-17.23,6.71-3.95,1.56-7.93,3.1-11.87,4.81a21.49,21.49,0,0,0-4,2.53,2.49,2.49,0,0,0-.83,3.45,11.08,11.08,0,0,0,2,2.91A40.44,40.44,0,0,0,349,478a221.66,221.66,0,0,1,21.45,19.88c2.41,2.63,4.74,5.37,6.92,8.19a46.76,46.76,0,0,1,3.47,5.25,18.93,18.93,0,0,1,2.63,7.54,10.07,10.07,0,0,1,.11,3c-.47,4-2.94,6-7,5.48A22.91,22.91,0,0,1,372,526.1a63.78,63.78,0,0,1-15.38-8.43,155.72,155.72,0,0,1-17.12-14.43c-6.42-6.4-12.75-12.88-19.09-19.36-1.44-1.47-2.88-3-4.36-4.48a7.26,7.26,0,0,0-3.44-2.15,8.19,8.19,0,0,0-1.18,1.45,23.11,23.11,0,0,0-1.74,6c-1.18,6-2.3,12.11-3.65,18.11a150.58,150.58,0,0,1-7.72,24.46,63.17,63.17,0,0,1-8.55,15,28.23,28.23,0,0,1-12.63,9.19,16.58,16.58,0,0,1-6.16,1.06,10.41,10.41,0,0,1-10.28-9.69,19,19,0,0,1,.41-5.92A38,38,0,0,1,265.36,526c2.36-4,4.78-8,7.19-12,2.12-3.59,4.33-7.13,6.39-10.78a69.1,69.1,0,0,0,8.19-22.27,54.76,54.76,0,0,0-.91-22.22c-1.86-8.16-6.27-14.79-12.37-20.29-4-3.69-8.46-7-12.73-10.35a39.47,39.47,0,0,0-8.45-5c-2.69-1.21-2.71-2.45-.3-4.24,1.12-.83,2.27-1.63,3.42-2.42a34.53,34.53,0,0,1,3.56-2.21c4.54-2.36,8.22-5.86,11.76-9.49a53.09,53.09,0,0,0,8.16-11,35.47,35.47,0,0,0,3.86-11.23,55.45,55.45,0,0,0,.47-16.91,61.25,61.25,0,0,0-4.66-16,71,71,0,0,0-7.18-12.7c-3.16-4.48-6.4-8.9-9.58-13.38-1.85-2.65-3.77-5.33-5.6-8.1a36,36,0,0,1-5.12-12.61,12,12,0,0,1,1.26-7.83,9.62,9.62,0,0,1,8.08-5.36,16.9,16.9,0,0,1,5,.35,26.59,26.59,0,0,1,14.49,8.34,63.27,63.27,0,0,1,10.25,15.34,164.32,164.32,0,0,1,10.72,28.08c1.27,4.39,2.39,8.84,3.66,13.26a31.73,31.73,0,0,0,1.91,5c.8,1.64,1.62,1.79,3,.47a66.64,66.64,0,0,0,4.59-5.07c2.86-3.48,5.6-7,8.49-10.43,5.68-6.69,11.28-13.43,17.58-19.5,3.48-3.3,7.05-6.48,10.67-9.61a55.1,55.1,0,0,1,12.37-7.71,21.29,21.29,0,0,1,4.48-1.65c3.89-.95,6.92,1.17,7.42,5.18a17.82,17.82,0,0,1-1,8.25,42.08,42.08,0,0,1-4.71,8.93,116,116,0,0,1-10.87,13.84c-4.75,5.13-9.64,10.08-14.5,15.09a48.35,48.35,0,0,0-3.47,3.68,12.22,12.22,0,0,0-1.86,3.36,2.36,2.36,0,0,0,1.09,3.09,22.6,22.6,0,0,0,4.18,2.21c4.39,1.5,8.87,2.86,13.35,4.21,5.77,1.83,11.64,3.51,17.38,5.39a26.28,26.28,0,0,1,5.36,2.54,7.59,7.59,0,0,1,2.57,2.44,3.13,3.13,0,0,1-1.09,4.63,9.41,9.41,0,0,1-3.07,1.06,33.69,33.69,0,0,1-5.92.62c-8.75.08-17.53.08-26.28.08-4.48,0-9-.11-13.46,0-10.64.11-20.39,3.09-28.87,9.69-2.74,2.12-5.45,4.36-8,6.71-4.69,4.31-9.28,8.75-14.59,12.32a11.27,11.27,0,0,0-.79.88c6.39,3.51,11.78,8,17.2,12.38a76.72,76.72,0,0,0,11.93,7.8,43.64,43.64,0,0,0,15,4.63,56.92,56.92,0,0,0,13.43.12c8.87-.83,17.79-1.74,26.75-2.39,4.92-.35,9.93-.27,14.91-.3a10.22,10.22,0,0,1,3.21.59C386,444.41,386.68,446.7,385.06,448.91Z"/>
        <path d="M182.55,423a40.66,40.66,0,0,0-8.42,5c-4.31,3.38-8.72,6.65-12.76,10.31-6.07,5.54-10.49,12.19-12.37,20.35a55.43,55.43,0,0,0-.92,22.22,72,72,0,0,0,8.19,22.27c2.07,3.62,4.28,7.16,6.46,10.75,2.35,4,4.77,8,7.15,12.05a38.51,38.51,0,0,1,4.19,10.78,18.35,18.35,0,0,1,.41,5.92,10.41,10.41,0,0,1-10.28,9.73,16,16,0,0,1-6.16-1.09,27.82,27.82,0,0,1-12.61-9.17,62.6,62.6,0,0,1-8.57-15,154.59,154.59,0,0,1-7.72-24.42c-1.32-6-2.41-12.05-3.65-18.12a20.6,20.6,0,0,0-1.74-6,9.71,9.71,0,0,0-1.18-1.45,7.14,7.14,0,0,0-3.42,2.18c-1.5,1.48-2.88,3-4.39,4.48-6.33,6.45-12.6,13-19.09,19.36a156.84,156.84,0,0,1-17,14.43A60.59,60.59,0,0,1,63.18,526a20.6,20.6,0,0,1-4.57,1.24c-4,.53-6.54-1.45-7-5.45a12.64,12.64,0,0,1,.12-3,21,21,0,0,1,2.62-7.54A58.73,58.73,0,0,1,57.82,506c2.24-2.77,4.51-5.54,6.95-8.13a225.62,225.62,0,0,1,21.42-19.95,45.1,45.1,0,0,0,3.8-3.39,10.59,10.59,0,0,0,2-2.91,2.47,2.47,0,0,0-.82-3.45,16.92,16.92,0,0,0-4-2.5c-3.95-1.71-7.92-3.3-11.87-4.87-5.75-2.23-11.52-4.38-17.23-6.71a33.86,33.86,0,0,1-5.48-3,8.85,8.85,0,0,1-2.36-2.24c-1.62-2.24-.91-4.56,1.68-5.48a8.52,8.52,0,0,1,3.18-.61c5,0,10,0,14.94.29,8.89.65,17.82,1.53,26.75,2.42a58.06,58.06,0,0,0,13.37-.12,44.5,44.5,0,0,0,15-4.63,76.69,76.69,0,0,0,12-7.86c5.39-4.36,10.78-8.81,17.17-12.35a6.54,6.54,0,0,0-.79-.85c-5.31-3.6-9.87-8-14.56-12.34-2.56-2.36-5.27-4.57-8-6.69-8.49-6.66-18.24-9.61-28.87-9.75-4.48,0-9,.09-13.44.09-8.77-.06-17.52,0-26.27-.09a41.32,41.32,0,0,1-5.95-.65,8,8,0,0,1-3-1.09,3.08,3.08,0,0,1-1.09-4.63,9.08,9.08,0,0,1,2.53-2.41,28.43,28.43,0,0,1,5.4-2.57c5.77-1.85,11.57-3.56,17.35-5.33,4.48-1.41,9-2.74,13.34-4.21a23.1,23.1,0,0,0,4.25-2.24,2.45,2.45,0,0,0,1.06-3.12,14,14,0,0,0-1.86-3.36c-1.06-1.3-2.36-2.42-3.51-3.62-4.83-5-9.72-10-14.43-15.15a111.38,111.38,0,0,1-10.9-13.81,40,40,0,0,1-4.72-9,17.89,17.89,0,0,1-1-8.22c.5-4,3.54-6.1,7.49-5.15A21.06,21.06,0,0,1,71.72,308a55,55,0,0,1,12.35,7.74c3.59,3.1,7.22,6.25,10.63,9.58,6.34,6.1,11.9,12.81,17.59,19.53,2.89,3.42,5.63,6.95,8.48,10.4a63.69,63.69,0,0,0,4.63,5.07c1.36,1.29,2.18,1.18,3-.47a30.6,30.6,0,0,0,1.91-5c1.27-4.36,2.39-8.81,3.65-13.2a171.75,171.75,0,0,1,10.73-28.13,64.56,64.56,0,0,1,10.25-15.29,27.18,27.18,0,0,1,14.49-8.4,17.08,17.08,0,0,1,5-.35,9.58,9.58,0,0,1,8,5.42,11.88,11.88,0,0,1,1.27,7.8,34.73,34.73,0,0,1-5.13,12.61c-1.76,2.77-3.68,5.42-5.59,8.13-3.19,4.45-6.4,8.87-9.58,13.35a73,73,0,0,0-7.13,12.73,60.57,60.57,0,0,0-4.71,15.93,53.46,53.46,0,0,0,.53,16.94,34.39,34.39,0,0,0,3.8,11.23,54.82,54.82,0,0,0,8.16,11c3.53,3.62,7.22,7.12,11.81,9.48a39.15,39.15,0,0,1,3.54,2.24c1.15.77,2.3,1.56,3.39,2.39C185.32,420.57,185.23,421.81,182.55,423Z"/>
      </g>
      <path d="M218.14,525.51c-16.26,0-36.09-64.9-20.45-92.48a23.37,23.37,0,0,0,39.6.48C251.43,461.35,238.55,525.51,218.14,525.51Z"/>
      <path d="M237.29,408.23a23.34,23.34,0,0,0-39.6.47c-15.64-27.57,4.19-92.47,20.45-92.47C238.55,316.23,251.43,380.42,237.29,408.23Z"/>
    </g>
    <g>
      <g>
        <path d="M791.7,448.91a7.83,7.83,0,0,1-2.39,2.27,36.74,36.74,0,0,1-5.48,3c-5.71,2.29-11.49,4.44-17.23,6.71-4,1.56-7.93,3.1-11.87,4.81a21.49,21.49,0,0,0-4,2.53,2.48,2.48,0,0,0-.82,3.45,10.81,10.81,0,0,0,2,2.91,40.44,40.44,0,0,0,3.74,3.42,221.66,221.66,0,0,1,21.45,19.88c2.41,2.63,4.74,5.37,6.92,8.19a45.49,45.49,0,0,1,3.48,5.25,19.07,19.07,0,0,1,2.62,7.54,10.07,10.07,0,0,1,.12,3c-.48,4-3,6-7,5.48a22.91,22.91,0,0,1-4.56-1.21,63.78,63.78,0,0,1-15.38-8.43,155.72,155.72,0,0,1-17.12-14.43c-6.42-6.4-12.75-12.88-19.09-19.36-1.44-1.47-2.88-3-4.36-4.48a7.26,7.26,0,0,0-3.44-2.15,8.19,8.19,0,0,0-1.18,1.45,23.11,23.11,0,0,0-1.74,6c-1.18,6-2.3,12.11-3.65,18.11A150.58,150.58,0,0,1,705,527.25a63.48,63.48,0,0,1-8.54,15,28.25,28.25,0,0,1-12.64,9.19,16.58,16.58,0,0,1-6.16,1.06,10.41,10.41,0,0,1-10.28-9.69,19,19,0,0,1,.41-5.92A38.34,38.34,0,0,1,672,526c2.36-4,4.78-8,7.19-12,2.12-3.59,4.33-7.13,6.4-10.78a69.57,69.57,0,0,0,8.19-22.27,54.93,54.93,0,0,0-.92-22.22c-1.85-8.16-6.27-14.79-12.37-20.29-4-3.69-8.46-7-12.73-10.35a39.47,39.47,0,0,0-8.45-5c-2.68-1.21-2.71-2.45-.3-4.24,1.12-.83,2.27-1.63,3.42-2.42a34.53,34.53,0,0,1,3.56-2.21c4.54-2.36,8.22-5.86,11.76-9.49a53.09,53.09,0,0,0,8.16-11,35.47,35.47,0,0,0,3.86-11.23,55.13,55.13,0,0,0,.47-16.91,61.61,61.61,0,0,0-4.65-16,71,71,0,0,0-7.19-12.7c-3.16-4.48-6.4-8.9-9.58-13.38-1.85-2.65-3.77-5.33-5.59-8.1a35.86,35.86,0,0,1-5.13-12.61,12,12,0,0,1,1.27-7.83,9.59,9.59,0,0,1,8.07-5.36,16.88,16.88,0,0,1,5,.35,26.59,26.59,0,0,1,14.49,8.34,63.27,63.27,0,0,1,10.25,15.34,164.35,164.35,0,0,1,10.73,28.08c1.26,4.39,2.38,8.84,3.65,13.26a31.73,31.73,0,0,0,1.91,5c.8,1.64,1.62,1.79,3,.47a66.64,66.64,0,0,0,4.59-5.07c2.86-3.48,5.6-7,8.49-10.43,5.68-6.69,11.28-13.43,17.59-19.5,3.47-3.3,7-6.48,10.66-9.61a55.1,55.1,0,0,1,12.37-7.71,21.29,21.29,0,0,1,4.48-1.65c3.89-.95,6.92,1.17,7.43,5.18a17.83,17.83,0,0,1-1,8.25,41.62,41.62,0,0,1-4.71,8.93,115,115,0,0,1-10.87,13.84c-4.74,5.13-9.63,10.08-14.5,15.09a50.43,50.43,0,0,0-3.47,3.68,12.22,12.22,0,0,0-1.86,3.36,2.37,2.37,0,0,0,1.09,3.09,22.37,22.37,0,0,0,4.19,2.21c4.39,1.5,8.86,2.86,13.34,4.21,5.77,1.83,11.64,3.51,17.38,5.39a26.28,26.28,0,0,1,5.36,2.54,7.5,7.5,0,0,1,2.57,2.44,3.13,3.13,0,0,1-1.09,4.63,9.41,9.41,0,0,1-3.07,1.06,33.59,33.59,0,0,1-5.92.62c-8.75.08-17.53.08-26.28.08-4.47,0-9-.11-13.46,0-10.63.11-20.39,3.09-28.87,9.69-2.74,2.12-5.45,4.36-8,6.71-4.69,4.31-9.28,8.75-14.59,12.32a11.27,11.27,0,0,0-.79.88c6.39,3.51,11.78,8,17.2,12.38a76.72,76.72,0,0,0,11.93,7.8,43.7,43.7,0,0,0,15,4.63,56.92,56.92,0,0,0,13.43.12c8.87-.83,17.8-1.74,26.75-2.39,4.92-.35,9.93-.27,14.91-.3a10.22,10.22,0,0,1,3.21.59C792.61,444.41,793.32,446.7,791.7,448.91Z"/>
        <path d="M589.19,423a40.66,40.66,0,0,0-8.42,5c-4.3,3.38-8.72,6.65-12.76,10.31-6.07,5.54-10.49,12.19-12.37,20.35a55.25,55.25,0,0,0-.91,22.22,71.77,71.77,0,0,0,8.18,22.27c2.07,3.62,4.28,7.16,6.46,10.75,2.35,4,4.77,8,7.16,12.05a38.79,38.79,0,0,1,4.18,10.78,18.35,18.35,0,0,1,.41,5.92,10.41,10.41,0,0,1-10.28,9.73,16,16,0,0,1-6.16-1.09,27.82,27.82,0,0,1-12.61-9.17,62.6,62.6,0,0,1-8.57-15,154.59,154.59,0,0,1-7.72-24.42c-1.32-6-2.41-12.05-3.65-18.12a20.6,20.6,0,0,0-1.74-6,9.12,9.12,0,0,0-1.18-1.45,7.06,7.06,0,0,0-3.41,2.18c-1.51,1.48-2.89,3-4.39,4.48-6.34,6.45-12.61,13-19.09,19.36a157.91,157.91,0,0,1-17.06,14.43,60.59,60.59,0,0,1-15.44,8.4,20.67,20.67,0,0,1-4.56,1.24c-4,.53-6.54-1.45-7-5.45a13.18,13.18,0,0,1,.12-3,21.18,21.18,0,0,1,2.62-7.54,58.73,58.73,0,0,1,3.48-5.24c2.24-2.77,4.51-5.54,7-8.13a225.62,225.62,0,0,1,21.42-19.95,45.1,45.1,0,0,0,3.8-3.39,10.37,10.37,0,0,0,2-2.91,2.46,2.46,0,0,0-.82-3.45,16.92,16.92,0,0,0-4-2.5c-3.94-1.71-7.92-3.3-11.87-4.87-5.74-2.23-11.52-4.38-17.23-6.71a33.86,33.86,0,0,1-5.48-3,8.85,8.85,0,0,1-2.36-2.24c-1.62-2.24-.91-4.56,1.68-5.48a8.52,8.52,0,0,1,3.18-.61c5,0,10,0,14.94.29,8.89.65,17.82,1.53,26.75,2.42a58.06,58.06,0,0,0,13.37-.12,44.62,44.62,0,0,0,15-4.63,76.6,76.6,0,0,0,12-7.86c5.39-4.36,10.78-8.81,17.17-12.35a6.54,6.54,0,0,0-.79-.85c-5.31-3.6-9.87-8-14.56-12.34-2.56-2.36-5.27-4.57-8-6.69-8.48-6.66-18.24-9.61-28.87-9.75-4.48,0-9,.09-13.43.09-8.78-.06-17.53,0-26.28-.09a41.32,41.32,0,0,1-6-.65,8.11,8.11,0,0,1-3-1.09,3.08,3.08,0,0,1-1.09-4.63,9,9,0,0,1,2.54-2.41,28.06,28.06,0,0,1,5.39-2.57c5.77-1.85,11.57-3.56,17.35-5.33,4.48-1.41,8.95-2.74,13.34-4.21a23.1,23.1,0,0,0,4.25-2.24,2.45,2.45,0,0,0,1.06-3.12A13.67,13.67,0,0,0,501,361.3c-1.06-1.3-2.36-2.42-3.5-3.62-4.84-5-9.73-10-14.44-15.15a111.38,111.38,0,0,1-10.9-13.81,40,40,0,0,1-4.71-9,17.76,17.76,0,0,1-1-8.22c.51-4,3.54-6.1,7.49-5.15a21.34,21.34,0,0,1,4.48,1.62,55.12,55.12,0,0,1,12.34,7.74c3.59,3.1,7.22,6.25,10.63,9.58,6.34,6.1,11.91,12.81,17.59,19.53,2.89,3.42,5.63,6.95,8.49,10.4a61.72,61.72,0,0,0,4.62,5.07c1.36,1.29,2.18,1.18,3-.47a30.6,30.6,0,0,0,1.91-5c1.27-4.36,2.39-8.81,3.65-13.2a171.75,171.75,0,0,1,10.73-28.13,64.56,64.56,0,0,1,10.25-15.29,27.18,27.18,0,0,1,14.49-8.4,17.08,17.08,0,0,1,5-.35,9.56,9.56,0,0,1,8,5.42,11.88,11.88,0,0,1,1.27,7.8,34.56,34.56,0,0,1-5.13,12.61c-1.76,2.77-3.68,5.42-5.59,8.13-3.18,4.45-6.4,8.87-9.58,13.35A73,73,0,0,0,563,349.52a60.57,60.57,0,0,0-4.71,15.93,53.46,53.46,0,0,0,.53,16.94,34.39,34.39,0,0,0,3.8,11.23,54.82,54.82,0,0,0,8.16,11c3.54,3.62,7.22,7.12,11.81,9.48a39.15,39.15,0,0,1,3.54,2.24c1.15.77,2.3,1.56,3.39,2.39C592,420.57,591.87,421.81,589.19,423Z"/>
      </g>
      <path d="M624.78,525.51c-16.26,0-36.09-64.9-20.45-92.48a23.37,23.37,0,0,0,39.6.48C658.07,461.35,645.2,525.51,624.78,525.51Z"/>
      <path d="M643.93,408.23a23.34,23.34,0,0,0-39.6.47c-15.64-27.57,4.19-92.47,20.45-92.47C645.2,316.23,658.07,380.42,643.93,408.23Z"/>
    </g>
    <g>
      <g>
        <path d="M385.06,727.72a8.07,8.07,0,0,1-2.39,2.27,35.81,35.81,0,0,1-5.48,3c-5.71,2.3-11.49,4.45-17.23,6.72-3.95,1.56-7.93,3.09-11.87,4.8a21.54,21.54,0,0,0-4,2.54,2.48,2.48,0,0,0-.83,3.44,11.13,11.13,0,0,0,2,2.92,40.44,40.44,0,0,0,3.74,3.42,220.41,220.41,0,0,1,21.45,19.88c2.41,2.63,4.74,5.36,6.92,8.19a46.76,46.76,0,0,1,3.47,5.25,18.87,18.87,0,0,1,2.63,7.54,10,10,0,0,1,.11,2.94c-.47,4-2.94,6-7,5.48a22.22,22.22,0,0,1-4.56-1.2,64.13,64.13,0,0,1-15.38-8.43,155.72,155.72,0,0,1-17.12-14.43c-6.42-6.4-12.75-12.88-19.09-19.36-1.44-1.47-2.88-3-4.36-4.48a7.26,7.26,0,0,0-3.44-2.15,7.84,7.84,0,0,0-1.18,1.45,23.11,23.11,0,0,0-1.74,6c-1.18,6-2.3,12.1-3.65,18.11a150.58,150.58,0,0,1-7.72,24.46,63.37,63.37,0,0,1-8.55,15,28.23,28.23,0,0,1-12.63,9.19,16.58,16.58,0,0,1-6.16,1.06,10.41,10.41,0,0,1-10.28-9.69,19,19,0,0,1,.41-5.92,38,38,0,0,1,4.21-10.81c2.36-4,4.78-8.05,7.19-12.05,2.12-3.6,4.33-7.13,6.39-10.78a69.15,69.15,0,0,0,8.19-22.28,54.71,54.71,0,0,0-.91-22.21c-1.86-8.16-6.27-14.79-12.37-20.3-4-3.68-8.46-7-12.73-10.34a39.47,39.47,0,0,0-8.45-5c-2.69-1.21-2.71-2.45-.3-4.25,1.12-.82,2.27-1.62,3.42-2.41a34.53,34.53,0,0,1,3.56-2.21c4.54-2.36,8.22-5.86,11.76-9.49a53.15,53.15,0,0,0,8.16-11,35.33,35.33,0,0,0,3.86-11.22,55.46,55.46,0,0,0,.47-16.91,61.43,61.43,0,0,0-4.66-16,71.24,71.24,0,0,0-7.18-12.69c-3.16-4.48-6.4-8.9-9.58-13.38-1.85-2.65-3.77-5.33-5.6-8.1a36,36,0,0,1-5.12-12.61,12,12,0,0,1,1.26-7.83,9.65,9.65,0,0,1,8.08-5.37,16.91,16.91,0,0,1,5,.36,26.64,26.64,0,0,1,14.49,8.33,63.33,63.33,0,0,1,10.25,15.35,164.32,164.32,0,0,1,10.72,28.08c1.27,4.39,2.39,8.84,3.66,13.25a31.35,31.35,0,0,0,1.91,5c.8,1.65,1.62,1.8,3,.47a66.5,66.5,0,0,0,4.59-5.06c2.86-3.48,5.6-7,8.49-10.43,5.68-6.69,11.28-13.43,17.58-19.5,3.48-3.3,7.05-6.48,10.67-9.61a55.5,55.5,0,0,1,12.37-7.72,22.46,22.46,0,0,1,4.48-1.65c3.89-.94,6.92,1.18,7.42,5.19a17.82,17.82,0,0,1-1,8.25,41.76,41.76,0,0,1-4.71,8.92,116.09,116.09,0,0,1-10.87,13.85c-4.75,5.13-9.64,10.08-14.5,15.08a50.45,50.45,0,0,0-3.47,3.69,12.3,12.3,0,0,0-1.86,3.35,2.37,2.37,0,0,0,1.09,3.1,23.22,23.22,0,0,0,4.18,2.21c4.39,1.5,8.87,2.86,13.35,4.21,5.77,1.83,11.64,3.51,17.38,5.39a25.77,25.77,0,0,1,5.36,2.54,7.5,7.5,0,0,1,2.57,2.44,3.13,3.13,0,0,1-1.09,4.63,9.41,9.41,0,0,1-3.07,1.06,33.68,33.68,0,0,1-5.92.61c-8.75.09-17.53.09-26.28.09-4.48,0-9-.11-13.46,0-10.64.12-20.39,3.1-28.87,9.7-2.74,2.12-5.45,4.36-8,6.71-4.69,4.3-9.28,8.75-14.59,12.32a9.63,9.63,0,0,0-.79.88c6.39,3.51,11.78,8,17.2,12.37a76.06,76.06,0,0,0,11.93,7.81,43.85,43.85,0,0,0,15,4.63,56.92,56.92,0,0,0,13.43.11c8.87-.82,17.79-1.73,26.75-2.38,4.92-.36,9.93-.27,14.91-.3a10.22,10.22,0,0,1,3.21.59C386,723.21,386.68,725.51,385.06,727.72Z"/>
        <path d="M182.55,701.8a41.06,41.06,0,0,0-8.42,5c-4.31,3.39-8.72,6.66-12.76,10.32-6.07,5.53-10.49,12.19-12.37,20.35a55.38,55.38,0,0,0-.92,22.21A72.1,72.1,0,0,0,156.27,782c2.07,3.62,4.28,7.16,6.46,10.75,2.35,4,4.77,8,7.15,12a38.51,38.51,0,0,1,4.19,10.78,18.34,18.34,0,0,1,.41,5.92,10.4,10.4,0,0,1-10.28,9.72,15.62,15.62,0,0,1-6.16-1.09A27.73,27.73,0,0,1,145.43,821a62.6,62.6,0,0,1-8.57-15,154.37,154.37,0,0,1-7.72-24.43c-1.32-6-2.41-12-3.65-18.11a20.51,20.51,0,0,0-1.74-6,9.71,9.71,0,0,0-1.18-1.45,7.14,7.14,0,0,0-3.42,2.18c-1.5,1.48-2.88,3-4.39,4.48-6.33,6.45-12.6,13-19.09,19.36a156.84,156.84,0,0,1-17,14.43,60.9,60.9,0,0,1-15.44,8.4,20.6,20.6,0,0,1-4.57,1.24c-4,.53-6.54-1.45-7-5.46a12.57,12.57,0,0,1,.12-3,21,21,0,0,1,2.62-7.54,58.88,58.88,0,0,1,3.48-5.25c2.24-2.76,4.51-5.53,6.95-8.13a225.52,225.52,0,0,1,21.42-19.94,45.1,45.1,0,0,0,3.8-3.39,10.59,10.59,0,0,0,2-2.91,2.47,2.47,0,0,0-.82-3.45,17.29,17.29,0,0,0-4-2.51c-3.95-1.7-7.92-3.3-11.87-4.86-5.75-2.24-11.52-4.39-17.23-6.71a33.86,33.86,0,0,1-5.48-3,8.85,8.85,0,0,1-2.36-2.24c-1.62-2.24-.91-4.56,1.68-5.48a8.53,8.53,0,0,1,3.18-.62c5,0,10,0,14.94.3,8.89.65,17.82,1.53,26.75,2.41a58.05,58.05,0,0,0,13.37-.11,44.5,44.5,0,0,0,15-4.63,76.69,76.69,0,0,0,12-7.86c5.39-4.36,10.78-8.81,17.17-12.35a5.91,5.91,0,0,0-.79-.85c-5.31-3.6-9.87-8-14.56-12.35-2.56-2.35-5.27-4.56-8-6.68-8.49-6.66-18.24-9.61-28.87-9.75-4.48,0-9,.08-13.44.08-8.77-.06-17.52,0-26.27-.08a41.32,41.32,0,0,1-5.95-.65,8,8,0,0,1-3-1.09,3.08,3.08,0,0,1-1.09-4.63,9.08,9.08,0,0,1,2.53-2.41,27.84,27.84,0,0,1,5.4-2.57c5.77-1.85,11.57-3.56,17.35-5.33,4.48-1.41,9-2.74,13.34-4.21a23.73,23.73,0,0,0,4.25-2.24,2.46,2.46,0,0,0,1.06-3.12,14,14,0,0,0-1.86-3.36c-1.06-1.3-2.36-2.42-3.51-3.63-4.83-5-9.72-10-14.43-15.14a111.38,111.38,0,0,1-10.9-13.81,40,40,0,0,1-4.72-9,17.89,17.89,0,0,1-1-8.22c.5-4,3.54-6.1,7.49-5.15a21.06,21.06,0,0,1,4.47,1.62,55,55,0,0,1,12.35,7.74c3.59,3.1,7.22,6.25,10.63,9.58,6.34,6.1,11.9,12.81,17.59,19.53,2.89,3.42,5.63,7,8.48,10.4a63.69,63.69,0,0,0,4.63,5.07c1.36,1.29,2.18,1.17,3-.48a30.85,30.85,0,0,0,1.91-5c1.27-4.36,2.39-8.81,3.65-13.2a172.2,172.2,0,0,1,10.73-28.14A65,65,0,0,1,154.92,577a27.16,27.16,0,0,1,14.49-8.39,17.08,17.08,0,0,1,5-.35,9.58,9.58,0,0,1,8,5.42,11.87,11.87,0,0,1,1.27,7.8,34.73,34.73,0,0,1-5.13,12.61c-1.76,2.77-3.68,5.42-5.59,8.13-3.19,4.45-6.4,8.87-9.58,13.35a72.92,72.92,0,0,0-7.13,12.72,60.64,60.64,0,0,0-4.71,15.94,53.47,53.47,0,0,0,.53,16.94,34.39,34.39,0,0,0,3.8,11.23,54.75,54.75,0,0,0,8.16,11c3.53,3.63,7.22,7.13,11.81,9.49a39.15,39.15,0,0,1,3.54,2.24c1.15.76,2.3,1.56,3.39,2.38C185.32,699.38,185.23,700.62,182.55,701.8Z"/>
      </g>
      <path d="M218.14,804.32c-16.26,0-36.09-64.9-20.45-92.48a23.36,23.36,0,0,0,39.6.47C251.43,740.15,238.55,804.32,218.14,804.32Z"/>
      <path d="M237.29,687a23.33,23.33,0,0,0-39.6.47C182.05,659.93,201.88,595,218.14,595,238.55,595,251.43,659.23,237.29,687Z"/>
    </g>
    <g>
      <g>
        <path d="M791.7,727.72a8,8,0,0,1-2.39,2.27,35.81,35.81,0,0,1-5.48,3c-5.71,2.3-11.49,4.45-17.23,6.72-4,1.56-7.93,3.09-11.87,4.8a21.54,21.54,0,0,0-4,2.54,2.47,2.47,0,0,0-.82,3.44,10.86,10.86,0,0,0,2,2.92,40.44,40.44,0,0,0,3.74,3.42,220.41,220.41,0,0,1,21.45,19.88c2.41,2.63,4.74,5.36,6.92,8.19a45.49,45.49,0,0,1,3.48,5.25,19,19,0,0,1,2.62,7.54,10,10,0,0,1,.12,2.94c-.48,4-3,6-7,5.48a22.22,22.22,0,0,1-4.56-1.2,64.13,64.13,0,0,1-15.38-8.43,155.72,155.72,0,0,1-17.12-14.43c-6.42-6.4-12.75-12.88-19.09-19.36-1.44-1.47-2.88-3-4.36-4.48a7.26,7.26,0,0,0-3.44-2.15,7.84,7.84,0,0,0-1.18,1.45,23.11,23.11,0,0,0-1.74,6c-1.18,6-2.3,12.1-3.65,18.11A150.58,150.58,0,0,1,705,806.06a63.68,63.68,0,0,1-8.54,15,28.25,28.25,0,0,1-12.64,9.19,16.58,16.58,0,0,1-6.16,1.06,10.41,10.41,0,0,1-10.28-9.69,19,19,0,0,1,.41-5.92A38.34,38.34,0,0,1,672,804.85c2.36-4,4.78-8.05,7.19-12.05,2.12-3.6,4.33-7.13,6.4-10.78a69.62,69.62,0,0,0,8.19-22.28,54.89,54.89,0,0,0-.92-22.21c-1.85-8.16-6.27-14.79-12.37-20.3-4-3.68-8.46-7-12.73-10.34a39.47,39.47,0,0,0-8.45-5c-2.68-1.21-2.71-2.45-.3-4.25,1.12-.82,2.27-1.62,3.42-2.41A34.53,34.53,0,0,1,666,693c4.54-2.36,8.22-5.86,11.76-9.49a53.15,53.15,0,0,0,8.16-11,35.33,35.33,0,0,0,3.86-11.22,55.14,55.14,0,0,0,.47-16.91,61.8,61.8,0,0,0-4.65-16,71.29,71.29,0,0,0-7.19-12.69c-3.16-4.48-6.4-8.9-9.58-13.38-1.85-2.65-3.77-5.33-5.59-8.1a35.86,35.86,0,0,1-5.13-12.61,12,12,0,0,1,1.27-7.83,9.62,9.62,0,0,1,8.07-5.37,16.88,16.88,0,0,1,5,.36,26.64,26.64,0,0,1,14.49,8.33,63.33,63.33,0,0,1,10.25,15.35,164.35,164.35,0,0,1,10.73,28.08c1.26,4.39,2.38,8.84,3.65,13.25a31.35,31.35,0,0,0,1.91,5c.8,1.65,1.62,1.8,3,.47a66.5,66.5,0,0,0,4.59-5.06c2.86-3.48,5.6-7,8.49-10.43,5.68-6.69,11.28-13.43,17.59-19.5,3.47-3.3,7-6.48,10.66-9.61a55.5,55.5,0,0,1,12.37-7.72,22.46,22.46,0,0,1,4.48-1.65c3.89-.94,6.92,1.18,7.43,5.19a17.83,17.83,0,0,1-1,8.25,41.32,41.32,0,0,1-4.71,8.92,115.08,115.08,0,0,1-10.87,13.85c-4.74,5.13-9.63,10.08-14.5,15.08-1.14,1.24-2.44,2.33-3.47,3.69a12.3,12.3,0,0,0-1.86,3.35,2.37,2.37,0,0,0,1.09,3.1,23,23,0,0,0,4.19,2.21c4.39,1.5,8.86,2.86,13.34,4.21,5.77,1.83,11.64,3.51,17.38,5.39a25.77,25.77,0,0,1,5.36,2.54,7.41,7.41,0,0,1,2.57,2.44,3.13,3.13,0,0,1-1.09,4.63,9.41,9.41,0,0,1-3.07,1.06,33.58,33.58,0,0,1-5.92.61c-8.75.09-17.53.09-26.28.09-4.47,0-9-.11-13.46,0-10.63.12-20.39,3.1-28.87,9.7-2.74,2.12-5.45,4.36-8,6.71-4.69,4.3-9.28,8.75-14.59,12.32a9.63,9.63,0,0,0-.79.88c6.39,3.51,11.78,8,17.2,12.37a76.06,76.06,0,0,0,11.93,7.81,43.92,43.92,0,0,0,15,4.63,56.92,56.92,0,0,0,13.43.11c8.87-.82,17.8-1.73,26.75-2.38,4.92-.36,9.93-.27,14.91-.3a10.22,10.22,0,0,1,3.21.59C792.61,723.21,793.32,725.51,791.7,727.72Z"/>
        <path d="M589.19,701.8a41.06,41.06,0,0,0-8.42,5c-4.3,3.39-8.72,6.66-12.76,10.32-6.07,5.53-10.49,12.19-12.37,20.35a55.2,55.2,0,0,0-.91,22.21A71.83,71.83,0,0,0,562.91,782c2.07,3.62,4.28,7.16,6.46,10.75,2.35,4,4.77,8,7.16,12a38.79,38.79,0,0,1,4.18,10.78,18.34,18.34,0,0,1,.41,5.92,10.4,10.4,0,0,1-10.28,9.72,15.66,15.66,0,0,1-6.16-1.09A27.73,27.73,0,0,1,552.07,821a62.6,62.6,0,0,1-8.57-15,154.37,154.37,0,0,1-7.72-24.43c-1.32-6-2.41-12-3.65-18.11a20.51,20.51,0,0,0-1.74-6,9.12,9.12,0,0,0-1.18-1.45,7.06,7.06,0,0,0-3.41,2.18c-1.51,1.48-2.89,3-4.39,4.48-6.34,6.45-12.61,13-19.09,19.36a157.91,157.91,0,0,1-17.06,14.43,60.9,60.9,0,0,1-15.44,8.4,20.67,20.67,0,0,1-4.56,1.24c-4,.53-6.54-1.45-7-5.46a13.12,13.12,0,0,1,.12-3,21.18,21.18,0,0,1,2.62-7.54,58.88,58.88,0,0,1,3.48-5.25c2.24-2.76,4.51-5.53,7-8.13a225.52,225.52,0,0,1,21.42-19.94,45.1,45.1,0,0,0,3.8-3.39,10.37,10.37,0,0,0,2-2.91,2.46,2.46,0,0,0-.82-3.45,17.29,17.29,0,0,0-4-2.51c-3.94-1.7-7.92-3.3-11.87-4.86-5.74-2.24-11.52-4.39-17.23-6.71a33.86,33.86,0,0,1-5.48-3,8.85,8.85,0,0,1-2.36-2.24c-1.62-2.24-.91-4.56,1.68-5.48a8.53,8.53,0,0,1,3.18-.62c5,0,10,0,14.94.3,8.89.65,17.82,1.53,26.75,2.41a58.05,58.05,0,0,0,13.37-.11,44.62,44.62,0,0,0,15-4.63,76.6,76.6,0,0,0,12-7.86c5.39-4.36,10.78-8.81,17.17-12.35a5.91,5.91,0,0,0-.79-.85c-5.31-3.6-9.87-8-14.56-12.35-2.56-2.35-5.27-4.56-8-6.68-8.48-6.66-18.24-9.61-28.87-9.75-4.48,0-9,.08-13.43.08-8.78-.06-17.53,0-26.28-.08a41.32,41.32,0,0,1-6-.65,8.11,8.11,0,0,1-3-1.09,3.08,3.08,0,0,1-1.09-4.63,9,9,0,0,1,2.54-2.41,27.48,27.48,0,0,1,5.39-2.57c5.77-1.85,11.57-3.56,17.35-5.33,4.48-1.41,8.95-2.74,13.34-4.21a23.73,23.73,0,0,0,4.25-2.24,2.46,2.46,0,0,0,1.06-3.12,13.67,13.67,0,0,0-1.86-3.36c-1.06-1.3-2.36-2.42-3.5-3.63-4.84-5-9.73-10-14.44-15.14a111.38,111.38,0,0,1-10.9-13.81,40,40,0,0,1-4.71-9,17.76,17.76,0,0,1-1-8.22c.51-4,3.54-6.1,7.49-5.15a21.34,21.34,0,0,1,4.48,1.62,55.12,55.12,0,0,1,12.34,7.74c3.59,3.1,7.22,6.25,10.63,9.58,6.34,6.1,11.91,12.81,17.59,19.53,2.89,3.42,5.63,7,8.49,10.4a61.72,61.72,0,0,0,4.62,5.07c1.36,1.29,2.18,1.17,3-.48a30.85,30.85,0,0,0,1.91-5c1.27-4.36,2.39-8.81,3.65-13.2a172.2,172.2,0,0,1,10.73-28.14A65,65,0,0,1,561.56,577a27.16,27.16,0,0,1,14.49-8.39,17.08,17.08,0,0,1,5-.35,9.56,9.56,0,0,1,8,5.42,11.87,11.87,0,0,1,1.27,7.8,34.56,34.56,0,0,1-5.13,12.61c-1.76,2.77-3.68,5.42-5.59,8.13-3.18,4.45-6.4,8.87-9.58,13.35A72.92,72.92,0,0,0,563,628.32a60.64,60.64,0,0,0-4.71,15.94,53.47,53.47,0,0,0,.53,16.94,34.39,34.39,0,0,0,3.8,11.23,54.75,54.75,0,0,0,8.16,11c3.54,3.63,7.22,7.13,11.81,9.49a39.15,39.15,0,0,1,3.54,2.24c1.15.76,2.3,1.56,3.39,2.38C592,699.38,591.87,700.62,589.19,701.8Z"/>
      </g>
      <path d="M624.78,804.32c-16.26,0-36.09-64.9-20.45-92.48a23.36,23.36,0,0,0,39.6.47C658.07,740.15,645.2,804.32,624.78,804.32Z"/>
      <path d="M643.93,687a23.33,23.33,0,0,0-39.6.47C588.69,659.93,608.52,595,624.78,595,645.2,595,658.07,659.23,643.93,687Z"/>
    </g>
  </g>
</svg>
