<svg id="Livello_1" data-name="Livello 1" xmlns="http://www.w3.org/2000/svg" viewBox="0 0 841.89 841.89">
  <defs>
    <style>
      .cls-1 {
        fill: #231f20;
      }
    </style>
  </defs>
  <title>Glos</title>
  <g>
    <path class="cls-1" d="M477.6,251.28a75.24,75.24,0,0,1-75.26,75.21h-1.55v78.15H322.7a75.26,75.26,0,0,1-150.51,0H94.09v-78.2a75.23,75.23,0,0,1,0-150.36V97.88h78.1a75.26,75.26,0,0,1,150.51,0h78.09V176h1.55A75.25,75.25,0,0,1,477.6,251.28Z"/>
    <path class="cls-1" d="M820.36,590.61a75.23,75.23,0,0,1-75.25,75.2h-1.55V744h-78.1A75.26,75.26,0,0,1,515,744h-78.1v-78.2a75.23,75.23,0,0,1,0-150.36V437.2H515a75.26,75.26,0,0,1,150.51,0h78.1v78.15h1.55A75.25,75.25,0,0,1,820.36,590.61Z"/>
  </g>
</svg>
