<svg id="Livello_1" data-name="Livello 1" xmlns="http://www.w3.org/2000/svg" viewBox="0 0 841.89 841.89">
  <title>Glos</title>
  <g>
    <path d="M177.35,130.15c0,19.32-11.93,28.95-27.6,28.81-9.77-.1-16.64-1.61-23.78-2.38v.09h-.08c.77,7.15,2.26,14,2.36,23.79.14,15.67-10,27.63-28.81,27.6-19.32,0-28.95-11.93-28.81-27.6.1-9.77,1.61-16.64,2.38-23.79h-.1v-.09c-7.14.77-14,2.28-23.79,2.38-15.67.14-27.62-9.49-27.59-28.81,0-18.77,11.92-28.95,27.59-28.81,9.77.09,16.65,1.59,23.79,2.36v-.08H73c-.77-7.14-2.28-14-2.38-23.79-.14-15.67,9.49-27.61,28.81-27.59,18.77,0,28.95,11.92,28.81,27.59-.1,9.77-1.59,16.65-2.36,23.79H126v.08c7.14-.77,14-2.27,23.78-2.36C165.42,101.2,177.38,111.38,177.35,130.15Z"/>
    <path d="M391.69,130.15c0,19.32-11.93,28.95-27.6,28.81-9.77-.1-16.64-1.61-23.79-2.38v.09h-.08c.77,7.15,2.27,14,2.36,23.79.15,15.67-10,27.63-28.8,27.6-19.32,0-28.95-11.93-28.81-27.6.09-9.77,1.6-16.64,2.37-23.79h-.09v-.09c-7.14.77-14,2.28-23.79,2.38-15.67.14-27.63-9.49-27.59-28.81,0-18.77,11.92-28.95,27.59-28.81,9.77.09,16.65,1.59,23.79,2.36v-.08h.09c-.77-7.14-2.28-14-2.37-23.79-.14-15.67,9.49-27.61,28.81-27.59,18.77,0,29,11.92,28.8,27.59-.09,9.77-1.59,16.65-2.36,23.79h.08v.08c7.15-.77,14-2.27,23.79-2.36C379.76,101.2,391.72,111.38,391.69,130.15Z"/>
    <path d="M606,130.15c0,19.32-11.92,28.95-27.59,28.81-9.77-.1-16.65-1.61-23.79-2.38v.09h-.08c.77,7.15,2.27,14,2.36,23.79.14,15.67-10,27.63-28.81,27.6-19.32,0-28.95-11.93-28.8-27.6.09-9.77,1.6-16.64,2.37-23.79h-.09v-.09c-7.15.77-14,2.28-23.79,2.38-15.67.14-27.63-9.49-27.6-28.81,0-18.77,11.93-28.95,27.6-28.81,9.77.09,16.64,1.59,23.79,2.36v-.08h.09c-.77-7.14-2.28-14-2.37-23.79-.15-15.67,9.48-27.61,28.8-27.59,18.77,0,28.95,11.92,28.81,27.59-.09,9.77-1.59,16.65-2.36,23.79h.08v.08c7.14-.77,14-2.27,23.79-2.36C594.1,101.2,606.06,111.38,606,130.15Z"/>
    <path d="M820.36,130.15c0,19.32-11.92,28.95-27.59,28.81-9.77-.1-16.65-1.61-23.79-2.38v.09h-.08c.77,7.15,2.26,14,2.36,23.79.14,15.67-10,27.63-28.81,27.6-19.32,0-29-11.93-28.81-27.6.1-9.77,1.61-16.64,2.38-23.79h-.1v-.09c-7.14.77-14,2.28-23.78,2.38-15.67.14-27.63-9.49-27.6-28.81,0-18.77,11.93-28.95,27.6-28.81,9.77.09,16.64,1.59,23.78,2.36v-.08h.1c-.77-7.14-2.28-14-2.38-23.79-.14-15.67,9.49-27.61,28.81-27.59,18.77,0,28.95,11.92,28.81,27.59-.1,9.77-1.59,16.65-2.36,23.79H769v.08c7.14-.77,14-2.27,23.79-2.36C808.44,101.2,820.39,111.38,820.36,130.15Z"/>
    <path d="M177.35,320.93c0,19.32-11.93,28.95-27.6,28.81-9.77-.1-16.64-1.61-23.78-2.38v.09h-.08c.77,7.15,2.26,14,2.36,23.79.14,15.67-10,27.63-28.81,27.6-19.32,0-28.95-11.93-28.81-27.6.1-9.77,1.61-16.64,2.38-23.79h-.1v-.09c-7.14.77-14,2.28-23.79,2.38-15.67.14-27.62-9.49-27.59-28.81,0-18.77,11.92-28.95,27.59-28.81,9.77.1,16.65,1.59,23.79,2.36v-.08H73c-.77-7.14-2.28-14-2.38-23.79C70.49,254.94,80.12,243,99.44,243c18.77,0,28.95,11.92,28.81,27.59-.1,9.77-1.59,16.65-2.36,23.79H126v.08c7.14-.77,14-2.26,23.78-2.36C165.42,292,177.38,302.16,177.35,320.93Z"/>
    <path d="M391.69,320.93c0,19.32-11.93,28.95-27.6,28.81-9.77-.1-16.64-1.61-23.79-2.38v.09h-.08c.77,7.15,2.27,14,2.36,23.79.15,15.67-10,27.63-28.8,27.6-19.32,0-28.95-11.93-28.81-27.6.09-9.77,1.6-16.64,2.37-23.79h-.09v-.09c-7.14.77-14,2.28-23.79,2.38-15.67.14-27.63-9.49-27.59-28.81,0-18.77,11.92-28.95,27.59-28.81,9.77.1,16.65,1.59,23.79,2.36v-.08h.09c-.77-7.14-2.28-14-2.37-23.79-.14-15.67,9.49-27.61,28.81-27.59,18.77,0,29,11.92,28.8,27.59-.09,9.77-1.59,16.65-2.36,23.79h.08v.08c7.15-.77,14-2.26,23.79-2.36C379.76,292,391.72,302.16,391.69,320.93Z"/>
    <path d="M606,320.93c0,19.32-11.92,28.95-27.59,28.81-9.77-.1-16.65-1.61-23.79-2.38v.09h-.08c.77,7.15,2.27,14,2.36,23.79.14,15.67-10,27.63-28.81,27.6-19.32,0-28.95-11.93-28.8-27.6.09-9.77,1.6-16.64,2.37-23.79h-.09v-.09c-7.15.77-14,2.28-23.79,2.38-15.67.14-27.63-9.49-27.6-28.81,0-18.77,11.93-28.95,27.6-28.81,9.77.1,16.64,1.59,23.79,2.36v-.08h.09c-.77-7.14-2.28-14-2.37-23.79-.15-15.67,9.48-27.61,28.8-27.59,18.77,0,28.95,11.92,28.81,27.59-.09,9.77-1.59,16.65-2.36,23.79h.08v.08c7.14-.77,14-2.26,23.79-2.36C594.1,292,606.06,302.16,606,320.93Z"/>
    <path d="M820.36,320.93c0,19.32-11.92,28.95-27.59,28.81-9.77-.1-16.65-1.61-23.79-2.38v.09h-.08c.77,7.15,2.26,14,2.36,23.79.14,15.67-10,27.63-28.81,27.6-19.32,0-29-11.93-28.81-27.6.1-9.77,1.61-16.64,2.38-23.79h-.1v-.09c-7.14.77-14,2.28-23.78,2.38-15.67.14-27.63-9.49-27.6-28.81,0-18.77,11.93-28.95,27.6-28.81,9.77.1,16.64,1.59,23.78,2.36v-.08h.1c-.77-7.14-2.28-14-2.38-23.79-.14-15.67,9.49-27.61,28.81-27.59,18.77,0,28.95,11.92,28.81,27.59-.1,9.77-1.59,16.65-2.36,23.79H769v.08c7.14-.77,14-2.26,23.79-2.36C808.44,292,820.39,302.16,820.36,320.93Z"/>
    <path d="M177.35,511.71c0,19.32-11.93,28.95-27.6,28.81-9.77-.1-16.64-1.61-23.78-2.38v.1h-.08c.77,7.14,2.26,14,2.36,23.78.14,15.67-10,27.63-28.81,27.6-19.32,0-28.95-11.93-28.81-27.6.1-9.77,1.61-16.64,2.38-23.78h-.1v-.1c-7.14.77-14,2.28-23.79,2.38-15.67.14-27.62-9.49-27.59-28.81,0-18.77,11.92-28.95,27.59-28.81,9.77.1,16.65,1.59,23.79,2.36v-.08H73c-.77-7.14-2.28-14-2.38-23.79-.14-15.67,9.49-27.61,28.81-27.59,18.77,0,28.95,11.92,28.81,27.59-.1,9.77-1.59,16.65-2.36,23.79H126v.08c7.14-.77,14-2.26,23.78-2.36C165.42,482.76,177.38,492.94,177.35,511.71Z"/>
    <path d="M391.69,511.71c0,19.32-11.93,28.95-27.6,28.81-9.77-.1-16.64-1.61-23.79-2.38v.1h-.08c.77,7.14,2.27,14,2.36,23.78.15,15.67-10,27.63-28.8,27.6-19.32,0-28.95-11.93-28.81-27.6.09-9.77,1.6-16.64,2.37-23.78h-.09v-.1c-7.14.77-14,2.28-23.79,2.38-15.67.14-27.63-9.49-27.59-28.81,0-18.77,11.92-28.95,27.59-28.81,9.77.1,16.65,1.59,23.79,2.36v-.08h.09c-.77-7.14-2.28-14-2.37-23.79-.14-15.67,9.49-27.61,28.81-27.59,18.77,0,29,11.92,28.8,27.59-.09,9.77-1.59,16.65-2.36,23.79h.08v.08c7.15-.77,14-2.26,23.79-2.36C379.76,482.76,391.72,492.94,391.69,511.71Z"/>
    <path d="M606,511.71c0,19.32-11.92,28.95-27.59,28.81-9.77-.1-16.65-1.61-23.79-2.38v.1h-.08c.77,7.14,2.27,14,2.36,23.78.14,15.67-10,27.63-28.81,27.6-19.32,0-28.95-11.93-28.8-27.6.09-9.77,1.6-16.64,2.37-23.78h-.09v-.1c-7.15.77-14,2.28-23.79,2.38-15.67.14-27.63-9.49-27.6-28.81,0-18.77,11.93-28.95,27.6-28.81,9.77.1,16.64,1.59,23.79,2.36v-.08h.09c-.77-7.14-2.28-14-2.37-23.79-.15-15.67,9.48-27.61,28.8-27.59,18.77,0,28.95,11.92,28.81,27.59-.09,9.77-1.59,16.65-2.36,23.79h.08v.08c7.14-.77,14-2.26,23.79-2.36C594.1,482.76,606.06,492.94,606,511.71Z"/>
    <path d="M820.36,511.71c0,19.32-11.92,28.95-27.59,28.81-9.77-.1-16.65-1.61-23.79-2.38v.1h-.08c.77,7.14,2.26,14,2.36,23.78.14,15.67-10,27.63-28.81,27.6-19.32,0-29-11.93-28.81-27.6.1-9.77,1.61-16.64,2.38-23.78h-.1v-.1c-7.14.77-14,2.28-23.78,2.38-15.67.14-27.63-9.49-27.6-28.81,0-18.77,11.93-28.95,27.6-28.81,9.77.1,16.64,1.59,23.78,2.36v-.08h.1c-.77-7.14-2.28-14-2.38-23.79-.14-15.67,9.49-27.61,28.81-27.59,18.77,0,28.95,11.92,28.81,27.59-.1,9.77-1.59,16.65-2.36,23.79H769v.08c7.14-.77,14-2.26,23.79-2.36C808.44,482.76,820.39,492.94,820.36,511.71Z"/>
    <path d="M177.35,711.74c0,19.32-11.93,29-27.6,28.81-9.77-.1-16.64-1.61-23.78-2.38v.1h-.08c.77,7.14,2.26,14,2.36,23.79.14,15.67-10,27.62-28.81,27.59-19.32,0-28.95-11.92-28.81-27.59.1-9.77,1.61-16.65,2.38-23.79h-.1v-.1c-7.14.77-14,2.28-23.79,2.38-15.67.14-27.62-9.49-27.59-28.81,0-18.77,11.92-29,27.59-28.81,9.77.1,16.65,1.59,23.79,2.36v-.07H73c-.77-7.15-2.28-14-2.38-23.79-.14-15.67,9.49-27.61,28.81-27.6,18.77,0,28.95,11.93,28.81,27.6-.1,9.77-1.59,16.64-2.36,23.79H126v.07c7.14-.77,14-2.26,23.78-2.36C165.42,682.79,177.38,693,177.35,711.74Z"/>
    <path d="M391.69,711.74c0,19.32-11.93,29-27.6,28.81-9.77-.1-16.64-1.61-23.79-2.38v.1h-.08c.77,7.14,2.27,14,2.36,23.79.15,15.67-10,27.62-28.8,27.59-19.32,0-28.95-11.92-28.81-27.59.09-9.77,1.6-16.65,2.37-23.79h-.09v-.1c-7.14.77-14,2.28-23.79,2.38-15.67.14-27.63-9.49-27.59-28.81,0-18.77,11.92-29,27.59-28.81,9.77.1,16.65,1.59,23.79,2.36v-.07h.09c-.77-7.15-2.28-14-2.37-23.79-.14-15.67,9.49-27.61,28.81-27.6,18.77,0,29,11.93,28.8,27.6-.09,9.77-1.59,16.64-2.36,23.79h.08v.07c7.15-.77,14-2.26,23.79-2.36C379.76,682.79,391.72,693,391.69,711.74Z"/>
    <path d="M606,711.74c0,19.32-11.92,29-27.59,28.81-9.77-.1-16.65-1.61-23.79-2.38v.1h-.08c.77,7.14,2.27,14,2.36,23.79.14,15.67-10,27.62-28.81,27.59-19.32,0-28.95-11.92-28.8-27.59.09-9.77,1.6-16.65,2.37-23.79h-.09v-.1c-7.15.77-14,2.28-23.79,2.38-15.67.14-27.63-9.49-27.6-28.81,0-18.77,11.93-29,27.6-28.81,9.77.1,16.64,1.59,23.79,2.36v-.07h.09c-.77-7.15-2.28-14-2.37-23.79-.15-15.67,9.48-27.61,28.8-27.6,18.77,0,28.95,11.93,28.81,27.6-.09,9.77-1.59,16.64-2.36,23.79h.08v.07c7.14-.77,14-2.26,23.79-2.36C594.1,682.79,606.06,693,606,711.74Z"/>
    <path d="M820.36,711.74c0,19.32-11.92,29-27.59,28.81-9.77-.1-16.65-1.61-23.79-2.38v.1h-.08c.77,7.14,2.26,14,2.36,23.79.14,15.67-10,27.62-28.81,27.59-19.32,0-29-11.92-28.81-27.59.1-9.77,1.61-16.65,2.38-23.79h-.1v-.1c-7.14.77-14,2.28-23.78,2.38-15.67.14-27.63-9.49-27.6-28.81,0-18.77,11.93-29,27.6-28.81,9.77.1,16.64,1.59,23.78,2.36v-.07h.1c-.77-7.15-2.28-14-2.38-23.79-.14-15.67,9.49-27.61,28.81-27.6,18.77,0,28.95,11.93,28.81,27.6-.1,9.77-1.59,16.64-2.36,23.79H769v.07c7.14-.77,14-2.26,23.79-2.36C808.44,682.79,820.39,693,820.36,711.74Z"/>
  </g>
</svg>
