<svg id="Livello_1" data-name="Livello 1" xmlns="http://www.w3.org/2000/svg" viewBox="0 0 841.89 841.89">
  <title>Glos</title>
  <g>
    <g>
      <path d="M413.91,118.26v222a80.88,80.88,0,0,0-44.08,17.89L201.11,182S179.33,80.73,297,62.22C381.17,49,413.91,118.26,413.91,118.26Z"/>
      <path d="M640.8,182,472.08,358.17a80.92,80.92,0,0,0-44.16-17.89v-222s32.82-69.28,117-56C662.5,80.73,640.8,182,640.8,182Z"/>
    </g>
    <g>
      <path d="M358.18,472.07,182,640.79S80.73,662.49,62.23,544.86c-13.32-84.13,56-116.95,56-116.95h222A80.81,80.81,0,0,0,358.18,472.07Z"/>
      <path d="M358.18,369.82A79.78,79.78,0,0,0,340.29,414h-222s-69.36-32.82-56-117C80.73,179.4,182,201.1,182,201.1Z"/>
    </g>
    <g>
      <path d="M544.87,779.67c-84.13,13.24-116.95-56-116.95-56v-222a80.92,80.92,0,0,0,44.16-17.89L640.8,659.9S662.5,761.16,544.87,779.67Z"/>
      <path d="M413.91,501.61v222s-32.74,69.28-116.87,56C179.33,761.16,201.11,659.9,201.11,659.9L369.83,483.72A80.88,80.88,0,0,0,413.91,501.61Z"/>
    </g>
    <g>
      <path d="M723.56,414H501.62a79.78,79.78,0,0,0-17.89-44.16L659.91,201.1S761.17,179.4,779.68,297C792.92,381.16,723.56,414,723.56,414Z"/>
      <path d="M779.68,544.86c-18.51,117.63-119.77,95.93-119.77,95.93L483.73,472.07a80.89,80.89,0,0,0,17.89-44.16H723.56S792.92,460.73,779.68,544.86Z"/>
    </g>
  </g>
</svg>
