<svg id="Livello_1" data-name="Livello 1" xmlns="http://www.w3.org/2000/svg" viewBox="0 0 841.89 841.89">
  <defs>
    <style>
      .cls-1 {
        fill: #231f20;
      }
    </style>
  </defs>
  <title>Glos</title>
  <g>
    <g>
      <path class="cls-1" d="M500.52,210.05c-20.31-10.82-43.33-16.37-56.92-12.43-7.09,2-19.81,19.37-22.22,22.73-.29.37-.44.59-.44.59s-.14-.22-.43-.59c-2.41-3.36-15.13-20.68-22.22-22.73-13.59-3.94-36.54,1.61-56.92,12.43-20.47-40-39.32-81.19-35.52-91.42,15.49-41.43,115.09-44,115.09-44s99.61,2.56,115.1,44C539.84,128.86,521,170.07,500.52,210.05Z"/>
      <path class="cls-1" d="M197.7,443.6c-3.95,13.59,1.61,36.54,12.35,56.92-40,20.47-81.19,39.32-91.42,35.52-41.44-15.49-44-115.1-44-115.1s2.55-99.6,44-115.09c10.23-3.8,51.44,15,91.42,35.51-10.74,20.32-16.3,43.34-12.35,56.93,2,7.09,19.36,19.8,22.72,22.22.37.29.59.43.59.43s-.22.15-.59.44C217.06,423.79,199.74,436.51,197.7,443.6Z"/>
      <path class="cls-1" d="M382.66,461.22h-.14a598.07,598.07,0,0,0-47.5,53c-17.62,22.51-33.84,47.87-35.3,66.5a27.27,27.27,0,0,0,.37,8.19c2.63,13,14,25.5,28.64,35.36-14,43.48-30.18,87.26-40.19,91.86C248.27,734.45,176,665.76,176,665.76s-68.62-72.2-50.27-112.46c4.6-10,48.37-26.24,91.85-40.19,9.87,14.54,22.36,26,35.37,28.64a27.59,27.59,0,0,0,8.19.37c18.63-1.47,44-17.69,66.5-35.3a598.07,598.07,0,0,0,53-47.5v-.14C381.27,459.91,382,460.56,382.66,461.22Z"/>
      <path class="cls-1" d="M536,723.26c-15.49,41.43-115.1,44-115.1,44s-99.6-2.56-115.09-44c-3.8-10.23,15-51.44,35.52-91.42,20.31,10.74,43.33,16.3,56.92,12.35,7.09-2,19.81-19.36,22.22-22.72.29-.37.43-.59.43-.59s.15.22.44.59c2.41,3.36,15.13,20.68,22.22,22.72,13.59,3.95,36.54-1.61,56.92-12.35C521,671.82,539.84,713,536,723.26Z"/>
      <path class="cls-1" d="M767.25,420.94s-2.56,99.61-44,115.1c-10.23,3.8-51.44-15-91.42-35.52,10.82-20.31,16.37-43.33,12.43-56.92-2-7.09-19.37-19.81-22.73-22.22-.37-.29-.59-.44-.59-.44s.22-.14.59-.43c3.36-2.42,20.68-15.13,22.73-22.22,3.94-13.59-1.61-36.54-12.43-56.93,40-20.46,81.19-39.31,91.42-35.51C764.69,321.34,767.25,420.94,767.25,420.94Z"/>
    </g>
    <path class="cls-1" d="M220.42,420.51c.37.29.59.43.59.43s-.22.15-.59.44Z"/>
    <path class="cls-1" d="M420.94,220.94s-.14-.22-.43-.59h.87C421.09,220.72,420.94,220.94,420.94,220.94Z"/>
    <path class="cls-1" d="M621.11,420.81c-.07.15-.15.15-.15.15h-.07s.07,0,.15.14h.07c.07.08.22.15.36.29v-.87C621.33,420.66,621.18,420.74,621.11,420.81ZM420.88,621c-.07,0-.07,0-.07.07s-.22.29-.37.44h.88A3.75,3.75,0,0,0,420.88,621Z"/>
    <path class="cls-1" d="M665.76,665.76s-72.2,68.69-112.47,50.35c-10-4.6-26.3-48.45-40.19-91.93,14.54-9.86,25.94-22.29,28.58-35.29a27.61,27.61,0,0,0,.36-8.19c-1.46-18.63-17.61-43.92-35.29-66.43a592.42,592.42,0,0,0-47.5-53h-.15c.73-.66,1.46-1.39,2.12-2.12v.22a598.07,598.07,0,0,0,53,47.5c22.51,17.61,47.86,33.83,66.5,35.3a27.54,27.54,0,0,0,8.18-.37c13-2.63,25.51-14,35.37-28.64,43.41,13.95,87.18,30.18,91.78,40.19C734.38,593.56,665.76,665.76,665.76,665.76Z"/>
    <path class="cls-1" d="M716,288.54c-4.6,10.09-48.44,26.31-91.85,40.19-9.87-14.54-22.29-25.94-35.3-28.57a27.22,27.22,0,0,0-8.18-.36c-18.64,1.46-43.92,17.61-66.43,35.29a592.42,592.42,0,0,0-53,47.5v.15c-.66-.73-1.39-1.46-2.12-2.12h.15a592.42,592.42,0,0,0,47.5-53.05c17.68-22.51,33.83-47.8,35.29-66.43a27.61,27.61,0,0,0-.36-8.19c-2.64-13-14-25.5-28.58-35.36,14-43.41,30.18-87.18,40.19-91.79,40.27-18.34,112.47,50.28,112.47,50.28S734.38,248.28,716,288.54Z"/>
    <path class="cls-1" d="M380.62,382.66v-.07a593.4,593.4,0,0,0-53.06-47.5c-22.5-17.68-47.79-33.83-66.42-35.29a27.27,27.27,0,0,0-8.19.36c-13,2.63-25.5,14-35.37,28.57-43.48-14-87.25-30.1-91.85-40.19C107.38,248.28,176,176.08,176,176.08s72.27-68.62,112.54-50.28c10,4.61,26.23,48.38,40.19,91.79-14.54,9.86-26,22.36-28.64,35.36a27.27,27.27,0,0,0-.37,8.19c1.46,18.63,17.68,44,35.3,66.5a598.07,598.07,0,0,0,47.5,53h.14C382,381.28,381.27,381.93,380.62,382.66Z"/>
  </g>
</svg>
