<svg id="Livello_1" data-name="Livello 1" xmlns="http://www.w3.org/2000/svg" viewBox="0 0 841.89 841.89">
  <title>Glos</title>
  <g>
    <path d="M420.94,325.5s-64.59-145.2,0-145.1C485.54,180.3,420.94,325.5,420.94,325.5Z"/>
    <path d="M353.45,353.45s-148.34-57-102.59-102.59C296.46,205.11,353.45,353.45,353.45,353.45Z"/>
    <path d="M325.5,420.94s-145.2,64.6-145.1,0C180.3,356.35,325.5,420.94,325.5,420.94Z"/>
    <path d="M353.45,488.44S296.46,636.78,250.86,591C205.11,545.43,353.45,488.44,353.45,488.44Z"/>
    <path d="M420.94,516.39s64.6,145.2,0,145.1C356.35,661.59,420.94,516.39,420.94,516.39Z"/>
    <path d="M488.44,488.44S636.78,545.43,591,591,488.44,488.44,488.44,488.44Z"/>
    <path d="M516.39,420.94s145.2-64.59,145.1,0C661.59,485.54,516.39,420.94,516.39,420.94Z"/>
    <path d="M488.44,353.45s57-148.34,102.59-102.59C636.78,296.46,488.44,353.45,488.44,353.45Z"/>
    <circle cx="420.94" cy="420.94" r="84.6"/>
    <path d="M374.24,316.05S179.46,114.22,286.65,75.4C393.71,36.23,374.24,316.05,374.24,316.05Z"/>
    <path d="M313.75,379.8s-280.45-5-232.11-108.23C129.66,168.17,313.75,379.8,313.75,379.8Z"/>
    <path d="M316.05,467.65S114.22,662.43,75.4,555.24C36.23,448.18,316.05,467.65,316.05,467.65Z"/>
    <path d="M379.8,528.14s-5,280.45-108.23,232.11C168.17,712.23,379.8,528.14,379.8,528.14Z"/>
    <path d="M467.65,525.84s194.78,201.83,87.59,240.65C448.18,805.66,467.65,525.84,467.65,525.84Z"/>
    <path d="M528.14,462.09s280.45,5,232.11,108.23C712.23,673.72,528.14,462.09,528.14,462.09Z"/>
    <path d="M525.84,374.24s201.83-194.78,240.65-87.59C805.66,393.71,525.84,374.24,525.84,374.24Z"/>
    <path d="M462.09,313.75s5-280.45,108.23-232.11C673.72,129.66,462.09,313.75,462.09,313.75Z"/>
  </g>
</svg>
