<svg id="Livello_1" data-name="Livello 1" xmlns="http://www.w3.org/2000/svg" viewBox="0 0 841.89 841.89">
  <title>Glos</title>
  <g>
    <g>
      <path d="M413,80.3V330.16a91,91,0,0,0-49.61,20.14L173.54,152S149,38.05,281.5,17.23C376.18,2.32,413,80.3,413,80.3Z"/>
      <path d="M668.38,152,478.49,350.3a91,91,0,0,0-49.69-20.14V80.3s36.93-78,131.61-63.07C692.8,38.05,668.38,152,668.38,152Z"/>
    </g>
    <g>
      <path d="M350.31,478.48,152,668.36s-114,24.43-134.79-108c-15-94.68,63.07-131.61,63.07-131.61H330.17A91,91,0,0,0,350.31,478.48Z"/>
      <path d="M350.31,363.41a89.77,89.77,0,0,0-20.14,49.69H80.31S2.25,376.17,17.24,281.49C38.07,149.1,152,173.53,152,173.53Z"/>
    </g>
    <g>
      <path d="M560.41,824.66c-94.68,14.91-131.61-63.07-131.61-63.07V511.73a91,91,0,0,0,49.69-20.14L668.38,689.87S692.8,803.83,560.41,824.66Z"/>
      <path d="M413,511.73V761.59s-36.85,78-131.53,63.07c-132.47-20.83-108-134.79-108-134.79L363.42,491.59A91,91,0,0,0,413,511.73Z"/>
    </g>
    <g>
      <path d="M761.52,413.1H511.74a89.77,89.77,0,0,0-20.14-49.69L689.88,173.53s114-24.43,134.79,108C839.58,376.17,761.52,413.1,761.52,413.1Z"/>
      <path d="M824.67,560.4c-20.82,132.39-134.79,108-134.79,108L491.6,478.48a91,91,0,0,0,20.14-49.69H761.52S839.58,465.72,824.67,560.4Z"/>
    </g>
  </g>
</svg>
