<svg id="Livello_1" data-name="Livello 1" xmlns="http://www.w3.org/2000/svg" viewBox="0 0 841.89 841.89">
  <defs>
    <style>
      .cls-1 {
        fill: #231f20;
      }
    </style>
  </defs>
  <title>Glos</title>
  <g>
    <path class="cls-1" d="M353.26,495c-19.77-46-102.44-65.69-124.61-130.33,0,0,81.51-48.07,79.14-163.95S191.43,65.92,136.86,96.17c0,0-35.77-81.1-94.72-33.36S29.81,183.63,49.87,214.35c11,16.86,34.73,30.48,94.46,14.77s4,17.62,44.18,12.3c14.42-6.87.15-56.92-32.24-65,0,0,46.75-64.37,69.4,43S47.73,272.33,46.29,402.85,198.77,476.5,254.74,562.42c25,40.16-1.83,81.23-1.83,81.23l-54.6-73.56,27.82,3.2s-11.83-46.42-82.59-56.5c-28.61-4.08-50-19.94-50-19.94s9.93,128.8-9.36,146.57C58,667.54,35,612.48,35,612.48s-31.82,84.28,67.37,67.63c0,0,31.8,46.95-49.51,51.11,0,0,40.81,65.46,92.77,33.89,37-22.5,18.54-118.21,18.54-118.21s21,100.19,49.45,121C312.34,839.89,400.08,603.89,353.26,495Z"/>
    <path class="cls-1" d="M545.43,794.13h-249s132.24-153.85,68.16-301.65l2.85-336.3H474.5l2.85,336.3C413.27,640.28,545.43,794.13,545.43,794.13Z"/>
    <path class="cls-1" d="M488.63,495c19.77-46,102.44-65.69,124.61-130.33,0,0-81.51-48.07-79.14-163.95S650.46,65.92,705,96.17c0,0,35.77-81.1,94.72-33.36S812.08,183.63,792,214.35c-11,16.86-34.73,30.48-94.46,14.77s-4,17.62-44.18,12.3c-14.42-6.87-.15-56.92,32.24-65,0,0-46.75-64.37-69.4,43S794.15,272.33,795.6,402.85,643.12,476.5,587.15,562.42c-25,40.16,1.83,81.23,1.83,81.23l54.6-73.56-27.82,3.2s11.83-46.42,82.59-56.5c28.61-4.08,50-19.94,50-19.94s-9.93,128.8,9.36,146.57c26.17,24.12,49.21-30.94,49.21-30.94s31.82,84.28-67.37,67.63c0,0-31.8,46.95,49.51,51.11,0,0-40.81,65.46-92.77,33.89-37-22.5-18.54-118.21-18.54-118.21s-21,100.19-49.45,121C529.55,839.89,441.81,603.89,488.63,495Z"/>
    <path class="cls-1" d="M499.21,118.23l-2.4,5.07a30.35,30.35,0,0,1-27.28,17.06H372.39A30.36,30.36,0,0,1,345.1,123.3l-2.49-5.07Z"/>
  </g>
</svg>
