<svg id="Livello_1" data-name="Livello 1" xmlns="http://www.w3.org/2000/svg" viewBox="0 0 841.89 841.89">
  <defs>
    <style>
      .cls-1 {
        fill: #231f20;
      }
    </style>
  </defs>
  <title>Glos</title>
  <path class="cls-1" d="M441.24,14.78a23.52,23.52,0,0,1,3.69,8.34c4.7,16.69-2.92,24.46-4.19,40-2.19,26.77,14.43,36.45,18.06,59.62,6.58,42-28.71,75.68-12.18,119,1.43,3.76,6.82,8.66,7.29,13,.71,6.47-1.17,9-.68,13.11.42,3.57,2.68,10.08,6.12,12.14a3.4,3.4,0,0,0,4.7-4.51c-1.23-2.41-3.62-4.32-4.13-7.58-1.59-10.11,4.92-23.24,11.51-30.69,3.93-4.44,7.95-4.42,10.34-8.9,2.15-4,4.32-13.19,5.33-17.76,3.57-16.11.45-26.88,15.07-38.8,7.09-5.78,28.12-16.35,29.77-.84,1.76,16.59-17.57,22.07-11.77,44.43,1,4,4.26,8.45,4.88,11.47,3.22,15.73-10.28,37.85-25.74,42.13-2.7.75-5.61.09-8.08,1a3.45,3.45,0,0,0-2.26,3.78c1,5.72,14.69.67,19-1,17.33-6.8,18.67-14.5,30.55-23.58,2.86-2.18,8.68-3.23,12.13-4.92,25.45-12.45,25.65-42.88,49-54.87,24.45-12.54,45.73.29,71.34-21,6.88-5.73,12-16,20.88-18.56,10.55-3,28.21.23,33.66,10.69a6.64,6.64,0,0,1-4.87,9.55c-6.25,1-12.46,1-16.87,7.07-5.68,7.74-8.94,17.09-16,25.4-19.4,22.91-45.71,23.49-62,43.78-13.59,16.91-4.48,32.34-29,45.09-11.48,6-26.37,7.72-36.4,15.55-10.61,8.3-19.75,23-23.47,35.85.81,2.16,3.72,3.57,5.71,2.18,1.59-1.11,7-16.11,12.31-23.35a8.51,8.51,0,0,1,7.24-3.47c10.37.47,22.22-.87,31.63-4.73,13.09-5.37,19-18.36,34.87-20,15.67-1.57,25.2,7.77,38.47,7.69,8.17-.06,25.09-6.53,31.55-4.61,6,1.79,0,15.77-2.37,19.36-10.57,15.77-39.92,8.78-56.6,13.62-21.31,6.18-31.73,26.39-50.48,34.18-4.2,1.75-20.14,3-15.47,9.66,1.48,2.12,13.32-1.53,15.91-2.49,6.06-2.26,15-9.66,20.9-11.8,8.88-3.23,18.67-.07,25.13,1.41,30.9,7,40.53,31.18,79.53,31.18,23.8,0,34.69-11.53,58.11,5.29,7.19,5.16,18.94,22.08,26.56,22.59,4.74.31,11.14-3.94,13.5,3.72,3.13,10.18-5.46,20.26-15.44,21.22-10.85,1.05-13.39-6.11-21.94-9.8-25.29-10.93-56.76,6.9-83.88,5.94-33.91-1.2-50.26-29.29-88.54-26-9.9.85-13.23,4.77-21.07,7.78-3.95,1.51-8.43,1.68-12.75,3.61-3,1.35-12.23,6.51-9,10.36,3.41,4.11,6-1,8.41-2.32,14.65-8.09,31.26-5.53,46.2.63,20.51,8.45,30.48,28.76,50,38.53,2.73,1.37,5.88,1.85,9,3.47,13.82,7.11,24.28,19,22,35.52-2.71,19.89-18.18-1.76-24.92-4.72-7-3.08-11.85-1.68-18.66-2.51-14.74-1.8-25.86-18.59-45.43-21.9s-23.46-2.25-38.91-15.95a9.89,9.89,0,0,1-2.52-3.44c-1.67-2.33-5.32.14-5.12,3.32.41,6.19,16.38,13.84,20.74,17.83C587.23,490,598.82,507,602.4,514c8,15.63,5.29,28.66,18.57,43,15.95,17.22,40,19.32,50.7,41.66,6.75,14.16,9,34.84,20,46.39,8.69,9.11,17.83,6.39,19.26,23.06.51,6-1,20.77-3.76,26-.74,1.46-1.16,2.42-2.92,2.9-7.71,2.11-21.22-20.67-27.45-25.57s-15.22-6.94-21.06-12.61c-10.52-10.22-11.43-24.43-19.85-35-15.3-19.21-35.56-18.58-51.94-35.59-17.31-18-23.07-44.44-44.31-57.66a49.3,49.3,0,0,0-21.43-7.5,6.87,6.87,0,0,1-5.48-3.94c-2.78-6-4.16-12.81-4.92-19.26-.49-2-4.27-2.18-5.67-1.19-3,2.1,2.92,20,4.41,23.61,10.35,25,31.91,31.11,29.3,63-.28,3.54-1.86,7-2,10.59-.52,18.21,19.64,18.62,21.16,32.82,1.49,14-11.78,13.47-21.62,10-16.51-5.76-24.68-22.87-28.68-38.66-1.77-7-1.06-14.14-5.25-20.72-4-6.2-6.05-3.5-10.34-6-4.93-2.9-11-15.17-13-20.69-1.64-4.67-5.39-27.37-8.28-28.3-5.78-1.86-4.27,5.66-2.69,12.21a11.13,11.13,0,0,1-4.31,11.61c-23.3,17-4.85,51.56-.36,74.95,2.28,11.87,3.52,24.06-1.45,35.49-4,9.17-13.61,16.17-16.59,26.7-4,14,7.27,21.49,10.16,35.16,6.49,30.67-5.73,37.63-13.27,62.74-4,13.21-4.28,36.42-13.2,47.4s-13.1-7-12.49-14.41c.22-2.74,1.56-5.25,1.82-7.81,1-10.36-6.49-17.31-9.31-26.09-7.06-22,17.09-41.1,8.19-61.09-2.06-4.62-6.19-7.69-8.59-11.61-16.16-26.38,9.77-78.84-9.39-99.31-1.88-2-4.39-3.09-6.32-5.23-14.45-16-4.41-46.07,6.84-61.5,1.73-2.37,7.53-7.7,9.94-12a3.36,3.36,0,0,0-2.5-5h0a3.46,3.46,0,0,0-3.26,1.4l-12.55,17.31a7.76,7.76,0,0,1-10.34,2.06l-1.47-.9A5.79,5.79,0,0,1,374,541c.77-7.16-1.78-17.65-8.42-19.2-2.82-.65-4.59,1-4.66,3.77,1.16,2.23,3.61,2.38,4.88,4.72,5.19,9.57-3.45,34.85-11.74,41.62-7.13,5.83-11.13.45-15,13.9-4.73,16.59-3.29,29.67-16.83,43.78-9.9,10.34-40.23,20.36-35.15-3.41,2.05-9.6,14.64-12.16,18.56-20.88,4.68-10.4-1.06-16.9-.78-26.69.61-20.72,12-26.58,21.45-41.14,11-17-.94-16.3-14.61-11.72-30.43,10.18-36.54,48.08-60.63,68.27-14.08,11.8-29.92,11.65-43.27,27-11.7,13.41-11.16,31-27.42,41.84-4.45,3-10.28,4.58-14.46,7.68-6.13,4.54-22.09,28.46-28.67,26.81-3.56-.89-5.89-13.47-6.32-16.83-1-7.84-1.18-20.62,5.16-26.36,2.32-2.1,6.93-3.65,9.63-5.75,16.76-13,16.73-39.66,28-56.67,9-13.66,27.2-17.86,39.84-28.45,21.47-18,15.77-32.5,28.07-53.7,8.55-14.72,30.3-35.85,46-42.52,2.76-1.17,6.28.38,6.58-4.67a4.12,4.12,0,0,0-3.27-2.55c-9.6-1.56-25.44,16-35.07,19.72s-20.25,2.08-30.07,5.52c-13.55,4.75-25.33,18.7-37.74,20-10.8,1.11-15.44-1-25,6.77-4.05,3.32-13.09,16.05-17.38,3.87-5.56-15.8,6-30.43,19.12-37.72,7-3.91,12.83-5,19.8-10,20.1-14.56,28.23-33,55.08-39.19,6.71-1.55,14.48-1.18,20.38-2.71,1.33-.34,1.87-1,.57-2.23-14.17-13-39.44-10.18-56.26-4.41-21.86,7.51-29.79,20.87-56.68,21.25-26.58.38-56.13-16.48-81.31-6.28-11.18,4.53-13.72,14-27.9,8.62-7.62-2.91-11.32-9.37-10.64-17.34.88-10.36,6.66-6,13-6.12,8.4-.17,21.92-20,31.34-25.5,21.2-12.42,32.41-2.54,53.3-2.42,28.93.17,37.13-10,59.15-22.69,23.74-13.7,45.94-13.77,69.57-.27,3.23,1.84,8,8.18,10.83,3.66,3.23-5.12-13.71-12.86-17.2-14.6s-8.11-2.53-11.16-4.24c-5.15-2.89-11.17-10.37-16.51-14.27-8.28-6.05-19.06-11-29.37-12-13.61-1.37-34.3,2.52-44.47-9.4-2.85-3.34-10.49-19.23-4.32-21.34s25,4.8,33.46,4.68c8.89-.12,17.66-6.3,26.27-7.48,25.3-3.48,28.49,12.79,46.87,20a68.51,68.51,0,0,0,25.53,4.6,17.12,17.12,0,0,1,13.6,6.23,80.34,80.34,0,0,1,13.76,24.78c1.29,3.89.87,13,5.8,12.53l2.27-1.66c.75-20.23-20.95-51.55-38.64-60.14-9.37-4.55-19.05-4.07-29.8-10.61-20.38-12.38-13.28-28.11-25.71-43.55-14.06-17.49-37.41-19.48-53.86-34.64a107.66,107.66,0,0,1-13.28-15.59c-3.55-5-9.44-18-12.74-20.93a16.62,16.62,0,0,0-5-2.74c-8-2.9-23.27.22-13.66-13.1,6.34-8.8,21.94-12.07,32-9,11.21,3.38,14.93,14.29,24.31,20.9,22.33,15.73,34.42,8.49,56.87,14.32,36.68,9.52,31.46,44.63,58.79,58.56,3.88,2,9.41,2.73,13.12,5.16,3.94,2.59,8.09,8.76,12.09,12,7.25,5.83,11.94,6,19.4,9.46,4.47,2.06,25,14.17,28.74,8.91,4-5.56-9.25-6.77-12.35-8-13.81-5.36-29.43-19.16-32-34.36-2.46-14.43,6.11-20.41,4.3-34.12-1.76-13.36-15.12-17.36-12.19-33.53,2.39-13.18,23.19-2.43,29.51,2.74,15.55,12.72,10.76,27.11,16,43.7,4.81,15.42,13.75,17,21.09,28.93,7.22,11.7,9.69,24.88,18.85,36,1.73,2.1,9.66,11.36,12.35,7.11,2.46-3.88-6-10-8.36-13-17.36-22.59-21-67.06-12-93.41,4.75-13.86,14.68-15.1,18.57-26.64,2.56-7.6,2.44-18.77,1.76-26.84-2.9-34.6-25.18-54.41,3-88.6,2.42-2.92,9.15-8,10.13-11,2.3-7.15-6-9.23-.39-16.74C425.7,4.3,437.29,9.16,441.24,14.78Z"/>
</svg>
