<svg id="Livello_1" data-name="Livello 1" xmlns="http://www.w3.org/2000/svg" viewBox="0 0 841.89 841.89">
  <defs>
    <style>
      .cls-1 {
        fill: #231f20;
      }
    </style>
  </defs>
  <title>Glos</title>
  <g>
    <path class="cls-1" d="M633.39,153.26,471.56,340.11a95.52,95.52,0,0,0-101.19,0L208.54,153.26c-5.42-6.22-6.06-70.52,68.6-87.33,55.7-12.59,102.47,7.65,126.53,21.67a34.39,34.39,0,0,0,34.59,0c24-14,70.75-34.26,126.53-21.67C639.45,82.74,638.81,147,633.39,153.26Z"/>
    <path class="cls-1" d="M340.17,471.58,153.24,633.41c-6.22,5.42-70.52,6.06-87.33-68.6C53.32,509,73.56,462.26,87.58,438.28a34.16,34.16,0,0,0,0-34.67c-14-24-34.26-70.75-21.67-126.45,16.81-74.66,81.11-74,87.33-68.6L340.09,370.39a95.3,95.3,0,0,0,.08,101.19Z"/>
    <path class="cls-1" d="M564.79,776c-55.78,12.59-102.55-7.65-126.53-21.67a34.39,34.39,0,0,0-34.59,0c-24.06,14-70.83,34.26-126.53,21.67-74.66-16.81-74-81.11-68.6-87.33L370.37,501.78a95.52,95.52,0,0,0,101.19,0L633.39,688.63C638.81,694.85,639.45,759.15,564.79,776Z"/>
    <path class="cls-1" d="M754.27,438.28c14.1,24,34.34,70.75,21.67,126.53-16.81,74.66-81.11,74-87.33,68.6L501.68,471.58a95.3,95.3,0,0,0,.08-101.19L688.61,208.56c6.22-5.42,70.52-6.06,87.33,68.52,12.67,55.78-7.57,102.55-21.67,126.53A34.54,34.54,0,0,0,754.27,438.28Z"/>
    <path class="cls-1" d="M492.68,421A71.72,71.72,0,1,1,421,349.19,71.72,71.72,0,0,1,492.68,421Z"/>
    <path class="cls-1" d="M492.68,421A71.72,71.72,0,1,1,421,349.19,71.72,71.72,0,0,1,492.68,421Z"/>
  </g>
</svg>
