<svg id="Livello_1" data-name="Livello 1" xmlns="http://www.w3.org/2000/svg" viewBox="0 0 841.89 841.89">
  <defs>
    <style>
      .cls-1 {
        fill: #231f20;
      }
    </style>
  </defs>
  <title>Glos</title>
  <g>
    <g>
      <path class="cls-1" d="M503.74,190.83c11.9,11.55,24.35,7.82,30.71,4.5,28.79-15,10.53-42.7,10-43-44.68-22.72-40.71-94-26.22-96.15,4.06-.6,6.9,1.49,8.87,3.63,7.26-2.84,18.31-3.21,18.31-3.21-5.72-6.82-20.58-22.1-38.37-22.1-27.31,0-66.3,53.84-8.6,123.55C498.44,158.07,491,178.37,503.74,190.83Z"/>
      <g>
        <path class="cls-1" d="M691.24,122a9.57,9.57,0,0,0-.34,4.42H564.84a9.57,9.57,0,0,0-.34-4.42c-3.86-10-54.43-37.58-34.87-53.42,0,0,3-3.13,18.32-3.13H707.79c15.36,0,18.32,3.13,18.32,3.13C745.67,84.44,695.1,112,691.24,122Z"/>
        <path class="cls-1" d="M754.35,285.12c-5.63,54.69-33.4,103.37-65.11,103.37H566.5c-31.71,0-59.48-48.68-65.12-103.37-4.11-39.86,13.37-69,23.15-81.89,48.43-6.91,27.14-52.85,27.14-52.85a39.26,39.26,0,0,0,8.77-11.45H695.3a39.26,39.26,0,0,0,8.77,11.45s-21.29,45.94,27.14,52.85C741,216.11,758.47,245.26,754.35,285.12Z"/>
        <path class="cls-1" d="M757.28,158.07C815,88.36,776,34.52,748.68,34.52c-17.79,0-32.64,15.28-38.37,22.1,0,0,11.05.37,18.31,3.21,2-2.14,4.81-4.23,8.87-3.63C752,58.31,756,129.63,711.27,152.35c-.53.28-18.78,28,10,43,6.37,3.32,18.81,7,30.71-4.5C764.75,178.37,757.28,158.07,757.28,158.07Z"/>
      </g>
    </g>
    <path class="cls-1" d="M514.51,667.65c8.94,2.83,139.74,43.15,227-.52,1.64,35.71-9.85,73.69-50.06,106.34,0,0,19.86,15.93,11.38,27.78-7.54,10.45-45.77-.93-62.67-.2-17.83.7-53.08,13.41-65.17.7-9.35-9.78,16-29.22,16-29.22S506.84,745.42,514.51,667.65Zm2.41-14.54s8.94-30.12,22.44-52.27c67.4-110.65,9-119.93-11-166.25-2.57-6-1.53-10.35,3.64-11.88,5.62,12,52.3,52.32,91.37,50.5a69.15,69.15,0,0,0,35.43-11.41,3.32,3.32,0,0,0-1.9-6,3.06,3.06,0,0,0-1.56.39c-4.94,2.7-14.24,9-31.87,8.92-32.28-.24-69.89-25.89-82-42.66,5.3.7,12.14,2.55,20.59,5.82,37.09,14.27,68.78,33.69,121.62-16.87s41,21.55,36.42,41.9c-4.11,18.36-19,48.51-23.45,70.84,0,0-10.94-20.07-11.05-27.48-.26-19.08,17.91-51.8,8.53-53.83-12.74-2.7-18.46,41.75-15.36,57.94,1.79,9.49,12.53,31.76,17.65,42.27,3.66,11.46,36.47,57,43.77,110.1C740.26,653.11,656.74,700.92,516.92,653.11Z"/>
    <g>
      <path class="cls-1" d="M89.91,651.06c11.9-11.56,24.34-7.82,30.71-4.5,28.78,15,10.53,42.7,10,43-44.68,22.72-40.71,94-26.22,96.15,4.06.6,6.9-1.49,8.87-3.63,7.26,2.84,18.31,3.21,18.31,3.21-5.73,6.82-20.58,22.1-38.37,22.1-27.32,0-66.3-53.84-8.6-123.55C84.61,683.82,77.14,663.52,89.91,651.06Z"/>
      <g>
        <path class="cls-1" d="M277.41,719.87a9.57,9.57,0,0,1-.34-4.42H151a9.7,9.7,0,0,1-.34,4.42c-3.86,10-54.44,37.58-34.87,53.42,0,0,3,3.13,18.32,3.13H294c15.37,0,18.33-3.13,18.33-3.13C331.84,757.45,281.27,729.91,277.41,719.87Z"/>
        <path class="cls-1" d="M340.52,556.77c-5.64-54.69-33.4-103.37-65.11-103.37H152.67c-31.71,0-59.48,48.68-65.12,103.37-4.11,39.86,13.36,69,23.15,81.89,48.42,6.91,27.14,52.85,27.14,52.85A39.26,39.26,0,0,1,146.61,703H281.47a39.25,39.25,0,0,1,8.76-11.45S269,645.57,317.38,638.66C327.16,625.78,344.64,596.63,340.52,556.77Z"/>
        <path class="cls-1" d="M343.45,683.82c57.7,69.71,18.71,123.55-8.6,123.55-17.79,0-32.65-15.28-38.37-22.1,0,0,11-.37,18.31-3.21,2,2.14,4.81,4.23,8.87,3.63,14.49-2.11,18.46-73.43-26.22-96.15-.53-.28-18.79-28,10-43,6.36-3.32,18.81-7.06,30.71,4.5C350.92,663.52,343.45,683.82,343.45,683.82Z"/>
      </g>
    </g>
    <path class="cls-1" d="M100.67,174.24c8.94-2.83,139.75-43.15,227.06.52,1.64-35.71-9.85-73.69-50.07-106.34,0,0,19.86-15.93,11.39-27.78-7.54-10.45-45.78.93-62.67.2-17.83-.7-53.08-13.41-65.17-.7-9.36,9.78,16,29.22,16,29.22S93,96.47,100.67,174.24Zm2.42,14.53s8.94,30.13,22.43,52.28c67.4,110.65,9,119.93-10.94,166.25-2.57,6-1.53,10.35,3.64,11.88,5.61-12,52.3-52.32,91.37-50.5A69.15,69.15,0,0,1,245,380.09a3.32,3.32,0,0,1-1.9,6,3,3,0,0,1-1.56-.39c-4.94-2.7-14.25-9.05-31.87-8.92-32.28.24-69.9,25.89-82,42.66,5.3-.7,12.14-2.55,20.58-5.82,37.1-14.27,68.78-33.69,121.63,16.87s41-21.55,36.42-41.91c-4.11-18.35-19-48.5-23.45-70.83,0,0-10.94,20.07-11.05,27.48-.26,19.08,17.91,51.8,8.53,53.83-12.74,2.7-18.46-41.75-15.36-57.94,1.79-9.49,12.52-31.76,17.65-42.27,3.66-11.46,36.46-57,43.77-110.11C326.43,188.77,242.91,141,103.09,188.77Z"/>
  </g>
</svg>
