<svg id="Livello_1" data-name="Livello 1" xmlns="http://www.w3.org/2000/svg" viewBox="0 0 841.89 841.89">
  <title>Glos</title>
  <g>
    <path d="M541.81,604.32c0,75.12-54.12,136-120.9,136s-120.83-60.92-120.83-136a148.68,148.68,0,0,1,2.55-27.79,58.59,58.59,0,0,1,10.57,14.74,60.73,60.73,0,0,0,10.5,14.13c5.72,6.1,13.67,8.18,21.62,9.5,13.36,2.24,26.17-.16,36.67-8.73,16.6-13.59,27.64-30.73,29.19-52.88a63.56,63.56,0,0,1,1.16-7.72c3.24-13.67,2.78-27.57,1.77-41.46-.31-4.09-.46-8,2.32-11.43,2.55-3.16,6.25-4.48,10.11-3,3.71,1.39,6.72,3.55,6.87,8,.47,8.72.7,17.45,1.32,26.09,1.08,15.29,2.31,30.5,3.55,45.79.15,2.08.69,4.24.54,6.33-.47,10.19,2.93,19.53,6.64,28.72,3.86,9.65,12.12,14.51,21.77,16a39,39,0,0,0,25.32-4.25,66.76,66.76,0,0,0,17.53-14c6-6.64,12-13.36,18.61-19.46A54.69,54.69,0,0,1,539,575.44,148,148,0,0,1,541.81,604.32Z"/>
    <path d="M745.79,504.42C725.17,567.88,650.52,600.54,579,577.3A149.21,149.21,0,0,1,558,568.65l11.81-3a29.41,29.41,0,0,0,16.06-10.89c7.18-9.18,11.42-19.3,11.66-31.19.15-5.79-.24-11.35-2.63-16.52s-4.63-10.42-7.72-15.13c-7.18-11-16.14-20.38-28.18-26.1-12.51-5.94-24.47-13.2-38.06-16.6-4.33-1-8.57-2.47-12.82-3.78-2.24-.69-4.63-1.08-6.72-2.16a9.38,9.38,0,0,1-4.47-12c2.31-5.09,6.87-7.18,12.12-5.71,7.49,2,15,4.09,22.46,6q19.69,5.2,39.53,10.19c3.87,1,7.88,1.47,11.74,2.24,6.95,1.31,27.1,3.32,30,2.78,3.86-.77,8-1.62,11.2-3.71,11.73-7.72,15.75-19.37,15.21-32.89-.31-10.42-4.48-19.61-9.81-28.41a205.25,205.25,0,0,1-11.27-21.15A56.6,56.6,0,0,1,613.23,340a153.62,153.62,0,0,1,40.53,7.41C725.17,370.62,766.4,440.88,745.79,504.42Z"/>
    <path d="M639.55,303.6c-7.72,10.58-16.56,13.53-26.14,21.33.47-4.4.74-2.33,1.05-6.73,1.08-16.68-8.49-27.88-21-36C584,276,573,272.8,560.57,275c-19.07,3.39-35.59,10.42-48.33,25.32-2.47,2.86-5.48,5.17-8.11,7.88a57.37,57.37,0,0,0-6.25,6.71c-6.1,8.34-12,16.83-18,25.33a20.27,20.27,0,0,1-3.09,3.78,10.29,10.29,0,0,1-11.11,1.23,7.45,7.45,0,0,1-1.32-.85c-3.93-3.24-5.09-8.56-2.47-12.58,4.79-7.33,9.81-14.51,14.44-21.85,7.72-12.35,15.29-24.78,22.93-37.21,1.24-2,2.16-4.25,3.63-6.1,6.48-8.19,9.42-17.91,12-27.72s-.7-19.07-7.8-25.86c-11.27-10.58-24.94-14.75-40.38-11.66-4.17.85-8.34,1.62-12.43,2.55-10.89,2.31-14.05,4.63-25.17,2.85,1-14.83,4.48-31,14.82-45.32,44.17-60.83,123.76-78.28,177.81-39.06S683.72,242.84,639.55,303.6Z"/>
    <path d="M412.65,206.71a22.21,22.21,0,0,1-3.17-.7c-4.94-1.23-25.86-13.27-36.83-9.95-17.91,5.48-30.8,16-36,34.35-1.39,4.94-1.86,10.19-2.4,15.37-2.47,23.62,9,42.92,20.15,62,5.18,8.88,12.2,16.68,18.38,25a17.34,17.34,0,0,1,2.32,3.55,10,10,0,0,1-1.86,10.88.87.87,0,0,1-.54.39,25.07,25.07,0,0,1-3.16,1.85h-.08a9.19,9.19,0,0,1-10.89-3c-5.25-6.56-10.34-13.35-15.82-19.84-9.5-11.43-19.15-22.62-28.8-33.89-1.47-1.78-3.32-3.4-4.63-5.33-5.79-8.72-14.21-14.44-22.78-19.84s-17.83-4.87-26.33-.39c-13.43,7.18-21.38,18.84-23.62,34-1.16,8-1.7,16-2.78,23.86a70.92,70.92,0,0,1-1.78,9.18,147,147,0,0,1-29.64-30.65c-44.17-60.76-36.14-141.82,17.83-181.12S353.81,100.71,398,161.54C408.32,175.75,410.52,191.72,412.65,206.71Z"/>
    <path d="M278,560a87.9,87.9,0,0,1,11.35,5.87,150.12,150.12,0,0,1-26.48,11.43c-71.5,23.24-146.15-9.42-166.77-72.88s20.62-133.8,92-157c14.05-4.63,20.28-2.41,34.51.31,2.61,5.82.14,8.12-3.47,12-4,4.35-7.41,9.19-11.12,13.74a23.64,23.64,0,0,0-5.41,14.36c-.07,5.87-.15,11.89,1,17.53,2.31,11.43,8.26,21.31,17.83,27.95a80.07,80.07,0,0,0,37.37,13.74c13.67,1.55,26.71-2.08,39.84-4.24,10.73-1.7,20.92-6.64,31.5-10a27,27,0,0,1,8.18-1.63,8.52,8.52,0,0,1,8.57,7c.93,4.71-1.23,9.5-5.4,11.12-8.11,3.16-16.37,5.94-24.48,9.19-13.74,5.48-27.33,11.27-41,16.9a62.77,62.77,0,0,1-7.18,3c-10,3-18.07,9.12-25.71,15.75-7.8,6.8-9.65,16.14-7.8,25.87,1.93,10.19,6.87,19.07,15.29,25.48a75.35,75.35,0,0,0,11.27,7.18C267.11,555.45,272.67,557.61,278,560Z"/>
  </g>
</svg>
