<svg id="Livello_1" data-name="Livello 1" xmlns="http://www.w3.org/2000/svg" viewBox="0 0 841.89 841.89">
  <defs>
    <style>
      .cls-1 {
        fill: #231f20;
      }
    </style>
  </defs>
  <title>Glos</title>
  <g>
    <path class="cls-1" d="M254.3,220.92s117.86-51.64,124.63-21.23C387.15,236.66,254.3,220.92,254.3,220.92Z"/>
    <path class="cls-1" d="M167.11,662.41s7.8-68.29,35-45.89C236.17,644.58,167.11,662.41,167.11,662.41Z"/>
    <path class="cls-1" d="M387.33,656.84S300,668.37,304.17,630.46C307.52,599.78,387.33,656.84,387.33,656.84Z"/>
    <path class="cls-1" d="M400.13,645.32s-104-30.49-82-66.16C339.43,544.81,400.13,645.32,400.13,645.32Z"/>
    <path class="cls-1" d="M411.47,637.56s-90.87-77.12-53.15-114.2C389.16,493,411.47,637.56,411.47,637.56Z"/>
    <path class="cls-1" d="M254,229.24s99.72-2.57,77.27,32C319.12,279.93,254,229.24,254,229.24Z"/>
    <path class="cls-1" d="M250.87,209.33s63.53-76.91,74.86-37.28C331.86,193.49,250.87,209.33,250.87,209.33Z"/>
    <path class="cls-1" d="M157.35,190.94c-.82,3.66-1.19,6.85-2.24,9.79-4.73,13.28-12.79,24.15-24.69,31.77a49.26,49.26,0,0,1-13.2,5.54c-6.57,1.82-11-2.2-10.13-9.07a21.89,21.89,0,0,1,3-9A68.7,68.7,0,0,1,120,207.61c9.12-8.69,19.73-14.85,32.46-16.64A39.84,39.84,0,0,1,157.35,190.94Z"/>
    <path class="cls-1" d="M254.3,241.92S315,269.14,294,287.36C281.08,298.56,254.3,241.92,254.3,241.92Z"/>
    <path class="cls-1" d="M240,203.12s59-30.61,37-47.61C263.52,145.06,240,203.12,240,203.12Z"/>
    <path class="cls-1" d="M230.65,250.33c-4.36-7.79-9.84-13.87-18.57-16.66,7.88-7.61,9-16.88,8.47-27.28,6.6-1.94,12.87-.55,18.47,3.69,7.48,5.68,10.42,13.5,8.58,22.55S240.09,247.57,230.65,250.33Z"/>
    <path class="cls-1" d="M223,202a5.06,5.06,0,0,1-.2-1.67c2.56-8.62,2.59-17.42,2.2-26.3a41.85,41.85,0,0,1,.7-10.06c1-5.05,3.66-9.22,8.53-11.61s9.67-1.69,14.16,1.2a6.91,6.91,0,0,1,3.4,7.41,31.8,31.8,0,0,1-2.27,8.32,98.51,98.51,0,0,1-23.62,30.79A28.06,28.06,0,0,1,223,202Z"/>
    <path class="cls-1" d="M248.37,252.14a5.06,5.06,0,0,0-.2,1.67c2.56,8.62,2.59,17.42,2.2,26.29a41.78,41.78,0,0,0,.7,10.06c1,5.06,3.66,9.23,8.53,11.62s9.67,1.69,14.16-1.2a6.91,6.91,0,0,0,3.4-7.42,31.83,31.83,0,0,0-2.27-8.31,98.51,98.51,0,0,0-23.62-30.79A28.06,28.06,0,0,0,248.37,252.14Z"/>
    <path class="cls-1" d="M69.74,430.87s-58-22-38.68-44.29C47.11,368.06,69.74,430.87,69.74,430.87Z"/>
    <path class="cls-1" d="M217.47,195.19c-4.79-6.31-11.19-7.45-17.69-8.39-.79-.11-1.58-.24-2.36-.42-5.64-1.33-7.26-5-4.46-10a11.27,11.27,0,0,1,14-5.24,14.17,14.17,0,0,1,8.91,8.2A28.72,28.72,0,0,1,217.47,195.19Z"/>
    <path class="cls-1" d="M232.86,254.92c1.76,7.73-1.48,13.37-4.93,19-.42.68-.83,1.37-1.19,2.09-2.6,5.17-.85,8.76,4.81,9.84a11.28,11.28,0,0,0,13-7.37,14.22,14.22,0,0,0-.57-12.09A28.86,28.86,0,0,0,232.86,254.92Z"/>
    <path class="cls-1" d="M792.66,487.3c-23.12,28.83-60.4,5.58-29-23.2,13.11-10.8,26.38,5.49,16.85,20.42,43.19-63.93-40.55-32.5-68.9,61.25-14.7,48.63-3.31,93.81-21.23,143.3-31,73.26-117.1,85-164.25,17.72C456.7,769.48,486,647.31,505.08,696c2.54,6.49-4.1,16.38-10.37,7.68,3,0,6.16-14.37-.2-6.38-22.62,28.39,44.26,8.39,10.18-13.77-56.44-36.69-11.92,69.48-83.75,73.24-71.83-3.76-27.28-109.93-83.75-73.24-34.05,22.16,32.81,42.16,10.18,13.77-6.36-8-3.22,6.38-.2,6.38-6.27,8.7-12.91-1.19-10.37-7.68,19.05-48.67,48.38,73.5-21.06,10.81C268.59,774,182.46,762.33,151.49,689.07c-17.92-49.49-6.53-94.67-21.23-143.3C101.91,452,18.17,420.59,61.37,484.52c-9.54-14.93,3.73-31.22,16.84-20.42,31.41,28.78-5.87,52-29,23.2-31.35-39.73,1.43-70.13,39-37.62C-64.43,162.07,155.11,358.21,287,302.79c42.69-18.77,115.49-60,109.17-100.68-7.94-51.19-143.89-96.24-217.31-22.89-21.5,21.48-3.36,68.91,20.88,47.48,20.18-17.84-7.77-26.53-9.95-13.18,29.66-.53-5.83,27.57-8.59,6.36-5.08-39.36,62.78-20.2,22.38,16.2C272,279.41,163.45,323,174.49,265.61c3.09-16.11,22.54-8.8,17.9,3.14-12.64-15.23-2.89,14.81,9.36,5.83,31.92-23.4-71.93-27.29-32.67-94.12-103.43,15.54-6.2-68.63-29.84-95.32,70.11,2.7,35,27.26,7.46,53.46,82.51-18.85-15.58,67.55,4.7,8.19-25.4,9-4.68,34.64,8.92,24.39,87.81-66.1,239.81-69.48,250.56,25.3,10.39,91.74-137.15,177.6-294.18,118.65,15.72,31.85-6.18,70.65-37.76,42.6-21.61-26,5.32-66.05,21.78-32.12,7.9,29.25-21,21.92-15.18,3,3.57,8.92,5.16,6.84,8.72,5.6,6.13-15-13.56-11.32-12.72-2.53-3.82,22.05,29.67,30.55,27.66,3.29-2-51-88.34-25.08-28.39,78.89C147.23,529,151.58,532.9,162,676.11c57.26-50.74,136.52,75.32,40.15,51,70.19,63.73,154.18-150.87,187.4-9.78,3.6,15.06,17.31,24.37,31.37,24.26,14.06.11,27.77-9.2,31.37-24.26,33.22-141.09,117.21,73.51,187.4,9.78-96.37,24.35-17.11-101.71,40.15-51C690.3,532.9,694.65,529,761.07,413.82c59.95-104-26.33-129.86-28.39-78.89-2,27.26,31.48,18.76,27.66-3.29.84-8.79-18.85-12.45-12.71,2.53,3.55,1.24,5.14,3.32,8.71-5.6,5.79,19-23.08,26.29-15.18-3,16.47-33.93,43.39,6.09,21.78,32.12-31.58,28-53.48-10.75-37.76-42.6-157,58.95-304.57-26.91-294.17-118.65,10.75-94.78,162.74-91.4,250.55-25.3,13.6,10.25,34.32-15.4,8.92-24.39,20.28,59.36-77.81-27,4.7-8.19-27.59-26.2-62.64-50.76,7.46-53.46C679,111.83,776.23,196,672.8,180.46c39.27,66.83-64.57,70.72-32.67,94.12,12.27,9,22-21.06,9.38-5.83-4.66-11.94,14.79-19.25,17.9-3.14,11,57.42-97.5,13.8-29.09-29.53-40.4-36.4,27.48-55.56,22.38-16.2-2.74,21.21-38.25-6.89-8.59-6.36-2.18-13.35-30.13-4.66-10,13.18,24.26,21.43,42.38-26,20.88-47.48-73.41-73.35-209.36-28.3-217.31,22.89C439.42,242.75,512.21,284,554.9,302.79c131.87,55.42,351.41-140.72,198.8,146.89C791.22,417.17,824,447.57,792.66,487.3Z"/>
    <path class="cls-1" d="M420.94,627.84s-55.54-120.08,0-136.15C476.5,507.76,420.94,627.84,420.94,627.84Z"/>
    <path class="cls-1" d="M587.58,220.92S469.73,169.28,463,199.69C454.74,236.66,587.58,220.92,587.58,220.92Z"/>
    <path class="cls-1" d="M453.28,669.4c-16.34,9.83-23.18,26.18-32.34,39.93-9.16-13.75-16-30.1-32.34-39.93,7-10.37,17.49-24.3,32.34-23.46C435.82,645.1,446.3,659,453.28,669.4Z"/>
    <path class="cls-1" d="M674.78,662.41s-7.8-68.29-35-45.89C605.72,644.58,674.78,662.41,674.78,662.41Z"/>
    <path class="cls-1" d="M454.56,656.84s87.31,11.53,83.16-26.38C534.37,599.78,454.56,656.84,454.56,656.84Z"/>
    <path class="cls-1" d="M441.76,645.32s104-30.49,82-66.16C502.46,544.81,441.76,645.32,441.76,645.32Z"/>
    <path class="cls-1" d="M430.42,637.56s90.87-77.12,53.15-114.2C452.73,493,430.42,637.56,430.42,637.56Z"/>
    <path class="cls-1" d="M587.9,229.24s-99.72-2.57-77.27,32C522.77,279.93,587.9,229.24,587.9,229.24Z"/>
    <path class="cls-1" d="M591,209.33s-63.53-76.91-74.86-37.28C510,193.49,591,209.33,591,209.33Z"/>
    <path class="cls-1" d="M684.54,190.94c.82,3.66,1.19,6.85,2.24,9.79,4.73,13.28,12.79,24.15,24.69,31.77a49.26,49.26,0,0,0,13.2,5.54c6.57,1.82,11-2.2,10.13-9.07a21.89,21.89,0,0,0-3-9,68.7,68.7,0,0,0-9.91-12.33c-9.12-8.69-19.73-14.85-32.46-16.64A39.84,39.84,0,0,0,684.54,190.94Z"/>
    <path class="cls-1" d="M587.58,241.92s-60.67,27.22-39.67,45.44C560.81,298.56,587.58,241.92,587.58,241.92Z"/>
    <path class="cls-1" d="M601.88,203.12s-59-30.61-37-47.61C578.37,145.06,601.88,203.12,601.88,203.12Z"/>
    <path class="cls-1" d="M611.24,250.33c4.36-7.79,9.84-13.87,18.57-16.66-7.88-7.61-9-16.88-8.47-27.28-6.6-1.94-12.87-.55-18.47,3.69-7.48,5.68-10.42,13.5-8.58,22.55S601.8,247.57,611.24,250.33Z"/>
    <path class="cls-1" d="M618.89,202a5.06,5.06,0,0,0,.2-1.67c-2.56-8.62-2.59-17.42-2.2-26.3a41.85,41.85,0,0,0-.7-10.06c-1-5.05-3.66-9.22-8.53-11.61s-9.67-1.69-14.16,1.2a6.91,6.91,0,0,0-3.4,7.41,31.8,31.8,0,0,0,2.27,8.32A98.51,98.51,0,0,0,616,200.11,28.06,28.06,0,0,0,618.89,202Z"/>
    <path class="cls-1" d="M593.52,252.14a5.06,5.06,0,0,1,.2,1.67c-2.56,8.62-2.59,17.42-2.2,26.29a41.78,41.78,0,0,1-.7,10.06c-1,5.06-3.66,9.23-8.53,11.62s-9.67,1.69-14.16-1.2a6.91,6.91,0,0,1-3.4-7.42,31.83,31.83,0,0,1,2.27-8.31,98.51,98.51,0,0,1,23.62-30.79A28.06,28.06,0,0,1,593.52,252.14Z"/>
    <path class="cls-1" d="M772.15,430.87s58-22,38.68-44.29C794.77,368.06,772.15,430.87,772.15,430.87Z"/>
    <path class="cls-1" d="M624.42,195.19c4.79-6.31,11.19-7.45,17.69-8.39.79-.11,1.58-.24,2.36-.42,5.64-1.33,7.26-5,4.46-10a11.27,11.27,0,0,0-14-5.24,14.17,14.17,0,0,0-8.91,8.2A28.72,28.72,0,0,0,624.42,195.19Z"/>
    <path class="cls-1" d="M609,254.92c-1.76,7.73,1.48,13.37,4.93,19,.42.68.83,1.37,1.19,2.09,2.6,5.17.85,8.76-4.81,9.84a11.28,11.28,0,0,1-13-7.37,14.22,14.22,0,0,1,.57-12.09A28.86,28.86,0,0,1,609,254.92Z"/>
  </g>
</svg>
