<svg id="Livello_1" data-name="Livello 1" xmlns="http://www.w3.org/2000/svg" viewBox="0 0 841.89 841.89">
  <defs>
    <style>
      .cls-1, .cls-2 {
        fill: #231f20;
      }

      .cls-2 {
        stroke: #231f20;
        stroke-miterlimit: 10;
        stroke-width: 5.58px;
      }
    </style>
  </defs>
  <title>Glos</title>
  <g>
    <path class="cls-1" d="M593.53,744.49c12.4-22.89,9.6-25.46,6.2-41.2,0,0,25.23,7.59,62.25-12.56,3.68,8.93,10.77,20.37,19.7,26.29C685.76,719.76,588.51,753.76,593.53,744.49Z"/>
    <line class="cls-2" x1="566.15" y1="527.3" x2="566.15" y2="527.25"/>
    <path class="cls-1" d="M642.24,369.64c1.15,19.15,7.59,39.9,22.9,60.89a13.6,13.6,0,0,1-5.43,20.34c-21.4,9.73-59.67,31.89-93.56,76.38v0a286.55,286.55,0,0,0-29.53,48C509.52,630.56,492,708,501.35,815.39a8.19,8.19,0,0,1-13,7.28c-16.43-12.19-43.64-29.25-67.36-29.28-23.4,0-50.31,16.69-66.82,28.88a8.49,8.49,0,0,1-13.5-7.56c9.18-107.08-8.29-184.22-35.33-239.4a290,290,0,0,0-29.53-48v0c-34.49-45.27-73.5-67.42-94.67-76.88a12.59,12.59,0,0,1-4.93-19c15.75-21.26,22.35-42.31,23.51-61.71,1.78-29.7-9-55.6-19-72.74-1.93-3.35-3.84-6.36-5.61-9a14.7,14.7,0,0,1,4.67-20.77c44.66-26.85,72.94-59.14,90.71-90.83a226.19,226.19,0,0,0,25.24-70.51,232,232,0,0,0,3.65-48.24,13.33,13.33,0,0,1,16.1-13.44c34.86,7.35,76.56-10,95.4-19.3a23,23,0,0,1,20.25,0c18.82,9.25,60.47,26.62,95.32,19.34a13.44,13.44,0,0,1,16.23,13.54,232,232,0,0,0,3.66,48.11,225.89,225.89,0,0,0,25.23,70.51c17.9,31.92,46.46,64.44,91.68,91.41a13.62,13.62,0,0,1,4.22,19.39c-1.93,2.82-4,6.1-6.18,9.79C651.29,314,640.46,339.94,642.24,369.64Z"/>
    <path class="cls-1" d="M768.73,181.74c-5,15,1.95,31.83,1.95,31.83s59,135-45.22,149.05a.06.06,0,0,1-.06.06c-11.72,1.56-25.51,1.62-41.7-.23-4.11-.46-8.4-1-12.85-1.77a7.12,7.12,0,0,1-6-7c-.13-23.48,7.34-44.29,15.35-59.83a7.19,7.19,0,0,1,10.21-2.82,147.49,147.49,0,0,0,23.92,12.43c10.52,4.26,18.15,5.34,23.45,5.17a7.15,7.15,0,0,0,6.1-10.52C711,236,703.67,206.34,707.38,184.92c4.29-25,23.55-38.86,34.27-80.33,3.87-14.93,5.63-25.48,5.89-32.69l0,0s5.3-41-62.42-48.08C734.51-12.32,811.71,27,790.28,123.79c-3.52,16.2-9.88,34.06-19.6,53.38A33.73,33.73,0,0,0,768.73,181.74Z"/>
    <path class="cls-1" d="M736.16,81.91l0,0c.55-15.6-6-15.6-13.62-10.48-7.29,4.89-15.6,14.44-19.74,19.52l-.31.42c-2.64,3.82-5.26,7.45-7.88,10.94C640.37,175.36,599.3,178.15,586.84,177a7.13,7.13,0,0,1-5.59-3.69,225,225,0,0,1-19.9-50.74,7.18,7.18,0,0,1,9.75-8.37c16.88,6.81,47.45,7.27,78.52-51.75q1.53-2.85,3.14-5.52a80.09,80.09,0,0,1,20.93-23.07h.06C741.47,40.93,736.16,81.91,736.16,81.91Z"/>
    <path class="cls-1" d="M158.83,717c8.88-5.92,16-17.36,19.65-26.29,37,20.15,62.31,12.56,62.31,12.56-3.46,15.74-6.2,18.31,6.19,41.2C252,753.76,154.76,719.76,158.83,717Z"/>
    <path class="cls-2" d="M175.29,586.37c-.11-.06-.23-.17-.34-.23"/>
    <path class="cls-2" d="M175.29,586.37c-.11-.06-.23-.17-.34-.23s0,0-.11,0-.05-.06-.11-.06-.06,0-.06,0"/>
    <path class="cls-1" d="M246.49,691.88s-25.29,7.59-62.3-12.56c1.61-4.07,2.62-7.59,2.73-9.88.9-16.36-24.45-8.88-48.35-24.79-101-67.38-25.95-185.46,73.2-111,28.34,21.32,41.3,13.18,47,4.26a7.09,7.09,0,0,1,11.77-.16,291.36,291.36,0,0,1,18.29,30.34,10.28,10.28,0,0,1-2.53,12.7c-50,41.07-108.6,9.42-115.3,5.56C213.66,615,259.67,630.92,246.49,691.88Z"/>
    <path class="cls-1" d="M177.07,353.74a7.1,7.1,0,0,1-6,6.94c-4.45.73-8.75,1.31-12.86,1.77-16.2,1.85-30,1.79-41.7.23-.06,0-.06-.06-.11-.06-104.12-14.07-45.17-149-45.17-149s6.93-16.87,1.95-31.83a35,35,0,0,0-1.95-4.57C61.55,157.79,55.18,140,51.61,123.79,30.17,27,107.43-12.32,156.79,23.85c-66.88,7-62.53,47.06-62.42,48.06v0c.26,7.21,2,17.75,5.86,32.66a165.94,165.94,0,0,0,6.2,19.2c10.78,27.42,24.62,40.42,28.14,61.13C138.27,206.34,131,236,98,298.19a7.14,7.14,0,0,0,6.07,10.48c5.32.17,13-.91,23.5-5.17a149.82,149.82,0,0,0,23.91-12.45,7.12,7.12,0,0,1,10.1,2.7C169.69,309.3,177.2,330.17,177.07,353.74Z"/>
    <path class="cls-1" d="M280.61,122.49a224.38,224.38,0,0,1-19.92,50.8,7.12,7.12,0,0,1-5.58,3.68c-12.44,1.18-53.53-1.58-107.79-74.69-2.58-3.49-5.2-7.12-7.83-10.94-.11-.14-.21-.28-.33-.42C135,85.84,126.72,76.29,119.42,71.4c-7.64-5.12-14.17-5.12-13.64,10.49-.12-1-4.47-41,62.41-48.06h.06A80.26,80.26,0,0,1,189.19,56.9c1.06,1.78,2.11,3.62,3.12,5.52C223.42,121.48,254,121,270.9,114.14A7.16,7.16,0,0,1,280.61,122.49Z"/>
    <path class="cls-1" d="M596.31,691.88s25.29,7.59,62.3-12.56a35.46,35.46,0,0,1-2.74-9.88c-.89-16.36,24.46-8.88,48.35-24.79,101-67.38,26-185.46-73.19-111-28.8,21.66-41.72,12.91-47.28,3.83a6.58,6.58,0,0,0-11-.41,291.35,291.35,0,0,0-18.9,31.28,9.94,9.94,0,0,0,2.44,12.25c50.07,41.35,108.81,9.61,115.52,5.75C629.13,615,583.13,630.92,596.31,691.88Z"/>
  </g>
</svg>
