<svg id="Livello_1" data-name="Livello 1" xmlns="http://www.w3.org/2000/svg" viewBox="0 0 841.89 841.89">
  <title>Glos</title>
  <g>
    <path d="M568.59,645c0,91.77-66.11,166.18-147.69,166.18S273.3,736.72,273.3,645a182.28,182.28,0,0,1,3.11-34,72.08,72.08,0,0,1,12.92,18,73.87,73.87,0,0,0,12.83,17.26c7,7.45,16.69,10,26.41,11.6,16.31,2.74,32-.19,44.79-10.66,20.28-16.59,33.77-37.53,35.65-64.6a79.68,79.68,0,0,1,1.42-9.43c4-16.69,3.39-33.67,2.17-50.65-.38-5-.57-9.81,2.83-14,3.11-3.86,7.64-5.47,12.35-3.67,4.53,1.69,8.21,4.34,8.4,9.81.56,10.65.84,21.31,1.6,31.87,1.32,18.68,2.83,37.26,4.34,55.93.19,2.55.85,5.19.66,7.73-.57,12.45,3.58,23.86,8.11,35.09,4.71,11.79,14.81,17.73,26.6,19.52a47.72,47.72,0,0,0,30.93-5.19,81.69,81.69,0,0,0,21.41-17.07c7.35-8.11,14.71-16.31,22.73-23.76a65.51,65.51,0,0,1,12.64-9.15A180.69,180.69,0,0,1,568.59,645Z"/>
    <path d="M817.76,522.91c-25.18,77.53-116.38,117.42-203.71,89a181.75,181.75,0,0,1-25.75-10.56l14.43-3.68c8.11-2.07,14.53-6.79,19.62-13.3,8.77-11.22,14-23.58,14.24-38.1.19-7.07-.28-13.86-3.21-20.18s-5.65-12.74-9.43-18.49c-8.77-13.39-19.71-24.9-34.42-31.88-15.28-7.26-29.9-16.12-46.5-20.27-5.28-1.23-10.47-3-15.65-4.62-2.74-.85-5.66-1.32-8.21-2.65-5.56-3-7.83-9.43-5.47-14.61,2.83-6.23,8.4-8.77,14.81-7,9.15,2.45,18.29,5,27.44,7.35q24.06,6.38,48.29,12.45c4.72,1.23,9.62,1.79,14.34,2.74,8.48,1.6,33.1,4,36.68,3.39,4.72-.94,9.81-2,13.68-4.52,14.33-9.43,19.24-23.68,18.58-40.18-.38-12.73-5.47-24-12-34.71a250.11,250.11,0,0,1-13.77-25.84A69.19,69.19,0,0,1,655.83,322a188,188,0,0,1,49.51,9.06C792.58,359.47,843,445.29,817.76,522.91Z"/>
    <path d="M688,277.6c-9.43,12.92-20.24,16.53-31.93,26,.57-5.37.9-2.85,1.28-8.22,1.32-20.37-10.38-34.05-25.65-44-11.6-7.64-25-11.51-40.18-8.77-23.3,4.15-43.48,12.73-59,30.93-3,3.49-6.7,6.32-9.9,9.62a69.65,69.65,0,0,0-7.64,8.21c-7.45,10.18-14.62,20.56-22,30.93a24.9,24.9,0,0,1-3.77,4.62,12.58,12.58,0,0,1-13.58,1.51,8.8,8.8,0,0,1-1.6-1c-4.81-4-6.23-10.46-3-15.37,5.85-9,12-17.73,17.63-26.69,9.44-15.09,18.68-30.27,28-45.46,1.51-2.45,2.65-5.18,4.44-7.45,7.92-10,11.5-21.88,14.62-33.86,3.2-12.16-.85-23.29-9.53-31.59-13.77-12.92-30.46-18-49.32-14.24-5.1,1-10.19,2-15.19,3.11-13.3,2.83-17.16,5.66-30.74,3.49,1.24-18.12,5.46-37.91,18.1-55.36C503,29.75,600.19,8.44,666.2,56.35S741.94,203.38,688,277.6Z"/>
    <path d="M410.81,159.24a28.23,28.23,0,0,1-3.87-.85c-6-1.51-31.6-16.22-45-12.16-21.88,6.69-37.63,19.52-44,42-1.7,6-2.26,12.44-2.93,18.76-3,28.86,10.95,52.44,24.62,75.74,6.32,10.84,14.9,20.37,22.45,30.55a22,22,0,0,1,2.83,4.34,12.3,12.3,0,0,1-2.27,13.3,1.07,1.07,0,0,1-.66.47,31.21,31.21,0,0,1-3.86,2.27H358a11.26,11.26,0,0,1-13.3-3.68c-6.41-8-12.63-16.32-19.33-24.24-11.6-14-23.39-27.63-35.18-41.4-1.79-2.17-4.06-4.15-5.66-6.51-7.07-10.66-17.35-17.64-27.82-24.24s-21.79-5.94-32.16-.47c-16.41,8.77-26.13,23-28.86,41.59-1.42,9.71-2.08,19.52-3.4,29.14a87.73,87.73,0,0,1-2.16,11.23A179.76,179.76,0,0,1,153.9,277.6C100,203.38,109.76,104.35,175.68,56.35s163.26-26.6,217.21,47.72C405.53,121.42,408.21,140.93,410.81,159.24Z"/>
    <path d="M246.32,590.82A105.88,105.88,0,0,1,260.19,598a183.64,183.64,0,0,1-32.35,14c-87.33,28.39-178.53-11.5-203.71-89S49.31,359.47,136.55,331.08c17.16-5.66,24.77-2.95,42.15.38,3.19,7.11.18,9.92-4.24,14.71-4.89,5.31-9.05,11.22-13.58,16.79a28.79,28.79,0,0,0-6.6,17.54c-.1,7.17-.19,14.52,1.22,21.41,2.83,14,10.09,26,21.79,34.14a97.88,97.88,0,0,0,45.65,16.79c16.69,1.88,32.63-2.55,48.66-5.19,13.11-2.08,25.56-8.11,38.48-12.17a33.27,33.27,0,0,1,10-2,10.41,10.41,0,0,1,10.47,8.58c1.13,5.76-1.51,11.6-6.61,13.59-9.9,3.86-20,7.26-29.89,11.22-16.79,6.69-33.39,13.77-50.08,20.65-2.93,1.23-5.76,2.83-8.77,3.68-12.17,3.68-22.07,11.13-31.41,19.24-9.53,8.3-11.79,19.71-9.53,31.6,2.36,12.44,8.4,23.29,18.68,31.12A91.83,91.83,0,0,0,226.71,582C233,585.25,239.82,587.89,246.32,590.82Z"/>
  </g>
</svg>
