<svg id="Livello_1" data-name="Livello 1" xmlns="http://www.w3.org/2000/svg" viewBox="0 0 841.89 841.89">
  <defs>
    <style>
      .cls-1 {
        fill: #231f20;
      }
    </style>
  </defs>
  <title>Glos</title>
  <g>
    <g>
      <path class="cls-1" d="M253.66,385.05c-34.88-.31-63.6,18.7-63.6,18.7s-28.71-19-63.59-18.7C-14.62,386.36,6.58,275.39,73.54,254.85c0,0-33.48-88.47,71.42-107.43,0,0-34.62-16.35-2.23-48.74,23.42-23.42,45.54-80,47.33-85.18,1.79,5.2,23.91,61.76,47.34,85.18,32.38,32.39-2.23,48.74-2.23,48.74,104.89,19,71.41,107.43,71.41,107.43C373.54,275.39,394.74,386.36,253.66,385.05Z"/>
      <path class="cls-1" d="M715.42,385.05c-34.88-.31-63.59,18.7-63.59,18.7s-28.72-19-63.6-18.7c-141.08,1.31-119.88-109.66-52.92-130.2,0,0-33.48-88.47,71.41-107.43,0,0-34.61-16.35-2.23-48.74,23.43-23.42,45.55-80,47.34-85.18,1.79,5.2,23.91,61.76,47.33,85.18,32.39,32.39-2.23,48.74-2.23,48.74,104.9,19,71.42,107.43,71.42,107.43C835.31,275.39,856.51,386.36,715.42,385.05Z"/>
    </g>
    <g>
      <path class="cls-1" d="M253.66,456.84c-34.88.31-63.6-18.7-63.6-18.7s-28.71,19-63.59,18.7C-14.62,455.53,6.58,566.5,73.54,587c0,0-33.48,88.47,71.42,107.43,0,0-34.62,16.35-2.23,48.74,23.42,23.42,45.54,80,47.33,85.18,1.79-5.2,23.91-61.76,47.34-85.18,32.38-32.39-2.23-48.74-2.23-48.74C340.06,675.51,306.58,587,306.58,587,373.54,566.5,394.74,455.53,253.66,456.84Z"/>
      <path class="cls-1" d="M715.42,456.84c-34.88.31-63.59-18.7-63.59-18.7s-28.72,19-63.6,18.7C447.15,455.53,468.35,566.5,535.31,587c0,0-33.48,88.47,71.41,107.43,0,0-34.61,16.35-2.23,48.74,23.43,23.42,45.55,80,47.34,85.18,1.79-5.2,23.91-61.76,47.33-85.18,32.39-32.39-2.23-48.74-2.23-48.74,104.9-19,71.42-107.43,71.42-107.43C835.31,566.5,856.51,455.53,715.42,456.84Z"/>
    </g>
  </g>
</svg>
