<svg id="Livello_1" data-name="Livello 1" xmlns="http://www.w3.org/2000/svg" viewBox="0 0 841.89 841.89">
  <title>Glos</title>
  <g>
    <g>
      <path d="M250.7,180s-64.11-144.12,0-144C314.82,35.85,250.7,180,250.7,180Z"/>
      <path d="M222.18,185S112.64,71.5,172.92,49.66C233.14,27.64,222.18,185,222.18,185Z"/>
      <path d="M197.1,199.48S55.35,130.29,104.52,89.15C153.57,47.86,197.1,199.48,197.1,199.48Z"/>
      <path d="M178.48,221.67s-156.87-16.54-124.72-72C85.72,94.08,178.48,221.67,178.48,221.67Z"/>
      <path d="M168.58,248.88S15.51,287,26.74,223.87C37.78,160.72,168.58,248.88,168.58,248.88Z"/>
      <path d="M168.58,277.85S37.78,366,26.74,302.86C15.51,239.73,168.58,277.85,168.58,277.85Z"/>
      <path d="M178.49,305.06s-92.77,127.59-124.73,72C21.61,321.6,178.49,305.06,178.49,305.06Z"/>
      <path d="M197.1,327.25s-43.53,151.62-92.58,110.33C55.35,396.44,197.1,327.25,197.1,327.25Z"/>
      <path d="M222.18,341.73s11,157.36-49.26,135.34C112.64,455.23,222.18,341.73,222.18,341.73Z"/>
      <path d="M250.7,346.76s64.12,144.12,0,144C186.59,490.88,250.7,346.76,250.7,346.76Z"/>
      <path d="M279.23,341.73s109.54,113.5,49.26,135.34C268.27,499.09,279.23,341.73,279.23,341.73Z"/>
      <path d="M304.31,327.25s141.75,69.19,92.57,110.33C347.84,478.87,304.31,327.25,304.31,327.25Z"/>
      <path d="M322.92,305.06s156.88,16.54,124.73,72C415.68,432.65,322.92,305.06,322.92,305.06Z"/>
      <path d="M332.83,277.85s153.07-38.12,141.84,25C463.63,366,332.83,277.85,332.83,277.85Z"/>
      <path d="M332.83,248.88s130.8-88.16,141.84-25C485.9,287,332.83,248.88,332.83,248.88Z"/>
      <path d="M322.92,221.67s92.76-127.59,124.73-72C479.8,205.13,322.92,221.67,322.92,221.67Z"/>
      <path d="M304.31,199.48S347.84,47.86,396.88,89.15C446.06,130.29,304.31,199.48,304.31,199.48Z"/>
      <path d="M279.23,185s-11-157.36,49.26-135.34C388.77,71.5,279.23,185,279.23,185Z"/>
      <circle cx="250.7" cy="263.37" r="43.61"/>
    </g>
    <g>
      <path d="M591.18,499.05s-64.11-144.13,0-144C655.3,354.92,591.18,499.05,591.18,499.05Z"/>
      <path d="M562.66,504.08S453.12,390.57,513.4,368.74C573.62,346.72,562.66,504.08,562.66,504.08Z"/>
      <path d="M537.58,518.56S395.83,449.36,445,408.23C494.05,366.94,537.58,518.56,537.58,518.56Z"/>
      <path d="M519,540.75s-156.88-16.54-124.73-72C426.21,413.16,519,540.75,519,540.75Z"/>
      <path d="M509.06,568S356,606.07,367.22,543C378.26,479.79,509.06,568,509.06,568Z"/>
      <path d="M509.06,596.92s-130.8,88.17-141.84,25C356,558.81,509.06,596.92,509.06,596.92Z"/>
      <path d="M519,624.14s-92.76,127.58-124.73,72C362.09,640.68,519,624.14,519,624.14Z"/>
      <path d="M537.58,646.32S494.05,797.94,445,756.65C395.83,715.52,537.58,646.32,537.58,646.32Z"/>
      <path d="M562.66,660.8s11,157.37-49.26,135.34C453.12,774.31,562.66,660.8,562.66,660.8Z"/>
      <path d="M591.19,665.83s64.11,144.13,0,144C527.07,810,591.19,665.83,591.19,665.83Z"/>
      <path d="M619.71,660.8S729.25,774.31,669,796.14C608.75,818.17,619.71,660.8,619.71,660.8Z"/>
      <path d="M644.79,646.32s141.75,69.2,92.57,110.33C688.32,797.94,644.79,646.32,644.79,646.32Z"/>
      <path d="M663.4,624.14s156.88,16.54,124.73,72C756.16,751.72,663.4,624.14,663.4,624.14Z"/>
      <path d="M673.31,596.92s153.07-38.11,141.84,25C804.11,685.09,673.31,596.92,673.31,596.92Z"/>
      <path d="M673.31,568s130.8-88.17,141.84-25C826.38,606.07,673.31,568,673.31,568Z"/>
      <path d="M663.4,540.75s92.77-127.59,124.73-72C820.28,524.21,663.4,540.75,663.4,540.75Z"/>
      <path d="M644.79,518.56s43.53-151.62,92.57-110.33C786.54,449.36,644.79,518.56,644.79,518.56Z"/>
      <path d="M619.71,504.08s-11-157.36,49.26-135.34C729.25,390.57,619.71,504.08,619.71,504.08Z"/>
      <circle cx="591.19" cy="582.44" r="43.61"/>
    </g>
  </g>
</svg>
