<svg id="Livello_1" data-name="Livello 1" xmlns="http://www.w3.org/2000/svg" viewBox="0 0 841.89 841.89">
  <defs>
    <style>
      .cls-1 {
        fill: #231f20;
      }
    </style>
  </defs>
  <title>Glos</title>
  <g>
    <path class="cls-1" d="M355.94,492.05C337,447.88,257.56,429,236.27,366.88c0,0,78.27-46.17,76-157.45S200.52,80,148.11,109c0,0-34.35-77.89-91-32S45.3,193,64.57,222.53c10.57,16.19,33.35,29.27,90.72,14.19s3.89,16.92,42.43,11.82c13.84-6.6.14-54.67-31-62.4,0,0,44.89-61.82,66.64,41.32S62.52,278.22,61.13,403.56,207.57,474.3,261.32,556.81c24,38.57-1.76,78-1.76,78l-52.43-70.64,26.72,3.07S222.49,522.67,154.53,513c-27.48-3.91-48-19.14-48-19.14s9.54,123.69-9,140.76c-25.13,23.16-47.26-29.72-47.26-29.72s-30.56,81,64.7,65c0,0,30.54,45.08-47.55,49.08,0,0,39.19,62.87,89.09,32.55C192.06,729.87,174.3,638,174.3,638s20.17,96.22,47.49,116.16C316.64,823.29,400.9,596.65,355.94,492.05Z"/>
    <path class="cls-1" d="M540.5,779.34H301.33s127-147.74,65.47-289.69l2.73-323H472.38l2.73,323C413.57,631.6,540.5,779.34,540.5,779.34Z"/>
    <path class="cls-1" d="M486,492.05c19-44.17,98.38-63.09,119.67-125.17,0,0-78.27-46.17-76-157.45S641.37,80,693.78,109c0,0,34.35-77.89,91-32s11.85,116-7.42,145.53C766.75,238.72,744,251.8,686.6,236.72s-3.89,16.92-42.43,11.82c-13.84-6.6-.14-54.67,31-62.4,0,0-44.89-61.82-66.64,41.32s170.88,50.76,172.27,176.1S634.32,474.3,580.57,556.81c-24,38.57,1.76,78,1.76,78l52.43-70.64L608,567.25S619.4,522.67,687.36,513c27.48-3.91,48-19.14,48-19.14s-9.54,123.69,9,140.76c25.13,23.16,47.26-29.72,47.26-29.72s30.56,81-64.7,65c0,0-30.54,45.08,47.55,49.08,0,0-39.19,62.87-89.09,32.55C649.83,729.87,667.59,638,667.59,638s-20.17,96.22-47.49,116.16C525.25,823.29,441,596.65,486,492.05Z"/>
    <path class="cls-1" d="M496.11,130.23l-2.3,4.86a29.17,29.17,0,0,1-26.21,16.39H374.31a29.17,29.17,0,0,1-26.21-16.39l-2.39-4.86Z"/>
  </g>
</svg>
