<svg id="Livello_1" data-name="Livello 1" xmlns="http://www.w3.org/2000/svg" viewBox="0 0 841.89 841.89">
  <title>Glos</title>
  <g>
    <path d="M32.18,480C32,480,59,478,76.82,497.19c-5.37-38.49,28.92-98.33,56.47-121.78,19-16.16,43.42-78,50-91.58,1-2.15-1.91-3.08-3.27-.78-6.89,14-17.39,27.3-24.23,40.29-8.06,15.39-19.49,27.9-36.49,33.17-18.22,5.62-24.32.73-29.4-14.65-13.09-39.86,56.85-103.31,62.42-109-4.84,0-24.86.2-32.09-.78-11.09-1.46-19.88-6.3-22-18.81-.93-5.56,5.91-11.13,13.92-11.18,16.8-.05,33.65-.2,50.41-.05,4.88.05,9.77.15,14.6.24,31,.64,28.53,18.13,19.4,28.29,10.16-4.2,18.75-5.52,27.69-3,8.94-2.49,17.54-1.17,27.7,3-9.14-10.16-11.63-27.65,19.39-28.29,4.83-.09,9.72-.19,14.6-.24v.05h50.41c8,0,14.85,5.62,13.92,11.18-2.15,12.51-10.94,17.35-22,18.81-7.22,1-27.25.78-32.09.78,5.57,5.67,75.51,69.12,62.42,109-5.08,15.38-11.18,20.27-29.4,14.65-17-5.27-28.43-17.78-36.49-33.17-6.84-13-17.34-26.32-24.22-40.29-1.37-2.3-4.3-1.37-3.28.78,6.55,13.63,31,75.42,50,91.58,27.55,23.45,61.84,83.29,56.47,121.78C389.34,478,416.35,480,416.2,480c-20,11.24-40.68,50.27-42.2,54.38-3.22,8.74-17.39,17.34-25.94,14.8-27.84-8.36-52.36-68.15-53.14-70.35s-3.42-1.12-2.83.44,20.17,71.61,45.18,79.42c89.53,28,121.77,166.37,22.37,202.18,18.61,10.3,28.53,60.37,22.08,66.43-1.91-5.91-26.67-48.31-46.94-53.73-27.8-7.43-63.16-18.57-74.69-47.53C240.26,676.26,273,631,307.38,633c25.49,1.46,26.62,23.3,25.79,28.72-1.37,8.35-.35,30.92,13.67,21.25,26.87-18.56,12.17-54.52-10.69-69-13.09-8.31-68.63-3.23-97.89-59.69-14.07-27.11-10.11-114.6-5.81-139.17,6.3-35.75-5.43-55-8.26-62.18-2.83,7.18-14.55,26.43-8.25,62.18,4.29,24.57,8.25,112.06-5.82,139.17-29.26,56.46-84.79,51.38-97.88,59.69-22.86,14.45-37.57,50.41-10.7,69,14,9.67,15-12.9,13.68-21.25-.83-5.42.29-27.26,25.79-28.72,34.34-2,67.11,43.23,47.28,93.05-11.53,29-46.89,40.1-74.69,47.53-20.27,5.42-45,47.82-46.94,53.73-6.44-6.06,3.47-56.13,22.08-66.43-99.4-35.81-67.16-174.14,22.37-202.18,25-7.81,44.65-77.76,45.19-79.42s-2.1-2.54-2.84-.44-25.3,62-53.14,70.35c-8.55,2.54-22.72-6.06-25.94-14.8C72.87,530.31,52.2,491.28,32.18,480Z"/>
    <path d="M425.69,361.85c-.15,0,26.86,2,44.64-17.15C465,383.19,499.25,443,526.8,466.48c19,16.16,43.42,77.95,50,91.58,1,2.15-1.91,3.08-3.28.78-6.88-14-17.38-27.3-24.22-40.29-8.06-15.39-19.49-27.9-36.49-33.17-18.22-5.62-24.32-.73-29.4,14.65-13.09,39.86,56.85,103.31,62.42,109-4.84,0-24.87-.2-32.09.78-11.09,1.46-19.88,6.3-22,18.81-.93,5.56,5.91,11.13,13.92,11.18,16.8.05,33.65.2,50.41.05,4.88-.05,9.77-.15,14.6-.24,31-.64,28.53-18.13,19.39-28.29,10.16,4.2,18.76,5.52,27.7,3,8.94,2.49,17.53,1.17,27.69-3-9.13,10.16-11.62,27.65,19.4,28.29,4.83.09,9.72.19,14.6.24v-.05H729.8c8,0,14.85-5.62,13.92-11.18-2.15-12.51-10.94-17.35-22-18.81-7.23-1-27.25-.78-32.09-.78,5.57-5.67,75.51-69.12,62.42-109-5.08-15.38-11.18-20.27-29.4-14.65-17,5.27-28.43,17.78-36.49,33.17-6.84,13-17.34,26.32-24.23,40.29-1.36,2.3-4.29,1.37-3.27-.78,6.55-13.63,31-75.42,50-91.58,27.55-23.45,61.84-83.29,56.47-121.78,17.78,19.15,44.79,17.2,44.64,17.15-20-11.24-40.69-50.27-42.2-54.38-3.23-8.74-17.39-17.34-25.94-14.8C713.73,301,689.21,360.82,688.43,363s-3.42,1.12-2.84-.44,20.18-71.61,45.19-79.42c89.53-28,121.77-166.37,22.37-202.18,18.61-10.3,28.52-60.37,22.08-66.43-1.91,5.91-26.67,48.31-46.94,53.73-27.8,7.43-63.16,18.56-74.69,47.53-19.83,49.82,12.94,95.06,47.28,93.05,25.5-1.46,26.62-23.3,25.79-28.72-1.36-8.35-.34-30.92,13.68-21.25,26.87,18.56,12.16,54.52-10.7,69-13.09,8.31-68.63,3.23-97.88,59.69-14.07,27.11-10.11,114.6-5.82,139.16,6.3,35.76-5.42,55-8.25,62.19-2.83-7.18-14.56-26.43-8.26-62.19,4.3-24.56,8.26-112-5.81-139.16-29.26-56.46-84.8-51.38-97.89-59.69-22.86-14.45-37.56-50.41-10.69-69,14-9.67,15,12.9,13.67,21.25-.83,5.42.3,27.26,25.79,28.72,34.34,2,67.12-43.23,47.29-93.05-11.53-29-46.9-40.1-74.69-47.53-20.27-5.42-45-47.82-46.94-53.73-6.45,6.06,3.47,56.13,22.08,66.43-99.4,35.81-67.16,174.14,22.37,202.18,25,7.81,44.65,77.76,45.18,79.42s-2.1,2.54-2.83.44-25.3-62-53.14-70.35c-8.55-2.54-22.72,6.06-25.94,14.8C466.37,311.58,445.71,350.61,425.69,361.85Z"/>
  </g>
</svg>
