<svg id="Livello_1" data-name="Livello 1" xmlns="http://www.w3.org/2000/svg" viewBox="0 0 841.89 841.89">
  <defs>
    <style>
      .cls-1 {
        fill: #231f20;
      }
    </style>
  </defs>
  <title>Glos</title>
  <g>
    <path class="cls-1" d="M658.61,121.49l-181,209a106.81,106.81,0,0,0-113.2,0l-181-209c-6.06-6.95-6.78-78.89,76.74-97.69C322.38,9.71,374.7,32.35,401.62,48a38.5,38.5,0,0,0,38.69,0C467.14,32.35,519.46,9.71,581.86,23.8,665.38,42.6,664.67,114.54,658.61,121.49Z"/>
    <path class="cls-1" d="M330.58,477.59l-209.11,181c-7,6.06-78.89,6.77-97.7-76.75C9.69,519.49,32.33,467.16,48,440.33a38.23,38.23,0,0,0,0-38.77C32.33,374.73,9.69,322.4,23.77,260.1c18.81-83.52,90.74-82.81,97.7-76.75l209,181a106.61,106.61,0,0,0,.09,113.2Z"/>
    <path class="cls-1" d="M581.86,818.09c-62.4,14.09-114.72-8.55-141.55-24.24a38.5,38.5,0,0,0-38.69,0c-26.92,15.69-79.24,38.33-141.55,24.24-83.52-18.8-82.8-90.74-76.74-97.69l181-209a106.81,106.81,0,0,0,113.2,0l181,209C664.67,727.35,665.38,799.29,581.86,818.09Z"/>
    <path class="cls-1" d="M793.83,440.33c15.77,26.83,38.41,79.16,24.24,141.55-18.81,83.52-90.74,82.81-97.69,76.75l-209.12-181a106.61,106.61,0,0,0,.09-113.2l209-181c7-6.06,78.88-6.77,97.69,76.66,14.17,62.39-8.47,114.72-24.24,141.55A38.6,38.6,0,0,0,793.83,440.33Z"/>
    <path class="cls-1" d="M501.19,421A80.23,80.23,0,1,1,421,340.68,80.23,80.23,0,0,1,501.19,421Z"/>
    <path class="cls-1" d="M501.19,421A80.23,80.23,0,1,1,421,340.68,80.23,80.23,0,0,1,501.19,421Z"/>
  </g>
</svg>
