<svg id="Livello_1" data-name="Livello 1" xmlns="http://www.w3.org/2000/svg" viewBox="0 0 841.89 841.89">
  <defs>
    <style>
      .cls-1 {
        fill: #231f20;
      }
    </style>
  </defs>
  <title>Glos</title>
  <g>
    <path class="cls-1" d="M442.43,334.12a90.36,90.36,0,0,0-43,0c-6-13.65-66.5-157.7-22.53-238.06,16.61-29.75,44.05-29.32,44.05-29.32s27.44-.43,44,29.32C508.93,176.42,448.42,320.47,442.43,334.12Z"/>
    <path class="cls-1" d="M374.84,344.37a88.6,88.6,0,0,0-30.47,30.47h-.07C330.36,369.28,185.74,310.29,160,222.35c-9.31-32.79,10.4-51.85,10.4-51.85s19.13-19.71,51.92-10.4C310.22,185.81,369.28,330.44,374.84,344.37Z"/>
    <path class="cls-1" d="M331.52,421a88.38,88.38,0,0,0,2.6,21.52c-13.65,6-157.7,66.5-238.06,22.53-29.75-16.61-29.32-44-29.32-44s-.43-27.44,29.32-44c80.36-44,224.41,16.53,238.06,22.52A88.44,88.44,0,0,0,331.52,421Z"/>
    <path class="cls-1" d="M374.84,497.59c-5.56,13.94-64.62,158.56-152.49,184.27-32.79,9.24-51.92-10.47-51.92-10.47s-19.71-19.06-10.4-51.85c25.71-87.87,170.33-146.93,184.27-152.49A89.61,89.61,0,0,0,374.84,497.59Z"/>
    <path class="cls-1" d="M465,745.83c-16.6,29.75-44,29.32-44,29.32s-27.44.43-44.05-29.32c-44-80.36,16.54-224.41,22.53-238.06a90.36,90.36,0,0,0,43,0C448.42,521.42,508.93,665.47,465,745.83Z"/>
    <path class="cls-1" d="M671.39,671.39s-19.14,19.71-51.92,10.47C531.6,656.15,472.54,511.53,467,497.59a89,89,0,0,0,30.54-30.54c13.93,5.56,158.56,64.62,184.27,152.49C691.1,652.33,671.39,671.39,671.39,671.39Z"/>
    <path class="cls-1" d="M775.15,421s.43,27.44-29.32,44c-80.36,44-224.41-16.54-238.06-22.53a90.36,90.36,0,0,0,0-43c13.65-6,157.7-66.5,238.06-22.52C775.58,393.54,775.15,421,775.15,421Z"/>
    <path class="cls-1" d="M681.79,222.35c-25.71,87.94-170.34,146.93-184.27,152.49h-.07A88,88,0,0,0,467,344.37c5.56-13.93,64.62-158.56,152.49-184.27,32.78-9.31,51.92,10.4,51.92,10.4S691.1,189.56,681.79,222.35Z"/>
  </g>
</svg>
