<svg id="Livello_1" data-name="Livello 1" xmlns="http://www.w3.org/2000/svg" viewBox="0 0 841.89 841.89">
  <title>Glos</title>
  <g>
    <path d="M420.94,308.7s-76-170.76,0-170.64C496.91,137.94,420.94,308.7,420.94,308.7Z"/>
    <path d="M341.57,341.57s-174.45-67-120.65-120.65C274.54,167.12,341.57,341.57,341.57,341.57Z"/>
    <path d="M308.7,420.94s-170.76,76-170.64,0C137.94,345,308.7,420.94,308.7,420.94Z"/>
    <path d="M341.57,500.32S274.54,674.77,220.92,621C167.12,567.35,341.57,500.32,341.57,500.32Z"/>
    <path d="M420.94,533.19s76,170.76,0,170.64C345,704,420.94,533.19,420.94,533.19Z"/>
    <path d="M500.32,500.31S674.77,567.35,621,621C567.35,674.77,500.32,500.31,500.32,500.31Z"/>
    <path d="M533.19,420.94s170.76-76,170.64,0C704,496.91,533.19,420.94,533.19,420.94Z"/>
    <path d="M500.31,341.57s67-174.45,120.66-120.65C674.77,274.54,500.31,341.57,500.31,341.57Z"/>
    <circle cx="420.94" cy="420.94" r="99.49"/>
    <path d="M366,297.59S137,60.23,263,14.57C388.92-31.48,366,297.59,366,297.59Z"/>
    <path d="M294.88,372.56s-329.82-5.86-273-127.28C78.39,123.67,294.88,372.56,294.88,372.56Z"/>
    <path d="M297.59,475.87s-237.36,229.07-283,103C-31.48,453,297.59,475.87,297.59,475.87Z"/>
    <path d="M372.56,547S366.7,876.83,245.28,820C123.67,763.5,372.56,547,372.56,547Z"/>
    <path d="M475.87,544.3s229.07,237.36,103,283C453,873.37,475.87,544.3,475.87,544.3Z"/>
    <path d="M547,469.33s329.82,5.86,273,127.28C763.5,718.22,547,469.33,547,469.33Z"/>
    <path d="M544.3,366S781.66,137,827.32,263C873.37,388.92,544.3,366,544.3,366Z"/>
    <path d="M469.33,294.88s5.86-329.82,127.28-273C718.22,78.39,469.33,294.88,469.33,294.88Z"/>
  </g>
</svg>
