<svg id="Livello_1" data-name="Livello 1" xmlns="http://www.w3.org/2000/svg" viewBox="0 0 841.89 841.89">
  <title>Glos</title>
  <g>
    <path d="M448,339.16s84.59-11.52,83.42,68.25c-.66,6.54-26.26-16.63-53.83-11.87-15.37.66-15.8-6.76-15.8-6.76s-1.09,19.29-17.57,20.61-14.47-4.33-23.28-4c-8.77-.34-6.79,5.31-23.27,4s-17.54-20.61-17.54-20.61-.43,7.42-15.83,6.76c-27.57-4.76-53.17,18.41-53.8,11.87-1.2-79.77,83.39-68.25,83.39-68.25C382.45,332,378.09,291.61,362.1,285s-36.52-12.41-41.25-36.57S291.18,232.5,301,229c68.5-21.78,82.64,42.25,82.43,39.67s7-40.59-20.78-51.39c-47.32-13.68-33.91-37.58-39.18-46.78s-24.74-6.88-17.14-10.84c57.61-23.22,82.29,31.68,82.29,31.68s-1.09-37.5-16.71-45c-32.85-3.12-40.73-32.7-42.77-43S301,88.49,310.73,86.48c77.39-15.93,87.43,67.77,87.43,67.77l-9.63,143c-3.1,47.69,32.41,47.06,32.41,47.06s35.55.63,32.45-47.06l-9.63-142.95s10-83.7,87.43-67.77c9.74,2-16.37,6.57-18.4,16.86s-9.92,39.87-42.77,43c-15.62,7.54-16.71,45-16.71,45s24.68-54.9,82.29-31.68c7.6,4-11.86,1.64-17.14,10.84s8.14,33.1-39.18,46.78c-27.75,10.8-20.58,48.81-20.78,51.39s13.93-61.45,82.43-39.67c9.78,3.47-15.16-4.79-19.89,19.38s-25.22,30-41.22,36.57S459.47,332,448,339.16Z"/>
    <path d="M436,88.7c-4.32,11,9.21,156.37,11.41,208.51.52,12,.2,37.89-26.51,40.24-26.72-2.35-27-28.2-26.52-40.24,2.24-52.14,15.74-197.47,11.44-208.51C388.86,42.52,356,56.57,376.05,48s31.67,19,33.39,14.9,4.5-1,1.84-13C397.52,24.84,420.94,8.5,420.94,8.5S444.39,24.84,430.6,50c-2.67,12,.14,8.83,1.86,13S445.82,39.49,465.85,48,453,42.52,436,88.7Z"/>
  </g>
  <g>
    <path d="M448,502.73s84.59,11.52,83.42-68.25c-.66-6.54-26.26,16.63-53.83,11.87-15.37-.66-15.8,6.76-15.8,6.76s-1.09-19.29-17.57-20.61-14.47,4.33-23.28,4c-8.77.34-6.79-5.31-23.27-4s-17.54,20.61-17.54,20.61-.43-7.42-15.83-6.76c-27.57,4.76-53.17-18.41-53.8-11.87-1.2,79.77,83.39,68.25,83.39,68.25-11.44,7.17-15.8,47.55-31.79,54.18s-36.52,12.41-41.25,36.57S291.18,609.39,301,612.86c68.5,21.78,82.64-42.25,82.43-39.67s7,40.59-20.78,51.39c-47.32,13.68-33.91,37.58-39.18,46.78s-24.74,6.88-17.14,10.84c57.61,23.22,82.29-31.68,82.29-31.68s-1.09,37.5-16.71,45c-32.85,3.12-40.73,32.7-42.77,43S301,753.4,310.73,755.41c77.39,15.93,87.43-67.77,87.43-67.77l-9.63-142.95c-3.1-47.69,32.41-47.06,32.41-47.06s35.55-.63,32.45,47.06l-9.63,142.95s10,83.7,87.43,67.77c9.74-2-16.37-6.57-18.4-16.86s-9.92-39.87-42.77-43c-15.62-7.54-16.71-45-16.71-45S478,705.42,535.6,682.2c7.6-4-11.86-1.64-17.14-10.84s8.14-33.1-39.18-46.78c-27.75-10.8-20.58-48.81-20.78-51.39s13.93,61.45,82.43,39.67c9.78-3.47-15.16,4.79-19.89-19.38s-25.22-30-41.22-36.57S459.47,509.9,448,502.73Z"/>
    <path d="M436,753.19c-4.32-11,9.21-156.37,11.41-208.51.52-12,.2-37.89-26.51-40.24-26.72,2.35-27,28.2-26.52,40.24,2.24,52.14,15.74,197.47,11.44,208.51-17,46.18-49.85,32.13-29.81,40.67s31.67-19,33.39-14.9,4.5,1,1.84,12.95c-13.76,25.14,9.66,41.48,9.66,41.48s23.45-16.34,9.66-41.48c-2.67-11.95.14-8.83,1.86-12.95s13.36,23.44,33.39,14.9S453,799.37,436,753.19Z"/>
  </g>
</svg>
