<svg id="Livello_1" data-name="Livello 1" xmlns="http://www.w3.org/2000/svg" viewBox="0 0 841.89 841.89">
  <defs>
    <style>
      .cls-1 {
        fill: #231f20;
      }
    </style>
  </defs>
  <title>Glos</title>
  <path class="cls-1" d="M766.4,665.31c24.22-24.22,23-64.75-2.78-90.5s-66.28-27-90.5-2.77a58.39,58.39,0,0,0-10.73,14.71l-18.93-18.93a13,13,0,0,0-17.73-17.73L483.25,407.6,606.54,284.32l78.38,78.37L823.76,223.85,745.4,145.49a13.49,13.49,0,0,0,9.24-4,13,13,0,0,0,2.76-14.9c5.35-15.63,2-33.28-10.06-45.36s-29.62-15.37-45.22-10.11a13,13,0,0,0-15.3,2.54,13.39,13.39,0,0,0-4,9.78l.25-.25h0a2.52,2.52,0,0,0-.27.3.11.11,0,0,1,0-.06L421,345.31,159.07,83.43s0,0,0,.06a3.73,3.73,0,0,0-.26-.3h0l.25.25a13.32,13.32,0,0,0-4-9.76,13,13,0,0,0-15.28-2.56c-15.6-5.26-33.18-1.94-45.24,10.12s-15.4,29.72-10,45.35a13,13,0,0,0,2.74,14.91,13.4,13.4,0,0,0,9.26,4L18.13,223.87,157,362.71l78.4-78.39L358.65,407.6,216.17,550.09a12.95,12.95,0,0,0-17.73,17.73l-18.93,18.93A58.67,58.67,0,0,0,168.79,572c-24.24-24.24-64.75-23-90.51,2.77s-27,66.27-2.77,90.5c-25.75,25.75-27,66.27-2.76,90.49s64.75,23,90.49-2.75c24.23,24.22,64.76,23,90.51-2.77s27-66.29,2.77-90.51a58.85,58.85,0,0,0-14.71-10.72l18.93-18.93a13,13,0,0,0,17.73-17.73L421,469.9,563.44,612.39a12.95,12.95,0,0,0,17.73,17.73l18.93,18.93a58.9,58.9,0,0,0-14.72,10.72c-24.23,24.24-23,64.74,2.78,90.51s66.26,27,90.5,2.77c25.75,25.75,66.27,27,90.48,2.77S792.14,691.06,766.4,665.31Zm-21-519.85,0,0h0A0,0,0,0,0,745.36,145.46Zm-648.82,0h0v0a0,0,0,0,0,0,0Z"/>
</svg>
