<svg id="Livello_1" data-name="Livello 1" xmlns="http://www.w3.org/2000/svg" viewBox="0 0 841.89 841.89">
  <defs>
    <style>
      .cls-1 {
        fill: #231f20;
      }
    </style>
  </defs>
  <title>Glos</title>
  <g>
    <g>
      <path class="cls-1" d="M438.05,385.91c.05-34.29.31-59.38,0-67.22a21.17,21.17,0,0,1,.73-7.35,55.42,55.42,0,0,1,5.33-12.72c.71-1.39,4.92-9,12.67-26.2,2-4.39,5.38-12.05,12.12-27.18,10.62-23.87,9.67-21.8,10.28-23.13,8.4-18.5,9.73-20.26,12.48-28.28a100,100,0,0,0,5.51-22,105.66,105.66,0,0,0,.37-19.83c-.39-7.43-.62-11.24-2.2-15.79-2-5.72-4.91-9.73-7.72-13.59a74.54,74.54,0,0,0-8.66-9.87c-2.32-2.22-7.28-7.13-9-8.42a24.6,24.6,0,0,0,4.39-9.66,25.07,25.07,0,0,0-.88-13.18c-1.45-4.4-3.79-7.58-12.29-15.8a235.3,235.3,0,0,0-22-19.32c-6.23-4.83-11.69-8.65-15.81-11.42-4.12,2.77-9.58,6.59-15.81,11.42A235.3,235.3,0,0,0,385.7,65.65c-8.5,8.22-10.84,11.4-12.29,15.8a25,25,0,0,0-.88,13.18,24.6,24.6,0,0,0,4.39,9.66c-1.68,1.29-6.65,6.2-9,8.42a75.33,75.33,0,0,0-8.66,9.87c-2.8,3.86-5.72,7.87-7.71,13.59-1.58,4.55-1.81,8.36-2.2,15.79a105.66,105.66,0,0,0,.37,19.83,100.56,100.56,0,0,0,5.5,22c2.76,8,4.08,9.78,12.49,28.28.61,1.33-.34-.74,10.28,23.13,6.73,15.13,10.14,22.79,12.12,27.18,7.75,17.16,12,24.81,12.67,26.2a55.42,55.42,0,0,1,5.33,12.72,21.17,21.17,0,0,1,.73,7.35c-.31,7.84-.05,32.93,0,67.22"/>
      <path class="cls-1" d="M438.05,456c.05,34.28.31,59.38,0,67.22a21.17,21.17,0,0,0,.73,7.35,55.42,55.42,0,0,0,5.33,12.72c.71,1.39,4.92,9,12.67,26.2,2,4.39,5.38,12,12.12,27.18,10.62,23.87,9.67,21.8,10.28,23.13,8.4,18.5,9.73,20.26,12.48,28.28a100,100,0,0,1,5.51,22,105.66,105.66,0,0,1,.37,19.83c-.39,7.43-.62,11.24-2.2,15.79-2,5.72-4.91,9.73-7.72,13.59a74.54,74.54,0,0,1-8.66,9.87c-2.32,2.22-7.28,7.13-9,8.42a24.6,24.6,0,0,1,4.39,9.66,25,25,0,0,1-.88,13.17c-1.45,4.41-3.79,7.59-12.29,15.81a235.3,235.3,0,0,1-22,19.32c-6.23,4.83-11.69,8.65-15.81,11.42-4.12-2.77-9.58-6.59-15.81-11.42a235.3,235.3,0,0,1-21.95-19.32c-8.5-8.22-10.84-11.4-12.29-15.81a24.9,24.9,0,0,1-.88-13.17,24.6,24.6,0,0,1,4.39-9.66c-1.68-1.29-6.65-6.2-9-8.42a75.33,75.33,0,0,1-8.66-9.87c-2.8-3.86-5.72-7.87-7.71-13.59-1.58-4.55-1.81-8.36-2.2-15.79a105.66,105.66,0,0,1,.37-19.83,100.56,100.56,0,0,1,5.5-22c2.76-8,4.08-9.78,12.49-28.28.61-1.33-.34.74,10.28-23.13,6.73-15.13,10.14-22.79,12.12-27.18,7.75-17.16,12-24.81,12.67-26.2a55.42,55.42,0,0,0,5.33-12.72,21.17,21.17,0,0,0,.73-7.35c-.31-7.84-.05-32.94,0-67.22"/>
      <circle class="cls-1" cx="423.46" cy="420.94" r="39.35"/>
    </g>
    <g>
      <path class="cls-1" d="M388.42,406.36c-34.28-.05-59.38-.31-67.22,0a20.85,20.85,0,0,1-7.34-.74,55.19,55.19,0,0,1-12.73-5.32c-1.39-.72-9-4.92-26.2-12.67-4.39-2-12-5.39-27.17-12.12-23.88-10.62-21.8-9.68-23.14-10.28-18.49-8.41-20.26-9.73-28.28-12.49a100.27,100.27,0,0,0-22-5.51,106.53,106.53,0,0,0-19.83-.37c-7.44.4-11.25.62-15.79,2.21-5.72,2-9.74,4.91-13.59,7.71a73.25,73.25,0,0,0-9.87,8.66c-2.22,2.32-7.14,7.29-8.43,9A24.68,24.68,0,0,0,97.14,370a25,25,0,0,0-13.17.88c-4.41,1.45-7.58,3.8-15.81,12.3a234,234,0,0,0-19.32,21.95c-4.82,6.23-8.65,11.69-11.41,15.8,2.76,4.12,6.59,9.58,11.41,15.81A234,234,0,0,0,68.16,458.7c8.23,8.5,11.4,10.85,15.81,12.3a25.12,25.12,0,0,0,13.17.88,24.82,24.82,0,0,0,9.66-4.39c1.29,1.67,6.21,6.64,8.43,9a73.25,73.25,0,0,0,9.87,8.66c3.85,2.8,7.87,5.72,13.59,7.71,4.54,1.59,8.35,1.81,15.79,2.21a106.53,106.53,0,0,0,19.83-.37,100.27,100.27,0,0,0,22-5.51c8-2.76,9.79-4.08,28.28-12.49,1.34-.6-.74.34,23.14-10.28,15.13-6.73,22.78-10.14,27.17-12.12,17.17-7.75,24.81-12,26.2-12.67a55.19,55.19,0,0,1,12.73-5.32,20.85,20.85,0,0,1,7.34-.74c7.84.31,32.94.05,67.22,0"/>
      <path class="cls-1" d="M458.5,406.36c34.28-.05,59.38-.31,67.22,0a20.88,20.88,0,0,0,7.34-.74,55.4,55.4,0,0,0,12.73-5.32c1.39-.72,9-4.92,26.2-12.67,4.39-2,12-5.39,27.17-12.12,23.88-10.62,21.8-9.68,23.14-10.28,18.49-8.41,20.26-9.73,28.28-12.49a100.27,100.27,0,0,1,22-5.51,106.53,106.53,0,0,1,19.83-.37c7.44.4,11.25.62,15.79,2.21,5.72,2,9.74,4.91,13.59,7.71a73.89,73.89,0,0,1,9.87,8.66c2.22,2.32,7.14,7.29,8.43,9a24.68,24.68,0,0,1,9.66-4.39,25,25,0,0,1,13.17.88c4.41,1.45,7.58,3.8,15.81,12.3a232.63,232.63,0,0,1,19.31,21.95c4.83,6.23,8.66,11.69,11.42,15.8-2.76,4.12-6.59,9.58-11.42,15.81a232.63,232.63,0,0,1-19.31,21.95c-8.23,8.5-11.4,10.85-15.81,12.3a25.12,25.12,0,0,1-13.17.88,24.82,24.82,0,0,1-9.66-4.39c-1.29,1.67-6.21,6.64-8.43,9a73.89,73.89,0,0,1-9.87,8.66c-3.85,2.8-7.87,5.72-13.59,7.71-4.54,1.59-8.35,1.81-15.79,2.21a106.53,106.53,0,0,1-19.83-.37,100.27,100.27,0,0,1-22-5.51c-8-2.76-9.79-4.08-28.28-12.49-1.34-.6.74.34-23.14-10.28C584,459.65,576.38,456.24,572,454.26c-17.17-7.75-24.81-12-26.2-12.67a55.4,55.4,0,0,0-12.73-5.32,20.88,20.88,0,0,0-7.34-.74c-7.84.31-32.94.05-67.22,0"/>
      <circle class="cls-1" cx="423.46" cy="420.94" r="39.35"/>
    </g>
    <g>
      <path class="cls-1" d="M40.31,799c-2-.68-22.08-8-24.46-23.89-.94-6.27,1.27-11.3,4.15-17.88a68.12,68.12,0,0,1,23.67-28.36C56.78,720,69.41,718.31,76,717.5a83.79,83.79,0,0,1,40.64,5.24,83.79,83.79,0,0,1,5.24,40.64c-.82,6.59-2.53,19.22-11.38,32.33a68,68,0,0,1-28.36,23.66c-6.58,2.89-11.61,5.09-17.88,4.16-15.91-2.38-23.21-22.5-23.9-24.47Z"/>
      <path class="cls-1" d="M121.88,763.38c1,4.25,12.67,15.38,17.88,18.24a35.55,35.55,0,0,0,18.42,4c10.06-.68,16.75-6,25.84-13.54a98.2,98.2,0,0,0,28.17-35.77,111.82,111.82,0,0,0,8.19-27l-23.85-41.45A107.8,107.8,0,0,0,200.81,680a84,84,0,0,0,8.9,16.8c4.82,6.77,12.21,17.15,24.39,19.1a29,29,0,0,0,14.5-1.7c8.1-2.8,13.28-8,17.5-12.9a151.8,151.8,0,0,0,22.41-35c9.29-20.71,13-37.52,17.6-58.61,2.76-12.6,4.4-20.24,5.13-31.14.61-9.23.47-19.29.29-31.59-.08-5.51-.2-10.06-.29-13.14l-3.65-3.65c-3.09-.1-7.63-.22-13.14-.3-12.31-.17-22.37-.31-31.59.3-10.91.72-18.55,2.36-31.15,5.13-21.08,4.62-37.9,8.3-58.6,17.6a151.94,151.94,0,0,0-35,22.4c-4.88,4.23-10.1,9.4-12.9,17.5a29.15,29.15,0,0,0-1.7,14.51c2,12.18,12.34,19.57,19.11,24.39a84.17,84.17,0,0,0,16.8,8.89,107.68,107.68,0,0,0,12.18,4.28L130.15,619a112,112,0,0,0-27.06,8.19,98,98,0,0,0-35.76,28.18c-7.5,9.09-12.87,15.78-13.55,25.83a35.51,35.51,0,0,0,4,18.42c2.86,5.22,14,16.85,18.24,17.89"/>
      <path class="cls-1" d="M796.55,42.88c2,.68,22.08,8,24.46,23.89.94,6.27-1.27,11.3-4.15,17.88A68,68,0,0,1,793.19,113c-13.11,8.86-25.74,10.57-32.33,11.38a83.81,83.81,0,0,1-40.64-5.24A83.79,83.79,0,0,1,715,78.51c.82-6.59,2.53-19.22,11.38-32.33a68.12,68.12,0,0,1,28.36-23.66c6.58-2.89,11.61-5.1,17.88-4.16,15.91,2.38,23.22,22.5,23.9,24.47Z"/>
      <path class="cls-1" d="M760.86,124.39c4.25,1,15.38,12.67,18.25,17.89a35.66,35.66,0,0,1,4,18.42c-.68,10.05-6.05,16.74-13.55,25.83a98,98,0,0,1-35.76,28.18,112,112,0,0,1-27.06,8.19l-41.44-23.85a108.49,108.49,0,0,1,12.19,4.28,83.88,83.88,0,0,1,16.79,8.89c6.77,4.82,17.15,12.21,19.11,24.39a29.15,29.15,0,0,1-1.7,14.51c-2.8,8.1-8,13.27-12.9,17.5a151.94,151.94,0,0,1-35,22.4c-20.7,9.3-37.52,13-58.6,17.6-12.6,2.76-20.24,4.41-31.15,5.13-9.22.61-19.28.47-31.59.3-5.51-.08-10-.2-13.14-.3l-3.64-3.65c-.1-3.08-.22-7.63-.3-13.14-.17-12.3-.32-22.36.3-31.59.72-10.9,2.36-18.54,5.12-31.14,4.62-21.09,8.31-37.9,17.6-58.61a151.8,151.8,0,0,1,22.41-35c4.22-4.88,9.4-10.11,17.5-12.9a29,29,0,0,1,14.5-1.7c12.19,2,19.58,12.33,24.39,19.1a84,84,0,0,1,8.9,16.8,107.8,107.8,0,0,1,4.28,12.19l-23.85-41.45a111.82,111.82,0,0,1,8.19-27,98.09,98.09,0,0,1,28.18-35.77c9.08-7.5,15.77-12.86,25.83-13.54a35.55,35.55,0,0,1,18.42,4c5.21,2.86,16.85,14,17.88,18.24"/>
    </g>
    <g>
      <path class="cls-1" d="M801.58,799c2-.68,22.08-8,24.46-23.89.94-6.27-1.27-11.3-4.15-17.88a68.12,68.12,0,0,0-23.67-28.36c-13.11-8.86-25.74-10.57-32.33-11.38a83.79,83.79,0,0,0-40.64,5.24A83.79,83.79,0,0,0,720,763.38c.82,6.59,2.53,19.22,11.38,32.33a68,68,0,0,0,28.36,23.66c6.58,2.89,11.61,5.09,17.88,4.16,15.91-2.38,23.21-22.5,23.9-24.47Z"/>
      <path class="cls-1" d="M720,763.38c-1,4.25-12.67,15.38-17.88,18.24a35.57,35.57,0,0,1-18.43,4c-10.05-.68-16.74-6-25.83-13.54a98.2,98.2,0,0,1-28.17-35.77,111.82,111.82,0,0,1-8.19-27l23.85-41.45A106,106,0,0,1,641.07,680a83.4,83.4,0,0,1-8.89,16.8c-4.82,6.77-12.21,17.15-24.39,19.1a29,29,0,0,1-14.5-1.7c-8.1-2.8-13.28-8-17.5-12.9a151.8,151.8,0,0,1-22.41-35c-9.29-20.71-13-37.52-17.6-58.61-2.76-12.6-4.4-20.24-5.13-31.14-.61-9.23-.47-19.29-.29-31.59.08-5.51.2-10.06.29-13.14l3.65-3.65c3.09-.1,7.63-.22,13.14-.3,12.31-.17,22.37-.31,31.59.3,10.91.72,18.55,2.36,31.15,5.13,21.08,4.62,37.9,8.3,58.6,17.6a151.94,151.94,0,0,1,35,22.4c4.88,4.23,10.1,9.4,12.9,17.5a29.15,29.15,0,0,1,1.7,14.51c-2,12.18-12.34,19.57-19.11,24.39a84.17,84.17,0,0,1-16.8,8.89,107.68,107.68,0,0,1-12.18,4.28L711.74,619a112,112,0,0,1,27.06,8.19,98,98,0,0,1,35.76,28.18c7.5,9.09,12.87,15.78,13.55,25.83a35.51,35.51,0,0,1-4,18.42c-2.86,5.22-14,16.85-18.24,17.89"/>
      <path class="cls-1" d="M45.34,42.88c-2,.68-22.09,8-24.46,23.89C19.94,73,22.15,78.07,25,84.65A68.12,68.12,0,0,0,48.69,113c13.12,8.86,25.75,10.57,32.34,11.38a83.81,83.81,0,0,0,40.64-5.24,83.79,83.79,0,0,0,5.24-40.64c-.82-6.59-2.53-19.22-11.38-32.33A68.12,68.12,0,0,0,87.17,22.52c-6.58-2.89-11.61-5.1-17.88-4.16-15.91,2.38-23.22,22.5-23.9,24.47Z"/>
      <path class="cls-1" d="M81,124.39c-4.25,1-15.38,12.67-18.25,17.89a35.66,35.66,0,0,0-4,18.42c.68,10.05,6,16.74,13.55,25.83a98,98,0,0,0,35.76,28.18,112,112,0,0,0,27.06,8.19l41.44-23.85a108.49,108.49,0,0,0-12.19,4.28,83.88,83.88,0,0,0-16.79,8.89c-6.77,4.82-17.15,12.21-19.11,24.39a29.15,29.15,0,0,0,1.7,14.51c2.8,8.1,8,13.27,12.9,17.5a151.94,151.94,0,0,0,35,22.4c20.7,9.3,37.52,13,58.6,17.6,12.6,2.76,20.24,4.41,31.15,5.13,9.22.61,19.28.47,31.59.3,5.51-.08,10-.2,13.14-.3l3.64-3.65c.1-3.08.22-7.63.3-13.14.17-12.3.32-22.36-.3-31.59-.72-10.9-2.36-18.54-5.12-31.14-4.62-21.09-8.31-37.9-17.6-58.61a151.8,151.8,0,0,0-22.41-35c-4.22-4.88-9.4-10.11-17.5-12.9a29,29,0,0,0-14.5-1.7c-12.19,2-19.58,12.33-24.39,19.1a84,84,0,0,0-8.9,16.8,107.8,107.8,0,0,0-4.28,12.19l23.85-41.45a111.82,111.82,0,0,0-8.19-27A98.09,98.09,0,0,0,189,69.84C180,62.34,173.26,57,163.21,56.3a35.55,35.55,0,0,0-18.42,4c-5.21,2.86-16.85,14-17.88,18.24"/>
    </g>
  </g>
</svg>
