<svg id="Livello_1" data-name="Livello 1" xmlns="http://www.w3.org/2000/svg" viewBox="0 0 841.89 841.89">
  <defs>
    <style>
      .cls-1 {
        fill: #231f20;
      }
    </style>
  </defs>
  <title>Glos</title>
  <path class="cls-1" d="M400.55,254a53.25,53.25,0,0,1-53.26,53.23h-1.1V362.5H290.92a53.27,53.27,0,0,1-106.53,0H129.12V307.15a53.24,53.24,0,0,1,0-106.42V145.39h55.27a53.27,53.27,0,0,1,106.53,0h55.27V200.7h1.1A53.25,53.25,0,0,1,400.55,254Z"/>
  <path class="cls-1" d="M764.12,627.54a53.25,53.25,0,0,1-53.26,53.23h-1.09v55.31H654.49a53.26,53.26,0,0,1-106.52,0H492.69V680.73a53.24,53.24,0,0,1,0-106.41V519H548a53.26,53.26,0,0,1,106.52,0h55.28v55.31h1.09A53.25,53.25,0,0,1,764.12,627.54Z"/>
</svg>
