<svg id="Livello_1" data-name="Livello 1" xmlns="http://www.w3.org/2000/svg" viewBox="0 0 841.89 841.89">
  <title>Glos</title>
  <g>
    <path d="M637.68,209.49c-97.25,3.43-158.14-11.44-189.91-22.92a17.19,17.19,0,1,0-27.35-13.88c0,.56,0,1.07.08,1.63,0-.08-.08-.08-.08-.08s0,0-.07.08c0-.56.07-1.07.07-1.63a17.22,17.22,0,0,0-34.43,0,17,17,0,0,0,7.09,13.88c-31.78,11.48-92.67,26.35-189.91,22.92,0,0-55.58,451.07,217.25,476.91C693.25,660.56,637.68,209.49,637.68,209.49ZM420.42,659.31C194,645.29,219.74,236.76,219.74,236.76l3.74,0c157-2.07,196.94-35,196.94-35s40,32.91,197,35l3.74,0S646.87,645.29,420.42,659.31Z"/>
    <path d="M191,358.45S126.34,340.64,117.76,310c-5.53-19.76,9-27.24,17.57-26.35,8,.85,11.33,14.21,25.69,20,8.26,3.36,28.34,7.79,28.34,7.79Z"/>
    <path d="M165.84,295.11c-6.75,3.32-10.59.26-20.67-11.51-14-16.35-29.73,3.78-29.73,3.78s4.5-10.45,11-16.92c17.59-17.56,37.79-9.6,43.95,3.58C175.73,285.52,170.27,293,165.84,295.11Z"/>
    <path d="M176.23,290.72c11.14-17.89-15.53-46.66-45.38-37.76-50.08,15.46-43,87.68-43,87.68-36.21-85.91,40.48-153.48,84-113.55C206.31,258.72,176.23,290.72,176.23,290.72Z"/>
    <path d="M170.19,421.65v.07c-9.56,109.31-87.65,139.94-58.09,171,12.69,13.36,43.15,3.42,49.68,1.09-4.35,15.87-31,40.76-52,40.76-25,0-52.44-20.26-51.82-61.34.3-21.1,4.21-49.15,46.61-85,44.14-37.27,6.87-75.5-7.82-140.56-14.24-63.37,26.46-84.22,28.67-85.29C100,281.56,108,320.29,126.79,333.52,151.47,349.68,171.55,404.74,170.19,421.65Z"/>
    <path d="M258.77,614.84s-29.93,4.24-37.94-11.26c0,0-5.75,18.56-29.23,27.35-4.35,1.51,14.8-23.81-6.34-44.54-6.49-6.36-12.54-4.26-15.47-2.54a43.82,43.82,0,0,1-8.64,3.81c-13.94,4.57-48.5,11.05-45.12-15.41,2.14-16.77,54.87-79.31,103.14-28.19,7.31,7.75,13.21,27.82,14.36,40.11C235.23,602.11,258.77,614.84,258.77,614.84Z"/>
    <path d="M650.91,358.86s64.64-17.81,73.22-48.42c5.53-19.76-9-27.23-17.57-26.35-8,.85-11.33,14.21-25.69,20-8.26,3.36-28.34,7.79-28.34,7.79Z"/>
    <path d="M676.05,295.52c6.75,3.32,10.59.26,20.67-11.51,14-16.35,29.73,3.78,29.73,3.78s-4.5-10.45-11-16.92c-17.59-17.56-37.79-9.6-44,3.58C666.16,285.93,671.62,293.38,676.05,295.52Z"/>
    <path d="M665.66,291.14c-11.14-17.9,15.53-46.66,45.38-37.77,50.08,15.46,43,87.68,43,87.68,36.21-85.91-40.48-153.48-84-113.55C635.57,259.13,665.66,291.14,665.66,291.14Z"/>
    <path d="M671.7,422.06v.07c9.56,109.31,87.65,139.94,58.09,171-12.69,13.36-43.15,3.42-49.68,1.09,4.35,15.87,31,40.76,52,40.76,25,0,52.44-20.26,51.82-61.33-.3-21.11-4.21-49.16-46.61-85-44.14-37.28-6.87-75.51,7.82-140.57,14.24-63.37-26.46-84.22-28.68-85.29,25.39,19.12,17.38,57.85-1.4,71.08C690.42,350.09,670.34,405.16,671.7,422.06Z"/>
    <path d="M583.12,615.25s29.93,4.24,37.94-11.26c0,0,5.75,18.57,29.22,27.35,4.36,1.51-14.79-23.8,6.35-44.54,6.49-6.36,12.54-4.26,15.47-2.54a44.45,44.45,0,0,0,8.64,3.82c13.94,4.56,48.5,11,45.12-15.42-2.14-16.77-54.87-79.3-103.14-28.19-7.31,7.75-13.21,27.82-14.36,40.11C606.66,602.52,583.12,615.25,583.12,615.25Z"/>
  </g>
</svg>
