<svg id="Livello_1" data-name="Livello 1" xmlns="http://www.w3.org/2000/svg" viewBox="0 0 841.89 841.89">
  <defs>
    <style>
      .cls-1 {
        fill: #231f20;
      }
    </style>
  </defs>
  <title>Glos</title>
  <path class="cls-1" d="M687.87,289.47h-2.7V152.93H548.72a131.48,131.48,0,0,0-263,0H149.31V289.55a131.43,131.43,0,0,0,0,262.7V688.87H285.76a131.48,131.48,0,1,0,263,0H685.17V552.34h2.7a131.44,131.44,0,1,0,0-262.87ZM524.66,472h-1v53h-53a51.1,51.1,0,0,1-102.19,0h-53V472a51.08,51.08,0,0,1,0-102.1v-53.1h53a51.1,51.1,0,0,1,102.19,0h53v53.1h1a51.1,51.1,0,0,1,0,102.19Z"/>
</svg>
