<svg id="Livello_1" data-name="Livello 1" xmlns="http://www.w3.org/2000/svg" viewBox="0 0 841.89 841.89">
  <defs>
    <style>
      .cls-1 {
        fill: #231f20;
      }
    </style>
  </defs>
  <title>Glos</title>
  <path class="cls-1" d="M257.22,421c0,107.28-91.1,194.24-203.5,194.24-16.33,0-28.52-13.87-27-27.78,1.35-12.19,12.89-22.42,27-22.24,35.78-5.39,63.13-35.54,63.13-71.88A71.48,71.48,0,0,0,95,441.88a75.31,75.31,0,0,0-52.76-21.31c41.22,0,74.62-32.56,74.62-72.72,0-35.68-26.33-65.32-61-71.55-16.33.05-28.52-13.73-27-27.54,1.3-11.87,12.52-21.92,26.33-22.06C166.87,227.45,257.22,314.12,257.22,421Z"/>
  <path class="cls-1" d="M588.7,421c0,107.28,91.09,194.24,203.49,194.24,16.34,0,28.53-13.87,27-27.78-1.35-12.19-12.89-22.42-27-22.24-35.77-5.39-63.13-35.54-63.13-71.88a71.49,71.49,0,0,1,21.87-51.41,75.3,75.3,0,0,1,52.76-21.31c-41.22,0-74.63-32.56-74.63-72.72,0-35.68,26.33-65.32,61-71.55,16.33.05,28.52-13.73,27-27.54-1.3-11.87-12.51-21.92-26.33-22.06C679.05,227.45,588.7,314.12,588.7,421Z"/>
  <path class="cls-1" d="M423,586.68c107.28,0,194.24,91.1,194.24,203.5,0,16.33-13.87,28.52-27.78,27-12.19-1.35-22.42-12.88-22.24-27-5.39-35.77-35.54-63.13-71.88-63.13a71.49,71.49,0,0,0-51.41,21.87,75.31,75.31,0,0,0-21.3,52.75c0-41.22-32.57-74.62-72.72-74.62-35.69,0-65.32,26.33-71.56,61,.05,16.33-13.72,28.52-27.54,27-11.87-1.3-21.91-12.52-22.05-26.33C229.46,677,316.14,586.68,423,586.68Z"/>
  <path class="cls-1" d="M423,255.21c107.28,0,194.24-91.1,194.24-203.5,0-16.33-13.87-28.52-27.78-27C577.23,26,567,37.56,567.18,51.71c-5.39,35.77-35.54,63.13-71.88,63.13A71.49,71.49,0,0,1,443.89,93a75.31,75.31,0,0,1-21.3-52.75c0,41.22-32.57,74.62-72.72,74.62-35.69,0-65.32-26.33-71.56-61,.05-16.33-13.72-28.52-27.54-27-11.87,1.3-21.91,12.51-22.05,26.33C229.46,164.86,316.14,255.21,423,255.21Z"/>
</svg>
