<svg id="Livello_1" data-name="Livello 1" xmlns="http://www.w3.org/2000/svg" viewBox="0 0 841.89 841.89">
  <defs>
    <style>
      .cls-1 {
        fill: #030202;
      }
    </style>
  </defs>
  <title>Glos</title>
  <g>
    <path class="cls-1" d="M689.69,676.36c10.76,12.7,8.11,24.8-1.36,34.14-23,22.65-43.47,22.67-59.24,50.7-8.45,15-14,34.88-3,47.86,0,0-38.57,27.89-67.37,7.27,0,0-6.57-85.37,51-97.65,12.93-2.75,46.84-12.7,54.92-28.62,4-7.95-4.18-16.61-12.41-13.19-17.2,7.14-51.25,20.8-66.54,23.65-97.08,18.2-140.46-42-92.52-104.76l.17-.08c21.4-9.7,45.15-21.28,67.33-36.69,131.34-1.27,70.95-84.83,68.69-87.91a275.68,275.68,0,0,0,14.87-65.45l0-.12s101.8,83.31,44.45,155.91c-24,30.36-86.72,39.85-118,42.48-18.08,1.52-35,18-41.08,35.7-7.6,22.26,12.19,47.69,48.18,45.23C621.73,681.82,644.37,623,689.69,676.36Z"/>
    <path class="cls-1" d="M637.9,766c4.15-7.27,6-14.44,11.35-24.19,0,0,33.73-15.94,46.48-32.37,8.29-10.69,11.75-22.81.89-35.58-48.78-57.38-80.86.3-115.37,6-32.07,5.35-53.5-19.16-45.9-41.42,0,0,14.77,20.5,43.36,15.61S652.5,580.58,706.15,624C778.58,682.67,703.92,751.56,637.9,766Z"/>
    <path class="cls-1" d="M687.11,91.18c-11.62-8.51-25.79,6.7-25.79,6.7C662.09,63,611.73-5.7,561.4,27.09,520.49,63.78,565,88.26,565,88.26c-7.56,11-60.68,19.72-88-16.59s-51.31-2.88-51.31-2.88v75s20.17,5.45,21-50.37c0,0,144.52,78,185.72-12.9a22.06,22.06,0,0,1,12.7,12.61l-8.75,44.7,35.91-18.33s18.45,15.33,20.12,21.9c0,0-86.92,37.79-61.7,152.33,3.94,24.36-16.51,45.31-27.82,46,0,0,.17,94.7.13,126.25,0,14.3-16.15,127.27-177.35,123.74v50.81c0-16.12,29.66-27.33,67.17-44.25l2.17-1,.17-.08c21.2-9.59,44.68-21.05,66.68-36.24l.65-.44a228.94,228.94,0,0,0,30.86-25.43c14.81-14.69,27.64-35.37,37.1-60.53.25-.65.5-1.3.74-2a274.25,274.25,0,0,0,14.67-63.79c.07-.56.13-1.1.19-1.66l0-.12a350.81,350.81,0,0,0-2-88.73c-16-109.15,30.55-137,31.79-137.75h0s14.34,22,38.33,15.53,25.64-42,25.64-42S698.7,99.68,687.11,91.18Z"/>
    <g>
      <path class="cls-1" d="M152.2,675.87c-10.76,12.7-8.11,24.79,1.36,34.14,22.95,22.64,43.47,22.67,59.24,50.7,8.45,15,14,34.87,3,47.86,0,0,38.57,27.89,67.37,7.27,0,0,6.57-85.37-51-97.65-12.93-2.76-46.84-12.7-54.92-28.62-4-8,4.18-16.61,12.41-13.19,17.2,7.13,51.25,20.79,66.54,23.65,97.07,18.2,140.46-42,92.52-104.76l-.17-.08c-21.4-9.7-45.15-21.28-67.33-36.69-131.34-1.27-71-84.83-68.69-87.92a275.22,275.22,0,0,1-14.87-65.44l0-.12s-101.81,83.31-44.45,155.9c24,30.36,86.72,39.85,118,42.48,18.08,1.52,35.05,18,41.08,35.7,7.6,22.27-12.19,47.7-48.18,45.23C220.16,681.33,197.51,622.46,152.2,675.87Z"/>
      <path class="cls-1" d="M204,765.49c-4.15-7.27-6-14.44-11.35-24.19,0,0-33.73-15.94-46.48-32.37-8.29-10.69-11.75-22.81-.89-35.58,48.78-57.39,80.86.3,115.37,6,32.07,5.35,53.5-19.16,45.9-41.43,0,0-14.77,20.5-43.36,15.62s-73.79-73.5-127.44-30.08C63.31,682.18,138,751.07,204,765.49Z"/>
      <path class="cls-1" d="M102,151.61s1.61,35.45,25.64,42S166,178.06,166,178.06h0c1.24.74,47.83,28.6,31.79,137.76a350.81,350.81,0,0,0-2,88.73l0,.12c.06.56.12,1.1.19,1.66a274.37,274.37,0,0,0,14.67,63.79c.24.66.49,1.31.73,2,9.47,25.16,22.3,45.83,37.11,60.52A227.44,227.44,0,0,0,279.38,558c.21.16.43.3.65.45,22,15.18,45.48,26.64,66.68,36.24l.16.08,2.18,1c37.51,16.91,67.17,28.13,67.17,44.25V589.22C255,592.75,238.87,479.78,238.87,465.48c0-31.55.13-126.25.13-126.25-11.31-.7-31.77-21.65-27.82-46,25.22-114.54-61.7-152.33-61.7-152.33,1.67-6.57,20.12-21.9,20.12-21.9l35.91,18.32-8.75-44.69A22,22,0,0,1,209.46,80c41.2,90.91,185.72,12.9,185.72,12.9.87,55.82,21,50.36,21,50.36v-75s-23.91-33.45-51.31,2.87-80.48,27.65-88,16.6c0,0,44.53-24.48,3.62-61.18C230.16-6.19,179.8,62.5,180.57,97.39c0,0-14.17-15.21-25.79-6.71S102,151.61,102,151.61Z"/>
    </g>
  </g>
</svg>
