<svg id="Livello_1" data-name="Livello 1" xmlns="http://www.w3.org/2000/svg" viewBox="0 0 841.89 841.89">
  <defs>
    <style>
      .cls-1 {
        fill: #231f20;
      }
    </style>
  </defs>
  <title>Glos</title>
  <g>
    <g>
      <path class="cls-1" d="M434.63,392.91c0-27.44.25-47.53,0-53.8a17,17,0,0,1,.59-5.88,44.25,44.25,0,0,1,4.26-10.18c.57-1.12,3.94-7.23,10.14-21,1.59-3.51,4.31-9.64,9.7-21.75,8.5-19.11,7.74-17.45,8.23-18.52,6.73-14.8,7.78-16.21,10-22.63A80.44,80.44,0,0,0,482,221.55a84,84,0,0,0,.29-15.87c-.31-6-.49-9-1.76-12.64a40.21,40.21,0,0,0-6.17-10.88,59.2,59.2,0,0,0-6.93-7.89c-1.86-1.78-5.83-5.71-7.18-6.75a19.54,19.54,0,0,0,3.52-7.73,20.16,20.16,0,0,0-.7-10.54c-1.16-3.53-3-6.07-9.84-12.65a189,189,0,0,0-17.57-15.46c-5-3.87-9.36-6.92-12.65-9.14-3.3,2.22-7.67,5.27-12.65,9.14a186.43,186.43,0,0,0-17.57,15.46c-6.8,6.58-8.68,9.12-9.84,12.65a19.94,19.94,0,0,0-.7,10.54,19.7,19.7,0,0,0,3.51,7.73c-1.34,1-5.32,5-7.17,6.75a59.2,59.2,0,0,0-6.93,7.89A40.22,40.22,0,0,0,365.43,193c-1.26,3.64-1.45,6.69-1.76,12.64a84.87,84.87,0,0,0,.29,15.87,80.44,80.44,0,0,0,4.41,17.63c2.21,6.42,3.27,7.83,10,22.63.48,1.07-.28-.59,8.22,18.52,5.39,12.11,8.12,18.24,9.7,21.75,6.21,13.74,9.57,19.85,10.14,21a44.25,44.25,0,0,1,4.26,10.18,16.71,16.71,0,0,1,.59,5.88c-.24,6.27,0,26.36,0,53.8"/>
      <path class="cls-1" d="M434.63,449c0,27.44.25,47.53,0,53.8a17,17,0,0,0,.59,5.88,44.25,44.25,0,0,0,4.26,10.18c.57,1.12,3.94,7.23,10.14,21,1.59,3.51,4.31,9.64,9.7,21.75,8.5,19.11,7.74,17.45,8.23,18.52,6.73,14.8,7.78,16.21,10,22.63A80.44,80.44,0,0,1,482,620.34a84,84,0,0,1,.29,15.87c-.31,5.95-.49,9-1.76,12.64a40,40,0,0,1-6.17,10.87,58.44,58.44,0,0,1-6.93,7.9c-1.86,1.78-5.83,5.71-7.18,6.75a19.54,19.54,0,0,1,3.52,7.73,20.16,20.16,0,0,1-.7,10.54c-1.16,3.53-3,6.07-9.84,12.65a189,189,0,0,1-17.57,15.46c-5,3.87-9.36,6.92-12.65,9.14-3.3-2.22-7.67-5.27-12.65-9.14a186.43,186.43,0,0,1-17.57-15.46c-6.8-6.58-8.68-9.12-9.84-12.65a19.94,19.94,0,0,1-.7-10.54,19.7,19.7,0,0,1,3.51-7.73c-1.34-1-5.32-5-7.17-6.75a58.44,58.44,0,0,1-6.93-7.9,40,40,0,0,1-6.18-10.87c-1.26-3.64-1.45-6.69-1.76-12.64a84.87,84.87,0,0,1,.29-15.87,80.44,80.44,0,0,1,4.41-17.63c2.21-6.42,3.27-7.83,10-22.63.48-1.07-.28.59,8.22-18.52,5.39-12.11,8.12-18.24,9.7-21.75,6.21-13.74,9.57-19.85,10.14-21a44.25,44.25,0,0,0,4.26-10.18,16.71,16.71,0,0,0,.59-5.88c-.24-6.27,0-26.36,0-53.8"/>
      <circle class="cls-1" cx="422.96" cy="420.94" r="31.49"/>
    </g>
    <g>
      <path class="cls-1" d="M394.92,409.27c-27.44,0-47.53-.25-53.8,0a17,17,0,0,1-5.88-.59,44.25,44.25,0,0,1-10.18-4.26c-1.12-.57-7.23-3.94-21-10.14-3.51-1.58-9.64-4.31-21.75-9.7-19.11-8.5-17.45-7.74-18.52-8.23-14.79-6.72-16.21-7.78-22.63-10A80.44,80.44,0,0,0,223.56,362a84.87,84.87,0,0,0-15.87-.29c-5.95.31-9,.49-12.64,1.76a40.25,40.25,0,0,0-10.87,6.17,60,60,0,0,0-7.9,6.93c-1.78,1.86-5.71,5.84-6.75,7.18a19.68,19.68,0,0,0-7.73-3.52,20,20,0,0,0-10.54.71c-3.53,1.16-6.07,3-12.65,9.84a187.45,187.45,0,0,0-15.46,17.56c-3.86,5-6.92,9.36-9.14,12.65,2.22,3.3,5.28,7.67,9.14,12.65a186.43,186.43,0,0,0,15.46,17.57c6.58,6.81,9.12,8.68,12.65,9.84a20,20,0,0,0,10.54.71,19.68,19.68,0,0,0,7.73-3.52c1,1.34,5,5.32,6.75,7.18a60,60,0,0,0,7.9,6.93,40.25,40.25,0,0,0,10.87,6.17c3.64,1.27,6.69,1.45,12.64,1.76a84.87,84.87,0,0,0,15.87-.29,80.44,80.44,0,0,0,17.63-4.41c6.42-2.21,7.84-3.27,22.63-10,1.07-.49-.59.27,18.52-8.23,12.11-5.39,18.24-8.12,21.75-9.7,13.74-6.2,19.85-9.57,21-10.14a44.25,44.25,0,0,1,10.18-4.26,17,17,0,0,1,5.88-.59c6.27.25,26.36,0,53.8,0"/>
      <path class="cls-1" d="M451,409.27c27.43,0,47.52-.25,53.79,0a16.89,16.89,0,0,0,5.88-.59,44.59,44.59,0,0,0,10.19-4.26c1.11-.57,7.23-3.94,21-10.14,3.51-1.58,9.63-4.31,21.74-9.7,19.11-8.5,17.45-7.74,18.52-8.23,14.8-6.72,16.21-7.78,22.63-10A80.44,80.44,0,0,1,622.35,362a84.88,84.88,0,0,1,15.87-.29c6,.31,9,.49,12.64,1.76a40.48,40.48,0,0,1,10.88,6.17,61.34,61.34,0,0,1,7.9,6.93c1.77,1.86,5.71,5.84,6.74,7.18a19.68,19.68,0,0,1,7.73-3.52,20,20,0,0,1,10.54.71c3.53,1.16,6.07,3,12.65,9.84a186,186,0,0,1,15.46,17.56c3.87,5,6.93,9.36,9.14,12.65-2.21,3.3-5.27,7.67-9.14,12.65a185,185,0,0,1-15.46,17.57c-6.58,6.81-9.12,8.68-12.65,9.84a20,20,0,0,1-10.54.71,19.68,19.68,0,0,1-7.73-3.52c-1,1.34-5,5.32-6.74,7.18a61.34,61.34,0,0,1-7.9,6.93,40.48,40.48,0,0,1-10.88,6.17c-3.63,1.27-6.68,1.45-12.64,1.76a84.88,84.88,0,0,1-15.87-.29,80.44,80.44,0,0,1-17.63-4.41c-6.42-2.21-7.83-3.27-22.63-10-1.07-.49.59.27-18.52-8.23-12.11-5.39-18.23-8.12-21.74-9.7-13.74-6.2-19.86-9.57-21-10.14a44.59,44.59,0,0,0-10.19-4.26,16.89,16.89,0,0,0-5.88-.59c-6.27.25-26.36,0-53.79,0"/>
      <circle class="cls-1" cx="422.96" cy="420.94" r="31.49"/>
    </g>
    <g>
      <path class="cls-1" d="M116.32,723.52c-1.57-.55-17.67-6.4-19.58-19.13-.75-5,1-9,3.33-14.31A54.56,54.56,0,0,1,119,667.38a56.57,56.57,0,0,1,25.87-9.1,67.12,67.12,0,0,1,32.53,4.19A67.22,67.22,0,0,1,181.6,695a56.48,56.48,0,0,1-9.11,25.88,54.43,54.43,0,0,1-22.69,18.94c-5.27,2.31-9.29,4.07-14.31,3.32-12.73-1.9-18.58-18-19.13-19.58Z"/>
      <path class="cls-1" d="M181.6,695c.83,3.41,10.14,12.32,14.31,14.61a28.59,28.59,0,0,0,14.75,3.18c8-.55,13.4-4.84,20.67-10.85a78.47,78.47,0,0,0,22.55-28.62,89.34,89.34,0,0,0,6.55-21.65l-19.08-33.17a85.87,85.87,0,0,0,3.42,9.75,67.38,67.38,0,0,0,7.12,13.45c3.86,5.41,9.77,13.72,19.52,15.29A23.38,23.38,0,0,0,283,655.62c6.48-2.24,10.62-6.42,14-10.33a121.3,121.3,0,0,0,17.92-28c7.44-16.57,10.39-30,14.09-46.9,2.21-10.09,3.52-16.2,4.1-24.93.49-7.38.38-15.43.24-25.28-.06-4.41-.16-8-.24-10.52l-2.92-2.92c-2.46-.07-6.1-.17-10.51-.23-9.85-.14-17.9-.26-25.28.23-8.73.58-14.85,1.9-24.93,4.11-16.87,3.69-30.33,6.64-46.9,14.08a121.85,121.85,0,0,0-28,17.93c-3.9,3.38-8.08,7.53-10.32,14a23.36,23.36,0,0,0-1.36,11.61c1.56,9.75,9.87,15.66,15.29,19.52a67,67,0,0,0,13.44,7.11,84.24,84.24,0,0,0,9.76,3.43l-33.17-19.09A89.89,89.89,0,0,0,166.57,586a78.62,78.62,0,0,0-28.63,22.55c-6,7.27-10.29,12.63-10.84,20.67A28.59,28.59,0,0,0,130.28,644c2.29,4.17,11.2,13.48,14.6,14.31"/>
      <path class="cls-1" d="M721.54,118.37c1.58.55,17.68,6.4,19.58,19.13.75,5-1,9-3.32,14.31a54.56,54.56,0,0,1-18.94,22.7,56.56,56.56,0,0,1-25.88,9.1,67.08,67.08,0,0,1-32.52-4.19,67.08,67.08,0,0,1-4.2-32.52A56.73,56.73,0,0,1,665.37,121a54.56,54.56,0,0,1,22.7-18.94c5.27-2.31,9.29-4.07,14.31-3.32,12.73,1.9,18.58,18,19.12,19.58Z"/>
      <path class="cls-1" d="M693,183.61c3.4.83,12.31,10.14,14.6,14.31a28.48,28.48,0,0,1,3.18,14.75c-.54,8-4.84,13.4-10.84,20.67a78.47,78.47,0,0,1-28.62,22.55,90,90,0,0,1-21.65,6.56l-33.17-19.09a84.79,84.79,0,0,1,9.75,3.43,67,67,0,0,1,13.44,7.11c5.42,3.86,13.73,9.77,15.3,19.52A23.36,23.36,0,0,1,653.61,285c-2.24,6.48-6.42,10.63-10.33,14a121.88,121.88,0,0,1-28,17.93c-16.57,7.44-30,10.38-46.91,14.08-10.08,2.21-16.19,3.53-24.92,4.11-7.39.49-15.44.37-25.28.23-4.41-.06-8-.16-10.52-.23l-2.92-2.92c-.08-2.47-.17-6.11-.24-10.52-.13-9.85-.25-17.9.24-25.28.58-8.73,1.89-14.84,4.1-24.93,3.7-16.87,6.65-30.33,14.09-46.9a121.5,121.5,0,0,1,17.93-28c3.38-3.91,7.52-8.09,14-10.33a23.34,23.34,0,0,1,11.6-1.36c9.75,1.57,15.67,9.88,19.52,15.29a66.85,66.85,0,0,1,7.12,13.45,86,86,0,0,1,3.43,9.75l-19.09-33.17A89.43,89.43,0,0,1,584,168.58,78.36,78.36,0,0,1,606.54,140c7.27-6,12.62-10.3,20.67-10.85A28.53,28.53,0,0,1,642,132.29c4.18,2.29,13.49,11.2,14.31,14.61"/>
    </g>
    <g>
      <path class="cls-1" d="M725.57,723.52c1.57-.55,17.67-6.4,19.58-19.13.75-5-1-9-3.33-14.31a54.56,54.56,0,0,0-18.94-22.7,56.57,56.57,0,0,0-25.87-9.1,67.12,67.12,0,0,0-32.53,4.19A67.22,67.22,0,0,0,660.29,695a56.48,56.48,0,0,0,9.11,25.88,54.43,54.43,0,0,0,22.69,18.94c5.27,2.31,9.29,4.07,14.31,3.32,12.73-1.9,18.58-18,19.13-19.58Z"/>
      <path class="cls-1" d="M660.29,695c-.83,3.41-10.14,12.32-14.31,14.61a28.59,28.59,0,0,1-14.75,3.18c-8-.55-13.4-4.84-20.67-10.85A78.47,78.47,0,0,1,588,673.31a89.34,89.34,0,0,1-6.55-21.65l19.08-33.17a85.87,85.87,0,0,1-3.42,9.75A67.38,67.38,0,0,1,590,641.69c-3.86,5.41-9.77,13.72-19.52,15.29a23.36,23.36,0,0,1-11.61-1.36c-6.48-2.24-10.62-6.42-14-10.33a121.3,121.3,0,0,1-17.92-28c-7.44-16.57-10.39-30-14.09-46.9-2.21-10.09-3.52-16.2-4.1-24.93-.5-7.38-.38-15.43-.24-25.28.06-4.41.16-8,.24-10.52l2.92-2.92c2.46-.07,6.1-.17,10.51-.23,9.85-.14,17.9-.26,25.28.23,8.73.58,14.85,1.9,24.93,4.11,16.87,3.69,30.33,6.64,46.9,14.08a121.66,121.66,0,0,1,28,17.93c3.91,3.38,8.09,7.53,10.33,14A23.36,23.36,0,0,1,659,568.47c-1.56,9.75-9.87,15.66-15.29,19.52a67,67,0,0,1-13.44,7.11,84.24,84.24,0,0,1-9.76,3.43l33.17-19.09A89.89,89.89,0,0,1,675.32,586,78.62,78.62,0,0,1,704,608.55c6,7.27,10.29,12.63,10.84,20.67A28.59,28.59,0,0,1,711.61,644c-2.29,4.17-11.2,13.48-14.6,14.31"/>
      <path class="cls-1" d="M120.35,118.37c-1.58.55-17.68,6.4-19.58,19.13-.75,5,1,9,3.32,14.31A54.56,54.56,0,0,0,123,174.51a56.56,56.56,0,0,0,25.88,9.1,67.08,67.08,0,0,0,32.52-4.19,67,67,0,0,0,4.19-32.52,56.56,56.56,0,0,0-9.1-25.88,54.56,54.56,0,0,0-22.7-18.94c-5.27-2.31-9.29-4.07-14.31-3.32-12.73,1.9-18.58,18-19.12,19.58Z"/>
      <path class="cls-1" d="M148.91,183.61c-3.4.83-12.31,10.14-14.6,14.31a28.48,28.48,0,0,0-3.18,14.75c.54,8,4.84,13.4,10.84,20.67a78.47,78.47,0,0,0,28.62,22.55,90,90,0,0,0,21.65,6.56l33.17-19.09a84.13,84.13,0,0,0-9.75,3.43,67,67,0,0,0-13.44,7.11c-5.42,3.86-13.73,9.77-15.3,19.52A23.36,23.36,0,0,0,188.28,285c2.24,6.48,6.42,10.63,10.33,14a121.88,121.88,0,0,0,28,17.93c16.57,7.44,30,10.38,46.91,14.08,10.08,2.21,16.19,3.53,24.92,4.11,7.39.49,15.44.37,25.28.23,4.41-.06,8-.16,10.52-.23l2.92-2.92c.07-2.47.17-6.11.23-10.52.14-9.85.26-17.9-.23-25.28-.58-8.73-1.89-14.84-4.1-24.93-3.7-16.87-6.65-30.33-14.09-46.9a121.88,121.88,0,0,0-17.93-28c-3.38-3.91-7.52-8.09-14-10.33a23.34,23.34,0,0,0-11.6-1.36c-9.76,1.57-15.67,9.88-19.52,15.29a66.85,66.85,0,0,0-7.12,13.45,86,86,0,0,0-3.43,9.75l19.09-33.17a89.43,89.43,0,0,0-6.56-21.65A78.36,78.36,0,0,0,235.35,140c-7.27-6-12.62-10.3-20.67-10.85a28.53,28.53,0,0,0-14.74,3.18c-4.18,2.29-13.49,11.2-14.32,14.61"/>
    </g>
  </g>
</svg>
