<svg id="Livello_1" data-name="Livello 1" xmlns="http://www.w3.org/2000/svg" viewBox="0 0 841.89 841.89">
  <defs>
    <style>
      .cls-1 {
        fill: #231f20;
      }
    </style>
  </defs>
  <title>Glos</title>
  <g>
    <path class="cls-1" d="M186.28,643.14a26.27,26.27,0,0,1-3.31-.21l.14.21C248.65,735.49,201.65,785,201.65,785c-6.07-69.54-72.71-96.9-62-193.65v-.14a46.89,46.89,0,1,1,46.66,51.89Z"/>
    <path class="cls-1" d="M717.55,521.89H124.34a86.25,86.25,0,0,1,26.74-26.95,57.63,57.63,0,0,1,31.28-9H659.53a57.63,57.63,0,0,1,31.28,9A86.25,86.25,0,0,1,717.55,521.89Z"/>
    <path class="cls-1" d="M655.59,643.14a26.39,26.39,0,0,0,3.31-.21l-.14.21C593.22,735.49,640.22,785,640.22,785c6.06-69.54,72.7-96.9,62-193.65v-.14a46.89,46.89,0,1,0-46.65,51.89Z"/>
    <path class="cls-1" d="M642.23,823.93H199.66c6.69,0,76.29-3.17,75.46-135.42-.89-138.93-76-148.23-76-148.23H642.78s-75.12,9.3-76,148.23C565.94,820.76,635.54,823.93,642.23,823.93Z"/>
  </g>
  <path class="cls-1" d="M693.17,262c-18.13,38.43-.82,132.78,1.71,140.45A79.21,79.21,0,0,1,675.16,360c-1.58-10.84-3.29,25.62,15.92,52.25,5.51,7.55,9.19,15.29,8.11,26.38-37-50-37.53-48-26-16,4.94,13.89,23.46,31.58,23.46,31.58s-17.25,2.09-29.17-10.27c-28.47-29.81-33.29-40.4-25.3-22.51,1.9,4.31,10.27,15.66,12.36,20-.88.45-32.52-12.68-34.74-41.53-.89-10.84-11.29,4.69-11.29,4.69-5.26-5.2-9.32-8.18-12-12.05-10.65-15-19.4-30.88-22.76-49.26-1.21-6.79-2.16-13.57-4.31-20-1.21-3.49-4.13-7.93-7.17-8.94-14-4.44-27.71-4.88-40.39,4.44-22.26,16.3-32.72,38.49-33.42,65.76,0,1.83-.13,5.26,2.28,6s3.68-1.9,4.13-2.73c20.79-43.56,57.57-30.56,72.09-16.87,10,9.52,15.22,34.88,7.87,45.28-7.49,10.59-19,16-32,17.18-12,1.21-22.44-8.37-23.9-19.15-1.46-11,7.29-23.08,18.32-25.42,9.26-1.84,19.53,4.75,20,13.82.13,2.92-2.09,6.72-4.37,8.81-2,1.72-6.15,3.43-8.63,2-2.91-1.71-.51-6.91-2.72-7.74-3.75-1.39-5.77,4.51-5.14,6.6,1.77,6.15,5.45,6.47,8.81,7.16,11.73,2.16,21.12-9.57,17.5-21-3.29-10.46-14.9-17.56-25.8-15.66-11.61,2-22.07,12.87-23.78,25.17-.57,4-.45,11.16-.7,15.54h-40.2c.38,17.88.7,35.25,1.08,52.5H368.64c.38-17.25.7-34.62,1.08-52.5h-40.2c-.26-4.38-.13-11.54-.7-15.54-1.71-12.3-12.17-23.21-23.78-25.17-10.9-1.9-22.51,5.2-25.81,15.66-3.61,11.48,5.77,23.21,17.51,21,3.36-.69,7-1,8.81-7.16.57-2.09-1.46-8-5.14-6.6-2.22.83.19,6-2.72,7.74-2.54,1.46-6.6-.25-8.63-2-2.28-2.09-4.5-5.89-4.37-8.81.5-9.07,10.78-15.66,20-13.82,11,2.34,19.78,14.39,18.32,25.42-1.46,10.78-11.92,20.36-24,19.15-13-1.14-24.47-6.59-32-17.18-7.35-10.4-2.22-35.76,7.87-45.28,14.45-13.69,51.29-26.69,72.09,16.87.38.83,1.78,3.43,4.12,2.73s2.29-4.19,2.29-6c-.7-27.27-11.16-49.46-33.42-65.76-12.68-9.32-26.44-8.88-40.39-4.44-3.05,1-6,5.45-7.17,8.94-2.15,6.41-3.1,13.19-4.31,20-3.36,18.38-12.11,34.24-22.76,49.26-2.73,3.87-6.79,6.85-12.05,12.05,0,0-10.46-15.53-11.29-4.69-2.28,28.85-33.92,42-34.81,41.53,2.09-4.37,10.53-15.72,12.43-20,8-17.89,3.11-7.3-25.36,22.51-11.86,12.36-29.17,10.27-29.17,10.27s18.51-17.69,23.52-31.58c11.48-32,11-33.92-26,16-1.07-11.09,2.6-18.83,8.12-26.38C170,385.66,168.33,349.2,166.75,360A79.21,79.21,0,0,1,147,402.4c2.53-7.67,19.84-102,1.71-140.45-3.49-7.35-6-15.28-9.26-22.76-13.82-31.2-27.33-96.13,40-132.91-8.25-7.54-15.54-14.27-22.89-20.92-7.87-7.11-11.67-15.54-12.43-26.38C143,42.74,140.3,26.76,138.34,11c9.45,2.22,17.56,9.83,22.64,22.32,2.41,6,4.24,12.11,6.46,18C172.07,63.73,179.56,74,191,80.79,201.05,86.88,260,101,279,132c-6.21,1.78-30.5,5.9-39.56,6.22-7.74.25-10,4.18-10.53,11.16-.44,5.64-2.47,11-4.31,18.32-6.22-3.49-10.59-5.71-14.71-8.24-7.86-5.14-15.54-4.12-23.21,0-13.13,7-22.64,27-19.66,40.77,3.11,14,19.72,28.34,34.43,29.23,13.64.7,27.4.25,41,1.78,26.31,3,54.15,5.89,75.83,21.11,30,21.05,45.41,63.09,45.72,69.69.95,19.15,1.78,61.25,2.16,64.87.13,1.14.25,4.06,2.92,3.93,2.4-.06,2.28-2.35,2.28-4.19-.57-43.81.89-89.09-7.67-132.39-4.63-23.34-12.81-45.6-26-65.63a21,21,0,0,1-3.24-16.74c4.38-23.66,2.41-47.37-3-70.52-4.18-18.07-17.94-57.44-16.42-60.8,15.35,21.17,31.77,41.72,45.72,63.79,12.11,19.14,21.49,40,17.25,65.69,9.51-5.71,8.43-13.38,6.78-19.72-3.74-14.33-3.36-28.92-3.87-43.5Q379.43,58.47,378.15,10h85.61q-1.33,48.51-2.79,96.83c-.51,14.58-.13,29.17-3.87,43.5-1.65,6.34-2.73,14,6.78,19.72-4.25-25.68,5.14-46.55,17.25-65.69,13.95-22.07,30.37-42.62,45.72-63.79,1.52,3.36-12.24,42.73-16.42,60.8-5.39,23.15-7.36,46.86-3,70.52a21,21,0,0,1-3.23,16.74c-13.19,20-21.37,42.29-26,65.63-8.56,43.3-7.16,88.58-7.73,132.39,0,1.84-.13,4.13,2.34,4.19,2.67.13,2.73-2.79,2.92-3.93.38-3.62,1.2-45.72,2.16-64.87.31-6.6,15.72-48.64,45.71-69.69,21.63-15.22,49.53-18.13,75.84-21.11,13.57-1.53,27.33-1.08,41-1.78,14.71-.89,31.33-15.22,34.44-29.23,3-13.82-6.54-33.8-19.66-40.77-7.67-4.12-15.35-5.14-23.21,0-4.12,2.53-8.5,4.75-14.71,8.24-1.84-7.29-3.87-12.68-4.31-18.32-.57-7-2.79-10.91-10.53-11.16-9.07-.32-33.35-4.44-39.57-6.22,19-31,78-45.08,88.08-51.17,11.41-6.79,18.9-17.06,23.53-29.42,2.21-5.9,4-12,6.46-18C686,20.87,694.12,13.26,703.57,11c-2,15.72-4.69,31.7-5.77,47.94-.76,10.84-4.57,19.27-12.43,26.38C678,92,670.72,98.74,662.48,106.28c67.21,36.78,53.77,101.71,39.95,132.91C699.13,246.67,696.66,254.6,693.17,262Z"/>
</svg>
