<svg id="Livello_1" data-name="Livello 1" xmlns="http://www.w3.org/2000/svg" viewBox="0 0 841.89 841.89">
  <title>Glos</title>
  <g>
    <g>
      <path d="M261.09,194.68s-60.2-135.33,0-135.23C321.29,59.35,261.09,194.68,261.09,194.68Z"/>
      <path d="M234.31,199.4S131.46,92.82,188.06,72.32C244.6,51.64,234.31,199.4,234.31,199.4Z"/>
      <path d="M210.76,213s-133.1-65-86.92-103.6S210.76,213,210.76,213Z"/>
      <path d="M193.28,233.83S46,218.3,76.17,166.21C106.18,114,193.28,233.83,193.28,233.83Z"/>
      <path d="M184,259.38S40.25,295.17,50.8,235.9C61.16,176.6,184,259.38,184,259.38Z"/>
      <path d="M184,286.58S61.16,369.36,50.8,310.06C40.25,250.79,184,286.58,184,286.58Z"/>
      <path d="M193.28,312.13s-87.1,119.8-117.11,67.62C46,327.66,193.28,312.13,193.28,312.13Z"/>
      <path d="M210.76,333s-40.87,142.36-86.92,103.59S210.76,333,210.76,333Z"/>
      <path d="M234.31,346.56s10.29,147.76-46.25,127.08C131.46,453.14,234.31,346.56,234.31,346.56Z"/>
      <path d="M261.09,351.28s60.2,135.33,0,135.24C200.89,486.61,261.09,351.28,261.09,351.28Z"/>
      <path d="M287.88,346.56s102.85,106.58,46.25,127.08C277.59,494.32,287.88,346.56,287.88,346.56Z"/>
      <path d="M311.43,333s133.1,65,86.92,103.59S311.43,333,311.43,333Z"/>
      <path d="M328.91,312.13S476.21,327.66,446,379.75C416,431.93,328.91,312.13,328.91,312.13Z"/>
      <path d="M338.21,286.58s143.73-35.79,133.18,23.48C461,369.36,338.21,286.58,338.21,286.58Z"/>
      <path d="M338.21,259.38S461,176.6,471.39,235.9C481.94,295.17,338.21,259.38,338.21,259.38Z"/>
      <path d="M328.91,233.83S416,114,446,166.21C476.21,218.3,328.91,233.83,328.91,233.83Z"/>
      <path d="M311.43,213S352.3,70.63,398.35,109.4,311.43,213,311.43,213Z"/>
      <path d="M287.88,199.4S277.59,51.64,334.13,72.32C390.73,92.82,287.88,199.4,287.88,199.4Z"/>
      <circle cx="261.09" cy="272.98" r="40.95"/>
    </g>
    <g>
      <path d="M580.8,494.28s-60.21-135.33,0-135.23C641,359,580.8,494.28,580.8,494.28Z"/>
      <path d="M554,499S451.16,392.43,507.76,371.93C564.3,351.25,554,499,554,499Z"/>
      <path d="M530.46,512.6s-133.1-65-86.92-103.59S530.46,512.6,530.46,512.6Z"/>
      <path d="M513,533.43s-147.3-15.53-117.11-67.61C425.88,413.63,513,533.43,513,533.43Z"/>
      <path d="M503.68,559S360,594.77,370.5,535.51C380.86,476.2,503.68,559,503.68,559Z"/>
      <path d="M503.68,586.18S380.86,669,370.5,609.67C360,550.4,503.68,586.18,503.68,586.18Z"/>
      <path d="M513,611.74s-87.1,119.8-117.11,67.61C365.68,627.27,513,611.74,513,611.74Z"/>
      <path d="M530.46,632.57s-40.87,142.36-86.92,103.59S530.46,632.57,530.46,632.57Z"/>
      <path d="M554,646.17s10.29,147.75-46.25,127.07C451.16,752.75,554,646.17,554,646.17Z"/>
      <path d="M580.8,650.89s60.2,135.33,0,135.23C520.59,786.22,580.8,650.89,580.8,650.89Z"/>
      <path d="M607.58,646.17s102.85,106.58,46.25,127.07C597.29,793.92,607.58,646.17,607.58,646.17Z"/>
      <path d="M631.13,632.57s133.1,65,86.92,103.59S631.13,632.57,631.13,632.57Z"/>
      <path d="M648.61,611.74s147.3,15.53,117.11,67.61C735.71,731.54,648.61,611.74,648.61,611.74Z"/>
      <path d="M657.91,586.18s143.73-35.78,133.18,23.49C780.73,669,657.91,586.18,657.91,586.18Z"/>
      <path d="M657.91,559s122.82-82.79,133.18-23.48C801.64,594.77,657.91,559,657.91,559Z"/>
      <path d="M648.61,533.43s87.1-119.8,117.11-67.61C795.91,517.9,648.61,533.43,648.61,533.43Z"/>
      <path d="M631.13,512.6S672,370.24,718.05,409,631.13,512.6,631.13,512.6Z"/>
      <path d="M607.58,499s-10.29-147.76,46.25-127.08C710.43,392.43,607.58,499,607.58,499Z"/>
      <circle cx="580.8" cy="572.59" r="40.95"/>
    </g>
  </g>
</svg>
