<svg id="Livello_1" data-name="Livello 1" xmlns="http://www.w3.org/2000/svg" viewBox="0 0 841.89 841.89">
  <title>Glos</title>
  <path d="M675.18,420.94c3.72-1.94,9.85-10.57,12.18-16.77,1.89-5,4-19.08,2.32-28.2a37.32,37.32,0,0,0-9-18.65,27,27,0,0,0-3.6-11.22c-1.43-2.57-1.28-4.43,2.34-4.79a11.35,11.35,0,0,0,7.75-4.74c1.33-1.73,3.52-6.84-5.78-18.21-2.37-2.9-1.83-6.67,0-10,.88-1.61,1.84-3.16,2.73-4.71-3.72-4.37-8.32-4-13-2.84a24.73,24.73,0,0,0-12.92,7.87c-.68.8-2.56,1.74-2.55.46.06-13.7-7.4-19.9-10.76-20.61-3.19-.66-6.44-2.53-6.13-6.14.86-10,10-14.44,13.64-16.56,6-3.52,3-4.77,1.55-4.46-13.26,2.89-23.23,10.26-30.22,21.75-3.12,5.14-4.42,10.74-2.59,16.75.53,1.46-1.42,1.84-2.17,2.3-2.85,1.76-3,2-1.57,4.92,1.59,3.36,3.31,6.67,5,10,.67,1.35.14,4.52-1.63,4.06-2.34-.6-28.14-19.93-32.86,14.23-19-.42-9.08,12.18-7.13,13.86,1,.82.78,2-.36,2.89a22.42,22.42,0,0,1-2.28,1.6,32.39,32.39,0,0,0-9.88,7.85c-5.24-.47-10.49.23-14.73,3.26-9.67,6.88-13.61.55-13.27.09s.65-.66,1-1a7,7,0,0,0,1.21-1.67,4.91,4.91,0,0,0,.48-2.66,12,12,0,0,0-4.77-7.48c-3.25-2.29-6.52-4.4-10.67-4.82a58.21,58.21,0,0,1-7.52-1.4,18.41,18.41,0,0,0-9,.56,4.12,4.12,0,0,0-2.12,1.64c-1.2,1.8-1.88,3.81-1,5.95a10.45,10.45,0,0,1-.39,8.78,10.12,10.12,0,0,1-.48,1.31,6.76,6.76,0,0,0-.32,6.66c.23.48-.64,1.43-1.21,1.35-10.06-1.32-25.62.83-35.86,5.32-.63.28-1.18-.54-1-1.38.25-1.12.61-2.24.81-3.37.85-5,1.72-10.11,1.33-15.28a3.94,3.94,0,0,1,1.1-3.16,7.41,7.41,0,0,0,1.77-5.17c.07-3.26.13-6.51.2-9.77a1.11,1.11,0,0,1,1.41-.92,12.5,12.5,0,0,0,2.67.69c5.12.14,10.26.21,15.38.18a4,4,0,0,0,4.11-3.89,67.81,67.81,0,0,0-3.05-25.52,27.11,27.11,0,0,0-5.83-10.23,3.72,3.72,0,0,0-3.76-1.28c-.91.23-1.8.52-2.71.73a1.35,1.35,0,0,1-1.52-1.68c.16-.91,8.91-8.42,8.06-12.68-.93-4.59-22.24,2.29-25.44,12.36-1-2.71-2-5.07-2.87-7.43,11.37-13.49,73-20.43,79.15-25.22-.82,1.84-1.61,3.51-2.34,5.21-2.53,5.76-2.67,11.66-1.51,17.78.82,4.45,2.87,7,7.56,7.71a29.46,29.46,0,0,1,9.9,3.31,10.49,10.49,0,0,0,1.3.46c9,3.37,17.76-2.21,18.49-11.84.1-1.18,0-2.34.05-3.51a2.72,2.72,0,0,1,2.39-2.94c1.82-.33,3.64-.65,5.46-1,3-.64,6-.87,8.72,1a3.39,3.39,0,0,0,5-.9,7.76,7.76,0,0,1,5.19-4.13,4.28,4.28,0,0,0,2.64-3,9.2,9.2,0,0,0-.73-5.46,25.22,25.22,0,0,0-8.12-10.27c-2.28-1.64-9.2-6.29-10.28-7.17a1.86,1.86,0,0,1-.09-1.92,25.75,25.75,0,0,1,2.45-2.45c1.79-1.5,3.56-3,5.48-4.35,10.31-7,13.49-24.41,8.63-29.92-.81-.91-3.69-1.94-4.15-2.33,3.92-6,11-21.15,11.27-22.26a2.31,2.31,0,0,0-2.71-3,33.22,33.22,0,0,0-12.33,4.57c-1.94,1.31-7.45,6.93-9,7.64-.48.23-1.58-.25-1.65-.78-6.4-49.34-47.11-55-68.56-46.5-7.47,3-11.7,9.85-12.3,10.28-6-2.34-17.41-15.32-22.46-44.13-.42-2.45-.39-3.94,2.37-4.45a2.25,2.25,0,0,1,1.81.69c1,1.28,1.63,2.8,2.57,4.12,2.2,3.08,5.23,4.74,9,4.12,2.66-.45,5.06.32,7.57.78,2,.36,2.78,1.06,2.91,3.3.46,8.09,4,18.26,9,4.35a24.65,24.65,0,0,0-.37-17.17,14.26,14.26,0,0,1-.82-1.91,1.47,1.47,0,0,1,.5-1.19c1.73-1.2,3.54-2.27,5.26-3.42,1.17-.79,2.64-1.65,2.75-3.11.58-7.39-8.21-6.4-10.42-11.23a10.63,10.63,0,0,0-1.05-1.79c-1.88-2.55-4.3-4.31-7.6-4.22-2.32,0-10.62,1.16-12.46,1.39-2.52.32-3.14-1.53-2.82-3.57a6.76,6.76,0,0,1,1.73-3c1.21-1.71,1.28-2.87.13-4.44s-2.36-2.85-3.62-4.21a47,47,0,0,0-3.54-3.38c-2-1.74-4.25-2.82-7-1.86a2.54,2.54,0,0,1-2.85-1.39c-1.69-4.2-5.23-6.59-9.08-8.27a15.06,15.06,0,0,0-12.16-.16c-2.75,1.2-3.86,6.64-9.86,1.73-.71-.58-1.48-1.13-2.21-1.73-1.4-1.14-1.5-2.27-.36-3.53a43.4,43.4,0,0,1,12-9.4,65.72,65.72,0,0,1,24.55-7.33,101.33,101.33,0,0,1,20.9.3,74.08,74.08,0,0,1,17.53,4.5,4.7,4.7,0,0,1,1.71,1.15,29.68,29.68,0,0,0,7.44,5.09c1.24.69,2.44,1.37,3.62,2.12,8.11,5,15,11.93,15.47,21.49,3.17,60.38,37.15,89,76.91,87.26-.16,18.55,12.36,21,23.4,20.74a5.34,5.34,0,0,1,5.62,4.4c1.65,13.33,14-2.61,16.56-6.75a15.87,15.87,0,0,0,2-12.11c-.41-2-1.7-3.76-2.66-5.8,21.36.73,14.34-15.6,13.82-17.15a5,5,0,0,1,1.21-5.15c1-1.25,2.25-2.34,3.3-3.58a2.54,2.54,0,0,0,.44-2.61,2.79,2.79,0,0,0-2.71-1.64c-3.49,0-2.38.3-5.88.46-1,0-2.3-1-1.09-1.9,15.64-30.34,1.74-54.56,2.18-55.66,1.29-3.27-.8-7.52-1-8.2-.86-3.16-.78-6.59,2.14-8.3,1.61-.94,4.76-2.11,4.71-8.17-.09-9.47-6.07-14.22-7-17.12-.71-2.25,1.48-6.6,3.68-7.85,11.33-6.4,14.49-11.22-7.4-8.52-4.26.52-7.84,1.69-10.86,4.42-2.67,2.41-5.24,2.34-8.31.94a24.26,24.26,0,0,0-9.55-1.81,5.49,5.49,0,0,0-5.25,2.82c-1.16,2-4.28,7.55-5,8.23-1.42-.73-2.64-1.37-3.85-2a21.48,21.48,0,0,0-18.22-1.18c-3.48,1.32-7,2.58-10.42,4-2,.83-4,.68-5.11-1-2.17-3.4-3.81-2.17-3.77-.8a14.24,14.24,0,0,0,5.28,10.92c1.43,1.19,3.14,2,4.66,3.08a43.9,43.9,0,0,1,5.16,4.76c-3.81,1.2-6.34,3.84-8.58,6.8a31.67,31.67,0,0,0-6,14c-1.56,9.2-.72,18,4.2,26.3,4,6.85,10.16,9.93,17.73,10.74A21.46,21.46,0,0,0,621,100a15.54,15.54,0,0,0,8.51-7.84,7.06,7.06,0,0,0-5.78-10.29,6.71,6.71,0,0,0-7.59,5.65,25.34,25.34,0,0,1-.63,3.37,1.37,1.37,0,0,1-1.07.68,11.09,11.09,0,0,1-7.16-2.21,16.64,16.64,0,0,1-6.86-10.15c-3.08-12.46,5-24.89,18.61-28.13,11.86-2.82,26.94,2,36.09,9.07,10.78,8.32,21.36,39.16,5.94,63.52-1.49.26-3,0-4.32.74-2,1.06-3.14,3.36-4.78,5a53.08,53.08,0,0,1-30.67,15.37A52.19,52.19,0,0,1,588.83,139c-12-6.35-19.37-16.44-25.52-28.51-3.71-7.29-5.92-19.3-5.9-26.34,0-4.44,4.53-24.74-8.31-35.22a13.13,13.13,0,0,0,.16-9.48,7.42,7.42,0,0,0-7.61-5c-6.9-8-14.11-7.54-17.44-6-1,.5-5.37,3.28-6.53,4a4.38,4.38,0,0,1-4.62.3A62.12,62.12,0,0,0,503.34,29a73.22,73.22,0,0,0-24.14-2.86,72,72,0,0,0-34.42,10.07,62,62,0,0,0-11.53,9,2.9,2.9,0,0,1-2.44,1.1,6.68,6.68,0,0,1-2-4.29c-.09-2.09-.09-4.18,0-6.26a7.29,7.29,0,0,1,2.45-5.58,7.69,7.69,0,0,0,1.42-1.54,3.13,3.13,0,0,0,.3-3.28,3.24,3.24,0,0,0-2.77-1.8,8.13,8.13,0,0,0-7.41,3.05,11.51,11.51,0,0,0-1.1,1.73,1.23,1.23,0,0,1-.72.44,1.2,1.2,0,0,1-.71-.44,12.36,12.36,0,0,0-1.1-1.73,8.13,8.13,0,0,0-7.41-3.05,3.27,3.27,0,0,0-2.78,1.8,3.15,3.15,0,0,0,.31,3.28,7.69,7.69,0,0,0,1.42,1.54,7.29,7.29,0,0,1,2.45,5.58c.05,2.08.05,4.17,0,6.26a6.68,6.68,0,0,1-2,4.29,2.9,2.9,0,0,1-2.44-1.1,61.69,61.69,0,0,0-11.54-9,72,72,0,0,0-34.41-10.07A73.22,73.22,0,0,0,338.55,29a62.12,62.12,0,0,0-9.72,3.79,4.38,4.38,0,0,1-4.62-.3c-1.16-.76-5.51-3.54-6.53-4-3.33-1.58-10.54-2-17.44,6a7.42,7.42,0,0,0-7.61,5,13.13,13.13,0,0,0,.16,9.48c-12.84,10.48-8.34,30.78-8.31,35.22,0,7-2.19,19-5.9,26.34-6.15,12.07-13.52,22.16-25.52,28.51a52.23,52.23,0,0,1-32.47,5.74,53.09,53.09,0,0,1-30.65-15.37c-1.64-1.62-2.78-3.92-4.78-5-1.31-.69-2.83-.48-4.32-.74-15.42-24.36-4.84-55.2,5.94-63.52,9.15-7.08,24.23-11.89,36.09-9.07,13.65,3.24,21.68,15.67,18.6,28.13a16.58,16.58,0,0,1-6.85,10.15,11.11,11.11,0,0,1-7.16,2.21,1.39,1.39,0,0,1-1.08-.68,27,27,0,0,1-.62-3.37,6.71,6.71,0,0,0-7.59-5.65,7.06,7.06,0,0,0-5.78,10.29A15.54,15.54,0,0,0,220.9,100a21.46,21.46,0,0,0,10.28,1.54c7.57-.81,13.68-3.89,17.73-10.74,4.92-8.29,5.76-17.1,4.2-26.3a31.79,31.79,0,0,0-6-14c-2.24-3-4.77-5.6-8.59-6.8A44.9,44.9,0,0,1,243.68,39c1.52-1.07,3.23-1.89,4.66-3.08A14.24,14.24,0,0,0,253.62,25c0-1.37-1.6-2.6-3.77.8-1.07,1.69-3.1,1.84-5.11,1-3.45-1.42-6.94-2.68-10.42-4A21.48,21.48,0,0,0,216.1,24c-1.21.64-2.43,1.28-3.85,2-.7-.68-3.82-6.24-5-8.23A5.49,5.49,0,0,0,202,14.91a24.21,24.21,0,0,0-9.54,1.81c-3.07,1.4-5.64,1.47-8.31-.94-3-2.73-6.6-3.9-10.86-4.42-21.89-2.7-18.73,2.12-7.4,8.52,2.2,1.25,4.39,5.6,3.67,7.85-.91,2.9-6.89,7.65-7,17.12-.06,6.06,3.1,7.23,4.71,8.17,2.92,1.71,3,5.14,2.12,8.3-.18.68-2.27,4.93-1,8.2.44,1.1-13.46,25.32,2.18,55.66,1.21.85-.11,1.92-1.1,1.9-3.49-.16-2.38-.42-5.88-.46a2.78,2.78,0,0,0-2.7,1.64,2.5,2.5,0,0,0,.44,2.61c1.05,1.24,2.26,2.33,3.3,3.58a5.06,5.06,0,0,1,1.21,5.15c-.52,1.55-7.54,17.88,13.82,17.15-1,2-2.25,3.85-2.66,5.8a15.87,15.87,0,0,0,2,12.11c2.6,4.14,14.91,20.08,16.56,6.75a5.34,5.34,0,0,1,5.62-4.4c11,.24,23.55-2.19,23.4-20.74C264.42,158,298.4,129.39,301.57,69c.49-9.56,7.36-16.45,15.47-21.49,1.18-.75,2.38-1.43,3.62-2.12a29.45,29.45,0,0,0,7.43-5.09,4.73,4.73,0,0,1,1.72-1.15,74.08,74.08,0,0,1,17.53-4.5,101.32,101.32,0,0,1,20.9-.3,65.77,65.77,0,0,1,24.55,7.33,43.4,43.4,0,0,1,12,9.4c1.12,1.26,1,2.39-.36,3.53-.73.6-1.5,1.15-2.21,1.73-6,4.91-7.11-.53-9.86-1.73a15.06,15.06,0,0,0-12.16.16c-3.85,1.68-7.39,4.07-9.08,8.27a2.54,2.54,0,0,1-2.85,1.39c-2.79-1-5,.12-7.05,1.86a46.87,46.87,0,0,0-3.53,3.38c-1.26,1.36-2.5,2.75-3.63,4.21s-1.07,2.73.14,4.44a6.76,6.76,0,0,1,1.73,3c.32,2-.3,3.89-2.82,3.57-1.84-.23-10.15-1.35-12.46-1.39-3.3-.09-5.72,1.67-7.6,4.22A10,10,0,0,0,332,89.48c-2.21,4.83-11,3.84-10.42,11.23.11,1.46,1.58,2.32,2.75,3.11,1.72,1.15,3.53,2.22,5.26,3.42a1.47,1.47,0,0,1,.5,1.19,14.26,14.26,0,0,1-.82,1.91,24.6,24.6,0,0,0-.37,17.17c5.06,13.91,8.58,3.74,9-4.35.13-2.24.87-2.94,2.91-3.3,2.51-.46,4.91-1.23,7.57-.78,3.78.62,6.81-1,9-4.12.94-1.32,1.61-2.84,2.57-4.12a2.22,2.22,0,0,1,1.81-.69c2.76.51,2.79,2,2.36,4.45-5,28.81-16.49,41.79-22.46,44.13-.59-.43-4.82-7.3-12.29-10.28-21.45-8.55-62.16-2.84-68.56,46.5-.07.53-1.17,1-1.66.78-1.53-.71-7-6.33-9-7.64a33.11,33.11,0,0,0-12.32-4.57,2.31,2.31,0,0,0-2.71,3c.3,1.11,7.35,16.25,11.27,22.26-.46.39-3.34,1.42-4.15,2.33C237.47,216.58,240.65,234,251,241c1.92,1.32,3.69,2.85,5.47,4.35a24.73,24.73,0,0,1,2.46,2.45,1.89,1.89,0,0,1-.09,1.92c-1.08.88-8,5.53-10.28,7.17a25.22,25.22,0,0,0-8.12,10.27,9.2,9.2,0,0,0-.73,5.46,4.28,4.28,0,0,0,2.64,3,7.68,7.68,0,0,1,5.17,4.13,3.42,3.42,0,0,0,5,.9c2.73-1.91,5.69-1.68,8.72-1,1.82.39,3.65.71,5.46,1a2.73,2.73,0,0,1,2.39,2.94c.05,1.17-.05,2.33.05,3.51.73,9.63,9.45,15.21,18.49,11.84a10.49,10.49,0,0,0,1.3-.46,29.39,29.39,0,0,1,9.9-3.31c4.69-.67,6.74-3.26,7.56-7.71,1.16-6.12,1-12-1.51-17.78-.74-1.7-1.52-3.37-2.34-5.21,6.15,4.79,67.78,11.73,79.15,25.22-.91,2.36-1.83,4.72-2.87,7.43-3.21-10.07-24.51-16.95-25.44-12.36-.86,4.26,7.89,11.77,8.06,12.68a1.35,1.35,0,0,1-1.52,1.68c-.91-.21-1.82-.5-2.71-.73a3.72,3.72,0,0,0-3.76,1.28,27.11,27.11,0,0,0-5.83,10.23,67.81,67.81,0,0,0-3,25.52,4,4,0,0,0,4.11,3.89c5.12,0,10.26,0,15.37-.18a12.44,12.44,0,0,0,2.68-.69,1.11,1.11,0,0,1,1.41.92c.07,3.26.13,6.51.2,9.77a7.45,7.45,0,0,0,1.76,5.17,3.91,3.91,0,0,1,1.11,3.16c-.39,5.17.48,10.24,1.33,15.28.2,1.13.55,2.25.81,3.37.18.84-.37,1.66-1,1.38-10.24-4.49-25.8-6.64-35.86-5.32-.57.08-1.44-.87-1.21-1.35a6.76,6.76,0,0,0-.32-6.66,10.12,10.12,0,0,1-.48-1.31,10.49,10.49,0,0,1-.4-8.78c.88-2.14.18-4.15-1-5.95a4.12,4.12,0,0,0-2.12-1.64,18.41,18.41,0,0,0-9-.56,58.21,58.21,0,0,1-7.52,1.4c-4.16.42-7.42,2.53-10.67,4.82a12,12,0,0,0-4.77,7.48,4.91,4.91,0,0,0,.48,2.66,7,7,0,0,0,1.21,1.67c.3.38.64.68.95,1s-3.6,6.79-13.27-.09c-4.25-3-9.49-3.73-14.73-3.26a32.27,32.27,0,0,0-9.88-7.85,21.36,21.36,0,0,1-2.28-1.6c-1.14-.85-1.32-2.07-.36-2.89C263.07,347.57,273,335,254,335.39c-4.72-34.16-30.52-14.83-32.86-14.23-1.78.46-2.3-2.71-1.63-4.06,1.65-3.34,3.37-6.65,5-10,1.41-2.93,1.28-3.16-1.57-4.92-.75-.46-2.7-.84-2.17-2.3,1.83-6,.53-11.61-2.59-16.75-7-11.49-17-18.86-30.22-21.75-1.43-.31-4.47.94,1.55,4.46,3.66,2.12,12.78,6.56,13.64,16.56.31,3.61-2.94,5.48-6.13,6.14-3.36.71-10.82,6.91-10.76,20.61,0,1.28-1.87.34-2.55-.46a24.74,24.74,0,0,0-12.91-7.87c-4.67-1.12-9.27-1.53-13,2.84.9,1.55,1.86,3.1,2.73,4.71,1.82,3.33,2.36,7.1,0,10-9.29,11.37-7.1,16.48-5.77,18.21a11.35,11.35,0,0,0,7.75,4.74c3.62.36,3.77,2.22,2.34,4.79a27,27,0,0,0-3.6,11.22,37.32,37.32,0,0,0-9,18.65c-1.73,9.12.43,23.18,2.31,28.2,2.34,6.2,8.47,14.83,12.18,16.77-3.71,1.95-9.84,10.58-12.18,16.78-1.88,5-4,19.08-2.31,28.2a37.32,37.32,0,0,0,9,18.65,27,27,0,0,0,3.6,11.22c1.43,2.57,1.28,4.43-2.34,4.79a11.35,11.35,0,0,0-7.75,4.74c-1.33,1.73-3.52,6.84,5.77,18.21,2.38,2.9,1.84,6.67,0,10-.87,1.61-1.83,3.16-2.73,4.71,3.73,4.37,8.33,4,13,2.84a24.74,24.74,0,0,0,12.91-7.87c.68-.8,2.55-1.74,2.55-.46-.06,13.7,7.4,19.9,10.76,20.61,3.19.66,6.44,2.53,6.13,6.14-.86,10-10,14.44-13.64,16.56-6,3.52-3,4.77-1.55,4.46,13.26-2.89,23.23-10.26,30.22-21.75,3.12-5.14,4.42-10.74,2.59-16.75-.53-1.46,1.42-1.84,2.17-2.3,2.85-1.76,3-2,1.57-4.92-1.59-3.36-3.31-6.67-5-10-.67-1.35-.15-4.52,1.63-4.06,2.34.6,28.14,19.93,32.86-14.23,19.05.42,9.08-12.18,7.13-13.86-1-.82-.78-2,.36-2.89a21.36,21.36,0,0,1,2.28-1.6,32.27,32.27,0,0,0,9.88-7.85c5.24.47,10.48-.23,14.73-3.26,9.67-6.88,13.61-.55,13.27-.09s-.65.66-.95,1a7,7,0,0,0-1.21,1.67,4.91,4.91,0,0,0-.48,2.66,12,12,0,0,0,4.77,7.48c3.25,2.29,6.51,4.4,10.67,4.82A58.21,58.21,0,0,1,322,496a18.41,18.41,0,0,0,9-.56,4.12,4.12,0,0,0,2.12-1.64c1.18-1.8,1.88-3.81,1-5.95a10.49,10.49,0,0,1,.4-8.78,10.85,10.85,0,0,1,.48-1.32,6.74,6.74,0,0,0,.32-6.65c-.23-.48.64-1.43,1.21-1.35,10.06,1.32,25.62-.83,35.86-5.32.63-.28,1.18.54,1,1.38-.26,1.12-.61,2.24-.81,3.37-.85,5-1.72,10.11-1.33,15.28a3.91,3.91,0,0,1-1.11,3.16,7.45,7.45,0,0,0-1.76,5.17c-.07,3.26-.13,6.51-.2,9.77a1.11,1.11,0,0,1-1.41.92,12.44,12.44,0,0,0-2.68-.69c-5.11-.14-10.25-.21-15.37-.18a4,4,0,0,0-4.11,3.89,67.81,67.81,0,0,0,3,25.52,27.11,27.11,0,0,0,5.83,10.23,3.74,3.74,0,0,0,3.76,1.28c.89-.23,1.8-.52,2.71-.73a1.35,1.35,0,0,1,1.52,1.68c-.17.91-8.92,8.42-8.06,12.68.93,4.59,22.23-2.29,25.44-12.36,1,2.71,2,5.07,2.87,7.43-11.37,13.49-73,20.43-79.15,25.22.82-1.84,1.6-3.51,2.34-5.21,2.52-5.76,2.67-11.66,1.51-17.78-.82-4.45-2.87-7-7.56-7.71a29.39,29.39,0,0,1-9.9-3.31,10.49,10.49,0,0,0-1.3-.46c-9-3.37-17.76,2.21-18.49,11.84-.1,1.18,0,2.34-.05,3.51a2.73,2.73,0,0,1-2.39,2.94c-1.81.33-3.64.65-5.46,1-3,.64-6,.87-8.72-1a3.42,3.42,0,0,0-5,.9,7.68,7.68,0,0,1-5.17,4.13,4.28,4.28,0,0,0-2.64,3,9.2,9.2,0,0,0,.73,5.46A25.22,25.22,0,0,0,248.52,585c2.28,1.64,9.2,6.29,10.28,7.17a1.89,1.89,0,0,1,.09,1.92,24.73,24.73,0,0,1-2.46,2.45c-1.78,1.5-3.55,3-5.47,4.35-10.31,7-13.49,24.41-8.63,29.92.81.91,3.69,1.94,4.15,2.33-3.92,6-11,21.15-11.27,22.26a2.31,2.31,0,0,0,2.71,3,33.11,33.11,0,0,0,12.32-4.57c1.95-1.31,7.46-6.93,9-7.64.49-.23,1.59.25,1.66.78,6.4,49.34,47.11,55,68.56,46.5,7.47-3,11.7-9.85,12.29-10.28,6,2.34,17.42,15.32,22.46,44.13.43,2.45.4,3.94-2.36,4.45a2.22,2.22,0,0,1-1.81-.69c-1-1.28-1.63-2.8-2.57-4.12-2.21-3.08-5.24-4.74-9-4.12-2.66.45-5.06-.32-7.57-.78-2-.36-2.78-1.06-2.91-3.3-.46-8.09-4-18.26-9-4.35a24.6,24.6,0,0,0,.37,17.17,13.73,13.73,0,0,1,.82,1.91,1.48,1.48,0,0,1-.5,1.19c-1.73,1.2-3.54,2.27-5.26,3.42-1.17.79-2.64,1.65-2.75,3.11-.58,7.39,8.21,6.4,10.42,11.23a10,10,0,0,0,1.05,1.79c1.88,2.55,4.3,4.31,7.6,4.22,2.31,0,10.62-1.16,12.46-1.39,2.52-.32,3.14,1.53,2.82,3.57a6.76,6.76,0,0,1-1.73,3c-1.21,1.71-1.28,2.87-.14,4.43s2.37,2.86,3.63,4.22a46.87,46.87,0,0,0,3.53,3.38c2,1.74,4.26,2.82,7.05,1.86a2.54,2.54,0,0,1,2.85,1.39c1.69,4.2,5.23,6.59,9.08,8.27a15.06,15.06,0,0,0,12.16.16c2.75-1.2,3.86-6.64,9.86-1.73.71.58,1.48,1.13,2.21,1.73,1.39,1.14,1.48,2.27.36,3.53a43.4,43.4,0,0,1-12,9.4,65.77,65.77,0,0,1-24.55,7.33,101.32,101.32,0,0,1-20.9-.3,74.08,74.08,0,0,1-17.53-4.5,4.73,4.73,0,0,1-1.72-1.15,29.45,29.45,0,0,0-7.43-5.09c-1.24-.69-2.44-1.37-3.62-2.12-8.11-5-15-11.93-15.47-21.49-3.17-60.38-37.15-89-76.91-87.26.15-18.55-12.36-21-23.4-20.74a5.34,5.34,0,0,1-5.62-4.4c-1.65-13.33-14,2.61-16.56,6.75a15.87,15.87,0,0,0-2,12.11c.41,1.95,1.69,3.76,2.66,5.8-21.36-.73-14.34,15.6-13.82,17.15a5.06,5.06,0,0,1-1.21,5.15c-1,1.25-2.25,2.34-3.3,3.58a2.5,2.5,0,0,0-.44,2.61,2.78,2.78,0,0,0,2.7,1.64c3.5,0,2.39-.3,5.88-.46,1,0,2.31,1.05,1.1,1.9-15.64,30.34-1.74,54.56-2.18,55.66-1.29,3.27.8,7.52,1,8.2.88,3.16.8,6.59-2.12,8.3-1.61.94-4.77,2.11-4.71,8.17.08,9.47,6.06,14.22,7,17.12.72,2.25-1.47,6.6-3.67,7.85-11.33,6.4-14.49,11.22,7.4,8.52,4.26-.52,7.84-1.69,10.86-4.42,2.67-2.41,5.24-2.34,8.31-.94A24.21,24.21,0,0,0,202,827a5.49,5.49,0,0,0,5.26-2.82c1.14-2,4.26-7.55,5-8.24l3.85,2a21.48,21.48,0,0,0,18.22,1.18c3.48-1.32,7-2.58,10.42-4,2-.83,4-.68,5.11,1,2.17,3.4,3.81,2.17,3.77.8A14.24,14.24,0,0,0,248.34,806c-1.43-1.19-3.14-2-4.66-3.08a44.9,44.9,0,0,1-5.17-4.76c3.82-1.2,6.35-3.84,8.59-6.8a31.79,31.79,0,0,0,6-14c1.56-9.2.72-18-4.2-26.3-4-6.85-10.16-9.93-17.73-10.74a21.46,21.46,0,0,0-10.28,1.54,15.54,15.54,0,0,0-8.51,7.84A7.06,7.06,0,0,0,218.17,760a6.71,6.71,0,0,0,7.59-5.65,27,27,0,0,1,.62-3.37,1.39,1.39,0,0,1,1.08-.68,11.05,11.05,0,0,1,7.16,2.21,16.58,16.58,0,0,1,6.85,10.15c3.08,12.46-4.95,24.89-18.6,28.13-11.86,2.82-26.94-2-36.09-9.07-10.78-8.32-21.36-39.16-5.94-63.52,1.49-.26,3-.05,4.32-.74,2-1.06,3.14-3.36,4.78-5a53.09,53.09,0,0,1,30.65-15.37,52.23,52.23,0,0,1,32.47,5.74c12,6.35,19.37,16.44,25.52,28.51,3.71,7.29,5.92,19.3,5.9,26.34,0,4.44-4.53,24.74,8.31,35.22a13.13,13.13,0,0,0-.16,9.48,7.42,7.42,0,0,0,7.61,5c6.9,8,14.11,7.54,17.44,6,1-.5,5.37-3.28,6.53-4a4.38,4.38,0,0,1,4.62-.3,62.12,62.12,0,0,0,9.72,3.79,73.22,73.22,0,0,0,24.14,2.86,72,72,0,0,0,34.41-10.07,61.69,61.69,0,0,0,11.54-9,2.9,2.9,0,0,1,2.44-1.1,6.68,6.68,0,0,1,2,4.29c.09,2.09.09,4.18,0,6.26a7.29,7.29,0,0,1-2.45,5.58,7.69,7.69,0,0,0-1.42,1.54,3.15,3.15,0,0,0-.31,3.28,3.27,3.27,0,0,0,2.78,1.8,8.13,8.13,0,0,0,7.41-3,12.36,12.36,0,0,0,1.1-1.73,1.2,1.2,0,0,1,.71-.44,1.23,1.23,0,0,1,.72.44,11.51,11.51,0,0,0,1.1,1.73,8.13,8.13,0,0,0,7.41,3,3.24,3.24,0,0,0,2.77-1.8,3.13,3.13,0,0,0-.3-3.28,7.69,7.69,0,0,0-1.42-1.54,7.29,7.29,0,0,1-2.45-5.58c0-2.08,0-4.17,0-6.26a6.68,6.68,0,0,1,2-4.29,2.9,2.9,0,0,1,2.44,1.1,62,62,0,0,0,11.53,9,72,72,0,0,0,34.42,10.07,73.22,73.22,0,0,0,24.14-2.86,62.12,62.12,0,0,0,9.72-3.79,4.38,4.38,0,0,1,4.62.3c1.16.76,5.51,3.54,6.53,4,3.33,1.58,10.54,2,17.44-6a7.42,7.42,0,0,0,7.61-5,13.13,13.13,0,0,0-.16-9.48c12.84-10.48,8.34-30.78,8.31-35.22,0-7,2.19-19.05,5.9-26.34,6.15-12.07,13.52-22.16,25.52-28.51a52.19,52.19,0,0,1,32.45-5.74A53.08,53.08,0,0,1,652,712.49c1.64,1.62,2.78,3.92,4.78,5,1.31.69,2.83.48,4.32.74,15.42,24.36,4.84,55.2-5.94,63.52-9.15,7.08-24.23,11.89-36.09,9.07-13.65-3.24-21.69-15.67-18.61-28.13a16.64,16.64,0,0,1,6.86-10.15,11,11,0,0,1,7.16-2.21,1.37,1.37,0,0,1,1.07.68,25.34,25.34,0,0,1,.63,3.37,6.71,6.71,0,0,0,7.59,5.65,7.06,7.06,0,0,0,5.78-10.29,15.54,15.54,0,0,0-8.51-7.84,21.46,21.46,0,0,0-10.28-1.54c-7.57.81-13.68,3.89-17.73,10.74-4.92,8.29-5.76,17.1-4.2,26.3a31.67,31.67,0,0,0,6,14c2.24,3,4.77,5.6,8.58,6.8a43.9,43.9,0,0,1-5.16,4.76c-1.52,1.07-3.23,1.89-4.66,3.08a14.24,14.24,0,0,0-5.28,10.92c0,1.37,1.6,2.6,3.77-.8,1.07-1.69,3.1-1.84,5.11-1,3.44,1.42,6.94,2.68,10.42,4a21.48,21.48,0,0,0,18.22-1.18l3.85-2c.68.69,3.8,6.25,5,8.24a5.49,5.49,0,0,0,5.25,2.82,24.26,24.26,0,0,0,9.55-1.81c3.07-1.4,5.64-1.47,8.31.94,3,2.73,6.6,3.9,10.86,4.42,21.89,2.7,18.73-2.12,7.4-8.52-2.2-1.25-4.39-5.6-3.68-7.85.91-2.9,6.89-7.65,7-17.12.05-6.06-3.1-7.23-4.71-8.17-2.92-1.71-3-5.14-2.14-8.3.2-.68,2.29-4.93,1-8.2-.44-1.1,13.46-25.32-2.18-55.66-1.21-.85.11-1.92,1.09-1.9,3.5.16,2.39.42,5.88.46a2.79,2.79,0,0,0,2.71-1.64,2.54,2.54,0,0,0-.44-2.61c-1.05-1.24-2.27-2.33-3.3-3.58a5,5,0,0,1-1.21-5.15c.52-1.55,7.54-17.88-13.82-17.15,1-2,2.25-3.85,2.66-5.8a15.87,15.87,0,0,0-2-12.11c-2.61-4.14-14.91-20.08-16.56-6.75a5.34,5.34,0,0,1-5.62,4.4c-11-.24-23.56,2.19-23.4,20.74-39.76-1.73-73.74,26.88-76.91,87.26-.51,9.56-7.36,16.45-15.47,21.49-1.18.75-2.38,1.43-3.62,2.12a29.68,29.68,0,0,0-7.44,5.09,4.7,4.7,0,0,1-1.71,1.15,74.08,74.08,0,0,1-17.53,4.5,101.33,101.33,0,0,1-20.9.3,65.72,65.72,0,0,1-24.55-7.33,43.4,43.4,0,0,1-12-9.4c-1.14-1.26-1-2.39.36-3.53.73-.6,1.5-1.15,2.21-1.73,6-4.91,7.11.53,9.86,1.73a15.06,15.06,0,0,0,12.16-.16c3.85-1.68,7.39-4.07,9.08-8.27a2.54,2.54,0,0,1,2.85-1.39c2.79,1,5-.12,7-1.86a47,47,0,0,0,3.54-3.38c1.26-1.36,2.49-2.75,3.62-4.22s1.08-2.72-.13-4.43a6.76,6.76,0,0,1-1.73-3c-.32-2,.3-3.89,2.82-3.57,1.84.23,10.14,1.35,12.46,1.39,3.3.09,5.72-1.67,7.6-4.22a10.63,10.63,0,0,0,1.05-1.79c2.21-4.83,11-3.84,10.42-11.23-.11-1.46-1.58-2.32-2.75-3.11-1.72-1.15-3.53-2.22-5.26-3.42a1.48,1.48,0,0,1-.5-1.19,13.73,13.73,0,0,1,.82-1.91,24.65,24.65,0,0,0,.37-17.17c-5.06-13.91-8.58-3.74-9,4.35-.13,2.24-.87,2.94-2.91,3.3-2.51.46-4.91,1.23-7.57.78-3.79-.62-6.82,1-9,4.12-.94,1.32-1.61,2.84-2.57,4.12a2.25,2.25,0,0,1-1.81.69c-2.76-.51-2.79-2-2.37-4.45,5.05-28.81,16.49-41.79,22.46-44.13.6.43,4.83,7.3,12.3,10.28,21.45,8.55,62.16,2.84,68.56-46.5.07-.53,1.17-1,1.65-.78,1.54.71,7.05,6.33,9,7.64A33.22,33.22,0,0,0,604,658.37a2.31,2.31,0,0,0,2.71-3c-.31-1.11-7.35-16.25-11.27-22.26.46-.39,3.34-1.42,4.15-2.33,4.86-5.51,1.68-22.94-8.63-29.92-1.92-1.32-3.69-2.85-5.48-4.35A25.75,25.75,0,0,1,583,594.1a1.86,1.86,0,0,1,.09-1.92c1.08-.88,8-5.53,10.28-7.17a25.22,25.22,0,0,0,8.12-10.27,9.2,9.2,0,0,0,.73-5.46,4.28,4.28,0,0,0-2.64-3,7.76,7.76,0,0,1-5.19-4.13,3.39,3.39,0,0,0-5-.9c-2.74,1.91-5.69,1.68-8.72,1-1.82-.39-3.64-.71-5.46-1a2.72,2.72,0,0,1-2.39-2.94c-.05-1.17,0-2.33-.05-3.51-.73-9.63-9.45-15.21-18.49-11.84a10.49,10.49,0,0,0-1.3.46,29.46,29.46,0,0,1-9.9,3.31c-4.69.67-6.74,3.26-7.56,7.71-1.16,6.12-1,12,1.51,17.78.73,1.7,1.52,3.37,2.34,5.21-6.15-4.79-67.78-11.73-79.15-25.22.91-2.36,1.83-4.72,2.87-7.43,3.2,10.07,24.51,16.95,25.44,12.36.85-4.26-7.9-11.77-8.06-12.68a1.35,1.35,0,0,1,1.52-1.68c.91.21,1.8.5,2.71.73a3.74,3.74,0,0,0,3.76-1.28A27.11,27.11,0,0,0,494.3,532a67.81,67.81,0,0,0,3.05-25.52,4,4,0,0,0-4.11-3.89c-5.12,0-10.26,0-15.38.18a12.5,12.5,0,0,0-2.67.69,1.11,1.11,0,0,1-1.41-.92l-.2-9.77a7.41,7.41,0,0,0-1.77-5.17,3.94,3.94,0,0,1-1.1-3.16c.39-5.17-.48-10.24-1.33-15.28-.2-1.13-.56-2.25-.81-3.37-.18-.84.37-1.66,1-1.38,10.24,4.49,25.8,6.64,35.86,5.32.57-.08,1.44.87,1.21,1.35a6.74,6.74,0,0,0,.32,6.65,10.85,10.85,0,0,1,.48,1.32,10.45,10.45,0,0,1,.39,8.78c-.87,2.14-.19,4.15,1,5.95a4.12,4.12,0,0,0,2.12,1.64,18.41,18.41,0,0,0,9,.56,58.21,58.21,0,0,1,7.52-1.4c4.15-.42,7.42-2.53,10.67-4.82a12,12,0,0,0,4.77-7.48,4.91,4.91,0,0,0-.48-2.66A7,7,0,0,0,541.2,478c-.3-.38-.65-.68-1-1s3.6-6.79,13.27.09c4.24,3,9.49,3.73,14.73,3.26a32.39,32.39,0,0,0,9.88,7.85,22.42,22.42,0,0,1,2.28,1.6c1.14.85,1.32,2.07.36,2.89-1.95,1.68-11.92,14.28,7.13,13.86,4.72,34.16,30.52,14.83,32.86,14.23,1.77-.46,2.3,2.71,1.63,4.06-1.65,3.34-3.37,6.65-5,10-1.41,2.93-1.28,3.16,1.57,4.92.75.46,2.7.84,2.17,2.3-1.83,6-.53,11.61,2.59,16.75,7,11.49,17,18.86,30.22,21.75,1.43.31,4.47-.94-1.55-4.46-3.66-2.12-12.78-6.56-13.64-16.56-.31-3.61,2.94-5.48,6.13-6.14,3.36-.71,10.82-6.91,10.76-20.61,0-1.28,1.87-.34,2.55.46a24.73,24.73,0,0,0,12.92,7.87c4.66,1.12,9.26,1.53,13-2.84-.89-1.55-1.85-3.1-2.73-4.71-1.81-3.33-2.35-7.1,0-10,9.3-11.37,7.11-16.48,5.78-18.21a11.35,11.35,0,0,0-7.75-4.74c-3.62-.36-3.77-2.22-2.34-4.79a27,27,0,0,0,3.6-11.22,37.32,37.32,0,0,0,9-18.65c1.73-9.12-.43-23.18-2.32-28.2C685,431.52,678.9,422.89,675.18,420.94ZM662.72,46.59c-2.82,4-5.49,3.35-6.05,2.94a40.87,40.87,0,0,0-25.42-7.91c-1.61,0-3.23-.09-4.85-.14-.52,0-.77-.39-.68-1a.94.94,0,0,1,.3-.57A23.5,23.5,0,0,1,634,35.86c5-1.75,9.61-1.37,15.19,2.57,6.52-7.8,12.91-3.88,14.73.34C665.11,41.64,664.45,44.16,662.72,46.59Zm-9.63,94.81c.7,4.42-1.49,6.74-3.19,9.24-.94,1.41-2.17,2.79-3.9,2.62a4.42,4.42,0,0,0-4.61,2.27c-.74,1.92-1.24,4-2.09,5.86-1,2.34-4.86,2.73-6.5.82a19,19,0,0,1-4.14-8C632.44,151.33,649.1,143.72,653.09,141.4ZM178,38.77c1.82-4.22,8.21-8.14,14.73-.34,5.58-3.94,10.22-4.32,15.19-2.57a23.5,23.5,0,0,1,7.94,4.08.94.94,0,0,1,.3.57c.09.58-.16,1-.68,1-1.62.05-3.24.16-4.85.14a40.87,40.87,0,0,0-25.42,7.91c-.56.41-3.24,1-6.05-2.94C177.43,44.16,176.78,41.64,178,38.77Zm31.08,123.44c-1.64,1.91-5.47,1.52-6.51-.82-.84-1.89-1.35-3.94-2.08-5.86a4.43,4.43,0,0,0-4.61-2.27c-1.73.17-3-1.21-3.9-2.62-1.7-2.5-3.89-4.82-3.19-9.24,4,2.32,20.65,9.93,24.43,12.8A19,19,0,0,1,209.09,162.21ZM179.17,795.3c2.81-4,5.49-3.35,6.05-2.94a40.87,40.87,0,0,0,25.42,7.91c1.61,0,3.23.09,4.85.14.52,0,.77.39.68,1a.94.94,0,0,1-.3.57,23.5,23.5,0,0,1-7.94,4.08c-5,1.75-9.61,1.37-15.19-2.57-6.52,7.8-12.91,3.88-14.73-.34C176.78,800.25,177.43,797.73,179.17,795.3Zm9.63-94.81c-.7-4.42,1.49-6.74,3.19-9.24.94-1.41,2.17-2.79,3.9-2.62a4.43,4.43,0,0,0,4.61-2.27c.73-1.92,1.24-4,2.08-5.86,1-2.34,4.87-2.73,6.51-.82a19,19,0,0,1,4.14,8C209.45,690.56,192.79,698.17,188.8,700.49ZM663.88,803.12c-1.82,4.22-8.21,8.14-14.73.34-5.58,3.94-10.22,4.32-15.19,2.57A23.5,23.5,0,0,1,626,802a.94.94,0,0,1-.3-.57c-.09-.58.16-1,.68-1,1.62,0,3.24-.16,4.85-.14a40.87,40.87,0,0,0,25.42-7.91c.56-.41,3.23-1,6.05,2.94C664.45,797.73,665.11,800.25,663.88,803.12ZM632.8,679.68c1.64-1.91,5.47-1.52,6.5.82.85,1.89,1.35,3.94,2.09,5.86a4.42,4.42,0,0,0,4.61,2.27c1.73-.17,3,1.21,3.9,2.62,1.7,2.5,3.89,4.82,3.19,9.24-4-2.32-20.65-9.93-24.43-12.8A19,19,0,0,1,632.8,679.68ZM622.69,330.86c5.37-3.25,11.38-5.15,17.32-7.08a14,14,0,0,1,11.44.91c.4.21,3.89-1.64,5.19-2.55a8.43,8.43,0,0,1,10.77,1.32,8.25,8.25,0,0,1,.48,10.27,51,51,0,0,1-3.51,3.75c-6.7-3.84-25-7.26-41.35-5.37C622.14,332.34,622,331.31,622.69,330.86ZM558,377.51c1.74.14,2.56,3.4,2.35,4.36-.52,2.23-1.12,4.43-1.79,7.12-2.47-.67-7.49-5.92-8.3-8.22C552.17,379,555.46,377.31,558,377.51Zm10.89,43.43c-4.64,2.78-12.84,10.83-13.47,11-3.17-5-13.72-10.83-13.94-11,.22-.18,10.77-6,13.94-11C556,410.12,564.2,418.17,568.84,420.94Zm-45.11-52.4a1.46,1.46,0,0,1,1.92-1.16,2.62,2.62,0,0,1,1,3.89.88.88,0,0,1-1.16.39C524,371.14,523.64,370.5,523.73,368.54ZM463.05,339c1.37,11.66,1.26,23.17-1.5,34.67a68,68,0,0,1-3.12,10A37.4,37.4,0,0,1,449.78,397a34.52,34.52,0,0,1-6,4.65c-2.07,1.21-4.43,1.54-6.47-.34-1.14-1.06-2.89-1.48-3.42-3.31a14.8,14.8,0,0,1,.76-1.88c2.52-4.43,5.12-8.84,7.62-13.28a28,28,0,0,0,3.83-12.57,6.82,6.82,0,0,0-1.91-5.08,17.7,17.7,0,0,0-7.59-4.8A10.19,10.19,0,0,1,432,357.3a20,20,0,0,1-1.32-1.6c-2.14-3.05-4.25-6.11-6.29-9.2a11.26,11.26,0,0,1-1-2.57,2.21,2.21,0,0,1,1.43-2.76c1.6-.25,3.24-.46,4.84-.62a4.17,4.17,0,0,0,3.61-2.86,5.56,5.56,0,0,0-1.41-6.38c-1.77-1.48-3.71-2.73-5.51-4a5,5,0,0,1,.05-.85A70.88,70.88,0,0,1,443,300.9a17,17,0,0,1,6.29-4.31,3.33,3.33,0,0,1,2,1.77,117.43,117.43,0,0,1,5.65,13.49A133.73,133.73,0,0,1,463.05,339ZM422,588.62c.33,4.88,1,14.54-1.08,14.87-2.08-.33-1.39-10-1.08-14.87a16.53,16.53,0,0,0,0-4.16c-.87-4.67-2.6-8.92-6.42-12-1.45-1.17-2.83-2.44-4.22-3.67a65.19,65.19,0,0,1-12.13-14.32,8.06,8.06,0,0,1-.61-2,62.17,62.17,0,0,0,9.7-10.11,128.9,128.9,0,0,0,11.89-18c.78-1.44,1.54-2.87,2.32-4.29a.69.69,0,0,1,1.19,0c.78,1.42,1.54,2.85,2.31,4.29a130.7,130.7,0,0,0,11.89,18,62.23,62.23,0,0,0,9.71,10.11,7.3,7.3,0,0,1-.63,2,64.56,64.56,0,0,1-12.11,14.32c-1.39,1.23-2.78,2.5-4.22,3.67-3.83,3.12-5.55,7.37-6.42,12A17,17,0,0,0,422,588.62Zm2.39,58.87c-1.17,0-2.32,0-3.47,0s-2.29,0-3.46,0a8.54,8.54,0,0,1-6.22-2.69,9.06,9.06,0,0,1-1.67-3,2.9,2.9,0,0,1,2.1-3.73,22.24,22.24,0,0,1,3.46-.3c1.87.05,3.8.2,5.79.32,2-.12,3.93-.27,5.8-.32a22.24,22.24,0,0,1,3.46.3,2.91,2.91,0,0,1,2.1,3.73,9.06,9.06,0,0,1-1.67,3A8.55,8.55,0,0,1,424.41,647.49Zm.87,18.94c-1.17,3.5-2.66,6.92-4,10.36-.11,0-.24-.07-.35-.11s-.23.06-.34.11c-1.33-3.44-2.83-6.86-4-10.36a26.84,26.84,0,0,1-.87-13.78,3.41,3.41,0,0,1,2.8-2.73,18.16,18.16,0,0,1,4.81,0,3.41,3.41,0,0,1,2.8,2.73A27.05,27.05,0,0,1,425.28,666.43Zm-4.34-222.52c-10.05-.18-22.48-7.86-22.73-23,.25-15.1,12.68-22.78,22.73-23,10.06.18,22.49,7.86,22.74,23C443.43,436.05,431,443.73,420.94,443.91Zm-1.08-190.64c-.31-4.88-1-14.54,1.08-14.87,2.09.33,1.41,10,1.08,14.87a17,17,0,0,0,.05,4.16c.87,4.67,2.59,8.92,6.42,12,1.44,1.17,2.83,2.44,4.22,3.67a64.56,64.56,0,0,1,12.11,14.32,7.3,7.3,0,0,1,.63,2,62.23,62.23,0,0,0-9.71,10.11,130.7,130.7,0,0,0-11.89,18c-.77,1.44-1.53,2.87-2.31,4.29a.69.69,0,0,1-1.19,0c-.78-1.42-1.54-2.85-2.32-4.29a128.9,128.9,0,0,0-11.89-18,62.17,62.17,0,0,0-9.7-10.11,8.06,8.06,0,0,1,.61-2,65.19,65.19,0,0,1,12.13-14.32c1.39-1.23,2.77-2.5,4.22-3.67,3.82-3.12,5.55-7.37,6.42-12A16.53,16.53,0,0,0,419.86,253.27Zm-2.38-58.87c1.17,0,2.32,0,3.46,0s2.3,0,3.47,0a8.55,8.55,0,0,1,6.22,2.69,9.06,9.06,0,0,1,1.67,3,2.91,2.91,0,0,1-2.1,3.73,22.24,22.24,0,0,1-3.46.3c-1.87-.05-3.8-.21-5.8-.32-2,.11-3.92.27-5.79.32a22.24,22.24,0,0,1-3.46-.3,2.9,2.9,0,0,1-2.1-3.73,9.06,9.06,0,0,1,1.67-3A8.54,8.54,0,0,1,417.48,194.4Zm-.87-18.94c1.16-3.5,2.66-6.92,4-10.36.11.05.23.07.34.11s.24-.06.35-.11c1.33,3.44,2.82,6.86,4,10.36a27.05,27.05,0,0,1,.87,13.78,3.41,3.41,0,0,1-2.8,2.73,18.16,18.16,0,0,1-4.81,0,3.41,3.41,0,0,1-2.8-2.73A26.84,26.84,0,0,1,416.61,175.46Zm159.73,61.2c.13,0,.33,0,.36.37.45,4.91-.5,9.7-1.62,14.45a8.53,8.53,0,0,1-3.6,5c-1,.66-2,1.19-3,1.8a2.37,2.37,0,0,0-1.16,2.94c.28,1.13.68,2.23.95,3.35a10.81,10.81,0,0,1-1,7.44,5.74,5.74,0,0,1-5.6,3.39,7.12,7.12,0,0,1-5.52-2.55,25.55,25.55,0,0,1-3.73-5.89c.61-.74,5.67-6.11,7.67-8.06a72.67,72.67,0,0,0,14.16-19.7C574.69,238.35,575.49,236.5,576.34,236.66ZM420.6,48c0-.05.16-.07.34-.07s.33,0,.35.07c1.33,2.41,3.69,4.58,3.85,7.25.24,3.89-4.16,10.62-4.2,10.6s-4.43-6.71-4.2-10.6C416.91,52.53,419.27,50.36,420.6,48ZM285.71,272.84a7.13,7.13,0,0,1-5.53,2.55,5.73,5.73,0,0,1-5.59-3.39,10.81,10.81,0,0,1-1-7.44c.27-1.12.66-2.22.95-3.35a2.38,2.38,0,0,0-1.16-2.94c-1-.61-2-1.14-3-1.8a8.53,8.53,0,0,1-3.6-5c-1.12-4.75-2.07-9.54-1.64-14.45.05-.38.23-.35.38-.37.85-.16,1.65,1.69,2.06,2.53a72.24,72.24,0,0,0,14.16,19.7c2,1.95,7.06,7.32,7.66,8.06A25.18,25.18,0,0,1,285.71,272.84ZM356,269c-3.94-5.23-6.7-11.13-9.79-16.84-1.66-3.08-3-6.31-4.74-9.32a19.94,19.94,0,0,1-2.2-15.46,22.34,22.34,0,0,0,.66-8.28,21,21,0,0,1-.05-2.1,8.66,8.66,0,0,1,4.07-7.68A15.94,15.94,0,0,1,360.51,208c1.47.7,2.8,1.63,4.23,2.43.68.39,1.92-.36,2.08-1.16a7.76,7.76,0,0,0-1.12-6,19.55,19.55,0,0,0-7.16-6.52,26.36,26.36,0,0,0-5.78-2.41,13.52,13.52,0,0,0-9.51.87,19.08,19.08,0,0,0-9.7,9.54c-1.14,2.55-2.25,5.12-3.49,7.63A5,5,0,0,1,327,215a32.26,32.26,0,0,1-3.35.94c-3.42.57-5.94,2.54-8.2,5a7.36,7.36,0,0,0-1.87,4.4c-.42,4.06,1.3,7,5.47,8.72,1.94.8,4.05,1.09,6,1.7a12.09,12.09,0,0,1,8,7.29c.89,2.14,1.55,4.38,2.39,6.54,1.62,4.14,2.94,9.11,7.64,10.44,2.08.59,3.71,4.29,3.47,5.81-.22,1.28-1.84.82-2.69.62-5.85-1.5-38-9-43.87-10.45-8.63-2.1-25.27-17.18-28.48-35.23-3.88-21.87,8.49-64.67,37.68-64.09,19.39.39,25.3,12.05,32.23,11.46,8.1-.68,27.53-17.13,30.48-54.29.15-1.9-.92-11.48-1.17-14.5-.41-5.08.64-9.59,4.13-13.55,3.23-3.69,30.14-21.33,33.4-23.6.78-.56,1.88-1.39,2.76-.49,3.31,3.39,2.84,9.13,3.92,13.89a98.83,98.83,0,0,1,2.77,20.74c.07,5.06-1.37,4-1.57,3.83-1.55-1-2.92-2.31-4.53-3.21A6.34,6.34,0,0,0,403,99.14c-.64.91-1.17,2-1.79,3-2.36-1.59-3.66-3.81-5-6A46.79,46.79,0,0,0,391,89.71c-1.37-1-4.12-1.19-4.12,3,0,5,1.67,10,5.64,13.23,4.24,3.48,12.66,9.54,20.74,9.77,2.55.07,5.12.09,7.66.09s5.12,0,7.67-.09c8.08-.23,16.5-6.29,20.74-9.77,4-3.24,5.63-8.27,5.64-13.23,0-4.15-2.75-4-4.13-3a47.53,47.53,0,0,0-5.13,6.44c-1.39,2.16-2.69,4.38-5.05,6-.62-1-1.15-2.07-1.8-3A6.33,6.33,0,0,0,430.31,97c-1.61.9-3,2.18-4.53,3.21-.2.14-1.65,1.23-1.57-3.83A99.48,99.48,0,0,1,427,75.62c1.09-4.76.62-10.5,3.93-13.89.88-.9,2-.07,2.76.49,3.26,2.27,30.17,19.91,33.4,23.6,3.49,4,4.54,8.47,4.13,13.55-.25,3-1.32,12.6-1.17,14.5,3,37.16,22.38,53.61,30.48,54.29,6.93.59,12.83-11.07,32.23-11.46,29.19-.58,41.56,42.22,37.68,64.09-3.21,18.05-19.85,33.13-28.48,35.23-5.88,1.45-38,9-43.87,10.45-.85.2-2.48.66-2.69-.62-.24-1.52,1.39-5.22,3.46-5.81,4.71-1.33,6-6.3,7.65-10.44.84-2.16,1.5-4.4,2.39-6.54a12.12,12.12,0,0,1,8-7.29c2-.61,4.11-.9,6-1.7,4.19-1.75,5.9-4.66,5.49-8.72a7.36,7.36,0,0,0-1.87-4.4c-2.26-2.44-4.78-4.41-8.2-5a32.26,32.26,0,0,1-3.35-.94,5,5,0,0,1-3.09-2.66c-1.25-2.51-2.35-5.08-3.49-7.63a19.06,19.06,0,0,0-9.71-9.54,13.49,13.49,0,0,0-9.5-.87,26.16,26.16,0,0,0-5.78,2.41,19.55,19.55,0,0,0-7.16,6.52,7.68,7.68,0,0,0-1.12,6c.16.8,1.4,1.55,2.08,1.16,1.43-.8,2.76-1.73,4.23-2.43a15.94,15.94,0,0,1,16.54,1.31A8.66,8.66,0,0,1,502,217a21,21,0,0,1-.05,2.1,21.73,21.73,0,0,0,.66,8.28,19.94,19.94,0,0,1-2.2,15.46c-1.75,3-3.08,6.24-4.76,9.32-3.07,5.71-5.85,11.61-9.77,16.84-9.42,4-28.67,12.64-30.1,12.64-1.9,0-7.47-9-10.95-12.46a135.47,135.47,0,0,0-13.62-12,11.47,11.47,0,0,1-4.64-8.24c-.8-6.93-1.92-13.84-2.87-20.74a17.69,17.69,0,0,1-.18-3.49,10.79,10.79,0,0,1,4.8-8.83,6.29,6.29,0,0,1,9.43,2.52,14,14,0,0,1,1,3.31c.18,1.14.16,2.32.27,3.48a2.6,2.6,0,0,0,2.55,1.93,10.6,10.6,0,0,0,6-1.63c1.4-.85,2.61-1.94,3.93-2.92,4.4-3.23,5.85-7.65,5.11-12.91a23,23,0,0,0-2.64-8.63c-1.74-2.91-2.94-5.8-1.24-9.15a2,2,0,0,0,.09-.66,5.25,5.25,0,0,0-2.89-5.83c-1-.55-2.11-.95-3.14-1.45a7.64,7.64,0,0,0-6.74-.14c-1.27.57-2.57,1.06-3.89,1.54-.73.28-1.83-.71-1.85-1.56a12.05,12.05,0,0,1,1.19-5.4,14.64,14.64,0,0,0,1.63-5.31c.44-6.76.55-13.52-1.61-20.06a21.9,21.9,0,0,1-1.21-6.81,15.71,15.71,0,0,0-.39-2.75c-.5-2.51-2.8-3.35-4.66-1.71-.87.76-1.67,1.61-2.6,2.3-.22.18-.82-.09-1.25-.16a60.38,60.38,0,0,1-2.3-13c-.27-3-.85-6-1.37-8.93,0-.19-.37-.33-.72-.45-.34.12-.69.26-.71.45-.52,3-1.1,5.92-1.37,8.93a61,61,0,0,1-2.3,13c-.43.07-1,.34-1.25.16-.93-.69-1.73-1.54-2.6-2.3-1.86-1.64-4.16-.8-4.66,1.71a15.71,15.71,0,0,0-.39,2.75,21.9,21.9,0,0,1-1.21,6.81c-2.16,6.54-2.05,13.3-1.61,20.06a14.64,14.64,0,0,0,1.63,5.31,12.05,12.05,0,0,1,1.19,5.4c0,.85-1.12,1.84-1.86,1.56-1.31-.48-2.61-1-3.88-1.54a7.64,7.64,0,0,0-6.74.14c-1,.5-2.14.9-3.14,1.45a5.25,5.25,0,0,0-2.89,5.83,2,2,0,0,0,.09.66c1.69,3.35.5,6.24-1.25,9.15a23.21,23.21,0,0,0-2.63,8.63c-.74,5.26.71,9.68,5.11,12.91,1.32,1,2.53,2.07,3.93,2.92a10.6,10.6,0,0,0,6,1.63,2.59,2.59,0,0,0,2.54-1.93c.11-1.16.09-2.34.28-3.48a14,14,0,0,1,1-3.31,6.29,6.29,0,0,1,9.43-2.52,10.79,10.79,0,0,1,4.8,8.83,17.69,17.69,0,0,1-.18,3.49c-.95,6.9-2.07,13.81-2.87,20.74a11.5,11.5,0,0,1-4.64,8.24,136.8,136.8,0,0,0-13.64,12c-3.46,3.44-9,12.44-10.93,12.46C384.69,281.63,365.44,273,356,269Zm22.82,70A134.37,134.37,0,0,1,385,311.85a121.22,121.22,0,0,1,5.67-13.49,3.3,3.3,0,0,1,2-1.77,17.09,17.09,0,0,1,6.29,4.31,71,71,0,0,1,16.57,25.54,5,5,0,0,1,.05.85c-1.8,1.29-3.75,2.54-5.51,4a5.56,5.56,0,0,0-1.41,6.38,4.17,4.17,0,0,0,3.61,2.86c1.6.16,3.24.37,4.84.62a2.21,2.21,0,0,1,1.43,2.76,11.73,11.73,0,0,1-1,2.57c-2,3.09-4.15,6.15-6.29,9.2a20,20,0,0,1-1.32,1.6,10.19,10.19,0,0,1-4.53,3.09,17.58,17.58,0,0,0-7.59,4.8,6.82,6.82,0,0,0-1.91,5.08,28,28,0,0,0,3.83,12.57c2.5,4.44,5.1,8.85,7.62,13.28a14.8,14.8,0,0,1,.76,1.88c-.53,1.83-2.28,2.25-3.42,3.31-2,1.88-4.4,1.55-6.47.34a33.79,33.79,0,0,1-6.05-4.65,37.27,37.27,0,0,1-8.65-13.38,66.85,66.85,0,0,1-3.12-10C377.58,362.16,377.47,350.65,378.84,339Zm-62.62,28.39a1.47,1.47,0,0,1,1.94,1.16c.09,2-.28,2.6-1.78,3.12a.87.87,0,0,1-1.14-.39A2.63,2.63,0,0,1,316.22,367.38Zm-32.29,10.13c2.49-.2,5.79,1.47,7.74,3.26-.8,2.3-5.82,7.55-8.3,8.22-.66-2.69-1.26-4.89-1.78-7.12C281.38,380.91,282.2,377.65,283.93,377.51Zm16.53,43.43c-.22.19-10.77,6-13.94,11-.63-.19-8.83-8.24-13.47-11,4.64-2.77,12.84-10.82,13.47-11C289.69,414.93,300.24,420.76,300.46,420.94Zm-126-97.48a8.43,8.43,0,0,1,10.77-1.32c1.3.91,4.79,2.76,5.17,2.55a14,14,0,0,1,11.45-.91c5.95,1.93,12,3.83,17.33,7.08.73.45.55,1.48-.34,1.25-16.38-1.89-34.65,1.53-41.35,5.37a51,51,0,0,1-3.51-3.75A8.25,8.25,0,0,1,174.48,323.46ZM219.2,511c-5.37,3.25-11.38,5.15-17.33,7.08a14,14,0,0,1-11.45-.91c-.38-.21-3.87,1.64-5.17,2.55a8.43,8.43,0,0,1-10.77-1.32,8.25,8.25,0,0,1-.48-10.27,51,51,0,0,1,3.51-3.75c6.7,3.84,25,7.26,41.35,5.37C219.75,509.55,219.93,510.58,219.2,511Zm56.1-63c-5.92,18.49-22.06,40.83-49.24,49.82-9.61,3.19-19.39,4.44-29.56,2.39a49,49,0,0,1-26.08-13.79c-1.31-1.33-2.43-2.85-3.83-4.06a13.47,13.47,0,0,1-3.6-5.07c-6.18-13.69-6.15-27.49-.46-41.29a30.37,30.37,0,0,1,8.1-11.27,4.74,4.74,0,0,1,3-1.61q3.44,1.53,6.92,3c-.23,2.11-1.76,3.33-2.59,4.91-7.86,15,4.23,28,20.92,14.85,1.18-.93,3.37,1.14,3.4,2.69a19.77,19.77,0,0,1-2.71,10c-1.33,2.46-2.72,4.87-4.1,7.3-.28.48.34,1.56.89,1.54A24.8,24.8,0,0,0,218.19,453c2.34-5.35,1.48-14.44,2.08-16.44.51-1.63,2.35-.86,3-.64,5.48,1.62,11.06,1,16.64.78a2.38,2.38,0,0,0,1.88-1.82c.16-1.85-1.67-7,1.14-8.86,5.74-3.84,8-4.52,9.64-5.07-1.65-.54-3.9-1.22-9.64-5.06-2.81-1.89-1-7-1.14-8.86a2.38,2.38,0,0,0-1.88-1.82c-5.58-.27-11.16-.84-16.64.78-.64.22-2.48,1-3-.64-.6-2,.26-11.09-2.08-16.45a24.8,24.8,0,0,0-21.82-14.41c-.55,0-1.17,1.06-.89,1.54,1.38,2.43,2.77,4.84,4.1,7.3a19.77,19.77,0,0,1,2.71,10c0,1.55-2.22,3.62-3.4,2.69-16.69-13.11-28.78-.15-20.92,14.85.83,1.58,2.36,2.8,2.59,4.91q-3.48,1.51-6.92,3.05a4.74,4.74,0,0,1-3-1.61,30.37,30.37,0,0,1-8.1-11.27c-5.69-13.8-5.72-27.6.46-41.29a13.47,13.47,0,0,1,3.6-5.07c1.4-1.21,2.52-2.73,3.83-4.06A49,49,0,0,1,196.5,341.7c10.17-2.05,19.95-.8,29.56,2.39,27.18,9,43.32,31.33,49.24,49.82.57,1.77.91,3.59,1.26,4.92a3.28,3.28,0,0,1-1.9,2.45c-1.91,1.33-23.66.09-23.6,14.09,0,3.17,4.48,4.84,5.73,5.57-1.25.74-5.71,2.41-5.73,5.58-.06,14,21.69,12.76,23.6,14.09a3.28,3.28,0,0,1,1.9,2.45C276.21,444.39,275.87,446.21,275.3,448Zm-98.54-27c.22-.44,3.55-1.83,4.78-2.33a3.13,3.13,0,0,1,3.94.84,1.9,1.9,0,0,1,0,3,3.13,3.13,0,0,1-3.94.84C180.31,422.78,177,421.38,176.76,420.94Zm26.89,0c0-.53.36-6.51,5.94-4.49,3.94,1.42,12.11,4.4,12.27,4.49-.16.1-8.33,3.08-12.27,4.5C204,427.46,203.69,421.48,203.65,420.94Zm80.28,43.44c-1.73-.14-2.55-3.4-2.34-4.36.52-2.23,1.12-4.43,1.78-7.12,2.48.67,7.5,5.92,8.3,8.22C289.72,462.91,286.42,464.58,283.93,464.38Zm34.23,9a1.47,1.47,0,0,1-1.94,1.16,2.63,2.63,0,0,1-1-3.89.87.87,0,0,1,1.14-.39C317.88,470.75,318.25,471.39,318.16,473.35ZM373,457.59c-22.93,8.91-45.93,3-51.27,1.53a74.94,74.94,0,0,1-18-7.41,35.06,35.06,0,0,1-11.84-10.62,4.05,4.05,0,0,1,0-5.16,25.56,25.56,0,0,1,11.49-8.74c4.8-1.79,9.73-3.1,14.94-2.82l3.48.09a1.61,1.61,0,0,0,1.2-2.53,8.62,8.62,0,0,0-.67-1,7.73,7.73,0,0,0,.67-1,1.61,1.61,0,0,0-1.2-2.53l-3.48.09c-5.21.28-10.14-1-14.94-2.82A25.56,25.56,0,0,1,291.91,406a4.05,4.05,0,0,1,0-5.16,35.2,35.2,0,0,1,11.84-10.63,74.91,74.91,0,0,1,18-7.4c5.34-1.5,28.34-7.38,51.27,1.53a11.39,11.39,0,0,1,6,5.58,44.14,44.14,0,0,0,5.92,8.58c.65.71.15,2.23-1,1.54-.78-.49-1.54-1-2.32-1.52a27.49,27.49,0,0,0-12.48-3.8c-3.7-.32-6.22,1.44-7.9,4.51a16.94,16.94,0,0,0-1.3,3.93,13.86,13.86,0,0,1-7.76,9.27c-4.54,2.26-9,4.63-13.53,7a22.68,22.68,0,0,0-2.28,1.58,21.25,21.25,0,0,0,2.28,1.59c4.49,2.34,9,4.71,13.53,7a13.86,13.86,0,0,1,7.76,9.27,16.94,16.94,0,0,0,1.3,3.93c1.68,3.07,4.2,4.83,7.9,4.51a27.49,27.49,0,0,0,12.48-3.8c.78-.48,1.54-1,2.32-1.52,1.11-.69,1.61.83,1,1.54A44.14,44.14,0,0,0,379,452,11.39,11.39,0,0,1,373,457.59Zm5.88,45.31c-1.37-11.66-1.26-23.17,1.5-34.67a66.85,66.85,0,0,1,3.12-10,37.27,37.27,0,0,1,8.65-13.38,33.79,33.79,0,0,1,6.05-4.65c2.07-1.21,4.43-1.54,6.47.34,1.14,1.06,2.89,1.48,3.42,3.31a14.8,14.8,0,0,1-.76,1.88c-2.52,4.42-5.12,8.84-7.62,13.28a28,28,0,0,0-3.83,12.57,6.82,6.82,0,0,0,1.91,5.08,17.58,17.58,0,0,0,7.59,4.8,10.19,10.19,0,0,1,4.53,3.09,20,20,0,0,1,1.32,1.6c2.14,3.05,4.25,6.11,6.29,9.2a11.73,11.73,0,0,1,1,2.57,2.21,2.21,0,0,1-1.43,2.76c-1.6.25-3.24.46-4.84.62a4.17,4.17,0,0,0-3.61,2.86,5.56,5.56,0,0,0,1.41,6.38c1.76,1.48,3.71,2.73,5.51,4a5,5,0,0,1-.05.85A71,71,0,0,1,398.94,541a17.09,17.09,0,0,1-6.29,4.31,3.3,3.3,0,0,1-2-1.77A121.22,121.22,0,0,1,385,530,134.37,134.37,0,0,1,378.84,502.9ZM265.55,605.23c-.15,0-.33,0-.38-.37-.43-4.91.52-9.7,1.64-14.45a8.53,8.53,0,0,1,3.6-5c.94-.66,2-1.19,3-1.8a2.38,2.38,0,0,0,1.16-2.94c-.29-1.13-.68-2.23-.95-3.35a10.81,10.81,0,0,1,1-7.44,5.73,5.73,0,0,1,5.59-3.39,7.13,7.13,0,0,1,5.53,2.55,25.18,25.18,0,0,1,3.72,5.89c-.6.73-5.66,6.11-7.66,8.06a72.24,72.24,0,0,0-14.16,19.7C267.2,603.54,266.4,605.39,265.55,605.23ZM421.29,793.94s-.17.07-.35.07-.32,0-.34-.07c-1.33-2.41-3.69-4.58-3.86-7.25-.23-3.89,4.15-10.62,4.2-10.6s4.44,6.71,4.2,10.6C425,789.36,422.62,791.53,421.29,793.94ZM556.18,569.05a7.12,7.12,0,0,1,5.52-2.55,5.74,5.74,0,0,1,5.6,3.39,10.81,10.81,0,0,1,1,7.44c-.27,1.12-.67,2.22-.95,3.35a2.37,2.37,0,0,0,1.16,2.94c1,.61,2,1.14,3,1.8a8.53,8.53,0,0,1,3.6,5c1.12,4.75,2.07,9.54,1.62,14.45,0,.38-.23.35-.36.37-.85.16-1.65-1.69-2.06-2.53A72.67,72.67,0,0,0,560.12,583c-2-2-7.06-7.33-7.67-8.06A25.55,25.55,0,0,1,556.18,569.05Zm-70.31,3.85c3.92,5.23,6.7,11.13,9.77,16.84,1.68,3.08,3,6.31,4.76,9.32a19.94,19.94,0,0,1,2.2,15.46,21.73,21.73,0,0,0-.66,8.28,21,21,0,0,1,.05,2.1,8.66,8.66,0,0,1-4.07,7.68,16,16,0,0,1-16.54,1.31c-1.47-.7-2.8-1.63-4.23-2.43-.68-.39-1.92.36-2.08,1.16a7.68,7.68,0,0,0,1.12,6,19.55,19.55,0,0,0,7.16,6.52,26.16,26.16,0,0,0,5.78,2.41,13.49,13.49,0,0,0,9.5-.87,19.06,19.06,0,0,0,9.71-9.54c1.14-2.55,2.24-5.12,3.49-7.63a5,5,0,0,1,3.09-2.66,32.26,32.26,0,0,1,3.35-.94c3.42-.57,5.94-2.54,8.2-5a7.36,7.36,0,0,0,1.87-4.4c.41-4.06-1.3-7-5.49-8.72-1.92-.8-4-1.09-6-1.7a12.12,12.12,0,0,1-8-7.29c-.89-2.14-1.55-4.38-2.39-6.54-1.64-4.14-2.94-9.11-7.65-10.44-2.07-.59-3.7-4.29-3.46-5.81.21-1.28,1.84-.82,2.69-.62,5.85,1.5,38,9,43.87,10.45,8.63,2.1,25.27,17.18,28.48,35.23,3.88,21.87-8.49,64.67-37.68,64.09-19.4-.39-25.3-12.05-32.23-11.46C492.4,674.41,473,690.86,470,728c-.15,1.9.92,11.48,1.17,14.5.41,5.08-.64,9.59-4.13,13.55-3.23,3.69-30.14,21.33-33.4,23.6-.79.56-1.88,1.39-2.76.49-3.31-3.39-2.84-9.13-3.93-13.89a99.48,99.48,0,0,1-2.76-20.74c-.08-5.06,1.37-4,1.57-3.83,1.55,1,2.92,2.31,4.53,3.21a6.33,6.33,0,0,0,8.57-2.16c.65-.91,1.18-2,1.8-3,2.36,1.59,3.66,3.81,5.05,6a47.53,47.53,0,0,0,5.13,6.44c1.38,1,4.13,1.19,4.13-3,0-5-1.68-10-5.64-13.23-4.24-3.48-12.66-9.54-20.74-9.77-2.55-.07-5.12-.09-7.67-.09s-5.11,0-7.66.09c-8.08.23-16.5,6.29-20.74,9.77-4,3.24-5.63,8.27-5.64,13.23,0,4.15,2.75,4,4.12,3a46.79,46.79,0,0,0,5.14-6.44c1.39-2.16,2.69-4.38,5-6,.62,1,1.15,2.07,1.79,3a6.34,6.34,0,0,0,8.58,2.16c1.61-.9,3-2.18,4.53-3.21.2-.14,1.64-1.23,1.57,3.83a98.83,98.83,0,0,1-2.77,20.74c-1.08,4.76-.61,10.5-3.92,13.89-.88.9-2,.07-2.76-.49-3.26-2.27-30.17-19.91-33.4-23.6-3.49-4-4.54-8.47-4.13-13.55.25-3,1.32-12.6,1.17-14.5-2.95-37.16-22.38-53.61-30.48-54.29-6.93-.59-12.84,11.07-32.23,11.46C280,685.77,267.6,643,271.48,621.1c3.21-18.05,19.85-33.13,28.48-35.23,5.88-1.45,38-9,43.87-10.45.85-.2,2.47-.66,2.69.62.24,1.52-1.39,5.22-3.47,5.81-4.7,1.33-6,6.3-7.64,10.44-.84,2.16-1.5,4.4-2.39,6.54a12.09,12.09,0,0,1-8,7.29c-2,.61-4.1.9-6,1.7-4.17,1.75-5.89,4.66-5.47,8.72a7.36,7.36,0,0,0,1.87,4.4c2.26,2.44,4.78,4.41,8.2,5a32.26,32.26,0,0,1,3.35.94,5,5,0,0,1,3.09,2.66c1.24,2.51,2.35,5.08,3.49,7.63a19.08,19.08,0,0,0,9.7,9.54,13.52,13.52,0,0,0,9.51.87,26.36,26.36,0,0,0,5.78-2.41,19.55,19.55,0,0,0,7.16-6.52,7.76,7.76,0,0,0,1.12-6c-.16-.8-1.4-1.55-2.08-1.16-1.43.8-2.76,1.73-4.23,2.43A16,16,0,0,1,344,632.58a8.66,8.66,0,0,1-4.07-7.68,21,21,0,0,1,.05-2.1,22.34,22.34,0,0,0-.66-8.28,19.94,19.94,0,0,1,2.2-15.46c1.74-3,3.08-6.24,4.74-9.32,3.09-5.71,5.85-11.61,9.79-16.84,9.42-4,28.67-12.64,30.1-12.64,1.9,0,7.47,9,10.93,12.46a136.8,136.8,0,0,0,13.64,12,11.5,11.5,0,0,1,4.64,8.24c.8,6.93,1.92,13.84,2.87,20.74a17.69,17.69,0,0,1,.18,3.49,10.79,10.79,0,0,1-4.8,8.83,6.29,6.29,0,0,1-9.43-2.52,14,14,0,0,1-1-3.31c-.19-1.14-.17-2.32-.28-3.48a2.59,2.59,0,0,0-2.54-1.93,10.6,10.6,0,0,0-6,1.63c-1.4.85-2.61,1.94-3.93,2.92-4.4,3.23-5.85,7.65-5.11,12.91a23.21,23.21,0,0,0,2.63,8.63c1.75,2.91,2.94,5.8,1.25,9.15a2,2,0,0,0-.09.66,5.25,5.25,0,0,0,2.89,5.83c1,.55,2.1.95,3.14,1.45a7.64,7.64,0,0,0,6.74.14c1.27-.57,2.57-1.06,3.88-1.54.74-.28,1.84.71,1.86,1.56a12.05,12.05,0,0,1-1.19,5.4,14.64,14.64,0,0,0-1.63,5.31c-.44,6.76-.55,13.52,1.61,20.06a21.9,21.9,0,0,1,1.21,6.81,15.71,15.71,0,0,0,.39,2.75c.5,2.51,2.8,3.35,4.66,1.71.87-.76,1.67-1.61,2.6-2.3.22-.18.82.09,1.25.16a61,61,0,0,1,2.3,13c.27,3,.85,6,1.37,8.93,0,.19.37.33.71.45.35-.12.7-.26.72-.45.52-3,1.1-5.92,1.37-8.93a60.38,60.38,0,0,1,2.3-13c.43-.07,1-.34,1.25-.16.93.69,1.73,1.54,2.6,2.3,1.86,1.64,4.16.8,4.66-1.71a15.71,15.71,0,0,0,.39-2.75,21.9,21.9,0,0,1,1.21-6.81c2.16-6.54,2.05-13.3,1.61-20.06a14.64,14.64,0,0,0-1.63-5.31,12.05,12.05,0,0,1-1.19-5.4c0-.85,1.12-1.84,1.85-1.56,1.32.48,2.62,1,3.89,1.54a7.64,7.64,0,0,0,6.74-.14c1-.5,2.14-.9,3.14-1.45a5.25,5.25,0,0,0,2.89-5.83,2,2,0,0,0-.09-.66c-1.7-3.35-.5-6.24,1.24-9.15a23,23,0,0,0,2.64-8.63c.74-5.26-.71-9.68-5.11-12.91-1.32-1-2.53-2.07-3.93-2.92a10.6,10.6,0,0,0-6-1.63,2.6,2.6,0,0,0-2.55,1.93c-.11,1.16-.09,2.34-.27,3.48a14,14,0,0,1-1,3.31,6.29,6.29,0,0,1-9.43,2.52,10.79,10.79,0,0,1-4.8-8.83,17.69,17.69,0,0,1,.18-3.49c.95-6.9,2.07-13.81,2.87-20.74a11.47,11.47,0,0,1,4.64-8.24,135.47,135.47,0,0,0,13.62-12c3.48-3.44,9.05-12.44,10.95-12.46C457.2,560.26,476.45,568.86,485.87,572.9Zm-22.82-70A133.73,133.73,0,0,1,456.91,530a117.43,117.43,0,0,1-5.65,13.49,3.33,3.33,0,0,1-2,1.77A17,17,0,0,1,443,541a70.88,70.88,0,0,1-16.57-25.54,5,5,0,0,1-.05-.85c1.8-1.29,3.74-2.54,5.51-4a5.56,5.56,0,0,0,1.41-6.38,4.17,4.17,0,0,0-3.61-2.86c-1.6-.16-3.24-.37-4.84-.62a2.21,2.21,0,0,1-1.43-2.76,11.26,11.26,0,0,1,1-2.57c2-3.09,4.15-6.15,6.29-9.2a20,20,0,0,1,1.32-1.6,10.19,10.19,0,0,1,4.53-3.09,17.7,17.7,0,0,0,7.59-4.8,6.82,6.82,0,0,0,1.91-5.08,28,28,0,0,0-3.83-12.57c-2.5-4.44-5.1-8.86-7.62-13.28a14.8,14.8,0,0,1-.76-1.88c.53-1.83,2.28-2.25,3.42-3.31,2-1.88,4.4-1.55,6.47-.34a34.52,34.52,0,0,1,6,4.65,37.4,37.4,0,0,1,8.65,13.38,68,68,0,0,1,3.12,10C464.31,479.73,464.42,491.24,463.05,502.9Zm62.6-28.39a1.46,1.46,0,0,1-1.92-1.16c-.09-2,.28-2.6,1.76-3.12a.88.88,0,0,1,1.16.39A2.62,2.62,0,0,1,525.65,474.51Zm12.52-22.8a74.94,74.94,0,0,1-18,7.41c-5.35,1.5-28.34,7.38-51.29-1.53a11.44,11.44,0,0,1-6-5.58,43.28,43.28,0,0,0-5.92-8.58c-.64-.71-.16-2.23,1-1.54.78.49,1.54,1,2.32,1.52a27.49,27.49,0,0,0,12.48,3.8c3.7.32,6.22-1.44,7.89-4.51a16.51,16.51,0,0,0,1.31-3.93,13.87,13.87,0,0,1,7.75-9.27c4.55-2.26,9-4.63,13.54-7a22.3,22.3,0,0,0,2.28-1.59,23.88,23.88,0,0,0-2.28-1.58c-4.5-2.34-9-4.71-13.54-7a13.87,13.87,0,0,1-7.75-9.27,16.51,16.51,0,0,0-1.31-3.93c-1.67-3.07-4.19-4.83-7.89-4.51a27.49,27.49,0,0,0-12.48,3.8c-.78.48-1.54,1-2.32,1.52-1.13.69-1.61-.83-1-1.54a43.28,43.28,0,0,0,5.92-8.58,11.44,11.44,0,0,1,6-5.58c22.95-8.91,45.94-3,51.29-1.53a74.91,74.91,0,0,1,18,7.4A35.2,35.2,0,0,1,550,400.8a4.05,4.05,0,0,1,0,5.16,25.56,25.56,0,0,1-11.49,8.74c-4.8,1.79-9.74,3.1-14.94,2.82l-3.48-.09a1.61,1.61,0,0,0-1.2,2.53,8.85,8.85,0,0,0,.66,1,10,10,0,0,0-.66,1,1.61,1.61,0,0,0,1.2,2.53l3.48-.09c5.2-.28,10.14,1,14.94,2.82A25.56,25.56,0,0,1,550,435.93a4.05,4.05,0,0,1,0,5.16A35.06,35.06,0,0,1,538.17,451.71ZM558,464.38c-2.49.2-5.78-1.47-7.74-3.26.81-2.3,5.83-7.55,8.3-8.22.67,2.69,1.27,4.89,1.79,7.12C560.51,461,559.69,464.24,558,464.38Zm109.46,54a8.43,8.43,0,0,1-10.77,1.32c-1.3-.91-4.79-2.76-5.19-2.55a14,14,0,0,1-11.44.91c-5.94-1.93-12-3.83-17.32-7.08-.73-.45-.55-1.48.34-1.25,16.38,1.89,34.65-1.53,41.35-5.37a51,51,0,0,1,3.51,3.75A8.25,8.25,0,0,1,667.41,518.43Zm11.49-41.16a13.39,13.39,0,0,1-3.61,5.07c-1.39,1.21-2.51,2.73-3.83,4.06a48.87,48.87,0,0,1-26.09,13.79c-10.16,2.05-19.93.8-29.54-2.39-27.2-9-43.32-31.33-49.24-49.82-.57-1.77-.91-3.59-1.26-4.92a3.28,3.28,0,0,1,1.9-2.45c1.91-1.33,23.66-.09,23.6-14.09,0-3.17-4.48-4.84-5.73-5.58,1.25-.73,5.71-2.4,5.73-5.57.06-14-21.69-12.76-23.6-14.09a3.28,3.28,0,0,1-1.9-2.45c.35-1.33.69-3.15,1.26-4.92,5.92-18.49,22-40.83,49.24-49.82,9.61-3.19,19.38-4.44,29.54-2.39a48.87,48.87,0,0,1,26.09,13.79c1.32,1.33,2.44,2.85,3.83,4.06a13.39,13.39,0,0,1,3.61,5.07c6.18,13.69,6.15,27.49.46,41.29a30.37,30.37,0,0,1-8.1,11.27,4.74,4.74,0,0,1-3,1.61q-3.43-1.53-6.92-3.05c.23-2.11,1.76-3.33,2.59-4.91,7.85-15-4.23-28-20.92-14.85-1.18.93-3.37-1.14-3.4-2.69a19.76,19.76,0,0,1,2.7-10c1.34-2.46,2.73-4.87,4.11-7.3.28-.48-.34-1.56-.89-1.54a24.8,24.8,0,0,0-21.82,14.41c-2.34,5.36-1.48,14.45-2.08,16.45-.51,1.63-2.35.86-3,.64-5.48-1.62-11.06-1.05-16.64-.78a2.38,2.38,0,0,0-1.88,1.82c-.16,1.85,1.67,7-1.14,8.86-5.74,3.84-8,4.52-9.64,5.06,1.65.55,3.9,1.23,9.64,5.07,2.81,1.89,1,7,1.14,8.86a2.38,2.38,0,0,0,1.88,1.82c5.58.27,11.16.84,16.64-.78.64-.22,2.48-1,3,.64.6,2-.26,11.09,2.08,16.44a24.8,24.8,0,0,0,21.82,14.42c.55,0,1.17-1.06.89-1.54-1.38-2.43-2.77-4.84-4.11-7.3a19.76,19.76,0,0,1-2.7-10c0-1.55,2.22-3.62,3.4-2.69,16.69,13.11,28.77.15,20.92-14.85-.83-1.58-2.36-2.8-2.59-4.91q3.48-1.51,6.92-3a4.74,4.74,0,0,1,3,1.61,30.37,30.37,0,0,1,8.1,11.27C685.05,449.78,685.08,463.58,678.9,477.27Zm-13.77-56.33c-.22.44-3.55,1.84-4.8,2.34a3.1,3.1,0,0,1-3.92-.84,1.9,1.9,0,0,1,0-3,3.1,3.1,0,0,1,3.92-.84C661.58,419.11,664.91,420.5,665.13,420.94Zm-26.89,0c0,.54-.36,6.52-5.94,4.5-3.94-1.42-12.11-4.4-12.27-4.5.16-.09,8.33-3.07,12.27-4.49C637.88,414.43,638.2,420.41,638.24,420.94Z"/>
</svg>
