<svg id="Livello_1" data-name="Livello 1" xmlns="http://www.w3.org/2000/svg" viewBox="0 0 841.89 841.89">
  <title>Glos</title>
  <g>
    <g>
      <path d="M485.38,201.56c-7.91,98.86-64.44,391.14-64.44,391.14S366.8,300.22,359.47,201.56c-3.21-43.23,28.18-78.62,62.95-78.62S488.84,158.36,485.38,201.56Z"/>
      <path d="M344.74,237.53c24.06,87.22,66.79,355.41,66.79,355.41S273.86,359.1,236.8,276.82c-16.24-36.06-.37-76.19,29.44-87S334.22,199.42,344.74,237.53Z"/>
      <path d="M236.5,313.12C283.62,379.37,402.13,592.7,402.13,592.7S214,437.56,157.43,379.47c-24.8-25.46-23.73-64.23-1.89-82.55S215.9,284.17,236.5,313.12Z"/>
      <path d="M173,412.49C231.53,452.83,392.73,592.7,392.73,592.7s-201-71.23-264.87-102c-28-13.5-38.7-45.68-26.24-67.27S147.41,394.86,173,412.49Z"/>
      <path d="M143.09,508.36c61.66,16,240.24,84.39,240.24,84.39S192.27,594.38,129.05,588c-27.71-2.79-46.59-26.6-42.71-48.6S116.15,501.35,143.09,508.36Z"/>
      <path d="M497.15,237.29c-24.06,87.22-66.79,355.41-66.79,355.41S568,358.86,605.09,276.58c16.24-36.06.37-76.19-29.44-87S507.67,199.18,497.15,237.29Z"/>
      <path d="M605.39,312.88c-47.12,66.25-165.63,279.58-165.63,279.58s188.11-155.14,244.7-213.23c24.8-25.46,23.73-64.23,1.89-82.55S626,283.93,605.39,312.88Z"/>
      <path d="M668.9,412.25c-58.54,40.34-219.74,180.21-219.74,180.21s201-71.23,264.87-102c28-13.5,38.7-45.68,26.24-67.27S694.48,394.62,668.9,412.25Z"/>
      <path d="M698.8,508.12c-61.66,16-240.24,84.39-240.24,84.39s191.06,1.63,254.28-4.74c27.71-2.79,46.59-26.6,42.71-48.59S725.74,501.11,698.8,508.12Z"/>
    </g>
    <path d="M534.48,604.79c3.25,3.43,20.5,20.29,26.72,25.51a191.17,191.17,0,0,0,29.38,20.15c13.48,7.56,22,10.35,32.74,19.3,3,2.48,7.6,6.68,9.23,13.43.55,2.29,1.86,6.37,0,10.07s-5.5,5-6.95,5.59c-27,10.57-175.48,20.1-209.43,20.1-30,0-172.91-9.53-199.88-20.1-1.45-.57-5.17-2-6.95-5.59s-.55-7.78,0-10.07c1.63-6.75,6.26-10.95,9.23-13.43,10.73-9,19.26-11.74,32.74-19.3a191.17,191.17,0,0,0,29.38-20.15c6.22-5.22,23.47-22.08,26.72-25.51"/>
  </g>
</svg>
