<svg id="Livello_1" data-name="Livello 1" xmlns="http://www.w3.org/2000/svg" viewBox="0 0 841.89 841.89">
  <defs>
    <style>
      .cls-1 {
        fill: #231f20;
      }
    </style>
  </defs>
  <title>Glos</title>
  <path class="cls-1" d="M288.41,420.94c0,87.1-74,157.7-165.21,157.7-13.26,0-23.15-11.26-22-22.55,1.1-9.9,10.47-18.21,22-18.06,29-4.38,51.25-28.85,51.25-58.35a58,58,0,0,0-17.75-41.74,61.13,61.13,0,0,0-42.83-17.3c33.46,0,60.58-26.44,60.58-59,0-29-21.38-53-49.55-58.09-13.26,0-23.15-11.14-22-22.36,1.06-9.63,10.16-17.79,21.38-17.91C215.06,263.86,288.41,334.22,288.41,420.94Z"/>
  <path class="cls-1" d="M557.51,420.94c0,87.1,74,157.7,165.21,157.7,13.25,0,23.15-11.26,21.94-22.55-1.1-9.9-10.46-18.21-21.94-18.06-29.05-4.38-51.26-28.85-51.26-58.35a58,58,0,0,1,17.75-41.74,61.16,61.16,0,0,1,42.84-17.3c-33.47,0-60.59-26.44-60.59-59,0-29,21.38-53,49.56-58.09,13.25,0,23.15-11.14,21.94-22.36-1.06-9.63-10.16-17.79-21.38-17.91C630.86,263.86,557.51,334.22,557.51,420.94Z"/>
  <path class="cls-1" d="M423,555.5c87.1,0,157.69,74,157.69,165.2,0,13.26-11.26,23.16-22.55,21.95-9.9-1.1-18.21-10.46-18.05-21.95-4.39-29-28.86-51.25-58.36-51.25A58,58,0,0,0,440,687.2,61.12,61.12,0,0,0,422.66,730c0-33.46-26.44-60.58-59-60.58-29,0-53,21.38-58.09,49.55,0,13.26-11.14,23.16-22.36,22-9.63-1.06-17.79-10.16-17.9-21.38C265.87,628.85,336.24,555.5,423,555.5Z"/>
  <path class="cls-1" d="M423,286.39c87.1,0,157.69-73.95,157.69-165.2,0-13.26-11.26-23.16-22.55-22-9.9,1.1-18.21,10.46-18.05,22-4.39,29-28.86,51.25-58.36,51.25A58,58,0,0,1,440,154.69a61.12,61.12,0,0,1-17.29-42.83c0,33.46-26.44,60.58-59,60.58-29,0-53-21.38-58.09-49.55,0-13.26-11.14-23.16-22.36-22-9.63,1.06-17.79,10.16-17.9,21.38C265.87,213,336.24,286.39,423,286.39Z"/>
</svg>
