<svg id="Livello_1" data-name="Livello 1" xmlns="http://www.w3.org/2000/svg" viewBox="0 0 841.89 841.89">
  <title>Glos</title>
  <path d="M786,410.79c-17.24-7.75-17.83-24-18.92-38.44-1.1-15.35-4.9-28.57-13.23-41.51-13.81-21.34-14-49.69-6.72-84.18,2.7-13.16-7.53-20.61-18.71-12.94-13.08,9-28.5,17.76-34.42,9-10.82-16-40.85-14.47-51.67,4.46C634.55,260.91,626,275.52,609.55,277c-7.23.66-12.2,8.19-10.15,16.37,3.87,16.08-30.84,40.34-61.1,10.45v-.22h-.21c-29.89-30.25-5.63-65,10.45-61.09,8.18,2,15.71-2.92,16.36-10.15,1.39-16.45,16-25,29.82-32.82,18.93-10.81,20.46-40.84,4.46-51.66-8.77-5.92,0-21.34,9-34.42,7.68-11.18.15-21.41-12.93-18.71-34.56,7.24-62.84,7.09-84.18-6.72-12.94-8.33-26.16-12.13-41.58-13.3-14.33-1-30.62-1.61-38.37-18.85-1-2.27-4.24-3.51-10.16-3.51s-9.13,1.24-10.15,3.51C403,73.1,386.74,73.69,372.35,74.71c-15.35,1.17-28.57,5-41.51,13.3-21.34,13.81-49.69,14-84.26,6.72-13.08-2.7-20.53,7.53-12.93,18.71,9.06,13.08,17.83,28.5,9.06,34.42-16,10.82-14.54,40.85,4.46,51.66,13.74,7.82,28.35,16.37,29.81,32.82.66,7.23,8.19,12.13,16.37,10.15,16.08-3.87,40.34,30.84,10.45,61.09h-.22v.22c-30.25,29.89-65,5.63-61.09-10.45,2-8.18-2.92-15.71-10.15-16.37-16.45-1.46-25-16.07-32.82-29.81-10.81-18.93-40.85-20.46-51.73-4.46-5.85,8.77-21.27,0-34.35-9-11.18-7.67-21.41-.22-18.71,12.94,7.24,34.49,7.09,62.84-6.72,84.18-8.33,12.94-12.13,26.16-13.3,41.51-1,14.4-1.68,30.69-18.85,38.44-2.27,1-3.51,4.24-3.51,10.15s1.24,9.14,3.51,10.16c17.17,7.75,17.83,24,18.85,38.44,1.17,15.35,5,28.57,13.3,41.51,13.81,21.34,14,49.69,6.72,84.18-2.7,13.16,7.53,20.61,18.71,12.94,13.08-9,28.5-17.76,34.35-9,10.88,16,40.92,14.47,51.73-4.46,7.82-13.74,16.37-28.35,32.82-29.82,7.23-.65,12.13-8.18,10.15-16.36-3.87-16.08,30.84-40.34,61.09-10.45v.22h.22c29.89,30.25,5.63,65-10.45,61.09-8.18-2-15.71,2.92-16.37,10.15-1.46,16.45-16.07,25-29.81,32.82-19,10.81-20.46,40.85-4.46,51.66,8.77,5.92,0,21.34-9.06,34.42-7.6,11.18-.15,21.41,12.93,18.71,34.57-7.24,62.92-7.09,84.26,6.72,12.94,8.33,26.16,12.13,41.51,13.3,14.39,1,30.69,1.61,38.44,18.85,1,2.27,4.24,3.51,10.15,3.51s9.14-1.24,10.16-3.51c7.75-17.24,24-17.83,38.37-18.85,15.42-1.17,28.64-5,41.58-13.3,21.34-13.81,49.62-14,84.18-6.72,13.08,2.7,20.61-7.53,12.93-18.71-9-13.08-17.75-28.5-9-34.42,16-10.81,14.47-40.85-4.46-51.66-13.81-7.82-28.43-16.37-29.82-32.82-.65-7.23-8.18-12.13-16.36-10.15-16.08,3.87-40.34-30.84-10.45-61.09h.21v-.22c30.26-29.89,65-5.63,61.1,10.45-2,8.18,2.92,15.71,10.15,16.36,16.45,1.47,25,16.08,32.81,29.82,10.82,18.93,40.85,20.46,51.67,4.46,5.92-8.77,21.34,0,34.42,9,11.18,7.67,21.41.22,18.71-12.94-7.31-34.49-7.09-62.84,6.72-84.18,8.33-12.94,12.13-26.16,13.23-41.51,1.09-14.4,1.68-30.69,18.92-38.44,2.27-1,3.51-4.24,3.51-10.16S788.3,411.81,786,410.79ZM420.94,536.11A115.21,115.21,0,1,1,536.11,420.94,115.22,115.22,0,0,1,420.94,536.11Z"/>
</svg>
