<svg id="Livello_1" data-name="Livello 1" xmlns="http://www.w3.org/2000/svg" viewBox="0 0 841.89 841.89">
  <defs>
    <style>
      .cls-1 {
        fill: #030202;
      }
    </style>
  </defs>
  <title>Glos</title>
  <g>
    <path class="cls-1" d="M682,669c10.46,12.33,7.88,24.08-1.32,33.16-22.29,22-42.22,22-57.53,49.24-8.22,14.59-13.57,33.87-2.88,46.48,0,0-37.47,27.1-65.44,7.07,0,0-6.38-82.92,49.56-94.85,12.56-2.68,45.49-12.34,53.34-27.79,3.92-7.73-4.06-16.14-12.06-12.82-16.7,6.93-49.77,20.2-64.62,23-94.29,17.68-136.43-40.82-89.86-101.75l.16-.08c20.79-9.42,43.85-20.67,65.4-35.63,127.57-1.24,68.91-82.4,66.71-85.39a267.32,267.32,0,0,0,14.45-63.57l0-.12s98.88,80.93,43.17,151.43c-23.3,29.49-84.23,38.71-114.6,41.26-17.55,1.48-34,17.48-39.9,34.68-7.38,21.62,11.85,46.33,46.81,43.93C616,674.33,638,617.16,682,669Z"/>
    <path class="cls-1" d="M631.67,756.08c4-7.07,5.87-14,11-23.51,0,0,32.76-15.47,45.15-31.43,8-10.38,11.41-22.16.86-34.56-47.38-55.74-78.54.29-112.06,5.88-31.15,5.19-52-18.61-44.57-40.24,0,0,14.34,19.91,42.11,15.16S645.85,576,698,618.18C768.31,675.16,695.79,742.07,631.67,756.08Z"/>
    <path class="cls-1" d="M679.47,100.65c-11.29-8.26-25.05,6.51-25.05,6.51.75-33.88-48.17-100.6-97-68.76-39.74,35.64,3.51,59.42,3.51,59.42C553.54,108.55,502,117,475.37,81.7s-49.83-2.79-49.83-2.79v72.82S445.13,157,446,102.81c0,0,140.37,75.77,180.39-12.53a21.4,21.4,0,0,1,12.33,12.25l-8.49,43.41,34.87-17.8S683,143,684.62,149.41c0,0-84.43,36.71-59.93,148,3.83,23.66-16,44-27,44.69,0,0,.16,92,.12,122.62,0,13.89-15.68,123.62-172.25,120.19v49.35c0-15.66,28.8-26.55,65.24-43l2.11-1,.16-.08c20.59-9.32,43.4-20.45,64.77-35.2l.63-.43a221.43,221.43,0,0,0,30-24.7c14.39-14.27,26.85-34.35,36-58.79.24-.63.48-1.26.71-1.9a266.19,266.19,0,0,0,14.25-62c.07-.54.13-1.07.19-1.61l0-.12a340.82,340.82,0,0,0-2-86.18c-15.57-106,29.68-133.08,30.88-133.8h0s13.93,21.39,37.23,15.09,24.9-40.78,24.9-40.78S690.73,108.91,679.47,100.65Z"/>
    <g>
      <path class="cls-1" d="M159.92,668.55c-10.46,12.33-7.88,24.08,1.32,33.16,22.29,22,42.22,22,57.53,49.24,8.22,14.6,13.57,33.88,2.88,46.48,0,0,37.47,27.1,65.44,7.07,0,0,6.38-82.92-49.56-94.85C225,707,192,697.31,184.19,681.86c-3.92-7.72,4.06-16.14,12.06-12.82C213,676,246,689.24,260.87,692c94.29,17.68,136.43-40.82,89.86-101.75l-.16-.08c-20.79-9.41-43.85-20.67-65.4-35.63-127.57-1.24-68.91-82.4-66.72-85.39A267.7,267.7,0,0,1,204,405.59l0-.11S105.09,486.4,160.8,556.9c23.3,29.49,84.23,38.71,114.6,41.26,17.55,1.48,34,17.48,39.9,34.68,7.38,21.63-11.85,46.33-46.81,43.93C225.93,673.85,203.93,616.68,159.92,668.55Z"/>
      <path class="cls-1" d="M210.22,755.6c-4-7.07-5.87-14-11-23.5,0,0-32.76-15.48-45.15-31.44-8.05-10.38-11.41-22.16-.86-34.56,47.38-55.74,78.54.29,112.06,5.88,31.14,5.19,52-18.61,44.57-40.24,0,0-14.34,19.91-42.11,15.16S196,575.52,143.93,617.7C73.58,674.68,146.1,741.59,210.22,755.6Z"/>
      <path class="cls-1" d="M111.18,159.35s1.56,34.43,24.9,40.78S173.31,185,173.31,185h0c1.2.72,46.45,27.78,30.88,133.8a340.82,340.82,0,0,0-2,86.18l0,.12c.06.54.12,1.07.19,1.61a266.19,266.19,0,0,0,14.25,62c.23.64.47,1.27.71,1.9,9.19,24.44,21.65,44.52,36,58.79a221.43,221.43,0,0,0,30,24.7l.63.43c21.37,14.75,44.18,25.88,64.77,35.2l.16.08,2.11,1c36.44,16.43,65.24,27.32,65.24,43V584.39C259.78,587.82,244.1,478.09,244.1,464.2c0-30.64.12-122.62.12-122.62-11-.68-30.85-21-27-44.69,24.5-111.25-59.93-148-59.93-148,1.63-6.38,19.55-21.27,19.55-21.27l34.87,17.8-8.49-43.41A21.4,21.4,0,0,1,215.53,89.8c40,88.3,180.39,12.53,180.39,12.53.84,54.22,20.43,48.92,20.43,48.92V78.43s-23.22-32.49-49.83,2.79S288.35,108.07,281,97.34c0,0,43.25-23.78,3.51-59.42-48.88-31.84-97.8,34.88-97,68.76,0,0-13.76-14.77-25.05-6.51S111.18,159.35,111.18,159.35Z"/>
    </g>
  </g>
</svg>
