<svg id="Livello_1" data-name="Livello 1" xmlns="http://www.w3.org/2000/svg" viewBox="0 0 841.89 841.89">
  <defs>
    <style>
      .cls-1 {
        fill: #231f20;
      }
    </style>
  </defs>
  <title>Glos</title>
  <path class="cls-1" d="M785.11,415.09A152.68,152.68,0,0,0,722,208.9,154.89,154.89,0,0,0,531.55,71.63a152.64,152.64,0,0,0-215.65-3.7,150,150,0,0,0-35-4.05A154.69,154.69,0,0,0,126.47,206.56,152.68,152.68,0,0,0,56.21,410.41a155.22,155.22,0,0,0,73.41,223.12A152.61,152.61,0,0,0,301.85,763.24h.09a149.32,149.32,0,0,0,25.94,23.87,154.77,154.77,0,0,0,208.71-24.59A152.82,152.82,0,0,0,713.32,638.66,148.74,148.74,0,0,0,744,621.37C810,573.54,827,483.28,785.11,415.09ZM157.18,522.19A153,153,0,0,0,128,609.75a134.08,134.08,0,0,1-66.57-160.7,115.94,115.94,0,0,1,7.21-17.56A152.31,152.31,0,0,0,181.33,496,152.41,152.41,0,0,0,157.18,522.19ZM269.06,177.92a152.28,152.28,0,0,0,4.14,35.31,152.69,152.69,0,0,0-124.75-15.5A134.07,134.07,0,0,1,280.86,84.78a131,131,0,0,1,18.92,1.35A151.82,151.82,0,0,0,269.06,177.92Zm71.07,592.35A128.18,128.18,0,0,1,325.63,758a151.39,151.39,0,0,0,78.82-56.21,155.39,155.39,0,0,0,17.38-31,155.89,155.89,0,0,0,17.48,31,150.46,150.46,0,0,0,74.31,54.76A134,134,0,0,1,340.13,770.27ZM602.89,198.36a153.24,153.24,0,0,0-32.34,14.87A152.37,152.37,0,0,0,546.68,89.91,133.76,133.76,0,0,1,695,180.8a124,124,0,0,1,4.5,18.38A151.56,151.56,0,0,0,602.89,198.36Zm128.9,406.07a126.5,126.5,0,0,1-16.22,10.09,151.62,151.62,0,0,0-29.09-92.33A155.55,155.55,0,0,0,662.43,496a152.21,152.21,0,0,0,110-60.8A134,134,0,0,1,731.79,604.43Z"/>
</svg>
