<svg id="Livello_1" data-name="Livello 1" xmlns="http://www.w3.org/2000/svg" viewBox="0 0 841.89 841.89">
  <title>Glos</title>
  <g>
    <g>
      <path d="M499.34,154c-9.62,120.28-78.41,475.9-78.41,475.9S355.06,274.05,346.14,154c-3.9-52.6,34.3-95.65,76.6-95.65S503.55,101.45,499.34,154Z"/>
      <path d="M328.22,197.79c29.28,106.11,81.27,432.42,81.27,432.42S242,345.7,196.9,245.58c-19.77-43.87-.45-92.69,35.81-105.89S315.43,151.41,328.22,197.79Z"/>
      <path d="M196.53,289.75c57.33,80.61,201.52,340.17,201.52,340.17S169.17,441.16,100.32,370.48c-30.17-31-28.86-78.14-2.3-100.43S171.47,254.53,196.53,289.75Z"/>
      <path d="M119.26,410.65c71.23,49.09,267.35,219.27,267.35,219.27S142.07,543.26,64.35,505.77c-34.06-16.43-47.1-55.58-31.93-81.85S88.13,389.2,119.26,410.65Z"/>
      <path d="M82.88,527.3C157.9,546.81,375.17,630,375.17,630s-232.45,2-309.38-5.77c-33.71-3.39-56.68-32.36-52-59.12S50.1,518.78,82.88,527.3Z"/>
      <path d="M513.67,197.49C484.39,303.61,432.4,629.92,432.4,629.92S599.9,345.41,645,245.29c19.77-43.87.45-92.69-35.82-105.89S526.46,151.12,513.67,197.49Z"/>
      <path d="M645.36,289.46C588,370.06,443.84,629.62,443.84,629.62S672.72,440.86,741.57,370.18c30.17-31,28.86-78.13,2.3-100.42S670.42,254.23,645.36,289.46Z"/>
      <path d="M722.63,410.36C651.4,459.45,455.28,629.62,455.28,629.62S699.82,543,777.54,505.47c34.06-16.42,47.1-55.57,31.93-81.84S753.76,388.91,722.63,410.36Z"/>
      <path d="M759,527c-75,19.5-292.29,102.68-292.29,102.68s232.45,2,309.38-5.77c33.71-3.4,56.68-32.36,52-59.12S791.79,518.49,759,527Z"/>
    </g>
    <path d="M559.08,644.63c4,4.17,24.95,24.69,32.52,31a232.07,232.07,0,0,0,35.74,24.51c16.41,9.2,26.78,12.6,39.83,23.49,3.62,3,9.26,8.13,11.24,16.34.67,2.79,2.26,7.75,0,12.26-2.17,4.33-6.7,6.1-8.46,6.79-32.81,12.86-213.51,24.46-254.81,24.46-36.45,0-210.39-11.6-243.2-24.46-1.76-.69-6.29-2.46-8.46-6.79-2.26-4.51-.67-9.47,0-12.26,2-8.21,7.62-13.32,11.24-16.34,13.05-10.89,23.42-14.29,39.83-23.49a232.07,232.07,0,0,0,35.74-24.51c7.57-6.35,28.56-26.87,32.52-31"/>
  </g>
</svg>
