<svg id="Livello_1" data-name="Livello 1" xmlns="http://www.w3.org/2000/svg" viewBox="0 0 841.89 841.89">
  <title>Glos</title>
  <g>
    <path d="M664.36,183.45c-109.22,3.86-177.61-12.85-213.29-25.74a19.31,19.31,0,1,0-30.71-15.59c0,.63,0,1.2.09,1.83-.05-.09-.09-.09-.09-.09s0,0-.08.09c0-.63.08-1.2.08-1.83a19.34,19.34,0,0,0-38.67,0,19.1,19.1,0,0,0,8,15.59C354,170.6,285.57,187.31,176.36,183.45c0,0-62.43,506.61,244,535.63C726.78,690.06,664.36,183.45,664.36,183.45Zm-244,505.21C166,672.91,195,214.08,195,214.08l4.2,0c176.31-2.33,221.19-39.29,221.19-39.29s44.89,37,221.19,39.29l4.21,0S674.69,672.91,420.36,688.66Z"/>
    <path d="M162.67,350.75s-72.61-20-82.23-54.38c-6.22-22.19,10.15-30.58,19.72-29.59,9,1,12.73,16,28.85,22.46C138.3,293,160.84,298,160.84,298Z"/>
    <path d="M134.43,279.62c-7.58,3.73-11.89.29-23.21-12.94-15.75-18.36-33.39,4.25-33.39,4.25s5-11.73,12.34-19c19.75-19.72,42.44-10.78,49.36,4C145.54,268.84,139.41,277.21,134.43,279.62Z"/>
    <path d="M146.1,274.69c12.52-20.1-17.44-52.4-51-42.41C38.88,249.64,46.8,330.75,46.8,330.75,6.14,234.26,92.27,158.37,141.18,203.22,179.89,238.74,146.1,274.69,146.1,274.69Z"/>
    <path d="M139.31,421.73v.08C128.58,544.58,40.87,579,74.07,613.92c14.26,15,48.47,3.84,55.81,1.23C125,633,95.09,660.93,71.42,660.93c-28.06,0-58.9-22.76-58.19-68.89.33-23.71,4.72-55.21,52.35-95.45,49.57-41.87,7.71-84.81-8.79-157.88-16-71.16,29.72-94.58,32.21-95.78-28.52,21.47-19.52,65,1.57,79.83C118.3,340.9,140.85,402.75,139.31,421.73Z"/>
    <path d="M238.8,638.71s-33.61,4.77-42.61-12.64c0,0-6.46,20.85-32.82,30.71-4.89,1.7,16.62-26.73-7.13-50-7.28-7.13-14.08-4.77-17.37-2.84a49.68,49.68,0,0,1-9.7,4.28c-15.66,5.13-54.48,12.41-50.69-17.31,2.41-18.84,61.64-89.07,115.85-31.67,8.21,8.71,14.84,31.25,16.12,45.06C212.36,624.41,238.8,638.71,238.8,638.71Z"/>
    <path d="M679.22,351.21s72.61-20,82.23-54.38c6.22-22.19-10.15-30.58-19.72-29.59-9,.95-12.73,16-28.85,22.47-9.29,3.77-31.83,8.74-31.83,8.74Z"/>
    <path d="M707.46,280.08c7.58,3.73,11.89.29,23.21-12.93,15.75-18.36,33.39,4.25,33.39,4.25s-5-11.74-12.34-19c-19.75-19.72-42.44-10.78-49.36,4C696.35,269.3,702.48,277.67,707.46,280.08Z"/>
    <path d="M695.79,275.15c-12.52-20.1,17.44-52.4,51-42.41,56.25,17.36,48.33,98.48,48.33,98.48,40.66-96.49-45.47-172.38-94.38-127.54C662,239.2,695.79,275.15,695.79,275.15Z"/>
    <path d="M702.58,422.19v.09C713.31,545,801,579.45,767.82,614.39c-14.26,15-48.47,3.83-55.81,1.22,4.89,17.83,34.79,45.78,58.46,45.78,28.06,0,58.9-22.76,58.19-68.89-.33-23.71-4.72-55.21-52.35-95.45-49.57-41.86-7.71-84.8,8.79-157.88,16-71.16-29.72-94.58-32.21-95.78,28.52,21.47,19.52,65-1.57,79.83C723.59,341.36,701,403.21,702.58,422.19Z"/>
    <path d="M603.09,639.17s33.61,4.77,42.6-12.64c0,0,6.47,20.85,32.83,30.71,4.89,1.7-16.62-26.73,7.13-50,7.28-7.14,14.08-4.78,17.37-2.85a49.09,49.09,0,0,0,9.7,4.28c15.66,5.13,54.48,12.41,50.69-17.31-2.41-18.84-61.64-89.07-115.85-31.66-8.21,8.7-14.84,31.25-16.12,45.05C629.53,624.87,603.09,639.17,603.09,639.17Z"/>
  </g>
</svg>
