<svg id="Livello_1" data-name="Livello 1" xmlns="http://www.w3.org/2000/svg" viewBox="0 0 841.89 841.89">
  <defs>
    <style>
      .cls-1, .cls-2 {
        fill: #231f20;
      }

      .cls-2 {
        stroke: #231f20;
        stroke-miterlimit: 10;
        stroke-width: 3.92px;
      }
    </style>
  </defs>
  <title>Glos</title>
  <g>
    <path class="cls-1" d="M542,646.84c8.7-16.05,6.74-17.86,4.35-28.9,0,0,17.7,5.33,43.66-8.81,2.59,6.27,7.56,14.29,13.82,18.45C606.69,629.49,538.48,653.34,542,646.84Z"/>
    <line class="cls-2" x1="522.8" y1="494.5" x2="522.8" y2="494.46"/>
    <path class="cls-1" d="M576.17,383.92c.8,13.42,5.32,28,16.06,42.7a9.54,9.54,0,0,1-3.81,14.27c-15,6.82-41.85,22.37-65.62,53.57v0a200.41,200.41,0,0,0-20.72,33.68c-19,38.75-31.3,93-24.74,168.39a5.74,5.74,0,0,1-9.13,5.11c-11.52-8.55-30.61-20.51-47.25-20.54-16.41,0-35.29,11.71-46.87,20.26a6,6,0,0,1-9.47-5.3c6.45-75.11-5.81-129.22-24.77-167.92a203.7,203.7,0,0,0-20.72-33.68v0c-24.19-31.75-51.56-47.29-66.4-53.92a8.83,8.83,0,0,1-3.46-13.34c11-14.92,15.67-29.68,16.49-43.28,1.25-20.84-6.35-39-13.36-51-1.35-2.35-2.69-4.46-3.93-6.31A10.31,10.31,0,0,1,251.75,312c31.32-18.83,51.16-41.47,63.62-63.7a158.48,158.48,0,0,0,17.7-49.46A162.61,162.61,0,0,0,335.63,165a9.35,9.35,0,0,1,11.3-9.42c24.45,5.15,53.7-7.05,66.91-13.55a16.1,16.1,0,0,1,14.2,0c13.21,6.49,42.43,18.67,66.87,13.57a9.42,9.42,0,0,1,11.38,9.49,162.4,162.4,0,0,0,2.57,33.75,158.48,158.48,0,0,0,17.7,49.46c12.55,22.39,32.58,45.2,64.3,64.11a9.55,9.55,0,0,1,3,13.6c-1.35,2-2.83,4.28-4.33,6.87C582.51,344.91,574.92,363.08,576.17,383.92Z"/>
    <path class="cls-1" d="M664.89,252.12c-3.48,10.49,1.37,22.32,1.37,22.32S707.61,369.16,634.54,379a0,0,0,0,1,0,0,119.36,119.36,0,0,1-29.25-.16c-2.88-.32-5.89-.73-9-1.24a5,5,0,0,1-4.2-4.88c-.09-16.47,5.15-31.07,10.77-42a5,5,0,0,1,7.16-2,103.26,103.26,0,0,0,16.78,8.72c7.38,3,12.73,3.75,16.45,3.63a5,5,0,0,0,4.28-7.38c-23.11-43.63-28.22-64.4-25.62-79.42,3-17.54,16.52-27.26,24-56.35,2.71-10.47,4-17.87,4.13-22.93l0,0s3.72-28.74-43.78-33.72C640.89,116,695,143.57,680,211.47a159.24,159.24,0,0,1-13.75,37.44A24.38,24.38,0,0,0,664.89,252.12Z"/>
    <path class="cls-1" d="M642.05,182.09l0,0c.38-10.94-4.2-10.94-9.56-7.35-5.11,3.43-10.94,10.13-13.84,13.69l-.22.3c-1.85,2.68-3.69,5.22-5.53,7.67-38,51.26-66.83,53.22-75.57,52.39a5,5,0,0,1-3.92-2.59,157.71,157.71,0,0,1-14-35.59,5,5,0,0,1,6.84-5.87c11.84,4.78,33.28,5.1,55.08-36.3.71-1.33,1.45-2.62,2.2-3.87a56.17,56.17,0,0,1,14.68-16.18h0C645.77,153.35,642.05,182.09,642.05,182.09Z"/>
    <path class="cls-1" d="M237.09,627.58c6.23-4.16,11.24-12.18,13.79-18.45,26,14.14,43.7,8.81,43.7,8.81-2.43,11-4.35,12.85,4.35,28.9C302.41,653.34,234.23,629.49,237.09,627.58Z"/>
    <path class="cls-2" d="M248.64,535.93c-.08,0-.16-.12-.24-.16"/>
    <path class="cls-2" d="M248.64,535.93c-.08,0-.16-.12-.24-.16s0,0-.08,0,0,0-.08,0a0,0,0,0,0,0,0"/>
    <path class="cls-1" d="M298.58,609.94s-17.74,5.33-43.7-8.81a24.94,24.94,0,0,0,1.92-6.93c.62-11.47-17.16-6.23-33.92-17.39C152,529.55,204.68,446.73,274.22,499c19.88,14.95,29,9.24,33,3a5,5,0,0,1,8.25-.11,203.28,203.28,0,0,1,12.83,21.27,7.21,7.21,0,0,1-1.77,8.91c-35.08,28.81-76.17,6.61-80.87,3.9C275.55,556,307.82,567.18,298.58,609.94Z"/>
    <path class="cls-1" d="M249.89,372.76a5,5,0,0,1-4.19,4.87c-3.12.51-6.14.92-9,1.24a119.36,119.36,0,0,1-29.25.16s0,0-.08,0c-73-9.87-31.68-104.55-31.68-104.55s4.86-11.83,1.37-22.32a24.38,24.38,0,0,0-1.37-3.21,161.91,161.91,0,0,1-13.78-37.44c-15-67.9,39.15-95.47,73.77-70.1-46.91,4.92-43.86,33-43.78,33.71h0c.18,5.06,1.41,12.45,4.11,22.91a116.94,116.94,0,0,0,4.35,13.47c7.56,19.23,17.27,28.35,19.74,42.88,2.59,15-2.52,35.83-25.64,79.45a5,5,0,0,0,4.26,7.35c3.73.12,9.08-.64,16.48-3.63A104.18,104.18,0,0,0,232,328.79a5,5,0,0,1,7.09,1.89C244.71,341.59,250,356.23,249.89,372.76Z"/>
    <path class="cls-1" d="M322.51,210.56a157.55,157.55,0,0,1-14,35.63,5,5,0,0,1-3.91,2.58c-8.73.83-37.55-1.11-75.61-52.39-1.81-2.45-3.65-5-5.49-7.67l-.23-.3c-2.9-3.56-8.73-10.26-13.85-13.69-5.36-3.59-9.94-3.59-9.57,7.36-.08-.7-3.13-28.79,43.78-33.71h0a56.34,56.34,0,0,1,14.69,16.18c.74,1.25,1.48,2.54,2.19,3.87,21.82,41.43,43.28,41.08,55.12,36.28A5,5,0,0,1,322.51,210.56Z"/>
    <path class="cls-1" d="M544,609.94s17.74,5.33,43.7-8.81a24.59,24.59,0,0,1-1.92-6.93c-.63-11.47,17.15-6.23,33.91-17.39,70.88-47.26,18.21-130.08-51.34-77.84-20.2,15.19-29.26,9-33.16,2.68a4.62,4.62,0,0,0-7.73-.29,203.74,203.74,0,0,0-13.26,21.95,7,7,0,0,0,1.71,8.59c35.12,29,76.32,6.74,81,4C567,556,534.71,567.18,544,609.94Z"/>
  </g>
</svg>
