<svg id="Livello_1" data-name="Livello 1" xmlns="http://www.w3.org/2000/svg" viewBox="0 0 841.89 841.89">
  <defs>
    <style>
      .cls-1 {
        fill: #231f20;
      }
    </style>
  </defs>
  <title>Glos</title>
  <g>
    <path class="cls-1" d="M364.38,375.91a2.45,2.45,0,0,1,1.82,2.16c.75,7.9,1.32,15.15,2.27,22.35a13.48,13.48,0,0,0,2.91,6.6c2.83,3.3,1.9,6-.42,8.78-5,5.93-9.94,12-15.3,17.62-7.33,7.68-12.39,16.46-14.44,26.88a1.88,1.88,0,0,0,0,.71,2.46,2.46,0,0,0,4.15,1.34,1,1,0,0,0,.3-.57c2.27-15.73,14-25.22,23.54-36.14,2.34-2.68,4.72-5.32,7-7.9a2.48,2.48,0,0,1,3.47-.21c14.59,12.77,29.23,25.39,43.56,38.35,3.66,3.31,6.54,7.61,9.2,11.81,2,3.14,1,5.63-3.09,6.74-9.63,2.61-18.63,6.57-26.3,13.17-5.52,4.75-11.92,6.09-19.16,5.51-21.74-1.73-43.51-3.08-65.27-4.66-10.3-.75-20,2.21-29.43,5.48-13,4.49-25.55,4.93-38.71-.08-6.81-2.6-14.6-2.72-22-3.69-5.11-.67-8.36-2.53-8.59-7.73a90.29,90.29,0,0,1,1.41-20.76c4-21,12.91-40.54,19.51-60.77,5.37-16.48,9.85-33.26,14.8-49.87a154.86,154.86,0,0,1,5-14.69,6.12,6.12,0,0,1,4.16-3c7.25-1.06,14,1.12,20.07,4.8,9.39,5.69,19.47,8.88,30.21,10.95,5.32,1,10.64,3.75,15.15,6.88,11.24,7.81,21.74,16.79,34.14,20"/>
    <path class="cls-1" d="M372.71,371.42a15.68,15.68,0,0,1-1.79-.34c-8.84-2.31-16.51-6.9-23.61-12.59C339.7,352.4,332,346.36,322.25,344c-4.25-1-8.9-.63-13-2A81.17,81.17,0,0,1,292,334.15a40,40,0,0,0-30.1-5.81c-2.33.43-4.84-.09-7.33-.45a2.15,2.15,0,0,1-1.81-2.24c.14-2.73.12-5.53,1-8,3.16-8.42,6.26-16.67,6.88-25.88.32-4.78,2.65-9.69,5-14,16.92-30.64,41.57-53.56,71.83-70.61,12.12-6.83,25-11.3,39.29-9.49,5.16.65,9.52-.77,13.79-3.93a2.13,2.13,0,0,1,3.42,1.76,106.3,106.3,0,0,0,.19,14.58c1.85,15.85,5.94,31.09,15,44.52A40.77,40.77,0,0,0,416,262c2.33,2.06,5,3.54,8.2,3a2.15,2.15,0,0,1,2.51,2.34c-1.22,12.07-10.17,20.5-15.25,30.71a2.13,2.13,0,0,1-4-.43l-5.64-22.1c-4.24-16.64-8.55-33.29-12.7-50-.81-3.23-.8-6.67-1.59-9.91a4.65,4.65,0,0,0-.23-.69c-.88-2.13-4.15-1.62-4.12.68,0,.11,0,.21,0,.32a546.05,546.05,0,0,0,17.94,79.17c8,26,18.31,50.68,35.39,72.05,5,6.25,10.81,11.83,16.51,17.87a2.16,2.16,0,0,1,.29,2.55c-4.15,7.32-16,12-25.52,9.15-11.91-3.58-22.11-10.3-31.47-18.16-33.18-27.82-57.26-61.73-68.65-104-.59-2.2-.79-4.54-1.65-6.62a3.36,3.36,0,0,0-1-1.23,2.13,2.13,0,0,0-3.22.69,1.81,1.81,0,0,0-.25,1.17c1.27,6.24,2.28,12.61,4.41,18.56,10.27,28.81,26.54,54,46.89,76.69l2.39,2.66-2.55,4.85"/>
    <path class="cls-1" d="M536.16,702.78H491.48c-1.37-4.23-3.36-7.84-3.52-11.52-.19-4.62,1-9.32,1.79-13.94q8-46.59,16.13-93.16,8-46.38,16-92.75c2.46-14.39,4.67-28.82,7.1-43.2a23.32,23.32,0,0,1,1.77-4.6l1.85.46q1.77,129.26,3.55,258.71"/>
    <path class="cls-1" d="M385,503c9.79-.92,16.74-6.86,24.3-12.05,6-4.14,13.14-6.71,19.89-9.7.74-.33,2.77.79,3.33,1.76,9.24,15.68,11.31,31.74,4.75,49.36-6.94,18.64-9.08,38.43-10.26,58.26-.38,6.37-1.07,12.72-1.66,19.56-7.51-.41-14.62-.79-21.74-1.2-4.1-.23-8.21-.81-12.31-.71-3.78.08-5.44-1.54-6.3-5-2.9-11.78-2.46-23.59-.52-35.4s3.89-23.42,6-35.09c1.72-9.41-.2-18.15-4.26-26.6-.46-.95-.77-2-1.24-3.17"/>
    <path class="cls-1" d="M239.7,598.86c.07-15.47,4.79-28.64,14.24-40.15,12.55-15.31,17.13-32.91,14.8-52.81l46.07-12.11c1.7,16.57,4.53,32.15-2.41,47.28-4,8.84-8,17.73-11.8,26.69-5,11.89-9.9,23.86-14.74,35.83-1.39,3.42-3.09,4.78-7.19,3.79-12.83-3.11-25.8-5.69-39-8.52"/>
    <path class="cls-1" d="M235,619.26c14.31,2.64,28.22,5.2,42.14,7.78.12,0,.22.17.61.49-2.32,5.57-5,11.13-6.94,17-1.59,4.86-2.34,10-3.24,15.07-1.24,7.09,2.07,12.24,7.79,15.75,8.8,5.4,17.85,10.39,26.77,15.59,2.63,1.54,5.61,2.8,7.64,4.94a7.81,7.81,0,0,1,1.71,6.33c-.4,1.47-3.24,3.25-5,3.24-24.73-.1-49.46-.48-74.18-.8-.77,0-1.53-.05-2.29-.11-9.49-.89-12.22-4.93-8.83-13.73,6.57-17.09,9.33-35,11.63-53,.78-6,1.42-12.09,2.17-18.54"/>
    <path class="cls-1" d="M536.08,212.26c-38.1-20-78.84-30.08-119.23-41.21l-.12-1.6a39.1,39.1,0,0,1,4.85-3.64c14.88-8,30-15.56,44.69-23.86,19.1-10.79,37.53-4.26,47.09,7.71,4.55,5.71,7.89,12.74,10.34,19.68,4.55,12.89,8.06,26.15,12,39.27a27.14,27.14,0,0,1,.41,3.65"/>
    <path class="cls-1" d="M514.16,219.07a2.11,2.11,0,0,1,.3,3.53c-9.34,7.26-18.62,14.52-28,21.56a5.79,5.79,0,0,1-3.05.83,2.12,2.12,0,0,1-2.28-2.14,62.5,62.5,0,0,0-.18-8.57,1.15,1.15,0,0,0-.5-.7,2.11,2.11,0,0,0-3.4,1.92,2.81,2.81,0,0,0,.08.31c1.18,3.59-.33,6-2.18,8.18a2.13,2.13,0,0,1-3,.21,69.68,69.68,0,0,0-6.29-5.27,2.18,2.18,0,0,0-1.58-.17,2.09,2.09,0,0,0-1.69,2.72,3.75,3.75,0,0,0,.53,1.08c1.88,2.54,5.33,4.38,1.47,8.23s-5.31,4.44-9.53.89c-3.62-3-7.67-6-10.14-9.84a18.31,18.31,0,0,1-2.31-11.16c.87-7.5,3-14.84,4.37-22.28a2,2,0,0,0,.05-.35,2.11,2.11,0,0,0-3.84-1.25c-.05.09-.09.18-.13.27-3.73,9.6-5.94,19.57-5.39,29.89.16,3-1,4.12-3.2,5.11-8.47,3.84-16.36,2.69-22.92-4.33C399.51,225.17,396.63,210,398,194a2.11,2.11,0,0,1,2.27-1.93l8,.65a2.12,2.12,0,0,1,1.71,1.14c3.5,6.81,11.89,7.19,18.29,7.38a62.75,62.75,0,0,0,17.85-2.29,12.56,12.56,0,0,1,8.88.32c6.86,2.7,13.62.61,17-4.75a2.09,2.09,0,0,1,2.48-.84c3.56,1.27,7.12,2.58,10.72,3.79,4.52,1.55,9.27,2.49,10.65,8.34.4,1.66,2.45,3.07,4,4.27a91.1,91.1,0,0,0,8,5.48c2,1.22,4,2.31,6.29,3.52"/>
    <path class="cls-1" d="M387.51,630.09h36.75c0,7.51-.34,14.78.1,22a20.27,20.27,0,0,0,9.25,16.44A224.59,224.59,0,0,0,479,691.76c.84.33,1.72.57,2.57.91,3.07,1.25,5.36,3.35,4.89,6.85a6.37,6.37,0,0,1-6.62,5.8q-17.55.16-35.09-.08c-15.85-.23-31.69-1-47.54-.86-9.8.06-13-2.64-11.49-12.34,1.23-8,2.85-15.87,4.48-23.76,2.32-11.23-.31-22.13-2-33.09-.23-1.5-.4-3-.68-5.1"/>
    <path class="cls-1" d="M556.24,432.56c21.92,90,43.82,180,65.89,270.54-8,0-15.32.13-22.6-.16-.95,0-2.41-2.1-2.64-3.41-3.25-18.45-6.3-36.93-9.45-55.39q-8-47.05-16.07-94.11-6.69-39.35-13.27-78.71c-1.84-10.93-3.51-21.89-5.63-32.76-.63-3.27.19-4.88,3.77-6"/>
    <path class="cls-1" d="M484,367.83c-3.75,5.53-7.33,10.64-10.72,15.86-1.95,3-4.41,3.22-7.5,2.24-9.62-3-16.35-10-22.59-17.28-12.83-15-21.5-32.44-28.82-50.59-2.64-6.54-.79-12.92,2.44-18.85,2.63-4.81,5.47-9.51,8.29-14.21,6.2-10.34,8.06-21.16,3.92-32.72a38.67,38.67,0,0,1-.91-3.76l6.82-1.67c3.52,11.87,7.38,23.5,10.36,35.36,3.1,12.36,4.41,25.22,8.19,37.34,5.75,18.46,14.79,35.31,30.52,48.28"/>
    <path class="cls-1" d="M548.05,438.07c15,88,29.91,176.07,45,265-7.66,0-15,.11-22.39-.18-.78,0-2-2.43-2.11-3.82-.87-7.74-1.46-15.5-2.18-23.25q-3-32.82-6.12-65.63c-1.65-17.93-3.23-35.87-4.9-53.8q-3-32.37-6.06-64.72c-1.56-16.72-3.17-33.42-4.58-50.15-.11-1.31,1.15-2.74,1.78-4.11l1.54.66"/>
    <path class="cls-1" d="M518.25,446.81c-19.82,76.94-39.64,153.87-59.7,231.77-7.81-4.71-14.88-8.79-21.68-13.28-.92-.61-1.13-3.47-.61-4.9,7.29-20.16,14.79-40.23,22.2-60.34Q486.23,524.67,514,449.29a19.48,19.48,0,0,1,2.36-3.66l1.89,1.18"/>
    <path class="cls-1" d="M564.45,703.12c-7.2,0-13.89.1-20.57-.12-1,0-2.06-1.53-2.82-2.55-.37-.51-.1-1.49-.12-2.25Q539,572.47,537.11,446.74c0-2.09-1.3-5.29,3.35-5.29,8,87,15.94,173.94,24,261.67"/>
    <path class="cls-1" d="M483.58,688.5l-19.8-7.8c3.86-15.46,7.67-30.62,11.43-45.77q22.89-92.08,45.86-184.14c.5-2-.76-5.69,4.4-5.47-14,81-27.87,161.81-41.89,243.18"/>
    <path class="cls-1" d="M511.34,446.65Q471.23,553.27,431.1,660h-1.27c-.59-2.84-1.55-5.66-1.71-8.52a82,82,0,0,1,7.05-38.14c23.77-54.4,47-109.05,70.34-163.63,1.11-2.59,2-4.89,5.83-3.05"/>
    <path class="cls-1" d="M547.66,365.9c.79,4.61-2.71,6.26-5.55,8.89a.59.59,0,0,0,.47,1l4.53-.54a.59.59,0,0,1,.58.88l-4.45,7.51a.59.59,0,0,0,.7.86c.63-.22,1.32-.48,1.74-.6a28.76,28.76,0,0,1,3.71-.64.59.59,0,0,1,.64.74,10.84,10.84,0,0,1-1.36,3.83,13.65,13.65,0,0,1-3.16,2.8.6.6,0,0,0-.16.77c1.34,2.37,3,5.95,4.08,8.58,4.17,9.85,2.07,11.34-8.37,13.57-11.16,2.39-22.16,1.75-32.59-3.28-6.77-3.26-9.36-15.13-4.88-21.17,14.94-20.14,12.75-19,36-22.19,2.36-.33,4.69-.95,7.36-1.53a.6.6,0,0,1,.71.5"/>
    <path class="cls-1" d="M481,428.45c.42-5.86.68-11.33,1.35-16.74.12-.9,2-2.21,3.08-2.28a116.65,116.65,0,0,1,12.82,0,6.2,6.2,0,0,1,3.49,1.69c13.17,12.28,40.16,9.79,51.66,2a24.77,24.77,0,0,0,6-6.17c2.14-3,4.79-3.21,7.61-1.91,3,1.38,2.53,4.28,1.09,6.25-4,5.47-7.61,11.6-12.77,15.76-13.49,10.88-29.11,16.59-46.73,14.25-7.86-1-15-4.07-18.25-12.41a3.09,3.09,0,0,0-2.44-1.35,60.45,60.45,0,0,0-6.86.92"/>
    <path class="cls-1" d="M576.18,219.33a86.06,86.06,0,0,1,10.47-6,1.06,1.06,0,0,1,1.44,1.26c-.85,3.21-4.19,4.52-6.78,6.64a1.06,1.06,0,0,0,.53,1.86l3.47.5a1.06,1.06,0,0,1,.42,1.94,15.12,15.12,0,0,1-5.12,2.12c-2.94.54-9.29-1.09-9.37,2.39,0,.56,1.54,1.17,3.33,1.91a1.05,1.05,0,0,1,0,1.95c-3.78,1.55-7.67,3.14-11.54,4.79a16.23,16.23,0,0,0-2.08,1.14,1.07,1.07,0,0,0,0,1.79c.68.43,1.36.85,2.06,1.22,1,.52,2,1,3.19,1.5a1.06,1.06,0,0,1,.2,1.82c-3.35,2.37-6.85,1.69-10.24,1.63-1.23,0-2.46.09-3.68.19a1.06,1.06,0,0,0-.86,1.54c.38.72.78,1.48,1.24,2.37a1.06,1.06,0,0,1-1,1.54c-2.51-.22-5-.46-7.55-.5-1.48,0-3.58.06-4.35,1-16.8,19.8-26.55,42.52-27.55,68.65a69.86,69.86,0,0,0,5.4,30.08,1.07,1.07,0,0,1-.32,1.24c-2.89,2.34-5.35,1.63-6.56-1.73-2.55-7.12-5.71-14.29-6.6-21.67-3.29-27.57,5.77-51.54,23.11-72.71a28.48,28.48,0,0,1,3.78-4c3.95-3.25,8.18-6.06,6.36-12.52-.36-1.3.53-3,1.33-4.59a1.05,1.05,0,0,1,1.88,0c.46.86,1,2,1.46,3.12a1.06,1.06,0,0,0,2-.17c1.12-5,2.22-9.54,5.64-12.78a1.06,1.06,0,0,1,1.78.73,27.73,27.73,0,0,1-.17,4.19,4.1,4.1,0,0,0,.14,1.46,1.07,1.07,0,0,0,1.5.7,3.1,3.1,0,0,0,1.41-1.07c.91-1.71,1.07-3.86,2.12-5.43a28.62,28.62,0,0,1,3.78-4.26,1,1,0,0,1,1.77.51c.24,1.05.49,2.38.71,3.47a1.07,1.07,0,0,0,1.81.52,3.77,3.77,0,0,0,.7-1c1.55-3.43,2.7-7.06,4.45-10.37.56-1.06,1.71-1.81,3.29-3a1.06,1.06,0,0,1,1.68.93l-.31,4.14a1.06,1.06,0,0,0,1.65,1"/>
    <path class="cls-1" d="M448.16,434.17a.47.47,0,0,1-.77.24c-1.27-1.1-2.46-1.81-2.77-2.8-1.79-5.8-3.3-11.68-4.86-17.54C438.82,410.55,438,407,437,403a.46.46,0,0,1,.32-.57c8.94-2.54,17.6-4.95,21.71-13.76a.48.48,0,0,1,.52-.28c8.1,1.52,13.65,6.67,19.16,11.72,1,.9,1.43,3.42.95,4.78a45,45,0,0,0-2.29,22.47,17,17,0,0,1-.25,4.22.48.48,0,0,1-.72.35c-.92-.58-1.57-1-2.05-1.27a.47.47,0,0,0-.67.19c-.9,1.8-1.77,3.52-2.63,5.23a.46.46,0,0,1-.71.16l-4.64-3.68a.47.47,0,0,0-.77.31,5,5,0,0,1-.37,1.8,20.83,20.83,0,0,1-1.86,2.69.46.46,0,0,1-.68.08,11.6,11.6,0,0,1-2.33-2.25,14.08,14.08,0,0,0-2.23-3.27.47.47,0,0,0-.78.3L456,438a.47.47,0,0,1-.74.33,11.21,11.21,0,0,1-3.43-4.13,23.71,23.71,0,0,1-.79-4.63.47.47,0,0,0-.86-.21,18.19,18.19,0,0,0-2,4.85"/>
    <path class="cls-1" d="M571.07,242.38,585.34,230a.61.61,0,0,1,1,.51c-.08.88-.16,1.85-.27,3.06a.62.62,0,0,0,1,.49c3.79-3.75,6.66-7.65,11.48-7.86a.61.61,0,0,1,.56.91,56.92,56.92,0,0,1-6.62,8.54.6.6,0,0,0,.22,1L596.3,238a.6.6,0,0,1,0,1.12,59,59,0,0,1-7.86,2.39,26,26,0,0,0-3.8,1.25.61.61,0,0,0,0,1.14l3.84,1.32a5.13,5.13,0,0,1,.57.29.62.62,0,0,1,.13,1c-4.23,4-8.87,6.36-14.72,6.44a5.05,5.05,0,0,0-2.33,1,.6.6,0,0,0-.06,1,8.11,8.11,0,0,0,1.94,1.25c1.53.58,3.13,1,5.24,1.57a.61.61,0,0,1,.25,1c-3.63,3.25-7.34,3.05-11.11,2.54-.73-.09-1.46-.81-2.12-.73a13.11,13.11,0,0,0-2.69.79.61.61,0,0,0-.27.95,19.86,19.86,0,0,0,1.59,1.83,3.72,3.72,0,0,0,.85.6.61.61,0,0,1-.09,1.1c-1.74.67-5.26,1.51-7,.91-4.91-1.68-8,.3-9.57,4.32-3.88,9.88-7.94,19.78-10.67,30-4.22,15.82-7,32-5.86,48.56a.58.58,0,0,1-.25.53c-2.81,2-4.8,1-5.33-2.13-1.14-6.87-2.82-13.85-2.55-20.71a114.69,114.69,0,0,1,11.89-46.95c4.76-9.54,12.2-16.61,20-23.64,3.21-2.87,6.34-4.12,10-5.37,4.71-1.61,5.87-4.44,4.47-8.36a.6.6,0,0,1,.17-.67"/>
    <path class="cls-1" d="M567.48,273.39c.45,1.38,1,2.85,1.52,4.07a1,1,0,0,0,1.91-.23c.77-4.62,1.87-9.1,6.47-11.89a1,1,0,0,1,1.48,1.06c-.28,1.42-.56,2.82-.85,4.23a1,1,0,0,0,1.71.89c.6-.69,1.13-2.14,2.53-5.35.88-2,2.71-3.62,4.36-5.29a1,1,0,0,1,1.71.51,15,15,0,0,1,.23,2,12.59,12.59,0,0,0,.25,1.93,1,1,0,0,0,1.61.58,5.86,5.86,0,0,0,1.61-1.69c1.64-3.06,2.87-6.35,4.52-9.41a5.41,5.41,0,0,1,2.57-2.27,1,1,0,0,1,1.41,1c-.08,1-.17,2-.27,3.19a1,1,0,0,0,1.76.73c2.86-3.38,5.57-6,9.92-6.23a1,1,0,0,1,1,1.21c-.7,3.64-3.88,5-6.19,6.88a1,1,0,0,0,.32,1.7l4.14,1.44a1,1,0,0,1,.35,1.69c-2.94,2.55-6.26,2-9.37,2.27a9.71,9.71,0,0,0-2.2.55,1,1,0,0,0,.05,1.89l1.9.6a1,1,0,0,1,.56,1.45c-1.84,3.41-4.83,4.61-16,6.84a1,1,0,0,0-.77,1.24c1,3.3,5.53,1.11,7.26,4a1,1,0,0,1-.58,1.48,35.2,35.2,0,0,1-7.32,1.66,25.64,25.64,0,0,1-6.23-.75,1,1,0,0,0-1,1.6,25,25,0,0,0,2.05,2.32,1,1,0,0,1-.17,1.57c-2.57,1.68-5.33,1.21-7.73-.27-3.48-2.15-5.53-.68-6.92,2.15-2.82,5.71-5.82,11.43-7.84,17.45-4.06,12.1-7.57,24.38-11.17,36.63-.74,2.51-1.55,4.34-5.37,3a1,1,0,0,1-.66-1.1c1.09-7,1.75-14.41,3.61-21.52,3.78-14.47,9-28.38,19.13-39.92.79-.9.77-2.68.78-4.06,0-3.3-.73-6.75,2.14-10.15a1,1,0,0,1,1.72.33"/>
    <path class="cls-1" d="M475.32,390.29c4.41-6.69,8.63-13.16,13-19.56a3,3,0,0,1,2.31-.92c5.66.34,10.37-2,14.88-5,11.54-7.69,24.33-10,37.9-8.61,2.21.23,5.2.38,6.45,2.3.31.48-9.67,4-14.5,4.84s-9.72,1-14.42,2.11a16.33,16.33,0,0,0-7.78,4.31,159.59,159.59,0,0,0-12.55,15.68c-6.57,9.23-14.58,11.07-25.26,4.86"/>
    <path class="cls-1" d="M468.13,192.82c-5.22,4.2-11.18,3.75-15,0-.74-.74-2.76-.76-4-.38-2.53.82-4.81,2.67-7.36,3.09-3.89.64-5.2-1.3-4.47-5.21a2.29,2.29,0,0,0,0-.64,2,2,0,0,0-2.52-1.61,1.9,1.9,0,0,0-1.1.65,7.33,7.33,0,0,0-1.19,4.25c.22,3.28-1.47,4.53-4.31,4.48-3.19-.05-3.5-2.61-3.38-4.93.08-1.61,1.09-3.16,1.32-4.79a2.85,2.85,0,0,0,0-.87,2,2,0,0,0-2.75-1.52,1.51,1.51,0,0,0-.82.63c-1.38,2.81-2.38,5.82-3.53,8.76-5.92-1.8-7.29-5.87-3.78-10.89a2.61,2.61,0,0,0,.17-.28,2,2,0,0,0-2.72-2.59,9.58,9.58,0,0,0-.89.49c-.68.44-1,1.49-1.41,2.31-2.64,5.36-5,6-10.62,2.83,3-9,12-12.86,20.76-9.87,14.07,4.81,28.4,8.88,42.58,13.36,1.66.52,3.11,1.7,5,2.75"/>
    <path class="cls-1" d="M283.85,614.75c-1.56,6.78-1.55,6.74-7.9,5.62-12.59-2.21-25.18-4.41-37.79-6.5-2.55-.42-5.13-.37-4.18-4.15.81-3.22,1.94-5.89,6.15-4.88,8,1.9,15.91,3.79,23.9,5.54,5.78,1.26,11.61,2.25,17.42,3.42a14.27,14.27,0,0,1,2.4,1"/>
    <path class="cls-1" d="M388,615.63h39c-.34,2.5-.28,4.57-1,6.32-.47,1.19-2,2.77-3.09,2.78-10.82.15-21.64,0-32.46-.06-2.93,0-4.14-1.54-3.54-4.41.3-1.47.7-2.91,1.13-4.63"/>
    <path class="cls-1" d="M427.7,433.63c.34-5.74.67-11.45,1-17.55h7.54c1.47,5.5,3,11.25,4.71,17.55Z"/>
    <path class="cls-1" d="M531.43,217.15a43.89,43.89,0,0,1-6.13,3.32c-1.09.4-3.3.21-3.78-.52-4.5-6.78-13-7.79-18.45-13.12A6,6,0,0,1,501,203.5l30.43,12c0,.53,0,1.07,0,1.61"/>
    <path class="cls-1" d="M407.41,241.33c4.4,2.13,9.5,4.29,14.22,7.07,1.43.84,2.22,3.36,2.6,5.24.44,2.16.1,4.46.1,6.7-6.27.13-15.74-11.29-16.92-19"/>
    <path class="cls-1" d="M422.64,415.48c1,6.7,1.73,12.7-.71,18.82-5.82-4-5.7-13.24.71-18.82"/>
  </g>
</svg>
