<svg id="Livello_1" data-name="Livello 1" xmlns="http://www.w3.org/2000/svg" viewBox="0 0 841.89 841.89">
  <defs>
    <style>
      .cls-1 {
        fill: #231f20;
      }
    </style>
  </defs>
  <title>Glos</title>
  <g>
    <path class="cls-1" d="M524.54,702.35a4.79,4.79,0,0,1-3.78-1.53,55.71,55.71,0,0,1-7.13-10.11c-6.46-11.24-12.64-22.63-18.29-34.3-4.67-9.66-9.72-19.14-14.58-28.72-2.18-4.29-4.37-8.57-6.41-12.93a76.68,76.68,0,0,1-6.21-18.93c-1.46-8-3.33-15.92-4.48-24a194.12,194.12,0,0,1-1.69-26.6c-.06-14.45-.13-28.9,0-43.35,0-4.05.72-8.1,1.11-12.14.29-2.93.61-5.86.83-8.8.09-1.17-1.25-2.27-2.07-1.8-.6.33-1.53.7-1.65,1.21A98.44,98.44,0,0,0,457.31,499c-.18,5.18-.38,10.37-.36,15.56,0,13,.2,25.93.27,38.9.06,13.43,2.87,26.47,5.44,39.55a171.91,171.91,0,0,0,15.91,44.87c9.07,17.81,18.38,35.5,27.69,53.19,2.07,3.92,4.58,7.6,6.84,11.42a2.77,2.77,0,0,1-1.56,3.6c-6.6,1.47-36.12-4.78-44.41-6.74-5.33-1.26-10.31-4-14.91-7.26a140,140,0,0,0-33.51-17.16c-7.59-2.7-25.22-2-31.74-6.91-6.22-4.69-4-18-1.73-23.16,21-48.07,66.49-212.29,68.63-218.61a7.6,7.6,0,0,1,6.46-5.41c11.36-1.66,40.63-14.13,42.53-15.28a5.52,5.52,0,0,1,6.24.19c8,5,27.78,9.82,38.09,10.77a3.81,3.81,0,0,1,2.82,3.07c.21,3.32.42,6.64.51,10q1.22,43.34,2.41,86.67c.05,1.83,0,5.81,2.38,5.72,3-.1,2.44-4,2.46-5.83.1-10-1.29-58.88-1.79-73.32-.25-7.4-.16-14.81-.16-22.22,0-2.4,1.79-4,4.32-4.08a3.83,3.83,0,0,1,3.71,1.9c2.36,4.29,3.29,9.08,4.22,13.76,2.37,12,5,24,6.32,36.1,2.09,18.38,3.45,36.8,1.74,55.43-1.88,20.64-3.78,41.34-3.24,62.13.07,2.57.23,5.15.51,7.72.06.48.81,1,1.35,1.31.75.45,2.26-.75,2.31-1.75.13-2.59.29-5.17.33-7.76.12-7.78.93-15.53,1.41-23.28,1-16.63,3.3-33.18,3-49.9-.22-13.36-1.3-26.64-2.33-39.94a141.35,141.35,0,0,0-2.08-14.29c-1.94-10.55-6.8-36.74-7.27-39.29a2,2,0,0,1,1.41-2.57,5.09,5.09,0,0,1,3.1.36,8.53,8.53,0,0,1,2.44,2.21c14.12,16.27,20.44,92.2,22.18,149.26,1.05,34.33,17.32,97,17.32,114a10.49,10.49,0,0,1-5.12,9.33c-5.75,3.6-42.76,12-57.32,9.76-3.29-.51-6.64-.59-10-.81-9.23-.58-17.78,2.14-19.65,2.25"/>
    <path class="cls-1" d="M510.44,401.36c0-.95,3.91-3.7,4.45-4.17C532.25,382.25,545,363.62,557,344.41c2.35-3.76,4.55-7.63,6.67-11.54.68-1.25,2-4.71.14-5.86-1.7-1-3.78,1.49-4.38,2.37q-6.92,10.08-13.72,20.23A378,378,0,0,1,519.39,384a79.36,79.36,0,0,1-25.31,19.54c-12.33,6.22-25.44,10-38.67,13.52a23.49,23.49,0,0,1-5.5.62c-7,.15-14.07.35-21.11.26a141.21,141.21,0,0,0-32,3.3,32.71,32.71,0,0,0-13.06,5.82c-2,1.52-3.86,3.52-6.65,3.7a1.48,1.48,0,0,1-1-.31,1,1,0,0,1-.17-1c.71-1.27,1.63-2.42,2.21-3.74a1.84,1.84,0,0,0-.39-2.25,1.48,1.48,0,0,0-2-.17c-2.11,1.49-4.07,3.17-6.11,4.76a2.15,2.15,0,0,1-3,0c-1.17-1.08-.71-2.3-.41-3.17.71-2.06,1.85-4,2.75-5.94a1.21,1.21,0,0,0-.3-1.64,1.31,1.31,0,0,0-1.94.36c-3.26,3-6.36,6.21-10.3,8.39-1.35.75-3.42,1.47-4.53.31-1.71-1.8-.2-3.67.38-4.55,2.24-3.4,4.65-6.68,6.87-10.08a1.91,1.91,0,0,0-.24-2.46,1.85,1.85,0,0,0-2.74.37,93.16,93.16,0,0,1-7.22,6.8,5.19,5.19,0,0,1-3.09.94,4.1,4.1,0,0,1-2.84-1.28,3.48,3.48,0,0,1-.41-3.05A42.42,42.42,0,0,1,357.4,397a7.5,7.5,0,0,1,3.06-1.12,31.21,31.21,0,0,1,5.55-.22c10.06.57,20-.74,29.87-2.31,30.3-4.79,56.2-17.93,76.23-41.65A215.5,215.5,0,0,0,491,325.56c6.22-10.09,12.18-20.33,18.25-30.51,1.15-1.93,3.89-6.32.64-7.91a2,2,0,0,0-2,.43q-5.85,8.76-11.5,17.63c-5,7.82-9.77,15.73-14.74,23.54A106.88,106.88,0,0,1,463.81,350a4.57,4.57,0,0,1-2.84,1.36c-1.88-.09-1.7-2-2.17-3.3a11.32,11.32,0,0,1-.51-2.16,40.86,40.86,0,0,1-.55-4.41c-.31-8.14-.68-16.28.71-24.39,1.08-6.34,3.19-12.16,7.81-16.84.25-.26,1.49-1.78.11-2.91-1.9-1.56-2.48-.15-2.76.18-1.65,1.93-5.31,8-7.85,8.81C454.5,306.7,397.9,255,392,246.94c-8.25-11.26-9-23.65-7-37,4.28-27.78,24.33-55.78,30.22-66.49a34.88,34.88,0,0,1,3.69-5.54,62,62,0,0,0,10-17.16,3.34,3.34,0,0,1,3.62-2.09q7.74.77,15.48,1.58c1.92.2,2.74,1.48,2.57,4-.07,1.08-.27,2.15-.31,3.23,0,.31.3.88.51.9.68.07,1.65.22,2-.15,2.76-2.72,5.93-10.1,3-14.17a21.19,21.19,0,0,1-4.31-11.21c-.06-1-2.31-1.28-2.75.36a15.71,15.71,0,0,0-.52,4.37c.1,2.36,1.57,4-.22,5.21a3.53,3.53,0,0,1-2.1.53c-3.33-.18-40.72-5.27-41.8-5.53-1.82-.43-4-.9-3.39-5.08.38-2.83,2.44-4.31,4.73-4.09,7,.67,26.07,3.09,28.63,3.47,3.84.57,7-.1,10-3.21,13.18-13.76,32.26-1.22,33.63,0a5.51,5.51,0,0,1,.57,7.93c-.9,1.13-2,2.11-3.36,3.54,14.49,3.28,77.18,10.84,94.49,14.75,1.43.33,5.87,1,5.61,4.36a30.54,30.54,0,0,1-.26,3.31c-.81,4.36-6.58,2.73-8.35,2.29-33.74-7.08-64.27-11.81-99.06-17.83a1.67,1.67,0,0,1-.63-.36c-2.56-4.84-4.95-9.42-7.46-13.93-.35-.72-2.5-.2-2.22,1,.39,1.42,6.73,10.2,4.15,21.22a2.78,2.78,0,0,0,2.88,3.51c2-.43,2.92-2.17,4.33-3.3,1.62-1.29,3.41-1.12,5.25-.6a2.32,2.32,0,0,1,1.08,2.63c-1.79,3.88-10.46,6.67-14.3,7.95-9.58,3.21-17.84,8.93-26.68,13.53a18.2,18.2,0,0,0-7.09,6.92A17.06,17.06,0,0,0,425,170.67a16.42,16.42,0,0,0,1.29,3.08,13,13,0,0,1,2,8.46,15.9,15.9,0,0,0,3,11.55c2.78,3.75,2.21,7.75.56,11.6a31.41,31.41,0,0,1-17,16.74c-2.36,1-8.61,2-8,5,.78,3.84,7.87,1.22,9.6.65a34.2,34.2,0,0,0,13.29-7.81c1.29-1.24,2.76-2.3,4.13-3.44,5.44,3.48,9,8.23,12.42,13.06A88,88,0,0,0,461.12,246a56.73,56.73,0,0,0,24.56,12.29c9.32,2.07,18.42,1,27.31-2.15,11-3.84,47.65-32.32,49-33.11,33.17-18.71,52.4,121.47,25.65,174.07-3.38,6.64-7.64,10.28-14.69,11.95-11,2.61-22.08,2.49-33.14,1.25-5.82-.65-29.51-5.67-29.42-8.95"/>
    <path class="cls-1" d="M236.24,595.68c-3.51-5.46-9.63-32.88-10.34-42.9a227.89,227.89,0,0,1,.38-37.68c1.46-15.52,4.61-30.69,10.61-45.16.57-1.37,1.14-2.73,1.8-4.05.49-1,1.14-1.89,1.87-3.08a50.51,50.51,0,0,1,5.33-.41c8.51.22,131.94-.43,136.35,0,1.91.19,3.31,7,4.18,8.81a54.72,54.72,0,0,1,4,13.8c2.79,15.4,3,30.93,1.77,46.46A252.72,252.72,0,0,1,386.12,572c-2.11,8.62-4.46,17.16-8.17,25.26-.82,1.79-2.09,3.06-4.17,3.13-3,.1-90.78.15-128.88.07-4,0-5.58,0-8.66-4.79"/>
    <path class="cls-1" d="M557.3,219.2A20.23,20.23,0,0,1,546.23,228c-3.39,1.19-6.25.08-8.38-3.39-.57-.93-1-2-1.53-2.9s-2.4-.87-2.7.11c-1.07,3.39-3.59,5.51-6.26,7.55-8,6.1-16.9,10.44-25.59,14.57-3.27-1.24-5.1-3.44-7-5.44.51-2.17,2.27-3,3.61-4.27a94.76,94.76,0,0,0,12.91-13.73,24.68,24.68,0,0,0,3.09-5.83c.24-.64-.81-1.8-1.38-2.65a1.06,1.06,0,0,0-1-.2,15,15,0,0,0-2.27,2.3c-8.55,11.49-19.69,20-31.89,27.14-2.42,1.42-5.05.42-6.62-2-1.75-2.76-1.24-5.61-.87-8.53.05-.43-.77-1.26-1.32-1.39a3.42,3.42,0,0,0-2.09.47c-1.76.89-3.52,1.44-4.95-.36-1.61-2-3.1-4.22-1.29-7a12,12,0,0,0,1.08-1.91c.32-.79-.73-2.24-1.65-2.3-1.1-.05-2.21,0-3.31-.06-1.43-.14-3-1.53-3.16-2.62a16.74,16.74,0,0,1-.23-2.21,31.36,31.36,0,0,0-3.41-16c-3.1-5.92-2.63-12.19,1.23-17.9A18.15,18.15,0,0,1,464,171.31c10.72-1.46,20.61.72,28.79,8.35a15.61,15.61,0,0,1,1.57,1.58,8,8,0,0,0,6.77,3,3,3,0,0,1,2.79,2.88,18.23,18.23,0,0,1-1.26,8.67c-.49,1.38,1,3.3,2.33,2.88a6.08,6.08,0,0,1,6.18,1.11c1.71,1.43,3.39,2.87,5.09,4.29.57.47,1.21.86,1.81,1.29a2.13,2.13,0,0,0,2.81-.84c.19-.63.38-1.66.05-2-2.06-2.1-4.22-4.11-6.43-6.05-1.67-1.45-3.47-2.76-5.41-4.28a57.82,57.82,0,0,0-.61-6.49,21,21,0,0,0-1.89-5.15,4.91,4.91,0,0,0-4.3-3.07,12.37,12.37,0,0,1-8.14-2.85,40.89,40.89,0,0,0-6.54-4.16,36.57,36.57,0,0,0-27.93-2.92c-9.11,2.58-14.14,9-15.83,18.15-.28,1.45-.28,2.95-.49,4.41a2.68,2.68,0,0,1-4,2.07c-4.47-2.46-6.48-6-5.41-11,.59-2.74.62-5-1-7.3a13.24,13.24,0,0,1-2-3.93c-2-6.9-.18-12,4.8-15.85A23.78,23.78,0,0,1,449,148.94c4.8-.3,9.59-.39,14.24,1.38a24.17,24.17,0,0,0,5.42.89,1.77,1.77,0,0,0,1.58-2.26c-.52-1.28-1.14-2.5-1.73-3.75,4.9-2.52,10-2.9,15.23-3.12,10.1-.44,19.92.73,29.36,4.51C519,149,524.48,152,529,156.51a33.76,33.76,0,0,1,4.84,6c3.47,5.75,4.24,11.77,1,17.95a7.49,7.49,0,0,1-3.78,3.86,61.36,61.36,0,0,0-7.06,3.18c-1.18.68-2,2.05-2.87,3.16a1.08,1.08,0,0,0,0,1.06c.5.45,1.24,1.13,1.73,1a16.07,16.07,0,0,0,4.07-1.5c5.31-2.8,10.6-2.52,16.08-.42,6.47,2.48,11.63,6.32,14.87,12.56a15.06,15.06,0,0,1-.55,15.78"/>
    <path class="cls-1" d="M597.4,186.14c-1,1.72-28.81-13-29.84-16.52-.16-.56,11-26.27,11.37-40.23.31-11.17-.38-22.18-4.16-32.82-.81-2.29-.18-3.84,1.82-4.41,8.55-2.42,17.16-4.51,26.16-2.74,2.79.55,4.41,2.2,5.47,4.86,2.38,6,4.6,65.24-10.82,91.86"/>
    <path class="cls-1" d="M367.61,751.49c-4.82-.18-4.29-10-.55-11.14,1.4-.44,31-5.5,35.9-13.61,3.41-5.59,4.87-34.26,3.78-43.52a2.67,2.67,0,0,1,2.67-2.83c1.47,0,18.49,4.74,24.74,8.85a4.16,4.16,0,0,1,1.71,4.82c-1.22,5.42-4.94,21.28-5.68,23.76a53.07,53.07,0,0,0-1.69,22c1,9-2.82,13.27-18.83,13.26-3.33.17-38.26-1.48-42.05-1.63"/>
    <path class="cls-1" d="M488.75,751.49c-4.83-.18-4.29-10-.56-11.14,1.41-.44,31-5.5,35.91-13.61,3.4-5.59,4.87-9.88,3.78-19.14a2.66,2.66,0,0,1,2.66-2.83c1.48,0,15.77-3.56,22,.55,1.56,1-.51,10-1.26,12.5a53,53,0,0,0-1.68,22c1,9-2.82,13.27-18.84,13.26-3.32.17-38.25-1.48-42-1.63"/>
    <path class="cls-1" d="M376.82,445.51c6.3-.25,5.32,14.29.48,14.64-1.1.08-130.13.18-134.2,0-6.7-.3-6-14.64,1.17-14.64,1.47,0,130.71-.12,132.55,0"/>
    <path class="cls-1" d="M374.4,605.14c6.3-.25,5.31,14.28.48,14.63-1.11.08-130.14.18-134.2,0-6.7-.29-6-14.64,1.16-14.63,1.47,0,130.71-.13,132.56,0"/>
    <path class="cls-1" d="M374.4,624.5c6.3-.25,5.31,14.28.48,14.64-1.11.07-130.14.17-134.2,0-6.7-.3-6-14.65,1.16-14.64,1.47,0,130.71-.12,132.56,0"/>
    <path class="cls-1" d="M374.4,643.86c6.3-.25,5.31,14.29.48,14.64-1.11.08-130.14.18-134.2,0-6.7-.3-6-14.64,1.16-14.64,1.47,0,130.71-.12,132.56,0"/>
    <path class="cls-1" d="M374.4,663.23c6.3-.25,5.31,14.28.48,14.64-1.11.07-130.14.17-134.2,0-6.7-.3-6-14.65,1.16-14.64,1.47,0,130.71-.12,132.56,0"/>
    <path class="cls-1" d="M344.23,425.09c.65,1,5.83,6.77,9.13,6.27,2.21-.33,4.35-1,6.58-1.55,2.82,1.63,5.19,4.43,9,3.73,2.38,1,4.77,2.06,7.14,3.12.75.34,1,5.09-3.4,5.09-4.9,0-126.2.06-128.4,0-8-.22-7.86-16.66-.35-16.66,2.26,0,90.39-.39,100.26,0"/>
    <path class="cls-1" d="M350.3,393c.75,2.39-9.4,12.16-10.21,13-.51.51-1,1.12-2.82.72-1.43-.33-33.69-7.67-48.71-11.4-3-.74-4.18-2.37-4.43-5.54-.49-6.31-.61-12.58,2.32-18.45a28.39,28.39,0,0,1,1.74-2.81,4.06,4.06,0,0,1,3.89-1.41c1.37.54,36.12,14.92,52.91,21.84,1.71.67,4.65,2,5.31,4.05"/>
    <path class="cls-1" d="M246.35,420c-8.82,0-7.27-21.8.65-21.76,1.47,0,19.22.36,25.5.34a36.59,36.59,0,0,1,8.75,1.08c16.48,4,32.8,8.75,49.48,11.8,7.25,1.33,7.71,8.26,2,8.54-2.95.15-84.14,0-86.35,0"/>
    <path class="cls-1" d="M245,393.13c-2.56-.07-4.4-2.63-4.19-5.43s2.2-5.21,4.64-5.26c6.22-.11,17.89,0,24.1-.12,8.06-.1,8,1.08,7.63,8.15a2.92,2.92,0,0,1-2.62,2.91c-1.82.12-25.55-.12-29.56-.25"/>
    <path class="cls-1" d="M503.12,253.77c-.18-.07-.62-.09-.85-.33a3.84,3.84,0,0,1-1.18-1.72c-.09-.58.29-1.68.72-1.83,2.07-.73,4.29-1.06,6.35-1.82a70.75,70.75,0,0,0,21-12.24c1.69-1.43,3.3-3,5.09-4.29a2.28,2.28,0,0,1,2.08.15,7.31,7.31,0,0,1,2.26,2.27c.24.38-.12,1.41-.52,1.85-6.15,6.68-14,10.86-22.06,14.61a33.14,33.14,0,0,1-10.53,3.34c-.73.07-1.47,0-2.36,0"/>
    <path class="cls-1" d="M590.35,193.58c-8.92-1.86-22.15-9-28.45-15.56-1.06-1.11,4-6.12,4.74-5.48,5.57,5.06,19.92,12.93,28.54,15.61.53.16-3.48,5.72-4.83,5.43"/>
    <path class="cls-1" d="M289.39,748.24H274.16a4.38,4.38,0,0,1-4.37-4.36v-56.3a4.38,4.38,0,0,1,4.37-4.36h15.23a4.38,4.38,0,0,1,4.37,4.36v56.3a4.38,4.38,0,0,1-4.37,4.36"/>
    <path class="cls-1" d="M339.19,748.24H324a4.37,4.37,0,0,1-4.36-4.36v-56.3a4.37,4.37,0,0,1,4.36-4.36h15.24a4.37,4.37,0,0,1,4.36,4.36v56.3a4.37,4.37,0,0,1-4.36,4.36"/>
  </g>
</svg>
