<svg id="Livello_1" data-name="Livello 1" xmlns="http://www.w3.org/2000/svg" viewBox="0 0 841.89 841.89">
  <defs>
    <style>
      .cls-1 {
        fill: #231f20;
      }
    </style>
  </defs>
  <title>Glos</title>
  <path class="cls-1" d="M584.73,95.67c-1.76,5.09-4.42,6.08-9,5.22-7.3-1.38-14.79-1.75-22.23-2.56,1.68-10.8,8.86-14.7,17.89-10.07,4.46,2.28,8.76,4.87,13.3,7.41"/>
  <g>
    <path class="cls-1" d="M456,740.1C460,732.68,463.31,727,466,721a108.34,108.34,0,0,0,6.67-17.9c1.07-4.2,3.06-6.4,7-7.09,12.41-2.19,24.9-4,37.24-6.6,5.62-1.16,11.06-3.42,16.4-5.62,3-1.26,3.69-3.94,2.81-7.33a232.17,232.17,0,0,1-6.42-83.89c1.26-11.69,4-23.13,10.4-33.25,7.54-11.85,18.36-15.32,31.33-9.88,14.53,6.07,25.12,17.08,34.44,29.2,6.8,8.84,12.69,18.38,18.86,27.69,1.79,2.7,4.28,4.33,6.75,2.31,1.28-1,1.75-5,.83-6.57-12.14-20.9-25.77-40.72-46.18-54.49a57.91,57.91,0,0,0-19.91-8.67c-14.55-3.08-25.64,3.26-33.54,15.52-7.53,11.68-10.37,24.87-11.88,38.39-.85,7.63-1.1,15.32-1.63,23.16l-14.68-1.87c-.48-9.36-1.53-19,2.65-28.16,4.49-9.8,9.31-19.46,14.22-29.06,5.16-10.09,9.4-20.49,8.19-32a51,51,0,0,0-4.72-17.15c-3.81-7.59-5.19-15-3.58-23.32.36-1.84-1.12-5.25-2.67-6-3.08-1.44-4.82.89-5.69,4-2.56,9.28-2,18.44,2.9,26.58,6.39,10.52,6.16,21.18,2.65,32.22a84.82,84.82,0,0,1-5.32,12.59c-15.43,30.37-26.12,62.62-36.79,94.79-6.53,19.68-10.5,40.2-16.14,60.19-3.62,12.79-10.45,23.74-21.83,31.29A9.23,9.23,0,0,1,434,742c-13.55.14-27.1.08-41.82.08.66-4.89.94-10.68,2.3-16.22,2.48-10.15,7.39-19.46,14.92-26.5,10.32-9.66,16.11-21.33,20.43-34.47,7.69-23.42,17.24-46.27,24.11-69.92,6.2-21.35,10.44-43.34,14.42-65.25,2.44-13.4.71-27.08-2.63-40.33-.45-1.76-1.65-4.7-5.08-4.34s-3.55,4.29-3.18,6c5.33,23.95,2,47.27-3.64,70.68-8.87,36.89-20.23,72.9-36.63,107.15a154.89,154.89,0,0,1-15.23,24.68C388.87,711.2,384.9,720.72,383,743c-5.48,2.21-6-1.74-6.37-5.4-1.59-16.29.77-31.91,9.82-45.81,8.61-13.24,13.17-27.85,17.54-42.87,8-27.37,17.78-54.19,25.92-81.51,6.36-21.36,11.57-43.07,16.76-64.76a15.91,15.91,0,0,0-1.94-11.41c-8.17-12-8.1-24.25-5.13-38,5.57-25.76,5.88-51.93,2.16-78.1a22.09,22.09,0,0,1,.43-8.11c14.38-57.75,11.32-91.63,11.5-103.92.05-3.71,2-3.85,4.8-4.24,22.72-3.12,45.15-7.49,65.87-18,8.08-4.08,15.61-9,20.66-16.82a21.6,21.6,0,0,0,3.52-7.92,5,5,0,0,0-2.71-5.19c-2.44-1.37-4-.37-5,1.35-7.28,14.94-21.19,20.74-35.44,25.79-23.06,8.17-47.09,12-71.35,14.14-11.49,1-46.37,5.82-45.46-1.79.68-5.61,64.07-10.4,65.51-21.68.52-4.12-5.94-6.56-9.61-7.85-24.55-8.61-49.61-15.26-75.73-17-1.24-.09-2.5,0-3.67,0-2.32-11.79-.93-15,8.8-20.64A448.61,448.61,0,0,1,417,161.48c-.84,6.51,9.7,15.23,15.75,16.54,6.95,1.5,13.2-.09,18.18-5.15,3.69-3.74,3.07-8.7-1.93-10.78-7.09-3-13.94-4.63-23.26-7.36,16-12,33.57-23.29,50.46-36,3.36,10.64,5.2,19.9,8,30,3.84,14,20.41,24.51,35.86,22.26,13.3-1.93,21.8-13.82,21.17-29.61-.06-1.43-.2-2.87-.37-5.24,40.67,31.89,33.31,136.45,34.11,160.81,2.81,85.7,59.69,204.17,68.48,241.89,6.62,28.44,8.19,57.3,6.94,86.32-.26,6-2.72,12.12-5.09,17.8-9.08,21.86-22.14,40.91-41.27,55.28a60.39,60.39,0,0,1-12.81,7.36c-16.8,7-29.29-.79-30.62-19.07-.39-5.29.27-10.66-.22-15.94-.17-1.83-1.17-5.11-4.36-5.14-2.82,0-3.89,3-4.05,4.73-1.07,11.16-1.06,22.28,4,32.8,7.17,15,20.54,20.59,36,14.38,14.4-5.79,24.48-17.23,34.79-28.12,5.5-5.81,10-12.57,16-20.14-4.15,12.72-9,23.46-16.09,33C612,721.89,592.22,733,568,736.37c-12.15,1.7-23.71-1.54-35.23-4.29-18.68-4.46-36.57-4.27-53.75,5.58a35.38,35.38,0,0,1-12.43,4c-3.1.44-6.46-.9-10.54-1.58"/>
    <path class="cls-1" d="M406,237.49c-18.33,1.75-34.49-.24-50.18-6.14a7.19,7.19,0,0,0-4.08-.66c-25,6.94-47.58.13-69.48-11.44-1.91-1-5.76-3.41-7.3-.94-2.24,3.56,1,6.28,2.69,7.76,3.95,3.4,8.79,5.84,13.46,8.28,3.21,1.67,6.76,2.67,10.08,4,.13,20.79,15.83,40.24,37.41,43.21,44.6,6.15,74.1,28.5,89.08,67.85,15.62,41,7.44,83.86,2.77,101.48-5.92,22.38-16.31,42.43-33.26,58.41-5.73,5.41-13.08,9.2-19.95,13.3-2.72,1.62-6.46,2.26-4.92,6.38s5,2.47,7.93,1.48c1-.34,2.05-.69,3.9-1.33-1.67,10-3,19.49-4.86,28.89-4.69,24.33-11.62,48-23.23,70-5.47,10.35-6.83,58.41-7,71.24-.14,9.41,4.48,16,13.5,18.13,5.48,1.3,6.17,3.95,4.92,8.49-21.29,8.07-41.57,8.75-50.52,1.34,7.41-1.41,21.11-6,21.94-21.39,1.68-30.95,1.63-62,1.93-93,.16-15.15.22-30,6.76-44.6,7.35-16.35,14.55-49.22,13.15-56.34-2-10.31,1.46-16.73,9.24-22.75,5.14-4,9.36-9.31,13.41-14.5,1.22-1.57,2.59-5.71.61-7.09-2.58-1.81-5.3.4-6.53,1.82-33.28,38.51-76,60.58-124.75,72.46a223.86,223.86,0,0,1-55.53,6.55c-1.8,0-3.61,0-6,0,3.15-19.75,11-37,21.1-55.13,0,4.37-.07,7.06,0,9.73.49,15.77,9.19,24.56,24.87,25.68,13.33,1,26-2,38-7.06a314,314,0,0,0,98.25-65.31c3.67-3.58,7.2-7.33,10.85-10.95,2.24-2.22,4.3-4.7,1.37-7.45s-5.32-.48-7.48,1.72a389,389,0,0,1-63.21,52,188.39,188.39,0,0,1-68.49,28.31c-18.41,3.57-28.27-7.12-26-25.75,4.73-39.72,73.19-111.18,133.74-121.73,10.58-1.84,14-29.34-10-43.25-37-21.5-92.69-24.87-92.63-106.83,0-32.18,17.65-41.48,34.29-38,23.38,4.88,44.63,14.92,65.24,26.62a22.16,22.16,0,0,0,9.19,2.49c18.34,1.26,32.87,9.5,45.75,24.08"/>
    <path class="cls-1" d="M371,753.13H237.24c5-7.45,11.62-9.26,18.68-10.79,6.55-1.42,13.32-3,19.24-5.92,11.34-5.66,17.39-15.19,17.51-28.25.34-37.77,1.69-130.91,2.51-139.65.23-2.35,2.28-5.19,4.32-6.59,7.7-5.27,26.72-14.79,31.15-22.14,1-1.58,1.61-4.25-.23-6.22s-5.23-1.36-6.48-.24c-27.24,24.37-60.21,30.28-95.11,29.54-8.41-.18-16.78-2.21-25.06-4.15,54.76-2.33,103-22.16,148-52.85,1.68,9.74-.16,18.85-2.15,27.86-4.65,21-11.72,41.2-22.37,59.9-6.29,11-9.35,22.74-11.51,35.06-2.93,16.74-7.56,33.21-9.95,50a221.26,221.26,0,0,0-1.86,40.43c.48,11.19,10.72,20.2,22,21,7.46.52,15-.2,22.51-.42,7.81-.22,15.32,6.07,22.59,13.45"/>
    <path class="cls-1" d="M516.16,160.92c-2.54-.62-6.93-1.26-11-2.78-6.6-2.49-11.67-6.16-11.36-14.63.32-8.93-3.34-16.92-7-25a66.83,66.83,0,0,1-5.36-20.3c-.83-7.69,4.35-10.54,11.34-7a36.24,36.24,0,0,1,7.19,5c12.1,10.55,22.22,22.67,29.08,37.31,3,6.42,3.6,12.94.44,19.48-2.31,4.79-6,7.78-13.33,7.91"/>
    <path class="cls-1" d="M487.8,642.42c1.69-4.67,3.13-9.18,5-13.49.61-1.4,2.35-3.11,3.69-3.22a184,184,0,0,1,19.64-.61c1.22,0,3.25,2.24,3.44,3.65,1.56,11.56,2.77,23.17,4.13,35.08-13.83-4.06-24.3-13.49-35.92-21.41"/>
    <path class="cls-1" d="M454,120.48c-3.08-7.92-4-15.44-2.46-23.17,1.24-6.13,5.11-9.4,9.48-8.36,6.71,1.61,11.32,8.44,9.46,14.19-2.65,8.17-8.43,13.43-16.48,17.34"/>
  </g>
</svg>
