<svg id="Livello_1" data-name="Livello 1" xmlns="http://www.w3.org/2000/svg" viewBox="0 0 841.89 841.89">
  <defs>
    <style>
      .cls-1 {
        fill: #231f20;
      }
    </style>
  </defs>
  <title>Glos</title>
  <g>
    <path class="cls-1" d="M418.57,668.74c-3.3-1-11.74-3.46-14.79-2.68-1.29.33-2.27,1.14-1.78,2.63.43,1.34,1.48,1.37,2.79,1.14,6-1.06,14.75,2.53,14.89,6.75-5.1,2-15.77-.77-20.64-4.23-.64-.46-3.57-2.26-4.92-.36-.81,1.14.37,2.1,1,2.56a58.7,58.7,0,0,0,5.77,3.33c-3.17,2.3-10.92,1.28-15-1a40.29,40.29,0,0,0-9.72-4.24c-2.83-.71-33.2-.25-37.06-.12-4.07.13-6.05-1.44-6.38-5.51a19.55,19.55,0,0,1,2-11.41c3.43-6.19,6.53-12.55,10-18.72a46,46,0,0,0,5.5-20.72c.39-8.09,1.67-15.93,5.69-23.07,2.73-4.87,5.75-9.55,10.54-12.78a1.86,1.86,0,0,0,.67-2.13c-.33-1.28-2.77-1.91-5.69,1a47.78,47.78,0,0,0-13.27,23.13,78.72,78.72,0,0,0-1.65,11.86,65.75,65.75,0,0,1-7.07,24.31c-3.73,7.55-7.58,15-11.41,22.55-4.58,9-14.61,16.35-27.24,14.12-10-1.76-16.64-7.77-18.59-14.73a3.65,3.65,0,0,1,.84-2.55c3.17-4.48,9.41-10.3,11.39-17.92.34-1.3.13-2.36-1.22-2.76s-2.11.5-2.52,1.7c-3.44,9.95-10.37,17.27-18.56,23.27-20,14.64-55,26.49-65.64,27.17-1.1.07-3.62-.14-4.08-1.65-.66-2.12-.13-3.59,6.64-6.21,14.3-5.53,26.71-14.6,38.23-24.72,10-8.8,25.2-28.89,25.14-57.68,0-10.81-5.55-40.84,3.64-53.65a2,2,0,0,1,3.08-.69c2.52,1.48,5,3,7.62,4.36.47.24,1.68.08,1.87-.27a124,124,0,0,0,6.63-12.46c2.53-6,2.69-12.38,1.5-18.76a34.5,34.5,0,0,1,.82-16.55,42.33,42.33,0,0,0,3.3,4.59c6.83,7.3,8.71,6.54,13.39-.35,4.06-6,6.86-12.43,6.66-19.94a116.69,116.69,0,0,1,.61-13.21c.13-1.46,1.07-2.86,1.77-4.64a24.93,24.93,0,0,0,2.12,3.2,79.3,79.3,0,0,0,6.21,6.09c.49.43,1.94.24,2.66-.17,7.39-4.28,11.65-11,14.2-18.89.59-1.81.72-3.76,1.18-5.62,3.08-12.56,10.71-21,22.94-25.27,1.33-.46,2.56-.92,2.12-2.6s-1.66-1.61-3.08-1.2c-10.16,2.94-17.08,9.73-22.32,18.58-2.44,4.12-3.29,8.72-4.29,13.3a28.66,28.66,0,0,1-9.85,16.42c-2.14,1.78-3,1.76-4.8-.47a58.84,58.84,0,0,1-3.81-5.94c-.37-.6-.58-1.3-.93-1.93-1.08-1.93-2.41-2-3.87-.35-3.13,3.61-4.42,8-5,12.57a93.85,93.85,0,0,0-.46,11.75c0,7.15-2.8,13.16-7.15,18.61a1.52,1.52,0,0,1-2.51.29c-3.23-2.68-5.63-5.82-6.44-10.07-.16-.84-.9-2.14-1.48-2.19a3.3,3.3,0,0,0-2.53,1.3,25.21,25.21,0,0,0-3.91,14.05,100.43,100.43,0,0,0,.87,12.83,27.88,27.88,0,0,1-3.23,17c-.95,1.76-2,3.46-3.09,5.33-2.53-1.38-5-2.65-7.36-4a3.32,3.32,0,0,0-4.72.86c-3.34,4.16-5,11.63-11.58,16.66-10.56,8.11-33.28,15.61-36.68,13.2,21.18-15.57,56.34-71.49,66.23-93.46,21.81-48.49,74.31-74.18,79.82-73.83,2.16.13,4.6,6.89,5.8,7.93a3.75,3.75,0,0,0,3.18.58c1.27-.47.69-1.7.51-2.9a27.08,27.08,0,0,1,.2-7.36c1.78,4.56,3.53,9.13,5.38,13.67,1.55,3.81,3.13,5.61,5.35,5.2,1.21-.22,1.36-1.68,1.44-2.64.36-4.17,1.17-12.57,1.4-12.58,1.17,9.32,5.1,18.45,9.92,24.37,6.25,7.68,14.84,6.36,18.07,2.39,2.83-3.49,3.87-7.67,4.12-12a56,56,0,0,0-7.6-31.84c-.32-.56-1.38-2.93-3.42-2.16s-.58,3.11-.4,3.41a52,52,0,0,1,7.57,29.25c-.14,3.94-2.64,14.12-9.06,12.05-4.31-1.39-5.28-5.33-5.89-9.24-1.14-7.3-.46-14.33,1-21.72.08-.35.84-3.38-1.1-3.75a2,2,0,0,0-2.43,1.82c-.64,3.51-2.37,15.81-1.77,22.12-.2.07-3-6.22-3.9-9.5a28.81,28.81,0,0,1-.31-15.68c.34-1.25.4-2.41-.91-2.9s-2.67-.64-3.68.71c-1.78,2.37-4.61,13.55-6,18.94-1.24-4.48-3.71-15-4-16.8-.18-1.25-.16-2.57-1.48-2.88-2.1-.48-2.48.29-3.07,1.09-2.29,3.15-3.39,8.51-3.51,10a20.5,20.5,0,0,1-.85-14.22c.07-.2,1.64-3.47-.24-4.28-2.14-.91-2.72,1-3.23,2.42a25.22,25.22,0,0,0-1.32,11.45c-2.16-3.56-4.52-7.14-3.29-11.64,1.81-6.59,4.38-12.84,8.82-18.17.84-1,1.18-2.07.06-3a1.85,1.85,0,0,0-3,.47c-2.4,3.77-4.73,7.6-7,11.45-.45.76-1.4,2.46-1.64,2.43-1.52-8.37,6.86-20.45,9.51-22.94.87-.82,1.69-1.59.94-2.69-1.21-1.76-2.26-.94-2.83-.64-2.63,1.4-9.44,10.34-11,16.72a15.42,15.42,0,0,1-1.26-9.77c1-6.54,6.53-12.78,7.75-14,.62-.63,1.78-1.61,1.1-2.62-2.11-3.12-5,.19-6.14,1.29-3.5,3.49-7.75,13.6-7.72,19.07-8-.9-54-32.73-72.65-55.1C249.76,268.14,228.73,184.9,303.9,165c2.83-.42,7.11-.06,8.4,5.55,1.53,6.63-5.24,8.19-6.78,8.77-13.85,5.26-22.66,17.67-23.58,32.39-1.25,20.22,5.62,37.41,18.63,52.47,4.25,4.92,7.68,8.71,13.25,12a6.84,6.84,0,0,1,2.95,3.44c1.29,3,6.71,10.28,8.38,11.63,1.06.86,2,1.2,3,.17a1.87,1.87,0,0,0-.17-2.85c-4.92-5.12-6.82-8.67-8.55-18-5.15-27.88,24-61.28,24.24-61.21,0,1-3.31,17-4.65,24.18-1.62,8.59-2.56,17.26-1.52,26,1.3,11,7.17,19,15.91,25.35,9.47,6.84,20.11,11.35,30.77,15.89a147.41,147.41,0,0,1,17.91,8.61c8.48,5.06,12.25,13.27,13.15,22.89.95,10.19-1.08,20.06-3.17,29.94a71.94,71.94,0,0,0-1.27,12c14.36-2.67,28-6.15,36.25-19.73,19.89,10.23,37.63,7.25,53.29-8.78a56.74,56.74,0,0,0-1.87,7.67,41.49,41.49,0,0,0-.2,10.61c.93,5.87,4.91,8,10.56,6.07,7.42-2.53,13.33-7.33,18.76-12.84,6.81-6.91,11.62-15.17,16.07-23.66.7-1.33,1.49-2.62,2.06-4,4.53-11,13-18,23.26-23.32,7.14-3.7,14.06-7.84,21-11.9a59.66,59.66,0,0,0,5.42-4.12,60.45,60.45,0,0,1-2.37,7.18,145.91,145.91,0,0,1-6.79,13.08c-1,1.7-3.12,2.74-4.61,4.21-.74.73-1.68,1.76-1.68,2.65,0,1.39,1.34,1.48,2.6,1.48a3.48,3.48,0,0,1,3.18,5.24,14.26,14.26,0,0,1-3.85,4.19,25,25,0,0,1-12,4.75c-.43.05-2.71-.09-2.92,2.39.09,1.79,1.69,1.65,2.39,1.54,2.94-.47,5.83-1.3,8.73-2a20.75,20.75,0,0,0,2-.74c.12,2.31-1.18,3.63-2.45,4.9a29,29,0,0,1-12.44,7.58c-1.19.35-2.72,1.23-2.43,2.92a1.69,1.69,0,0,0,2.1,1.22c7.59-2.1,14.36-4.89,18.55-12.63a5.79,5.79,0,0,0,0-5.78l5.46-5.17c4.71,30.39,1.36,99.92-70.11,137.64-9,4.76-5.41,13.72,1.8,18.84,4.46,3.17,9.74,3.12,14.9,2.42,10-1.37,40.09-14.87,45.87-18,11.69-6.26,23-4.58,34.24,1.09,4,2,5.11,5,3.57,9.14a80.35,80.35,0,0,1-4,7.93c-4-2.93-7.9-4.74-12.4-4.91a15.67,15.67,0,0,0-3,.2c-1.29.21-2.13.36-1.84,2.33.2,1.31,1.57,1.53,2.34,1.47a13.6,13.6,0,0,1,9.48,2.6c4.41,3.17,4.18,10.47-.41,13.47a4.53,4.53,0,0,1-5.43,0c-12.89-9.1-26.07-7.19-39.11-.7-10,5-40.67,27.44-69.88,28.83-14.11.66-22.85-16.66-20.31-24.89,2-6.48,11.11-15.67,15.27-21.21,3.88-5.17,3.38-11,2.05-16.87a37.15,37.15,0,0,0-1-3.73c-2.2-6.44-1.46-12.8.53-19.13.41-1.33,0-2.4-1.26-2.63-2.38-.45-2.38.89-2.66,1.71a57.63,57.63,0,0,0-1.53,7.09c-1.16,5.75.32,11.34,1,17,.27,2.12.53,4.25.66,6.38a15.22,15.22,0,0,1-3.72,10.64c-11.3,14.23-25,25.86-39.8,36.18a2.49,2.49,0,0,0-1.25,3.11c8.89,24.86-3,119.58-3,120.37.18,4,2.38,6.31,6.47,6.49,4.57.2,9.15.16,13.71.46,15.77.81,19.88,10.46,16,25.68-3.17-15.24-17.56-20.33-29.51-19.27-1.36.12-3.73.37-3.55,2.82.07,1,1.36,1.35,2.15,1.41,3.31.26,6.67,0,9.95.46,7.29.9,12.26,5.29,15.38,11.61.94,1.89,2.68,8.21-2,8.15-2.78,0-14.08-.61-16.92-.89a13.75,13.75,0,0,1-5.09-1.24c-5.84-3.19-10.22-7.75-12.18-14.3-.39-1.29-1-2.34-2.55-2s-1.57,1.72-1.26,3c1.06,4.29,3.55,7.77,6.49,10.94,1.16,1.25,2.47,2.36,4.21,4-1.5.11-10.48,1.08-15.48-7.23-5-7.62-8.62-15.92-8-25.29A52.42,52.42,0,0,1,420.49,636a87.72,87.72,0,0,0,3.88-32.8,533.61,533.61,0,0,0-12.64-82.52,9.34,9.34,0,0,1,2-8.72c3.47-4.19,7.13-8.23,10.41-12.56,3.7-4.88,10.72-21.5,1.73-30.51C418,461,381.25,470.58,348,507.2c-43.07,47.48-41.71,94.45-38.95,105.28.32,1.27,1.46,4.67,3.88,4.07a1.55,1.55,0,0,0,1.13-2.2c-3.73-9.09-2-44,31.51-70.17,15.28-11.92,33.06-2,34.39,22.37,1.93,35.19-24.05,85.06-24.95,88.49-.74,2.84-.3,3.14,2.72,3.18,6.58.1,34.68-1.56,55.72,2.45,1.59.31,2.4.67,2.86,2.23C417,665,417.89,667,418.57,668.74Z"/>
    <path class="cls-1" d="M523.24,206.72c-1-1.31-1.73-2.38-2.61-3.27-3-3.07-5.44-3.41-9.27-1.54-2,1-3.94,2.26-6,2.67a30,30,0,0,1-9.73.72c-6.87-1-11.8,1.39-15,7.31a45.79,45.79,0,0,0-3.53,8.94c2.77-2.43,5.41-5,8.36-7.23a25.69,25.69,0,0,1,13.83-5.27c10.63-.66,19.17,9.2,20.86,16.89,1.14,5.16-.63,9.46-3.62,13.6-3.7-5.75-10.33-8.63-15.24-6.74.58,1.66,1.57,6.67,1.17,7.32-.13.22-1.37-.08-2-.38A13,13,0,0,0,483.74,245c-1.73,2.86-2.51,6.3-3.69,9.48a19.12,19.12,0,0,0-.47,2.06c-3.68-6.23-8.8-9.57-15.8-9s-11.45,4.55-14.2,11.38c-.42-1.12-.68-1.74-.89-2.38-1.45-4.28-3.58-8.13-7.28-10.88-5-3.71-10.89-3.57-16.48.43-2.6-2.5-.57-5.1-.19-7.63-4.07-2-11.35,2.24-14.19,8.54-3.47-3.31-5.55-7.18-5.58-11.9-.05-8.63,7.33-18.08,15.66-20.19,5.46-1.39,10.72-.28,15.61,2.09,3.75,1.82,7.19,4.3,10.61,6.39a1.42,1.42,0,0,0-.19-.74,88.82,88.82,0,0,0-4.94-8c-3.69-4.84-8.6-6.35-14.48-4.59a23.5,23.5,0,0,1-16.35-.82c-4.67-2-7.45-.94-10.57,4.21-.32.52-.58,1.07-.86,1.61l-.75.05a35.29,35.29,0,0,1-.92-5.42c-.2-12.1,10.95-24.28,23-24.56,9.36-.22,16.77,4.05,22.17,11.74,4.39,6.25,6.6,13.46,8.6,20.66,1.15,4.14,1.31,8.56,1.79,12.87.15,1.38.14,2.71,1.94,2.68s1.95-1.35,2-2.73a61.29,61.29,0,0,0-5.72-26.59c-1.72-3.84-3.68-7.58-5.59-11.32-6.52-12.73-3.95-27.48,6.68-37,4.15-3.72,4.67-3.65,9.14-.72a29,29,0,0,1,10.27,11.73,29.8,29.8,0,0,1,1,25.57,47.47,47.47,0,0,0-3.39,17.62c0,6.08,0,12.16,0,18.23,0,1.45.14,3,2,2.9s2-1.6,1.88-3.17c-1-11.36.94-22.3,4.28-33.14,2.59-8.4,14.09-15.43,22.78-14.84,11.14.76,18.69,7,21.88,17A32.79,32.79,0,0,1,523.24,206.72Z"/>
    <path class="cls-1" d="M603.92,200.62c4.93-2.75,9.69-2.11,14.5-.21a10.52,10.52,0,0,0,3.39.61c2.46,1.51,0,5.7-.19,6.33a1.86,1.86,0,0,0,.84,2.27c1,.76,2.68-.19,3.91-3,3.5,3.27.25,8.6-.31,10s-.58,2.55.72,3c2.53.8,4.4-5.13,4.62-5.17,1.78,6,4.12,12.6,5.42,18.68,7.84,36.74-1,69.19-25.68,97.39-4.66,5.31-9.44,10.52-14.16,15.79-.52.58-1,1.22-1.82,2.28-1.51-11.45-.47-22.9-8.39-32A62.63,62.63,0,0,0,599.93,290c.9-3.87,2.75-6.77,5-9.84,7.3-10.19,13.28-21.09,15-33.73C622.38,227.42,615.75,210.65,603.92,200.62Z"/>
    <path class="cls-1" d="M432.62,332a15.1,15.1,0,0,1-8.18-8.09,25.18,25.18,0,0,1-2.34-11.44c.08-3.06,1-3.64,3.91-2.59.2.07.41.12.61.2,2.3.85,4.55,2.12,6.92,2.44s4.94-.28,7.71-.5c.71,2.48,2.08,4.86,4.91,5.69A10.78,10.78,0,0,0,451,318c3.56-.66,5.52-3.63,5.93-8.38,6.2,1.31,11.53,5.4,10.71,10.58-.21,1.32-.22,2.89-1.95,3.2-1.31.23-1.84,3-1,4.05.71.86,3.21,1.18,3.21,1.18v5l-4.27.37a2.33,2.33,0,0,0-2.16,3.45c1.71,4.32,8.81,7.8,13.55,4.39a17.07,17.07,0,0,0,4.18-4.48c.61-1.18,0-3.43-2.9-3.72a20,20,0,0,0-4.25,0v-5c.6-.18,2.81-.69,3.26-1.18.87-.93.16-3.64-1-4.05-2-.7-2.46-2.75-1.63-4.92a90,90,0,0,1,4-8.27c1.3,1.71,2.27,3.6,3.79,4.79a8.37,8.37,0,0,0,4.6,1.36c4.81.16,8.1-2.53,10.17-7.92,2.47-.2,5-.06,7.38-.7,2-.54,3.8-2,5.73-3a16,16,0,0,1,3.63-1.48c.48-.1,1.44.6,1.7,1.16,2.57,5.69-.07,16.84-4.89,20.85-.47.39-1,.68-1.91,1.26.66-3.06,1.62-5.68,1.67-8.33,0-1.87-1.09-3.8-1.91-5.61a1.8,1.8,0,0,0-2-.11,2,2,0,0,0-.79,2.14c1.64,2.69.34,5.24,0,7.86-.52,3.66-.88,7.34-1.24,11a10.24,10.24,0,0,1-2.48,5.53c-6.33,8-14.16,13.65-24.1,16.12-12.62,3.13-23.75-.13-33.51-8.41-4.2-3.56-5.25-8.64-5.94-13.81a10.49,10.49,0,0,0-.89-3.81c-1.67-2.85-2.84-5.72-2.25-9.11.22-1.26-.19-2.38-1.64-2.52s-2.13.94-2.22,2.29c-.23,3.22-.43,6.43,1.67,9.25A21.66,21.66,0,0,1,432.62,332Z"/>
    <path class="cls-1" d="M500.3,304.3c-.45-3.87-1.58-7.21-5-9.39-7.38-4.72-18.37.33-19.62,9a7.91,7.91,0,0,1-1.39,3c-1.39,2.09-2.9,4.1-4.11,5.79-2.8-1.87-5.77-3.82-8.7-5.85a2.7,2.7,0,0,1-1.1-1.53c-1.15-8-8.43-11.84-15.61-8.18-4.69,2.39-7.43,6.34-8.69,11.62-.87,0-1.79,0-2.7,0-3.47-.15-4.74-1.38-4.79-4.87a30,30,0,0,1,7.14-20.16c7.78-9.39,17.86-14.38,30-15.37,9.68-.78,18.79.77,26.91,6.32s12.91,13.21,13.17,23.28C506,302.66,505.41,303.22,500.3,304.3Z"/>
    <path class="cls-1" d="M451.64,267.37c-16.73,7.62-27.46,18.87-26.95,37.9-6.38,2.06-10.32-1.57-13.67-5.89-3.15-4.07-4.13-8.89-1.32-13.45,4.5-7.33,11.59-7.28,18.48-5.71-1.17-3-2.8-6.07-3.54-9.33-1.48-6.47,2-11.71,8.52-12.68,5.9-.88,11.39.56,15.75,4.92A24.62,24.62,0,0,1,451.64,267.37Z"/>
    <path class="cls-1" d="M503.23,275.12c6.73-2.81,13.46-3.62,19,2.3,3.5,3.7,3.72,8.37,1.59,12.82-2.74,5.71-6.47,10.37-13.9,9.08-1-19.82-12.9-30-31-34.62,2.43-7.08,10.71-12.09,18-10.93,6.48,1,10.23,7,8.62,14.08A73.71,73.71,0,0,1,503.23,275.12Z"/>
    <path class="cls-1" d="M615.75,194.77a93.31,93.31,0,0,0-10.2.95,10.8,10.8,0,0,0-7.92,6.57c-.37.79-1.84,1.26-2.89,1.51-4.3,1-6.25,3.07-6.87,7.36a8.68,8.68,0,0,1-.27,1c-3.67-.29-6.62-3.91-7-8.46-.57-7.49,3.6-13.76,11.15-16,8.58-2.57,16.21-.59,22.71,5.61A16.68,16.68,0,0,1,615.75,194.77Z"/>
    <path class="cls-1" d="M475,263.55l-20,2.1a7,7,0,0,1-.18-8.68,12,12,0,0,1,10.88-5.61,11.7,11.7,0,0,1,7.77,3.47C476.69,257.87,476.94,259.88,475,263.55Z"/>
    <path class="cls-1" d="M479.77,302.62A9.35,9.35,0,0,1,490.64,297c3.93,1,6.11,3.86,5.67,7.62C491,302.87,485.65,300.69,479.77,302.62Z"/>
    <path class="cls-1" d="M440.33,309.19c-.06-5.19,6.77-10.61,11.5-9.3,2.62.72,4,2.57,4.65,5.48C450.13,302.86,445.29,306.2,440.33,309.19Z"/>
    <path class="cls-1" d="M445.33,310.14c2.87,1.36,5.27,1.44,6.41-2.17,1.44,1.81,1.37,3.31.4,4.78a3.61,3.61,0,0,1-4.34,1.46C446.16,313.72,445.2,312.55,445.33,310.14Z"/>
    <path class="cls-1" d="M482.85,306.26c2,2.47,4.11,3.58,6.7.83.52,2.24-.2,3.57-1.7,4.48a3.61,3.61,0,0,1-4.55-.58C482,309.84,481.68,308.38,482.85,306.26Z"/>
  </g>
</svg>
