<svg id="Livello_1" data-name="Livello 1" xmlns="http://www.w3.org/2000/svg" viewBox="0 0 841.89 841.89">
  <defs>
    <style>
      .cls-1 {
        fill: #231f20;
      }
    </style>
  </defs>
  <title>Glos</title>
  <g>
    <g>
      <path class="cls-1" d="M207.89,586.33c16.29-4.84,30.15-13.32,43-23.91,11.63-9.59,21.28-20.68,26.49-34.89,2.47-6.75,3.43-14.11,4.54-21.28,2.47-15.87,4.63-31.79,6.88-47.69s4.42-31.63,6.65-47.44c.71-5.09,1.46-10.18,2.22-15.44,11.77,10.82,25.14,13.8,39.56,10.19,2.3,9.09,4.66,18.28,6.94,27.48a11.67,11.67,0,0,1,.31,4c-1.38,12.59-2.86,25.16-4.27,37.75-1.32,11.81-3,23.6-3.78,35.45-1.39,21-7.17,40.08-21.11,56.25-8.37,9.7-18.61,16-31.3,18.26-20.06,3.59-40.25,4.12-60.51,2.83C218.29,587.59,213.09,586.87,207.89,586.33Z"/>
      <path class="cls-1" d="M493.72,452.81c-.56,23.3-1,46.61-1.76,69.91-.73,22.91-1.92,45.78-2.75,68.69-.39,10.29-4.4,19-10.91,26.69-8.15,9.59-18.74,15.3-30.5,19.08-8.59,2.76-17.47,3.66-26.84,4-9.37-.32-18.28-1.22-26.84-4-11.79-3.78-22.38-9.49-30.53-19.08-6.51-7.68-10.52-16.4-10.88-26.69-.86-22.91-2-45.78-2.78-68.69-.78-23.3-1.2-46.61-1.76-69.91-.07-2.68,0-5.34,0-8.07,4.49,8.61,8.91,17.12,13.4,25.59a147.78,147.78,0,0,0,26,35.72C399.17,517.6,421,525.6,421,525.6s21.76-8,33.33-19.55a147,147,0,0,0,26-35.72c4.49-8.47,8.91-17,13.42-25.59C493.74,447.47,493.79,450.13,493.72,452.81Z"/>
      <path class="cls-1" d="M496.26,420c-5.74,21.86-15.86,41.75-28.92,60.12-5.27,7.42-11.22,14.37-17,21.74-7.3-8.29-16.5-9.95-26.19-10.64-.07-1.7-.17-3.29-.24-4.88,3.39-.46,6.59-.78,9.74-1.41,4.61-.88,9-2.32,12.64-5.56,4.1-3.69,4-6.89-.61-9.79a29.71,29.71,0,0,0-9.06-3.81c-5-1.12-10.14-2.31-15.61-2.31s-10.64,1.19-15.64,2.31a29.23,29.23,0,0,0-9,3.81c-4.66,2.9-4.74,6.1-.64,9.79,3.59,3.24,8.06,4.68,12.67,5.56,3.12.63,6.32,1,9.73,1.41-.09,1.59-.17,3.18-.26,4.88-9.69.69-18.89,2.35-26.19,10.64-5.83-7.37-11.78-14.32-17.05-21.74-13-18.37-23.18-38.26-28.92-60.12-2.24-8.64-3.76-17.55-2.34-26.6a6.49,6.49,0,0,1,1.71-3.46c2.61-2.54,5.44-4.88,8.12-7.23,6.08,7.67,14.25,10,22.77,11.47A30.91,30.91,0,0,0,391.7,393a21.4,21.4,0,0,0,5.17-2.59c4-2.76,4.32-6.68.88-10-5.93-5.78-12.78-9-21.32-9.12C365,371.14,357,373,345.53,381.73c-.58-3.1,1.52-8.56,3.64-10.56,12.18-11.54,36-10.81,50.22-1.3a34.13,34.13,0,0,1,3.22,2c2.66,2.22,4.59,4.66,4.61,8.59.1,12.17-1.61,24.08-3.9,36-.15.86-.32,1.71-.52,2.64a39.48,39.48,0,0,0-5.93,1,11.67,11.67,0,0,0-7.76,12.61c1,5.86,6,10.23,11.47,10.15,2.54,0,4.3-1.73,3.27-3.46a5.14,5.14,0,0,0-3.22-1.78c-3.71-.56-6.32-3.08-6.34-6.47,0-3.56,2.61-6.07,7.34-6.39-.61,2.15-1.07,3.88-1.63,5.59-.81,2.56.44,4.22,3,4.17a4.48,4.48,0,0,1,2.35.54c4.83,3.26,9.61,6.61,14.39,10a2.93,2.93,0,0,0,2.39,0c4.76-3.37,9.54-6.72,14.4-10a4.31,4.31,0,0,1,2.32-.54c2.61.05,3.83-1.61,3-4.17-.53-1.71-1-3.44-1.61-5.59,4.71.32,7.32,2.83,7.32,6.39,0,3.39-2.63,5.91-6.32,6.47a5.09,5.09,0,0,0-3.22,1.78c-1,1.73.71,3.44,3.27,3.46,5.49.08,10.45-4.29,11.45-10.15A11.67,11.67,0,0,0,445,420a38.85,38.85,0,0,0-5.93-1c-.17-.93-.35-1.78-.52-2.64-2.29-11.88-4-23.79-3.9-36,0-3.93,1.95-6.37,4.64-8.59a30.25,30.25,0,0,1,3.19-2c14.23-9.51,38-10.24,50.22,1.3,2.12,2,4.25,7.46,3.66,10.56-11.44-8.73-19.47-10.59-30.92-10.51-8.54.07-15.39,3.34-21.32,9.12-3.44,3.35-3.1,7.27.88,10a21.77,21.77,0,0,0,5.17,2.59A31,31,0,0,0,466,394.15c8.51-1.49,16.66-3.8,22.74-11.47,2.68,2.35,5.51,4.69,8.12,7.23a6.56,6.56,0,0,1,1.71,3.46C500,402.42,498.53,411.33,496.26,420Z"/>
      <path class="cls-1" d="M286.88,342l15.3,4.47c-1.4,5.14-3.29,10.66-4.35,16.33-2.21,11.73-4.1,23.53-5.88,35.34-2.41,16.08-4.59,32.19-6.86,48.28-2.41,17.06-4.7,34.14-7.27,51.18-1.38,9.11-2.31,18.45-5.09,27.16-3.78,11.86-11.39,21.58-21,29.61a23.47,23.47,0,0,1-4.74,3.55c2.25-3.25,5-6.27,6.63-9.8,2.44-5.24,5-10.69,6-16.32,4.84-29.37,9.14-58.82,13.7-88.24,3.18-20.48,6.64-40.92,9.63-61.43.88-6,.29-12.28.9-18.38C284.57,356.29,285.88,348.94,286.88,342Z"/>
      <path class="cls-1" d="M417,243.59c-2.59,8-3.46,15.81-1.54,24a130.38,130.38,0,0,0-40.29,8.21c-1.5-8.73-4.7-16.42-11.09-23A142.73,142.73,0,0,1,417,243.59Z"/>
      <path class="cls-1" d="M365.15,279.35c-5.53,3.11-10.92,5.81-16,9.06s-9.73,7-14.06,10.19L318.3,283.3a122.2,122.2,0,0,1,37.58-27A46.2,46.2,0,0,0,365.15,279.35Z"/>
      <path class="cls-1" d="M313.36,336.81c2.34-3.77,4.43-7.37,6.78-10.79.56-.81,1.94-1.2,3-1.49,6-1.65,10.92-4.62,14.54-10,1.1-1.64,4.1-2.38,6.37-2.78,3.64-.65,6.88-1.43,9.36-4.59,2.23-2.85,5.83-3.32,9.07-2.81,4.75.74,9.1.59,13.58-1.45,5.25-2.4,10.49-2.91,15.6,1.17,2.16,1.73,5.24,2.31,7.71,3.33l-11.7,6c-6.42-1.85-11.12,3.25-16.84,4.15a8.21,8.21,0,0,1-4-.18,10.14,10.14,0,0,0-9.22.94c-2.41,1.45-4.65,3.19-6.92,4.87-2.9,2.16-5.81,3.55-9.7,2.52-4-1.07-6.47,2-8.75,4.64-2.58,3-5.47,5.31-9.48,5.77C319.85,336.49,316.83,336.58,313.36,336.81Z"/>
      <path class="cls-1" d="M311.88,290.73c4.41,6.25,9.14,11.6,16.41,14.95-9.33,9.46-17.18,19.83-22,31.81l-16.43-4.85A126.82,126.82,0,0,1,311.88,290.73Z"/>
      <path class="cls-1" d="M303.72,365.44c.84-11.71,4.66-19.93,14.78-21.54,6.16-1,11-2.76,15.16-7.18,2.48-2.61,5.66-3.25,9.37-2.12a10.21,10.21,0,0,0,11.14-3.08c4.19-4.55,9.52-5.53,15.44-4.45-3.89,4.7-7.86,9.2-11.46,14a7.88,7.88,0,0,1-6.4,3.51,18.2,18.2,0,0,0-8.19,3.25c-2.9,1.94-5.45,2.83-8.5.67-2-1.41-3.46-.27-4.83,1.14-2,2.09-3.93,4.33-6.12,6.23-2.34,2-5,2.8-8.07,1.17-2.23-1.18-4.14-.24-5.55,1.73a40.66,40.66,0,0,1-3.2,4.51A16.12,16.12,0,0,1,303.72,365.44Z"/>
      <path class="cls-1" d="M299.58,381.85c0-.36.11-1.31.25-2.26.44-3,.9-5.93,1.42-9.3,4.69,2.42,7.54-.12,10.39-3,3.48-3.54,7.2-5.73,12.42-2.83,3.21,1.79,7.18.44,9.37-2.45,3.7-4.87,8.48-6.86,14.71-5.66-1.89,4.6-3.76,9.11-5.58,13.63a32.51,32.51,0,0,0-2,5.73c-.41,2.13-1.57,2.21-3.15,1.72a13.31,13.31,0,0,1-2.34-1.14,12.84,12.84,0,0,0-15.27,2c-2.93,2.8-6.62,3.39-10.52,3.35C306.15,381.6,303,381.76,299.58,381.85Z"/>
      <path class="cls-1" d="M338.64,383.83c-.38,5.43-.62,10.16-1.16,14.86-.09.71-1.58,1.71-2.51,1.8-9.32,1-18.49.27-27-4.08-2.41-1.24-4.24-3.71-6.14-5.8a2.59,2.59,0,0,1,0-2.51,5.39,5.39,0,0,1,3.15-.79,6.8,6.8,0,0,1,2.37,1.06,6.44,6.44,0,0,0,7.9-1.46c3.74-3.91,3.76-3.94,8.24-1.49a7.39,7.39,0,0,0,7.92-.06C333.43,384.27,336,384.34,338.64,383.83Z"/>
      <path class="cls-1" d="M445.82,505.52c-6.8,5.85-13.81,11.77-23.19,13.93a7.58,7.58,0,0,1-3.35,0c-9.39-2.16-16.39-8.08-23.19-13.93,1.78-5.32,17.06-9.52,24.87-8.69C428.74,496,444,500.2,445.82,505.52Z"/>
      <path class="cls-1" d="M187.83,506.3c-.44,5.61-1.75,10-5.59,13.24s-8.56,2.45-11.1-2c-3.25-5.63-1.59-15.09,3.38-19.33,4.43-3.78,9.56-2.72,11.86,2.63A33,33,0,0,1,187.83,506.3Z"/>
      <path class="cls-1" d="M378.34,391.22c-5.36,0-10.35-4.53-10.36-9.49,0-4.37,3.89-8,8.65-8.08,5.51-.07,10.45,4.28,10.52,9.24C387.21,387.37,383.17,391.19,378.34,391.22Z"/>
    </g>
    <g>
      <path class="cls-1" d="M728.92,535c-3.61,13.69-10.86,25.58-22.18,33.77-18.91,13.69-40.31,17-63,11.3-18.27-4.63-34.21-13.32-46.11-28.33-5.1-6.42-8.93-13.54-10.2-21.84q-2-12.81-4-25.64-4.17-26.69-8.39-53.37c-2.66-16.81-5.34-33.64-7.91-50.48-1.48-9.79-3.19-19.52-3.39-29.55a154.47,154.47,0,0,0-5.66-39.46c-7.44-26.06-21.69-47.41-43.36-63.8-26.74-20.26-56.92-29.67-90.3-29.33-1.13,0-2.4,0-3.54,0s-2.42,0-3.54,0c-33.38-.34-63.59,9.07-90.33,29.33-21.67,16.39-35.92,37.74-43.36,63.8a155.8,155.8,0,0,0-5.66,39.46c-.2,10-1.91,19.76-3.39,29.55-2.57,16.84-5.25,33.67-7.89,50.48q-4.2,26.69-8.41,53.37-2,12.81-4,25.64c-1.24,8.3-5.1,15.42-10.2,21.84-11.9,15-27.84,23.7-46.11,28.33-22.62,5.74-44.05,2.39-63-11.3C123.83,560.57,116.58,548.68,113,535c-4.07-15.39-4.29-30.77,1.25-45.94,2.68-7.32,6.85-13.72,11.56-19.87,5.88-7.66,12.76-14.17,21.28-18.73,21.62-11.6,45.75-4.79,58.34,16.37a50.23,50.23,0,0,1,7.37,22.23,33.94,33.94,0,0,1-4.15,18.86c.78-6.32.71-12.62-1.53-18.72-5.49-15-21.53-21.57-36.63-15.08-16.64,7.18-27,25.89-22.77,43.53,3.52,14.6,11.67,25.94,27.38,29.6,9.05,2.13,17.64.15,25.7-4,15.49-8.05,25.23-21.28,32.11-36.92,3.58-8.12,4.46-16.86,5.83-25.47,2.9-18.45,5.71-36.92,8.56-55.39,1.64-10.78,2.64-21.72,5-32.31,3.08-13.49,2.59-27.23,4.45-40.77,8.39-61.51,47.48-109.31,108.85-124,15.42-3.66,41.64-6.55,55.32-6.55,13.23,0,39.91,2.89,55.33,6.55,61.37,14.65,100.46,62.45,108.85,124,1.86,13.54,1.37,27.28,4.45,40.77,2.44,10.59,3.41,21.53,5.07,32.31q4.25,27.7,8.54,55.39c1.37,8.61,2.25,17.35,5.83,25.47,6.91,15.64,16.62,28.87,32.14,36.92,8.05,4.2,16.62,6.18,25.67,4,15.74-3.66,23.89-15,27.37-29.6,4.23-17.64-6.1-36.35-22.76-43.53-15.1-6.49-31.11.1-36.63,15.08-2.24,6.1-2.31,12.4-1.53,18.72a33.94,33.94,0,0,1-4.15-18.86,50.23,50.23,0,0,1,7.37-22.23c12.61-21.16,36.72-28,58.34-16.37,8.54,4.56,15.42,11.07,21.28,18.73,4.71,6.15,8.88,12.55,11.56,19.87C733.21,504.22,733,519.6,728.92,535Z"/>
      <path class="cls-1" d="M634,586.33c-16.29-4.84-30.16-13.32-43-23.91-11.63-9.59-21.29-20.68-26.49-34.89-2.47-6.75-3.43-14.11-4.54-21.28-2.48-15.87-4.63-31.79-6.88-47.69s-4.43-31.63-6.65-47.44c-.71-5.09-1.47-10.18-2.23-15.44-11.76,10.82-25.13,13.8-39.55,10.19-2.31,9.09-4.67,18.28-6.94,27.48a11.93,11.93,0,0,0-.32,4c1.38,12.59,2.87,25.16,4.27,37.75,1.32,11.81,3,23.6,3.79,35.45,1.39,21,7.16,40.08,21.11,56.25,8.36,9.7,18.61,16,31.3,18.26,20.06,3.59,40.24,4.12,60.51,2.83C623.61,587.59,628.8,586.87,634,586.33Z"/>
      <path class="cls-1" d="M688.51,518.62c-6.3,21.3-25.57,30.06-45.14,19.67-16.23-8.59-26.67-22.52-31.16-39.85-4.12-15.91-5.81-32.48-8.42-48.8-2.56-16-4.95-32.11-7.34-48.19-1.35-8.86-3.32-17.72-3.59-26.6a191.48,191.48,0,0,0-7.22-46.48C576,294.09,557.55,265.85,528,245.46c-27.36-18.94-58.2-26.7-91.07-27.48-5.22-.12-10.59-.31-16-.31s-10.8.19-16,.31c-32.87.78-63.69,8.54-91.07,27.48-29.5,20.39-47.94,48.63-57.61,82.91A191.48,191.48,0,0,0,249,374.85c-.24,8.88-2.24,17.74-3.56,26.6-2.42,16.08-4.81,32.16-7.37,48.19-2.61,16.32-4.27,32.89-8.42,48.8-4.46,17.33-14.93,31.26-31.13,39.85-19.6,10.39-38.85,1.63-45.17-19.67-5.27-17.86,7.56-36.92,22.69-40.8,13.91-3.56,26.57,5.49,27.55,19.91a32.38,32.38,0,0,1-4.24,19.11,14.2,14.2,0,0,1-12.45,7.42,5.43,5.43,0,0,1-.85-.15c-.05,0-.1-.15-.3-.41a22.6,22.6,0,0,0,7.08-13.86,18.34,18.34,0,0,0-3.73-14.57c-4.18-5.25-10.89-6.1-16.47-2.32-9,6.1-11.81,19.33-5.49,28.16,4.29,5.95,10.85,8.37,18,8.88,12.57.93,21.09-5.46,27.19-15.76,5.27-8.93,7.66-18.79,8.95-29,1.17-9.44,2.86-18.84,4.27-28.28,2.27-15.2,4.59-30.4,6.74-45.65,1.39-9.91,2.66-19.86,3.71-29.82.61-6,.58-12.08,1-18.11,1.36-22.13,5.59-43.75,14.52-64,15.42-35,39.09-62.76,73.88-80a173.86,173.86,0,0,1,57.93-16.74,331,331,0,0,1,37.68-1.88,331.77,331.77,0,0,1,37.72,1.88,173.89,173.89,0,0,1,57.9,16.74c34.79,17.2,58.46,44.94,73.88,80,8.93,20.27,13.16,41.89,14.52,64,.37,6,.34,12.11,1,18.11,1,10,2.29,19.91,3.71,29.82,2.14,15.25,4.44,30.45,6.73,45.65,1.39,9.44,3.08,18.84,4.27,28.28,1.27,10.25,3.66,20.11,9,29,6.07,10.3,14.61,16.69,27.15,15.76,7.11-.51,13.69-2.93,18-8.88,6.32-8.83,3.54-22.06-5.49-28.16-5.58-3.78-12.27-2.93-16.47,2.32a18.48,18.48,0,0,0-3.71,14.57,22.47,22.47,0,0,0,7.06,13.86c-.2.26-.22.39-.3.41a5.05,5.05,0,0,1-.85.15,14.2,14.2,0,0,1-12.45-7.42,32.38,32.38,0,0,1-4.24-19.11c1-14.42,13.64-23.47,27.55-19.91C681,481.7,693.8,500.76,688.51,518.62Z"/>
      <path class="cls-1" d="M489.89,362.46a53.09,53.09,0,0,0-20.11-5.74c-14.42-1-27.18,2.83-36.82,14.3-1.51,1.83-3.17,4.27-3.22,6.44a147.62,147.62,0,0,0,.81,21.87c1.27,9.88,3.41,19.66,5.24,29.74-4.41,3-8.5,10-14.83,10s-10.45-6.95-14.86-10c1.83-10.08,4-19.86,5.24-29.74a145,145,0,0,0,.81-21.87c0-2.17-1.71-4.61-3.22-6.44-9.62-11.47-22.38-15.25-36.82-14.3A53,53,0,0,0,352,362.46c9.13-23.67,38.73-53.42,68.94-54C451.14,309,480.74,338.79,489.89,362.46Z"/>
      <path class="cls-1" d="M555,342l-15.3,4.47c1.4,5.14,3.29,10.66,4.35,16.33,2.2,11.73,4.1,23.53,5.87,35.34,2.41,16.08,4.59,32.19,6.87,48.28,2.41,17.06,4.7,34.14,7.27,51.18,1.37,9.11,2.31,18.45,5.09,27.16,3.77,11.86,11.39,21.58,21,29.61a23.26,23.26,0,0,0,4.75,3.55c-2.25-3.25-5-6.27-6.63-9.8-2.45-5.24-5-10.69-6-16.32-4.85-29.37-9.14-58.82-13.71-88.24C565.42,423,562,402.59,559,382.08c-.88-6-.28-12.28-.89-18.38C557.32,356.29,556,348.94,555,342Z"/>
      <path class="cls-1" d="M501.21,303.11a20.16,20.16,0,0,1-14.22-4c-4.13-3.08-8.72-3.86-13.82-3a13.89,13.89,0,0,1-7.12-.63c-4.88-1.93-9.44-1.42-14.2.19a11.58,11.58,0,0,1-5.69.44,19.49,19.49,0,0,0-13.27,1.81q-4.14,2.19-8.35,4.17A8.59,8.59,0,0,1,421,303a8.74,8.74,0,0,1-3.61-.93q-4.22-2-8.32-4.17a19.59,19.59,0,0,0-13.3-1.81,11.45,11.45,0,0,1-5.66-.44c-4.79-1.61-9.35-2.12-14.23-.19a13.86,13.86,0,0,1-7.12.63c-5.1-.88-9.69-.1-13.82,3a20.14,20.14,0,0,1-14.2,4c23-19.78,49.46-30.35,80.26-29.2C451.73,272.76,478.18,283.33,501.21,303.11Z"/>
      <path class="cls-1" d="M424.87,243.59c2.59,8,3.46,15.81,1.54,24a130.32,130.32,0,0,1,40.28,8.21c1.51-8.73,4.71-16.42,11.1-23A142.73,142.73,0,0,0,424.87,243.59Z"/>
      <path class="cls-1" d="M476.74,279.35c5.54,3.11,10.93,5.81,16,9.06s9.73,7,14.06,10.19l16.83-15.3a122.44,122.44,0,0,0-37.58-27A46.12,46.12,0,0,1,476.74,279.35Z"/>
      <path class="cls-1" d="M528.54,336.81c-2.34-3.77-4.43-7.37-6.79-10.79-.56-.81-1.94-1.2-3-1.49-6-1.65-10.92-4.62-14.53-10-1.1-1.64-4.11-2.38-6.37-2.78-3.64-.65-6.89-1.43-9.36-4.59-2.23-2.85-5.84-3.32-9.07-2.81-4.75.74-9.11.59-13.58-1.45-5.25-2.4-10.5-2.91-15.6,1.17-2.16,1.73-5.24,2.31-7.71,3.33l11.7,6c6.42-1.85,11.11,3.25,16.84,4.15a8.21,8.21,0,0,0,3.95-.18,10.14,10.14,0,0,1,9.22.94c2.41,1.45,4.65,3.19,6.91,4.87,2.91,2.16,5.82,3.55,9.71,2.52,4-1.07,6.47,2,8.75,4.64,2.58,3,5.47,5.31,9.48,5.77C522.05,336.49,525.07,336.58,528.54,336.81Z"/>
      <path class="cls-1" d="M530,290.73c-4.41,6.25-9.14,11.6-16.41,14.95,9.34,9.46,17.19,19.83,22,31.81l16.44-4.85A126.66,126.66,0,0,0,530,290.73Z"/>
      <path class="cls-1" d="M538.18,365.44c-.84-11.71-4.66-19.93-14.78-21.54-6.16-1-11-2.76-15.17-7.18-2.47-2.61-5.66-3.25-9.36-2.12a10.2,10.2,0,0,1-11.14-3.08c-4.19-4.55-9.52-5.53-15.44-4.45,3.89,4.7,7.86,9.2,11.46,14a7.87,7.87,0,0,0,6.4,3.51,18.16,18.16,0,0,1,8.18,3.25c2.91,1.94,5.46,2.83,8.51.67,2-1.41,3.46-.27,4.83,1.14,2,2.09,3.92,4.33,6.12,6.23s5,2.8,8.06,1.17c2.23-1.18,4.15-.24,5.56,1.73a38.19,38.19,0,0,0,3.2,4.51A15.89,15.89,0,0,0,538.18,365.44Z"/>
      <path class="cls-1" d="M542.32,381.85c0-.36-.11-1.31-.25-2.26-.44-3-.91-5.93-1.42-9.3-4.69,2.42-7.54-.12-10.39-3-3.49-3.54-7.2-5.73-12.42-2.83-3.21,1.79-7.18.44-9.38-2.45-3.7-4.87-8.47-6.86-14.71-5.66,1.89,4.6,3.77,9.11,5.59,13.63a32.51,32.51,0,0,1,2,5.73c.41,2.13,1.57,2.21,3.15,1.72a13.22,13.22,0,0,0,2.33-1.14,12.85,12.85,0,0,1,15.28,2c2.93,2.8,6.61,3.39,10.51,3.35C535.75,381.6,538.87,381.76,542.32,381.85Z"/>
      <path class="cls-1" d="M503.25,383.83c.39,5.43.62,10.16,1.17,14.86.08.71,1.58,1.71,2.5,1.8,9.32,1,18.5.27,26.95-4.08,2.42-1.24,4.25-3.71,6.15-5.8a2.57,2.57,0,0,0,0-2.51,5.36,5.36,0,0,0-3.15-.79,6.84,6.84,0,0,0-2.36,1.06,6.45,6.45,0,0,1-7.91-1.46c-3.73-3.91-3.75-3.94-8.23-1.49a7.39,7.39,0,0,1-7.92-.06C508.47,384.27,505.88,384.34,503.25,383.83Z"/>
      <path class="cls-1" d="M654.07,506.3c.43,5.61,1.74,10,5.59,13.24s8.55,2.45,11.1-2c3.24-5.63,1.59-15.09-3.38-19.33-4.44-3.78-9.56-2.72-11.86,2.63A33,33,0,0,0,654.07,506.3Z"/>
      <path class="cls-1" d="M463.55,391.22c5.37,0,10.35-4.53,10.37-9.49,0-4.37-3.9-8-8.65-8.08-5.51-.07-10.45,4.28-10.52,9.24C454.69,387.37,458.73,391.19,463.55,391.22Z"/>
      <path class="cls-1" d="M442.58,474.89c-6.32,5-14,6-21.62,6s-15.33-1-21.62-6c3.8-3.68,13.56-4.92,21.62-4.92S438.74,471.21,442.58,474.89Z"/>
    </g>
  </g>
</svg>
