<svg id="Livello_1" data-name="Livello 1" xmlns="http://www.w3.org/2000/svg" viewBox="0 0 841.89 841.89">
  <defs>
    <style>
      .cls-1 {
        fill: #231f20;
      }
    </style>
  </defs>
  <title>Glos</title>
  <g>
    <path class="cls-1" d="M383,410.75c2.22-2.86,7.1-1.46,10.63-2.29,6.57-1.56,10.86-5.75,13.18-12a39.19,39.19,0,0,0,2.53-12.83c.57-20.79,2.88-41.52,2.28-62.36-.15-5.44,1.05-10.91-.5-16.3,0-.15-.48-.29-.72-.26s-.92.16-1,.37a18.33,18.33,0,0,0-1.06,4.18q-.66,10.92-1.11,21.86c-.77,18.6-1.71,37.19-2.14,55.8-.15,6.89-3.88,14.7-13.48,18-7,2.44-13.7.65-19.56-3.85a30.71,30.71,0,0,1-7.79-9.1c-2-3.47-5.52-17-10.9-15.72-2.14.5-.14,4.85.29,5.85.36.83.22,1.48-.5,1.85a1.14,1.14,0,0,1-1,.05c-2.46-1.53-47.76-28.64-56.18-31.22-1.84-.56-2.24-2.75-1-4.44,3.48-4.56,25.15-19.66,36.63-25.35,2.18-1.08,3.38-.68,5.46,1.8.46.54,2.22,3,3.95,1.84,2.14-1.45.47-4,0-5.35-4.43-12.19-7.74-82.9,42-139.52,5.34-6.07,10.23-12.35,16.31-17.65a2.32,2.32,0,0,0,.54-3,3.17,3.17,0,0,0-3.7-1.39c-2,1-3.64,2.83-5.9,3.81-1.45-1.81-11-14.1-14.33-18-4.62-5.45-16.16-12.15-28.55-15.14-6.74-1.63-11.54-6-15.33-11.64-2.83-4.25-5.87-8.36-8.77-12.56-.91-1.34-.54-2.73.09-4.12A15.77,15.77,0,0,1,329.92,95c10.21-6,21-8.29,32.47-4.07a20.81,20.81,0,0,1,9.12,5.84c2.26,2.7,2.55,4.14-.81,5.9-6.76,3.54-6.12,10,4.11,12,11.48,2.17,49,18.41,56.09,23.63,3.54,2.6,6.88,5.42,9.16,9.28a7.45,7.45,0,0,1,1,6.22c-5,17.23-12.19,33.57-20.19,49.56-2.45,4.89-5.11,9.69-7.95,14.35-7,11.52-12.78,21.75-20.48,33.16-.59.87-2.44,2.78-.92,4.31,2.07,2.08,3.92-1,4.7-2.22,3-4.56,11.17-19.55,12.55-19.91,1.65-.43,5.37,16.48,6.7,21.78.72,2.83,1.4,5.66,2,8.52,3,14.83,10.67,27,21.69,37.15a14.92,14.92,0,0,0,1.65,1.44c3.28,2.24,3.31,5.05,2.25,8.63-2.47,8.39-4.55,16.9-6.74,25.37a20.69,20.69,0,0,0-.65,4.29c0,.61.43,1.65.88,1.77s1.37-.34,1.87-.8a4.26,4.26,0,0,0,1.1-1.84c3.45-11.14,6.82-22.31,10.32-33.44a9.7,9.7,0,0,0-.27-7.43q-2.34-4.94-4.88-9.77c-1.54-2.89-3.19-5.73-4.83-8.57s-1.07-5.76.79-8.18c2.89-3.75,6.08-7.27,9.17-10.86,2.94-3.42,6.25-5.93,11.14-6,3.51-.06,5.94-2.6,8-5.21s3.87-5.3,5.91-7.85c1.36-1.7,2.63-3.8,4.45-4.72,4.36-2.2,6.65-6.73,10.93-9a17,17,0,0,0,5.22-3.9,48.83,48.83,0,0,1,11.18-10.16c4.81-3.1,6.8-8.52,7.68-14a40.65,40.65,0,0,0-1.6-19.42c-3.29-10-8.57-18.46-16.73-25.14-4-3.27-8.62-5.45-13.21-7.66-2.61-1.26-5.44-2.07-8.14-3.17q-4.55-1.89-9-3.94c-4.9-2.24-7-5.72-6.1-11.39a29.8,29.8,0,0,0-4.68-22.12c1.54-.78,17-3.09,23.9-1.59a18.07,18.07,0,0,1,6.94,3.08c2.74,2,4.65,4.57,4.68,8.22.08,8.52-.83,15.28,9.79,16.23a3.57,3.57,0,0,1,3.2,3.69c-.23,8.66,2.91,17.37,6.54,24.7,2.91,5.88,26.75,45.85,16.59,72.58-8.09,21.28-58.19,80.73-60.14,80.06-3-1,2.22-25.46,2.63-32.92.05-.9.16-3.69-1.78-4s-2.61,3.07-2.81,4.12c-3.8,19.69-14.35,155.71-44.15,152.06-3.55-.44-5.16-6.61-3.17-9.18A229.07,229.07,0,0,0,434,399c3.09-5.35,5.38-9,7.33-15.29.07-.26.8-2-.08-2.39-1.94-.86-2.44,1.29-2.83,2.23-4.94,11.87-12.17,22.4-19.23,33-1.83,2.74-5.78,10.91-13.84,7.79-8.24-3.2-24.24-11.2-22.39-13.58"/>
    <path class="cls-1" d="M445.73,519.11c-.53.91-2.29.55-3.13.16-2.61-1.22-4.76-3.22-7.67-4-6.28-1.8-12.3-.69-18.25,1.26a38,38,0,0,0-11.47,6.25Q403,524.4,401,526.21a18.14,18.14,0,0,1-13,4.7c-11.3-.26-22.61-.13-33.92-.3-3.63-.06-7.27-.47-10.89-.85a16.87,16.87,0,0,1-8.83-4c-.91-.73-1.3-2.14-.67-2.76a4.6,4.6,0,0,1,.77-.76c5.31-2.94,7.22-8,8.29-13.5a41.91,41.91,0,0,0,.68-6.52q1.51-37.72,2.95-75.44a21.81,21.81,0,0,0-.22-4.35c-.07-.42-.91-.78-1.47-1-.17-.07-.7.34-.82.63a6.49,6.49,0,0,0-.55,2.06c-.61,9.83-1.25,19.66-1.75,29.49-.83,16.76-1.66,33.52-2.29,50.28a19.1,19.1,0,0,1-6,13.6,12.65,12.65,0,0,1-9.88,3.88c-1.09-.06-2.18-.15-3.28-.22-8.74-.48-17.47-.88-26.2-1.46-8-.53-16-1.23-24-1.9a3,3,0,0,1-2.63-3c.09-4.37,3.95-80.12,5-100.51.09-1.82.07-5.43-1.88-5.47-1.71,0-2,2.11-2,3.14-.54,6.18-5.82,93.29-6.43,100.57-.28,3.44-5.37-.06-6.19-.71-6.53-5.3-21.9-15.08-22.52-15.47-11-6.92-14.34-17.92-11.34-30.48a78,78,0,0,1,8.69-21.17c3.49-6,54.32-78.8,57-82.68s3.94-5.32,10.13-3.05c4.46,1.64,56,35.16,65.69,41a31.94,31.94,0,0,1,9.8,8.57c8.06,11.28,33.49,17.92,37.19,21.81,7,7.36,7.74,33.73,11.74,43.21a131.79,131.79,0,0,0,8.85,17.56c5.52,9,18.62,21.13,14.68,28"/>
    <path class="cls-1" d="M610,594.13c-.67.79-1,1.6-1.6,1.82-4.26,1.55-6.31,4.71-7,9a17.36,17.36,0,0,1-.51,2.13c-.41,1.44-1.07,2.86-2.5,3.41-4.95,1.93-7.23,5.83-8.36,10.72a18,18,0,0,1-1.37,3c-1.22.71-2.45,1.46-3.72,2.16a9.74,9.74,0,0,0-4.64,5.83c-.34,1-.49,2.13-.73,3.2A29.6,29.6,0,0,1,572.89,649a29.54,29.54,0,0,0-7.6,23.1c-1.84,2.87-5.77,3.52-6.85,6.94-.87,2.76-1.69,5.54-2.48,8.12a14.85,14.85,0,0,1-2,1.34,11.76,11.76,0,0,0-7,7.85c-.63,2.08-1.54,4.06-2.22,5.81a12.18,12.18,0,0,1-2.14,1.34,9.58,9.58,0,0,0-6.32,7c-.7,2.46-1.27,5-1.88,7.43-1.16,4.85-4.24,8.38-7.92,11.47a4.15,4.15,0,0,1-2,.5,2.34,2.34,0,0,1-1-.25c-3-1.23-6-2.57-9.12-3.67s-6.24-2-9.14-2.87a4,4,0,0,1,.6-4.26A31,31,0,0,0,510,709a24.73,24.73,0,0,1,3.85-2.28c4.51-1.62,7.54-4.23,7.66-9.46,0-1.88,1.47-3.29,3.1-4.26,2.89-1.73,5.28-3.68,5.92-7.36.21-1.2,1.7-2.28,2.8-3.18s2.6-1.39,3.65-2.35c.72-.64,1.55-2,1.33-2.68-.84-2.77-.09-4.85,1.72-7a17.63,17.63,0,0,0,4.12-7.61c.32-1.42-1.72-4-3.18-3.83-3.35.34-6.56,1.32-8.79,3.88a16.3,16.3,0,0,1-9.13,5.39c-1.82.41-3.08,1.82-4.21,3.31-1.25,1.67-1.27,4.24-3.66,5.07a5.67,5.67,0,0,1-.23-5.26c3.54-8.74,9.09-15.77,17.68-20,2.93-1.46,5.92-2.83,9-4.05a10.24,10.24,0,0,0,4.87-4.21,49.45,49.45,0,0,0,3.34-5.64,36.25,36.25,0,0,0,1.6-5.18c2.67-1.45,5.28-2.74,7.76-4.25a6.46,6.46,0,0,0,3.49-5.25,8,8,0,0,1,4.3-7.09c1.52-.87,2.69-2.37,4-3.59.4-4.71,4.08-6.52,7.52-8.61,2-1.19,1.53-3,.86-4.81-.11-.32-.15-.68-.28-1.29,1.35-1.93,2.87-4,4.23-6.13a28.74,28.74,0,0,0,1.91-3.9,3.25,3.25,0,0,0-.91-4,5,5,0,0,0-3-.85,12.47,12.47,0,0,0-6.93,3,40.79,40.79,0,0,0-3.06,3.11c-2.46,2.83-5.88,2.47-9.08,2.75-.36,0-1.12-1-1.17-1.6a12.78,12.78,0,0,1,4.88-11.59,46.92,46.92,0,0,1,8.4-5c2.6-1.29,5.46-2,8.1-3.26a8.47,8.47,0,0,0,3.4-2.63c1.85-2.68,4.07-5.4,4.84-8.43a8,8,0,0,1,5.45-6.12,12.6,12.6,0,0,0,3.76-2.17,12.25,12.25,0,0,0,2.61-3.36,11.07,11.07,0,0,0,.83-3.16,6.81,6.81,0,0,1,3.61-5.18,9.41,9.41,0,0,0,5.25-6.6c.68-2.83,3.32-3.73,5.41-5.09,1.68-1.1,2.8-2.41,2.35-4.45a6.22,6.22,0,0,1,1.16-5.11c1.63-2.4,3.15-4.88,4.61-7.39A5,5,0,0,0,626,508c0-1.54-2.39-3.45-3.84-3.1A17.47,17.47,0,0,0,612,511a6.63,6.63,0,0,1-4.62,2.5,8.94,8.94,0,0,0-7.77,6.75c-.52,1.8-1.08,3.48-2.92,4.33-4,1.85-5.89,5.22-6.72,9.38a38.12,38.12,0,0,1-1.19,3.95,11.5,11.5,0,0,1-2,1.4,11.52,11.52,0,0,0-7.09,7.79c-.62,2.07-1.55,4.06-2.31,6a32.22,32.22,0,0,1-3,1.59,9,9,0,0,0-5,5.47,20.83,20.83,0,0,0-.85,3.17A27.06,27.06,0,0,1,563,575.09c-4.81,5.66-6.29,12.18-5.19,19.43.28,1.78.27,3.61.38,5.16-1.88,3.19-6,3.52-7.13,7-.86,2.76-1.7,5.52-2.56,8.29-.22.25-.4.65-.69.76a14.18,14.18,0,0,0-9.37,11.2,5.53,5.53,0,0,1-4,4.72c-3.1.93-4.57,3.46-5.71,6.21a10.51,10.51,0,0,0-.93,3.13c-.43,6.19-3.41,11-7.73,15.23a37.66,37.66,0,0,0-7.24,10.89,34.77,34.77,0,0,0-2.37,7.25c-.65,2.82.34,5.78-.77,8.65-1.06,2.69-1.73,5.53-2.78,9-.37.88-2,.92-3.24,1.64a11.93,11.93,0,0,0-5.55,6.51c-.46,1.38-1,2.75-1.35,4.16a4.83,4.83,0,0,1-3.46,3.83c-3.11.81-4.46,3.56-6.43,5.64a2.2,2.2,0,0,1-2,.55c-6.69-3.18-12.65-7.22-15.41-14.57a3,3,0,0,1,0-1.11c2.21-2.26,5.49-3.7,5.76-7.53.12-1.56,1.39-2.51,2.62-3.32s2.54-1.43,3.72-2.26a3.85,3.85,0,0,0,1.43-4.79,8.71,8.71,0,0,1,0-2.38c1.52-2.19,3.3-4.51,4.77-7A14,14,0,0,0,489,667.2c.22-1.14-1.49-3-2.76-2.87A12.18,12.18,0,0,0,482,665c-1.94.92-4.13,2-5.38,3.6-3,4-6.81,5.06-11.49,4.43-2.26-2.68-1.76-5.36.23-7.89a27.21,27.21,0,0,1,8.46-6.84c2.88-1.56,5.74-3.39,8.85-4.25,7.15-2,10.67-7.06,12.74-13.63.22-.7.42-1.39.68-2.07a8.83,8.83,0,0,1,.76-1.19,42.51,42.51,0,0,1,4.5-2.46c4.09-1.66,6.66-4.33,6.76-9a4.72,4.72,0,0,1,2.11-3.66c1.15-.89,2.52-1.51,3.57-2.49s2.29-2.13,2.53-3.39c.62-3.27,2.62-5.06,5.37-6.38a10.71,10.71,0,0,0,1.83-1.17,3.24,3.24,0,0,0,1.19-3.83c-.21-.69-.29-1.42-.5-2.49,1.5-2.15,3.26-4.44,4.75-6.9a14.46,14.46,0,0,0,1.33-4.11,3,3,0,0,0-3-3.59,12.19,12.19,0,0,0-4.23.81,16.79,16.79,0,0,0-5.3,3.74c-2,2.37-4.08,3.91-7.27,4.2s-4.88,3-6.26,5.57c-.68,1.26-.89,2.77-1.53,4.06-.14.28-1.21.19-1.82.11-.27,0-.56-.49-.69-.81a1.7,1.7,0,0,1-.06-1.07c4.23-14.89,13.05-25.85,27.49-31.94,2-.85,4.16-1.41,6.12-2.37a8.82,8.82,0,0,0,3.37-2.65c1.85-2.68,4-5.41,4.87-8.45a8.42,8.42,0,0,1,5.46-6.13,21.79,21.79,0,0,0,3.8-2.12,5.6,5.6,0,0,0,2.87-4.42,8.87,8.87,0,0,1,5-7.9,8.4,8.4,0,0,0,4.32-5.95A6.91,6.91,0,0,1,566,529a57,57,0,0,1,5.32-3.38c-.24-3.64-.59-6.83,2.16-9.45,1.27-1.22,2-3,2.91-4.6a4.35,4.35,0,0,0,.82-2,7.45,7.45,0,0,0-.75-3.05,3.26,3.26,0,0,0-3.78-1.38c-2.3,1.07-5.06,1.78-6.7,3.51a20.11,20.11,0,0,1-10.05,5.88c-2.47.65-4.21,2.87-5,5.47a8.67,8.67,0,0,1-4.59,5.72c-3.21,1.6-4.53,4.75-5.1,8-.54,3.1-1.41,5.37-4.8,6.5-2.41.81-4,3-4.93,5.58s-1.79,4.75-2.67,7c-8.12,4.94-7.35,3.36-9.54,12.25-1.29,5.23-3.38,9.52-7.49,12.92A36.29,36.29,0,0,0,508,582a49.55,49.55,0,0,0-12.58,27.39c-.39,3.26-.75,6.52-1.1,9.49-.66.8-1,1.58-1.59,1.83-5.9,2.59-8.93,7.25-9.62,13.47a16.38,16.38,0,0,1-2.75,2c-4.46,1.91-6.72,5.4-7.49,10-.12.72-.18,1.45-.3,2.17-1,5.77-4.23,10-9.13,13a2.1,2.1,0,0,1-2.81-.7,95.51,95.51,0,0,0-6.61-11.3c-2.36-3.36-2.48-7.53-2.73-11.32,1.17-2.93,3.9-3.4,6.05-4.64,2.67-1.54,4.54-3.63,4.63-6.92.09-2.85,1.67-4.68,4.07-6a9.26,9.26,0,0,0,5.05-6.71c.22-1.2,1.66-2.32,2.76-3.2,1.68-1.33,3.56-2.42,5.19-3.51-.25-3.17-1.59-6,1.38-8.39,1.35-1.09,2.19-2.89,3.05-4.49a11.9,11.9,0,0,0,.89-3.13,3.14,3.14,0,0,0-3-3.65,10.73,10.73,0,0,0-8,3c-2.86,2.86-5.54,5.65-9.95,6.06-1.81.16-3.14,1.79-4.05,3.42a20.44,20.44,0,0,0-1.74,4c-.59,1.94-2,2.78-3.67,3.69s-2.66,2.39-4.09,3.46a3.43,3.43,0,0,1-2,.21c-.19,0-.47-.53-.48-.84-.26-4-.49-8-.69-11.48A68.11,68.11,0,0,1,473,577.35c2-.9,4.1-1.55,6-2.56a9.92,9.92,0,0,0,3.31-2.71,44.64,44.64,0,0,0,4-6.48,38.12,38.12,0,0,0,1.84-5.45c2.37-1.28,5-2.57,7.45-4.06,1.93-1.15,3.51-2.76,3.54-5.2,0-3.74,2-6,5.15-7.73,1.22-.67,2.95-1.85,3.05-2.93.5-5.32,5.09-6.71,8.32-9.42a4.28,4.28,0,0,0,.64-.86c0-2.79-1.17-5.7,1.62-8.09,1.33-1.14,2.14-2.93,3-4.51a16.12,16.12,0,0,0,1.07-3.09c.49-1.56-1.32-3.69-3.07-3.68a11.11,11.11,0,0,0-7.15,2.29,29.24,29.24,0,0,0-3.95,3.75,6.88,6.88,0,0,1-4.69,2.47,8.21,8.21,0,0,0-7.25,5.82,10.17,10.17,0,0,1-5.34,6.44c-1.45.71-2.57,2.59-3.27,4.19a65.8,65.8,0,0,0-2.27,7.61c-1,.59-2.23,1.33-3.49,2a11.37,11.37,0,0,0-5.48,6.56c-.61,1.71-1,3.53-1.74,5.16a4.4,4.4,0,0,1-2.26,2.14,10.57,10.57,0,0,0-7.34,8.82c-1,7.5-5.19,12.65-10.7,17.15-1.42,1.15-2.79,2.35-4.29,3.4a3.51,3.51,0,0,1-2,.38c-.89,0-1.26-.59-1.32-1.47-.18-2.91-.58-5.81-.58-8.72,0-13.14.14-26.28.22-39.41,0-3,.45-5.73,2.43-8.21a13.74,13.74,0,0,0,3-5.75c.93-5.3,4.73-6.85,9.09-8.29a219.86,219.86,0,0,1,31.84-7.64c14-2.42,28.05-4.72,42.18-6.12,12-1.19,23.89-3,36-3,4.38,0,8.76-.26,13.12-.58,12.79-.95,25.53-.32,38.28.66a22.14,22.14,0,0,1,10.9,3.49c1,2.52,2.42,5.49,3.44,8.59,1.6,4.84,3,9.75,4.39,14.66,1,3.67,1.49,7-2.7,9.5-2.58,1.53-3.31,4.68-4.07,7.54a7.81,7.81,0,0,1-4.71,5.59c-3.31,1.38-5,4.13-5.62,7.56a26.11,26.11,0,0,1-8.19,15.1,18.4,18.4,0,0,0-2.78,3.37c-2.86,4.39-4.61,9.1-3.67,14.47.25,1.41.61,2.8.88,4"/>
    <path class="cls-1" d="M191.34,335.52a3,3,0,0,1-2.56-2.94c1.56-10.09,34.89-221.95,36.69-233.48.5-3.17,1.89-4.32,5.28-4s6.5.85,9.72,1.44a5,5,0,0,1,4,4.64,39.65,39.65,0,0,1,.16,5.45c-.1,2.29-.92,4.29-3.15,5.35a4.47,4.47,0,0,0-2.86,4.22c0,3.65-.13,7.3-.11,11q.42,97.47.86,195c0,3.65,0,7.3-.16,10.95a4,4,0,0,1-4.1,4.12c-3.29-.07-42.67-1.59-43.76-1.68"/>
    <path class="cls-1" d="M631,591.34c1.73-2.61,3.59-5.29,5.28-8.07a10.3,10.3,0,0,0,.87-3.12c.29-1.31-1-3.16-2.3-3.19a13,13,0,0,0-4.28.29,13.75,13.75,0,0,0-7,5c-2.23,3.24-5.44,3.22-8.75,3.15-.81,0-1.64-1.68-1.39-2.59A16.74,16.74,0,0,1,621,572.56a64.83,64.83,0,0,1,10.74-5.36c5-1.8,9.36-4,11.91-8.87a2.09,2.09,0,0,1,1.86-.6,2.31,2.31,0,0,1,1.47,1.42c1,6.11,4.27,32.89,4.91,40.16.15,1.81,0,3.64,0,5.77a21.12,21.12,0,0,0-7.16,11.77,5.21,5.21,0,0,1-3.5,3.86c-3.74,1.39-5.68,4.38-6.47,8.19-.3,1.42-.49,2.88-.89,4.28a21.12,21.12,0,0,1-5.29,9.44,31.48,31.48,0,0,0-4.33,4.92c-3.2,5-5.82,10.2-3.44,16.42a6.64,6.64,0,0,1,.22,2.15,7.56,7.56,0,0,1-.26,1.31c-.74.47-1.6,1.11-2.53,1.61a10.56,10.56,0,0,0-5.7,7.58c-.21,1.08-.45,2.15-.75,3.2a5.54,5.54,0,0,1-3.38,4c-4.16,1.63-6.05,5-7.06,9.1a8.33,8.33,0,0,1-5.43,6.35c-2.58,1-3.81,3.29-4.7,5.73a30.94,30.94,0,0,0-.73,3.2,24.16,24.16,0,0,1-4.51,9.86,32,32,0,0,0-2.46,3.62,34.92,34.92,0,0,0-5.41,23c.25,2.17.62,4.32.92,6.41a3.94,3.94,0,0,1-1,.72,12.41,12.41,0,0,1-3.11.81c-9.06.43-31.9-.14-38.22-.89-1.51-1.19-.52-2.66-.24-3.92,1.05-4.68.1-8.67-3.54-11.93a7.48,7.48,0,0,1-2.2-2.38,3.94,3.94,0,0,1,.23-3,14.61,14.61,0,0,1,6.51-5.68c3.91-1.95,7.89-3.75,11.9-5.5a9.54,9.54,0,0,0,4.15-3.42,44.49,44.49,0,0,0,3.5-5.54,56.72,56.72,0,0,0,2.17-6.27l5.79-2.87c2.77-1.37,4.77-3.38,5.14-6.59.41-3.59,2.31-6,5.44-7.65a6,6,0,0,0,2.8-3.16,10.68,10.68,0,0,1,6.1-7.26c2.88-1.36,3-3.83,2.41-6.51a4.8,4.8,0,0,1,.16-1.23c1.54-2.31,3.21-4.69,4.75-7.16a6.7,6.7,0,0,0,1.16-3,4.38,4.38,0,0,0-.86-3,3.6,3.6,0,0,0-2.77-1.25,15.64,15.64,0,0,0-8.73,4.19c-1.27,1.27-2.48,2.61-3.74,3.93-1.94.12-3.76.34-5.57.27-.39,0-1.15-1.11-1.05-1.55a20,20,0,0,1,9.25-13,59.09,59.09,0,0,1,10.69-5.44,17.58,17.58,0,0,0,9.07-7.35c1.9-2.81,2-6.48,4.08-8.74s5.52-3.35,8.25-5.13a6.3,6.3,0,0,0,2.63-4.65,9.48,9.48,0,0,1,5.31-7.73,6.15,6.15,0,0,0,2.87-3.14c1.08-3.85,3.51-6.17,7-7.85,1.77-.85,2.41-2.54,1.66-4.58a9.26,9.26,0,0,1-.15-2.32"/>
    <path class="cls-1" d="M390.55,576.3c-3.65-8.29-3.56-17-2.46-25.73.37-2.89,1.19-5.72,1.53-8.61.38-3.21,1.69-5.48,4.91-6.49,5-1.56,9.1-4.52,13.08-7.77a34.08,34.08,0,0,1,14.67-7,20.76,20.76,0,0,1,15.67,3,4.46,4.46,0,0,1,2.28,3.53,62.23,62.23,0,0,1,.2,6.55c-.17,5.83-.34,11.67-.68,17.5-1.29,22.65.17,45.21,2.57,67.72.74,6.87,2.25,13.67,3.39,20.49.18,1.08.28,2.17.44,3.25a3.19,3.19,0,0,1-2.34,3.2c-1.45.15-2.9.37-4.35.4-8.6.2-16.42,3-23.88,7-1.6.86-3.16,1.8-4.76,2.66a3,3,0,0,1-3.84-1c-1.42-2.11-2.89-4.21-4.1-6.43a83.87,83.87,0,0,1-8.14-23.72c-2.25-11.09-3.55-22.38-1-33.67a107.9,107.9,0,0,1,2.89-10.5c2.38-7.1,2.48-14.33,1.66-21.63a8.39,8.39,0,0,0-1.35-2.92c-.13-.23-.65-.2-1-.35-.85-.43-1.49-.19-1.57.81-.25,3.24-.36,6.5-.62,9.74a56.69,56.69,0,0,1-.78,6.51,4.43,4.43,0,0,1-2.47,3.45"/>
    <path class="cls-1" d="M272.53,650.34c-5.18-2.15-9.94-4-14.53-6.1s-10.08-1.65-14.26-5c-1.21-3.19-.56-6.47-.32-9.7.45-5.81,1-11.61,1.71-17.38a51.85,51.85,0,0,1,6.41-19.55,138.69,138.69,0,0,1,17.81-24.75,35.29,35.29,0,0,0,8.5-16.22c.91-3.89,1.57-7.84,2.42-11.75.76-3.54,1.51-7.1,2.51-10.59a4.31,4.31,0,0,1,2.25-2.13,7.45,7.45,0,0,1,3.19-.57c6.19,0,12.42-.42,18.54.19a56.66,56.66,0,0,1,24.51,8.53,5.21,5.21,0,0,1,2.64,5.51,56.68,56.68,0,0,1-12.22,26.45c-1.84,2.25-3.95,4.28-5.77,6.55-4.09,5.11-8.21,10.2-12,15.5a60.72,60.72,0,0,0-8.69,17.53c-1.09,3.47-2.42,6.86-3.54,10.32-3.73,11.56-9.87,21.84-16.87,31.64-.39.55-1.17.82-2.25,1.54"/>
    <path class="cls-1" d="M413.92,663.67a25.26,25.26,0,0,1,2.6-2,74,74,0,0,1,27.76-9.38,8,8,0,0,1,8.32,4.09,40.54,40.54,0,0,1,4.81,14.43c1.34,8.28,2.8,16.53,4.17,24.79,1.64,9.86,6.88,16.74,15,21.7a104.5,104.5,0,0,0,23.7,11.07c6.27,1.91,12.47,4,18.72,6a29,29,0,0,1,11.25,6.51,5.63,5.63,0,0,1-.19,8.61A9.68,9.68,0,0,1,524.2,752c-3.28.11-6.56.19-9.84.26l-17.5.34c-1.46,0-2.91.23-4.37.17-16.4-.7-32.79-1.35-49.19-2.21a25,25,0,0,1-10.55-2.51,13.88,13.88,0,0,1-7.7-10,56.37,56.37,0,0,1-.66-10.88,34.19,34.19,0,0,1,1.06-7.57c3.35-13.75.43-26.78-4.46-39.57-1.42-3.74-3.28-7.31-4.9-11-.73-1.64-1.35-3.34-2.17-5.37"/>
    <path class="cls-1" d="M421.26,264.15c-2.73-12-5.26-21.8-9.52-36-.73-2.4,4.05-7.08,6.23-10.42,5.6-8.57,16.15-32.56,17.38-35.19,1.08-2.31,2.9-2.81,5.41-1.64,4.42,2.07,14.73,6,18.53,6,7.84.1,14.78,3.44,21.75,6.7,7.95,3.72,20.89,17,14.5,24.7-1.07,1.45-3.5,4.66-5.6,4.47-.49,0-.62-.6-.64-.87-.21-2.18-.17-4.38-.52-6.53-1.4-8.6-7-14.33-15.67-15.95a21,21,0,0,0-5.38-.11,1.46,1.46,0,0,0-.23,2.85c1,.33,2.16.27,3.23.5a1.77,1.77,0,0,1,1.41,2.44c-.3,1-.89,2-1.08,3.06a4.45,4.45,0,0,0,4.45,5,75.39,75.39,0,0,0,7.74-1.54c3.33,3.28,2,14.31-.92,19.18a3.21,3.21,0,0,1-4.74.83c-1.18-.81-1.9-3-3.36-2.78a1.28,1.28,0,0,0-1,1.77c.53,1.32,1.11,2.65,1.64,4,.58,1.48-.52,3.37-2.37,2.36-2.85-1.57-5.3-3.26-8.33-5.07-.59-.34-1.32.56-1.13,1.24.54,1.89,2.14,2.87,3.57,3.94,3.6,2.69,2.69,4.59,1.25,7.57a12.7,12.7,0,0,1-7,6.58,8.43,8.43,0,0,1-6.34.08A27.73,27.73,0,0,1,443.24,243a63.8,63.8,0,0,1-9.92-15.63c-2.21-5-3.59-8.1-5.92-13-.13-.26-1-2.6-2.29-2.15-2,.66-.82,2.95-.59,3.61,5,14.25,12.72,26.16,23.3,37.6.84.91-.84,2.59-1.75,3.65-2.63,3-10,12.89-10.85,14.88a11.72,11.72,0,0,0,.1,9.58c1.5,3.31,9.68,12.79,6.59,14.86-2,1.33-17.64-18.92-20.65-32.24"/>
    <path class="cls-1" d="M586.79,752.54a5,5,0,0,1-3.83-3.46c-2-8.08-1.56-15.91,2.43-23.36a13.23,13.23,0,0,1,7-6.54c3.41-1.29,6.67-2.95,10.11-4.14a12.78,12.78,0,0,0,7.23-6.23c1.4-2.53,3.51-4.64,3.62-7.83a4.07,4.07,0,0,1,1.87-2.53,40.3,40.3,0,0,1,4.86-2.47c2.82-1.33,4.88-3.4,5.16-6.56.34-3.73,2.55-5.79,5.48-7.61a6.25,6.25,0,0,0,2.77-3.2c.94-4,3.69-6.05,7-7.78a3,3,0,0,0,1.67-3.64,5.29,5.29,0,0,1,.8-5.09,60,60,0,0,0,4.28-6.33,4.89,4.89,0,0,0,.13-5.18c-.88-1.48-3.64-1.76-6-.63s-4.9,2-6.26,4.25c-2.31,3.76-5.89,3.82-9.53,3.88-.41,0-1-.94-1.19-1.54a3.68,3.68,0,0,1,.16-2.12,21.33,21.33,0,0,1,9.88-11.32c4.45-2.45,9.12-4.54,13.77-6.61,3.35-1.49,4.92-.49,4.89,3-.15,17.14-.21,34.28-2.14,51.37a317.83,317.83,0,0,1-5.16,33.49c-1.91,8.55-4.19,17-8.15,24.87a6.28,6.28,0,0,1-6,3.87c-7.29,0-43.42-.45-44.87-.59"/>
    <path class="cls-1" d="M244.51,647.84a78.81,78.81,0,0,1,20.6,6c3.05,1.32,4.34,3.62,3.68,7.06a148.19,148.19,0,0,1-3.54,16c-4.47,14.63-9.25,29.17-14,43.72a37.57,37.57,0,0,1-2.2,5,5.69,5.69,0,0,1-5.24,3.37c-6.92,0-13.87,0-20.72-1.18a40.69,40.69,0,0,1-6.28-1.76c-3.29-1.14-4.68-3.64-3.94-6.75,1.74-7.24,4.64-13.8,10.63-18.64a37.42,37.42,0,0,0,3.08-3.09,33.76,33.76,0,0,0,9.3-18.22c.83-4.66,1.59-9.34,2.55-14,.88-4.28,1.9-8.53,3-12.75a7.45,7.45,0,0,1,3-4.74"/>
    <path class="cls-1" d="M474.27,149.33c14.41,3.77,24.74,13.53,32.15,26.35a37.13,37.13,0,0,1,4.88,15.52c.64,7.55-1.1,14.47-7.18,19.68a1.94,1.94,0,0,1-2.79-.29,7.55,7.55,0,0,1-.55-1C496,197.55,486.35,191,474.86,186.25c-7.16-3-21.5-1.27-33.87-10.79a3.47,3.47,0,0,1-.81-3c1.61-6,3.37-11.89,5.2-17.79a7,7,0,0,1,5.32-5c4.24-1,15.4-2.55,23.57-.42"/>
    <path class="cls-1" d="M312.53,103.58c4.2.53,6.91,6.76,6.91,11.43,0,1.29-.6,2.4-1.7,2.39-9.44,0-57.56-4.3-64.06-5a2.85,2.85,0,0,1-2.58-2.92c.09-2.54.18-5.09.36-7.62.24-3.41,1.52-4.36,4.87-4,11.54,1.3,46.5,4.5,56.2,5.71"/>
    <path class="cls-1" d="M556.27,124.69c4.2.29,6.91,3.63,6.92,6.13,0,.7-.61,1.29-1.71,1.29-9.43,0-57.55-2.31-64.06-2.69-1.55-.09-2.62-.78-2.57-1.56.09-1.37.17-2.73.35-4.09.25-1.83,1.52-2.35,4.87-2.14,11.55.7,46.5,2.41,56.2,3.06"/>
    <path class="cls-1" d="M496.4,622.34c.5-2.27.93-4.77,1.65-7.19.63-2.13,1.82-4.12,4.21-4.56,3.08-.55,4.17-2.47,4.37-5.28a4.89,4.89,0,0,1,.29-1c1-3,2.73-5.15,6.19-5.07a5.77,5.77,0,0,0,5.41-3c1.38-2.21,3-4.1,5.83-4.43a2.13,2.13,0,0,1,1,.13,1.14,1.14,0,0,1,.62,1.81,15.49,15.49,0,0,1-1.68,2.77c-2.19,2.5-4.07,5.05-4.18,8.61a3.9,3.9,0,0,1-1.73,2.52,12,12,0,0,0-5.12,6.79c-.5,1.81-2,3-3.59,3.93a8.63,8.63,0,0,0-4.68,6.9,7.35,7.35,0,0,1-5,6.49,46.87,46.87,0,0,0-4.85,2.45,4.38,4.38,0,0,0-2.54,3.35c-.18,4.33-3.08,7.22-5.29,10.93l-10.69,4.45c-.54-.72-1.21-1.2-1.26-1.76-.28-2.59.57-5,1.5-7.39a6.31,6.31,0,0,1,3.64-3.79,13.61,13.61,0,0,0,2.94-1.37,8.53,8.53,0,0,0,2.11-2.4,5.52,5.52,0,0,0,.54-2.09c.78-5.1,3.37-8.68,8.42-10.32.64-.2,1.14-.87,1.9-1.48"/>
    <path class="cls-1" d="M551.22,617.39c.68-2.54,1.34-5.35,2.18-8.11a5,5,0,0,1,4.71-3.88,3.37,3.37,0,0,0,3.09-2.59,9.21,9.21,0,0,0,.5-2.12c.46-5.13,3.75-6.6,8.29-6.5a3.72,3.72,0,0,0,1.07-.29c2-2.09,3.86-4.27,5.94-6.26a8,8,0,0,1,2.92-1.25c.24-.07.66.2.9.42s.56.62.49.78a15.11,15.11,0,0,1-2,3.84c-2.43,2.81-4.37,5.77-4.44,9.64-2.28,2.7-6,4.19-6.64,8.31a4.34,4.34,0,0,1-1.86,2.56c-3.79,2.51-6.79,5.35-7,10.38,0,1.14-1.49,2.5-2.61,3.27-1.79,1.21-3.88,2-5.78,3s-3.73,2.42-3.74,4.94c0,3.61-2.69,5.87-4.32,8.64a5.35,5.35,0,0,1-2.45,2.05c-3,1.28-6.08,2.39-9.18,3.43-.22.09-1.16-.87-1.13-1.29a41.93,41.93,0,0,1,.84-5.35c.75-3.43,2.44-6,6.13-6.92a4.53,4.53,0,0,0,3.53-3.71c.08-.35.16-.71.22-1.07.86-5.55,3.91-9.25,9.28-11,.3-.1.51-.47,1-.91"/>
    <path class="cls-1" d="M487.79,545.45c.72-2.6,1.43-5.4,2.27-8.15a5.3,5.3,0,0,1,4.64-4c2.13-.25,3.1-1.61,3.54-3.52a9.66,9.66,0,0,0,.22-1.07c.47-4.19,2.44-6.71,7.05-6.5a4.68,4.68,0,0,0,4.41-2.65,9.6,9.6,0,0,1,6.65-5.12,1.24,1.24,0,0,1,.87.42c.22.22.52.66.43.85a15.83,15.83,0,0,1-2,3.77c-2.13,2.54-4.13,5-4.15,8.61,0,1.64-1.39,2.39-2.58,3.25-1.47,1.06-3.09,2.16-3.48,4a8.53,8.53,0,0,1-4.35,5.95,9,9,0,0,0-4.91,7.93c-.1,2.41-1.82,3.9-3.76,5s-3.95,1.84-5.85,2.9a5,5,0,0,0-2.89,4.33c-.07,3.56-2.51,5.94-4.22,8.66a5.65,5.65,0,0,1-2.45,2c-3,1.29-6.06,2.43-9.15,3.49-.28.1-1.31-.8-1.28-1.17.18-1.79.65-3.55.91-5.34.6-4.13,3.24-6.29,7-7.43a8.49,8.49,0,0,0,1.22-.59,17.35,17.35,0,0,0,1.32-2.66c2.66-8.26,2.64-8.27,10.49-13"/>
    <path class="cls-1" d="M552.23,527.57c.48-1.85,1-3.93,1.56-6,.64-2.28,2-4.05,4.5-4,3.21.06,5.58-.84,7.09-3.88a9.88,9.88,0,0,1,4.9-4.17,2.85,2.85,0,0,1,2,.31c.74.31.87,1.06.38,1.83a20.19,20.19,0,0,1-2.44,3.56c-2.39,2.47-3,5.57-4,8.71-.8,2.71-5,3.3-5.62,6.34-.65,3.25-2.73,5-5.2,6.59a8.47,8.47,0,0,0-4.06,7.27c-.08,2.45-1.77,3.89-3.77,4.94-1.6.84-3.34,1.43-4.9,2.35-1.88,1.11-3.81,2.44-3.83,4.92,0,2.77-1.72,4.71-2.91,6.92a9.15,9.15,0,0,1-5.7,4.72c-2.41.7-4.75,1.67-7.17,2.36-.32.09-1.36-.86-1.32-1.23.21-1.79.72-3.54,1.06-5.32.65-3.53,2.37-6,6.13-6.71a3.74,3.74,0,0,0,3-2.81c.09-.35.19-.7.31-1,2.85-8.45,2.85-8.45,10.63-12.87.39-1.52.83-3.26,1.29-5,1.46-5.58,1.47-5.58,8-7.8"/>
    <path class="cls-1" d="M593.15,711c.07-.54.15-1.64.37-2.7.7-3.4,2.1-6.19,6-6.8a4.15,4.15,0,0,0,3.14-2.73,30,30,0,0,0,1.65-5.15c.81-3.46,2.72-6,6.11-7a6,6,0,0,0,4.54-5.43c.16-1.08.25-2.17.44-3.24.49-2.71,1.78-4.68,4.73-5.23,2.37-.45,3.93-1.73,4-4.36a9.13,9.13,0,0,1,.29-2.15c.76-2.67,2.39-4.75,5.24-4.69a6.7,6.7,0,0,0,6.38-3.21,16,16,0,0,1,3.78-3.83,5.26,5.26,0,0,1,3-.43c.91,0,1,1.66.24,2.75-1.07,1.45-2.28,2.82-3.27,4.33-.79,1.19-2,2.57-1.9,3.81.18,3-1.47,4.6-3.62,6.13a5.38,5.38,0,0,0-2.16,2.35c-1.19,4.09-4.12,6.55-7.33,9-2.13,1.6-2.45,4.31-2.83,6.87a4.55,4.55,0,0,1-2.46,3.39c-2.26,1.16-4.58,2.2-6.75,3.51a4.76,4.76,0,0,0-2.49,3.39,12,12,0,0,1-.68,3.18c-2.32,5.11-5.38,9.45-11.46,10.5a11.29,11.29,0,0,0-1.95.95c-2.25.9-3.33,0-3-3.16"/>
    <path class="cls-1" d="M621.56,510.71a21.8,21.8,0,0,1-1.36,2.8c-2,3-4.92,5.35-4.83,9.52,0,1.06-1.7,2.18-2.64,3.25-1.18,1.36-2.92,2.51-3.47,4.09-.88,2.53-2,4.56-4.38,5.91a9.34,9.34,0,0,0-4.94,8,4.91,4.91,0,0,1-2.89,4.31c-1.62.81-3.31,1.5-4.91,2.36-2.3,1.23-4.2,2.76-4.53,5.7a11.51,11.51,0,0,1-1.38,4.06c-1.88,3.6-4.07,6.85-8.59,7.64-1.74.3-3.36,1.29-5,1.93-1,.39-2.11-.71-1.9-1.92.3-1.8.54-3.61,1-5.38.71-3.09,2.45-5.24,5.73-5.84a3.89,3.89,0,0,0,3.16-2.63,23.42,23.42,0,0,0,1.41-4.13,10,10,0,0,1,7.44-8.53c2-.62,2.75-2.26,3.23-4.06a18.55,18.55,0,0,0,.5-3.23c.33-3.82,2.36-5.86,6.17-6.44.84-.13,1.64-1.26,2.24-2.09a6.47,6.47,0,0,0,.5-2.1c1.35-5.64,1.34-5.71,6.88-6.5a5.44,5.44,0,0,0,4.41-2.7,12.13,12.13,0,0,1,5.47-5.16c.53-.25,1.35.05,2,.23.27.07.43.5.76.91"/>
    <path class="cls-1" d="M594.09,637.39c-3.71,2.18-7.53,3.24-11.33,4.92-1.19-3.77-.41-6.85.85-9.85a4.62,4.62,0,0,1,3-3c4.13-1,6-3.77,6.63-7.69a11.7,11.7,0,0,1,.51-2.12,8.32,8.32,0,0,1,4.94-5.44,12.23,12.23,0,0,0,2-.81,6.12,6.12,0,0,0,3.21-4.17c.24-1.44.32-2.9.61-4.32a6.19,6.19,0,0,1,4.88-5.25c2.45-.54,3.82-1.86,3.85-4.45a7.41,7.41,0,0,1,.38-2.14c.86-2.64,2.6-4.58,5.42-4.62s4.81-.9,6.33-3.32c1.15-1.83,2.61-3.58,5-3.8a3.65,3.65,0,0,1,1.84.71c.16.09.22.68.09.92a23.17,23.17,0,0,1-2.14,3.72c-1.8,2.31-3.53,4.55-3.66,7.72a4.26,4.26,0,0,1-1.66,2.55c-2.27,1.88-4.37,3.78-5.11,6.83-.46,1.86-2,2.93-3.59,3.9a10.05,10.05,0,0,0-5,8,5.9,5.9,0,0,1-3.75,4.93c-1.64.79-3.28,1.57-4.9,2.39s-3.06,2.1-3.22,4.07c-.34,4.29-3.41,7.1-5.15,10.34"/>
    <path class="cls-1" d="M538.71,719.46c-1.25-2.52-.3-5,.25-7.45.58-2.61,2.13-4.77,4.84-5.41a5.56,5.56,0,0,0,4.5-4.15,27.45,27.45,0,0,0,.93-3.14,9.58,9.58,0,0,1,6.64-8c2.78-1,3.91-3,4.25-5.74a22.9,22.9,0,0,1,.79-4.28c.59-1.79,1.74-3.33,3.76-3.51,3.1-.29,4.54-1.92,4.6-4.94a4.38,4.38,0,0,1,.14-1.08c.92-3.71,1.91-4.93,5.88-5.12,3-.14,4.6-1.42,6-3.78a8.27,8.27,0,0,1,6-4.31c.26,0,.63.26.85.5s.5.64.43.85a13,13,0,0,1-1.26,2.93c-2,3-4.84,5.43-4.82,9.52,0,1.47-1.43,2.4-2.67,3.25a8.81,8.81,0,0,0-3.85,5.12,6,6,0,0,1-3.13,4.22c-4.42,2.25-5.89,6.2-6,10.21-2.18,3.67-5.83,3.9-8.54,5.63A7,7,0,0,0,555,705a26.8,26.8,0,0,1-1.63,5.12c-1.85,3.62-4.16,6.7-8.63,7.6-2.06.41-3.84,2.09-6.19,1.53Z"/>
    <path class="cls-1" d="M498.37,709.25c.31-.86.7-1.86,1-2.88,2.46-7.7,2.46-7.7,10.27-12,.67-2.48,1.37-5.27,2.17-8,.65-2.23,1.9-4,4.43-4.19a4,4,0,0,0,3.76-3.3c.25-1.06.4-2.14.65-3.2.66-2.77,2.24-4.6,5.26-4.52a6.35,6.35,0,0,0,6.26-3.44,12.5,12.5,0,0,1,2.93-3.15,11.83,11.83,0,0,1,2.86-1.45,1.39,1.39,0,0,1,1,0c.81.37,1.16,1.07.74,1.75a63,63,0,0,1-3.6,5.38c-1.14,1.47-2.21,2.93-2.22,4.84a5.67,5.67,0,0,1-3.28,5.22,4.24,4.24,0,0,0-1.62,1.43c-1.26,2.15-2.15,4.58-3.68,6.5-1.32,1.66-3.5,2.61-5,4.18a6.44,6.44,0,0,0-1.7,3.85c-.14,3.87-2.38,5.88-5.55,7.36-1.64.75-3.25,1.59-4.83,2.47a4.4,4.4,0,0,0-2.37,3.46,14.51,14.51,0,0,1-2.17,6c-3.9,6.82-5.76,6.2-12.09,2.29-1.4-.87-1.44-3.72.07-4.75,2.06-1.4,4.29-2.54,6.63-3.9"/>
    <path class="cls-1" d="M455.4,122.75c0,4.09-1.74,4.17-2.63,4.08-6.53-.63-29.7-3.1-34.75-3.8a17.48,17.48,0,0,1-5.23-1.37c-11.2-5.46-34.78-11.53-36.9-13.16-1.44-1.12-.38-2.13,1-2,17.71,2.12,66.68,9.58,73.53,10.47,3.83.5,5,1.1,5,5.75"/>
    <path class="cls-1" d="M459.77,608.73a25.68,25.68,0,0,0,.89-3c.76-4.54,2.88-7.32,8-6.92,1.46.12,2.68-1,3.49-2.27,1.57-2.52,3.47-4.66,6.51-5.39a1.68,1.68,0,0,1,1,.09,1.17,1.17,0,0,1,.6,1.83,35.22,35.22,0,0,1-3,4.47,11.63,11.63,0,0,0-3,6.86,5.15,5.15,0,0,1-1.47,2.72c-1,1-2.8,1.62-3.27,2.78-1.81,4.55-5,7.77-8.76,10.69-1.83,1.42-1.42,4-2.05,6.06a7,7,0,0,1-5.37,4.86,2.7,2.7,0,0,1-1.08.13,3,3,0,0,1-2.57-1.66c-.76-1.71-1.35-3.78-.45-5.25,1.8-2.94,1.74-6.24,2.67-9.33.89-2.94,2.4-5.27,5.87-5.6.64-.06,1.23-.66,2-1.07"/>
    <path class="cls-1" d="M626,561.3a24.4,24.4,0,0,1,.41-2.84c.66-3,2-5.35,5.35-6.07,2.34-.52,3.63-2.25,4.36-4.38s1-4.22,1.88-6.16a9.64,9.64,0,0,1,2.86-3.09,1.87,1.87,0,0,1,1.83.22,7.06,7.06,0,0,1,1.64,6c-.87,3.78-1.36,7.72-3.48,11.2-1.91,3.17-4,5.87-7.74,7-1.37.41-2.69,1-4,1.54-2.41,1-3.55.24-3.09-3.46"/>
    <path class="cls-1" d="M466.13,685.16c-.07-1.08-.18-2.17-.2-3.25-.08-3.32,1.53-5.66,4.92-5.93,3.22-.25,5.33-1.34,7-4.17a6.4,6.4,0,0,1,5.28-3.36,2.16,2.16,0,0,1,1,.2,1.12,1.12,0,0,1,.49,1.79c-1.41,2.09-3.19,4-4.31,6.2s-1.19,4.94-2.44,7c-1,1.76-3.25,2.8-4.7,4.37-.67.73-.78,2-1.13,3a4,4,0,0,1-3.12,2.68c-.93.22-2.19-1.53-2.34-3.15-.16-1.8-.28-3.61-.42-5.41"/>
    <path class="cls-1" d="M637.67,637.27c-1.15-3.16-.48-5.29,0-7.35.64-3,2.25-5.45,5.34-6.28,3.35-.9,4.48-3.29,5-6.29.32-1.77.54-3.6,2.17-4.76a1.45,1.45,0,0,1,1-.17c.28,0,.72.2.78.4a27.66,27.66,0,0,1,.46,12.84c-.68,3.45-2.3,6.84-6.28,8.19-2.71.91-5.32,2.13-8.47,3.42"/>
    <path class="cls-1" d="M538.53,719.2c-.17.24-.34.47-.5.71-.38-.73-.15-.89.68-.45l-.18-.26"/>
  </g>
</svg>
