<svg id="Livello_1" data-name="Livello 1" xmlns="http://www.w3.org/2000/svg" viewBox="0 0 841.89 841.89">
  <defs>
    <style>
      .cls-1 {
        fill: #231f20;
      }
    </style>
  </defs>
  <title>Glos</title>
  <g>
    <path class="cls-1" d="M479.33,228.54c15.07,14,15.83,15.06,5.62,32.43-5.11,8.44-12,15.84-18.65,23.5a19.65,19.65,0,0,1-15.83,6.65q-15.33-1.15-30.65-3.07c-5.11-.77-8.69-4.34-11.24-8.94-5.11-9.7-10.47-19.16-16.09-28.61a3.54,3.54,0,0,0-1-1.16,2,2,0,0,0-3.25,1.66,4.53,4.53,0,0,0,.4,1.8c3.84,7.41,7.83,13.29,11.41,20.95,2.29,5.1,4.18,18.39,3.67,18.89-49.91-27.55-82-73.81-84.8-76.88-1-1.27-3.21-3.55-4.6-2.55s-.25,3.83.51,5.11c5.37,7.4,10.73,14.81,16.86,21.46,19.41,21.71,40.86,41.11,66.66,55.16,23.24,12.52,47.76,12.27,72.29,5.37C482.39,297,490.31,287.54,498,278.6c6.89-7.92,13.53-16.09,20.43-24.27,2.07-2.47,5.69-3.86,6.38-3.32,1.22,1-1.8,6.74-.76,7.41s8.68-5.62,12.77-8.43c.77.77,9.45,12.26,1.53,22.73-19.67,26.57-43.68,48.53-71,66.92-7.66,5.37-16.6,6.13-25.54,6.9-26.3,2.3-51.08-3.32-75.09-13.79-27.33-12-53.13-26.06-73.82-48a4.2,4.2,0,0,0-1.85-1,1.79,1.79,0,0,0-1.79,2.92c16.18,18.18,68.28,55.53,128.14,64.1,0,7.66.4,17-.36,24.16-1,8.94-13,18.39-22,18.9-11.75.77-21.71-4.09-31.16-10-20.44-12.77-40.87-25.54-61-38.57-12-7.92-24.78-13.28-39.34-14.05-.76,0-1.79-.5-3.32-.76.51-2.05.77-4.35,1.53-5.88,11.5-20.43,11-41.89,6.9-64.11-2.56-14.3-5.62-28.86-3.07-43.67,2.82-16.09,12.52-26,28.61-29.12,8.43-1.53,16.6-3.58,25-5.37,1.54-.25,3.83,0,4.6,1,7.41,10.21,17.63,17.11,28.1,23.5.25,0,.25.25.51.25,24,10.73,44.95,26.57,66.92,41.13,14.81,9.7,20.94,9.45,35.5-.77,4.34-3.07,8.17-6.39,12.26-9.45s8.17-6.39,12.26-9.45"/>
    <path class="cls-1" d="M598.86,246.67c-9.45,20.43-7.15,40.61-1.53,61.3,5.11,19.42,3.58,38.06-2,57.47-7.15,25.8-12,52.1-17.37,78.42a22.83,22.83,0,0,0,.77,11c1,4.34,4.34,4.85,7.66,2,2.3-2,4.09-5.88,7.92-3.83,4.59,2.55,6.89,7.41,5.1,12a131.64,131.64,0,0,1-11,23.5c-2,3.58-5.62,6.39-8.69,9.45-6.89,7.16-10,16.35-10.72,25.8-1.53,21.2-2.81,42.4-3.07,63.6,0,11.24,3.07,22.22,3.83,33.46q1.15,18.76.77,37.54c-.77,28.1,9.19,51.85,27.33,72.8,5.36,6.13,10,12.51,15.58,19.41a12.62,12.62,0,0,1-3.06.77c-13.28.25-26.56.5-39.59,1a6.54,6.54,0,0,1-6.39-3.57c-10-15.83-19.15-31.92-25.28-49.55-6.13-18.14-11-36.78-1.79-55.68,5.11-10.73,2.3-22.22-2.55-32.19-5.88-11.74-13.8-22.47-21.21-33.45-5.11-7.41-5.87-13.8,0-20.44,9.71-11,12.26-24,11.75-37.29-.51-12-2.55-24-4.85-36-2.55-12.26-10.22-21.71-21.2-27.59a177.1,177.1,0,0,0-21.2-10,40.41,40.41,0,0,1-22-19.66c-2.56-4.85-5.37-9.71-8.18-14.56-4.85-7.66-4.59-16.1-2.29-24.27,1-3.83,3.31-6.89,7.91-6.38,4.6.25,8.43,1.53,10,6.89a181.22,181.22,0,0,0,6.9,19.67c3.83,10.73,12,15.32,22.73,15.32,16.6,0,27.84,8.18,37,20.95a73.21,73.21,0,0,0,10.22,11.49c5.37,4.6,10,3.07,11-3.83a195.84,195.84,0,0,0,2.81-27.07c.76-16.86,2.55-34-3.32-50.58a36.59,36.59,0,0,0-10.48-15.57c-3.32-2.82-5.87-6.39-8.43-10a4.25,4.25,0,0,1,.26-4.35c.71-.81,5.64.22,6.39.51,8.61,3.39,13.27,1,11.75-8.43-2.31-12.77-4.35-25.8-13.8-36a20.86,20.86,0,0,1-2-3.06c-5.11-8.69-4.85-8.69,1.27-16.61,3.84-5.1,7.41-10.47,11-15.83,19.67,23,31.93,80.71,32.94,80.71a57.76,57.76,0,0,0,3.07-7.16c3.83-14.3,2.81-28.6-1.28-42.65-4.85-17.11-8.93-34.48-8.42-52.61,0-2.81-3.07-6.13-5.11-8.69-3.07-3.83-10.85-6-10.47-11.24.12-1.63,1.53-1.28,1.78-1.28,8.43,2,9,1.54,9-7.14,0-7.16-3.84-12.52-8.18-17.63-3.57-4.08-7.66-7.41-11.24-11.49-4.08-4.6-3.57-6.39,1-9.71,8.17-6.13,10.73-23,4.35-32.44a120.72,120.72,0,0,0-17.63-20.17c-8.68-8.17-9.45-17.63-6.13-28.1a12.49,12.49,0,0,1,2.81-5.11c1.28-1.28,3.29-3.22,5.11-2.55,1.61.59,2,3.32,1.79,4.6-2,12,5.87,19.92,12,28.6a22.13,22.13,0,0,0,3.32,3.58c14,11.24,15.33,26.56,13.28,42.65-1.27,10.22-.5,19.42,6.64,28.61,7.92,9.7,11.75,22,8.95,35.25a6.51,6.51,0,0,0-.26,3.06c.51,2.05,1,5.11,2.55,5.62,1.54.77,4.6,0,6.13-1.28,2.82-2,3.69-8.89,6.9-7.66.48.18,1.28,11.24-.77,15.58"/>
    <path class="cls-1" d="M392.49,401.2c-.26,20.69,12.51,36.27,26.3,51.08,4.09,4.34,8.69,8.68,12.52,13.28,4.34,5.36,3.83,7.67-1,12.26-12,11.24-26.82,17.88-41.63,24.78a78.69,78.69,0,0,1-38.83,7.92c-14.05-.77-28.09-1-42.4-2-16.6-1.28-32.43-6.14-47.76-12.52-2.81-1-5.62-2.56-8.43-3.33-7.15-2-14.05-3.06-19.66,3.84-4.35-10.47-3.32-20.69-1.79-30.91,3.83-23.75,6.64-47.76,12.26-71.26,4.34-18.13,12.26-35.75,18.64-53.38,1-3.07,2.81-4.34,6.39-4.34,11.74.25,21.71,5.11,31.41,11,24.52,15.58,49.3,30.91,74.08,46,5.1,3.84,12.25,5.11,19.92,7.67"/>
    <path class="cls-1" d="M375.37,516.39c14.82-7.15,29.89-14.3,45.21-21.71,5.88,8.17,8.17,17.63,9.45,27.08,1.28,11.49,2.05,23.24,2.3,34.73.26,20.18,1,39.85,7.41,59.26,2,6.13,2.55,13,3.58,19.41.76,4.09-.77,6.89-5.37,7.66-11.24,2-22.47,4.09-33.71,5.62-1.28.26-3.32-1.27-4.09-2.55-11.24-17.63-19.41-36.27-19.16-57.47.26-11.5,1.28-23.25,1.79-34.74.26-6.39.76-13-.25-19.15-1.54-5.88-4.6-11.75-7.16-18.14"/>
    <path class="cls-1" d="M285.47,665.3c2-23.25-9.19-44.44-3.33-66.66,2.82-11,5.88-22,8.69-32.95,3.06-11.24,3.32-23,2.56-34.49-.51-6.13,0-12.51,0-19.41,3.32.51,6.63,1,10,1.28,9.7.51,19.41.77,28.86,1,3.32,0,4.85,1,5.87,4.34,3.32,11,2.3,22-.5,32.7-9.46,34.22-13.64,71.52-13.64,107,0,4.6-1.28,6.89-6.13,7.15-10.73.77-21.58.2-32.34,0"/>
    <path class="cls-1" d="M405.26,654.06c12.77-2.3,24.78-4.6,37.29-6.9,2,6.64,4.59,13.54,6.64,20.7,8.18,28.6,25.79,49.29,52.11,63.08a112.65,112.65,0,0,1,17.37,11.24c4.34,3.32,3.82,6.64-1.54,7.66a102.22,102.22,0,0,1-25,2c-7.92-.5-15.58-3.06-23.5-4.85-10.22-2.3-20.43-5.11-30.65-7.15-13.53-2.55-17.11-6.89-17.62-21-.26-6.89-1.28-14-4.09-20.17-5.36-12-7.66-24.78-9.45-37.8l-1.53-6.9"/>
    <path class="cls-1" d="M415.22,158.81c-1,.43-3.83,2-3.83,3.57,0,3.58,2.81,2.05,5.11,1.79,3.83-.51,6.12,1.54,7.4,5.11.51,1.28,1.92,3.4,3.33,3.06,1.57-.36,1.78-3.32,1.52-4.59-.76-4.86-7.44-11.6-13.53-8.94m-85.05,5.36c-4.6-3.57-5.62-8.93-2.81-15.83,2.81-7.16,6.38-9.46,13-9,27.84,2.05,55.68,3.84,82,14.06,5.36,2,10.48,4.59,15.84,6.64,3.32,1.27,3.83,3.57,2,6.13a62.42,62.42,0,0,1-6.13,8.17c-4.85,5.36-10,10.21-14.81,15.32-2.81,3.07-4.86,2.56-7.41-1.53-1-1.53-2.61-4-4.09-3.32-1.84.89,1.68,9.21,2.19,10.74l-1.31,1.34c-2.29-1.53-5-3.65-7.52-4.67-1.27-.51-4.29-.75-4.85,1-.5,1.56,1.79,2.55,2.81,3.32a75.1,75.1,0,0,0,6.64,4.34,19.27,19.27,0,0,1-14.56,10.22c-5.88,1-8.68-3.32-11.24-7.41-4.85-7.92-7.92-16.6-7.66-26.3,0-1.28-.44-3.56-1.79-3.84s-2.81,2.3-2.81,3.32c.26,5.11.26,10.48,1.53,15.33s3.58,9.7,5.62,14.55c-3.06,4.09-6.64,4.35-10.72,1.28-10-6.89-20.18-13.54-30.15-20.43-2.55-1.79-4.34-4.59-7.14-7.92,9.45-3.57,17.87-6.9,26.3-10a5.69,5.69,0,0,1,4.09.26c8.17,3.06,16.6,1,21.71-5.37,1-1,2.54-3.59,1.28-4.59-1.79-1.43-6.39,3.06-7.41,3.83-3.83,2.8-8.17,4.34-12.51,1.53-4.09-2.81-4.35-6.9-3.58-11.49.25-2.56,2.21-7-.26-7.67-2.87-.79-5.62,11.5-5.87,13.8-.25,2-.25,5.62-1,5.87a23.64,23.64,0,0,1-9.7-.25c-3.41-1-3.06-4.35-2.81-6.65.26-2.81,5.88-12.48,4.34-13.54-5-3.46-8.93,13.29-11.23,18.65"/>
    <path class="cls-1" d="M287.51,668.36H317.4c0,13-.26,26.31,0,39.59A16.61,16.61,0,0,0,326.33,723c8.44,4.35,17.63,7.67,26.57,10.73,7.15,2.56,14.56,3.83,21.45,6.64,2.39,1,4.44,3.07,6.44,5.16a3.09,3.09,0,0,1-.8,4.89c-2.3,1.18-4.61,2.3-6.91,2.47-13.54.76-27.08.51-40.62.76-9.19,0-18.64.26-27.84.26-5.36,0-10.72.26-16.09-.51-7.66-1-10.72-4.6-10.47-12.26a72.11,72.11,0,0,1,3.58-19.41,89.74,89.74,0,0,0,4.85-29.38c0-7.4.51-15.06,1-24"/>
    <path class="cls-1" d="M533.48,245.91c-1.28.76-3.07,1.79-4.86,2.81-5.1-5.88-9.7-3.58-19.41,9.19-5.11-7.15-10-14.31-15.32-20.94a101.32,101.32,0,0,0-11.24-12.26c-12.52-11-15.84-24.27-12-40.1,2.82-12,5.37-24,7.16-36.28,1.53-10-.26-19.66-6.13-28.09-6.13-8.68-6.8-20.8-3.32-28.09.54-1.16,3.47-3.41,4.85-3.07,3.92,1,7.66,4.85,8.43,7.92,4.34,19.41,11,38.57,7.4,59.51-2,11.24-1.27,23.24-1.53,34.74a14.1,14.1,0,0,0,1.28,6.64c5.11,7.66,10.21,15.07,15.83,22.22,1.28,1.53,4.73,3.64,6.9,2.55s2-4.59,2-6.64c-.77-6.64-2.3-13.28-3.07-20.18-.26-2.55-.75-7.34,2-8.17,3-.87,5.11,3.58,6.9,5.87,1.27,1.54,1,4.09,1.53,6.13,1,7.92,1.28,16.09,3.32,23.76,1.79,7.92,5.88,14.81,9.2,22.48"/>
    <path class="cls-1" d="M352.13,119.73c33.72,4.85,67.43,8.94,98.85,23,3.83,1.79,7.15,5.62,9.45,9.45,1,1.79,0,6.38-1.79,7.92s-6.13,2-8.18.76c-24-14.3-50.31-20.18-77.39-24-11.23-1.53-22.73-1.79-34.22-2.81-1.79-.26-4.86-1.27-5.11-2.3a7.51,7.51,0,0,1,1.53-6.13c4.6-5.1,10.47-6.38,16.86-5.87"/>
    <path class="cls-1" d="M445.87,132.76c-26.56-5.62-52.88-11.5-79.44-17.12,9.2-20.94,38.06-28.6,57-14.55,9.71,7.14,18.14,18.89,22.48,31.67"/>
    <path class="cls-1" d="M288.28,511.28V535.8c-.51.26-46.76-21.15-52.11-31.41-2.22-4.28-.77-7.41,4.09-7.66a26.07,26.07,0,0,1,10,1.27c12.26,4.35,24.77,8.69,38.06,13.28"/>
  </g>
</svg>
