<svg id="Livello_1" data-name="Livello 1" xmlns="http://www.w3.org/2000/svg" viewBox="0 0 841.89 841.89">
  <defs>
    <style>
      .cls-1 {
        fill: #231f20;
      }
    </style>
  </defs>
  <title>Glos</title>
  <g>
    <path class="cls-1" d="M365.42,420.76c12.49,6.73,24.81,13.7,34.82,24,.49.51,2.67,1.86,4.1.11,1.1-1.35-1.24-3.82-2.25-5a97.2,97.2,0,0,0-18.81-16.05,191.48,191.48,0,0,0-55.5-25.47,185.52,185.52,0,0,0-23-5.16,4,4,0,0,1-3-3.25,105.91,105.91,0,0,1-1.06-22.36,4.87,4.87,0,0,1,3.76-4c14.74-3,29.69-3.51,44.65-3.31,11.79.15,23.57.56,35.26,2.75A172.91,172.91,0,0,1,405,368.2c6.82,2.16,13,5.47,18,10.88.31.35,1.58.27,2.07-.08a2.3,2.3,0,0,0,.78-1.95,6.92,6.92,0,0,0-1.48-3.11,58.68,58.68,0,0,0-5.26-4.69c-2.14-1.76-2.43-4-1.66-6.39a63,63,0,0,1,10.48-19.68c1-1.24,4.05-5.25,2.35-6.38-2.17-1.45-4.42,1.32-5.09,2.22a183.73,183.73,0,0,0-10.78,18.17c-3.6,8.25-2.43,7.66-11,5.08A153.56,153.56,0,0,0,383.85,358c-20.36-3.35-41.52-2-62-1.23-3.51.14-16,1.18-19.12,1.19a2.14,2.14,0,0,1-2.07-2.27,2.84,2.84,0,0,1,2.37-3.07c3.13-.23,7.71-.4,10.86-.54,9.06-.42,18-1.28,26.56-4.74a14.6,14.6,0,0,1,5.77-.58,28,28,0,0,1,5.83.88c5.18,1.27,10.17.14,15.16-1,2.82-.66,5.52-2.17,6.52-4.65,1.31-3.24,3.92-4.71,6.23-6.75a5.05,5.05,0,0,0,1.51-3c.34-3.89.85-7.86.46-11.71-.42-4-.22-7.63,1.63-11.36a15.57,15.57,0,0,0,1.19-6.69c0-2.07-2.07-5.88-5.26-6.4-4.7-.76-7-4.8-8.82-8.86-4.62-10.13-7.77-20.59-7.54-31.88a18.32,18.32,0,0,0-.86-4.51c0-.15-.6-.23-.92-.24s-1,0-1.13.2c-.59,1-1.46,2-1.48,3.07a76.73,76.73,0,0,0,.32,11.75A77.67,77.67,0,0,0,365.31,287c.57,1.27,1.07,2.59,1.58,3.93a3,3,0,0,1-2.14,4,3.73,3.73,0,0,1-.46,0,4.19,4.19,0,0,1-3.78-2.39c-1.53-3.19-3.32-6.31-4.34-9.65-2.77-9.07-4.66-18.3-3.59-27.89a5,5,0,0,0-.19-2.31,3.68,3.68,0,0,0-1.5-1.6,1.24,1.24,0,0,0-1.9.69c-1.86,4.08-1.86,8.41-1.5,12.74.83,9.87,2.82,19.45,7.53,28.31.55,1,1,2.14,1.46,3.22.66,1.52-.12,2.46-1.41,4s-11.5,12.37-14.52,14.57c-4.35,3.17-9.86,1.21-14.37-.31-3.76-1.26-9.1-2.54-9.39-7-.54-8.25,5.87-15.34,7.21-23.55,1.21-7.45,1.9-24-.34-30.58-.52-1.5-1.18-4.21-4.91-4.5-2.47-.2-2.65,3.68-2.76,4.8-1.06,10.17-2,20.37-3,30.54-.57,5.48-1.33,10.94-1.88,16.42a64.22,64.22,0,0,0-.21,7.07,7.13,7.13,0,0,0,2.18,4.76c3.57,3.2,7.59,4.77,12.19,6.08,4.12,1.17,9,.69,12.42,3.21,3.14,2.31,1.69,6.75,1.42,10.43-.84,11.29.76,11-10.21,13.31-13.58,2.91-27.35,3.51-40.39-3.08-1.4-.71-2.91-1.22-4.25-2-10.53-6.44-10-7.16-8.54-17a199.67,199.67,0,0,1,18.82-59.37A154.6,154.6,0,0,1,310,238.85c3.83-5,19.83-19.43,24.62-22.29,2.88-1.72,9.73-6,11.23-5.9,6.3.2,16.14,1.2,22.43,1.36a100.81,100.81,0,0,0,20-1.38c7.38-1.28,14.87-1.48,22.26.59,2.25.63,4.66.65,7,1.06,7.43,1.3,14.48,3.62,20.69,8.06.62.44,3.95,2.62,3.26,4-1.17,2.27-17-2.63-22.36-3.86-.36-.08-2.41-.53-3.54.86a1.66,1.66,0,0,0-.23,2.16c1.36,2.39,8.91,16.48,9.56,22.51.42,3.92,1.22,7.79,1.43,11.71a59.24,59.24,0,0,0,6,23.85c3.58,7.08,5.6,14.67,7.46,22.32.46,1.91.76,3.86,1.19,5.78,2.1,9.19,3,10.23,11.58,12.94,4.11,1.31,8.27,2.49,12.41,3.73,1.88.57,3.76,1.12,5.63,1.73,12.16,4,19.95,12.32,23.6,24.43,2.16,7.19,3.38,14.6,2.25,22.15a164.53,164.53,0,0,1-2.93,16.25c-3,11.6-3.4,23.35-2.65,35.17a69.26,69.26,0,0,0,2.11,12.79c1.17,4.62,3.39,8.8,7.66,11.49.78.48,2.36.83,3.11-.21a2.17,2.17,0,0,0,0-2.48c-.56-1-3.27-4.89-3.54-6a2.38,2.38,0,0,1,.62-2,2.33,2.33,0,0,1,2.07-.31c3.85,2,50.24,28.55,52.21,29.86a7,7,0,0,1,3.22,5.95c.31,9.1-.9,18.11-2.17,27.05a166,166,0,0,1-7.3,31c-2.43,7.06-5,14.08-9.16,20.41a20.65,20.65,0,0,0-1.75,3.06,12.83,12.83,0,0,0-.13,10.32,24.56,24.56,0,0,0,6.8,9.51c2.09,1.79,4.32,3.41,6.5,5.1a125.29,125.29,0,0,1,18,17c8.71,10.18,12.16,21.77,10,35.07q-1.8,11.07-2.9,22.24A82.21,82.21,0,0,0,576.7,677c1.83,11.32,1.77,22.77.88,34.16A34.09,34.09,0,0,1,566,735a6.24,6.24,0,0,1-6.61,1.15,12.53,12.53,0,0,1-7.6-7,15.09,15.09,0,0,1-1.15-3.35,10.06,10.06,0,0,0-5.44-7.36c-4.35-2.27-7.46-5.7-10.35-9.46a7.39,7.39,0,0,1-.2-8.82,38.54,38.54,0,0,1,2.78-3.8A10.2,10.2,0,0,0,540,690a27.87,27.87,0,0,1,4.56-14.45c3.19-5.12,4.44-10.76,5.22-16.73a85.44,85.44,0,0,0-.18-25.84,49.12,49.12,0,0,0-9.58-22.56,90.29,90.29,0,0,0-19.49-18.74c-10.37-7.19-21.46-13.15-32.1-19.87-4.32-2.74-8.72-5.36-13-8.12-1.3-.83-2.77-1.65-3.49-2.86-.9-1.5,2.37-4.24,3.92-5.92a134,134,0,0,0,19.86-27.77,94.42,94.42,0,0,0,7.87-19.67,26.52,26.52,0,0,0,.78-11.69,19.54,19.54,0,0,0-2.82-6.38,5.24,5.24,0,0,0-3-1.67c-.6-.17-1.44.33-2.11.65a1.1,1.1,0,0,0-.44.93c.44,1.48,1,2.93,1.47,4.38a22.51,22.51,0,0,1,.57,12.78,69.33,69.33,0,0,1-7.17,18.64c-5.7,10-12.71,18.94-20,27.73a28.11,28.11,0,0,1-12.48,8.58c-7.05,2.52-53,12.15-72.88,13.23a2.88,2.88,0,0,1-2.73-3.12,240.94,240.94,0,0,0-.24-63.54c-1.25-9.75-2.63-19.49-3.93-29.23a1.27,1.27,0,0,1,.57-1,1.24,1.24,0,0,1,1.9.66c1.77,3.95,3.56,7.88,5.25,11.86,5.56,13,11.58,25.83,18.18,38.37,6.27,11.92,14.2,22.66,22.55,33.13,1.21,1.52,4.07,4.87,6,3,1.38-1.33.29-3.11-.12-3.7-3.15-4.52-6.37-9-9.57-13.46-10.82-15.13-18.9-31.74-26.38-48.68-2.22-5-4.18-10.18-6.36-15.24-4.05-9.41-21.13-46.34-23.31-51.82-1.3-3.25-4.22-12.31-1.93-11.08"/>
    <path class="cls-1" d="M228.16,586.35c-39.81-6.72-96.75-125.56,8-181.35,9.23-4.92,20.16-3.58,30.3-1.28A36.07,36.07,0,0,1,288,417.36a60,60,0,0,1,8.58,16.71q8.28,24,16.68,47.89,9.33,26.73,18.73,53.42c.78,2.2,1.84,4.31,2.79,6.45.4.91,1.06,1,2,.77a2.07,2.07,0,0,0,1.64-2.56,57.93,57.93,0,0,0-1.67-5.64c-3.63-9.17-5.92-18.74-8.51-28.21-2.9-10.63-6.12-21.14-9.84-31.51-4.91-13.69-9.53-27.48-14.52-41.14-4.42-12.08-11.34-22.43-22.05-29.94a9.2,9.2,0,0,1-1.65-1.59c-.23-.28-.48-.85-.36-1.08.35-.64.78-1.45,1.38-1.68a12.9,12.9,0,0,1,3.45-.63,94.27,94.27,0,0,1,31.54,3.16c3,.8,12.37,2,13.86,7.82,10.66,42,15.79,104.37,14,137.5-.37,6.72-1.8,13.25-3,19.83a17.6,17.6,0,0,1-2.14,5.45c-.5.88-1.88,2-2.67,1.82-8.62-1.45-17.23-.85-25.86-.34a2.17,2.17,0,0,1-1.61-1.42c-.25-3.12-.33-6.27-.37-9.41a96.46,96.46,0,0,0-4.76-29c-1.48-4.49-3.39-8.86-6.88-12.22a13.65,13.65,0,0,0-3.87-2.47,2.33,2.33,0,0,0-2,.65c-.4.44-.63,1.71-.34,2,11.78,12.07,12.72,27.45,12.61,42.86,0,7.41-1.75,14.83-2.89,22.22-1.43,9.33-3.12,18.62-4.51,28-.58,3.88-.7,7.82-1,11.75-1.12,14.18,3.94,26.19,13,36.79,5.87,6.89,11.69,13.82,17.55,20.72,10.34,12.17,14.72,26.67,16.44,42.19.17,1.54,1.59,8.21-3.62,7.53-2.33-.3-18.35-3.72-23.71-6.3a13.38,13.38,0,0,1-7.19-7.33c-2.51-6.19-5.24-12.29-8-18.39a58,58,0,0,0-7.34-12.06c-6.29-8.06-12.38-16.28-18.54-24.43a37.08,37.08,0,0,1-7-16.09c-1.66-9.29-3.39-18.56-4.95-27.86a90.9,90.9,0,0,0-7-23.69,24.72,24.72,0,0,0-1.86-3,2.43,2.43,0,0,0-3.15-.33,3.85,3.85,0,0,0-.9,1.94,2,2,0,0,0,.3,1.1c5.71,11.85,8,24.6,10,37.45q1.26,8.16,3,16.24a43.49,43.49,0,0,0,8.33,18c6.29,8.06,12.41,16.26,18.53,24.44a40.67,40.67,0,0,1,4.49,6.91c3.5,7.47,6.75,15.06,10.05,22.62,1.81,4.32.39,5.94-2.66,5.11s-17.65-6.2-21.89-8.24a10,10,0,0,1-4.75-5.07,60.29,60.29,0,0,1-2.8-7.76,93.13,93.13,0,0,0-15.19-29.12c-2.12-2.83-4.09-5.78-6.3-8.54-4.8-6-7.39-12.94-8.82-20.37-1.05-5.41-1.89-10.84-3-16.24-1.71-8.52-4.61-17.09-4.65-25.78,0-6.31.16-20.11-4.94-21"/>
    <path class="cls-1" d="M649.46,370.72a1.7,1.7,0,0,1,.21,1.15c-.65,2.55-2.45,5.28.53,7.42,2.63,1.89,5.2.51,7.74-.65a3.7,3.7,0,0,1,4.6,2.18c3.49,27.3-3.44,54.21-7.15,62.53-4.07,10.43-20.46,15.83-20.85,13.84s-.54-23.2-.9-25.5c-.08-.51-.5-2-1.59-2.09s-1.58.65-1.77,1.71c-1.19,6.61.07,23.07,0,25-.09,1.68-13.61-4.39-17.45-9.41-3-3.89-3.58-5.83,1.65-7.73,6.38-2.33,11.73-6.74,12-13.69.05-1.65-1.16-3.41-1.82-5.24a72,72,0,0,1-4-18.37c-.65-7.05-1.23-14.11-1.63-21.17a189.34,189.34,0,0,1,.73-33c.41-3.51.56-7.05.78-10.58.08-1.36-2.92-3.58-5.56-1.54-12,9.22-22.86,19.18-30.53,32.3a15.59,15.59,0,0,0-1.6,4.37,3,3,0,0,0,1.15,3.12,2.7,2.7,0,0,0,3.22-.21c2.65-3.42,5.16-6.93,7.9-10.27q6.72-8.2,13.7-16.19c1-1.15,2.33-3.18,3.79-2.69,2.4.79,2.17,3.2,2.07,4.34a206.41,206.41,0,0,0,.18,37.7c.77,8.22,1.61,16.43,2.31,24.65a4.7,4.7,0,0,1-2,4.06,13.11,13.11,0,0,1-6.42,2.74,3.65,3.65,0,0,1-4.35-2.84c-.22-1.15-.33-2.33-.47-3.5a12.14,12.14,0,0,0-5-9,10.91,10.91,0,0,1-4.4-6.7c-1.1-4.57-1.69-6.94-3-11.44-.15-.49-.67-3.36-2.45-3.23-2,.15-1.87,3.53-1.9,4.69a37.88,37.88,0,0,0,2.12,12.73c.68,2.06-.14,3.72-2,5s-4,2.66-5.41,4.49c-5.24,7-6.72,5.63-14,3.08a193.76,193.76,0,0,1-51.06-26.5c-3.17-2.31-6.14-4.9-9.18-7.39-3.78-3.12-6.25-6.71-6-12.07.17-3.47-.76-7-1.44-10.49a46.71,46.71,0,0,0-9.76-21.19c-1.72-2.1-3.51-4.14-5.11-6,1-2.9,3.3-3.9,5.32-5,14.19-7.76,116.57-37.61,166.81-4.36,5.45,3.6,8,9.56,8,16.37,0,11,.23,22-1.11,33a2.3,2.3,0,0,1-3.46,1.72,81,81,0,0,0-8-4.89,7.83,7.83,0,0,0-5.72-.89c-1,.22-2,1.89-1.16,2.61,1.21,1,2.77,1.69,3.56,3"/>
    <path class="cls-1" d="M420.13,206.29c-.73,1.42-2.79.2-3.89,0a77.66,77.66,0,0,0-32.73.05,29.59,29.59,0,0,1-4.4.57,163.57,163.57,0,0,1-50.64-4.67c-2.28-.6-4.51-1.37-6.76-2.06a27.6,27.6,0,0,1-18.36-17c-1-2.54-1.63-5.23-2.6-7.78-.2-.54-.61-2.17-2.35-1.61s-1.63,1.34-1.56,2.6a52.55,52.55,0,0,0,1.76,8A33.15,33.15,0,0,0,320,204.86c3.71,1.24,13.67,3.51,15.07,3.87a1.27,1.27,0,0,1,.27,2.36c-1.13.59-2.27,1.14-2.83,1.44-16.52,8.81-28.54,22.16-37.67,38.13a194.2,194.2,0,0,0-22.17,59.41,218.53,218.53,0,0,0-4.4,43.36c.09,12.2-.58,38.95-.66,40.13s-1.92,3-3.17,3c-3.92-.17-7.85-.5-11.78-.5-9.88,0-9.85,0-10.05-9.58-1.61-64.79,12.41-135.1,60.22-171,3.36-2.53,6.75-3.83,10.9-2.61,1.51.44,3.06.75,4.61,1,1.86.36,3.41-.21,4.06-1.41s-.62-2.65-2.55-3.1c-3.07-.71-6.12-1.49-9.22-2-7.53-1.32-12.85-5.58-16.46-12.15a33.57,33.57,0,0,1-4.45-13.33c-.68-7.85-1.44-15.68-2-23.54-.78-11.77-.76-23.6-2.27-35.34a50.11,50.11,0,0,1,.14-8.21c0-1,.7-1.57,1.55-1.24a3.15,3.15,0,0,1,1.54,1.43,6.59,6.59,0,0,1,.49,2.29,16.07,16.07,0,0,0,2.58,7.77c2.81,4,3.88,8.51,4.7,13.2a60.64,60.64,0,0,0,12.64,27.61A43.48,43.48,0,0,0,329,180c8.8,3.16,21.93.62,28.89-8.09a33.79,33.79,0,0,0,4.87-8,53.41,53.41,0,0,0,4.21-26.53c-1-9.06-3-17.92-7.68-25.84-4-6.82-5.87-14.53-9.35-21.55-1.75-3.77,13.34,2,17,7.67a66.11,66.11,0,0,1,5,9.35c4.31,9.7,8.23,19.58,12.71,29.2,4.13,8.85,3.22,17.63.48,26.45a68,68,0,0,1-10.51,21c-.71.94-1.3,2-1.92,3-.87,1.4-.33,3.57,1.07,4,9.06,2.57,33.74,5.25,45.08,12.17.86.53,2.06,2.11,1.33,3.55"/>
    <path class="cls-1" d="M472,572.09a17,17,0,0,1,3.55,1.07Q489.81,581.49,504,590c2.11,1.25,2.43,2.49,1.47,5Q493.74,625.17,482,655.42c-2.83,7.33-5.46,14.75-8.36,22.06A40.72,40.72,0,0,0,471,693.67c0,1.18.07,2.36.12,3.54.68,17.5,3.48,20,14.18,31,2.46,2.53,5.43,4.54,8.07,6.91a20.46,20.46,0,0,1,3.07,3.56c2.94,4.24,1,10.15-3.87,11.44-6.47,1.73-13,3.15-19.77,3a46.12,46.12,0,0,1-12.8-1.71,98.18,98.18,0,0,0-17.24-3.82c-5.13-.6-7.25-2.87-8.54-8.4a37.48,37.48,0,0,1-.64-7,132.61,132.61,0,0,1,3.68-36.29c3.5-14.53,7.13-29,11.12-43.41,6.94-25,14.17-49.92,21.33-74.85a50.87,50.87,0,0,1,2.26-5.51"/>
    <path class="cls-1" d="M458.63,168.33c5.63-8,13.37-13.7,20.62-19.72A78.83,78.83,0,0,1,507,133.71c7.35-2.22,15-3.79,22.13-1.48,6.07,2,15.21,2.07,19.68,0,14.24-6.6,24.21-6.11,31.81-2.86,7,3,13.92,5.2,21.53,5.2,4.37,0,3.21,2.15,1.35,4.25-6.21,7-20.25,10.28-26.48,11.14a3.39,3.39,0,0,1-3.59-2.39c-.39-1.91-.78-3.84-1-5.79-.17-1.56-.89-2.77-2.17-2.75-1.48,0-2.08,1.19-2.11,2.5s.27,7.58.43,9.53c.4,4.46-1.06,8.44-3,12.37-1.73,3.51-3.49,7-5.21,10.55a45.59,45.59,0,0,0-4.87,16.84c-.17,2.29-.06,4.73-1.54,6.77-.56.76-1.25,1-2,.44a10.84,10.84,0,0,1-2.42-2.36c-2-3-2.5-6.54-3.24-10a38.91,38.91,0,0,0-2.22-6.61,2.39,2.39,0,0,0-3.81,0c-3.48,5.21-3.71,11-2.93,17a40.68,40.68,0,0,1,.53,5.7c0,.5.17,1.85-1,2.42a2.55,2.55,0,0,1-2.87-.68c-3.64-3.11-6.55-6.88-7.68-11.55a13.86,13.86,0,0,1,.47-6.92c1.13-3.73,2.87-7.27,4.21-10.94a2,2,0,0,0-.85-2.72c-1.76-.88-2.67-.18-4.39,3.42-3.52,7.37-4.47,7.53-9.58,0-1.32-1.93-5.88-7.31-6.54-8.27a2.78,2.78,0,0,1,1.42-3.82c1.9-.48,3.83-.83,5.73-1.29,1-.23,2.31-.73,1.86-2.44a2.24,2.24,0,0,0-2.14-1.61,16.09,16.09,0,0,0-9.21,1.18c-2.52,1.08-5,2.25-7.44,3.52-9.16,4.78-19,7.21-29.14,8.76-3,.47-13.63-.34-12.06-2.56"/>
    <path class="cls-1" d="M438.93,274.26c-4.95-.06-5.65-3.26-6.34-6.48-.49-2.27-2.08-27.54-8.14-37.72-.53-.89-1.28-2.24-.13-3a5,5,0,0,1,3.36-.45c16.56,3.22,33.13,6.46,49.66,9.86a45.44,45.44,0,0,0,15.25.4c8.57-1.15,28.38-6,29.92-6.28a2.74,2.74,0,0,1,3,1.37A40.78,40.78,0,0,0,535,245.36c1.07,1,2.38,4.29-2.19,8.31-7.58,6.67-52.78,21.13-93.86,20.59"/>
    <path class="cls-1" d="M345.23,575c-.76-.94-.18-2,0-2.76,3.83-12.93,5.24-61.34,4.06-76.94-1.43-18.86-14.9-83.14-13.25-85.7.93-1.43,3-.65,3.9-.29,5.5,2.08,7.9,3.46,13.35,5.68,1.62.66,3.81,2.56,4.29,4.32,1,3.59,10.69,39.83,14.51,57.91a422.18,422.18,0,0,1,6.56,44.31,253,253,0,0,1,.67,40.08,31.41,31.41,0,0,1-1,7c-1.65,5.63-1.74,7-8.89,7.06-6.69,0-13.37.19-20.06.16-1.45,0-3.37.2-4.2-.82"/>
    <path class="cls-1" d="M362.38,143.72a48.57,48.57,0,0,1-4.27,18,27.79,27.79,0,0,1-6.12,8.56,21.18,21.18,0,0,1-25,3.6A38.68,38.68,0,0,1,316.81,166a62.43,62.43,0,0,1-16.54-33.18,6.7,6.7,0,0,1,2.41-6.25c6-5.54,30-17.45,42.13-19.73,3.92-.74,6.1.08,8.07,3.17a61.44,61.44,0,0,1,6.42,13.83,74.63,74.63,0,0,1,3.08,19.91"/>
    <path class="cls-1" d="M500.2,431.88a7.17,7.17,0,0,1-3.4-4.68c-1.45-6.61.23-26.41.75-29.9.28-1.88,1.86-2.68,3.32-1.71,1.63,1.07,3.27,2.14,4.83,3.32a247.19,247.19,0,0,0,57.73,33.37c6.05,2.45,8.23,2.5,6,11.42-1.73,6.87-3.71,13.6-7.78,19.51a3.9,3.9,0,0,1-4.15,1.22c-.93-.45-45.86-26-57.27-32.55"/>
    <path class="cls-1" d="M550.3,242.51c-10.46-.15-19.84-9.73-19.09-19.86.74-9.92,8-18.91,20.36-18.42,11,.44,18.28,9,18.51,19.1.25,10.41-9.2,19.32-19.78,19.18"/>
    <path class="cls-1" d="M343.69,326.93c-1.73-7.54,3.12-13.38,9.64-18.49a46.71,46.71,0,0,1,16.77-8.25,17.58,17.58,0,0,1,5.8-.19c2.31.15,3.89,2.53,3.66,5.12-.31,3.49-1.76,4.57-5.4,4a8.2,8.2,0,0,0-2.3-.38,2.92,2.92,0,0,0-1.9,1,2.18,2.18,0,0,0,.05,2c1.35,1.39,3.05,2.44,4.35,3.86a18.13,18.13,0,0,1,2.46,3.92c.68,1.28-.15,2.79-1.81,3.52-3.25,1.44-3.41,2-1.26,4.75.49.62,1.06,1.16,1.54,1.77a2.31,2.31,0,0,1,.52,1.05,1.1,1.1,0,0,1-.32.81c-.27.25-.71.56-1,.51-1.5-.32-3-.82-4.47-1.12a43.62,43.62,0,0,0-4.55-.62c-.29,0-.69.38-.92.68a1.18,1.18,0,0,0-.17.91,5.68,5.68,0,0,0,3.24,3.19,3.34,3.34,0,0,1,2.08,3.79c-.37,1.52-1.89,2.34-3.48,2.83-6.13,1.89-12.25,2.74-18.48.43a4.74,4.74,0,0,1-3.45-4.22c-.22-3.14-.35-6.27-.6-10.94"/>
    <path class="cls-1" d="M570.36,428.87a203.94,203.94,0,0,1-67.89-39.25c-1.93-1.68-3-3.62-2-6.17a2.37,2.37,0,0,1,1.65-1.19,3.15,3.15,0,0,1,2.16.64c3.37,2.69,6.68,5.48,10,8.23a160.14,160.14,0,0,0,62.25,32.13,141,141,0,0,0,16.14,3.25,40.37,40.37,0,0,0,24.11-3.61c1.55-.78,3.71-.2,4.3,3.17.48,2.82-2.94,4.49-3.62,4.86-16.88,6.77-37.85,1.13-47.11-2.06"/>
    <path class="cls-1" d="M348.29,99.52c-1.53,2.28-4.06,2.35-6.25,2.78-11.3,2.24-21.62,6.88-31.46,12.65-3.71,2.17-7.15,4.8-10.72,7.21-2.13,1.44-4.66.32-5.2-2.44a48,48,0,0,1-.9-7,6.91,6.91,0,0,1,3-6.09,68.47,68.47,0,0,1,5.77-4A127.36,127.36,0,0,1,334,89.83a19.57,19.57,0,0,1,5.82-.45,5.5,5.5,0,0,1,3.16,1.33c2.64,2.39,4.8,5.15,5.36,8.81"/>
    <path class="cls-1" d="M390.64,183.72c-.31,4-1,5.25-6.4,4.45a29.32,29.32,0,0,1-3.6-.89c-1-.3-.67-2.09-.27-2.86,2.69-5.2,5.37-9.94,8.08-15.13a1.34,1.34,0,0,1,2-.64c.25.14.39.65.42,1,.11,1.94,0,11.34-.22,14.07"/>
  </g>
</svg>
