<svg id="Livello_1" data-name="Livello 1" xmlns="http://www.w3.org/2000/svg" viewBox="0 0 841.89 841.89">
  <defs>
    <style>
      .cls-1 {
        fill: #231f20;
      }
    </style>
  </defs>
  <title>Glos</title>
  <g>
    <path class="cls-1" d="M426.94,342.5c1.37-.25,2.85.95,4.41,1.31,5.07,1.22,6.72-.52,5.44-5.66-.19-.77-.8-1.57-.55-2.31.58-1.75,3-1.07,4.63-.6,2.34.7,4.55,1.89,7.14,1.47.89-.14,2.28-1.74,2-2.68a40.71,40.71,0,0,1-1.65-4.59c-.22-1.08-.83-2.94.4-3.74,3-1.95,6.53,2.05,9.67,2.94,1.78.52,4.18-2,3.59-3.82-2.75-12.9-10.67-21.41-8.7-23.19,13.75-12.37,21-26.34,26.18-42.94.74-2.34,1.27-8.27,3.36-9.13,18.94-7.8,46.33,6.18,57.25,18.1a32.75,32.75,0,0,1,8.61,18.59c2.16,16.66,3.68,33.43,7.28,49.88a182.33,182.33,0,0,0,18,48.23,59.64,59.64,0,0,0,5.68,8,2.23,2.23,0,0,0,2.12.4,2.59,2.59,0,0,0,.82-2,4.69,4.69,0,0,0-.92-2.19c-6.64-10-11.33-20.92-15.31-32.13-4.53-12.78-11.71-59.56-11.75-61.61A2.9,2.9,0,0,1,557,292.5c8.17.41,18,.94,26.14,1.34,6.73.33,28.45,100.32,9.6,119.58-11.72,12-42.5-12.51-48.32-20-6.55-8.45-13-16.91-22.07-22.91-1.72-1.13-2.48-3.17-3-5.23-3.95-16-6.85-28.69-5-45.26.09-.77.58-5.48-1.4-5.53-3.23-.07-3.32,4.87-3.58,7.66-2,20.76.6,40.92,8.64,60.26a65.7,65.7,0,0,0,10.54,18,31.68,31.68,0,0,1,2.6,4.17C522,419.73,415.47,444.76,414.68,445c-6.81,1.75-13,1.06-18.44-4.92-.29-2.29-.49-5.14-1.06-7.91-.68-3.3-2.2-6.39-5.33-7.9s-4.06-3.42-4-6.71c.16-12.71.08-25.43.06-38.15A81.66,81.66,0,0,0,384,363.52c-2.08-10.42-6.75-19.57-14.71-26.4-11-9.41-19.82-20.76-30-30.85a118.88,118.88,0,0,1-16.5-21.42c-6.73-10.69-10-22.22-9-35.08,1-13.18,6.86-52.67,11.62-51.48,5.67,1.42,16.39,22,15.89,26-.42,3.33-11.86,9.27-16.77,18.3-.79,1.73.09,3.63,2.3,4.79,1,.55,2.87.47,3.3,1.9.72,2.39-3.55,10.91-3.68,12.94-.11,1.53,1.58,2.44,3.4,1.93a9.75,9.75,0,0,1,3.49-.65c2.15.43.51,4,.79,6,1.08,7.71,5.47,12.57,12.89,14.68a2.14,2.14,0,0,0,1.79-1.05c.37-2.39.45-4.81.71-7.21a1.27,1.27,0,0,1,.67-.89c1.48-.65,2.66,1,3.08,1.61a78.35,78.35,0,0,0,11.23,13,35.45,35.45,0,0,1,9.13,14.41c1.07,3.1,2,6.24,3.08,9.34a57.92,57.92,0,0,0,17.67,26.18c3.45,2.92,6.86,5.87,10.39,8.66a2.28,2.28,0,0,0,2.17-.43c1.44-1.59,2.82-2.89,5.17-1.78a8,8,0,0,0,2.37.63c5.71.75,5-2.77,12.45-4.16"/>
    <path class="cls-1" d="M611.22,549.72a123.2,123.2,0,0,1-43.06,34.09c-1.47.71-3,1.29-4.5,2-5.81,2.65-11.73,3-18,1.77-8.84-1.68-122.71-18.78-132.46-20.12-.73-.1-2.55-.32-3.11,1.27-.44,1.27.2,1.93.56,2,3.95,1,27.34,5,35,6.1a2.8,2.8,0,0,1,1.85,1.23,2.55,2.55,0,0,1-.14,2.22,46.48,46.48,0,0,1-3.25,3.66,16.8,16.8,0,0,0-4.39,12.42c.18,3.27,0,6.66.86,9.78,2.53,9.61.4,18.74-2.36,27.8-1.19,3.91-3.07,7.61-4.37,11.49-1.39,4.14-4.39,6-8.41,5.89-9.48-.13-18.82-1.16-27.57-5.23-3.82-1.77-5.1-3.78-4.48-7.71.83-5.26,1.83-10.5,2.78-15.75s1.8-10.51,2.9-15.73a73.12,73.12,0,0,0,.6-26.94c-1.5-9.15,0-18,1.28-26.92a9.8,9.8,0,0,1,2-4.38c1.74-2.28,3.76-4.34,5.7-6.45Q441.35,507,474,471.82c1.93-2.08,5.9-7.54,4.42-8.7-1.28-1-3.9,1.71-5,2.84-6.27,6.5-21.4,22.69-23.57,23.12-9.25-4.81-21.64-2.64-22.13-2.71-3.72-1.95-5.95-5.49-8.44-8.7a93.67,93.67,0,0,1-10.24-16.78,10.35,10.35,0,0,1-1.09-7.12,3,3,0,0,1,1.27-2c3.05-1.13,100.25-27.18,103-27.85a4.2,4.2,0,0,1,4.22,1.79c1.9,3.63,4.12,7.14,5.51,11a73.8,73.8,0,0,1,2.79,40c-1.47,7.34-4.15,14.19-10.16,19.23-.24.2.15,1.62.64,2.05a2.51,2.51,0,0,0,2.17.4c2.78-1.09,4.63-3.28,6.23-5.72,3.91-6,5.79-12.73,6.83-19.61a89.34,89.34,0,0,0-.1-28.22c-1.28-7.71-3.66-15.13-8.19-21.71-1.35-2-.83-3.58,1.23-5.26.31-.25,10-9.21,21.93-.37,7.71,5.74,13,13.65,16.91,22.38a96.65,96.65,0,0,1,8.24,33.25c1.41,22.52-1.9,44.21-11.23,64.81-2.7,6-6.09,11.61-9.13,17.43-.75,1.42-2.88,5.15-1.19,6.14s3.45-1.25,4.14-2.19c4.13-5.66,11.7-22.09,12.88-23.72a4.38,4.38,0,0,1,3.07-1.59c12.83-.11,25.26,2.43,37.4,6.37,7.83,2,5.75,8.11,4.75,9.34"/>
    <path class="cls-1" d="M635.5,234.71c-1.81,5.46-2.55,5.65-7.94,5.46-2-.06-4.34.44-6-.37-4.56-2.23-8-.53-11.06,2.51a12.16,12.16,0,0,1-6.42,3.3c-2.68.55-4.22,2.62-5.2,4.87-1.29,3-2.12,6.13-3,8.87-2.81,1.46-5.26.77-7.66.41a42.87,42.87,0,0,0-11,.09c-8.51.91-15.76,4.2-21.53,10.59-1.09,1.21-2.2,2.4-3.23,3.52a6.21,6.21,0,0,1-3.94-2.95A61,61,0,0,0,537,258.21c-11.48-9.5-24.84-14-39.59-14.81-3.24-.17-9.87,1.41-11.21,0-1.12-1.16,1.34-3.07,1.84-4,1-1.77,2.28-3.33,3.35-5,.53-.85-.51-2.78-1.48-2.91l-19.46-2.68c-1.85-.25-2.73-1.46-3.29-3.14-.62-1.85-2.31-2.32-3.93-2.15-6.12.63-12.2,1.47-18.32,2.13a2.12,2.12,0,0,1-1.77-1,3,3,0,0,1,.54-2.22c.75-1,8.3-5.72,2.94-8.48s-23.88-1.15-25.74-3.13c-1.33-1.41-.35-3.62.08-5,.94-3.13,2.28-6.13,3.44-9.19A2.09,2.09,0,0,0,422.6,194a102.72,102.72,0,0,0-22,2.32,18.92,18.92,0,0,0-14.05,12.51,8,8,0,0,0-.41,3.64c.13,1.08.88,3.05,2,3.53.85.37,1.72-1.14,2.06-2.28.24-.78.38-1.6.55-2.4,1.08-5.38,4.62-8.39,9.56-10.23a26.61,26.61,0,0,1,15.69-.76,2.26,2.26,0,0,1,1,1.92c-1.33,7.52-5.16,13.76-10.34,19.21-2.25,2.37-4.82,4.44-7.12,6.76a2.1,2.1,0,0,0-.09,2.06,2.83,2.83,0,0,0,2.18.77A6.49,6.49,0,0,0,405,230a44.55,44.55,0,0,0,6-6.13c3-3.84,7-5.55,11.5-6.54s14.24-2.15,16.29,2c2.78,5.69-6.3,10.75-9.46,16-2.89,4.8-7,10.23-13.3,8.85-2.68-.59-5.12-3.13-7.83-4.93a39.44,39.44,0,0,0-26.93-6.5,77.92,77.92,0,0,0-12.13,1.88,16.83,16.83,0,0,1-11.94-.84A22,22,0,0,1,346.55,224a8.69,8.69,0,0,1-1.41-3.38c-.31-5.73-3.86-9.81-6.88-14.16q-12.28-17.7-24.62-35.35c-4.47-6.38-8.73-12.94-14.84-18a7.26,7.26,0,0,1-1.23-2.09c-.87-1.6-.29-4.85,1.18-5.59,3.65-1.83,7.29-3.73,11.08-5.22a6.52,6.52,0,0,1,7.75,2,48.36,48.36,0,0,0,7.28,6.57c1.21.89,3,1,4.61,1.32a1.17,1.17,0,0,0,1-.59c.2-.66.5-1.78.2-2-2.2-1.83-4.63-3.39-6.79-5.27a14.68,14.68,0,0,1-3-3.82,2.48,2.48,0,0,1,.15-2.28c.75-.87,1.87-1.95,2.85-2a13.32,13.32,0,0,1,9,3.5c3.39,2.95,6.55,6.19,9.75,9.37q15.7,15.63,31.36,31.32a23,23,0,0,0,8.21,5.28c2.42.92,4.89.89,6.88-1a39.82,39.82,0,0,0,5-5.4c6.66-9.36,13.2-18.81,19.74-28.26a10.37,10.37,0,0,0,1.54-3.3,2.56,2.56,0,0,0-.59-2.22,95,95,0,0,0-9.25-5.95C395.19,132,387,124,379.21,115.5a15.94,15.94,0,0,1-2.77-5.37c-.94-2.64,1.28-6.18,3.88-6.71A23.39,23.39,0,0,1,397,105.69a57,57,0,0,1,11.84,8.74c3.25,3.13,6.47,6.3,9.76,9.4a58.58,58.58,0,0,0,14.93,10.72c.74.35,1.51.66,2.22,1.07,6.48,3.75,7.91,6.6,6.5,14.21-.81,4.42-2.09,8.76-3.28,13.12-.64,2.37-1.53,4.67-2.3,7-.25.77-.47,1.56-.7,2.34a2.47,2.47,0,0,0,1.82,2.7,1.73,1.73,0,0,0,2.09-.85c2.89-4.59,3.75-9.92,5.43-15a11.75,11.75,0,0,1,1.51-3.27,2.69,2.69,0,0,1,2.1-1c1.59.25,76.24,30.89,79.7,32.16,1,.37,3.79.77,4.39-.71.68-1.68-2.17-3.58-3.55-4.2-7.47-3.4-15-6.72-22.54-9.83a36.67,36.67,0,0,1-11.39-7.15,18.13,18.13,0,0,1-2.42-2.76,2.8,2.8,0,0,1-.21-3.39,3.36,3.36,0,0,1,1.82-1.35c7.78-1.09,124.84,5,141,60.1a27.58,27.58,0,0,1-.19,16.93"/>
    <path class="cls-1" d="M322.11,441.72c1.38-.16,2.75.08,3.41-.5a7.07,7.07,0,0,0,1.57-3.25c.29-.92.73-1.48,1.74-1.3.28.05.58.56.68.92,1.42,4.94.65,9.73-1.21,14.4a41,41,0,0,1-2.22,4.39c-3.82,7-5,14.78-5.32,22.58-.38,9.61,2.94,17.72,11.34,23.18a28,28,0,0,0,4.14,2.63c7.66,3.1,12.14,9.52,16.87,15.74,2.71,3.56,4.4,7.86,7.85,10.84.34.29,1.39-.13,2.05-.39a1.14,1.14,0,0,0,.45-1,6,6,0,0,0-.67-2.31c-2.39-3.82-4.8-7.65-7.34-11.37-1.84-2.7-3.9-5.26-6-8.08.39-1.08.53-2.38,1.23-3.2a32.59,32.59,0,0,0,6.09-12c3.36-11,8.09-35.88,12.81-37.15,3.75-1,8.53,2.63,10.09,6.57.45,1.17-.16,2.51-.66,3.5-4.52,8.83-7.17,18.31-9.76,27.8a97.85,97.85,0,0,0-2.94,31.74c.07,1.11.21,2.25,1.57,2.79,1.2.48,2.45-1,2.62-3.34.07-.82.11-1.64.15-2.46.16-2.87.32-5.74.45-8.61.75-18,5.84-34.68,14.27-50.46,2.51-4.69,5.11-9.34,7.66-14a2.87,2.87,0,0,1,4.07-1.41c1.78.95,3.44,2.13,5.2,3.23.35,13.27,6.5,23.65,15.19,32.83a61,61,0,0,1,4.17,4.5,2.31,2.31,0,0,1-.29,2.21c-4.61,4.66-9.41,9.14-14,13.84-9.74,10-19.4,20.07-27.81,31.25a21.3,21.3,0,0,1-2.45,2.74A9.29,9.29,0,0,1,368,541c-1.57-.4-3.07-1-4.63-1.43-.26-.07-.87.36-.95.65-.2.7-.52,1.79-.18,2.14,3,3.2,6.64,4.69,11.08,3.31a18.74,18.74,0,0,0,9-6.09c5-6,9.85-12.11,15.2-17.77,7.59-8.06,15.48-15.85,23.45-23.55a49.61,49.61,0,0,1,8.85-6.56,15.37,15.37,0,0,1,13-1.37c1.83.57,2.89,3.58,1.72,5.1-1,1.29-2,2.57-3.12,3.77-20.51,22.4-65.62,72.35-67.82,74.77a6,6,0,0,1-6.79,1.53c-3.81-1.39-7.49-3.13-11.38-4.8-10.24,8-43.13,28-48.5,31.78-2.76,1.93-4.92,4.42-5.17,8a15.9,15.9,0,0,1-3.54,9c-3,3.78-3.76,8.14-3.41,12.75a69.53,69.53,0,0,1-.55,18.4c-1,5.24-2.05,10.47-3.12,15.69-.74,3.62-1.34,7.29-2.39,10.82-1.9,6.42-1.89,13-1.76,19.54A27.65,27.65,0,0,0,298.25,719c2.27,1.76,4.75,3.25,7,5a11.5,11.5,0,0,1,4.14,6c.3,1.11-.28,2.91-1.17,3.11a36.41,36.41,0,0,1-14.63.06,8.24,8.24,0,0,1-5.59-4.49c-4.41-7.92-8.11-16.17-10.05-25-1.49-6.8-2.58-13.65-.8-20.72.88-3.52.54-7.34.75-11a24.54,24.54,0,0,0-2.44-13.12c-1.73-3.3-.92-6.14,1.53-9a55.31,55.31,0,0,0,10-16.88,6.61,6.61,0,0,0-.18-5.92c-.2-.33-.55-.84-.78-.81-.73.09-1.9.21-2.07.64-1.18,3-1.92,6.22-3.22,9.18-2.53,5.7-6.67,10.22-11,14.7-12.94,13.48-18.54,29.68-17.16,48.33a38.55,38.55,0,0,0,6.32,18.41c1.79,2.74,3.6,5.47,5.31,8.26.93,1.52-1.07,4.19-3,4.46-2.17.3-4-.57-5.92-1.22-6.66-2.3-11.16-6.77-13-13.63a68.75,68.75,0,0,1-1.74-9.67c-.73-6.52-1.26-13.06-1.85-19.6-.42-4.52-.57-9,1.3-13.33.48-1.12.52-2.41.93-3.57,4.22-11.79,3.09-23.4-1.11-34.92-.57-1.55-2.09-2.89-3.71-2.68a45.92,45.92,0,0,1-17.07-1.5,20.3,20.3,0,0,1-8.6-4.59c-8.63-7.73-6.84-20.88,3.7-26.85a3.41,3.41,0,0,1,2.36-.3c.6.18,1.51,1.19,1.4,1.53a17.52,17.52,0,0,1-1.81,3.16,27.1,27.1,0,0,0-2.42,4.23,12,12,0,0,0,8.15,15.53,25.84,25.84,0,0,0,13.41-.21,17.09,17.09,0,0,0,8.17-5.28c1.91-2.15,49.87-67.24,51.31-69.23a15.25,15.25,0,0,0-.55-18.3c-8-9.52-10.75-21-11.63-33,0-.37.29-1.09.45-1.09.68,0,1.63,0,2,.37,1.41,1.47,2.54,3.22,4,4.68a28.76,28.76,0,0,0,4.67,3.94c4.89,3.19,10.58,2.18,14.3-2.32a21.62,21.62,0,0,0,4.77-11.17c.32-2.38,1.48-4.75.18-7.16-.18-.33-.59-.82-.83-.78-.7.1-1.75.24-2,.69a21.25,21.25,0,0,0-.92,3.53,80.36,80.36,0,0,1-2.36,8.26c-2.81,7.17-9.34,8.15-14.41,2.26a30.24,30.24,0,0,1-7.2-16.69c-.31-2.85-.31-5.74-.42-8.6a24.34,24.34,0,0,1,4.83-16.17c2-2.62,3.75-5.38,5.68-8a2.67,2.67,0,0,1,4.15-.34,20.37,20.37,0,0,0,7.31,6.44,11.36,11.36,0,0,0,3.54.76c1.33.13,3-1.47,3.42-3a3.57,3.57,0,0,0-2.11-3.92,6.29,6.29,0,0,0-2.39-.42c-3.52.36-5.41-1.66-6.4-4.58a8.49,8.49,0,0,1,1.83-9.12,22,22,0,0,1,15.07-7.33,3,3,0,0,1,2.54,2.26,106.78,106.78,0,0,1-.15,12.62"/>
    <path class="cls-1" d="M452.69,321.6a18.69,18.69,0,0,1-10.92-7.41c-1.87-2.68-3.69-5.39-5.68-8a1.59,1.59,0,0,0-2.09-.37,1.62,1.62,0,0,0-.75,2.07,16,16,0,0,0,1.49,3.28c2.76,5.48,8.35,10.89,7.08,16.89-.4,1.92-2.86,1.6-4.43,1a11.7,11.7,0,0,1-6.46-5.41,60.67,60.67,0,0,0-8-12.36c-.88-1-1.54-1.83-2.82-1.73a1.47,1.47,0,0,0-1.31,1.58c.1,2.16,1.44,3.72,2.63,5.33a43.86,43.86,0,0,1,8.29,18.92c.22,1.31-.22,1.6-1.65,1.3a15.48,15.48,0,0,1-11.56-10c-1.5-3.79-2.38-7.83-3.59-11.74a11.46,11.46,0,0,0-1.47-3.33,2.1,2.1,0,0,0-1.84-1.15,1.21,1.21,0,0,0-1.09,1.29c-.2,2.67,1,5.92-1.82,5.93-3.5,0-5.47-4.5-8.27-6.72-.23-.19-1.25-.68-1.81.07a2.43,2.43,0,0,0,0,2.12,9.26,9.26,0,0,0,1.86,3.07c2.68,3.09,5.45,6.11,8.23,9.14,4.15,4.51,12.43,9.47,10,15.17-.42,1-1.83,1-2.49.88-4.57-1-8.52-3.18-10.38-7.67a38.32,38.32,0,0,0-12.95-16c-.86-.64-2.18-.73-2.63.13a2.42,2.42,0,0,0,.4,2.5c2.57,3.17,5.4,6.13,7.91,9.34a15.59,15.59,0,0,1,1.86,4.4,1.3,1.3,0,0,1-.24,1.15,1.8,1.8,0,0,1-1.31,0,17.73,17.73,0,0,1-3-2.09,49.4,49.4,0,0,1-11.51-17.26,117.12,117.12,0,0,1-4.26-11.52A43.23,43.23,0,0,0,364.56,283c-3.07-2.61-5.42-6.1-7.93-9.32-1-1.28-2.15-3.76-.11-5,2.21-1.29,5.43-.43,8.22-.12a8.94,8.94,0,0,1,7.54,5.58c1.11,2.63,1.9,5.39,3,8a4.61,4.61,0,0,0,3.54,3.07c3.22.46,4.89,2.83,6.47,5.23.88,1.35,1.67,3,.73,4.64-3.78,6.49,1.25,15.07,3.23,18.17.6.94,2.66.25,2.76-1a5.85,5.85,0,0,0-.19-2.36c-.75-2.26-3.24-4.45-2.49-6.83.49-1.52,2.21-1.88,3.3-2.22,5.21-1.62,8.17-5.06,9.4-10.34.53-2.24,2.68-3,4.84-2.23a24.55,24.55,0,0,1,3.4,1.4c4.32,2.27,8.59,4.65,12.95,6.85.32.17,1.79.21,2.06-.66a2.93,2.93,0,0,0-.88-2.63c-5.44-5.31-17.88-15.73-30.52-6.23-2.72,2-5.4,1.12-7.17-2a27.85,27.85,0,0,1-1.71-4.55c-.8-2.27-5.15-1.75-6-2.33-2.25-1.47-2.16-5.1-3.38-7.69-1.92-4.08-5.26-6.11-9.7-6.43-2.46-.17-4.92-.24-7.36-.53a6.4,6.4,0,0,1-5.23-6,12.28,12.28,0,0,1,1.83-7c3.87-6.24,9.57-9.89,16.53-11.88a45,45,0,0,1,30.95,2.65c15,7.31,36.94,31.53,39.36,34.82,1.29,1.77.81,3.8-.57,5.52-3.51-4.05-8.24-6.09-13.11-7.9-1.39-.5-1.85,0-2.79,3.17a74.78,74.78,0,0,1,19.36,12.59c.9.84,1.75,1.72,2.59,2.6s1.7,1.84.93,3c-.27.41-1.49.18-2.28.22s-1.71-.22-2.33.11-1.17,1.45-1,1.8a23.13,23.13,0,0,0,2.81,4,49.94,49.94,0,0,1,8.72,14.74,18.28,18.28,0,0,1,.68,3.58,2.14,2.14,0,0,1-2.29,2.15"/>
    <path class="cls-1" d="M543.71,591.08a18.82,18.82,0,0,1,12.42,7,118.06,118.06,0,0,1,24.26,43.75c1.05,3.54,2,7.11,3.31,10.55,2.41,6.5,2.26,7.19-2.9,11.59a51.84,51.84,0,0,1-18,10.29,5.54,5.54,0,0,1-5.59-1.6c-4.22-5.54-8.3-11.2-12.64-16.64-15.88-19.88-15.91-19.86-35.88-35.08-3.91-3-7.87-5.91-11.77-8.92a47.49,47.49,0,0,1-13.11-16.06,16.2,16.2,0,0,1-1.72-9.51,3.47,3.47,0,0,1,3.23-3c.81,0,42.6,5.5,58.42,7.71"/>
    <path class="cls-1" d="M418.17,685.91c-3.17,8.53-5.39,17.19-5,26.38a30.72,30.72,0,0,1-.39,6.13,11,11,0,0,1-11,9.61c-4.09.09-58.88-3.8-68.71-4.25a48.44,48.44,0,0,1-14.29-3.35,4.16,4.16,0,0,1-2.32-2.65c-.19-1,3.74-13,29.78-13.67,24-.62,40.61-17.19,42.14-27.61.89-6.07,3.14-20.63,3.33-21.84a2.91,2.91,0,0,1,3.72-2.13c9.5,4.45,21.85,5.48,32.22,5,.39,0-6.48,20.31-9.48,28.37"/>
    <path class="cls-1" d="M563.65,680.8a112.43,112.43,0,0,0,22-12.67,3,3,0,0,1,4.26.76c4,6.17,15.92,25.67,17.36,29.45a8.68,8.68,0,0,1-1.86,9.15c-3,3.4-53.61,31.6-67.62,31.58a14.79,14.79,0,0,1-11.9-5.21,3.41,3.41,0,0,1,.17-4.33c3.77-4.16,33.35-23.83,36.46-31.09a25.9,25.9,0,0,0,1.6-8.35,86.92,86.92,0,0,0-.43-9.29"/>
    <path class="cls-1" d="M573.41,287.75c-4.09-.24-8.17-.43-12.24-.72a25.81,25.81,0,0,1-3.59-.68c-1.35-.29-2.6-2.38-2.47-3.78.61-6.25,4.16-10.68,9.23-13.72a34.93,34.93,0,0,1,24.72-4.77c2.8.5,5.59,1.14,8.4,1.64a2.71,2.71,0,0,0,3.27-2.59c.14-3.7.22-7.4,2.34-10.62a5.14,5.14,0,0,1,1.81-1.37c.86-.49,2.51.38,2.91,1.54a24.75,24.75,0,0,1,1.4,4.67,26.58,26.58,0,0,1-.17,4.87,19.4,19.4,0,0,0-.22,3.63,2.14,2.14,0,0,0,1.56,1.38,2.31,2.31,0,0,0,1.89-1.1,24.19,24.19,0,0,0,1-6c0-2.84-.4-5.69-.56-8.54a31.79,31.79,0,0,1,.11-3.65,4.69,4.69,0,0,1,4.11-3.82c1.36-.05,2.51,1.43,2.86,3.41,1.06,6.12.2,12.2-.29,18.3a1.24,1.24,0,0,0,1.54,1.36c.38,0,1,0,1.1-.22a19,19,0,0,0,2.2-4.33,32.1,32.1,0,0,0,.77-6.05c.18-2.85.12-5.72.35-8.56,0-.59.8-1.21,1.36-1.65.78-.61,2.53.17,3.07,1.15a13,13,0,0,1,1.74,7,27.93,27.93,0,0,1-7.07,17.86,31.41,31.41,0,0,1-17.84,10,67.49,67.49,0,0,0-14.05,4.17,20.71,20.71,0,0,1-11.94,1.61c-2.41-.4-4.88-.42-7.33-.61v.12"/>
    <path class="cls-1" d="M422.24,249.69c-.87-2.82,8.83-7.46,10.84-11.65,1.72-3.59,4.85-5.48,8.41-6.61,5.44-1.73,10.92-3.62,16.75-2a2.12,2.12,0,0,1,.85,1.9A7.39,7.39,0,0,1,457,234.2c-5.86,4.4-11.73,8.82-17.78,13-2.32,1.59-5.13,2.46-7.68,3.74-1.14.39,0,2.53,1.1,2.61,3.77.3,7.92-.32,10.24-2.71,5.72-6.67,14-9.79,20.42-15.48a6.77,6.77,0,0,1,3.35-1.35c5.37-.79,18.08.24,15.77,4.58A30.19,30.19,0,0,1,455.18,255c-3.81,0-16.72,6-20.3,5.24s-12.34-9.6-12.64-10.55"/>
    <path class="cls-1" d="M473.36,254.82c1.19-.44,1.93,1.54,1.37,3.79A80.38,80.38,0,0,1,460,289.15c-5.33,6.63-7.46,3.51-8.75-1-2.24-7.93-5.29-15.34-10.19-22-.65-.88,0-2.37.81-3.14,1.89-1.73,19.52-3.72,31.49-8.17"/>
    <path class="cls-1" d="M358.33,240.69c-3.6,2.68-11,14.83-10.07,23.12a10,10,0,0,1-.92,4.65,71.73,71.73,0,0,1-3.45,6.47c-.48.88-2.41.52-3.09-.45-2.27-3.26-2.43-6.9-1.61-10.56a68.06,68.06,0,0,1,2.46-6.88,2.55,2.55,0,0,0-2.29-3.49,29.78,29.78,0,0,1-3.57-.32,2.1,2.1,0,0,1-.66-1.87c1.46-2,3.08-3.79,4.7-5.63s2.17-3.39,1.39-4.12c-1.05-1-2.21-.75-3.4-.62a20.56,20.56,0,0,1-3.64.39c-.59,0-1.2-.77-1.66-1.32a1.12,1.12,0,0,1,0-1.12c2.34-2.27,4.64-4.58,7.14-6.67a6,6,0,0,1,6.9-.09c3.31,2.37,7.86,5.69,11.73,8.51"/>
    <path class="cls-1" d="M390.75,435.34c.28,7.36-2.42,14.3-6.42,20.61a2.5,2.5,0,0,1-3.24,1.13,16.85,16.85,0,0,1-9.24-7.51,6.15,6.15,0,0,1-.69-4.59A36.28,36.28,0,0,1,380,430.6c5.71-4.59,10.6-.73,10.8,4.74"/>
  </g>
</svg>
