<svg id="Livello_1" data-name="Livello 1" xmlns="http://www.w3.org/2000/svg" viewBox="0 0 841.89 841.89">
  <defs>
    <style>
      .cls-1 {
        fill: #231f20;
      }
    </style>
  </defs>
  <title>Glos</title>
  <g>
    <g>
      <path class="cls-1" d="M155.1,627.31c20.33-6,37.63-16.63,53.66-29.84,14.51-12,26.56-25.8,33.05-43.53,3.09-8.42,4.28-17.61,5.67-26.55,3.08-19.81,5.77-39.67,8.58-59.51s5.52-39.46,8.29-59.19c.9-6.36,1.84-12.7,2.78-19.27,14.68,13.5,31.37,17.22,49.35,12.71,2.88,11.35,5.83,22.81,8.67,34.3a14.66,14.66,0,0,1,.39,5c-1.72,15.71-3.57,31.4-5.33,47.1-1.65,14.74-3.74,29.45-4.72,44.23-1.73,26.16-8.94,50-26.34,70.2-10.44,12.1-23.22,19.94-39.06,22.78-25,4.48-50.21,5.14-75.5,3.53C168.08,628.87,161.6,628,155.1,627.31Z"/>
      <path class="cls-1" d="M511.75,460.71c-.7,29.07-1.22,58.15-2.19,87.22-.92,28.59-2.41,57.12-3.44,85.71-.49,12.85-5.48,23.72-13.61,33.31-10.17,12-23.38,19.09-38.06,23.81-10.72,3.44-21.8,4.56-33.49,5-11.69-.4-22.8-1.52-33.49-5C372.76,686,359.55,678.91,349.38,667c-8.13-9.59-13.12-20.46-13.58-33.31-1.06-28.59-2.52-57.12-3.47-85.71-1-29.07-1.49-58.15-2.19-87.22-.09-3.35,0-6.67,0-10.08,5.6,10.75,11.11,21.37,16.72,31.94C355.59,499,366.1,514,379.34,527.14c14.43,14.4,41.62,24.39,41.62,24.39s27.16-10,41.59-24.39C475.82,514,486.3,499,495,482.57c5.61-10.57,11.12-21.19,16.75-31.94C511.78,454,511.84,457.36,511.75,460.71Z"/>
      <path class="cls-1" d="M514.92,419.73c-7.16,27.28-19.79,52.09-36.08,75-6.58,9.25-14,17.93-21.28,27.12-9.11-10.35-20.59-12.42-32.67-13.27-.09-2.13-.22-4.11-.31-6.09,4.23-.58,8.22-1,12.15-1.77,5.76-1.09,11.3-2.89,15.77-6.94,5.12-4.6,5-8.58-.76-12.21a37.11,37.11,0,0,0-11.29-4.75C434.2,475.44,427.79,474,421,474s-13.27,1.49-19.52,2.89a36.64,36.64,0,0,0-11.26,4.75c-5.82,3.63-5.91,7.61-.79,12.21,4.47,4.05,10.05,5.85,15.8,6.94,3.9.79,7.88,1.19,12.15,1.77-.13,2-.22,4-.34,6.09-12.09.85-23.56,2.92-32.67,13.27-7.27-9.19-14.7-17.87-21.28-27.12-16.26-22.93-28.92-47.74-36.08-75-2.8-10.78-4.68-21.89-2.92-33.19a8.19,8.19,0,0,1,2.13-4.32c3.26-3.17,6.79-6.09,10.14-9,7.58,9.56,17.78,12.45,28.41,14.31a38.5,38.5,0,0,0,19.73-1.5,26.65,26.65,0,0,0,6.45-3.22c5-3.44,5.39-8.35,1.1-12.52-7.4-7.21-16-11.29-26.61-11.38-14.28-.09-24.27,2.22-38.55,13.12-.73-3.87,1.89-10.69,4.54-13.18,15.19-14.41,44.91-13.49,62.66-1.62a39,39,0,0,1,4,2.44c3.32,2.77,5.73,5.81,5.76,10.71.12,15.2-2,30.05-4.87,44.88-.18,1.07-.4,2.13-.64,3.29a50.59,50.59,0,0,0-7.4,1.25,14.55,14.55,0,0,0-9.68,15.74c1.25,7.31,7.43,12.76,14.31,12.66,3.16,0,5.36-2.16,4.08-4.32a6.42,6.42,0,0,0-4-2.22c-4.63-.7-7.89-3.84-7.92-8.07,0-4.45,3.26-7.58,9.17-8-.76,2.68-1.34,4.84-2,7-1,3.2.55,5.27,3.77,5.21a5.61,5.61,0,0,1,2.93.67c6,4.08,12,8.25,18,12.45a3.6,3.6,0,0,0,3,0c5.94-4.2,11.91-8.37,18-12.45a5.43,5.43,0,0,1,2.9-.67c3.26.06,4.78-2,3.77-5.21-.67-2.13-1.25-4.29-2-7,5.88.4,9.14,3.53,9.14,8,0,4.23-3.29,7.37-7.89,8.07a6.34,6.34,0,0,0-4,2.22c-1.28,2.16.89,4.29,4.08,4.32,6.85.1,13-5.35,14.28-12.66A14.55,14.55,0,0,0,451,419.79c-2.34-.76-4.93-.85-7.4-1.25-.21-1.16-.43-2.22-.64-3.29-2.86-14.83-5-29.68-4.87-44.88,0-4.9,2.44-7.94,5.78-10.71a36.66,36.66,0,0,1,4-2.44c17.75-11.87,47.47-12.79,62.66,1.62,2.65,2.49,5.3,9.31,4.57,13.18-14.28-10.9-24.3-13.21-38.58-13.12-10.65.09-19.21,4.17-26.61,11.38-4.29,4.17-3.86,9.08,1.1,12.52a27.21,27.21,0,0,0,6.45,3.22,38.58,38.58,0,0,0,19.76,1.5c10.63-1.86,20.8-4.75,28.38-14.31,3.35,2.92,6.88,5.84,10.14,9a8.19,8.19,0,0,1,2.13,4.32C519.6,397.84,517.75,409,514.92,419.73Z"/>
      <path class="cls-1" d="M253.67,322.39,272.75,328c-1.74,6.41-4.1,13.29-5.43,20.37-2.74,14.64-5.11,29.36-7.32,44.1-3,20.06-5.73,40.16-8.57,60.24-3,21.29-5.87,42.6-9.07,63.85-1.72,11.38-2.89,23-6.35,33.9-4.71,14.8-14.21,26.92-26.19,36.94a29.17,29.17,0,0,1-5.92,4.44c2.81-4.06,6.22-7.83,8.28-12.23,3-6.54,6.29-13.35,7.45-20.37,6-36.64,11.4-73.4,17.1-110.1,4-25.55,8.28-51.05,12-76.64,1.1-7.54.36-15.34,1.12-22.95C250.79,340.27,252.41,331.1,253.67,322.39Z"/>
      <path class="cls-1" d="M416.06,199.65c-3.23,9.95-4.32,19.73-1.92,30a161.83,161.83,0,0,0-50.27,10.24C362,229,358,219.38,350,211.2A178,178,0,0,1,416.06,199.65Z"/>
      <path class="cls-1" d="M351.33,244.27c-6.9,3.88-13.63,7.26-19.92,11.31s-12.14,8.76-17.54,12.71c-6.91-6.27-13.83-12.58-21-19.1a152.76,152.76,0,0,1,46.89-33.63C340.89,226.49,345.11,235.83,351.33,244.27Z"/>
      <path class="cls-1" d="M286.7,316c2.92-4.71,5.54-9.2,8.47-13.47.7-1,2.42-1.49,3.77-1.86,7.5-2.06,13.62-5.76,18.13-12.48,1.38-2.05,5.13-3,8-3.47,4.53-.8,8.58-1.78,11.67-5.72,2.78-3.56,7.28-4.14,11.32-3.51,5.92.93,11.36.74,16.94-1.8,6.56-3,13.1-3.64,19.46,1.45,2.7,2.16,6.55,2.88,9.63,4.16l-14.6,7.54c-8-2.31-13.87,4.05-21,5.17a10.32,10.32,0,0,1-4.92-.22A12.64,12.64,0,0,0,342,292.93c-3,1.81-5.8,4-8.62,6.08-3.63,2.69-7.26,4.43-12.11,3.14-5-1.33-8.07,2.51-10.92,5.8-3.22,3.71-6.83,6.62-11.83,7.19C294.8,315.56,291,315.68,286.7,316Z"/>
      <path class="cls-1" d="M284.86,258.47c5.5,7.8,11.41,14.47,20.48,18.65-11.64,11.81-21.44,24.74-27.49,39.7l-20.51-6.06A158.18,158.18,0,0,1,284.86,258.47Z"/>
      <path class="cls-1" d="M274.68,351.68c1-14.6,5.81-24.85,18.44-26.87,7.68-1.22,13.67-3.44,18.92-9,3.09-3.25,7.06-4.05,11.68-2.65a12.72,12.72,0,0,0,13.9-3.83c5.23-5.68,11.88-6.91,19.27-5.56-4.85,5.87-9.81,11.49-14.3,17.45a9.8,9.8,0,0,1-8,4.39c-3.51.29-7.2,2-10.21,4.05-3.63,2.43-6.8,3.53-10.61.84-2.49-1.76-4.32-.33-6,1.42-2.53,2.61-4.9,5.41-7.64,7.77-2.92,2.52-6.23,3.5-10.06,1.47-2.79-1.48-5.18-.31-6.94,2.15-1.34,1.87-2.41,4-4,5.63C278,350.19,276.18,350.8,274.68,351.68Z"/>
      <path class="cls-1" d="M269.51,372.16c.05-.44.14-1.63.32-2.82.54-3.7,1.12-7.4,1.76-11.6,5.86,3,9.41-.15,13-3.76,4.35-4.41,9-7.15,15.49-3.53,4,2.23,9,.56,11.7-3.05,4.62-6.09,10.58-8.56,18.36-7.07-2.36,5.75-4.7,11.37-7,17a40.77,40.77,0,0,0-2.51,7.15c-.51,2.65-2,2.76-3.93,2.14a15.66,15.66,0,0,1-2.91-1.42,16,16,0,0,0-19.06,2.5c-3.66,3.5-8.26,4.23-13.12,4.18C277.71,371.85,273.81,372.05,269.51,372.16Z"/>
      <path class="cls-1" d="M318.25,374.63c-.48,6.78-.77,12.68-1.45,18.54-.11.89-2,2.13-3.13,2.25-11.63,1.21-23.07.34-33.62-5.09-3-1.55-5.3-4.63-7.67-7.24-.55-.6-.49-2.73,0-3.12a6.69,6.69,0,0,1,3.94-1c1,0,2,.85,2.94,1.32a8,8,0,0,0,9.87-1.83c4.66-4.87,4.68-4.91,10.28-1.85a9.22,9.22,0,0,0,9.88-.08C311.75,375.18,315,375.27,318.25,374.63Z"/>
      <path class="cls-1" d="M452,526.47c-8.48,7.3-17.23,14.69-28.93,17.38a9.36,9.36,0,0,1-4.18,0c-11.72-2.7-20.45-10.09-28.93-17.39,2.22-6.64,21.28-11.87,31-10.84C430.67,514.6,449.76,519.83,452,526.47Z"/>
      <path class="cls-1" d="M130.07,527.44c-.54,7-2.17,12.5-7,16.53s-10.68,3-13.85-2.45c-4-7-2-18.83,4.22-24.12,5.53-4.72,11.92-3.39,14.8,3.29A41,41,0,0,1,130.07,527.44Z"/>
      <path class="cls-1" d="M367.79,383.86c-6.7,0-12.91-5.65-12.94-11.84,0-5.46,4.87-10,10.8-10.09,6.87-.08,13,5.34,13.12,11.53C378.85,379.05,373.81,383.82,367.79,383.86Z"/>
    </g>
    <g>
      <path class="cls-1" d="M805.22,563.25c-4.51,17.08-13.55,31.91-27.68,42.14C754,622.47,727.24,626.64,699,619.48c-22.8-5.78-42.68-16.62-57.54-35.35-6.37-8-11.14-16.89-12.73-27.24-1.61-10.66-3.26-21.35-4.93-32q-5.2-33.3-10.47-66.59c-3.32-21-6.67-42-9.87-63-1.86-12.21-4-24.36-4.23-36.87a193,193,0,0,0-7.06-49.23c-9.29-32.52-27.07-59.16-54.11-79.62-33.36-25.27-71-37-112.68-36.59-1.4,0-3,0-4.41,0s-3,0-4.41,0c-41.65-.43-79.35,11.32-112.71,36.59-27,20.46-44.82,47.1-54.11,79.62a194.29,194.29,0,0,0-7.06,49.23c-.24,12.51-2.37,24.66-4.23,36.87-3.2,21-6.55,42-9.84,63q-5.25,33.3-10.5,66.59c-1.67,10.65-3.32,21.34-4.93,32-1.55,10.35-6.37,19.24-12.73,27.24-14.86,18.73-34.74,29.57-57.54,35.35-28.22,7.16-55,3-78.55-14.09-14.13-10.23-23.17-25.06-27.68-42.14-5.08-19.21-5.35-38.39,1.56-57.33,3.35-9.13,8.55-17.11,14.43-24.78,7.34-9.56,15.92-17.69,26.55-23.39,27-14.46,57.08-6,72.79,20.43a62.78,62.78,0,0,1,9.2,27.74A42.36,42.36,0,0,1,156,529.45c1-7.88.88-15.74-1.92-23.35-6.85-18.69-26.85-26.91-45.7-18.81-20.76,8.95-33.67,32.3-28.4,54.31,4.38,18.21,14.55,32.37,34.16,36.93,11.29,2.65,22,.18,32.06-5,19.33-10.05,31.48-26.55,40.06-46.07,4.48-10.13,5.58-21,7.28-31.78,3.62-23,7.13-46.07,10.69-69.11,2-13.46,3.29-27.1,6.3-40.31,3.84-16.84,3.23-34,5.54-50.88,10.47-76.75,59.25-136.4,135.82-154.66,19.24-4.57,52-8.19,69-8.18,16.5,0,49.8,3.61,69,8.18,76.57,18.26,125.35,77.91,135.82,154.66,2.31,16.9,1.7,34,5.54,50.88,3,13.21,4.26,26.85,6.33,40.31q5.3,34.56,10.66,69.11c1.7,10.75,2.8,21.65,7.28,31.78,8.61,19.52,20.73,36,40.09,46.07,10,5.23,20.74,7.7,32,5,19.64-4.56,29.81-18.72,34.16-36.93,5.27-22-7.61-45.36-28.4-54.31-18.85-8.1-38.82.12-45.7,18.81-2.8,7.61-2.9,15.47-1.92,23.35a42.36,42.36,0,0,1-5.18-23.53,62.78,62.78,0,0,1,9.2-27.74c15.74-26.39,45.82-34.89,72.79-20.43,10.66,5.7,19.24,13.83,26.55,23.39,5.88,7.67,11.08,15.65,14.43,24.78C810.57,524.86,810.3,544,805.22,563.25Z"/>
      <path class="cls-1" d="M686.8,627.31c-20.33-6-37.63-16.63-53.66-29.84-14.51-12-26.56-25.8-33-43.53-3.09-8.42-4.28-17.61-5.67-26.55-3.08-19.81-5.77-39.67-8.58-59.51s-5.52-39.46-8.3-59.19c-.89-6.36-1.83-12.7-2.78-19.27-14.68,13.5-31.36,17.22-49.35,12.71-2.88,11.35-5.82,22.81-8.66,34.3a14.66,14.66,0,0,0-.39,5c1.72,15.71,3.57,31.4,5.33,47.1,1.64,14.74,3.74,29.45,4.72,44.23,1.73,26.16,8.94,50,26.34,70.2,10.44,12.1,23.22,19.94,39.06,22.78,25,4.48,50.21,5.14,75.49,3.53C673.82,628.87,680.3,628,686.8,627.31Z"/>
      <path class="cls-1" d="M754.8,542.82c-7.86,26.58-31.91,37.51-56.33,24.54-20.24-10.72-33.27-28.1-38.88-49.72-5.14-19.85-7.24-40.52-10.5-60.89-3.2-20-6.18-40.07-9.16-60.13-1.68-11.05-4.14-22.11-4.48-33.19a239.18,239.18,0,0,0-9-58c-12.06-42.77-35.05-78-71.88-103.45-34.13-23.63-72.62-33.31-113.63-34.28-6.51-.16-13.22-.39-20-.39s-13.48.23-20,.39c-41,1-79.47,10.65-113.63,34.28-36.81,25.45-59.82,60.68-71.88,103.45a239.18,239.18,0,0,0-9,58c-.3,11.08-2.8,22.14-4.45,33.19-3,20.06-6,40.13-9.19,60.13-3.26,20.37-5.33,41-10.5,60.89-5.58,21.62-18.64,39-38.85,49.72-24.45,13-48.47,2-56.36-24.54-6.57-22.29,9.44-46.07,28.32-50.91,17.35-4.44,33.15,6.85,34.37,24.85a40.27,40.27,0,0,1-5.3,23.84c-3.41,5.72-8.58,9.13-15.53,9.25a7.12,7.12,0,0,1-1.06-.18,4.47,4.47,0,0,1-.37-.52,28.11,28.11,0,0,0,8.83-17.29c1-6.7-.42-12.88-4.65-18.18-5.21-6.54-13.58-7.61-20.56-2.89-11.26,7.61-14.73,24.11-6.85,35.13,5.36,7.43,13.55,10.45,22.41,11.09,15.68,1.15,26.31-6.82,33.92-19.67,6.57-11.14,9.56-23.44,11.17-36.23,1.46-11.78,3.56-23.51,5.33-35.29,2.83-19,5.72-37.93,8.4-57,1.74-12.36,3.32-24.79,4.63-37.21.76-7.49.73-15.07,1.19-22.59,1.7-27.61,7-54.59,18.11-79.89,19.25-43.69,48.78-78.3,92.19-99.77a217.21,217.21,0,0,1,72.28-20.88,413.46,413.46,0,0,1,47-2.35A414.4,414.4,0,0,1,468,148.52a217.25,217.25,0,0,1,72.25,20.88c43.41,21.47,72.94,56.08,92.19,99.77,11.14,25.3,16.41,52.28,18.11,79.89.46,7.52.43,15.1,1.22,22.59,1.28,12.42,2.86,24.85,4.63,37.21,2.68,19,5.54,38,8.4,57,1.74,11.78,3.84,23.51,5.33,35.29,1.58,12.79,4.56,25.09,11.17,36.23,7.58,12.85,18.24,20.82,33.89,19.67,8.86-.64,17.08-3.66,22.41-11.09,7.88-11,4.41-27.52-6.85-35.13-7-4.72-15.32-3.65-20.56,2.89a23,23,0,0,0-4.62,18.18,27.92,27.92,0,0,0,8.8,17.29c-.25.34-.28.49-.37.52a6.64,6.64,0,0,1-1.07.18c-6.94-.12-12.11-3.53-15.52-9.25a40.27,40.27,0,0,1-5.3-23.84c1.22-18,17-29.29,34.37-24.85C745.36,496.75,761.4,520.53,754.8,542.82Z"/>
      <path class="cls-1" d="M507,348a66.25,66.25,0,0,0-25.09-7.16c-18-1.19-33.91,3.53-45.94,17.84-1.89,2.29-4,5.33-4,8a185.14,185.14,0,0,0,1,27.28c1.58,12.33,4.26,24.54,6.54,37.11-5.51,3.78-10.61,12.45-18.51,12.46s-13-8.68-18.54-12.46c2.28-12.57,5-24.78,6.54-37.11a181.11,181.11,0,0,0,1-27.28c-.06-2.71-2.13-5.75-4-8-12-14.31-27.92-19-45.94-17.84A66.11,66.11,0,0,0,335,348c11.39-29.54,48.32-66.65,86-67.35C458.62,281.32,495.55,318.43,507,348Z"/>
      <path class="cls-1" d="M588.23,322.39,569.15,328c1.74,6.41,4.1,13.29,5.42,20.37,2.75,14.64,5.12,29.36,7.33,44.1,3,20.06,5.73,40.16,8.57,60.24,3,21.29,5.86,42.6,9.07,63.85,1.72,11.38,2.88,23,6.35,33.9,4.71,14.8,14.21,26.92,26.18,36.94A29.74,29.74,0,0,0,638,591.8c-2.8-4.06-6.21-7.83-8.27-12.23-3.05-6.54-6.29-13.35-7.45-20.37-6-36.64-11.4-73.4-17.1-110.1-4-25.55-8.28-51.05-12-76.64-1.1-7.54-.36-15.34-1.12-22.95C591.11,340.27,589.48,331.1,588.23,322.39Z"/>
      <path class="cls-1" d="M521.1,273.92a25.16,25.16,0,0,1-17.75-5c-5.15-3.84-10.87-4.81-17.24-3.72a17.21,17.21,0,0,1-8.89-.79c-6.09-2.4-11.78-1.76-17.72.25a14.35,14.35,0,0,1-7.09.54,24.42,24.42,0,0,0-16.56,2.26q-5.16,2.73-10.41,5.2A10.69,10.69,0,0,1,421,273.8a10.83,10.83,0,0,1-4.51-1.16c-3.5-1.64-7-3.38-10.38-5.2a24.51,24.51,0,0,0-16.59-2.26,14.23,14.23,0,0,1-7.06-.54c-6-2-11.66-2.65-17.75-.25a17.18,17.18,0,0,1-8.89.79c-6.37-1.09-12.09-.12-17.24,3.72a25.13,25.13,0,0,1-17.72,5c28.74-24.69,61.72-37.87,100.14-36.44C459.35,236.05,492.36,249.23,521.1,273.92Z"/>
      <path class="cls-1" d="M425.84,199.65c3.23,9.95,4.32,19.73,1.92,30A161.89,161.89,0,0,1,478,239.87c1.87-10.9,5.87-20.49,13.84-28.67A178,178,0,0,0,425.84,199.65Z"/>
      <path class="cls-1" d="M490.57,244.27c6.9,3.88,13.63,7.26,19.92,11.31s12.14,8.76,17.54,12.71l21-19.1a152.88,152.88,0,0,0-46.89-33.63C501,226.49,496.78,235.83,490.57,244.27Z"/>
      <path class="cls-1" d="M555.19,316c-2.91-4.71-5.53-9.2-8.46-13.47-.7-1-2.42-1.49-3.77-1.86-7.5-2.06-13.63-5.76-18.13-12.48-1.38-2.05-5.13-3-8-3.47-4.54-.8-8.59-1.78-11.67-5.72-2.78-3.56-7.28-4.14-11.32-3.51-5.93.93-11.36.74-16.94-1.8-6.56-3-13.1-3.64-19.47,1.45-2.69,2.16-6.54,2.88-9.62,4.16l14.6,7.54c8-2.31,13.87,4.05,21,5.17a10.36,10.36,0,0,0,4.93-.22,12.64,12.64,0,0,1,11.51,1.17c3,1.81,5.8,4,8.62,6.08,3.63,2.69,7.26,4.43,12.11,3.14,5-1.33,8.07,2.51,10.92,5.8,3.22,3.71,6.83,6.62,11.82,7.19C547.1,315.56,550.86,315.68,555.19,316Z"/>
      <path class="cls-1" d="M557,258.47c-5.51,7.8-11.41,14.47-20.48,18.65,11.64,11.81,21.44,24.74,27.49,39.7l20.5-6.06A158,158,0,0,0,557,258.47Z"/>
      <path class="cls-1" d="M567.22,351.68c-1-14.6-5.81-24.85-18.44-26.87-7.69-1.22-13.68-3.44-18.92-9-3.09-3.25-7.06-4.05-11.69-2.65a12.71,12.71,0,0,1-13.89-3.83c-5.23-5.68-11.89-6.91-19.27-5.56,4.85,5.87,9.81,11.49,14.3,17.45a9.78,9.78,0,0,0,8,4.39,22.79,22.79,0,0,1,10.21,4.05c3.63,2.43,6.81,3.53,10.62.84,2.49-1.76,4.31-.33,6,1.42,2.53,2.61,4.9,5.41,7.64,7.77,2.91,2.52,6.22,3.5,10.06,1.47,2.79-1.48,5.18-.31,6.93,2.15,1.34,1.87,2.42,4,4,5.63C563.93,350.19,565.72,350.8,567.22,351.68Z"/>
      <path class="cls-1" d="M572.39,372.16c0-.44-.14-1.63-.32-2.82-.55-3.7-1.12-7.4-1.77-11.6-5.85,3-9.4-.15-13-3.76-4.35-4.41-9-7.15-15.5-3.53-4,2.23-9,.56-11.69-3.05-4.62-6.09-10.58-8.56-18.36-7.07,2.36,5.75,4.7,11.37,7,17a40.77,40.77,0,0,1,2.51,7.15c.51,2.65,2,2.76,3.93,2.14a15.66,15.66,0,0,0,2.91-1.42,16,16,0,0,1,19.06,2.5c3.66,3.5,8.25,4.23,13.12,4.18C564.19,371.85,568.09,372.05,572.39,372.16Z"/>
      <path class="cls-1" d="M523.64,374.63c.49,6.78.78,12.68,1.46,18.54.1.89,2,2.13,3.13,2.25,11.62,1.21,23.07.34,33.62-5.09,3-1.55,5.3-4.63,7.67-7.24.55-.6.49-2.73,0-3.12a6.64,6.64,0,0,0-3.93-1c-1,0-2,.85-2.95,1.32a8,8,0,0,1-9.86-1.83c-4.66-4.87-4.68-4.91-10.28-1.85a9.22,9.22,0,0,1-9.88-.08C530.15,375.18,526.92,375.27,523.64,374.63Z"/>
      <path class="cls-1" d="M711.83,527.44c.53,7,2.17,12.5,7,16.53s10.67,3,13.85-2.45c4.05-7,2-18.83-4.22-24.12-5.53-4.72-11.93-3.39-14.8,3.29A40,40,0,0,0,711.83,527.44Z"/>
      <path class="cls-1" d="M474.11,383.86c6.69,0,12.91-5.65,12.93-11.84,0-5.46-4.86-10-10.79-10.09-6.87-.08-13,5.34-13.12,11.53C463.05,379.05,468.09,383.82,474.11,383.86Z"/>
      <path class="cls-1" d="M447.93,488.26c-7.88,6.24-17.47,7.46-27,7.46s-19.12-1.22-27-7.46c4.74-4.6,16.92-6.15,27-6.15S443.15,483.66,447.93,488.26Z"/>
    </g>
  </g>
</svg>
