<svg id="Livello_1" data-name="Livello 1" xmlns="http://www.w3.org/2000/svg" viewBox="0 0 841.89 841.89">
  <defs>
    <style>
      .cls-1 {
        fill: #231f20;
      }
    </style>
  </defs>
  <title>Glos</title>
  <g>
    <path class="cls-1" d="M142.9,566.84c10.8-5.53,22.47-9.41,31.65-18.12,5.74-5.44,13.76-5.77,21.32-6.17,9.28-.5,15.85-6,23.16-11.2l-23-8.67c2.91-4,5.66-8.17,8.77-12a15,15,0,0,1,5.12-3.92c7.31-3.43,14.76-5.83,23.12-6.08,6.61-.2,13.19-2.49,19.72-4.08a8.46,8.46,0,0,0,3.73-2.6c2.59-2.77,1.93-6.52-1.38-8.37a12.82,12.82,0,0,0-12.84-.41c-5.77,3-11.44,3.49-16.6.22,1.52-3.73,3.22-7.38,4.52-11.18,3.51-10.3,9.26-18.16,20.77-20.26,4-.73,8.41-2.24,8.82-6.72.4-4.33-4.23-5.73-7.42-7.34-2.3-1.16-5.1-1.34-8.19-2.08a27.71,27.71,0,0,1,2-4.22c4.24-6.19,8.44-12.43,13-18.36,1.23-1.6,3.8-2.13,5.69-3.28,1.31-.8,3.52-1.83,3.51-2.73,0-1.45-1.38-3-2.46-4.3-3.28-3.86-7.53-7.14-9.88-11.48-3.68-6.79-6.11-14.24-9.05-21.43-.78-1.88-1.48-3.79-2.63-6.74,4.28-.15,8.18-.8,11.94-.31,8.84,1.14,17.58,3.15,26.44,4.12,4.09.45,8.35-.7,13.1-1.19,1.66,4.43,3.73,10,5.83,15.6,3.1,8.27,6.09,16.58,9.38,24.77,1.72,4.26,3.78,8.8,9.22,9a21.32,21.32,0,0,0,8.48-1.77c7.78-3.09,15.42-6.5,23.12-9.78.47-.2,1-.36,1.42-.58,2.47-1.17,6.13-1.91,4.49-5.72s-4.7-1.8-7.25-.73c-8,3.35-16,6.77-24.07,10.1-5.91,2.44-7.37,1.74-9.62-4.32q-6.79-18.27-13.59-36.55c-.58-1.55-1.26-3.07-2.08-5l5.27-4.13c5.71,12.51,16.7,16.73,28.68,19,17.34,3.31,33.95,1.25,49.25-8.11a40.32,40.32,0,0,0,5.38-4.33c1.58-1.41,2.71-2.95,5.48-2.57,2.93.4,4.41-3.21,2.18-5.78-3.66-4.23-7.39-8.66-11.9-11.87-12.34-8.78-26.58-10.48-41.18-8.8-18.47,2.14-34.54,10.21-48.56,22.11-6.72,5.7-13.93,4.29-21.16,3.19-8.4-1.27-16.69-3.35-25.32-5.15,4.59-1.91,9.35-3.87,14.09-5.87,19.94-8.38,41.26-11.7,62.06-16.95,11.14-2.81,22.3-5.59,33.51-8.08a45.25,45.25,0,0,1,26.49,1.63c5.22,2,10.73,3.33,15,7.4,3,2.87,4.87,5.84,4.81,10.31-.27,21.45-.24,42.89-.31,64.34,0,.77,0,1.54,0,2.31,0,2.41.13,5,3.24,5.16,3.39.14,3.69-2.65,3.71-5.14.1-13.1.11-26.2.13-39.3,0-10.63,0-21.27,0-32.55H430c.11,2,.27,3.66.28,5.29q.12,32.57.23,65.11c0,2.76-.42,6.43,3.49,6.53,4.2.12,3.47-3.67,3.46-6.36,0-20.8.37-41.63-.39-62.4-.34-9.13,4.06-14.14,11.07-17.39,9.21-4.28,19-7.25,29.37-5.87,4.68.63,9.3,1.77,13.9,2.85,18.4,4.32,36.75,8.82,55.17,13.05a228.8,228.8,0,0,1,43.19,14.53c1.14.51,2.24,1.1,4,2C581.05,359,569.06,361,557,362.36c-2.79.31-6.38-1.19-8.69-3-13.43-10.66-28-19.16-45-22.13-19.94-3.47-38.65-1-53.81,14.16a27,27,0,0,0-4.47,5.75,5.23,5.23,0,0,0-.32,4.19c.43.9,2.27,1.16,3.51,1.61.86.31,2.1.18,2.62.75,7.67,8.33,17.61,12.16,28.36,14.23,13.1,2.52,26.05,1.79,38.59-3,7.87-3,14.57-7.53,17.94-16.14l5.44,3.88c-5.42,14.73-10.76,29.3-16.15,43.85-1.41,3.78-3.24,4.52-7.68,2.75-8.44-3.36-16.8-6.92-25.19-10.39-.94-.4-2-1.26-2.81-1.1a26.82,26.82,0,0,0-4.83,1.85c.79,1.52,1.2,3.84,2.44,4.43,5.76,2.74,11.76,5,17.64,7.45,3.36,1.43,6.59,3.18,10,4.52,9,3.53,13.18,1.16,16.76-7.54,4.43-10.76,8.32-21.74,12.42-32.64,1.11-3,2.12-6,3.23-9.09,7.82,4.7,15.79,2.45,23.64,1.25,5.54-.85,11-2.47,16.53-3.17,3.32-.41,6.77.29,10.79.53-1.55,3.94-2.74,7.12-4,10.25-2.53,6.12-4.6,12.5-7.84,18.21-2.31,4.1-6.27,7.25-9.38,10.93-1.16,1.37-2.64,3-2.72,4.56-.05.88,2.45,1.94,3.85,2.83,2.18,1.39,4.76,2.36,6.55,4.13,6.28,6.21,10.29,13.91,14.23,22.32-5.74-.75-10,1.43-13.82,4.6-3.29,2.72-3.37,5.43.08,7.89a18.75,18.75,0,0,0,6.93,3c11,2.17,16.66,9.58,20.08,19.5,1.36,3.92,3.1,7.71,4.71,11.67-5.47,3.23-8.81,3.48-15.42.35-4.72-2.24-9.3-2.59-13.94,0-3.38,1.93-4.05,5.52-1.35,8.32a11.25,11.25,0,0,0,4.42,2.95c6.93,2.2,13.82,4.42,21.32,4.08,8.46-.39,15.91,3.13,23.1,7.14a10.35,10.35,0,0,1,3.08,2.82c2.92,3.85,5.7,7.8,8.72,12-6.55,2.16-13,4.3-19.5,6.42-2.51.82-3.3,2.44-1,4,6.29,4.31,12.4,8.94,20.63,9.24,8.82.32,17,2.39,23.88,8.8,3.76,3.5,8.61,5.94,13.21,8.41,4.82,2.6,9.92,4.66,15.28,7.12-5.91,4.18-11.64,8.26-19.29,8-2.18-.08-4.37,0-6.55,0-3.72-.1-6.91,1.07-9,4.23-1.69,2.59-3.54,2.49-5.84,1.14-1.64-1-3.29-2-5-2.82a24.26,24.26,0,0,0-19.26-1.53c-4.44,1.43-8.32.8-11-3.54a40.92,40.92,0,0,0-4.91-6.84,38.89,38.89,0,0,0-7.84-6.43,5.16,5.16,0,0,0-4.9.54c-1,1-1.31,3.51-.91,5.1.85,3.43,2.36,6.7,3.82,10.64-3.07-.9-5.9-1.67-8.68-2.58-3.69-1.2-7.33-1.6-10.67.78s-5.33,1-7-2.09c-3-5.51-6.11-11-9.12-16.45-4.72-8.63-9.37-17.3-14.09-25.92a23.47,23.47,0,0,0-2.71-4,22.41,22.41,0,0,0-2.92-2.45c-.82,1.18-2.35,2.37-2.33,3.54,0,4.07.59,8.14,1,12.2a81.85,81.85,0,0,1,.63,14.49c-1.29-1.51-2.48-3.12-3.89-4.5-2.5-2.45-4.22-2.25-6.23.63a13,13,0,0,0-1.34,2.75c-2.4,6.14-6.23,7.07-11.23,2.55-6.23-5.64-8.58-13.18-9.8-21.15C518,520.64,516.65,508,512,496.07c-4.28-11.06-12.25-19.45-19.55-28.36-3.9-4.76-8-9.35-12-14a63.76,63.76,0,0,1-13.33-27.35c-2-8.61-5.33-16.71-13.26-21.67a16.87,16.87,0,0,0-7.8-2.2c-1-.06-2.79,2.2-3,3.56-.11.92,1.81,2.76,3.1,3.07,5.2,1.24,12.66,10,12.59,15.29-.06,4.19-5.48,8.59-9.87,7.6-3.34-.75-5.38,0-8.09,2.36s-6.9,3.11-10.58,3.89c-8.72,1.83-17.7,1.64-25.62-2.27-4.74-2.34-8.94-4.12-14.34-4.51-5.68-.42-7.92-5.82-5.31-11a45.82,45.82,0,0,1,6.55-9.26c1-1.16,3.23-1.19,4.69-2.08,1.27-.77,3.24-2.15,3.12-3-.19-1.4-1.81-3.65-2.88-3.68a14.12,14.12,0,0,0-7.19,1.7c-7,4-10.27,10.86-12.75,18.1-1.4,4.1-2.25,8.4-3.6,12.52-4.22,12.84-13.66,22.1-22.05,32.11-6.9,8.23-14.44,16-19,26-5.09,11.26-7,23.25-8.6,35.31-1,7.64-2,15.38-6.85,21.68a28.75,28.75,0,0,1-8.05,6.66c-2.79,1.68-5.11.29-6.5-2.64-4.46-9.37-5.31-9.45-11.59-1.26a15.26,15.26,0,0,1-1.51.78c.92-7.08,1.8-13.4,2.54-19.74a32.27,32.27,0,0,0,.28-7.27,5.28,5.28,0,0,0-2.34-3.5c-.55-.32-2.34,1-3.21,1.91a17,17,0,0,0-2.15,3.62q-11.81,21.51-23.57,43c-1.69,3.11-3.66,4.45-7,2.07s-7-2-10.67-.77c-2.74.91-5.53,1.7-8.64,2.64,1.42-3.91,2.89-7.28,3.81-10.79.39-1.5.23-4-.72-4.77-1.22-1-4-1.45-5.21-.72a36.75,36.75,0,0,0-7.81,6.46A46.94,46.94,0,0,0,219,572.7c-2.5,3.9-6.25,4.74-10.08,3.3-8.94-3.34-16.83-.53-24.5,3.58-3.17,1.71-5.32,2.31-7.64-1.24-2.19-3.33-5.95-3.74-9.66-3.48C154.42,575.77,149.35,571.88,142.9,566.84Z"/>
    <path class="cls-1" d="M593.6,321.25c0-3,1-6.4-.21-8-3.18-4.05-6.55.58-10.25,1.06a10.72,10.72,0,0,0,.73-2.59c0-1.9.5-4.49-.5-5.49s-3.69-1-5.53-.7a52.5,52.5,0,0,0-7.5,2.27c-1-3.28,2.94-6.43-.33-9.48-3.53-3.29-6,.09-9.17,1.24.49-2.1,1.27-4,1.24-5.8,0-1.45-.65-3.51-1.7-4.15s-3.2-.28-4.48.38c-3.7,1.92-7.22,4.22-11,6.47a65.57,65.57,0,0,0-1.14-8c-1-3.88-4.38-4.69-7.31-1.89-1.74,1.67-3.29,3.55-5.78,4.93a53.24,53.24,0,0,0,1-7.57c0-1.82-.85-3.65-1.32-5.47-1.84.51-4.05.53-5.45,1.61-4.52,3.51-8.73,7.41-13.68,11.69,1.82-8.63,3.37-16.39,5.12-24.11.64-2.79-.06-4.88-2.86-5.16-2.5-.24-5.1.83-5.14,3.93-.08,5.29-2.75,9.14-6.72,11.93-4.42,3.11-9.28,5.61-13.94,8.37l-.83-1q3.94-9.82,7.88-19.63c.67-1.66,1.26-3.36,2.05-5,1.22-2.49.2-4.15-1.78-5.57a3.63,3.63,0,0,0-5.44.71c-7.8,9.59-18.49,14.79-29.43,19.68-12.21,5.46-23.81,11.92-33.73,21-1.88,1.73-3.64,3.59-5.45,5.39-.26-.11-.55-.15-.69-.32-10.15-12.36-23.79-19.68-38-26.15-10.89-5-21.56-10.17-29.53-19.61-.85-1-3.52-1.28-4.94-.77-2.17.77-3.23,2.76-2.18,5.33,2.76,6.73,5.45,13.48,8.19,20.21.61,1.51,1.29,3,2,4.62-10.27-1-20.21-10-21.66-19.45-.48-3.11-2.82-4-5.3-3.73s-3.35,2.31-2.71,4.93c.94,3.84,1.68,7.73,2.49,11.61s1.61,7.74,2.63,12.68c-5.19-4.48-9.54-8.49-14.19-12.11a6,6,0,0,0-5.08-.8c-1,.43-1.34,3-1.34,4.6a38.43,38.43,0,0,0,1,6A3.85,3.85,0,0,1,311,292c-1.65-1.86-3.19-3.84-5-5.56-2.89-2.76-6.29-1.8-7.26,2.07-.58,2.35-.73,4.8-1.17,7.84-3.55-2.05-6.91-4.26-10.5-5.94-1.61-.75-4.11-1.15-5.46-.39-.94.54-.81,3.31-.82,5.08a23.34,23.34,0,0,0,.88,4.45c-3.06-1-5.51-4.51-9-1.34-3.31,3,.07,6-.32,9.51-2.49-.73-4.82-1.74-7.24-2-2.07-.25-4.87-.38-6.16.77-1,.89-.19,3.84-.11,5.87a8.26,8.26,0,0,0,.62,1.94c-3.77-.49-7.16-5-10.31-1.08-1.27,1.6-.21,5-.21,7.92-.67.29-2.71.54-3.57,1.69s-.78,3.31-1.15,5.29c-3.91-2.12-7.34-4-8.45-9.38-4.41-21.48-9.36-42.84-14.3-64.21a4.61,4.61,0,0,1,1.44-5c16.48-16.8,35.92-29.29,57.13-39.15,26.45-12.28,54.27-19.75,83.07-24,27.39-4,54.88-5.6,82.51-3.67,36.6,2.55,72.42,8.91,106.52,23.1,25,10.39,47.9,23.88,67.06,43.27a5.27,5.27,0,0,1,1.7,5.62q-7.6,33.18-14.84,66.45c-.94,4.34-5.11,4.5-7.84,7.58C598.12,324.48,598.43,320.39,593.6,321.25Z"/>
    <path class="cls-1" d="M512.73,564.8c-7.22-.21-8.43,1.65-5.42,7.5,3.1,6,6.62,11.82,9.74,17.84,1.14,2.2,1.65,4.73,2.7,7.85-2.28-.12-3.76-.1-5.2-.3-3.08-.43-4.76.93-4.72,3.94s.56,5.84.75,8.77c.32,4.85.12,9.6-3.95,13.92-2-1.43-4.39-3-6.64-4.81-1.2-.94-2.1-2.25-3.21-3.31-2.19-2.11-4.23-4.84-7.87-3-3.18,1.56-5.14,6.1-4.08,9.92,1.26,4.54,2.26,9.31,4.43,13.41,4.88,9.24,3.36,18.58,1.64,28-.24,1.34-.61,2.67-1.15,5l-4.29-5.77A34,34,0,0,0,482,659.2c-4.14-4-9.24-3.41-11.68,1.79s-4.05,10.93-6,16.43c-.21.59-.13,1.29-.37,1.87-.47,1.13-1.06,2.2-1.6,3.3a19.45,19.45,0,0,1-3.51-2,16.87,16.87,0,0,1-2.6-3.32c-2.68-4-6.19-4-8.93,0a23.85,23.85,0,0,0-4.66,14.33,37.43,37.43,0,0,1-.78,8.38c-1.91,8.74-5.26,11.94-14.15,12.94a45.22,45.22,0,0,1-12.94-.15c-10.6-1.94-15-7.5-15.09-18.45-.05-6.17-1-11.93-4.72-17-2.92-4-6-3.88-8.93,0-1.54,2.05-3.78,3.56-5.7,5.32-.82-2.14-1.65-4.27-2.44-6.43-1.66-4.52-3-9.19-5-13.56-3.46-7.58-9.92-8-14.69-1.07a35.1,35.1,0,0,1-5.82,7.09c-.44-2-.75-4-1.34-6-3.44-11.55,0-22.09,4.26-32.68,1.4-3.51,2.36-7.75,1.79-11.38-1-6.6-6.14-7.85-10.75-3.08-3.83,3.94-7.36,8.2-13.55,9.55a29.13,29.13,0,0,1-1.47-13.16c.42-3,1.06-6.05,1.2-9.09.2-4.34-1.16-5.39-5.49-4.9-1.11.12-2.25,0-4.1,0,.64-2.4.88-4.56,1.79-6.39,2.37-4.81,5-9.47,7.58-14.19,1-1.92,2.4-3.72,3.05-5.75.57-1.81.35-3.87.49-5.82-1.77,0-3.54,0-5.3.12a28.13,28.13,0,0,0-3.15.58c.18-5.56,1.76-9.79,6.39-12.63A99.37,99.37,0,0,0,346,545.69c4.88-4.1,9.3-8.76,13.85-13.25,2.82-2.79,5.28-6,8.29-8.53,5.28-4.48,5.58-4.26,11.48-1,8.51,4.66,17.87,6.29,27.37,6.8,15.13.82,30.32,1.43,45.11-2.7,4.73-1.32,9.06-4,13.67-5.84,1.3-.52,3.45-.76,4.38,0,4,3.11,8.38,6.14,11.48,10.09,5.65,7.18,12.42,12.82,19.79,18.08,3.74,2.68,6.63,6.63,9.61,10.25C512,560.76,512.09,562.74,512.73,564.8Z"/>
    <path class="cls-1" d="M420.75,166.81c-5-15.86-23.09-18.21-36.09-7.24a34.47,34.47,0,0,0-5.39,6,71.42,71.42,0,0,0-3.93,6.76c-5.3-8.79-13-12.78-23.23-11.22-7.56,1.16-13.16,6.56-16.82,16.27-6.62-8.41-14.82-12.05-24.93-7.53-9.51,4.25-13.8,12.56-15.62,22.88-7.78-7.19-16.3-11.47-26.58-7.09s-12.73,13.58-13.22,22.53c-5.25-1.44-10.41-3.89-15.64-4.07-8.88-.32-16.32,7.2-18.3,17.74-.93,5-.56,10.19-.89,15.29a29.88,29.88,0,0,1-.94,4.43l-1.37,0c-1.23-4.94-2.54-9.87-3.67-14.83a75.22,75.22,0,0,1-1.6-9,22,22,0,0,1,2.54-13.64c10.18-18.35,25.39-31.34,43.36-41.38,27.3-15.25,56.89-23.52,87.56-28.71,30.87-5.23,62-5.79,93.13-5.19,38.54.74,76.43,6.06,112.82,19.32,20.62,7.51,40.22,17.09,56.63,32.26a97.77,97.77,0,0,1,20.18,26.44c2.51,4.74,1.42,9.77.47,14.66-1.3,6.7-2.81,13.36-4.23,20h-1.61a35,35,0,0,1-1-4.69c-.44-5.46.12-11.16-1.24-16.37-4.2-16.13-17.83-21.05-31.78-12-.41.27-.84.52-1.62,1-.65-10.28-3.17-19.52-13.32-23.83s-18.69-.48-26.5,7.12c-2-10.08-6.08-18.57-15.61-22.86-10.16-4.58-18.38-1-25.12,7.52-2.78-9-8.21-14.91-17.37-16.34-10-1.55-17.43,2.64-22.69,11.35-5.4-11.75-13.81-19.27-27-19.62C431.62,152.59,425.36,157.45,420.75,166.81Z"/>
    <path class="cls-1" d="M358.54,273.56c14.43,6.89,28.4,13.15,42,20.2,7.21,3.75,12.68,9.93,17.08,16.85,1.74,2.72,4.43,3,6.22.58a72.41,72.41,0,0,1,31.57-24.59c9.43-3.87,18.69-8.19,28.37-12.46-1.87,4.62-3.94,9.31-5.61,14.13-.64,1.83-.38,4-.53,6,2,.13,4.32.89,6.1.26,7.18-2.56,14.2-5.55,21.47-8.46-.8,3.82-1.92,8.17-2.53,12.6-.24,1.76.66,3.68,1.05,5.53,1.84-.45,4-.44,5.47-1.45,4.45-3.11,8.62-6.61,12.91-10l1,.82c-.31,2.5-.93,5-.82,7.49.07,1.55.88,3.83,2,4.34s3.41-.35,4.62-1.32c2.83-2.27,5.32-5,8.32-7.83a72.46,72.46,0,0,0,1.14,7.22c.93,3.49,3.57,4.08,6.37,1.85a28.57,28.57,0,0,1,8.3-4.68,24.44,24.44,0,0,0-.75,4.5c0,1.65,0,4.2.93,4.71,1.31.73,3.5.17,5.22-.24,1.19-.28,2.21-1.26,4.13-2.43-.77,2.07-1.32,3.37-1.74,4.7-1.1,3.48.78,5.69,4.36,4.86,3.23-.75,6.37-1.89,8.86-2.65,0,3.13-1.22,7.2.27,9.53,2.61,4.09,6-.8,9.6-1a34.87,34.87,0,0,0-2.48,5.6c-.33,1.3-.3,3.44.47,4.06,1,.79,3,.77,4.42.47s2.66-1.38,4.06-2.17c.89,9.86,3.89,8.45,11.37,3.37-1.86,5.94-3.44,10.95-5,16-8.6-3.31-16.51-7.06-24.81-9.39-14.48-4.08-29.21-7.27-43.82-10.87-8.82-2.17-17.65-4.31-26.41-6.68-9.89-2.67-19.61-5.9-30.08-5.61a56.92,56.92,0,0,0-30.62,9.93c-2.21,1.48-4.19,3.31-6.45,4.71a7.16,7.16,0,0,1-3.51.65c-6.52.07-13.08-.4-19.54.22-3.63.35-5.13-2.27-7.06-3.71-17.21-12.81-35.88-14.3-55.87-8.44-10.43,3-21,5.78-31.54,8.29-11.8,2.81-23.88,4.57-35.5,7.95-11.13,3.25-21.83,8-32.72,12.08-.7.27-1.39.56-2.74,1.1-1.68-5.16-3.3-10.15-5-15.42,3.1,1.13,5.81,3,8,2.59,1.59-.33,2.52-3.85,4-6.38a11,11,0,0,0,3.27,1.75c1.41.32,3.42.3,4.4-.51.77-.62.74-2.77.41-4.08-.46-1.82-1.54-3.48-2.76-6.1,2.23,1,3.69,2,5.28,2.28s3.55.43,4.47-.38,1.39-3,1.22-4.42c-.21-1.83-1.28-3.56-2.2-5.91a85.94,85.94,0,0,0,8.7,2.6c1.72.33,4.22.48,5.22-.49s.2-3.34.07-5.11a21.18,21.18,0,0,0-.89-3.22c1.67.95,2.82,1.93,4.14,2.28,1.6.42,3.8,1,4.88.24s1-3,1-4.64-.56-3.19-1-5.7c3.16,2,5.81,3.25,8,5.07,3.7,3,6.31,2.42,7.31-2.23a60.31,60.31,0,0,0,.6-6.38c2.94,2.8,5.22,5.3,7.86,7.35,1.44,1.14,3.64,2.37,5.2,2.06,2.67-.53,2.33-3.25,2.07-5.46s-.57-4.28-1-7.79c4.16,2.94,7.43,5.2,10.64,7.54,1.24.91,2.2,2.32,3.55,2.93a28.85,28.85,0,0,0,5.47,1.39c.37-1.86,1.26-3.81,1-5.58-.63-4.4-1.78-8.73-2.6-12.56,7.25,2.89,14.48,5.93,21.85,8.58,1.67.6,4.88.53,5.49-.44.88-1.36.42-4-.21-5.82C362.72,283.44,360.62,278.72,358.54,273.56Z"/>
    <path class="cls-1" d="M334.88,543.71c.34-16.57-.7-33.32,5-49.3,1.63-4.57,4.63-8.83,7.7-12.67,6.8-8.51,14.47-16.35,21-25.07,5-6.68,8.72-14.3,13.11-21.67a17.55,17.55,0,0,0,13.53,4.05c.42-.06.94.33,1.35.61,13.94,9.51,29,8.07,43.81,3.37,4.53-1.43,8.69-4,13.67-4.67,2.62-.34,5-2.27,7.91-3.67,5.57,19.05,20.86,31.7,32.86,46.63,7.75,9.64,12.91,19.76,12.31,32.52-.46,10-.09,20-.09,30.23a51.88,51.88,0,0,1-17-13.75c-5.23-6.77-10.95-12.87-18.35-16.56,1.53-4.84,3.5-9.34,4.34-14a27.62,27.62,0,0,0-26.82-32.65,95.64,95.64,0,0,0-19.1,1.62c-9.09,1.67-17.84-.18-26.7-1.34-7-.91-13.81-.73-20.4,2.07-14.56,6.19-20.8,22.28-14.58,37.69.86,2.11,1.92,4.14,3,6.41-7.9,4-13.35,10.29-18.95,16.74-4.69,5.41-10.7,9.7-16.12,14.48Z"/>
    <path class="cls-1" d="M421.18,523.59c-11-.15-21.82-.87-32.28-4.32a28,28,0,0,1-8-4.27c-2.31-1.75-1.67-3.87,1.23-4,9.06-.44,18.13-.54,27.2-.7,11.25-.2,22.51-.46,33.76-.43,5.61,0,11.23.55,16.83,1.05,1,.1,2.74,1.09,2.78,1.76a3.7,3.7,0,0,1-1.72,3c-5.55,2.16-11.08,4.74-16.87,5.79C436.56,522.87,428.82,523,421.18,523.59Z"/>
    <path class="cls-1" d="M468.88,490.67c-13-9.32-27.08-10-41.66-6.74-5.35,1.19-10.28.08-15.45-.73-13.38-2.12-26.34-1.31-37.76,7.32.28-6.84,6.6-14.14,14.95-15.56a50.2,50.2,0,0,1,17.84.1c11.73,2.34,23.18,1,34.65-.88,12.29-2,23.84,4,27.21,14.7A10.28,10.28,0,0,1,468.88,490.67Z"/>
    <path class="cls-1" d="M382.94,492.52c2.21,5.3,6.49,5.14,10.16,5.18q28.26.32,56.54,0c3.56,0,7.66-.05,9.79-5.18a101.5,101.5,0,0,1,8.17,7.19c.73.78.52,2.83.14,4.11-.16.53-2,1-2.95.78-10.49-2.63-21.1-1.6-31.71-1.39s-21-.47-31.5-.29c-7.76.13-15.51,1.06-23.27,1.52-1.23.07-3.28-.12-3.58-.8-.5-1.14-.44-3.25.33-4.09A93.35,93.35,0,0,1,382.94,492.52Z"/>
    <path class="cls-1" d="M502.77,359.16c0,4.71-4.29,9-9.15,9.09-4.71.11-9.65-4.5-9.72-9.08-.08-5,4.45-9.74,9.39-9.85C497.94,349.21,502.77,354.22,502.77,359.16Z"/>
    <path class="cls-1" d="M358.39,358.89c.09,4.64-4.54,9.28-9.37,9.37a9.56,9.56,0,0,1-9.41-8.82c-.2-4.88,4.43-10,9.17-10.1C353.71,349.22,358.28,353.76,358.39,358.89Z"/>
  </g>
</svg>
