<svg id="Livello_1" data-name="Livello 1" xmlns="http://www.w3.org/2000/svg" viewBox="0 0 841.89 841.89">
  <defs>
    <style>
      .cls-1 {
        fill: #231f20;
      }
    </style>
  </defs>
  <title>Glos</title>
  <g>
    <path class="cls-1" d="M604.64,402.84c.18-6.83,10.94-6.83,15.06-11.73,2.54-3,1.13-7.09.53-10.44-2.65-14.64-7.05-28.68-14.89-41.5a72.93,72.93,0,0,0-18.13-20.51c-1.33-2.33-.58-4.16-.14-6.05q3.45-14.76,6.79-29.57c.18-.75,1-3.51-1.38-3.84-3-.42-3.62,3.1-4.05,4.56a354.39,354.39,0,0,0-9.3,38.54,79.48,79.48,0,0,0-.86,10.47,384,384,0,0,0,0,38.54c.27,4.66.36,9.33.46,14,.13,5.22-2.07,5.57-5.35,5.86-6.38.56-12.38-1.22-18.25-3.26-4.75-1.66-9.52-3.48-13.84-7.25-.28-9.32-.54-19-.88-28.72-.22-6.22-.54-12.44-.87-18.65q-1.63-30.92-3.33-61.82c-.16-3.06.13-9.27-2.77-9.14-2.44.11-1.82,3.33-1.77,4.49.2,5.45.41,10.9.66,16.35q1,21,2,42c.6,11.67,1.35,23.33,1.86,35,.2,4.26,0,8.55-.18,12.83a4.41,4.41,0,0,1-3.56,4.07c-6.56.81-13.13,2-19.71,2.21a74.3,74.3,0,0,0-20.52,3.94c-7.76,2.51-15.52,5-23.51,6.79a33.06,33.06,0,0,1-19.46-1.58,4.73,4.73,0,0,1-2.74-3.54c-1.07-4.25-.64-8.5,0-12.76A179.82,179.82,0,0,1,455.88,336c1.06-2.92,2.38-5.75,3.44-8.67a42.13,42.13,0,0,1,16.18-20.71c7.61-5.33,14.33-11.94,21.36-18.1a15,15,0,0,0,2.48-3.77,1.49,1.49,0,0,0-.13-1.09c-.4-.92-1.12-1.26-1.81-.74-3.13,2.3-6.26,4.57-9.29,7a251.55,251.55,0,0,1-21.72,15.78c-3.26,2.1-6.31,4.55-9.49,6.79a74.59,74.59,0,0,1-17.41,9.38c-8.2,3-15.3,1.48-21.51-4.44a133,133,0,0,1-15.68-17.27c-2.77-3.77-5.55-7.52-8.16-11.4-9.59-14.27-20.87-27.13-32.75-39.51-3.78-4-7.81-7.35-13.06-9.52-6.66-2.76-11.6-7.28-14.34-13.09-.3-.64,1.44-.83,2-.66a20.11,20.11,0,0,1,4.22,1.87c5,2.89,6.33,3,11.42-1.23.6-.5,1.15-1.06,1.69-1.61,4.61-4.76,4.57-7.55-.14-12.89a26.55,26.55,0,0,1-2.11-2.71,1.06,1.06,0,0,1,.07-1c.19-.29.66-.68.9-.62a66.59,66.59,0,0,1,24.64,12.86,34.9,34.9,0,0,1,6.83,7.89,89.2,89.2,0,0,0,21.77,22.58c3.74,2.8,7.35,5.76,11.08,8.57,6.66,5,13.61,5.29,20.67,1,4.31-2.64,8.62-5.32,12.7-8.29,7.87-5.72,15.68-11.53,23.35-17.53A144,144,0,0,1,510.66,214c11.74-4.5,24.16-5.55,36.77-3.9C651.57,223.72,643.9,356.81,643,365.35c-.91,8.9-2,17.79-2.87,26.7-.3,3.09,1.71,27.91-4.2,36.94-7.24,11.06-21.28,8.26-27.56,5.91a3.63,3.63,0,0,1-1.68-1.52c-1.22-2-2.32-4-3.41-6a1.15,1.15,0,0,1,.18-1c.2-.3.64-.66.94-.62,5.1.52,18.18,5.29,20.09,5.48a2.69,2.69,0,0,0,2.06-.85,24.3,24.3,0,0,0,5.08-11.56,2.92,2.92,0,0,0-.95-2c-.81-.8-15-7-21.15-9.49-1.77-.72-5-2.22-4.92-4.45"/>
    <path class="cls-1" d="M524.44,525.59c-.23-2.32,12.08-9.35,14.15-13.64a64.14,64.14,0,0,0,3-7.56,149.18,149.18,0,0,0,7.24-30.57c1.55-13.12,3.87-26.15,5.77-39.23.32-2.26,1.16-6.87-1.24-7.28a2.24,2.24,0,0,0-2.52,1.84c-.79,3.4-4.92,27.14-6.34,35.57-1.1,6.51-2.06,13-3.23,19.55s-3.69,12.67-6.51,18.66a36.71,36.71,0,0,1-6.46,9.66c-3.91,4.15-8.59,6.64-14.35,6.8a44.45,44.45,0,0,1-8.16,0c-7.28-1.15-14.64-1.69-21.81-3.7s-14.37-3.31-21.62-4.64a60.07,60.07,0,0,0-9.31-.51c-3.5-.08-7-.13-10.5,0-10.86.4-17.84-10.16-18.31-17.69a36.93,36.93,0,0,1,4.48-20.22c5.55-10.27,11.08-20.52,17.88-30.06a127.53,127.53,0,0,0,16-31,51.21,51.21,0,0,0,1.63-6.76,2.11,2.11,0,0,0-1.66-2.51,2.76,2.76,0,0,0-2.71,1.82c-5.41,16-13.85,30.37-22.63,44.62-3.88,6.29-7.39,12.79-11.19,19.12a48.65,48.65,0,0,0-5.55,15.27,28.22,28.22,0,0,0,4.15,22.29c.84,1.28,4,4.33.48,5.13a6.42,6.42,0,0,1-3.45-.29c-11.17-4-28.91-19.63-23.85-39.41,5-19.61,20.34-26.88,28.39-33.64,10.85-9.12,17.29-20.82,21.44-34.05.58-1.85,1.29-3.64,2-5.45a6.28,6.28,0,0,1,.82-1.11,13.47,13.47,0,0,1,3.2-.52c7.91.48,15.43-1.59,22.95-3.51,7.9-2,15.74-4.22,23.63-6.28A124.15,124.15,0,0,1,533,382.07c6.65,4.11,13.7,8.2,21.56,10.61a71.52,71.52,0,0,0,23.05,3.42,76.86,76.86,0,0,1,5.07,6.49c5.14,8.25,10.23,16.54,15.17,24.91,6,10.12,9.59,21.24,12.94,32.41,4.05,13.48,5.86,27.37,6.43,41.4.33,8.19-.82,16.32-2.11,24.38-.35,2.16-.81,4.57-2.85,6.29-1.59-2.42-.86-5.09-.91-7.6-.53-27.16-6.7-53.13-16.44-78.35-.68-1.77-1.39-5.89-4.18-5-3.46,1.09-.13,7.25.95,10.13a224.31,224.31,0,0,1,9,30.13c1.83,8.35,3.81,16.69,5.2,25.11a90.1,90.1,0,0,1,.45,24.44,7.62,7.62,0,0,1-1,3.28,4.83,4.83,0,0,1-2.64,2,12.24,12.24,0,0,1-4.59-.1c-5.93-1.07-11.6-.63-17,2.35-3.13,1.74-6.59,2-10.14,2.24-12.86.73-24.49-3.48-35.87-8.7-3.77-1.72-10.19-2.11-10.63-6.35"/>
    <path class="cls-1" d="M430.83,517.93c15.7-9.32,53.13,3.44,67.13,9.49,1.43.61,2,3,1,3.87-1.74,1.55-31.38,34.82-34.83,43.15-2.59,6.23-4.86,17.51-2.06,26.39,7.17,22.74-3.52,43.5-7.41,51.3-1.37,2.74-3.74,2.91-6.35,1.36-9.47-4.82-19.29-8.24-30.15-7.8-2.24.1-3.51-1.27-3.65-3.59-.25-3.89,3.11-62.45,1.35-72.18-2.57-14.27,6.84-47.18,15-52"/>
    <path class="cls-1" d="M195.63,138.13a16.9,16.9,0,0,1,1.7-3.06Q217,112.74,236.67,90.45a10.73,10.73,0,0,1,.86-.79,3.32,3.32,0,0,1,4.25-.24c8.62,7.26,17.42,14.32,25.76,21.88,7.27,6.6,12.49,14.81,16.62,23.73a112.33,112.33,0,0,1,8.38,27.8c.4,2.29.86,4.55,1.35,7.09,8.94,8,18.45,15.36,27.69,23.07,8.06,6.73,16.18,13.38,24.25,20.09,1.19,1,2.29,2.1,3.39,3.19.79.78.73,3.14-.05,4.39-1.79,2.84-4.46,3.85-6.82,2.4-3-1.82-5.91-3.74-8.81-5.68q-22.76-15.28-45.46-30.62a21.84,21.84,0,0,0-10.7-4,141.31,141.31,0,0,1-18.4-2.86A79.65,79.65,0,0,1,225.65,164Q213,153.7,200.37,143.31a20.28,20.28,0,0,1-4.74-5.18"/>
    <path class="cls-1" d="M567.79,659.9c-5.22-2.22-25.3-57.2-29.82-64.92a42.89,42.89,0,0,1-6.1-24.5c.48-8.91.92-17.83,1.44-26.75.12-2.16,1.87-3.28,4.06-2.83,19,4.17,47.32,6.06,49.23,5.92,1.61-.11,2.14,1.65,1.76,3.77-.48,2.67-2.46,37,2.46,42.82,6.34,7.41,29.1,34.75,25.75,62.55-.26,2.16-1.61,3.66-3.68,3.4-20.2-2.27-39.33,3-45.1.54"/>
    <path class="cls-1" d="M572.59,668.39c3.39-4.56,38.75-3.62,40.64-3.16,2.55.61,4.4,3.7,4.41,6.35,0,5.92,1.47,11.54,3.12,17.15,3.21,10.88,22.5,44,24,47.6,2.53,5.89,4.05,16-15.12,16.79-2.33.14-83.54-.72-90.75-2.33-6.35-1.4-9.46-7.17-4.61-10.81,5.77-4.32,41-12,48.88-19.67,14.55-12.77-15.13-45.84-10.6-51.92"/>
    <path class="cls-1" d="M346.11,741.21c-2.43-2.07-1.7-11.1,1.42-12.26,3.27-1.21,35.22-5,49.73-17,19.15-15.77,14.65-46.2,15.44-54.33.39-4.07,2.36-4.45,5.45-4.51a56.62,56.62,0,0,1,28,7.07c3.47,1.85,4.69,4.08,3.44,7.66-4.49,12.87-6.89,61.09-6.84,62.26.49,12.05-9.1,17.51-17.6,17.52-9.34,0-71.41,0-79-6.45"/>
    <path class="cls-1" d="M427.68,111.24c1.17-1.37,31.62-14.43,47.28-15.8a57.69,57.69,0,0,1,30.6,5.4c13.55,6.52,21.41,17.34,24.22,32.15,1.79,9.42.61,18.56-1.3,27.72-.22,1-1.51,4.81-7.55.77-19.84-13.28-77.51-40.69-90.48-46.65-1.39-.63-4-2.09-2.77-3.59"/>
    <path class="cls-1" d="M471.8,150.37c-.28,3.74-.79,8.1-.89,11.54-.07,2.43.71,5,2.81,6.12,3.8,2.09,5.57,5.41,6.32,9.28a27.42,27.42,0,0,1-.49,12.46,14.93,14.93,0,0,0,1.51,12.35,8.7,8.7,0,0,1,1.49,5.54c-.43,3.89,4.06,5.85,4.06,9.47,0,2.54-9.62,11.36-14.48,9.46-8.75-3.41-13.33-12.83-21.28-18.7,3.75-2.26,6.77-4,9.68-5.89,4.22-2.77,8.57-5.43,11.54-9.69.41-.58,1.38-2.38,0-3.41-2.51-1.89-4.29.71-7.34,3.57a37,37,0,0,1-23.49,8.94c-2.72.11-5.43.25-8.15.3-1.57,0-3.05-1.72-2.64-3.07.68-2.23,1.32-4.48,2.19-6.64s.1-5.19,2.94-5.77c1.71-.35,3.7.7,5.58,1,.24,0,1.2-.21,1.24-.89a2.31,2.31,0,0,0-1.74-2.52c-2.15-.81-4.49-1.2-6.55-2.17a3.79,3.79,0,0,1-1.65-2.5,3,3,0,0,1,1.78-3.12c1.73-.79,3.59-1.32,5.37-2,.2-.09.27-.72.26-1.09s-.16-.8-.35-.85c-2.23-.58-4.49-1.05-6.71-1.65-1.6-.43-3-2-2.71-3.34a40,40,0,0,0,.18-12.78c-.35-2.66,1.71-4.69,5.09-5.27a2.16,2.16,0,0,1,1.85.89,45.09,45.09,0,0,1,.78,4.53c.68,3.54,3.88,5.41,6.85,4,1.73-.84,3.32-2,5.06-2.83a40.84,40.84,0,0,1,4.6-1.5c-1.54-5.39-5.58-7.35-10-9.18-4.63-1.92-9.13-.57-13.35.43-2.34-3.45-1.62-6.42-.63-9.41a2.9,2.9,0,0,1,2.91-1.41c3.32,1.06,36.7,14.78,38.33,15.83"/>
    <path class="cls-1" d="M479.52,155.35a259,259,0,0,1,48.38,32.26,10.74,10.74,0,0,1,4,10.27c-.2,1.55-.62,3.12-2.27,3.73-3.26,1.22-24.67,7.87-31.77,11-4.69,2.1-9.86-.51-10.56-5.38a25,25,0,0,0-3.12-8.64c-2.06-3.75-2.34-8.21.75-11,2.48-2.24,8.23,1.8,10.39,4.72,1.83,2.48,3.54,5.07,5.51,7.43.66.79,2.1,2.28,3.3,2a2,2,0,0,0,1.43-2.72c-2.63-3.77-5.26-7.56-8.18-11.11a15.83,15.83,0,0,0-5.31-4.34c-4.36-2-6.47-5.27-7.28-9.77-.27-1.51-.43-5.48-4.58-7.54-7.06-3.5-1.59-9.95-.7-10.91"/>
    <path class="cls-1" d="M536.07,186c-2.08,2.19-7.68-3.61-10.19-5.45-7.85-5.74-15.5-11.82-23.73-17-18.14-11.36-36.81-21.79-56.73-29.83-12.27-4.95-24.42-10.13-37.68-11.95-1.05-.15-3.61-1.28-3.3-3.35s2.71-2.29,3.79-2.34c1.91-.08,21.63,4.4,29.24,7.35a356.7,356.7,0,0,1,78,41.7c4.44,3.16,8.57,6.74,12.74,10.24,3,2.52,10.31,8,7.84,10.61"/>
    <path class="cls-1" d="M626.22,420.77c.32,1.2-2.45,4.91-3.6,5.14-2.55.49-16-6.33-22.46-8.73-4.39-1.63-6.87-4.68-8.49-8.77a1.81,1.81,0,0,1,1.87-1.69c10.69.95,31.8,10.77,32.68,14"/>
  </g>
</svg>
