<svg id="Livello_1" data-name="Livello 1" xmlns="http://www.w3.org/2000/svg" viewBox="0 0 841.89 841.89">
  <defs>
    <style>
      .cls-1 {
        fill: #231f20;
      }
    </style>
  </defs>
  <title>Glos</title>
  <g>
    <path d="M420.94,368.67s-35.37-79.52,0-79.46S420.94,368.67,420.94,368.67Z"/>
    <path d="M384,384s-81.24-31.21-56.19-56.19S384,384,384,384Z"/>
    <path d="M368.67,420.94s-79.52,35.38-79.46,0S368.67,420.94,368.67,420.94Z"/>
    <path d="M384,457.91s-31.21,81.24-56.19,56.18S384,457.91,384,457.91Z"/>
    <path d="M420.94,473.22s35.38,79.52,0,79.46S420.94,473.22,420.94,473.22Z"/>
    <path d="M457.91,457.91s81.24,31.21,56.18,56.18S457.91,457.91,457.91,457.91Z"/>
    <path d="M473.22,420.94s79.52-35.37,79.46,0S473.22,420.94,473.22,420.94Z"/>
    <path d="M457.91,384s31.21-81.24,56.18-56.19S457.91,384,457.91,384Z"/>
    <circle cx="420.94" cy="420.94" r="46.33"/>
    <path d="M395.37,363.5S288.69,253,347.4,231.7C406,210.26,395.37,363.5,395.37,363.5Z"/>
    <path d="M362.24,398.41s-153.59-2.73-127.11-59.27C261.42,282.51,362.24,398.41,362.24,398.41Z"/>
    <path d="M363.5,446.52S253,553.2,231.7,494.49C210.26,435.86,363.5,446.52,363.5,446.52Z"/>
    <path d="M398.41,479.65s-2.73,153.59-59.27,127.11C282.51,580.47,398.41,479.65,398.41,479.65Z"/>
    <path d="M446.52,478.39s106.68,110.53,48,131.79C435.86,631.63,446.52,478.39,446.52,478.39Z"/>
    <path d="M479.65,443.48s153.59,2.73,127.11,59.27C580.47,559.38,479.65,443.48,479.65,443.48Z"/>
    <path d="M478.39,395.37s110.53-106.68,131.79-48C631.63,406,478.39,395.37,478.39,395.37Z"/>
    <path d="M443.48,362.24s2.73-153.59,59.27-127.11C559.38,261.42,443.48,362.24,443.48,362.24Z"/>
  </g>
  <g>
    <g>
      <path d="M735.46,721.4s-13.4-30.13,0-30.11S735.46,721.4,735.46,721.4Z"/>
      <path d="M721.46,727.2s-30.79-11.83-21.29-21.29S721.46,727.2,721.46,727.2Z"/>
      <path d="M715.65,741.21s-30.13,13.4-30.1,0S715.65,741.21,715.65,741.21Z"/>
      <path d="M721.46,755.21S709.63,786,700.17,776.5,721.46,755.21,721.46,755.21Z"/>
      <path d="M735.46,761s13.4,30.13,0,30.11S735.46,761,735.46,761Z"/>
      <path d="M749.46,755.21S780.25,767,770.75,776.5,749.46,755.21,749.46,755.21Z"/>
      <path d="M755.27,741.21s30.13-13.41,30.1,0S755.27,741.21,755.27,741.21Z"/>
      <path d="M749.46,727.2s11.83-30.78,21.29-21.29S749.46,727.2,749.46,727.2Z"/>
      <circle cx="735.46" cy="741.21" r="17.56"/>
      <path d="M725.77,719.44s-40.42-41.88-18.18-49.94S725.77,719.44,725.77,719.44Z"/>
      <path d="M713.22,732.67s-58.2-1-48.17-22.46S713.22,732.67,713.22,732.67Z"/>
      <path d="M713.69,750.9s-41.88,40.42-49.93,18.17S713.69,750.9,713.69,750.9Z"/>
      <path d="M726.92,763.45s-1,58.19-22.46,48.16S726.92,763.45,726.92,763.45Z"/>
      <path d="M745.15,763s40.42,41.88,18.18,49.94S745.15,763,745.15,763Z"/>
      <path d="M757.7,749.74s58.2,1,48.17,22.46S757.7,749.74,757.7,749.74Z"/>
      <path d="M757.23,731.51s41.88-40.41,49.93-18.17S757.23,731.51,757.23,731.51Z"/>
      <path d="M744,719s1-58.19,22.46-48.16S744,719,744,719Z"/>
    </g>
    <g>
      <path d="M106.43,80.88s-13.4-30.13,0-30.11S106.43,80.88,106.43,80.88Z"/>
      <path d="M92.42,86.68S61.64,74.85,71.14,65.39,92.42,86.68,92.42,86.68Z"/>
      <path d="M86.62,100.68s-30.13,13.41-30.1,0S86.62,100.68,86.62,100.68Z"/>
      <path d="M92.42,114.69S80.6,145.47,71.14,136,92.42,114.69,92.42,114.69Z"/>
      <path d="M106.43,120.49s13.4,30.13,0,30.11S106.43,120.49,106.43,120.49Z"/>
      <path d="M120.43,114.69s30.79,11.83,21.29,21.29S120.43,114.69,120.43,114.69Z"/>
      <path d="M126.24,100.68s30.12-13.4,30.1,0S126.24,100.68,126.24,100.68Z"/>
      <path d="M120.43,86.68s11.83-30.78,21.29-21.29S120.43,86.68,120.43,86.68Z"/>
      <circle cx="106.43" cy="100.68" r="17.56"/>
      <path d="M96.74,78.92S56.32,37,78.56,29,96.74,78.92,96.74,78.92Z"/>
      <path d="M84.19,92.15S26,91.11,36,69.69,84.19,92.15,84.19,92.15Z"/>
      <path d="M84.66,110.38s-41.88,40.41-49.93,18.17S84.66,110.38,84.66,110.38Z"/>
      <path d="M97.89,122.93s-1,58.19-22.46,48.16S97.89,122.93,97.89,122.93Z"/>
      <path d="M116.12,122.45s40.42,41.88,18.18,49.94S116.12,122.45,116.12,122.45Z"/>
      <path d="M128.67,109.22s58.2,1,48.17,22.46S128.67,109.22,128.67,109.22Z"/>
      <path d="M128.2,91s41.88-40.42,49.93-18.17S128.2,91,128.2,91Z"/>
      <path d="M115,78.44s1-58.2,22.46-48.16S115,78.44,115,78.44Z"/>
    </g>
  </g>
  <g>
    <g>
      <path class="cls-1" d="M113.53,737.82c-2.12-.48-4.08-.86-6-1.38A21.2,21.2,0,0,1,97,730c-1.15-1.28-.87-2.25.6-2.58-4.15-5-9.38-8.79-14.85-12.3-13-8.31-26.28-16-40.58-21.87a88.69,88.69,0,0,0-19.43-6c-1.57-.25-3.16-.31-4.75-.46l-.08.31c.31.19.62.39.94.56a285.1,285.1,0,0,1,59.47,42.57c4.46,4.19,8.85,8.44,12.12,13.66.81,1.29,1.59,2.44,3.07,2.8a10.75,10.75,0,0,1,.76-2c.55-.89,1.34-.78,2.21-.3a42,42,0,0,1,11.43,9c0,.05.15.05.41.11a8.7,8.7,0,0,1-.09-1.66c.08-.56.17-1.32.55-1.58a1.72,1.72,0,0,1,1.65,0,33.85,33.85,0,0,1,4.71,4.47,46.55,46.55,0,0,1,7.12,13.4c.62-1.7,1.19-3.13,1.68-4.59s1.35-2,2.5-1a50.56,50.56,0,0,1,5.1,5c4.41,5,6.58,11,8.05,17.36.2.84.17,1.8-.93,2s-1.24-.59-1.45-1.46a44.69,44.69,0,0,0-9.68-18.9c-.42-.5-1.53-1.44-1.72-1.36-.65,2-1.37,4.08-1.9,6.16-.25,1-.61,1.65-1.63,1.72s-1.3-.71-1.56-1.57a48,48,0,0,0-8.56-16.76,13.85,13.85,0,0,0-1-1,3.4,3.4,0,0,0-.46-.24c-.2,2.94-2.13,5-3.56,7.22-1.56,2.48-1.32,5.14-.94,7.75.95,6.59,4.39,12,8.76,16.8a54.27,54.27,0,0,0,18.89,13.33,14.07,14.07,0,0,0,2.89.73c.87.18,1.73.38,1.56,1.5s-1.1,1-1.88.89a14,14,0,0,1-6.39-2.11,3.12,3.12,0,0,0-2.74-.32,11.65,11.65,0,0,0-6.07,3.64c-1.61,1.93-2.43,4.11-1.24,6.53a6.23,6.23,0,0,0,5.84,3.74l94.66,1c.29,0,.58,0,.89-.08-2.32-6-8.16-9.79-15.08-7.73a29.34,29.34,0,0,0-5.63,2.4c-2.9,1.57-6,1.6-9,1.24a43.59,43.59,0,0,1-14.27-4c-5.8-2.84-11.89-3.07-18.1-1.54-2,.5-7.21,1.55-8.39,1.16a1,1,0,0,1-.68-1.21,1.09,1.09,0,0,1,.92-.88c6.4-.59,12.56-3.27,19.13-2.3,2.23.33,4.46.77,6.65,1.3a2.65,2.65,0,0,0,2.31-.35,30.21,30.21,0,0,0,7.84-8.37,55.64,55.64,0,0,0,7.86-18c-1.8-.42-3.64-.73-5.4-1.3a13.38,13.38,0,0,1-6.7-4.82c-.48-.63-.63-1.3.07-1.84s1.3-.27,1.81.37a14.23,14.23,0,0,0,21.38.31,29.59,29.59,0,0,0,7.2-14.18c2.79-12.27,1.13-24.36-4.15-35.73-.13-.27-2.86,4.62-4.67,5.66a1.11,1.11,0,0,1-1.41-.4,1.18,1.18,0,0,1,.19-1.47c2.49-1.79,3-4.54,3.51-7.21a46.88,46.88,0,0,0-.83-19.35,7.5,7.5,0,0,1-1.59,1.52,1.26,1.26,0,0,1-1.6-.08.87.87,0,0,1-.12-1.33c1.88-2.09,2.4-4.72,3-7.29.51-2.15.81-4.36,1.24-6.71-4.36,3.63-14,6-20.36,2.88-.77-.38-1.51-.94-.91-1.92s1.29-.57,2.05-.16c2.45,1.35,5.09,1.36,7.77,1a19.14,19.14,0,0,0,9.52-3.67,5.78,5.78,0,0,0,2.42-4.82c0-4.5.24-9-.8-13.44-.15-.63-.65-3.23.18-3.46,1.81-.51,2.12,2.57,2.26,3.5,1.33,9.13,1.72,18.25-.65,27.29-.22.84-.56,1.65-.83,2.48a2.24,2.24,0,0,0,1.06,2.61c10.29,4.1,39.83,22.59,45.43,25.7,9,5,18.45,5.47,28.2,2.28,7.73-2.52,15.46-5.1,23.3-7.26,7.21-2,14.52-3.69,21.88-5,4.53-.8,9.2-.17,13.83.32s9.17-.62,12.57-4.53c.43-.49,1.74-1.86.77-3-.54-.62-1.73-.26-2.45,0-3,1.12-9.14,3.52-10,3.75-1.19.33-1.38-.45-1.41-1a1.26,1.26,0,0,1,1.13-1.29,27.61,27.61,0,0,0,8.81-3.55c.71-.43,1.77-1.37,1.55-2.23-.41-1.57-1.67-1.22-2.34-.83a60.91,60.91,0,0,1-10.94,4.1c-.54.06-1.4.15-1.64-.51a1.14,1.14,0,0,1,.7-1.65c1.23-.44,8-2.69,9.54-3.27,0-.21-4.57-1.06-6.34-1.27-6.12-.71-15.17-.05-19.1,2.94-2.56,2-5.9,2.09-9,1.59-10.9-1.75-42.29,4.91-42.85,5a43.16,43.16,0,0,1,2.55,3.71c.26.47.8,1.27.11,1.86s-1.55.06-2.11-.56c-4.72-5.26-9.35-10.6-15.13-14.81-3.09-2.25-28-14.4-34.84-22.85A3,3,0,0,1,220,670c.8-6.65-2.05-12.08-5.72-17.2a29,29,0,0,0-9.12-8.52,1.86,1.86,0,0,0-1.93-.09,98.34,98.34,0,0,0-17.05,10.39c-6.28,4.58-12.65,9.06-18.11,14.64-1.79,1.84-4.88,6.45-6.35,5.54s.46-3.43,1.72-4.83c11.17-12.44,24.8-21.52,39.79-28.94,2.45-1.21,5-2.23,7.54-3.26A20.26,20.26,0,0,0,221.72,627a67.27,67.27,0,0,0,5.2-17.75,184.58,184.58,0,0,0,1.76-42.2c-.49-7.7-1.53-15.37-2.35-23a4,4,0,0,1,1.12-3.56c1.63-1.63,1.88-3.9,2.31-6a37,37,0,0,0-.1-13c-.06-.39-.7-1-1-1-2.25.3-4.49.75-6.76,1.16.39,2.08.72,3.78,1,5.48.12.71.25,1.57-.64,1.73a2.13,2.13,0,0,1-1.58-.76c-2.17-2.5-4.22-5.11-6.42-7.59a4.16,4.16,0,0,0-2-.88,64.69,64.69,0,0,1-7.27-1.93,37.22,37.22,0,0,1-14-9.72,33.57,33.57,0,0,0-2.35-2.67,29.74,29.74,0,0,0,.34,3.9c1.32,6.35,4.84,11.45,9.5,15.77a84.24,84.24,0,0,0,6.9,5.41c5.29,3.93,9,8.93,10.54,15.43.66,2.88.1,5.71-.57,8.53-1.52,6.44-3,12.91-4.51,19.34-1,4-2.44,7.85-3.08,11.87-.8,5.12-1.07,10.33-1.42,15.5-.18,2.61,0,5.24,0,7.86a1.3,1.3,0,0,1-.49.93q-11.35,8-22.72,15.92l-.66.42c-1.25-1.2-1.24-2.36.13-3.34q3.78-2.7,7.65-5.28c.62-.41.82-.73.52-1.47-.87-2.17-1.36-4.5-3.06-6.29a1.57,1.57,0,0,1-.09-1.41c.12-.24.83-.41,1.2-.32,2.1.49,3.73-.43,5.15-1.75a2.24,2.24,0,0,0,.35-1.8c-.57-2.68.67-4.7,2.15-6.73a11.94,11.94,0,0,0,1.81-3.37,1.67,1.67,0,0,0-1.42-2.23,22,22,0,0,0-3.05-.7,3.73,3.73,0,0,1-3.44-2.9c-.62-1.82-1.35-2.11-2.82-.88-2.16,1.79-4.05,3.73-3.19,7,.3,1.16.82,1.75,1.9,1.64a51.76,51.76,0,0,0,5.4-.83c.92-.19,1.81-.46,2.18.65s-.44,1.69-1.42,1.89c-2.16.44-4.34.82-6.66,1.26.83,3,.6,5.86-3.4,7,.07.74.19,1.5.22,2.27.28,5.76-1.54,11-4.11,16a94.58,94.58,0,0,1-5.16,8,4,4,0,0,1-.43.49c-.62.65-1.36.93-2.07.29s-.51-1.4.09-2.08a37.76,37.76,0,0,0,8.61-17.53,20.06,20.06,0,0,0,.37-5.19c0-.94-.76-1.85-1.1-2.79-.18-.49-.43-1.15-.24-1.54s.87-.49,1.36-.62c.28-.08.6.07.91.08,2.17.07,3-.72,2.53-2.82-.76-3.47-1.67-6.91-2.62-10.33-.42-1.51-1.35-1.73-2.69-.84a5.82,5.82,0,0,0-2.52,5c0,1.71,0,3.41,0,5.12,0,1.32-.54,1.61-1.85,1.3-2.11-.5-4.23-.92-6.34-1.37-.83,3.57-4.15,4.74-7.1,1.85-1.55,4.07-.89,8,0,11.77a9.26,9.26,0,0,1,2.2,0,1.6,1.6,0,0,1,1,1,1.4,1.4,0,0,1-.57,1.15c-1.78,1.08-1.91,1.63-.59,3.33.13.17,1.45-.21,2-.2a1.47,1.47,0,0,1,1.37.79,1.29,1.29,0,0,1-.09,1.41,7.52,7.52,0,0,1-5.85,3c-.89,0-1.92-.27-2.18-.81s-.35-1.57.32-2a7.57,7.57,0,0,0,1.66-1.13,3.1,3.1,0,0,0-2.58-3,4.81,4.81,0,0,1-2-.94,1.64,1.64,0,0,1-.28-1.54c.2-.32,1-.41,1.53-.36s.91.4,1.49.5a30.7,30.7,0,0,0-5.36-10c.37,2.08.05,3.81-1.77,5-1.38.9-2.53.78-4.23-.37a5.49,5.49,0,0,0-1,5.46c2.25,7.29,7.1,12.43,13.48,16.22a68.82,68.82,0,0,0,6.56,2.87c.53.25,1.23.53,1.21,1.35a1.7,1.7,0,0,1-1.21,1.54c-4.19,1.39-8.05,8.43-8.28,8.94s-1.21,1.73-2.32,1.2-.69-1.77-.5-2.54c.74-3,6.51-8.21,7.42-8.92a35.32,35.32,0,0,1-15-11.84c-1.89,1.76-6.1,5.82-6.4,6.05a1.27,1.27,0,0,1-1.61,0,1.26,1.26,0,0,1-.31-1.55c.39-.75,5.09-5.09,6.64-6.46-.93-2.7-1.81-5.37-2.79-8a1.8,1.8,0,0,0-1.12-1c-2.64-.53-5.07.45-7.52,1.21a11.24,11.24,0,0,0-2.36,1.1c-.82.48-1.55.48-2-.35a1.29,1.29,0,0,1,.71-1.95c2.33-.93,4.69-1.78,7.06-2.59a13.68,13.68,0,0,1,2.43-.36c-4.82-8.91-3.11-17,1.53-24.12a8.11,8.11,0,0,0-5.52-3.3,4.27,4.27,0,0,0-4.6,2.3,6.79,6.79,0,0,1-1,1.68,14.5,14.5,0,0,1-2.57,1.81c-.9.51-1.95.77-2.8,1.34a6.87,6.87,0,0,0-1.29,1.68,5.9,5.9,0,0,0,1.81,1.11,37.88,37.88,0,0,0,4.4.42,7.76,7.76,0,0,0,1.17-.13c.92-.1,1.63.25,1.71,1.19s-.56,1.42-1.48,1.43c-1.87,0-3.73,0-5.89,0,.51.46.84.78,1.18,1.06a2.79,2.79,0,0,1,1,2.81c-.24,1.41.14,1.8,1.56,2.17a11,11,0,0,1,3.28,1.36,2.47,2.47,0,0,1,.83,2c-.06.45-1,.89-1.62,1.1-.85.29-1.44.76-1.4,1.65.12,2.63-1.32,4.05-3.57,5-.82.35-1.87.77-1.55,2.07a2.59,2.59,0,0,0,2.62,2.26c1.09,0,2.18,0,3.27,0s1.42.62,1.6,1.56c.09.5.45,1.33.69,1.34a3.58,3.58,0,0,0,1.69-.67c.27-.16.43-.53.64-.81a2,2,0,0,1,3.16-.49,1.85,1.85,0,0,1,.37,2.94,10.57,10.57,0,0,1-2.28,2.1c-.69.48-1,.84-.56,1.66s.79,1.78-.18,2.3c-.62.34-1.52.14-2.6.2a3.66,3.66,0,0,0,.31,1.18,3.4,3.4,0,0,0,1.1,1.1,4.53,4.53,0,0,1,2,3.78c.2,3.2.32,3.22,3.11,1.57,1.16-.69,2.3-1.43,3.51-2,3.29-1.65,6.19.27,6,3.93a32,32,0,0,1-2.53,11.55c-2.32,5.14-2.2,10.55-1.69,15.95a50.12,50.12,0,0,0,8.54,23.88c.56.82.77,1.66-.25,2.24s-1.57-.09-2-.86c-1.89-3.33-3.79-6.66-5.59-10a1.5,1.5,0,0,0-2-.91c-3.59.79-6.54-.18-8.7-3.27a1.43,1.43,0,0,0-1.1-.52,8.87,8.87,0,0,1-9.19-6.64,2,2,0,0,0-1.33-1.49c-3.95-1.83-5.9-5.12-6.59-9.3a1.53,1.53,0,0,0-.57-1c-3.87-2.12-5.31-5.58-5.48-9.76,0-.31,0-.61,0-1-5.88-.91-6.82-10.33-5.27-13.51l-4.31-2.29c-.21,2.05-2.72,38.73,13,53,16.58,15,33.47,11.29,39.79,10.65a6.37,6.37,0,0,1,2.17.18,25.82,25.82,0,0,0,18.09-1.6c3.5-1.71,6.13-4.14,6.63-8.29a.91.91,0,0,1,1.1-.7,1,1,0,0,1,1,1.09,16.06,16.06,0,0,1-1,4.14,13.35,13.35,0,0,1-7,6.45c-5.92,2.75-14.64,3-19.87,1.11.44,6.93,7.3,17.94,14.94,22.52a30.35,30.35,0,0,0,4.27,1.91c.75.3,1.45.61,1.23,1.55a1.16,1.16,0,0,1-1.66.8c-1.76-.57-3.5-1.21-5.44-1.89-3.27,7.76,4.14,19,7.55,21.06a1.52,1.52,0,0,1,.89,1.56c-.16.73-1.16.84-1.58.67-4-1.65-7-7.6-7.23-8-3.77,4.6-5.23,13.55.77,18.16,3.05,2.34,6.1,4.49,10,5,1.78.25,3.87,0,3.9,1.17a1.13,1.13,0,0,1-1.12,1.28c-7.92,1-14.45-6.51-16.24-6.61-2.58-.13-1.3,2-4.77,1C142.15,750,126,735.56,118.05,723.8c-21.48-31.93-53.79-33.22-55-33.22.24.16,27.33,15,34.94,24.24.25.3.52.94.25,1.3s-.79.19-1.17.16c-1.6-.13-3.19-.3-5.2-.5a19.19,19.19,0,0,0,1.1,2.53c2,3.16,4.3,6,7.83,7.67a1.4,1.4,0,0,1,.13,2.53,12.25,12.25,0,0,1-1.25.61c2.11,2.16,4.71,3,7.4,3.85,3.53,1.06,7,2.23,10.54,3.39a4.77,4.77,0,0,1,1.7.93,1.18,1.18,0,0,1,.51,1.22c-.14.51-.68.49-1,.47-3.51-.2-5.89,2.07-8.78,3.88.86.58,1.54,1.06,2.24,1.49,2.38,1.45,4.75,2.9,7.64,3.15.56,0,1.38.43,1.52.85s-.31,1.15-.6,1.68a9.93,9.93,0,0,1-1.2,1.33,25.69,25.69,0,0,0,4.26,1.5c3.52.57,7.11.78,10.62,1.41a44.05,44.05,0,0,1,6.46,2c.35.12,1,.44,1,1.16s-.74,1-1.16,1.17a12.85,12.85,0,0,0-5.92,5.55c1.13.29,2.25.55,3.35.85a18.62,18.62,0,0,1,7.31,3.63c1,.85,1.94,1.79,1.64,3.38,3.51.28,11.91,2.16,15.71,6.71.26.35,1.32,1.59.22,2.42a1.31,1.31,0,0,1-1.55-.13c-2.82-3.84-6.93-5-11.32-6.05-2.16-.53-6.07.25-6.88-2.15-.21-.63,1.2-.83,1-1.73s-1.43-1.38-2.39-1.81c-2.06-.93-4.21-1.64-6.32-2.42-1.26-.47-2.57-.83-3.79-1.39-1-.48-1.08-1.44-.29-2.25l5.58-5.69a61.91,61.91,0,0,0-6.14-1.14c-3.52-.31-7.07-.29-10.36-1.86-.75-.36-1.51-.68-2.22-1.1-1.86-1.11-2-1.89-.86-3.81-1.75-.82-3.48-1.68-5.25-2.43a10.49,10.49,0,0,1-4.68-3.79,1.13,1.13,0,0,1,.27-1.71c1.34-1,2.67-1.95,4-2.91C112.44,738.42,112.94,738.18,113.53,737.82Z"/>
      <path class="cls-1" d="M129.53,619.7l-5.43-.8c.39,2.05.88,4.28,1.21,6.54a33.52,33.52,0,0,1-.39,11.73,1.22,1.22,0,0,1-1.48,1.11,1.16,1.16,0,0,1-1.11-1.47c1-7.48-.62-14.54-3.14-21.52a52.17,52.17,0,0,0-18.45-24.67,20,20,0,0,0-11.2-3.71,57.1,57.1,0,0,1-22.7-6.56c-19.56-8.58-35.66-35.87-36.42-36.89-1.21,14.22,18.6,80.9,67.19,79,.45-4.94,3.43-8.17,5.39-9.21.78-.41,1.68-.91,2.29.13s-.31,1.49-1.09,1.94c-2.71,1.58-3.55,4.17-3.32,7s1.45,5.39,4.51,6.46a1.61,1.61,0,0,0,1.74-.35,7.27,7.27,0,0,1,2.67-1.2,1,1,0,0,1,1.16.85,1.1,1.1,0,0,1-.69,1.28c-6.42,2.69-2.17,12.87.69,12.76a19.92,19.92,0,0,1,3.28-4.83,1.2,1.2,0,0,1,1.94,0c.59.69.2,1.26-.35,1.81a9.53,9.53,0,0,0-2.18,10.7,5.38,5.38,0,0,0,3.09,3.17c.55-1.64,2.21-4,3.79-4.71a1.13,1.13,0,0,1,1.26,1.88,8.26,8.26,0,0,0,.59,12.68,10.51,10.51,0,0,0,1.46.82c.63-1.1,1.19-2.13,1.8-3.12.46-.74,1.1-1.26,2-.65s.49,1.25.07,2c-2.34,3.93-.77,8.19,3.52,9.53a11.28,11.28,0,0,0,1.88.31c.27-2.26.51-4.4.76-6.54,0-.21,0-1.62,1.39-1.51a1.21,1.21,0,0,1,1,1.63,10.71,10.71,0,0,0-.29,6.19,5.81,5.81,0,0,0,7,4.39c.94-.21,1.22-.54.89-1.52a53.2,53.2,0,0,1-2.4-15.3c-.16-4.82,1.22-9.25,3.05-13.62a22.4,22.4,0,0,0,1.68-9c0-2.12-.68-2.51-2.57-1.48-1.49.82-2.9,1.78-4.39,2.59a3.45,3.45,0,0,1-5.35-3,4.58,4.58,0,0,0-1.79-3.83,5.08,5.08,0,0,1-1.81-4.94c.08-.69.82-1.32,1.3-1.94.31-.4.68-.75,1.21-1.32C131,621.91,129.79,621.18,129.53,619.7Z"/>
      <path class="cls-1" d="M107.45,500.47c-30.16,20.38-16.17,69.3-2.71,87.46,1.42,2.63,15.15,19.65,16.88,24.31,1.46-1,2.86-2,4.36-2.83.87-.49.81-1.14.72-1.88-.15-1.4-.13-2.73,1.2-3.62a16.66,16.66,0,0,1-2.44-1.31,3.24,3.24,0,0,1-1.39-3.53,1.93,1.93,0,0,0-.49-1.52,5.84,5.84,0,0,1-2-3.72,2,2,0,0,0-.35-.8c-1.14-1.75-1.15-3.3.35-4.73a37.67,37.67,0,0,1,3.8-2.71,15.46,15.46,0,0,0,2-1.72c.72-.76,1.26-1.7,2-2.38a2,2,0,0,0,.59-2.3c-.66-2.57-2.19-4.61-3.69-6.71-4.12-5.73-8.16-11.53-12.28-17.27-5.6-7.79-8.4-16.64-9.38-26a65.71,65.71,0,0,1,.27-13.73C105.44,510.42,106.58,505.44,107.45,500.47Z"/>
      <path class="cls-1" d="M156.84,606.46c.2-1.38.36-2.62.57-3.87a5.58,5.58,0,0,1,3.86-4.39c3-1.21,6.14-.92,9.24-.19l2.9.7a45.65,45.65,0,0,1,0-5,8.05,8.05,0,0,1,2.88-5.79c.26-.2.29-1,.15-1.34a13.63,13.63,0,0,0-9.77-8.85c-7.38-2-13.89.11-19.57,4.92a21.26,21.26,0,0,0-7.91,15.38,17.22,17.22,0,0,0,3.87,11.87c.37-.94.62-1.71,1-2.44a10.27,10.27,0,0,1,7-5.62,3.22,3.22,0,0,1,3.41,1.43C155.24,604.28,156,605.31,156.84,606.46Z"/>
      <path class="cls-1" d="M151.25,576.37l8.19-1.85c.25-.06.68-.1.71-.22a11.34,11.34,0,0,0,.53-3.12,2.49,2.49,0,0,0-2-2.35,2.31,2.31,0,0,0-2.51,1.23c-1,1.4-2,1.35-2.72-.18s-1.27-3.23-1.83-4.87a2.8,2.8,0,0,0-2.56-2,12.19,12.19,0,0,1-3.33-1c-1-.47-2-.56-2.7.39a27.58,27.58,0,0,0-2.8,4.33,4.23,4.23,0,0,0,.24,2.49c.2.75.71,1.41.94,2.14a2.91,2.91,0,0,1-1.88,4c-1.39.46-1.45,1.34-1.17,2.44a8.9,8.9,0,0,0,4.15,5.41l6.41-5.35c-.9-2.24-1.83-4.62-2.79-7-.37-.9-.53-1.8.55-2.21s1.56.31,1.92,1.23C149.5,572.09,150.43,574.34,151.25,576.37Z"/>
      <path class="cls-1" d="M96.85,747.15c0,.85,0,1.37,0,1.89,0,1.28-.9,1.79-2,1.16-.95-.54-1.85-1.16-2.75-1.76a11.13,11.13,0,0,0-6.46-1.61l18.85,13.63,2.65-4.18A37.59,37.59,0,0,0,96.85,747.15Z"/>
      <path class="cls-1" d="M166.22,574.8c-.69-1.32-1.31-2.69-2.86-2.62-.5,0-1,1.17-1.61,2.07Z"/>
    </g>
    <g>
      <path class="cls-1" d="M728.36,104.07c2.12.48,4.08.86,6,1.38a21.2,21.2,0,0,1,10.56,6.48c1.15,1.28.87,2.25-.6,2.58,4.15,5,9.38,8.79,14.85,12.3,13,8.31,26.28,16,40.58,21.87a88.69,88.69,0,0,0,19.43,6c1.57.25,3.16.31,4.75.46l.08-.31c-.31-.19-.62-.39-.94-.56a284.78,284.78,0,0,1-59.47-42.58c-4.46-4.18-8.85-8.43-12.12-13.65-.81-1.29-1.59-2.44-3.07-2.8a10.41,10.41,0,0,1-.76,2c-.55.89-1.34.78-2.21.31a42,42,0,0,1-11.43-9s-.15,0-.41-.11a8.7,8.7,0,0,1,.09,1.66c-.08.56-.17,1.32-.55,1.58a1.72,1.72,0,0,1-1.65,0,33.85,33.85,0,0,1-4.71-4.47,46.55,46.55,0,0,1-7.12-13.4c-.62,1.7-1.19,3.13-1.68,4.59s-1.35,2-2.5,1a50.56,50.56,0,0,1-5.1-5c-4.41-5-6.58-11-8-17.36-.2-.84-.17-1.8.93-2s1.24.59,1.44,1.46a44.82,44.82,0,0,0,9.69,18.9c.42.5,1.53,1.44,1.72,1.36.64-2,1.37-4.08,1.9-6.16.25-1,.61-1.65,1.63-1.73s1.3.72,1.56,1.58a48,48,0,0,0,8.56,16.76,13.85,13.85,0,0,0,1,1,2.86,2.86,0,0,0,.46.24c.2-2.94,2.13-5,3.55-7.22,1.57-2.48,1.33-5.14,1-7.75-1-6.59-4.39-12-8.76-16.8a54.27,54.27,0,0,0-18.89-13.33,14.07,14.07,0,0,0-2.89-.73c-.87-.18-1.73-.38-1.56-1.5s1.1-1,1.88-.89a13.85,13.85,0,0,1,6.39,2.11,3.1,3.1,0,0,0,2.73.32A11.64,11.64,0,0,0,720.69,39c1.61-1.93,2.43-4.11,1.23-6.53a6.2,6.2,0,0,0-5.83-3.74l-94.66-1c-.29,0-.58.05-.89.08,2.32,6,8.16,9.79,15.08,7.73a29.34,29.34,0,0,0,5.63-2.4c2.9-1.57,6-1.6,9-1.24a43.47,43.47,0,0,1,14.26,4c5.81,2.84,11.9,3.07,18.11,1.54,2-.5,7.21-1.55,8.39-1.16a1,1,0,0,1,.68,1.21,1.09,1.09,0,0,1-.92.88c-6.4.59-12.56,3.27-19.13,2.3-2.23-.33-4.46-.77-6.65-1.3a2.65,2.65,0,0,0-2.31.35,30.06,30.06,0,0,0-7.84,8.37,55.64,55.64,0,0,0-7.86,18c1.8.42,3.64.73,5.4,1.3a13.43,13.43,0,0,1,6.7,4.81c.48.64.63,1.31-.07,1.85s-1.3.27-1.81-.37a14.23,14.23,0,0,0-21.38-.31,29.59,29.59,0,0,0-7.2,14.18c-2.79,12.27-1.13,24.36,4.15,35.73.13.27,2.86-4.62,4.67-5.66a1.11,1.11,0,0,1,1.41.4,1.18,1.18,0,0,1-.19,1.47c-2.49,1.79-3,4.54-3.51,7.21a46.88,46.88,0,0,0,.83,19.35,7.5,7.5,0,0,1,1.59-1.52,1.26,1.26,0,0,1,1.6.08.87.87,0,0,1,.12,1.33c-1.88,2.09-2.4,4.72-3,7.29-.51,2.15-.81,4.36-1.24,6.71,4.36-3.63,14-6,20.36-2.88.77.38,1.51.94.91,1.92s-1.3.57-2.05.16c-2.45-1.35-5.09-1.36-7.77-1a19.14,19.14,0,0,0-9.52,3.67,5.78,5.78,0,0,0-2.42,4.82c0,4.5-.24,9,.8,13.43.15.64.65,3.24-.18,3.47-1.81.51-2.12-2.57-2.26-3.5-1.33-9.13-1.72-18.25.65-27.29.22-.84.56-1.65.83-2.48a2.24,2.24,0,0,0-1.06-2.61c-10.29-4.1-39.83-22.59-45.43-25.7-9-5-18.45-5.47-28.2-2.28-7.73,2.52-15.46,5.1-23.3,7.26-7.21,2-14.52,3.69-21.88,5-4.53.8-9.2.17-13.83-.32s-9.17.62-12.57,4.53c-.43.49-1.74,1.86-.77,3,.54.62,1.73.26,2.45,0,3-1.12,9.14-3.52,9.95-3.75,1.19-.33,1.38.45,1.41,1a1.27,1.27,0,0,1-1.13,1.29,27.61,27.61,0,0,0-8.81,3.55c-.71.43-1.77,1.37-1.55,2.23.41,1.57,1.67,1.22,2.34.83a60.63,60.63,0,0,1,10.94-4.1c.54-.06,1.4-.15,1.64.51a1.14,1.14,0,0,1-.7,1.65c-1.23.44-8,2.69-9.54,3.27,0,.21,4.57,1.06,6.34,1.27,6.12.71,15.17,0,19.1-2.94,2.56-2,5.9-2.09,9-1.59,10.9,1.75,42.29-4.91,42.85-5a41.54,41.54,0,0,1-2.55-3.7c-.26-.47-.8-1.27-.11-1.86s1.54-.06,2.11.56c4.72,5.26,9.35,10.6,15.13,14.81,3.09,2.25,28,14.4,34.84,22.85a3,3,0,0,1,.78,1.84c-.8,6.65,2,12.08,5.72,17.2a29,29,0,0,0,9.12,8.52,1.86,1.86,0,0,0,1.93.09,98.34,98.34,0,0,0,17.05-10.39c6.28-4.58,12.65-9.06,18.11-14.65,1.79-1.83,4.88-6.44,6.35-5.53s-.46,3.43-1.72,4.83c-11.17,12.44-24.8,21.52-39.79,28.94-2.45,1.21-5,2.23-7.54,3.26a20.26,20.26,0,0,0-10.93,10.73,67.27,67.27,0,0,0-5.2,17.75,184.58,184.58,0,0,0-1.76,42.2c.49,7.7,1.53,15.37,2.35,23.05a4,4,0,0,1-1.12,3.56c-1.63,1.63-1.88,3.9-2.31,6a37,37,0,0,0,.1,13c.06.39.69,1,1,1,2.26-.3,4.5-.75,6.77-1.16-.39-2.08-.72-3.78-1-5.48-.13-.71-.25-1.57.64-1.73a2.13,2.13,0,0,1,1.58.76c2.17,2.5,4.22,5.11,6.42,7.59a4.16,4.16,0,0,0,2,.88,64.69,64.69,0,0,1,7.27,1.93,37.29,37.29,0,0,1,14,9.72,33.57,33.57,0,0,0,2.35,2.67,29.74,29.74,0,0,0-.34-3.9c-1.32-6.35-4.84-11.45-9.5-15.77a84.24,84.24,0,0,0-6.9-5.41c-5.29-3.94-9-8.93-10.54-15.43-.66-2.88-.1-5.71.57-8.53,1.52-6.44,2.95-12.91,4.51-19.34,1-4,2.44-7.86,3.07-11.87.81-5.12,1.08-10.33,1.43-15.5.18-2.61,0-5.24,0-7.86a1.3,1.3,0,0,1,.49-.93q11.36-8,22.72-15.92l.66-.42c1.25,1.2,1.24,2.36-.13,3.34q-3.78,2.7-7.65,5.28c-.62.41-.82.73-.52,1.47.87,2.16,1.36,4.5,3.06,6.29a1.58,1.58,0,0,1,.09,1.4c-.12.25-.83.42-1.2.33-2.1-.49-3.73.42-5.15,1.75a2.24,2.24,0,0,0-.35,1.8c.57,2.68-.67,4.7-2.16,6.72a12.37,12.37,0,0,0-1.8,3.38,1.66,1.66,0,0,0,1.42,2.23,22.22,22.22,0,0,0,3,.7,3.73,3.73,0,0,1,3.45,2.9c.62,1.82,1.35,2.11,2.82.88,2.16-1.79,4.05-3.73,3.19-7-.31-1.16-.82-1.75-1.9-1.64a51.76,51.76,0,0,0-5.4.83c-.92.19-1.81.46-2.18-.65s.44-1.69,1.42-1.89c2.16-.44,4.34-.82,6.66-1.26-.83-3-.6-5.86,3.4-7-.07-.74-.19-1.5-.22-2.27-.28-5.76,1.54-11,4.11-16a94.58,94.58,0,0,1,5.16-8,4,4,0,0,1,.43-.49c.62-.65,1.36-.93,2.07-.29s.51,1.4-.09,2.08a37.77,37.77,0,0,0-8.61,17.52,20.17,20.17,0,0,0-.37,5.2c0,.94.76,1.85,1.1,2.79.18.49.43,1.15.24,1.54s-.87.49-1.36.62c-.28.08-.6-.07-.91-.08-2.17-.07-3,.72-2.53,2.82.76,3.47,1.67,6.91,2.62,10.33.42,1.51,1.35,1.73,2.69.84a5.79,5.79,0,0,0,2.51-5c0-1.71,0-3.41,0-5.12,0-1.32.54-1.61,1.85-1.3,2.11.5,4.23.92,6.34,1.37.83-3.57,4.15-4.74,7.1-1.85,1.55-4.07.89-8,0-11.77a9.26,9.26,0,0,1-2.2,0,1.57,1.57,0,0,1-.95-1,1.4,1.4,0,0,1,.57-1.15c1.78-1.08,1.91-1.64.59-3.33-.13-.17-1.45.21-2,.2a1.47,1.47,0,0,1-1.37-.79,1.29,1.29,0,0,1,.09-1.41,7.52,7.52,0,0,1,5.85-3c.89,0,1.92.27,2.18.81s.35,1.57-.32,2a7.57,7.57,0,0,0-1.66,1.13,3.11,3.11,0,0,0,2.58,3,4.87,4.87,0,0,1,2,.94,1.64,1.64,0,0,1,.28,1.54c-.2.32-1,.41-1.53.36s-.91-.4-1.49-.5a30.55,30.55,0,0,0,5.36,10c-.37-2.07-.05-3.8,1.77-5,1.38-.9,2.53-.78,4.23.37a5.49,5.49,0,0,0,1-5.46c-2.25-7.29-7.1-12.43-13.48-16.22a68.82,68.82,0,0,0-6.56-2.87c-.53-.25-1.23-.53-1.21-1.35a1.7,1.7,0,0,1,1.21-1.54c4.19-1.4,8.05-8.44,8.28-8.94s1.21-1.73,2.32-1.2.69,1.77.49,2.54c-.73,3-6.5,8.21-7.41,8.92a35.32,35.32,0,0,1,15,11.84c1.89-1.76,6.1-5.83,6.4-6a1.27,1.27,0,0,1,1.61,0,1.26,1.26,0,0,1,.31,1.55c-.39.75-5.09,5.09-6.64,6.46.93,2.7,1.81,5.37,2.79,8a1.8,1.8,0,0,0,1.12,1c2.64.53,5.07-.45,7.52-1.21a11.24,11.24,0,0,0,2.36-1.1c.82-.48,1.55-.48,2,.35a1.29,1.29,0,0,1-.72,1.95c-2.32.93-4.68,1.78-7,2.59a13.68,13.68,0,0,1-2.43.36c4.82,8.91,3.11,17-1.53,24.12a8.09,8.09,0,0,0,5.52,3.3,4.27,4.27,0,0,0,4.6-2.3,6.61,6.61,0,0,1,1-1.68,14.5,14.5,0,0,1,2.57-1.81c.9-.51,2-.77,2.8-1.34a6.87,6.87,0,0,0,1.29-1.68,5.9,5.9,0,0,0-1.81-1.11,37.88,37.88,0,0,0-4.4-.42,7.76,7.76,0,0,0-1.17.13c-.92.1-1.63-.25-1.71-1.19s.56-1.42,1.48-1.43c1.87,0,3.73,0,5.89,0-.51-.46-.84-.78-1.18-1.07a2.76,2.76,0,0,1-1-2.8c.24-1.41-.14-1.8-1.56-2.17a11,11,0,0,1-3.28-1.36,2.47,2.47,0,0,1-.83-2c.06-.45,1-.89,1.61-1.1.86-.29,1.45-.76,1.41-1.65-.12-2.63,1.32-4.05,3.57-5,.82-.35,1.87-.78,1.55-2.07a2.59,2.59,0,0,0-2.62-2.26c-1.09,0-2.18,0-3.27,0s-1.42-.62-1.6-1.56c-.09-.5-.45-1.33-.69-1.34a3.67,3.67,0,0,0-1.69.66,3.15,3.15,0,0,0-.64.82,2,2,0,0,1-3.16.49,1.85,1.85,0,0,1-.37-2.94,10.57,10.57,0,0,1,2.28-2.1c.69-.48,1-.84.56-1.66s-.79-1.78.18-2.31a7.38,7.38,0,0,1,2.59-.19,3.35,3.35,0,0,0-.3-1.18,3.4,3.4,0,0,0-1.1-1.1,4.53,4.53,0,0,1-2-3.78c-.2-3.2-.32-3.22-3.11-1.57-1.16.69-2.3,1.43-3.51,2-3.29,1.65-6.19-.27-6-3.93a32,32,0,0,1,2.53-11.55c2.32-5.14,2.2-10.55,1.69-16a50.12,50.12,0,0,0-8.54-23.87c-.56-.83-.77-1.66.25-2.24s1.57.09,2,.86c1.89,3.33,3.79,6.66,5.59,10a1.5,1.5,0,0,0,2,.91c3.59-.79,6.54.18,8.7,3.27a1.43,1.43,0,0,0,1.09.52,8.87,8.87,0,0,1,9.2,6.64,2,2,0,0,0,1.33,1.49c4,1.82,5.9,5.12,6.59,9.3a1.53,1.53,0,0,0,.57,1c3.87,2.12,5.31,5.58,5.47,9.76,0,.31,0,.61,0,1,5.88.91,6.82,10.33,5.27,13.51l4.31,2.29c.21-2.05,2.72-38.73-13-53-16.58-15-33.47-11.29-39.79-10.65a6.37,6.37,0,0,1-2.17-.18,25.82,25.82,0,0,0-18.09,1.6c-3.5,1.71-6.13,4.13-6.63,8.29a.91.91,0,0,1-1.1.7,1,1,0,0,1-1-1.09,16.06,16.06,0,0,1,1-4.14,13.35,13.35,0,0,1,7-6.45c5.92-2.75,14.64-3,19.87-1.11-.44-6.93-7.3-17.94-14.94-22.52a29.24,29.24,0,0,0-4.27-1.91c-.75-.3-1.45-.61-1.23-1.55a1.17,1.17,0,0,1,1.66-.81c1.76.58,3.5,1.22,5.44,1.9,3.27-7.76-4.14-19-7.55-21.06a1.52,1.52,0,0,1-.89-1.56c.16-.73,1.16-.84,1.58-.67,4,1.65,7,7.6,7.23,8,3.77-4.6,5.23-13.55-.77-18.16-3.05-2.34-6.1-4.49-10-5-1.78-.25-3.87,0-3.9-1.17a1.13,1.13,0,0,1,1.12-1.28c7.92-1,14.45,6.51,16.24,6.61,2.58.13,1.3-2,4.77-1,18.17,5.31,34.36,19.78,42.27,31.54,21.48,31.93,53.79,33.22,55,33.22-.24-.16-27.33-15-34.94-24.24-.25-.3-.52-.94-.26-1.3s.8-.19,1.18-.16c1.6.13,3.19.3,5.2.5a19.19,19.19,0,0,0-1.1-2.53c-2-3.16-4.3-6-7.83-7.67a1.4,1.4,0,0,1-.13-2.53,12.25,12.25,0,0,1,1.25-.61c-2.11-2.16-4.71-3-7.4-3.85-3.53-1.06-7-2.23-10.54-3.39a4.77,4.77,0,0,1-1.7-.93,1.2,1.2,0,0,1-.52-1.22c.15-.51.69-.49,1-.47,3.51.2,5.89-2.07,8.78-3.88-.86-.58-1.54-1.06-2.24-1.49-2.38-1.45-4.75-2.9-7.64-3.15-.56,0-1.38-.43-1.52-.85s.3-1.15.6-1.68a10.44,10.44,0,0,1,1.19-1.33A25.28,25.28,0,0,0,718,89c-3.52-.57-7.11-.78-10.62-1.41a42.91,42.91,0,0,1-6.46-2c-.35-.11-1-.43-1-1.15s.74-1,1.16-1.17A12.85,12.85,0,0,0,707,77.77c-1.13-.29-2.25-.55-3.35-.85a18.62,18.62,0,0,1-7.31-3.63c-1-.85-1.94-1.79-1.64-3.38-3.51-.28-11.91-2.16-15.72-6.71-.25-.35-1.31-1.59-.21-2.42a1.29,1.29,0,0,1,1.54.13c2.83,3.84,6.94,5,11.33,6,2.16.53,6.07-.25,6.88,2.15.21.63-1.2.83-1,1.73s1.43,1.38,2.39,1.81c2.06.93,4.21,1.64,6.32,2.42,1.26.47,2.57.83,3.79,1.39,1,.48,1.08,1.44.29,2.25l-5.58,5.69a61.91,61.91,0,0,0,6.14,1.14c3.52.31,7.07.29,10.36,1.86.75.36,1.51.68,2.22,1.1,1.86,1.11,2,1.89.86,3.81,1.75.82,3.48,1.68,5.25,2.43a10.49,10.49,0,0,1,4.68,3.79,1.13,1.13,0,0,1-.27,1.71c-1.34,1-2.67,2-4,2.91C729.45,103.47,729,103.71,728.36,104.07Z"/>
      <path class="cls-1" d="M712.36,222.19l5.43.8c-.39-2.05-.88-4.28-1.21-6.54a33.52,33.52,0,0,1,.39-11.73,1.22,1.22,0,0,1,1.48-1.11,1.16,1.16,0,0,1,1.11,1.47c-1,7.48.62,14.54,3.14,21.52a52.17,52.17,0,0,0,18.45,24.67,20,20,0,0,0,11.2,3.71,57.14,57.14,0,0,1,22.7,6.56c19.56,8.58,35.66,35.87,36.42,36.89,1.21-14.22-18.6-80.9-67.19-79-.45,4.94-3.43,8.17-5.39,9.21-.78.41-1.68.91-2.29-.13s.31-1.49,1.09-1.94c2.71-1.58,3.55-4.18,3.32-7.05s-1.45-5.39-4.51-6.46a1.61,1.61,0,0,0-1.74.35,7.27,7.27,0,0,1-2.67,1.2,1,1,0,0,1-1.16-.85,1.1,1.1,0,0,1,.69-1.28c6.42-2.69,2.17-12.87-.69-12.76a19.92,19.92,0,0,1-3.28,4.83,1.2,1.2,0,0,1-1.94,0c-.59-.69-.2-1.26.35-1.81a9.53,9.53,0,0,0,2.18-10.7,5.38,5.38,0,0,0-3.09-3.17c-.55,1.64-2.21,4-3.79,4.71a1.13,1.13,0,0,1-1.26-1.88,8.26,8.26,0,0,0-.59-12.68,10.51,10.51,0,0,0-1.46-.82c-.63,1.1-1.19,2.13-1.8,3.12-.46.74-1.1,1.26-2,.65s-.49-1.25-.07-2c2.34-3.93.77-8.19-3.52-9.53a11.22,11.22,0,0,0-1.89-.31c-.26,2.26-.5,4.4-.75,6.54,0,.21,0,1.62-1.39,1.51a1.21,1.21,0,0,1-1-1.63,10.71,10.71,0,0,0,.29-6.19,5.81,5.81,0,0,0-7-4.39c-.94.21-1.22.54-.89,1.52a53.2,53.2,0,0,1,2.4,15.3c.16,4.82-1.22,9.25-3.05,13.62a22.4,22.4,0,0,0-1.68,9.05c0,2.12.68,2.51,2.57,1.48,1.49-.82,2.9-1.78,4.39-2.59a3.45,3.45,0,0,1,5.35,3,4.55,4.55,0,0,0,1.79,3.83,5.08,5.08,0,0,1,1.81,4.94c-.08.69-.82,1.31-1.3,1.94-.31.4-.68.75-1.21,1.32C710.9,220,712.1,220.71,712.36,222.19Z"/>
      <path class="cls-1" d="M734.44,341.42c30.15-20.38,16.17-69.3,2.71-87.46-1.42-2.63-15.15-19.65-16.88-24.31-1.46,1-2.86,2-4.36,2.83-.87.49-.81,1.14-.72,1.88.15,1.4.13,2.73-1.2,3.62a16.66,16.66,0,0,1,2.44,1.31,3.24,3.24,0,0,1,1.39,3.53,1.93,1.93,0,0,0,.49,1.52,5.84,5.84,0,0,1,2,3.72,2,2,0,0,0,.35.8c1.14,1.75,1.15,3.3-.35,4.73a37.67,37.67,0,0,1-3.8,2.71,15.46,15.46,0,0,0-2,1.72c-.72.76-1.26,1.7-2,2.38a2,2,0,0,0-.59,2.3c.66,2.57,2.19,4.61,3.69,6.7,4.12,5.74,8.16,11.54,12.28,17.28,5.6,7.79,8.4,16.64,9.38,26a65.71,65.71,0,0,1-.27,13.73C736.45,331.47,735.31,336.45,734.44,341.42Z"/>
      <path class="cls-1" d="M685.05,235.43c-.2,1.38-.36,2.62-.57,3.86a5.58,5.58,0,0,1-3.86,4.4c-3,1.21-6.14.92-9.24.19l-2.9-.7a45.65,45.65,0,0,1,0,5,8.05,8.05,0,0,1-2.88,5.79c-.26.2-.29.95-.15,1.34a13.63,13.63,0,0,0,9.77,8.85c7.38,2,13.89-.11,19.57-4.92a21.28,21.28,0,0,0,7.91-15.38A17.22,17.22,0,0,0,698.8,232c-.37.94-.62,1.71-1,2.44a10.27,10.27,0,0,1-7,5.62,3.22,3.22,0,0,1-3.41-1.43C686.65,237.61,685.92,236.58,685.05,235.43Z"/>
      <path class="cls-1" d="M690.64,265.52l-8.19,1.85c-.25.06-.68.1-.71.22a11.34,11.34,0,0,0-.53,3.12,2.49,2.49,0,0,0,2,2.35,2.31,2.31,0,0,0,2.51-1.23c1-1.4,2-1.35,2.72.18s1.27,3.23,1.83,4.87a2.8,2.8,0,0,0,2.56,2.05,12.19,12.19,0,0,1,3.33,1c1,.47,2,.56,2.7-.39a27.58,27.58,0,0,0,2.8-4.33,4.23,4.23,0,0,0-.24-2.49c-.2-.75-.71-1.41-.94-2.14a2.91,2.91,0,0,1,1.88-4c1.39-.46,1.45-1.34,1.17-2.44a8.9,8.9,0,0,0-4.15-5.41l-6.41,5.35c.9,2.24,1.83,4.62,2.79,7,.37.9.53,1.8-.55,2.21s-1.56-.31-1.92-1.23C692.39,269.8,691.46,267.55,690.64,265.52Z"/>
      <path class="cls-1" d="M745,94.73c0-.84,0-1.36,0-1.88,0-1.28.9-1.79,2-1.16.95.54,1.85,1.16,2.75,1.76a11.13,11.13,0,0,0,6.46,1.61L737.43,81.43l-2.65,4.18A37.4,37.4,0,0,0,745,94.73Z"/>
      <path class="cls-1" d="M675.67,267.09c.69,1.32,1.31,2.69,2.86,2.62.5,0,1-1.17,1.61-2.07Z"/>
    </g>
  </g>
</svg>
