<svg id="Livello_1" data-name="Livello 1" xmlns="http://www.w3.org/2000/svg" viewBox="0 0 841.89 841.89">
  <defs>
    <style>
      .cls-1 {
        fill: #231f20;
      }
    </style>
  </defs>
  <title>Glos</title>
  <g>
    <path class="cls-1" d="M430.1,553.55c3-1.52,2.26-5.84-1-6.71-2.38-.63-4.16-2.57-5.53-5.25Q405.17,505.37,386.77,469a118.49,118.49,0,0,0,56.11-9.38c.85-.38,1.71-.74,2.55-1.14,9-4.3,12.19-3.62,19.48,4.53-3.37,1.31-6.9,2.07-9.71,3.92a163.11,163.11,0,0,0-15.54,11.7c-2,1.68-3.34,4.46-.36,6.71s4.66,0,6.42-2.13c8.75-10.7,23.57-14.76,35.48-9.53-15.45,6.69-25.45,18.11-29.36,34.11-1.93,7.9-1.6,16.33-3.1,24.38-1.74,9.29-3.27,18.86-6.86,27.5-4.34,10.42-16.58,13.19-30.14-4-1.31-1.64-4.11-4-6.56-1.81-2.25,2-.56,5,.56,6.24,4.46,4.73,9,9.71,14.4,13.14,9.85,6.21,19.71,3.67,26.47-5.86,7.45-10.49,9-22.73,10.2-35.09.84-8.33,1.33-16.82,3.43-24.86,2.52-9.66,8.59-17.42,17.15-22.87,11.38-7.25,20.95-5.26,26.21,7.06,5.93,13.85,11.58,28.14,14.74,42.8,8.34,38.72,15.34,77.74,22.74,116.67,3.78,19.86,9.72,38.79,23,55.29-9.7,6.68-20.43,9.86-31.32,8.22-18.55-2.79-37.72-4.6-54.48-13.87-10.72-5.93-20.72-13.45-30.21-21.26-16.43-13.54-35.54-22.11-54.72-30.39-16.95-7.31-33.68-4.57-49.42,4.76-2.87,1.7-5.78,3.32-9.51,5.45,0-10.43-.75-20.2.16-29.82,2-21.58,12.21-110.8,14.71-133.88.34-3.13,1-6.42-3.24-7-4.08-.53-4.19,2.88-4.5,5.67-2.13,19.35-8.81,81.88-10.88,94-.28-1.42-5.78-100.5-6.58-104.13-.37-1.69-.49-4.63-3.74-4.49s-3.65,3.32-3.75,5.09c-.29,4.83,8.85,160.43,9.8,178.83-4.84,0-9.11.26-13.33-.05-22.12-1.58-36.73,11.34-44.31,30.28-2.48,6.21-3.81,12.88-5.51,19.37-2.69,10.26-8.83,18.16-17.31,24s-14,3-14.1-7.39c-.08-11.23,4-159.63,4.63-184.94a16.19,16.19,0,0,1,2.61-8.28q27.57-40.38,55.52-80.47a15.2,15.2,0,0,1,6.15-5.41,8.34,8.34,0,0,1,7,.63c1.13.82,1.09,4.47.36,6.38-3.09,8-6.65,15.85-10,23.76-1.1,2.6-2.61,5.61,1.15,7.15,3.48,1.44,5-1.08,6.1-4,3.52-9.42,7-18.87,10.76-28.19.61-1.51,2.65-3.51,4-3.49,9.49.17,19,.3,28.44,1.46,7.7.95,12,6.71,13.55,13.95,3.22,14.79,6.85,29.54,8.79,44.51,2.78,21.45,8.41,41.83,19.26,60.49,9.28,16,30.57,48.52,31.07,49.16,1.69,2.19,4.21,3.25,5.81,1.85,2.3-2,1-5.45,0-7.06-5.39-8.48-11.65-16.45-16.83-25.06-12.62-21-24.34-42.52-29.15-66.9-3.22-16.31-5.69-32.77-8.71-49.12-.93-5.07-2.55-10-4.08-15.85,5.82,3.57,9.08,8.63,11.85,13.94,8.45,16.24,16.69,32.58,25.05,48.87,3.67,7.15,7.2,14.4,11.25,21.34a27.76,27.76,0,0,0,7.29,8.29,6,6,0,0,0,6.45.67"/>
    <path class="cls-1" d="M461.07,449.12c9.92-9,13.6-19.92,3-22.1,6.1-19.53-3.38-33-17.67-44.33,9.73-16.58,3.62-24.45-12.92-25.9a65,65,0,0,0-15.58.36c-8.91,1.38-11.47,4.56-12.15,13.46-5.36,0-10.75.13-16.13-.1a5.15,5.15,0,0,1-3.31-2.19c-3.92-5.64-9.58-7.68-15.72-6-8.78,2.38-17.29,5.78-25.83,8.95a143.55,143.55,0,0,0-17.49,7.29,24.8,24.8,0,0,0-9,7.92c-4.34,6.76-.31,13.74,7.6,15.15,1.22.22,4.25.19,3.82,2.32-.26,1.27-2.48,1.45-3.62,1.31-9.94-1.19-13.42-6.54-13.67-19,0-.93.32-52.67,0-77.61,0-1.88-2.32-5-4-5.32-3.6-.65-3.74,2.62-3.74,5.38q0,35.72.07,71.44v5.32c-5.84-6.65-10.86-12.27-15.78-18-10.42-12-32.25-37.45-32.68-37.85-2.12-2-4.82-2.29-6.36-.8s-.45,4.6.58,5.87c6.74,8.29,13.83,16.28,20.81,24.38l38.49,44.59c-8.75,7.5-15.63,16.75-16.35,27.9-1,14.8-9.15,25.35-16.87,36.52q-19.49,28.2-39,56.39c-1.14,1.65-2.35,3.26-4.56,6.3-1.45-5.49-2.9-9.6-3.6-13.83-6.13-37.66-4.39-75.43-1.41-113.23,3.59-45.61,11.6-90.48,22.76-134.81,1.41-5.6,3.37-11.07,5.11-16.59.25-.78.69-1.51,1.61-3.47,2.77,11.7,5.31,22.15,7.72,32.64,4.25,18.38,13,56.29,13.14,56.74,1.37,3.52,2.95,5.2,5.19,4.62s2.58-4.48,2.19-6.38c-2.9-14.09-6.2-28.09-9.42-42.12-4.1-17.84-8.38-35.65-12.23-53.55a9.65,9.65,0,0,1,1.77-7.4c9-10.23,21-14.33,34.24-15.95,7.92-1,15.69-3.43,23.6-4,3-.21,7.68,2.25,9.15,4.86,13.5,24.16,34.5,33,61,30.72,4.31-.37,5.84.94,7.75,4.67,4.26,8.26,9.91,15.81,14.21,24.06,4.63,8.88,8.39,18.22,12.51,27.36.3.68,2.76,7.11,5.56,6.4,4.4-1.12,3.14-4.67,2.57-6.24-3.3-9.27-6.69-18.6-11.15-27.35-3.62-7.12-8.9-13.39-13.22-20.17-3.12-4.9-10.9-13.92-4.64-17,1.7-.83,3.14,1.34,4.05,2.31,10.22,11,20.7,21.7,30.41,33.09s13.11,25.77,14.78,40.51c1.29,11.33,2.91,22.63,4.67,33.91,2,12.77,8.25,23.62,16.37,33.37,7.55,9.06,12.61,19.4,16.84,30.23.53,1.36.65,3.55-.09,4.64-4.28,6.28-8.51,12.67-13.51,18.36-3.53,4-3.9,7.34,1.31,8.77,21.22,5.82,57,1.94,71.62-3.94,5.12-2.07,6,9.22.09,11.59-26.63,10.6-77.44,8-93-4.53"/>
    <path class="cls-1" d="M521.9,721c-7.19,7-16.36,7.58-24.82,8.22a238,238,0,0,1-38-.28c-7.28-.63-14.23-4.35-21.47-6-30.92-7.21-61.66-4.42-92.45,1.55-17.2,3.33-34.61,5.63-52,7.93-8.62,1.15-13.32-1.89-15.35-10.45-3.53-14.88-3.24-29.31,8.62-41.23a29.34,29.34,0,0,1,23.32-9.1c12.67.76,24.09-1.22,34.94-8.87,16.81-11.87,34.75-12.11,53.56-3.32S435,677.9,450.46,691.68c18.74,16.75,40.76,25.14,65.36,27.82a38.43,38.43,0,0,1,3.86.67,18.94,18.94,0,0,1,2.22.81"/>
    <path class="cls-1" d="M388.4,378.82h14.51c-3.64,10.34,3,15.13,10.16,19.2a68.52,68.52,0,0,0,14.42,6c1.86.54,5.6,1.56,6.62-1.94.65-2.23-2.46-4.34-4.32-5.39-5.49-3.08-11.59-5.14-16.89-8.48-7.33-6.53,3.27-8.79,13.68-10.91,1.72-.35,4.81-.92,4.41-3.39s-5.12-1.79-13.27-2.35c-1.23-.08-3.41,0-3.54-2.13s1.44-2.7,2.51-3.09a35.35,35.35,0,0,1,22.58-1.05c3.56,1.06,4.85,3.27,3.35,6.72s-7,12.33-9.24,13.95c14.8,3.16,25.22,21.24,24.65,31.34-.4,6.95-3.21,9.89-10.18,9.5-23.74-1.31-47.47-2.84-71.2-4.35-1.21-.08-2.88-.34-3.5-1.16-7.57-9.84-29.72-13.61-34.14-14.64-2.15-.49-3.66-1.28-3.27-4.6.48-4.1,13.93-7.74,19.4-10.13a12,12,0,0,0,4.47-3.07c.6-.72.49-3-.17-3.57a4.81,4.81,0,0,0-3.92-.47c-8.13,2.73-16.12,5.86-24.3,8.41-2.11.66-6.14,1.73-7.1-.45-1.67-3.79,2.07-5.56,3.92-6.31,14.28-5.77,28.64-11.42,43.25-16.27,6.48-2.16,10.26,2.21,8.38,8.8-1.05,3.7-3.37,7-4.62,10.68-.65,1.91-1.85,4.91-.26,6.32,3.1,2.76,5.49-.26,6.31-1.58,2.62-4.22,4.3-9,6.35-13.58.3-.68.63-1.35.95-2"/>
    <path class="cls-1" d="M472.29,307.57c0-7.42.65-8.69,7.78-9.88A208.06,208.06,0,0,1,554.38,299c5.44,1,8.12,3.6,7,9.56-3.37,18.83-10.39,35.85-24,49.74-2.4,2.45-4.54,3.42-8.27,1.61a28.36,28.36,0,0,0-21.89-1.46c-3.41,1.16-5.64.37-8.13-1.64-15.77-12.72-25.23-28.84-26.88-49.21"/>
    <path class="cls-1" d="M453.34,178.24c-5.24-5.12-10.14-10.66-15.83-15.22-4.09-3.29-9.07-5.65-14-7.66-1.84-.75-4.7-.31-6.68.76a5,5,0,0,0-1.91,5c1.16,3.86,7.67,2.23,8,2.21,3.05,2.18,13.46,9.53,12.85,11.38-1.36,4-4.6,7.54-7.49,10.91-.54.63-7.63-2.58-9.94.76-1.05,1.53.44,4.17,1.59,5.29a8.32,8.32,0,0,0,11.29.77,33.7,33.7,0,0,0,8-8.45c4-6.18,4.7-6.37,9.8.34-8.76,5.59-9.75,15.55-13.64,24.08C432,216,427.23,223,422.49,229.79c-2.85,4.1-7.42,4.34-12.19,3-9.24-2.71-16.14-8.41-21.6-16.12-15.47-21.85-14.52-52.38,2-71.39,3.89-4.47,7.67-6.06,13.6-4,14.53,5.09,28.71,10.82,41.1,20.14a55.38,55.38,0,0,1,9.89,9.82c1.12,1.41,2,4.53.76,6.3a2.21,2.21,0,0,1-2.7.72"/>
    <path class="cls-1" d="M474.66,153.4c-28.77-27.76-62.27-43.49-101.11-47.91a53.78,53.78,0,0,0-11.2.12c-5.6.56-8.34-1.65-9.59-8.39-1-5.51,2.56-6.67,6.85-7.26,46.52-6.34,97.29,12.53,121.3,51.61,3.85,6.28,3.9,6.26-2.56,9.94-1.27.73-2.62,1.34-3.69,1.89"/>
    <path class="cls-1" d="M300,441.3c0-10.46,3.92-19.69,11-27.7,3.14-3.58,6.62-4.17,11.56-2.93,9.46,2.4,34.54,7.86,37.76,9.48A4.14,4.14,0,0,1,358.9,428c-8.12.81-15.65-2-23.69-4.58.21,8.18,31.89,23.32,50.66,22.94,2.83-.06,7.13-2.19,7.77,2.72.81,6.21-4.08,12.39-22.39,4.89-15-6.15-30.23-10.9-46.75-9.1-2.22.24-4.41,1-6.62,1a23.61,23.61,0,0,1-6.08-1c-3.69-1-7.34-2.17-11.79-3.5"/>
    <path class="cls-1" d="M374.55,153.59c-2,9.27-3.61,17.26-5.46,25.2a5,5,0,0,1-2.37,3.08c-7.63,3.42-12.9,9.34-17.78,15.85a74.58,74.58,0,0,1-8.37,9c-2.59,2.46-4.95,2.14-7.6-.64-10.07-10.59-10.37-22.86-5.66-35.44,5.9-15.76,10.32-18,33.2-18.93,4.7-.18,9.45,1.25,14,1.92"/>
    <path class="cls-1" d="M605.57,734.27a12.81,12.81,0,0,1,2.34.41c4.65,2,9,4.33,8.59,10.36-.3,4.16-5.63,8.18-11.43,8.09-10.66-.17-21.34-.53-32-1.39-13.42-1.08-26.8-2.72-40.2-4.14-10.58-1.13-21.17-2.13-31.71-3.56-2.12-.29-4-2.22-6-3.38,1.36-2.09,2.46-5.71,4.11-6,6.3-1,12.84-1.82,19.16-1.24,24.05,2.19,48,5,72.05,7.51a3.38,3.38,0,0,1,.56,0c6.86,2,12.8,1.83,14.55-6.71"/>
    <path class="cls-1" d="M395.05,460.55c1.07-.68,2.17-1.34,3.23-2.06,4.19-2.84,7.12-6.59,5.43-11.79s-5.93-7.22-11.32-7.54a121,121,0,0,0-16.87-.2c-3.73.31-4.14-7.31-.42-7.76a63.44,63.44,0,0,1,12.85,0c24.22,2,48.5,3.29,73,5.66-18.09,18.2-41.25,23-65.91,23.67"/>
    <path class="cls-1" d="M369.49,187.58c4.24,21.35,11.73,38.63,30.32,49.72-1.65,1.5-2.7,3.22-4.15,3.69-16.26,5.29-47-8.8-54.18-24l28-29.38"/>
    <path class="cls-1" d="M362.09,127.07l-1.35-14.2C403.11,114.05,438,130,468.36,158.18L463.11,166c-28.69-26.45-62.65-37.84-101-38.93"/>
    <path class="cls-1" d="M524.55,393.42c-1.82,17.85,4.09,32.79,15.22,46.72-16.68,3.71-32.68,3.46-49.38.38,10.71-14.41,18.66-29.39,20.79-47.1Z"/>
    <path class="cls-1" d="M418.89,728c-5.32,8.32-10.56,14.52-20.14,14.09-9-.4-13.7-6.52-18.31-14.09Z"/>
    <path class="cls-1" d="M387.56,136.51c-3,3.88-4.77,6.5-6.92,8.74a5.08,5.08,0,0,1-3.81,1.17c-8.75-1.1-17.48-2.4-26.2-3.64,9.34-13.33,23.12-5.53,36.93-6.27"/>
    <path class="cls-1" d="M530.77,725.24l39.13-11.78c-.16-.37.33.31.19.5-3.71,4.82-7.44,9.62-11.3,14.31a3.8,3.8,0,0,1-2.84,1.21c-8.29-.85-16.57-1.87-24.86-2.84-.1-.47-.21-.93-.32-1.4"/>
    <path class="cls-1" d="M539.77,375.28c0,6.94-9.75,12.57-21.78,12.57s-21.78-5.63-21.78-12.57S506,362.7,518,362.7s21.78,5.64,21.78,12.58"/>
  </g>
</svg>
