<svg id="Livello_1" data-name="Livello 1" xmlns="http://www.w3.org/2000/svg" viewBox="0 0 841.89 841.89">
  <defs>
    <style>
      .cls-1 {
        fill: #231f20;
      }
    </style>
  </defs>
  <title>Glos</title>
  <g>
    <path class="cls-1" d="M467.6,494.34c-7.14,1.23-8.16,1.06-12.74-2.25s-5.24-3.09-8.62,1.59a60.29,60.29,0,0,1-6.34,8.09,28.35,28.35,0,0,1-37.91,0,60.29,60.29,0,0,1-6.34-8.09c-3.38-4.68-4.08-4.84-8.62-1.59s-5.61,3.48-12.74,2.25c-2.25-4.44-.59-8.65,1.33-12.7,4.25-9,10.12-17,18.14-22.75,11.51-8.23,23.22-18,27.2-32,4,14.06,15.66,23.81,27.17,32,8,5.73,13.89,13.76,18.14,22.75C468.19,485.69,469.85,489.9,467.6,494.34Z"/>
    <path class="cls-1" d="M474.06,557.83c-10.21,11-37,16.41-53.13,10.78-16.09,5.63-42.89.23-53.1-10.78,6.86-5.24,12.7-11.88,21.62-13.93,6.93-1.56,13.4-1.4,19.44,3.38,2.95,2.29,7.59,3.22,12,5.17,4.48-2,9.12-2.88,12.07-5.17,6-4.78,12.51-4.94,19.44-3.38C461.36,546,467.2,552.59,474.06,557.83Z"/>
    <g>
      <path class="cls-1" d="M407,136.17c9.62,3.49,10.68,11.7,11.39,19.13,2.74,28.43-1.11,56-12.72,82.29-2.37,5.38-5.93,7.95-11.63,9.15-32.21,6.79-59.93,22.09-83.15,45.34-4.14,4.15-8.42,6-14.07,5.55-11.11-.87-22.08-2.42-32.69-6-1.75-.59-3.52-1.56-5.27-1.54-1.29,0-3.23,1.11-3.64,2.19s.54,3,1.51,3.86c1.36,1.16,3.32,1.57,5,2.36a58.85,58.85,0,0,1,25.81,24c-11.51,19.41-14.48,41-16.88,62.57a198.59,198.59,0,0,1-29,83.29c-7.08,11.47-13.8,23.35-24.09,32.43a128.82,128.82,0,0,1-15.17,11.45,11.15,11.15,0,0,1-7.45,1.29c-5.16-1-6.7-4-4.12-8.64a104.92,104.92,0,0,1,9.54-13.6c8.35-10.56,8.1-17-1.1-27.15-4.56-5-9.56-9.93-10.23-18.37,12.38-2.95,24.06-9.63,37.39-3.3a16.26,16.26,0,0,0,8.38,1.6c1.94-.23,4.65-2.27,5.13-4,.42-1.56-1.23-4.6-2.84-5.66-10.32-6.78-21.79-7.59-33.62-5.44-4.59.83-9.12,2-14.69,3.19,1.19-10.59,6.65-16.77,14.72-21,2.79-1.47,6-2.2,8.8-3.59,4.63-2.27,5.87-4.51,4.83-9.6-1.21-5.92-2.89-11.75-4.36-17.6,3.44-3.53,7.52-4.34,11.84-4.3,8.74.08,17.49.33,26.23.36,6.14,0,8.15-2,8.21-7.92a17.81,17.81,0,0,0-15.58-18.09c-4.42-.54-8.94-.23-13.42-.25-6.09,0-12.21.37-18.27-.07-7.29-.53-10.2-4.24-8.22-11.22a63.92,63.92,0,0,1,7-15c5.1-8.58,5.28-8.43-1.2-16.44-7.05-8.71-13-18-15.73-29.1a32.44,32.44,0,0,1-1-6.24c-.24-5.25,1.64-8.85,7-11a71.32,71.32,0,0,1,43.55-3.84c10.81,2.41,15.64-.52,19.33-11q3.17-8.94,6.32-17.87a14.16,14.16,0,0,1,3.59-.3c17.84,3.68,36,6.15,52.36,15a122.59,122.59,0,0,0,13.62,6.43c6.35,2.48,9.82,1.41,13.57-4.32a45,45,0,0,0,6.67-34.94c-2.31-11.12-4.89-22.18-7.46-33.75,8.1-2.2,15.2-.56,22.24,1.3,3.06.81,6,2.06,9,3,5.46,1.71,8.68,0,9.71-5.68s1.45-11.57,2.5-17.29C396.17,149.27,399.79,141.77,407,136.17Z"/>
      <path class="cls-1" d="M434.93,136.17c-9.62,3.49-10.68,11.7-11.4,19.13-2.73,28.43,1.12,56,12.73,82.29,2.37,5.38,5.93,7.95,11.63,9.15,32.21,6.79,59.93,22.09,83.14,45.34,4.15,4.15,8.43,6,14.08,5.55,11.11-.87,22.08-2.42,32.69-6,1.75-.59,3.52-1.56,5.27-1.54,1.29,0,3.23,1.11,3.64,2.19s-.54,3-1.52,3.86c-1.35,1.16-3.31,1.57-5,2.36a58.85,58.85,0,0,0-25.81,24c11.51,19.41,14.48,41,16.88,62.57a198.59,198.59,0,0,0,29,83.29c7.08,11.47,13.8,23.35,24.09,32.43a128,128,0,0,0,15.17,11.45,11.15,11.15,0,0,0,7.45,1.29c5.16-1,6.7-4,4.12-8.64a104.92,104.92,0,0,0-9.54-13.6c-8.35-10.56-8.1-17,1.1-27.15,4.56-5,9.56-9.93,10.23-18.37-12.38-2.95-24.06-9.63-37.39-3.3a16.26,16.26,0,0,1-8.38,1.6c-1.94-.23-4.65-2.27-5.13-4-.42-1.56,1.23-4.6,2.84-5.66,10.32-6.78,21.79-7.59,33.62-5.44,4.59.83,9.12,2,14.69,3.19-1.19-10.59-6.65-16.77-14.72-21-2.79-1.47-6-2.2-8.8-3.59-4.63-2.27-5.87-4.51-4.83-9.6,1.21-5.92,2.89-11.75,4.36-17.6-3.44-3.53-7.52-4.34-11.84-4.3-8.74.08-17.49.33-26.23.36-6.14,0-8.15-2-8.21-7.92a17.81,17.81,0,0,1,15.58-18.09c4.42-.54,8.94-.23,13.42-.25,6.09,0,12.21.37,18.27-.07,7.29-.53,10.2-4.24,8.22-11.22a63.92,63.92,0,0,0-7-15c-5.1-8.58-5.28-8.43,1.2-16.44,7-8.71,13-18,15.73-29.1a32.44,32.44,0,0,0,1-6.24c.24-5.25-1.64-8.85-7-11a71.32,71.32,0,0,0-43.55-3.84c-10.81,2.41-15.64-.52-19.33-11q-3.16-8.94-6.32-17.87a14.19,14.19,0,0,0-3.59-.3c-17.84,3.68-36,6.15-52.36,15a122.59,122.59,0,0,1-13.62,6.43c-6.35,2.48-9.83,1.41-13.57-4.32a45,45,0,0,1-6.67-34.94c2.31-11.12,4.89-22.18,7.46-33.75-8.1-2.2-15.2-.56-22.24,1.3-3.06.81-6,2.06-9,3-5.46,1.71-8.68,0-9.71-5.68s-1.45-11.57-2.5-17.29C445.72,149.27,442.1,141.77,434.93,136.17Z"/>
    </g>
    <g>
      <path class="cls-1" d="M784.52,554.28c-3.52,17-10.22,32.34-23,44.44-10.25,9.69-22.32,15.13-36.68,14.27-4.48-.27-8.92-1.17-13.4-1.56-7.33-.7-9.29,1.06-8.26,8.45,1,7.2,2.89,14.3,4.48,22a32.15,32.15,0,0,1-5.44,2.12c-9.29,2-18.44.6-27.47-1.72a141,141,0,0,1-50.34-24.54c-4.85-3.65-7.07-3.79-10.78-1.3s-4.81,6.1-3.39,11.25c1.23,4.31,2.86,8.52,3.92,12.9s3.08,8.52.76,13.3a22.69,22.69,0,0,1-3,.46c-16.28.7-31.47-3.25-45.9-10.58-6.93-3.51-8.06-3-10.95,4.45-1.89,4.87-3.88,9.68-6,15.12-3.29-1.36-5.84-2-8-3.41-18-11.38-32.9-25.78-42.65-45-1.19-2.36-2.06-5.18-3.91-6.8a7.86,7.86,0,0,0-6.41-1.16c-1.52.46-2.91,2.88-3.38,4.71-.43,1.62.5,3.58.86,5.4,1.36,6.74,3.12,13.4,4,20.23a87.39,87.39,0,0,1-2.13,32.18c-7.39,1.26-14.09,1.56-20.3,3.55-24.41,7.89-37.54,30.91-39.17,32.73-3.58-13.79-1.06-77,2.23-86.17,2.68-7.59,6.1-15.45,16.15-16.61,1.06-.14,2.68-2.79,2.55-4.15s-2.05-3-3.48-3.35a12,12,0,0,0-11.61,3.68c-3.22,3.45-12,13.5-12.87,14.79-.93-1.29-9.68-11.34-12.9-14.79a12,12,0,0,0-11.61-3.68c-1.43.3-3.35,2.09-3.48,3.35s1.49,4,2.55,4.15c10.05,1.16,13.47,9,16.15,16.61,3.29,9.19,5.81,72.38,2.23,86.17-1.63-1.82-14.76-24.84-39.18-32.73-6.2-2-12.9-2.29-20.29-3.55a87.39,87.39,0,0,1-2.13-32.18c.9-6.83,2.66-13.49,4-20.23.36-1.82,1.29-3.78.86-5.4-.47-1.83-1.86-4.25-3.38-4.71a7.86,7.86,0,0,0-6.41,1.16c-1.85,1.62-2.72,4.44-3.91,6.8-9.75,19.23-24.61,33.63-42.65,45-2.16,1.36-4.71,2.05-8,3.41-2.15-5.44-4.14-10.25-6-15.12-2.89-7.43-4-8-10.95-4.45-14.43,7.33-29.62,11.28-45.9,10.58a22.69,22.69,0,0,1-3-.46c-2.32-4.78-.3-9.06.76-13.3s2.69-8.59,3.92-12.9c1.42-5.15.23-8.83-3.39-11.25s-5.93-2.35-10.78,1.3a141,141,0,0,1-50.35,24.54c-9,2.32-18.17,3.75-27.46,1.72a32.15,32.15,0,0,1-5.44-2.12c1.59-7.66,3.45-14.76,4.48-22,1-7.39-.93-9.15-8.26-8.45-4.48.39-8.92,1.29-13.4,1.56-14.36.86-26.43-4.58-36.68-14.27-12.77-12.1-19.47-27.49-23-44.44a12.61,12.61,0,0,1,.27-3.39c8,3.09,15.52,6.27,23.25,9,20.4,7,41.32,11.74,63.05,10.08a95.39,95.39,0,0,0,25.54-5.2c18.84-7,29.82-20.5,29.85-41.23,36.15-21.63,55.36-55.56,69.32-93.24,6.6-17.68,9.72-36.19,11.61-55C283.88,339.05,301,310,329.65,287.9a165.56,165.56,0,0,1,81.16-33.7c2.82-.33,2.42,0,6.47,0,.07,25.61,0,50.88,0,77.25-8.86,0-13.67,0-21.82,0q-4.38,0-8.76.1c-2.95,0-5.51,1.09-5.61,4.31-.1,3.62,2.82,4,5.64,4,7.17-.06,14.33-.16,21.49-.2,1,0,2,.23,3.72.43-1.09,2.29-1.69,4.32-2.89,5.87-6.63,8.6-13.4,17.09-20.13,25.58A28.71,28.71,0,0,1,370.78,382,206.32,206.32,0,0,1,344,385c-11.34.39-22.28,1.95-31.77,8.36-4.28,2.88-7.83,7-11.08,11.07-1.72,2.19-2.59,5.87,1,7.5,3.12,1.43,5.47-.27,6.9-3.42,4.11-9,12.57-11.14,21.52-13.89,0,3.35,0,5.7,0,8.06a29.21,29.21,0,0,0,31.85,29c16.31-1.29,28.06-17.24,25.07-34.19-.56-3.09-1.56-6.1-2.12-8.19,11-12.58,18.31-24.62,29.62-37.55a25.44,25.44,0,0,1,2.22,8.59c1.69,25,.73,49.12-9.88,72a42.43,42.43,0,0,1-15.76,18.35c-12.54,8.16-21.23,19.8-26.24,34a26.42,26.42,0,0,0-1.39,6.17c-.73,7.67,2.16,11.41,9.89,12.44a34.42,34.42,0,0,0,8.72-.1,62.73,62.73,0,0,0,7.79-1.89c6.94,8.53,14.86,15.36,25.84,17.48a37.76,37.76,0,0,1-3.28,19.7c-4.68-1.22-8.92-2.82-13.3-3.41-8.39-1.13-16.45,1-23.68,5.1a127.7,127.7,0,0,0-17.48,12.31c-4.22,3.45-4,4.88-.87,9.45,3.72,5.48,9.12,8.79,15,11.38A79.25,79.25,0,0,0,407.4,580c4-.1,9.15-1,13.56-1.16,4.38.19,9.55,1.06,13.53,1.16a79.25,79.25,0,0,0,34.76-6.77c5.88-2.59,11.28-5.9,15-11.38,3.11-4.57,3.35-6-.87-9.45a127.7,127.7,0,0,0-17.48-12.31c-7.23-4.11-15.29-6.23-23.68-5.1-4.38.59-8.62,2.19-13.3,3.41a37.76,37.76,0,0,1-3.28-19.7c11-2.12,18.9-9,25.84-17.48a62.73,62.73,0,0,0,7.79,1.89,34.42,34.42,0,0,0,8.72.1c7.73-1,10.62-4.77,9.89-12.44a26.42,26.42,0,0,0-1.39-6.17c-5-14.19-13.7-25.83-26.24-34a42.43,42.43,0,0,1-15.76-18.35c-10.61-22.85-11.57-46.93-9.88-72a25.44,25.44,0,0,1,2.22-8.59c11.31,12.93,18.61,25,29.62,37.55-.56,2.09-1.56,5.1-2.12,8.19-3,17,8.76,32.9,25.07,34.19a29.21,29.21,0,0,0,31.85-29c0-2.36,0-4.71,0-8.06,9,2.75,17.41,4.87,21.52,13.89,1.43,3.15,3.78,4.85,6.9,3.42,3.62-1.63,2.75-5.31,1-7.5-3.25-4-6.8-8.19-11.08-11.07-9.49-6.41-20.43-8-31.77-8.36a206.32,206.32,0,0,1-26.74-3A28.71,28.71,0,0,1,453,371.49c-6.73-8.49-13.5-17-20.13-25.58-1.2-1.55-1.8-3.58-2.89-5.87,1.76-.2,2.75-.43,3.71-.43,7.17,0,14.33.14,21.5.2,2.82,0,5.74-.36,5.64-4-.1-3.22-2.66-4.28-5.61-4.31s-5.84-.1-8.76-.1c-8.15,0-13,0-21.82,0,0-26.37-.07-51.64,0-77.25,4.05,0,3.65-.3,6.47,0a165.56,165.56,0,0,1,81.16,33.7C540.9,310,558,339.05,561.63,375.27c1.89,18.8,5,37.31,11.61,55,14,37.68,33.17,71.61,69.32,93.24,0,20.73,11,34.19,29.85,41.23a95.39,95.39,0,0,0,25.54,5.2c21.72,1.66,42.65-3,63-10.08,7.73-2.69,15.26-5.87,23.25-9A12.61,12.61,0,0,1,784.52,554.28Z"/>
      <path class="cls-1" d="M341,393.76a31.72,31.72,0,0,1,3.48-.2,29.54,29.54,0,0,1,3.39.57,50.79,50.79,0,0,0-.65,5.52c-.07,9,8.09,13.69,15.88,9.2a15.19,15.19,0,0,0,7.24-10c.32-1.26,0-2.73.48-3.89s1.74-2.7,2.38-2.58a5.14,5.14,0,0,1,3.39,2.39c5.59,12.46-5.26,27.18-19.25,26.29C343.8,420.25,336,407.68,341,393.76Z"/>
      <path class="cls-1" d="M500.92,393.76a31.46,31.46,0,0,0-3.48-.2,29.41,29.41,0,0,0-3.38.57,50.66,50.66,0,0,1,.64,5.52c.07,9-8.09,13.69-15.88,9.2a15.19,15.19,0,0,1-7.24-10c-.31-1.26,0-2.73-.48-3.89s-1.74-2.7-2.38-2.58a5.16,5.16,0,0,0-3.39,2.39c-5.59,12.46,5.26,27.18,19.25,26.29C498.16,420.25,506,407.68,500.92,393.76Z"/>
    </g>
  </g>
</svg>
