<svg id="Livello_1" data-name="Livello 1" xmlns="http://www.w3.org/2000/svg" viewBox="0 0 841.89 841.89">
  <defs>
    <style>
      .cls-1 {
        fill: #231f20;
      }
    </style>
  </defs>
  <title>Glos</title>
  <path class="cls-1" d="M552.62,451.28h0a2,2,0,0,0-1.53-1.84c-35-10.32-66.47-22.33-91.24-45.18-29.72-27.42-25.41-43,17.58-33.63,31.66,6.92,122.12,54,143,78.15,8.13,9.41,14.36,22.67,18.64,35.13a4.63,4.63,0,0,1-5.34,6c-10.32-2.23-21.41-1-31.58,1.26-2.21.5-28.21,9-24.86,13.45a.68.68,0,0,0,.71.21l13.53-3.37a.23.23,0,0,1,.27.25c-3.43,28.54,34,23.48,26.55-.05a3.38,3.38,0,0,1,3.36-4.39c8,.34,22.66,3.54,24.95,6.37,3.05,3.78,10.34,25.41,14.44,32.82,3.87,7,5.55,10.81,10,17.19a3.26,3.26,0,0,1-3.67,5c-7-2.24-11.94-5-19.62-6-.65-.09-1.52-.22-2.51-.32-4.44-.47-5.28,6.18-.87,6.85,25.15,3.85,67.78,21.81,76.52,40.47,2.89,6.15,3,18.92-2.84,22.62-5.54,3.51-16.43-.86-20.81-1.9-13.74-3.28-33.14-9.07-46-15-13.8-6.37-24.62-14.53-25.5-7.66-.55,4.2,4.89,5.78,7.71,7.41,20.25,11.66,42.58,15.9,64.95,21.94,3.22.86,4.94,8.21-.28,9.75H683.07c-43.42-.42-92.52-11.29-126.51-37.83-4-3.11-13.67-12.18-14.61-4-.61,5.36,31,23.06,43.44,28.51,6.83,3,8.11,5.13,6.4,9.19-6,14.2-23.53,5.79-38.75,1.11-9.78-3-25.83-13.22-33.36-13.88-10.41-.91-25.25,2.58-35.66,2.79-33.79.69-92.52-2.4-124.7-11-3.77-1-15.25-4.63-11.58-10.29,2.23-3.42,20-10.53,23-11.77,30.91-12.66,80.44-20.25,112.47-9,4.3,1.51,20.49,8.84,17.68,1.86-4.21-10.45-38.57-16.56-49-16.94-42.28-1.52-61.73,16.16-105.89-6.49-68.07-34.91-30.6-95.47-54.65-150.44-21.27-48.64-73.39-55.79-120-41.57-11.18,3.42-36.55,18-45.76,16.58-18.64-2.88,7.72-37,13.32-43.66,13.34-15.84,27.19-28.06,46.12-36.8a.18.18,0,0,1,.16,0c2.25-1.13,6.23.48,7.45,1.86,13.15,14.82,32.8,26.5,51.71,24.49,5.58-1.15,1.86-3.86-3-4.7-43.74-7.6-71.28-47.61-66.65-91.68,2-19.38,16.21-42.43,37.12-26.86,7.66,5.7,17.42,32.92,25.41,44.14,24.91,35,44.41,38.85,78,59.33,53.68,32.73,47.38,76.79,67.06,127.34,9.38,24.07,32.52,15.58,52.25,11.3,16.53-3.58,21.57-10.33,38.77-12.15,23.74-2.52,51,14.72,75.38,18.27a3.39,3.39,0,0,0,3.89-3.33"/>
</svg>
