<svg id="Livello_1" data-name="Livello 1" xmlns="http://www.w3.org/2000/svg" viewBox="0 0 841.89 841.89">
  <defs>
    <style>
      .cls-1 {
        fill: #231f20;
      }
    </style>
  </defs>
  <title>Glos</title>
  <g>
    <path class="cls-1" d="M426,619.67c19.82,7,32.12-3.34,41.56-14.46,12.51-14.75,17-32.66,20.39-51,1-5.44,1.45-11,2.05-16.49.79-7.12-4-13.51-10.89-14.08-7.95-.65-17.13,2.81-20,11.54a4.43,4.43,0,0,1-1.66,2.39c-9.62,5.24-19.63,9.54-30.48,11.55a7.76,7.76,0,0,1-1.64-.15c0-7.11-.06-14.23.1-21.35,0-.7,1.3-1.68,2.19-2,6.32-2.24,12.52-4.55,17.11-9.87,1.12-1.29,3.08-1.84,5.58-3.26-.35,2.43-.82,3.77-.65,5a31.77,31.77,0,0,0,1.46,5c1.75-.59,4.35-.66,5.11-1.87,3.54-5.66,7.08-11.7,3.81-18.63-3.35-7.09-9-11-17.22-10.42a7.58,7.58,0,0,1-1.21-.08c-.69-6.68-1-13.23-2.14-19.62s-3.13-12.64-4.58-18.3c1.23-1.73,3.43-3.52,3.16-4.75-.36-1.6-2.48-3.42-4.22-4a38.94,38.94,0,0,0-25.23.25,6.51,6.51,0,0,0-3.63,4c-.23,1.08,1.83,2.65,3.47,4.79a94.44,94.44,0,0,0-6.18,37.76c-7.12-.9-12.73,1.27-17,6.63-4.78,6.05-3.6,18.56,2.41,23.39a5.18,5.18,0,0,0,4.44.54c.9-.38,1.42-2.39,1.53-3.72.13-1.55-.36-3.15-.76-5.94,2.46,1.42,4.35,2,5.45,3.23,4.62,5.26,10.81,7.58,17.11,9.84a3.54,3.54,0,0,1,2.09,2.4c.17,6.9.1,13.81.1,21.3-2.35-.42-4.48-.47-6.36-1.19-8.07-3.08-16.11-6.26-24.05-9.66a7.16,7.16,0,0,1-3.24-3.66c-3.51-8.47-13.77-13.35-22.55-10.52a11.73,11.73,0,0,0-7.44,10.9c1.42,26.31,6.74,51.46,23.88,72.54,7.75,9.53,17.66,15.41,30.59,14,2.95-.32,5.83-1.31,9-2,0,3.93.2,7.82-.14,11.66-.08.9-1.89,2.17-3.05,2.38-21.71,3.84-39.84-2.71-54.14-19.39-11.74-13.7-17.56-30.09-20.52-47.6a149.53,149.53,0,0,1-.94-42.2c.14-1.24.45-2.79-.12-3.69-.69-1.09-2.42-2.43-3.37-2.21a4.9,4.9,0,0,0-3.08,3.1,74.16,74.16,0,0,0-1.16,9.53,10,10,0,0,1-6.44-8.3,5.69,5.69,0,0,1,1.23-3.93c6.91-8.18,13.94-16.27,21-24.32,1.62-1.85,2.49-3.77.43-5.56s-3.94-.81-5.62.95c-7,7.31-14,14.59-20.91,21.9-1,1.09-1.91,2.33-3.4,4.16-2.49-3.34-4.6-5.92-6.34-8.74-.39-.63.3-2.27.92-3.13,4.8-6.53,9-13.32,11.31-21.2a7.83,7.83,0,0,0-1.24-7.39c-3.29-4.6-6.47-9.29-9.85-14.15l6.6-8.67c8,9.23,18.45,11.71,29.67,12.3,15.69.82,30.34-2.24,43.13-11.91a29,29,0,0,0,11.15-16.14c.83-3.15-.18-5.1-2.7-6.67a2.57,2.57,0,0,0-.67-.32c-7.05-1.7-11.08-7.09-15.57-12.17-8.81-10-19.06-18-32.27-21.43-13.77-3.57-26.89,1.36-34.81,12.92-1.4,2-2.49,4.26-.23,6,2.49,1.92,4.24.21,5.84-2,7.34-10.1,16.91-13.35,28.89-9.81s21,11.43,29.31,21c-21.46-2-40.49,3-57.47,15.44a68.16,68.16,0,0,0-19.15,22.12c-2.1,3.77-5,7.11-7.46,10.62-1.27-7.67-3.11-14.86-3.52-22.13a74.68,74.68,0,0,1,4.72-30c9.68-26.5,28-42.95,56.34-46.88,12.36-1.71,24.4,1.29,35.62,6.25,9.6,4.24,18.74,9.63,27.81,15,3.08,1.82,5.09,2,8-.08,12-8.67,25-15.4,39.43-19.14,36.87-9.59,69.64,10.7,81.49,44.25a87.86,87.86,0,0,1,4.92,30.41,18,18,0,0,1-.22,2.64c-1,6.4-2.1,12.79-3.23,19.68-2.42-3.3-5.26-6.47-7.3-10.08C527.65,440.23,508,428.4,482.93,425c-6.42-.87-13.05-.13-20.48-.13a51.19,51.19,0,0,1,4.1-4.6c8.89-7.61,17.71-15.33,29.85-17.49,9.92-1.76,17.81,1.53,24.1,9.15a23.5,23.5,0,0,1,1.57,2.14c1.26,2,3,2.92,5.09,1.58,2.34-1.48,1.85-3.47.55-5.56-7.88-12.62-23-17.88-38.12-12.68-13.94,4.78-25.23,13.5-34.18,25.13a18.28,18.28,0,0,1-8.55,6.22c-7.41,2.76-8.33,5.14-5.05,12.33,5,10.91,14.37,16.66,25.11,20.31a71.51,71.51,0,0,0,39.46,2.25c8.18-1.86,12.67-4.37,18.56-10.39a15.79,15.79,0,0,1,1.37,1.21c5.76,6.25,5.75,6.25,1,13.12a30.91,30.91,0,0,1-3,4.36c-5.13,5.23-4.9,10.95-1.6,16.86,2.81,5,5.68,10.08,8.94,14.83,1.39,2,1.63,3.4.11,5.19-1.78,2.09-3.51,4.2-5.4,6.48-8.21-8.53-16-16.75-24-24.84a7.85,7.85,0,0,0-4.15-2c-.74-.12-2.4,1.17-2.41,1.84a7,7,0,0,0,1.27,4.36c6.33,7.35,12.9,14.49,19.28,21.8,4.7,5.38,3.5,10.63-3.58,14.7-.27-2.91-.46-5.62-.8-8.31-.3-2.34-.92-4.76-4-4.4s-3.13,2.6-2.88,5.14c2.33,23.36.93,46.3-8.08,68.31-5.3,12.95-12.76,24.47-24.42,32.5-13.08,9-27.65,12.36-43.46,9.41-2.47-.46-3.71-1.48-3.52-4.24.21-3,0-6-.06-9.07C425.61,620.33,425.8,620.1,426,619.67Zm-4.46-195.51c2.71,4,4.88,7.76,7.59,11a5.25,5.25,0,0,0,4.73,1.28c2.19-.9,2.16-3.1.83-5.1-3.22-4.8-6.34-9.68-9.66-14.41-2.06-2.93-5.05-2.85-7.09.1-3.15,4.56-6.15,9.21-9.23,13.8-1.34,2-1.92,4.07.35,5.62s3.95.39,5.31-1.7C416.6,431.33,419,427.94,421.52,424.16Z"/>
    <path class="cls-1" d="M286.24,438.6C275,423.06,260,414.47,242.49,409a141.36,141.36,0,0,1,18.79-28.52c16.71-19.72,36.94-34.07,62.26-40.61a100.63,100.63,0,0,1,57,1.94c18.05,5.81,36.4,7,55.2,5.42,10.25-.88,20-3.56,29.78-6.25,37.09-10.17,70.28-1.91,99.67,22.27,15.27,12.56,27.83,28.85,35.2,44-7.78,3.83-16,6.95-23.2,11.69s-13.45,11.19-20,16.79c-.72-3.29-1.39-7.56-2.61-11.68-8.83-29.77-27.3-50-58.45-56.24C471.8,363.06,449.43,369.4,429,383c-2.51,1.67-4.92,3.47-6.63,4.69-9.32-5.07-17.89-10.84-27.26-14.59-25.53-10.21-50.8-9.87-74.36,5.74-19.14,12.69-29.26,31.39-33.46,53.6C286.94,434.28,286.67,436.11,286.24,438.6Z"/>
    <path class="cls-1" d="M454.25,337.9c5.16-10.73,8.93-21.18,16.19-29.87,5.24-6.28,9.81-13.16,15.33-19.16,11.3-12.27,24.73-21.4,41.19-25.47a57.86,57.86,0,0,1,24.56-.49c-3.65,1.82-6.4,3.15-9.1,4.55-9.45,4.92-18.33,10.62-25.32,18.84-.81,1-1.49,2-2.27,3-1.59,2-1,3.86.84,5.2s3.4.49,4.82-1.2c14.36-17.11,33.23-26.22,54.86-29.53,38.27-5.87,74.21,2.8,108.48,19.32A246.72,246.72,0,0,1,718.43,303c38.58,27.12,69.33,61.19,89.71,104.12,1.5,3.17,1,4.67-2.27,5.85a21.86,21.86,0,0,1-16.89-.54,11.35,11.35,0,0,1-5.35-6.25c-8.35-26.11-23.32-47.73-43.53-66-35-31.66-76.19-50.28-122.22-58.74-20.55-3.78-41.29-4.58-62.09-1.15-8.07,1.34-14.95,4.84-21.49,9.46-17.92,12.65-35.93,25.15-53.8,37.86C472.8,333,464,335.36,454.25,337.9Z"/>
    <path class="cls-1" d="M32.94,412.69c13.65-31.24,33.36-57.95,57.76-81.22,27.3-26,58.69-45.63,94.44-58C207,266,229.4,261.77,252.52,263.06c19.2,1.07,38.09,4.24,54.24,15.78,6,4.28,11.06,9.78,16.73,14.52,1.08.9,3.27,1.58,4.4,1.09a3,3,0,0,0,1-5.05c-4.32-4.55-8.44-9.47-13.46-13.12-6.78-4.92-14.33-8.79-21.52-13.09,9.92-2.24,19.95-.88,29.67,2.39,16.9,5.71,29.83,17,41,30.53,9.85,12,17.15,25.44,23.17,39.64a7.21,7.21,0,0,1,.23,1.86,69.83,69.83,0,0,1-28.05-12.33c-16.44-11.69-33.15-23-49.36-35A57.46,57.46,0,0,0,278.35,279c-73-3.55-135.07,21.22-186.75,72.46C75.62,367.26,65.84,387,58.67,408c-1.87,5.49-5.39,7.42-10.51,7.89C42.75,416.38,37.36,416.73,32.94,412.69Z"/>
    <path class="cls-1" d="M353.54,618.66c4.37,4.46,9,9,13.39,13.83.9,1,1,3,.93,4.55-.37,10.47-4.21,20.05-7.92,29.64-7.62,19.66-19,36.7-36.22,49.17a81.93,81.93,0,0,1-43.41,15.52,41.44,41.44,0,0,1-13.4-1.61c-13.17-3.63-18.33-15.41-12.64-27.89s15.3-21.13,26.87-27.75A95.81,95.81,0,0,1,306,664.68c21.16-5.26,37.8-16.67,45.76-38.06A57.68,57.68,0,0,0,353.54,618.66Z"/>
    <path class="cls-1" d="M490.74,617.87c2.58,18,13.51,29.83,28.45,38.66,7.85,4.65,16.64,6.51,25.39,8.86,15.31,4.1,28.8,12,39,24.48,5.21,6.36,9.41,13.32,9,22.16a16.27,16.27,0,0,1-8.49,14.2,34.39,34.39,0,0,1-21.46,4.26c-33.37-3.52-56-22.2-71.47-50.9C484.73,667.51,479.33,655,477,641.36c-.81-4.76-.85-8.72,3.66-12.24C484.54,626.1,487.37,621.73,490.74,617.87Z"/>
    <path class="cls-1" d="M538.4,295.53c3.27-5,7.83-6.8,13.09-7.64,58.47-9.3,110.91,6.61,159.22,38.63,19.26,12.77,36.86,27.66,49.84,47.24,6.16,9.29,11.19,19.09,14,29.93.18.69.22,1.41.41,2.67-2.42-1.24-4.36-2.31-6.37-3.25-6.87-3.22-14.1-3-21.42-2.27a4.42,4.42,0,0,1-3.47-1.35c-7.25-10.42-13.93-21.26-21.54-31.41-27.49-36.67-64.42-59.06-108.47-70.27-18.55-4.71-37.48-6.1-56.55-5.25-5.35.24-10.66,1.53-16,2.36C540.23,295.06,539.32,295.32,538.4,295.53Z"/>
    <path class="cls-1" d="M305.34,294.54c-10.8-.45-21.44-1.41-32.06-1.24q-67,1.05-119.94,42.42c-20.43,16-36.59,35.66-50.13,57.54-3.9,6.3-7.29,11.29-16,9.16-3-.75-6.71.49-9.92,1.42s-6.21,2.64-9.66,4.16c.16-1,.22-1.95.43-2.82,4.06-16.26,12.38-30,23.8-42.24,34.23-36.64,76.69-59.12,124.43-72.2a165.77,165.77,0,0,1,79.66-2A16.61,16.61,0,0,1,305.34,294.54Z"/>
    <path class="cls-1" d="M175.41,473.36c.6-9.35,5.74-16.29,13.68-21.36,12.32-7.86,26-9.9,40.38-9.83,15.57.08,29.44,4.55,41.31,14.73,6.72,5.78,11.78,12.66,14,21.46.62,2.51.2,4.07-2.22,5.11a36.73,36.73,0,0,0-3.63,2c-4.51,2.56-8.27,4.25-13-.86C260.62,479,253,479.26,246,481.46c-9.18,2.9-18.21,6.33-27.23,9.74-9.24,3.49-18.55,5.43-28.31,2.55A21.23,21.23,0,0,1,175.41,473.36Z"/>
    <path class="cls-1" d="M420.25,586.28c15.42-.33,28.48-3.19,38.59-13.78,9.09-9.53,12-20.57,7.69-33.32-.47-1.4.15-4.27,1.17-4.84,3.06-1.73,6.5-3.35,9.93-3.72,3.89-.42,5.81,2.24,5.48,6.4-1.3,16.39-4,32.56-11.09,47.52-4.09,8.58-9.19,16.7-16.44,23.18-9.47,8.45-19.51,9.66-30.52,3.39-2.3-1.31-4.35-1.75-6.68-.24-11.73,7.65-23.5,4.38-32.53-4.6C376.5,597,371.21,585.32,367.28,573A143.46,143.46,0,0,1,360.77,537c-.28-5.07,2.62-7.57,7.58-6.3a20,20,0,0,1,7.42,4c1,.79,1.39,3.28.93,4.6-3.89,11-2,21.15,5,30.18,7.51,9.62,17.81,14.47,29.81,15.88C414.9,585.83,418.28,586.09,420.25,586.28Z"/>
    <path class="cls-1" d="M643,493.82c-11.49.14-21.57-4.41-31.42-9.58-7-3.71-14.38-6.06-22.43-5.55-6.28.41-11.92,2.21-15.24,8.15-1,1.74-2.07,1.87-3.7,1-3.23-1.68-6.51-3.27-9.78-4.89-1.87-.93-2.27-2.17-1.68-4.3,3.35-12.14,11.22-20.75,21.61-27.11,22.25-13.6,45.52-14,68.91-3.55,5.39,2.4,10.31,6.87,14.18,11.46,5.86,7,6,15.24,1.63,23.26-4,7.47-11,10.25-19,11.08C645,493.91,644,493.82,643,493.82Z"/>
    <path class="cls-1" d="M169.59,403.64A188.15,188.15,0,0,1,228.3,343.2c19.5-12.74,40.58-21.66,63.63-25.45a158.25,158.25,0,0,1,42.21-1c1.23.13,2.39,1,3.92,1.62-7.8,1.26-15.26,1.63-22.21,3.72-36.7,11-69,29.11-92.43,60.42-3.51,4.69-6.07,10.09-9.3,15-.71,1.09-2.49,2.39-3.53,2.21a76.23,76.23,0,0,0-39.31,3.53C171,403.38,170.61,403.42,169.59,403.64Z"/>
    <path class="cls-1" d="M506.09,318a26.91,26.91,0,0,1,4.73-1.33c41.45-4.21,78.45,7.52,111.94,31.51a184.71,184.71,0,0,1,47.92,49.93c.74,1.15,1.44,2.32,2.65,4.27-14.5-5.38-28.61-5.88-43-3.43-11.72-23.84-30-41.59-52.44-55.05-22-13.21-45.11-23.91-71.47-25Z"/>
    <path class="cls-1" d="M325.49,309.71c-26.64-2.38-51.19,2.65-74.52,13.17-43.48,19.62-76,50.87-96.83,93.88-1.57,3.24-4.13,3.22-6.79,3.58a13.35,13.35,0,0,1-3.4,0c-3.86-.44-7.71-1-11.79-1.47,4.56-14.56,12.24-27,21-39,14.17-19.32,33.49-32.42,53.06-45.48,24.29-16.21,50.53-27.5,79.27-32.48,8.57-1.48,17.52-.78,26.29-1a3.21,3.21,0,0,1,1.79.5C317.36,304,321.11,306.63,325.49,309.71Z"/>
    <path class="cls-1" d="M520.08,308.21c3.76-2.44,7.24-5.92,11.36-7,4.83-1.32,10.28-1.1,15.38-.67,35.93,3.07,67.13,18.32,97,37.39,23.49,15,43,33.63,57.22,57.65,3.94,6.67,7,13.89,10.76,21.59-5.12.66-9.25,1.28-13.41,1.7-5.09.53-8.19-1.12-10.75-6.34-13-26.56-31.84-48.5-55.29-66.53-21.93-16.86-46.18-28.71-73.38-34.2-11.74-2.37-23.59-3.71-35.6-2.74-1,.08-2,0-3,0Z"/>
    <path class="cls-1" d="M514.68,260.06c-18.27,7.85-31.24,20.57-43.48,34.59-10.77,12.33-18.15,26.27-24,41.3a5.31,5.31,0,0,1-3.19,2.83c-3.76.94-7.63,1.4-12.47,2.22-.12-4.85-.62-9.32-.27-13.72a114,114,0,0,1,17.53-52.75c7-11.07,16.86-16.16,29.62-16.07,11.21.09,22.41.49,33.61.78A13.39,13.39,0,0,1,514.68,260.06Z"/>
    <path class="cls-1" d="M411.08,340.75c-4.43-.53-8.59-.74-12.58-1.67-1.42-.32-2.92-2.22-3.52-3.75C387,315.2,376,297,360.72,281.61a98.92,98.92,0,0,0-28.54-20.19c-.65-.3-1.28-.63-1.92-.95,0-.46.07-.92.1-1.38,10.49-.14,21-.49,31.47-.3a64.59,64.59,0,0,1,14.9,2c3.48.91,7.29,2.53,9.74,5A57.72,57.72,0,0,1,397,279.92c6.44,12.9,12,26.29,13.91,40.69C411.8,327,411.08,333.6,411.08,340.75Z"/>
    <path class="cls-1" d="M673.62,460.82c-2.17-3-3.82-5.6-5.84-7.93-9.94-11.44-23-17-37.68-18.68-22.17-2.56-42.68,2.25-60.22,16.5-5.46,4.44-9.77,10.27-14.51,15.36,0-5.09,1.75-10.26,4.14-15.2a58,58,0,0,1,21.26-23.58c20-13,41.75-17.77,65.24-12.26,14.5,3.4,24.55,12.68,31.88,25.25a3.22,3.22,0,0,1,.61,2.05C677,448.36,675.34,454.36,673.62,460.82Z"/>
    <path class="cls-1" d="M169.83,462.12c-1.82-6.74-3.45-12.48-4.85-18.28-.21-.88.5-2.11,1-3,9.32-15.72,23-25.31,41.17-27.19,28.3-2.94,52.41,6,71.11,27.82a41.24,41.24,0,0,1,10.11,25.33c-.52-.3-.92-.4-1.07-.65-11.35-18.53-28.75-27.54-49.42-31.35a75,75,0,0,0-33,1.07C190.14,439.73,177.81,447.18,169.83,462.12Z"/>
    <path class="cls-1" d="M735.67,410.26c-6.13,1.89-12.11,1-18,.05a4.34,4.34,0,0,1-2.51-2.42C700.9,375.43,677,351.37,648.64,331.2a219.36,219.36,0,0,0-43.2-23.84c-1.13-.47-2.22-1-3.81-1.8C653.61,308.25,724.6,363.74,735.67,410.26Z"/>
    <path class="cls-1" d="M242.15,305.46c-6.65,3.12-13,5.84-19.09,9-33.92,17.61-62.85,41-83.74,73.44a156.8,156.8,0,0,0-10.19,19.33c-1.39,3-2.62,5.23-6.31,5.15-5-.11-10,0-15.55,0,.86-2.76,1.49-5.25,2.41-7.63,7.1-18.48,19.14-33.55,32.81-47.49,27.08-27.63,59.6-45,97.74-51.77A12.89,12.89,0,0,1,242.15,305.46Z"/>
    <path class="cls-1" d="M405.32,683.81a110.14,110.14,0,0,1,8.19-40.63c.46-1.15,1.93-2.61,3-2.67a86,86,0,0,1,11.9.32c.72.06,1.57,1.44,1.93,2.37,5.66,14.52,9.09,29.52,8.24,45.15a66.8,66.8,0,0,1-3.6,16.78c-1.93,5.9-6.42,10-12.79,10.11-6.6.11-11.23-4.08-13.11-10.13-2.14-6.85-3.23-14-4.78-21.05Z"/>
    <path class="cls-1" d="M308.44,468.52c2.54,3.93,5.13,7.49,7.14,11.35.66,1.26.21,3.46-.39,5-5.07,12.78-14.33,22.07-25.52,29.51-12.13,8.08-25.32,13.1-40.22,12.84-4.17-.07-6.52-1.81-7.71-5.62-2.2-7.11-1.35-14.16.54-21.13a3.7,3.7,0,0,1,3-2C272.05,501.07,292.15,489.55,308.44,468.52Z"/>
    <path class="cls-1" d="M535.4,468.39c7.64,10.46,16.67,18.44,27.85,24,10.14,5.06,20.87,6.19,31.92,5.38,6.09-.44,6.06-.56,7.22,5.52,1.27,6.59,1.1,13.05-1.65,19.2a6.26,6.26,0,0,1-3.9,3.18c-10.69,1.82-20.68-1.1-30.31-5.33-15-6.59-27.18-16.57-35.8-30.67-3.12-5.12-4.34-10,.45-14.9C532.81,473.1,533.82,470.82,535.4,468.39Z"/>
    <path class="cls-1" d="M424.33,340.73h-5.78c1.37-29.17-6.73-55.42-25.13-78.6a115,115,0,0,1,56.1.1C431.16,285.23,423.35,311.36,424.33,340.73Z"/>
    <path class="cls-1" d="M453.06,506.81c-6.18-1.48-10.8,1.07-14.49,5.11-8.47,9.29-25,9.68-34.16.05-4.86-5.1-6.92-5.54-14.71-5.46.4-3.83,2.08-6.84,5.83-7.9a8.16,8.16,0,0,1,9.36,3.21c.67.9,1.38,2.08,2.33,2.41,1.37.48,3.29.86,4.39.23a4.12,4.12,0,0,0,1.18-3.85c-3.12-7.54-2.06-15.39-1.87-23.11.21-8.58,1.58-17,5.62-24.81,1.21-2.34,2.68-2.8,5-2.87a4.67,4.67,0,0,1,4.95,3c3.9,7.6,5,15.8,5.31,24.12.24,5.41.2,10.85,0,16.26-.09,2.32-1.14,4.59-1.39,6.92-.16,1.43-.09,3.76.71,4.21,1.21.68,3.26.41,4.74-.11,1-.35,1.67-1.78,2.48-2.74a8.61,8.61,0,0,1,9.21-2.87C450.65,499.34,452.71,502.49,453.06,506.81Z"/>
    <path class="cls-1" d="M235.24,407.21l-14.85-1.69c1.38-2.64,2.56-5.2,4-7.61,12.62-21,30.39-36.81,50.69-50,15.39-10,31.85-17.67,50-21a155.15,155.15,0,0,1,17.24-1.78,11.94,11.94,0,0,1,10.36,4.34C297,330.41,260.89,360.77,235.24,407.21Z"/>
    <path class="cls-1" d="M623,404.16c-4.46.66-8.08,1.1-11.66,1.75-2.55.47-4-.18-5.34-2.66-13.89-25.79-32.92-46.63-59.1-60.44a111.92,111.92,0,0,0-52.25-13c-.88,0-1.77,0-2.65-.06a3.48,3.48,0,0,1-.84-.42c2.78-3.26,6.33-4.3,10.34-4.25a107.88,107.88,0,0,1,42.69,9.78c28.52,12.72,52.68,31,71,56.53C618,395.34,620.3,399.7,623,404.16Z"/>
    <path class="cls-1" d="M470.5,455.53c-9.25-3-17.88-6.94-23.22-15.86-1.21-2-.87-3.33,1.65-4.21,22.4-7.78,43.57-5.65,63.31,7.75,2.41,1.64,4.24,4.14,6.78,6.68-11.33,9.4-23.91,9.11-36,8.32,2.59-1.67,6-3.12,8.45-5.59,5.43-5.54,3.06-13.25-4.48-14.93a70.39,70.39,0,0,0-12.32-1.35c-4.43-.2-7.29,2.09-8.62,6.32a9.68,9.68,0,0,0,3.36,11.1c.48.33,1,.57,1.54.86Z"/>
    <path class="cls-1" d="M358.77,458.28c-9,1-18.6.36-27.62-3.85-6.54-3.05-6.67-5.21-1.32-9.88,8.66-7.56,19.11-10.87,30.15-12.66a63.24,63.24,0,0,1,33.4,3.33c3.4,1.31,3.77,2.35,1.76,5.51-4.17,6.6-10.68,10.11-17.59,13-1.35.58-2.76,1-5,1.89,1.47-2,2.44-3.13,3.27-4.39,2.38-3.66,1.95-7.28,0-11-1.81-3.52-4.77-4.2-8.24-3.82A113.23,113.23,0,0,0,355.63,438a8.43,8.43,0,0,0-4.86,13.41C352.92,454.27,356.25,456.19,358.77,458.28Z"/>
    <path class="cls-1" d="M511.13,568.67c6.94,9.07,14.09,17.8,20.53,27,3.5,5,5.46,10.95,4.23,17.43-.66,3.45-1.53,6.83-5.35,7.83-4.39,1.16-10.52-1.25-12.27-5.4-1.85-4.43-2.76-9.29-3.74-14-1.24-6-1.38-12.29-3.41-17.95A21.23,21.23,0,0,1,511.13,568.67Z"/>
    <path class="cls-1" d="M332.93,569.53c1.1,4.92,1.86,9.16.25,14.29-2.41,7.68-2.95,15.94-4.26,24-.94,5.81-2.68,11-9,13.23s-10.63-.31-11.5-7c-1-8.12,1.75-15.05,6.56-21.38q8.44-11.13,16.86-22.28A5.58,5.58,0,0,1,332.93,569.53Z"/>
    <path class="cls-1" d="M498.5,605.78c7.24,13.52,17.24,23.53,31.41,29.34A70.5,70.5,0,0,1,546,643.87c3,2.3,4.62,6.57,6.52,10.14.5.93.17,3.13-.58,3.67s-2.75.29-3.77-.33c-2.87-1.72-5.42-4-8.27-5.72a36.5,36.5,0,0,0-8.19-4.26C515.86,642.45,504,633,496.6,618,494.28,613.31,494.56,609.43,498.5,605.78Z"/>
    <path class="cls-1" d="M345.61,606.46c3.77,3.17,3.92,6.68,1.87,10.9-7.1,14.58-18.25,24.52-33.73,29.27a26.34,26.34,0,0,0-12.05,7.21,23.23,23.23,0,0,1-5.59,4.38c-3.09,1.7-4.57.68-4.27-2.79.47-5.29,3.62-9.1,7.71-12a50.44,50.44,0,0,1,11.16-6.14C326.39,631.54,338,621.34,345.61,606.46Z"/>
    <path class="cls-1" d="M514.9,538.53l5.25-3.53c5.44,7.1,11.15,14,12.8,23.15.07.37.39.76.31,1.07-.76,2.9-1.58,5.79-2.38,8.67-2.13-1.53-5-2.62-6.23-4.7a108,108,0,0,1-6.34-14.28C517,545.66,516.11,542.27,514.9,538.53Z"/>
    <path class="cls-1" d="M323.6,535l5.47,3.57c-1.6,5.34-2.74,10.74-4.85,15.73a55.25,55.25,0,0,1-7.39,12.41c-2.58,3.28-4.32,2.64-5.58-1.48-1.61-5.3.26-10.26,2.6-14.75C316.6,545.22,320.2,540.36,323.6,535Z"/>
  </g>
</svg>
