<svg id="Livello_1" data-name="Livello 1" xmlns="http://www.w3.org/2000/svg" viewBox="0 0 841.89 841.89">
  <title>Glos</title>
  <g>
    <path d="M384.37,711.14l-.05-.06"/>
    <path d="M514.91,418l0,0"/>
    <path d="M514.91,418l0,0"/>
    <path d="M514.91,418l0,0"/>
    <rect x="336.84" y="562.41" width="168.09" height="27.73"/>
    <path d="M462.46,544.41c-19.81-38.56,5.89-116.63,5.89-116.63s44-102.83-10.29-206.7S432,85.28,438.25,57.76c3.05-13.45-.07-20.32-4.05-23.83a4.78,4.78,0,0,0-7.95,3.73C426.63,52.22,414,62.54,414,62.54s-51.75,47-13.94,144.6c29.35,82.19,36.71,157.79,0,220.64C372.19,473,380.27,544.41,380.27,544.41Z"/>
    <path d="M462.34,690.62c-.15-.23-.32-.46-.49-.72h0C462.05,690.16,462.22,690.39,462.34,690.62Z"/>
    <path d="M462.34,690.62c-.15-.23-.32-.46-.49-.72h0C462.05,690.16,462.22,690.39,462.34,690.62Z"/>
    <g>
      <path d="M462.44,677c-.23-1.52-3.08-13.65-30.68-15.15-26.56-1.43-46.68-19.46-47.29-20,1.73-8.48,3.57-15.2,4.75-19.17.72-2.56.81-2.76.81-2.76s.68-.92,1.26-.37c3.85,3.59,20.38,17.91,41.45,19.2,23.75,1.47,27,12.74,27.37,14.92a1.91,1.91,0,0,1,.06.37A206.81,206.81,0,0,1,462.44,677Z"/>
      <path d="M462.18,700.19c-.12,1.29-.23,2.58-.38,3.88a6.42,6.42,0,0,0-.25-1c-.12-.29-.26-.66-.44-1.06-.11-.23-.23-.49-.37-.72a5.54,5.54,0,0,0-.4-.66c-.12-.23-.29-.46-.46-.72h0c-.2-.29-.43-.61-.66-.89s-.46-.49-.69-.75a11.36,11.36,0,0,0-.86-.83c-.32-.29-.67-.58-1-.87s-.75-.57-1.18-.86-.83-.55-1.29-.83-1-.58-1.5-.84c0,0-.05,0-.08,0-.49-.26-1-.49-1.58-.75s-1.21-.52-1.87-.78l-1-.34c-.37-.15-.78-.29-1.21-.43s-1.06-.32-1.61-.46a3.1,3.1,0,0,0-.52-.15c-1-.26-2.07-.52-3.22-.74-.46-.12-.91-.21-1.4-.29s-1.27-.2-1.93-.29a6.13,6.13,0,0,0-.89-.14c-.72-.12-1.5-.2-2.27-.29H435c-.78-.09-1.61-.17-2.44-.23l-2.62-.17c-27.6-1.44-48.44-19.47-49.07-20,.86-8.48,2.18-16.36,3.56-23.12.61.55,20.73,18.58,47.29,20,27.6,1.5,30.45,13.63,30.68,15.15a.53.53,0,0,1,0,.15A165,165,0,0,1,462.18,700.19Z"/>
      <path d="M461.8,708.07v0a104.44,104.44,0,0,1-4.94,23.15c-.09-.72-2-13.72-30.27-15.27-1-.06-2-.14-2.9-.23-.72-.06-1.41-.14-2.13-.26-.49-.06-.95-.11-1.44-.2-.72-.11-1.41-.23-2.1-.37l-2.53-.52a74.23,74.23,0,0,1-7.27-2.1c-.66-.23-1.32-.46-2-.72s-1.36-.52-2-.77-1.29-.52-1.92-.81A91.77,91.77,0,0,1,389.16,703a75.35,75.35,0,0,1-9.26-7,188.84,188.84,0,0,1,1-23.08c.63.54,21.47,18.57,49.07,20l2.62.17c.83.06,1.66.14,2.44.23h.06c.77.09,1.55.17,2.27.29a6.13,6.13,0,0,1,.89.14c.66.09,1.32.17,1.93.29s.94.17,1.4.29c1.15.22,2.22.48,3.22.74a3.1,3.1,0,0,1,.52.15c.55.14,1.09.31,1.61.46s.84.28,1.21.43l1,.34c.66.26,1.29.49,1.87.78s1.09.49,1.58.75c0,0,.05,0,.08,0,.52.26,1,.55,1.5.84s.89.54,1.29.83.81.58,1.18.86.69.58,1,.87a11.36,11.36,0,0,1,.86.83c.23.26.46.52.69.75s.46.6.66.89.34.49.49.72a5.54,5.54,0,0,1,.4.66c.14.23.26.49.37.72.18.4.32.77.44,1.06A6.42,6.42,0,0,1,461.8,708.07Z"/>
      <path d="M456.86,735.27v0a71.49,71.49,0,0,1-12.68,23c-.17-1.52-2.44-13.62-24.32-15.15-20.64-1.4-36.34-18.65-37.49-20v0a132.82,132.82,0,0,1-2-14.94q-.34-4.11-.43-8.2a75.35,75.35,0,0,0,9.26,7A91.77,91.77,0,0,0,402.3,714c.63.29,1.29.55,1.92.81s1.33.54,2,.77,1.32.49,2,.72a74.23,74.23,0,0,0,7.27,2.1l2.53.52c.69.14,1.38.26,2.1.37.49.09.95.14,1.44.2.72.12,1.41.2,2.13.26.94.09,1.92.17,2.9.23C454.82,721.55,456.77,734.55,456.86,735.27Z"/>
      <path d="M442.8,787.64a21.53,21.53,0,1,1-35.64-16.21h-.58c-13.57-11.1-20.81-26.65-24.21-43.27,1.15,1.3,16.85,18.55,37.49,20,21.88,1.53,24.15,13.63,24.32,15.15a60.71,60.71,0,0,1-8.25,8.17h-.57A21.28,21.28,0,0,1,442.8,787.64Z"/>
    </g>
    <path d="M463.83,694.22a.23.23,0,0,0,0-.09"/>
    <path d="M450.16,610.58a.21.21,0,0,0-.11.25c2.15,5.78,4,8.66,5.09,10.07,10,12.46,29.66,34.54,61.7,9.1,0,0,43.33,18.11,44.53-33,0,0,37.69-31.91,14.44-52.15,0,0,34.26-55.51-5.38-59.19,0,0,20.07-59.19-21.27-46,0,0,10.78-46.24-13.47-42.47a21.1,21.1,0,0,0-14.59,10Q510.85,424,497.76,441.62c-28.93,37.72-16.36,66.49-12.18,73.94a14.47,14.47,0,0,1,1.84,5.71,24.11,24.11,0,0,1-9.82,22.2H520v11c6.2-3.38,13.46-4.62,21.88-3.41,10.85,1.55,20,9.33,22.48,20a26.8,26.8,0,0,1-44.36,26l0,12.61Z"/>
    <path d="M461.91,633.51c6.19,14.63,7.28,60.52,7,63.4,11.76,1.37,15.13.88,21.82-2.61,0,0,30.5,28.39,52.91-6.71,0,0,39.56,12.38,38.82-35.36,0,0,52.14-6.46,36.77-57.81,0,0,52.67-39.25,14.12-70,0,0,88.94-88,42.85-139.13,0,0,46.36-112.56-15.37-136.55,0,0,7-117.44-74.85-130.88,0,0-84.46-84.38-90.72-53.17a14.82,14.82,0,0,0,2.28,11.1c7.73,15.38,139.63,129.86,30.88,319.3,36.66-14.55,26.73,38.73,26.73,38.73,38.14-9.62,21,47.74,21,47.74,39.08,10.13,5.54,62.45,5.54,62.45,23.95,21.35-14.87,55-14.87,55-1.24,54-48.33,35.09-48.33,35.09C483.89,662.33,461.91,633.51,461.91,633.51Z"/>
    <path d="M379.55,690.6c.14-.23.32-.46.49-.72h0C379.84,690.14,379.67,690.37,379.55,690.6Z"/>
    <path d="M379.55,690.6c.14-.23.32-.46.49-.72h0C379.84,690.14,379.67,690.37,379.55,690.6Z"/>
    <path d="M457.52,711.13l.05-.06"/>
    <path d="M460,688l0,0"/>
    <path d="M459,661.9l0,0"/>
    <path d="M378.06,694.2a.18.18,0,0,1,0-.08"/>
    <path d="M455.42,635.79l0,0"/>
    <path d="M391.73,610.56a.22.22,0,0,1,.11.26c-2.15,5.77-4,8.66-5.09,10.07-10,12.46-29.66,34.54-61.7,9.1,0,0-43.33,18.11-44.54-33,0,0-37.68-31.91-14.43-52.14,0,0-34.26-55.52,5.38-59.2,0,0-20.07-59.19,21.27-46,0,0-10.78-46.24,13.47-42.48a21.11,21.11,0,0,1,14.59,10Q331,424,344.13,441.6c28.93,37.73,16.36,66.5,12.18,73.95a14.43,14.43,0,0,0-1.84,5.7,24.09,24.09,0,0,0,9.82,22.2H321.85v11c-6.2-3.39-13.46-4.63-21.88-3.42-10.85,1.56-20,9.34-22.48,20a26.81,26.81,0,0,0,44.36,26.05l0,12.6Z"/>
    <path d="M380,633.49c-6.19,14.64-7.28,60.52-7,63.41-11.76,1.36-15.13.87-21.82-2.62,0,0-30.5,28.39-52.91-6.7,0,0-39.56,12.38-38.82-35.37,0,0-52.14-6.46-36.77-57.81,0,0-52.67-39.24-14.12-70,0,0-88.95-88-42.85-139.13,0,0-46.36-112.55,15.37-136.54,0,0-7.05-117.45,74.85-130.88,0,0,84.46-84.39,90.72-53.17a14.82,14.82,0,0,1-2.28,11.1c-7.73,15.38-139.63,129.85-30.88,319.3-36.66-14.55-26.73,38.72-26.73,38.72-38.15-9.61-21,47.74-21,47.74C226.62,491.7,260.16,544,260.16,544c-24,21.35,14.87,55,14.87,55,1.24,54,48.33,35.1,48.33,35.1C358,662.31,380,633.49,380,633.49Z"/>
  </g>
</svg>
