<svg id="Livello_1" data-name="Livello 1" xmlns="http://www.w3.org/2000/svg" viewBox="0 0 841.89 841.89">
  <defs>
    <style>
      .cls-1 {
        fill: #231f20;
      }
    </style>
  </defs>
  <title>Glos</title>
  <g>
    <path class="cls-1" d="M449,452c-5.24-12.84-4.17-35,3.25-49.87,9.07,2.84,18,7.22,28.09,3.2a43.84,43.84,0,0,0,21.93-19A72.35,72.35,0,0,1,549,411.45a23.91,23.91,0,0,1,5.35,11.92c10.78,82.57-33.26,150.48-98.1,178.16-18.54,7.92-37.48,7.91-56.14-.16C364.79,586.1,339.7,560,322.61,526.15,308.67,498.54,302,468.84,300.16,438a16.68,16.68,0,0,1,4-12.24c6.76-8.39,15.81-13.15,26.06-17.14,17,14.82,34.92,19.87,54.35,2.53,10.25,15,16.41,30.57,18.57,48.11-2.8,1.43-5.2,2.49-7.43,3.83-7.71,4.63-11,12.31-8.54,19.53,2.32,6.76,10.29,10.69,19.1,9.6a88.35,88.35,0,0,1,11.37-.73c1.26,0,2.51,1.2,3.7,1.81l-29.25,21.28c3.64,6.91,9.55,7.18,15.52,6.12,4.63-.82,9.11-2.55,13.58-4.09,2.44-.84,4.79-1.5,6,1.38s-.83,4.64-3.18,5.32c-7.86,2.3-15.81,4.31-24.67,6.68-.6,3.95,2.19,7.58,5.71,10.78a33.85,33.85,0,0,0,21,8.65c12.08.81,23.81-1.34,33.71-8.75,6.69-5,12-11.31,10.29-21.09-4.18.82-7.88,1.77-11.64,2.21a46,46,0,0,1-10.61.29c-2.66-.31-6.59-.4-6.11-4.73.41-3.65,3.68-3.2,6.29-3.28,3.86-.12,7.77.23,11.56-.3,5.93-.83,11.92-2,13.51-10.45-11.2-2-19.8-11.25-32.57-10.57,1-5.5,4.62-6.25,8.95-6.33,3.5-.07,7.18.18,10.44-.82,11.95-3.66,15.09-17,5.62-25.13C461.44,457,455.78,455.39,449,452Z"/>
    <path class="cls-1" d="M569.66,445.4c-1.69-6.91-3.78-13-4.64-19.37-2.6-19.17-6.24-38-13.82-55.94-3-7.08-6.71-13.85-10.39-21.35a9.79,9.79,0,0,1,1.46-2.25c28.93-28.65,63.67-43.79,104.49-44.07a78.53,78.53,0,0,1,36,8.5c10.89,5.46,18.56,13.7,22.14,25.43,5.48,18,7.88,35.89-.56,53.79-.79,1.68-.57,5.25.58,6.13,2.67,2,5.07.1,6.25-2.65,2.18-5.09,4.12-10.29,6.17-15.46,7.2,9.51,14.93,18.82,21.55,28.85,3.5,5.31,5.26,11.82,7.46,17.91,1.21,3.32,1.51,7,2.55,10.35,2.14,7,6.28,12,14.05,13.15,1.63.25,3.15,1.21,5.13,2-4.08,7.18-10.72,8.28-17.08,7.64-17.76-1.78-31.51-10.53-40.44-26.93l12.4,5.74c4.13-3.88,4.63-5.5.95-7.78-4.19-2.6-9-5.28-13.7-5.68A71.72,71.72,0,0,0,689.18,425c-8.87,1.93-14.24-.64-15.9-9.77-1.38-7.57-2.09-15.27-3.41-22.86-1.5-8.66-4.78-16.41-11.65-22.42-9.54-8.36-20.31-9.41-31.62-5.24-14.12,5.2-24.89,14.72-32.5,27.74-2.26,3.87-2.77,7.26,3.27,9,1.24-1.82,2.56-3.68,3.79-5.6a54.39,54.39,0,0,1,20.68-19.13c19.1-9.94,37-1.19,40.69,20,1.49,8.46,2.33,17,3.85,25.5,1.24,6.93,3.06,13.76,4.79,21.4-3.79,2.6-8.42,5.66-12.93,8.9-1.91,1.38-4.07,2.85-5.15,4.81-.76,1.38-.32,3.86.44,5.44.29.6,3.32.61,4.5-.1,2.78-1.66,5.11-4,7.78-5.91,9.41-6.61,19.46-10.9,31.38-10.66,16.24.33,28.2,7.72,34.85,22,9.76,20.9,7.8,42.16-1.72,62.75-1.52,3.31-4.61,6.22-7.62,8.45-4.23,3.12-7.27,1.49-7.82-3.8-.72-6.94-1.18-13.9-1.79-21.23,2.6.26,3.48,3.23,5.36,5.23,1.06,1.13,3.63,1.54,5.25,1.15.79-.19,1.81-3.39,1.26-4.46-1.46-2.79-3.23-6-5.78-7.54a65.35,65.35,0,0,0-15.21-7,77.11,77.11,0,0,0-42.1-1.06,78.85,78.85,0,0,1-15.78,2.43c-15.61.73-27.53-7.2-33.09-21.84-3-8-5.13-16.45-8.61-24.27-5.27-11.81-16.34-16.58-28.65-13.28C574.31,443.92,572.91,444.4,569.66,445.4Z"/>
    <path class="cls-1" d="M109.89,390.18c4.57-8.51,8.48-16.86,13.4-24.56,4.1-6.42,8.72-12.84,14.39-17.8,4-3.48,9.91-5.7,15.25-6.4a78.68,78.68,0,0,1,53.6,11.69c1.75,1.1,3.36,2.64,5.27,3.25,1.4.44,4.29.1,4.56-.62.58-1.59.65-4.45-.35-5.33-3.1-2.71-6.77-4.77-10.26-7-1.88-1.2-3.86-2.25-5.9-3.42,8.27-5,16-9.8,23.8-14.41a16.46,16.46,0,0,1,5.73-2.18c11.07-1.71,22.16-3.22,34.1-4.92,5,7.2,12.62,11.52,21.92,15,6.89,2.61,13.23,7.21,20.75,7.63-3.5,13.31-7.27,25.78-10,38.47-3.5,16.29-4.32,32.89-4.3,49.57a28.88,28.88,0,0,1-3.11,12.6,91.32,91.32,0,0,1-28.17,32.81c-15.4,11.14-33.13,13.58-51.66,12.11-6.68-.53-13.39-.74-20.38-1.11a17.14,17.14,0,0,1,2.29-3.71c8.45-8.84,17.17-17.25,29.91-19.74,1.35-.27,2.25-2.82,3.36-4.31-1.34-1-2.79-2.87-4-2.74A36.07,36.07,0,0,0,209,457.69a68,68,0,0,0-24.8,19.89c-5.87,7.4-10.74,15.58-16.06,23.42-1.81,2.68-3.34,5.65-5.55,8-3.72,3.86-8.31,4.39-13,1.78-3.87-2.17-7.37-5.06-11.36-6.92s-8.21-2.74-13.57-4.44c5.32-3.23,9.59-5.27,14.84-4.59,2.54.33,5.4-.11,4.79-3.32-.32-1.69-3-4.2-4.55-4.15-4.63.16-9.58.55-13.75,2.36-14.86,6.48-26.13,17.24-34.45,31.1-1.2,2-2.32,4-3.44,6-10.07-4-15.76-13-13.92-23.15a40.09,40.09,0,0,1,5.62-13.8c5.34-8.48,13.21-14.36,22.21-18.65,4-1.91,8.1-3.66,12.26-5.19,16.9-6.2,24.27-18.91,25-36.21.09-2.05,0-4.11,0-6.81,20.21-7.87,39.86-17.16,60.5-23,13.1-3.69,27.67-2,41.54-3.19,7.32-.65,14.54-2.41,21.8-3.7a14.37,14.37,0,0,0,3.41-1c2.31-1.06,4.49-2.72,2.73-5.38-.82-1.24-3.35-2-5-1.88-2.6.22-5.07,1.74-7.67,2.11-6.74.94-13.51,1.8-20.3,2.25-11,.74-21.93,1-32.88,1.68-10.56.66-20.21,4.67-29.49,9.27a262.5,262.5,0,0,1-63.71,21.78c-6.66,1.38-13.36,2.59-20,3.88a13,13,0,0,1-1.75.29c-6.48.36-13.16-2.79-14.45-6.79-1.22-3.76,1.91-8.54,8.28-12.46,13.4-8.25,27.51-10.39,42.51-4.88,2.89,1.06,6.6,3.9,8.42-.37,2-4.72-2.73-6-5.92-7C121.72,392.77,115.9,391.64,109.89,390.18Z"/>
    <path class="cls-1" d="M563.84,649.53c-1.79,3.87-3.66,6.69-4.31,9.77-.36,1.73,1.3,3.89,2.05,5.86,1.62-1,4.07-1.54,4.73-2.95,4.62-9.94,12.93-16,21.69-21.73,17.36-11.38,41-4.23,50.92,10a99.43,99.43,0,0,1,12.42,23.44c6.1,17.35,11.47,34.92,20.29,51.18,1.5,2.76,3.23,5.87,0,9.36-4.55-.37-8-3.34-10.9-6.51-6.47-6.94-12.77-14.05-18.83-21.35-8.64-10.42-16.41-21.61-28.17-29.15l1-2c4.09,1,8.15,2.11,12.29,2.78,1.7.28,4.27.14,5.22-.91,2-2.21.64-4.81-1.68-5.85a32.49,32.49,0,0,0-10.06-3c-14.26-1.39-26.75,3.93-38.64,11-3.55,2.13-6.91,4.6-10.26,7.05-9.39,6.88-19.59,8.09-30.32,4.09-6.37-2.38-12.61-5.18-18.72-8.15-13.65-6.64-27.6-12.38-42.7-14.66-4.92-.75-10-.72-13.73-1-6.55,8.16-12,15.53-18.07,22.35-5,5.64-11.41,8.47-19.91,5.48a49.33,49.33,0,0,1,2.87-5.12c5.48-7.52,9.77-15.56,11.44-24.82a32.79,32.79,0,0,0,.75-5.27c0-3,0-6.52-4.06-6.63-3.63-.11-3.75,3.05-3.9,5.8-.67,11.87-6.36,21.39-13.94,30.08-5.59,6.4-12.35,8.09-20,4.68a52.44,52.44,0,0,1-11.32-6.9c-5.86-4.69-9-11.41-13.22-18.65,5.44,0,9.75-.1,14,.05,1.74.06,3.54,1.17,5.18.92,1.48-.23,3.58-1.41,3.94-2.61s-.83-3.65-2-4.17a23.57,23.57,0,0,0-8.51-2.18c-22.81-1-44.14,3.91-63.39,16.59-4.95,3.27-9.74,6.79-14.74,10-10.28,6.53-21.39,10-33.74,9.07-3.81-.3-7.67,0-13.66,0,6.44-4.55,11.76-6.38,17.55-7.09,1.76-.22,3.73.22,5.27-.44s3.66-2.1,4-3.57a3.54,3.54,0,0,0-4-4.57c-5.25.63-10.67,1.25-15.58,3.09-25.84,9.65-43.29,28.33-55.23,52.67a31.58,31.58,0,0,0-2,4.94c-1.21,4.06-4.08,5.75-8.05,5.5a7.74,7.74,0,0,1-7.47-6.56A36.91,36.91,0,0,1,198.1,728c3-22.86,14.58-40.39,33.69-53.05,12.91-8.56,27.53-12.61,42.59-14.39a65.88,65.88,0,0,0,37.38-16.77c17-15.15,37.14-18.81,59-13.83a66.9,66.9,0,0,1,10,3.58c2.5,1,5.18,1.27,5.74-1.64.32-1.64-1.31-4.88-2.8-5.45-6-2.3-12.31-5-18.61-5.36-8.54-.42-15.5-3.51-22.08-8.25C330.74,604,318.93,594.54,310,580.65c5.45-9.71,11-19.69,16.93-30.2,6.11,7.36,11.52,14.73,17.79,21.27,21.15,22,45.6,38.68,76.24,44.61,12.26,2.38,24.25.87,35.85-3.37,28.39-10.38,50.82-28.93,70-51.83,3.78-4.53,7.16-9.38,11-14.5,7.39,5.3,9.82,13.22,13.09,20.73,3.77,8.64,2.42,15.57-4.39,22.33-11.67,11.57-24.23,21.91-38.59,29.85-3.19,1.77-7.32,1.93-11.06,2.59-5.82,1-11.7,1.72-17.51,2.82a12.26,12.26,0,0,0-5.64,2.44c-1.32,1.15-2.78,3.46-2.47,4.89.6,2.74,3,2.89,5.7,2.13,6.25-1.73,12.55-3.55,18.95-4.41,14.21-1.91,26.88,3.23,39,9.9C543.73,644.81,552.85,648.8,563.84,649.53Z"/>
    <path class="cls-1" d="M381,300.22c16.66,8.19,32.53,15.82,50.41,4,9,5.19,18.81,9.64,29.82,8.23,5.35-.68,10.43-3.43,16.79-5.65,1.2,1.58,3.38,4.29,5.39,7.13,10.7,15.19,24.74,26.13,41.69,33.64a21.81,21.81,0,0,1,8.83,6.79c8.57,12.29,13.25,26.23,16.26,40.87-7.55-4.22-14.47-8.86-22-12.13-20.39-8.87-41.47-9.27-62.54-2.76-17.28,5.34-26.88,17.43-29.23,35.46a92.54,92.54,0,0,0,3.72,40.39c1.57,4.95,3.9,8.34,10.09,7.78,2.66-.24,5.78,1.12,8.19,2.58,1.44.88,3,3.73,2.54,5a8.42,8.42,0,0,1-4.75,4.44c-2.09.74-4.69.29-7,.07-6-.57-11.25.71-14.63,6.22-2.18,3.55-4.61,4.2-7.89,1.3-5.54-4.89-11.75-4.9-18.26-2.24-1.37.56-3,1.74-4.13,1.4-2.9-.87-6.59-1.73-8.11-3.89-2-2.85,1.05-5.35,3.43-7.2a7.14,7.14,0,0,1,3.08-1.72c8.1-1,9.6-6.67,9.72-13.46.37-20.55-6-38.42-20.72-53.09a36,36,0,0,0-24.63-10.7c-22.46-1.07-42.75,5-60.74,18.55-1.34,1-2.74,1.92-5,3.5-1.38-10.6.29-19.93,2.5-28.88,3.32-13.47,7.94-26.63,12.05-39.9,1.3-4.21,3.85-6.84,8.28-8.41C346,329.85,365.53,318.46,381,300.22Z"/>
    <path class="cls-1" d="M249.4,490c19.48-6.68,30.71-21.74,43.12-37.77,1.22,7.07,2.21,12.49,3.1,17.94,3.7,22.72,10.77,44.34,22.32,64.28,2.92,5,3.24,9.27.36,14-6.33,10.37-12.64,20.76-19.13,31a13.11,13.11,0,0,1-5,4.85c-11.91,5.63-24,10.46-37.41,4.63-3.17-1.38-6.78-1.76-10.63-2.72-1.32-5.49-.3-10.91,2-16.11,2-4.55,5.21-7.76,10.49-8.63,2.46-.4,4.89-2.23,3.44-4.93-.82-1.51-3.82-2.92-5.59-2.67-6.2.89-10.84,4.57-13.93,10A39.08,39.08,0,0,0,238,589.62c4,26.36-10,44.9-36.73,48.67-5.57.79-11.18,1.34-16.79,1.77-21.29,1.61-35.88,13.2-42,33.66-1.43,4.77-2.52,9.64-3.67,14.1-4.53,1.83-7.15-.51-8.93-3.14-2.62-3.88-5.32-8-6.63-12.43-8.44-28.5,3.72-60.22,23.27-75.62,10.74-8.46,23.85-11.8,37.25-13.06,7.33-.69,14.8.24,22.19,0,2-.06,5.26-1.21,5.64-2.53.92-3.2-1.75-4.66-4.71-4.92-7.64-.68-15.28-1.25-23.08-1.87-.67-10.35-1.43-21.41-2.06-32.48a27.2,27.2,0,0,1,.39-7.1c2.2-10.55,5-21.14,14.6-27.46,12-7.9,25.41-11.3,39.83-8.84a10.25,10.25,0,0,1,8.34,7.09,53.08,53.08,0,0,0,6,10.83,22.26,22.26,0,0,0,5,4.94c2,1.55,4.29,2.26,6.28-.16s.75-4.38-1.33-6c-5.73-4.39-8.18-10.76-10.33-17.26C249.86,495.7,249.87,493.29,249.4,490Z"/>
    <path class="cls-1" d="M664.37,271.45c-.72,7.44-5.06,10.9-11.19,12.49a66,66,0,0,1-35.19-.19C595.4,277.23,573.91,268,554.24,255c-3.19-2.12-5.82-5.12-9.07-7.13-1.34-.83-3.64-.12-5.5-.11.09,1.86-.55,4.35.41,5.45a47.1,47.1,0,0,0,8.65,7.59c16.69,11.58,35.14,19.61,54.09,26.61l8,2.94c1,5.31-2.82,6.57-5.88,8.09-10.66,5.3-21.9,4.58-33.07,2.42a59.75,59.75,0,0,1-26.34-12.29c-.93-.74-1.85-2-2.82-2a9.78,9.78,0,0,0-5.45,1c-.56.34-.17,3.41.69,4.57a24.41,24.41,0,0,0,5.32,4.67c8.52,6.26,17.89,10.09,33,13.36L545.74,329c-2.45-17.15-9.14-32-20.76-44.29s-25.85-20.63-42.44-27.34c.32-4.13,0-8.62,1.12-12.72,6-22.23,19.62-38.18,40.5-47.9,8.77-4.09,17.79-4.23,26.85-1.23,15.37,5.1,31.26,6.52,47.3,7.15a40.06,40.06,0,0,1,9.65,1.37c25,7.31,49.89,15.18,73.1,27.32,7.07,3.7,13.71,8.23,20.41,12.59,3.61,2.35,6.41,5.42,5.25,10.33s-6,9.87-11.14,10.1a144.83,144.83,0,0,1-21.35-.26c-15.94-1.64-31.7-4.61-46.65-10.57-5.4-2.15-10.38-5.51-15.24-8.79-2.19-1.47-4.38-3-6-.7-1,1.38-.73,5.16.44,6.18,3.72,3.28,7.77,6.84,12.34,8.36,12.88,4.28,26.08,7.61,39.16,11.3C660.17,270.48,662.11,270.9,664.37,271.45Z"/>
    <path class="cls-1" d="M364.73,260.92c-13.64,8.81-25.9,18.4-40.44,24.85-9.29,4.11-17.84,10.64-25.47,17.49-6,5.36-10.05,12.86-15.19,19.7-6.42-1.93-6.42-1.93-11.47-9.6l7-4.66c9.8-6.43,18.39-14.1,24.05-24.53a57.79,57.79,0,0,0,3.83-9.9c.85-2.61-.06-5.17-2.85-5.4-1.4-.12-3.5,1.79-4.41,3.3-3,5.05-4.77,11.06-8.53,15.4-15.13,17.5-34.69,26.34-57.77,27.24-6.12.25-11.72-1.33-16.56-7.7,3.11-1.22,5.65-2.26,8.23-3.22a139.73,139.73,0,0,0,52.59-34c2.28-2.36,6.73-5,3-8.72-3.91-3.87-6.26,1-8.49,3.27-18.3,18.25-39.89,30.63-65.1,36.38a89.27,89.27,0,0,1-18.47,2.32c-7.3.11-13.21-3.15-16.21-10.27-2.26-5.38-1.47-7.14,4.36-9a180.36,180.36,0,0,0,55.63-29.14c1.64-1.25,3.54-2.46,4.52-4.15a5.5,5.5,0,0,0-.22-4.68c-.45-.81-2.86-1.32-3.86-.84a43.54,43.54,0,0,0-6.61,4.46c-18.63,13.58-38.43,24.74-61.65,28.07-7.58,1.09-15.34,1.08-23,1.2a11,11,0,0,1-11-7.61c-1.76-4.75.73-8.65,3.9-12C140.47,253,148,249.4,156,246.89q34.28-10.86,68.71-21.25c22.08-6.72,44.29-13,66.29-19.95,20-6.32,35.79-1.4,47.82,16,3,4.38,5.65,9,8.39,13.63,2.59,4.33,4.86,8.86,7.69,13S361,256.24,364.73,260.92Z"/>
    <path class="cls-1" d="M566.58,460.55c6.17,10.26,11.14,18.95,16.53,27.38,9.62,15,21.63,26.65,43.22,26-5,3.79-8.53,5.93-11.4,8.72-5.51,5.34-10.75,11-15.9,16.66-1.75,1.94-2.06,4.76.61,6,1.31.61,4-.26,5.29-1.34,2-1.63,3.35-4.13,5.17-6.07,14.47-15.44,32.11-25.83,53-28.39,26-3.18,37,9.12,40.43,30.66,1.69,10.5-.45,20.49-5.36,30.12A106.27,106.27,0,0,0,690.53,591c-1.58,5.88,0,11.84,3.28,17,1.24,2,2.93,4.08,4.93,5,1.77.78,4.26-.05,6.43-.17-.45-1.85-.56-3.87-1.4-5.51-1.57-3.07-4.44-5.74-5.13-8.93-.82-3.81.08-8,.3-14,7.21,7.31,12.68,13.16,15.82,20.81A66.62,66.62,0,0,1,720,634.63c-.71,11.74-6.47,20.77-15.44,27.87a21.62,21.62,0,0,1-8,3.73c-5.61,1.43-10-1.39-11.22-7.08a55.06,55.06,0,0,1-.91-8.82c-.43-8-4-14.24-10.79-18.37a123.54,123.54,0,0,0-14.12-7.46c-14.54-6.43-20.81-17.7-20.35-33.26.19-6.22,0-12.44,0-19.12,4.65-2.66,9.9-2.76,15.17-2.66,2.07,0,4.22.76,6.17.37,1.72-.35,3.21-1.83,4.79-2.8-1.35-1.63-2.65-4.58-4.07-4.65a114.25,114.25,0,0,0-20.35.53c-10.36,1.41-19.93,5.48-29,10.81a59.61,59.61,0,0,1-35.83,8c-10.43-.81-13.76-3.65-16.83-13.65-3.34-10.86-8.2-20.92-16.91-29.23A179.6,179.6,0,0,0,566.58,460.55Z"/>
    <path class="cls-1" d="M414.33,95.84c10.85,7.24,21,13.86,31,20.72,17.4,11.95,32.13,26.27,40.39,46.25,4.81,11.66,6.19,23.44,1.87,35.54-4.91,13.74-15.93,21.41-30.58,21.17-10.12-.17-20.17-.26-29.54,4.62-1.25.65-3.41.26-4.88-.34-8-3.24-15.82-2.05-23.3,1.31-4.16,1.87-7.77,1.64-11.87.14-18.86-6.87-30.67-23.27-30.75-43.52,0-12.59,1.4-24.92,8.71-35.74C378.78,126.09,396.53,110.53,414.33,95.84Z"/>
    <path class="cls-1" d="M642.15,170.55c-9.77,9.21-21.76,13.85-34.54,17.3-18.82,5.06-37.36,4.28-56.11-.48-19.57-4.94-36.13,1.52-50.5,14.82-2.08,1.89-4.16,3.86-6.24,5.79,2.93-18.08,10-33.68,24.55-44.82,3.6-2.75,8.39-4.38,12.92-5.38,13.44-3,26-7.91,37.39-15.71,12.37-8.39,25.18-10.1,39.55-4.46,8.39,3.31,17.83,4,26.81,5.57,3.23.6,6.61.48,8.21,5.28-6.61,8.5-14.89,15.22-26,18-3.19.86-7.39,1.15-6.16,5.57,1.11,4.05,5.2,3.42,8.28,2.05,6.16-2.79,12.22-5.8,18.12-9,2.53-1.37,4.68-3.45,7.54-5.68C648,164.87,645,167.88,642.15,170.55Z"/>
    <path class="cls-1" d="M378.94,234.68c-3.9,5.42-7.54,10.51-11.85,16.53-2.6-3.49-5.23-6.58-7.35-10-4.34-7.05-8.06-14.55-12.7-21.42-9.25-13.63-21.13-24.18-37.88-27.37a68.49,68.49,0,0,0-17.64-.71c-17.93,1.42-32.27-6.12-44.85-17.75-5.87-5.42-6.21-10.36-2.49-18.19,8.72,4.86,17.41,9.76,26.1,14.59a38.25,38.25,0,0,0,7.21,3.34c1.07.3,3.41-.52,3.75-1.37.55-1.41.55-3.82-.3-4.86-1.48-1.71-3.79-2.75-5.83-3.94-8.43-4.87-16.86-9.62-26.22-15,8.32-9,17.53-10.84,27-7.35s18.64,4.87,28.59,2.38c7.32-1.82,14.08.55,19.61,5.87,12.48,11.95,21.39,25.95,25.25,43a116.76,116.76,0,0,0,4.76,16.15C358.63,220.53,366.83,229.19,378.94,234.68Z"/>
    <path class="cls-1" d="M457.25,266.52c7.88-3.32,15.9-1.69,23.49.43,23.09,6.44,40.39,20.38,51.21,42a45.26,45.26,0,0,1,5,21.39c-.11,5.5-2.17,7.61-7.64,7.16a20,20,0,0,1-8.28-2.65C509.55,328,498.91,320,491,309c-6-8.41-11.39-17.31-17.72-25.46C468.65,277.55,462.91,272.44,457.25,266.52Z"/>
    <path class="cls-1" d="M364.1,271.05l10.12,23.16c-2,2.07-4.38,5.56-7.65,7.74-13.3,8.89-26.65,17.74-40.43,25.85-7.23,4.26-15.72,5.14-24.16,4.48-7.18-.56-10.33-5.06-7.09-11.5,2.46-4.92,5.85-9.94,10.11-13.27a133.43,133.43,0,0,1,24.57-15.75c10.24-4.86,20.14-10,28.88-17.22A50.24,50.24,0,0,1,364.1,271.05Z"/>
    <path class="cls-1" d="M418.91,233.58c.81,5.87-3,10-6,14.17a79.71,79.71,0,0,1-8.46,9.09c-4.92,4.9-4.81,6.26,1.16,9.56a39.74,39.74,0,0,1,16.79,17.81c4,8.19,1.77,13.29-7.14,15-22.15,4.19-42.66-15.51-38.79-36.61C379.92,243.78,397,228,418.91,233.58Z"/>
    <path class="cls-1" d="M417,257.35c3.67-7.11,6.83-13.4,10.17-19.58a11.84,11.84,0,0,1,3.38-3.92c10.94-7.73,28.42-9.6,40.84,2.31,4.55,4.36,7.84,9.58,5.81,16.2-1,.51-1.59,1.13-2,1-7.07-2.51-13,0-19.21,3.39-6.85,3.74-14,5.51-22.15,2.83C428.7,257.86,422.85,258.05,417,257.35Z"/>
    <path class="cls-1" d="M420.24,266.18c18.19.76,33,5.87,44.42,18.67a19.2,19.2,0,0,1,4,7.74c2.05,7.8-.56,11.36-8.68,11.1a62.39,62.39,0,0,1-16.36-2.84c-6.09-1.9-10.44-5.49-11.73-12.85-.92-5.27-4.52-10.1-7.09-15.05C423.76,271,422.29,269.21,420.24,266.18Z"/>
  </g>
</svg>
