<svg id="Livello_1" data-name="Livello 1" xmlns="http://www.w3.org/2000/svg" viewBox="0 0 841.89 841.89">
  <defs>
    <style>
      .cls-1 {
        fill: #231f20;
      }
    </style>
  </defs>
  <title>Glos</title>
  <g>
    <path class="cls-1" d="M364.5,226.53c10.14,17.93,23.71,32.77,38.71,46.39A270.57,270.57,0,0,0,470,317.59a30.83,30.83,0,0,0,7.43,2.7c1.35.23,2.95-1,4.44-1.53-.91-1.09-1.6-2.61-2.77-3.21C468.29,310,457.12,305,446.55,299c-27.42-15.58-48.91-37.89-68.48-62.17-3.6-4.47-5.6-10.2-8.8-15.05-1.11-1.67-3.83-3.54-5.44-3.25s-4.28,3.28-4.09,4.79c.61,5,1.37,10.38,3.74,14.71,10.78,19.69,21.39,39.54,33.46,58.44,19.19,30,40.57,58.57,65.24,84.44,2.57,2.69,5,5.68,8.12,7.64,4.85,3.09,6,6.87,4,12-1.61,4.1-2.65,8.59-5,12.19-6.54,10-8.27,20.46-5.2,31.93.67,2.49.59,5.2,1,9.54-3.21-2.77-5.39-4.36-7.23-6.27-8.27-8.65-18.27-12.49-30.27-12.81-5.61-.15-11.32-2.4-16.66-4.51a41.25,41.25,0,0,1-11.28-6.88c-9.68-8.17-20.49-12.81-33.3-13.1a20.46,20.46,0,0,1-9.95-3.36c-18.07-11.5-38.13-17.15-58.93-20.77a21.45,21.45,0,0,1-3.07-.74,9.63,9.63,0,0,1-1.8-1.27c1.13-2.07,2.14-4.26,3.45-6.26,13.61-20.69,27.47-41.22,40.83-62.06,8.35-13,8.9-13.62,24.25-10.33,2.58.55,5,1.71,7.63,2.17,1.45.25,3.06-.36,4.59-.58-1-1.33-1.83-3.35-3.19-3.89-10.23-4-21-5.76-31.75-3.74-9.63,1.82-19.07,4.93-28.36,8.13-3.49,1.2-5.53.68-7-2.15-3.74-7.11-8.74-13.66-8.57-22.44.13-7.08-4.55-11.38-10.71-13.78a96,96,0,0,0-12.7-3.48c-7.63-1.82-9-5.56-3.77-11.32,15.05-16.63,33.76-27.89,54.2-36.51a173.08,173.08,0,0,1,54.87-13.43c1.77-.14,3.6.64,5.41,1a24.42,24.42,0,0,1-1.29,4.84c-3.46,6.83-2.49,13.85,3.21,19.38,7.25,7,16.38,10.17,26.06,12,11.09,2.07,22.27,2.57,32.94-1.42,6.52-2.43,12.47-6.4,19.09-9.9,5.8,11.68,16.64,19.38,26.24,28.25C499.5,269.56,507,282.82,512.66,297c8.23,20.49,15.33,41.45,24.13,61.68,9.5,21.87,20.37,43.13,30.71,64.63,2.52,5.24,5.27,10.37,8.56,16.79-2-1.18-3-1.63-3.87-2.25a152.41,152.41,0,0,0-42.35-21.64c-27.32-8.74-50.45-24.06-69.63-45a577,577,0,0,1-90.55-131.69c-2.08-4.15-3.46-8.67-5.16-13"/>
    <path class="cls-1" d="M282.86,503.25c5-11.4,8.92-23.81,7.9-37.25,12.62-6.29,17-16.24,12.91-33-2.43-10-6.81-19.61-9.82-29.53-1.05-3.46-.63-7.35-.94-12,21.73,5.52,42.16,10,60.46,21.11a33.69,33.69,0,0,0,14.24,4.84c13.4,1.05,24.29,6.72,33.94,15.64,7,6.48,15.25,10.88,25,9.68,16.48-2,26.51,7.6,33.45,19.73,14.91,26.08,28.37,53,42.41,79.56a17.44,17.44,0,0,1,.74,2.29c-6.17.46-12.09.87-18,1.36-13.7,1.14-27.32,5-41.13,2.47-9.51-1.75-18.8-4.67-28.19-7-19.19-4.74-38.42-9.33-57.56-14.26a51.72,51.72,0,0,1-13.11-5.32c-6.29-3.71-12.68-6-20.08-5.41a35.67,35.67,0,0,1-24.84-7.08c-4.54-3.28-11.08-3.83-17.35-5.81"/>
    <path class="cls-1" d="M510.15,541.16c17.27,11.07,35.38,16.7,54.46,19.36,18.62,2.61,37.1,2.49,54.85-4.82a43.49,43.49,0,0,0,9-5.48c.82-.6.76-2.38,1.11-3.63-1.29-.05-3-.68-3.8-.07-12.27,9.54-26.68,8.6-40.76,7.88a205.52,205.52,0,0,1-62.55-13c-12.18-4.61-19.84-13.11-25-24.41a6.36,6.36,0,0,1,.58-5.32,60.8,60.8,0,0,1,8.59-10,114.81,114.81,0,0,1,34.1-20.8c2.27,3.07,3.73,6.89,6.36,8.07s6.57-.13,10.55-.39c-.21,2.54-.48,5.78-.72,8.64-7.78,1.8-15.61,2.73-22.7,5.55-6.07,2.41-11.44,6.76-16.81,10.68-3.49,2.57-2.47,5,1,7.36,10.3,7.07,22,10.4,33.89,13.21,17.09,4,34.45,6.52,52.08,5.63A83,83,0,0,0,619.4,537c3.2-.77,4.34-3,3.28-6.53-2.59-8.69-8.43-14.7-15.85-19.17-3.1-1.88-4-3.71-3.68-7.15.41-3.85.1-7.77.1-12.11a27,27,0,0,1,3.52,1.37,72.7,72.7,0,0,1,29.54,29.69c5.24,9.7,3.1,19.56,2,29.54C636.1,571.8,634.05,591,632,610.15c-.77,7-1,14.17-2.39,21.09-.49,2.48-3.11,5-5.41,6.58-9.3,6.33-20.06,8.76-31,10.11-23.55,2.93-46.55.65-68.91-7.82-6.33-2.4-9.14-5.61-9.67-12.88-1.74-24.16-4.71-48.22-6.78-72.36-.36-4.15,1.37-8.49,2.31-13.71"/>
    <path class="cls-1" d="M495.64,197.12a195.36,195.36,0,0,1-13.54,17.67c-1.57,1.8-4.61,2.66-7.13,3.19-5.18,1.05-10.48,1.6-17.53,2.61,1.47-8.31,2.74-15.71,4.09-23.1.25-1.37,1.07-2.69,1.11-4.05s-.67-2.48-1-3.73c-1.19.74-3.2,1.26-3.44,2.23q-2.75,10.73-4.8,21.61a19.09,19.09,0,0,0,0,7.93c1.39,5.66-1.69,8.4-5.89,11-15.08,9.21-45.67,6.7-58.8-4.94-7.64-6.78-6.82-14.19,2.15-19.1,4.07-2.24,8.08-2.77,13-2.21,15.33,1.78,28.58-4.37,40.64-13.35.77-.57.64-2.38.94-3.62-1.43.06-3.1-.35-4.24.25-6.27,3.21-12.21,7.12-18.63,9.93a28.82,28.82,0,0,1-19.17,1.89c-5.85-1.51-8.62-4-8.59-10.26,0-11.14-.07-22.34,1.19-33.37.39-3.42,5-6.36,7.71-9.52l2.13,1.42c-1.18,3.19-2,6.59-3.62,9.52-3.45,6.19-3.18,7.92,2.82,11.5,2.71,1.61,1.94,4.94-1.76,7.54-2.33,1.64-5.53,2.84-3.34,7.41,4.88-5.1,10.53-6.76,17.27-4.05.2-.66.39-1.31.58-2-1.42-.93-2.92-1.79-4.25-2.85s-2.55-2.38-3.81-3.6c1.13-.87,2.32-1.67,3.37-2.63s1.86-2,2.79-3a16.22,16.22,0,0,0-3.55-1.36,38.78,38.78,0,0,0-5,0c1.31-5.64,2.39-10.85,3.82-16a4.38,4.38,0,0,1,2.83-2.66c6.34-1.12,12.82-3.2,18.77,1.51.59.47,1.83.13,2.77.17-.15-1.09.06-2.86-.5-3.15-3-1.64-6.12-3.67-9.41-4.18-10.45-1.64-20.43-.07-29.48,6.84-.31-5.17,2.44-8,6.06-10,5.74-3.24,12.09-4.71,18.41-2.7,15.61,4.94,31.4,9.62,46.47,15.92,8.08,3.39,15,9.74,22.11,15.14,1.29,1,1.68,3.8,1.66,5.77,0,6.7,1.23,12.91,4.76,18.74a6.45,6.45,0,0,1,.06,5.73"/>
    <path class="cls-1" d="M253.18,419.07c.14-18.75.26-37.52-.63-56.23-1-20-3.65-39.87-4.43-59.84-.51-13.33,4.18-25.78,9.57-36.53a.94.94,0,0,1,1.16-.44c5.52,2.08,10.43,4.26,15.55,5.67C283,274.08,289,278.17,289.86,288c.54,5.88,3.94,11.75,3.5,17.42-.89,11.38-3.32,22.65-5.51,33.9-2,10.22-4.76,20.3-6.72,30.53-2.33,12.15.38,23.46,6.41,34.22s11.17,21.76,11.85,34.26a90.22,90.22,0,0,1-.67,13.73c-.15,1.48-.9,3.56-2,4.14-2.31,1.19-5.15,2.28-7.55,1.93-1.09-.16-1.85-3.82-2.38-6a5.43,5.43,0,0,1,.06-2.19.91.91,0,0,0-1.4-.93,9.47,9.47,0,0,0-2.75,2.54c-.94,1.68-1.15,3.84-2.31,5.31-.73.93-2.11,1.35-3.36,1.87a.91.91,0,0,1-1.13-.37c-.7-1.16-2.09-2.34-1.83-3.33.94-3.38,3.11-6.57,4.23-9.91a19.16,19.16,0,0,0,.88-3.15.93.93,0,0,0-1.59-.76c-4.27,4.39-4.5,11.74-11.12,15.32a.92.92,0,0,1-1.35-.76,10.25,10.25,0,0,1,.77-4.86c2.2-5.17,3.89-10.74,6.44-15.77a28.62,28.62,0,0,0,1.41-4.55c-.64-.3-10.75,17.42-13.59,21.68-.64.95-3.54.62-5.38.84a.94.94,0,0,1-1-1,8.22,8.22,0,0,1,.83-3c2.83-6.07,4.66-12.31,7.57-18.34a9,9,0,0,0,.74-2.72.92.92,0,0,0-1.61-.74c-1.9,2.21-4.77,5.89-6.83,8.84a.92.92,0,0,1-1.67-.51c-.07-4.08.38-12.14.42-16.58"/>
    <path class="cls-1" d="M294.88,634.93c-11.83-4.22-22.08-9.41-30.41-17.45-2.31-2.24-3.57-7.07-3.14-10.43,1.77-13.72,9.1-25.12,16.89-36.14,10.33-14.6,20.9-29,31.17-43.67a8,8,0,0,1,6.89-3.8c13.52-.84,25.14,4.2,38.41,12.11-3.16,2.34-5.73,4.16-8.2,6.11-9.63,7.58-14.94,18-20,28.89-10,21.59-20.93,42.78-31.6,64.38"/>
    <path class="cls-1" d="M458.61,556.49l41.56-4c1,8.78,2.05,17.7,2.91,26.65,1.94,19.92,3.6,39.86,5.79,59.75.45,4.11-1.05,5.35-4.36,6.14-13,3.09-26,2.38-38.9-.64a6.61,6.61,0,0,1-3.81-3.61c-8.38-20.45-8.87-41.66-5.78-63.2,1-7,1.73-14,2.59-21.14"/>
    <path class="cls-1" d="M465.11,653.06l45.18-2.1c.18,4.69.57,10.93.64,17.19s.06,12.77-.34,19.14c-.89,13.9,5.14,24.46,16,32.24,8.32,6,17.3,11,25.9,16.58a118.7,118.7,0,0,1,10.7,7.78c2.85,2.33,2.32,5.3-1.05,5.93-5.79,1.1-11.87,2-17.69,1.45-10.94-1.06-21.37-3.94-30.75-10.47-4.48-3.12-10.25-4.44-15.5-6.4-5.1-1.9-10.5-3.14-15.41-5.43-8.47-4-10-6.82-8.51-16.43,2.54-16.1,1.55-31.66-5-46.76-1.87-4.32-3-9-4.17-12.72"/>
    <path class="cls-1" d="M259.53,623.67l31.35,18.46c-3,5.62-5.9,11.88-9.45,17.77-13.54,22.52-23.77,46.62-34.07,70.68-1.79,4.18-2.52,8.81-3.83,13.2-2,6.87-7.42,8.58-12.19,3.24-2.76-3.08-5.2-7.49-5.55-11.49-1-12-1.45-23.82-6.88-35.11-4-8.38-.72-14.16,8.06-17.15,9.28-3.16,15.27-9.88,18.6-18.54,4.83-12.5,8.69-25.38,13-38.1.38-1.16.78-2.32,1-3"/>
    <path class="cls-1" d="M215.79,581.5c-1.63-2.74-2.85-4.8-4.22-7.08l-9.22,7.33c-.47-.34.19-7.76,1.62-10.84,8.13-17.53,11-35.85,10.5-55.16-.61-24.45,11.88-42.36,31.48-55.62,7.17-4.85,10.26-2.85,10.41,5.69.25,14.12-3.81,27.17-10.18,39.56-4.93,9.57-10,19.07-15.47,28.35-7.81,13.31-13,27.35-13.8,42.88a32.28,32.28,0,0,1-1.12,4.89"/>
    <path class="cls-1" d="M492.84,161.81c-2.4-2.54-5.25-4.49-6.63-7.19-9.38-18.31-26.12-25.65-44.61-30a75,75,0,0,1-33.2-17c13.73-11,28.41-19.08,46.52-16.76,15.39,2,26.47,13.86,30.1,31a103,103,0,0,1,1.66,13.69c.32,4.26,1.47,7.39,5.54,9.93,6.46,4,6.68,11.35.62,16.3"/>
    <path class="cls-1" d="M285.81,462.18c0,4.7.38,8.32-.07,11.83-2.2,17.62-10.38,32.42-21.63,45.85-9.09,10.86-18,21.86-23.16,35.37-4.18,10.95-5.65,22.21-5.67,34.4l-5.48-8.17-6.39,7.1c-.42-.11-.32-13,.55-19.34,2.17-15.69,9.11-29.57,16.86-43.09s14.59-27.22,19.08-42.4c3.26-11,13.28-17.26,25.91-21.55"/>
    <path class="cls-1" d="M580.57,454.76c-11.78-5.22-22.76-5.44-32.23,5L509.19,428c-8.79-7.16-17.46-14.47-26.41-21.43-3.2-2.5-3.68-4.83-1.45-8.26,16.73,11.69,35.72,18.4,54.56,25.52a142.64,142.64,0,0,1,38.49,22.05c2.69,2.14,4.79,5,7.15,7.55l-1,1.36"/>
    <path class="cls-1" d="M593,505l-2.89-5.86a1,1,0,0,0-1.62-.2,48.85,48.85,0,0,1-5.55,5.46,1,1,0,0,1-1.6-.81c.08-1.44.17-2.93.27-4.58a1,1,0,0,0-1.58-.83c-1.47,1.15-3.36,2.85-4.21,3.37a9.55,9.55,0,0,1-3.58.92,1,1,0,0,1-1.12-1,16.07,16.07,0,0,1,.3-3.55c.12-.49.38-1.34.6-2.16a1,1,0,0,0-1.45-1.09,14.41,14.41,0,0,1-2.25,1.14,17.11,17.11,0,0,1-2,.61,2.85,2.85,0,0,1-3.44-2.14c-.15-.65-.29-1.31-.4-2-.47-2.84-.1-6.09-1.38-8.47-3.43-6.37-4.28-6.21-8.71-.68-.66.83-2.58,1.58-3.3,1.2a4,4,0,0,1-1.8-3.3,11.61,11.61,0,0,1,2.49-4.57c2.53-3.32,4.81-6.49,2.85-11.11-.36-.86,1.18-3.1,2.39-4,10.46-7.48,26.48-3.65,32,8.59,4.15,9.25,6.54,19.31,9.35,29.11.4,1.41-.67,4.23-1.6,5.91a1,1,0,0,1-1.74,0"/>
    <path class="cls-1" d="M477.14,150.49c-11.56-4.49-23.08-9.09-34.7-13.45-5.9-2.21-11.9-4.25-18-5.91-13-3.52-24.49-1.72-32.83,10-8.95-4.87-11.89-14.36-7.11-22.5,4.89-8.31,15.25-10.56,23.43-4.74,10.47,7.43,21.57,13.09,34.23,16.1a92.27,92.27,0,0,1,22,8.9c5,2.71,9.14,7.19,13.66,10.9l-.73.72"/>
  </g>
</svg>
