<svg id="Livello_1" data-name="Livello 1" xmlns="http://www.w3.org/2000/svg" viewBox="0 0 841.89 841.89">
  <defs>
    <style>
      .cls-1 {
        fill: #231f20;
      }
    </style>
  </defs>
  <title>Glos</title>
  <g>
    <path class="cls-1" d="M334.16,563.45,317.29,579.6c2,.1,3.89.13,5.79.29,5.73.47,11.45,1,17.16,1.51a12.31,12.31,0,0,1,3.32.86c1.82.75,3.55,2,2.34,4.1A5,5,0,0,1,342,588.1c-2.72-.14-5.4-1-8.12-1.43-16.41-2.51-32.1.76-47.28,6.6a22.43,22.43,0,0,0-9.49,7.74c-7.8,11-17.15,20.42-27.35,29.12a12.73,12.73,0,0,0-1.87,2,1.87,1.87,0,0,0-.22.94c5.38-.23,10.85-.76,16.29-.57a18.23,18.23,0,0,1,7.7,2.52c.89.48.86,2.67,1.26,4.08-1.36.35-3.07,1.41-4,.93-6.55-3.24-13.22-2.14-19.57-.19-11.24,3.45-21.26,9-26.73,20.19-1.59,3.28-3.76,7.21-1.12,10.39,2.8,3.36,6.52.46,9.5-.8,10.14-4.3,21-4.88,31.63-6.63a93.72,93.72,0,0,0,10.15-2c10.14-2.84,16.8-9.44,19.36-19.64,1.39-5.55,1.89-11.32,2.74-17a23.08,23.08,0,0,0,0-2.76c.06-2,.7-4.12,2.93-3.65,1.2.26,2.59,2.43,2.82,3.9.42,2.69.05,5.51,0,8.27,0,1.56-.15,3.12-.26,5.21,8.89-2.46,17.26-1.54,25.68-.47A43.47,43.47,0,0,0,359.12,626c6.24-4.76,12.58-9.31,17.28-16.12-4.13-11.45-1.63-21.54,7.58-30.39-5.58-6.67-9.42-14-8.07-23.11,1.32-8.79,6.46-15,14.5-20C375.6,530.93,363.24,523,351,514.82c-14.14-9.34-24.95-21.73-33.22-36.39a56.45,56.45,0,0,1-7.41-27.74c-.07-17.09-4.2-33.11-11.52-49.34-14.95,13-26.68,27.4-30.64,48.18,4.7-.63,8.45-1.48,12.22-1.54a91.26,91.26,0,0,1,13.61.9c2.05.28,4.14,1.69,3.26,4.31-.68,2.05-2.45,2-4.57,1.72-12.57-1.89-24.92.18-36.73,4-9.55,3.11-16.09,10.57-20,19.84-2.74,6.43-1.34,12.71,2.14,18.5,3.07,5.09,6.45,10,9.72,15,6.14-6.29,8.11-17.3,4.51-24.73-.6-1.24-1.76-2.31-2-3.58-.22-1.11.11-2.92.88-3.48s3-.45,3.52.21a27.75,27.75,0,0,1,4.43,7.65c2.71,8.17,1,16.19-2.91,23.38-8.3,15.18-18.46,28.67-35.9,34.56-5.07,1.72-5.94,5.16-2.95,9.63a8.4,8.4,0,0,0,1.77,2.1c10.68,8.06,22.56,11.87,35.61,7.7,12.43-4,20.86-12.47,23.43-25.72a56.39,56.39,0,0,0,.51-10.33c0-3-.17-6-.39-9-.6-8.48,2.09-15.4,9.68-20.2-.24-4.8-.49-9.6-.71-14.41a21.18,21.18,0,0,1,0-2.76c.17-2.45-.37-5.72,3.35-5.59,3.24.11,2.75,3.11,2.83,5.34.15,3.68.35,7.37.31,11.05-.12,12.27,5.81,21.41,15,29.48a53.75,53.75,0,0,1,3.7-4.08,68.66,68.66,0,0,1,7.4-6.14c.79-.55,3.29-.21,3.49.3a8.32,8.32,0,0,1-.1,4.25c-.1.53-1,.92-1.5,1.35a30,30,0,0,0-2.69,2.17c-9.6,10-8.57,16.68-.59,24.37,10.8,10.4,23.87,14.29,38.76,11.29,1.58-.32,3.17-1,4.71-.94,1.35.09,3.36.73,3.82,1.72,1,2.05-.61,3.48-2.56,4a34.75,34.75,0,0,1-7.4,1.57c-5.49.27-11,.22-16.5.21C337.21,563.74,335.16,563.51,334.16,563.45Z"/>
    <g>
      <path class="cls-1" d="M710.38,210.34c-2.91-5.76-5.56-6.54-10.66-2.45a67.43,67.43,0,0,1-31.23,13.84c-10,1.68-20.12,2.11-30.21,3-11.68,1-23.47,1.3-35.06,2.89-29.35,4-51.78,26.2-56.69,55.24-.43,2.51-.86,5-1.52,7.44-3.06,11.5-15.49,19.51-27.13,17.24-1.33-.26-2.34-2.19-3.52-3.38,1.18-.89,2.25-2.3,3.54-2.59,2.92-.61,6-.41,8.91-1,6.29-1.3,7.56-3.4,6.35-9.6a43.47,43.47,0,0,0-1.13-4.7c-4.44-13.7-14.33-21.57-27.68-25.58-3.34-1-5.59-2.24-6.28-6.14-.89-4.9-4-8.76-8-11.79-3.6-2.77-7.35-5.39-11-8,.32-2.05.69-3.84.83-5.68.44-5.74.72-11.48,1.21-17.21.15-1.91.93-4.13,3.23-3.44,1.21.35,2.63,2.54,2.66,3.93a63.93,63.93,0,0,1-1,11.7c-.77,4.87,1,8.28,4.65,11.39,9.48,8,20.35,13.29,32.14,16.92a27.76,27.76,0,0,0,15,.26,41.68,41.68,0,0,0,19.75-10.75c5.73-5.65,11.56-11.27,16.78-17.39,9.37-10.92,21.22-17.27,34.94-20.93,11.76-3.14,23.79-2.13,35.69-2.74a20.17,20.17,0,0,1,13.53,3.72c7.64,5.42,20.73,4.61,27.73-.89l-5.62-4.07c5.82-2.45,11.19-4.7,16.72-7-.2-3-.37-5.28-.6-8.8-9.06,7.67-18.46,8.88-29.56,7.21,5.94-5.07,12.14-8.82,14.65-15.6-.43-.63-.63-1.18-1-1.35-15.28-7.84-33-4-41.83,7.81-.55.75-.93,1.93-1.62,2.16a5.65,5.65,0,0,1-3.78.09c-.6-.26-1-2-.83-2.94a34,34,0,0,1,1.93-5.33c-9.69,2.07-18.16.37-26.52-2.63-9.35-3.37-18.69-2.62-27.6,1.33a83.55,83.55,0,0,0-14.87,8.59c-9.34,6.75-18.11,14.24-27.51,20.9A56.63,56.63,0,0,1,523,211.7c-8.07,2.57-16.49,3.46-24.71-.09,0-4.21,1.62-5.45,5.22-4.75,2.74.51,5.59.57,8.85.86-3.55-9.23-15.51-14.65-34.51-16.35-.58-1-1.33-2.19-1.93-3.4-5-10.18-13.81-15.14-24.57-16.86a13.68,13.68,0,0,0-7.95,1.12c-10,4.93-14.68,21-9.14,31.28a40.12,40.12,0,0,1,5.68-3.83c4.15-1.91,8.39-3.64,12.71-5.13,1.93-.67,4,.14,4.07,2.39.05,1.12-1.33,2.62-2.45,3.4s-2.66.63-3.95,1.1c-9.52,3.34-16.21,9.6-19.12,19.37-2.16,7.21.61,13.44,6.46,17.39,4.21,2.85,8,.89,11.85-.09C466.24,234,485,243.76,491,259.82c2.48,6.54,1.35,12.17-3.58,17.07-1.12,1.12-2.36,2.16-3.6,3.2-5.68,4.78-10.93,9.8-13.9,16.89a13.41,13.41,0,0,1-5.53,5.88c-8.14,4.73-20.5,1.71-26-6-6.43-8.94-6.54-25.06-.26-34.08,3.29-4.73,8.1-5.77,13.41-5.36,4.73.34,7.55,3.37,9.14,7.41,2.25,5.7,2.88,11.59.31,17.47-.51,1.18-.86,2.39-1.38,3.86,8.42-1.47,13.84-7.06,15.63-15.54,3.17-15.28-7.44-27.07-22.87-25.49a37.66,37.66,0,0,0-19,7.53c-3.43,2.57-8.24,3.75-12.37.58-4.12,3.17-8.93,2-12.36-.58a37.66,37.66,0,0,0-19-7.53c-15.43-1.58-26,10.21-22.87,25.49,1.79,8.48,7.21,14.07,15.63,15.54-.52-1.47-.87-2.68-1.38-3.86-2.57-5.88-1.94-11.77.31-17.47,1.59-4,4.41-7.07,9.14-7.41,5.31-.41,10.12.63,13.41,5.36,6.28,9,6.17,25.14-.26,34.08-5.54,7.7-17.9,10.72-26,6A13.41,13.41,0,0,1,372,297c-3-7.09-8.22-12.11-13.9-16.89-1.24-1-2.48-2.08-3.6-3.2-4.93-4.9-6.06-10.53-3.58-17.07,6-16.06,24.74-25.86,41.49-21.71,3.89,1,7.64,2.94,11.85.09,5.85-3.95,8.62-10.18,6.46-17.39-2.91-9.77-9.6-16-19.12-19.37-1.29-.47-2.88-.38-3.95-1.1s-2.5-2.28-2.45-3.4c.06-2.25,2.14-3.06,4.07-2.39,4.32,1.49,8.56,3.22,12.71,5.13a40.12,40.12,0,0,1,5.68,3.83c5.54-10.26.87-26.35-9.14-31.28a13.68,13.68,0,0,0-7.95-1.12C379.8,172.83,371,177.79,366,188c-.6,1.21-1.35,2.37-1.93,3.4-19,1.7-31,7.12-34.51,16.35,3.26-.29,6.11-.35,8.85-.86,3.6-.7,5.25.54,5.22,4.75-8.22,3.55-16.64,2.66-24.71.09A56.63,56.63,0,0,1,303.66,204c-9.4-6.66-18.17-14.15-27.51-20.9a83.9,83.9,0,0,0-14.87-8.59c-8.91-3.95-18.25-4.7-27.6-1.33-8.36,3-16.83,4.7-26.52,2.63a34,34,0,0,1,1.93,5.33c.15.95-.23,2.68-.83,2.94a5.65,5.65,0,0,1-3.78-.09c-.69-.23-1.07-1.41-1.62-2.16C194,170,176.31,166.15,161,174c-.35.17-.55.72-1,1.35,2.51,6.78,8.71,10.53,14.65,15.6-11.1,1.67-20.5.46-29.56-7.21-.23,3.52-.4,5.83-.6,8.8,5.53,2.3,10.9,4.55,16.72,7l-5.62,4.07c7,5.5,20.09,6.31,27.73.89a20.17,20.17,0,0,1,13.53-3.72c11.9.61,23.93-.4,35.69,2.74,13.72,3.66,25.57,10,34.94,20.93,5.22,6.12,11.05,11.74,16.78,17.39a41.68,41.68,0,0,0,19.75,10.75,27.76,27.76,0,0,0,15-.26c11.79-3.63,22.66-8.91,32.14-16.92,3.69-3.11,5.42-6.52,4.64-11.39a64.82,64.82,0,0,1-.95-11.7c0-1.39,1.45-3.58,2.66-3.93,2.3-.69,3.08,1.53,3.23,3.44.49,5.73.77,11.47,1.21,17.21.14,1.84.51,3.63.83,5.68-3.66,2.65-7.41,5.27-11,8-3.95,3-7.07,6.89-8,11.79-.69,3.9-2.94,5.14-6.28,6.14-13.35,4-23.24,11.88-27.68,25.58a43.47,43.47,0,0,0-1.13,4.7c-1.21,6.2.06,8.3,6.35,9.6,2.91.57,6,.37,8.91,1,1.29.29,2.36,1.7,3.54,2.59-1.18,1.19-2.19,3.12-3.52,3.38-11.64,2.27-24.07-5.74-27.13-17.24-.66-2.43-1.09-4.93-1.52-7.44-4.91-29-27.34-51.24-56.69-55.24-11.59-1.59-23.38-1.91-35.06-2.89-10.09-.86-20.24-1.29-30.21-3a67.43,67.43,0,0,1-31.23-13.84c-5.1-4.09-7.75-3.31-10.66,2.45a41.56,41.56,0,0,0,13.09,53c15.19,10.61,32.49,13.4,50.65,11.79a32.48,32.48,0,0,1,6.17-.49c1.07.09,2.94,1.61,2.83,2.16-.29,1.27-1.36,3.12-2.4,3.32a87.16,87.16,0,0,1-12.31,1.38c-6.22.29-10.35,2.94-12.57,8.54-1.61,4.06-.54,7.78,3.55,9.05,11.24,3.43,22.6,6.49,34.45,2.94,2-.61,4-.89,4.44,1.35.23,1.3-1,3.78-2.19,4.24-3.08,1.27-6.51,1.76-10,2.6-.44,3.31-.72,6.72-1.3,10.06-1.5,8.53,3.32,13.23,11.88,11.45a15.09,15.09,0,0,0,2.65-.84c9.66-3.89,19.35-3.26,29-.09,14.58,4.79,26.23,13.35,33.76,26.87,2.22,3.95,3.51,8.45,5.53,13.47,4-.4,8.54-1,13-1.24,2.3-.15,5.73-1.41,6.08,2.39s-3.11,3.14-5.48,3.49c-5.25.78-10.46,1.62-15.71,2.28a31.18,31.18,0,0,1-5.16-.32c1.21-11.33-3.84-19.89-11.22-27.24a52.62,52.62,0,0,0-29.49-15.37C227.49,333,214.05,346.8,216.93,360a34.14,34.14,0,0,0,4,10.2c7.35,12,16.81,21.89,30.22,27.31.63.23,1.47.37,1.84.83.75,1,2,2.74,1.67,3.23-.75,1.1-2.48,2.37-3.57,2.16a17.13,17.13,0,0,1-7-2.65c-5.82-4.12-11.42-8.5-17-12.94-1.93-1.56-3.46-3.64-5.56-5.91-7.9,6.89-9.58,15-7.3,23.78,4.1,15.89,14.33,26,30.48,29.47,3.69.81,7.78.32,11.59-.26,4.95-.78,8.47-3.58,11.27-8.13,15.42-25.2,37.85-41.72,65.62-51.12,16.29-5.51,32.84-6.37,49.47-.89,18.57,6.11,27.54,20.38,23.85,39.47-1.24,6.48-3.81,12.71-5.85,19-.73,2.19-1.94,4.2-2.6,6.4-1.7,5.56,1.53,9.19,7.29,7.87,3.09-.72,5.92-2.45,9.06-3.84,1.55.9,4.12,1.88,6.48,3.23,2.37-1.35,4.94-2.33,6.49-3.23,3.14,1.39,6,3.12,9.05,3.84,5.77,1.32,9-2.31,7.3-7.87-.66-2.2-1.87-4.21-2.6-6.4-2-6.32-4.61-12.55-5.85-19-3.69-19.09,5.28-33.36,23.85-39.47,16.63-5.48,33.18-4.62,49.47.89,27.77,9.4,50.2,25.92,65.62,51.12,2.8,4.55,6.32,7.35,11.27,8.13,3.81.58,7.9,1.07,11.59.26,16.15-3.46,26.38-13.58,30.48-29.47,2.28-8.79.6-16.89-7.3-23.78-2.1,2.27-3.63,4.35-5.56,5.91-5.56,4.44-11.16,8.82-17,12.94a17.13,17.13,0,0,1-7,2.65c-1.09.21-2.82-1.06-3.57-2.16-.32-.49.92-2.22,1.67-3.23.37-.46,1.21-.6,1.84-.83,13.41-5.42,22.87-15.28,30.22-27.31a34.14,34.14,0,0,0,4-10.2c2.88-13.24-10.56-27.08-23.85-24.94a52.62,52.62,0,0,0-29.49,15.37c-7.38,7.35-12.43,15.91-11.22,27.24a31.18,31.18,0,0,1-5.16.32c-5.25-.66-10.46-1.5-15.71-2.28-2.37-.35-5.83.29-5.48-3.49s3.78-2.54,6.08-2.39c4.47.26,9,.84,13,1.24,2-5,3.31-9.52,5.53-13.47,7.53-13.52,19.18-22.08,33.76-26.87,9.66-3.17,19.35-3.8,29,.09a15.09,15.09,0,0,0,2.65.84c8.56,1.78,13.38-2.92,11.88-11.45-.58-3.34-.86-6.75-1.3-10.06-3.49-.84-6.92-1.33-10-2.6-1.18-.46-2.42-2.94-2.19-4.24.4-2.24,2.42-2,4.44-1.35,11.85,3.55,23.21.49,34.45-2.94,4.09-1.27,5.16-5,3.55-9.05-2.22-5.6-6.35-8.25-12.57-8.54A87.16,87.16,0,0,1,640,280.09c-1-.2-2.11-2-2.4-3.32-.11-.55,1.76-2.07,2.83-2.16a32.48,32.48,0,0,1,6.17.49c18.16,1.61,35.46-1.18,50.65-11.79A41.56,41.56,0,0,0,710.38,210.34ZM284.6,338.62a23.56,23.56,0,0,1-3.55-1.82c-10.46-8.88-18.19-19.49-20.49-33.36a89.81,89.81,0,0,1-1.27-13.06c-.32-12.89-7-21.51-18.6-25.57-10.35-3.64-21.22-6-32-8.13-14-2.77-28-5.37-41.17-11.13a48.2,48.2,0,0,1-22.43-19.72c-.58-.93-.73-2.08-1.5-4.47,3,2.36,4.78,3.78,6.57,5.22,10,8,21.05,14.15,33.65,16.83,9.66,2.05,19.46,3.41,29.23,4.7,10.73,1.42,21.48,2.45,31.54,6.87,15,6.51,24.83,17.15,27.22,33.82.4,2.71,1.07,5.42,1.41,8.15,1.56,12.37,6.06,23.1,16.81,30.39.32.2.35.78.58,1.36C288.78,331.72,286.88,334.84,284.6,338.62ZM696.8,225.83a48.2,48.2,0,0,1-22.43,19.72c-13.2,5.76-27.16,8.36-41.17,11.13-10.78,2.13-21.65,4.49-32,8.13-11.56,4.06-18.28,12.68-18.6,25.57a89.81,89.81,0,0,1-1.27,13.06c-2.3,13.87-10,24.48-20.49,33.36a23.56,23.56,0,0,1-3.55,1.82c-2.28-3.78-4.18-6.9-6-9.92.23-.58.26-1.16.58-1.36,10.75-7.29,15.25-18,16.81-30.39.34-2.73,1-5.44,1.41-8.15,2.39-16.67,12.2-27.31,27.22-33.82,10.06-4.42,20.81-5.45,31.54-6.87,9.77-1.29,19.57-2.65,29.23-4.7,12.6-2.68,23.65-8.82,33.65-16.83,1.79-1.44,3.57-2.86,6.57-5.22C697.52,223.75,697.38,224.9,696.8,225.83Z"/>
      <path class="cls-1" d="M507.72,563.45l16.87,16.15c-2,.1-3.89.13-5.79.29-5.72.47-11.45,1-17.16,1.51a12.33,12.33,0,0,0-3.31.86c-1.83.75-3.55,2-2.35,4.1a5,5,0,0,0,3.92,1.74c2.72-.14,5.4-1,8.12-1.43,16.41-2.51,32.1.76,47.28,6.6a22.37,22.37,0,0,1,9.49,7.74c7.8,11,17.16,20.42,27.35,29.12a12.73,12.73,0,0,1,1.87,2,1.87,1.87,0,0,1,.22.94c-5.38-.23-10.84-.76-16.28-.57a18.28,18.28,0,0,0-7.71,2.52c-.89.48-.86,2.67-1.25,4.08,1.35.35,3.06,1.41,4,.93,6.55-3.24,13.22-2.14,19.57-.19,11.25,3.45,21.26,9,26.73,20.19,1.59,3.28,3.77,7.21,1.12,10.39-2.8,3.36-6.52.46-9.5-.8-10.14-4.3-21-4.88-31.63-6.63a93.08,93.08,0,0,1-10.14-2c-10.14-2.84-16.81-9.44-19.37-19.64-1.39-5.55-1.89-11.32-2.74-17a21.17,21.17,0,0,1,0-2.76c-.07-2-.71-4.12-2.94-3.65-1.2.26-2.59,2.43-2.82,3.9-.42,2.69,0,5.51,0,8.27,0,1.56.15,3.12.26,5.21-8.88-2.46-17.26-1.54-25.68-.47A43.47,43.47,0,0,1,482.76,626c-6.24-4.76-12.58-9.31-17.28-16.12,4.13-11.45,1.63-21.54-7.58-30.39,5.58-6.67,9.43-14,8.07-23.11-1.32-8.79-6.46-15-14.5-20,14.82-5.47,27.18-13.45,39.46-21.58,14.14-9.34,24.95-21.73,33.22-36.39a56.34,56.34,0,0,0,7.41-27.74c.07-17.09,4.2-33.11,11.53-49.34,14.94,13,26.67,27.4,30.64,48.18-4.7-.63-8.46-1.48-12.23-1.54a91.26,91.26,0,0,0-13.61.9c-2,.28-4.13,1.69-3.26,4.31.68,2.05,2.45,2,4.57,1.72,12.57-1.89,24.93.18,36.73,4,9.55,3.11,16.09,10.57,20,19.84,2.74,6.43,1.34,12.71-2.14,18.5-3.07,5.09-6.45,10-9.72,15C588,506,586,495,589.61,487.59c.6-1.24,1.75-2.31,2-3.58.22-1.11-.11-2.92-.87-3.48s-3-.45-3.53.21a28,28,0,0,0-4.43,7.65c-2.71,8.17-1,16.19,2.91,23.38,8.3,15.18,18.46,28.67,35.9,34.56,5.07,1.72,5.95,5.16,2.95,9.63a8.4,8.4,0,0,1-1.77,2.1c-10.68,8.06-22.56,11.87-35.6,7.7-12.44-4-20.87-12.47-23.44-25.72a56.39,56.39,0,0,1-.51-10.33c0-3,.17-6,.39-9,.6-8.48-2.08-15.4-9.68-20.2.24-4.8.49-9.6.71-14.41a21.18,21.18,0,0,0,0-2.76c-.17-2.45.37-5.72-3.35-5.59-3.23.11-2.74,3.11-2.83,5.34-.15,3.68-.35,7.37-.31,11.05.12,12.27-5.8,21.41-15,29.48-1.32-1.47-2.4-2.89-3.7-4.08a70.66,70.66,0,0,0-7.4-6.14c-.8-.55-3.3-.21-3.49.3a8.31,8.31,0,0,0,.09,4.25c.1.53,1,.92,1.51,1.35a29.86,29.86,0,0,1,2.68,2.17c9.6,10,8.57,16.68.59,24.37-10.8,10.4-23.87,14.29-38.76,11.29-1.58-.32-3.17-1-4.71-.94-1.35.09-3.35.73-3.82,1.72-1,2.05.61,3.48,2.56,4a34.75,34.75,0,0,0,7.4,1.57c5.49.27,11,.22,16.5.21C504.67,563.74,506.73,563.51,507.72,563.45Z"/>
      <path class="cls-1" d="M537.25,397.66c-1.84,5.45-3.37,10.7-5.36,15.8a90.7,90.7,0,0,0-6,29.58c-1.15,25.92-12.11,47.32-32.9,62.6-19.69,14.5-41,26.29-65.36,31.54a47.41,47.41,0,0,0-6.69,2.33,46.92,46.92,0,0,0-6.68-2.33c-24.34-5.25-45.67-17-65.36-31.54C328.11,490.36,317.15,469,316,443a91.49,91.49,0,0,0-6-29.58c-2-5.1-3.54-10.35-5.36-15.8A122.54,122.54,0,0,1,351,379.5c9.48-1.62,18.77-1.56,27.91,1.58,5.85,2.05,11.27,4.85,14.62,10.44-10.15,9.34-26.3,10.18-36.25,2.11-.69-.58-1.29-1.53-2.1-1.7a3.94,3.94,0,0,0-3.09.34,3.16,3.16,0,0,0-.83,3,12.56,12.56,0,0,0,3.4,4.24A27.28,27.28,0,0,0,374,405.39a45.13,45.13,0,0,0,23.9-8.28c.89,3.49,1.93,6.26,2.22,9.12a35.51,35.51,0,0,1-3.95,20c-1.76,3.52-3.58,7-5.08,10.59-5.27,12.42,4.56,18.56,13.06,18.1,2.2-.11,4.39-.4,6.69-.63v9.08c-10-1.9-15.62,1-22.17,11.53,3.95-1.24,7.56-3,11.3-3.34s7.47.86,11.28,1.41c0,2.54.06,4.12,0,5.71,0,.37-.49.72-.75,1.09-12.8-2.39-18.17,1.16-22,15.11,2.22.81,4.44,2.16,6.78,2.4a89.9,89.9,0,0,0,13,.17c4.06-.2,8.73-1,12.62,1,3.87-2.05,8.54-1.24,12.63-1a90,90,0,0,0,13-.17c2.34-.24,4.56-1.59,6.75-2.4-3.78-13.95-9.14-17.5-22-15.11-.26-.37-.72-.72-.72-1.09-.09-1.59-.06-3.17-.06-5.71,3.84-.55,7.64-1.73,11.31-1.41s7.35,2.1,11.3,3.34c-6.55-10.49-12.2-13.43-22.17-11.53v-9.08c2.27.23,4.47.52,6.68.63,8.51.46,18.34-5.68,13.07-18.1-1.53-3.61-3.35-7.07-5.08-10.59a35.51,35.51,0,0,1-3.95-20c.29-2.86,1.33-5.63,2.19-9.12a45.32,45.32,0,0,0,23.93,8.28,27.33,27.33,0,0,0,19.32-5.91,12.56,12.56,0,0,0,3.4-4.24,3.24,3.24,0,0,0-.83-3,3.94,3.94,0,0,0-3.09-.34c-.81.17-1.41,1.12-2.13,1.7-9.92,8.07-26.07,7.23-36.22-2.11,3.35-5.59,8.77-8.39,14.62-10.44,9.11-3.14,18.4-3.2,27.91-1.58A122.74,122.74,0,0,1,537.25,397.66Z"/>
      <path class="cls-1" d="M460.76,603.58a10.72,10.72,0,0,1-4.61,5.5c-7.24,4.3-14.94,3.84-22.63,1.19-6.06-2.11-6.84-2.14-12.58-.7-5.73-1.44-6.51-1.41-12.59.7-7.67,2.65-15.37,3.11-22.61-1.19a10.72,10.72,0,0,1-4.61-5.5c-2.39-8.22,2.13-16.44,10.32-19.64,3.89-1.5,4.33-4,1.15-6.51-.69-.58-1.61-.9-2.33-1.42-8.07-5.94-10.7-15.85-6.52-24.47s13.09-12.4,23.1-9.6c4.26,1.21,9.16,3.77,14.09.86,4.91,2.91,9.84.35,14.1-.86,10-2.8,18.83.83,23.07,9.6s1.58,18.53-6.49,24.47c-.75.52-1.64.84-2.36,1.42-3.17,2.56-2.71,5,1.18,6.51C458.63,587.14,463.15,595.36,460.76,603.58Z"/>
    </g>
  </g>
</svg>
