<svg id="Livello_1" data-name="Livello 1" xmlns="http://www.w3.org/2000/svg" viewBox="0 0 841.89 841.89">
  <defs>
    <style>
      .cls-1 {
        fill: #231f20;
      }
    </style>
  </defs>
  <title>Glos</title>
  <g>
    <path class="cls-1" d="M455.12,567.56c.77-3.42,1-6.78-1.17-9.86-2.37-3.39-2.49-7-1.65-11,1.61-7.62-1-14.34-5.27-20.52A51.9,51.9,0,0,0,426.62,509c-9.42-4.63-19.15-4.19-28.21,1.2A49.1,49.1,0,0,1,388,514.89c-5.12,1.62-9.16,4.7-10.24,10.4-.54,2.8-2.7,4.23-4.48,6-4,4.08-5.28,8.9-2.55,14a18.61,18.61,0,0,1,2.11,9.79c-.07,2.59.43,5.2,2.35,7.11,3.49,3.45,4.9,7.88,6.5,12.81-.82,1.64-1.64,3.59-2.73,5.38-2.23,3.65-4.47,7.3-7,10.76-1.63,2.27-2.35,6.32-5.72,5.93-2.64-.31-2.68-4-3.63-6.33A41.2,41.2,0,0,0,347.72,572a42.54,42.54,0,0,0-16.45-6.78c-1.67-.32-3.41-.38-5-.85-6.1-1.78-10.14-9.68-8-15.38a24.64,24.64,0,0,1,12.66-13.81c3-1.51,6.39-2.38,9.6-3.57,1.12-.42,2-1.24,1.23-3.11-.91-2.3-2.23-1.71-3.21-1.56a33.71,33.71,0,0,0-20,10.53,32.49,32.49,0,0,0-4.93,7.42c-5.64,11.34,1.42,22.2,11.79,25.29a45.58,45.58,0,0,0,6.28,1.24c10.66,1.59,17.75,8,22.61,17.12a50.75,50.75,0,0,1,5.85,22.13c.65,16.64-2.94,32.43-11.52,46.64-11.65,19.27-26.52,35.61-46.48,46.78a87.62,87.62,0,0,0-8.61,5.55,45.43,45.43,0,0,0-15.42,18.48c-.86,1.93-2,3.73-2.9,5.38-9.64,2.72-19,2.26-28.31.7-11.38-1.89-20.72-7.64-28.44-16.12-7-7.71-11.59-16.81-15.18-26.52A82.89,82.89,0,0,1,199,651.19a42.58,42.58,0,0,1,2.19-7.32c.35-1.06,1.06-1.36,1.87-.92a2.15,2.15,0,0,1,.94.75c.73,1.53,1.47,3.08,2.05,4.68,3.19,8.82,6.3,17.68,9.53,26.5,4.61,12.61,12.12,23.51,20.47,33.85,2.4,3,5,5.91,8.85,7.12a2.57,2.57,0,0,0,2.17-.61,2.9,2.9,0,0,0,.57-2.28,4.87,4.87,0,0,0-1.47-2c-14.25-14.74-23.72-32.24-30-51.64a205.62,205.62,0,0,1-7.7-34.95,290.15,290.15,0,0,1-2-60.13,141.76,141.76,0,0,1,11.75-48.32,92.34,92.34,0,0,1,8.71-15.65c10.59-15.05,21.72-29.68,34.59-42.88,8.06-8.27,16.14-16.52,24.46-24.52a214.4,214.4,0,0,0,40-53c4.47-8.27,9.15-16.42,13.91-24.52a141.44,141.44,0,0,1,14.22-19.75c15.16-17.9,34.34-29.25,57-34.72,8.28-2,16.7-3.48,25.1-5a164.84,164.84,0,0,0,34.27-10.15,63,63,0,0,0,13.43-7.41c7.24-5.33,12-12.08,12-21.5a27.79,27.79,0,0,1,.62-4c8.29-2,16.57-3.84,24.8-5.95,6.2-1.58,12.28-3.6,17.74-7.1a6.32,6.32,0,0,0,2-1.57c.43-.62.82-2,.56-2.22a6.92,6.92,0,0,0-3.21-1.43c-.7-.1-1.52.65-2.29,1-14.38,7.42-30,9.33-45.86,10.52a35.28,35.28,0,0,1-10.15-1,275.88,275.88,0,0,1-66.1-23.7,88.68,88.68,0,0,1-13-8.11,27.28,27.28,0,0,1-5.8-6.73,8.84,8.84,0,0,1-.79-8.56c.37-1,1.05-1.59,2-1.23a37.83,37.83,0,0,1,5.68,2.69A236.92,236.92,0,0,0,439,217.63c5.54,2.16,11.33,3.73,17,5.54.39.13.85,0,1.26,0,1.21.18,2.7-.94,2.58-2.13-.08-.72-.47-1.85-1-2-11.78-3.84-23-9-34.37-13.93a153.44,153.44,0,0,1-15.88-8.29,27.69,27.69,0,0,1-10-9.75c-2.89-4.81-3.16-9.64-.57-14.61.79-1.5,1.72-3,2.63-4.39a7.72,7.72,0,0,1,5.11-3.56,79.66,79.66,0,0,1,10.09-1.81c14.59-1,28.53-5.06,42.44-9.21a53.43,53.43,0,0,0,7.25-2.49c4.11-1.93,8.31-1.61,12.58-1.06a3,3,0,0,1,2.19,3.8c-.56,2-1.47,4-1.68,6.12a11.37,11.37,0,0,0,10.77,12,11.2,11.2,0,0,0,9.75-5.19A10.06,10.06,0,0,0,500,155.8a12.94,12.94,0,0,0-5-5.67c-2.94-1.67-6.1-3-9.19-4.37a1.67,1.67,0,0,1-1.12-2.08c.1-.37.17-.87.43-1a40,40,0,0,1,15.32-6.14,169.09,169.09,0,0,1,22.91-2.59c5.11-.12,10.19-1,15.28-1.62a7,7,0,0,0,6.29-5.56c2-7.41,3.9-14.87,6-22.27,1.39-4.91,3-9.76,4.6-14.62a1.27,1.27,0,0,1,1.89-.93c.38.19.87.31,1.1.61a57.38,57.38,0,0,1,9.74,20.71c1.41,5.36,2.75,10.77,2.88,16.38a11.7,11.7,0,0,0,3.55,8,160.46,160.46,0,0,1,22.86,30.82,177.78,177.78,0,0,1,19.36,51.34c7.37,33.69,5.4,67.08-3.46,100.23a245.32,245.32,0,0,1-29.78,67.78,87.2,87.2,0,0,0-4.67,7.64,10.33,10.33,0,0,0-.8,4.94,15.94,15.94,0,0,0,1.24,4.95c5.65,14.29,1.19,41.33-12.1,56.68-1.06,1.24-2.52,2.43-4.46,2a17,17,0,0,0-15.45,4.28c-3.43,3.1-8.35,1.6-11.76,4.64-2.81,2.5-5.48,5.39-9.78,5.64-1.57.09-3.16,1.26-4.57,2.2-2.18,1.45-4,3.37-4.22,6.11-.23,3.54-1.69,6.51-3.31,9.56-2.2,4.11-4,8.46-6.1,13.11-1.62-.39-3.49-.37-4.78-1.22A65.23,65.23,0,0,1,477.45,474a30.06,30.06,0,0,1-1.51-17.62,8.46,8.46,0,0,1,7-6.5,17,17,0,0,1,10,1.66c3,1.63,6,3.16,9.11,4.56.35.16,1.28-.69,1.79-1.22.22-.22.12-.83,0-1.24a2.21,2.21,0,0,0-.52-1.06c-3.79-3.65-8.49-5.79-13.34-7.38-10.47-3.44-17.63,3.81-19,11.78a34.3,34.3,0,0,0,1.19,16.46c4.59,14.49,13.89,25.33,25.91,34.1,3.1,2.25,6.46,4.14,9.41,6,1.95,1.87,1.43,4.25,2.23,6.16a11.85,11.85,0,0,1,.07,9.87,6.19,6.19,0,0,0,1.48,7.09,8.55,8.55,0,0,1,2.55,5.68c.12,1.8-.67,3.8-2,4.21a3.51,3.51,0,0,1-4.69-2.75c-.19-1.26-.13-2.56-.35-3.81-.29-1.65-2-3.34-3.45-3.27-3.37.17-6.73.51-10.67.84-2.11-.63-3.1-3.23-4.89-5-3.95-3.9-8.14-4.17-12.44-1.09-2,2.42-1.23,5.08-1.29,7.55-.19,9-4.28,16.33-9.51,23.3-1.85,2.46-8.29,5.13-9.28,5.12Z"/>
    <path class="cls-1" d="M608.31,549.18c-4.49-2.95-8.8-5.65-14.19-4.72-29.29,5-38.24-13.66-40.09-14.88-3.76-2.48-3.74-2.71.51-5.35a10,10,0,0,0,4.27-4.55c1.6-3.67.55-6.89-3.24-8.11-5.27-1.68-9.19-4.41-10.32-10.17-.36-1.85-1.82-2.78-3.2-3.77a10.12,10.12,0,0,0-7.16-2.23,24.75,24.75,0,0,1-10.09-1.14c-4-1.21-5.42-.21-7,3.3a35,35,0,0,0-3.22,17.49c.43,5.48,1.63,10.89.9,16.46-.07.57.76,1.55,1.41,1.87,2.16,1.08,2.89,2.28,2.25,5-1.13,4.79-.8,4.93,3.18,6.91.37.19.82.25,1.2.43,3,1.51,3.09,2.41.8,4.25-7.86,6.31,3.72,17.62,17.54,10.9a30.62,30.62,0,0,0,11.84-9.35,1.48,1.48,0,0,1,2.22-.37,2.63,2.63,0,0,1,.36,2.56,18.12,18.12,0,0,1-2.39,4.44c-2.37,3.18-5.92,4.82-9.34,6.59-15.67,8.06-22,19.88-18.46,36.72,2.07,9.91,3.74,20.21,10.62,28.45a8.51,8.51,0,0,1,1.55,3.48,14.67,14.67,0,0,1,.15,3.81c0,.37-.42,1-.67,1-.68,0-1.83,0-2-.36-1.61-3.49-2.85-7.18-6-10-4.77-1-20.21-2.51-22.81-8.81-2.85-7-16.76-13.18-21.7-14.62-.69-.19-2.19-.36-2.59.57-.51,1.19,1.1,2.36,1.94,3.2,2.42,2.41,5,4.64,7.53,7,.93.87,1.51,1.76.73,3.24s-2.51.64-3.66.39c-1.64-.35-12.48-4.8-16.52-5.74-.24,1.56-4.49,14.87-1.62,17.32a1.66,1.66,0,0,1,.56,1.13c-.1,4.22,2.88,6,6.06,7.42a60.54,60.54,0,0,0,22.29,5.41,53.64,53.64,0,0,1,18.53,4.43,102.23,102.23,0,0,0,17.15,5.16,24.58,24.58,0,0,0,15.07-1.4A16.18,16.18,0,0,0,561.17,639c.94-6.82.81-13.68-1.51-20.29-1.7-4.82-3.57-9.58-5.42-14.35-.62-1.6-1.4-3.12-2.09-4.69-.53-1.2.2-3.21,1.09-3s1.81.43,2.15,1c5.7,9.22,8.86,19.39,10.58,30a32,32,0,0,1-1.72,16.4c-3.63,9.84-13.88,17-25.42,14.74-3.35-.67-6.75-1.08-10.1-1.73-4.45-.87-8.39.33-12.3,2.35a23.28,23.28,0,0,0-11,12.07,141,141,0,0,0-5.26,15.78c-2.77,9.86-5.31,19.79-7.87,29.71-1.32,5.08-3.43,9.58-7.63,13a7.91,7.91,0,0,0-2.49,4.28c-.68,3.44-2.37,6.39-3.78,9.5-1.12,2.45-.15,3.71,2.87,3.63,3.85-.11,19.18-1.36,22.92-2.15,4-.84,5.66-3.12,5.83-7.25.07-1.69,0-3.38,0-5.29,1.72-1.8,3.5-3.62,5.23-5.48a47.82,47.82,0,0,0,11.6-22.53c1.17-5.2.86-10.18-1.8-14.91-.81-1.44-2.46-4.64-1.12-5.63,2.54-1.88,6,4.61,6.72,8a14.16,14.16,0,0,0,5.67,8.26c9.21,7.09,30.46,18.38,45.4,18.66,7.54.14,13.08-3.55,16.43-10.29,2.67-5.39,4.4-10.83,3.15-17.18a1.44,1.44,0,0,1,1.87-1.53c1.56.33,2.46,4,2.55,5.55.29,4.78-1.2,9.24-2.85,13.68a5.58,5.58,0,0,0,3.43,7.36c15.59,5.2,28.27-10.08,30.34-19.51,16-72.71,4-126.76-28.32-148"/>
    <path class="cls-1" d="M459.42,637.15a11.54,11.54,0,0,1-11,5.16c-9.91-.83-33.3-10.47-43-20.84a2.38,2.38,0,0,0-3.65,0c-1.2,1.09-.23,2.83.38,3.79,3.38,5.25,15.54,12.44,18.11,14s6,2,7,5.12c.83,2.56-5.29,14.87-2.61,30.19,2.18,12.49-9.41,23.32-23.85,20-7.28-1.66-13.37-5.42-20-8.35a1.91,1.91,0,0,0-2.41.57,2,2,0,0,0,.25,2.58c11.8,9.18,23.06,12.21,36.42,9.06,4.61-1.44,8.08-4.62,10.82-8.62,1.91-2.78,2.35-6.48,5.78-8.72,14.28,6.95,44.52,29.5,44.53,49.09,0,6.6-6.24,16.86-22.92,17-11.12.1-49.54-6.74-56.65-12.12-.43-3.4-.88-6.77-1.27-10.14-.19-1.64,1.77-3.44,3.18-2.93,5.6,2,11.08,4.37,17.09,5.19,2,.26,3.83,1.76,5.57,2.94a41.32,41.32,0,0,0,16.49,6.67c1.63.28,4.55.7,5.23-1.31.55-1.64-.18-3.89-2.72-3.8a31.56,31.56,0,0,1-17.5-7.26,14.33,14.33,0,0,0-9.41-3.27c-1.66,0-2.43-.72-4.43-3.44,1.34-2.14,5-7.7,5.33-8.44a1.89,1.89,0,0,0-.71-2.46,2,2,0,0,0-2.47.55c-2.11,2.08-3.84,4.58-6.09,6.48a8.78,8.78,0,0,1-13.3-2.32c-1.55-2.56-2.79-5.31-4.41-7.81-2.61-4-5.8-7.44-10.37-9.24-.83-.33-2.7-.12-3.15.89a3.22,3.22,0,0,0,1,3.42c13,9.15,29.19,50.15,2.73,53.93-25.53,3.66-57.13-17.12-58.8-18.44-3.28-2.6-6.95-3-10.9-2.52-4.66.61-9.32,1.23-14,1.76a11.36,11.36,0,0,1-6.25-.93,3.29,3.29,0,0,1-1.72-4.2c4.26-10.51,24.33-22.47,29.44-25.55,1.59-1,7.23-.4,7.6,4.57.4,4.45,2.37,6.75,7.07,7.32,2.95.36,5.1,2.94,7.08,5.25a41.54,41.54,0,0,0,14.05,10.95,26.44,26.44,0,0,0,7.13,2.12c.46.08,2.17-.35,2.44-1.6a2.74,2.74,0,0,0-1.25-2.54,29.8,29.8,0,0,0-4.52-2.26,39.7,39.7,0,0,1-17.23-14.87,29.24,29.24,0,0,1-5.42-15.53c-.14-4.46.88-8.19,4.15-11.59,15.26-14,32-50.52,31.47-71.45a18.37,18.37,0,0,1,3.4-10.81c5.2-7.82,7.1-19.17,15.6-23.82,6-3.29,14.17-6,20.72-2,8.1,5,13.5,13.45,20.81,20.14,8.15,7.46,16,15.5,20.42,26.13.46,1.13,2,4.14,4,3.05,2.18-1.21,1.11-4.09.58-5.17-2.06-4.21-4.28-8.34-6.6-12.81.32-1,7.33-15,6.77-22.32-.38-5,1.77-15.12,1.77-15.12,1.68-.28,5,1.35,7.15,1,5.77-1,7-8.37,10.35-12.69a1.63,1.63,0,0,1,2.82.28c.3.78,3.89,8.39,7.18,11,3,2.41,3.9,6.13,1.62,10.37-3.64,6.76-10.59,16.31-12.33,19.53s-1.36,6.8-1.5,10.6c-.1,2.46-6.95,20.65-11.15,26.6"/>
    <path class="cls-1" d="M546.41,474.27a36.94,36.94,0,0,1,4.08-4.54,45.45,45.45,0,0,1,6.36-4.11c1.4-.8,3.55.61,3.55,2.32,0,.85-.28,1.69-.26,2.54,0,1.61,1.11,2.46,2.4,1.9a35.44,35.44,0,0,1,3.37-1.7c2.26-.71,4.12.18,5.68,1.87s2.25,3.58,1,5.77c-.42.73-1,1.37-1.4,2.13a1.86,1.86,0,0,0,1.6,2.64c1.7-.1,3.4-.46,5.1-.43a8.22,8.22,0,0,1,7.7,9.63c-.44,2.06-1.25,4-1.65,6.12-.09.45.79,1.19,1.35,1.63a1.28,1.28,0,0,0,1.17-.3c1-1.36,1.84-2.85,2.88-4.17a3.77,3.77,0,0,1,2-1.29c1.61-.36,2.13,1.07,2.72,2.14,3.5,6.29,2.64,12.25-1.4,18a1.4,1.4,0,0,0,.48,2.22,1.65,1.65,0,0,0,1.17.18,19.89,19.89,0,0,0,2.3-.95c3.07-1.31,4.9-.36,5.19,2.77a22.2,22.2,0,0,1,.1,3.82,5.3,5.3,0,0,1-3.45,4.93c-2,.72-4,1.28-5.95,1.9-.06.51-.27,1-.13,1.27,1,2.14,3.54,3.86,1.58,6.7-1.64,2.41-4.3,2.79-6.77,3-3.41.22-6.88-.22-9.62-2.62-2.18-1.93-3.57-.86-5.34.69a3.9,3.9,0,0,1-3.49.19c-2.26-1.08-4.37-2.34-3.74-5.72.32-1.75-1.67-2.61-3.15-3.52-2-1.23-2.23-2.35-1.5-4.14,1-2.35,2.29-4.61,2.83-7.05,1.08-4.87-.83-8.3-5.27-10.4a5.51,5.51,0,0,0-1.18-.48c-5.54-1.25-7.92-4.35-6.42-10.18.5-1.93-.57-2.84-2.76-3.36-.41-.09-.89,0-1.27-.09-3.15-1.08-6.21-2.62-9.44-3.19-2.87-.52-5.93.08-8.91.08a9.28,9.28,0,0,1-2.47-.6c-1-.29-2.77-2.68-2.92-3.9a4.43,4.43,0,0,1,2-4.39,23.1,23.1,0,0,1,5.9-2.32,8.94,8.94,0,0,0,5.23-3.34c2.83-3.89,6.46-3.44,10.72-1.58"/>
    <path class="cls-1" d="M384.26,561c-.61-1.05-2.12-1.25-3.24-1.82a4.5,4.5,0,0,1-2.62-4,18.93,18.93,0,0,1,.32-5c.67-2.86-.63-4.61-2.4-6.69-2.93-3.44-1.37-7.58,2.89-8.78,1.2-.33,2.57-.2,3.5-.78,1.78-1.11.85-3.27.74-5-.29-4.41,1.07-6.74,4.54-8.12a18.24,18.24,0,0,1,4.87-1.32,9.86,9.86,0,0,0,5.69-2.47c8.09-6.71,16.92-7.1,26.23-2.84,2.48,1.14,3.17,3.95,1.57,6.4a5.23,5.23,0,0,1-.73,1,10.88,10.88,0,0,0-3.57,10.4,8.54,8.54,0,0,1-4.5,9.61,11.18,11.18,0,0,0-2,1.62c-.73.67-.78,2.76.17,3.31,3,1.75,3.88,4.31,3.31,7.54-.51,2.92-1,5.84-1.65,8.75a6,6,0,0,1-9.1,3.53c-1-.71-1.69-1.86-2.64-2.68-1.47-1.27-3.31-.55-3.73,1.44-.17.82,0,1.71-.15,2.54-.36,2.16-1.44,2.82-3.42,2-.78-.3-1.43-.94-2.21-1.25-2-.82-2.32-.68-4.18,1.47-.55.63-.8,1.67-1.64,2-5.92,2.11-3.63-6.68-6.09-10.88"/>
    <path class="cls-1" d="M427.23,528.49c1-3.42,4.48-9,7.7-7.89,5.19,1.85,13.47,14.45,12.49,25a6.09,6.09,0,0,1-1.81,3.19c-.92.8-8.25,3.48-10.41,4.82-.86.53-2.16,2-1.7,3.15,1.58,4,7.86.86,11.69.59s5.68,2.31,3.91,5.64c-1,2-1,3.77-1.2,5.84-.14,1.68-4.07,2.62-4,5.06.07,1.65,2.32,2.31,3.44,3.46,2.09,2.13,1.64,5.06.07,7.05-3,3.76-12.23,10-17.69,7a36.84,36.84,0,0,1-16-16.08c-1.6-3.12,3.58-3.84,5.44-5.35,2.1-1.71,3.67-3.78,3.87-6.4.41-5.49,2.66-10.8,1.52-16.46a5.54,5.54,0,0,1,.45-3.74c3-4.66.72-10,2.18-14.93"/>
    <path class="cls-1" d="M560.19,721.31c.19,6.21-18.25,23.36-28.42,23.36-4.26-.15-8.53-.26-12.77-.67-3.81-.36-6.8-6-2-11.94,5.77-7,10.86-14.22,13.69-22.91.49-1.49,1.18-4.78,2.65-4.08,12.67,6.07,17.43,9.9,25.92,14.77a1.58,1.58,0,0,1,.88,1.47"/>
    <path class="cls-1" d="M513.06,552.92a4.18,4.18,0,0,1,1.11,2.13,10,10,0,0,0,5.91,7.79c2.27,1.1,4.68,1.9,7,2.84,1.83.74,2.48,2.49,1.48,4-1.4,2.11-2.46,5.31-5.37,5.3-4.34,0-7.22-4.33-10.12-7.37a31.57,31.57,0,0,0-11.6-7.53,32.58,32.58,0,0,1-20-21.64c-.21-.68-.19-2,.52-2.39s1.58.22,2,.68c1.39,1.58,2.58,3.34,3.89,5,2.56,3.26,3.14,3.34,7.46,1.38a19.66,19.66,0,0,1,3.54-1.34c1.62-.39,1.81,1.16,1.29,2.29-.34.73-1.17,1.24-1.57,2-.61,1.11,0,3,1,3.22,4.49,1.09,10.07.17,13.43,3.66"/>
    <path class="cls-1" d="M525.76,127.05c-2.15,0-4.27,0-6.4,0-1,0-2.48-1.76-2.29-2.64a24.69,24.69,0,0,1,.87-3.66c1.71-4.34,3.57-8.63,5.3-13C527.81,96.32,529.11,94,530.32,95c3.76,3.13,4.15,8,6.1,12.11a45.43,45.43,0,0,1,3.14,8.32,21.58,21.58,0,0,1,.23,6.28,4.68,4.68,0,0,1-3.91,4.37c-3.38.36-6.77.63-10.12.93"/>
  </g>
</svg>
