<svg id="Livello_1" data-name="Livello 1" xmlns="http://www.w3.org/2000/svg" viewBox="0 0 841.89 841.89">
  <defs>
    <style>
      .cls-1 {
        fill: #231f20;
      }
    </style>
  </defs>
  <title>Glos</title>
  <g>
    <path class="cls-1" d="M379.55,594.82a36.76,36.76,0,0,1-4.5.23c-7.27-.66-13.69-3.27-18.72-9.13-1.84-2.16-3.83-4.17-5.83-6.17-5.15-5.16-9-11.11-10.47-18.59-1.55-7.77-4.89-14.69-8.92-21.36-7.47-12.35-14.69-24.87-22-37.32-1.44-2.45-2.42-3.2-3.4-2.28-1.56,1.49-.16,2.77.5,4,2.81,5.25,5.69,10.47,8.87,16.28-3.1,0-5.66,0-8.23,0A14.68,14.68,0,0,0,298,523a19.78,19.78,0,0,0-5.06,5.18c-4.45,7.18-8.51,14.64-12.95,21.83s-2,14.22,3.24,18.46c3.47,2.82,5.59,6.54,7.42,10.53,1.18,2.59.88,4.51-.66,5.82a4.86,4.86,0,0,1-1.51.55c-.55-1.47-1-2.89-1.59-4.22a18.07,18.07,0,0,0-6.05-6.86c-.85-.65-1.71-1-2.52.05s-.41,1.89.38,2.64,1.72,1.38,2.49,2.16c1.55,1.57,3,3.24,3.22,6-6.08-.35-11.69-1.19-14.7-7.59a20.7,20.7,0,0,1-1.41-5c-.35-2-.18-4.09-.7-6a18.35,18.35,0,0,0-2.57-5.67c-2-2.75-2.35-4.6-.77-7.55a16.66,16.66,0,0,1,1.66-2.47,59,59,0,0,0,9.19-17.9c1.76-5.23,3.35-10.53,5-15.8a10.29,10.29,0,0,0,.29-1.09c.66-3.46-.39-5.22-3.69-6.1-7.06-1.89-14.14-3.69-21.18-5.66a239.58,239.58,0,0,1-33.12-12.18c-10.12-4.52-20.36-8.8-30.29-13.75-12.1-6-24-12.58-35.87-19-5.31-2.88-10.47-6.09-15.71-9.11-2.76-1.59-3.06-1.4-4,1.61-2.34,7.38-6.1,13.95-10.31,20.29a196.58,196.58,0,0,1-21.14,26.26c-.43.44-.84.9-1.26,1.35-3.38,3.57-5.32,7.15-3.35,12.73s2.59,11.79,3.92,17.69c1.26,5.61,4.42,10,8.44,13.76a60,60,0,0,0,11.65,8.77A16.88,16.88,0,0,1,128.3,556a2.23,2.23,0,0,1,.27,2,2.08,2.08,0,0,1-1.78.86,11,11,0,0,1-4-1.45c-2.28-1.58-4.38-3.47-6.53-5.27-.65-.54-1.14-1.47-1.86-1.72a2.42,2.42,0,0,0-2.2.47,2.55,2.55,0,0,0,0,2.27,12.54,12.54,0,0,0,2.33,2.33c1.85,1.75,3.72,3.49,5.63,5.28-3.91,2.76-7.17,2.91-10.32-.06-4.37-4.11-8.53-8.48-12.59-12.94-2.88-3.15-3.6-7.41-4.12-11.53a50.23,50.23,0,0,0-6.35-19.15,50,50,0,0,1-4-9.28c-1.9-5.79-1.12-11.23,2.79-15.95,2.6-3.14,5.35-6.14,7.87-9.35A21.38,21.38,0,0,0,98,465.22c-.12-.74-.3-1.48-.44-2.22-1.62-8.28-4.07-16.39-4.5-24.91a21,21,0,0,0-.55-2.5,20,20,0,0,0-1.87,2.76c-2.16,5.07-4.19,10.19-6.38,15.24-1.84,4.25-3.94,8.38-5.74,12.64-2.24,5.27-9.81,6.87-14.06,5.52a4.92,4.92,0,0,1-3.5-5.14,39.53,39.53,0,0,1,.81-7.13c1.68-7.75,3.48-15.47,5.3-23.19.52-2.2,1.21-4.35,1.94-6.49a13.55,13.55,0,0,1,5.55-7.21c2.93-1.92,5.88-3.81,9.26-6-.38,1.58-.7,2.62-.87,3.7a16,16,0,0,0-.24,3c0,1.09.48,2.17,1.65,1.95.58-.11,1.22-1,1.45-1.75.68-2,.87-4.24,1.78-6.09a61.1,61.1,0,0,1,5.31-9c6.52-9,13.78-17,23.4-22.57,7.32-4.21,14.89-5.11,22.89-3.9a113.83,113.83,0,0,1,28.49,8.68c17.76,7.76,35.52,15.55,53.35,23.15,8,3.4,16.09,6.39,24.14,9.55.45.18.92.28,1.37.46,5.4,2.06,9.92.73,14.1-3.44a57.12,57.12,0,0,0,15.63-28.79c2-9.07,4.54-18,6.87-27.12,2.22,4,4.17,8.08,6.6,11.79,2.63,4,6.4,6.77,10.47,9a30.14,30.14,0,0,0,12.67,3.83c4.38.29,8.79-.06,13.6-.13-.11,2.66-.17,5.64-.38,8.62-.58,8.32-1.09,16.65-1.86,25a22.76,22.76,0,0,0,5.6,17.71A50.17,50.17,0,0,1,340,458.8a144,144,0,0,1,4,17.66,97.62,97.62,0,0,1-.34,34.68,24.56,24.56,0,0,1-.83,2.9c-.1.3-.41.51-.74.9-2.16-5.35-4.29-10.51-6.29-15.73a5.45,5.45,0,0,1,0-2.92c4.74-22.16-1.95-40.81-15.79-57.22a77.58,77.58,0,0,0-5.73-5.74c-.75-.73-1.65-1.16-2.5-.13a1.8,1.8,0,0,0,.26,2.66c.86.88,1.76,1.71,2.63,2.58a65,65,0,0,1,18.55,35.15,54.08,54.08,0,0,1,.24,17.36,7.83,7.83,0,0,1-.72,1.64c-3.18-5.43-6.28-10.5-9.18-15.7-7.67-13.75-17.63-25.16-30.58-33.5a84.42,84.42,0,0,0-8-4.13c-.42-.21-.92-.27-1.37-.44-1.31-.49-2.51-.33-2.89,1.21s.8,1.82,1.84,2.3c3.26,1.53,6.68,2.82,9.66,4.82,6.81,4.59,12.43,10.68,17.68,17.11,3,3.64,5.71,7.48,8.49,11.28,8.3,11.34,13.72,24.23,18,37.72a146.61,146.61,0,0,0,7.79,19.94,60.59,60.59,0,0,1,3.77,9.81c3.34,11.82,10.38,20.62,19.74,27.57,5.09,3.78,10.37,7.29,14.59,12.22a26.23,26.23,0,0,1,3.18,4.54c.39.72.46,2.38.06,2.67a3.68,3.68,0,0,1-2.91.44,4.78,4.78,0,0,1-2.16-1.82,78.8,78.8,0,0,0-13-13.52c-.38-.31-.64-.86-1-1-.63-.23-1.7-.51-1.93-.21a2.77,2.77,0,0,0-.48,2.3,9.87,9.87,0,0,0,2.44,2.68,57.88,57.88,0,0,1,11.13,11.77,40.32,40.32,0,0,1,2.1,4.17"/>
    <path class="cls-1" d="M285.14,355.05c-2.83,0-5.57,0-8.31,0-3.43,0-4.7-2-3.31-5.35a13.06,13.06,0,0,1,5.66-6.13,44.7,44.7,0,0,1,14-5.56,77.23,77.23,0,0,1,31.67-.2c-1.34.58-2.09,1-2.88,1.24a47.69,47.69,0,0,0-16.3,8.49,38.73,38.73,0,0,0-6.54,6.93c-2.26,3.12-2,4.41.58,8l2-4.27c5.87,5.9,10.73,6.71,15.19,2.65,4.29-3.9,4.31-9.54-.13-16.12,5.88-2.71,11.87-5.1,18.23-4a27,27,0,0,1,10.82,4.68c4.95,3.57,10.37,5,16.07,5.83,5,.7,10,1.08,15,1.61a16.78,16.78,0,0,1,2.13.29c4.27,1.09,5.76,4,3.88,8.19-2.08,4.63-5.17,7.94-10.56,7.36-3-.31-5.9-.86-8.86-1.1a29.43,29.43,0,0,0-6,.12c-.52.06-1.32,1.24-1.27,1.84s1.06,1.33,1.7,1.4c5.9.61,11.82,1.1,17.93,1.64-1.34,4.73-4.82,6.54-9,7.34a14.77,14.77,0,0,1-3.58.05c-8.71-.48-17.42-1-26.13-1.5a6.89,6.89,0,0,0-5.32,1.68C320,390.69,304.58,385.8,296,378a30.52,30.52,0,0,1-9.88-19.2c-.1-.75-.2-1.5-.36-2.24a11.56,11.56,0,0,0-.6-1.51"/>
    <path class="cls-1" d="M124.28,482c5.74-8.94,11.28-17.77,15.31-28.07,2.38,1.42,4.67,2.66,6.8,4.16a4.35,4.35,0,0,1,1.36,2.55c.72,3.57,1.76,7.16,1.8,10.76.08,6.55-.48,13.1-.77,19.66-.18,4-.39,8.07-.54,12.1a30.74,30.74,0,0,0,2.49,13.26c.73,1.72,1.25,3.54,1.81,5.34,2.77,9,7.27,16.79,14.29,22.7a59.79,59.79,0,0,0,8.85,5.64c3.44,2,7,3.75,10.43,5.81,1.4.85,3.16,2.09,2.64,4.08-.57,2.23-2.8,2.58-4.67,2.81-2.77.34-5.17-1-7.26-2.7s-3.9-3.72-5.92-5.48c-.42-.36-1.63-.47-1.83-.18a3.62,3.62,0,0,0-.5,2.3c.06.51.68,1,1.11,1.43,1.1,1.16,2.23,2.28,3.33,3.44.4.41.73.89,1.4,1.73a11.87,11.87,0,0,1-7,.06,72.83,72.83,0,0,1-9.61-4,14.34,14.34,0,0,1-7.37-9.32,35.25,35.25,0,0,0-10-16.78c-.89-.83-1.67-1.8-2.53-2.69-4.79-5-7.23-10.83-6.58-18.06.35-3.89.21-7.83.47-11.74a16.08,16.08,0,0,0-2.22-9.38c-1.74-3-3.44-6.05-5.34-9.4"/>
    <path class="cls-1" d="M273.8,342.64a13.16,13.16,0,0,1-.89,1.64c-.6.78-1.24,1.52-1.94,2.37-2.87-.64-5.73-1.48-8.65-1.89a59,59,0,0,0-8.2-.42,8.06,8.06,0,0,0-2.53.92c2.06,3.13,2.06,3.13,17.89,5.28.07,1.49.15,3.06.23,4.8a33.66,33.66,0,0,1-12.64-.32,37,37,0,0,1-13.15-4.62c-2.07-1.27-4-2.72-4.54-5.55a9.11,9.11,0,0,1,5.86-4,42.93,42.93,0,0,1,23.68-.13c1.56.45,3.05,1.18,4.88,1.91"/>
    <path class="cls-1" d="M304.62,354.37c2.48-1.94,5-4,7.59-5.91,1.43-1.06,2.63-.62,3.59.92a6.44,6.44,0,0,1,.24,7.08,5.76,5.76,0,0,1-6,3.15c-2.76-.32-4.54-1.88-5.4-5.24"/>
  </g>
  <g>
    <path class="cls-1" d="M761.29,364.86a6,6,0,0,1,4.75,1.59l.79.69c4.63,4.83,9.56,15.16,4.25,24.07-2.08,3.5-4.73,4.29-7.12,3.31a1.07,1.07,0,0,1-.61-1.12,1.34,1.34,0,0,1,.81-1.07c5.69-2.33,6.59-12.55.62-14.62a.79.79,0,0,0-1,1.06,5.25,5.25,0,0,1,.36,2.54.8.8,0,0,1-1.44.36c-4.67-6.16-6.22,3-1.84,6.28a1.38,1.38,0,0,1,.46,1.56c-1.13,3.2-4.76-.09-5.91-2.74-3.89-9,3-15.18,10.93-12.51a.65.65,0,0,0,.79-.85c-.72-2.18-2.22-4.87-4.19-5.31-5.53-1.24-14.36-.26-20.25-.54-3.85-.19-7.73-.89-11.58-1.29a1,1,0,0,0-1.1,1c-.49,4.52-4.35,11.21-6.19,11.29-4,.19-8.53-8.84-11-16-.72-2.08-3.42-7.53-1.1-8.29a1.11,1.11,0,0,1,1.38.81c1.76,6.42,4.79,14.32,9.21,18.9a.81.81,0,0,0,1.19,0h0c8.16-7.19-5.15-23.65-14.07-27a.74.74,0,0,0-1,.87c1.12,6.6.12,13.38.59,20,.32,4.64,3.22,12.83,5.95,16.52,6.21,8.4,13.55,5.63,22,8.05,3,.86,5.34,2.39,8,3.82.09.84-.86.34-1.29.24-1.06-.26-2.13-.84-3.27-1-13-2.13-36.91,6.22-35.64-16.43.56-10.14,2.76-22.17-.1-34.8-1.35-6-9.22-1.69-12.38,1-23.16,20-39.66,49.63-55.3,76.19-.32.72-1.6,1.14-2.09.45a1.75,1.75,0,0,1-.09-1.38c.4-1.28,5.06-8.5,6.49-11.44a.46.46,0,0,0-.61-.63c-3.47,2.06-6.88,4.07-10.83,5-21.21,5.09-48-.7-68.93-5.91-34.58-8.57-64.69-31.62-101.22-15.55-25.17,11.07-35.61,36.62-39.73,63.56-2.84,18.61-4.26,37.45-2.6,56.27.43,4.93,2,11,2.12,15.68.25,7.44-1.06,11.59,2.17,19.14,1.46,3.43,3.93,5.15,5.38,7.74A19.83,19.83,0,0,1,428,557a.76.76,0,0,0,1.45-.21l.19-1.13a.64.64,0,0,1,.83-.53l.67.24a.65.65,0,0,0,.78-.9,7.64,7.64,0,0,1-.89-2.93c0-1.76,1.05-3.79,1.23-5.41,1.09-9.61-7.05-13.68-7.6-21.42-1-14.66,6.85-27.06,11.34-39.93,5.29-15.15,9.3-37.35,10.46-53.4.16-2.16,0-6.08,2.09-6.62,2.8.48.47,11.38-.07,15.78a3.42,3.42,0,0,0,.55,2.33c5.41,8,6.24,17.57,6.14,27.28-.07,6.84.37,23.46-1.27,29.07-3,10.29-16.49,11.71-17.39,22.33-.83,9.84,7.77,22.67,9.28,34.06.36,2.77.4,12.58,1.95,14,2.58,2.42,7.05-2.76,6.87-4.8,0-.49.08-.59.41-.63a.6.6,0,0,1,.63.41,17.29,17.29,0,0,1,1.16,3.5c.47,3.56-.89,6.6.26,10a10.79,10.79,0,0,0,5.58,6.17c1.92.91,12.1,3.94,14,4a4.34,4.34,0,0,0,4.25-3.37.71.71,0,0,1,1-.49,22.3,22.3,0,0,0,4.74,2.3c3.33.85,6.05.8,3.59-3.34-5.45-9.2-12-12.31-19-18.86-8-7.44-10.31-22.26-8.26-32.89,1.8-9.36,10.37-23.92,19.39-26.91,1.37-.46,3.89-.4,2.66,1.46-.19.27-4.56,2.27-5.63,3a24.84,24.84,0,0,0-3,2.47,1.79,1.79,0,0,0,.25,2.77c2.17,1.37,2.23,5.33,3.37,8.14,1.39,3.44,5,9,8.9,9.29,2.48.16,3.44-1.45,4.13-2.7a1.73,1.73,0,0,1,2.46-.67,13,13,0,0,0,4.37,2.16c1.88.34,4.41.26,4.69-2.29a101.37,101.37,0,0,0,.24-12.24c-.06-1.44-.56-7.4.23-8a1.23,1.23,0,0,1,1.47-.22c1.81.74.82,25.47,1.15,28.82,1.14,11.6,11.49,14.92,17.94,22.63,4,4.8,6.81,11.52,11.91,15.14,2.08,1.48,4.68,2.28,6.78,3.57,7.6,4.7,10.33,14.64,19.93,16.51a19.75,19.75,0,0,0,10.67-.57c2.34-.84,6.77-3.32,7-6.32a.84.84,0,0,1,1.21-.74h0a1.36,1.36,0,0,0,1.64-.29c1.49-1.64,3-4.32,2.19-6.28-1.48-3.42-17.78-10-21.71-10.15-4.22-.17-4.43.3-6.85-.82-1.58-.74-9.55-9.46-11.23-11.39-8.84-10.21-12.27-16.9-14.52-30.72-2.41-14.74-2-23.67-8.89-37.56C521,484.11,517,477.15,511.61,474a1.87,1.87,0,0,1-.91-1.44.87.87,0,0,1,.77-1c2.52-.17,6,2.93,7.59,4.78,5.49,6.47,7.66,15.83,17.58,16.39,5.65.33,5.37-3.33,3.23-7.46-.67-1.3-6.46-8.23-3.24-8.21,1.12,0,4.79,6,6.16,8.72a1.91,1.91,0,0,0,1.58,1.09c6.39.35,12.17,4.11,18.07,6.31,15.8,5.89,32.9,12.18,49.23,16,18.92,4.37,38.76,4.44,57,11.47.19.07.43.1.48.29s0,.35-.25.68a68,68,0,0,0-3.47,6.18c-2.45,5.5-2.2,11.28-4.5,17.15-2.12,5.38-9,15.81-9.71,20.6-.84,6.05,4.56,6.3,8.8,6.7a1,1,0,0,1,.7,1.43c-2.4,4.3-10.24,10-10,13.65.18,2.9,2.77,3.2,5,3.69,9.61,2.17,21.09,2.2,30.46-1.09,1.7-.59,3.63-1.1,4.81-2.63a1.28,1.28,0,0,0,.11-1.38,16.22,16.22,0,0,0-2.7-3c-2-2-4.47-4.18-6.58-6-1.8-1.57-6.23-3.93-7.81-6.06-1.86-2.5,1.78-11.82,3.16-14.54,2.68-5.28,6.89-9.48,10.05-14.42A51.81,51.81,0,0,0,695,522.44a1.84,1.84,0,0,0-.3-1.35c-2.11-3-6.82-9.4-7.54-13.49a2.7,2.7,0,0,1,1.17-2.74,1.2,1.2,0,0,1,1.4.09,1.47,1.47,0,0,1,.37,1.47,4.85,4.85,0,0,0,.36,3.64c2.62,7.13,10.94,16.71,16.86,20.63,4.06,2.69,3,2.32,6.05,5.69,8.28,9.09,15.29,13.18,10.61,28.18-1.33,4.26-8.28,14.9-.24,15.86,4.18.5,6.79-3.75,10.71-.57,3.72,3-2.6,7.55,1.8,10.61,2.27,1.57,11.4,2,14.14,1.55,1.75-.28,3.29-2.1,4.88-2.47s2.49.33,4,.24c2.31-.15,4.24-1.42,3.57-4.11-.5-2-8.76-9-10.78-10.54-1-.79-5.85-3.6-6.27-4.1s-.11-2.12-.4-3.16c-.64-2.31-3.18-5.81-4.16-9.47-3.32-12.42-4.21-26.83-6.7-39.72a16.94,16.94,0,0,1-.17-5.27c1-8.06,5.13-15.15,5.71-23.56,1.36-19.41-7-33.13-11.68-50.66a5.63,5.63,0,0,0-2.89-3.59c-4.25-2.11-11.42-7-11.26-10.14,0-.47.26-.68.66-.68,1.8,0,2.73,2.22,4.22,3.59,2.35,2.18,7.79,5.79,10.77,6.5,4.92,1.18,10.25-.06,15.16-1.53a2.47,2.47,0,0,1,3.11,1.9c.78,3.71,4.49,5.58,8.26,6,1.92.23,4-.2,5.89,0,1.4.17,2.45,1.11,3.84,1.31a18,18,0,0,0,3.37,0,1.36,1.36,0,0,0,1.16-1.86A45.6,45.6,0,0,1,768,421c.15-1.32.48-2.38,1.32-2.34a1.25,1.25,0,0,1,1.09,1.4c-.56,5.72,0,17.41,3.08,21.42,1.17,1.55,4.82,1.24,7.38.52a1.17,1.17,0,0,0,.46-1.95c-7.49-7.4-8-21.88,4.52-20.54a1.26,1.26,0,0,0,1.22-1.79c-1.6-3.81-4.24-7.54-4.69-11.58-.28-2.55.09-5.38,0-8-.11-2-.9-4.29-.88-6.26,0-2.63,1.45-5.48,1.68-8.11.66-7.52-3.77-13.79-9.62-17.45a13.27,13.27,0,0,1-6-12.17c0-.3,0-.55,0-.74-.24-7.74-7.4-13.36-14.21-14.08-13.41-1.42-26.84,5-40.25,4.93a.43.43,0,0,0-.27.74c3.54,3.36,8.06,5.4,10.7,9.72a.74.74,0,0,0,1.29,0,30.5,30.5,0,0,1,6.11-7.33c.84-.71,4.26-3.56,5.09-2.26a1.85,1.85,0,0,1,0,1.82c-.19.33-4.93,3.34-5.94,4.46-2.93,3.28-3.8,4.8-4.31,6.65a1,1,0,0,0,.22,1l2.59,2.84a.62.62,0,0,0,1.05-.19,50.28,50.28,0,0,1,5.14-9.77c.56-.77,2.5-3.39,3.88-4.16a.94.94,0,0,1,1.26.35,1.13,1.13,0,0,1-.14,1.37c-2.22,2.3-7.16,10-7.85,13a1,1,0,0,0,.77,1.16l4.2.52a.84.84,0,0,0,.88-.52,50.84,50.84,0,0,1,2.93-5.86c1.05-1.76,4.28-6.89,6.49-7.6a1.32,1.32,0,0,1,1,.1c2.08,1.1-1.2,2.8-2.27,4.1a45.7,45.7,0,0,0-5.46,8.94.7.7,0,0,0,.51,1l3.37.41a.86.86,0,0,0,.9-.6,32,32,0,0,1,4.93-8.86c1.05-1.34,4.21-5.3,5.93-4.05s-.93,2.32-2.16,3.12c-2.59,1.69-4.67,6.32-6,9.57a.69.69,0,0,0,.61,1Z"/>
    <path class="cls-1" d="M787.91,422.56c-11.34-3.83-11.63,9-5,15.43a2.1,2.1,0,0,0,3.27-.46,21.41,21.41,0,0,0,3.18-13,2.24,2.24,0,0,0-1.48-2"/>
  </g>
</svg>
