<svg id="Livello_1" data-name="Livello 1" xmlns="http://www.w3.org/2000/svg" viewBox="0 0 841.89 841.89">
  <defs>
    <style>
      .cls-1 {
        fill: #231f20;
      }
    </style>
  </defs>
  <title>Glos</title>
  <g>
    <path class="cls-1" d="M267.16,338.79c-1.64-.1-3.3-.21-5-.3-12.49-.76-22.31-6.08-30.19-14.62a2.08,2.08,0,0,1-.18-2.09,2.77,2.77,0,0,1,2.18-.6c13.79,2.28,27.69,1.78,41.59,1.54a18.52,18.52,0,0,0,8.42-2c14.1-7.23,29.32-8.86,45.2-7.41a92.65,92.65,0,0,1,36.83,11,65.94,65.94,0,0,1,26.82,27.11c4.69,1.05,9.6,2,14.42,3.25a93.31,93.31,0,0,1,33.4,15.59,23.44,23.44,0,0,1,4.11,4.28c.37.47.14,1.49-.13,2.15a5.25,5.25,0,0,1-1.5,1.81c-7.13,6-15.85,8.76-25.3,9.05-4.94.15-10-1-14.9-2.09-5.29-1.2-10.41-3-15.59-4.59-2.33-.7-3.92-.25-5.18,1.85-1.39,2.3-2.57,4.71-4,7.37,2.52,1.34,86.47,27.23,192.63,13.5,14.7-.92,46.24-5.49,58.84-7.08,96.35-12.2,113.25,91.17,125,101.67,10.1,9.06,13.57,20.2,12.93,32.33-1.37,26.37-33.48,69.73-37.85,68.09-3.5-1.31-8.11-14.26-7.11-17.16.36-1,7.79-8.39,9.64-11.35a114.94,114.94,0,0,0,15.47-37.28c1.1-5.23,1.62-10.58-.07-15.84-.17-.55-1.1-.95-1.75-1.31-1-.53-1.62-.2-1.87.83a9.75,9.75,0,0,0-.57,2.18c0,14.8-4.91,28.52-11.45,41.85a50.88,50.88,0,0,1-8.42,12.71c-.82.87-1.76,1.64-2.66,2.43-1.07.94-3.55,1.19-4.63.25-10.4-9.08-23.11-10.37-36.49-8.49-12,1.69-18.77,5.82-31.07,16.14-4.62,3.87-14.38.29-20.26-1.89-26.29-9.77-44.12-27.39-56.6-49.94a55.33,55.33,0,0,1-5.77-17.45c-.09-.51-1-1.18-1.74-1.31-2.34-.38-2.53.77-2.57,1.85a16.06,16.06,0,0,0,.7,6.77,70.52,70.52,0,0,0,9.85,21,131.66,131.66,0,0,0,28.59,30.34q3.81,3,7.49,6.1c.19.15.12.69,0,1s-.43.72-.69.73c-2.93.14-5.88.26-8.81.28-8.44,0-141.43,2.62-189.47,2.49a60.88,60.88,0,0,1-7.52-.5c-.47-.06-1.26-1.33-1.08-1.74a46.41,46.41,0,0,1,2.85-5.09,68.52,68.52,0,0,0,8.14-21.54c.39-1.84.64-3.76-.4-5.58a1.52,1.52,0,0,0-2.07-.78c-.89.32-2.1,2.55-2.27,3.63a63,63,0,0,1-6,18.57,23.18,23.18,0,0,1-5.64,7.53c-4.1,3.5-8.48,5.68-14.58,5.47-15.58-.52-31.18-.44-46.77-.65-2.95,0-5.91-.16-8.83-.47-18.91-2-37.89-.9-56.84-1a4,4,0,0,0-2.25.73,2.61,2.61,0,0,0-1.06,1.85c0,.56.78,1.53,1.28,1.56,4.18.31,8.37.48,12.57.63,2.09.07,4.18,0,6.62,0-.39,3.56-16,2.88-22.29,3.5a8.09,8.09,0,0,1-5.92-1.43,22.93,22.93,0,0,0-8.74-4.41c-1.15-.27-3.65-.69-4.62,1-.37.64-.54,2.63,2.64,3.48,3,.79,5.45,2,7,4.49,1.18,1.93,3.15,2.5,5.3,2.42,7.57-.3,84.47-5.18,87-4.94,2.76.26,8,5.31,9.1,5.8a6.71,6.71,0,0,0,6.05,0,58.84,58.84,0,0,0,6.25-3.81,10.55,10.55,0,0,1,7.05-1.94c3.78.2,7.94-1,11.45.59,2.36,1,3.71,3.31,5,5.22,3.74,5.61,8,10.73,14.12,14.41a4,4,0,0,1,1.45,1.82,3.09,3.09,0,0,1-.18,3.25,9,9,0,0,1-7.44,3.73c-5.46,0-10.94-.19-16.38-.65a59.26,59.26,0,0,1-11.13-2c-4.15-1.18-8.36-1.81-12.45-.9-11,2.45-21.92.79-32.62-.88-13.41-2.09-26.79-2.43-40.27-2.25q-18.33.25-36.66.52c-2.95,0-5.9,0-8.85,0a12.77,12.77,0,0,1-10.8-6.75c-3.33-6.49-3.29-13.27-2.15-20.17.85-5.15,3.79-9.18,7.85-12.71,6.46-5.62,14-9.69,22-13.19,12.21-5.35,25.14-8.62,38.36-11,19.57-3.55,39.32-3.85,59.13-2.18,3.74.32,7.43,1.08,11.15,1.58.33,0,1.05-.18,1.07-.55.11-1.61-2.86-2.86-4.37-3.15-16-3.51-39.76-3.32-47.71-2.71C292,544,270.09,549,249.74,558.91a74.27,74.27,0,0,0-15.42,9.9c-5.41,4.54-9.3,9.81-10.81,16.42-.43,1.86-.91,3.7-1.4,5.55-.21.78-2.26,1.69-3.13,1.32-31.33-8.11-48.48-71.64-55.62-92.92-.65-1.91-4.71-2.68-6.73-1.9-24.39,10.17-23.42,55.77-25.08,59.75-1.51,3.6-4.44,5.49-8.73,5.17-8.64-.65-16.41-3.15-22.75-8.77-2.7-2.4-3.35-4.58-1.32-7,21.86-17.91,22.43-72.12,47.78-82.7,9.34-3.9,17.66-3.6,25.88,2.22,4.06,2.86,6.8,6.73,9.4,10.67,7.13,10.8,14.3,21.58,21.39,32.4,6.66,10.16,13.2,20.39,19.87,30.55A26.37,26.37,0,0,0,226.9,544a2.51,2.51,0,0,0,2.22,0,2,2,0,0,0,.79-1.89A63.72,63.72,0,0,0,226,535c-11.69-18.1-23.33-36.23-35.23-54.22a20.31,20.31,0,0,1-3.62-13c.68-11.1,3.23-21.9,6.48-32.55a259.46,259.46,0,0,1,34.16-71c4.22-6.18,8.74-12.13,15.1-16.7a2.49,2.49,0,0,1,2,.36c1,3.29,1.94,6.6,2.62,9.95a182.3,182.3,0,0,0,12.62,39.44,66.6,66.6,0,0,0,16.93,22.51q5,4.4,10.14,8.62a41.75,41.75,0,0,1,13.45,19c.87,2.54,1.82,5.07,2.91,7.55,4.88,11,13.9,14.93,25.71,15.06,8.23.1,14.65-3,19-9.4a46.83,46.83,0,0,0,3.08-5c5-9.69,9.28-19.61,12-30a8,8,0,0,0-.33-3.26c-.06-.31-.5-.79-.78-.79-.76,0-2-.09-2.22.27a35,35,0,0,0-2.39,5.21c-2.17,5.76-4.21,11.57-6.44,17.32a55.84,55.84,0,0,1-3.1,6.25c-1.18,2.18-4.37,2.12-6.2,0a8.64,8.64,0,0,1-2.43-5.16c-.07-1.51,0-3-.07-4.52a1.18,1.18,0,0,0-.78-.84,3.87,3.87,0,0,0-2.23.34c-2.1,1.68-2.41,4-2,6.3a13.77,13.77,0,0,0,4.48,8,24.46,24.46,0,0,1,3.29,3.39,1.92,1.92,0,0,1-.46,1.92,26,26,0,0,1-4.86,3.5,6,6,0,0,1-5.94-.53,12.6,12.6,0,0,1-4.94-5.07,18.29,18.29,0,0,1-2.15-7.71c-.12-2.67-.09-5.34-.27-8-.17-2.42-1.62-4.27-3.65-5.78a5.47,5.47,0,0,0-4.63-1.18,4,4,0,0,0-3.17,3.25l5.21,2.83c.35.77.94,1.45.95,2.14,0,6.12.3,12.18,3,17.94a1,1,0,0,1-.31,1,3.69,3.69,0,0,1-2.08.48c-3.79-1-6.9-2.92-8.58-6.23a59.64,59.64,0,0,1-4.22-9.53c-2.87-9.55-9-17.12-16.92-23.68-2.18-1.8-4.38-3.58-6.55-5.39a66.46,66.46,0,0,1-20-27.37,216.35,216.35,0,0,1-11.44-40.94,26.54,26.54,0,0,1-.11-4.55c0-.82,1.59-2.1,2.58-2.08l10.76.35c2.82.62,3.88,2.35,5.23,3.78,6.58,7,14.93,11,25,12,1.63.17,3.26.43,7.63,1-6,.69-9.23,1-12.42,1.49a10.8,10.8,0,0,0-3.26,1.62,3,3,0,0,0-.77,3.11,9,9,0,0,0,1.28,1.95c8.39,7.57,18.2,12.2,30.38,11.75a29.69,29.69,0,0,0,3.72-.6,3,3,0,0,0,2.17-2.49c-.41-9.76-8.43-18.42-18.86-20.24-4.54-.79-9.1-1.6-13.69-2.09a26.85,26.85,0,0,1-16.29-8c-2.56-2.5-4.85-5.22-7.4-8"/>
    <path class="cls-1" d="M657.08,585.33c-2.19,0-1.19-1.79-1-2A16.85,16.85,0,0,1,659,581c5.84-3.86,12.49-6.3,19.22-8.46a36.9,36.9,0,0,1,21.13-.33c9.45,2.54,16.11,8.15,20,16.28a36.39,36.39,0,0,1,1.85,27.93c-1.07,3.24-3.45,5.1-7.06,5.79a41.23,41.23,0,0,1-12.54.78c-4.18-.47-8.41-.7-12.51-1.49-10.76-2.07-21.71-2.44-32.61-3.18-7.55-.5-15.15-.46-22.73-.6-5.89-.1-11.75-.08-17.52,1.51a27,27,0,0,1-7.49.49c-4.13-.09-6.41-2.92-5.8-7a11,11,0,0,0,.52-2.22,3.06,3.06,0,0,0-1-1.91,3.31,3.31,0,0,0-3.49-.41,9,9,0,0,0-1.15.48,18.93,18.93,0,0,0-3.06,2c-7.85,7.23-18.13,9.32-28.55,11-7.77,1.23-15-.41-21.86-3.83a6.35,6.35,0,0,1-3.08-7.94c1.6-4.1,16.72-16.15,21.1-19.11a16.35,16.35,0,0,1,8.11-2.89c10.07-.7,20.11-1.54,30.18-2.12,8.51-.49,16.7,1.72,24.91,3.22,10.85,4.12,43.17,2.7,51.5,1.2,5.61-1,6.08-4.28,2.6-4.4-3.73-.15-18.75-.45-22.52-.49"/>
    <path class="cls-1" d="M120.43,567.68c2.45,2.34,2,6,2.85,8.88,2.12,7.11.55,13.5-4.59,19.22a63.87,63.87,0,0,1-18.37,13.66,3.9,3.9,0,0,1-4.54-.79C84.9,601.48,90.06,585,92,579.39c1.89-5.41-1.41-18,7.33-18.32,7.48-.28,16,1.8,21.1,6.61"/>
  </g>
</svg>
