<svg id="Livello_1" data-name="Livello 1" xmlns="http://www.w3.org/2000/svg" viewBox="0 0 841.89 841.89">
  <defs>
    <style>
      .cls-1 {
        fill: #231f20;
      }
    </style>
  </defs>
  <title>Glos</title>
  <g>
    <path class="cls-1" d="M420.85,365c-.12-.09.52,0,0,0Z"/>
    <path class="cls-1" d="M421.05,365c-.53,0,.09-.09,0,0Z"/>
    <path class="cls-1" d="M447.44,287.32c-8.23-1-18.63-2.75-26.5-2.75s-18.26,1.79-26.49,2.75c-4.87-8.49-5.45-17.24-1.42-26.07,4.71-10.33,15.8-16.89,27.91-16.89s23.19,6.56,27.92,16.89C452.88,270.08,452.31,278.83,447.44,287.32Z"/>
    <path class="cls-1" d="M420.94,313a16.09,16.09,0,0,1-15-21.47c3.73-.34,10.93-1.1,15-1.09s11.25.75,15,1.09A16.09,16.09,0,0,1,420.94,313Z"/>
    <path class="cls-1" d="M224.74,510.62c-3-3.41-5.74-7-9-10.19-5.53-5.48-8.95-5.8-15.32-1.13-5.49,4-11.5,4.62-17.71,3.35-9.33-1.92-16,1.22-20.61,9.38a40.77,40.77,0,0,1-2.44,3.3c-1.18-3.78-.62-7-.31-10.06a44.79,44.79,0,0,1,7.37-21.49c8.26-12,21.35-15.22,34.06-8,11,6.23,17.6,16.17,22.15,27.64.8,2,1.4,4.14,2,6.23C225.09,509.89,224.84,510.28,224.74,510.62Z"/>
    <path class="cls-1" d="M548.55,382.85c1.37,9.82,3.19,19.13,3.84,28.52s.15,18.91.15,29c2.59-.39,4.68-.58,6.72-1,26.88-5.69,50.71-17.21,69.86-37.3,11.18-11.73,19.17-25.27,22-41.49a57.62,57.62,0,0,0-9.17-43.32c-.81-1.21-1.8-2.32-2.52-3.58-1.5-2.58,33.5-5.83,36.54-12.8,1.06-2.44-2.42-4.63-4-7.72,6.89-1.28,11.9,2.42,17.89,3.14a9.65,9.65,0,0,0,2.09-9.66c-2.75-9.65-8-16.84-19-17.09-2.47-.06-5.63.21-7.17-1.64-1.83-2.2,12.44-11.64,16.6-15.69a25,25,0,0,0,5-7.76c1.6-3.55-.17-5.8-4.09-5.26-2.67.36-48.76,32-51.76,26-3.12-6.31,6.92-21.11-1.42-22-4.4-.44-19.1,32.52-24.7,44a76.3,76.3,0,0,0-6,18.63c-1.56,7.86,1.21,14.67,7.47,20a60.13,60.13,0,0,1,7.65,7.82c8.32,10.23,7.44,21.7-2.32,30.67a68,68,0,0,1-23.31,14C575.92,382.92,562.77,385.23,548.55,382.85Z"/>
    <path class="cls-1" d="M293.34,382.85c-1.37,9.82-3.19,19.13-3.84,28.52s-.15,18.91-.15,29c-2.59-.39-4.68-.58-6.72-1-26.88-5.69-50.71-17.21-69.86-37.3-11.18-11.73-19.17-25.27-22-41.49A57.62,57.62,0,0,1,200,317.22c.81-1.21,1.8-2.32,2.52-3.58,1.5-2.58-33.5-5.83-36.54-12.8-1.06-2.44,2.42-4.63,4-7.72-6.89-1.28-11.9,2.42-17.89,3.14A9.65,9.65,0,0,1,150,286.6c2.75-9.65,8-16.84,19-17.09,2.47-.06,5.63.21,7.17-1.64,1.83-2.2-12.44-11.64-16.6-15.69a25,25,0,0,1-5-7.76c-1.6-3.55.17-5.8,4.09-5.26,2.67.36,48.76,32,51.76,26,3.12-6.31-6.92-21.11,1.42-22,4.4-.44,19.09,32.52,24.7,44a76.3,76.3,0,0,1,6,18.63c1.56,7.86-1.21,14.67-7.47,20a60.13,60.13,0,0,0-7.65,7.82c-8.32,10.23-7.44,21.7,2.32,30.67a68,68,0,0,0,23.31,14C266,382.92,279.12,385.23,293.34,382.85Z"/>
    <path class="cls-1" d="M617.15,510.62c3-3.41,5.74-7,9-10.19,5.53-5.48,8.94-5.8,15.32-1.13,5.49,4,11.5,4.62,17.71,3.35,9.33-1.92,16,1.22,20.61,9.38a40.77,40.77,0,0,0,2.44,3.3c1.18-3.78.62-7,.31-10.06a44.79,44.79,0,0,0-7.37-21.49c-8.26-12-21.35-15.22-34.06-8-11,6.23-17.6,16.17-22.15,27.64-.8,2-1.4,4.14-2,6.23C616.8,509.89,617.05,510.28,617.15,510.62Z"/>
    <path class="cls-1" d="M674.82,564.9c4.64,4.62,4.73,6.61-.89,10.22a82.37,82.37,0,0,1-15.12,7.54,68.35,68.35,0,0,1-24,4.78c-4.34,0-5.09,1.21-4.43,5.4.27,1.76.5,3.5.73,5-6.15,3.68-7.86,4.18-14.36,4.69a90.29,90.29,0,0,1-37.13-5.13c-3.08-1.07-5.74-1.48-8.78.39a44.35,44.35,0,0,1-9.07,3.73c-4.62,1.55-6.27,1-8.28-3.45a55.72,55.72,0,0,1-3.64-11.43,81.29,81.29,0,0,0-8-22c-3.79-7.07-7.15-14.39-10.76-21.57a57.08,57.08,0,0,0-3.68-6.69c-1.06-1.6-2.43-3.25-5.1-2.27,1.48,7.18-2.24,12.55-5.74,18.29-5.81-7.56-8.51-19.82-7-30.54a26.36,26.36,0,0,0,.5-5.42,3,3,0,0,0-1.83-2.24c-.76-.14-1.92.71-2.54,1.44a6,6,0,0,0-.82,2.58c-3.5,15.92-.39,30,11.13,42a5.58,5.58,0,0,1,1.63,3.72c-.48,4.67-1.17,9.35-4.46,13.15-7.87-6.43-7.87-6.43-11.55-5.69-1.32,3.29-2.22,6.9-6.1,8.87A47.27,47.27,0,0,0,483.15,561c-4.16-3.84-8.5-4-12.64-.09-2,1.82-3.45,4.23-5.23,6.28-3.59,4.07-7.23,8.07-10.75,12a23.42,23.42,0,0,1-11.13-10.47c-2.38-4.51-4.53-9.15-6.61-13.81-1.08-2.4-2.45-3.57-5.4-2.2a57.77,57.77,0,0,1-10.45,35.69,57.76,57.76,0,0,1-10.44-35.69c-2.95-1.37-4.33-.2-5.4,2.2-2.08,4.66-4.23,9.3-6.61,13.81a23.46,23.46,0,0,1-11.13,10.47c-3.52-4-7.16-8-10.75-12-1.78-2-3.24-4.46-5.23-6.28-4.14-3.87-8.49-3.75-12.65.09a47.35,47.35,0,0,0-12.39,19.32c-3.89-2-4.78-5.58-6.1-8.87-3.68-.74-3.68-.74-11.55,5.69-3.29-3.8-4-8.48-4.46-13.15a5.53,5.53,0,0,1,1.63-3.72c11.52-12,14.63-26.11,11.13-42a6.18,6.18,0,0,0-.82-2.58c-.62-.73-1.79-1.58-2.54-1.44a3,3,0,0,0-1.83,2.24,25.68,25.68,0,0,0,.5,5.42c1.53,10.72-1.16,23-7,30.54-3.5-5.74-7.23-11.11-5.74-18.29-2.67-1-4,.67-5.1,2.27a55.65,55.65,0,0,0-3.68,6.69c-3.61,7.18-7,14.5-10.77,21.57a81.62,81.62,0,0,0-8,22,55.7,55.7,0,0,1-3.63,11.43c-2,4.46-3.66,5-8.28,3.45a44.67,44.67,0,0,1-9.08-3.73c-3-1.87-5.69-1.46-8.77-.39a90.31,90.31,0,0,1-37.13,5.13c-6.5-.51-8.21-1-14.36-4.69.23-1.53.45-3.27.73-5,.66-4.19-.09-5.35-4.44-5.4a68.44,68.44,0,0,1-24-4.78A82.6,82.6,0,0,1,168,575.12c-5.62-3.61-5.53-5.6-.89-10.22.64-.64,1.33-1.24,2.13-2-8-16.08-13.15-32.22-.14-48.59a23.38,23.38,0,0,1,.34,3.3c-.84,30.66,19,60.13,51.9,67,14.91,3.09,29.45.6,42.89-6.86,22.23-12.32,35.46-31.59,42.19-55.62a92,92,0,0,0,.09-50.3,34.71,34.71,0,0,0-2.4-6.7,86.71,86.71,0,0,1-10-39.51C294,370.42,316.6,321,375.29,298.43c6.76-2.61,23.18-5.92,24.71-6-.71,6.22-.59,12.11,2.93,17.42s7.11,8,13.44,8.73c0,7,.28,18.75,0,17.88-.32-1-2.35-5.44-3.27-5.51-.75,0-1.94,1.28-2.38,2.27a46.58,46.58,0,0,0-1.73,6.12,10.18,10.18,0,0,1-5.79-8.14,97.51,97.51,0,0,1-.87-9.83,26.89,26.89,0,0,0-4-13.49c-4.8-7.43-12.69-10-21-6.83a26.21,26.21,0,0,0-11.27,8.41c-5.56,6.93-8.23,15-9.08,23.71a20.85,20.85,0,0,0,1.85,11.2,12,12,0,0,1,.69,9.58c-1.51,4.07-3.38,4.74-6.95,2.36-4.05-2.7-4.53-2.33-5.74,2.51A43.55,43.55,0,0,1,343.3,368c-1.17,2.27-3.06,4.51-5.94,4.1s-4-3.09-4.49-5.63a51.55,51.55,0,0,1-.75-8.14c-.05-1.76-.09-3.65-2.1-3.81a4.71,4.71,0,0,0-3.39,2,16.34,16.34,0,0,0-2.47,6c-2.28,14.35-2,28.53,5.51,41.52,3.18,5.48,7.46,10.33,11.16,15.54,2.65,3.71,5.44,7.34,7.71,11.27,1.39,2.38,2.94,5.13,1,8.9l-7-5a17.42,17.42,0,0,0-.39,3.59c.55,5.26,1.44,10.49,1.71,15.77a19.28,19.28,0,0,1-5.19,15c-4.75-2.11-4.71-6.68-6.45-10-3.27,0-4,2.15-3.81,4.41a61.3,61.3,0,0,0,1.85,11.82c2.56,8.74,5.67,17.33,8.37,26a63,63,0,0,1,2.81,21.63,24.86,24.86,0,0,0,.34,3.57c2.45,1.19,4,.41,4.3-1.83a48,48,0,0,0,.39-8.14c-.32-11.32-4.14-21.81-7.89-32.31-1.14-3.24-2.17-6.56-3.43-10.38,9.17.42,11.78-5.64,13-12.62.85-4.8,1.05-9.71,1.53-14.61,5.88-.7,7.37-2.6,6.59-8.55-.8-6.17-3.82-11.38-7.36-16.3S341.27,412,337.58,407c-7.63-10.29-10.1-22-9.14-35.46,1.51,1.49,2.35,2.56,3.41,3.39,5.76,4.48,9.87,3.63,13.32-.85,2.63-3.43,4.53-7.41,6.89-11.36,0,0,.11,0,.18,0,9.12.25,13.4-4.07,12.85-13.23a19.52,19.52,0,0,0-1.35-6.41c-2.47-5.73-1.94-11.43-.09-17.1a34.93,34.93,0,0,1,9.9-15.54,26.17,26.17,0,0,1,5.85-4c5.92-2.91,10.08-1.56,13.26,4.2,2.86,5.19,4.07,10.91,4.8,16.74.32,2.54.6,5.1,1.17,7.59,1.74,7.82,6.45,10.45,14,7.93,5.58,3.73,6.22,5.61,3.73,11.66a25.23,25.23,0,0,1-9.76,11.57c-9.35,6.22-19.55,8.71-30.75,6.88a76.32,76.32,0,0,0-9.79-.8,8.84,8.84,0,0,0-4.16,1c-.75.41-1.62,2-1.37,2.52.46.94,2,2.22,2.63,2,5.74-2.06,11.25.34,16.8.73a44.87,44.87,0,0,0,32.9-10.72c1.1-.94,2.4-1.94,3.5-2.88a24.18,24.18,0,0,1,0,10.54c-1.87,8-5.44,15.18-11.43,20.87a33.72,33.72,0,0,1-7.59,5.26c-2.84,1.51-5.6,1.46-8.64-.62a35.3,35.3,0,0,0-10.48-4.52,20.3,20.3,0,0,0-8.57-.37c-8.07,1.35-16.07,3.06-24.07,4.78a3.77,3.77,0,0,0-2.54,2.17c-.34,1.78,1.14,2.59,2.76,2.52,3.09-.12,6.18-.35,9.26-.71,1.95-.23,3.85-.78,6.15-1.26.51,5.28,2.38,9.69,8.14,10.11,6.68.48,10.86-3.39,13.65-9.93,4.26,2,7.73,5.54,12.44,3.8,3.87-1.44,7.59-3.23,11.73-5a53.16,53.16,0,0,1-.75,18.82,50.81,50.81,0,0,1-8.67,21.1c-2.56,3.5-5.21,7-9.94,8.07-2.5.58-3.05,3-3.46,5.15-1.51,8.21,4.19,14.95,12.53,14.91a26.44,26.44,0,0,0,3.18-.35,72.66,72.66,0,0,0,7,5.19c2.36,1.33,7.32,2,10.24,3.18v23.69a25.86,25.86,0,0,1-16.64-3.2c-3.41-2.11-5.46-1.7-6.2,2.15a15.87,15.87,0,0,0,.32,7c3.39,11.73,13.37,21.58,26.11,21.58s22.73-9.85,26.11-21.58a15.58,15.58,0,0,0,.32-7c-.73-3.85-2.79-4.26-6.19-2.15a25.89,25.89,0,0,1-16.65,3.2V478.59c2.93-1.14,7.89-1.85,10.25-3.18a72.66,72.66,0,0,0,7-5.19,26.21,26.21,0,0,0,3.18.35c8.34,0,14-6.7,12.53-14.91-.42-2.15-1-4.57-3.46-5.15-4.73-1.05-7.38-4.57-9.94-8.07a50.81,50.81,0,0,1-8.67-21.1,53.16,53.16,0,0,1-.75-18.82c4.14,1.76,7.86,3.55,11.73,5,4.71,1.74,8.18-1.76,12.43-3.8,2.79,6.54,7,10.41,13.65,9.93,5.77-.42,7.64-4.83,8.14-10.11,2.31.48,4.21,1,6.15,1.26,3.09.36,6.18.59,9.26.71,1.63.07,3.11-.74,2.77-2.52a3.77,3.77,0,0,0-2.54-2.17c-8-1.72-16-3.43-24.07-4.78a20.35,20.35,0,0,0-8.58.37,35.35,35.35,0,0,0-10.47,4.52c-3,2.08-5.81,2.13-8.64.62a33.5,33.5,0,0,1-7.59-5.26c-6-5.69-9.56-12.87-11.43-20.87a23.88,23.88,0,0,1,0-10.54c1.09.94,2.4,1.94,3.49,2.88a44.9,44.9,0,0,0,32.9,10.72c5.56-.39,11.07-2.79,16.81-.73.59.21,2.17-1.07,2.63-2,.25-.53-.62-2.11-1.37-2.52a8.84,8.84,0,0,0-4.16-1,76.17,76.17,0,0,0-9.79.8c-11.2,1.83-21.4-.66-30.75-6.88a25.17,25.17,0,0,1-9.76-11.57c-2.5-6-1.86-7.93,3.72-11.66,7.57,2.52,12.28-.11,14-7.93.57-2.49.84-5.05,1.16-7.59.74-5.83,1.95-11.55,4.81-16.74,3.17-5.76,7.34-7.11,13.26-4.2a26.17,26.17,0,0,1,5.85,4,35,35,0,0,1,9.9,15.54c1.85,5.67,2.38,11.37-.09,17.1a19.52,19.52,0,0,0-1.35,6.41c-.55,9.16,3.73,13.48,12.85,13.23.07,0,.14,0,.18,0,2.36,3.95,4.25,7.93,6.88,11.36,3.46,4.48,7.57,5.33,13.33.85,1-.83,1.9-1.9,3.41-3.39,1,13.49-1.51,25.17-9.15,35.46-3.68,5-7.72,9.74-11.36,14.77s-6.56,10.13-7.36,16.3c-.78,5.95.71,7.85,6.58,8.55.48,4.9.69,9.81,1.53,14.61,1.26,7,3.87,13,13,12.62-1.26,3.82-2.29,7.14-3.43,10.38-3.75,10.5-7.57,21-7.89,32.31a48,48,0,0,0,.39,8.14c.32,2.24,1.85,3,4.3,1.83a24.86,24.86,0,0,0,.34-3.57,63,63,0,0,1,2.81-21.63c2.7-8.71,5.81-17.3,8.37-26a61.3,61.3,0,0,0,1.85-11.82c.21-2.26-.55-4.39-3.82-4.41-1.73,3.36-1.69,7.93-6.44,10a19.28,19.28,0,0,1-5.19-15c.27-5.28,1.16-10.51,1.71-15.77a17.42,17.42,0,0,0-.39-3.59l-7,5c-2-3.77-.41-6.52,1-8.9,2.27-3.93,5-7.56,7.71-11.27,3.7-5.21,8-10.06,11.15-15.54,7.5-13,7.8-27.17,5.51-41.52a16.32,16.32,0,0,0-2.46-6,4.71,4.71,0,0,0-3.39-2c-2,.16-2.06,2-2.1,3.81a50.4,50.4,0,0,1-.76,8.14c-.48,2.54-1.55,5.19-4.48,5.63s-4.78-1.83-5.94-4.1a43.55,43.55,0,0,1-3.52-9.12c-1.22-4.84-1.7-5.21-5.74-2.51-3.57,2.38-5.44,1.71-6.95-2.36a12,12,0,0,1,.68-9.58,20.76,20.76,0,0,0,1.86-11.2c-.85-8.71-3.53-16.78-9.08-23.71a26.21,26.21,0,0,0-11.27-8.41c-8.3-3.16-16.19-.6-21,6.83a27,27,0,0,0-4,13.49,94.67,94.67,0,0,1-.86,9.83,10.18,10.18,0,0,1-5.79,8.14,45,45,0,0,0-1.74-6.12c-.43-1-1.62-2.31-2.37-2.27-.92.07-3,4.48-3.27,5.51-.28.87,0-10.93,0-17.88,6.33-.77,9.85-3.29,13.44-8.73s3.64-11.2,2.93-17.42c1.53.07,17.94,3.38,24.71,6,58.69,22.59,81.33,72,81.21,127.14a86.71,86.71,0,0,1-10,39.51,34.71,34.71,0,0,0-2.4,6.7,92,92,0,0,0,.09,50.3c6.72,24,20,43.3,42.18,55.62,13.45,7.46,28,9.95,42.9,6.86,32.92-6.83,52.74-36.3,51.9-67a22,22,0,0,1,.34-3.3c13,16.37,7.82,32.51-.14,48.59C673.49,563.66,674.18,564.26,674.82,564.9Z"/>
    <path class="cls-1" d="M452.68,459.5a7.28,7.28,0,0,1-10,5.46c-1.76-.66-3.32-2.56-5.44-.89-1.6,6.22-8.51,8.71-16.3,8.8-7.8-.09-14.71-2.58-16.31-8.8-2.12-1.67-3.68.23-5.44.89a7.28,7.28,0,0,1-10-5.46c-.18-1.17.37-3.18,1.24-3.7,14.81-8.9,19.41-23.46,21.67-39.17a56.67,56.67,0,0,0,.14-14.72c-.44-3.71-.12-6.72,2.31-9.56.93-1.07,5.67-2.42,6.38-3.54.7,1.12,5.44,2.47,6.37,3.54,2.43,2.84,2.75,5.85,2.31,9.56a56.67,56.67,0,0,0,.14,14.72c2.26,15.71,6.86,30.27,21.68,39.17C452.31,456.32,452.86,458.33,452.68,459.5Z"/>
    <path class="cls-1" d="M420.84,365c.53,0-.09-.09,0,0Z"/>
    <path class="cls-1" d="M421,365c.12-.09-.52,0,0,0Z"/>
  </g>
</svg>
