<svg id="Livello_1" data-name="Livello 1" xmlns="http://www.w3.org/2000/svg" viewBox="0 0 841.89 841.89">
  <defs>
    <style>
      .cls-1 {
        fill: #231f20;
      }
    </style>
  </defs>
  <title>Glos</title>
  <g>
    <g>
      <path class="cls-1" d="M100.87,368.25c52.83-66.1,165.33-95.76,232.84-75-11.35,27-1.81,49.87,14.16,71.73-25.76,7.66-45.56,23.34-59.83,45.75C231.67,369.74,170.36,351,100.87,368.25Z"/>
      <path class="cls-1" d="M278.24,483.72l-9.61,2.45c-.35-.39-.61-.56-.67-.78-5.85-21.23-20.76-33.41-40.86-39.67-21.79-6.79-43-5.14-62.12,8.2-12.17,8.47-18.78,20.37-18.63,35.54,0,1.28.37,2.55.5,3.83s.14,2.28.24,4c-4.42-1.32-8.46-2.42-12.4-3.79a5,5,0,0,1-2.71-2.42c-4.93-11.53-7.3-23.54-3.75-35.78,4.63-16,15.19-27.07,30.56-33.29,17-6.88,34.37-6.28,51.58-.84,29.23,9.25,50.86,27.71,65,54.89A67.65,67.65,0,0,1,278.24,483.72Z"/>
      <path class="cls-1" d="M260.66,486.85c-4,1.47-6.76.56-9.93-2.93-10.43-11.48-24.07-15.8-39.34-15.61-10.49.12-20.17,2.73-28.49,9.37-6.13,4.9-9.81,11.2-10.27,19.19-.13,2.4.75,4.5,3.29,4.12,1.38-.21,3.42-2.17,3.55-3.5.73-7,4.35-12,9.95-15.84,15.22-10.4,42.75-7.51,55.68,6.76-4.85-.61-8.88-.47-12.47-1.68-14.93-5-33.7.28-43.11,12.87-5.47,7.32-13,7.55-20.89,6.73-15.79-1.63-16.93-12.79-14-26.16s12.56-21.59,24.79-26.22c24.22-9.17,46.89-5.77,67.33,10.36A38.08,38.08,0,0,1,260.66,486.85Z"/>
      <path class="cls-1" d="M213.76,531.88C216,524.58,218,518,220,511.18c12.75,4.72,26.4,4.11,40.06,1.59a93.34,93.34,0,0,0,37.82-15.9c2.94,5.47,3.52,10.32-1.09,15.29-12.63,13.63-27.15,24.49-45.42,28.65-11.46,2.61-23.11,1.65-33.16-6C216.54,533.54,214.67,532.47,213.76,531.88Z"/>
      <path class="cls-1" d="M291.92,485.23l3.1,4.57a60.8,60.8,0,0,1-18.76,10.88c-15.93,6.14-32.25,8.95-49.24,5.16-.25-.06-.51-.08-.76-.15-8.45-2.44-9.45-4.35-6.82-12.26C244.11,495.67,268.55,497.5,291.92,485.23Z"/>
      <path class="cls-1" d="M355.43,490.42c.85,7.54,3.91,10.87,9.73,10.82,6.06-.06,8.82-3.7,9.42-12.53a3.26,3.26,0,0,1,1-.24c6.09.35,6.8,1.51,5.31,7.7-1.81,7.53-7.54,10.38-14.2,11.9s-11.86-1.33-15.56-6.8C346.78,494.87,347.78,492.42,355.43,490.42Z"/>
      <path class="cls-1" d="M399.5,545.59c-.18,3.6-.35,6.91-.5,10L387.06,555C388.17,549.69,393.46,545.56,399.5,545.59Z"/>
      <path class="cls-1" d="M340.72,496.05l7.44,14.19-16-7.91Z"/>
      <path class="cls-1" d="M384.58,506.88c1.54-5.13,3.12-10.4,4.84-16.11l6.73,3.75A24.46,24.46,0,0,1,384.58,506.88Z"/>
    </g>
    <g>
      <path class="cls-1" d="M741,368.25c-52.83-66.1-165.33-95.76-232.84-75,11.35,27,1.81,49.87-14.16,71.73,25.76,7.66,45.55,23.34,59.83,45.75C610.23,369.74,671.54,351,741,368.25Z"/>
      <path class="cls-1" d="M764.72,411.09c-10.29.78-20.33,1.59-30.34,2.33-9.65.75-19.29,1.56-28.94,2.14-8.52.52-16.71,1-25.42-1.88-20.53-6.83-41-3.91-60.74,4.37-17.68,7.45-33.09,18.2-44.88,33.39-6.7,8.61-12.2,18.1-18.42,27.45-1.75-.48-2.2-2.39-2.4-5-.42-6.67-.48-13.5-2.07-19.94-5.34-21.6-19.33-37-37.33-49.05-23.51-15.71-49.86-23.12-77.74-25.62-5.12-.45-10.42-.8-15.48-.8s-10.39.35-15.48.8c-27.91,2.5-54.26,9.91-77.77,25.62-18,12-32,27.45-37.33,49.05-1.59,6.44-1.65,13.27-2.07,19.94-.17,2.63-.65,4.54-2.4,5-6.22-9.35-11.72-18.84-18.39-27.45-11.82-15.19-27.23-25.94-44.91-33.39-19.72-8.28-40.18-11.2-60.74-4.37-8.68,2.92-16.9,2.4-25.42,1.88-9.65-.58-19.3-1.39-28.94-2.14-10-.74-20-1.55-30.31-2.33a105.2,105.2,0,0,1,14.08-30.3A4,4,0,0,1,93,379.36c20.66-8.35,42.16-11.43,64.37-10.42a211.06,211.06,0,0,1,60.51,11.72c24.16,8.42,46.53,20.36,66.31,36.81,5.22,4.34,7.09,3.89,10.07-2.17,6.9-13.92,18.36-23.25,30.92-31.76,15-10.14,32.87-11.53,34.1-14.15.52-1.1-.52-3.72-1.65-4.89-12.7-12.76-20.11-28-21.7-45.94a36.49,36.49,0,0,1,4.44-21.67c1.29-2.26,2.85-2.94,5.34-2.17,5.89,1.88,11.79,3.7,17.74,5.38,2.34.68,2.92,2,3.31,4.37,1.58,10.39,2.65,21,5.76,31,5.8,18.68,20,28.36,38.63,32.18a50.43,50.43,0,0,0,9.82,1.3,52.16,52.16,0,0,0,9.86-1.3c18.62-3.82,32.8-13.5,38.63-32.18,3.08-10,4.15-20.6,5.76-31,.36-2.4,1-3.69,3.27-4.37,6-1.68,11.85-3.5,17.75-5.38,2.49-.77,4.05-.09,5.34,2.17A36.49,36.49,0,0,1,506,318.56c-1.56,17.93-9,33.18-21.66,45.94-1.17,1.17-2.17,3.79-1.69,4.89,1.26,2.62,19.14,4,34.1,14.15,12.56,8.51,24,17.84,30.92,31.76,3,6.06,4.85,6.51,10.07,2.17C577.51,401,599.88,389.08,624,380.66a211.06,211.06,0,0,1,60.51-11.72c22.25-1,43.71,2.07,64.4,10.42a4.15,4.15,0,0,1,1.69,1.43A106.81,106.81,0,0,1,764.72,411.09Z"/>
      <path class="cls-1" d="M809,408.53c-12.76.72-24.7,1.4-35.52,2C768,399.53,764,389,758,379.59c-19.62-31-47.53-53.1-79.62-70.1a219.64,219.64,0,0,0-54.88-20.27c-15.32-3.43-30.66-7.22-46.17-9-26.13-3-52,.42-77.48,6.54-7.87,1.88-15.64,4.14-23.77,6.34,0-7.12-.1-14.08,0-21,.07-2.4-.64-3.46-3-4-7-1.62-31.43-8.39-52.19-8.46s-45.2,6.84-52.19,8.46c-2.33.55-3.08,1.61-3,4,.16,6.93.06,13.89.06,21-8.16-2.2-15.93-4.46-23.76-6.34-25.52-6.12-51.36-9.55-77.49-6.54-15.54,1.81-30.89,5.6-46.17,9a219.41,219.41,0,0,0-54.91,20.27c-32.09,17-60,39.05-79.62,70.1-5.93,9.39-10,19.94-15.38,30.92-10.85-.58-22.79-1.26-35.55-2,4.53-8.54,8.58-16.83,13.18-24.8C73,337.33,112.49,305.38,161,284c25.09-11.05,51.38-17.68,78.39-22.09,26.51-4.3,53.16-4.92,79.87-4.34,9,.2,18,1.3,27,1.95a6.54,6.54,0,0,0,2.59-.33c17.19-6.54,46.48-13.05,72-13.05s54.85,6.51,72,13.05a6.62,6.62,0,0,0,2.62.33c9-.65,18-1.75,27-1.95,26.71-.58,53.36,0,79.87,4.34,27,4.41,53.33,11,78.39,22.09,48.54,21.4,88,53.35,114.91,99.75C800.4,391.7,804.42,400,809,408.53Z"/>
      <path class="cls-1" d="M537.65,551c-11.46,44.39-38.46,76.64-77.71,99.27a9.71,9.71,0,0,1-2.13.78c-7.84-11.27-18.75-16.81-32-17.78V621.78c2.29-.39,4.33-.65,6.31-1.13,11.82-2.79,22.15-8,28.59-18.82,1.81-3,3.11-5.86,7.22-6.34,1-.13,2.59-2.82,2.36-4s-2.43-2.29-3.91-2.55c-4.25-.75-8.65-.55-12.79-1.56-10.3-2.59-21.73-5.76-32.61.33-10.88-6.09-22.31-2.92-32.64-.33-4.11,1-8.54.81-12.79,1.56-1.45.26-3.65,1.45-3.88,2.55s1.33,3.86,2.33,4c4.11.48,5.41,3.33,7.22,6.34,6.44,10.85,16.77,16,28.59,18.82,2,.48,4,.74,6.31,1.13v11.49c-13.27,1-24.18,6.51-32,17.78a10.31,10.31,0,0,1-2.13-.78c-39.22-22.63-66.25-54.88-77.71-99.27a108,108,0,0,1-3-31.12c.13-3.56,2-4.79,5.37-5.57a154.58,154.58,0,0,0,18.71-5.66c2.08-.75,3.24-.91,5.09.29,16.28,10.62,33.7,13.11,52.1,6.7a34,34,0,0,0,19.55-16.77c5,4.47,7.74,9.2,6,15.67s-3.43,13.18-5,19.78c-.65,2.79-2,3.89-5,4.08-12.34.94-21.76,13.73-18.36,24.55a14.65,14.65,0,0,0,7.67,8.8c2.17,1.17,4.31,1.33,5.64-1.16s-.13-3.85-2.11-5c-.87-.52-1.68-1.13-2.56-1.71,6.8-5.44,32.64,10,32.64,13.92,0-3.95,25.81-19.36,32.61-13.92-.88.58-1.69,1.19-2.53,1.71-2,1.14-3.4,2.59-2.14,5s3.47,2.33,5.67,1.16a14.6,14.6,0,0,0,7.64-8.8c3.43-10.82-6-23.61-18.36-24.55-3-.19-4.34-1.29-5-4.08-1.58-6.6-3.27-13.21-5-19.78s1-11.2,6-15.67a34,34,0,0,0,19.55,16.77c18.39,6.41,35.85,3.92,52.1-6.7,1.85-1.2,3-1,5.08-.29a156.93,156.93,0,0,0,18.72,5.66c3.33.78,5.28,2,5.41,5.57A108.35,108.35,0,0,1,537.65,551Z"/>
      <path class="cls-1" d="M539.21,488.19c-2,6.44-4,12.53-6,18.77a3.56,3.56,0,0,1-.88,0c-6.76-1.74-12.82-4.24-18.06-9.51-11.76-11.79-27-15.8-43.13-16.32-12.11-.39-23.19,3-32.58,11-2,1.71-4,3.46-6.44,5.56V479.18c18.23-6.54,54.59-11.1,79.55,4.5,2.11,1.72,4.18,4,7.13,2.21a5.74,5.74,0,0,0,2.07-8.1C507.8,459.4,465,456,430.25,463.71c-3.72.77-5,2.62-5.05,6-.09,8.64-.55,17.32-.19,26,.68,15.64,2.56,31.06,8.45,45.79a34.86,34.86,0,0,1,2.14,12.08c.16,6.83-7.18,10.88-14.64,10.87s-14.8-4-14.67-10.87a35.57,35.57,0,0,1,2.14-12.08c5.89-14.73,7.77-30.15,8.45-45.79.36-8.64-.06-17.32-.19-26,0-3.37-1.33-5.22-5.05-6C376.86,456,334.09,459.4,321,477.79a5.79,5.79,0,0,0,2.1,8.1c2.92,1.78,5-.49,7.13-2.21,24.93-15.6,61.32-11,79.52-4.5V497.7c-2.43-2.1-4.44-3.85-6.45-5.56-9.38-8-20.46-11.4-32.57-11-16.12.52-31.37,4.53-43.09,16.32-5.28,5.27-11.3,7.77-18.1,9.51a3.56,3.56,0,0,1-.88,0c-2-6.24-3.91-12.33-6-18.77,4.31-2.69,6.54-7.06,6.61-12.6A2.24,2.24,0,0,1,310,474c7.45-4.89,8.58-12.4,8.52-20.43,0-.48.06-1,.1-1.91,12.69.07,17.8-7.8,19.33-19.1,14.73,2.56,27.45-4.5,33.41-18.84,14.89,4.82,27.1,1,36.94-9.91,3.66,2,9.17,3.79,12.63,5.89,3.43-2.1,8.94-3.92,12.63-5.89,9.84,10.94,22,14.73,36.91,9.91,6,14.34,18.71,21.4,33.41,18.84,1.53,11.3,6.67,19.17,19.33,19.1.07.91.1,1.43.1,1.91-.06,8,1.07,15.54,8.52,20.43a2.13,2.13,0,0,1,.74,1.59C532.67,481.13,534.9,485.5,539.21,488.19Z"/>
      <path class="cls-1" d="M552.16,579.46C537.52,632.14,506,675.4,459,703.18a73.71,73.71,0,0,1-76.13,0c-47-27.78-78.48-71-93.15-123.72-4.27-15.31-3.62-31.05-.94-46.69.46-2.69,1.27-5.6,5.12-6.67,1.33,36.13,15.44,66.8,38.72,93.38S389.77,670,421,670s65.05-24,88.3-50.52S546.69,562.23,548,526.1c3.82,1.07,4.63,4,5.12,6.67C555.78,548.41,556.43,564.15,552.16,579.46Z"/>
      <path class="cls-1" d="M563.66,483.72l9.61,2.45c.35-.39.61-.56.67-.78,5.85-21.23,20.76-33.41,40.86-39.67,21.79-6.79,43-5.14,62.12,8.2,12.17,8.47,18.77,20.37,18.63,35.54,0,1.28-.37,2.55-.5,3.83s-.14,2.28-.24,4c4.41-1.32,8.46-2.42,12.4-3.79a5,5,0,0,0,2.71-2.42c4.93-11.53,7.3-23.54,3.75-35.78-4.63-16-15.19-27.07-30.56-33.29-17-6.88-34.37-6.28-51.59-.84-29.22,9.25-50.85,27.71-65,54.89A67.65,67.65,0,0,0,563.66,483.72Z"/>
      <path class="cls-1" d="M581.24,486.85c4,1.47,6.76.56,9.92-2.93,10.44-11.48,24.08-15.8,39.35-15.61,10.49.12,20.17,2.73,28.48,9.37,6.14,4.9,9.82,11.2,10.28,19.19.13,2.4-.75,4.5-3.29,4.12-1.38-.21-3.42-2.17-3.56-3.5-.73-7-4.34-12-9.94-15.84-15.22-10.4-42.75-7.51-55.68,6.76,4.85-.61,8.88-.47,12.46-1.68,14.94-5,33.71.28,43.12,12.87,5.47,7.32,13,7.55,20.89,6.73,15.79-1.63,16.93-12.79,14-26.16S674.72,458.58,662.49,454c-24.22-9.17-46.89-5.77-67.33,10.36A38.08,38.08,0,0,0,581.24,486.85Z"/>
      <path class="cls-1" d="M545.84,478.08c-.26,1.27-1.16,3.37-2.62,3.47s-2.85-2-2.88-3.11c-.1-2.62,0-5.7,1.2-7.9,1.1-2,3.2-3.72,1-5.47-1.23-.94-4.4-.88-5.7.06-2.91,2.17-3.92.71-4.82-1.62a21.26,21.26,0,0,1-.17-16.19c.46-1.26,0-3.65-.81-4.4s-3-.71-4.14-.16c-7.32,3.4-13.24,1-15-6.83-.84-3.86-.32-8-.81-11.92-.19-1.49-.74-3.92-2.33-4.3s-5.41,5.37-7.8,5.92c-7.68,1.81-25.61-9-23.41-21.27.39-2.2.26-4.31-2.4-4.92-2.49-.59-4.08.81-4.43,3.14-.49,3.07-2.63,4.27-5.12,5.18-8.38,3-20.75-.68-25.74-8a17.57,17.57,0,0,1-2.43-7.51c-.29-2.3-.61-4.24-3.27-4.37-2.82-.16-3.66,1.81-3.85,4.27-.49,5.18-3.69,8.52-9.36,10.17-5.67-1.65-8.9-5-9.36-10.17-.22-2.46-1.07-4.43-3.88-4.27s-3,2.07-3.27,4.37a18,18,0,0,1-2.4,7.51c-5,7.32-17.39,11-25.77,8-2.49-.91-4.63-2.11-5.12-5.18-.35-2.33-1.94-3.73-4.43-3.14-2.66.61-2.75,2.72-2.37,4.92,2.17,12.27-15.73,23.08-23.44,21.27-2.36-.55-6.09-6.31-7.77-5.92s-2.17,2.81-2.36,4.3c-.49,3.95.06,8.06-.78,11.92-1.72,7.8-7.67,10.23-15,6.83-1.17-.55-3.37-.52-4.15.16s-1.26,3.14-.77,4.4a21.4,21.4,0,0,1-.2,16.19c-.9,2.33-1.91,3.79-4.79,1.62-1.29-.94-4.5-1-5.7-.06-2.26,1.75-.16,3.49.94,5.47,1.23,2.2,1.3,5.28,1.2,7.9,0,1.07-1.42,3.17-2.88,3.11s-2.37-2.2-2.63-3.47a47,47,0,0,1,1.27-23c5.11-17.45,16.28-30.66,30.4-41.41,18-13.73,38.89-21,61-25,7.71-1.4,15.57-2.08,23.41-2.88a78.93,78.93,0,0,1,17.74,0c7.81.8,15.67,1.48,23.41,2.88,22.05,3.95,42.9,11.26,60.94,25,14.15,10.75,25.29,24,30.4,41.41A46.91,46.91,0,0,1,545.84,478.08Z"/>
      <path class="cls-1" d="M628.14,531.88c-2.21-7.3-4.22-13.92-6.28-20.7-12.75,4.72-26.4,4.11-40.06,1.59A93.34,93.34,0,0,1,544,496.87c-2.94,5.47-3.52,10.32,1.09,15.29,12.63,13.63,27.15,24.49,45.42,28.65,11.46,2.61,23.11,1.65,33.16-6C625.36,533.54,627.23,532.47,628.14,531.88Z"/>
      <path class="cls-1" d="M550,485.23c-.84,1.23-1.9,2.79-3.1,4.57a60.86,60.86,0,0,0,18.75,10.88c15.94,6.14,32.26,8.95,49.25,5.16.25-.06.51-.08.76-.15,8.45-2.44,9.45-4.35,6.82-12.26C597.79,495.67,573.35,497.5,550,485.23Z"/>
      <path class="cls-1" d="M456.51,595.75c-8.22,13.08-21.12,19.07-35.55,19.07s-27.36-6-35.58-19.07c4.6-1.53,8.77-3.37,13.14-4.21,7-1.33,13.93-1,19.66,4.14.58.55,2.52,1.36,2.78,2,.23-.62,2.2-1.43,2.79-2,5.69-5.18,12.62-5.47,19.65-4.14C447.74,592.38,451.91,594.22,456.51,595.75Z"/>
      <path class="cls-1" d="M451.17,654.84c-9.16,4-20,8-30.21,9.55-10.26-1.56-21.08-5.54-30.21-9.55,4.11-8.78,19.26-13.92,30.21-13.93S447.06,646.06,451.17,654.84Z"/>
      <path class="cls-1" d="M486.47,490.42c-.85,7.54-3.91,10.87-9.73,10.82-6.06-.06-8.82-3.7-9.42-12.53a3.26,3.26,0,0,0-1-.24c-6.09.35-6.8,1.51-5.31,7.7,1.81,7.53,7.54,10.38,14.2,11.9s11.86-1.33,15.56-6.8C495.12,494.87,494.12,492.42,486.47,490.42Z"/>
      <path class="cls-1" d="M442.4,545.59c.18,3.6.35,6.91.5,10l11.94-.57C453.73,549.69,448.44,545.56,442.4,545.59Z"/>
      <path class="cls-1" d="M501.18,496.05l-7.44,14.19,16-7.91Z"/>
      <path class="cls-1" d="M457.32,506.88c-1.54-5.13-3.12-10.4-4.84-16.11l-6.73,3.75A24.46,24.46,0,0,0,457.32,506.88Z"/>
    </g>
  </g>
</svg>
