<svg id="Livello_1" data-name="Livello 1" xmlns="http://www.w3.org/2000/svg" viewBox="0 0 841.89 841.89">
  <defs>
    <style>
      .cls-1 {
        fill: #231f20;
      }
    </style>
  </defs>
  <title>Glos</title>
  <g>
    <g>
      <path class="cls-1" d="M722.09,373.65c0,13.44-1.08,26.64-6,39.31C703,446.64,670.59,462.14,637,449.29c-28.76-11-48.09-32.18-56.31-62.06-6-21.84-.63-41.69,15.91-57.57,11.29-10.86,24.87-15.67,40.12-9.75,14.7,5.75,23.61,16.68,24.62,33.09.67,11.07-3.72,20.09-12,27.12-5.06,4.36-9.72,2.62-10.73-4a56,56,0,0,1,0-12.74c.21-2.79,2-4.39,5.09-4.29,2.89.11,4.91-1.14,4.87-4.31s-2.29-4.25-5.05-4.29a29.69,29.69,0,0,0-4.8.8c-3.07.53-6.2,1.81-9.13,1.43-21-2.78-35.45,13.51-28.73,33.71,7.46,22.39,24.24,35.14,46.22,41.83,13.93,4.28,25.49,0,34.93-10.31a68.25,68.25,0,0,0,9.85-14.38c10.55-20.45,10.38-42,5.36-63.8-7.52-32.53-24.76-59.76-47.91-83.1-37.51-37.82-81.81-63.06-135.44-69.65a214.56,214.56,0,0,0-23.68-1.11c-4.35-.07-7.28,3.17-5.5,6.09,2,3.42.07,4.6-2.06,5.85a47.75,47.75,0,0,1-7.83,3.77c-17.49,5.95-35.52,8.53-53.88,9.29-18.35-.76-36.42-3.34-53.87-9.29a44.92,44.92,0,0,1-7.84-3.77c-2.16-1.25-4.14-2.43-2.09-5.85,1.78-2.92-1.11-6.16-5.5-6.09A215,215,0,0,0,328,187.05c-53.63,6.59-97.89,31.83-135.44,69.65-23.15,23.34-40.39,50.57-47.91,83.1-5,21.76-5.19,43.35,5.36,63.8A67,67,0,0,0,159.88,418c9.44,10.34,21,14.59,34.93,10.31,21.94-6.69,38.72-19.44,46.18-41.83,6.72-20.2-7.66-36.49-28.7-33.71-2.92.38-6.09-.9-9.12-1.43a30.91,30.91,0,0,0-4.84-.8c-2.72,0-5,1-5.05,4.29s2,4.42,4.87,4.31c3.1-.1,4.91,1.5,5.12,4.29.31,4.25.66,8.56,0,12.74-1,6.59-5.64,8.33-10.73,4-8.21-7-12.64-16.05-11.94-27.12,1-16.41,9.89-27.34,24.62-33.09,15.22-5.92,28.8-1.11,40.08,9.75,16.58,15.88,21.94,35.73,15.92,57.57-8.22,29.88-27.51,51-56.31,62.06-33.57,12.85-66-2.65-79.09-36.33-4.91-12.67-6-25.87-6-39.31A141.35,141.35,0,0,1,131.71,317c12.15-28.35,27.19-55,47.74-78.29,23.68-26.88,53.49-44.22,86.4-56.93A355.84,355.84,0,0,1,358.63,160c16.12-1.64,32.38-2.05,48.61-2.86,4.53-.2,9.13.21,13.72.35,4.56-.14,9.16-.55,13.72-.35,16.2.81,32.46,1.22,48.62,2.86a356.05,356.05,0,0,1,92.77,21.77c32.88,12.71,62.72,30.05,86.4,56.93C683,262,698,288.6,710.18,317A141.35,141.35,0,0,1,722.09,373.65Z"/>
      <path class="cls-1" d="M595.47,316.71c-6.65,8.43-12.75,16.19-18.91,24a115.74,115.74,0,0,0-37.89-29c-23.19-11.18-47.4-16.68-73-10.31-16.71,4.14-30.09,13.09-35.87,30.33-1.6,4.84-2.92,10.52-2,15.36,3.38,17,7.69,33.78,11.94,50.57.49,1.84,2.51,3.69,4.29,4.77,5.78,3.48,12.08,6.16,17.58,10a17.48,17.48,0,0,1,7.56,15.84c-.1,1.78-1.36,3.45-2.19,5.43-2.27-4.59-3.7-8.7-6.1-12-2.54-3.52-6.79-5.58-11-4.36-3.83,1.12-7.24,3.69-11.11,5.78A31,31,0,0,0,421,410.7a30.76,30.76,0,0,0-17.83,12.36c-3.9-2.09-7.31-4.66-11.14-5.78-4.25-1.22-8.46.84-11,4.36-2.44,3.34-3.86,7.45-6.13,12-.83-2-2.09-3.65-2.19-5.43a17.62,17.62,0,0,1,7.59-15.84c5.47-3.87,11.81-6.55,17.55-10,1.78-1.08,3.83-2.93,4.29-4.77C406.34,380.82,410.65,364,414,347c.94-4.84-.35-10.52-2-15.36-5.75-17.24-19.16-26.19-35.84-30.33-25.59-6.37-49.76-.87-73,10.31a115.54,115.54,0,0,0-37.92,29c-6.16-7.8-12.26-15.56-18.91-24,3.93-9.27,11.14-17.55,19.61-24.87,18.91-16.3,40.85-27.06,64.14-35.28,29.36-10.37,59.59-16.19,90.79-16.36,31.21.17,61.4,6,90.79,16.36,23.3,8.22,45.24,19,64.11,35.28C584.33,299.16,591.57,307.44,595.47,316.71Z"/>
      <path class="cls-1" d="M308.4,358.87c9.07-19.62,34.38-31.27,53.69-25,11.6,3.76,18.62,11.83,21.75,24.66C358.29,343.59,333.53,343.67,308.4,358.87Z"/>
      <path class="cls-1" d="M394.94,434.13l-9.58-.61c-.17-4.76,1.93-7.8,5.14-7.85C393.89,425.62,395.36,428.17,394.94,434.13Z"/>
    </g>
    <g>
      <path class="cls-1" d="M599,433.06c-14.14-14.32-24.1-31.14-27.47-51.26a61,61,0,0,1,2-27.66,6,6,0,0,0-1.29-6.37c-18-21.38-41.13-33.88-68.36-39-13.86-2.61-27.65-2.33-41,2.58s-22.88,13.48-25.6,28.14a21.1,21.1,0,0,0,.17,7.8c1.78,8.36,3.87,16.68,5.89,25.32,4.32-3.56,6.69-7,7-12.54,1.08-19.12,18.56-35.14,37.82-36.36,26.82-1.67,54.12,18,60.07,48.37.32,1.57-1,4.57-2.3,5-1.49.53-4.35-.31-5.53-1.6a60.69,60.69,0,0,0-34-18.77,24.58,24.58,0,0,0-3.31-.21c5,9.86,4.53,16.86-1.42,22.12a15,15,0,0,1-18.49,1.22c-6.59-4.46-8.22-11.32-4.74-20.79a24.7,24.7,0,0,0-3.21.83,58.73,58.73,0,0,0-27.58,22c-2.64,4,0,12.43,4.36,14.28,9.16,3.79,17.27,9,22.88,17.41,4.18,6.3,6.27,13.06,2.75,20.44-2.3,4.88-6,7.6-11.7,7.77-13.48.35-26.92,1.11-40.37,1.67-1.25.07-2.5-.07-3.72-.1s-2.51.17-3.73.1c-13.48-.56-26.92-1.32-40.4-1.67-5.71-.17-9.36-2.89-11.7-7.77-3.51-7.38-1.42-14.14,2.79-20.44,5.57-8.43,13.72-13.62,22.84-17.41,4.39-1.85,7-10.31,4.36-14.28a58.41,58.41,0,0,0-27.55-22,26.33,26.33,0,0,0-3.2-.83c3.48,9.47,1.81,16.33-4.77,20.79a15,15,0,0,1-18.5-1.22c-5.95-5.26-6.44-12.26-1.39-22.12a24.71,24.71,0,0,0-3.34.21,60.82,60.82,0,0,0-34,18.77,6.3,6.3,0,0,1-5.53,1.6c-1.26-.41-2.62-3.41-2.3-5,5.95-30.33,33.26-50,60.11-48.37,19.22,1.22,36.7,17.24,37.82,36.36.31,5.54,2.68,9,7,12.54,2-8.64,4.11-17,5.89-25.32a21.1,21.1,0,0,0,.17-7.8c-2.68-14.66-12.29-23.23-25.6-28.14s-27.16-5.19-41-2.58c-27.23,5.16-50.29,17.66-68.36,39a6,6,0,0,0-1.25,6.37,61.61,61.61,0,0,1,2.05,27.66c-3.41,20.12-13.34,36.94-27.51,51.26-3.21,3.24-3.76,6-2,9.75a36.6,36.6,0,0,0,1.67,3.79c8.25,14.94,16.3,30,25,44.69,6.51,11,13.37,21.76,17.17,34.12,6.23,20.17,6.23,41.13,8,61.89.87,10.62,1.81,21.49,4.77,31.65,6.38,21.73,21,36.95,41.31,46.53,24.13,11.42,49.2,19.12,76,19.36V660.57c-26.22-1.18-45.48-15.18-60.69-36.22-14.67-20.2-22.4-43.22-26.47-67.63-.8-4.94-1-10-1.95-14.87-.39-2.05-2.2-3.83-2.79-5.92-.66-2.33-1.74-5.47-.76-7.21,4-7.1,7.83-14.55,13.23-20.54,20.23-22.33,45.24-36.78,74.87-42.84,3.24-.66,6.62-.77,9.93-1.15,3.31.38,6.65.49,9.89,1.15,29.63,6.06,54.64,20.51,74.87,42.84,5.4,6,9.3,13.44,13.27,20.54,1,1.74-.14,4.88-.8,7.21-.56,2.09-2.37,3.87-2.75,5.92-.94,4.91-1.15,9.93-2,14.87-4.07,24.41-11.8,47.43-26.43,67.63-15.25,21.07-34.55,35.07-60.77,36.22v24.27c26.78-.24,51.93-7.94,76-19.36,20.31-9.58,34.93-24.8,41.31-46.53,3-10.16,3.9-21,4.8-31.65,1.74-20.76,1.74-41.72,7.94-61.89,3.8-12.36,10.66-23.12,17.17-34.12,8.67-14.7,16.72-29.75,25-44.69.66-1.18,1.08-2.54,1.67-3.79C602.71,439.05,602.16,436.3,599,433.06Z"/>
      <path class="cls-1" d="M687.64,395.1c-10,25.18-28.69,33.29-52.62,18.7-12.78-7.8-23.08-17.9-26.15-33.4-2.44-12.57,7.52-21.76,21.35-18.94,0,4.63-.28,9.23,0,13.75.73,10.1,8,16.68,16.89,15.4,5.19-.77,9.16-3.83,12.47-7.73,16.19-19,11.67-50.68-9.4-65.72-12.92-9.19-27-10-41.58-5-2.23.76-3.94,1.6-5.47-1.36-7.73-14.91-19.36-26.33-32.84-36-18.46-13.27-39.25-21.49-60.74-28.28-28.59-9.05-57.7-14.8-87.79-14.66-30.12-.14-59.24,5.61-87.79,14.66-21.49,6.79-42.32,15-60.77,28.28-13.45,9.68-25.08,21.1-32.84,36-1.54,3-3.24,2.12-5.44,1.36-14.66-5-28.69-4.18-41.58,5-21.07,15-25.59,46.74-9.43,65.72,3.3,3.9,7.27,7,12.46,7.73,8.88,1.28,16.16-5.3,16.89-15.4.35-4.52.07-9.12.07-13.75,13.83-2.82,23.79,6.37,21.32,18.94-3.07,15.5-13.34,25.6-26.16,33.4-23.92,14.59-42.62,6.48-52.62-18.7-8.22-20.72-6.41-41.79,1.08-62.72,25.49-71.15,78.64-111,148.29-132.2,13.82-4.18,28.17-5.81,42.83-6,.63,6,4.32,9.23,9,11.77,11.81,6.34,24.76,8.77,37.79,10.72,8.88,1.29,17.9,1.75,26.88,2.58,8.95-.83,18-1.29,26.85-2.58,13-1.95,26-4.38,37.79-10.72,4.7-2.54,8.42-5.82,9-11.77,14.66.14,29,1.77,42.86,6,69.62,21.21,122.8,61.05,148.26,132.2C694.05,353.31,695.86,374.38,687.64,395.1Z"/>
      <path class="cls-1" d="M477.69,528.83c-2.82,24.51-12.92,45.44-30.71,62.47-7.07,6.76-14.91,12.44-25.18,13.31-10.28-.87-18.15-6.55-25.22-13.31-17.79-17-27.89-38-30.71-62.47-1.15-10-3-8.47,7.87-13,15.6-6.54,31.69-7.24,48.06-3.13,16.33-4.11,32.46-3.41,48.06,3.13C480.72,520.36,478.84,518.83,477.69,528.83Z"/>
      <path class="cls-1" d="M507.89,541.75c-.67,4.7-1.15,9.26-1.92,13.75-3.73,22-10.48,42.91-23.23,61.43-14.69,21.35-33.6,35.77-60.94,35.32-27.37.45-46.25-14-60.95-35.32-12.74-18.52-19.53-39.42-23.22-61.43-.77-4.49-1.29-9-1.95-13.75,3.41,0,4.63,1.56,5.39,4.32a124.57,124.57,0,0,0,38.24,59.82A80,80,0,0,0,414.42,624a51.11,51.11,0,0,0,7.38.7,52.07,52.07,0,0,0,7.38-.7,79.89,79.89,0,0,0,35.1-18.08,124.22,124.22,0,0,0,38.21-59.82C503.29,543.31,504.51,541.75,507.89,541.75Z"/>
      <path class="cls-1" d="M511,530.53c-2.58,1.12-5.15,2.23-7.73,3.31-13.83-28.24-56.8-37.23-81.42-29.53-24.66-7.7-67.6,1.29-81.42,29.53-2.58-1.08-5.19-2.19-7.77-3.31,5.33-18.49,46.18-54.32,89.19-58C464.81,476.21,505.66,512,511,530.53Z"/>
      <path class="cls-1" d="M434.82,434.94H408.73a18.08,18.08,0,0,1,13.06-15.05A18.06,18.06,0,0,1,434.82,434.94Z"/>
      <path class="cls-1" d="M534.33,358.87c-9.07-19.62-34.37-31.27-53.69-25-11.59,3.76-18.62,11.83-21.75,24.66C484.44,343.59,509.2,343.67,534.33,358.87Z"/>
      <path class="cls-1" d="M447.79,434.13l9.58-.61c.17-4.76-1.93-7.8-5.14-7.85C448.84,425.62,447.37,428.17,447.79,434.13Z"/>
    </g>
  </g>
</svg>
