<svg id="Livello_1" data-name="Livello 1" xmlns="http://www.w3.org/2000/svg" viewBox="0 0 841.89 841.89">
  <defs>
    <style>
      .cls-1 {
        fill: #231f20;
      }
    </style>
  </defs>
  <title>Glos</title>
  <g>
    <g>
      <path class="cls-1" d="M311.87,616.39C279.21,612.7,235,568.08,229.59,536c-4.69-27.73,21-39.37,44.45-31.11,6.65,2.34,12.22,6.54,18.4,9.77a.5.5,0,0,0,.58-.79c-13.95-14.25-35.49-23.15-53.92-11.17-17,11.07-16.5,29.89-10.77,47.26a1.26,1.26,0,0,1-1.13,1.66c-7.52.38-38.53-3.61-45.39-6.86a1.55,1.55,0,0,1-.82-1.83,32.16,32.16,0,0,1,1.3-3.2c.89-2.27,7-15.08,8.41-20a1.42,1.42,0,0,0-1.42-1.83,1.3,1.3,0,0,0-1.14.77c-11.22,24.95-22,51.28-35.6,75-6.26,10.93-15.74,26.31-27.36,31.8-9.91,4.69-21.4,4.17-32,5.89-2.94.47-12,3.3-13.59,3.15h0a1.46,1.46,0,0,1-1.21-1.93l1-3a1.1,1.1,0,0,0-1-1.46c-3.66-.15-2-3.6-1.72-6.83a.76.76,0,0,0-1.22-.68l-1.77,1.37a1.29,1.29,0,0,1-2-.76,24.2,24.2,0,0,1-.06-5.75c1.89-26.6,31.06-17.75,42.31-30.32,9.29-10.4,10.92-28.55,14.46-41.56,3.29-12.1,8.32-24.24,11.8-36.35a1.45,1.45,0,0,0,.06-.3c.26-2.09-.71-3-2-2.44a2.63,2.63,0,0,0-1.48,1.66l-5,15.41a.87.87,0,0,1-1.65.05,1.89,1.89,0,0,0-.11-.25c-1.87-4.09-3.34-8.94-5.08-13.23a2.06,2.06,0,0,1,.16-1.9c6.87-10.76,14.49-22,16.28-34.92a1.33,1.33,0,0,0-1.59-1.48,1.73,1.73,0,0,0-1.32,1.34c-1.86,9.3-6.15,18.21-11.11,26.2-2.31,3.71-4.27,7.41-8.65,8.74-2.65.27-.72-8.35-.83-10.58-.09-1.69-1.14-4.12-1-5.14.16-1.42,9-11.82,9.38-16.43a1.76,1.76,0,0,0-1.7-1.88,1.52,1.52,0,0,0-1.55,1.3c-.84,5.53-9.83,18-13.17,18-3-.06-.44-6.64-.3-8.72.4-5.87-2-13.37-1.24-18,.34-2.19,4.19-9.1,5.39-12.18a1.66,1.66,0,0,0-.66-2h0a1.21,1.21,0,0,0-1.52.19c-2,2.19-4.62,10.21-5.68,12.15a9.73,9.73,0,0,1-2.17,3.13,1.09,1.09,0,0,1-1.7-1c.21-3.76-1.33-7.52-.7-11.26.38-2.23,4.44-6.56,6.08-10.65,2-4.89,7.69-19.06,8.46-24.69a1.87,1.87,0,0,0-1.45-2.07,1.47,1.47,0,0,0-1.77,1.23A75.93,75.93,0,0,1,108.17,433c-1.13,3.05-6.85,16.24-10.59,19.11a1.68,1.68,0,0,1-2,.05,1.5,1.5,0,0,1-.63-1.56c1-4.54,2.77-9.06,2.83-13.75,0-3-2.23-11-1.69-13.39.29-1.29,5.12-6.08,6.2-8,2.46-4.37,3.85-9.88,6.09-14.48a1.86,1.86,0,0,0-.09-1.77l0,0a1.35,1.35,0,0,0-1.68-.55,2.76,2.76,0,0,0-1,.81c-1,1.2-3.37,9.11-4.55,11.54a30,30,0,0,1-5.84,8.76,1.77,1.77,0,0,1-3-.93c-.2-1.18.08-2.51-.14-3.8-.53-3-1.69-6.76-1.84-9.75-.6-12,10.5-20.88,12-32.64a.77.77,0,0,1,1.44-.29l2,3.39a28.58,28.58,0,0,0,5.09,6.39,29.09,29.09,0,0,0,7.13,5,25.3,25.3,0,0,0,6,2.21,1.46,1.46,0,0,0,1-2.65c-1.33-.88-3.33-1.1-4.74-1.83-11.12-5.74-19.71-18.92-15-31.67,5.4-14.73,39.41-38.18,55.05-32.39,3.3,1.22,5.09,4.62,5.76,1.93.31-1.25-.77-2.17-1.6-2.89-5.66-4.8-16.07-2.35-23.12-.43a1.1,1.1,0,0,1-1.37-1.21c.73-5.57,1.45-11.11,4.78-15.69a3.56,3.56,0,0,1,3.27-1.43c14.77,1.67,31.95-1.5,44.78-8.84,1.06-.61,5.18-3.06,7.15-5.2a1.41,1.41,0,0,0-1.57-2.27c-2.08.84-3.78,2.86-5.82,4-12.44,7-31.8,12.11-45.89,9-5-1.1-9.35-4.86-14.58-5.53a1.41,1.41,0,0,1-1.16-1.86c1.13-3.21,6.42-6.06,9.17-6,1.66,0,4.58,2.87,6.56,3.74,11.54,5,12.94-3.56,4.21-9.39-4.43-3-10.59-3.31-15.58-5s-12.94-6.77-17.21-7.24c-5.47-.59-13.4,3.2-19.1,2.47-1.63-.21-2.1-.56-2.21-1.52A1.64,1.64,0,0,0,94,266.39c-2,1.61-3.22,5.33-3.16,7.36.16,5,8.71,16.05,7.43,19l-.09.17a1.62,1.62,0,0,1-2.56.17c-8.37-9.42-17.32-16.26-14-30.54,2.74-11.64,11.88-18.8,22.25-23.4,9.28-4.12,17.64-7.24,26.48-1.73a2,2,0,0,1,.46,2.91,9.89,9.89,0,0,0-1.94,4.78.71.71,0,0,0,1.16.64c2.43-2.18,5-3.84,8-1.8a1,1,0,0,1,.07,1.53,2.91,2.91,0,0,0-.92,3.2l.17.51a2.38,2.38,0,0,1-1.58,3.07l-.14,0a2,2,0,0,0-1.14,2.89c2.13,4.21,7.47,4.51,12,4.28a3.93,3.93,0,0,1,3.31,1.51c1.31,1.72,3.27,2.61,3.19-.58-.28-10.48-12.45-21.4-22.42-26.31a1.55,1.55,0,0,1,.27-2.88c14.22-4,30.18-3.66,43-11.41a4,4,0,0,0,1.82-4.45,20,20,0,0,1-1-6,3.23,3.23,0,0,1,3.9-2.91c5.62,1.25,15.57,8.34,18.14,10.54,5.39,4.61,10.64,11.21,12.73,18.25.55,1.85-1,3.39-2.92,3.37a1.07,1.07,0,0,1-.86-.31c-.47-.43-3.07-6.9-3.94-8.29-4-6.47-10.08-11.59-16.62-15.46a2.12,2.12,0,0,0-3.18,2c.25,3,.92,5.88,1.3,8.81,1,7.35.87,8.85,2.76,16.56,2.57,10.46,5.75,5.46,13.29,3.41,12.34-3.36,19.5-2,29.17,6.15,14.61,12.27,22.18,30.89,25.18,49.48,2.67,16.55,2.85,33.4-11.05,45.28-.83.71-2.47.3-2.57,1.84-.22,1.18,2.42,3.62,3.24,5.2,5.21,10.06,8,28.26,3.19,38.7-1.87,4.07-6.15,8.56-10,5.51-4.28-3.42-3.4-8.53-3.82-13.56-.26-3.06-2.22-13.19-3.93-15.39-1.55-2-3.19-1.17-2.79.94.74,3.87,2.81,8.11,3.44,12.59,1.2,8.54.7,18.3-2.47,26.37-2.89,7.34-9.74,15.7-17.16,9.46-5-4.19-3.74-8.35-5-14.32-.9-4.31-4.17-13.51-7.37-16.44-1.63-1.51-3.57-1.2-3,1,.42,1.48,3.75,5.75,4.78,8.11,3.06,7,6.2,21.89.44,28s-13.11-4-15.86-8.61c-.78-1.32-.94-5-3.41-4.31-1.91.52-.45,2.7.29,4.91.87,2.62-1.5,8.87-4.45,9.67-4.15,1.13-2.27-8.47-5.48-8-2.33.37-.71,5.18-.94,7.26-.76,7-9.7,6.85-11.28-.94-.35-1.74.24-5.47-.26-6.12-1.71-2.22-3,2-3,3.71,0,5.54,3.33,11.89,9.11,12.64a1.62,1.62,0,0,1,1.42,1.67c-.56,14.95,9.28,26.8,21.28,12.09a.33.33,0,0,1,.59.23c-.41,8.3,1.66,20.05,11.52,19.7a.83.83,0,0,1,.8,1.16c-5.49,13.17,5.21,22.07,16.58,13.2a1.83,1.83,0,0,1,2.2,0c8.29,6,18.83-1.11,24.44-8.23a1.24,1.24,0,0,1,1.9-.06c.93,1.05,1.34,1.84,3.3,2.16,11.21,1.83,25.28-13.82,29.41-24a.74.74,0,0,1,1.23-.22c1.89,2.15,3,5,5.77,6.38,9.92,5.16,17.27-8.44,18.87-17a.74.74,0,0,1,1.16-.47c6.2,4.57,14.55,8.53,20.53,1.22,9.39-11.48,6.53-40.91,4.71-55-.63-4.87-1.71-9.68-2.4-14.54a1.48,1.48,0,0,0-1.43-1.28,1.54,1.54,0,0,0-1.56,1.79c2.87,18.5,6.69,38.86,2.48,57.34-3.38,14.81-12,16.4-21.85,6.21a1.93,1.93,0,0,1-.53-1.62,44.59,44.59,0,0,0-.45-15c-.29-1.31-.74-3.65-2.71-3.06s.15,4.81.3,7.42c.44,7.85-.34,17.31-3.95,24.37-6.4,12.51-14.94,8.09-18-3.57A94.54,94.54,0,0,1,277.85,432c0-3.14,2.92-8.55,3-12.7a1,1,0,0,1,1.29-.91c14.14,4.69,23.22-10.84,26-22.95s2.2-29.09-7.92-37.74a1,1,0,0,0-1.13-.08l-.32.2a1,1,0,0,0-.3,1.37c2,3,3.46,4.31,4.86,7.31,6.15,13.21,2.55,48.52-15.39,49.95-8.74.69-6.36-4.82-6.63-10.43-.24-4.76-2.09-13.82-6.35-15.53-2.47-1-6.59-.17-3.69,1.46,1.58.88,1.88.58,3.06,2.39,9.05,13.9-.48,52.43-14.81,60.54-5.95,3.36-10.29,2.09-13.1-4.14-5.48-12.14,3.89-28.28-3.85-41.26-2.09-3.5-3.66-3.23-3.55-.95.13,2.7,2.76,7.29,3.15,11,1.22,11.78-1.08,26.31-7.1,36.54-5.78,9.8-14.1,13.54-18.79.43-2.6-7.27-.83-8.6.12-15.32.24-1.73,1.39-7.5.56-10.18a1.54,1.54,0,0,0-2.22-.9,1.39,1.39,0,0,0-.73,1.26c.21,9.51-2.44,21.21-8.35,28.68s-12.08,6.72-14.45-2.85c-2-8.16.25-16,1-24.19.05-1.67-2.19-2.6-3.13-1.52-.67.77-1.25,7.09-1.83,8.78-2.75,8.09-12.25,18.62-17,5.74-.92-2.5-2.07-10.66-.84-12.69.13-.21,2.66-2.81,3.84-3.06,1.62-.32,1.78,1.15,3.21,1.17,4.19,0,5.87-4.85,6.81-7.7a1.17,1.17,0,0,1,2-.35c6,7.64,16.78,8,19.35-2.32a1.77,1.77,0,0,1,2.66-1.07,16.84,16.84,0,0,0,3.45,2.06c12.26,4,20.22-10.84,21.12-21.39a1.42,1.42,0,0,1,1.9-1.22c1.28.46,2.45,1.31,3.79,1.51,8.73,1.31,13.44-9.62,14.18-17.49a1.51,1.51,0,0,1,2.16-1.21c13.55,6.52,21-9.61,22.18-21.78A1.39,1.39,0,0,1,278,359.3c4.9,1.72,8.55-.85,10.95-5.76,5-10.35,3.14-29.73-.45-40.46-.59-1.77-2.73-7.31-3.85-8.39s-3.4-1.48-3.24,0c.33,3,3.29,6.08,4.51,10.29,1.93,6.69,3.52,16.28,3.22,23.25-.18,4.4-2.08,17.65-7.46,18.32-6.81.86-5.82-7-7-11.58-.45-1.74-2.16-7.41-4.22-9a1.26,1.26,0,0,0-1.89,1.55c5.46,11,6.7,26.23.15,36.94-3.62,5.9-10,8.06-16.2,2.49-.82-.74-.44-7.19-2.35-13.75A73.09,73.09,0,0,0,245,350.48a1.55,1.55,0,0,1,.49-2l.27-.21c9.21-7.77,17.62-24.48,22-45,3.42-16.14-2.8-50.48,24.7-44.42,19.81,4.36,30.1,23.66,39.12,40,21.08,38.14,30.85,75.29,28.79,119.4-1.24,26.75-5.4,74.87-22.48,96a18.84,18.84,0,0,1-2.41,1.89,1.63,1.63,0,0,0-.34,2.11,1.54,1.54,0,0,0,2,.56c3.18-1.7,7.58-9.76,9.79-13.62a1.11,1.11,0,0,1,1.91-.05,78.3,78.3,0,0,1,9.91,21.68C365,550,362.6,592.94,355,615.91c-8.7,26.43-52,21.5-71.63,11.68-16.89-8.45-27.82-27.39-45.49-32.93-11.84-3.72-23.78-1.8-28,11.43-2.43,7.55.11,16.45-8.65,21-6.22,3.22-12.7-.05-19.63.25-4.43.19-11.33,2.52-15.22.53-5.69-2.91,4.45-5.35,7-6.84a21.69,21.69,0,0,0,3.32-2.28.84.84,0,0,0-.49-1.48l-2.49-.14a1.65,1.65,0,0,1-1.39-2.35c1.27-2.72,5.47-6.54,6.38-7.74,9.15-12.06,12-24.26,28.25-29,13.79-4,35-.94,46.5,8.08,3.88,3,7.44,7.92,11.24,11.27,12.82,11.31,39.24,27.45,56.59,21h0a1,1,0,0,0-.39-2c-3,0-6.22.39-9.06.07"/>
      <path class="cls-1" d="M246.91,472.47a4.76,4.76,0,0,1-1.29-3.26c.26-2.67,2.31-8.11-.47-7.52-1.5.32-1.55,4.85-2.13,6.24C240.5,474,230,483.74,222.81,481.54c-4.42-1.36-.29-5.54.27-8.71a1.23,1.23,0,0,0-1.27-1.43l-.27,0a1.32,1.32,0,0,0-1.2.94c-2,6.56-13.68,15.61-18,7.83-2.62-4.73.63-8.63,1.62-13.23a2.71,2.71,0,0,1,.74-1.33,29.77,29.77,0,0,0,6.92-9.64.66.66,0,0,1,1.2-.07l4.08,7.59a8.44,8.44,0,0,0,5.16,4.2c8.63,2.38,17.09-10.11,19.24-18.19a.65.65,0,0,1,1.18-.18c2.14,3.34,2.85,7.48,6.9,9.37,11.23,5.25,22-10.17,25.35-19.52a.64.64,0,0,1,1.22,0,5.18,5.18,0,0,1,.1,1.73c-.67,8.42-3.44,16.34-8.8,22.34-3.46,3.88-15.26,14-20.35,9.19"/>
      <path class="cls-1" d="M146.34,281.33l-7.16-1.59a1.36,1.36,0,0,0-1.61,1.66.41.41,0,0,1-.31.51,14.77,14.77,0,0,0-7.62,4.42c-5.86,6.89,1.12,13.8,1,20.94s-5.63,14.7-12,17.67c-2,.95-7.88,3.3-9,.74-.6-1.44,3.41-9.64,3.6-12.56.53-8.4-4.57-17.27-1-25.49,1.86-4.28,11.29-12.8,16-12.8,2.14,0,16.26,4.52,17.82,5.22l.47.19a.57.57,0,0,1-.32,1.09"/>
      <path class="cls-1" d="M123.07,271.88a1.15,1.15,0,0,1,.59,1.05c0,.6-.31.45-.93.67-4.52,1.64-7.2,4.84-10.27,8.31a2.63,2.63,0,0,1-3.3.54c-3.55-2.05-7.38-3.69-10.82-5.89-.84-.55-2.16-1.16-3.13-1.92a1.69,1.69,0,0,1,1.18-3,61.62,61.62,0,0,0,8.88.51c6.34-.36,11.68-3.81,17.8-.27"/>
    </g>
    <g>
      <path class="cls-1" d="M651.23,596.38a5.46,5.46,0,0,1-4.71-4.31c-3.78-18.38-6-39.15-11.12-56.68-10.27-35.16-41.38-48.54-74.63-36.62-5.36,1.92-5.06,4.24.63,4.57,3.2.2,7.93-1.59,10.82-2.16,22.15-4.41,41.64,5,52.23,26.21,8.1,16.22,15,48,.07,58.91-5,3.65-10.06,4.76-14.89,7.77S597.12,603,593.7,607.71a1.44,1.44,0,0,0,1.87,2.12c5.15-3.07,13.77-10.22,16.46-11.65,15.38-8.14,17.9-4.49,32.42.06,6.73,2.1,10.26,1,15.07,5.47a8.26,8.26,0,0,0,5.88,2.67l16.79-1.22a1.79,1.79,0,0,1,2,2L682.82,612a1.26,1.26,0,0,0,1.28,1.61c11.32-.8,26.12,2.72,6,6.78a1.31,1.31,0,0,0-1.09,1.34c.3,3.17,5.75.45,8.51,2.42a1.29,1.29,0,0,1,0,2c-8.69,7.29-21.27,4-31.22,5.34-2,.27-3,4.13-.23,4,13.47-.6,25.67,1.06,36.26-7.1,2.34-2.48-2.19-6.15-2.2-7.17s3.11-2.45,3.52-4.26c1.31-5.82-9.37-6.6-14.55-7.1a1.25,1.25,0,0,1-1.08-1.52c.58-2.65.58-5.59-2.59-6.57-6.8-2.08-12.74,1.47-19.87.14-3.12-.58-4.22-2.11-6.61-3.49a20.94,20.94,0,0,0-7.75-2.08M573.46,371.9c1.67-1.19,3.82,1.13,2.88,3-6.7,13-6.43,29.57-1,43.06,1.57,3.88,5,12.27,8.33,8.59,2.75-3,5.3-11.87,8.13-15.2,1.44-1.69,3.89-1.81,4.35.37,1.22,5.67-.54,14.54.5,20.12,1,5.33,2.68,11.4,8.07,7.09a5.88,5.88,0,0,1,8.8,1.6c3.42,5.8,7.72,10.45,9.77,16.28a6.42,6.42,0,0,0,12.38-1q.29-1.5.45-3.18c.33-3.4,3.85-3.3,4.71-1.71,1.7,3.14,3.07,5.39,4.91,8.34s5.7-.23,5.47-5.67c.46-10.29,1.19-15,4.52-11.95,2.49,2.27,2.86,6.22,2.86,6.22a4.38,4.38,0,0,0,8.1,2,42.09,42.09,0,0,0,3.14-6.86c.67-1.67,2.43-3.56,4.08-2.23,4.34,4.73,7.34,8.36,8.8,13.65a4.76,4.76,0,0,0,8.37,1.66c4-5.1,5.91-11,6.3-18.43.27-5,6.71-10.47,10.18-15.1a70.26,70.26,0,0,0,10.85-20.75,1.23,1.23,0,0,1,2-.56c3.12,2.77,9.67,11.28,11.07,13.31,14.6,21.37-4.25,37.67-1.73,60.1C730.35,480,734,486.6,733.4,492c-.43,3.76-3,8.07-4.35,12.44-1.11,3.51-2.22,4.12-7.42,3.33h0s-5.77-.41-7.61-.76c-1.69-.31-3.32.6-3.33,2.32a2.75,2.75,0,0,0,2.58,2.77c34.27,1.56,40.81,35.21,55.17,60.44a15.33,15.33,0,0,1,2,8l-.4,15.18a4,4,0,0,1-3.29,3.83c-9.47,1.71-13.73-7.15-17.1-15.91a1.51,1.51,0,0,0-2.93.55c.2,4.19,3.19,10.13,4.3,12.81a1.26,1.26,0,0,1-1.28,1.75c-16.81-1.94-16-21-24.82-32.48-7.32-9.55-17.37-16-28-21.27a26.46,26.46,0,0,1-14.1-18c-1-4.69-2-9.32-3.09-11.66-.91-2-4.51-5.86-5.86-3.34-7.35,13.67,11.77,30.12,12.36,44.33.37,9.2.34,15.78.17,24.28-.45,22.86,4.23,17.71,18.82,28.57,7.68,5.72,11.15,15.45,12.78,24.89a5.59,5.59,0,0,1-5,6.56c-10.09.78-30,.63-34,.42-6.4-.33-22.34.56-27.5-1.64-3.19-1.36-8-8.63-9-11.91-2.43-7.62,5-21.16-9.52-21.72-13.4-.52-32,19.64-44.62,25.55-22.69,10.62-56,14.33-71-9.75-33.9-54.54-15.46-153.9,17.27-205.79,13.52-21.43,24.26-33.35,39-43.86"/>
      <path class="cls-1" d="M601,201.61c-1.49,2.56-10,11.64-4.71,13.55,2.33.83,4.37-4.75,5.66-7.42,5.34-11.05,15.24-3.36,24-3.43,3.65,0,7.3-2.17,10.94-2.56,13.71-1.46,33.52,21.07,20.76,17.66-13.07-3.5-19.73,3.22-28.5,13.38-3.32,3.86-11.7,17.63-13.75,19.09-4.42,3.13-6.52,0-11.74,7.41-6.36,9.06-4.78,21.92,4.07,21,6.53-.66,6.66-13.56,7.85-15.83,4.57-8.71,23.71-39.13,33.41-39.78,7.84-.52,13.51,7.24,19.89,9.77,7.16,2.83,25.89,1.91,17.83,7.18-13,8.51-34.47,23.86-22.83,28,1.52.54,4.81-2.41,6.66-4.25a1.9,1.9,0,0,1,2.48-.21c4.49,3.57,11.63-.7,10.31-6-.24-1-1.64-2.73-2.72-4a1.93,1.93,0,0,1,.24-2.73c12.17-10.29,11-2.63,18.69,5.41,6,6.32,13.72,10.74,19.75,17a7.64,7.64,0,0,1,1.72,7.87c-2.08,5.82-5.89,15.55-9.86,17.69-8,4.31-21.47,2.47-28.08,7.21-1.16.83-.42,6,.24,6.92a1.65,1.65,0,0,0,1.74.62L706,310a1.91,1.91,0,0,1,2.26,2.53c-2.31,6.34-1.64,16.59-5.85,18.74-7.74,3.93-9.24-7.51-18-4.59-11.27,3.75,11.69,14.06,13.06,15,31.05,20.85,21.12,60.59,1.29,85.68a1.94,1.94,0,0,1-3.45-1.2c-.2-9.39,7.72-17,5.77-26.35-1.42-6.81-9.27,21.22-9.55,23.73-.7,6.15,1.73,11.43,1.35,15.63-.29,3.3-1.85,7.6-3.21,11.42a1.9,1.9,0,0,1-3.46.28c-1.24-2.35-1.93-5.17-3.45-7.55-7-10.88-8.14-9.87-8.68-25.2-.54-15.54,1.93-17.24,8.35-29.92,2.52-5,2.56-8.16.42-6-11.1,11.07-13.36,18.46-12.95,33.22.13,4.46,1.06,8.37.72,12a43.73,43.73,0,0,1-4.7,15.35,1.9,1.9,0,0,1-3.36-.15c-3.15-6.56-8.16-5-7.59-21.07.26-7.65,1.77-16.93,2.88-24.41-3.08-3.57-5.92,8.71-7.22,13.78-1.37,5.35-1.74,25.53-3.86,33.42-.42,1.6-2.77,2-3.44.49-8.12-18.22-12.3-34.9-7.07-55.14-.76-1.8-2.76-.67-3.36.7a44.42,44.42,0,0,0-3.49,25.11c1.51,12.15,8.23,26.6,1.84,38.42a1.92,1.92,0,0,1-3.55-.51c-2-7.91-9.84-13.42-11.4-20.49-2.1-9.5-2.07-27.68-3-39.22-.24-3,.09-5.68-1.42-8.78-1.15-2.34-2.55.15-2.74,2.06a170.75,170.75,0,0,0-.23,20.74c.34,6.67,2,13.5-.15,19.53-.51,1.44-1.92,5.86-4,6.49-1.41.44-2.81-1.58-3-3.05-1.54-11.8,2.35-23.66-4.76-34.9-1.66-2.63-3,1.52-4.09,3.34-3.61,6.14-7.76,12.95-9.42,19.73-2.49,2.62-5.06-6.63-5.32-7.54-2.79-9.72-3.08-17.9-.5-28.86,1.3-5.56,12.39-17.94,2.48-18.65-9.17-.66-23.39,14.59-31.56,23.81a1.9,1.9,0,0,1-3.31-1.48c.79-7.7,4.41-16,.38-22.93-2.9-5-3.09,12.62-3.19,14.07-1.35,17.79-10.5-4.25-9.62-11.27,1.36-10.82,19.61-19.42,29.26-20.75,5-.69,9.47-.15,14-1.05,1.42-.29,4.73-2.08,2-2.72-12.86-3-27,.12-38.28,8.38-1.56,1.13-4.56,4.51-7.49,7a1.91,1.91,0,0,1-3-2.3c2.31-4.6,6.84-10.46,6.82-11.09,0-.8-2.1-1.52-3.69-2.64a1.46,1.46,0,0,1,.73-2.66c10.77-.48,21.39-6.7,28-15.72,2-2.72,6.18-13.05,2.71-9.5-6.53,6.65-10,11.57-18.34,16.42-4.39,2.54-15.27,7.24-18.87,3.6a1.88,1.88,0,0,1-.33-2l2.87-6.05c0-.07,2.95-4.93,3-5,.61-1,3.79-5.48,4-5.7,5.06-5.85,10.82-8.65,17.55-12.15,2.32-1.19.63-2.73-2-2.74-7.18,0-12.25,7.21-18.9,9.54-1.42.51-1.07-2.19-1.07-2.19-.19-1.1-.62-1.37-1.62-.86a3.61,3.61,0,0,1-4.93-4.62c4.38-11.17,14.31-10.38,25.86-20.79,2.44-2.2-3.63-1.42-6.16-.84-5.9,1.35-8.46,2.57-12.78,2.67-1.55,0-2.54-2.18-3.23-4.06-3.79-10.44,8.43-6.79,20.14-15,3-2.12-11.46-1.66-16.59,2.18a1.67,1.67,0,0,1-2.57-1.85c1.12-3.94,4.89-6.19,6.37-9.65.44-1,.59-2.64,1.25-4.08,5-11.11,13.15,1.46,22.68,3.09,3.2.55,13.32,2.17,15.85.4,4.73-3.33-5.73-3.53-9.22-3.89-7.41-.76-17.95-3.61-20.86-11.15a1.88,1.88,0,0,1,1.79-2.57c7.84.29,16.22-.62,22.28-6.2,1.35-1.24,4.14-5.3.64-4.75-1.81.29-10.74,9.49-11.45,6.1-1-4.74,2-9.11,5.77-13a53.76,53.76,0,0,1,13-10.64c3.83-2.33,25-8.84,23.1-5.55"/>
    </g>
  </g>
</svg>
