<svg id="Livello_1" data-name="Livello 1" xmlns="http://www.w3.org/2000/svg" viewBox="0 0 841.89 841.89">
  <defs>
    <style>
      .cls-1 {
        fill: #231f20;
      }
    </style>
  </defs>
  <title>Glos</title>
  <g>
    <path class="cls-1" d="M327.39,594.15l-18.18,17.41c2.13.1,4.19.14,6.24.31,6.17.51,12.34,1,18.5,1.63a13.06,13.06,0,0,1,3.57.93c2,.8,3.83,2.18,2.52,4.42-.64,1.11-2.8,1.95-4.22,1.88-2.93-.15-5.82-1.1-8.75-1.55-17.69-2.7-34.61.82-51,7.12a24.17,24.17,0,0,0-10.23,8.34c-8.41,11.86-18.5,22-29.48,31.39a13.83,13.83,0,0,0-2,2.17,2,2,0,0,0-.24,1c5.8-.25,11.69-.82,17.56-.62a19.7,19.7,0,0,1,8.3,2.72c1,.52.93,2.87,1.36,4.39-1.47.38-3.31,1.52-4.33,1-7.07-3.5-14.25-2.31-21.1-.21-12.12,3.72-22.92,9.68-28.81,21.77-1.72,3.53-4.06,7.77-1.21,11.2,3,3.62,7,.5,10.24-.87,10.93-4.63,22.63-5.25,34.1-7.14a102.85,102.85,0,0,0,10.93-2.11c10.94-3.07,18.12-10.18,20.88-21.18,1.5-6,2-12.21,3-18.33a26.91,26.91,0,0,0,0-3c.07-2.14.76-4.44,3.16-3.93,1.3.28,2.8,2.61,3,4.2.45,2.9.06,5.94,0,8.92,0,1.68-.16,3.36-.28,5.62,9.58-2.66,18.61-1.67,27.69-.51a46.9,46.9,0,0,0,35.69-9.54c6.72-5.13,13.56-10,18.63-17.38-4.46-12.34-1.76-23.22,8.17-32.77-6-7.19-10.16-15.13-8.7-24.9,1.42-9.49,7-16.19,15.63-21.58-16-5.9-29.3-14.51-42.54-23.27-15.24-10.07-26.89-23.43-35.81-39.23a60.83,60.83,0,0,1-8-29.91c-.07-18.41-4.53-35.69-12.42-53.18-16.11,14-28.76,29.53-33,51.93,5.06-.67,9.11-1.59,13.17-1.66a98.7,98.7,0,0,1,14.67,1c2.22.3,4.46,1.82,3.52,4.64-.73,2.21-2.64,2.2-4.92,1.86-13.55-2-26.87.19-39.6,4.34-10.29,3.35-17.34,11.39-21.6,21.39-3,6.93-1.45,13.7,2.3,19.94,3.31,5.49,7,10.78,10.48,16.2,6.62-6.77,8.75-18.64,4.86-26.66-.65-1.33-1.9-2.48-2.16-3.86-.24-1.2.11-3.14.94-3.74s3.27-.49,3.8.22a30.25,30.25,0,0,1,4.78,8.25c2.91,8.8,1.09,17.45-3.14,25.2-9,16.36-19.9,30.91-38.71,37.26-5.46,1.85-6.4,5.56-3.17,10.38a9.11,9.11,0,0,0,1.91,2.27c11.51,8.68,24.32,12.79,38.38,8.3,13.4-4.29,22.49-13.45,25.26-27.74.7-3.61.53-7.42.55-11.13,0-3.23-.19-6.46-.42-9.68-.65-9.14,2.25-16.6,10.44-21.78-.26-5.17-.53-10.35-.77-15.53a24.69,24.69,0,0,1,0-3c.19-2.63-.4-6.16,3.62-6,3.48.11,2.95,3.35,3.05,5.76.15,4,.37,7.94.33,11.91-.13,13.22,6.26,23.08,16.14,31.77,1.42-1.58,2.59-3.11,4-4.39a76.23,76.23,0,0,1,8-6.63c.85-.58,3.55-.22,3.76.33.51,1.34.19,3.07-.1,4.58-.11.57-1,1-1.63,1.46a32.8,32.8,0,0,0-2.89,2.34c-10.35,10.75-9.24,18-.64,26.27,11.65,11.21,25.74,15.4,41.79,12.17,1.7-.34,3.41-1.12,5.07-1,1.46.1,3.62.79,4.13,1.85,1,2.21-.66,3.76-2.77,4.35a37,37,0,0,1-8,1.68c-5.91.3-11.85.24-17.78.24C330.68,594.47,328.46,594.21,327.39,594.15Z"/>
    <g>
      <path class="cls-1" d="M733,213.5c-3.14-6.22-6-7.05-11.5-2.64a72.88,72.88,0,0,1-33.66,14.92c-10.75,1.8-21.69,2.27-32.57,3.2-12.59,1.06-25.3,1.4-37.79,3.11-31.64,4.32-55.82,28.25-61.11,59.55-.46,2.7-.93,5.41-1.64,8-3.3,12.4-16.7,21-29.25,18.58-1.43-.28-2.52-2.36-3.79-3.63,1.27-1,2.42-2.49,3.82-2.8,3.14-.65,6.46-.44,9.6-1.06,6.78-1.4,8.15-3.67,6.84-10.35a44.91,44.91,0,0,0-1.21-5.06c-4.79-14.77-15.45-23.25-29.84-27.57-3.6-1.09-6-2.43-6.77-6.62-1-5.29-4.32-9.45-8.58-12.72-3.89-3-7.93-5.81-11.88-8.67.35-2.2.75-4.13.91-6.12.46-6.18.77-12.37,1.3-18.55.16-2.06,1-4.45,3.48-3.7,1.31.37,2.83,2.73,2.86,4.22a69.48,69.48,0,0,1-1,12.62c-.84,5.26,1,8.92,5,12.28,10.23,8.64,21.94,14.33,34.66,18.24A29.84,29.84,0,0,0,547,259a45,45,0,0,0,21.29-11.59c6.18-6.09,12.46-12.15,18.08-18.74,10.11-11.78,22.88-18.62,37.68-22.57,12.68-3.38,25.64-2.3,38.47-2.95,5.35-.25,9.92.69,14.58,4,8.24,5.84,22.35,5,29.9-1l-6.06-4.38c6.28-2.65,12.06-5.07,18-7.56-.22-3.2-.41-5.69-.66-9.48-9.76,8.27-19.89,9.58-31.86,7.77,6.41-5.47,13.09-9.51,15.79-16.81-.46-.69-.68-1.28-1.05-1.46-16.48-8.46-35.53-4.29-45.1,8.42-.59.81-1,2.08-1.74,2.33a6.06,6.06,0,0,1-4.07.09c-.66-.27-1.06-2.14-.9-3.17.31-1.74,1.18-3.35,2.08-5.75-10.45,2.24-19.58.41-28.6-2.82-10.07-3.64-20.14-2.83-29.74,1.43a89.39,89.39,0,0,0-16,9.26c-10.07,7.27-19.52,15.35-29.65,22.53A61.07,61.07,0,0,1,530.94,215c-8.7,2.77-17.78,3.73-26.64-.09,0-4.54,1.74-5.88,5.63-5.13,2.95.56,6,.62,9.54.93-3.82-9.94-16.72-15.79-37.2-17.62-.62-1.12-1.43-2.36-2.09-3.67-5.43-11-14.88-16.32-26.48-18.18a14.77,14.77,0,0,0-8.57,1.21c-10.79,5.32-15.82,22.66-9.86,33.72,2.05-1.43,3.92-3.1,6.13-4.13,4.47-2.05,9-3.92,13.7-5.53,2.08-.72,4.32.15,4.38,2.58.07,1.21-1.42,2.83-2.64,3.67s-2.86.68-4.26,1.18c-10.25,3.6-17.46,10.35-20.6,20.88-2.33,7.77.65,14.49,7,18.74,4.54,3.08,8.58,1,12.77-.09,18.06-4.47,38.23,6.09,44.73,23.4,2.67,7.06,1.46,13.12-3.85,18.4-1.22,1.22-2.55,2.34-3.89,3.45-6.12,5.16-11.78,10.57-15,18.22a14.49,14.49,0,0,1-6,6.34c-8.76,5.1-22.1,1.83-28.06-6.47-6.93-9.63-7.06-27-.28-36.73,3.54-5.1,8.73-6.22,14.45-5.78,5.1.37,8.14,3.63,9.85,8,2.43,6.16,3.11,12.5.34,18.84-.56,1.27-.93,2.58-1.49,4.16,9.08-1.58,14.92-7.61,16.85-16.75,3.42-16.47-8-29.18-24.65-27.48a40.5,40.5,0,0,0-20.48,8.12c-3.7,2.76-8.89,4-13.34.62-4.44,3.42-9.63,2.14-13.33-.62A40.5,40.5,0,0,0,387.13,251c-16.63-1.7-28.07,11-24.65,27.48,1.93,9.14,7.77,15.17,16.85,16.75-.56-1.58-.93-2.89-1.49-4.16-2.77-6.34-2.09-12.68.34-18.84,1.71-4.35,4.75-7.61,9.85-8,5.72-.44,10.91.68,14.45,5.78,6.78,9.72,6.65,27.1-.28,36.73-6,8.3-19.3,11.57-28.06,6.47a14.49,14.49,0,0,1-6-6.34c-3.2-7.65-8.86-13.06-15-18.22-1.34-1.11-2.67-2.23-3.89-3.45-5.31-5.28-6.52-11.34-3.85-18.4,6.5-17.31,26.67-27.87,44.73-23.4,4.19,1.06,8.23,3.17,12.77.09,6.31-4.25,9.29-11,7-18.74-3.14-10.53-10.35-17.28-20.61-20.88-1.39-.5-3.1-.41-4.25-1.18s-2.71-2.46-2.64-3.67c.06-2.43,2.29-3.3,4.38-2.58,4.66,1.61,9.23,3.48,13.7,5.53,2.21,1,4.08,2.7,6.13,4.13,6-11.06.93-28.4-9.86-33.72a14.77,14.77,0,0,0-8.57-1.21c-11.6,1.86-21.05,7.21-26.48,18.18-.66,1.31-1.47,2.55-2.09,3.67-20.48,1.83-33.38,7.68-37.2,17.62,3.51-.31,6.59-.37,9.54-.93,3.89-.75,5.66.59,5.63,5.13-8.86,3.82-17.94,2.86-26.64.09a61.07,61.07,0,0,1-16.44-8.33c-10.13-7.18-19.58-15.26-29.65-22.53a89.74,89.74,0,0,0-16-9.26c-9.6-4.26-19.67-5.07-29.74-1.43-9,3.23-18.15,5.06-28.6,2.82.9,2.4,1.77,4,2.08,5.75.16,1-.24,2.9-.9,3.17a6.06,6.06,0,0,1-4.07-.09c-.74-.25-1.15-1.52-1.74-2.33-9.57-12.71-28.62-16.88-45.1-8.42-.37.18-.59.77-1.05,1.46,2.7,7.3,9.38,11.34,15.78,16.81-12,1.81-22.09.5-31.85-7.77-.25,3.79-.44,6.28-.66,9.48,6,2.49,11.75,4.91,18,7.56l-6.06,4.38c7.55,5.93,21.66,6.8,29.9,1,4.66-3.32,9.23-4.26,14.58-4,12.83.65,25.79-.43,38.47,2.95,14.8,4,27.57,10.79,37.68,22.57,5.62,6.59,11.9,12.65,18.08,18.74A45,45,0,0,0,294.94,259a29.84,29.84,0,0,0,16.13-.28c12.72-3.91,24.43-9.6,34.66-18.24,4-3.36,5.84-7,5-12.28a69.48,69.48,0,0,1-1-12.62c0-1.49,1.55-3.85,2.86-4.22,2.48-.75,3.32,1.64,3.48,3.7.53,6.18.84,12.37,1.3,18.55.16,2,.56,3.92.91,6.12-3.95,2.86-8,5.69-11.88,8.67-4.26,3.27-7.61,7.43-8.58,12.72-.74,4.19-3.17,5.53-6.77,6.62-14.39,4.32-25,12.8-29.84,27.57A44.91,44.91,0,0,0,300,300.4c-1.31,6.68.06,9,6.84,10.35,3.14.62,6.46.41,9.6,1.06,1.4.31,2.55,1.83,3.82,2.8-1.27,1.27-2.36,3.35-3.79,3.63-12.56,2.46-25.95-6.18-29.25-18.58-.71-2.61-1.18-5.32-1.64-8-5.29-31.3-29.47-55.23-61.11-59.55C212,230.38,199.25,230,186.66,229c-10.88-.93-21.82-1.4-32.57-3.2a72.88,72.88,0,0,1-33.66-14.92c-5.5-4.41-8.36-3.58-11.5,2.64A44.81,44.81,0,0,0,123,270.6c16.38,11.43,35,14.45,54.61,12.71,2.23-.22,4.47-.75,6.65-.53,1.15.09,3.17,1.74,3,2.33-.31,1.37-1.46,3.36-2.58,3.57a94.88,94.88,0,0,1-13.27,1.5c-6.71.31-11.16,3.17-13.55,9.2-1.74,4.38-.59,8.39,3.82,9.76,12.13,3.69,24.37,7,37.15,3.17,2.17-.66,4.35-1,4.78,1.46.25,1.4-1.09,4.07-2.36,4.57-3.33,1.36-7,1.89-10.79,2.79-.46,3.58-.77,7.24-1.39,10.85-1.62,9.2,3.57,14.27,12.8,12.34a16.62,16.62,0,0,0,2.86-.9c10.41-4.2,20.86-3.51,31.27-.1,15.72,5.16,28.28,14.39,36.39,29,2.4,4.26,3.79,9.11,6,14.52,4.35-.44,9.2-1.06,14-1.34,2.48-.16,6.18-1.52,6.56,2.58s-3.36,3.39-5.91,3.76c-5.66.84-11.28,1.74-16.94,2.46a34.24,34.24,0,0,1-5.56-.35c1.3-12.21-4.14-21.44-12.09-29.37A56.81,56.81,0,0,0,226.72,348c-14.33-2.3-28.81,12.62-25.7,26.88a36.64,36.64,0,0,0,4.35,11c7.93,13,18.12,23.59,32.57,29.44.69.25,1.59.4,2,.9.81,1.09,2.15,3,1.8,3.48-.8,1.18-2.67,2.55-3.85,2.33a18.54,18.54,0,0,1-7.55-2.86c-6.28-4.44-12.31-9.17-18.31-14-2.08-1.68-3.73-3.92-6-6.38-8.51,7.43-10.32,16.17-7.86,25.65,4.41,17.12,15.45,28,32.85,31.76,4,.87,8.39.34,12.5-.28,5.34-.84,9.13-3.85,12.15-8.76,16.63-27.17,40.81-45,70.74-55.11,17.56-5.94,35.4-6.87,53.33-1,20,6.59,29.68,22,25.71,42.55-1.34,7-4.11,13.7-6.31,20.51-.78,2.36-2.09,4.54-2.8,6.9-1.83,6,1.65,9.91,7.86,8.48,3.33-.77,6.37-2.64,9.76-4.13,1.68,1,4.45,2,7,3.48,2.55-1.46,5.32-2.52,7-3.48,3.39,1.49,6.43,3.36,9.76,4.13,6.21,1.43,9.69-2.48,7.86-8.48-.71-2.36-2-4.54-2.8-6.9-2.2-6.81-5-13.52-6.31-20.51-4-20.58,5.69-36,25.71-42.55,17.93-5.91,35.77-5,53.33,1,29.93,10.13,54.11,27.94,70.74,55.11,3,4.91,6.81,7.92,12.15,8.76,4.11.62,8.52,1.15,12.5.28,17.4-3.73,28.44-14.64,32.85-31.76,2.46-9.48.65-18.22-7.86-25.65-2.27,2.46-3.92,4.7-6,6.38-6,4.78-12,9.51-18.31,14A18.54,18.54,0,0,1,604,422c-1.18.22-3-1.15-3.85-2.33-.35-.53,1-2.39,1.8-3.48.4-.5,1.3-.65,2-.9,14.45-5.85,24.64-16.48,32.57-29.44a36.64,36.64,0,0,0,4.35-11c3.11-14.26-11.37-29.18-25.7-26.88a56.81,56.81,0,0,0-31.8,16.56c-8,7.93-13.39,17.16-12.09,29.37a34.24,34.24,0,0,1-5.56.35c-5.66-.72-11.28-1.62-16.94-2.46-2.55-.37-6.28.31-5.91-3.76s4.08-2.74,6.56-2.58c4.82.28,9.67.9,14,1.34,2.18-5.41,3.57-10.26,6-14.52,8.11-14.58,20.67-23.81,36.39-29,10.41-3.41,20.86-4.1,31.27.1a16.62,16.62,0,0,0,2.86.9c9.23,1.93,14.42-3.14,12.8-12.34-.62-3.61-.93-7.27-1.39-10.85-3.77-.9-7.46-1.43-10.79-2.79-1.27-.5-2.61-3.17-2.36-4.57.43-2.43,2.61-2.12,4.78-1.46,12.78,3.82,25,.52,37.15-3.17,4.41-1.37,5.56-5.38,3.82-9.76-2.39-6-6.84-8.89-13.55-9.2a94.88,94.88,0,0,1-13.27-1.5c-1.12-.21-2.27-2.2-2.58-3.57-.13-.59,1.89-2.24,3-2.33,2.18-.22,4.42.31,6.65.53,19.59,1.74,38.23-1.28,54.61-12.71A44.81,44.81,0,0,0,733,213.5ZM274,351.78a24.73,24.73,0,0,1-3.82-2c-11.28-9.57-19.61-21-22.1-36a98.25,98.25,0,0,1-1.36-14.08c-.35-13.89-7.59-23.19-20.05-27.57-11.16-3.91-22.88-6.46-34.5-8.76-15.11-3-30.15-5.78-44.38-12a52,52,0,0,1-24.19-21.26c-.62-1-.77-2.24-1.61-4.82,3.23,2.55,5.16,4.07,7.09,5.63,10.78,8.64,22.68,15.26,36.27,18.15,10.41,2.21,21,3.67,31.51,5.07,11.56,1.52,23.16,2.64,34,7.39,16.2,7,26.76,18.5,29.34,36.46.44,2.92,1.15,5.84,1.53,8.8,1.68,13.33,6.52,24.89,18.12,32.76.34.21.37.83.62,1.46C278.47,344.35,276.42,347.71,274,351.78ZM718.32,230.19a51.89,51.89,0,0,1-24.18,21.26c-14.23,6.22-29.27,9-44.38,12-11.62,2.3-23.34,4.85-34.5,8.76-12.46,4.38-19.7,13.68-20,27.57a98.25,98.25,0,0,1-1.36,14.08c-2.49,14.95-10.82,26.39-22.1,36a24.73,24.73,0,0,1-3.82,2c-2.46-4.07-4.51-7.43-6.47-10.69.25-.63.28-1.25.62-1.46,11.59-7.87,16.44-19.43,18.12-32.76.37-3,1.09-5.88,1.53-8.8,2.58-18,13.14-29.43,29.34-36.46,10.84-4.75,22.44-5.87,34-7.39,10.53-1.4,21.1-2.86,31.51-5.07,13.59-2.89,25.49-9.51,36.27-18.15,1.93-1.56,3.86-3.08,7.09-5.63C719.1,228,719,229.2,718.32,230.19Z"/>
      <path class="cls-1" d="M514.49,594.15l18.18,17.41c-2.13.1-4.19.14-6.24.31-6.17.51-12.33,1-18.49,1.63a13,13,0,0,0-3.58.93c-2,.8-3.82,2.18-2.52,4.42.64,1.11,2.8,1.95,4.22,1.88,2.93-.15,5.82-1.1,8.75-1.55,17.69-2.7,34.61.82,51,7.12A24.17,24.17,0,0,1,576,634.64c8.41,11.86,18.5,22,29.49,31.39a14.25,14.25,0,0,1,2,2.17,2,2,0,0,1,.24,1c-5.8-.25-11.69-.82-17.56-.62a19.7,19.7,0,0,0-8.3,2.72c-1,.52-.93,2.87-1.36,4.39,1.47.38,3.31,1.52,4.33,1,7.07-3.5,14.25-2.31,21.1-.21,12.12,3.72,22.92,9.68,28.81,21.77,1.72,3.53,4.06,7.77,1.21,11.2-3,3.62-7,.5-10.24-.87-10.93-4.63-22.63-5.25-34.1-7.14a102.85,102.85,0,0,1-10.93-2.11c-10.93-3.07-18.11-10.18-20.87-21.18-1.51-6-2.05-12.21-3-18.33a26.91,26.91,0,0,1,0-3c-.07-2.14-.76-4.44-3.16-3.93-1.3.28-2.79,2.61-3,4.2-.45,2.9-.06,5.94,0,8.92,0,1.68.16,3.36.28,5.62-9.58-2.66-18.61-1.67-27.68-.51a46.91,46.91,0,0,1-35.7-9.54c-6.72-5.13-13.56-10-18.63-17.38,4.46-12.34,1.77-23.22-8.17-32.77,6-7.19,10.16-15.13,8.7-24.9-1.42-9.49-7-16.19-15.63-21.58,16-5.9,29.3-14.51,42.54-23.27,15.25-10.07,26.9-23.43,35.81-39.23a60.83,60.83,0,0,0,8-29.91c.07-18.41,4.53-35.69,12.43-53.18,16.1,14,28.75,29.53,33,51.93-5.06-.67-9.11-1.59-13.17-1.66a98.7,98.7,0,0,0-14.67,1c-2.22.3-4.46,1.82-3.52,4.64.73,2.21,2.64,2.2,4.93,1.86,13.54-2,26.87.19,39.6,4.34,10.29,3.35,17.33,11.39,21.59,21.39,3,6.93,1.45,13.7-2.3,19.94-3.31,5.49-7,10.78-10.48,16.2-6.62-6.77-8.75-18.64-4.86-26.66.65-1.33,1.9-2.48,2.17-3.86.23-1.2-.12-3.14-.95-3.74s-3.27-.49-3.8.22a30.25,30.25,0,0,0-4.78,8.25c-2.91,8.8-1.09,17.45,3.14,25.2,9,16.36,19.9,30.91,38.71,37.26,5.46,1.85,6.4,5.56,3.18,10.38a9.37,9.37,0,0,1-1.92,2.27c-11.51,8.68-24.32,12.79-38.38,8.3-13.4-4.29-22.49-13.45-25.26-27.74-.7-3.61-.53-7.42-.55-11.13,0-3.23.19-6.46.42-9.68.65-9.14-2.25-16.6-10.44-21.78.26-5.17.53-10.35.77-15.53a24.69,24.69,0,0,0,0-3c-.19-2.63.4-6.16-3.62-6-3.48.11-3,3.35-3,5.76-.16,4-.38,7.94-.34,11.91.13,13.22-6.25,23.08-16.14,31.77-1.42-1.58-2.58-3.11-4-4.39a76.23,76.23,0,0,0-8-6.63c-.85-.58-3.55-.22-3.76.33-.51,1.34-.19,3.07.1,4.58.11.57,1.05,1,1.63,1.46a32.8,32.8,0,0,1,2.89,2.34c10.35,10.75,9.24,18,.64,26.27-11.64,11.21-25.73,15.4-41.79,12.17-1.7-.34-3.41-1.12-5.07-1-1.46.1-3.62.79-4.12,1.85-1.05,2.21.65,3.76,2.76,4.35a37,37,0,0,0,8,1.68c5.92.3,11.85.24,17.78.24C511.2,594.47,513.42,594.21,514.49,594.15Z"/>
      <path class="cls-1" d="M546.32,415.43c-2,5.88-3.63,11.53-5.78,17a97.94,97.94,0,0,0-6.46,31.89c-1.24,27.94-13.06,51-35.46,67.48-21.23,15.63-44.23,28.34-70.46,34a50.92,50.92,0,0,0-7.22,2.52,50.44,50.44,0,0,0-7.21-2.52c-26.23-5.66-49.23-18.37-70.46-34-22.4-16.47-34.22-39.54-35.46-67.48a98.73,98.73,0,0,0-6.46-31.89c-2.15-5.5-3.83-11.15-5.78-17a132.05,132.05,0,0,1,50-19.58c10.23-1.74,20.24-1.68,30.09,1.71,6.31,2.21,12.15,5.22,15.76,11.25-10.94,10.07-28.35,11-39.07,2.27-.75-.62-1.4-1.65-2.27-1.83-1.06-.25-2.61-.25-3.32.37a3.42,3.42,0,0,0-.91,3.2,13.52,13.52,0,0,0,3.67,4.57,29.44,29.44,0,0,0,20.83,6.37c9-.65,17.46-3,25.76-8.92,1,3.76,2.08,6.75,2.39,9.82a38.25,38.25,0,0,1-4.25,21.57c-1.9,3.79-3.86,7.52-5.47,11.41-5.69,13.39,4.91,20,14.08,19.52,2.36-.13,4.72-.44,7.21-.69v9.79c-10.79-2.05-16.85,1.12-23.9,12.44,4.25-1.34,8.14-3.27,12.18-3.61s8,.93,12.15,1.52c0,2.74.06,4.45,0,6.16,0,.4-.53.77-.81,1.18-13.8-2.58-19.58,1.24-23.68,16.29,2.39.87,4.79,2.33,7.3,2.57a95.46,95.46,0,0,0,14.05.19c4.38-.22,9.42-1.09,13.61,1.12,4.17-2.21,9.2-1.34,13.62-1.12a95.54,95.54,0,0,0,14.05-.19c2.51-.24,4.91-1.7,7.27-2.57C451.81,505.19,446,501.37,432.2,504c-.28-.41-.78-.78-.78-1.18-.09-1.71-.06-3.42-.06-6.16,4.13-.59,8.23-1.86,12.18-1.52s7.93,2.27,12.18,3.61c-7.05-11.32-13.14-14.49-23.9-12.44v-9.79c2.46.25,4.82.56,7.21.69,9.17.49,19.77-6.13,14.08-19.52-1.64-3.89-3.6-7.62-5.47-11.41a38.25,38.25,0,0,1-4.25-21.57c.31-3.07,1.42-6.06,2.36-9.82a48.73,48.73,0,0,0,25.79,8.92,29.49,29.49,0,0,0,20.83-6.37,13.52,13.52,0,0,0,3.67-4.57,3.5,3.5,0,0,0-.91-3.2c-.71-.62-2.26-.62-3.32-.37-.87.18-1.52,1.21-2.3,1.83-10.69,8.7-28.1,7.8-39-2.27,3.61-6,9.45-9,15.76-11.25,9.82-3.39,19.83-3.45,30.09-1.71A132.24,132.24,0,0,1,546.32,415.43Z"/>
      <path class="cls-1" d="M463.87,637.41a11.64,11.64,0,0,1-5,5.94c-7.8,4.63-16.1,4.13-24.39,1.27-6.53-2.27-7.37-2.3-13.56-.75-6.18-1.55-7-1.52-13.58.75-8.26,2.86-16.56,3.36-24.36-1.27a11.64,11.64,0,0,1-5-5.94c-2.58-8.86,2.3-17.72,11.13-21.17,4.2-1.61,4.66-4.25,1.24-7-.74-.62-1.74-1-2.52-1.52-8.7-6.41-11.53-17.1-7-26.39,4.6-9.45,14.11-13.37,24.9-10.35,4.6,1.3,9.88,4.07,15.19.93,5.29,3.14,10.6.37,15.2-.93,10.79-3,20.3.9,24.87,10.35,4.54,9.29,1.71,20-7,26.39-.8.56-1.77.9-2.54,1.52-3.42,2.77-2.93,5.41,1.27,7C461.57,619.69,466.45,628.55,463.87,637.41Z"/>
    </g>
  </g>
</svg>
