<svg id="Livello_1" data-name="Livello 1" xmlns="http://www.w3.org/2000/svg" viewBox="0 0 841.89 841.89">
  <defs>
    <style>
      .cls-1 {
        fill: #231f20;
      }
    </style>
  </defs>
  <title>Glos</title>
  <g>
    <g>
      <path class="cls-1" d="M769.5,645.56c-5.29-.85-9.4-1.37-13.46-2.18-24.59-4.94-45.66-17.32-66.14-31.12a245.41,245.41,0,0,1-60.26-57.14c-1.48-2-2.8-4.69-5.9-2.26-2.69,2.09-1.82,4.24.13,6.36,11.41,12.48,22.7,25.06,34.21,37.44,15.24,16.39,33.52,28.67,54.94,39-9.19,4.37-17.18,8.49-25.46,11.87-2,.83-5.77.06-7.47-1.42-6.51-5.65-13.36-11.26-18.48-18.08-5.47-7.27-9.1-15.9-13.6-23.89-1.24-2.21-2.56-6.09-5.33-5-4.84,1.76-2.16,5.15-1,7.88,7.24,17.21,17,32.59,32.26,45.64-27.18,7.72-54.59-1.82-58.47-3.6-1.63-.75-4.2-2.48-5.85-.41-2,2.44-.2,4.16,1,5.21,7.42,6.51,34,9.86,41.85,10.24-9.22,14.54-55.72,43.37-88.13,53.54-5.34,1.79-11.59-.18-10.93,5.17.2,1.65,2.79,2.77,4.08,2.68a53,53,0,0,0,12.8-2.12,217.73,217.73,0,0,0,85-51.86c6.09-6,11.41-10.75,20.4-12.67,10.75-2.31,20.79-8,31.12-12.2,1.37-.56,2.66-1.32,5.16-2.57-9,32.68-19.93,63.57-31.54,94.78-8.61-4.72-16.1-1.66-23.52,1.47-29.79,12.58-60.79,19.89-93.18,18.81-14.08-.47-28.06-3.84-42.08-5.92a14.82,14.82,0,0,1-1.88-.63c-3-.94-8-1.14-8.68-2.94-1.5-4.1-2.06-9.32-.85-13.46,2.71-9.25,7.29-18,10.11-27.19,7.2-23.61,8.87-47.93,8.35-72.49-.24-11.81,0-23.63,0-35.29,11.68,2.93,21.85-1.09,31.66-6.23,1.43-.75,2.9-4.18,2.33-5.46-1.28-2.86-3.73-1.78-6.34-.58-5.66,2.59-11.62,4.52-17.47,6.72-.45-.71,39.49-45.67,51-59.18,3.46-4.06,6.72-5.3,12.45-3.54,23.86,7.34,49.29-4.48,62-28.94,4.3,2.8,9.19,4.9,12.62,8.42,9.78,10.07,20.33,19.79,28.12,31.3,20.8,30.77,40.33,62.4,60.32,93.71,1.4,2.2,2.42,4.63,4.2,8.08"/>
      <path class="cls-1" d="M756.05,412.68c.64-20.8,1.87-62.09,1.86-63.14,0-1.75-.42-4.53-3.47-4.39s-3.15,3.05-3.25,4.1c-.17,1.71-1.24,34.62-1.7,49.2-.1,3.49-.42,7-.64,10.47l-1.45.21c-1-4.79-2.07-9.56-2.91-14.38-.47-2.68-.36-5.86-4.25-5.45-3.62.39-3.31,3.61-2.77,5.9,2,8.36,4.3,16.63,6.69,25.7-11.43,5.22-25.33,6.77-39.71,9.25-.67-5.88-1.41-11.61-1.94-17.36-2.15-23.18-7-72.57-7.11-74-.23-2.12-.9-4.33-3.8-4.18-3.11.16-3.07,3.31-3,4.85.85,11.51,2.18,23,3.27,34.5,1.76,18.65,3.45,37.31,5.3,57.33-6.06.06-12,0-17.87.2-8.77.34-15.44-5.09-21.19-9.91-3.66-3.07-4.81-10.72-4.76-16.29.1-9.93,2.09-19.84,3-29.78.17-1.9,1.32-5.36-1.63-5.89-3.6-.66-4.11,2.13-4.79,3.77-4.39,10.5-6.57,30.81.12,50.45-14.09,5.18-28.49,3.78-42.16,3.09-1.85-8.79-3.56-16.91-5.41-25.67a44.64,44.64,0,0,1,5.06-1.77c8.76-2.14,14.47-7.42,16.73-16.18,1.46-5.64,2.71-11.35,4-17,4.23-19.15,15.59-33.36,31-44.82,3.48-2.6,6.84-5.35,10.73-8.41,6.86,5.06,14.16,10.28,21.26,15.76,3.8,2.92,6.27,2.9,9.49-1.23,5.14-6.6,11-12.61,16.82-18.67a5.1,5.1,0,0,1,4.24-1.12c13.74,3.51,27.5,7,41.13,11a39.54,39.54,0,0,1,22.3,16.32,46,46,0,0,1,6.39,17.61C797,386,801.87,419.41,806.73,452.81a77.76,77.76,0,0,1,.2,14.56c-.25,5.81-4.29,9.3-8.66,12.23-7.6,5.09-16.27,6.76-25.24,7.28-16.63,1-32.45-4.1-48.63-6.53-10.41-1.56-20.72-4.28-31.18-4.92-8.54-.53-17.21,1.29-25.83,2a17.24,17.24,0,0,1-7-.78c5.75-3.88,12.79-5.25,17.24-10.51l-.69-1.43-18,7.71c-.35-.68-.69-1.36-1-2,3.67-7,13.09-5.05,17.78-11.2a21,21,0,0,0-4,.56c-3.16,1.07-6.21,2.48-9.39,3.48-.87.27-2.59-.12-2.93-.74a3.19,3.19,0,0,1,.62-3c6.06-5,11.91-10.22,21-8.07,21,5,41.57,1.3,62.09-3.16,11.09-2.4,22.19-4.83,33.19-7.67,2.15-.55,3.82-3,5.72-4.54-1.6-1.68-2.93-3.88-4.87-4.92-6-3.2-12.3-5.95-19.15-9.19,5.57-6.62,10.81-12.89,16.1-19.11,1.76-2.09,4.12-4.19,1.08-6.75-2.7-2.26-4.58,0-6.26,1.93-4,4.62-8,9.26-12.72,14.73"/>
      <path class="cls-1" d="M532.41,492.36c-2-5.17-3.67-9.12-5.14-13.12a10.69,10.69,0,0,1-.52-3.65c0-4.44-2.34-7-6.71-7.91-2.33-.5-4.47-2.65-6.69-2.63-3.84,0-7.65,1.47-11.51,1.78s-7.61-.53-11.28.05c-2,.32-3.78,2.51-5,3.41-3.78-.61-7.09-.82-10.18-1.76a8.27,8.27,0,0,1-4.63-3.52c-6.77-13.3-6.45-27.08-2-40.95,12.77-39.44,61.67-61.74,98.37-44.69,19.23,8.94,29.47,24.33,31.3,46.39-4.54-.9-8.52-1.9-12.56-2.39-1.7-.2-4.11.16-5.12,1.25-.75.82-.29,3.52.5,4.89,3.28,5.63,6.7,11.21,10.45,16.54,2.14,3.05,2.07,5.66.52,8.8-9.3,18.94-25.22,29.43-44.88,34.92-5.38,1.51-11.06,1.94-14.94,2.59"/>
      <path class="cls-1" d="M750.07,597.61C736.26,577,723.28,558,710.59,538.71c-10.6-16.1-22.09-31.16-41-39.44,4.38-5.55,8.11-10.68,12.33-15.37a7.43,7.43,0,0,1,5.72-1.85c13.73,1.92,27.42,4.16,41.13,6.3,13.52,2.12,27,4.84,40.58,6.2a46.23,46.23,0,0,0,33.84-9.82c.54,5.19-2.76,10.68-8.4,14-12.66,7.45-26.57,10.75-41,12.32a130.56,130.56,0,0,1-42.45-2.43,3.3,3.3,0,0,0-4.23,2.56,3,3,0,0,0,2.73,4c11.92,1.45,23.9,3.61,35.85,3.48a122.32,122.32,0,0,0,53.82-13.05c-3.72,17.31-7.11,34.71-11.26,51.92-3.14,13-11.23,23.19-21.59,31.23-4.87,3.77-11,5.94-16.61,8.88"/>
      <path class="cls-1" d="M788.61,689.81c1.79,14,3.7,28,5.29,42.12a9.19,9.19,0,0,1-1.72,6.16c-5.41,6.83-11.18,13.37-16.81,20-4,4.7-3.24,7.21,2.88,8.57,15.74,1.83,31.81,9,37.38,11.53,0,.61-24,17.21-44.48,17.71-17.72.43-35.09.07-53.17,0a17,17,0,0,1-15.55-7.48c-6.23-8.86-12-18-18.5-27.75,13.61-.74,26.26-.53,38.56,4.1,1.38.51,4.44,1.31,5.08-1,1-3.42-.73-4.56-1.78-4.94a154.49,154.49,0,0,0-17.66-5.15c-3.56-.82-7.31-.8-11.94-1.26,2.75-2.51,34.6-38,45.48-39,4.14-.39,4.85,5.67,4,7-3.07,4.66-7.46,7.09-13.25,6.21-2.51-.39-5.47-1.18-5.82,2.57s2.85,4.66,5.44,4.14c5.13-1,10.45-2.15,15.09-4.43,16.65-8.23,28.93-21.41,39.48-36.37.76-1.08,1.56-2.12,2-2.75"/>
      <path class="cls-1" d="M783.38,322.46c-11.22-9.93-25.28-13.12-39.15-16.59-4.11-1-6.12-2.82-7.07-7.1-5.37-24.14-16.92-73.69-17.09-74.2-.47-1.37-1.48-4-4.27-3.33s-2.6,3.3-2.36,4.69c1.19,6.91,2.86,13.74,4.44,20.57q6.15,26.56,12.33,53.13a15.8,15.8,0,0,1,.2,2.42c-6.37-.26-11.06-2.47-13.73-8.4-1.5-3.33-3.75-6.32-5.69-9.45-4.23-6.78-7.58-13.56-9.21-21.8-2.95-15-11.93-26.77-25.34-34.61-6.75-3.95-13.74-4.6-21-.8-5.62,2.94-11.52,5.35-17.34,7.91-5,2.2-9.25-.29-9.18-5.82.14-10.46,6.4-17.62,13.93-23.84,6.28-5.18,14-6.93,21.75-7.93A127.44,127.44,0,0,1,709,198.82c9,2,15.68,6.91,19.61,15,5.68,11.68,11.76,23.32,15.9,35.58,6.64,19.63,17,37,29,53.59,4.21,5.82,7.38,12.4,11,18.63l-1.12.85"/>
      <path class="cls-1" d="M653.73,772.75c-3.6-.24-10.58-.8-10.61-.88,1.7-2.12,9.84-8.13,7.52-11-1.75-2.14-4.37-1.28-5.66-.48a18.8,18.8,0,0,0-6.22,6.29c-2.9,5-.62,10.21,4.85,12,1.72.58,11.75-1.18,14.07,4.42,1.57,4.09-1.69,6.54-4.33,8.8-5.12,4.36-11.27,7-17.87,6.71a220.52,220.52,0,0,1-30.36-3.28c-4-.74-20.71-13.39-25.77-16.15-3.61-1.91-9.57,2.79-3.86,5.71,4.11,2.11,14.68,2.79,13.86,7.35-.57,3.16-6.25,3.12-9.44,3.25-9.84.38-19.71.53-29.55.18-3.14-.12-6.48-1.61-9.28-3.24-13.93-8.11-38-19.41-46.9-19.67-3.1-.09-3.41-.13-4.52,3.07a2.31,2.31,0,0,0,1.39,2.93c9.74,3.55,36.48,14.36,38.4,15.56-10.51,0-31.34-.24-32.51-.33-14.63-1.14-23.57-13.79-19.93-28.18,1.5-5.89,5.43-9.85,11.43-9.23,13.43,1.39,26.8,3.46,40.14,5.59,17.51,2.79,35,6.84,52.82,4.39,26-3.56,51.82-8.06,76.09-18.85a52.7,52.7,0,0,1,13.82-4.09c4.92-.71,6.14,1.52,5,6.22-1.08,4.33-2.89,7.2-7.66,8.65a21.84,21.84,0,0,0-14.88,14.17"/>
      <path class="cls-1" d="M597.66,477.54l2.9,3.12c7-6.93,4.73-15.53,5.25-23.13l34.8,2.82c.34,3.1.66,7.36,1.37,11.55a16.06,16.06,0,0,0,2.22,5.51c.46.75,1.86,1.14,2.87,1.21.33,0,.76-1.52,1.14-2.34,8.38,4.26,11.91,14.11,8.4,24.91-7.82,24-43.31,36.78-65.4,15.7-8.18-7.8-9.24-19.51-2.83-28.9,2.58-3.79,6.11-6.93,9.28-10.45"/>
      <path class="cls-1" d="M704.69,696.83c6.27-18.6,10.59-37.86,15.85-57.16,7.59,2.45,15.61,5,23.53,7.76.82.29,1.54,2.5,1.39,3.7-2.2,17.58-4.55,35.15-6.92,52.71a4.33,4.33,0,0,1-1.24,2.46c-13.1,11.67-48.58,42.57-53.19,46.41-.42-.38,14.31-37.29,20.58-55.88"/>
      <path class="cls-1" d="M589.14,526.93c-20.7,20.86-37.07,46.83-60.09,64.89-.4-.56,9.11-64.26,13.58-77.47,2.32-7.06,8.15-9.88,14.82-11.24,5.73-1.17,11.52-2,17.9-3.09.57,10.85,4.66,20,13.79,26.91"/>
      <path class="cls-1" d="M701.24,282c.7,1.09,1.75,2.75,3.39,5.34-5.54,2.45-10.58,5.82-16.06,6.87-9.93,1.91-20.11,2.53-30.2,3.49-3.3.32-5.54-1.39-5.7-4.89-.15-3.1.14-5.6,4.24-6.65,3.42-.87,9.68-4.32,10-6.36a3.75,3.75,0,0,0-3.52-4.4,3.08,3.08,0,0,0-1.11.18c-2.88,1.09-5.5,2.86-9.51,5.06.57-3.4.92-5.44,1.27-7.48-6.67-1.44-6.72-1.45-5-8.5.85-3.55,2.3-7-1.09-10.2-.52-.49.1-3.29,1-3.95a86.66,86.66,0,0,1,8.72-5.2c1.24,1.87,2.06,4.26,3.08,4.35,1.32.11,8.22-6.27,9.6-7.52-1.91-1.59-3.64-4.15-5.77-4.53-2.77-.5-6,.33-8.77,1.3-3.74,1.31-7.25,3.3-11.12,5.12-2.2-2-2.4-3.59,1.64-5.07a79.88,79.88,0,0,0,11.91-5.62c4.89-2.78,9.59-2.35,14.06.26,13.75,8,21.76,20,23.74,35.81.76,6-1.52,8.71-7.1,11a2.93,2.93,0,0,0-1,.75,3.53,3.53,0,0,0,1,5.59,1.77,1.77,0,0,0,1.41.14,109.19,109.19,0,0,0,11-4.9"/>
      <path class="cls-1" d="M798,629.76c2.91,8.37,2.23,16.15-.31,23.62-8.06,23.73-20.66,44.56-40.22,60.72a14.88,14.88,0,0,1-2.08,1.39c-2.82-2.87-5.48-5.36-7.86-8.09-.92-1-1.86-2.71-1.7-3.95,2.25-17.71,4.68-35.4,7.1-53.25,5.24.88,10.27,1.77,15.32,2.56,4.62.74,9.19.56,12.64-3,4.85-5.05,9.43-10.36,14.07-15.61,1-1.19,1.82-2.6,3-4.35"/>
      <path class="cls-1" d="M674.44,443.12c-.44-1.58-.92-3.29-1.59-5.64,25.82,1.07,50.75-1.52,75.54-10.26a99.45,99.45,0,0,1-.62,10.26,4.3,4.3,0,0,1-2.76,2.78c-18.48,3.92-36.94,8.47-56.09,5.38-4.61-.74-9.19-1.59-14.48-2.52"/>
      <path class="cls-1" d="M697.49,794.06a9.55,9.55,0,0,1-2,.4c-10.67-.64-21.33-1.31-32.21-2,1.25-5.78,2.29-11.33-2.59-15.94a3.38,3.38,0,0,1-.32-2.75c1.27-4.61,9.62-10.61,14.47-10a7.61,7.61,0,0,1,4.54,3.2c6.05,8.78,11.87,17.73,18.07,27.08"/>
      <path class="cls-1" d="M766,624l24.82-22.3c7.56,12.34,2.5,28.82-14,42.32L766,624"/>
      <path class="cls-1" d="M708.69,294.05l5,8.08L695,323l-20.86-16.14,34.55-12.76"/>
      <path class="cls-1" d="M761.35,615.83l-7.77-12.61c16.17-5.37,20.18-9,38.59-34.22-.51,22.14-7,29.82-30.82,46.83"/>
      <path class="cls-1" d="M598.71,443.58c30.24,4.31,43.3,1.79,57.74-11.94,5.8,1.58,9.18,5.49,10.47,11.31.78,3.53-1.39,4.83-4.17,3.92-5.94-2-11.08-.65-16.91,1.23-13.9,4.51-28.12,3-42-.84-1.9-.52-3.41-2.42-5.1-3.68"/>
      <path class="cls-1" d="M803.17,763.46l-19.75-3.86,13-15.35c2.33,6.62,4.44,12.64,6.74,19.21"/>
      <path class="cls-1" d="M514,470.42c-5,7.18-9.45,13.78-14.2,20.13-2,2.68-3.91,1.31-4.63-1.28-2.05-7.42,9.87-20.33,18.83-18.85"/>
      <path class="cls-1" d="M495.62,471.12c.84,5.69-4.7,16.26-9.59,18.35-3.09,1.32-5.09.07-4.94-3.06.27-5.3,9.13-14.62,14.53-15.29"/>
      <path class="cls-1" d="M506.73,496.83c-.8-2.28-2.19-4.3-1.68-5.09,3.86-6,8.08-11.78,12.35-17.51.07-.1,3.15,1.36,3.12,2a11.24,11.24,0,0,1-1.78,5.1c-2.36,3.85-4.88,7.61-7.52,11.29-.92,1.28-2.34,2.22-4.49,4.2"/>
      <path class="cls-1" d="M640.56,433.73c-11.75,7-33.69,6.4-41.76,0Z"/>
      <path class="cls-1" d="M513.54,493.57l9.64-11.6c3.48,4.49,1.25,7.3-.74,9.42s-4.75,3.08-7.18,4.57l-1.72-2.39"/>
      <path class="cls-1" d="M769.51,435.21c-5.48,1.13-9.59,2-14.43,3,.21-3.28.37-5.83.59-9.3,4.63,2.11,8.61,3.92,13.84,6.32"/>
      <path class="cls-1" d="M468.74,477.35c2.68-3.39,8-4.9,11.26-3.06.76.43,1.68,1.38,1.69,2.11a3.41,3.41,0,0,1-1.55,2.27c-3,1.93-8,1.28-11.4-1.32"/>
      <path class="cls-1" d="M663.74,484.13l9.41-1.65-7.81,11c-.63-3.69-1.09-6.37-1.6-9.34"/>
    </g>
    <g>
      <path class="cls-1" d="M212,617.68c2.71-1.38,2-5.3-.9-6.08-2.15-.58-3.77-2.34-5-4.77Q189.36,574,172.67,541a107.41,107.41,0,0,0,50.9-8.51c.77-.34,1.55-.67,2.31-1,8.18-3.9,11.06-3.28,17.67,4.11-3.06,1.19-6.25,1.88-8.8,3.55a146.84,146.84,0,0,0-14.1,10.62c-1.81,1.52-3,4-.33,6.09s4.23,0,5.83-1.94c7.93-9.7,21.37-13.39,32.18-8.64-14,6.07-23.09,16.42-26.63,30.94-1.75,7.17-1.46,14.82-2.82,22.11-1.57,8.43-3,17.12-6.22,25-3.93,9.45-15,12-27.34-3.65-1.18-1.49-3.73-3.65-5.95-1.64-2,1.86-.51,4.58.51,5.67,4,4.29,8.14,8.8,13.06,11.91,8.94,5.64,17.88,3.33,24-5.31,6.76-9.52,8.14-20.63,9.26-31.84.75-7.55,1.2-15.25,3.11-22.55a34.78,34.78,0,0,1,15.56-20.74c10.31-6.57,19-4.77,23.77,6.4C284,574.08,289.16,587,292,600.34c7.57,35.12,13.91,70.52,20.63,105.83,3.43,18,8.82,35.19,20.84,50.16-8.8,6-18.54,8.94-28.42,7.45-16.83-2.53-34.22-4.17-49.41-12.58-9.73-5.38-18.8-12.2-27.41-19.29-14.91-12.28-32.24-20-49.64-27.56-15.37-6.63-30.55-4.14-44.82,4.32-2.61,1.54-5.25,3-8.63,4.94,0-9.46-.68-18.33.14-27.05,1.83-19.58,11.08-100.51,13.35-121.45.3-2.84.92-5.82-2.94-6.33s-3.81,2.61-4.09,5.14c-1.93,17.56-8,74.28-9.86,85.28-.26-1.28-5.25-91.17-6-94.45-.33-1.53-.44-4.2-3.39-4.08s-3.31,3-3.4,4.62c-.26,4.38,8,145.53,8.89,162.22-4.39,0-8.26.23-12.1,0C85.72,716,72.47,727.75,65.6,744.93c-2.25,5.63-3.46,11.68-5,17.58-2.44,9.3-8,16.46-15.69,21.8s-12.73,2.7-12.8-6.7C32,767.42,35.74,632.8,36.3,609.85a14.61,14.61,0,0,1,2.37-7.52q25-36.62,50.37-73a13.67,13.67,0,0,1,5.57-4.91A7.6,7.6,0,0,1,101,525c1,.74,1,4,.32,5.79-2.79,7.27-6,14.37-9.06,21.55-1,2.36-2.37,5.09,1,6.49,3.15,1.31,4.55-1,5.53-3.61,3.2-8.55,6.35-17.12,9.76-25.58.56-1.37,2.41-3.18,3.63-3.16A249.3,249.3,0,0,1,138,527.8c7,.87,10.87,6.09,12.3,12.66,2.91,13.41,6.2,26.8,8,40.38,2.51,19.45,7.63,37.94,17.47,54.87,8.42,14.48,27.73,44,28.18,44.59,1.53,2,3.82,3,5.27,1.68,2.09-1.83.89-4.94,0-6.4-4.9-7.7-10.57-14.92-15.27-22.74-11.45-19.05-22.08-38.57-26.44-60.68-2.92-14.8-5.17-29.73-7.9-44.56-.85-4.6-2.32-9.08-3.7-14.38,5.27,3.24,8.23,7.83,10.74,12.65,7.67,14.73,15.14,29.55,22.72,44.32,3.34,6.49,6.54,13.07,10.21,19.36a25.06,25.06,0,0,0,6.62,7.53,5.43,5.43,0,0,0,5.85.6"/>
      <path class="cls-1" d="M240.07,523c9-8.19,12.33-18.07,2.72-20,5.54-17.73-3.07-29.92-16-40.22,8.83-15,3.28-22.18-11.72-23.5a59.11,59.11,0,0,0-14.13.33c-8.08,1.25-10.41,4.14-11,12.21-4.86,0-9.75.12-14.62-.09a4.67,4.67,0,0,1-3-2c-3.55-5.12-8.68-7-14.26-5.45-8,2.16-15.68,5.24-23.43,8.11a130.61,130.61,0,0,0-15.86,6.62,22.31,22.31,0,0,0-8.17,7.18c-3.94,6.13-.29,12.46,6.89,13.75,1.11.19,3.85.17,3.46,2.1-.23,1.15-2.25,1.31-3.28,1.19-9-1.09-12.18-5.93-12.4-17.22,0-.84.29-47.77,0-70.39,0-1.71-2.1-4.55-3.6-4.83-3.26-.59-3.39,2.38-3.39,4.88q0,32.4.06,64.8v4.83c-5.3-6-9.84-11.13-14.31-16.3C74.53,438,54.73,415,54.34,414.59c-1.92-1.82-4.37-2.07-5.77-.72s-.41,4.17.53,5.32C55.2,426.71,61.64,434,68,441.31l34.92,40.45C95,488.56,88.7,497,88.05,507.07c-.86,13.42-8.29,23-15.3,33.13L37.4,591.35c-1,1.49-2.13,2.95-4.13,5.71-1.32-5-2.64-8.7-3.27-12.54-5.56-34.17-4-68.43-1.28-102.72C32,440.43,39.24,399.73,49.36,359.51c1.29-5.08,3.07-10,4.64-15a33.19,33.19,0,0,1,1.46-3.15c2.52,10.61,4.82,20.1,7,29.61C66.32,387.6,74.22,422,74.38,422.4c1.25,3.19,2.68,4.71,4.71,4.19s2.34-4.07,2-5.79c-2.63-12.78-5.62-25.48-8.55-38.2-3.72-16.19-7.59-32.35-11.09-48.58a8.75,8.75,0,0,1,1.61-6.71c8.18-9.29,19-13,31.06-14.47,7.18-.88,14.22-3.12,21.4-3.63,2.72-.18,7,2.05,8.3,4.42,12.25,21.91,31.3,29.93,55.38,27.86,3.91-.34,5.3.85,7,4.23,3.86,7.5,9,14.35,12.88,21.84,4.21,8.05,7.62,16.52,11.35,24.81.27.62,2.51,6.45,5,5.81,4-1,2.85-4.24,2.34-5.66-3-8.41-6.07-16.87-10.12-24.81-3.29-6.46-8.07-12.15-12-18.3-2.84-4.45-9.89-12.63-4.21-15.42,1.54-.75,2.85,1.22,3.67,2.1,9.28,9.93,18.78,19.68,27.59,30s11.89,23.37,13.41,36.75c1.16,10.28,2.64,20.53,4.24,30.76,1.8,11.58,7.48,21.43,14.84,30.27,6.85,8.22,11.44,17.6,15.28,27.42.48,1.24.59,3.23-.08,4.21-3.89,5.69-7.72,11.49-12.25,16.65-3.21,3.65-3.55,6.67,1.18,8,19.25,5.28,51.71,1.76,65-3.58,4.64-1.87,5.47,8.37.08,10.52-24.16,9.62-70.25,7.27-84.38-4.11"/>
      <path class="cls-1" d="M295.25,769.56c-6.53,6.32-14.84,6.88-22.51,7.46a216.23,216.23,0,0,1-34.52-.26c-6.59-.57-12.9-3.94-19.47-5.47-28.05-6.55-55.93-4-83.86,1.4-15.6,3-31.39,5.11-47.15,7.19-7.81,1-12.08-1.71-13.92-9.47-3.2-13.51-2.94-26.6,7.82-37.4a26.61,26.61,0,0,1,21.16-8.26c11.49.69,21.85-1.1,31.69-8,15.25-10.77,31.52-11,48.58-3s33.37,16.79,47.37,29.3c17,15.18,37,22.8,59.29,25.23a32.2,32.2,0,0,1,3.51.61,15.82,15.82,0,0,1,2,.73"/>
      <path class="cls-1" d="M174.15,459.18h13.16c-3.3,9.38,2.71,13.73,9.22,17.41a62,62,0,0,0,13.08,5.48c1.69.49,5.08,1.41,6-1.76.59-2-2.23-3.94-3.92-4.89-5-2.8-10.51-4.66-15.32-7.69-6.65-5.93,3-8,12.42-9.9,1.56-.32,4.36-.83,4-3.08s-4.64-1.62-12-2.12c-1.11-.08-3.09,0-3.2-1.94s1.3-2.45,2.27-2.8a32.07,32.07,0,0,1,20.48-.95c3.24.95,4.4,3,3.05,6.09S217,464.22,215,465.68c13.43,2.87,22.88,19.27,22.36,28.43-.36,6.31-2.91,9-9.23,8.62-21.54-1.19-43.06-2.58-64.59-4-1.1-.07-2.61-.3-3.18-1-6.87-8.93-26.95-12.35-31-13.29-2-.44-3.32-1.16-3-4.17.43-3.72,12.63-7,17.6-9.19a11.1,11.1,0,0,0,4.06-2.78,3.3,3.3,0,0,0-.16-3.24,4.37,4.37,0,0,0-3.56-.43c-7.37,2.48-14.62,5.31-22,7.63-1.92.6-5.57,1.57-6.44-.41-1.52-3.44,1.88-5,3.56-5.72,12.95-5.24,26-10.36,39.23-14.76,5.87-2,9.3,2,7.6,8-.95,3.36-3.06,6.37-4.19,9.69-.59,1.74-1.68,4.46-.24,5.73,2.82,2.51,5-.23,5.73-1.43,2.37-3.82,3.89-8.17,5.76-12.32.27-.62.56-1.22.86-1.85"/>
      <path class="cls-1" d="M250.25,394.55c0-6.73.58-7.88,7.05-9a188.61,188.61,0,0,1,67.42,1.16c4.93.95,7.35,3.26,6.38,8.67-3.05,17.08-9.42,32.52-21.74,45.12-2.17,2.22-4.12,3.1-7.5,1.46A25.71,25.71,0,0,0,282,440.68c-3.09,1.05-5.12.33-7.37-1.5-14.31-11.53-22.88-26.15-24.38-44.63"/>
      <path class="cls-1" d="M233.05,277.23c-4.75-4.64-9.19-9.66-14.35-13.8a51.05,51.05,0,0,0-12.68-7,7.9,7.9,0,0,0-6.05.7,4.46,4.46,0,0,0-1.73,4.58c1,3.5,6.95,2,7.23,2,2.77,2,12.21,8.65,11.65,10.32-1.23,3.67-4.17,6.85-6.79,9.9-.49.57-6.92-2.34-9,.69-1,1.39.4,3.78,1.44,4.8a7.55,7.55,0,0,0,10.24.7,30.48,30.48,0,0,0,7.27-7.67c3.65-5.61,4.26-5.77,8.88.31-7.94,5.08-8.84,14.11-12.36,21.85-3.11,6.81-7.41,13.16-11.72,19.34-2.58,3.73-6.73,3.94-11.06,2.68-8.38-2.46-14.64-7.63-19.59-14.62-14-19.83-13.17-47.52,1.81-64.76,3.53-4.06,7-5.5,12.33-3.61,13.18,4.62,26,9.82,37.28,18.27a50.54,50.54,0,0,1,9,8.92c1,1.27,1.8,4.11.69,5.71a2,2,0,0,1-2.46.65"/>
      <path class="cls-1" d="M252.4,254.7c-26.1-25.18-56.49-39.45-91.72-43.46a48.62,48.62,0,0,0-10.16.11c-5.08.5-7.57-1.5-8.7-7.62-.93-5,2.32-6,6.21-6.57,42.2-5.76,88.26,11.35,110,46.81,3.5,5.69,3.54,5.68-2.32,9-1.15.66-2.37,1.22-3.34,1.72"/>
      <path class="cls-1" d="M94,515.86c0-9.49,3.56-17.86,9.94-25.13,2.85-3.25,6-3.78,10.48-2.66,8.59,2.18,31.34,7.13,34.26,8.6a3.76,3.76,0,0,1-1.26,7.09c-7.36.73-14.2-1.84-21.49-4.16.19,7.42,28.92,21.16,45.95,20.81,2.57,0,6.47-2,7.05,2.47.74,5.63-3.7,11.24-20.31,4.43-13.61-5.57-27.42-9.88-42.41-8.25-2,.22-4,.89-6,.91a20.94,20.94,0,0,1-5.51-.94c-3.35-.89-6.66-2-10.7-3.17"/>
      <path class="cls-1" d="M161.59,254.87c-1.8,8.41-3.28,15.66-5,22.86a4.53,4.53,0,0,1-2.16,2.79c-6.92,3.11-11.7,8.48-16.13,14.38a66.22,66.22,0,0,1-7.59,8.13c-2.35,2.23-4.49,2-6.9-.59-9.13-9.6-9.4-20.73-5.13-32.14,5.36-14.3,9.37-16.36,30.12-17.17,4.26-.17,8.57,1.13,12.74,1.74"/>
      <path class="cls-1" d="M371.15,781.61a12.53,12.53,0,0,1,2.12.37c4.21,1.8,8.17,3.94,7.79,9.41-.27,3.77-5.1,7.42-10.36,7.34-9.68-.16-19.37-.49-29-1.26-12.18-1-24.32-2.47-36.47-3.76-9.6-1-19.21-1.94-28.77-3.23-1.92-.26-3.65-2-5.47-3.07,1.23-1.89,2.22-5.17,3.72-5.42a69.19,69.19,0,0,1,17.39-1.13c21.81,2,43.57,4.5,65.35,6.82a2.86,2.86,0,0,1,.51,0c6.22,1.8,11.61,1.66,13.2-6.09"/>
      <path class="cls-1" d="M180.18,533.32c1-.62,2-1.21,2.93-1.87,3.8-2.57,6.46-6,4.92-10.7s-5.37-6.54-10.26-6.83a109.47,109.47,0,0,0-15.3-.19c-3.39.29-3.76-6.63-.39-7a56.81,56.81,0,0,1,11.66,0c22,1.85,44,3,66.23,5.13-16.41,16.5-37.42,20.84-59.79,21.47"/>
      <path class="cls-1" d="M157,285.71c3.85,19.36,10.65,35,27.51,45.09-1.5,1.37-2.45,2.92-3.77,3.35-14.75,4.8-42.65-8-49.15-21.8,8.28-8.67,16.32-17.11,25.41-26.64"/>
      <path class="cls-1" d="M150.29,230.81c-.37-3.81-.73-7.64-1.23-12.87,38.43,1.07,70.1,15.52,97.62,41.1l-4.76,7.09c-26-24-56.83-34.32-91.63-35.32"/>
      <path class="cls-1" d="M297.65,472.43c-1.65,16.19,3.71,29.74,13.8,42.37-15.12,3.37-29.64,3.15-44.78.35,9.72-13.07,16.92-26.66,18.86-42.72Z"/>
      <path class="cls-1" d="M201.81,775.88c-4.83,7.55-9.58,13.18-18.27,12.79-8.15-.36-12.43-5.92-16.61-12.79Z"/>
      <path class="cls-1" d="M173.39,239.38c-2.73,3.51-4.33,5.89-6.28,7.93a4.62,4.62,0,0,1-3.45,1.06c-7.94-1-15.86-2.18-23.77-3.3,8.47-12.09,21-5,33.5-5.69"/>
      <path class="cls-1" d="M303.3,773.42l35.49-10.68c-.14-.33.3.28.17.46-3.36,4.37-6.74,8.72-10.24,13a3.41,3.41,0,0,1-2.58,1.1c-7.52-.77-15-1.69-22.55-2.57-.1-.43-.2-.85-.29-1.28"/>
      <path class="cls-1" d="M311.46,456c0,6.3-8.85,11.41-19.76,11.41S272,462.27,272,456s8.84-11.41,19.75-11.41,19.76,5.11,19.76,11.41"/>
    </g>
  </g>
</svg>
