<svg id="Livello_1" data-name="Livello 1" xmlns="http://www.w3.org/2000/svg" viewBox="0 0 841.89 841.89">
  <defs>
    <style>
      .cls-1 {
        fill: #231f20;
      }
    </style>
  </defs>
  <title>Glos</title>
  <g>
    <path class="cls-1" d="M221.75,441.78c6.4,3.77,11.78,7.49,16,13.67,12.55,18.51,44.11,33.39,74.92,23a167.77,167.77,0,0,0,36.66-17.38c1.15-.74,2.33-1.44,3.47-2.15-4.53,24.58-12.78,47.45-27.19,67.86a30,30,0,0,0-4.07,8.54c-1.28,4.31.09,8.25,3.12,11.59,10.27,11.37,20.42,22.85,30.87,34a139.78,139.78,0,0,0,16,15.14c5.56,4.32,12.09,2.07,15-4.4,2.6-5.85,2.38-11.56-1.72-16.73-1.7-2.14-3.42-4.45-5.63-6-8.33-5.75-11.22-13.46-9.28-23.24.67-3.37,1.18-6.77,2.16-10.15.41,6,.63,12,1.27,18,.85,8.12,5.6,12.14,13.83,12.16,16.21,0,32.43,0,48.65.19,2,0,4.08,1,6.11,1.53,3.45.92,6.88,2.6,10.33,2.62,11.72.08,23.45-.37,35.16-.75,6.95-.23,10-2.33,13.39-8.88,4.88,1.35,9.88,2.61,14.76,4.23.85.28,1.63,2.07,1.66,3.19a6.32,6.32,0,0,1-1.39,3.54c-6.14,8.59-7.31,18.64-8.65,28.66-.29,2.15-.67,4.28-.93,6.43-1,8.32-5.64,13.65-13.44,16.45-2.94,1.06-5.85,2.23-9.11,3.47,0-7.62,2.32-23.31-4.3-32.74-.58-1.08-2.35-3.07-4.65-1.7-1.91,1.13-.89,3.55-.27,4.79,5,10.1,4.5,21.64,1.29,32,0,0-15.15,8.84-21.35,10.32a64.77,64.77,0,0,0-26.08,13c-16.38,13.27-35.46,21.54-54.68,29.53a21.32,21.32,0,0,1-8,1.41c-23.16.11-46.35.62-69.49-.1s-46.2-1.53-68.5-8.63c-7.75-2.47-10.22-5.74-10.13-13.94a103.77,103.77,0,0,1,5.54-31,94.06,94.06,0,0,0,2.68-11.79c1.22-6.64-.06-12.82-4.87-17.68-6.46-6.54-7-13.66-3.76-21.88A191.61,191.61,0,0,0,223,559.46c1.94-7,.6-13.78-2.56-20.18a133.42,133.42,0,0,0-6.84-12.55c-3.2-5-3.35-10.2-2.38-15.82,1.24-7.1,1.52-14.41,3.24-21.38a174.71,174.71,0,0,1,7.54-22c2.13-5.41,3.21-10.19-2.26-14.34-.83-.63-1.2-2.68-.9-3.84a66.6,66.6,0,0,1,2.93-7.6"/>
    <path class="cls-1" d="M631.21,598.24v84.82H387.51l-.21-.8c6.67-2.91,13.24-6.08,20-8.66,8.95-3.39,16.9-8.15,23.46-15.14,6.14-6.57,14-10.05,22.45-12.46,9.32-2.66,18.23-5.94,26.22-11.83,3.4-2.51,8.28-3.11,12.56-4.34,14.45-4.16,20.06-14.56,21.36-28.7.62-6.83,2.63-13.54,4.27-20.24,1.11-4.52,4.23-5.69,8.59-4.38,3.85,1.15,7.9,1.71,11.63,3.15,11.39,4.4,23.07,3.16,34.7,2.07,6.92-.64,13.72-.71,19.92,2.53,12.28,6.41,24.3,13.34,38.72,14"/>
    <path class="cls-1" d="M435.19,321.86c-17.45,2.88-34,10.38-52.19,11.12-22.79.91-44-5.11-65-12.68-1.49-.54-3-1.37-4.51-1.34-1.17,0-3,1-3.27,1.89s.69,2.63,1.61,3.43,2.6,1.16,3.95,1.66c19.44,7.27,38.89,14.54,58.17,22.54-6.46-1.26-12.93-2.49-19.39-3.8a72.55,72.55,0,0,1-10.51-2.42c-4.54-1.63-9.21-3.34-13.2-6-10.38-6.81-21.22-12.16-33.61-14.33a9.8,9.8,0,0,0-9,2.65c-3.55,3.23-7.2,4.14-12.19,3.21-8.06-1.5-16.35-1.73-25-2.55-5.37-20.17-5.7-41.25-5.25-62.5.23-10.31,5.32-16.88,12.78-22.78,15.1-11.92,31.51-21.26,50.77-23.86,8-1.08,16.46-.51,24.5.72s14.87,6,20.24,12.51c16.56,20.09,32.92,40.37,50,60.06,9.71,11.24,20.59,21.48,31.2,32.43"/>
    <path class="cls-1" d="M243.61,451.86a142.41,142.41,0,0,0,46.26,2.68c20.26-2,39.83-6.62,58.31-15.4,2.21-1.05,4.69-2.38,2.9-5s-4-1.08-5.56-.35c-27.71,13-57.13,15.89-87.16,14.4-6.66-.33-13.29-2.56-19.8-4.41-10.15-2.88-16.17-9.81-19.17-19.91-4.39-14.72-4.63-29.73-3-44.71,1.34-12.28,3.93-24.43,6.2-38,8,9.54,18.75,8.22,27.73,11.72,9.4,3.66,30.54,12.48,31.55,14-5.37-.41-10.74-1-16.12-1.1-1.77,0-4.94-.42-5.09,2.18-.2,3.39,2.21,3.5,4.45,3.7,11.51,1.06,23.06,1.93,34.57,3q14.24,1.32,28.43,3c2,.23,3.82,1.3,5.78,1.68,5.89,1.15,11.8,2.19,17.71,3.19,7.08,1.2,14.2,2.21,21.27,3.49,15.31,2.78,30.59,5.73,45.9,8.5,7.59,1.38,13.31,5.8,19.13,10.91-6.85,2.5-13.16,5.29-19.75,7-3.1.79-6.86-.14-10.13-1-9.58-2.55-17.48-1-23.89,7.29s-12.56,16.83-20.23,23.73c-23.27,20.91-50.31,33.2-82.32,31.14-13.56-.87-25.48-6.25-34.51-16.9-1.11-1.31-2-2.76-3.46-4.69"/>
    <path class="cls-1" d="M525.28,411.1c-1.18.62-3-.34-3.59-1.15-1.53-1.61-4.58-9.61-6.15-9.12s-4.29,17.67-4.58,19c-.14.71-.37,2.17-2,1.89-1.25-.22-1-2-1-2.79.11-2.88,1.24-10.86,1.45-13.74.06-.82.27-2.4-1.5-2.58-1.26-.13-1.46,1.39-1.59,2.18-.72,4.27-1.54,19.81-5.11,19.24-3.13-.54-.88-16.26-.82-19,0-.51.27-1.58-.7-1.64-1.4-.1-1.42,1.22-1.49,1.56a43.57,43.57,0,0,1-2.88,9.44c-.59,1.11-1.42,2.73-4.17,1.81a2.88,2.88,0,0,1-1.71-3.69c4-9-1.67-14.22-7.16-19.77-4.35-4.39-8.27-9.19-12.14-13.54,3.16-2.22,6.1-3.84,8.38-6.11.89-.89,2.34-2.9.4-5-1.56-1.65-3.63.12-4.79,1-4.57,3.57-9.41,5.8-15.15,3.68q-43.67-16.14-87.24-32.44c-.61-.23-1.15-.63-1.44-.13,12.37-1.61,24.83-2.75,37.1-5,9.31-1.69,18.38-4.71,27.53-7.21,3.65-1,6.4-.14,9.49,2.27,10.14,7.91,20.73,15.24,31,23,19.25,14.55,35.22,32.36,50,51.18,1.12,1.43,2.53,5.2-.11,6.6"/>
    <path class="cls-1" d="M460.26,538.22c-8.62-4.26-17.33-8.37-25.85-12.83a114.65,114.65,0,0,1-37.32-31c-8.6-10.91-11.89-23.87-14.26-37.18-1.15-6.5-2.43-13-3.48-19.5a4.56,4.56,0,0,1,1.22-2.86c3.87-4.86,7.87-9.62,11.75-14.46,3.46-4.32,10.54-5.63,15.2-2.64a2.9,2.9,0,0,1,1.28,2c0,10.38,4.19,19.61,7.85,29,10.77,27.68,22.16,55.06,38.3,80.18,1.86,2.9,3.84,5.74,5.77,8.61-.16.23-.31.47-.46.7"/>
    <path class="cls-1" d="M373.34,442.64c.66,5.84.61,11.72,2.1,17.18,2.51,9.28,6.05,18.27,9,27.43.41,1.27.66,3.32,0,4.12-10,11.49-14.43,25.52-18,39.84a110.09,110.09,0,0,0-2.67,18.37c-.62,8.22,2.57,15.17,8.49,20.89,2,1.9,15.7,16.57,6.76,20.62-2.95,1.33-5.4-.51-7-2.12-7.32-7.38-14.22-15.17-21.21-22.87s-13.5-15.49-20.67-22.82c-3.3-3.37-3.46-6.39-1.41-10a104.2,104.2,0,0,1,6.34-10.33c11.53-15.68,17.13-33.77,21.66-52.33.57-2.37,1.19-4.73,1.8-7.1,2.83-10.91,4.77-13.68,14.81-20.87"/>
    <path class="cls-1" d="M247.86,225.8c4.68-2,44.84-25.69,58.36-31.47,9.39-4,19-7.57,27.87-11.09,2.33,3.08,4.67,6.63,7.49,9.76,1.45,1.61,3.44,3.23,5.4,1.22,1.76-1.82-.67-4.71-1.87-5.92-4.44-4.49-5.37-8.16-1.06-12.85,3.48-3.79,7.06-7.53,12.59-8.92a9.52,9.52,0,0,1,.19,2.08c-1.61,10.52,2.18,19.09,8.74,27.14,3,3.68,4.88,8.45,6.54,13,5,13.65,11.19,26.58,20.18,38.11,2.21,2.82,3.64,6.23,5.65,9.22s.28,4.51-1.89,5.94c-2.37,1.57-4.5,2.14-6.77-.59Q378.63,248.55,367.64,236c-4.92-5.66-9.5-11.78-15.2-16.53-12.8-10.68-28.21-12.28-43.89-9.39-9.86,1.8-19.34,5.59-29,8.37-7.21,2.07-31.38,7.84-31.66,7.39"/>
    <path class="cls-1" d="M400.19,247c-8.6-10.51-15.42-21.71-19.57-34.72l9.16-1.59c1.81,3.8,5.05,4.84,9,4.72.88,0,2.26.15,2.58.7,2.88,4.94,7.18,4.33,11.41,2.83,2.94-1.05,5.62-1.72,8.66-.47a5.71,5.71,0,0,0,3.39-.1c2.61-.7,5-.76,7,1.41a.66.66,0,0,0,.38.21c8.61,1,15.65,6.66,24,8.3,2.87.56,6,.09,9.65.09-1.06,3-2.13,6.14-3.14,9-3.84-1.75-7.25-3.2-10.6-4.77-3.52-1.65-9.72-.42-9,2.93.55,2.67,8,5.79,14,6,1.79.78,2.86,2.62.77,6-1.23,2-1.37,4.65-2.09,7a25.66,25.66,0,0,1-2.2,6,2.61,2.61,0,0,1-3.6,1.2c-1.62-.86-1-2.79-.5-3.66,1.14-2.08,1.74-4.14-.75-4.94-2.06-.67-4.08.91-4.82,2.22-1.35,2.4-1.68,5.38-2.6,8.68-5.7-3.45-12.61-3.94-16.49-4.24-.64,0-2.46.36-2.29,3.12.13,2,1.86,2.5,3.37,2.42,4.22-.22,8.17.41,9.44,4.2.83,2.47-.51,6.29-2.06,8.76-2.34,3.72-6.4,4.76-10.74,3.58a16.39,16.39,0,0,1-11.89-11,76.91,76.91,0,0,1-2.44-38.47c.44-2.43,1.27-4.76-1.92-5.56s-3.68,2-4,3.95c-.87,5.22-1.33,10.5-2,16.1"/>
    <path class="cls-1" d="M436.63,559.68c-9.37,0-18.3,0-27.24,0-8.24,0-16.48-.16-24.71,0-2.73.06-3.89-1-4.49-3.44-2.09-8.61-1.31-17.21.05-25.8a103.34,103.34,0,0,1,10.38-32.33C393,501,408.91,515.54,414.36,520c14.09,11.39,21.92,21.52,22.27,39.73"/>
    <path class="cls-1" d="M521.09,412.72c5.62,4,11.07,7.22,15.82,11.29,22,18.85,38.9,41.93,53.39,66.81,12.75,21.89,23,44.92,29.22,69.56,2.14,8.43,3.49,17,1.11,25.7-6.17-.68-7.82-2.54-8.45-8.67-1.75-17.12-7.62-33-14.43-48.67a297.84,297.84,0,0,0-69.42-98.54c-1.37-1.29-2.86-2.45-4.29-3.66-5.77-4.85-5.9-5.29-2.95-13.82"/>
    <path class="cls-1" d="M358.81,376.87c-1.12-10.6-6.45-19.08-13.72-27.82,9,2.39,17,4.46,24.93,6.62q36.3,9.84,72.58,19.74c5.27,1.43,6.46,5.24,2.58,9.29-4.25,4.41-9.64,6.52-15.75,5.41-22.84-4.16-45.64-8.49-68.46-12.76-.69-.13-1.37-.3-2.16-.48"/>
    <path class="cls-1" d="M493.26,237.92C458.32,217,428.21,190.35,400,161.24c5.66,4.66,11.94,8.19,19.29,8.13s13.91,2,20.28,5.26c17.3,8.7,32.52,20,43.82,36,1.49,2.11,2,4.95,2.86,7.46,2.28,6.41,4.54,12.83,7,19.87"/>
    <path class="cls-1" d="M479,544.59c-12.81-4.37-21.95-18.44-27-32.27,3.32-.79,6.89-1.05,9.91-2.47,8.81-4.16,10.41-8.31,5.54-16.3-6.59-10.83-16.54-17.57-28.33-21.66-7.25-2.52-8.32-3.52-10.11-11.74,42.95,3.26,66.6,38.52,49.95,84.44"/>
    <path class="cls-1" d="M353.38,375.83a26.79,26.79,0,0,1-20-3.76c-8.82-5.42-17.5-11.07-26.33-16.69a20,20,0,0,0,3-4c.49-1,.84-3-.18-3.84s-2.79,0-3.71.64c-2.35,1.66-4.26,3.95-6.66,5.49-1,.65-3.31,1.08-4.3,0s-.37-2.95.26-3.87c1.36-2,3.43-3.5,4.86-5.46.75-1,2-2.86,1.13-4s-2.79-.49-3.74.16a45.66,45.66,0,0,0-6.54,5.68c-.72.68-2.65,1.07-3.6-.05-.6-.72-1.38-2.09.11-3.28,3.34-3,4.22-3.64,7.22-6.55,1-1.06,2.7-2.2,1.63-3.44s-2.51.14-3.67,1c-2.92,2.1-5.34,4-8.28,6.11-1,.67-3.51,1.06-4.37-.15s.3-3,1.13-3.72c3.11-2.58,6.27-5.32,9.88-7a12.07,12.07,0,0,1,8.13-.4c19.05,6.22,36.2,15.43,47.4,32.9,2.66,4.15,4.22,9,6.61,14.21"/>
    <path class="cls-1" d="M488.25,206.42c-13.79-18.73-30.72-33.37-52.73-41.63,10.69-8.93,29.65-8.07,42,1.75,12.82,10.23,16.22,28.44,10.76,39.88"/>
    <path class="cls-1" d="M406.86,213.76c.26-5.19,7.17-6.64,11.81-8.73,1.47-.66,4.26-2.16,3.24-4.24-.92-1.86-3.53-1.17-4.79-.56a74.14,74.14,0,0,0-12.12,7.3c-3.05,2.26-7.69,5.46-10,2.24-2.82-4,4.53-6.86,7.39-9.55,1.24-1.16,2.94-3.69,2.48-4.5-1.54-2.76-3.76-.9-5.43.36-2.18,1.65-4.6,3.27-6.09,5.47-3.06,4.54-7.87,6.81-11.92,5.09a1.44,1.44,0,0,1-.94-1.33C381.15,201,393,196,394.1,195.4c2.06-1.07,2.58-2.24,1.65-3.85-1.08-1.86-2.43-1.58-4.1-.52-4.25,2.7-13.11,11.49-15,11-2.63-.74-1.22-7.5,3.27-11.94,7.13-7.05,15.69-8.65,29-6.57,1.48.23,3.32.45,4.41,1.37,11.26,9.51,22.4,19.15,33.65,28.82-2.59,3.72-6.41,3.82-10.24,2.49-1.34-.47-2.63-2.31-3.11-3.79-.88-2.76-2.46-3.28-4.48-1.75-3.21,2.43-6.13,4.29-9.82.72-.51-.49-2.39.24-3.56.64-2.78,1-5.51,4.24-8.25,3.17a1.45,1.45,0,0,1-.7-1.39"/>
    <path class="cls-1" d="M238.41,274.08q2.57,25.56,5.23,52.36c-7,1.35-15.84,1.37-22.24,9.17-5.06-24.23-1.94-45.39,17-61.53"/>
    <path class="cls-1" d="M275.1,333.66c-1.66,7-.45,8.68,5.1,12.55,3.72,2.59,6.36,6.7,9.78,9.8a14.43,14.43,0,0,0,6.32,3.67c8.15,1.67,15.19,5.45,21.85,10.3-6.58-.54-13.18-1-19.75-1.68a11,11,0,0,1-3.91-1.72c-9.15-5.22-17.9-11.37-27.51-15.48-8.77-3.75-18.52-5.16-27.74-7.93a35.36,35.36,0,0,1-10.62-5.58c15.21-7.23,30.73-6.06,46.48-3.93"/>
    <path class="cls-1" d="M436.45,533l58.16,26.2c-1.67,3.68-5.39,4.61-9,4.7-11.69.27-23.4.24-35.09.14-5.2,0-6.89-1.91-7.69-7.35a104.3,104.3,0,0,0-2-12.27c-1.08-4-2.93-7.71-4.39-11.42"/>
    <path class="cls-1" d="M441.24,413.83c-3,11.91-9.71,21.31-20.49,29.81l-6.25-24.23,25.79-7.12c.31.52.63,1,.95,1.54"/>
    <path class="cls-1" d="M465.59,501.16c-5.49,3.89-11.71,5.57-18,4.23-2.28-.48-3.73-4.81-5.62-7.48,6.7-3.16,18.31-1.43,23.59,3.25"/>
    <path class="cls-1" d="M405,176.91l-13.75,2.71V161.25L405,176.91"/>
    <path class="cls-1" d="M489.14,243.67c-4.59-1-9.27-1.79-13.75-3.16-5.89-1.8-6-2.44-2.9-8.22l17,10.49-.33.89"/>
    <path class="cls-1" d="M450.23,215.69l9.11,7c-.15.35-.31.7-.47,1.05l-9.93-3.17,1.29-4.85"/>
  </g>
</svg>
