<svg id="Livello_1" data-name="Livello 1" xmlns="http://www.w3.org/2000/svg" viewBox="0 0 841.89 841.89">
  <defs>
    <style>
      .cls-1 {
        fill: #231f20;
      }
    </style>
  </defs>
  <title>Glos</title>
  <g>
    <g>
      <path class="cls-1" d="M772.43,365.74c0,15.69-1.26,31.1-7,45.89C750.11,450.93,712.31,469,673.09,454c-33.57-12.88-56.13-37.55-65.72-72.43-7-25.48-.74-48.65,18.57-67.18,13.17-12.69,29-18.29,46.82-11.38,17.16,6.7,27.56,19.46,28.74,38.61.77,12.92-4.35,23.45-14,31.66-5.9,5.08-11.34,3.05-12.52-4.63-.73-4.88-.37-9.92,0-14.88.24-3.25,2.36-5.12,5.93-5,3.38.12,5.74-1.34,5.7-5s-2.69-5-5.9-5a33.2,33.2,0,0,0-5.61.94c-3.57.61-7.23,2.11-10.65,1.66C640,338.1,623.14,357.12,631,380.7c8.7,26.13,28.29,41,53.94,48.81,16.26,5,29.75,0,40.76-12a79.17,79.17,0,0,0,11.51-16.78c12.31-23.86,12.11-49.06,6.26-74.47-8.78-38-28.9-69.74-55.93-97C643.74,185.11,592,155.64,529.45,148c-9.11-1.14-18.41-1.18-27.64-1.3-5.08-.08-8.5,3.7-6.42,7.12,2.39,4,.08,5.36-2.4,6.82a54.89,54.89,0,0,1-9.15,4.39c-20.4,6.95-41.45,10-62.87,10.86-21.43-.9-42.52-3.91-62.88-10.86a52,52,0,0,1-9.15-4.39c-2.52-1.46-4.84-2.84-2.44-6.82,2.08-3.42-1.3-7.2-6.42-7.12-9.23.12-18.49.16-27.64,1.3-62.59,7.68-114.25,37.15-158.07,81.29-27,27.24-47.15,59-55.93,97-5.85,25.41-6,50.61,6.26,74.47a77.89,77.89,0,0,0,11.55,16.78c11,12.07,24.46,17,40.76,12,25.61-7.8,45.2-22.68,53.9-48.81,7.84-23.58-8.94-42.6-33.49-39.35-3.42.45-7.12-1.05-10.65-1.66a34.34,34.34,0,0,0-5.65-.94c-3.17,0-5.86,1.18-5.89,5s2.31,5.16,5.69,5c3.61-.12,5.73,1.75,6,5,.37,5,.77,10,0,14.88-1.18,7.68-6.58,9.71-12.52,4.63-9.59-8.21-14.75-18.74-13.94-31.66,1.14-19.15,11.54-31.91,28.74-38.61,17.76-6.91,33.61-1.31,46.78,11.38,19.35,18.53,25.61,41.7,18.57,67.18-9.59,34.88-32.11,59.55-65.72,72.43-39.18,15-77-3.09-92.31-42.39-5.73-14.79-7-30.2-7-45.89-.08-23.09,4.88-45.12,13.9-66.17,14.19-33.09,31.75-64.18,55.73-91.37,27.64-31.38,62.43-51.62,100.84-66.46a415.64,415.64,0,0,1,108.28-25.4C367,114.43,386,113.94,405,113c5.28-.25,10.65.24,16,.4,5.32-.16,10.68-.65,16-.4,18.9.93,37.88,1.42,56.74,3.33A416.11,416.11,0,0,1,602,141.74c38.37,14.84,73.2,35.08,100.84,66.46,23.94,27.19,41.5,58.28,55.69,91.37C767.55,320.62,772.51,342.65,772.43,365.74Z"/>
      <path class="cls-1" d="M624.64,299.29c-7.76,9.83-14.88,18.9-22.07,28a135.22,135.22,0,0,0-44.22-33.9c-27.07-13.05-55.32-19.47-85.15-12-19.51,4.84-35.12,15.28-41.87,35.4-1.87,5.65-3.41,12.28-2.32,17.93,3.95,19.83,9,39.42,13.94,59,.57,2.15,2.93,4.3,5,5.56,6.75,4.07,14.11,7.2,20.53,11.71a20.42,20.42,0,0,1,8.82,18.49c-.12,2.08-1.59,4-2.56,6.34-2.64-5.36-4.31-10.16-7.11-14.06-3-4.1-7.93-6.5-12.89-5.08-4.47,1.3-8.45,4.31-13,6.75A36.12,36.12,0,0,0,421,409a35.85,35.85,0,0,0-20.82,14.43c-4.55-2.44-8.53-5.45-13-6.75-5-1.42-9.88,1-12.85,5.08-2.84,3.9-4.51,8.7-7.15,14.06-1-2.31-2.44-4.26-2.56-6.34A20.56,20.56,0,0,1,373.45,411c6.38-4.51,13.78-7.64,20.49-11.71,2.07-1.26,4.47-3.41,5-5.56,4.95-19.6,10-39.19,13.94-59,1.09-5.65-.41-12.28-2.32-17.93-6.71-20.12-22.36-30.56-41.82-35.4-29.88-7.44-58.09-1-85.16,12a135,135,0,0,0-44.26,33.9c-7.19-9.1-14.31-18.17-22.07-28,4.59-10.82,13-20.49,22.88-29,22.07-19,47.68-31.58,74.87-41.17,34.27-12.11,69.55-18.9,106-19.1,36.41.2,71.65,7,106,19.1,27.19,9.59,52.8,22.15,74.83,41.17C611.63,278.8,620.09,288.47,624.64,299.29Z"/>
      <path class="cls-1" d="M289.59,348.5c10.58-22.9,40.12-36.51,62.66-29.2,13.54,4.39,21.74,13.8,25.39,28.77C347.82,330.66,318.92,330.75,289.59,348.5Z"/>
      <path class="cls-1" d="M390.59,436.33l-11.18-.71c-.2-5.55,2.25-9.1,6-9.16C389.37,426.4,391.09,429.38,390.59,436.33Z"/>
    </g>
    <g>
      <path class="cls-1" d="M628.7,435.08c-16.5-16.7-28.12-36.33-32.06-59.83A71.2,71.2,0,0,1,599,343c.86-2.93.57-5-1.5-7.44-21-25-48-39.55-79.79-45.56-16.17-3.05-32.27-2.73-47.88,3s-26.7,15.73-29.87,32.84a24.44,24.44,0,0,0,.2,9.1c2.07,9.76,4.51,19.47,6.87,29.55,5-4.14,7.8-8.17,8.17-14.63,1.26-22.32,21.66-41,44.14-42.43,31.3-2,63.16,21.05,70.11,56.45.37,1.83-1.22,5.33-2.68,5.81-1.75.61-5.08-.36-6.46-1.87a70.75,70.75,0,0,0-39.71-21.9,27.72,27.72,0,0,0-3.86-.25c5.85,11.51,5.28,19.67-1.67,25.81a17.48,17.48,0,0,1-21.58,1.42c-7.68-5.2-9.59-13.2-5.53-24.26a29.46,29.46,0,0,0-3.74,1,68.47,68.47,0,0,0-32.19,25.68c-3.09,4.64,0,14.51,5.08,16.67,10.69,4.43,20.16,10.48,26.7,20.32,4.88,7.36,7.32,15.24,3.21,23.86-2.68,5.69-6.95,8.86-13.65,9.06-15.73.41-31.42,1.3-47.11,1.95-1.46.09-2.93-.08-4.35-.12s-2.93.21-4.35.12c-15.73-.65-31.42-1.54-47.15-1.95-6.66-.2-10.93-3.37-13.65-9.06-4.11-8.62-1.67-16.5,3.25-23.86,6.5-9.84,16-15.89,26.66-20.32,5.12-2.16,8.17-12,5.08-16.67a68.18,68.18,0,0,0-32.15-25.68,31.37,31.37,0,0,0-3.74-1c4.07,11.06,2.12,19.06-5.57,24.26a17.49,17.49,0,0,1-21.58-1.42c-6.95-6.14-7.52-14.3-1.63-25.81a27.9,27.9,0,0,0-3.9.25,70.91,70.91,0,0,0-39.71,21.9c-1.34,1.51-4.67,2.48-6.46,1.87-1.46-.48-3.05-4-2.68-5.81,6.95-35.4,38.81-58.41,70.15-56.45,22.44,1.42,42.84,20.11,44.14,42.43.37,6.46,3.13,10.49,8.13,14.63,2.36-10.08,4.8-19.79,6.87-29.55a24.44,24.44,0,0,0,.2-9.1C400.72,308.72,389.51,298.72,374,293s-31.7-6.06-47.88-3c-31.79,6-58.69,20.61-79.79,45.56a7,7,0,0,0-1.46,7.44,71.9,71.9,0,0,1,2.4,32.27c-4,23.5-15.57,43.13-32.11,59.83-3.74,3.78-4.39,7-2.36,11.38a42.78,42.78,0,0,0,1.95,4.43c9.63,17.44,19,35,29.14,52.15,7.6,12.85,15.61,25.41,20,39.83,7.28,23.54,7.28,48,9.31,72.23,1,12.4,2.11,25.08,5.57,36.95,7.44,25.36,24.55,43.12,48.2,54.3,28.17,13.33,57.43,22.32,88.69,22.6V700.62c-30.61-1.38-53.08-17.72-70.84-42.27-17.12-23.58-26.14-50.44-30.89-78.94-.94-5.77-1.22-11.62-2.28-17.35-.45-2.4-2.56-4.47-3.25-6.91-.77-2.72-2-6.38-.9-8.41,4.64-8.3,9.15-17,15.45-24,23.61-26.05,52.8-42.92,87.39-50,3.78-.77,7.72-.89,11.58-1.34,3.86.45,7.76.57,11.54,1.34,34.59,7.07,63.78,23.94,87.39,50,6.3,7,10.85,15.69,15.49,24,1.14,2-.16,5.69-.94,8.41-.65,2.44-2.76,4.51-3.21,6.91-1.1,5.73-1.34,11.58-2.31,17.35-4.76,28.5-13.78,55.36-30.85,78.94-17.81,24.59-40.32,40.93-70.93,42.27V729c31.26-.28,60.6-9.27,88.73-22.6,23.69-11.18,40.77-28.94,48.2-54.3,3.5-11.87,4.56-24.55,5.61-36.95,2-24.22,2-48.69,9.27-72.23,4.43-14.42,12.44-27,20-39.83,10.12-17.15,19.51-34.71,29.18-52.15.77-1.38,1.26-3,2-4.43C633.09,442.07,632.44,438.86,628.7,435.08Z"/>
      <path class="cls-1" d="M732.22,390.78c-11.67,29.39-33.49,38.86-61.42,21.83-14.91-9.11-26.94-20.9-30.52-39-2.85-14.68,8.78-25.41,24.92-22.11,0,5.4-.33,10.77,0,16.05.85,11.79,9.34,19.47,19.71,18,6-.9,10.69-4.48,14.55-9,18.9-22.15,13.62-59.14-11-76.7C673.45,289.08,657.07,288.15,640,294c-2.6.9-4.59,1.87-6.38-1.58-9-17.4-22.6-30.73-38.33-42-21.54-15.49-45.8-25.08-70.88-33-33.37-10.56-67.35-17.27-102.47-17.11-35.16-.16-69.14,6.55-102.47,17.11-25.07,7.93-49.38,17.52-70.92,33-15.69,11.3-29.27,24.63-38.33,42-1.79,3.45-3.78,2.48-6.34,1.58-17.11-5.81-33.49-4.88-48.53,5.85-24.59,17.56-29.88,54.55-11,76.7,3.86,4.55,8.5,8.13,14.55,9,10.37,1.5,18.86-6.18,19.72-18,.4-5.28.08-10.65.08-16.05,16.14-3.3,27.76,7.43,24.87,22.11C200,391.71,188,403.5,173,412.61c-27.93,17-49.75,7.56-61.42-21.83-9.59-24.19-7.48-48.78,1.26-73.2,29.76-83,91.78-129.54,173.07-154.29,16.14-4.88,32.88-6.79,50-6.95.73,6.95,5,10.77,10.52,13.73,13.78,7.4,28.9,10.25,44.1,12.52,10.37,1.51,20.89,2,31.38,3,10.45-1,21-1.5,31.34-3,15.2-2.27,30.32-5.12,44.1-12.52,5.49-3,9.84-6.78,10.53-13.73,17.11.16,33.9,2.07,50,6.95C639.18,188,701.25,234.54,731,317.58,739.7,342,741.81,366.59,732.22,390.78Z"/>
      <path class="cls-1" d="M487.18,546.86c-3.3,28.61-15.08,53-35.85,72.92-8.25,7.88-17.4,14.51-29.39,15.52-12-1-21.18-7.64-29.43-15.52-20.77-19.88-32.55-44.31-35.85-72.92-1.34-11.67-3.53-9.88,9.19-15.2,18.21-7.65,37-8.46,56.09-3.66,19.06-4.8,37.88-4,56.09,3.66C490.71,537,488.52,535.19,487.18,546.86Z"/>
      <path class="cls-1" d="M522.42,561.94c-.78,5.48-1.35,10.81-2.24,16-4.35,25.69-12.23,50.08-27.11,71.7-17.15,24.92-39.22,41.74-71.13,41.22-31.95.52-54-16.3-71.13-41.22-14.87-21.62-22.8-46-27.11-71.7-.89-5.24-1.5-10.57-2.28-16,4,0,5.41,1.83,6.3,5a145.44,145.44,0,0,0,44.63,69.83,93.39,93.39,0,0,0,41,21.09c2.77.65,5.74.57,8.62.81,2.85-.24,5.81-.16,8.62-.81a93.39,93.39,0,0,0,41-21.09A145.08,145.08,0,0,0,516.12,567C517.05,563.77,518.47,561.94,522.42,561.94Z"/>
      <path class="cls-1" d="M526,548.85c-3,1.3-6,2.6-9,3.86-16.14-33-66.29-43.45-95-34.47-28.78-9-78.89,1.51-95,34.47-3-1.26-6.05-2.56-9.06-3.86,6.22-21.58,53.89-63.41,104.09-67.68C472.14,485.44,519.81,527.27,526,548.85Z"/>
      <path class="cls-1" d="M437.13,437.28H406.69a21.09,21.09,0,0,1,15.24-17.56A21,21,0,0,1,437.13,437.28Z"/>
      <path class="cls-1" d="M553.29,348.5c-10.59-22.9-40.13-36.51-62.67-29.2-13.53,4.39-21.73,13.8-25.38,28.77C495.05,330.66,524,330.75,553.29,348.5Z"/>
      <path class="cls-1" d="M452.28,436.33l11.18-.71c.2-5.55-2.25-9.1-6-9.16C453.5,426.4,451.78,429.38,452.28,436.33Z"/>
    </g>
  </g>
</svg>
