<svg id="Livello_1" data-name="Livello 1" xmlns="http://www.w3.org/2000/svg" viewBox="0 0 841.89 841.89">
  <defs>
    <style>
      .cls-1 {
        fill: #231f20;
      }
    </style>
  </defs>
  <title>Glos</title>
  <g>
    <path class="cls-1" d="M584,752c-10.47,6.81-122.18,15-163.08,15s-152.64-8.23-163.12-15c-6.39-4.18-2.74-25.44-2.74-25.44l1.23.1c-.77-.17-1.19-.28-1.19-.28,38.37-6.68,71.16-32.85,93.43-63.88,15-22.63,15.71-34.26,16.13-40,.28-4.14.42-5.16,5.8-5,0,0,16.06.81,30.05,1.48h40.69c14-.67,30.18-1.48,30.18-1.48,5.38-.21,5.52.81,5.8,5,.39,5.7,1.09,17.33,16.13,40,22.28,31,55.06,57.2,93.43,63.88,0,0-.42.07-1.23.28l1.27-.1S590.47,747.78,584,752Z"/>
    <path class="cls-1" d="M281,398.47C270,364.9,348.47,324.72,342.7,268.14c-3-29.15-32-51.61-60.88-56.09-19.39-3-40.07,10.62-48.61,23.28-29.6,43.89,21.41,107.77,28.45,122.09,23,40.08,13.87,48.39,8.38,73.75-4.41,18.68.2,26.45-7.84,34.08-28,36.42-71.58,7-63.7-26.72,10.38-30.45,48.21-7,30.71,11.24-2.61,2.85-10.93.72-8.73-2.22,10.16-.51,6.82-11.36-.65-12.49-24.06,0-7.49,43.69,20.34,25.5,12.61-8,16-29.65,17.83-40.56,13-75.2-69.92-113.9-46.89-180C238,162.75,337,188.72,355.73,251.83,365.43,284.54,321,365.28,300.86,375,292.45,381.23,286.76,389.56,281,398.47Z"/>
    <path class="cls-1" d="M531.5,545.83c-14.09,15.32-29.7,27.73-48,39.18a12.81,12.81,0,0,1-8,1.79H366.34a12.82,12.82,0,0,1-8-1.79c-18.27-11.45-33.87-23.86-48-39.18-45.22-48.25-50.32-102.5-20.35-150.19,12.72-19.78,51.17-32,72.39-29.72,14.58,1.58,42.91,4,58.51,4.11,15,.11,43.92-2.53,58.5-4.11,21.23-2.29,59.67,9.94,72.39,29.72C581.82,443.33,576.72,497.58,531.5,545.83Z"/>
    <path class="cls-1" d="M573.22,169.8c-44.52-.07-89.18,1.06-134,.57-5.62-.07-14.54-.21-18.27-.21s-12.68.1-18.27.21c-44.8.14-89.47-.64-134-.57-4.88-9.84-.56-26.81-1.86-38.51H267s-.07,0-.11-.07c1.65-1.16,3.27-2.32,4.85-3.44,55.45-39.43,56.19-44,65.22-45.72,27.93-5.31,55.62-7.17,84-7.17s56.08,1.9,84,7.17c9.35,1.76,9.84,6.54,70.14,49.16l-.24.11a.39.39,0,0,1,.21,0C573.78,143,578.1,160,573.22,169.8Z"/>
    <path class="cls-1" d="M560.93,398.47c10.92-33.57-67.51-73.75-61.74-130.33,3-29.15,32-51.61,60.88-56.09,19.39-3,40.07,10.62,48.61,23.28,29.6,43.89-21.41,107.77-28.45,122.09-23,40.08-13.87,48.39-8.38,73.75,4.41,18.68-.2,26.45,7.83,34.08,28.05,36.42,71.59,7,63.7-26.72-10.38-30.45-48.2-7-30.7,11.24,2.61,2.85,10.93.72,8.73-2.22-10.16-.51-6.82-11.36.65-12.49,24.05,0,7.49,43.69-20.34,25.5-12.61-8-16-29.65-17.83-40.56-13-75.2,69.92-113.9,46.88-180-26.88-77.21-125.91-51.24-144.62,11.87C476.46,284.54,520.91,365.28,541,375,549.44,381.23,555.13,389.56,560.93,398.47Z"/>
    <path class="cls-1" d="M556.55,181.26c-68,18.94-87.32,68.45-86.79,140.38-.95,0-36.56,4.57-48.81,4.57s-47.86-4.53-48.85-4.57c.53-71.93-18.73-121.44-86.75-140.38,0,0,101.7.17,135.6.17S556.55,181.26,556.55,181.26Z"/>
    <path class="cls-1" d="M484.06,606.66c-3.23,5.9-41.4,5.9-63.11,5.9s-59.88,0-63.11-5.9c-7.24-13.15,6-11.7,14.19-12.37,16.7-.67,32.08-.25,48.92-.25s32.22-.42,48.91.25C478,595,491.3,593.51,484.06,606.66Z"/>
    <path class="cls-1" d="M489.4,354.53c-12.51,5.9-51.26,8.73-68.45,8.73s-56-2.83-68.45-8.73c-1.62-.77-6.82-16.48,2.56-22.35.46,0,49.34,6.15,65.89,6.15s65.43-6.15,65.88-6.15C496.22,338.05,491,353.76,489.4,354.53Z"/>
  </g>
</svg>
