<svg id="Livello_1" data-name="Livello 1" xmlns="http://www.w3.org/2000/svg" viewBox="0 0 841.89 841.89">
  <defs>
    <style>
      .cls-1 {
        fill: #231f20;
      }
    </style>
  </defs>
  <title>Glos</title>
  <g>
    <path class="cls-1" d="M143.93,364.3a17.62,17.62,0,0,1-1.07-4.63A183.77,183.77,0,0,0,137.57,320c-1.66-7.15,0-15.13.57-22.7.11-1.54,1.67-3.25,3-4.37,11.17-9.46,23.65-16.49,38-19.85a59.66,59.66,0,0,1,8.37-.88c3.07-.27,5.58-1.84,4.87-4.89-.4-1.7-3.52-4.22-5-4A177.49,177.49,0,0,0,162.89,269c-6.24,2-11.93,5.73-18,8.25C140.6,279,136,279.4,132.16,276s-2.62-7.9-1.85-12.09c2.25-12.17,8.92-22.2,16.92-31,6.73-7.43,14.78-13.71,22.51-20.19,2.44-2.05,4.43-3.89,2.71-7s-4.77-2.86-7.29-1c-7.14,5.35-14.12,10.89-21.44,16.57,6.09-25.89,14.57-50.58,36-68.18,10-8.18,17.77-6.13,24.94,4.31,13.54,19.67,31.87,31.66,56,33.7A45.92,45.92,0,0,0,288,185.4c1.53-.88,3.58-3.91,2.67-5.92s-4.66-2.58-6.17-1.93c-25.3,10.76-45.95,2.07-64.36-15.29-7-6.56-11.61-14.82-14.88-23.89-1.64-4.55-1.54-8.52,2-11.85,3.95-3.74,8.3-7.06,12.31-10.75,5.22-4.79,10.17-9.9,15.47-14.62,3.51-3.13,7.06-6.61,11.24-8.54,8-3.71,16.5-6.43,24.75-9.55,2.68,12.14,4.59,23,7.52,33.63,4,14.42,9.44,28.38,18.61,40.41,2.91,3.82,7.13,6.76,11.08,9.64a4.28,4.28,0,0,0,6.77-1.68c1.43-3.07,0-5.15-3.15-6.63a14.81,14.81,0,0,1-5.57-4.74c-14.88-21.29-22.94-45-25-70.86-.43-5.35,2-8,6.38-9.88,11.15-4.77,23-6.41,34.92-6.93,14.45-.63,28.91-.45,42.76,4.74,1.22.46,2.4,1,2.43,1-1.23,10.51-2.56,20.46-3.46,30.44a13.07,13.07,0,0,0,1.62,7.62c1,1.62,3.6,3.91,5.7,3.2s2.86-4,2.5-5.6c-2.69-12.13.49-23.39,4.73-34.45.68-1.77,3.45-3.56,5.48-3.87a249.67,249.67,0,0,1,73.44-.18c3.23.47,5.29,1.69,6.39,5.1,3.55,11,6.64,21.86,4,33.61-.35,1.53.76,4.88,2.76,5.46s5.41-2,5.58-3.35a103.35,103.35,0,0,0,.89-20.18c-.43-5.71-2.41-11.31-3.77-17.29,7.93-4.32,17-5.44,26-6.06,16.63-1.15,33.18-.37,49.28,4.58,1.11.34,2.22.67,3.3,1.08,8.13,3.1,9.34,4.65,8.63,13.16a137.54,137.54,0,0,1-25,68.77c-1.43,2-4.29,3-5.92,5-1.37,1.65-3.69,4-2.82,6s5.09,2.81,6.21,2.07c4.46-3,9.23-6.14,12.29-10.39,11.81-16.44,17.87-35.38,22.09-54.95,1.18-5.49,1.8-11.09,2.77-17.3,3,.49,6.18.49,9,1.55,11.05,4.16,22.5,7.19,30.14,17.88,4.2,5.88,10.9,10.06,16.73,14.66,15.48,12.19,14.13,15.13,6.65,29-11.06,20.48-28.47,32.79-51.92,34.52-7.11.52-14.56-2.18-21.7-4-3.17-.82-5.93-2-7.59,1.62s1,5.51,3.86,6.83c17.81,8.11,35.25,5.94,52.27-2.33,11.89-5.76,22.53-13.82,28.74-25.38,8-14.88,21.46-10.8,30-2.38,12.17,12,20.13,26.7,25.68,42.7,2.52,7.27,4.32,14.78,6.79,23.36-5.93-5.09-10.73-9.34-15.68-13.4a58.11,58.11,0,0,0-6.65-4.36c-2.65-1.62-5.32-1.58-6.86,1.31s-.25,5,2.43,6.65c15.5,9.4,26.9,22.7,35,38.64,2.9,5.7,4.05,12.47,5.05,18.89.75,4.83-2.77,8.44-7.73,8.16a33.28,33.28,0,0,1-11.79-3.06c-11.12-5.14-21.89-11.19-34.5-11.91-3.55-.21-8.3-1.09-8.46,4.2s4.46,4.51,8.12,4.9c14.65,1.58,26.84,8.82,38.81,16.81,6.4,4.27,8.55,9.92,8.7,17.18a92.37,92.37,0,0,1-3.61,26.38c-2.18,8-1.7,16.75-2.45,25.16-.22,2.43-.66,4.83-1,7.45-5.85-2.23-11-4.69-16.52-6.14-4.59-1.21-9.5-1.13-14.24-1.83-1.41-.2-3.42-.7-4-1.72-13.24-24.08-34-40.17-57.46-52.88-20.46-11.07-43-16.19-65.93-19.33-22.07-3-44.11-2.81-65.69,3.11-8.2,2.26-15.94,6.27-23.82,9.63-3.71,1.58-5.27,4.51-5.35,8.67-.17,9.3-.77,18.59-1.09,27.89-1.12,31.55-2.16,63.1-3.34,94.65-.13,3.41,1,5.15,4,6.95,13.05,7.77,23.45,18,27.29,33.32a14.67,14.67,0,0,1-.12,7.27c-1.31,4.62-4.81,5.79-9.13,3.25-9.52-5.6-21.08-1.64-24.23,7.33-.66,1.88-4,3.83-6.22,4a166.37,166.37,0,0,1-22.77,0c-2.31-.17-5.59-2.31-6.47-4.38-3.76-8.89-14.44-11.92-22.63-7.57-2.77,1.47-5.95,4.07-8.31.67a14.32,14.32,0,0,1-2.43-9.5c2.12-12.89,10.59-21.8,20.21-29.77a10,10,0,0,1,2.83-2c6.71-2.29,7.56-7.23,7.37-13.6q-1.81-59.53-3-119.09c-.08-3.84-2.19-5.7-4.83-7.45-10-6.61-21.22-10.21-32.83-12.17-43.77-7.37-85.72-.7-125.18,19.07C213.74,314,195.82,328.93,183,348.7c-3.82,5.86-7.08,8.82-14.5,9.25C160.49,358.42,152.69,361.9,143.93,364.3Z"/>
    <path class="cls-1" d="M413.8,537.51v9H402.28c-8.8,0-17.63-.48-26.4,0-16,.82-28.46,8.77-37.66,21.31-2.63,3.58-2.3,9.31-3.43,14a17.21,17.21,0,0,1-1.76,5.31c-6.21,9.77-11.08,20.06-12.28,31.71-.77,7.39,1,18,9.42,18.91,4.68.51,10.5.29,14.2-2.09,8.24-5.3,15.48-12.16,23.14-18.4,3.75,10.85,11.22,19.66,25.18,19.14,13.23-.5,21.7-8.79,28.4-20.23,6.73,11.07,15.09,19.73,28.42,20.23,14,.52,21.55-8.19,24.91-18.05,4.36,3.54,9.29,7.78,14.49,11.66a56,56,0,0,0,10.94,6.76c12.2,5.3,21.83-.92,21.87-14.24,0-12.72-5.22-23.83-11.83-34.35a14.32,14.32,0,0,1-2.45-8.57c.08-4.19-1.25-9.28-3.83-12.49-10.55-13.13-23.94-21.17-41.55-20.67-10.94.3-21.9.05-33.4.05-.14-3-.28-5.85-.43-8.79,8.65-1,16.88-1.69,25-2.93,6.7-1,13.26-2.91,20-4,11.31-1.87,20.88,1.95,29.09,9.67,6.14,5.78,11.35,12.33,13.61,20.49,1.38,5,1,10.52,2,15.69,1.81,9.69,5.22,19.38,14,24.21,6.92,3.79,10.09,9.72,14.62,15.17,5.67,6.83,9.51,14.36,13.32,22.24,3.11,6.43,8.19,12,13,17.46,1.14,1.3,5.22,2.52,6.91.85s.35-5.2-.75-7c-4.3-7.2-10.14-13.63-13.5-21.19-4.54-10.21-1.61-19.74,5.8-26a74.49,74.49,0,0,0,7,6.25c3.61,2.54,7.27,5.33,11.35,6.79,10.7,3.84,20.09,9.39,27.31,18.28,1.87,2.3,3.94,3.86,6.75,1.86,3-2.12,2.74-5.19.4-7.29-6.11-5.51-12.57-10.65-18.94-15.88a11.35,11.35,0,0,0-3-1.66c-18-7.15-29.67-20.67-38-37.58-3.78-7.65-7.69-15.22-12.17-24.05,6.88,3.51,12.08,6.74,17.71,8.86a52.55,52.55,0,0,0,15.85,3.59c10.4.44,17-5.89,19.73-18,8,7.12,16.19,14.51,27.75,9.84,11.07-4.47,12.81-15.1,14.49-25.46,12.75,7.56,15.63,7.09,26.28-4.19,9.89,30.52,17.39,60.94,3,92.3-1.07-8.24-1.85-16.33-3.29-24.31a29.18,29.18,0,0,0-4.14-10.53c-1-1.47-4.37-2.55-6.14-2-2.68.8-2.89,3.49-1.62,6.23,6.72,14.48,6,29.67,3.86,44.92a10.08,10.08,0,0,1-2.51,5.3c-4.75,4.94-7.11,10.92-9.16,17.34-3.35,10.53-7.26,20.9-11.29,31.19-3,7.79-8.93,12.94-16.78,16.13-1-5.72-1.27-11.43-3.16-16.54-2-5.46-5.35-10.5-8.58-15.42-1.75-2.67-5.19-3.41-7.13-.64-1,1.44-.43,5.23.85,6.8,7.93,9.67,9.33,20.56,7,32.33a8.54,8.54,0,0,1-1.32,2.58c-3.38,5.49-7.19,10.76-10.07,16.5-3.35,6.69-8.63,11-15,14.31-5.69,2.93-11.54,5.55-16.79,8.06,1.12-9.45,2.73-18.69,3.16-28A30.37,30.37,0,0,0,568,699.76c-2-2.5-4.41-4.67-7.55-2.19s-1.64,5,.32,7.77c6.55,9.19,5.45,19.45,3.67,29.73-.2,1.14-.56,2.24-.82,3.36-2.8,11.9-9.08,20.53-21.26,24.61-10.43,3.49-20.73,7-32,6.08-.94-.08-1.86-.29-3.45-.55,1.1-1.62,1.89-2.77,2.67-3.93,8.73-12.92,12.21-27.52,13.09-42.76.46-7.94,0-16-.33-23.91-.12-3.2-.73-7-5.09-6.44s-4.25,4-3.94,7.68c1.36,15.66,1.07,31.28-4.48,46.2A69.73,69.73,0,0,1,500.05,762c-12.35,17-35.27,15.88-48.55,6.47-3.57-2.54-5.34-5.43-1.92-9.53,1.88-2.25,1.85-5.17-.83-6.32a7.23,7.23,0,0,0-6.36,1.11c-5.08,4.71-4.92,11.17-.2,19-13.09,6.8-28.34,2.85-35.08-6.25a15,15,0,0,1-2.28-6.43c-1.57-9.85-1.36-19.57,3.4-28.65s10.92-9.61,16.85-1.14c2.09,3,4.69,4.3,7.5,2.56,3.39-2.09,1.75-5.15,0-7.79-8.74-13.45-23.46-13.21-31.55.68-7.18,12.31-7.34,25.64-4.55,39.09.7,3.36,0,4.89-2.76,6.28-16.15,8.26-42.07,7.63-54.51-13-7.43-12.33-10.08-25.86-10.76-39.88-.31-6.44.3-12.94.68-19.4.2-3.43.06-6.78-4.08-7.22-3.94-.41-4.67,2.63-5,5.93-1.78,17.72-1.14,35.23,5.16,52.06,2.42,6.45,6,12.45,9.36,19.22a48.72,48.72,0,0,1-19.36-.9c-4-1-7.87-2.59-11.87-3.6-15.93-4-23.25-15.27-25.73-30.52-1.72-10.51-2.22-20.8,4.94-30,.92-1.19,1.07-4.87-.6-6.18s-4.91-.27-6.14.89c-6.3,6-8.37,14.09-8.12,22.26.27,9.13,2.12,18.21,3.31,27.46-12.81-6-27.6-10.06-33.77-26a41.52,41.52,0,0,0-5.33-8.94c-7.54-10.44-6.69-28,2-37.72.44-.5,3.44-6.49,1.9-8.11s-5.62-.84-6.56.3c-3.33,4-6.66,8.39-8.44,13.2-2.2,6-2.87,12.49-4.28,19.19-9.09-3.44-14.9-10.27-18.09-20-3.9-11.92-8.32-23.68-12.68-35.44a15.64,15.64,0,0,0-3.53-5.35c-4.39-4.4-6-9.91-6.34-15.77-.64-13.12-.92-26.22,5-38.6.68-1.44-.29-4.83-1.61-5.78a4.07,4.07,0,0,0-6.46,2.29c-2.31,7.72-4.39,15.53-5.95,23.43-.76,3.84-.13,7.95-.13,12.37-12.41-21.33-12.46-52.34,1.55-92.79,3.91,2.69,7.69,7,12.11,7.82s9.59-1.83,14.78-3c1.4,9,3.21,19.57,14.14,24.06,11.43,4.7,19.61-2.15,27.27-9.43.3.13.74.18.78.34,3.73,15.06,13.76,20.78,29.44,15.81,7.66-2.43,14.81-6.43,22.62-9.9-1.85,4.27-3.58,8.76-5.72,13.05-2.43,4.89-5.32,9.54-7.83,14.38-7.44,14.33-18.13,25-33,32-6.68,3.11-12.62,7.89-18.74,12.14a23.7,23.7,0,0,0-5.22,5.31c-1.93,2.56-3.84,5.61-.51,8.34,3.56,2.92,5.27-.52,7.76-2.46,7-5.47,13.77-11.86,21.75-15.28,8.79-3.76,16.62-8,22.26-15.64,7.33,5.22,10.15,14.11,7.73,23.66-2.26,9-7.26,16.29-13.63,22.77-2.37,2.41-4.62,5.07-1.59,8.08s5.65.84,8-1.62c7.38-7.64,13.23-16.15,15.86-26.62a9.19,9.19,0,0,1,1.54-3.08q6.79-9.43,13.71-18.8a5.13,5.13,0,0,1,2.1-1.87c12.45-4.16,16.93-14.59,20.23-25.83a34.18,34.18,0,0,0,1.14-8.86c.28-16.35,15.38-35.37,31.45-38.47,5.25-1,10.93-.67,16.29,0,12.47,1.58,24.85,3.75,37.27,5.68C411.43,537.09,412.55,537.29,413.8,537.51Z"/>
    <path class="cls-1" d="M465.47,345.55c4.65,7.36,8.57,15.11,13.92,21.7,11.72,14.42,27.57,21.44,45.92,22.83,26.26,2,49.14-7.17,70.37-21.69,4-2.7,4.22-6.32,1.71-9.4-4.57-5.6-9.27-11.41-15-15.69-14.24-10.63-31-15.64-48.27-18.6-22.54-3.86-45-3.78-66.92,3.6-5.11,1.71-9.94,4.25-15,6.46V310.89A207.6,207.6,0,0,1,527,308c23.05,3.21,45.81,7.73,67.51,16.25,10.75,4.22,21.07,9.55,31.43,14.69,3.56,1.77,6.64,3,10.1-.78l19.15,21.23c-9.94,5.75-15.47,13.71-17,24.46-.15,1.1-2,2.07-3.13,2.91-2.85,2-4.92,5-3.09,8,5.92,9.8,5.84,20.47,4.31,31-3.26,22.46-13.19,41.59-31.14,56-2.82,2.27-6.44,3.57-9.14,6-1.49,1.32-2.92,4.2-2.49,5.9.8,3.12,3.82,3.33,6.56,2,11.19-5.41,20-13.68,27-23.74,13.67-19.34,20.94-40.6,18.34-64.54-.51-4.7-2-9.28-3.13-14.14a27.69,27.69,0,0,1,21.29-3.78c10.39,2.17,16.6,12.51,14.36,23.28-1.65,8-4.88,15.11-11.2,20.59-2.38,2.07-3.76,4.88-.87,7.16a6.51,6.51,0,0,0,6.08.15c12.69-8.82,18.72-29.82,13.05-44.29-4.09-10.42-14.62-16.78-27.52-16.53-2.81.06-5.61.36-9.19.6,2.4-6.09,6.18-10.16,12-12.34,13.4-5,32.1,2.24,40.06,12.37,3,3.82,4,9.86,4.39,15,2.2,29.92-6.9,55.89-28.19,77.33a4.94,4.94,0,0,1-1.23.68c-3-6.24-5.68-12.64-9.22-18.5a25,25,0,0,0-8.36-8.14c-1.41-.86-5.35.28-6.58,1.79-2,2.49-.18,4.75,2.49,6.33a12.59,12.59,0,0,1,4.24,3.93c10.39,16.6,14.63,34.36,9.44,53.69-1.19,4.42-2.23,10.56-7.28,10.66-3.44.06-7.55-4.08-10.28-7.26-2.59-3-3.88-7.2-5.54-11-1.26-2.87-2.2-5.89-3.32-8.83-1.19-3.12-3.09-5.49-6.72-3.81-3.28,1.52-2.61,4.22-1.76,7.25,2.09,7.46,4.35,15,5.25,22.62.58,4.91-.43,10.32-2,15.09-2.93,8.91-9.66,11.13-17.07,5.38a51.77,51.77,0,0,1-11.22-13c-3-4.69-4.78-10.15-7.08-15.28-1.38-3.06-2.56-6.74-7-4.91-4.11,1.69-2.73,5-1.67,8.07,2.84,8.17,5.54,16.37,4.09,25.24-1.2,7.3-5.77,10.88-13,9.62-14.3-2.49-25.48-10.79-36-20.08-.93-.82-1.38-2.23-2-3.41-8.28-16.56-20.17-29.81-37.15-37.45-11.08-5-17.6-14.34-25.34-22.66a5.21,5.21,0,0,1-.88-2.29c-3.89-16.9-14.66-28.7-28.5-38.1-2.36-1.6-3.27-3.14-3.2-6,.52-20.11.84-40.23,1.27-60.34C451.21,355.41,458.15,347.72,465.47,345.55Z"/>
    <path class="cls-1" d="M166.72,473.79c-10.9-9.62-18.23-21.52-23.23-34.88-6.29-16.76-9.19-34-4.58-51.66a21.67,21.67,0,0,1,6.75-10.47c9.54-8,20.63-11.95,33.26-9.61,7.23,1.34,12,5.84,15.06,13.17l-6.67-.41c-22.58-1.41-36.21,14.26-31.56,36.27A43.69,43.69,0,0,0,169,439.66c2.26,2.12,4.74,3.61,7.37,1,2.83-2.81.88-5.06-1-7.72-3.59-5.05-7.23-10.25-9.66-15.9-3.29-7.63-2.52-15.38,3.25-21.88,6-6.77,13.91-7.18,22-5.62,3.18.61,6.18,2.18,8.77,3.13-9.26,38.32,2.33,69.33,30.3,95,3.48,3.2,7.91,5.42,12,7.84,2.61,1.53,5.29,1.22,6.83-1.69,1.63-3.09-.29-4.88-2.79-6.41-29.22-17.8-41.47-44.5-40.32-77.92.15-4.44,2-9,3.9-13.17s.77-6.75-2.3-9.56A13.27,13.27,0,0,1,203.7,381c-2.57-9.21-7.32-16.64-16.75-21.41l19.37-21.39c3.25,3.73,6.42,2.91,9.81.85,25.93-15.75,54.7-23.22,84.13-28.73,19.51-3.66,39.18-5.39,59-3.89,10.2.78,20.32,2.58,30.83,4v23.85c-7.44-2.69-14.92-6.28-22.79-8.08-34.58-7.9-67.9-3.83-99.6,12.17a55.23,55.23,0,0,0-21.94,19.08c-3.67,5.61-3.14,8.21,2.29,11.89,20.27,13.73,42.15,22.45,67.12,20.9,27.26-1.69,46.92-14.8,58.43-39.75.75-1.62,1.45-3.26,2.17-4.88,9.33,3.54,15.28,11.83,15.49,21.23q.62,27.67,1.35,55.33c.07,2.69-.4,4.41-2.93,6.12-14,9.45-23.76,21.66-29.27,38.27-2.91,8.75-10.7,16.23-19.41,21.33-4,2.34-8.14,4.46-12.16,6.77-13.67,7.86-23.57,19.17-30.66,33.16a23.33,23.33,0,0,1-5.73,7.3c-9.41,7.7-19.3,14.69-31.59,17.13-8.77,1.73-14.38-2.08-14.31-11,.05-6.84,1.84-13.68,3-20.5a39.37,39.37,0,0,1,1.61-4.69c.85-2.77.88-5.41-2.36-6.65s-5,.76-6.16,3.4c-2.43,5.42-4.27,11.21-7.37,16.21a53.83,53.83,0,0,1-11.38,13.54c-7.42,6-14.94,3.83-17.25-5.4-1.79-7.18-1.7-15-1.21-22.51.34-5.15,2.58-10.23,4.38-15.19,1.11-3.09,1.34-5.75-1.92-7.15s-5.32.53-6.41,3.61c-1.28,3.58-2.12,7.42-4,10.69-2.88,5.12-6,10.31-9.86,14.65s-7.66,3.51-10-2a71.23,71.23,0,0,1-4.1-14.72c-3.23-16.86,2.5-31.71,10.93-45.82.95-1.59,3.12-2.42,4.18-4,1.24-1.82,3.7-4,2.79-6.08-1-2.2-5.32-2.8-6.68-2a24.86,24.86,0,0,0-8.46,8C172.69,460.6,170,467.07,166.72,473.79Z"/>
    <path class="cls-1" d="M362.46,481.88a105.73,105.73,0,0,0,9.4,6.11c3.89,2,7.53,1.9,11.33-1.37,4.53-3.88,9.18-2.62,11.73,2.63a15.44,15.44,0,0,0,10.88,8.64,65.37,65.37,0,0,0,30.09.16c5.36-1.2,9.28-4,11.71-9.07,2.23-4.68,6-5.54,10.68-3.14,2.63,1.35,5.56,3.31,8.24,3.14a15.34,15.34,0,0,0,12.75-7.59c.15-.26.5-.4,1.14-.89a37.76,37.76,0,0,0,3.49,3.79c5.42,4.53,10.34,10.17,16.52,13.21,19.35,9.55,32.85,24,39.83,44.3a228.52,228.52,0,0,0,25.42,51.45l-11.49,17.83a35.49,35.49,0,0,1-2.47-3.49c-6.16-10.8-10.88-22-9.79-34.87.24-2.87-.71-5-3.9-5.24-3.41-.27-5,1.95-5.06,4.86,0,5.93.44,11.86.68,17.24-7-5.53-9.79-21.52-4.69-29.8,2.47-4,.72-8.33-3.46-7.62-3.24.55-3.54-1.28-4.64-3-8-12.42-17.52-22.9-32.6-26.83-8.7-2.27-17-.7-25.51,1.2-28.27,6.31-56.62,6.64-84.8-.56-21.21-5.41-37.79,1.49-50.88,18.26-2.75,3.51-5.1,7.34-6.9,9.95-3.09,1.15-6.29,1.39-7.07,2.89s.66,4.39,1,6.68c.68,4.15,2.35,8.5,1.66,12.43-1,5.81-3.71,11.32-5.69,17l-1.34-.51c.24-5.37.59-10.75.68-16.13.05-3.26-.94-6.2-5-6-4.2.22-4.23,3.36-4.06,6.56.78,14.12-5,26-12.18,37.31-3.78-6-7.41-11.82-11.11-17.74,4.68-8.68,9.95-17.87,14.62-27.35a189.78,189.78,0,0,0,9.45-22.36c7.2-21,20.45-36.25,40.42-46.33C349.35,493.7,355.72,487.07,362.46,481.88Z"/>
    <path class="cls-1" d="M421.17,588.65c12.45,0,24.9.07,37.35-.06,2.76,0,3.7,1,5,3.44,5.42,10,3.19,19.14-1.73,28.31-3.22,6-8.34,8.27-14.91,6.59C435.81,624.1,426,611.26,426,599.51c0-3.66-.2-7-4.89-6.91s-4.84,3.33-4.81,7c.09,11.74-9.86,24.58-21,27.36-6.52,1.63-11.68-.77-15-6.61-5.43-9.57-6.72-19.28-1-29.13a6.11,6.11,0,0,1,4.48-2.46C396.26,588.56,408.72,588.65,421.17,588.65Z"/>
    <path class="cls-1" d="M524.88,377.09c-8.26.09-15.38-2.63-20.38-9.41-9.07-12.3-.64-28.83,15.68-30.27a34.48,34.48,0,0,1,14.09,1.88c10,3.53,15.05,12.33,13.45,21.75-1.38,8.1-10,15.28-19.35,16C527.22,377.17,526.05,377.09,524.88,377.09Z"/>
    <path class="cls-1" d="M317.34,377c-8.27.09-15.38-2.63-20.38-9.41-9.07-12.3-.64-28.83,15.68-30.27a34.48,34.48,0,0,1,14.09,1.88c10,3.53,15,12.33,13.45,21.75-1.38,8.1-10,15.28-19.35,16C319.67,377.09,318.51,377,317.34,377Z"/>
    <path class="cls-1" d="M369.65,588.15c-4.71,17.29-14,29.83-27.93,39a16.18,16.18,0,0,1-4.53,2c-3.85,1.09-6.92.06-7-4.34-.1-4.22-.17-8.79,1.29-12.62,2.79-7.35,6.55-14.35,10.21-21.34a5.8,5.8,0,0,1,4.22-2.55C353.48,588,361.09,588.15,369.65,588.15Z"/>
    <path class="cls-1" d="M472.79,588.16c8.47,0,16.41-.09,24.34.11a5.28,5.28,0,0,1,3.41,2.28c5.91,8.51,10.32,17.69,12,28a18.48,18.48,0,0,1,.23,3c0,7.43-3.56,10-10.08,6.56-13.33-7-21.73-18.55-27.59-32.1C474.11,593.8,473.7,591.35,472.79,588.16Z"/>
  </g>
</svg>
