<svg id="Livello_1" data-name="Livello 1" xmlns="http://www.w3.org/2000/svg" viewBox="0 0 841.89 841.89">
  <defs>
    <style>
      .cls-1 {
        fill: #231f20;
      }
    </style>
  </defs>
  <title>Glos</title>
  <g>
    <path class="cls-1" d="M563.08,584.29c-5.83-.94-10.37-1.52-14.84-2.41-27.11-5.45-50.34-19.09-72.92-34.3a271,271,0,0,1-66.43-63c-1.63-2.18-3.08-5.18-6.5-2.5-3,2.3-2,4.68.14,7,12.58,13.75,25,27.62,37.72,41.27,16.8,18.07,37,31.6,60.57,43-10.13,4.82-18.94,9.36-28.08,13.08-2.23.92-6.35.07-8.23-1.56-7.18-6.23-14.72-12.42-20.37-19.94-6-8-10-17.52-15-26.33-1.37-2.43-2.82-6.71-5.88-5.46-5.34,1.93-2.38,5.67-1.11,8.68,8,19,18.78,35.93,35.56,50.32-30,8.51-60.18-2-64.46-4-1.8-.83-4.62-2.74-6.44-.46-2.18,2.7-.23,4.59,1.08,5.74,8.18,7.18,37.51,10.88,46.15,11.29-10.17,16-61.44,47.82-97.16,59-5.88,2-12.78-.2-12.05,5.7.22,1.82,3.08,3,4.49,3a58.07,58.07,0,0,0,14.11-2.34A239.9,239.9,0,0,0,437.09,613c6.72-6.58,12.58-11.85,22.5-14,11.85-2.54,22.91-8.78,34.3-13.45,1.52-.62,2.93-1.45,5.69-2.83-10,36-22,70.07-34.77,104.48-9.49-5.2-17.75-1.83-25.93,1.62-32.84,13.87-67,21.93-102.72,20.74-15.52-.52-30.93-4.24-46.39-6.53a14.84,14.84,0,0,1-2.07-.7c-3.34-1-8.85-1.25-9.57-3.23-1.65-4.52-2.27-10.28-.93-14.84,3-10.2,8-19.8,11.14-30,7.94-26,9.78-52.83,9.21-79.91-.28-13-.05-26.05-.05-38.9,12.88,3.23,24.09-1.2,34.9-6.87,1.58-.83,3.2-4.61,2.57-6-1.41-3.15-4.11-2-7-.64-6.25,2.86-12.82,5-19.26,7.41-.5-.79,43.52-50.35,56.24-65.24,3.81-4.48,7.41-5.84,13.72-3.9C405,468.28,433,455.25,447,428.28c4.74,3.1,10.14,5.4,13.91,9.29,10.78,11.09,22.41,21.81,31,34.5,22.93,33.92,44.46,68.79,66.49,103.31,1.55,2.42,2.68,5.11,4.64,8.91"/>
    <path class="cls-1" d="M548.25,327.56c.71-22.93,2.06-68.45,2-69.61,0-1.93-.46-5-3.83-4.84-3.19.14-3.47,3.37-3.58,4.52-.18,1.88-1.36,38.17-1.87,54.24-.11,3.85-.47,7.69-.71,11.54l-1.6.23c-1.08-5.28-2.28-10.54-3.2-15.85-.52-3-.4-6.46-4.69-6-4,.42-3.65,4-3.06,6.5,2.18,9.21,4.74,18.33,7.39,28.33-12.61,5.76-27.93,7.46-43.79,10.19-.73-6.48-1.54-12.79-2.14-19.13-2.37-25.56-7.66-80-7.83-81.54-.25-2.35-1-4.78-4.19-4.62-3.43.18-3.38,3.66-3.25,5.35.94,12.7,2.4,25.36,3.6,38,1.95,20.56,3.81,41.13,5.85,63.2-6.69.06-13.2,0-19.7.22-9.67.37-17-5.61-23.36-10.93-4-3.38-5.3-11.81-5.25-17.95.11-10.95,2.3-21.88,3.28-32.84.19-2.09,1.46-5.9-1.79-6.49-4-.72-4.53,2.35-5.29,4.16-4.83,11.57-7.24,34,.14,55.61C415.9,345.6,400,344.06,385,343.3c-2-9.69-3.93-18.64-6-28.3a50.31,50.31,0,0,1,5.57-1.94c9.66-2.36,15.95-8.19,18.45-17.84,1.61-6.23,3-12.52,4.38-18.8,4.66-21.11,17.18-36.78,34.13-49.41,3.84-2.86,7.53-5.9,11.83-9.27,7.56,5.58,15.61,11.33,23.43,17.37,4.19,3.22,6.91,3.19,10.46-1.36,5.67-7.27,12.18-13.89,18.55-20.58a5.64,5.64,0,0,1,4.67-1.23c15.15,3.87,30.32,7.73,45.34,12.08a43.63,43.63,0,0,1,24.59,18c3.69,5.61,6,12.7,7,19.42,5.91,36.74,11.34,73.54,16.69,110.37.76,5.25.46,10.71.23,16.05-.28,6.4-4.74,10.25-9.55,13.48-8.38,5.61-17.95,7.45-27.83,8-18.33,1.07-35.78-4.52-53.61-7.2-11.48-1.72-22.85-4.71-34.37-5.42-9.41-.58-19,1.42-28.47,2.18a19,19,0,0,1-7.74-.87c6.34-4.28,14.09-5.78,19-11.59-.26-.52-.51-1-.76-1.57l-19.9,8.5L440,391.14c4-7.68,14.43-5.58,19.6-12.35a22.11,22.11,0,0,0-4.41.62c-3.48,1.17-6.84,2.73-10.34,3.82-1,.31-2.86-.12-3.24-.8a3.52,3.52,0,0,1,.68-3.33c6.69-5.51,13.13-11.27,23.13-8.91,23.09,5.48,45.82,1.45,68.44-3.47,12.23-2.66,24.46-5.33,36.58-8.46,2.38-.61,4.22-3.28,6.31-5-1.76-1.84-3.22-4.28-5.37-5.42-6.64-3.52-13.55-6.56-21.1-10.13,6.14-7.3,11.91-14.21,17.74-21.07,1.95-2.3,4.55-4.62,1.2-7.43-3-2.5-5,0-6.91,2.12-4.42,5.09-8.82,10.21-14,16.24"/>
    <path class="cls-1" d="M301.71,415.4c-2.25-5.7-4-10-5.67-14.47a11.79,11.79,0,0,1-.56-4c0-4.89-2.59-7.69-7.41-8.72-2.56-.55-4.92-2.92-7.36-2.9-4.24,0-8.44,1.62-12.7,2s-8.39-.59-12.44.05c-2.24.36-4.16,2.78-5.52,3.76-4.17-.67-7.83-.9-11.23-1.94a9.08,9.08,0,0,1-5.1-3.88c-7.46-14.66-7.12-29.85-2.17-45.13,14.08-43.48,68-68.07,108.45-49.27,21.2,9.85,32.49,26.82,34.51,51.14-5-1-9.4-2.1-13.85-2.63-1.88-.23-4.53.16-5.64,1.37-.84.91-.32,3.88.55,5.39,3.61,6.21,7.38,12.36,11.52,18.24,2.35,3.35,2.27,6.23.57,9.7-10.26,20.88-27.81,32.44-49.48,38.5-5.93,1.65-12.19,2.13-16.47,2.85"/>
    <path class="cls-1" d="M541.66,531.43c-15.22-22.68-29.54-43.71-43.52-64.94C486.45,448.75,473.78,432.14,453,423c4.83-6.12,8.94-11.78,13.59-16.95a8.15,8.15,0,0,1,6.3-2c15.15,2.12,30.24,4.59,45.35,7,14.9,2.34,29.74,5.33,44.73,6.83A51,51,0,0,0,600.24,407c.59,5.72-3,11.77-9.26,15.43-14,8.21-29.29,11.85-45.2,13.58a143.84,143.84,0,0,1-46.8-2.68c-1.28-.29-4-.26-4.66,2.83-.71,3.4,1.85,4.23,3,4.37,13.14,1.6,26.35,4,39.52,3.83A134.7,134.7,0,0,0,596.19,430c-4.11,19.08-7.85,38.26-12.42,57.23-3.46,14.34-12.38,25.57-23.8,34.43-5.37,4.16-12.1,6.55-18.31,9.8"/>
    <path class="cls-1" d="M584.14,633.07c2,15.43,4.08,30.91,5.83,46.42a10.15,10.15,0,0,1-1.89,6.8c-6,7.53-12.32,14.74-18.53,22.07-4.39,5.18-3.57,7.94,3.17,9.45,17.36,2,35.07,9.94,41.21,12.7.06.68-26.48,19-49,19.53-19.54.47-38.69.07-58.61,0-7.32.33-13.11-2.5-17.15-8.24-6.87-9.76-13.28-19.86-20.39-30.59,15-.82,28.95-.58,42.51,4.51,1.52.57,4.89,1.46,5.6-1.08,1-3.77-.81-5-2-5.45a167.57,167.57,0,0,0-19.47-5.67c-3.92-.91-8.06-.89-13.16-1.39,3-2.78,38.14-41.85,50.13-43,4.57-.43,5.35,6.24,4.38,7.72-3.38,5.13-8.22,7.81-14.6,6.83-2.77-.42-6-1.29-6.42,2.84s3.14,5.13,6,4.56c5.66-1.13,11.52-2.36,16.63-4.88,18.36-9.07,31.9-23.6,43.52-40.09.84-1.19,1.73-2.34,2.24-3"/>
    <path class="cls-1" d="M578.38,228.1c-12.37-10.95-27.87-14.46-43.16-18.29-4.53-1.12-6.75-3.11-7.8-7.83-5.91-26.61-18.64-81.24-18.84-81.79-.51-1.51-1.62-4.42-4.7-3.67s-2.86,3.64-2.6,5.17c1.31,7.61,3.15,15.14,4.89,22.68q6.78,29.28,13.6,58.56a16.51,16.51,0,0,1,.21,2.67c-7-.29-12.19-2.72-15.13-9.26-1.65-3.67-4.13-7-6.28-10.41-4.66-7.48-8.36-15-10.14-24-3.26-16.54-13.15-29.51-27.94-38.16-7.45-4.35-15.15-5.07-23.17-.88-6.19,3.24-12.69,5.91-19.1,8.72-5.55,2.43-10.21-.32-10.13-6.41.16-11.53,7.05-19.43,15.36-26.28,6.92-5.71,15.47-7.64,24-8.75a140.34,140.34,0,0,1,48.94,1.68c10,2.2,17.28,7.61,21.62,16.51,6.26,12.88,13,25.71,17.53,39.22,7.32,21.65,18.7,40.76,31.94,59.09,4.65,6.42,8.14,13.66,12.16,20.53l-1.23.94"/>
    <path class="cls-1" d="M435.46,724.49c-4-.26-11.67-.88-11.71-1,1.88-2.33,10.86-9,8.3-12.08-1.93-2.35-4.82-1.41-6.24-.52a20.82,20.82,0,0,0-6.86,6.92c-3.19,5.48-.68,11.27,5.35,13.29,1.89.64,12.95-1.3,15.51,4.88,1.73,4.5-1.86,7.2-4.78,9.69-5.64,4.81-12.42,7.74-19.7,7.41a245.35,245.35,0,0,1-33.47-3.62c-4.42-.82-22.82-14.76-28.4-17.8-4-2.11-10.55,3.07-4.26,6.29,4.53,2.32,16.19,3.08,15.28,8.11-.63,3.48-6.89,3.44-10.4,3.58-10.85.41-21.73.58-32.58.19-3.47-.13-7.14-1.77-10.23-3.57-15.36-8.94-41.94-21.4-51.71-21.68-3.41-.1-3.75-.15-5,3.38a2.56,2.56,0,0,0,1.54,3.23c10.74,3.91,40.21,15.84,42.33,17.15-11.59,0-34.55-.26-35.84-.36-16.13-1.26-26-15.2-22-31.06,1.65-6.5,6-10.86,12.6-10.18,14.8,1.53,29.55,3.82,44.25,6.16,19.3,3.08,38.54,7.54,58.23,4.84,28.66-3.92,57.13-8.88,83.87-20.78a58.4,58.4,0,0,1,15.25-4.51c5.42-.78,6.77,1.68,5.46,6.86-1.19,4.77-3.19,7.93-8.44,9.54a24.05,24.05,0,0,0-16.4,15.61"/>
    <path class="cls-1" d="M373.64,399.06l3.19,3.44c7.68-7.64,5.23-17.12,5.8-25.5L421,380.11c.38,3.42.73,8.11,1.51,12.73a17.48,17.48,0,0,0,2.45,6.07c.5.83,2.05,1.27,3.17,1.34.35,0,.83-1.67,1.25-2.58,9.24,4.69,13.13,15.56,9.26,27.46-8.62,26.5-47.74,40.54-72.1,17.31-9-8.61-10.18-21.51-3.12-31.86,2.85-4.17,6.74-7.64,10.23-11.52"/>
    <path class="cls-1" d="M491.63,640.81c6.91-20.52,11.67-41.75,17.48-63,8.36,2.71,17.2,5.46,25.93,8.55.91.33,1.7,2.76,1.53,4.08-2.42,19.39-5,38.75-7.62,58.11a4.74,4.74,0,0,1-1.37,2.71C513.14,664.1,474,698.17,469,702.4c-.47-.41,15.77-41.1,22.68-61.59"/>
    <path class="cls-1" d="M364.25,453.51c-22.82,23-40.87,51.63-66.24,71.53-.45-.61,10-70.84,15-85.41,2.56-7.77,9-10.89,16.34-12.38,6.31-1.29,12.69-2.21,19.73-3.41.62,12,5.13,22.08,15.2,29.67"/>
    <path class="cls-1" d="M487.83,183.48c.77,1.2,1.93,3,3.74,5.88-6.11,2.71-11.67,6.41-17.71,7.58-10.94,2.1-22.17,2.78-33.29,3.84-3.64.35-6.1-1.53-6.29-5.39-.16-3.41.16-6.18,4.68-7.33,3.76-1,10.67-4.76,11-7a4.13,4.13,0,0,0-3.88-4.85,3.67,3.67,0,0,0-1.22.19c-3.18,1.21-6.07,3.17-10.49,5.59.64-3.75,1-6,1.4-8.25-7.35-1.58-7.41-1.59-5.53-9.38.94-3.9,2.53-7.68-1.2-11.23-.58-.54.1-3.64,1.08-4.36a96.08,96.08,0,0,1,9.61-5.73c1.37,2.06,2.27,4.7,3.39,4.79,1.46.12,9.06-6.91,10.59-8.29-2.11-1.75-4-4.57-6.37-5-3.05-.55-6.59.36-9.66,1.43-4.13,1.45-8,3.64-12.26,5.65-2.43-2.17-2.64-4,1.8-5.59a90,90,0,0,0,13.14-6.19c5.38-3.07,10.57-2.59,15.5.28C471,139,479.83,152.2,482,169.6c.84,6.66-1.68,9.6-7.83,12.14a3.27,3.27,0,0,0-1.13.82,3.9,3.9,0,0,0,1.11,6.16,1.91,1.91,0,0,0,1.55.16,121.1,121.1,0,0,0,12.11-5.4"/>
    <path class="cls-1" d="M594.48,566.87c3.21,9.22,2.46,17.8-.34,26-8.89,26.15-22.77,49.12-44.34,66.93a19.17,19.17,0,0,1-2.28,1.54c-3.12-3.17-6-5.92-8.67-8.92-1-1.16-2.05-3-1.88-4.36,2.48-19.53,5.17-39,7.83-58.7,5.77,1,11.32,2,16.88,2.83,5.1.8,10.14.61,13.94-3.36,5.34-5.57,10.4-11.42,15.51-17.21a56.73,56.73,0,0,0,3.35-4.79"/>
    <path class="cls-1" d="M458.28,361.12c-.48-1.74-1-3.63-1.74-6.22,28.46,1.18,55.94-1.68,83.26-11.32a110.45,110.45,0,0,1-.68,11.32,4.71,4.71,0,0,1-3,3.06c-20.38,4.33-40.72,9.34-61.84,5.93-5.07-.82-10.13-1.75-16-2.77"/>
    <path class="cls-1" d="M483.69,748a10.81,10.81,0,0,1-2.16.44c-11.76-.7-23.51-1.44-35.5-2.18,1.37-6.37,2.51-12.5-2.85-17.57-.59-.55-.62-2.1-.36-3,1.4-5.08,10.6-11.7,15.95-11,1.81.22,3.9,1.91,5,3.52,6.66,9.69,13.08,19.55,19.91,29.86"/>
    <path class="cls-1" d="M559.2,560.47l27.36-24.58c8.33,13.6,2.75,31.77-15.49,46.65L559.2,560.47"/>
    <path class="cls-1" d="M496,196.78l5.53,8.9c-6.95,7.74-13.7,15.26-20.63,23l-23-17.79L496,196.78"/>
    <path class="cls-1" d="M554.09,551.51l-8.56-13.9c17.83-5.92,22.25-9.86,42.54-37.72-.56,24.4-7.67,32.86-34,51.62"/>
    <path class="cls-1" d="M374.8,361.62c33.34,4.76,47.73,2,63.65-13.16,6.4,1.74,10.12,6.05,11.54,12.47.87,3.89-1.53,5.32-4.59,4.31-6.55-2.16-12.21-.71-18.65,1.37-15.32,5-31,3.27-46.33-.94-2.09-.57-3.76-2.66-5.62-4.05"/>
    <path class="cls-1" d="M600.2,714.25,578.42,710l14.35-16.92,7.43,21.17"/>
    <path class="cls-1" d="M281.37,391.21c-5.54,7.91-10.42,15.19-15.65,22.2-2.2,2.95-4.31,1.44-5.1-1.42-2.27-8.18,10.87-22.42,20.75-20.78"/>
    <path class="cls-1" d="M261.16,392c.92,6.26-5.18,17.92-10.58,20.22-3.41,1.45-5.61.08-5.44-3.38.29-5.84,10.07-16.11,16-16.84"/>
    <path class="cls-1" d="M273.41,420.32c-.89-2.51-2.43-4.73-1.86-5.6,4.25-6.63,8.9-13,13.62-19.31.07-.11,3.47,1.49,3.44,2.22a12.34,12.34,0,0,1-2,5.62c-2.6,4.24-5.38,8.39-8.28,12.44-1,1.42-2.58,2.45-4.95,4.63"/>
    <path class="cls-1" d="M420.93,350.76c-12.95,7.73-37.14,7.06-46,0Z"/>
    <path class="cls-1" d="M280.9,416.73l10.63-12.79c3.84,4.95,1.38,8.05-.81,10.39s-5.23,3.4-7.92,5c-.63-.87-1.26-1.76-1.9-2.63"/>
    <path class="cls-1" d="M563.09,352.39l-15.91,3.28c.23-3.61.41-6.42.65-10.25l15.26,7"/>
    <path class="cls-1" d="M231.53,398.85c2.95-3.74,8.84-5.41,12.4-3.37.84.47,1.86,1.52,1.87,2.32a3.74,3.74,0,0,1-1.71,2.5c-3.33,2.13-8.84,1.41-12.56-1.45"/>
    <path class="cls-1" d="M446.48,406.33l10.38-1.82-8.61,12.11c-.7-4.07-1.2-7-1.77-10.29"/>
  </g>
</svg>
