<svg id="Livello_1" data-name="Livello 1" xmlns="http://www.w3.org/2000/svg" viewBox="0 0 841.89 841.89">
  <defs>
    <style>
      .cls-1 {
        fill: #231f20;
      }
    </style>
  </defs>
  <title>Glos</title>
  <g>
    <path class="cls-1" d="M237.23,655.24c-3.2-.72-6.14-1.3-9-2.07a32,32,0,0,1-15.89-9.76c-1.73-1.93-1.31-3.38.9-3.89-6.24-7.46-14.11-13.23-22.35-18.51-19.53-12.51-39.56-24.09-61.07-32.92-9.48-3.89-19.09-7.38-29.26-9-2.35-.39-4.76-.47-7.14-.69l-.12.46c.47.28.93.58,1.41.84,32.49,17.66,62.53,38.73,89.51,64.08,6.71,6.31,13.33,12.69,18.25,20.56,1.21,1.93,2.39,3.66,4.62,4.21a15.8,15.8,0,0,1,1.14-3.08c.83-1.34,2-1.17,3.32-.46a63,63,0,0,1,17.21,13.57c.06.08.23.07.62.16a13.57,13.57,0,0,1-.14-2.5c.12-.84.26-2,.83-2.38a2.57,2.57,0,0,1,2.48.07,52,52,0,0,1,7.1,6.72c4.69,5.9,8,12.63,10.71,20.17.94-2.55,1.79-4.71,2.52-6.91s2-2.93,3.77-1.46a75.38,75.38,0,0,1,7.68,7.59c6.64,7.48,9.9,16.58,12.12,26.13.29,1.26.25,2.71-1.4,3-1.48.24-1.87-.88-2.18-2.19a67.26,67.26,0,0,0-14.58-28.45c-.63-.75-2.3-2.17-2.59-2-1,3.08-2.06,6.14-2.86,9.27-.37,1.47-.91,2.48-2.45,2.59s-2-1.08-2.35-2.36c-2.83-9.16-6.72-17.78-12.88-25.23-.46-.56-1-1.06-1.5-1.57a3.16,3.16,0,0,0-.69-.35c-.29,4.41-3.2,7.46-5.35,10.86-2.35,3.72-2,7.74-1.42,11.66,1.44,9.92,6.61,18,13.19,25.3a81.91,81.91,0,0,0,28.43,20.06,21.67,21.67,0,0,0,4.35,1.1c1.31.26,2.61.56,2.34,2.25s-1.65,1.47-2.82,1.34a20.88,20.88,0,0,1-9.62-3.18,4.65,4.65,0,0,0-4.12-.48,17.47,17.47,0,0,0-9.14,5.49c-2.42,2.9-3.65,6.18-1.86,9.82a9.36,9.36,0,0,0,8.78,5.63l142.48,1.44a12.81,12.81,0,0,0,1.34-.12c-3.48-9-12.28-14.73-22.69-11.64a44.66,44.66,0,0,0-8.48,3.63c-4.36,2.35-9,2.4-13.63,1.86a65.42,65.42,0,0,1-21.46-6c-8.74-4.27-17.91-4.62-27.26-2.31-3.05.75-10.85,2.32-12.63,1.74a1.5,1.5,0,0,1-1-1.82,1.61,1.61,0,0,1,1.39-1.32c9.63-.9,18.9-4.93,28.79-3.47,3.37.5,6.71,1.16,10,1.95A4,4,0,0,0,336,752c4.89-3.31,8.53-7.78,11.79-12.59a83.89,83.89,0,0,0,11.84-27.17c-2.72-.64-5.48-1.11-8.13-2a20.24,20.24,0,0,1-10.08-7.25c-.73-1-1-2,.1-2.77s2-.42,2.72.55c6.59,8.32,21.85,11.4,32.19.46,5.73-6,9-13.37,10.84-21.34,4.19-18.47,1.69-36.66-6.26-53.78-.18-.41-4.3,7-7,8.52a1.64,1.64,0,0,1-2.12-.6,1.77,1.77,0,0,1,.28-2.21c3.75-2.69,4.56-6.83,5.29-10.86a70.9,70.9,0,0,0-1.25-29.11,11.81,11.81,0,0,1-2.4,2.28,1.9,1.9,0,0,1-2.41-.12,1.32,1.32,0,0,1-.17-2c2.82-3.14,3.61-7.09,4.52-11,.77-3.24,1.23-6.55,1.87-10.1-6.57,5.47-21.07,9.09-30.64,4.34-1.16-.57-2.28-1.41-1.38-2.89s2-.85,3.09-.24c3.69,2,7.67,2,11.7,1.53a28.7,28.7,0,0,0,14.33-5.52,8.73,8.73,0,0,0,3.64-7.26c0-6.77.36-13.55-1.21-20.22-.23-1-1-4.86.27-5.21,2.73-.76,3.2,3.86,3.41,5.27,2,13.74,2.58,27.46-1,41.07-.33,1.27-.85,2.49-1.25,3.73a3.37,3.37,0,0,0,1.6,3.93c15.48,6.17,59.95,34,68.38,38.69,13.55,7.54,27.77,8.22,42.44,3.43,11.64-3.8,23.27-7.68,35.08-10.92,10.85-3,21.85-5.57,32.93-7.53,6.82-1.21,13.85-.27,20.81.48,7.18.78,13.8-.93,18.92-6.82.64-.75,2.62-2.8,1.16-4.48-.81-.93-2.6-.38-3.68,0-4.54,1.68-13.76,5.3-15,5.64-1.79.51-2.07-.66-2.12-1.5a1.9,1.9,0,0,1,1.7-1.94,41.43,41.43,0,0,0,13.26-5.34c1.08-.65,2.66-2.07,2.33-3.35-.61-2.37-2.5-1.85-3.51-1.26-4.14,2.41-15.34,6.06-16.48,6.18-.81.08-2.09.21-2.46-.78a1.7,1.7,0,0,1,1.06-2.47c1.84-.67,12-4.06,14.35-4.93,0-.31-6.87-1.59-9.54-1.9-9.2-1.08-22.83-.09-28.74,4.42-3.86,3-8.89,3.13-13.52,2.39-16.41-2.63-63.67,7.39-64.49,7.54a65.26,65.26,0,0,1,3.82,5.58c.39.7,1.22,1.92.17,2.79s-2.32.11-3.17-.83c-7.11-7.92-14.07-16-22.77-22.29-4.66-3.39-42.22-21.68-52.44-34.4a4.43,4.43,0,0,1-1.18-2.77c1.21-10-3.09-18.17-8.61-25.89a43.6,43.6,0,0,0-13.73-12.82,2.84,2.84,0,0,0-2.91-.14c-9.17,4.2-17.53,9.71-25.66,15.64-9.45,6.9-19,13.64-27.25,22-2.7,2.76-7.35,9.7-9.56,8.33-2.38-1.47.68-5.16,2.59-7.28,16.8-18.71,37.33-32.39,59.89-43.55,3.69-1.82,7.53-3.36,11.35-4.91,7.72-3.12,12.95-8.72,16.45-16.15,4-8.5,6.27-17.52,7.82-26.72,3.54-21.05,4-42.27,2.65-63.51-.73-11.59-2.3-23.13-3.53-34.69a6,6,0,0,1,1.68-5.36c2.45-2.45,2.83-5.88,3.48-9.06,1.34-6.51.82-13.08-.15-19.6-.09-.59-1-1.58-1.48-1.52-3.4.47-6.77,1.14-10.18,1.76.59,3.13,1.08,5.69,1.54,8.25.19,1.06.39,2.37-1,2.59a3.15,3.15,0,0,1-2.37-1.13c-3.27-3.77-6.36-7.7-9.66-11.43a6.37,6.37,0,0,0-3-1.32c-3.65-1-7.47-1.5-10.95-2.9a56.1,56.1,0,0,1-21-14.63,49.33,49.33,0,0,0-3.55-4,49.61,49.61,0,0,0,.51,5.87c2,9.56,7.29,17.23,14.31,23.74a124.52,124.52,0,0,0,10.39,8.14c8,5.93,13.59,13.44,15.85,23.23,1,4.33.16,8.59-.84,12.84-2.3,9.69-4.44,19.43-6.79,29.11-1.45,6-3.68,11.82-4.64,17.87-1.21,7.7-1.62,15.53-2.14,23.33-.27,3.92,0,7.88-.05,11.82a2.06,2.06,0,0,1-.75,1.41q-17.08,12-34.2,23.95c-.32.23-.66.43-1,.64-1.89-1.81-1.88-3.56.19-5q5.69-4.06,11.51-7.95c.93-.62,1.23-1.1.79-2.21-1.32-3.26-2.06-6.77-4.61-9.46a2.37,2.37,0,0,1-.13-2.12c.17-.38,1.23-.63,1.8-.49,3.16.74,5.62-.64,7.75-2.64a3.37,3.37,0,0,0,.53-2.7c-.86-4,1-7.08,3.24-10.13a18.45,18.45,0,0,0,2.72-5.08c.53-1.6-.33-2.93-2.14-3.35a32.55,32.55,0,0,0-4.58-1.05c-2.85-.24-4.33-1.85-5.19-4.38-.93-2.73-2-3.16-4.24-1.32-3.25,2.69-6.09,5.62-4.8,10.56.45,1.74,1.23,2.63,2.86,2.47,2.72-.28,5.44-.7,8.12-1.25,1.39-.29,2.72-.69,3.29,1s-.66,2.55-2.14,2.85c-3.26.67-6.53,1.24-10,1.89,1.24,4.57.89,8.83-5.12,10.52.11,1.11.27,2.26.33,3.42.41,8.67-2.32,16.6-6.19,24.12-2.18,4.23-5.15,8.05-7.77,12.05a5,5,0,0,1-.65.74c-.92,1-2,1.4-3.11.43s-.77-2.11.14-3.13a56.85,56.85,0,0,0,12.95-26.37,31.08,31.08,0,0,0,.57-7.82c-.07-1.42-1.15-2.78-1.67-4.2-.27-.75-.64-1.73-.35-2.32s1.3-.74,2.05-.94a5,5,0,0,1,1.36.13c3.27.1,4.51-1.09,3.81-4.25-1.14-5.22-2.51-10.4-3.94-15.54-.64-2.28-2-2.6-4.05-1.27-2.72,1.8-3.71,4.49-3.79,7.59-.06,2.56,0,5.13,0,7.7,0,2-.81,2.43-2.79,2-3.17-.75-6.36-1.38-9.53-2.07-1.26,5.38-6.25,7.14-10.69,2.79-2.33,6.13-1.34,12,0,17.71a14.28,14.28,0,0,1,3.32.07,2.35,2.35,0,0,1,1.42,1.51,2.1,2.1,0,0,1-.86,1.73c-2.68,1.62-2.87,2.45-.88,5,.2.25,2.18-.32,3-.31a2.24,2.24,0,0,1,2.06,1.19,1.9,1.9,0,0,1-.14,2.12c-2.19,2.59-5.27,4.62-8.8,4.49-1.34-.06-2.89-.41-3.28-1.21s-.52-2.36.47-2.94a11.21,11.21,0,0,0,2.51-1.7,4.69,4.69,0,0,0-3.88-4.55,7,7,0,0,1-3-1.42,2.42,2.42,0,0,1-.42-2.31c.3-.49,1.52-.62,2.3-.55s1.37.6,2.24.76a45.84,45.84,0,0,0-8.07-15.05c.56,3.13.09,5.74-2.66,7.53-2.08,1.35-3.81,1.16-6.36-.57A8.21,8.21,0,0,0,285,470c3.38,11,10.68,18.71,20.27,24.42,3.07,1.82,6.62,2.8,9.88,4.32.8.38,1.85.79,1.82,2A2.54,2.54,0,0,1,315.2,503c-6.31,2.11-12.12,12.7-12.48,13.46s-1.81,2.6-3.49,1.8c-1.46-.7-1-2.65-.74-3.82,1.11-4.46,9.8-12.36,11.16-13.41a53.34,53.34,0,0,1-22.55-17.83c-2.84,2.65-9.18,8.77-9.63,9.11a1.91,1.91,0,0,1-2.88-2.38c.58-1.13,7.66-7.66,10-9.73-1.39-4.07-2.72-8.08-4.19-12a2.7,2.7,0,0,0-1.69-1.48c-4-.8-7.63.67-11.31,1.81a17.19,17.19,0,0,0-3.56,1.66c-1.23.72-2.33.72-3.05-.53a1.94,1.94,0,0,1,1.07-2.93c3.5-1.4,7.05-2.69,10.63-3.9a21.54,21.54,0,0,1,3.65-.55c-7.26-13.4-4.68-25.56,2.31-36.3a12.29,12.29,0,0,0-8.32-5,6.47,6.47,0,0,0-6.93,3.47,10.17,10.17,0,0,1-1.49,2.53,21.46,21.46,0,0,1-3.88,2.72c-1.35.77-2.93,1.16-4.21,2a10.41,10.41,0,0,0-1.94,2.53c.9.58,1.74,1.49,2.72,1.67a56.14,56.14,0,0,0,6.63.62,10.64,10.64,0,0,0,1.76-.19c1.38-.15,2.44.38,2.57,1.79s-.83,2.15-2.22,2.16c-2.82,0-5.63,0-8.87,0,.76.69,1.26,1.17,1.78,1.61a4.18,4.18,0,0,1,1.48,4.22c-.35,2.12.22,2.7,2.35,3.27a16.17,16.17,0,0,1,4.94,2,3.65,3.65,0,0,1,1.24,3c-.09.67-1.49,1.34-2.42,1.66-1.29.43-2.18,1.13-2.12,2.47.18,4-2,6.1-5.38,7.55-1.22.52-2.8,1.16-2.32,3.12.55,2.22,1.89,3.38,3.94,3.4,1.64,0,3.28-.05,4.92,0s2.14.93,2.41,2.35c.14.75.67,2,1.05,2a5.39,5.39,0,0,0,2.53-1c.42-.25.65-.81,1-1.23,1.37-1.83,2.84-2.06,4.75-.74,1.58,1.09,1.9,2.75.56,4.44a16.15,16.15,0,0,1-3.44,3.16c-1,.72-1.54,1.26-.83,2.5s1.18,2.67-.28,3.46c-.92.5-2.28.21-3.9.29a5.36,5.36,0,0,0,.45,1.78,5.26,5.26,0,0,0,1.66,1.66,6.8,6.8,0,0,1,3,5.68c.31,4.83.49,4.86,4.68,2.37,1.75-1,3.47-2.15,5.28-3.06,5-2.48,9.32.41,9,5.91a48.07,48.07,0,0,1-3.81,17.39c-3.49,7.75-3.31,15.88-2.54,24A75.49,75.49,0,0,0,297,579.58c.84,1.24,1.15,2.49-.38,3.36s-2.37-.12-3-1.28c-2.83-5-5.69-10-8.41-15.12a2.27,2.27,0,0,0-2.95-1.38c-5.4,1.2-9.84-.26-13.09-4.92a2.18,2.18,0,0,0-1.65-.77,13.38,13.38,0,0,1-13.85-10,3,3,0,0,0-2-2.25c-6-2.74-8.89-7.7-9.92-14a2.28,2.28,0,0,0-.86-1.51c-5.82-3.2-8-8.41-8.24-14.7,0-.46,0-.92,0-1.52-8.85-1.38-10.26-15.55-7.94-20.35l-6.48-3.43c-.31,3.07-4.1,58.28,19.54,79.72,25,22.63,50.37,17,59.88,16a10.05,10.05,0,0,1,3.27.28c9.36,2.3,18.48,1.88,27.24-2.4,5.25-2.58,9.21-6.23,10-12.48a1.39,1.39,0,0,1,1.66-1.07,1.55,1.55,0,0,1,1.45,1.65,23.75,23.75,0,0,1-1.51,6.23c-2.09,4.66-6,7.61-10.48,9.7-8.91,4.14-22,4.49-29.92,1.67.67,10.45,11,27,22.49,33.9a44.22,44.22,0,0,0,6.43,2.88c1.13.46,2.18.92,1.85,2.33a1.74,1.74,0,0,1-2.5,1.21c-2.65-.86-5.27-1.82-8.18-2.85-4.93,11.68,6.23,28.55,11.35,31.71a2.26,2.26,0,0,1,1.35,2.34c-.25,1.1-1.75,1.27-2.38,1-6-2.49-10.53-11.44-10.89-12.1-5.67,6.92-7.86,20.39,1.17,27.34,4.59,3.52,9.18,6.76,15.07,7.59,2.69.37,5.84-.08,5.88,1.76a1.69,1.69,0,0,1-1.68,1.93c-11.92,1.47-21.75-9.8-24.45-9.94-3.88-.21-1.95,3-7.18,1.45-27.35-8-51.71-29.78-63.62-47.47-32.33-48.06-81-50-82.86-50,.36.25,41.14,22.63,52.59,36.5.37.44.77,1.4.38,1.94s-1.19.29-1.77.25c-2.4-.19-4.8-.46-7.83-.76a30,30,0,0,0,1.66,3.82c3,4.75,6.47,9.09,11.79,11.53a2.1,2.1,0,0,1,.19,3.81,15.49,15.49,0,0,1-1.87.93c3.16,3.24,7.08,4.58,11.13,5.8,5.32,1.59,10.59,3.34,15.87,5.09a7.26,7.26,0,0,1,2.56,1.4,1.83,1.83,0,0,1,.77,1.84c-.22.76-1,.73-1.46.71-5.27-.3-8.85,3.11-13.2,5.84,1.29.86,2.3,1.59,3.37,2.24,3.58,2.17,7.14,4.36,11.49,4.74.84.08,2.08.65,2.3,1.28s-.47,1.73-.92,2.52a13.94,13.94,0,0,1-1.79,2c2.31.84,4.3,1.92,6.4,2.26,5.31.85,10.7,1.17,16,2.11a66,66,0,0,1,9.72,3c.53.18,1.57.66,1.5,1.74s-1.11,1.48-1.74,1.76a19.35,19.35,0,0,0-8.91,8.36c1.71.43,3.38.82,5,1.27a28,28,0,0,1,11,5.47c1.5,1.27,2.93,2.69,2.47,5.08,5.29.43,17.93,3.26,23.66,10.1.37.53,2,2.4.32,3.65a2,2,0,0,1-2.32-.2c-4.25-5.77-10.45-7.5-17.05-9.11-3.25-.79-9.13.39-10.35-3.24-.32-.94,1.8-1.24,1.56-2.6s-2.15-2.07-3.6-2.72c-3.09-1.4-6.33-2.46-9.51-3.64-1.9-.71-3.87-1.25-5.7-2.1-1.54-.71-1.63-2.16-.44-3.37l8.4-8.57c-3.08-.59-6.14-1.44-9.24-1.72-5.3-.47-10.65-.44-15.6-2.8-1.12-.54-2.28-1-3.34-1.66-2.8-1.67-3.06-2.83-1.3-5.73-2.63-1.23-5.23-2.53-7.89-3.66a15.85,15.85,0,0,1-7.06-5.7,1.71,1.71,0,0,1,.42-2.57c2-1.47,4-3,6-4.38C235.58,656.15,236.33,655.77,237.23,655.24Z"/>
    <path class="cls-1" d="M261.3,477.45l-8.16-1.21c.57,3.08,1.32,6.45,1.81,9.85a50.58,50.58,0,0,1-.57,17.65,1.86,1.86,0,0,1-2.24,1.68,1.76,1.76,0,0,1-1.67-2.22c1.55-11.25-.94-21.89-4.73-32.38A78.42,78.42,0,0,0,218,433.68c-5.05-3.74-10.63-5.23-16.85-5.58-12.1-.69-23.43-4.42-34.17-9.88-29.44-12.91-53.68-54-54.83-55.53-1.81,21.41,28,121.78,101.15,118.93.67-7.44,5.15-12.29,8.1-13.86,1.18-.63,2.54-1.38,3.45.2s-.46,2.23-1.64,2.92c-4.08,2.37-5.35,6.28-5,10.6s2.18,8.12,6.79,9.73a2.44,2.44,0,0,0,2.61-.53,10.72,10.72,0,0,1,4-1.8,1.55,1.55,0,0,1,1.75,1.27,1.64,1.64,0,0,1-1,1.93c-9.67,4-3.27,19.37,1,19.21a30,30,0,0,1,4.93-7.28c.9-.86,2-1.14,2.93,0s.29,1.89-.53,2.72a14.35,14.35,0,0,0-3.29,16.11,8.15,8.15,0,0,0,4.66,4.77c.82-2.47,3.32-6,5.71-7.09a1.7,1.7,0,0,1,1.89,2.83,12.43,12.43,0,0,0,.89,19.09,17.27,17.27,0,0,0,2.19,1.23c1-1.66,1.8-3.2,2.72-4.7.68-1.1,1.64-1.89,2.92-1s.75,1.87.11,2.94c-3.51,5.93-1.15,12.33,5.3,14.36a19.81,19.81,0,0,0,2.84.46c.39-3.41.76-6.62,1.14-9.84,0-.32-.08-2.44,2.09-2.28a1.81,1.81,0,0,1,1.55,2.46,16.32,16.32,0,0,0-.43,9.31,8.75,8.75,0,0,0,10.5,6.61c1.42-.31,1.83-.81,1.33-2.28-2.5-7.47-3.36-15.2-3.61-23-.23-7.26,1.83-13.94,4.6-20.51a33.86,33.86,0,0,0,2.52-13.61c0-3.2-1-3.78-3.86-2.23-2.25,1.22-4.36,2.68-6.61,3.89-3.92,2.12-7.83-.09-8.06-4.58-.12-2.33-.62-4.21-2.69-5.75-2.38-1.77-3.08-4.59-2.73-7.44.13-1,1.24-2,2-2.93.46-.6,1-1.13,1.81-2C263.5,480.78,261.7,479.68,261.3,477.45Z"/>
    <path class="cls-1" d="M228.07,298C182.69,328.67,203.73,402.3,224,429.63c2.14,4,22.81,29.57,25.41,36.6,2.2-1.45,4.31-3,6.57-4.28,1.3-.73,1.21-1.7,1.08-2.82-.23-2.1-.2-4.11,1.8-5.45a25.61,25.61,0,0,1-3.67-2,4.86,4.86,0,0,1-2.09-5.32,2.92,2.92,0,0,0-.74-2.28c-1.57-1.6-2.83-3.27-3-5.6a2.85,2.85,0,0,0-.54-1.21c-1.71-2.63-1.72-5,.53-7.11,1.68-1.6,3.83-2.69,5.72-4.08a23.05,23.05,0,0,0,3-2.59c1.08-1.14,1.9-2.55,3.06-3.58a3,3,0,0,0,.9-3.47c-1-3.86-3.3-6.94-5.56-10.09-6.2-8.64-12.27-17.36-18.48-26-8.44-11.72-12.64-25.05-14.13-39.17a100.47,100.47,0,0,1,.41-20.65C225.05,313,226.76,305.47,228.07,298Z"/>
    <path class="cls-1" d="M302.42,457.53c.3-2.08.54-4,.85-5.83.56-3.39,2.76-5.4,5.8-6.61,4.59-1.83,9.25-1.39,13.91-.29l4.37,1.06a68.88,68.88,0,0,1,0-7.48c.38-3.37,1.48-6.48,4.34-8.73.38-.29.43-1.41.22-2-2.53-7-7.67-11.41-14.7-13.33-11.11-3-20.91.17-29.46,7.4-7.11,6-11.33,13.73-11.91,23.15-.41,6.6,1.68,12.46,5.83,17.88.56-1.42.94-2.58,1.47-3.68a15.42,15.42,0,0,1,10.5-8.45c2.16-.57,3.82.54,5.13,2.15S301.11,455.79,302.42,457.53Z"/>
    <path class="cls-1" d="M294,412.23l12.32-2.79c.38-.08,1-.14,1.08-.32a17.14,17.14,0,0,0,.79-4.7,3.76,3.76,0,0,0-3-3.54c-1.68-.39-2.83.49-3.78,1.85-1.48,2.11-3.05,2-4.09-.27s-1.91-4.86-2.76-7.33a4.2,4.2,0,0,0-3.85-3.08,18.63,18.63,0,0,1-5-1.51c-1.58-.7-3-.84-4.06.59a41,41,0,0,0-4.21,6.52c-.47,1,0,2.53.36,3.75s1.06,2.11,1.42,3.22c.88,2.74-.12,5.07-2.84,6-2.08.7-2.17,2-1.75,3.68a13.37,13.37,0,0,0,6.24,8.14l9.64-8.05c-1.34-3.37-2.75-6.95-4.2-10.51-.54-1.35-.79-2.7.83-3.32s2.36.46,2.89,1.85C291.37,405.8,292.77,409.18,294,412.23Z"/>
    <path class="cls-1" d="M212.13,669.29c0,1.27,0,2.05,0,2.83-.07,1.94-1.35,2.71-3.06,1.75-1.43-.8-2.78-1.74-4.14-2.65-2.87-1.92-6.07-2.4-9.72-2.41l28.38,20.51,4-6.29A56.63,56.63,0,0,0,212.13,669.29Z"/>
    <path class="cls-1" d="M316.54,409.87c-1.05-2-2-4.05-4.32-3.95-.74,0-1.42,1.77-2.42,3.12Z"/>
  </g>
</svg>
