<svg id="Livello_1" data-name="Livello 1" xmlns="http://www.w3.org/2000/svg" viewBox="0 0 841.89 841.89">
  <defs>
    <style>
      .cls-1 {
        fill: #231f20;
      }
    </style>
  </defs>
  <title>Glos</title>
  <g>
    <path class="cls-1" d="M274.7,422c-.79,1.5-1.71,2.95-2.37,4.51-5.57,13.12-13.64,24.46-22.45,35.27a227.59,227.59,0,0,1-47.36,44.07,34.38,34.38,0,0,1-8.05,3.89c-3.3,1.16-5.85.42-6.91-1.59-1.43-2.69-.11-5,1.37-7a33.24,33.24,0,0,1,6.13-6.79c17.75-13.38,30.2-31.85,43.11-49.84,6.66-9.3,13-18.9,19.05-28.65,4.43-7.1,8.41-14.53,12.22-22a73.31,73.31,0,0,1,19.24-24.24c14.13-11.41,29.89-18.48,47.8-20.16a86.59,86.59,0,0,1,56.42,13.81,11.16,11.16,0,0,1,3.68,3.55c7.72,13.6,17.62,25.3,28.21,36.39,12,12.54,23.87,25.15,37.39,35.91a280,280,0,0,0,80.23,45.06,26.27,26.27,0,0,0,3.66,1.14c2.24.45,3.81-.34,4.09-2.07.36-2.1-1-2.84-2.59-3.42-3.74-1.37-7.51-2.66-11.19-4.2-25.17-10.57-48.09-25.33-69.87-42.16-17.88-13.82-35-28.68-49.31-46.62-13.93-17.45-22.48-37.73-23.38-60.83-.8-20.71,7.37-36.85,24.32-47.59,4.22-2.67,8.87-4.6,13.34-6.82a11,11,0,0,1,2.84-.91c3.25-.63,4.86.75,5,4.22a14.26,14.26,0,0,1-3.14,9.57c-7.26,8.81-8,19.28-6.79,30a74.13,74.13,0,0,0,3.8,15.56,38.1,38.1,0,0,0,21.18,23.23c16.48,7.52,33,14.9,49.51,22.4,4.67,2.13,9.23,4.53,13.87,6.73,6.19,2.94,12.5,5.61,18.6,8.73,8.14,4.16,16.27,8.37,24.15,13s14,11.78,18.84,19.76a50.24,50.24,0,0,1,7.1,33,33.74,33.74,0,0,1-9,19.41c-1.29,1.37-2.67,2.66-4.46,4.43,1.26,1.25,2.37,2.51,3.62,3.58a126.4,126.4,0,0,1,26.14,30.5,77,77,0,0,1,6.5,13c3.64,10,9.82,17.44,18.62,22.43,3.19,1.81,6.8,2.82,10.24,4.11,3.86,1.45,7.9,2.44,11.57,4.27,6,3,6.88,8.67,2.62,14.28-4.36-9.27-4.42-9.34-7.72-8.13,1.12,2.38,2.42,4.68,3.3,7.15,1.55,4.39.66,5.91-4.19,7.47-.35-5.58-1.53-10.79-6-14.33-1.93.56-1.92,1.62-1.17,3.07A22.3,22.3,0,0,1,638.9,580c-6.17,2.1-12.09.48-18-.87-2.62-.6-5.15-1.64-7.77-2.27-7.25-1.72-12.82-6-17.22-12.2a93.66,93.66,0,0,1-11.49-20.9c-4.52-12-12.44-21.3-20.82-30.25-3.88-4.12-8.1-7.89-12.42-12.06-1.11,2.42-2,4.68-3.15,6.81-5.24,9.83-12.68,17.55-21.11,24.29-1.24,1-2.56,1.87-3.84,2.82-3,2.27-4.18,5.39-4.13,9.3a6.74,6.74,0,0,0,4.6,6.79c2.78,1,5.72,1.65,8.76.7a50.23,50.23,0,0,1,6.21-1.39,11.92,11.92,0,0,1,10.66,3.19,25.26,25.26,0,0,1,8.34,19.35c0,1.48,0,3.12-2.34,3.08-2-4.29-2.07-9.83-6.3-13.34-2.41,2.53.15,4.23.47,6.1s1,4,1.65,6.3l-2.78.28c-1.64-3.61-3.07-7-4.7-10.16-.2-.4-1.46-.19-2.36-.28,1,3.27,2,6.19,2.8,9.14a5.42,5.42,0,0,1-.18,1.84,8.35,8.35,0,0,1-2.14.35c-7.73-.83-15.5-1.41-23.17-2.66a32.87,32.87,0,0,1-14.29-6.56c-6.15-4.63-9-10.74-8.39-18.89a67.93,67.93,0,0,1,9.06-29.11c3.85-6.63,4.07-7.2,4.31-14.95,4.59.32,9.19.94,13.77.89A121.27,121.27,0,0,0,537.27,504,10,10,0,0,0,541.9,502a4.07,4.07,0,0,0,1.26-3.31c-.33-1.52-1.79-1.52-3.17-1.07a65.65,65.65,0,0,1-6.93,2c-7.22,1.48-14.39.58-21.5-.87-14-2.86-28.09-5.46-41.75-9.91a447.29,447.29,0,0,1-70.29-30.09c-1.64-.87-3.2-1.92-4.78-2.92-2.67-1.69-5.27-3.52-8-5.07-6.69-3.79-13.26-8-21.28-7.9,3.16-10.2,13.26-18.49,22.85-18.94a20.13,20.13,0,0,1,9.8,2.48,23.53,23.53,0,0,1,2.21,1.33c1.45.91,2.79.76,3.69-.74s.14-2.85-1.1-3.82a19.6,19.6,0,0,0-10.1-4.36c-11.37-1.15-20.6,3.37-27.44,12.79A43.42,43.42,0,0,0,357,457.42c0,5.52-1.78,10.57-3.9,15.48-2.7,6.25-5.67,12.38-8.2,18.7a17.27,17.27,0,0,0-1.42,7.78c.67,6.67,1.84,13.3,3,19.91a19.32,19.32,0,0,0,5,9.7c3.43,3.79,6.82,7.61,10,11.6,4.72,5.88,10.49,7.92,17.75,7.18,6.43-.64,12.89-2,19.44-.59,7.13,1.57,11.87,6,14.48,13,.72,1.93,1.15,3.91-.91,6-2.93-6.89-6.78-12.33-13.54-14.51-1.33,1.66-.22,2.42.55,3.24,2,2.12,4.18,4.06,6,6.35a27,27,0,0,1,3.12,5.81c.72,1.64.17,2.91-2,3.43-1.57-5.1-4.54-9.11-9.36-11.19-1.58-.68-3.2-2.08-5.11-.89-.45,2,1.17,2.22,2.13,2.92a61.29,61.29,0,0,1,6.2,4.63c1.29,1.23,2,3.1,3.39,5.27-1.82.46-3,1.05-4.15,1-4.79-.23-9.68-.13-14.34-1.15a173.82,173.82,0,0,1-17.89-5.49,55.55,55.55,0,0,1-18.46-10.83,249.61,249.61,0,0,0-26.53-19.38,56.94,56.94,0,0,1-8.47-7.42c-4.24-4.17-5.23-9.32-2.5-14.68a152.87,152.87,0,0,1,8.93-15.21c3.1-4.66,4-9.43,2.3-14.82a8,8,0,0,0-4.25-5.29c-7.34-3.28-12.54-9.17-16.89-15.92-9.14-14.17-14.65-29.65-14.29-47a66.16,66.16,0,0,1,.82-7.11c.23-1.8.7-3.72-1.56-4.45-1.66-.54-2.86.69-3.44,3.59a52.89,52.89,0,0,0-.62,17c2.5,19.55,9.73,36.74,22.81,51a9.26,9.26,0,0,1,.7,1.11c-1.86,1.27-3.69,2.62-5.6,3.81a264.44,264.44,0,0,0-23.15,15.83c-6.26,4.89-10.22,10.9-11,18.83-.85,8.46-1.09,17-1.26,25.51-.09,4.4,2.68,7.27,7,7.2s8.41-.92,12.62-1.42c1.69-.2,3.37-.49,5.06-.56,6.62-.25,11.41,3.53,12.82,10.4a34.53,34.53,0,0,1,.43,7.55c0,1.65-1.09,2.3-2.9,1.58-.12-4.61-.25-9.4-3.72-13.18-1.92,1-1.46,2.22-1,3.78a37.72,37.72,0,0,1,1.21,7c.14,1.57-.6,2.85-2.63,3.32-.94-4.4-1.83-8.8-5.36-11.72-.46-.38-1.22-.35-2.84-.77a57.74,57.74,0,0,1,3,6.48,54,54,0,0,1,1.25,6.59,13,13,0,0,1-2.61.37c-8-.82-16.07-1.48-24.05-2.66a22.65,22.65,0,0,1-8.24-3.36A15.79,15.79,0,0,1,247.19,548a155.93,155.93,0,0,0-6.49-36.05c-.09-.28-.17-.57-.24-.86-2.55-11.6.3-18.68,10.8-23,8.9-3.63,15.35-10.16,21.15-17.45a29.53,29.53,0,0,0,6.3-24.23c-1.19-6.91-1.81-13.92-2.71-20.88-.14-1.12-.38-2.23-.57-3.35l-.73-.19"/>
    <path class="cls-1" d="M560,374.75c-5.25-2.42-8.34-6.47-10.82-11.08a61,61,0,0,1-7.07-31.47A94.17,94.17,0,0,1,543.92,318c1.23-6.6,2.84-13.11,4.15-19.69.41-2,1-3.48,3.25-3.08,9.33,1.67,18.18,4.61,25.31,11.59a72,72,0,0,1,5.26,6.55l-8.41,3.92A45.59,45.59,0,0,0,569.2,314c-5.6-3.38-12-1-14.4,5.27a15.12,15.12,0,0,0,.35,11.77c1.08,2.47,2.68,2.84,4.8,1.32.94-.67,1.75-1.51,2.65-2.25,12-9.9,25.48-15.24,40.74-15.58a12.28,12.28,0,0,1,9.8,4.43c7.22,7.88,9,21.15-.26,32.1-1.61,1.92-3.53,1.59-4.12-.86a18.21,18.21,0,0,1,0-5.71c.09-1,.8-1.93,1-2.94.45-2.39-.35-3.79-2.61-4.22a14.17,14.17,0,0,0-4.64-.11c-9.82,1.41-18.29,6-25.93,12.49-3.27,2.78-3.44,4.94-.69,8.38A41.46,41.46,0,0,0,589,368.51c3.39,1.82,7,3.27,10.47,4.85,1.46.65,3.08,1.16,2.81,3.32s-1.68,2.45-3.39,2.62a35,35,0,0,1-15.1-1.54,114.11,114.11,0,0,1-10.72-4.23c-4.59-2.07-9-2.7-13.16,1.22"/>
    <path class="cls-1" d="M524.64,314.22a14.45,14.45,0,0,1,2.59,9.79,84,84,0,0,0,11.68,51.72c2.24,3.73,5.51,6.77,8.33,10.11.8,1,1.7,1.81,2.49,2.64-1.32,2.52-2.67,1-3.81.54-8.18-3.67-16.34-7.41-24.5-11.14q-9.33-4.26-18.65-8.55c-1.28-.59-2.53-1.23-4.28-2.09l26.15-53"/>
    <path class="cls-1" d="M561.28,388.36c-3.36-.39-6-2.48-8.49-4.6-8-6.74-12.92-15.76-16.43-25.71a76.1,76.1,0,0,1-4.44-29c.2-4.26.17-8.34-2.28-12a12.28,12.28,0,0,1-1-3.29,15.49,15.49,0,0,1,12.38.47c-.62,2.58-1.39,5.15-1.85,7.78-3.38,19.09.54,36.25,12.55,51.06a51.38,51.38,0,0,0,8.36,7.56c3.2,2.52,3.53,3.73,1.23,7.79"/>
    <path class="cls-1" d="M541.87,309.91l-3.22-1.07a9.62,9.62,0,0,1,.16-1.82c2.38-7.81,2.81-15.85,2.43-23.94-.13-2.88,0-6.08-3-8-2.77,1-3.13,3.74-3.71,6.1a81,81,0,0,0-2,22.24c.06,1.62,0,3.24,0,5.23l-4.76.55a17.15,17.15,0,0,1-.82-3.06c-.77-9.94-.09-19.71,3.25-29.14a31.17,31.17,0,0,1,6.5-11.44c2.56-2.7,4.31-2.46,5.86,1a24.33,24.33,0,0,1,1.9,6.38,96,96,0,0,1-1.82,35.58,6.05,6.05,0,0,1-.81,1.37"/>
    <path class="cls-1" d="M575.94,299.79c-1.73-1-3.08-1.79-4.55-2.66a89.82,89.82,0,0,0,5.21-7.75c2.1-3.88,3.93-7.93,5.68-12A10.33,10.33,0,0,0,583,273c-.08-2.17-1.43-2.95-3.18-1.81a17.09,17.09,0,0,0-3.81,3.5,61.2,61.2,0,0,0-9.16,16.09c-.38.94-.74,1.9-1.22,3.14l-8-3.19c6.23-10.63,12.64-20.59,22.45-27.5,2.08-1.46,4.43-3.28,7-1.79,2.77,1.59,1.87,4.71,1.8,7.32a20.64,20.64,0,0,1-.68,4c-2.29,9.71-6.79,18.29-12.25,27.05"/>
    <path class="cls-1" d="M579.4,353.2a12,12,0,0,1,3,.34c9.42,4.2,19.5,4.73,29.44,6a28.5,28.5,0,0,1,5.83,1.13c2.24.77,2.57,2.73.85,4.49a12.52,12.52,0,0,1-10.14,3.75A43.75,43.75,0,0,1,583.3,359c-1.61-1.32-3.42-2.63-3.9-5.8"/>
    <path class="cls-1" d="M568.64,319.79,559,327c-1.17-4.37-.35-7.37,2.33-9,2.27-1.4,4.34-.93,7.31,1.84"/>
  </g>
</svg>
