<svg id="Livello_1" data-name="Livello 1" xmlns="http://www.w3.org/2000/svg" viewBox="0 0 841.89 841.89">
  <defs>
    <style>
      .cls-1 {
        fill: #231f20;
      }
    </style>
  </defs>
  <title>Glos</title>
  <g>
    <path class="cls-1" d="M432.34,638.42c-1.42-5.4-3.13-10.8-4.26-16.49a119.19,119.19,0,0,1-2.28-31.84,28.52,28.52,0,0,1,.57-4.84c.57-2.84,1.71-4.55,5.12-5.12a47.44,47.44,0,0,0,18.76-8.81c4.55-3.7,8.53-7.68,10.24-14.22-8.81,2.56-17.06,5.69-25.59,6-1.71-7.67,0-10,7.11-10.8,8.24-.85,16.21-2.27,24.17-3.7a5.71,5.71,0,0,0,3.69-2.84c-4.83-.85-9.95-1.14-14.78-2.27a74.46,74.46,0,0,1-13.37-4.55c-6.54-2.85-6.82-3.13-12.51,1.7-.85.57-1.42,1.14-3.12,2.28V518.72c5.4-3.13,11.65-3.7,17.62-4.55,8.82-1.14,11.66-6.82,6.83-13.93-11.94-17.92-17.35-37.82-17.63-59.14-.28-19.34,13.08-28.44,25.87-31.28,13.08-3.13,25.31-.57,36.4,6.54,1.14.57,2,1.42,3.13,2a2.84,2.84,0,0,0,4.26-.28c1.42-1.71,1.14-3.42-.57-4.84a4.85,4.85,0,0,0-1.42-1.13c-15.92-12.23-44.64-15.07-61.13-.29-7.68,6.82-12.23,14.79-12.8,25-.85,13.08-1.42,25.88,2.85,38.39,2.27,6.82,5.68,13.08,8.24,19.9a27.61,27.61,0,0,1,2.56,8.24c.57,3.7-.85,5.12-4.55,6-3.41.85-6.54,2-9.95,2.55a25.06,25.06,0,0,1-8,.29c-4-.57-8-2-11.94-2.84-2.84-.57-4.27-2.28-4-5.41a29.31,29.31,0,0,1,.85-4.83,20.56,20.56,0,0,1,2.56-5.69c9.38-16.2,11.94-33.83,11.37-52-.57-22.18-17.06-38.67-38.95-39.24-11.94-.28-23.32,2-33.27,8.82-1.42,1.14-3.12,2-4.26,3.69a3.5,3.5,0,0,0,.28,3.7c.57.85,2.56,1.14,3.7.85a30.63,30.63,0,0,0,4-2.56c13.36-8.24,27.58-10.23,42.36-4.26,11.66,4.83,18.77,13.36,19.34,26.73a103.12,103.12,0,0,1-16.21,60.27l-1.7,2.56c-3.7,6-.86,11.95,6,13.08,5.4.86,10.8,2.28,16.2,3.13,3.13.57,4,2.27,3.7,5.4-.57,6.54-.85,13.08-1.14,20.76a36.93,36.93,0,0,0-4.55-3.7c-4.26-3.69-6-4-11.09-1.42a60,60,0,0,1-24.16,6.54,27.68,27.68,0,0,0-4.55.57c.57,2.84,2.56,2.84,4.26,3.13,8.25,1.42,16.49,2.84,25,3.69,6.54.86,8.53,3.41,6.54,10.81-8.53-.57-17.06-2.85-25.59-5.4,6.26,14.21,18.2,19.9,31.85,23.59,5.4,11.38,2.56,43.22-5.12,58-19.05-2.56-36.68-8.82-51.46-21.9a109.94,109.94,0,0,1-12.51-13.36,352,352,0,0,1-36.68-54.59c-13.08-25-14.22-50.9-6.83-77.62,6.26-22.75,31.85-41.23,58.86-36.4,9.95,1.71,19.62,4,28.72,10.52-1.71,2-3.41,4.27-5.41,5.69-9.38,6.82-19.9,8.25-31,5.12-4.83-1.42-9.1-4.27-13.93-6.26a5,5,0,0,0-2.84-1.13,4.21,4.21,0,0,0-2.56,1.13,3.28,3.28,0,0,0-.29,2.85c.29.85,1.43,1.42,2,2.27,14.79,12.23,39.24,11.94,53.46-.28,2.84-2.28,4.83-5.41,6.82-8.53s1.42-4.55-2-6.54a102,102,0,0,0-30.14-10.24,70.51,70.51,0,0,0-24.45.57c-20.47,4.26-41.51,21-46.06,50.33-.57,3.41-1.14,6.82-1.71,10.8-8-6.25-16.2-11.66-23.31-18.48-7.11-6.54-10.52-15.64-10.52-25.31V431.15c.28,0,.85-.29,1.14-.29a35.64,35.64,0,0,1,3.12,3.41c2.85,3.7,5.69,7.4,8.82,11.09,1.13,1.71,2.56,3.7,4.83,2s1.14-3.69,0-5.4l-.85-.85c-10-14.22-19.91-28.15-29.57-42.37-13.93-19.9-27.87-39.52-41.8-59.42a546.93,546.93,0,0,0-37.25-47.49,293.91,293.91,0,0,0-33.55-31.56,135.87,135.87,0,0,1-15.92-15.35c-2.56-2.84-4.26-7.11-5.4-10.81-2.28-8,1.7-13.64,10-15.06a30.86,30.86,0,0,1,7.39-.86c19.62.29,39.52.57,58.86,4.55a141.14,141.14,0,0,1,63.4,31,92.05,92.05,0,0,1,30.43,49.48,75.09,75.09,0,0,1,1.13,8,11.13,11.13,0,0,1-2,7.39c-9.38,13.93-15.06,29.57-19.61,45.49-1.71,6.26-2,13.08.28,19.34a26.8,26.8,0,0,0,4,6.82,4.2,4.2,0,0,0,3.7.29c.85-.57.85-2.28,1.13-3.7a2.21,2.21,0,0,0-.56-1.14c-4.84-6.54-4-13.65-2.28-20.75A59.06,59.06,0,0,1,281.65,337c5.11-5.4,10.8-10.23,18.76-10.8,2.28-.29,3.41-1.42,3.13-3.7s-2-3.13-4-2.84c-3.7.57-7.39,1.42-11.66,2.27a14.75,14.75,0,0,1,2.28-3.13A64.23,64.23,0,0,1,330,301.49a25.08,25.08,0,0,1,15.64,4.27c1.71,1.13,3.41,2,4.83,0,1.71-2,.86-4-.85-5.41-4.55-4-10.23-5.11-15.92-5.68-1.71-.29-3.41,0-6.54,0,6.54-5.69,12.79-8,19.62-9.67,13.65-3.13,27.29-2.84,40.66,2,1.42.57,2.84,1.42,4,1.14a4.36,4.36,0,0,0,3.41-2,4.76,4.76,0,0,0-1.14-3.7c-.85-.85-2.56-1.42-3.69-2-8-3.13-16.21-4.26-24.74-4.83-1.42,0-2.56-.29-4.55-.29,33.55-19.9,81.32-21.89,120.84-.28-5.4.57-9.95.85-14.22,1.7-5.4,1.14-10.8,2.56-15.92,4a8.63,8.63,0,0,0-2.27,1.14c-2,.85-3.13,2.56-1.71,4.55.57,1.14,2.84,1.71,4,1.42,4.55-1.13,8.82-3.12,13.65-4,13.93-2.56,27.29-1.7,40.37,4.27,2.85,1.42,5.69,3.12,9.67,5.4-5.12.85-9.1.85-13.08,2a35.93,35.93,0,0,0-8.53,3.41,4.53,4.53,0,0,0-2.56,2.56c-.28,1.14-.57,3.13.29,4,.57.85,2.84,1.14,3.69.57,9.67-6.54,19.91-5.69,30.14-2.56,11.38,3.41,21.33,9.1,29,18.77a24.48,24.48,0,0,0-4.26-1.42l-7.68-1.71c-2-.29-3.69.28-4,2.84-.28,2.28.85,3.41,3.13,3.7h1.14c3.41,1.42,7.1,2.27,10,4.26,13.36,10,21,23.6,23,40.38.57,4.83.28,9.95-2.84,14.22-1.43,1.7-1.71,4,.56,5.4,2.28,1.7,3.7-.29,5.12-1.71,3.7-5.12,4.55-11.09,4-17.06a52.32,52.32,0,0,0-2.56-13.36c-4.83-14.5-10-28.72-18.76-41.23-1.14-1.71-1.42-4.26-1.42-6.26.28-8.52,3.12-16.49,6.54-24.16,6.82-14.22,15.92-26.16,28.71-35.54,21-15.07,43.79-26.16,69.38-29.29,16.49-2,33.27-2,49.76-2.84a43.88,43.88,0,0,1,8.53,1.13,11.36,11.36,0,0,1,8.81,13.94,28.87,28.87,0,0,1-7.39,13.93A91,91,0,0,1,713,257.7c-22.46,16.78-41.79,37-58.57,59.43-19,25.59-37.24,52-56,77.91-10.52,14.78-20.76,29.57-31.28,44.07a21.94,21.94,0,0,1-2.27,3.12c-1.14,1.71-.85,3.42.85,4.27a4.56,4.56,0,0,0,3.7-.85c2-2.28,4-4.84,5.68-7.11,2.28-2.85,4.27-5.4,6.83-8.82.57,2,1.14,2.85,1.14,4,.28,4.55.28,9.1.28,13.65,0,12.51-5.4,22.46-15.07,30.43-2.56,2-5.4,4-8,5.68-3.41,2.56-6.82,5.12-10.81,8-.56-4-1.42-7.67-2-11.37-2.55-15.07-9.38-27.86-21.32-37.53-12.51-9.95-26.44-13.93-42.37-12.8-12.51.86-24.16,4.55-35.25,10-5.4,2.55-5.69,3.69-2.56,8.81,5.4,8.53,13.08,13.36,22.75,15.07,13.07,2.56,25.3.57,36.11-7.68.56-.57,1.7-.85,2-1.42.28-1.14.85-3.13.28-3.7-.57-.85-2.56-.85-3.7-.56-.85,0-1.7,1.13-2.56,1.7-12.22,8-25,9.1-38.66,3.41a21.41,21.41,0,0,1-10.52-9.1c2.27-1.42,4.26-2.84,6.54-4,14.21-6.54,29.28-9.66,44.63-5.11,20.76,6.25,33.27,20.18,38.11,41.22,5.4,24.46,3.41,48.06-8.53,70.52a327.47,327.47,0,0,1-43.22,62.55c-14.22,15.92-32.7,24.45-53.46,27.86C436,638.71,434.62,638.42,432.34,638.42Zm-10.8-293.14c1.7.85,3.12,2,4.83,2.84,9.38,5.4,19.33,9.38,29.85,10.24a19.84,19.84,0,0,1,11.09,3.69c11.95,9.1,25,16.78,40.09,19.34,2.56.57,3.7,2,4.84,4C519.91,399.3,532.43,407,547.49,411c.57.28,1.43.57,1.71.28,1.14-.57,2.84-1.14,3.13-2.27a4.14,4.14,0,0,0-1.42-3.41c-.86-.86-2.56-.86-4-1.43-5.41-2.56-11.38-4.26-15.93-7.67-8-6.26-16.49-12.8-15.35-25,0-.86-1.42-2.85-2.27-2.85-1.14-.28-2.85.86-3.42,1.71a11,11,0,0,0-1.42,4.26c-.85,0-1.7.29-2.27,0-1.14-.28-2-.57-2.85-.85A99.78,99.78,0,0,1,475,359.21c-5.4-3.7-11.09-7.11-13.36-13.93-.29-.86-2.28-1.42-3.41-1.42-.86,0-2,1.42-2.28,2.27a27.77,27.77,0,0,0,0,4.83,11.26,11.26,0,0,1-3.13,0c-9.66-2.27-18.76-5.68-27-11.37-3.69-2.56-4.83-2.84-8.24-.28-7.68,5.68-16.5,9.1-25.59,11.37a16.64,16.64,0,0,1-5.41.57,23.07,23.07,0,0,0,.57-3.7c0-2-.57-3.69-2.84-4-2-.28-2.56,1.14-3.7,2.56-1.7,2.84-3.69,6-6.25,8a105,105,0,0,1-31.85,18.48,79.81,79.81,0,0,1-8,2,5.58,5.58,0,0,1-.85-2.27c-.57-2.28-1.14-4.55-4.27-4.27-2.84.57-2.56,2.85-2.27,4.84.57,5.12-1.71,9.1-4.55,13.08A50.86,50.86,0,0,1,299,403c-1.71.57-3.41,1.13-5.4,1.7-2,.86-4,1.71-3.13,4.27.85,2.27,2.56,2.56,5.12,2,13.08-3.7,25-9.67,32.41-21.61,3.41-5.4,7.11-8.82,13.65-9.38a24.94,24.94,0,0,0,6-2,123.23,123.23,0,0,0,30.14-17.63,11.87,11.87,0,0,1,5.12-2.28c3.69-.57,7.67-.57,11.37-1.42C404.19,354.94,413.29,350.68,421.54,345.28ZM168.48,237c.86,1.42,1.42,2.27,2,3.13a74.81,74.81,0,0,0,25.59,22.46c5.12,2.56,8.25,6.25,8.82,12.22.57,6.83,3.69,12.51,8,17.63a63.61,63.61,0,0,1,6,9.1c3.13,6,6.25,12.23,12.79,15.35a13,13,0,0,1,7.68,10.24c.85,4.55,2,9.38,5.69,12.51,3.41,2.84,5.68,5.69,6.54,10,.57,2.56,1.7,5.12,5.12,5.4,2-4.83,2.84-8.81-1.43-12.79-2.56-2.27-4-6.26-5.11-9.67-2.85-6.82-5.12-13.93-7.4-20.75-3.69-10.52-8-20.76-14.21-29.86-13.65-20.19-32.7-33.55-54.59-43.5C172.18,237.8,170.76,237.52,168.48,237ZM586.73,356.37c3.41-1.43,4.55-4.27,5.69-7.11.85-2,1.14-4.55,2.56-5.4,6.25-4.27,8.53-10.81,9.66-17.92a9.57,9.57,0,0,1,5.12-7.11c7.11-3.41,11.09-9.38,14.5-15.92a48.22,48.22,0,0,1,6.54-10.23c4.27-5.12,7.4-10.52,7.68-17.06.28-5.69,3.13-8.82,7.68-11.66a97.51,97.51,0,0,0,13.36-8.82A58.75,58.75,0,0,0,674,238.37a8.64,8.64,0,0,0-4.83,1.14c-30.71,13.93-54.59,34.4-66.25,67.1-3.13,9.1-6.54,18.2-10,27-1.14,3.13-2.56,6.82-5.12,9.1C583.6,347.27,585,351.25,586.73,356.37Z"/>
    <path class="cls-1" d="M565.69,271.64c-4.26,9.95-8,19.33-11.94,29.28a2.91,2.91,0,0,1-1.14.29c-11.09-1.43-21.89-3.42-30.14-12.23a74.52,74.52,0,0,0-24.16-16.49c-13.94-6.26-27.87-13.08-42.65-16.78-29.86-7.39-58.86-5.11-87.29,6.54-9.39,4-18.77,8.25-28.15,12.51-8,3.7-14.22,9.39-20.47,15.36-7.11,6.54-20.76,11.66-29.86,10.8-4-9.67-7.68-19.05-11.94-29.28a74.77,74.77,0,0,1,21.89-18.49c.29,4,.57,6.83.86,10,.28,2,1.13,3.69,3.41,3.41,2.27,0,2.84-2,2.84-4a75.48,75.48,0,0,1,0-8,27.46,27.46,0,0,1,8-18.2,20.11,20.11,0,0,1,8-4.55c5.12-1.42,10.24-1.71,16.21-2.84-.57,4.26-1.42,8-1.71,11.37a37.89,37.89,0,0,0-.28,8c0,2.28.57,4.27,3.13,4.27s3.13-2,3.41-4.27a65.21,65.21,0,0,1,.28-7.39A42.78,42.78,0,0,1,349.6,223c2.84-5.12,6.82-9.1,12.8-10.81,4-1.14,7.67-2,13.08-3.41-1.71,3.13-2.85,4.83-3.7,6.54-3.7,6.54-6.54,13.08-7.39,20.75a16.54,16.54,0,0,0,.28,6.54,4.15,4.15,0,0,0,3.41,2c.86,0,2-1.42,2.56-2.27a6.15,6.15,0,0,0,.29-2.27c.56-13.65,7.39-23.89,16.49-33.56a9.71,9.71,0,0,1,3.41-2.55c5.69-2.56,17.63-2.56,24.45,0,.85,4.26,2,8.81,2.84,13.64.29,1.14.57,2.56.86,3.7.57,2,1.7,3.41,4,3.13,2.27,0,3.41-1.42,3.69-3.41.86-4.27,1.71-8.82,2.85-13.37.28-1.14.57-2.27.85-4a40.81,40.81,0,0,1,24.74,0,13,13,0,0,1,4,2.84c8.81,9.67,15.64,20.19,15.92,33.56,0,2,.57,4,2.84,4,2.56,0,4-1.71,3.42-4-.86-5.41-1.43-11.09-3.42-16.21-1.7-4.83-4.55-9.38-7.39-15.07,9.1,1.71,17.91,2.56,23.6,11.09,5.12,7.67,7.11,15.92,7.68,25a26.34,26.34,0,0,0,.28,4.83c.29.86,1.71,2.28,2.56,2.28a4.12,4.12,0,0,0,3.13-2,13.29,13.29,0,0,0,.57-4.84c-.57-5.11-1.14-10.52-2-16.2,6.54.85,13.08.85,19.05,3.41,8,3.69,11.09,11.09,12.22,19.33a38.52,38.52,0,0,1,0,10c0,2,.29,3.7,2.56,4.27,2.85.28,3.41-1.42,3.7-3.7.28-2.84.57-5.68.85-9.38C553.18,258,559.72,264.81,565.69,271.64Z"/>
  </g>
</svg>
