<svg id="Livello_1" data-name="Livello 1" xmlns="http://www.w3.org/2000/svg" viewBox="0 0 841.89 841.89">
  <defs>
    <style>
      .cls-1 {
        fill: #231f20;
      }
    </style>
  </defs>
  <title>Glos</title>
  <g>
    <path class="cls-1" d="M462.15,442.62a23.14,23.14,0,0,1,3.2-2c7.84-3.18,9.28-9.41,3.26-15.4a38.85,38.85,0,0,0-7.54-5.58c-3.28-2-6.76-3.6-10.21-5.23-1.85-.87-3.86-1-4.72,1.35s.36,3.59,2.53,4.59c4.54,2.08,9,4.4,13.39,6.76a9.32,9.32,0,0,1,3,2.73c.67.93,1.55,2.77,1.17,3.21a5.89,5.89,0,0,1-3.82,2.11c-1.93,0-3.33.26-3.93,2.21-2.3,7.5-9.48,10-17,8.42a28.26,28.26,0,0,1-13.62-7.3,5,5,0,0,0-3.22-.74c-1.64.05-3.61,1.15-4.84.56-3.54-1.72-5.59,0-8.18,2-5.57,4.33-11.91,7-19.16,5.69a11.67,11.67,0,0,1-9.52-8.15c-.64-1.95-1.66-2.79-3.9-2.73a5.21,5.21,0,0,1-3.91-1.88c-.44-.66.42-3,1.35-3.65,4.67-3.08,9.55-5.86,14.39-8.69.89-.52,2.34-.52,2.81-1.24a6.1,6.1,0,0,0,1.12-4c-.13-.73-2.34-1.9-3-1.58-7.73,3.49-16.08,6.24-21.17,13.69-3.44,5-1.46,10,4.53,12.6,1.4.61,2.71,1.44,4.59,2.46-13.65,4.5-18.45,14.85-21.31,26.66a24,24,0,0,0-.73,5.59,26.23,26.23,0,0,1-4.08,14.14c-3.31,5.41-6.1,11.23-5.88,17.88,0,1,.52,2.86,1,2.91a4.63,4.63,0,0,0,3.39-1,20.1,20.1,0,0,0,3.84-4.91c4.44-8.15,7.51-16.6,6.89-26.22-.63-9.95,3.3-18.4,10.31-25.38,1.41-1.4,3.32-2.31,5.53-3.81-.2,4,1.58,6,4.38,6.74a83.21,83.21,0,0,0,12.84,2.5c6.15.59,12.36.6,18.54.89,1.12.06,2.25.27,3.41.41,0,6.42,0,12.58,0,18.75,0,8.59,0,17.19-.22,25.78a7.26,7.26,0,0,1-1.49,4.11,9.17,9.17,0,0,0-1.54,9.89,46,46,0,0,1,2.72,20,117.49,117.49,0,0,1-5,27,8.55,8.55,0,0,1-4.88,5.74c-5.58,2.31-11.19,4.56-16.88,6.54a13,13,0,0,1-5.56.23c-8.08-.94-14.66,1.75-19.65,8.08-3.4,4.32-4.4,9.29-2.28,14.47,2.2,5.36,6.69,7.65,12.22,8.57,4.72.79,9.42,1.81,14,3a15.65,15.65,0,0,1,5.14,2.9c2.42,1.85,3.67,4.27,2.59,7.43-.68,2,.22,3.64,2,3.86a4.24,4.24,0,0,0,3.34-2.28c1.82-4.81.3-9-3.24-12.56-4.1-4.11-9.34-5.81-14.85-6.84-2.68-.5-5.4-.73-8.08-1.17-5-.82-7.87-3.2-8.38-6.78-.57-4,2-9.24,6-10.84,2.66-1.07,5.77-2.13,8.47-1.74,7.86,1.15,14.55-1.85,21.38-4.73,1.59-.68,3.2-1.31,5.21-2.13-.59,6.28-3.92,10.56-7.59,14.64-.69.78-1.61,1.34-2.37,2.06-4.1,3.91-4,8,.26,11.8,2.05,1.79,4.15,3.52,6.23,5.28,4.39,3.74,4.69,11.28.71,15.52q-4.9,5.21-9.6,10.61a13.37,13.37,0,0,0-1.66,3.29,61.74,61.74,0,0,1-3.06,6.83c-3.71,6.14-6.26,6.64-13.2,5.29a85.58,85.58,0,0,0-16.49-1.1c-5.65,0-11.3.75-17,.9a12.81,12.81,0,0,1-5.4-1.25c-4.43-2-5.4-5-2.78-9.09a7.75,7.75,0,0,0,1-6.51c-.87-3.63,1.21-7.95,4.82-8.93s7.56-1.11,11.3-1.88c2.37-.5,5.06-1,6.84-2.39,3.68-2.94,2.91-6.61-1.44-8.41a39.51,39.51,0,0,1-17.26-13.15c-10.9-14.88-5.46-33.91,11.65-40.93a28.08,28.08,0,0,0,13.75-12,14.43,14.43,0,0,0,1.83-6.2c.05-1-1.42-2.54-2.52-2.91-.69-.23-2.68,1.12-2.85,2-1.31,6.78-6,10.73-11.63,13.48-14.43,7-19.84,14.13-21.8,29.08-4.14,2.92-8.32,5.11-11.44,8.32a19.19,19.19,0,0,0-4.64,9.24c-1.16,5.89,4.89,9.86,12,7.88,3.55-1,6.83-3,10.5-4.64,4.35,3.16,4.61,5.18.78,9.55-6.76,7.71-18.9,8.32-25.64.7-4.64-5.24-5.27-11.79-3.39-18.58a29.75,29.75,0,0,1,15-18.8c1.67-.93,3.1-2.1,1.91-4.23s-3.08-1.66-4.87-.68c-10.7,5.83-15.82,15.35-17.87,26.91-.12.71-.16,1.43-.24,2.12a18.61,18.61,0,0,1-19.17-12.75c-2.24-6.56-3.42-13.48-5.15-20.22a80.05,80.05,0,0,0-9.87-23.85c-4.32-6.71-4.45-13.7-.19-20.71,4.79-7.87,11.69-13.27,19.63-17.63,1.84-1,3.33-2.66,5.15-4.16,1.38,1.5,3.45,3.62,5.38,5.86,2.88,3.33,3.54,7.07,1.53,11.07-1.59,3.17-3.5,6.19-5,9.4-3.38,7.16-6.85,14.29-9.8,21.63-1.9,4.73-.8,9.21,2.27,13.58,2.73,3.89,4.44,8.49,6.6,12.78.56,1.11.87,2.56,1.76,3.26s2.81,1.46,3.68,1,1.54-2.66,1.13-3.57a155.34,155.34,0,0,0-8.47-16.74c-1.88-3.08-2.73-6-1.41-9.14,2.75-6.52,5.79-12.93,8.87-19.32,1.72-3.57,3.95-6.9,5.61-10.5,2.94-6.33,2.46-12.85-2.77-17.34-6.11-5.23-5.83-11.3-4.12-17.64s4.39-12.29,7.1-18.36c1.67,7.35,5.45,12.84,11.08,17.57,7,5.88,7.28,14.13,1.51,21.19-1,1.21-2.11,2.33-3.14,3.52-2.88,3.36-4.1,7.16-4.54,11.67-1.15,11.79,3.16,21,11.71,28.73a28.55,28.55,0,0,1,2.89,3.31c1.27,1.56,2.83,1.93,4.38.7s1.39-2.76.18-4.15c-2.07-2.37-4.22-4.67-6.33-7-5.94-6.55-9.44-14-6.9-22.92a22.17,22.17,0,0,1,5.09-8.8c8.86-9.36,8.44-22.35-1.35-30.8-4-3.44-8.38-6.84-8.65-12.57a29.73,29.73,0,0,1,4.94-18.5c5.22-7.4,11.53-14,17.37-21l.72.49c-.71,4.11-1.62,8.19-2.07,12.33a28.4,28.4,0,0,0,5.12,20.51c1.6,2.2,3.23,4.39,4.73,6.66,2.95,4.47,3.83,9.08,1.39,14.21-3.81,8-7.31,16.18-11,24.26-5.42,11.84-5.47,23.73,0,35.47,1.52,3.26,4,6.1,6.33,8.9a3.5,3.5,0,0,0,3.32.5,3.62,3.62,0,0,0,1.24-3.07,7.05,7.05,0,0,0-1.91-3.5c-7.1-7.47-8-16.6-6.73-26.09.5-3.74,2.1-7.4,3.6-10.92,3.41-8,7.08-15.84,10.61-23.76,3.16-7.1,1.74-13.67-2.44-19.88-3-4.39-6.94-8.16-7.95-13.72-2.05-11.32.64-21.61,6.9-31a19.53,19.53,0,0,1,5.44-5.07c11.47-7.73,23.75-14,37.51-16.05,8.62-1.28,17.52-.75,26.29-.94,3.87-.08,7.75.12,11.62.08,5.34-.06,10.69-.45,16-.31,16,.42,30,6.63,43.61,14.4,9.82,5.62,14.56,14.19,16.54,24.85,1.78,9.59.2,18.06-6.42,25.73-6.15,7.14-7.52,15.31-3.07,24.21,3.91,7.84,7.66,15.82,10.84,24,4.65,12,4.72,23.67-4.06,34.2a9.19,9.19,0,0,0-2.16,3.76c-.19,1,.47,2.79,1.22,3.09a4,4,0,0,0,3.56-.66c12.74-13.7,12.12-32.72,5.66-45.26-3.58-7-6.26-14.38-9.81-21.35-3.68-7.2-1.86-13.23,2.66-19.18a44.59,44.59,0,0,0,5.87-9.21c3.25-7.74,2.56-15.76.53-23.71a17.38,17.38,0,0,1-.71-3.68c9.29,9.93,20.25,18.54,22.71,33.27,1.14,6.85-.68,11.95-5.78,16.48a37.17,37.17,0,0,0-7.83,9.21c-4.18,7.52-3.1,16.69,3.24,22.51,9.94,9.12,7.94,23.71-.94,32.71C516,544.7,514,547,512,549.28c-1.3,1.49-1.88,3.23,0,4.64,1.63,1.22,3.11.54,4.36-.93,4.75-5.55,10.24-10.45,13.16-17.45,3.21-7.71,2.93-20.76-4.38-27.51-9.38-8.66-7-18.65,1.83-25.36,5.12-3.91,7.85-9.08,9.05-15.72,5.15,9,8.95,18,8.31,28.13-.1,1.61-1.14,3.23-2,4.67a25.07,25.07,0,0,1-2.79,3c-4.42,5.09-6.07,10.79-3.08,17.1,2.23,4.72,5.11,9.13,7.35,13.84,2.72,5.74,5.18,11.6,7.54,17.5,1.12,2.79.16,5.28-1.4,7.93a185.93,185.93,0,0,0-8.62,17c-.43.93.77,2.6,1.22,3.94,1.31-.57,3.16-.77,3.8-1.76,1.51-2.35,2.37-5.1,3.62-7.63s2.27-5.29,4-7.4c4-4.83,4.56-10.17,2.35-15.6-2.79-6.84-6.18-13.45-9.43-20.11-1.51-3.1-3.36-6-4.91-9.1-2.25-4.47-1.4-8.51,2-12.09,1.79-1.9,3.56-3.81,4.89-5.23,1.84,1.51,3.44,3.27,5.41,4.36,7.83,4.34,14.62,9.73,19.33,17.51,4,6.62,4.21,13.41.19,19.89-7,11.2-10.52,23.45-12.69,36.3a39.77,39.77,0,0,1-3.61,10.58c-3.59,7.34-9.83,10.75-18.16,10.87-.86-7.38-2.95-14.56-8.14-20.17-3.22-3.48-7.28-6.21-11.07-9.13-1.61-1.23-3.51-1.2-4.57.8s.18,3.26,1.94,4.25A32,32,0,0,1,533.68,598a17.45,17.45,0,0,1-32.59,11.55,4.16,4.16,0,0,1,.36-3.19A17.46,17.46,0,0,1,504,603.3a102.06,102.06,0,0,0,9.74,4.52c5.17,1.79,9.89.51,12-2.72,2-3,1.28-9.2-2.14-12.5a65.23,65.23,0,0,0-10.72-8c-1.57-1-2.46-1.67-2.66-3.62-1.29-12.41-7.82-21.18-19.15-26.24a26.72,26.72,0,0,1-10.88-8.19c-1.26-1.68-1.68-4-2.8-5.79-.7-1.14-2-1.89-3.05-2.82-.85,1-2.48,2.08-2.41,3a14.78,14.78,0,0,0,1.86,6.47,28.18,28.18,0,0,0,13,11.46c19.59,8.46,24.08,29.41,9.21,44.72-3.75,3.87-8.95,6.37-13.62,9.28-1.94,1.21-4.54,1.76-4.2,4.7a6.48,6.48,0,0,0,5,5.83c2.29.56,4.75.41,7.12.72a32.76,32.76,0,0,1,7,1.25c5.43,2,6.83,5.77,5.86,10.74a5.86,5.86,0,0,0,.38,3.76c3.84,6.77,1,11.88-6.94,11.86-5.24,0-10.49-.28-15.71-.78-7.15-.68-14.18-.81-21,1.76a6,6,0,0,1-7.05-2.13,40.11,40.11,0,0,1-5.94-9.79,16,16,0,0,0-4.93-7A24.75,24.75,0,0,1,433,619.45c-.63-3.17-.06-6.07,2.35-8.35s4.87-4.29,7.21-6.54c3.92-3.78,3.92-8.21-.49-11.48-5.62-4.18-7.83-10-9.21-16,6.17,2.12,12.31,4.67,18.7,6.27,3.74.93,7.89.13,11.82.49a10.67,10.67,0,0,1,8.67,6c3.2,5.87.69,11.55-5.89,12.83-3,.58-6,.79-9,1.32-5.2.92-10.13,2.5-14.24,6a12.36,12.36,0,0,0-4.57,12c.34,2.07,1.08,4.21,3.63,3.78,2.29-.38,2.62-2.27,2.11-4.43-.77-3.25.43-6.16,3.32-7.44a127.18,127.18,0,0,1,14.08-4.87c2.07-.63,4.34-.59,6.45-1.12,10.87-2.76,14.85-13.58,8.07-22.44-4.88-6.36-11.49-9-19.61-8.24a22.86,22.86,0,0,1-8.31-.76c-15.5-4.39-17.79-6.76-21.21-22.45-2.41-11.09-3.74-22.26-.52-33.47a14.08,14.08,0,0,1,1-3c2-3.71.84-6.79-1.64-9.77a5.73,5.73,0,0,1-1.52-3.18c-.17-14.78-.21-29.56-.26-44.34a6.48,6.48,0,0,1,.25-1.22c6.84-.35,13.75-.49,20.61-1.14a91.22,91.22,0,0,0,13.47-2.5c2.7-.67,4.65-2.48,4-6.64,2.33,1.41,4.42,2.17,5.82,3.6,8.06,8.27,11.68,18.1,10.26,29.73a15.77,15.77,0,0,0,1,6.72c1.78,5.1,3.87,10.09,5.9,15.1a9.75,9.75,0,0,0,1.67,2.64c1.53,1.82,3.09,4.46,5.7,3.31.91-.4.79-3.74.67-5.71-.35-6-3.28-11.21-6.26-16.2A24,24,0,0,1,483.58,476,41.08,41.08,0,0,0,475,451.83,26.45,26.45,0,0,0,462.15,442.62Z"/>
    <path class="cls-1" d="M265.61,516.53c-1.76-3.88-3.25-7.44-5-10.88a16.14,16.14,0,0,1-1.36-11.2c1.52-6.93,2.4-13.78,1.09-21.06-1.47-8.26,2.81-14.8,8.9-20.29,5.14-4.63,11.05-7.87,17.2-10.86a89,89,0,0,0,9.51-5.47,17.51,17.51,0,0,0,7.08-9.33c.6-1.77.46-3.2-1.3-3.93a2.58,2.58,0,0,0-3.7,1.86c-1.25,4.12-4.17,6.71-7.75,8.66-6.42,3.5-12.91,6.87-19.71,10.48,1.84-5.19,5.13-9.2,8.43-13.16,3.09-3.7,6.4-7.21,9.59-10.82a28.06,28.06,0,0,0,6.77-15.48c.72-5.54,2.16-11,3-16.52,1-6.38,1.86-12.8,2.62-19.21a52.15,52.15,0,0,1,7.39-21.65c6.74-11,17.46-14.94,29-17.88,2.32-.6,4.73-.8,7.11-1.19l.74.8a20,20,0,0,0-2.61,1.79,17.25,17.25,0,0,0-5.81,12.43c-.08,2.92.51,3.31,3.25,2.47,3.42-1,6.87-2,10.13-2.89.2,3.67.36,6.62.57,10.38a78,78,0,0,1-8.94-3.32c-1.75-.89-3.21-1.76-4.73-.13s-.49,3.29.77,4.67c4.74,5.21,10.85,7.87,17.65,8.75,11.69,1.53,22.15-1.74,31.32-9.05,1-.77,1.33-2.31,2-3.49-1.55-.56-3.17-1.72-4.66-1.57-3.6.37-7.15,1.37-10.73,2.05a30.91,30.91,0,0,1-3.34.29c.15-3,.29-5.78.46-9.18L390.47,348c-1-2.91-1.39-5.71-2.74-7.94-4.72-7.79-11.89-12.34-20.6-14.76-17.07-4.75-33.35-2.83-48.94,5.49-.54.28-1.12.48-1.73.74-1.13-9,7-26.91,13.92-30.19.67,1.31,1.69,2.59,2,4,.4,2.16,1.61,3,3.49,2.63,6.8-1.31,12.95.86,19.29,2.88a43,43,0,0,0,13.16,1.84c5.91-.05,7.87,1,10.16,6.57,3.69,9,10.5,15.24,18.71,20.08,1.67,1,3.59.91,4.18-1a4.31,4.31,0,0,0-1.45-3.79c-8.19-5.21-14.42-11.9-18.06-21.06A10,10,0,0,0,370.94,307c-6.92,1-13.05-.58-20.18-4.07a7.66,7.66,0,0,0,1.59-.24c12.31-5.34,25-9.11,38.56-8.8,5.58.13,10.92,1.26,15.39,4.58a10.16,10.16,0,0,1,3.44,6c.93,5.29,0,10.27-4,14.44a34.63,34.63,0,0,0-5.16,7.08c-.49.89,0,2.74.72,3.72.33.46,2.48.34,3.18-.25a33.39,33.39,0,0,0,11.59-19.81c1.45-7.86-3.05-15.29-10.47-18.32-13.24-5.39-26.43-3.39-39.4.4-8.07,2.35-15.7,6.17-23.59,9.15-1.62.61-4.16,1.19-5.2.39a5.54,5.54,0,0,1-2.05-6.39c1.9-5.8,5.5-8.45,11.59-9.21,6.73-.84,13.56-1.72,20-3.66,12.77-3.83,25.64-7.57,37-14.93.68-.44,2.18-.14,3,.32,9.93,5.31,19.61,4.75,29-.62,18.12,9.52,37,16.76,57.61,18.93,7,.74,10.43,3.5,12.25,9.53.83,2.77-.57,4.73-2.19,6.06-1,.78-3.5.45-4.88-.25-12.4-6.32-25.34-10.9-39.22-12.46-7.53-.85-15.08-.84-22.3,2.09-9.56,3.87-13.51,11.77-11,21.75,1.71,6.72,5.86,12,10.27,17,.55.62,3.21.54,3.4.11.54-1.18.85-3,.26-4.07-1.69-3-4.06-5.58-5.8-8.54a17.25,17.25,0,0,1-2.38-6.37c-1.33-10.79,4.11-16.08,16.69-16.63,14.38-.64,27.7,3.38,41.2,9.22-5.44,2.46-10.32,4.64-16.1,4.15a19.5,19.5,0,0,0-8.82.93,11.2,11.2,0,0,0-5.66,5.4,42.59,42.59,0,0,1-18,20.69c-.09.06-.23.09-.26.17-.47,1.34-.92,2.68-1.38,4,1.38.33,3.18,1.39,4.08.87,8.44-4.85,15.44-11.2,19-20.53,1.91-4.95,4.19-6.74,9.5-6s10.34-.49,15.28-2.44c5.59-2.21,11.31-3.78,17.43-2.4,2.14.49,3.25-.57,3.8-2.67a30.93,30.93,0,0,1,2.26-4.78c9.42,8.77,12.4,19.48,14.25,30.85-5.79-2.21-11.09-4.75-16.68-6.28-15.17-4.14-30.15-3.39-44.14,4.22-7,3.84-12.48,9.52-13.66,18.59l20-5.35V352l-13-2.34c-.62-.11-1.31-.51-1.81-.34a36.66,36.66,0,0,0-3.8,1.69c.56,1.14.85,2.6,1.73,3.36a38.87,38.87,0,0,0,17,8.44c10.89,2.45,21.24,1.36,30.23-6a7.3,7.3,0,0,0,2.36-2.48,17.28,17.28,0,0,0,.49-4.24c-1.51,0-3.13-.31-4.51.12-3.06.95-6,2.28-9.18,3.52.19-3.89.33-6.85.5-10.54,3.39,1,6.74,1.88,10.06,2.91,3.09,1,3.56.74,3.47-2.48a17.47,17.47,0,0,0-5.6-12.22c-.8-.8-1.62-1.59-2.5-2.45,22.31,1.65,39.95,13.45,43.89,36,1.36,7.8,2.06,15.71,3.27,23.54A190.35,190.35,0,0,0,547.18,408a34.28,34.28,0,0,0,5.34,11.39c4.76,6.48,10.27,12.41,15.32,18.69,1.46,1.81,2.41,4,4,6.82-7.79-4.21-14.74-7.9-21.63-11.71a12.9,12.9,0,0,1-6.32-7.51c-.59-1.85-1.8-3-3.78-2.2s-1.85,2.4-1.27,4.2c1.88,5.86,6.44,9.13,11.42,12a100.15,100.15,0,0,0,9,4.52,49.91,49.91,0,0,1,17.15,13c4.52,5.15,6.39,11.15,4.85,18s0,13.31,1.47,19.8a15.5,15.5,0,0,1-1.4,10.58c-1.69,3.55-3.29,7.14-4.73,10.3-2.63-2.43-5.37-5.15-8.32-7.6a41.48,41.48,0,0,0-8.16-5.82c-3.79-1.8-5.36-4.57-6.53-8.41a158.42,158.42,0,0,0-50-76.39c-3-2.55-5.92-5.21-8.93-7.77-10-8.5-22.17-12.2-34.59-15.29-1.2-.3-2.4-.65-3.59-1-.09,0-.14-.14-.44-.48a14.27,14.27,0,0,0,1.85-12.62,14.07,14.07,0,0,0-10.11-9.84c-10.63-3-17.84-15-15.46-26,.15-.71.63-1.53.43-2.12-.42-1.21-.93-2.85-1.9-3.33a2.37,2.37,0,0,0-3.47,2.05c-.33,4.64-.95,9.42-.21,13.94a25.94,25.94,0,0,0,10.91,17.37,24.91,24.91,0,0,0,7.31,3.25c3.83,1.09,6.64,3.62,7.35,7.34.65,3.41-1,7.08-4.65,9.36-.06-1.23-.1-2.17-.14-3.12-.12-3.2-1.65-5.36-3.95-5.6-3.2-.33-4.48,2.07-4.83,4.34-.4,2.59-1.76,3-3.75,3.05-3.66.05-7.32,0-11.24,0v-7.07a15.74,15.74,0,0,0,3.67,1.46c1.19.14,3.16,0,3.51-.63.53-1,0-2.61-.2-3.92-.07-.38-.73-.75-1.2-.94a22.66,22.66,0,0,0-18,0c-.64.26-1.5.85-1.59,1.4-.19,1.22-.37,2.8.25,3.67.46.65,2.22.67,3.32.5s2.16-.94,3.68-1.65v7.13H402.93c-1.21-5.44-2.84-7.49-5.55-7.32-2.86.17-4.13,2.53-4.41,8.16-3.52-1-5.56-6.1-4-10.25a8.49,8.49,0,0,1,6.27-5.62c10.2-2.41,16-9.31,19.08-18.82A26,26,0,0,0,415,342.7c-.5-2-1.05-4.18-3.77-3.63s-2.47,2.49-1.91,4.67c2.61,10.25-2.85,19.69-11,25.25a11.31,11.31,0,0,1-4.09,1.42c-10.29,2.16-14.3,14.16-9.44,21.71a13.69,13.69,0,0,1,.63,1.24c-4.6,1.32-8.93,2.78-13.37,3.79a61.88,61.88,0,0,0-24.77,12.23c-12.68,10-24.67,20.83-34,34.14C301.76,460,292.53,477.57,287.17,497a5.51,5.51,0,0,1-2.06,3.24A60.17,60.17,0,0,0,265.61,516.53Z"/>
    <path class="cls-1" d="M503.5,262.05c2,5.92-.27,13.06-5.22,16.13a7.64,7.64,0,0,1-3.88,1c-24.66-.14-41.47-17.46-45-36.29-3.12-16.5,5.79-33.14,22.11-40.15,1.24-.53,2.5-1,3.81-1.55-10.67-7.56-91.3-7.8-109.74-.23,2.21.95,4.16,1.72,6.05,2.62,22.39,10.71,27.67,38.58,11.1,58.8-9.2,11.22-21.32,16.45-35.71,16.87-5.52.15-9.51-6.32-10-11.15a47.4,47.4,0,0,1,.29-6.51c4.05,4.07,8.26,6,13.2,5.84a23.63,23.63,0,0,0,15.25-5.85c4-3.61,8-7.49,10.93-12,8.76-13.57,5.85-26.72-7.44-36-9.17-6.39-19.57-8.62-30.47-7.62-8.72.81-17.63,1.71-26,4.2-51.23,15.27-82.81,49-93.66,101.52a111.44,111.44,0,0,0-.74,39.36c1.62,10.81,10.33,14.62,17.46,15.08,13,.85,23.06-4.45,29.83-15.51,5.35-8.74,8.5-18.11,7.08-28.63-1.31-9.71-7.29-16.6-15.92-17.74-4-.53-7.63.72-11.11,2.63a23.33,23.33,0,0,1-4.18,1.28c4.75-7.3,17.95-12.46,25.18-10.3,5.36,1.61,8.55,5.53,10.36,10.6,3.35,9.37,2.33,18.81-.15,28.12a76.4,76.4,0,0,1-14.22,28.08c-5.61,7.05-13.18,10.62-21.85,11.53-16.73,1.75-29.79-8.59-32.34-25.72-4.35-29.13,1.91-56.43,16-81.91,18.77-34,47.25-56.17,84.45-67.31a108.16,108.16,0,0,1,43.23-3.6,10.33,10.33,0,0,0,3.47-.68c6.35-1.64,12.62-3.86,19.08-4.88a297.1,297.1,0,0,1,69-2.42,269.81,269.81,0,0,1,36,5.41c5.46,1.17,10.54,2.44,16.3,2.09,26.66-1.61,51,6.23,73.21,20.38,32.85,20.89,53.57,50.52,62.19,88.52,3.25,14.31,4.3,28.69,2.18,43.3-2.08,14.29-11.74,25.47-25.64,27-11.1,1.26-21.25-2.52-28.5-11.39-9.91-12.12-16-26.07-16.6-41.86A44,44,0,0,1,565,308.12c2.72-8.42,9.23-11.93,17.94-10.42,6.69,1.17,12.11,4.82,17,9.3l-.23.82c-1-.16-2.14,0-2.92-.52-11.68-7.36-23.53-1.16-27.2,11.74-4,13.95,5.35,41.53,25.59,46.07a34.69,34.69,0,0,0,12.41.77c10.32-1.54,15.42-7.55,16.46-18.3,3-30.83-3.77-59.37-21.22-85-20.79-30.55-49.69-48.84-86.22-54.92-10.66-1.78-21.38-3.12-32.07,0-8.06,2.37-14.95,6.45-20.19,13.14-4.68,6-6.16,12.83-3.91,19.82,4.34,13.45,12.88,23.1,27.26,26.39C493.85,268.44,499,266.29,503.5,262.05Z"/>
    <path class="cls-1" d="M352.75,228.27c-5.8-3.83-11.55-4.25-17.37-1.58-5.46,2.52-8.27,6.83-7.9,13a3.15,3.15,0,0,1-1.6,2.6,4.09,4.09,0,0,1-3.2-1c-5.9-5.14-15.93-4.49-20.94,1.52-3.57,4.25-4.67,9.27-4.38,14.67.1,1.86-.24,3.52-2.47,3.6s-2.78-1.47-2.67-3.39q.22-4.65.47-9.26c-13.17-2.78-23.38,6-22.57,18.5a43,43,0,0,0,5.67,18.08c.94,1.7,1.94,3.59-.32,4.88-2.09,1.18-3.3-.5-4.11-2.16-2.05-4.06-4-8.21-6-12.49-4.2,4.75-7.48,10-8.9,16.67.89,0,1.5,0,2.13,0,12.49-.87,19.44,3.46,24.14,15A5,5,0,0,0,284,309c4.52,3.75,7.22,8.56,9.06,14,1.91,5.77,11.65,10.89,16.63,9.53,1.86-7.38,3.65-14.38,5.46-21.47-.37.16-.79.29-1.16.47-8,3.86-15.95,3.73-23.17-1.44s-9.94-12.88-8.65-21.54c.86-5.67,2.65-11.1,2.83-17,.18-5.14,5-8.92,9.66-9.18,4.93-.29,10.36,3.1,11.83,7.72.34,1.05-.63,2.51-1,3.8-1.21-.45-2.63-.63-3.63-1.39s-1.44-2.62-2.51-3.07c-1.89-.76-4.28-1.5-6-.95-1.47.45-2.33,2.79-3.49,4.31l.79.55c.26-.16.58-.26.81-.42,1.73-1.16,3.65-2.31,5.17,0s-.94,3.05-2.1,4.44c-2.28,2.75-5,5.48-6.24,8.74-3.15,8.18,1.1,17.39,9,21,7.69,3.46,16.4.89,20.21-5.51-2.15-2.75-4.83-5.12-6.3-7.95v.45a7.82,7.82,0,0,1-8.61,7.53,8.09,8.09,0,0,1-7.63-8.16,8.19,8.19,0,0,1,14.38-5,21.23,21.23,0,0,1,1.23-15.14,6.77,6.77,0,0,1,2.57-2.71,2.62,2.62,0,0,1,2.31.9,5.33,5.33,0,0,1-.16,3.64,16.45,16.45,0,0,0,5.93,21.44c4.25,2.52,7.14.92,7.38-3.59-2.84-2.08-5.62-3.73-7.93-5.91-1.65-1.57-2.75-3.93-1.2-6.24a4.15,4.15,0,0,1,3.07-1.39c.63,0,1.83,1.31,1.83,2-.08,3.49,2.73,4.15,5,5.28s3.33-.92,4.64-2.21c.74-.7,1.5-1.44,2.34-2.23-7-9.44-9.58-19.81-6.09-31.12S341.28,232.36,352.75,228.27Z"/>
    <path class="cls-1" d="M576.57,275.51a35.23,35.23,0,0,1,8.86,16.59c-3.65,0-7-.48-10.22.09-7.91,1.41-12.78,6.59-15.75,13.83a26.41,26.41,0,0,1-2.53,3.8c-2.6,4-5.75,7.76-7.61,12.07-2.85,6.61-10.59,11.71-17.73,10.79-1.86-7.2-3.7-14.32-5.37-20.76,3.7.62,8.1,1.89,12.54,2,11.43.29,20.43-8.48,21.14-20a24.66,24.66,0,0,0-2.32-12.81,6.81,6.81,0,0,1-.31-3.84c1.27-8.23-4.17-15.35-11.61-14.83-5.13.35-8.42,3.5-10.38,8a3.51,3.51,0,0,0,1.06,3.28c.76.43,2.46-.17,3.39-.82S541,270.51,542,270c1.83-.93,4-2,5.91-1.75,2.49.27,3.46,2.63,3.79,5.42-1.14-.68-2-1.59-2.84-1.58a15.09,15.09,0,0,0-3.81,1.06c.41,1.14.49,2.75,1.31,3.34a18.21,18.21,0,0,1,8,12.26,17,17,0,0,1-10.58,18.66,16.82,16.82,0,0,1-20.23-6l6.79-7.4c1.22,1.85,2.33,4.29,4.12,6,2,1.94,4.77,2,7.36.87A7.81,7.81,0,0,0,546,290.22c-2.23-4.53-7.25-5.42-13.12-2.15a95.94,95.94,0,0,0-.09-9.91c-.2-1.9-1.24-3.74-2.09-5.52s-2.38-2.91-4.32-1.71-1.27,2.77-.39,4.41a16.26,16.26,0,0,1-6,21.34c-1.81,1.07-3.73,1.88-5.42.16a13.85,13.85,0,0,1-2-3.36c3.36-2.71,6.24-4.61,8.52-7.05,1-1.07,1.2-3.31,1-4.93-.11-.83-1.81-1.86-2.91-2-.65-.1-2.22,1.28-2.22,2,0,3.63-2.78,4.35-5.18,5.42s-3.23-1.24-4.55-2.43c-.69-.62-1.36-1.27-2.19-2.05,6.89-9.45,9.54-19.75,6.06-31.09s-10.9-18.81-22-22.79c3-4,12-4.08,16.31-2.1,5.43,2.51,8.57,7.06,8.48,12.44a5.05,5.05,0,0,0,1.36,3.41c.46.44,2.29.12,3-.47A15.5,15.5,0,0,1,534.54,239c5.93,2.28,8.79,7.17,9.61,13.28.25,1.85-.17,3.83.29,5.6.32,1.24,1.63,2.21,2.5,3.3.95-1,2.66-2,2.72-3.06a72.43,72.43,0,0,0-.55-9.28,17.22,17.22,0,0,1,22.67,15.92c.25,6.86-2,13.16-5.08,19.18-.39.74-1.14,1.46-1.15,2.2a19.93,19.93,0,0,0,.71,3.84c1.16-.37,2.94-.4,3.4-1.19C572.09,284.58,574.19,280.17,576.57,275.51Z"/>
    <path class="cls-1" d="M616.78,314.42c-2.61-2.08-5.6-4.26-8.35-6.71s-5.14-5.44-8-7.77c-2.58-2.09-6.34-3.06-8.25-5.55-1.8-2.32-1.61-6.08-2.75-9a42.06,42.06,0,0,0-10.58-15.77,5.73,5.73,0,0,1-1.64-3.67c-.29-15.11-10.32-24.37-25.41-23.1-3.1.26-5.15-.12-7.34-2.93-5.33-6.85-12.72-8.75-21.11-6.71-1.41.34-2.76.86-3.91,1.23-1.7-2.78-3-5.7-5-8-7.69-8.78-22.76-9-31.1-.87a6.8,6.8,0,0,1-3.66,1.61c-4.1.61-8.24,1-12.52,1.44,1.87-4.34,5.2-7.6,9.22-10.26,9.24-6.14,19.63-7.06,30.2-6,24.42,2.48,46.09,12,65.53,26.73,22.71,17.19,36.51,40.16,43.19,67.62.35,1.42.62,2.86.89,4.29S616.65,313.66,616.78,314.42Z"/>
    <path class="cls-1" d="M225,314.48a120.13,120.13,0,0,1,24.06-55.12c15.32-19.7,35.72-32.2,58.71-40.9a91.72,91.72,0,0,1,37.43-6.27c9.69.51,18.49,3.54,25.25,11a23.38,23.38,0,0,1,2.14,2.71c.58.85,1.05,1.78,1.53,2.61-4.88-.43-9.67-.84-14.45-1.32a2.31,2.31,0,0,1-1.22-.87c-10.16-11.5-31.85-7.75-36.12,8,0,.09-.13.15-.26.3-7.67-3.27-15-3.05-21.84,2.27a7.83,7.83,0,0,0-2.47,2.38c-1.83,3.85-4.83,3.82-8.54,3.53-11.78-.92-20.91,5.49-23.75,16.21,0,.1-.12.2-.11.29.51,6.64-3.09,11.23-7.17,16a30.24,30.24,0,0,0-7.59,17.92c0,.67-1,1.47-1.66,1.88-5.65,3.22-10.82,6.9-15,12.07C231.45,310.15,227.81,312.22,225,314.48Z"/>
    <path class="cls-1" d="M574.4,436.93c-5.29-6.13-10.63-12.12-15.74-18.31A26.84,26.84,0,0,1,552.21,403c-.3-4.57-1.32-9.09-1.94-13.64-.1-.72,0-1.86.45-2.21,7-5.4,14.46-10,23.82-9.78,7.73.22,12.86,5.35,14.37,13.51,1.27,6.92-.14,13.46-1.89,20A79.69,79.69,0,0,1,574.4,436.93Z"/>
    <path class="cls-1" d="M267.75,437.23c-7.55-10.3-12.57-21.3-14.46-33.52a42.87,42.87,0,0,1,0-13.33c1.7-10.3,9.66-15.1,19.93-12.58a43.34,43.34,0,0,1,17.12,8.76,3.71,3.71,0,0,1,1.21,2.82c-.8,6.32-1.2,12.78-2.94,18.85-1.21,4.25-4.08,8.13-6.69,11.84-2.09,3-5,5.33-7.36,8.14S270.15,434,267.75,437.23Z"/>
    <path class="cls-1" d="M223.77,336.35c1.66,2.62,3,5.48,5,7.82,7.85,9.26,20,7.17,24-4.22a31.2,31.2,0,0,0-1.23-24.05,29.24,29.24,0,0,0-2.92-4.29c4.89-4.27,13.34-1.67,16.49,4.83,2,4.12,2.18,8.49,1.81,12.87-.81,9.69-4,18.46-11.62,24.9-6.85,5.8-14.79,8.15-23.65,5.14-4-1.35-6.91-3.7-7.14-8.48s-.87-9.75-1.33-14.61Z"/>
    <path class="cls-1" d="M618.7,335.79c-.55,5.61-.94,11.25-1.69,16.84-.56,4.14-6.07,7.64-12,7.91-8.61.4-15.92-2.57-21.4-9.2-8.27-10-11-21.51-7.24-34,2-6.56,10-9.69,15.59-6.87a11.39,11.39,0,0,1,1.29.88c-6.55,8.5-7.6,17.79-4.62,27.65,1.68,5.53,5,9.83,11.06,10.76,6.26,1,11-2.08,14.48-7a70.62,70.62,0,0,0,4-7Z"/>
    <path class="cls-1" d="M250.82,330.25c-1.29,3.34-2.15,6.94-4,10-2.92,4.87-8.29,5.35-12.63,1.64-6.85-5.88-8.06-19.11-2.39-26.08a8.08,8.08,0,0,1,11.94-1C248.27,318.83,249.89,324.1,250.82,330.25Z"/>
    <path class="cls-1" d="M613.51,327.36a19.49,19.49,0,0,1-4.77,13.26c-4.19,4.84-9.54,4.61-13.55-.39-5.58-6.94-3.57-20.93,3.73-26,3.26-2.28,8.87-1.16,11.45,2.29C612.69,319.6,613.6,322.76,613.51,327.36Z"/>
    <path class="cls-1" d="M579.52,374.09c-11.59.23-18.15-6.46-22.36-16.08-4.92-11.25-6.51-22.82-2.37-34.73.39-1.11,1-2.17,1.68-3.76C561,348.71,562.53,352.24,579.52,374.09Z"/>
    <path class="cls-1" d="M285.9,319.7c1,3.34,2.34,6.63,2.8,10,1.73,12.67-.67,24.5-8,35.18-4.42,6.46-10.71,9.16-18.65,9.25a83,83,0,0,0,16.56-25.08c3.95-9.31,6.47-18.93,6.17-29.16Z"/>
    <path class="cls-1" d="M486.82,235c-7.26,2-7.45,10.52-3.12,15.8,4.18,5.08,8.17,6.11,16.19,4.39A9.34,9.34,0,0,1,489.65,261C478.38,259.48,469,248,466.18,238.42a2.53,2.53,0,0,1,.92-2.23A26.18,26.18,0,0,1,486.82,235Z"/>
    <path class="cls-1" d="M354.84,235c6-2.5,14.34-1.67,20.34,1.89-1.24,10.6-13.37,22.89-23.83,24.14a9.37,9.37,0,0,1-10.12-6.14c4.35,1.83,8.42,1.8,12.33-.61a14,14,0,0,0,6.43-8.16C361.48,241,359.76,237.16,354.84,235Z"/>
    <path class="cls-1" d="M411.2,260.05c6.8-11,8.49-22.68,6.69-35.19H424c-1.87,12.63,0,24.43,6.74,35.21C424.86,265.75,416.89,265.77,411.2,260.05Z"/>
    <path class="cls-1" d="M286.14,368.46a62.36,62.36,0,0,0,8.8-35.34c3.12,0,8.62,3.87,9.2,6.51a4.63,4.63,0,0,1-.65,2.27c-2.66,6.66-5.28,13.35-8.08,20a8.26,8.26,0,0,1-2.87,3.59A48.68,48.68,0,0,1,286.14,368.46Z"/>
    <path class="cls-1" d="M555.5,368.37c-2.45-1.14-5-2.18-7.31-3.49a4.53,4.53,0,0,1-1.62-2.33c-2.8-7.49-5.52-15-8.56-23.3a12.39,12.39,0,0,1,8.67-6.27A66.23,66.23,0,0,0,555.5,368.37Z"/>
    <path class="cls-1" d="M331.06,589.53c.89,2.5,1.77,4.82,2.51,7.19a1.88,1.88,0,0,1-.37,1.64c-3,2.48-6.3,4.49-10.43,4.45-2.44,0-3.18-1.18-2.28-3.45C322.44,594.44,326.41,591.74,331.06,589.53Z"/>
    <path class="cls-1" d="M510.07,589.6a18.65,18.65,0,0,1,9.84,8.11,5.4,5.4,0,0,1,.5,4.28c-.32.7-2.76,1-3.92.62a50.24,50.24,0,0,1-8-3.93,2.67,2.67,0,0,1-.64-2.36C508.38,594.14,509.23,592,510.07,589.6Z"/>
    <path class="cls-1" d="M365.9,346.27c0,3.3-2.49,6.42-5.21,6.52-2.49.1-4.81-2.6-4.82-5.59,0-3.33,2.81-6.61,5.58-6.5C363.89,340.79,365.9,343.31,365.9,346.27Z"/>
    <path class="cls-1" d="M485.12,347.06c0,3.3-1.85,5.74-4.48,5.73-2.82,0-5.16-2.87-5.2-6.38s1.8-5.72,4.48-5.71S485.06,343.55,485.12,347.06Z"/>
    <path class="cls-1" d="M345.25,248.34c-4,0-5.48-2.25-3.78-4.36a16.63,16.63,0,0,1,5.75-4.28c.84-.39,2.91.54,3.59,1.47a3.7,3.7,0,0,1-.47,3.57A33.6,33.6,0,0,1,345.25,248.34Z"/>
    <path class="cls-1" d="M492.7,239.36c3-.05,6.85,3,7.36,5.38s-.75,4.1-2.94,3.42a20.81,20.81,0,0,1-6.46-3.87c-.61-.48-.76-2.32-.34-3.12S492.17,239.73,492.7,239.36Z"/>
  </g>
</svg>
