<svg id="Livello_1" data-name="Livello 1" xmlns="http://www.w3.org/2000/svg" viewBox="0 0 841.89 841.89">
  <defs>
    <style>
      .cls-1 {
        fill: #231f20;
      }
    </style>
  </defs>
  <title>Glos</title>
  <g>
    <path class="cls-1" d="M420.81,343.06c-.16-.13.73,0,0,0Z"/>
    <path class="cls-1" d="M421.09,343.06c-.73,0,.12-.13,0,0Z"/>
    <path class="cls-1" d="M457.81,235c-11.45-1.34-25.92-3.82-36.87-3.82s-25.41,2.48-36.86,3.82c-6.78-11.8-7.57-24-2-36.26,6.55-14.38,22-23.51,38.83-23.51s32.26,9.13,38.84,23.51C465.38,211.05,464.59,223.23,457.81,235Z"/>
    <path class="cls-1" d="M420.94,270.75a22.39,22.39,0,0,1-20.83-29.87c5.18-.47,15.21-1.53,20.83-1.52s15.65,1,20.84,1.52A22.39,22.39,0,0,1,420.94,270.75Z"/>
    <path class="cls-1" d="M148,545.71c-4.14-4.74-8-9.76-12.45-14.18-7.7-7.63-12.45-8.07-21.32-1.57-7.64,5.6-16,6.43-24.64,4.65-13-2.67-22.29,1.7-28.68,13a51.82,51.82,0,0,1-3.38,4.6c-1.65-5.26-.86-9.66-.44-14,1-10.76,4.07-20.88,10.26-29.9,11.49-16.74,29.69-21.18,47.39-11.19,15.33,8.67,24.47,22.5,30.81,38.46,1.12,2.82,1.94,5.75,2.82,8.66C148.46,544.7,148.11,545.24,148,545.71Z"/>
    <path class="cls-1" d="M598.48,367.94c1.91,13.67,4.44,26.62,5.35,39.68s.2,26.31.2,40.32c3.6-.54,6.51-.81,9.35-1.41,37.4-7.92,70.55-23.95,97.2-51.9,15.55-16.32,26.67-35.16,30.55-57.73,3.74-21.77-.45-41.88-12.76-60.26-1.13-1.69-2.5-3.23-3.51-5-2.08-3.59,46.6-8.12,50.84-17.82,1.48-3.39-3.36-6.44-5.61-10.74,9.59-1.77,16.57,3.37,24.89,4.37,3.34-3.57,4.39-8.24,2.91-13.44-3.82-13.42-11.14-23.42-26.42-23.77-3.44-.08-7.84.29-10-2.29-2.55-3.06,17.31-16.19,23.1-21.82,3-2.92,5.2-6.92,6.95-10.79,2.22-4.94-.24-8.08-5.69-7.33-3.72.51-67.84,44.6-72,36.14-4.35-8.78,9.62-29.38-2-30.55-6.12-.63-26.57,45.24-34.36,61.18a106.27,106.27,0,0,0-8.4,25.91c-2.16,11,1.68,20.42,10.4,27.85a84.06,84.06,0,0,1,10.64,10.87c11.57,14.24,10.35,30.2-3.24,42.68a94.62,94.62,0,0,1-32.42,19.5C636.56,368,618.26,371.26,598.48,367.94Z"/>
    <path class="cls-1" d="M243.41,367.94c-1.91,13.67-4.44,26.62-5.35,39.68s-.2,26.31-.2,40.32c-3.6-.54-6.51-.81-9.35-1.41-37.4-7.92-70.55-23.95-97.2-51.9-15.55-16.32-26.67-35.16-30.55-57.73-3.74-21.77.45-41.88,12.76-60.26,1.13-1.69,2.5-3.23,3.51-5,2.08-3.59-46.6-8.12-50.84-17.82-1.48-3.39,3.36-6.44,5.61-10.74-9.59-1.77-16.57,3.37-24.89,4.37C43.57,243.9,42.52,239.23,44,234c3.82-13.42,11.14-23.42,26.42-23.77,3.44-.08,7.84.29,10-2.29,2.55-3.06-17.31-16.19-23.11-21.82-3-2.92-5.19-6.92-6.94-10.79-2.22-4.94.24-8.08,5.69-7.33,3.72.51,67.84,44.6,72,36.14,4.35-8.78-9.62-29.38,2-30.55,6.12-.63,26.57,45.24,34.36,61.18a106.27,106.27,0,0,1,8.4,25.91c2.16,11-1.68,20.42-10.4,27.85a84.06,84.06,0,0,0-10.64,10.87c-11.57,14.24-10.35,30.2,3.24,42.68a94.62,94.62,0,0,0,32.42,19.5C205.33,368,223.63,371.26,243.41,367.94Z"/>
    <path class="cls-1" d="M693.92,545.71c4.14-4.74,8-9.76,12.45-14.18,7.7-7.63,12.45-8.07,21.32-1.57,7.64,5.6,16,6.43,24.64,4.65,13-2.67,22.29,1.7,28.68,13a51.82,51.82,0,0,0,3.38,4.6c1.65-5.26.86-9.66.44-14-1.05-10.76-4.07-20.88-10.26-29.9-11.49-16.74-29.69-21.18-47.39-11.19-15.33,8.67-24.47,22.5-30.81,38.46-1.12,2.82-1.94,5.75-2.82,8.66C693.43,544.7,693.78,545.24,693.92,545.71Z"/>
    <path class="cls-1" d="M774.15,621.23c6.46,6.42,6.59,9.19-1.24,14.21a114.29,114.29,0,0,1-21,10.5,95.12,95.12,0,0,1-33.43,6.65c-6.05.06-7.1,1.69-6.18,7.51.39,2.45.7,4.86,1,7-8.55,5.12-10.94,5.82-20,6.52a125.79,125.79,0,0,1-51.66-7.13c-4.3-1.49-8-2.07-12.22.54-3.85,2.32-8.3,3.75-12.62,5.19-6.43,2.16-8.72,1.4-11.52-4.81a77.27,77.27,0,0,1-5.06-15.9,113.29,113.29,0,0,0-11.1-30.67c-5.28-9.82-10-20-15-30a77.88,77.88,0,0,0-5.12-9.32c-1.47-2.23-3.37-4.52-7.1-3.15,2.07,10-3.11,17.46-8,25.45-8.08-10.53-11.83-27.58-9.7-42.5a35.83,35.83,0,0,0,.7-7.54,4.16,4.16,0,0,0-2.55-3.12c-1-.19-2.67,1-3.53,2s-.86,2.35-1.14,3.59c-4.87,22.14-.54,41.8,15.49,58.47,1.24,1.3,2.42,3.53,2.26,5.18-.67,6.49-1.63,13-6.21,18.29-10.94-8.94-10.94-8.94-16.06-7.92-1.84,4.58-3.08,9.61-8.49,12.34a65.91,65.91,0,0,0-17.24-26.88c-5.79-5.34-11.84-5.5-17.59-.12-2.77,2.54-4.81,5.88-7.29,8.75-5,5.66-10.05,11.22-14.95,16.73-7.41-3.6-12.21-8.37-15.49-14.57s-6.3-12.73-9.19-19.21c-1.5-3.34-3.41-5-7.51-3.06a80.5,80.5,0,0,1-14.54,49.66,80.5,80.5,0,0,1-14.53-49.66c-4.11-1.91-6-.28-7.51,3.06-2.9,6.48-5.89,12.94-9.19,19.21s-8.08,11-15.49,14.57c-4.9-5.51-10-11.07-15-16.73-2.48-2.87-4.51-6.21-7.28-8.75-5.76-5.38-11.8-5.22-17.59.12a65.81,65.81,0,0,0-17.24,26.88c-5.41-2.73-6.65-7.76-8.49-12.34-5.12-1-5.12-1-16.07,7.92-4.58-5.28-5.53-11.8-6.2-18.29-.16-1.65,1-3.88,2.26-5.18,16-16.67,20.36-36.33,15.49-58.47-.29-1.24-.38-2.7-1.15-3.59s-2.48-2.2-3.53-2a4.13,4.13,0,0,0-2.54,3.12,35.83,35.83,0,0,0,.7,7.54c2.13,14.92-1.62,32-9.7,42.5-4.87-8-10.05-15.46-8-25.45-3.72-1.37-5.63.92-7.09,3.15a77.88,77.88,0,0,0-5.12,9.32c-5,10-9.7,20.17-15,30a113.65,113.65,0,0,0-11.11,30.67,76.64,76.64,0,0,1-5,15.9c-2.8,6.21-5.09,7-11.52,4.81-4.32-1.44-8.78-2.87-12.63-5.19-4.23-2.61-7.92-2-12.21-.54a125.79,125.79,0,0,1-51.66,7.13c-9-.7-11.42-1.4-20-6.52.32-2.14.64-4.55,1-7,.92-5.82-.13-7.45-6.17-7.51A95.07,95.07,0,0,1,90,645.94a114.7,114.7,0,0,1-21-10.5c-7.82-5-7.69-7.79-1.24-14.21.89-.89,1.85-1.72,3-2.8-11.07-22.37-18.29-44.82-.19-67.6a33,33,0,0,1,.48,4.58c-1.18,42.66,26.4,83.66,72.2,93.17,20.74,4.3,41,.83,59.68-9.54,30.92-17.15,49.34-44,58.69-77.39a127.91,127.91,0,0,0,.12-70,46.83,46.83,0,0,0-3.34-9.32c-8.84-17.28-13.86-35.82-13.9-55-.16-76.72,31.34-145.46,113-176.89,9.42-3.63,32.25-8.24,34.39-8.34-1,8.66-.83,16.86,4.07,24.24,5,7.57,9.89,11.07,18.7,12.15,0,9.67.38,26.09,0,24.88-.44-1.43-3.27-7.57-4.55-7.67-1-.06-2.7,1.78-3.31,3.15-1.05,2.42-1.49,5.09-2.41,8.53-5.51-2.83-7.32-6.87-8.05-11.33a132.44,132.44,0,0,1-1.21-13.67c-.35-6.72-1.91-13.05-5.6-18.77-6.68-10.34-17.65-13.9-29.2-9.51a36.51,36.51,0,0,0-15.68,11.7c-7.73,9.64-11.45,20.87-12.63,33a28.85,28.85,0,0,0,2.58,15.59,16.72,16.72,0,0,1,1,13.32c-2.1,5.67-4.71,6.59-9.67,3.28-5.63-3.75-6.3-3.24-8,3.5a61.12,61.12,0,0,1-4.9,12.69c-1.62,3.15-4.26,6.27-8.27,5.69s-5.57-4.29-6.24-7.82a71.56,71.56,0,0,1-1.05-11.32c-.06-2.45-.12-5.09-2.92-5.32-1.53-.09-3.79,1.43-4.71,2.87a22.74,22.74,0,0,0-3.44,8.36c-3.18,20-2.76,39.7,7.67,57.77,4.42,7.63,10.37,14.38,15.52,21.63,3.69,5.15,7.57,10.21,10.72,15.68,1.94,3.31,4.11,7.13,1.37,12.37-3.18-2.29-6.11-4.39-9.7-7-.22,1.9-.7,3.46-.54,5,.76,7.32,2,14.6,2.38,21.95.42,7.73-1.59,14.89-7.22,20.8-6.61-2.92-6.55-9.29-9-14-4.55,0-5.6,3-5.31,6.14.51,5.53,1,11.16,2.58,16.44,3.56,12.15,7.89,24.11,11.64,36.23a87.47,87.47,0,0,1,3.91,30.09,35.05,35.05,0,0,0,.48,5c3.4,1.65,5.53.57,6-2.55a66.79,66.79,0,0,0,.54-11.32c-.44-15.75-5.76-30.35-11-44.95-1.59-4.52-3-9.13-4.77-14.44,12.75.57,16.38-7.86,18.13-17.56,1.17-6.68,1.46-13.52,2.13-20.33,8.17-1,10.24-3.62,9.16-11.89-1.11-8.59-5.31-15.84-10.24-22.68-5.06-7-10.69-13.58-15.81-20.55-10.63-14.31-14.06-30.57-12.73-49.34,2.1,2.07,3.28,3.57,4.74,4.71,8,6.24,13.74,5.06,18.55-1.18,3.66-4.77,6.3-10.3,9.57-15.81.07,0,.16,0,.26,0,12.69.35,18.64-5.66,17.87-18.41a27.26,27.26,0,0,0-1.87-8.91c-3.44-8-2.71-15.91-.13-23.79A48.66,48.66,0,0,1,355,267.13a36.19,36.19,0,0,1,8.15-5.54c8.23-4,14-2.16,18.45,5.85,4,7.22,5.66,15.18,6.68,23.29a104.32,104.32,0,0,0,1.62,10.56c2.42,10.88,9,14.54,19.5,11,7.76,5.18,8.65,7.79,5.18,16.22A35.08,35.08,0,0,1,401,344.64c-13,8.66-27.2,12.12-42.79,9.58a101.4,101.4,0,0,0-13.61-1.11,12,12,0,0,0-5.79,1.43c-1.05.57-2.26,2.76-1.91,3.5.64,1.3,2.83,3.08,3.66,2.8,8-2.87,15.65.47,23.38,1,17.43,1.15,32.48-3.88,45.77-14.92,1.53-1.3,3.34-2.7,4.87-4a33.42,33.42,0,0,1,0,14.66c-2.61,11.13-7.57,21.12-15.9,29A47.4,47.4,0,0,1,388.12,394c-3.95,2.1-7.8,2-12-.86a49,49,0,0,0-14.57-6.3,28.56,28.56,0,0,0-11.93-.51c-11.22,1.88-22.36,4.27-33.49,6.65-1.4.32-3.31,1.81-3.53,3-.48,2.48,1.59,3.6,3.85,3.5q6.43-.24,12.88-1c2.7-.32,5.34-1.09,8.56-1.75.7,7.34,3.31,13.48,11.32,14.06,9.29.66,15.11-4.71,19-13.81,5.92,2.83,10.75,7.7,17.31,5.28,5.37-2,10.56-4.48,16.31-6.93,1.44,8.81.64,17.49-1.05,26.18-2,10.62-5.63,20.61-12.05,29.36-3.56,4.86-7.25,9.76-13.84,11.22-3.47.8-4.23,4.17-4.8,7.16C368,480.66,375.87,490,387.48,490a38.08,38.08,0,0,0,4.42-.48c3.34,2.49,6.33,5.25,9.8,7.22,3.28,1.85,10.18,2.84,14.25,4.43v33c-7.38,1.4-17.11-.7-23.16-4.45-4.74-2.93-7.6-2.36-8.62,3a21.92,21.92,0,0,0,.45,9.73c4.71,16.32,18.59,30,36.32,30s31.62-13.71,36.33-30a21.92,21.92,0,0,0,.45-9.73c-1-5.35-3.89-5.92-8.63-3-6,3.75-15.77,5.85-23.15,4.45v-33c4.07-1.59,11-2.58,14.25-4.43,3.47-2,6.46-4.73,9.8-7.22a37.85,37.85,0,0,0,4.42.48c11.61.06,19.53-9.32,17.43-20.74-.57-3-1.34-6.36-4.8-7.16-6.59-1.46-10.28-6.36-13.84-11.22-6.43-8.75-10.05-18.74-12.06-29.36-1.68-8.69-2.48-17.37-1.05-26.18,5.76,2.45,11,4.93,16.32,6.93,6.55,2.42,11.39-2.45,17.3-5.28,3.89,9.1,9.71,14.47,19,13.81,8-.58,10.62-6.72,11.32-14.06,3.21.66,5.85,1.43,8.56,1.75q6.43.75,12.88,1c2.26.1,4.32-1,3.85-3.5-.22-1.21-2.13-2.7-3.53-3-11.14-2.38-22.27-4.77-33.5-6.65a28.57,28.57,0,0,0-11.93.51,49.22,49.22,0,0,0-14.57,6.3c-4.23,2.89-8.07,3-12,.86a47.18,47.18,0,0,1-10.56-7.32c-8.33-7.92-13.3-17.91-15.9-29a33.42,33.42,0,0,1,0-14.66c1.52,1.3,3.33,2.7,4.86,4,13.3,11,28.34,16.07,45.78,14.92,7.73-.54,15.39-3.88,23.38-1,.82.28,3-1.5,3.65-2.8.35-.74-.86-2.93-1.91-3.5a12,12,0,0,0-5.78-1.43,101.68,101.68,0,0,0-13.62,1.11c-15.59,2.54-29.77-.92-42.78-9.58a35,35,0,0,1-13.58-16.09c-3.47-8.43-2.58-11,5.18-16.22,10.53,3.5,17.08-.16,19.5-11,.79-3.47,1.18-7,1.62-10.56,1-8.11,2.71-16.07,6.68-23.29,4.42-8,10.21-9.89,18.45-5.85a35.91,35.91,0,0,1,8.14,5.54,48.68,48.68,0,0,1,13.78,21.63c2.57,7.88,3.31,15.8-.13,23.79a27,27,0,0,0-1.88,8.91c-.76,12.75,5.19,18.76,17.88,18.41.1,0,.19,0,.25,0,3.28,5.51,5.92,11,9.58,15.81,4.8,6.24,10.53,7.42,18.54,1.18,1.47-1.14,2.64-2.64,4.74-4.71,1.34,18.77-2.1,35-12.72,49.34-5.12,7-10.75,13.55-15.81,20.55-4.93,6.84-9.13,14.09-10.24,22.68-1.08,8.27,1,10.91,9.16,11.89.67,6.81,1,13.65,2.13,20.33,1.75,9.7,5.38,18.13,18.13,17.56-1.75,5.31-3.18,9.92-4.77,14.44-5.22,14.6-10.53,29.2-11,44.95a66.79,66.79,0,0,0,.54,11.32c.44,3.12,2.57,4.2,6,2.55a33.68,33.68,0,0,0,.47-5,87.48,87.48,0,0,1,3.92-30.09c3.75-12.12,8.08-24.08,11.64-36.23,1.56-5.28,2.07-10.91,2.58-16.44.28-3.15-.77-6.11-5.32-6.14-2.41,4.67-2.35,11-9,14-5.63-5.91-7.63-13.07-7.22-20.8.38-7.35,1.62-14.63,2.39-21.95.16-1.53-.32-3.09-.54-5l-9.7,7c-2.74-5.24-.58-9.06,1.36-12.37,3.15-5.47,7-10.53,10.72-15.68,5.16-7.25,11.1-14,15.53-21.63,10.43-18.07,10.84-37.79,7.66-57.77a22.55,22.55,0,0,0-3.43-8.36c-.93-1.44-3.18-3-4.71-2.87-2.8.23-2.86,2.87-2.93,5.32a70.4,70.4,0,0,1-1,11.32c-.66,3.53-2.16,7.22-6.23,7.82s-6.65-2.54-8.27-5.69a60.57,60.57,0,0,1-4.9-12.69c-1.69-6.74-2.35-7.25-8-3.5-5,3.31-7.57,2.39-9.67-3.28a16.77,16.77,0,0,1,1-13.32A28.94,28.94,0,0,0,510,298.84c-1.18-12.12-4.9-23.35-12.63-33a36.51,36.51,0,0,0-15.68-11.7c-11.55-4.39-22.53-.83-29.21,9.51-3.69,5.72-5.24,12-5.59,18.77a132.44,132.44,0,0,1-1.21,13.67c-.73,4.46-2.55,8.5-8.05,11.33-.92-3.44-1.37-6.11-2.42-8.53-.6-1.37-2.26-3.21-3.31-3.15-1.27.1-4.1,6.24-4.54,7.67-.39,1.21,0-15.21,0-24.88,8.81-1.08,13.71-4.58,18.7-12.15,4.9-7.38,5.06-15.58,4.07-24.24,2.13.1,25,4.71,34.39,8.34,81.65,31.43,113.14,100.17,113,176.89,0,19.15-5.05,37.69-13.9,55a48.12,48.12,0,0,0-3.34,9.32,127.91,127.91,0,0,0,.13,70c9.35,33.43,27.77,60.24,58.69,77.39,18.7,10.37,38.93,13.84,59.67,9.54,45.81-9.51,73.39-50.51,72.21-93.17a33,33,0,0,1,.48-4.58c18.1,22.78,10.87,45.23-.19,67.6C772.31,619.51,773.26,620.34,774.15,621.23Z"/>
    <path class="cls-1" d="M465.1,474.59c-1.05,6.45-7.77,10-13.9,7.6-2.45-.92-4.62-3.56-7.58-1.24-2.22,8.65-11.83,12.12-22.67,12.24-10.85-.12-20.46-3.59-22.69-12.24-2.95-2.32-5.12.32-7.57,1.24-6.14,2.35-12.85-1.15-13.9-7.6-.25-1.63.51-4.43,1.72-5.16,20.61-12.37,27-32.63,30.16-54.49a79.32,79.32,0,0,0,.19-20.48c-.61-5.16-.16-9.35,3.21-13.3,1.3-1.49,7.89-3.37,8.88-4.93,1,1.56,7.57,3.44,8.87,4.93,3.37,3.95,3.82,8.14,3.21,13.3a79.32,79.32,0,0,0,.19,20.48c3.15,21.86,9.55,42.12,30.16,54.49C464.59,470.16,465.35,473,465.1,474.59Z"/>
    <path class="cls-1" d="M420.8,343.06c.73,0-.13-.13,0,0Z"/>
    <path class="cls-1" d="M421.08,343.06c.16-.13-.73,0,0,0Z"/>
  </g>
</svg>
