<svg id="Livello_1" data-name="Livello 1" xmlns="http://www.w3.org/2000/svg" viewBox="0 0 841.89 841.89">
  <defs>
    <style>
      .cls-1 {
        fill: #231f20;
      }
    </style>
  </defs>
  <title>Glos</title>
  <g>
    <g>
      <path class="cls-1" d="M802.53,392.15a8.83,8.83,0,0,1-1.75,1.76q-11.94,10.95-23.9,21.88Q749.34,441,721.8,466.18c-1,.92-2,1.81-3.09,2.66a200.14,200.14,0,0,0-19.24,17.7c-.22.23-.46.45-.66.7a1.94,1.94,0,0,0,1.31,3.22,1.69,1.69,0,0,0,1.11-.27,8.28,8.28,0,0,0,1.22-1.15c6-6.18,12.41-12,18.81-17.83.48-.43,1-.85,1.47-1.23a110.36,110.36,0,0,1,39.87-19.35A84.58,84.58,0,0,1,784.94,448a71.71,71.71,0,0,1,14.74,1.83,7.35,7.35,0,0,1,.91.28c.06,0,.07.13.12.24,0,.69-.7.75-1.15,1l-16.69,9q-28.64,15.39-57.28,30.76c-3.25,1.73-6.59,3.27-9.84,5-4.51,2.41-9,4.92-13.46,7.39-2.38,1.31-4.75,2.63-7.13,4a9.84,9.84,0,0,0-1.41.89,1.6,1.6,0,0,0-.29,2,1.59,1.59,0,0,0,1.85.73,15.69,15.69,0,0,0,1.94-.93C703.1,507,709,504,714.78,500.7a56.67,56.67,0,0,1,12.89-5.13,102.51,102.51,0,0,1,33.76-3.29c3.42.21,6.82.85,10.22,1.31a4.76,4.76,0,0,1,.83.25c0,.56-.31.6-.61.65l-28.77,5.34c-1.18.22-2.36.42-3.54.66a5.39,5.39,0,0,0-1.36.43,1.55,1.55,0,0,0-.21,2.61,5.64,5.64,0,0,0,1.76.65c1.48.35,3,.55,4.44,1a11.55,11.55,0,0,1,3,1.47,1.9,1.9,0,0,1,.52,2.92,8.1,8.1,0,0,1-2,2.09,45.22,45.22,0,0,1-5.11,3.11,60.28,60.28,0,0,1-13.59,4.65,92.84,92.84,0,0,1-16.6,2.34,48.36,48.36,0,0,1-11.71-.68,3.08,3.08,0,0,0-3,.94,2.17,2.17,0,0,0-.61,2.2c.07.23.13.46.21.69a54.92,54.92,0,0,1,2.79,21.51,47.39,47.39,0,0,1-.59,4.75,10.49,10.49,0,0,1-2,4.34,17,17,0,0,0-1.07,1.59,1.51,1.51,0,0,0,.17,1.79,1.65,1.65,0,0,0,2,.44,8.16,8.16,0,0,0,1.17-.81c.91-.64,1.78-1.36,2.74-1.91q29.87-17.13,59.76-34.22a29.24,29.24,0,0,0,3-1.49,20.94,20.94,0,0,0,2.08-2.3,20.25,20.25,0,0,1,6.17-4.09,31.19,31.19,0,0,1,16.6-2.71,14.45,14.45,0,0,1,5.28,1.51,11.17,11.17,0,0,1,2.51,1.8,4.43,4.43,0,0,1,1.16,4.64,8.74,8.74,0,0,1-1.89,3.31,16.65,16.65,0,0,1-4.45,3.61,30.32,30.32,0,0,1-19.86,3.9,28.24,28.24,0,0,1-3.69-1,9.8,9.8,0,0,0-2.08-.33,5,5,0,0,0-3.5,1.2q-18.4,13-36.84,26.06Q702.38,572.32,680,588.11c-2.42,1.71-4.89,3.35-7.41,4.89a14.39,14.39,0,0,1-3.71,1.61,4.1,4.1,0,0,1-5.35-3.1,10.81,10.81,0,0,1-.4-4.27,26.34,26.34,0,0,1,3.9-11c.41-.68,1-1.24,1.48-1.88a1.64,1.64,0,0,0,.09-2,1.61,1.61,0,0,0-2.8-.23c-1.6,2.08-3.94,3-6.13,4.07a24.4,24.4,0,0,1-8.53,2.73c-.2-.81-.4-1.65-.61-2.49a22.49,22.49,0,0,0-6.46-11.29,10.58,10.58,0,0,0-1.49-1.2,1.58,1.58,0,0,0-2.14.43,1.5,1.5,0,0,0,0,2c.46.55,1,1,1.54,1.51A19.06,19.06,0,0,1,647.71,580a11.69,11.69,0,0,1-.85,5.64c-.56,1.32-1.1,2.66-1.79,3.92a43.23,43.23,0,0,1-12,13.85A21.11,21.11,0,0,1,626.3,607a5,5,0,0,1-2.81.09c-2-.52-2.57-.06-2.84,2a39,39,0,0,0-.36,4.3,77.34,77.34,0,0,0,1.16,14.33c.66,4,1.32,8,1.88,12.09a22,22,0,0,1,.11,4.3,92,92,0,0,1-1.68,12.59,49.83,49.83,0,0,0-.86,5.93c-.36,4.23-.75,8.45-.9,12.69a53.45,53.45,0,0,0,3.34,21.43,58.22,58.22,0,0,0,3.07,6.49c1.12,2.09,2.67,2.7,5,2.25a38.21,38.21,0,0,1,18.28.77,28.9,28.9,0,0,1,4.65,1.9,13,13,0,0,1,2.92,2.08c2.5,2.35,2.45,4.76-.15,7a12.33,12.33,0,0,1-3.24,2,32.8,32.8,0,0,1-5.71,1.77,37.72,37.72,0,0,1-17.35-.73,4.86,4.86,0,0,1-2.46-1.36,10.86,10.86,0,0,0-7.17-3.51c-2.94-.3-5.9-.34-8.86-.48-.78,0-1.56,0-2.3,0a156.68,156.68,0,0,0-1.11-23.8c-.47-4.3-.9-8.6-1.52-12.87q-1.21-8.43-2.72-16.81c-.94-5.19-1.94-10.37-3.11-15.51a54.51,54.51,0,0,0-5.69-15,32.07,32.07,0,0,1-1.59-3.22,35.45,35.45,0,0,0-5.71-8.83c-.92-1.11-1.83-2.23-2.67-3.4a7,7,0,0,1-.83-6.63,12.69,12.69,0,0,1,3.78-5.47A68.12,68.12,0,0,1,599,596.08,31.24,31.24,0,0,0,611,583a16.17,16.17,0,0,0,1.72-9.3,8.71,8.71,0,0,0-5.46-7.32,22.13,22.13,0,0,0-3.65-1.16,49.8,49.8,0,0,0-17.17-.76A80.23,80.23,0,0,0,561,572.11c-24.75,11.8-47,34.46-58.55,59.36a95.36,95.36,0,0,0-7.34,24.26,32.51,32.51,0,0,0-.49,4,8.68,8.68,0,0,0,.27,2.83,1.52,1.52,0,0,0,2.55.52,8.64,8.64,0,0,0,1.12-1.82,141.19,141.19,0,0,1,13.39-21A88.53,88.53,0,0,1,525.51,626a48.46,48.46,0,0,1,7.91-5.4,26.63,26.63,0,0,1,8.09-2.93c5.68-1,10.24.83,13.56,5.58a23.18,23.18,0,0,1,3.25,7.18,43.52,43.52,0,0,1,1.51,9.21,92.69,92.69,0,0,1-2.7,26.65A155.34,155.34,0,0,1,538,712.15a15.89,15.89,0,0,0-1.11,1.85,2.25,2.25,0,0,0,1.93,3.3c.55.05,1.12,0,1.68,0l78,1.33c.88,0,1.76,0,2.64.12a7.66,7.66,0,0,1,4.14,1.74,3.91,3.91,0,0,1,.88,5.72,9.64,9.64,0,0,1-2.18,2.19,12.33,12.33,0,0,1-6,2.31,22.89,22.89,0,0,1-2.87.14l-72.25-.66-39.61-.39c-2.33,0-3-.6-3.21-2.86-.28-3.62,2.11-7.6,4.81-8.74,5.49-2.31,9.91-6.12,13.92-10.42A78.37,78.37,0,0,0,529,693.67,119.08,119.08,0,0,0,542,660a127.34,127.34,0,0,0,2.25-13.72,6.31,6.31,0,0,0,0-1.44,1.76,1.76,0,0,0-1.48-1.37,1.66,1.66,0,0,0-1.65,1.13,7.38,7.38,0,0,0-.22,1.42,123,123,0,0,1-3.71,19.29A114.51,114.51,0,0,1,526.7,691a78.05,78.05,0,0,1-10.46,14.6,43.55,43.55,0,0,1-8.95,7.58,23.82,23.82,0,0,1-8.17,3.32,13.76,13.76,0,0,1-8.21-.93c-.44-.19-.86-.43-1.31-.58a1.63,1.63,0,0,0-2,.86,1.52,1.52,0,0,0,.45,1.93c.23.21.54.33.79.53a5.21,5.21,0,0,1,.6.62c-.49.25-.88.49-1.29.66a128.69,128.69,0,0,1-33.28,8.85,109.91,109.91,0,0,1-16.52.84A80.35,80.35,0,0,1,413.61,725a48,48,0,0,1-16-9,30.77,30.77,0,0,1-9.48-33.27A62.26,62.26,0,0,1,403,657.83a28.43,28.43,0,0,1,6.07-4.68,13.49,13.49,0,0,1,5.66-1.83,8,8,0,0,1,3.76.52,4,4,0,0,1,2.65,4.13,6.85,6.85,0,0,1-1.23,3.59,13,13,0,0,1-4.32,4.08,36.57,36.57,0,0,0-8.41,6.72,31.31,31.31,0,0,0-6.06,9.15c-3.21,7.83-2.36,15.17,2.7,22a29.61,29.61,0,0,0,7.53,7,49.14,49.14,0,0,0,16.53,6.88,74.34,74.34,0,0,0,22.17,1.6,82,82,0,0,0,24-5.41c.6-.23,1.2-.46,1.77-.74,2.22-1.07,2.8-2.62,1.76-4.89a106.07,106.07,0,0,1-7.37-22.77A125.58,125.58,0,0,1,468,666.75a127.31,127.31,0,0,1-.31-13.67,154.44,154.44,0,0,1,10-49.4A147.61,147.61,0,0,1,506.61,556a110.88,110.88,0,0,1,34.67-26.11c.14-.07.29-.12.54-.22a7.33,7.33,0,0,1,.88.67,42,42,0,0,0,20.81,10.8,60.64,60.64,0,0,0,19.56,1.12c1.91-.2,3.82-.41,5.72-.66a7.39,7.39,0,0,0,1.85-.47,1.53,1.53,0,0,0,.79-1.82,1.47,1.47,0,0,0-1.38-1.13,19.3,19.3,0,0,0-2.63.22,66.38,66.38,0,0,1-12.19.8c-7.6-.24-15-1.61-21.75-5.18a32.73,32.73,0,0,1-17.43-22.6,7.59,7.59,0,0,1-.09-1.17c0-.06.08-.13.18-.28.57.19,1.18.37,1.76.59a51.7,51.7,0,0,0,16.16,3.25,53.11,53.11,0,0,0,18-1.94,26.9,26.9,0,0,0,8-3.74,16.23,16.23,0,0,0,2.19-1.85c1.3-1.34,1.28-2.83-.21-3.9a33.57,33.57,0,0,0-4.91-3,47.78,47.78,0,0,0-12.82-3.84,116.86,116.86,0,0,0-52.43,3.59,7.66,7.66,0,0,1-.88.16,5.08,5.08,0,0,1,0-1.11,23.91,23.91,0,0,1,2.2-5.31,4.05,4.05,0,0,1,3-2.15c2.83-.55,5.63-1.23,8.43-1.86a6.19,6.19,0,0,0,1.37-.4,1.61,1.61,0,0,0,.91-1.78,1.59,1.59,0,0,0-1.56-1.26,11.2,11.2,0,0,0-1.89.28c-2.81.6-5.63,1.21-8.43,1.86a3.43,3.43,0,0,1-2.1-.09,22.07,22.07,0,0,1-8.17-5.3c-.05,0,0-.16,0-.24s.16-.27.28-.31a65.69,65.69,0,0,1,17-3.79,128.65,128.65,0,0,1,42.58,3.86c2.09.54,4.15,1.21,6.17,1.95a35.63,35.63,0,0,1,11,5.76,2.06,2.06,0,0,0,2.64.21,1.71,1.71,0,0,0,.57-2.49,11.32,11.32,0,0,0-1.23-1.46,81.76,81.76,0,0,0-21.9-17,80.8,80.8,0,0,0-26.95-9c-11.11-1.59-22-.91-32.58,3.2-.75.29-1.48.62-2.21.93l-2.21,1c-.16-.3-.35-.49-.35-.68a16.41,16.41,0,0,1,1.83-7.39,4.59,4.59,0,0,1,3.63-2.75c2.77-.39,5.5-1.06,8.24-1.62a6.93,6.93,0,0,0,1.37-.38,1.6,1.6,0,0,0-.67-3.05,8.37,8.37,0,0,0-1.66.2c-2,.38-3.91.84-5.88,1.17a10.88,10.88,0,0,1-11.56-6.57c.14-.48.56-.5.95-.57a112.89,112.89,0,0,1,29.35-2A100.69,100.69,0,0,1,551.54,447a78.54,78.54,0,0,1,26.39,15.8,64,64,0,0,1,12.52,15.69,11.59,11.59,0,0,0,1.34,2,1.57,1.57,0,0,0,2,.43,1.65,1.65,0,0,0,.89-2c-.29-1.16-.68-2.29-1-3.46a43.62,43.62,0,0,1-.72-20.19,30,30,0,0,1,6.56-13.71,23.1,23.1,0,0,1,10.36-7.08,6.94,6.94,0,0,0,.9-.34,2,2,0,0,0,1.13-2.17,3.75,3.75,0,0,0-2-2.85,10.24,10.24,0,0,0-4.58-1.29c-1-.06-1.91-.06-2.87-.07h-2.65c-.24-.51.25-.65.54-.79a37.77,37.77,0,0,1,3.5-1.57,54.08,54.08,0,0,1,17.85-3.26,19.23,19.23,0,0,1,2.63.13,6,6,0,0,1,3.37,1.1,3.25,3.25,0,0,0,1.55.56A1.71,1.71,0,0,0,631,423a1.59,1.59,0,0,0-.36-2,2.64,2.64,0,0,0-.75-.59,4.32,4.32,0,0,1-2.23-2.68,26.75,26.75,0,0,1-2-8.86,8.64,8.64,0,0,1,.3-2.36,1.07,1.07,0,0,1,1.52-.74,9,9,0,0,1,2.05,1.2,12.76,12.76,0,0,1,3.42,4.57c.24.51.4,1.05.67,1.54a1.69,1.69,0,0,0,2.81.34,2.23,2.23,0,0,0,.39-2.65c-.11-.21-.26-.4-.39-.6a68.47,68.47,0,0,1-9-21.11,113.52,113.52,0,0,1-3.12-35.94,116.93,116.93,0,0,1,4.46-25.46A88.15,88.15,0,0,1,633.24,316a10.67,10.67,0,0,0,1-3.17c.17-1.34.67-2.63.93-4a71.32,71.32,0,0,0,1.31-16.23,109.9,109.9,0,0,0-4.21-27.68,73.3,73.3,0,0,0-3.8-10.35,39.52,39.52,0,0,0-4.9-8.22,8.42,8.42,0,0,1-.52-.8c0-.06,0-.15,0-.25.26-.45.68-.25,1-.2a23.88,23.88,0,0,1,7.09,2.12,37.43,37.43,0,0,1,13.73,11,20.94,20.94,0,0,1,4,7.62c.09.38.13.78.2,1.21a29.58,29.58,0,0,0-4,6.53c-.28.66-.57,1.32-.8,2-.4,1.2-.1,2.1.76,2.44s1.76,0,2.28-1.14c.41-.87.76-1.76,1.16-2.63a16.35,16.35,0,0,1,3-4.63,10.38,10.38,0,0,1,2.25-1.75,1.62,1.62,0,0,1,2.33.49,8.39,8.39,0,0,1,1.22,2.31,16.68,16.68,0,0,1,.81,5.91,36.79,36.79,0,0,1-3.49,15.08,18.69,18.69,0,0,1-3.3,5,6.71,6.71,0,0,0-.77.92,1.5,1.5,0,0,0,.11,1.79,1.45,1.45,0,0,0,1.69.58,16.91,16.91,0,0,0,2.1-1.12c1.17-.69,2.27-1.52,3.49-2.1,2.5-1.18,3.56-.49,3.7,2.28a22.16,22.16,0,0,1-.76,6.17A83.8,83.8,0,0,1,655.5,320a168.87,168.87,0,0,1-11.56,21.54,55.33,55.33,0,0,0-8.43,28.15,25.58,25.58,0,0,0,.58,7.4c.15.54.29,1.08.48,1.6.65,1.75,1.24,2.07,3.09,1.83a1.88,1.88,0,0,0,1.77-1.36,19.16,19.16,0,0,1,4.43-7.06,69.9,69.9,0,0,1,22.7-16.61,24.9,24.9,0,0,1,6.15-1.95,4.24,4.24,0,0,1,.89,0,10.68,10.68,0,0,1-.66,1.28,175.47,175.47,0,0,0-23.19,47.19,84.38,84.38,0,0,0-3.33,13.49c-.61,4-1.09,7.94.29,12a5.36,5.36,0,0,1-1,.28,18.77,18.77,0,0,0-11.31,4.7,23,23,0,0,0-6.44,8.84,9.81,9.81,0,0,0-.54,1.58,1.64,1.64,0,0,0,3.06,1.16c.18-.35.28-.74.44-1.11s.28-.57.51-1c.44.4.84.71,1.18,1.09a5,5,0,0,0,8.05-.79,7.71,7.71,0,0,0,.63-7.56c-.26-.64-.64-1.24-1-1.94a8.77,8.77,0,0,1,5.54-1.44,11.78,11.78,0,0,1,9.11,5.08,3.47,3.47,0,0,1,.65,2.73,2,2,0,0,1-1.13,1.71,3.24,3.24,0,0,0-.83.47,1.56,1.56,0,0,0-.55,1.71,1.49,1.49,0,0,0,1.41,1.11,6,6,0,0,0,1-.06c.32,0,.62-.12,1-.19,2.13,1.29,2.62,3.31,2.58,5.57,0,.55-.19,1.11-.22,1.66a1.61,1.61,0,0,0,1.53,1.79,4.33,4.33,0,0,0,.72,0c2.79,0,4.68,1.42,6,3.69a12.46,12.46,0,0,1,1.57,7.63,14.41,14.41,0,0,1-2.91,7.76c-1.87,2.39-4.19,3.88-7.38,3.74-1.64-.07-2.21.48-2.55,2.21-.68,3.37-1.32,6.75-2,10.12q-.63,3.18-1.25,6.36a7.59,7.59,0,0,0-.2,1.42,2,2,0,0,0,2,2c.24,0,.48,0,.72,0a37.58,37.58,0,0,1,15.4,3.12,11.94,11.94,0,0,1,1.71.87c1.26.78,1.48,1.35,1.09,2.81-.79,2.93-1.67,5.84-2.4,8.79a52.63,52.63,0,0,0-1.67,10.89,14,14,0,0,0,.06,2.15,1.68,1.68,0,0,0,1.64,1.46,1.71,1.71,0,0,0,1.6-1.51,4.35,4.35,0,0,0,0-.72A54.44,54.44,0,0,1,676.65,512a113.28,113.28,0,0,1,4.46-13.92,49.22,49.22,0,0,1,2.14-4.81,289,289,0,0,1,32.27-49.31,185.55,185.55,0,0,1,31-30.3,116.28,116.28,0,0,1,30-16.85,78.88,78.88,0,0,1,24.09-5,15.37,15.37,0,0,1,1.66.08C802.34,391.83,802.38,391.94,802.53,392.15Z"/>
      <path class="cls-1" d="M639.22,434.92a3.09,3.09,0,0,1,1.39,2.72,4.13,4.13,0,0,1-.68,2.71,1.79,1.79,0,0,1-3.24-.17,2.75,2.75,0,0,1,.54-3.81A4,4,0,0,1,639.22,434.92Z"/>
    </g>
    <g>
      <path class="cls-1" d="M39.36,392.15a8.83,8.83,0,0,0,1.75,1.76Q53.05,404.86,65,415.79q27.54,25.2,55.08,50.39c1,.92,2,1.81,3.09,2.66a200.14,200.14,0,0,1,19.24,17.7c.22.23.46.45.66.7a1.94,1.94,0,0,1-1.31,3.22,1.69,1.69,0,0,1-1.11-.27,8.28,8.28,0,0,1-1.22-1.15c-6.05-6.18-12.41-12-18.81-17.83-.48-.43-1-.85-1.47-1.23a110.36,110.36,0,0,0-39.87-19.35A84.61,84.61,0,0,0,56.94,448a71.7,71.7,0,0,0-14.73,1.83,7.35,7.35,0,0,0-.91.28c-.06,0-.07.13-.12.24,0,.69.7.75,1.15,1l16.69,9q28.64,15.39,57.28,30.76c3.25,1.73,6.59,3.27,9.84,5,4.51,2.41,9,4.92,13.46,7.39,2.38,1.31,4.75,2.63,7.13,4a9.84,9.84,0,0,1,1.41.89,1.6,1.6,0,0,1,.29,2,1.59,1.59,0,0,1-1.85.73,15.69,15.69,0,0,1-1.94-.93c-5.85-3.14-11.75-6.2-17.53-9.45a56.67,56.67,0,0,0-12.89-5.13,102.51,102.51,0,0,0-33.76-3.29c-3.42.21-6.82.85-10.22,1.31a4.76,4.76,0,0,0-.83.25c0,.56.31.6.61.65l28.77,5.34c1.18.22,2.36.42,3.54.66a5.39,5.39,0,0,1,1.36.43,1.55,1.55,0,0,1,.21,2.61,5.61,5.61,0,0,1-1.77.65c-1.47.35-3,.55-4.43,1a11.55,11.55,0,0,0-3,1.47,1.9,1.9,0,0,0-.52,2.92,8.1,8.1,0,0,0,2,2.09,44.35,44.35,0,0,0,5.11,3.11,60.28,60.28,0,0,0,13.59,4.65,92.84,92.84,0,0,0,16.6,2.34,48.36,48.36,0,0,0,11.71-.68,3.08,3.08,0,0,1,3,.94,2.17,2.17,0,0,1,.61,2.2c-.07.23-.13.46-.21.69a54.92,54.92,0,0,0-2.79,21.51,47.39,47.39,0,0,0,.59,4.75,10.49,10.49,0,0,0,2,4.34,17,17,0,0,1,1.07,1.59,1.51,1.51,0,0,1-.17,1.79,1.65,1.65,0,0,1-2,.44,8.16,8.16,0,0,1-1.17-.81c-.91-.64-1.78-1.36-2.74-1.91q-29.86-17.13-59.76-34.22a29.24,29.24,0,0,1-3-1.49,20.94,20.94,0,0,1-2.08-2.3,20.25,20.25,0,0,0-6.17-4.09,31.19,31.19,0,0,0-16.6-2.71,14.45,14.45,0,0,0-5.28,1.51,11,11,0,0,0-2.51,1.8,4.43,4.43,0,0,0-1.16,4.64,8.74,8.74,0,0,0,1.89,3.31,16.65,16.65,0,0,0,4.45,3.61,30.32,30.32,0,0,0,19.86,3.9,28.24,28.24,0,0,0,3.69-1,9.8,9.8,0,0,1,2.08-.33,5,5,0,0,1,3.5,1.2q18.41,13,36.84,26.06,22.33,15.79,44.68,31.58c2.42,1.71,4.89,3.35,7.41,4.89a14.39,14.39,0,0,0,3.71,1.61,4.1,4.1,0,0,0,5.35-3.1,10.81,10.81,0,0,0,.4-4.27,26.34,26.34,0,0,0-3.9-11c-.41-.68-1-1.24-1.48-1.88a1.64,1.64,0,0,1-.09-2,1.61,1.61,0,0,1,2.8-.23c1.6,2.08,3.94,3,6.13,4.07a24.4,24.4,0,0,0,8.53,2.73c.2-.81.4-1.65.61-2.49a22.49,22.49,0,0,1,6.46-11.29,10.58,10.58,0,0,1,1.49-1.2,1.58,1.58,0,0,1,2.14.43,1.5,1.5,0,0,1,0,2c-.46.55-1,1-1.54,1.51A19.06,19.06,0,0,0,194.18,580a11.69,11.69,0,0,0,.85,5.64c.56,1.32,1.1,2.66,1.79,3.92a43.23,43.23,0,0,0,12,13.85,21.11,21.11,0,0,0,6.75,3.59,5,5,0,0,0,2.81.09c1.95-.52,2.57-.06,2.84,2a39,39,0,0,1,.36,4.3,77.34,77.34,0,0,1-1.16,14.33c-.66,4-1.32,8-1.88,12.09a22,22,0,0,0-.11,4.3,90.43,90.43,0,0,0,1.68,12.59,49.83,49.83,0,0,1,.86,5.93c.36,4.23.75,8.45.9,12.69a53.45,53.45,0,0,1-3.34,21.43,58.22,58.22,0,0,1-3.07,6.49c-1.12,2.09-2.67,2.7-5,2.25a38.21,38.21,0,0,0-18.28.77,28.9,28.9,0,0,0-4.65,1.9,13,13,0,0,0-2.92,2.08c-2.5,2.35-2.45,4.76.15,7a12.17,12.17,0,0,0,3.24,2,32.8,32.8,0,0,0,5.71,1.77,37.67,37.67,0,0,0,17.34-.73,4.85,4.85,0,0,0,2.47-1.36,10.86,10.86,0,0,1,7.17-3.51c2.94-.3,5.9-.34,8.85-.48.79,0,1.57,0,2.31,0A156.68,156.68,0,0,1,233,691c.47-4.3.9-8.6,1.52-12.87q1.22-8.43,2.72-16.81c.94-5.19,1.94-10.37,3.11-15.51a54.51,54.51,0,0,1,5.69-15,32.07,32.07,0,0,0,1.59-3.22,35.45,35.45,0,0,1,5.71-8.83c.92-1.11,1.82-2.23,2.67-3.4a7,7,0,0,0,.83-6.63,12.78,12.78,0,0,0-3.78-5.47,68.12,68.12,0,0,0-10.13-7.24,31.24,31.24,0,0,1-12-13.1,16.17,16.17,0,0,1-1.72-9.3,8.69,8.69,0,0,1,5.46-7.32,22.13,22.13,0,0,1,3.65-1.16,49.8,49.8,0,0,1,17.17-.76,80.23,80.23,0,0,1,25.37,7.67c24.75,11.8,47.05,34.46,58.55,59.36a95.36,95.36,0,0,1,7.34,24.26,32.51,32.51,0,0,1,.49,4,9,9,0,0,1-.27,2.83,1.52,1.52,0,0,1-2.55.52,8.64,8.64,0,0,1-1.12-1.82,141.19,141.19,0,0,0-13.39-21A88.53,88.53,0,0,0,316.38,626a48.46,48.46,0,0,0-7.91-5.4,26.63,26.63,0,0,0-8.09-2.93c-5.68-1-10.24.83-13.56,5.58a23.18,23.18,0,0,0-3.25,7.18,43.52,43.52,0,0,0-1.51,9.21,92.33,92.33,0,0,0,2.7,26.65,155.34,155.34,0,0,0,19.17,45.83A15.89,15.89,0,0,1,305,714a2.25,2.25,0,0,1-1.93,3.3c-.56.05-1.12,0-1.68,0l-78,1.33c-.88,0-1.76,0-2.64.12a7.63,7.63,0,0,0-4.14,1.74,3.91,3.91,0,0,0-.88,5.72,9.64,9.64,0,0,0,2.18,2.19,12.33,12.33,0,0,0,6,2.31,22.89,22.89,0,0,0,2.87.14l72.25-.66,39.61-.39c2.33,0,3-.6,3.21-2.86.28-3.62-2.11-7.6-4.81-8.74-5.49-2.31-9.91-6.12-13.92-10.42a78.37,78.37,0,0,1-10.27-14.15,119.08,119.08,0,0,1-13-33.66,127.34,127.34,0,0,1-2.25-13.72,6.31,6.31,0,0,1,0-1.44,1.76,1.76,0,0,1,1.48-1.37,1.66,1.66,0,0,1,1.65,1.13A7.38,7.38,0,0,1,301,646a123,123,0,0,0,3.71,19.29A114.51,114.51,0,0,0,315.19,691a78.05,78.05,0,0,0,10.46,14.6,43.55,43.55,0,0,0,9,7.58,23.82,23.82,0,0,0,8.17,3.32,13.76,13.76,0,0,0,8.21-.93c.44-.19.86-.43,1.31-.58a1.63,1.63,0,0,1,2,.86,1.52,1.52,0,0,1-.45,1.93c-.23.21-.54.33-.8.53a6.32,6.32,0,0,0-.59.62c.49.25.88.49,1.29.66A128.69,128.69,0,0,0,387,728.44a109.91,109.91,0,0,0,16.52.84A80.35,80.35,0,0,0,428.28,725a48,48,0,0,0,16-9,30.78,30.78,0,0,0,10.4-17.38,31.15,31.15,0,0,0-.92-15.89,62.26,62.26,0,0,0-14.89-24.88,28.43,28.43,0,0,0-6.07-4.68,13.49,13.49,0,0,0-5.66-1.83,8,8,0,0,0-3.76.52,4,4,0,0,0-2.65,4.13,6.85,6.85,0,0,0,1.23,3.59,13,13,0,0,0,4.32,4.08,36.57,36.57,0,0,1,8.41,6.72,31.31,31.31,0,0,1,6.06,9.15c3.21,7.83,2.36,15.17-2.7,22a29.48,29.48,0,0,1-7.54,7A49,49,0,0,1,414,715.35a74.34,74.34,0,0,1-22.17,1.6,82,82,0,0,1-24-5.41c-.6-.23-1.2-.46-1.77-.74-2.22-1.07-2.81-2.62-1.76-4.89a106.07,106.07,0,0,0,7.37-22.77,125.58,125.58,0,0,0,2.22-16.39,127.31,127.31,0,0,0,.31-13.67,154.44,154.44,0,0,0-10-49.4A147.61,147.61,0,0,0,335.28,556a110.88,110.88,0,0,0-34.67-26.11c-.14-.07-.29-.12-.54-.22a7.33,7.33,0,0,0-.88.67,42,42,0,0,1-20.81,10.8,60.64,60.64,0,0,1-19.56,1.12c-1.91-.2-3.82-.41-5.72-.66a7.39,7.39,0,0,1-1.85-.47,1.53,1.53,0,0,1-.79-1.82,1.47,1.47,0,0,1,1.38-1.13,19.3,19.3,0,0,1,2.63.22,66.38,66.38,0,0,0,12.19.8c7.6-.24,14.95-1.61,21.75-5.18a32.73,32.73,0,0,0,17.43-22.6,7.59,7.59,0,0,0,.09-1.17c0-.06-.08-.13-.18-.28-.57.19-1.18.37-1.76.59a51.7,51.7,0,0,1-16.16,3.25,53.11,53.11,0,0,1-18-1.94,26.9,26.9,0,0,1-8-3.74,16.23,16.23,0,0,1-2.19-1.85c-1.31-1.34-1.28-2.83.21-3.9a33.57,33.57,0,0,1,4.91-3,47.78,47.78,0,0,1,12.82-3.84A116.86,116.86,0,0,1,330,499.11a7.66,7.66,0,0,0,.88.16,4.49,4.49,0,0,0,0-1.11,23.87,23.87,0,0,0-2.19-5.31,4.05,4.05,0,0,0-3-2.15c-2.83-.55-5.63-1.23-8.43-1.86a6.19,6.19,0,0,1-1.37-.4,1.61,1.61,0,0,1-.91-1.78,1.59,1.59,0,0,1,1.56-1.26,11.2,11.2,0,0,1,1.89.28c2.81.6,5.62,1.21,8.43,1.86a3.43,3.43,0,0,0,2.1-.09,22.07,22.07,0,0,0,8.17-5.3s0-.16,0-.24-.16-.27-.28-.31a65.69,65.69,0,0,0-17-3.79,128.65,128.65,0,0,0-42.58,3.86c-2.09.54-4.15,1.21-6.17,1.95a35.63,35.63,0,0,0-11,5.76,2.06,2.06,0,0,1-2.64.21,1.72,1.72,0,0,1-.58-2.49,12.27,12.27,0,0,1,1.24-1.46,81.76,81.76,0,0,1,21.9-17,80.72,80.72,0,0,1,26.95-9c11.11-1.59,22-.91,32.58,3.2.75.29,1.48.62,2.21.93l2.21,1c.16-.3.35-.49.35-.68a16.55,16.55,0,0,0-1.83-7.39,4.59,4.59,0,0,0-3.63-2.75c-2.77-.39-5.5-1.06-8.24-1.62a6.93,6.93,0,0,1-1.37-.38,1.6,1.6,0,0,1,.67-3.05,8.37,8.37,0,0,1,1.66.2c2,.38,3.91.84,5.88,1.17A10.89,10.89,0,0,0,349,443.73c-.14-.48-.56-.5-1-.57a112.94,112.94,0,0,0-29.36-2A100.7,100.7,0,0,0,290.35,447,78.54,78.54,0,0,0,264,462.81a64,64,0,0,0-12.52,15.69,11.59,11.59,0,0,1-1.34,2,1.57,1.57,0,0,1-2,.43,1.65,1.65,0,0,1-.89-2c.29-1.16.68-2.29,1-3.46a43.62,43.62,0,0,0,.72-20.19,30,30,0,0,0-6.56-13.71A23.1,23.1,0,0,0,232,434.45a6.94,6.94,0,0,1-.9-.34,2,2,0,0,1-1.13-2.17,3.75,3.75,0,0,1,2-2.85,10.2,10.2,0,0,1,4.58-1.29c.95-.06,1.91-.06,2.87-.07h2.65c.23-.51-.25-.65-.54-.79a37.77,37.77,0,0,0-3.5-1.57,54.08,54.08,0,0,0-17.85-3.26,19.23,19.23,0,0,0-2.63.13,6,6,0,0,0-3.37,1.1,3.25,3.25,0,0,1-1.55.56,1.71,1.71,0,0,1-1.79-.95,1.59,1.59,0,0,1,.36-2,2.64,2.64,0,0,1,.75-.59,4.32,4.32,0,0,0,2.23-2.68,26.75,26.75,0,0,0,2-8.86,8.64,8.64,0,0,0-.3-2.36,1.07,1.07,0,0,0-1.52-.74,9,9,0,0,0-2.05,1.2,12.76,12.76,0,0,0-3.42,4.57c-.24.51-.4,1.05-.67,1.54a1.69,1.69,0,0,1-2.81.34,2.23,2.23,0,0,1-.39-2.65c.11-.21.26-.4.39-.6a68.47,68.47,0,0,0,9-21.11,113.52,113.52,0,0,0,3.12-35.94A116.93,116.93,0,0,0,213,327.64,88.15,88.15,0,0,0,208.65,316a10.67,10.67,0,0,1-1-3.17c-.17-1.34-.67-2.63-.93-4a71.32,71.32,0,0,1-1.31-16.23,109.9,109.9,0,0,1,4.21-27.68,73.3,73.3,0,0,1,3.8-10.35,39.52,39.52,0,0,1,4.9-8.22,8.42,8.42,0,0,0,.52-.8c0-.06,0-.15,0-.25-.26-.45-.68-.25-1-.2a23.88,23.88,0,0,0-7.09,2.12,37.43,37.43,0,0,0-13.73,11,20.94,20.94,0,0,0-3.95,7.62c-.09.38-.13.78-.2,1.21a29.58,29.58,0,0,1,4,6.53c.28.66.57,1.32.8,2,.4,1.2.1,2.1-.76,2.44s-1.76,0-2.28-1.14c-.41-.87-.76-1.76-1.16-2.63a16.35,16.35,0,0,0-3-4.63,10.38,10.38,0,0,0-2.25-1.75,1.62,1.62,0,0,0-2.33.49,8.39,8.39,0,0,0-1.22,2.31,16.45,16.45,0,0,0-.81,5.91,36.79,36.79,0,0,0,3.49,15.08,18.69,18.69,0,0,0,3.3,5,6.71,6.71,0,0,1,.77.92,1.5,1.5,0,0,1-.11,1.79,1.45,1.45,0,0,1-1.69.58,16.91,16.91,0,0,1-2.1-1.12c-1.17-.69-2.27-1.52-3.49-2.1-2.5-1.18-3.56-.49-3.7,2.28a22.16,22.16,0,0,0,.76,6.17A83.8,83.8,0,0,0,186.39,320,168.87,168.87,0,0,0,198,341.58a55.33,55.33,0,0,1,8.43,28.15,25.24,25.24,0,0,1-.59,7.4c-.14.54-.28,1.08-.47,1.6-.65,1.75-1.24,2.07-3.09,1.83a1.88,1.88,0,0,1-1.77-1.36,19.16,19.16,0,0,0-4.43-7.06,69.9,69.9,0,0,0-22.7-16.61,24.9,24.9,0,0,0-6.15-1.95,4.24,4.24,0,0,0-.89,0,10.68,10.68,0,0,0,.66,1.28,175.77,175.77,0,0,1,23.19,47.19,84.38,84.38,0,0,1,3.33,13.49c.61,4,1.09,7.94-.29,12a5.36,5.36,0,0,0,1,.28,18.77,18.77,0,0,1,11.31,4.7,23,23,0,0,1,6.44,8.84,9.81,9.81,0,0,1,.54,1.58,1.64,1.64,0,0,1-3.06,1.16c-.18-.35-.28-.74-.44-1.11s-.28-.57-.51-1c-.44.4-.84.71-1.18,1.09a5,5,0,0,1-8.05-.79,7.71,7.71,0,0,1-.63-7.56c.26-.64.64-1.24,1-1.94a8.77,8.77,0,0,0-5.54-1.44,11.78,11.78,0,0,0-9.11,5.08,3.47,3.47,0,0,0-.65,2.73,2,2,0,0,0,1.13,1.71,3.24,3.24,0,0,1,.83.47,1.56,1.56,0,0,1,.55,1.71,1.49,1.49,0,0,1-1.41,1.11,6,6,0,0,1-.95-.06c-.32,0-.62-.12-1-.19-2.13,1.29-2.62,3.31-2.58,5.57,0,.55.19,1.11.22,1.66a1.61,1.61,0,0,1-1.53,1.79,4.33,4.33,0,0,1-.72,0c-2.79,0-4.68,1.42-6,3.69a12.46,12.46,0,0,0-1.57,7.63,14.41,14.41,0,0,0,2.91,7.76c1.87,2.39,4.19,3.88,7.38,3.74,1.64-.07,2.21.48,2.55,2.21.68,3.37,1.31,6.75,2,10.12q.63,3.18,1.25,6.36a7.59,7.59,0,0,1,.2,1.42,2,2,0,0,1-1.95,2c-.24,0-.48,0-.72,0a37.58,37.58,0,0,0-15.4,3.12,11.94,11.94,0,0,0-1.71.87c-1.26.78-1.48,1.35-1.09,2.81.79,2.93,1.67,5.84,2.4,8.79a52.63,52.63,0,0,1,1.67,10.89,15.45,15.45,0,0,1-.06,2.15,1.68,1.68,0,0,1-1.64,1.46,1.72,1.72,0,0,1-1.61-1.51,5.78,5.78,0,0,1,0-.72A54.44,54.44,0,0,0,165.24,512a113.28,113.28,0,0,0-4.46-13.92,47,47,0,0,0-2.15-4.81,288.34,288.34,0,0,0-32.26-49.31,185.55,185.55,0,0,0-31-30.3,116.28,116.28,0,0,0-30-16.85,78.88,78.88,0,0,0-24.09-5,15.68,15.68,0,0,0-1.67.08S39.51,391.94,39.36,392.15Z"/>
      <path class="cls-1" d="M202.67,434.92a3.12,3.12,0,0,0-1.4,2.72,4.19,4.19,0,0,0,.69,2.71,1.79,1.79,0,0,0,3.24-.17,2.75,2.75,0,0,0-.55-3.81A4,4,0,0,0,202.67,434.92Z"/>
    </g>
  </g>
</svg>
