<svg id="Livello_1" data-name="Livello 1" xmlns="http://www.w3.org/2000/svg" viewBox="0 0 841.89 841.89">
  <defs>
    <style>
      .cls-1 {
        fill: #231f20;
      }

      .cls-2 {
        fill: #fff200;
      }
    </style>
  </defs>
  <title>Glos</title>
  <g>
    <path class="cls-1" d="M559.49,752.45l.52-1.81a2.63,2.63,0,0,0-4-2.92c-5,3.41-10,5.27-15.35,0a4.54,4.54,0,0,1-.5-6c6.18-7.88,32.61-13.22,38.9-12.89,7.67.4,11.77,4.45,17.44,7.51a2.18,2.18,0,0,0,3.17-2l0-1.09a2.18,2.18,0,0,1,1.58-2.12l21.82-6.14c2.13-.6,2.3-2.11.48-3.39l-13.21-10.81c-4.8-3.78-6.21-4.85-8.88-7.75-12.2-13.2-28.87-37.72-26.45-51.67s25.76-17.84,36.28-17.47a53.82,53.82,0,0,1,23.45,5.36c8.18,3.7,27.91,20.4,24.11,10.79-7.65-19.39-58.31-35.22-83.61-12.84-43.75,38.7-76.57,72.31-132.69,90.5-11.77,3.82-24.64,4.58-32.73,7.69-2.7,1-2.87,5.88.45,6.59,4.26.91,18.38-2.09,23.21-2.84,14-2.17,29.91-13.54,28.23,8.47a2.63,2.63,0,0,1-1.59,2.2l-1.82.79a2.66,2.66,0,0,1-3.67-2.18A11.54,11.54,0,0,0,454,746c-1.12-3-5.75-1.42-5,1.71l1.17,4.68a2.64,2.64,0,0,1-2.64,3.28l-2.88-.09a2.64,2.64,0,0,1-2.55-2.38s1-8.46-1-10c-4.16-3.19-5.18,5.37-4,9.19a2.62,2.62,0,0,1-2.49,3.38l-138.9,1.49c-1.91,0-3,0-4.33-1.32l-1.1-1.43c-1.78-3.54-.3-.61-1.47-2.85-12.13-23.34,13.77-26.79,36.45-27.64,7.43-.28,12,1.07,18.72,1.79,1.77.2,2.56-.49,2.91-1.61.76-2.48-.93-5-3.37-5.87-10.25-3.64-21.63.27-30.46-.91-13.27-1.78-31.51-19.47-45.92-25.9-30.92-13.78-35.92-9.4-51.8,17.55-1.56,2.65-5.32,4.6-6.61,7.72a18.26,18.26,0,0,0-1.08,5.47,2.63,2.63,0,0,1-5.26-.16c-.1-3.49-1.08-8-3.94-5.75-4.7,3.66,3.3,16,3,18.83-.42,3.65-7,7.37-8.34,0-.27-1.52-.58-14.73-3.59-15.2-6.74-1.06-3.44,20.07-3.27,22.07.29,3.31,4.78,9.48,3.85,15.28a2.62,2.62,0,0,1-2.47,2.15L159.18,761a2.63,2.63,0,0,1-2.5-3.82c3.38-6.6,12.19-19.13,13-22.15.9-3.37-1.43-4.16-3.38-2.48-3.58,3.09-14.29,27.27-22,29.35a2.59,2.59,0,0,1-3.16-2.78c.67-7.9,6.72-13.85,10.91-19.76,3.69-5.21,8-10.24,11.6-15.66,7-10.41,17.66-17.31,24.8-27.16,20.52-28.3,16.14-48.37,61-44.58,6.19.52,36.62,5.84,40.9,9.25,6.18,4.93,13,26,15.55,15.78,4.57-18.2-10.29-28.24-12.65-43.76-.91-6-6-13-6.9-20-1.57-12,3.1-19.32,3.43-29.81a6.27,6.27,0,0,1,3.5-5.48c22.06-10.6,43.53-21.56,56-43.06,5.16-8.88,12.42-21.19,10.34-22.69-3-2.16-2.53-.48-4.64,3.36-18.94,34.47-52.48,63.58-97.34,55.11-15-2.84-22.51-14-40.91-13.45-21.87.62-49.84,17.6-67.16-6.47-20.13-28,1.47-47.3,26.88-57.84,44.54-18.49,65.92-12.27,103.49-52.34,4.63-4.94,18.66-22.38,17-15.26-4.67,19.83-34.44,46.77-61.46,56.76-19,7-57,20.17-70.41,29.65-23.8,16.85,1.31,51.38,22.57,37.11,2.65-1.78,2.92-4.82,5.05-6.11a2.24,2.24,0,0,0-.37-3.87c-1.22-.65-4.05-3.59-1-5.17,2-1,8.17,3,8.93.92.86-2.39-8.45-5.67-8.45-5.67a2.16,2.16,0,0,1,.18-3.72c2.2-1.05,4.56,0,6.84,1.33a2.16,2.16,0,0,0,3.21-1.9h0A1.93,1.93,0,0,0,199,523c-3.89,2.48-9.65.82-12.18-3.05-7-10.65,21.51.89,17.34-4.55-2.38-3.1-15.27-4.58-14.56-8.52,1.41-7.72,18.68,3,23.91,9.22,3.51,4.15,7.65,12.82,11.31,13.76,3.49.9,8.7,0,13.26,1.08,15.25,3.72,10.11,4.23,27.57,4.51,7.31.12,11.3,5.52,20.18,1.08,3.45-1.73,32.5-26.89,35.68-35.92,2.6-7.4,3.81-13,2.42-22.39-.6-4.1-3.33,2.62-4.27,5.78-1.55,5.24-1.73,7.88-3.69,13.29-3.08,8.48-26.75,30.61-30.45,33a10.4,10.4,0,0,1-3.82,1.76,2.55,2.55,0,0,1-2.45-1.1l-6.27-8.79a36.28,36.28,0,0,1-5.78-12.75l-.06-.26a2.16,2.16,0,0,1,1.94-2.65c4.79-.36,19.21-5.35,13.65-6.74-21.66-5.43-24.2.71-30.92-14a5.48,5.48,0,0,1,2.27-7c14.94-8.58,22.19-15.15,39.54-32.55,3.18-3.19,10.57-3.2,16.09-4.59A67.44,67.44,0,0,0,325.3,436a25.32,25.32,0,0,1,22.65-.15c38.85,19.51,60.21,50,40.2,96.73-1.68,3.93-7,9.26-7.68,11.78-.91,3.14,1.79,6.43-.61,12.16-2.27,5.44-14.72,7.19-11.19,11.19,1.81,2,9.93-4.54,9.93-4.54a2.68,2.68,0,0,1,3.15.72c6.82,8,5.35,18.84,13.9,26.12,31.72,27,85.51-19.15,53.11-38.27-6-3.56-12.3-5-10.22-7.28,4.88-5.3,19.25-1.25,25.58,5.73,17.44,19.24-6.58,42.61-20.21,51.6-4.18,2.75,1.87,4.12,5.47,2.76,11.05-4.14,12.55-18.33,27.47-9.77,7.95,4.56-6,6.18-11.31,8.3a2.57,2.57,0,0,0-1.38,3.45c1.42,3.07,4.75,6.57,1.29,8.71-9.57,5.92-22.33-6.75-32.92-6.69a2.59,2.59,0,0,0-2.46,3.42c1.76,5.37,5.85,9,8.34,15.12a2,2,0,0,1-2.36,2.6c-6.21-1.88-10.05-8.2-17.64-6-3.76,1.09-4.85,3.22-6.88,2.93-9.25-1.31-19.27-24.23-24.94-21.29-5.16,2.67,13,19.27,13,19.27a2.53,2.53,0,0,0,.87.82l8.42,7.11a4.18,4.18,0,0,0,4.78.45,6.14,6.14,0,0,0,2.24-1.93c3.71-6.88,15.85,1.45,22.34,4.21a3,3,0,0,0,3.91-1.42c2.62-5.8-.61-9.92-2.46-14.46a2.62,2.62,0,0,1,3.55-3.35c9.83,4.62,19.44,10.56,29.66-1.21a2.92,2.92,0,0,0,.17-3.32l-1.23-1.86c-1.09-1.64-.48-2.95,1.17-3.2,15-2.25,16.79-14.19,1.68-18-2.26-.56-2.53-1.92-.58-3.2,11.36-7.5,46.36-21.95,49.44-23,68.74-23.68,132.55-13.46,180,44,22.62,27.38,19.75,40.14,29.71,69.29,2.75,8,5.21,15.41,8.86,23a2.64,2.64,0,0,1-4.3,3c-5.29-5.77-10.14-10.5-12.37-16.87-3-8.5-3.38-15-7.52-22.05-3.65-6.18-6.45-4.29-3.61,6.3,1.35,5.07,4.71,8.43,5,14,.56,9.43-5.69,15.44-8.27,18.54-18.18,21.82-27.89,24.79-52.33,19.44-22.44-4.9-44.38-20.31-55.84-40.88-2.41-4.33-9.34-17.18-8.6-11.1,4.21,34.73,50.22,63.25,88.17,59.22a2.57,2.57,0,0,1,2.4,1.05c5.22,7.64,7,18.42.71,25.71a2.61,2.61,0,0,1-2,.87H562A2.64,2.64,0,0,1,559.49,752.45Z"/>
    <path class="cls-1" d="M389.38,220.08a3.47,3.47,0,0,1,.74,5c-3.83,4.67-14.07,11.53-13.79,16.55S396,226.25,396,226.25a1.85,1.85,0,0,1,1.42-.38l9.57,1.44a1,1,0,0,1,.53,1.81c-7,6.12-14.1,12.29-20.88,19-3,3-5.36,8.85.19,5.51,3.17-1.89,35.09-34.06,49-15,15.68,21.48-17.84,62-43.82,68.58-5.94,1.49-14.81,2.8-20.21.51a4.85,4.85,0,0,1,2-9.31c25,.57,52.13-21.57,51.06-46.26a7.49,7.49,0,0,0-10-6.68c-14,5-21.64,19.26-23.54,34.15-.77,6.1-6,12.24-12,13.56a17.22,17.22,0,0,1-4.29.46,5.83,5.83,0,0,1-5.52-5.27c-4.87-45.06-31.76-82.55-76.61-53.4-14.95,9.72-27.31,30.21-33.76,46.84-3.34,8.64-3.93,18.26-5.34,23.05a5.38,5.38,0,0,1-2.94,3.37L171.8,344.73a3.22,3.22,0,0,1-4.57-2.81c-.83-36.93,9.92-74.14,35.54-102,5.3-5.75,10.87-12.49,14.66-16,2.76-2.54,2.12-5.83-.78-4.32-35.26,18.43-70.28,73.74-87.65,120.64a3.52,3.52,0,0,1-4.1,2.22l-2.44-.56a3.74,3.74,0,0,1-2.89-4C133.82,209.58,284.13,146.64,389.38,220.08Z"/>
    <path class="cls-1" d="M303.41,346.72c5.06,4.89,2.29-7.66,2.53-9,1.65-9.48,10.23-21,20.58-21.65a3.14,3.14,0,0,1,3.26,3.16c.15,4.19,3.41,8.19,3.67,10.83.48,4.88-10.86,13.93-5,22.08,5.07-5.44,2-11,8.21-17.74,4.44-4.79,10.92-6.61,16.8-9.17a3.16,3.16,0,0,1,4.38,2.25c3,14.83.47,19-9.68,36.3-4.28,7.31,12.19-7.11,16.12-8.91,26.87-12.31,48.86,39.52,21.71,54.9-2.17,1.22-4.24-.51-4.7-3a9.42,9.42,0,0,1,1.73-8.15c1.92-2.79,5.51-5.14,6.27-8,.24-.89-1.79-3.3-4.47-.94-2.3,2-5,11.92-8,9-1.62-1.57,0-17.76-1.82-21.48-3-6-5.66,5.9-4.46,10.69a2.68,2.68,0,0,1-4.63,2.41c-3.17-3.88-8.32-17.21-10.59-11.32-1.65,4.28,5.85,7.78,7.72,14.65,2.06,7.53,1,12.17-5.08,16.95a.49.49,0,0,1-.79-.4c.47-7.42,1.07-25-3.65-20.44-3.4,3.29,2.39,8.21,1.72,13.27-.28,2.11-5.45,9.88-4.95,7.16,3.27-17.72-14.86-39.29-30-33-3.41,1.41-4.9,6.8-2.77,5.46,10.69-6.73,29.12,11,29.69,24.28.16,3.56-1.39,3.77-2.62.74-3.59-8.88-20.07-26.17-28.11-20.13a3.1,3.1,0,0,0,.75,5.25c4.79,2.12,11.9,3,14.24,4.47,5.15,3.19,13.37,12.88,10.43,19.32-4.19,9.19-27.38,17.94-40.71,18.31-2.46.07-2.47-1.6-1.83-4a14,14,0,0,1,5.23-8.15,3.16,3.16,0,0,0-1-5.54l-.13,0a2.67,2.67,0,0,1-1.91-2.57V414c.41-2.37.46-3.64,1.91-3.67,0,0,1.95-.24,2-.23,3.52.47,12.26-.83,2-5.42-4.54-2-3.2-1.67-11.36-4.18-5.11-1.57-1.31,5.36,2.33,6.42,3,.88.78,4.21-2,6.16-.89.64-2.17-.23-2.78-1.14,0,0-1.93-5.17-2.84-4.26-4.57,4.55,2.22,16.76-5.43,21.9A3.39,3.39,0,0,1,281,429c-11.85-13.31-14.16-27-12.48-43.83a7.23,7.23,0,0,1,7.43-6.47,37.19,37.19,0,0,1,16.89,4.62c2.69,1.5,4.41-.47,2.85-3.14-2.11-3.59-5.47-5.42-10.69-5.95s-23.08,4.07-17.71,0c13.23-10,33.22-3.33,38.08,4,2.26,3.39.08-4.83-3.65-8.24-8.15-7.47-17.1-5.72-32.19-2.54a3.16,3.16,0,0,1-3.81-3.07h0a3.1,3.1,0,0,1,3.14-3.12,51.33,51.33,0,0,0,15.55-2.14c3.14-.89,11.2-4.27,6.38-5.19-14.3-2.74-26.24-2.49-35.71,4.53a3.2,3.2,0,0,1-4.8-1.13c-10-21.29,6.07-39.24,29.11-32.6a3.07,3.07,0,0,1,2.19,3c0,7.57,2.64,15.72,11,17.27.2-4.71-5-6.32-6.35-10.64-4.2-13,5.77-15,14.58-20a3.12,3.12,0,0,1,4.45,1.43C309.16,325.27,296.88,340.42,303.41,346.72Z"/>
    <path class="cls-1" d="M130,352.26c-3.29,2.49-14.55-3.46-16.1-3.56-3.14-.21,1.34,2.91,3.94,4,5.91,2.51,19.34,10.66,12.24,11.52-2.21.27-13.9-10.76-16.18-6.58-1.59,2.89,5.61,1.93,9.12,6.09a6.94,6.94,0,0,1,1.65,4,1.33,1.33,0,0,1-1.93,1.28c-5.68-2.67-16-1.25-16,1.18,0,4.65,13.22-2.53,14.34,4.49.69,4.3-1.8,2.79-4.58,2.65-5.33-.25-6.38-1.34-7.75,5.18a1.46,1.46,0,0,0,.76,1.6l1.5.77a1.37,1.37,0,0,0,1.79-.52l1.31-2.22a1.54,1.54,0,0,1,2-.59l3.78,1.91a4.36,4.36,0,0,0,4.35-.2c5.55-3.65,2.49-11.6,4-12.92,1.25-1.06,4,.06,6.2-1.9,5.2-4.66-.68-8.78-1-14.16a1.41,1.41,0,0,1,2-1.28c10,4.44,9.89,16.62,5.67,25.64-1.92,4.14-7.75,8.28-8.9,12.61-5.4,20.33,24.5,49.78,34.38,65,10.49,16.21-9.29,20.21-1.85,26.07,4.59,3.62,5.26-6.14,9.62-10,4.84-4.34,25.83-12.47,30.46-13.86,7.22-2.16,14.77-.9,21.87-5.92,5.8-4.1,11.9-11.81,17.08-16,3.81-3.09,16.3-10.8,20.56-11.87,3.4-.86,7.89,3.39,10.54,7.28a5.52,5.52,0,0,1-.44,6.87c-7.57,8.2-31.18,24.74-36.93,27.27-22.28,9.81-47.33,12-69.33,23.81-7.87,4.23-13.26,8.42-19.35,11.89a6.51,6.51,0,0,1-7.65-.81c-18.2-16.79-28.28-38.78-30.67-63.8-1.79-18.81,1.94-22.65-5.17-41.4-7.91-20.87-8.62-32.44,2.46-49.84.79-1.23,1.46-2.78,4.79-2.77C119.1,343.14,134.27,349.07,130,352.26Z"/>
    <path class="cls-1" d="M207,499.09l36.86-12.8c1.82-.78,3.81-1,4.56.74l2.25,4.09c1.28,2.7,1.07,4-.14,5.2-6.67,6.79-28.51,15.68-33.12,16.12-3.47.33-6.44-3.28-8.76-5.41C203.9,502.69,203.58,500.53,207,499.09Z"/>
  </g>
  <path class="cls-2" d="M427,35.35h.16l0,0Z"/>
  <path class="cls-2" d="M427.17,35.33l0,0H427Z"/>
</svg>
