<svg id="Livello_1" data-name="Livello 1" xmlns="http://www.w3.org/2000/svg" viewBox="0 0 841.89 841.89">
  <defs>
    <style>
      .cls-1 {
        fill: #231f20;
      }
    </style>
  </defs>
  <title>Glos</title>
  <g>
    <path class="cls-1" d="M794.63,127.74c-6-6.34-12.55-8.16-20.71-5.44-15,5-18.41,17.66-12.86,19.31,2,.57,23.65.26,22.58,17.11a27.27,27.27,0,0,1-6.6,15.93c-35.75,43.14-160.68-5-203.29,31.38-7.88,6.71-13,14.33-14.68,24.38-1.71,10.57-.66,48.16-.77,56.27a46.59,46.59,0,0,1-27.2,42.11c-13.1,5.86-26.6,6.67-41.3,6.82-1.88,0-2.85-1.14-4.21-2.15-4.89-3.57-37.85-29-47.22-35.94-3.48-2.56-6.1-5.2-10.46-5.15-2.33,0-4.65.06-7,.06s-4.63,0-6.95-.06c-4.37-.05-7,2.59-10.47,5.15-9.39,6.91-42.34,32.37-47.22,35.94-1.38,1-2.34,2.17-4.21,2.15-14.7-.15-28.19-1-41.29-6.82a46.58,46.58,0,0,1-27.21-42.11c-.11-8.11.94-45.7-.77-56.27-1.64-10-6.82-17.67-14.68-24.38-42.63-36.42-167.56,11.76-203.28-31.38a27,27,0,0,1-6.6-15.93c-1.1-16.85,20.58-16.54,22.57-17.11C86.39,140,83,127.3,68,122.3c-8.17-2.72-14.77-.9-20.72,5.44-12.22,13-12.22,46.34,8.85,83,11.32,19.77,30.38,32.67,51.18,42.17a102.44,102.44,0,0,0,9.66,3.95,6.36,6.36,0,0,1,4,4.34c3.56,12.75.44,25.08.46,38.31,0,30.57-10.53,224-10.55,224-4.92-1-19.2-.77-26.7,2.66-14.59,6.62-16.46,21-11.57,26.55,4,4.56,9.33,6.23,15.14,6.62s7.42-4.19,12.82-6.4a10,10,0,0,1,2.1-.42c-.48,2.79-.85,5.26-1.34,7.72a40,40,0,0,0,.49,16.52,23.66,23.66,0,0,0,1.27,3.84c4.28,10.29,14,12.27,21.9,4.35a28.15,28.15,0,0,0,8.14-19c.11-1.91,0-3,0-5.4,0,0,10.71,5.46,17.33,3.8a27.09,27.09,0,0,0,15.38-10.3c5.2-6.88,1.5-21.1-5.88-25.71-4.8-3-27-3.55-34-3.55-.06-.71,8.67-190,8.36-216.91,0-2.29,31-23.48,31-23.48a3.37,3.37,0,0,1,5.07,3.33c-1.75,13.34-7.79,156.6-7.5,178.45.77,59.2,55.95,78.68,101.15,61.5,26.63-10.14,42-34.67,47.83-42.65a12.23,12.23,0,0,1,5.44-4.1c1.27-.53,2.5-1.23,3.73-1.85,8.27-4.06,14.79-9.76,18.58-18.52a2.48,2.48,0,0,1,3.8-.92,14.93,14.93,0,0,1,4.52,5.79c1.38,3.1,2.48,3.62,5.29,2.33a20.63,20.63,0,0,0,4.45-2.81,74,74,0,0,0,18.12-22c1.36-2.54,2-4.76.11-7.48a8.44,8.44,0,0,1-1.14-3.29,1.6,1.6,0,0,1,2.29-1.69,54.54,54.54,0,0,0,5.83,2.74,3.37,3.37,0,0,0,4.35-2,42.07,42.07,0,0,0,2.48-9.45c1.47-14.66-1.69-28-10.62-39.81-5.82-7.68-11.33-17.33-8.45-26.94,1.16-3.82,2.17-6.93,5.9-9.74-.53,1.16-1.08,2.3-1.58,3.49-3.07,7.35-3.58,14.06.46,22.49a21.63,21.63,0,0,0,21.74,12c6.19-.75,11.3-4,15.63-8.29.92-.9,1.75-1.87,3.09-3.32-3,11.32-15.71,17.77-31.35,13.5A33.45,33.45,0,0,1,392.12,400c2.2,10,2.35,21.5-1.34,31-2,5-7.65,7.83-6.49,12,1.34,4.92,1.89,10,3.12,15,4.21,16.79-.2,31.73-9.68,45.58-3.93,5.74-23.48,20.69-33.94,29.29-9.68,7.94-15.08,14.63-16.35,16.61-2.33,3.66-.18,6.36,1.05,6.36,13.32,0,66.44-22.38,68.74-22.42a1.81,1.81,0,0,1,.9.24,14.75,14.75,0,0,0,5.18,1.42c2.68.31,4.13-1.2,4.35-3,.3-2.85,0-24.13.13-25.25.22-3.23,3.49-.11,13.16-.2,9.68.09,12.95-3,13.17.2.09,1.12-.2,22.4.13,25.25.2,1.85,1.64,3.36,4.34,3a14.88,14.88,0,0,0,5.18-1.42,1.84,1.84,0,0,1,.9-.24c2.28,0,55.42,22.42,68.74,22.42,1.23,0,3.38-2.7,1.06-6.36-1.28-2-6.67-8.67-16.35-16.61-10.47-8.6-30-23.55-33.94-29.29-9.48-13.85-13.89-28.79-9.68-45.58,1.23-4.93,1.76-10,3.12-15,1.14-4.21-4.55-7-6.5-12-3.71-9.51-3.53-21.05-1.34-31a33,33,0,0,1,7.64-14.87c-15.67,4.27-28.33-2.18-31.35-13.5,1.33,1.45,2.17,2.42,3.09,3.32,4.32,4.25,9.41,7.54,15.62,8.29a21.64,21.64,0,0,0,21.74-12c4-8.43,3.54-15.14.47-22.49-.51-1.19-1.06-2.33-1.58-3.49,3.7,2.81,4.74,5.92,5.88,9.74,2.87,9.61-2.62,19.26-8.43,26.94-8.93,11.79-12.09,25.15-10.62,39.81a42,42,0,0,0,2.46,9.45,3.37,3.37,0,0,0,4.34,2,57.74,57.74,0,0,0,5.86-2.74,1.59,1.59,0,0,1,2.26,1.69,8.27,8.27,0,0,1-1.12,3.29c-1.84,2.72-1.25,4.94.11,7.48a73.87,73.87,0,0,0,18.13,22,20.63,20.63,0,0,0,4.45,2.81c2.81,1.29,3.9.77,5.29-2.33a14.93,14.93,0,0,1,4.52-5.79,2.47,2.47,0,0,1,3.79.92c3.8,8.76,10.31,14.46,18.59,18.52,1.23.62,2.45,1.32,3.73,1.85a12.23,12.23,0,0,1,5.44,4.1c5.81,8,21.17,32.51,47.83,42.65,45.18,17.18,100.36-2.3,101.13-61.5.28-21.85-5.75-165.11-7.51-178.45a3.37,3.37,0,0,1,5.07-3.33s31,21.19,31,23.48c-.31,26.92,8.43,216.2,8.36,216.91-7,0-29.2.52-34,3.55-7.37,4.61-11.08,18.83-5.88,25.71a27.12,27.12,0,0,0,15.38,10.3c6.63,1.66,17.31-3.82,17.34-3.8,0,2.41-.09,3.49,0,5.4a28.1,28.1,0,0,0,8.14,19c7.85,7.92,17.62,5.94,21.89-4.35a23.7,23.7,0,0,0,1.28-3.84,40,40,0,0,0,.48-16.52c-.48-2.46-.86-4.93-1.34-7.72a10.25,10.25,0,0,1,2.11.42c5.39,2.21,7.11,6.8,12.83,6.4s11.15-2.06,15.14-6.62c4.9-5.58,3-19.93-11.56-26.55-7.53-3.43-21.81-3.67-26.72-2.66,0,0-10.56-193.47-10.54-224,0-13.23-3.09-25.56.46-38.31a6.35,6.35,0,0,1,4-4.34,102.26,102.26,0,0,0,9.65-3.95c20.8-9.5,39.85-22.4,51.19-42.17C806.83,174.08,806.83,140.75,794.63,127.74ZM277.24,475.05c-7.33,3.93-4.21,7.88-2.28,8.1,6.4.74,3.86.41,8.9,1a3.48,3.48,0,0,1,2.73,5.09c-1.94,3.47-26.62,26.88-51.26,26.88-33.9,0-52.57-20.76-53.51-49.28-.44-13.3,6.27-187.25,7.19-192.69,1.36,1.23,22.78,64.95,67.74,100.6,28.78,22.84,69.5,30,82.21,30.08C319.21,453.63,283.82,471.52,277.24,475.05Zm151-17.38c-.53,2.39-4.39,12.9-5.16,16.46a48.9,48.9,0,0,0,1.93,28.3h-8.14a48.83,48.83,0,0,0,1.95-28.3c-.76-3.56-4.62-14.07-5.15-16.46-2.17-9.74-.05-17.2,7.28-17.84C428.28,440.47,430.41,447.93,428.24,457.67Zm231.83,9.13c-1,28.52-19.62,49.28-53.5,49.28-24.66,0-49.32-23.41-51.27-26.88a3.48,3.48,0,0,1,2.72-5.09c5.05-.55,2.5-.22,8.91-1,1.93-.22,5-4.17-2.26-8.1-6.61-3.53-42-21.42-61.74-70.26,12.7-.11,53.42-7.24,82.23-30.08,44.94-35.65,66.37-99.37,67.73-100.6C653.81,279.55,660.51,453.5,660.07,466.8Z"/>
    <path class="cls-1" d="M569.76,778.08c-.77,2.7-3.4,2.67-5.6,2.7-8.47.08-47.61-13.15-63.25-20.52-1.58-.74-4.74,5.09-4.79,6.87-.11,4.08-.83,4.67-4.89,3.64-2.17-.55-4.26-1.42-6.41-2-4.41-1.25-6.32-4.25-6.67-8.73-.63-8-1.88-16-4.78-23.5a119.4,119.4,0,0,0-10.25-21.33c-.33,1-4.82,14-9.39,18.57-2.78,2.74-4.19,2.45-7.79-.2-5.39-4-14.32-21.81-15.55-23.5-1.8,6.23-3.23,12.05-8.3,15.86a2.39,2.39,0,0,1-2.28,0c-5.07-3.81-6.49-9.63-8.29-15.86-1.23,1.69-10.16,19.53-15.56,23.5-3.62,2.65-5,2.94-7.79.2-4.56-4.52-9.06-17.56-9.39-18.57a118.67,118.67,0,0,0-10.24,21.33c-2.9,7.51-4.15,15.47-4.79,23.5-.35,4.48-2.26,7.48-6.67,8.73-2.15.6-4.23,1.47-6.4,2-4.06,1-4.79.44-4.9-3.64,0-1.78-3.2-7.61-4.78-6.87-15.64,7.37-54.79,20.6-63.26,20.52-2.21,0-4.82,0-5.59-2.7-.68-2.39,53.78-33.44,68.32-51.1,9.57-11.61,17.16-24.56,24.25-37.81,13.49-25.21,22.84-51.8,27-80.1,1.43-9.64,2.3-19.36,3.18-29.05,1.25-13.92,2.06-27.85.62-41.8-.05-.35-.36-1.82.74-1.43,3.27.92,6.54,1.87,9.83,2.72a4.06,4.06,0,0,0,5.35-3.86c.11-3.42-.3-6.87-.52-10.31-.16-2.39-.55-4.79-.55-7.18,0-2.91,1.89-4.32,4.72-3.81a3.68,3.68,0,0,1,1.27.43,9.22,9.22,0,0,0,9.13,0,3.61,3.61,0,0,1,1.27-.43c2.83-.51,4.72.9,4.72,3.81,0,2.39-.4,4.79-.55,7.18-.22,3.44-.64,6.89-.53,10.31a4.07,4.07,0,0,0,5.36,3.86c3.29-.85,6.56-1.8,9.83-2.72,1.09-.39.78,1.08.74,1.43-1.45,13.95-.64,27.88.62,41.8.87,9.69,1.75,19.41,3.18,29.05,4.19,28.3,13.53,54.89,27,80.1,7.09,13.25,14.68,26.2,24.24,37.81C516,744.64,570.44,775.69,569.76,778.08Z"/>
    <path class="cls-1" d="M507.8,179.59c-2.33,5.59-5,11.06-7.49,16.56-4.58,10-18.67,13.35-17.88,16.26.92,3.54,8.76,4,10.75,4.06.42,0,.24.29.09.35-11.63,6.34-16,9.17-16.81,11.92a1.22,1.22,0,0,0,.27,1.36c1.71,1.56,4,1.69,5.92,2.43,7.35,2.9,11.43,9,14.9,15.54,1.21,2.32.39,4-2.3,4.82a56.32,56.32,0,0,1-6.13,1.43,1.45,1.45,0,0,0-1.09,1.19c-.22,2.85.57,13.36,0,16.23-.59,3.12-1.91,4-5.11,3.89A79.92,79.92,0,0,1,470.5,273a1.26,1.26,0,0,0-1.56.68c-.44,1-.88,2-1.27,2.92-2.42,5.62-6.85,7.88-12.27,5.22-5-2.46-9.08-.88-13.08,1.6-6.86,4.26-14.13,6.67-21.37,6.78-7.24-.11-14.5-2.52-21.37-6.78-4-2.48-8.05-4.06-13.07-1.6-5.42,2.66-9.86.4-12.27-5.22-.42-1-.86-1.95-1.29-2.92a1.26,1.26,0,0,0-1.56-.68A79.12,79.12,0,0,1,359,275.63c-3.2.15-4.52-.77-5.11-3.89-.55-2.87.24-13.38,0-16.23a1.45,1.45,0,0,0-1.1-1.19,56.14,56.14,0,0,1-6.12-1.43c-2.7-.87-3.51-2.5-2.3-4.82,3.46-6.58,7.54-12.64,14.89-15.54,1.91-.74,4.22-.87,5.93-2.43a1.22,1.22,0,0,0,.26-1.36c-.79-2.75-5.18-5.58-16.81-11.92-.15-.06-.32-.35.09-.35,2-.06,9.81-.52,10.75-4.06.77-2.91-13.29-6.25-17.88-16.26-2.52-5.5-5.15-11-7.48-16.56-1.12-2.74-.22-4.08,2.7-5.07,12.68-4.32,25.52-7.72,39.12-6.78a15.52,15.52,0,0,0,4.76-.79c5.46-1.34,14.24,2.15,15.05,7.75a.91.91,0,0,1-.46.9c-6.12,3.86-11.5,8.42-15.27,14.76a4.16,4.16,0,0,1-2,1.87c-1.6.59-3.29-.22-4.32-.77-6.08-3.16-19.11-10.86-20.21-10.2-.63.37,8.69,5.55,9.48,7.19,1.49,4.28,6.41,3.93,10.58,8.82a11.57,11.57,0,0,1,2.89,6.37c.35,3.51.13,6.67.22,9.8.11,4.2.84,8.19,1.3,12.34a132.74,132.74,0,0,0,2.63,15A12.36,12.36,0,0,1,377,253.14c-1.59,1.6-7.84,7.19-9.29,8.49a59.26,59.26,0,0,0,8.82-3.23c4.13-1.69,9.11-.22,12.2,3,5.88,6.1,14.26,14.15,19.55,18.49a19.07,19.07,0,0,0,25.32,0c5.29-4.34,13.65-12.39,19.53-18.49,3.09-3.23,8.1-4.7,12.22-3a59.67,59.67,0,0,0,8.82,3.23c-1.45-1.3-7.7-6.89-9.28-8.49a12.36,12.36,0,0,1-3.55-12.33,135,135,0,0,0,2.63-15c.46-4.15,1.16-8.14,1.27-12.34.09-3.13-.13-6.29.22-9.8a11.77,11.77,0,0,1,2.92-6.37c4.17-4.89,9.08-4.54,10.58-8.82.79-1.64,10.11-6.82,9.47-7.19-1.09-.66-14.13,7-20.2,10.2-1,.55-2.72,1.36-4.33.77a4.19,4.19,0,0,1-2-1.87c-3.78-6.34-9.15-10.9-15.3-14.76a1,1,0,0,1-.46-.9c.81-5.6,9.61-9.09,15.07-7.75a15.58,15.58,0,0,0,4.77.79c13.6-.94,26.44,2.46,39.12,6.78C508,175.51,508.91,176.85,507.8,179.59Z"/>
    <path class="cls-1" d="M436.86,232.58l-.11.11a.35.35,0,0,0,.18-.05Z"/>
    <path class="cls-1" d="M462.07,204.14c-2.41-13-8.6-23.48-20.32-30.3-6.56-3.82-13.6-5-20.8-4.85-7.19-.17-14.24,1-20.8,4.85-11.71,6.82-17.9,17.25-20.31,30.3-2,10.71-.73,21.15,2.08,31.53,2.33,8.54,4.67,17.05,9.63,24.55.16.2,1.85,2.57,2.72,3.45,4.92,4.8,9.55,10,14.83,14.3a17.71,17.71,0,0,0,23.7,0c5.29-4.34,9.92-9.5,14.83-14.3a41.09,41.09,0,0,0,2.72-3.45c5-7.5,7.31-16,9.64-24.55C462.79,225.29,464.05,214.85,462.07,204.14ZM419.7,242.45c.73-2.57.18-5.51.18-8.23a2.69,2.69,0,0,1,1.07-.06,2.74,2.74,0,0,1,1.08.06c0,2.72-.55,5.66.17,8.23s2.72,4.74,4.28,7.29a7.06,7.06,0,0,1-11.06,0C417,247.19,419,245,419.7,242.45ZM405,232.64l.07-.06.11.11A.32.32,0,0,1,405,232.64Zm.55-7.57c-2.92-.24-4.39.4-4.72,2.13s.81,2.59,3.91,3.21c.06,0,.15,0,.24,0a4.48,4.48,0,0,1-.53.39,1.1,1.1,0,0,1-.39.22,1.15,1.15,0,0,1-.29.11.31.31,0,0,1-.2.07,1.09,1.09,0,0,1-.24,0,3.16,3.16,0,0,1-1.6-.17,5.51,5.51,0,0,1-.75-.33,12.91,12.91,0,0,1-1.16-.62c-2.06-1.16-1.42-3.2-1.05-4.91-1.3-.24-2.15-.4-3.16-.57,4.39-2.63,7.63-2.57,12.83.39C407.15,225.07,406.34,225.14,405.53,225.07Zm-8.89-8.14c2.55-4.87,9.92-3.9,16.41,1.74C407.5,218.07,402.33,217.53,396.64,216.93ZM421,270.16c-1.88.07-3.81-1.09-5.35-3.46h10.71C424.77,269.07,422.84,270.23,421,270.16Zm0-6.34a21.43,21.43,0,0,1-9.87-2.46c1.32-1.18,2-1.93,2.85-2.54s1.69-1,2.44-1.47c2.28,1.78,3.33,2.59,4.58,2.41,1.25.18,2.31-.63,4.59-2.41.74.46,1.64.9,2.43,1.47s1.54,1.36,2.86,2.54A21.43,21.43,0,0,1,421,263.82Zm7.9-45.15c6.5-5.64,13.87-6.61,16.41-1.74C439.58,217.53,434.4,218.07,428.85,218.67Zm7.9,14,.11-.11.07.06A.35.35,0,0,1,436.75,232.69Zm5.35-2.53a11.68,11.68,0,0,1-1.16.62,4.91,4.91,0,0,1-.74.33,3.19,3.19,0,0,1-1.61.17l-.24,0a.35.35,0,0,1-.2-.07,2.95,2.95,0,0,1-.68-.33,4.4,4.4,0,0,1-.52-.39l.24,0c3.09-.62,4.21-1.54,3.91-3.21s-1.8-2.37-4.72-2.13c-.81.07-1.63,0-2.9,0,5.2-3,8.45-3,12.84-.39-1,.17-1.87.33-3.16.57C443.53,227,444.17,229,442.1,230.16Z"/>
    <path class="cls-1" d="M461.87,154.91c-.13,2.87-.37,3.24-3.09,2.91-3.34-.41-5.81.93-8,3.14-2.66,2.66-5.38,5.22-8,7.94-1.68,1.76-3.35,2.18-5.55.95-2-1.14-4.12-2.09-6.47-3.23a1.86,1.86,0,0,1-1.43-1.84c0-1.73,7.07-17.09,4.66-18.91-.18,0-7,14.37-13,18.49-6-4.12-12.88-18.49-13-18.49-2.44,1.82,4.7,17.18,4.65,18.91a1.85,1.85,0,0,1-1.42,1.84c-2.35,1.14-4.46,2.09-6.48,3.23-2.19,1.23-3.86.81-5.55-.95-2.59-2.72-5.31-5.28-8-7.94-2.22-2.21-4.7-3.55-8-3.14-2.72.33-3,0-3.1-2.91,0-.88,0-1.8.07-2.7,1.91-25.3,14.9-43,37.17-54.44a7.35,7.35,0,0,1,7.37,0c22.27,11.41,35.26,29.14,37.17,54.44C461.87,153.11,461.9,154,461.87,154.91Z"/>
    <path class="cls-1" d="M436.93,232.64a.35.35,0,0,1-.18.05l.11-.11Z"/>
  </g>
</svg>
