<svg id="Livello_1" data-name="Livello 1" xmlns="http://www.w3.org/2000/svg" viewBox="0 0 841.89 841.89">
  <defs>
    <style>
      .cls-1 {
        fill: #231f20;
      }
    </style>
  </defs>
  <title>Glos</title>
  <g>
    <g>
      <path class="cls-1" d="M127.87,318.67C176.24,258.15,279.25,231,341.07,250c-10.39,24.73-1.66,45.66,13,65.68-23.6,7-41.72,21.37-54.79,41.89C247.64,320,191.5,302.87,127.87,318.67Z"/>
      <path class="cls-1" d="M290.28,424.41l-8.81,2.23c-.31-.35-.55-.5-.61-.71-5.35-19.44-19-30.59-37.41-36.33-19.95-6.21-39.33-4.7-56.88,7.51-11.14,7.76-17.19,18.66-17,32.55,0,1.17.33,2.33.45,3.51.1,1,.13,2.08.22,3.7-4-1.21-7.74-2.21-11.35-3.46a4.6,4.6,0,0,1-2.49-2.22c-4.51-10.56-6.68-21.56-3.43-32.77,4.24-14.63,13.91-24.78,28-30.47,15.59-6.31,31.48-5.76,47.24-.78,26.76,8.47,46.56,25.38,59.54,50.26A62.08,62.08,0,0,1,290.28,424.41Z"/>
      <path class="cls-1" d="M274.18,427.27c-3.7,1.35-6.19.51-9.09-2.68-9.56-10.51-22-14.47-36-14.3-9.61.12-18.47,2.5-26.09,8.58-5.62,4.49-9,10.26-9.4,17.57-.13,2.2.68,4.12,3,3.77a4.8,4.8,0,0,0,3.26-3.2c.67-6.43,4-11,9.11-14.5,13.94-9.53,39.14-6.88,51,6.19-4.44-.56-8.13-.44-11.41-1.54-13.68-4.6-30.86.25-39.48,11.78-5,6.71-11.86,6.91-19.13,6.17-14.46-1.5-15.5-11.72-12.83-23.95s11.5-19.78,22.7-24c22.18-8.39,42.94-5.28,61.65,9.49A34.84,34.84,0,0,1,274.18,427.27Z"/>
      <path class="cls-1" d="M231.23,468.49,237,449.54c11.67,4.33,24.17,3.77,36.67,1.46a85.42,85.42,0,0,0,34.64-14.56c2.69,5,3.22,9.45-1,14-11.57,12.48-24.86,22.43-41.59,26.23-10.49,2.39-21.16,1.51-30.36-5.46C233.78,470,232.07,469,231.23,468.49Z"/>
      <path class="cls-1" d="M302.81,425.78l2.83,4.19a55.6,55.6,0,0,1-17.17,10c-14.59,5.63-29.54,8.2-45.09,4.72-.23,0-.47-.07-.7-.14-7.73-2.23-8.65-4-6.24-11.22C259,435.34,281.4,437,302.81,425.78Z"/>
      <path class="cls-1" d="M361,430.54c.78,6.9,3.57,9.95,8.91,9.9,5.55-.05,8.07-3.39,8.62-11.47a3.11,3.11,0,0,1,.91-.22c5.57.32,6.23,1.38,4.86,7.05-1.66,6.89-6.9,9.5-13,10.9s-10.86-1.22-14.25-6.23C353,434.61,354,432.37,361,430.54Z"/>
      <path class="cls-1" d="M401.31,481.06c-.17,3.29-.32,6.32-.46,9.11l-10.93-.52C390.94,484.81,395.78,481,401.31,481.06Z"/>
      <path class="cls-1" d="M347.49,435.7l6.81,13-14.68-7.24Z"/>
      <path class="cls-1" d="M387.65,445.61l4.43-14.75,6.16,3.43A22.42,22.42,0,0,1,387.65,445.61Z"/>
    </g>
    <g>
      <path class="cls-1" d="M714,318.67C665.66,258.15,562.65,231,500.83,250c10.39,24.73,1.66,45.66-13,65.68,23.59,7,41.72,21.37,54.79,41.89C594.26,320,650.4,302.87,714,318.67Z"/>
      <path class="cls-1" d="M735.72,357.9c-9.42.71-18.61,1.45-27.78,2.13-8.83.69-17.66,1.43-26.5,2-7.8.48-15.3.95-23.27-1.72-18.8-6.25-37.54-3.59-55.62,4-16.19,6.82-30.3,16.67-41.09,30.57-6.14,7.89-11.18,16.57-16.87,25.14-1.6-.44-2-2.19-2.2-4.59-.38-6.11-.44-12.37-1.89-18.27-4.9-19.77-17.7-33.91-34.19-44.91-21.52-14.38-45.65-21.17-71.18-23.45-4.68-.42-9.53-.74-14.17-.74s-9.52.32-14.17.74c-25.56,2.28-49.69,9.07-71.21,23.45-16.49,11-29.3,25.14-34.19,44.91-1.45,5.9-1.51,12.16-1.9,18.27-.14,2.4-.59,4.15-2.19,4.59-5.69-8.57-10.73-17.25-16.84-25.14-10.82-13.9-24.93-23.75-41.12-30.57-18.05-7.59-36.79-10.25-55.62-4-7.94,2.67-15.47,2.2-23.27,1.72-8.84-.53-17.67-1.27-26.51-2-9.16-.68-18.32-1.42-27.75-2.13a96.34,96.34,0,0,1,12.9-27.75,3.66,3.66,0,0,1,1.54-1.3c18.92-7.65,38.6-10.47,58.94-9.55A193.59,193.59,0,0,1,235,330c22.12,7.71,42.61,18.65,60.72,33.71,4.77,4,6.49,3.56,9.22-2,6.31-12.74,16.81-21.28,28.31-29.08,13.7-9.28,30.1-10.55,31.22-13,.48-1-.47-3.41-1.51-4.47-11.62-11.68-18.41-25.65-19.86-42.07a33.33,33.33,0,0,1,4.06-19.84c1.18-2.07,2.61-2.69,4.89-2,5.4,1.72,10.79,3.38,16.25,4.92,2.13.62,2.66,1.81,3,4,1.45,9.52,2.43,19.24,5.28,28.37,5.3,17.11,18.29,26,35.37,29.47a46,46,0,0,0,9,1.19,46.77,46.77,0,0,0,9-1.19c17-3.49,30-12.36,35.37-29.47,2.82-9.13,3.8-18.85,5.28-28.37.32-2.19.89-3.38,3-4,5.46-1.54,10.85-3.2,16.25-4.92,2.28-.71,3.71-.09,4.89,2a33.33,33.33,0,0,1,4.06,19.84c-1.42,16.42-8.21,30.39-19.83,42.07-1.07,1.06-2,3.47-1.54,4.47,1.15,2.41,17.52,3.68,31.22,13,11.5,7.8,22,16.34,28.31,29.08,2.76,5.55,4.45,6,9.22,2,18.11-15.06,38.6-26,60.72-33.71a193.59,193.59,0,0,1,55.41-10.73c20.37-.92,40,1.9,59,9.55a3.85,3.85,0,0,1,1.54,1.3A97.66,97.66,0,0,1,735.72,357.9Z"/>
      <path class="cls-1" d="M776.22,355.56c-11.68.65-22.62,1.27-32.52,1.81-5-10.05-8.66-19.72-14.11-28.32-18-28.43-43.53-48.62-72.91-64.18a201.1,201.1,0,0,0-50.25-18.56c-14-3.14-28.07-6.61-42.27-8.27-23.93-2.76-47.62.38-70.95,6-7.2,1.71-14.32,3.79-21.76,5.81,0-6.53-.09-12.9,0-19.25.06-2.19-.59-3.17-2.73-3.67-6.43-1.48-28.79-7.68-47.79-7.74s-41.39,6.26-47.79,7.74c-2.14.5-2.82,1.48-2.76,3.67.15,6.35.06,12.72.06,19.25-7.47-2-14.59-4.1-21.76-5.81-23.36-5.61-47-8.75-70.95-6-14.23,1.66-28.28,5.13-42.27,8.27a201.09,201.09,0,0,0-50.29,18.56c-29.38,15.56-54.9,35.75-72.9,64.18-5.42,8.6-9.16,18.27-14.08,28.32-9.93-.54-20.87-1.16-32.55-1.81,4.15-7.83,7.85-15.42,12.06-22.71,24.61-42.49,60.78-71.75,105.22-91.34,23-10.11,47.05-16.19,71.78-20.22,24.28-3.95,48.68-4.51,73.14-4,8.27.18,16.48,1.19,24.75,1.78a6,6,0,0,0,2.37-.29c15.75-6,42.56-12,66-12s50.22,6,65.93,12a6.13,6.13,0,0,0,2.41.29c8.24-.59,16.48-1.6,24.72-1.78,24.46-.53,48.86,0,73.14,4,24.73,4,48.83,10.11,71.78,20.22,44.44,19.59,80.61,48.85,105.22,91.34C768.4,340.14,772.07,347.73,776.22,355.56Z"/>
      <path class="cls-1" d="M527.81,486c-10.5,40.64-35.22,70.17-71.16,90.89a8.77,8.77,0,0,1-1.95.72c-7.18-10.32-17.17-15.39-29.32-16.28V550.81c2.1-.35,4-.59,5.78-1,10.82-2.55,20.28-7.3,26.18-17.23,1.66-2.76,2.84-5.36,6.61-5.81.92-.12,2.37-2.58,2.16-3.65s-2.22-2.1-3.59-2.34c-3.88-.68-7.91-.5-11.71-1.42-9.42-2.37-19.89-5.28-29.85.3-10-5.58-20.43-2.67-29.89-.3-3.76.92-7.82.74-11.71,1.42-1.33.24-3.35,1.34-3.55,2.34s1.21,3.53,2.13,3.65c3.77.45,4.95,3,6.61,5.81,5.9,9.93,15.36,14.68,26.18,17.23,1.81.44,3.71.68,5.78,1v10.53c-12.15.89-22.14,6-29.32,16.28a9.37,9.37,0,0,1-1.95-.72c-35.91-20.72-60.66-50.25-71.16-90.89a99.42,99.42,0,0,1-2.76-28.5c.12-3.26,1.87-4.38,4.93-5.09a144.54,144.54,0,0,0,17.13-5.19c1.9-.68,3-.83,4.66.26,14.91,9.73,30.86,12,47.7,6.14a31.2,31.2,0,0,0,17.91-15.36c4.59,4.1,7.08,8.42,5.51,14.35s-3.14,12.07-4.59,18.12c-.6,2.55-1.87,3.55-4.6,3.73-11.3.86-19.92,12.57-16.81,22.48a13.47,13.47,0,0,0,7,8.06c2,1.07,3.94,1.22,5.15-1.07s-.11-3.53-1.92-4.56c-.8-.48-1.54-1-2.35-1.57,6.23-5,29.89,9.13,29.89,12.74,0-3.61,23.63-17.73,29.85-12.74-.8.53-1.54,1.09-2.31,1.57-1.84,1-3.11,2.37-1.95,4.56s3.17,2.14,5.18,1.07a13.42,13.42,0,0,0,7-8.06c3.14-9.91-5.48-21.62-16.81-22.48-2.73-.18-4-1.18-4.6-3.73q-2.18-9.08-4.59-18.12c-1.57-5.93.95-10.25,5.51-14.35a31.17,31.17,0,0,0,17.91,15.36c16.84,5.87,32.82,3.59,47.7-6.14,1.69-1.09,2.79-.94,4.66-.26a146.26,146.26,0,0,0,17.13,5.19c3.06.71,4.84,1.83,5,5.09A99.08,99.08,0,0,1,527.81,486Z"/>
      <path class="cls-1" d="M529.23,428.49c-1.87,5.9-3.65,11.47-5.48,17.2a4.13,4.13,0,0,1-.8,0c-6.2-1.61-11.74-3.89-16.55-8.72-10.76-10.79-24.69-14.47-39.49-14.94-11.09-.36-21.22,2.72-29.82,10.08-1.84,1.57-3.65,3.17-5.9,5.1v-17c16.69-6,50-10.17,72.84,4.12,1.93,1.57,3.83,3.65,6.52,2a5.26,5.26,0,0,0,1.9-7.42c-12-16.84-51.14-20-83-12.89-3.41.71-4.57,2.4-4.63,5.48-.09,7.92-.5,15.86-.17,23.78.62,14.32,2.34,28.43,7.73,41.92a31.7,31.7,0,0,1,2,11.06c.15,6.25-6.57,10-13.4,10s-13.55-3.71-13.43-10a32.41,32.41,0,0,1,2-11.06c5.39-13.49,7.11-27.6,7.73-41.92.33-7.92-.05-15.86-.17-23.78,0-3.08-1.22-4.77-4.63-5.48-31.84-7.06-71-3.95-83,12.89a5.3,5.3,0,0,0,1.93,7.42c2.66,1.63,4.59-.45,6.52-2,22.83-14.29,56.15-10.11,72.81-4.12v17c-2.22-1.93-4.06-3.53-5.9-5.1-8.6-7.36-18.74-10.44-29.82-10.08-14.77.47-28.73,4.15-39.46,14.94-4.84,4.83-10.35,7.11-16.58,8.72a4.13,4.13,0,0,1-.8,0c-1.81-5.73-3.58-11.3-5.48-17.2,3.94-2.46,6-6.46,6-11.53a2,2,0,0,1,.68-1.46c6.82-4.47,7.85-11.35,7.8-18.7,0-.45.05-.92.08-1.75,11.63.06,16.31-7.15,17.7-17.49,13.49,2.34,25.14-4.12,30.6-17.26,13.64,4.42,24.81.95,33.83-9.07,3.35,1.81,8.39,3.47,11.56,5.4,3.14-1.93,8.18-3.59,11.56-5.4,9,10,20.16,13.49,33.8,9.07,5.46,13.14,17.14,19.6,30.6,17.26,1.39,10.34,6.1,17.55,17.7,17.49,0,.83.08,1.3.08,1.75-.06,7.35,1,14.23,7.8,18.7a1.93,1.93,0,0,1,.68,1.46C523.24,422,525.29,426,529.23,428.49Z"/>
      <path class="cls-1" d="M541.09,512.07c-13.4,48.23-42.28,87.84-85.3,113.28a67.51,67.51,0,0,1-69.7,0c-43-25.44-71.86-65.05-85.29-113.28-3.91-14-3.32-28.44-.86-42.76.41-2.46,1.16-5.12,4.68-6.1,1.22,33.08,14.15,61.16,35.46,85.5S392.4,595,421,595s59.56-22,80.85-46.26,34.27-52.42,35.49-85.5c3.49,1,4.23,3.64,4.68,6.1C544.41,483.63,545,498,541.09,512.07Z"/>
      <path class="cls-1" d="M551.62,424.41l8.8,2.23c.32-.35.56-.5.62-.71,5.35-19.44,19-30.59,37.41-36.33,19.95-6.21,39.33-4.7,56.88,7.51,11.14,7.76,17.19,18.66,17,32.55,0,1.17-.33,2.33-.45,3.51-.11,1-.13,2.08-.22,3.7,4-1.21,7.74-2.21,11.35-3.46a4.6,4.6,0,0,0,2.49-2.22c4.51-10.56,6.67-21.56,3.43-32.77-4.24-14.63-13.91-24.78-28-30.47-15.59-6.31-31.48-5.76-47.24-.78-26.76,8.47-46.56,25.38-59.54,50.26A62.08,62.08,0,0,0,551.62,424.41Z"/>
      <path class="cls-1" d="M567.72,427.27c3.7,1.35,6.18.51,9.09-2.68,9.55-10.51,22-14.47,36-14.3,9.61.12,18.47,2.5,26.09,8.58,5.62,4.49,9,10.26,9.4,17.57.13,2.2-.68,4.12-3,3.77a4.8,4.8,0,0,1-3.26-3.2c-.67-6.43-4-11-9.11-14.5C619,413,593.8,415.63,582,428.7c4.43-.56,8.13-.44,11.41-1.54,13.68-4.6,30.86.25,39.47,11.78,5,6.71,11.87,6.91,19.13,6.17,14.47-1.5,15.51-11.72,12.84-23.95s-11.5-19.78-22.7-24c-22.18-8.39-42.94-5.28-61.65,9.49A34.84,34.84,0,0,0,567.72,427.27Z"/>
      <path class="cls-1" d="M535.31,419.24c-.24,1.16-1.07,3.08-2.4,3.17s-2.61-1.87-2.64-2.84c-.09-2.41,0-5.22,1.1-7.24,1-1.81,2.93-3.41.89-5a5.61,5.61,0,0,0-5.22.06c-2.67,2-3.59.65-4.42-1.48a19.41,19.41,0,0,1-.15-14.82,4.71,4.71,0,0,0-.74-4c-.71-.62-2.73-.65-3.79-.15-6.7,3.12-12.13.89-13.7-6.25-.77-3.53-.3-7.29-.74-10.91-.18-1.36-.68-3.59-2.14-3.94s-4.95,4.92-7.14,5.42c-7,1.66-23.45-8.24-21.44-19.48.36-2,.24-3.94-2.19-4.5-2.28-.54-3.74.74-4.06,2.87-.45,2.82-2.4,3.92-4.69,4.75-7.68,2.72-19-.63-23.57-7.33a16.14,16.14,0,0,1-2.22-6.87c-.27-2.11-.56-3.89-3-4s-3.35,1.66-3.53,3.92c-.45,4.74-3.38,7.79-8.57,9.31-5.19-1.52-8.15-4.57-8.57-9.31-.21-2.26-1-4.07-3.56-3.92-2.43.12-2.69,1.9-3,4a16.53,16.53,0,0,1-2.19,6.87c-4.6,6.7-15.93,10.05-23.6,7.33-2.29-.83-4.24-1.93-4.69-4.75-.32-2.13-1.78-3.41-4.06-2.87-2.43.56-2.52,2.49-2.16,4.5,2,11.24-14.41,21.14-21.47,19.48-2.16-.5-5.57-5.78-7.11-5.42s-2,2.58-2.17,3.94c-.44,3.62.06,7.38-.71,10.91-1.57,7.14-7,9.37-13.73,6.25-1.06-.5-3.08-.47-3.79.15a4.6,4.6,0,0,0-.71,4,19.59,19.59,0,0,1-.18,14.82c-.83,2.13-1.75,3.47-4.39,1.48-1.18-.86-4.12-.92-5.22-.06-2.07,1.6-.14,3.2.86,5,1.13,2,1.19,4.83,1.1,7.24,0,1-1.3,2.9-2.64,2.84s-2.16-2-2.4-3.17a42.91,42.91,0,0,1,1.16-21.05c4.68-16,14.91-28.08,27.84-37.92,16.51-12.57,35.6-19.27,55.82-22.89,7.06-1.27,14.26-1.89,21.44-2.63a73.49,73.49,0,0,1,16.24,0c7.15.74,14.35,1.36,21.44,2.63,20.19,3.62,39.28,10.32,55.79,22.89,13,9.84,23.16,21.94,27.84,37.92A42.91,42.91,0,0,1,535.31,419.24Z"/>
      <path class="cls-1" d="M610.67,468.49l-5.76-18.95c-11.67,4.33-24.17,3.77-36.68,1.46a85.43,85.43,0,0,1-34.63-14.56c-2.69,5-3.22,9.45,1,14,11.56,12.48,24.86,22.43,41.59,26.23,10.49,2.39,21.16,1.51,30.36-5.46C608.11,470,609.83,469,610.67,468.49Z"/>
      <path class="cls-1" d="M539.09,425.78,536.26,430a55.6,55.6,0,0,0,17.17,10c14.59,5.63,29.53,8.2,45.09,4.72.23,0,.47-.07.7-.14,7.73-2.23,8.65-4,6.24-11.22C582.88,435.34,560.5,437,539.09,425.78Z"/>
      <path class="cls-1" d="M453.51,527C446,539,434.17,544.44,421,544.44s-25-5.48-32.58-17.46c4.21-1.4,8-3.09,12-3.86,6.41-1.21,12.75-.94,18,3.8.53.5,2.31,1.24,2.55,1.81.21-.57,2-1.31,2.55-1.81,5.22-4.74,11.56-5,18-3.8C445.48,523.89,449.3,525.58,453.51,527Z"/>
      <path class="cls-1" d="M448.62,581.08c-8.39,3.68-18.29,7.33-27.66,8.75-9.4-1.42-19.3-5.07-27.66-8.75,3.76-8,17.63-12.74,27.66-12.74S444.86,573.05,448.62,581.08Z"/>
      <path class="cls-1" d="M480.94,430.54c-.78,6.9-3.57,9.95-8.91,9.9-5.55-.05-8.08-3.39-8.62-11.47a3.11,3.11,0,0,0-.91-.22c-5.57.32-6.23,1.38-4.86,7.05,1.66,6.89,6.9,9.5,13,10.9s10.86-1.22,14.25-6.23C488.86,434.61,488,432.37,480.94,430.54Z"/>
      <path class="cls-1" d="M440.59,481.06c.17,3.29.32,6.32.46,9.11l10.93-.52C451,484.81,446.12,481,440.59,481.06Z"/>
      <path class="cls-1" d="M494.41,435.7l-6.81,13,14.68-7.24Z"/>
      <path class="cls-1" d="M454.25,445.61l-4.43-14.75-6.16,3.43A22.42,22.42,0,0,0,454.25,445.61Z"/>
    </g>
  </g>
</svg>
