<svg id="Livello_1" data-name="Livello 1" xmlns="http://www.w3.org/2000/svg" viewBox="0 0 841.89 841.89">
  <defs>
    <style>
      .cls-1 {
        fill: #231f20;
      }
    </style>
  </defs>
  <title>Glos</title>
  <g>
    <path class="cls-1" d="M670.25,676c-2,5.42-4.51,10.61-8.9,15a225.74,225.74,0,0,0-2.13-49.74c-2.38-16.24-6.07-32.14-13.91-47.11.09,4-1.09,13.12-1,17.86-6.55,2.57-13.39,4.22-20.08.92-5.69-2.8-22.41-18.75-25.36-19.93.71,1.29,6.6,18.51,7.67,20.43-28.22,19.14-64.28-12.65-66.73-13.68-4.16,8.14-.47,18.31-9.2,32.4-16.69.12-21.49-8.93-32.31-10.61-10.09-1.56-13.77.71-19,6.1-5.4,5.6-10.47,11.62-16.28,16.75a109.86,109.86,0,0,1-17.6,12.74c-4.57,2.65-10,3.8-14.3,5.39-1.89,3.57-8.87,6.61-10.08,7.2,0,0-.06,0-.06,0a.13.13,0,0,0-.09,0c-1.21-.59-8.2-3.63-10.08-7.2-4.31-1.59-9.73-2.74-14.3-5.39a110.39,110.39,0,0,1-17.61-12.74c-5.8-5.13-10.88-11.15-16.27-16.75-5.19-5.39-8.88-7.66-19-6.1-10.82,1.68-15.63,10.73-32.32,10.61-8.72-14.09-5-24.26-9.19-32.4-2.45,1-38.51,32.82-66.73,13.68,1.06-1.92,7-19.14,7.67-20.43-2.95,1.18-19.67,17.13-25.36,19.93-6.69,3.3-13.53,1.65-20.08-.92.09-4.74-1.09-13.82-1-17.86-7.84,15-11.53,30.87-13.92,47.11A226.35,226.35,0,0,0,180.66,691c-4.39-4.39-6.87-9.58-8.9-15-9-23.86-26.22-51.9-22.09-76.87,12.41-75.27,161.28-42.28,192.62-29.28,27.4,11.38,58.53,32.23,78.73,54.61,20.17-22.38,51.3-43.23,78.69-54.61,31.35-13,180.21-46,192.63,29.28C696.46,624.12,679.27,652.16,670.25,676Z"/>
    <path class="cls-1" d="M421,669.77l-.09,0v0A.13.13,0,0,1,421,669.77Z"/>
    <path class="cls-1" d="M421.08,669.74v0l-.06,0S421.05,669.74,421.08,669.74Z"/>
    <path class="cls-1" d="M746.41,573.11c-16.3-59-74-100.51-143.12-84.17a195.18,195.18,0,0,0-46,17.48c-46.35,24.41-67.11,27.63-66.79,27.07,13.36-20.94,32.91-33.14,56.38-39.66,6.66-1.89,7.13-1.65,7.52-8.67.41-7.25,3.89-12.47,9.26-16.72,3.3-2.62,7-4.71,10.34-7.34,4.25-3.33,8.85-6.51,12.21-10.58,7.67-9.26,4-20.46-7.37-23.91a63.36,63.36,0,0,0-8.26-1.57c-7.69-1.24-9-3.3-7-11.05,1-4.13,2.24-8.2,3.09-12.36,2-10.23.27-14.27-9.08-18.66-6.37-3-13.12-5.16-19.72-7.58-3.28-1.24-6-3-6.28-6.81s1.77-6.28,4.83-8.05c2.66-1.5,5.43-2.8,8.17-4.07,6-2.77,12-5.42,17.9-8.31,2.41-1.24,5.22-2.48,4.83-6.49a36.27,36.27,0,0,0-3.74-1.53c-6.37-1.83-7.7-4-5.16-10a64.05,64.05,0,0,1,5.31-9.14c3.74-5.75,8-11.08,11.29-17.1a71.5,71.5,0,0,0,7-17.51c1.83-8.08-1.76-12.5-9.84-14.13-3.19-.64-6.46-1.12-9.7-1.59-5.34-.79-10.71-2.06-15.87.86-2.5,1.41-4.6.2-6.28-1.57a29.4,29.4,0,0,1-3.8-5.1,13.55,13.55,0,0,0-11.23-6.31c-12.53-.82-23.3,2.45-30.87,13.3a37.74,37.74,0,0,1-7.29,7.7c-2.56,2-5.72,3.33-8.66,4.95a20.87,20.87,0,0,1,1.29-9.7c3.07-7.4,6.55-14.6,9.7-22,2.72-6.25,5.81-12.38,7.85-18.93,3.8-12.11-.51-21.17-12-26.62-2.95-1.39-6-2.71-8.94-4.16a9.27,9.27,0,0,1-5.42-7.66c-.89-6.2-2.45-12.36-3.6-17.9-7.4-2.57-15.07-4-21.14-7.78s-20.23-14-25.18-18.9c-4.95,4.95-19,15-25.21,18.9S382,175,374.61,177.55c-1.15,5.54-2.71,11.7-3.6,17.9a9.27,9.27,0,0,1-5.42,7.66c-3,1.45-6,2.77-8.94,4.16-11.52,5.45-15.83,14.51-12,26.62,2,6.55,5.13,12.68,7.85,18.93,3.15,7.37,6.63,14.57,9.7,22a20.87,20.87,0,0,1,1.29,9.7c-2.94-1.62-6.1-2.92-8.66-4.95a37.74,37.74,0,0,1-7.29-7.7c-7.57-10.85-18.34-14.12-30.87-13.3a13.55,13.55,0,0,0-11.23,6.31,29.4,29.4,0,0,1-3.8,5.1c-1.68,1.77-3.78,3-6.28,1.57-5.16-2.92-10.53-1.65-15.87-.86-3.24.47-6.51.95-9.7,1.59-8.08,1.63-11.67,6.05-9.85,14.13a71.93,71.93,0,0,0,7,17.51c3.25,6,7.55,11.35,11.29,17.1a64.05,64.05,0,0,1,5.31,9.14c2.54,6,1.21,8.17-5.16,10a36.27,36.27,0,0,0-3.74,1.53c-.39,4,2.42,5.25,4.83,6.49,5.87,2.89,11.94,5.54,17.9,8.31,2.74,1.27,5.51,2.57,8.17,4.07,3.06,1.77,5.07,4.36,4.83,8.05s-3,5.57-6.28,6.81c-6.6,2.42-13.35,4.57-19.72,7.58-9.35,4.39-11.12,8.43-9.08,18.66.85,4.16,2.09,8.23,3.09,12.36,2,7.75.65,9.81-7,11.05a63.36,63.36,0,0,0-8.26,1.57c-11.41,3.45-15,14.65-7.37,23.91,3.36,4.07,8,7.25,12.21,10.58,3.3,2.63,7,4.72,10.34,7.34,5.37,4.25,8.85,9.47,9.26,16.72.39,7,.86,6.78,7.52,8.67,23.47,6.52,43,18.72,56.38,39.66.32.56-20.44-2.66-66.79-27.07a195.18,195.18,0,0,0-46-17.48c-69.11-16.34-126.82,25.15-143.12,84.17-1,3.6-1.12,7.41-1.74,11.5,4-.17,5.54-2.77,7.08-4.83,21.61-28.93,51-40.13,54.37-42,2.53,9.44,9.81,10.35,17.66,10.14,14.53-.32,28.21-4.68,42-8.4,4.34-1.15,7.84-1.71,12.44,1.09,4,2.51,35.68,4.07,46,5,26.48,2.35,51.54,10.05,76.25,19.45,29.19,11.12,70.79,51.63,71.35,53,.56-1.36,42.19-41.87,71.38-53,24.71-9.4,49.77-17.1,76.25-19.45,10.32-.92,42-2.48,46-5,4.6-2.8,8.1-2.24,12.44-1.09,13.83,3.72,27.51,8.08,42,8.4,7.85.21,15.13-.7,17.66-10.14,3.34,1.83,32.76,13,54.37,42,1.54,2.06,3.13,4.66,7.08,4.83C747.53,580.52,747.41,576.71,746.41,573.11ZM384.6,420.94c-2.88,5.87-13.09,8.82-18.6,2.51-3.18-3.63-6.72-7-10.85-11.2,5.66-1.54,10.53-3,15.45-4.22,7.55-1.8,13.18,1.42,17.6,6.93C386.67,417.44,385.52,419.12,384.6,420.94Zm36.33-49.44c-9.29,0-12-1.5-16-5.19,7.39,1.46,25.87,1.49,32.11,0C433,370,430.25,371.5,420.93,371.5Zm11.53,7.13c-3.69,2.57-6,3.54-11.53,3.54s-7.81-1-11.5-3.54A72.33,72.33,0,0,0,432.46,378.63Zm-11.53,10.24c8.64.07,33.55-6.76,39.45-6.49C446.76,393.91,429,396.3,420.93,396.3s-25.8-2.39-39.42-13.92C387.41,382.11,412.39,388.79,420.93,388.87Zm22.14,88c-3.92-.86-6.13,1.65-9.23,3.53A19.16,19.16,0,0,1,420.93,483a19.11,19.11,0,0,1-12.88-2.54c-3.1-1.88-5.31-4.39-9.23-3.53a13.56,13.56,0,0,1,5.92-2.24c7.9,6.13,10.44,4.86,16.19,4.33,5.78.53,8.31,1.8,16.22-4.33A13.56,13.56,0,0,1,443.07,476.91Zm-22.14,45.37a26,26,0,0,1-15.48-4.48l15.48.06,15.51-.06A26,26,0,0,1,420.93,522.28Zm0-12.62c-10.64-.47-20.61,2.36-30.75,8.08,2.27-4,3.62-6.42,5.45-9.7,4,3,7.37,1.92,10.79-.29a15.55,15.55,0,0,1,14.51-1.59,15.62,15.62,0,0,1,14.54,1.59c3.42,2.21,6.75,3.3,10.79.29,1.83,3.28,3.18,5.72,5.45,9.7C441.57,512,431.6,509.19,420.93,509.66ZM453.69,415c4.42-5.51,10.05-8.73,17.6-6.93,4.92,1.18,9.79,2.68,15.45,4.22-4.13,4.24-7.67,7.57-10.85,11.2-5.51,6.31-15.72,3.36-18.61-2.51C456.37,419.12,455.22,417.44,453.69,415Zm4.24,132.71c3.69-3.07,30.2-30.55,35.38-42s9.71-44.4,13.45-52.33c1.36-2.18,11.2-23.38,11.41-23.85,8.85-20.64,6.66-41.16-2.51-60.86-13.77-29.66-38.24-45.94-69.43-53.57-7.82-1.92-16.85-2.43-25.29-2.43s-17.46.51-25.28,2.43c-31.19,7.63-55.67,23.91-69.43,53.57-9.17,19.7-11.36,40.22-2.51,60.86.21.47,10,21.67,11.41,23.85,3.74,7.93,8.2,40.78,13.44,52.33s31.7,39,35.39,42c-5.08-2-38-31.28-40.63-39.1-4-11.91-11.86-42.9-14.07-47.91-2.8-6.43-6-9.38-13.15-10.79-6.93-1.39-13.89-2.57-21.23-3.92,9.2-3.3,26.75-9.56,26.75-9.56-17.31-29.19-6.55-66.57,12-87.71-10.77-19.4-14.24-26.3-26.57-41.31,15.24,12.38,25.86,18,38.63,26.89,20-18.28,50.53-24.18,50.53-24.18,2-7.93,4.16-14.95,5.19-22.58,2.3-16.75,3.69-33.64,5.75-50.45,1.12-9.14,12.33-22.08,13.77-31.17,1.44,9.09,12.68,22,13.8,31.17,2.06,16.81,3.45,33.7,5.75,50.45,1,7.63,3.21,14.65,5.19,22.58,0,0,30.48,5.9,50.53,24.18,12.77-8.93,23.39-14.51,38.63-26.89-12.33,15-15.8,21.91-26.57,41.31,18.55,21.14,29.31,58.52,12,87.71,0,0,17.55,6.26,26.75,9.56-7.35,1.35-14.3,2.53-21.23,3.92-7.11,1.41-10.35,4.36-13.15,10.79-2.21,5-10.09,36-14.07,47.91C496,516.39,463,545.64,457.93,547.67Z"/>
  </g>
</svg>
