<svg id="Livello_1" data-name="Livello 1" xmlns="http://www.w3.org/2000/svg" viewBox="0 0 841.89 841.89">
  <defs>
    <style>
      .cls-1 {
        fill: #231f20;
      }
    </style>
  </defs>
  <title>Glos</title>
  <g>
    <path class="cls-1" d="M256.9,100.72q8.66-4.11,17.21-8.52c4.33-2.18,9-4.14,12.69-7.36,5.07-4.41,8.48-10.51,10.74-16.73a63.9,63.9,0,0,0,3.73-21.58,48.36,48.36,0,0,0-3.81-20.21,6,6,0,0,0-.37-.77H268.74c8.44,14.1,2.67,33.94-5,41.23-6.25,6-39.82,27.61-49.07,34-10.22,7-13.77,16.7-10,28.69a53.86,53.86,0,0,1,2,24.91c-.63,4-1.26,8.21-5.59,10.32-4.78,2.3-9.22.89-11.44-4.07a25.9,25.9,0,0,1-1.55-17.21c2.14-8.92,4-17.95,5.55-27a46.68,46.68,0,0,0,.41-12.21C193.09,93,187,87.32,176.47,86c-10.51,1.37-16.62,7-17.62,18.25a46.68,46.68,0,0,0,.41,12.21c1.55,9,3.4,18.06,5.55,27a25.9,25.9,0,0,1-1.55,17.21c-2.23,5-6.67,6.37-11.44,4.07-4.33-2.11-5-6.29-5.59-10.32a53.73,53.73,0,0,1,2-24.91c3.77-12,.22-21.65-10-28.69-9.25-6.36-42.82-28-49.08-34-7.66-7.29-13.43-27.13-5-41.23H55.85a6,6,0,0,0-.37.77,48.52,48.52,0,0,0-3.82,20.21A63.91,63.91,0,0,0,55.4,68.11c2.26,6.22,5.66,12.32,10.74,16.73C69.8,88.06,74.5,90,78.83,92.2Q87.38,96.6,96,100.72c3.41,1.63,6.89,3.11,10.25,4.81a1,1,0,0,1,.52,1.22c-.59,1.52-6-1.3-7.1-1.7-2.85-1.08-5.67-2.22-8.44-3.44q-8.38-3.61-16.36-8c-4.07-2.22-12.4-7.33-12.59-7.44-.18,6.85-.44,10.59-.4,15.58.22,28.76.55,83.5.55,83.5s-.89,30.21-3.48,45.12c-3.4,19.51-5.44,62-.85,64.77a1.81,1.81,0,0,0,1.74.19c4.74-2.26,10.7-24.65,14.47-24.69,3.26-.07,8.14,15.73,15.21,13.66,3.34-1-7.14-48.78-15.65-67.14-4.48-9.63-5.33-31.91-5.33-31.91s-2.26-67.06-3.18-83.16c2.66,4.55,5.07,8.62,7.51,12.77.29.48,32.53,8.25,42,9.21,3,.3,2.85,2.78,0,2.7-12-.33-38.53-8.18-39.6-8,5.85,9.77,11.69,20.61,17.39,30.12,4.15.67,27.73,1.15,31,1.26,1.59.15,1.7,2.08-.11,2.08-14.18.37-17.8.48-30.28-.23,1.3,10.29,3.81,30.32,3.81,30.32,4.19-1.74,20.18-7.67,28.8-13.51,1.85-.71,2.81.4.89,1.66-5.78,3.78-25.06,12.51-29,14.4l9.81,23.39a136.35,136.35,0,0,0,21-17.84,1.42,1.42,0,1,1,2,2c-4.4,5.44-19.76,17.43-21.61,18.14,6.25,9.73,15.87,10.69,24.76,2,3.59-3.52,7.33-6.85,11.47-10.7.19,1.63.3,31.64-.26,45.19a30.49,30.49,0,0,0,4.15,17.51,43.35,43.35,0,0,1,6.29,22.61c0,2.41-2.55,2.52-2.67-.11-.44-9.36-4.33-18.1-8.73-25.91-2.26-4.07-6-5.47-10.4-5.11s-6.7,3.48-7.66,7.48c-2.26,9.48-3.93,18.95-1.37,28.8,2.66,10.14,7.73,18.84,14.25,26.87,3.88,4.74,5.22,14.69,12.32,14.91-6.47-.22-11.55-.14-15.88,0-5.73.19-10.47,8.52-11.14,11.7-37.49,6.25-58.22,25.09-63.36,57.55C56.66,429.46,71.06,457.18,95.23,470c21.39,11.32,55.22,12.69,81.24-15.59,26,28.28,59.85,26.91,81.24,15.59,24.17-12.85,38.57-40.57,34.46-66.63-5.15-32.46-25.87-51.3-63.37-57.55-.66-3.18-5.4-11.51-11.14-11.7-4.33-.14-9.4-.22-15.87,0,7.1-.22,8.43-10.17,12.32-14.91,6.51-8,11.59-16.73,14.25-26.87,2.55-9.85.89-19.32-1.37-28.8-1-4-3.26-7.1-7.66-7.48s-8.14,1-10.4,5.11c-4.41,7.81-8.29,16.55-8.74,25.91-.11,2.63-2.62,2.52-2.66.11a43.26,43.26,0,0,1,6.29-22.61A30.49,30.49,0,0,0,208,247.1c-.56-13.55-.45-43.56-.26-45.19,4.14,3.85,7.88,7.18,11.47,10.7,8.88,8.69,18.51,7.73,24.76-2-1.85-.71-17.21-12.7-21.61-18.14a1.43,1.43,0,1,1,2-2,135.88,135.88,0,0,0,21,17.84l9.81-23.39c-4-1.89-23.25-10.62-29-14.4-1.93-1.26-1-2.37.89-1.66,8.62,5.84,24.61,11.77,28.79,13.51,0,0,2.52-20,3.82-30.32-12.48.71-16.1.6-30.28.23-1.81,0-1.7-1.93-.11-2.08,3.29-.11,26.87-.59,31-1.26,5.7-9.51,11.55-20.35,17.4-30.12-1.07-.23-27.57,7.62-39.6,8-2.85.08-3-2.4,0-2.7,9.44-1,41.67-8.73,42-9.21,2.44-4.15,4.85-8.22,7.51-12.77-.92,16.1-3.18,83.16-3.18,83.16s-.85,22.28-5.33,31.91c-8.51,18.36-19,66.18-15.66,67.14,7.07,2.07,12-13.73,15.22-13.66,3.77,0,9.73,22.43,14.47,24.69a1.81,1.81,0,0,0,1.74-.19c4.59-2.77,2.55-45.26-.85-64.77-2.59-14.91-3.48-45.12-3.48-45.12s.33-54.74.55-83.5c0-5-.22-8.73-.41-15.58-.18.11-8.51,5.22-12.58,7.44q-8,4.4-16.36,8c-2.77,1.22-5.59,2.36-8.44,3.44-1.07.4-6.51,3.22-7.1,1.7a1,1,0,0,1,.51-1.22C250,103.83,253.49,102.35,256.9,100.72ZM176.47,369.5c-5.37-4.74-10.73-9.47-16-14.1,2.3-.85,8.77-1.33,16-1.41,7.25.08,13.73.56,16,1.41C187.2,360,181.84,364.76,176.47,369.5Z"/>
    <path class="cls-1" d="M745.85,741.17q8.65,4.11,17.21,8.52c4.33,2.18,9,4.14,12.69,7.36,5.08,4.41,8.48,10.51,10.74,16.73a63.91,63.91,0,0,1,3.74,21.58,48.55,48.55,0,0,1-3.82,20.21,6,6,0,0,1-.37.77H757.69c8.44-14.1,2.67-33.94-5-41.23-6.26-6-39.83-27.61-49.08-34-10.22-7-13.77-16.7-10-28.69a53.73,53.73,0,0,0,2-24.91c-.63-4-1.26-8.22-5.59-10.32-4.77-2.3-9.21-.89-11.44,4.07a25.9,25.9,0,0,0-1.55,17.21c2.15,8.92,4,18,5.55,27a46.68,46.68,0,0,1,.41,12.21c-1,11.25-7.11,16.88-17.62,18.25-10.51-1.37-16.62-7-17.62-18.25a46.68,46.68,0,0,1,.41-12.21c1.55-9,3.41-18.06,5.55-27a25.9,25.9,0,0,0-1.55-17.21c-2.22-5-6.66-6.37-11.44-4.07-4.33,2.1-5,6.29-5.59,10.32a53.86,53.86,0,0,0,2,24.91c3.77,12,.22,21.65-10,28.69-9.25,6.36-42.82,28-49.07,34-7.67,7.29-13.44,27.13-5,41.23H544.8a6,6,0,0,1-.37-.77,48.39,48.39,0,0,1-3.81-20.21,63.9,63.9,0,0,1,3.73-21.58c2.26-6.22,5.67-12.32,10.74-16.73,3.66-3.22,8.36-5.18,12.69-7.36q8.55-4.4,17.21-8.52c3.41-1.63,6.89-3.11,10.26-4.81a1,1,0,0,0,.51-1.22c-.59-1.52-6,1.3-7.1,1.7-2.85,1.08-5.67,2.22-8.44,3.44q-8.38,3.62-16.36,8c-4.07,2.22-12.4,7.33-12.59,7.44-.18-6.85-.44-10.59-.4-15.58.22-28.76.55-83.5.55-83.5s-.89-30.21-3.48-45.12c-3.4-19.51-5.44-62-.85-64.77a1.81,1.81,0,0,1,1.74-.19c4.74,2.26,10.7,24.65,14.47,24.69,3.26.07,8.15-15.73,15.22-13.66,3.33,1-7.15,48.78-15.66,67.14-4.48,9.62-5.33,31.91-5.33,31.91s-2.26,67.06-3.18,83.16c2.66-4.55,5.07-8.62,7.51-12.77.3-.48,32.53-8.25,42-9.21,3-.3,2.85-2.78,0-2.7-12,.33-38.53,8.18-39.6,8,5.85-9.77,11.7-20.61,17.4-30.12,4.14-.67,27.72-1.15,31-1.26,1.59-.15,1.7-2.08-.11-2.08-14.18-.37-17.8-.48-30.28.23,1.3-10.29,3.82-30.32,3.82-30.32,4.18,1.74,20.17,7.67,28.79,13.51,1.85.71,2.81-.4.89-1.66-5.77-3.78-25.06-12.51-29-14.4l9.81-23.39a135.88,135.88,0,0,1,21,17.84,1.43,1.43,0,1,0,2-2C615.16,644,599.8,632,598,631.28c6.25-9.73,15.88-10.69,24.76-2,3.59,3.52,7.33,6.85,11.47,10.7.19-1.63.3-31.64-.26-45.19a30.49,30.49,0,0,1,4.15-17.51,43.26,43.26,0,0,0,6.29-22.61c0-2.41-2.55-2.52-2.66.11-.45,9.36-4.33,18.1-8.74,25.91-2.26,4.07-6,5.47-10.4,5.11s-6.7-3.48-7.66-7.48c-2.26-9.48-3.92-19-1.37-28.8,2.66-10.14,7.74-18.84,14.25-26.87,3.89-4.74,5.22-14.69,12.32-14.91-6.47.22-11.54.14-15.87,0-5.74-.19-10.48-8.52-11.14-11.7-37.5-6.25-58.22-25.09-63.37-57.55-4.11-26.06,10.29-53.78,34.46-66.63,21.39-11.32,55.22-12.69,81.24,15.59,26-28.28,59.85-26.91,81.24-15.59,24.17,12.85,38.57,40.57,34.46,66.63C776,471,755.25,489.79,717.76,496c-.67,3.18-5.41,11.51-11.14,11.7-4.33.14-9.41.22-15.88,0,7.1.22,8.44,10.17,12.32,14.91,6.52,8,11.59,16.73,14.25,26.87,2.56,9.85.89,19.32-1.37,28.8-1,4-3.25,7.1-7.66,7.48s-8.14-1-10.4-5.11c-4.4-7.81-8.29-16.55-8.73-25.91-.12-2.63-2.63-2.52-2.67-.11a43.35,43.35,0,0,0,6.29,22.61,30.49,30.49,0,0,1,4.15,17.51c-.56,13.55-.45,43.56-.26,45.19,4.14-3.85,7.88-7.18,11.47-10.7,8.89-8.69,18.51-7.73,24.76,2-1.85.71-17.21,12.7-21.61,18.14a1.42,1.42,0,1,0,2,2,136.35,136.35,0,0,1,21-17.84L744.11,657c-4,1.89-23.24,10.62-29,14.4-1.92,1.26-1,2.37.89,1.66,8.62-5.84,24.61-11.77,28.8-13.51,0,0,2.51,20,3.81,30.32-12.48-.71-16.1-.6-30.28-.23-1.81,0-1.7,1.93-.11,2.08,3.29.11,26.87.59,31,1.26,5.7,9.51,11.54,20.35,17.39,30.12-1.07.23-27.57-7.62-39.6-8-2.85-.08-3,2.4,0,2.7,9.44,1,41.68,8.73,42,9.21,2.44,4.15,4.85,8.22,7.51,12.77-.92-16.1-3.18-83.16-3.18-83.16s-.85-22.29-5.33-31.91c-8.51-18.36-19-66.18-15.65-67.14,7.07-2.07,11.95,13.73,15.21,13.66,3.77,0,9.73-22.43,14.47-24.69a1.81,1.81,0,0,1,1.74.19c4.59,2.77,2.55,45.26-.85,64.77-2.59,14.91-3.48,45.12-3.48,45.12s.33,54.74.55,83.5c0,5-.22,8.73-.4,15.58-.19-.11-8.52-5.22-12.59-7.44q-8-4.39-16.36-8c-2.77-1.22-5.59-2.36-8.44-3.44-1.07-.4-6.51-3.22-7.1-1.7a1,1,0,0,0,.52,1.22C739,738.06,742.44,739.54,745.85,741.17ZM665.42,472.39c-5.37,4.74-10.73,9.47-16,14.1,2.3.85,8.78,1.33,16,1.41,7.26-.08,13.73-.56,16-1.41C676.15,481.86,670.79,477.13,665.42,472.39Z"/>
  </g>
  <path d="M422.11,569.48c-.21,3.82-5.14,9.56-19,6.43-4.71-1.06-4.4-7.78-2-11.71,10.51-17.05,7.45-34.53,1.81-51.91-3-9.34-3-18.58-2.67-28.16.26-7.68.68-25.92-6.33-31.54-32.1-25.7-24.34-98.24-24.25-110.71.07-10.75,7.86-17.05,16.49-21.61,5.95-3.14,5.88-14.21,4.27-20.21-1.4-5.22-11.53-44.68,20.27-42.55,26,1.74,22.71,34.66,22.2,40.88-1,12.71,5.24,21.13,16.09,25.44,14.15,5.62,20.92,15.53,21,30.23.09,25.53,7.2,52.24-.43,76.6-6.5,20.74-9.17,52.86-5.5,65.15,2.83,9.5,1,20.52.59,30.84-.38,10.74.82,21,4.86,31.1,2.33,5.84,2.66,12.57,3.34,19,.5,4.62-4.92,9-17.14,7.43-5.33-.67-8-4.75-6.94-9.95,2.82-13.86-.62-26.7-6-39.13-5.23-12-7.64-24.14-5.62-37.26.91-5.92-1.24-31.34-7.23-31.12C417.79,467.13,422.72,558.05,422.11,569.48Z"/>
</svg>
