<svg id="Livello_1" data-name="Livello 1" xmlns="http://www.w3.org/2000/svg" viewBox="0 0 841.89 841.89">
  <defs>
    <style>
      .cls-1 {
        fill: #231f20;
      }
    </style>
  </defs>
  <title>Glos</title>
  <g>
    <path class="cls-1" d="M477.82,450.87a30.37,30.37,0,0,1,4.42-2.72c10.82-4.4,12.8-13,4.5-21.26a53.49,53.49,0,0,0-10.41-7.71c-4.52-2.7-9.32-5-14.1-7.21-2.55-1.2-5.32-1.43-6.51,1.86s.5,5,3.49,6.33c6.27,2.88,12.41,6.07,18.49,9.34a12.72,12.72,0,0,1,4.13,3.77c.93,1.28,2.14,3.81,1.62,4.42-1.26,1.46-3.44,2.9-5.27,2.92-2.67,0-4.59.35-5.42,3-3.18,10.35-13.09,13.82-23.47,11.64a39.15,39.15,0,0,1-18.81-10.09c-1-.9-2.94-1.06-4.43-1-2.27.07-5,1.59-6.69.77-4.89-2.37-7.71,0-11.29,2.79-7.68,6-16.43,9.69-26.44,7.86-6.34-1.16-11.05-4.88-13.15-11.24-.88-2.7-2.28-3.86-5.38-3.78a7.18,7.18,0,0,1-5.39-2.6c-.61-.91.57-4.18,1.85-5,6.46-4.25,13.2-8.09,19.88-12,1.23-.72,3.22-.72,3.87-1.7a8.42,8.42,0,0,0,1.55-5.54c-.18-1-3.24-2.63-4.19-2.19-10.68,4.82-22.21,8.62-29.23,18.9-4.74,6.94-2,13.82,6.25,17.39,1.94.84,3.74,2,6.33,3.4-18.83,6.22-25.47,20.49-29.41,36.8a33,33,0,0,0-1,7.71A36.28,36.28,0,0,1,328,515.24c-4.57,7.47-8.42,15.5-8.12,24.68,0,1.43.72,4,1.33,4a6.41,6.41,0,0,0,4.68-1.35,27.66,27.66,0,0,0,5.3-6.78c6.12-11.25,10.36-22.92,9.52-36.19-.88-13.73,4.55-25.4,14.22-35,2-1.94,4.58-3.2,7.63-5.26-.27,5.49,2.18,8.29,6.06,9.3a114.14,114.14,0,0,0,17.72,3.45c8.49.81,17.05.83,25.58,1.23,1.56.08,3.11.36,4.71.56,0,8.86,0,17.37,0,25.88,0,11.87,0,23.73-.31,35.6a10.05,10.05,0,0,1-2,5.67c-3.41,4.25-4.1,8.43-2.13,13.65a63.41,63.41,0,0,1,3.76,27.59A162.82,162.82,0,0,1,409,619.54c-1.18,3.73-3.27,6.49-6.74,7.92-7.7,3.19-15.44,6.29-23.3,9-2.32.81-5.15.61-7.67.32-11.16-1.31-20.24,2.42-27.12,11.15-4.7,6-6.08,12.82-3.15,20,3,7.4,9.24,10.55,16.86,11.82,6.52,1.09,13,2.5,19.38,4.22a21.85,21.85,0,0,1,7.11,4c3.33,2.54,5.06,5.89,3.56,10.25-.93,2.73.31,5,2.78,5.32,1.44.18,4.05-1.64,4.62-3.13,2.5-6.65.41-12.45-4.48-17.35-5.66-5.67-12.9-8-20.5-9.43-3.7-.69-7.45-1-11.16-1.62-6.87-1.13-10.85-4.41-11.56-9.36-.79-5.57,2.79-12.76,8.27-15,3.66-1.48,8-3,11.69-2.4,10.84,1.59,20.08-2.56,29.51-6.54,2.2-.92,4.42-1.8,7.19-2.93-.81,8.66-5.4,14.57-10.47,20.21-1,1.07-2.23,1.85-3.28,2.84-5.66,5.39-5.54,11.11.36,16.28,2.83,2.48,5.73,4.87,8.6,7.3,6.07,5.16,6.48,15.56,1,21.41q-6.76,7.2-13.25,14.66a18.06,18.06,0,0,0-2.28,4.54c-1.42,3.14-2.47,6.5-4.24,9.43-5.11,8.46-8.64,9.16-18.21,7.29-7.41-1.45-15.17-1.53-22.77-1.52-7.8,0-15.6,1-23.4,1.24a17.59,17.59,0,0,1-7.46-1.72c-6.11-2.76-7.45-7-3.84-12.54a10.72,10.72,0,0,0,1.36-9c-1.2-5,1.67-11,6.64-12.33s10.45-1.52,15.61-2.6c3.27-.68,7-1.33,9.44-3.3,5.07-4,4-9.12-2-11.6-9.57-4-17.67-9.77-23.82-18.16-15-20.53-7.54-46.8,16.08-56.49a38.68,38.68,0,0,0,19-16.51,19.67,19.67,0,0,0,2.52-8.56c.08-1.35-1.95-3.5-3.46-4-1-.31-3.7,1.54-3.94,2.75-1.81,9.37-8.26,14.83-16.06,18.62-19.92,9.68-27.38,19.5-30.09,40.14-5.71,4-11.47,7-15.78,11.48a26.4,26.4,0,0,0-6.42,12.76c-1.6,8.12,6.76,13.6,16.56,10.88,4.91-1.37,9.43-4.13,14.49-6.42,6,4.37,6.36,7.16,1.07,13.19-9.33,10.64-26.08,11.48-35.38,1-6.41-7.24-7.28-16.28-4.69-25.64,3.22-11.62,10.17-20.17,20.67-26,2.31-1.27,4.29-2.89,2.64-5.84s-4.25-2.28-6.72-.93c-14.77,8-21.84,21.19-24.66,37.14-.18,1-.23,2-.34,2.93a25.68,25.68,0,0,1-26.46-17.6c-3.1-9-4.72-18.6-7.11-27.91-3-11.61-7.07-22.71-13.63-32.92-5.95-9.26-6.14-18.91-.25-28.58,6.61-10.86,16.13-18.32,27.08-24.34,2.55-1.4,4.6-3.68,7.11-5.74,1.92,2.07,4.76,5,7.43,8.08,4,4.6,4.88,9.77,2.12,15.28-2.2,4.38-4.83,8.55-6.92,13-4.67,9.88-9.46,19.73-13.53,29.86-2.62,6.53-1.1,12.71,3.14,18.75,3.76,5.36,6.12,11.71,9.1,17.63.78,1.54,1.2,3.54,2.43,4.5s3.89,2,5.09,1.42,2.12-3.68,1.55-4.93c-3.59-7.86-7.19-15.77-11.68-23.12-2.6-4.25-3.78-8.29-1.95-12.6,3.79-9,8-17.86,12.23-26.67,2.38-4.94,5.46-9.54,7.76-14.5,4.05-8.74,3.4-17.74-3.83-23.94-8.43-7.22-8.05-15.59-5.69-24.34s6.06-17,9.8-25.35c2.3,10.15,7.52,17.73,15.3,24.26,9.67,8.12,10.05,19.5,2.08,29.24-1.37,1.68-2.91,3.22-4.33,4.86-4,4.64-5.66,9.88-6.27,16.11-1.59,16.27,4.37,29,16.16,39.66a38.73,38.73,0,0,1,4,4.57c1.75,2.16,3.91,2.66,6,1s1.92-3.81.24-5.72c-2.85-3.27-5.81-6.45-8.73-9.66-8.2-9-13-19.32-9.52-31.65a30.51,30.51,0,0,1,7-12.14c12.22-12.93,11.64-30.86-1.87-42.51-5.51-4.75-11.57-9.45-11.93-17.35-.42-9.08,1.66-18.23,6.81-25.54,7.21-10.21,15.91-19.37,24-29l1,.68c-1,5.67-2.23,11.31-2.86,17-1.14,10.24.9,19.82,7.07,28.31,2.21,3,4.45,6.06,6.52,9.2,4.08,6.17,5.29,12.52,1.92,19.61C308.89,516.71,304.06,528,299,539.13c-7.47,16.34-7.55,32.76,0,49,2.1,4.49,5.54,8.41,8.74,12.28.78.94,3.45,1.29,4.58.68s1.91-2.86,1.71-4.22a9.69,9.69,0,0,0-2.63-4.84c-9.8-10.31-11-22.92-9.29-36,.69-5.16,2.9-10.22,5-15.08,4.69-11,9.76-21.86,14.63-32.79,4.37-9.8,2.41-18.87-3.37-27.44-4.08-6.07-9.57-11.27-11-18.94-2.84-15.63.88-29.83,9.51-42.82a27.31,27.31,0,0,1,7.52-7c15.83-10.68,32.79-19.34,51.77-22.15,11.9-1.77,24.18-1,36.29-1.31,5.35-.11,10.7.17,16.05.11,7.37-.08,14.75-.61,22.11-.42,22,.57,41.41,9.14,60.19,19.88,13.55,7.75,20.09,19.58,22.83,34.3,2.45,13.23.28,24.92-8.86,35.51-8.49,9.85-10.37,21.13-4.24,33.41,5.4,10.83,10.58,21.84,15,33.11,6.42,16.52,6.53,32.67-5.61,47.21a12.8,12.8,0,0,0-3,5.18c-.26,1.34.65,3.86,1.68,4.27a5.45,5.45,0,0,0,4.92-.92c17.58-18.91,16.72-45.16,7.81-62.47-4.94-9.6-8.64-19.84-13.55-29.46-5.07-9.95-2.55-18.27,3.68-26.49,3-4,6.18-8.13,8.1-12.7,4.49-10.68,3.53-21.75.73-32.74a22.86,22.86,0,0,1-1-5.08c12.82,13.71,27.95,25.6,31.34,45.93,1.57,9.46-.93,16.49-8,22.76a50.81,50.81,0,0,0-10.81,12.71c-5.77,10.38-4.29,23,4.47,31.07,13.72,12.59,11,32.72-1.3,45.15-2.94,3-5.72,6.13-8.48,9.3-1.79,2.06-2.59,4.45,0,6.4,2.25,1.68,4.28.75,6-1.28,6.54-7.66,14.13-14.42,18.16-24.09,4.43-10.64,4-28.65-6-38-13-12-9.62-25.75,2.53-35,7.07-5.39,10.84-12.53,12.49-21.71,7.11,12.49,12.35,24.81,11.47,38.84-.14,2.21-1.57,4.46-2.81,6.44-1,1.57-2.62,2.69-3.85,4.11-6.11,7-8.39,14.88-4.26,23.6,3.08,6.51,7.05,12.6,10.14,19.1,3.76,7.92,7.16,16,10.42,24.15,1.54,3.85.21,7.3-1.93,11A258.46,258.46,0,0,0,587,635.12c-.59,1.29,1.07,3.6,1.69,5.44,1.8-.78,4.37-1.06,5.24-2.43,2.09-3.24,3.28-7,5-10.53s3.13-7.3,5.57-10.22c5.59-6.67,6.3-14,3.24-21.52-3.85-9.45-8.52-18.58-13-27.77-2.08-4.27-4.65-8.31-6.79-12.56-3.1-6.16-1.93-11.74,2.74-16.69,2.47-2.62,4.92-5.25,6.75-7.22,2.54,2.09,4.74,4.52,7.46,6,10.81,6,20.19,13.43,26.69,24.17,5.53,9.15,5.82,18.51.26,27.45-9.61,15.46-14.53,32.38-17.52,50.11a54.65,54.65,0,0,1-5,14.61c-5,10.13-13.57,14.84-25.06,15-1.2-10.2-4.07-20.11-11.24-27.85-4.45-4.8-10-8.57-15.28-12.6-2.22-1.7-4.84-1.66-6.3,1.1s.24,4.5,2.67,5.87c11.85,6.65,19.38,16.57,22.41,29.85A23.89,23.89,0,0,1,561,693c-11.43,4.07-24.27-.92-29.43-11.65-.56-1.16-.16-3.17.49-4.41a24.36,24.36,0,0,1,3.47-4.25c4.59,2.17,8.86,4.66,13.44,6.24,7.14,2.47,13.65.71,16.53-3.76,2.7-4.18,1.77-12.7-3-17.24a89.67,89.67,0,0,0-14.8-11c-2.17-1.36-3.39-2.31-3.67-5-1.77-17.13-10.79-29.22-26.43-36.21-6-2.66-11.16-6.15-15-11.31-1.73-2.32-2.3-5.48-3.85-8-1-1.56-2.78-2.61-4.21-3.89-1.19,1.4-3.43,2.87-3.34,4.17a20.62,20.62,0,0,0,2.58,8.93,38.8,38.8,0,0,0,17.93,15.81C538.77,623,545,652,524.45,673.1c-5.18,5.33-12.36,8.78-18.8,12.8-2.67,1.67-6.27,2.44-5.79,6.49a8.92,8.92,0,0,0,6.88,8.05c3.16.78,6.55.57,9.82,1s6.67.61,9.71,1.73c7.49,2.77,9.43,8,8.09,14.82a8.16,8.16,0,0,0,.52,5.19c5.31,9.34,1.38,16.4-9.57,16.38-7.24,0-14.49-.4-21.69-1.08-9.87-1-19.57-1.12-29.06,2.43a8.24,8.24,0,0,1-9.73-2.94c-3.18-4.2-6.37-8.66-8.2-13.52a22.12,22.12,0,0,0-6.8-9.66c-6.27-5.24-10.63-11.71-12.25-19.83-.87-4.38-.08-8.38,3.25-11.53s6.72-5.93,9.94-9c5.42-5.21,5.43-11.33-.66-15.85-7.77-5.76-10.81-13.78-12.72-22,8.51,2.93,17,6.46,25.81,8.66,5.17,1.29,10.89.18,16.32.68s9.32,3.39,12,8.23c4.42,8.1,1,15.94-8.12,17.71-4.11.8-8.32,1.08-12.44,1.81-7.17,1.27-14,3.46-19.65,8.33-5.13,4.4-7.41,9.86-6.31,16.59.47,2.86,1.48,5.81,5,5.22,3.15-.52,3.61-3.13,2.9-6.12-1.06-4.49.6-8.5,4.59-10.27a172.17,172.17,0,0,1,19.44-6.71c2.86-.87,6-.82,8.9-1.56,15-3.8,20.49-18.74,11.13-31-6.72-8.78-15.85-12.47-27.07-11.37a31.46,31.46,0,0,1-11.46-1c-21.39-6.06-24.56-9.33-29.27-31-3.34-15.3-5.17-30.73-.73-46.2a21.22,21.22,0,0,1,1.35-4.08c2.74-5.12,1.16-9.38-2.26-13.48a8,8,0,0,1-2.1-4.4c-.23-20.4-.28-40.81-.36-61.21a10.9,10.9,0,0,1,.35-1.68c9.44-.48,19-.67,28.45-1.56a128.32,128.32,0,0,0,18.59-3.46c3.74-.93,6.42-3.43,5.51-9.16,3.22,1.94,6.1,3,8,5,11.13,11.41,16.13,25,14.17,41a21.53,21.53,0,0,0,1.41,9.27c2.46,7,5.33,13.94,8.14,20.85a13.79,13.79,0,0,0,2.3,3.65c2.12,2.51,4.27,6.15,7.88,4.56,1.25-.56,1.08-5.17.92-7.89-.48-8.32-4.52-15.46-8.64-22.36a32.91,32.91,0,0,1-4.74-16.64,56.75,56.75,0,0,0-11.85-33.33A36.44,36.44,0,0,0,477.82,450.87Z"/>
    <path class="cls-1" d="M206.53,552.88c-2.43-5.35-4.48-10.26-6.87-15a22.26,22.26,0,0,1-1.87-15.47c2.09-9.56,3.3-19,1.5-29.07-2-11.4,3.87-20.42,12.29-28,7.09-6.39,15.24-10.86,23.73-15a122.28,122.28,0,0,0,13.13-7.56,24.05,24.05,0,0,0,9.77-12.87c.83-2.44.64-4.41-1.79-5.43s-4.38.16-5.11,2.57c-1.72,5.69-5.76,9.26-10.7,11.95-8.86,4.83-17.82,9.49-27.21,14.47,2.54-7.16,7.09-12.7,11.65-18.16,4.26-5.11,8.83-9.95,13.23-14.94A38.8,38.8,0,0,0,247.63,399c1-7.66,3-15.18,4.19-22.81,1.41-8.81,2.57-17.66,3.62-26.52a71.83,71.83,0,0,1,10.19-29.88c9.31-15.14,24.11-20.62,40-24.68,3.2-.82,6.54-1.11,9.81-1.64l1,1.1a27.54,27.54,0,0,0-3.59,2.48,23.75,23.75,0,0,0-8,17.15c-.11,4,.69,4.57,4.48,3.42,4.72-1.44,9.48-2.73,14-4,.28,5.06.5,9.14.79,14.33-4.25-1.53-8.51-2.64-12.34-4.58-2.42-1.24-4.43-2.43-6.52-.18-2.23,2.4-.69,4.53,1,6.45,6.55,7.18,15,10.85,24.36,12.08,16.14,2.11,30.58-2.41,43.25-12.49,1.33-1.07,1.83-3.2,2.71-4.83-2.15-.78-4.38-2.37-6.43-2.16-5,.5-9.87,1.89-14.81,2.82a41.72,41.72,0,0,1-4.62.4c.21-4.16.4-8,.64-12.67l27.51,7.47c-1.34-4-1.92-7.88-3.79-11-6.51-10.75-16.41-17-28.42-20.37-23.57-6.56-46.05-3.91-67.56,7.57-.74.4-1.55.67-2.39,1-1.56-12.44,9.64-37.14,19.22-41.67.92,1.82,2.33,3.58,2.7,5.53.55,3,2.22,4.13,4.81,3.63,9.4-1.81,17.89,1.18,26.64,4a59.24,59.24,0,0,0,18.17,2.52c8.15-.06,10.85,1.37,14,9.09,5.09,12.42,14.48,21,25.83,27.71,2.29,1.35,4.95,1.25,5.75-1.43a5.93,5.93,0,0,0-2-5.23c-11.31-7.18-19.91-16.42-24.93-29.06a13.83,13.83,0,0,0-15-9c-9.56,1.32-18-.81-27.86-5.62a10.7,10.7,0,0,0,2.2-.34c17-7.36,34.44-12.57,53.22-12.14,7.69.18,15.07,1.74,21.23,6.32a14.07,14.07,0,0,1,4.77,8.24c1.27,7.3,0,14.18-5.51,19.93a47.7,47.7,0,0,0-7.13,9.78c-.68,1.22,0,3.78,1,5.13.45.64,3.43.48,4.39-.34a46,46,0,0,0,16-27.34c2-10.86-4.2-21.12-14.44-25.29-18.27-7.45-36.49-4.69-54.39.54-11.13,3.26-21.67,8.52-32.56,12.63-2.24.84-5.74,1.65-7.18.55a7.67,7.67,0,0,1-2.83-8.82c2.62-8,7.6-11.66,16-12.71,9.29-1.16,18.73-2.38,27.65-5.06,17.62-5.29,35.39-10.45,51.11-20.61.94-.6,3-.19,4.18.44,13.7,7.34,27.07,6.56,40.05-.85,25,13.14,51.11,23.13,79.53,26.13,9.67,1,14.4,4.83,16.9,13.15,1.16,3.83-.78,6.53-3,8.37-1.31,1.07-4.83.62-6.74-.35-17.12-8.73-35-15-54.13-17.2-10.41-1.17-20.82-1.15-30.79,2.88-13.2,5.35-18.65,16.26-15.14,30,2.37,9.28,8.09,16.54,14.18,23.51.75.86,4.42.74,4.69.15.75-1.64,1.17-4.2.36-5.62-2.34-4.12-5.6-7.71-8-11.79a23.69,23.69,0,0,1-3.28-8.8c-1.83-14.88,5.67-22.18,23-23,19.85-.88,38.23,4.66,56.87,12.73-7.51,3.39-14.24,6.41-22.21,5.73-4-.34-8.55-.22-12.19,1.28a15.4,15.4,0,0,0-7.8,7.45,58.84,58.84,0,0,1-24.82,28.57c-.12.08-.32.13-.36.23-.65,1.85-1.28,3.7-1.91,5.55,1.91.45,4.4,1.92,5.63,1.21,11.65-6.71,21.31-15.47,26.28-28.35,2.64-6.83,5.78-9.31,13.12-8.27s14.27-.68,21.09-3.37c7.71-3,15.61-5.22,24.06-3.3,3,.66,4.49-.8,5.25-3.69.51-1.95,1.71-3.71,3.11-6.6,13,12.11,17.11,26.89,19.67,42.58-8-3-15.31-6.55-23-8.66-20.94-5.72-41.62-4.69-60.93,5.83-9.72,5.29-17.23,13.13-18.85,25.65L490,312.77v13c-5.88-1.06-11.92-2.14-18-3.24-.85-.15-1.8-.7-2.51-.47a51.86,51.86,0,0,0-5.23,2.34c.77,1.57,1.16,3.59,2.39,4.64a53.62,53.62,0,0,0,23.44,11.65c15,3.38,29.31,1.87,41.73-8.3,1.22-1,2.73-2.07,3.24-3.43.68-1.77.49-3.88.68-5.84-2.08,0-4.31-.43-6.22.16-4.23,1.31-8.3,3.15-12.67,4.86.25-5.36.45-9.45.69-14.55,4.68,1.34,9.31,2.59,13.88,4,4.27,1.33,4.92,1,4.79-3.43-.19-6.67-3-12.21-7.72-16.86l-3.45-3.38c30.78,2.27,55.14,18.56,60.57,49.67,1.88,10.76,2.85,21.68,4.52,32.48,1.4,9.06,2.71,18.2,5,27a47.57,47.57,0,0,0,7.38,15.73c6.57,8.94,14.17,17.13,21.15,25.79,2,2.51,3.33,5.57,5.58,9.42-10.76-5.81-20.36-10.91-29.86-16.17a17.81,17.81,0,0,1-8.73-10.36c-.81-2.56-2.49-4.1-5.22-3s-2.55,3.31-1.75,5.8c2.6,8.08,8.9,12.61,15.77,16.52,4,2.29,8.16,4.36,12.37,6.24A68.9,68.9,0,0,1,635.54,471c6.23,7.1,8.82,15.38,6.7,24.78s0,18.37,2,27.34c1.22,5.28.29,9.92-1.93,14.6-2.33,4.89-4.54,9.85-6.53,14.21-3.64-3.34-7.41-7.1-11.49-10.49-3.54-2.94-7.15-6.08-11.26-8-5.23-2.48-7.4-6.32-9-11.61-12.71-41.83-35.6-77.1-69-105.44-4.15-3.52-8.16-7.2-12.32-10.72-13.82-11.74-30.6-16.84-47.74-21.11-1.67-.42-3.31-.9-5-1.37-.11,0-.19-.2-.6-.66a19.71,19.71,0,0,0,2.55-17.42c-2.24-7-6.84-11.61-14-13.59-14.67-4.08-24.62-20.73-21.34-35.82.21-1,.87-2.12.59-2.93-.58-1.68-1.28-3.94-2.62-4.6a3.28,3.28,0,0,0-4.8,2.83c-.44,6.41-1.3,13-.27,19.24a35.75,35.75,0,0,0,15.05,24,34.1,34.1,0,0,0,10.1,4.48c5.28,1.51,9.15,5,10.13,10.14.9,4.7-1.43,9.76-6.42,12.92-.07-1.7-.14-3-.19-4.31-.17-4.42-2.27-7.4-5.45-7.73-4.41-.45-6.19,2.86-6.67,6-.55,3.57-2.43,4.17-5.17,4.2-5,.07-10.11,0-15.51,0v-9.76c1.82.77,3.39,1.81,5.06,2s4.36.06,4.85-.85c.73-1.39.05-3.61-.28-5.42-.1-.53-1-1-1.66-1.3a31.3,31.3,0,0,0-24.82,0c-.88.36-2.07,1.18-2.19,1.93-.26,1.69-.51,3.87.34,5.07.64.89,3.06.92,4.59.68s3-1.29,5.07-2.26v9.83H396.07c-1.66-7.51-3.91-10.34-7.65-10.11-3.95.25-5.7,3.5-6.09,11.27-4.86-1.36-7.68-8.42-5.54-14.15a11.68,11.68,0,0,1,8.65-7.76c14.07-3.32,22.06-12.84,26.34-26a35.81,35.81,0,0,0,.91-20.1c-.68-2.72-1.44-5.77-5.2-5s-3.4,3.43-2.63,6.45c3.6,14.15-3.94,27.18-15.21,34.86a16.15,16.15,0,0,1-5.65,2c-14.2,3-19.74,19.54-13,29.95.29.45.49,1,.88,1.72-6.36,1.82-12.34,3.83-18.46,5.23C340.61,391,329.34,397,319.19,405c-17.5,13.84-34.05,28.76-46.9,47.13-15.86,22.68-28.6,47-36,73.86-.45,1.66-1.47,3.72-2.84,4.47C223.06,536.15,213.87,543.23,206.53,552.88Z"/>
    <path class="cls-1" d="M534.89,201.62c2.78,8.17-.37,18-7.2,22.26a10.52,10.52,0,0,1-5.35,1.36c-34-.2-57.24-24.1-62.16-50.1-4.31-22.77,8-45.73,30.52-55.41,1.71-.74,3.45-1.41,5.26-2.15-14.73-10.43-126-10.76-151.47-.31,3,1.31,5.73,2.37,8.34,3.62C383.74,135.66,391,174.13,368.16,202c-12.7,15.5-29.44,22.71-49.3,23.29-7.61.21-13.12-8.72-13.76-15.39-.26-2.63.21-5.33.4-9,5.59,5.62,11.4,8.31,18.22,8.07a32.68,32.68,0,0,0,21.06-8.08c5.53-5,11.08-10.33,15.08-16.52,12.09-18.73,8.07-36.88-10.27-49.66-12.66-8.83-27-11.91-42.06-10.52-12,1.11-24.34,2.36-35.85,5.79C201,151.11,157.36,197.67,142.38,270.17a153.91,153.91,0,0,0-1,54.32c2.24,14.92,14.27,20.18,24.11,20.83,17.9,1.16,31.83-6.16,41.17-21.42,7.38-12.06,11.73-25,9.77-39.52-1.8-13.4-10-22.91-22-24.49-5.51-.73-10.53,1-15.33,3.64-1.44.79-3.2,1-5.77,1.77,6.55-10.08,24.78-17.21,34.76-14.22,7.39,2.21,11.79,7.62,14.29,14.62,4.62,12.94,3.22,26-.21,38.82a105.28,105.28,0,0,1-19.63,38.76c-7.74,9.73-18.19,14.66-30.16,15.91-23.08,2.42-41.11-11.85-44.64-35.5-6-40.21,2.64-77.89,22.06-113.06,25.9-46.93,65.21-77.53,116.55-92.91,19.59-5.87,39.46-7.16,59.68-5,1.54.17,3.21-.52,4.78-.93,8.78-2.27,17.43-5.33,26.34-6.75,31.6-5,63.48-5.72,95.3-3.33a373.36,373.36,0,0,1,49.63,7.46c7.54,1.61,14.55,3.38,22.5,2.9,36.8-2.24,70.34,8.59,101,28.12C671,169.06,699.58,210,711.48,262.41c4.48,19.75,5.94,39.59,3,59.76-2.87,19.73-16.2,35.16-35.39,37.32-15.32,1.73-29.33-3.49-39.34-15.72-13.68-16.73-22-36-22.92-57.78a61.18,61.18,0,0,1,3-20.78c3.76-11.62,12.75-16.47,24.76-14.38,9.24,1.61,16.72,6.65,23.46,12.84l-.31,1.13c-1.36-.22-3-.05-4-.72-16.13-10.16-32.48-1.61-37.55,16.2-5.47,19.25,7.39,57.33,35.33,63.59a47.9,47.9,0,0,0,17.13,1.07c14.24-2.12,21.29-10.42,22.72-25.27,4.12-42.55-5.21-81.94-29.29-117.32-28.7-42.16-68.6-67.41-119-75.81-14.72-2.46-29.51-4.31-44.28,0-11.11,3.28-20.62,8.9-27.86,18.14-6.46,8.24-8.5,17.71-5.39,27.35,6,18.58,17.77,31.9,37.62,36.44C521.58,210.44,528.73,207.47,534.89,201.62Z"/>
    <path class="cls-1" d="M326.81,155c-8-5.29-15.93-5.87-24-2.18-7.54,3.48-11.41,9.42-10.91,18,.08,1.24-1.19,3.34-2.2,3.59a5.63,5.63,0,0,1-4.42-1.34c-8.15-7.1-22-6.19-28.91,2.1-4.92,5.87-6.44,12.79-6,20.25.15,2.57-.32,4.85-3.4,5s-3.84-2-3.69-4.67q.31-6.42.65-12.79c-18.18-3.84-32.27,8.33-31.15,25.54.58,9,3.55,17.13,7.82,25,1.31,2.36,2.68,5-.43,6.74-2.9,1.63-4.56-.69-5.69-3-2.82-5.62-5.47-11.34-8.29-17.24-5.8,6.55-10.32,13.83-12.28,23,1.23,0,2.06,0,2.93,0,17.24-1.19,26.84,4.78,33.33,20.72a7,7,0,0,0,1.77,2.86c6.23,5.18,10,11.81,12.5,19.38,2.64,8,16.08,15,23,13.14,2.57-10.17,5-19.84,7.53-29.62-.51.21-1.09.4-1.59.65-11.05,5.32-22,5.14-32-2s-13.73-17.79-12-29.74c1.2-7.82,3.66-15.32,3.92-23.47.25-7.1,6.95-12.31,13.33-12.68,6.8-.39,14.3,4.28,16.33,10.65.47,1.45-.87,3.48-1.41,5.25-1.67-.61-3.63-.86-5-1.92s-2-3.62-3.48-4.23c-2.61-1-5.9-2.07-8.33-1.31-2,.62-3.22,3.84-4.82,5.94l1.09.76c.36-.21.8-.36,1.12-.58,2.39-1.59,5-3.18,7.14,0s-1.31,4.2-2.9,6.12c-3.15,3.8-6.88,7.57-8.62,12.06-4.35,11.3,1.52,24,12.46,28.94,10.61,4.78,22.64,1.23,27.89-7.61-3-3.8-6.67-7.06-8.69-11v.61c-.29,6.34-5.36,10.76-11.88,10.4-6-.36-10.8-5.51-10.54-11.26a11.3,11.3,0,0,1,19.84-6.85c-1.77-6.88-1.7-14,1.71-20.9a9.23,9.23,0,0,1,3.55-3.73c.65-.36,3,.54,3.18,1.23a7.49,7.49,0,0,1-.21,5c-5.36,10.39-1.78,23.65,8.18,29.59,5.87,3.47,9.85,1.27,10.18-5-3.91-2.87-7.75-5.15-10.94-8.15-2.28-2.18-3.8-5.44-1.66-8.62a5.72,5.72,0,0,1,4.23-1.92c.87,0,2.54,1.81,2.54,2.82-.11,4.82,3.77,5.72,6.88,7.28s4.6-1.27,6.41-3c1-1,2.06-2,3.22-3.08-9.63-13-13.22-27.34-8.4-42.95S311,160.64,326.81,155Z"/>
    <path class="cls-1" d="M635.76,220.2A48.48,48.48,0,0,1,648,243.09c-5,0-9.69-.66-14.1.13-10.92,1.95-17.64,9.09-21.74,19.1-.78,1.9-2.35,3.47-3.5,5.23-3.58,5.52-7.93,10.71-10.5,16.67-3.93,9.12-14.62,16.16-24.47,14.89l-7.41-28.66c5.11.86,11.19,2.62,17.3,2.77,15.79.41,28.21-11.69,29.19-27.59a34.21,34.21,0,0,0-3.2-17.68,9.34,9.34,0,0,1-.43-5.29c1.76-11.37-5.76-21.19-16-20.48-7.08.49-11.62,4.83-14.32,11-.51,1.17.4,3.93,1.46,4.54s3.39-.24,4.67-1.14,1.79-3.29,3.15-4c2.53-1.29,5.54-2.71,8.17-2.42,3.43.37,4.76,3.63,5.23,7.48-1.58-.93-2.76-2.2-3.92-2.18-1.77,0-3.52.93-5.27,1.47.58,1.57.69,3.79,1.81,4.6,6,4.24,9.82,9.64,11,16.93a23.52,23.52,0,0,1-14.61,25.76,23.25,23.25,0,0,1-27.93-8.33c3.29-3.57,6.56-7.14,9.39-10.22,1.67,2.55,3.2,5.93,5.67,8.35,2.75,2.68,6.59,2.69,10.17,1.2a10.79,10.79,0,0,0,5.71-14.75c-3.08-6.25-10-7.47-18.1-3,0-4.68.34-9.22-.13-13.68-.28-2.61-1.71-5.16-2.89-7.61s-3.28-4-6-2.37c-2.51,1.55-1.75,3.83-.54,6.09a22.46,22.46,0,0,1-8.31,29.46c-2.51,1.47-5.16,2.59-7.5.21-1.48-1.51-2.27-3.7-2.81-4.63,4.64-3.74,8.61-6.36,11.76-9.73,1.39-1.48,1.65-4.57,1.38-6.8-.14-1.16-2.49-2.57-4-2.82-.9-.14-3.06,1.76-3.06,2.74,0,5-3.84,6-7.15,7.47s-4.45-1.71-6.27-3.35c-1-.86-1.88-1.75-3-2.83,9.51-13,13.17-27.27,8.36-42.91s-15-26-30.36-31.46c4.16-5.53,16.61-5.63,22.53-2.9,7.49,3.46,11.82,9.74,11.7,17.16a7,7,0,0,0,1.87,4.72c.64.61,3.17.16,4.14-.65,6.85-5.73,14.54-6.95,22.64-3.84s12.13,9.89,13.27,18.33c.34,2.56-.24,5.29.4,7.74.44,1.7,2.25,3,3.45,4.55,1.32-1.4,3.67-2.75,3.75-4.22.24-4.25-.44-8.55-.75-12.82,14.27-4.63,30.68,4.79,31.29,22,.34,9.48-2.74,18.17-7,26.48-.53,1-1.57,2-1.58,3a27.49,27.49,0,0,0,1,5.31c1.61-.53,4.07-.56,4.7-1.65C629.57,232.71,632.48,226.63,635.76,220.2Z"/>
    <path class="cls-1" d="M691.26,273.91c-3.6-2.87-7.73-5.88-11.52-9.26s-7.1-7.51-11.08-10.73c-3.56-2.89-8.74-4.23-11.39-7.66-2.48-3.21-2.21-8.4-3.79-12.47A58.06,58.06,0,0,0,638.88,212a8,8,0,0,1-2.27-5.07c-.4-20.86-14.25-33.63-35.07-31.89-4.28.36-7.11-.17-10.13-4-7.36-9.46-17.56-12.08-29.15-9.27-1.93.47-3.8,1.2-5.38,1.7-2.35-3.82-4.12-7.87-6.89-11-10.62-12.12-31.41-12.49-42.93-1.2a9.57,9.57,0,0,1-5.05,2.22c-5.66.83-11.37,1.33-17.28,2,2.57-6,7.18-10.49,12.72-14.17,12.76-8.46,27.09-9.74,41.69-8.25,33.7,3.43,63.62,16.6,90.44,36.9,31.36,23.73,50.41,55.44,59.63,93.34.48,2,.85,3.95,1.22,5.93C690.78,271,691.08,272.86,691.26,273.91Z"/>
    <path class="cls-1" d="M150.47,274a165.84,165.84,0,0,1,33.21-76.09c21.14-27.18,49.3-44.44,81-56.45,16.61-6.29,33.87-9.58,51.67-8.65,13.38.69,25.52,4.88,34.86,15.13a34.42,34.42,0,0,1,2.94,3.75c.81,1.17,1.45,2.45,2.12,3.6-6.74-.59-13.35-1.15-19.95-1.82-.6-.05-1.23-.7-1.68-1.21-14-15.86-44-10.7-49.86,11.05,0,.12-.18.21-.36.41-10.58-4.51-20.75-4.2-30.15,3.13-1.25,1-2.77,2-3.4,3.3-2.53,5.31-6.68,5.27-11.79,4.87-16.27-1.27-28.87,7.57-32.79,22.37,0,.14-.15.27-.14.4.7,9.17-4.27,15.51-9.91,22.08a41.66,41.66,0,0,0-10.47,24.73c-.06.92-1.32,2-2.29,2.59-7.81,4.45-14.94,9.53-20.74,16.66C159.37,268,154.36,270.86,150.47,274Z"/>
    <path class="cls-1" d="M632.77,443c-7.3-8.46-14.68-16.73-21.73-25.27a37,37,0,0,1-8.9-21.57c-.42-6.31-1.83-12.54-2.68-18.83-.14-1,0-2.55.62-3,9.72-7.46,20-13.88,32.88-13.5,10.67.3,17.75,7.38,19.83,18.65,1.76,9.55-.2,18.57-2.61,27.66A110.27,110.27,0,0,1,632.77,443Z"/>
    <path class="cls-1" d="M209.49,443.42c-10.43-14.21-17.35-29.4-20-46.27a59.14,59.14,0,0,1,0-18.4c2.36-14.21,13.34-20.83,27.51-17.36a60,60,0,0,1,23.64,12.09,5.1,5.1,0,0,1,1.66,3.9c-1.1,8.72-1.65,17.64-4.05,26-1.67,5.87-5.63,11.22-9.23,16.34-2.89,4.1-6.92,7.37-10.16,11.25S212.8,439,209.49,443.42Z"/>
    <path class="cls-1" d="M148.77,304.18c2.3,3.62,4.21,7.56,6.95,10.79,10.84,12.79,27.57,9.89,33.18-5.82,4-11.17,3.21-22.39-1.69-33.21-1-2.15-2.69-4-4-5.92,6.75-5.89,18.42-2.3,22.76,6.68,2.75,5.68,3,11.71,2.51,17.76-1.12,13.38-5.55,25.48-16,34.37-9.46,8-20.42,11.25-32.65,7.09-5.48-1.86-9.54-5.1-9.85-11.71s-1.21-13.44-1.84-20.16Z"/>
    <path class="cls-1" d="M693.91,303.4c-.75,7.75-1.3,15.53-2.34,23.24-.77,5.73-8.37,10.55-16.52,10.93-11.88.54-22-3.54-29.53-12.7-11.41-13.83-15.21-29.7-10-47,2.74-9.06,13.73-13.37,21.51-9.49a15.29,15.29,0,0,1,1.78,1.22c-9,11.73-10.49,24.56-6.37,38.16,2.31,7.64,6.87,13.57,15.26,14.86,8.65,1.33,15.13-2.88,20-9.63,2.15-3,3.68-6.43,5.49-9.67Z"/>
    <path class="cls-1" d="M186.11,295.76c-1.78,4.61-3,9.58-5.47,13.75-4,6.73-11.45,7.39-17.43,2.27-9.46-8.11-11.14-26.38-3.3-36a11.15,11.15,0,0,1,16.48-1.35C182.6,280,184.84,287.26,186.11,295.76Z"/>
    <path class="cls-1" d="M686.74,291.77a26.89,26.89,0,0,1-6.57,18.3c-5.8,6.68-13.17,6.36-18.71-.54-7.7-9.58-4.93-28.88,5.15-35.93,4.5-3.15,12.24-1.6,15.8,3.16C685.62,281.06,686.88,285.42,686.74,291.77Z"/>
    <path class="cls-1" d="M639.83,356.27c-16,.32-25.05-8.92-30.86-22.2-6.79-15.53-9-31.5-3.27-47.93.54-1.54,1.32-3,2.31-5.19C614.31,321.24,616.38,326.11,639.83,356.27Z"/>
    <path class="cls-1" d="M234.54,281.2c1.32,4.61,3.23,9.15,3.87,13.86,2.38,17.48-.92,33.81-11,48.55-6.1,8.92-14.78,12.65-25.75,12.78a114.63,114.63,0,0,0,22.86-34.62c5.45-12.86,8.94-26.14,8.52-40.26Z"/>
    <path class="cls-1" d="M511.87,164.26c-10,2.77-10.27,14.53-4.3,21.81,5.77,7,11.27,8.44,22.35,6.07a12.91,12.91,0,0,1-14.15,8c-15.54-2.11-28.5-18-32.38-31.18a3.44,3.44,0,0,1,1.27-3.08A36.18,36.18,0,0,1,511.87,164.26Z"/>
    <path class="cls-1" d="M329.69,164.3c8.29-3.45,19.8-2.32,28.08,2.61-1.7,14.63-18.45,31.59-32.89,33.31-6.14.73-11.42-2.34-14-8.47,6,2.53,11.62,2.49,17-.85a19.29,19.29,0,0,0,8.87-11.25C338.86,172.58,336.5,167.26,329.69,164.3Z"/>
    <path class="cls-1" d="M407.5,198.86c9.39-15.13,11.71-31.31,9.22-48.58h8.39c-2.59,17.43,0,33.72,9.3,48.61C426.35,206.72,415.35,206.75,407.5,198.86Z"/>
    <path class="cls-1" d="M234.86,348.5c8.92-15.36,13.07-31.43,12.16-48.78,4.3,0,11.9,5.33,12.69,9,.21.94-.48,2.12-.89,3.14-3.68,9.2-7.29,18.42-11.16,27.54a11.42,11.42,0,0,1-4,4.95C241,346.08,237.83,347.14,234.86,348.5Z"/>
    <path class="cls-1" d="M606.67,348.38c-3.37-1.58-6.83-3-10.08-4.82a6.23,6.23,0,0,1-2.24-3.22c-3.86-10.34-7.62-20.71-11.82-32.16a17.12,17.12,0,0,1,12-8.65A91.47,91.47,0,0,0,606.67,348.38Z"/>
    <path class="cls-1" d="M296.88,653.64c1.22,3.46,2.44,6.67,3.47,9.94a2.61,2.61,0,0,1-.52,2.25c-4.19,3.43-8.7,6.21-14.39,6.15-3.38,0-4.4-1.63-3.16-4.76C285,660.42,290.46,656.7,296.88,653.64Z"/>
    <path class="cls-1" d="M544,653.75c6,2.35,10.59,5.92,13.59,11.19.94,1.66,1.42,4.34.7,5.91-.45,1-3.82,1.42-5.43.85a70.2,70.2,0,0,1-11.09-5.42c-.71-.41-1.13-2.27-.88-3.26C541.63,660,542.81,657.09,544,653.75Z"/>
    <path class="cls-1" d="M345,317.88c0,4.55-3.43,8.84-7.18,9-3.44.13-6.65-3.59-6.66-7.72,0-4.59,3.88-9.12,7.7-9C342.19,310.31,345,313.78,345,317.88Z"/>
    <path class="cls-1" d="M509.52,319c.07,4.56-2.55,7.92-6.18,7.91-3.89,0-7.11-4-7.18-8.81-.06-4.64,2.49-7.89,6.19-7.87C506.25,310.2,509.45,314.11,509.52,319Z"/>
    <path class="cls-1" d="M316.47,182.69c-5.54-.05-7.57-3.11-5.22-6a22.7,22.7,0,0,1,7.93-5.91c1.16-.55,4,.74,4.95,2,.74,1,.35,4-.64,4.92A47.65,47.65,0,0,1,316.47,182.69Z"/>
    <path class="cls-1" d="M520,170.3c4.17-.07,9.45,4.18,10.15,7.43s-1,5.66-4.06,4.72c-3.23-1-6.2-3.19-8.91-5.34-.85-.67-1.06-3.2-.47-4.31C517.39,171.5,519.26,170.82,520,170.3Z"/>
  </g>
</svg>
