<svg id="Livello_1" data-name="Livello 1" xmlns="http://www.w3.org/2000/svg" viewBox="0 0 841.89 841.89">
  <defs>
    <style>
      .cls-1 {
        fill: #231f20;
      }
    </style>
  </defs>
  <title>Glos</title>
  <g>
    <path class="cls-1" d="M392.07,563.13l5.73-.42c.14,0,.31.14.67.31-.45.66-.82,1.35-1.31,1.94-21,25.6-46.7,44.52-78,55.5-11.38,4-23.1,6.28-35.24,5.85-2.25-.09-4.49-.33-6.7-.5a3.58,3.58,0,0,1-.38-.93c-.23-6.11-3.33-10.64-8-14.27a37.2,37.2,0,0,0-16.91-7.07A43.66,43.66,0,0,0,230.15,605a26.33,26.33,0,0,0-11.27,6.88,15.22,15.22,0,0,0-4.39,12.43,7.84,7.84,0,0,1-.12,1.19,239.76,239.76,0,0,1-46.77-51.38,10.83,10.83,0,0,1,1.1.49,61.23,61.23,0,0,0,23.64,7.65,58.84,58.84,0,0,0,22.43-1.22c7.3-1.92,13.73-5.25,18-12a5.74,5.74,0,0,1,1.33.11,165.63,165.63,0,0,0,31.2,6,234.55,234.55,0,0,0,30.2,1.43c18.92-.46,37.68-2.25,56-7.56a91.47,91.47,0,0,0,16.94-6.63,3.36,3.36,0,0,1,1.74-.57c4.85.45,9.69,1,14.85,1.54a10,10,0,0,1-1.21,1.62c-3.33,2.66-6.51,5.55-10.07,7.86-12.14,7.83-25.47,13.1-39.19,17.39a158.51,158.51,0,0,1-28.91,6.38c-4.68.55-9.43.5-14.14.7-.73,0-1.45-.06-2.18-.07-2.27,0-3.46.79-3.56,2.44s1,2.89,3.19,3a80.09,80.09,0,0,0,11.17,0,183.29,183.29,0,0,0,69.57-21.07,112.65,112.65,0,0,0,11.09-6.91c4.51-3.11,8.57-6.74,11.35-11.62"/>
    <path class="cls-1" d="M359.26,560.25c-20.1,7.94-41.13,10.31-62.41,10.77-21,.47-41.84-1.3-62.15-7.37.52-8.27-3.29-14.2-9.09-19.13-6.44-5.47-14-8.68-22.13-10.63-10.5-2.52-21-2.88-31.47.23a41.67,41.67,0,0,0-6.8,2.74c-5.94,3-10.25,7.46-11.73,14.23-4.32-4.58-18.5-39.21-18.78-46,.75.58,1.39,1.06,2,1.55a47.56,47.56,0,0,0,30.81,10.53c5.12,0,10.17-1,14.58-3.79a81.24,81.24,0,0,0,7.4-5.88c.14.07.61.3,1.06.57A220.66,220.66,0,0,0,257,533.94a112.87,112.87,0,0,0,24.84,2.85,89.09,89.09,0,0,0,10.28-1,29.92,29.92,0,0,0,4.27-1.24c18.93,12.63,40.16,20.89,62.92,25.66"/>
    <path class="cls-1" d="M462.93,604.54a33.65,33.65,0,0,1-22.15.66c-8-2.44-14.38-7.17-19.82-13.38-14.73-16.86-18-43.85-7.71-63.62a39.69,39.69,0,0,1,11.8-14.08c10.77-7.8,22.34-8.82,34.52-3.77a46,46,0,0,1,11,7,8.76,8.76,0,0,1,3.19,5.76,32.53,32.53,0,0,1-6,25c-2.9,4.07-6,8-10.18,10.87-3.61,2.49-3.9,4.54-2.73,8.72,1.32,4.7,2.29,9.51,3.34,14.28,1.52,6.91,3,13.84,4.45,20.76.12.52.19,1,.32,1.84"/>
    <path class="cls-1" d="M272.94,663.05a287,287,0,0,1-33.45-19c3.78.09,7.11.32,10.42.21a40,40,0,0,0,18.38-5.3,17.58,17.58,0,0,0,7.14-7.85c1.83.2,3.62.48,5.42.59a93.52,93.52,0,0,0,24.64-1.85c22-4.58,41.55-14.39,59.71-27.29a179.93,179.93,0,0,0,31.65-28.68,4.24,4.24,0,0,1,1.62-1.24,16.8,16.8,0,0,1-.45,1.86,88,88,0,0,1-15,26.08,77,77,0,0,1-14.42,14,31.91,31.91,0,0,1-9.88,5.06c-2,.57-2.76,1.76-2.38,3.33a2.69,2.69,0,0,0,3.82,1.88,52.05,52.05,0,0,0,8.65-3.86c7.8-4.73,14-11.26,19.58-18.37a90.5,90.5,0,0,0,15.51-28.28c.1-.31.22-.61.41-1.11,2.44,5.27,4.78,10.33,7.16,15.49a158.35,158.35,0,0,1-26.07,29.54c-6.75,6-13.81,11.56-21.81,15.78a52,52,0,0,1-8,3.43,23.48,23.48,0,0,1-5.89.75c-2,.14-3.34,1.14-3.33,2.78s1.17,2.58,3.12,2.76a21.13,21.13,0,0,0,9.33-1.48c7.66-2.85,14.41-7.26,20.85-12.18a163,163,0,0,0,34-35.09c.36-.5.74-1,1.12-1.49l10.8,10.51a21.3,21.3,0,0,1-3,8,57,57,0,0,1-14.08,15.78A123.42,123.42,0,0,1,353,653.41c-6.33,1.18-12.77,1.81-19.23.72-1.43-.24-2.87-.45-4.28-.79-2.23-.53-4-1.28-5-3.89-1.25-3.36-4.26-5.33-7.48-6.8A31.16,31.16,0,0,0,303.23,640a39.8,39.8,0,0,0-19.31,4.91,33,33,0,0,0-6.35,4.64c-3.68,3.47-5.67,7.73-4.63,13.53"/>
    <path class="cls-1" d="M642.58,197.87A268.76,268.76,0,0,1,680.2,227c-2.84.17-5.25.17-7.62.49-11.79,1.59-21.87,6.47-29.49,15.8-3.52,4.31-5.4,9.23-4.64,14.92a5.59,5.59,0,0,1-.09,1.07,48.82,48.82,0,0,1-5.71,1.31c-7.55.84-14.7,3.16-21.8,5.64a162.49,162.49,0,0,0-24.91,10.87,40.07,40.07,0,0,0-9.87,7.11L563,273.85c.88-1.17,1.64-2.4,2.6-3.44,9.06-9.76,19.91-16.55,32.92-19.67,1.59-.38,3.24-.42,4.86-.65,2-.29,3.07-1.28,3-2.84s-1.4-2.6-3.54-2.54a35,35,0,0,0-10.91,2.1c-13.1,4.7-24.4,12-33,23.15-.16.21-.32.43-.67.87A168.22,168.22,0,0,0,529,256.13a127.81,127.81,0,0,1,40.09-29.87c3.94,5.88,10,7.07,16.09,7.71,17.8,1.9,33.73-3.09,47.82-14a28.24,28.24,0,0,0,7.42-8.63c2.1-3.76,3.21-7.71,2-12a3.13,3.13,0,0,1,0-.81,3.41,3.41,0,0,1,.22-.59"/>
    <path class="cls-1" d="M263.7,504.11a142.56,142.56,0,0,0,26.86,26.36,47.61,47.61,0,0,1-14.05.66c-29.35-2.66-56.31-12.58-81.77-27-1-.54-1.87-1.12-2.8-1.7a2.91,2.91,0,0,1-.5-.46c0-1.46,0-2.82,0-4.17-.21-5.64-2.67-10.33-6.32-14.43-6.45-7.24-14.67-11.45-24-13.61a40,40,0,0,0-19.41,0,22.09,22.09,0,0,0-12.28,7.59c-.23.29-.36.64-.83.85a189.91,189.91,0,0,1-2.36-52.24c.46.74.91,1.5,1.38,2.24,7.23,11.39,17,19.47,30.14,23.22a23.12,23.12,0,0,0,12.9.37,66.68,66.68,0,0,0,7.81-3.32c.32.3,1.05,1,1.75,1.64a316.49,316.49,0,0,0,55.59,43.29A104.66,104.66,0,0,0,253.05,502c3.41,1.28,6.87,2.33,10.65,2.09"/>
    <path class="cls-1" d="M198.59,331.27A307.85,307.85,0,0,0,212,363.39a217.47,217.47,0,0,0,15.16,27.07c1.38,2,2.83,4,4.33,6,2.38,3.11,5,6,8.76,7.78a134.23,134.23,0,0,0-.26,45.87,22.64,22.64,0,0,1-2.83-1.57C232.75,445,228.1,441.79,224,438c-17.4-16.3-31.31-35.27-42.6-56.31.83-1.26,1.69-2.42,2.39-3.66,3.12-5.58,3.58-11.59,2.46-17.72a44.29,44.29,0,0,0-14.58-26.14,35.84,35.84,0,0,0-5.8-4,17.53,17.53,0,0,0-10.46-2.35c-.78.07-1.57,0-2.69,0a217.75,217.75,0,0,1,20.58-33.86v2.28a39.75,39.75,0,0,0,9.51,26.87c4,4.82,8.95,8.24,15.78,8.2"/>
    <path class="cls-1" d="M259.46,498.29c-1.49-.45-2.51-.72-3.5-1.08a101.67,101.67,0,0,1-19.86-10.1,311,311,0,0,1-53.5-42.42c-.38-.38-.73-.8-1.07-1.17.37-1.84.84-3.59,1-5.37a24.11,24.11,0,0,0-2.48-13.5c-7.2-14.69-18.59-24.43-34.61-28.31a21,21,0,0,0-15.1,1.67,11.22,11.22,0,0,1-1.35.51A250.22,250.22,0,0,1,142,352c.39,1,.63,1.54.76,2.06,2.54,10.17,7.44,18.9,15.8,25.42,4.18,3.27,8.85,5.36,14.29,5.15,1.17-.05,2.33-.25,3.65-.39.39.66.81,1.34,1.19,2a225.93,225.93,0,0,0,40.67,54c5.74,5.59,11.76,10.93,18.94,14.57a9.61,9.61,0,0,1,5.46,6.93,116.16,116.16,0,0,0,15.12,33.93c.45.68.85,1.38,1.59,2.57"/>
    <path class="cls-1" d="M470.94,614.8c-3.68-17-7.28-33.65-10.95-50.62,1.13-.95,2.58-2,3.89-3.27,8.4-7.86,14.28-17.13,15.7-28.79.7-5.77-.41-11.41-1.74-17-1.38-5.83-3-11.6-4.28-17.45a27.18,27.18,0,0,1,.05-11.11,9.1,9.1,0,0,1,3.48-5.67c4.85-3.64,10.1-4.76,15.83-2.14a8.77,8.77,0,0,1,4.56,4.49,29.62,29.62,0,0,1,1.89,5.08c.72,3.14,1.61,6.14,4.67,8.53-4.47,1.21-8.43,2.12-12.51.07-1.34,1.38-1.56,3.16-1.81,4.8-1.37,9-.52,17.77,3.88,25.93,1.9,3.52,3.81,7,5.85,10.47a71.4,71.4,0,0,1,8.45,21.46c1.93,9,.05,17.68-3.4,26.07s-8.92,14.94-15.57,20.74c-3.4,3-7.61,4.57-11.74,6.23-2,.8-4,1.41-6.25,2.17"/>
    <path class="cls-1" d="M300.3,674.49c10.57-2.28,20.26-5.7,25.34-16.31,2.63.51,5.18,1.07,7.75,1.47,7.75,1.18,15.44.33,23-1.25a128.56,128.56,0,0,0,54.53-25.35,98.83,98.83,0,0,0,10.65-10.12,39,39,0,0,0,9.14-15.84l7.13,3.11a38,38,0,0,1-1.33,4.66,76.8,76.8,0,0,1-18.72,26.83,26.59,26.59,0,0,1-3.78,2.64c-1.74,1.09-2.3,2.37-1.59,3.8s2.37,2,4.17,1a23.7,23.7,0,0,0,4.48-3.07,81.55,81.55,0,0,0,20.44-28.91c.74-1.73,1.16-3.61,1.8-5.62l3.58.65a24.79,24.79,0,0,1,2.1,12.71c-.72,8.13-4.06,15.2-8.92,21.61a66.06,66.06,0,0,1-18.25,16.2c-.76.47-1.58.84-2.27,1.2-.34-.09-.58-.08-.67-.19-3.92-4.64-9.08-5.76-14.76-5-10.16,1.42-18.09,6.67-24.31,14.65a27.84,27.84,0,0,0-2.87,4.62c-2.31,4.63-3.22,9.44-1.08,14.94a322.22,322.22,0,0,1-75.57-18.51"/>
    <path class="cls-1" d="M547.81,589.46,513,576.32c.25-1.78.48-3.52.73-5.37a133.67,133.67,0,0,0,21.61,1.19c3.64-.08,7.27-.21,10.9-.37a4,4,0,0,1,3.91,1.76c2.08,2.88,5.29,4.05,8.63,4.76a23.59,23.59,0,0,0,10.54.15c3.18-.78,6.31-.34,9.43.06a80.45,80.45,0,0,0,19.31-.36c9.36-1.06,18.71-2.42,28-4.22,20.42-4,40.42-9.44,59.51-17.89,6-2.65,11.78-5.65,16.92-10.53,3.63,14.72,1.66,28.47-4.21,41.81-.35,0-.6,0-.66-.06-3-4.23-7.44-6.1-12.34-6.64a33.18,33.18,0,0,0-23.74,5.93,15.76,15.76,0,0,0-6.33,8.3,3.79,3.79,0,0,1-3.51,2.89c-5.57.76-11.11,1.83-16.71,2.22-7,.49-14,.68-21,.52-5.79-.13-11.57-.93-17.35-1.47a22.57,22.57,0,0,1-2.38-.53,2.18,2.18,0,0,1-1.8-1.76c-1.09-4.1-3.8-7-7.27-9.2a35.38,35.38,0,0,0-27.14-4.82,15.65,15.65,0,0,0-10.27,6.77"/>
    <path class="cls-1" d="M489.34,347.55a81.68,81.68,0,0,1,18.05,11.6c1.67,1.41,3.19,3,4.87,4.37a3.66,3.66,0,0,1,1.31,3.35c-1.16,18.86-5.62,36.76-15.44,53.09a55.22,55.22,0,0,1-14.27,16,35.41,35.41,0,0,1-13,6.07c-.75.18-1.53.27-2.78.47.33-2.49.45-4.65.92-6.73A113.49,113.49,0,0,1,492.75,387a29.11,29.11,0,0,1,10.31-8.32c1.79-.8,2.38-2.2,1.81-3.69a2.7,2.7,0,0,0-4.09-1.21,37.22,37.22,0,0,0-7.65,5.1,75.15,75.15,0,0,0-9,10.17,119,119,0,0,0-20.39,45.37c-.68,3.18-1,6.45-1.48,10a37.41,37.41,0,0,0-12.88,10.84c-.44-2.8-.88-5-1.09-7.14A119.69,119.69,0,0,1,452.08,403,88,88,0,0,1,457,391a20.4,20.4,0,0,1,3.2-4.38,5.37,5.37,0,0,1,4.25-2,14.33,14.33,0,0,0,8.7-3.48c9.42-7.59,15-17.34,16.16-29.48.12-1.24,0-2.52,0-4.07"/>
    <path class="cls-1" d="M505.18,596.67c2.36-5,4.58-9.77,6.94-14.79l34.47,13c1.26,6.3,5.59,10,11,12.65a35.85,35.85,0,0,0,23,3.05c4.54-.85,8.4-2.86,11.09-7,10.49,2.33,21.18,2.74,31.87,2.42s21.4-.7,31.74-4.12c5.14,7.37,12.61,8.53,20.74,7.67,2.85-.31,5.66-1.05,8.44-1.59-5.43,8.85-30.54,27.24-42.17,30.79-1.2-6.1-5.7-9.29-10.85-11.61-11-4.93-22.4-6.58-34.26-4.18-3.78.77-7.28,2.17-10,5.21a3.15,3.15,0,0,1-2.38.83,63.89,63.89,0,0,1-8-1.45A260,260,0,0,1,539.06,614c-8.3-3.64-16.43-7.69-24.54-11.74-3.31-1.66-6.37-3.81-9.34-5.61"/>
    <path class="cls-1" d="M557.64,160.55c-2.29.3-4.6.47-6.85.93-12.14,2.49-22.49,8.07-30.26,17.91A24.61,24.61,0,0,0,515,192.25a19.08,19.08,0,0,0,1.21,8.42c-10.13,4-18.22,10.88-25.89,18.26a104.88,104.88,0,0,0-19.56,24.89c-13.71-1.27-27.35-.09-41.41,1.24.55-2.34.85-4.39,1.5-6.31a101.33,101.33,0,0,1,22.71-38.36,45.74,45.74,0,0,1,4.5-3.95,21.34,21.34,0,0,1,2.35-1.5c3.17,1.32,5.9,2.84,8.83,3.6a29.22,29.22,0,0,0,16.88-1c10.9-3.65,19.62-10.14,25.38-20.23a23.46,23.46,0,0,0,3.37-14.08,15.88,15.88,0,0,0-6.82-11.89,3.3,3.3,0,0,1-1-1,265.4,265.4,0,0,1,50.51,10.23"/>
    <path class="cls-1" d="M466.92,489.44c1.17,6.89,2.28,13.39,3.43,20.16a7.17,7.17,0,0,1-1.64-.54,45.26,45.26,0,0,0-17.61-6.87c-6.08-1-10.66-4.35-14-9.45-4.31-6.54-6.66-13.88-8.47-21.41a171.2,171.2,0,0,1-4.38-37.26,226.33,226.33,0,0,1,4.12-48,3.52,3.52,0,0,1,2.44-3.11c3-1.12,5-3.51,6.66-6.19a37.56,37.56,0,0,0,5.2-17.31c.42-5.57.06-11.09-2.07-16.34-.67-1.65-1.55-3.22-2.5-5.17a109.86,109.86,0,0,1,34.72,3.36l-2.07,1.73a42.41,42.41,0,0,0-15.6,27.8,15.2,15.2,0,0,0,2.14,10.52c-1.29,1.62-2.68,3.17-3.83,4.86-3.68,5.41-5.8,11.5-7.39,17.76a121.58,121.58,0,0,0-3.41,41.35c.47,5.05,1.4,10.06,2.24,15.07a7.75,7.75,0,0,1-.25,3.94,34.4,34.4,0,0,0,.19,23.75c1.41,3.9,3,4.75,7.06,3.9s8-1.59,12-2.33a28.77,28.77,0,0,1,3.05-.26"/>
    <path class="cls-1" d="M566.71,220.94c-11,6.1-21.72,12.26-30.87,20.71-3.8,3.51-7.46,7.19-11.07,10.89a2.74,2.74,0,0,1-3.31.88,178.69,178.69,0,0,0-28.72-7.16c-4.57-.76-9.17-1.24-13.76-1.85l-1.82-.23a20.06,20.06,0,0,1,1-2A111.17,111.17,0,0,1,511,209.49a45.43,45.43,0,0,1,7.37-3.44,2.71,2.71,0,0,1,2.22.27c6.51,4.88,13.86,5.9,21.71,5a51.43,51.43,0,0,0,29.61-13.7,32.4,32.4,0,0,0,7.63-10.2c3.45-7.52,3.19-14.61-2.67-21.11a245.72,245.72,0,0,1,45.75,20.27h-3.37a68,68,0,0,0-37.66,10.78,39.3,39.3,0,0,0-10.16,9c-3.82,4.84-5,8.58-4.68,14.61"/>
    <path class="cls-1" d="M601.56,314.53c-3.41-4.73-6.5-9.33-9.93-13.67-2.86-3.62-6.1-7-9.22-10.39-1.69-1.87-1.71-2.65.28-4.16a79.9,79.9,0,0,1,15.87-8.93,151.32,151.32,0,0,1,34.11-10.88c1.61-.3,3.23-.54,4.85-.69,2.72-.27,5.17-.14,7.65,1.7,4.08,3,9.09,3.68,14,3.5A46,46,0,0,0,687.86,260c4.47-3.78,7.89-8.27,9.33-14.07a8.76,8.76,0,0,1,.5-1.11,221.53,221.53,0,0,1,17.15,21.42c-2.22-.63-4-1.24-5.79-1.62-5.85-1.23-11.56-.32-17.17,1.43a45,45,0,0,0-19.76,12.08c-4,4.2-6.78,9-7,15.13-1.9.17-3.78.25-5.64.53-10.73,1.6-21,5-31.09,8.75a190,190,0,0,0-25.79,11.6c-.31.17-.65.28-1,.43"/>
    <path class="cls-1" d="M451.12,147.91c12.12-1,23.67-.18,35.23.23,0,.18,0,.36.07.54l-2.37.81a45.73,45.73,0,0,0-23.08,17,27.65,27.65,0,0,0-5.35,13.8,19.69,19.69,0,0,0,1.79,9.85c-9.46,6.41-15.92,15.37-21.65,24.91s-10.3,19.59-12.06,30.67c-7.62,1.61-15.19,3-22.65,4.84s-14.58,4.17-22.28,6.4c.36-2.43.56-4.67,1-6.86,2.19-10.28,6.28-19.88,10.9-29.25a123.17,123.17,0,0,1,13.89-22.73c1.63-2,3.52-3.84,5-5.43,3.09,1.22,5.62,2.44,8.28,3.2a20.17,20.17,0,0,0,12.59-.73c13.62-5,22.48-14.36,25.53-28.71a20.42,20.42,0,0,0-4.84-18.51"/>
    <path class="cls-1" d="M203.74,329.76c6.39-5.56,7.61-12.5,6.81-20.07a39.87,39.87,0,0,0-8.7-21.1,31,31,0,0,0-3.78-3.91c-4.21-3.69-9-5.7-15.27-4.48A288.51,288.51,0,0,1,206,253.59c0,4-.2,7.4,0,10.71a41.58,41.58,0,0,0,5.77,18.28c3.11,5.24,7.2,9.33,13.47,10.62.86,4.71,1.6,9.37,2.56,14,3.39,16.29,7.91,32.24,14.81,47.44,1,2.23,2.2,4.38,3.41,6.5.72,1.26,1.66,2.39,2.49,3.58s1.59,2.24,2.76,3.91a161,161,0,0,0-9.89,30,22.26,22.26,0,0,1-2.64-2.29c-2.45-3-5-6-7.17-9.24-8.54-12.81-15.25-26.6-21.22-40.76-2.29-5.42-4.37-10.93-6.6-16.54"/>
    <path class="cls-1" d="M300.63,302.81a25.33,25.33,0,0,1-2.34-9.67,158.36,158.36,0,0,1,4.32-54A55.22,55.22,0,0,1,306,230c1.17-2.55,1.93-2.8,4.74-2.33,5.85,1,10.94-.88,15.58-4.21,10.65-7.62,16.41-23.13,13.36-35.78-1.46-6-4.54-10.84-10.2-13.75a7.6,7.6,0,0,1-.7-.49c4.15-2.3,26-9.77,30.35-10.36-.67.74-1.16,1.32-1.69,1.87a40,40,0,0,0-10.16,17.48c-2,7.14-1.61,14,2.58,20-2.66,6.26-5.42,12.19-7.73,18.28a148.89,148.89,0,0,0-8.43,34.57,61.05,61.05,0,0,0,.94,22.72,240.76,240.76,0,0,0-34,24.85"/>
    <path class="cls-1" d="M339.65,274.54a28,28,0,0,1-1-8.07,99.45,99.45,0,0,1,2.17-20.57,148,148,0,0,1,11.54-35.38c.62-1.29,1.34-2.52,2-3.83,1.8.62,3.39,1.27,5,1.71a19.23,19.23,0,0,0,12-.79c14.73-5.68,23.31-16.47,25.91-32a20.68,20.68,0,0,0-.7-8.9c-1.31-4.8-4.2-8.37-9-11.08,9.94-2.28,19.47-3.76,29.05-5l.42.63a20.66,20.66,0,0,0-2.08,1.62c-6,5.92-10.09,12.81-11.21,21.29a22.22,22.22,0,0,0,2.48,13.71c-.12.26-.16.58-.34.75a65.06,65.06,0,0,0-12,15.09c-8.24,13.46-15,27.58-19,42.93a35.28,35.28,0,0,0-1.39,12l-33.88,15.92"/>
    <path class="cls-1" d="M274.22,330.07c-1.12-2.07-2.37-4.06-3.32-6.18-3.22-7.19-4.83-14.83-6-22.57a125.87,125.87,0,0,1-1.05-26.38c.21-3.26.71-6.51,1.21-9.73.28-1.78.84-3.52,1.26-5.25a6.86,6.86,0,0,1,1.12-.45c7.39-1.55,12.1-6.31,15.19-12.88a45.09,45.09,0,0,0,4.37-15.1,35.51,35.51,0,0,0-2.61-17.6c-2.43-5.61-6.2-10-12-12.38,1.94-2.31,24.29-14.69,28.54-15.84-6.68,13.26-9.06,26.26,2,38.75-4.83,7-6.45,15.31-8,23.59a167.88,167.88,0,0,0-2.73,36.9,132.94,132.94,0,0,0,1.62,14.61,51.75,51.75,0,0,0,2.08,7c-7.1,7.71-14.28,15.49-21.69,23.52"/>
    <path class="cls-1" d="M271.17,334.79a182,182,0,0,0-17,27.6,11.13,11.13,0,0,1-3.42-4.05,93.54,93.54,0,0,1-7.64-16.84,247.94,247.94,0,0,1-11.86-45.81c-.17-1.06-.23-2.15-.34-3.2,7.3-4.95,9.28-12.41,9.76-20.41a45.51,45.51,0,0,0-5.09-24c-2.6-5-6.13-9.18-11.66-11.59,6.48-5.78,13-11.08,19.84-16.14-.5,3.66-1.14,7-1.38,10.45a32.54,32.54,0,0,0,2.73,15.68c2.88,6.45,7.28,11.25,14.42,13a5.7,5.7,0,0,1,.92.39c-.08.56-.12,1.16-.26,1.75A84.22,84.22,0,0,0,258.13,280a124.93,124.93,0,0,0,5.09,39c1.72,5.59,3.93,10.94,7.95,15.76"/>
    <path class="cls-1" d="M585.63,635.08c1.49,4.76,5.59,7.52,10.15,9.82,4.4,2.21,9.14,3.42,14,4.91-2.42.5-4.81,1.08-7.24,1.48a161.14,161.14,0,0,1-34.46,2.17c-20.74-1-40.58-5.61-58.86-15.81a86.75,86.75,0,0,1-23.53-18.78c-.71-.81-1.4-1.65-2.22-2.63l8.53-5c.09,0,.31,0,.4.14,4.06,5,9.12,8.84,14.48,12.3,10.64,6.88,21.81,12.64,34.15,15.89,1.05.27,2.11.52,3.17.72,1.94.35,3.48-.58,3.75-2.2s-.73-2.74-2.61-3.17c-14.79-3.34-27.82-10.37-40-19.07a77.21,77.21,0,0,1-7.14-6.29,18.41,18.41,0,0,1-1.85-2.39l5.75-6.43c10.65,8,22.76,13.13,34.81,18.34a270.2,270.2,0,0,0,37,13.39c3.75,1,7.58,1.69,11.7,2.58"/>
    <path class="cls-1" d="M686.77,516.56c.76,1,1.24,1.79,1.82,2.46a76.13,76.13,0,0,1,11.47,18.44,2.34,2.34,0,0,1-.45,3,42.42,42.42,0,0,1-4.64,4.17c-6.6,4.62-14,7.65-21.48,10.45a316,316,0,0,1-54,14.57,259.53,259.53,0,0,1-28.6,3.59c-1.78.13-3.59,0-5.67,0,1.9-2.08,3.73-3.87,5.32-5.86a10.62,10.62,0,0,0,2.06-7.12c11.46-2.57,21.34-8.16,31.1-13.92,7-4.15,13.77-8.79,20.64-13.2.74-.48,1.51-.91,2.64-1.59a14,14,0,0,0,1,1.5,15.37,15.37,0,0,0,9.5,4.86c10.68,1.58,22.66-5,27.12-14.8.84-1.86,1.32-3.88,2.19-6.53"/>
    <path class="cls-1" d="M338.87,385l-6.59,9.23a10.54,10.54,0,0,1-3.63-3.61,76.69,76.69,0,0,1-9.77-18.79,45.09,45.09,0,0,1-3.24-13.44c-.09-1.85-1.06-2.78-2.65-2.82a2.53,2.53,0,0,0-2.77,2.95,43.61,43.61,0,0,0,1.22,8.05A83.75,83.75,0,0,0,322.92,392c1.75,2.61,4,4.92,5.86,7.24l-10.37,22.47c-1.69-.29-3-1.61-4.12-3a79.66,79.66,0,0,1-5.62-7.34,104.83,104.83,0,0,1-13.43-28.46c-.15-.52-.27-1.05-.39-1.58s-.22-1.06-.33-1.57c1.27-1.15,2.57-2.15,3.66-3.34a20.69,20.69,0,0,0,5.39-13.93,28.45,28.45,0,0,0-9.95-23,19.49,19.49,0,0,0-13.36-5.29,10,10,0,0,1-1.06-.11c1.38-3.82,19-22.74,24.39-26.09a74.76,74.76,0,0,0,.05,8.22A37,37,0,0,0,312,336.07c3.38,4.08,5.5,5.37,12,7.69.67,4.75,1.14,9.44,2,14.05a72.42,72.42,0,0,0,6,18c1.67,3.46,3.59,6.73,6.88,9.13"/>
    <path class="cls-1" d="M395.34,348.49a125.62,125.62,0,0,1,25.07-8.05c-.44,1-.73,1.63-1.06,2.29a42.05,42.05,0,0,0-3.25,29.17c1,4.4,3,8.38,7.18,11-.49,2.88-1,5.73-1.45,8.58a227.68,227.68,0,0,0-2.69,51.89c.79,12.28,2.38,24.4,6,36.19.59,1.91,1.23,3.8,1.95,5.66,2.93,7.52,5.31,11.22,10.75,16.89a2.42,2.42,0,0,1-3.36,0,55.69,55.69,0,0,1-6.5-5.74c-6.73-7.55-11.36-16.42-15.25-25.66a182.78,182.78,0,0,1-12.7-48,151.82,151.82,0,0,1-.94-28c.05-.81.22-1.63.25-2.44a3.3,3.3,0,0,1,1.6-2.91,8.73,8.73,0,0,0,3.47-5.68,38.82,38.82,0,0,0-3.89-27.7c-1.38-2.6-3.38-4.87-5.22-7.47"/>
    <path class="cls-1" d="M522.24,303.66c-14.29,7-29.16,26.47-31.29,38.42a112.81,112.81,0,0,0-23.8-7.76c.29-2.74.35-5.46.9-8.09a80.28,80.28,0,0,1,18.68-37.16,40.24,40.24,0,0,0,4.39,1.1,17.05,17.05,0,0,0,8.83-1.05c10.46-4.23,17.36-11.68,19.92-22.78.52-2.25.3-4.68.44-7.26a10,10,0,0,1,2.16.36,183,183,0,0,1,25,11.41,11,11,0,0,1,1.16.91c-1.23.22-2.12.29-3,.52-10.74,3-18.49,9.38-22.78,19.73a17,17,0,0,0-.61,11.65"/>
    <path class="cls-1" d="M607.29,516.34c3.64,1.65,7.11,2.47,10.66,1.83a56.91,56.91,0,0,0,9.67-2.63,34.23,34.23,0,0,0,12-7.88c4.32-4.26,7.54-9.09,7.31-15.86a102.14,102.14,0,0,1,20.85,9.75c-6.8,1.23-12.31,3.67-16.76,8.18s-7.09,9.84-6.44,16.46a240.18,240.18,0,0,1-31.85,19.89c-2.4,1.26-4.81,2.54-7.24,3.76a57.32,57.32,0,0,1-15.29,5.29c-7-5.68-15.24-5.32-23.61-3.32a32.12,32.12,0,0,0-10.67,4.64c-3.55,2.4-6.4,5.35-7.76,9.89-7.42.06-14.86.24-22.28.13-3.43-.05-6.85-.7-10.27-1.06-1.64-.17-2.19-1.06-1.77-2.74,3-.33,6.07-.57,9.11-1a131.6,131.6,0,0,0,31.29-9c14.6-6,28.33-13.52,40.65-23.48a68.83,68.83,0,0,0,11.72-11.73c.27-.37.47-.78.7-1.16"/>
    <path class="cls-1" d="M585.19,301.84c-3,.57-5.87.91-8.62,1.7A36,36,0,0,0,561.8,312c-4.53,4.23-8,9-7.31,15.8-8.37,2.36-15.23,7.22-21.59,12.82s-12.11,11.75-16,19.78a95.11,95.11,0,0,0-20.07-15.18c-.66-2.08-.07-4,.6-5.88a49.31,49.31,0,0,1,7.26-12.73A67.12,67.12,0,0,1,519.27,312c.88-.63,1.83-1.17,2.74-1.78,2-1.3,3.63-1.59,5.89-.11,3.4,2.23,7.38,2.13,11.34,1.47,10.65-1.78,21.8-12.16,24.15-22.72a51.34,51.34,0,0,0,.61-6.69c3.85,1.64,16.21,13.11,21.19,19.72"/>
    <path class="cls-1" d="M320.18,294.38c5.56-4.76,24.85-16.63,29.79-18.26-.29.89-.51,1.63-.77,2.36a31.42,31.42,0,0,0-1.37,17.43c1.35,6.3,4.18,11.6,10.39,14.34a97.61,97.61,0,0,0,5.09,50.53c-3.4,3-7,6-10.49,9.16s-7,6.34-10.26,9.78c-1.16.46-2.13-.38-2.79-1.49a60.26,60.26,0,0,1-3.79-6.91,75.51,75.51,0,0,1-6-23.94,14.12,14.12,0,0,1,0-3.25,2.79,2.79,0,0,1,1-1.79c5.37-3.32,7.18-8.58,7.5-14.38a37.32,37.32,0,0,0-8.32-25.86,21.88,21.88,0,0,0-8.93-7,7.06,7.06,0,0,1-.92-.53c-.07-.05-.09-.15-.13-.23"/>
    <path class="cls-1" d="M482.65,285.18c-11.67,14-19.55,29.57-21,48.22a117.9,117.9,0,0,0-32.55,0c-1.39-12.43,8.1-36.18,14.7-46.89a2.38,2.38,0,0,1,.8,0c4.95,1.93,9.74,1.12,14.16-1.35,10-5.6,15.5-14.25,16.44-25.69.27-3.3-.63-6.45-2.2-9.9a162.49,162.49,0,0,1,23.22,3c-1.11.81-1.83,1.31-2.52,1.82-6.64,5-11.35,11.16-13,19.46a16.27,16.27,0,0,0,1.92,11.37"/>
    <path class="cls-1" d="M369.12,412.34c1.22,4.92,2.31,10.07,3.78,15.11,6.3,21.6,15.45,41.87,28.79,60.1a111.74,111.74,0,0,0,7.27,8.83,49.76,49.76,0,0,0,14.6,11.69,6,6,0,0,1-7.1,2.13,44.46,44.46,0,0,1-13.91-7.27c-9.3-6.85-17-15.3-24.07-24.35a208.59,208.59,0,0,1-21.56-34,5.27,5.27,0,0,1-.43-4.84,14.87,14.87,0,0,0,.43-8.61,38,38,0,0,0-13.78-22.83,18.09,18.09,0,0,0-10.32-4.19,118.8,118.8,0,0,1,13.54-19.41c3.53,12.77,8.8,23.75,22.76,27.64"/>
    <path class="cls-1" d="M414.72,515.8c-1.72,5-5.6,4.69-9.43,3.84a81.46,81.46,0,0,1-12-3.48A141,141,0,0,1,345.47,485c-1.1-1.08-2.1-2.26-3.05-3.29,0-.36-.07-.59,0-.71,3.07-4.13,3.34-8.75,2.11-13.52A22.86,22.86,0,0,0,333,452.35c-3.05-1.65-6.32-2.38-9.71-1.11a32.13,32.13,0,0,0-4,2.13c-1.26-4.91,2.17-24.52,5.44-30.66.66,1.67,1.24,3.28,1.94,4.84a37.4,37.4,0,0,0,12,15.27c3.71,2.69,7.76,4.38,12.72,3,.5.93,1,1.87,1.49,2.81,9.75,18.53,21.42,35.67,36.51,50.32a76.61,76.61,0,0,0,16.14,12.47c3,1.65,6.18,3,9.25,4.4"/>
    <path class="cls-1" d="M585.68,484.5c5.55-1.26,31-.79,35.44,1.27l-2.68,1.49a34.82,34.82,0,0,0-12.81,11.56c-2.42,3.8-3.84,7.86-2.29,12.39.38,1.1-.21,1.71-.74,2.43a58,58,0,0,1-10.87,11,158,158,0,0,1-66.43,31c-3,.63-6.1.83-9.17,1.16a30.54,30.54,0,0,1-3.2,0c-.32-1.15-.62-2.24-1-3.53.75-.3,1.39-.58,2-.82,10.5-3.84,19.91-9.62,28.8-16.29,3.26-2.44,6.36-5.13,9.38-7.88,4.32-3.94,5.88-6.24,8.43-11.53,14.49,3.39,26.53-10,28.1-20.15.73-4.74.53-7-3-12.2"/>
    <path class="cls-1" d="M398.61,293.67c-4.76,7.08-6.45,15.16-7.71,23.35a87.23,87.23,0,0,0-.25,27c-7.56,4.33-15,8.61-22.64,13a31.93,31.93,0,0,1-1.25-3,92.13,92.13,0,0,1-3.64-39,9.54,9.54,0,0,1,.7-2.9,3,3,0,0,1,1.61-1.56,16.82,16.82,0,0,0,10-7.53,30.8,30.8,0,0,0,3.29-28.14,16.68,16.68,0,0,0-5.87-8,11.79,11.79,0,0,1-1.14-1.05,232.43,232.43,0,0,1,27-9c-6.92,12.43-9.19,24.54-.11,36.86"/>
    <path class="cls-1" d="M419.92,252.19a194.47,194.47,0,0,1,26.7-2.91c-1,1.13-1.66,1.83-2.29,2.56-5.12,5.88-8.29,12.52-8.24,20.49a17.86,17.86,0,0,0,3.26,10.26,187.07,187.07,0,0,0-11.13,24.85,90.25,90.25,0,0,0-5.1,26.31l-27.22,7.94c-.17-1.47-.48-3.15-.54-4.84a91.93,91.93,0,0,1,3.8-31.5,57.91,57.91,0,0,1,3.3-7.44,2.71,2.71,0,0,1,3.13-1.55c4.58.56,8.34-1.28,11.58-4.34,4.87-4.63,7.37-10.49,8.61-17a29.69,29.69,0,0,0-.5-13.77,19.53,19.53,0,0,0-5.36-9.09"/>
    <path class="cls-1" d="M379.2,356.8a40.84,40.84,0,0,0,4,22.79,39.47,39.47,0,0,0,3.8,6c1.8,2.4,3.51,3.51,6.91,5-.1,1.61-.2,3.3-.31,5a153.07,153.07,0,0,0,2.23,36.08,180.81,180.81,0,0,0,13.53,45c4.29,9.38,9.34,18.27,16.57,25.75a5.65,5.65,0,0,1,.4,1c-1.54-.91-2.71-1.51-3.79-2.24a58.44,58.44,0,0,1-12.28-11.53c-9.77-11.76-17.09-25-23.19-38.95A181.88,181.88,0,0,1,374.84,412c-.19-1-.58-1.94.23-2.83,3-3.36,3.26-7.48,2.64-11.57a36.24,36.24,0,0,0-13.57-23.47,46.73,46.73,0,0,0-4.58-2.89A131,131,0,0,1,379.2,356.8"/>
    <path class="cls-1" d="M699.79,303.93c-.83.67-1.29,1.1-1.8,1.45-17.7,12.22-36.73,21.6-57.57,27.12a87.08,87.08,0,0,1-26.4,3.07,3.6,3.6,0,0,1-3.76-2.65c-1.79-4.45-3.87-8.79-5.91-13.35.59-.37,1.22-.84,1.92-1.21a202.93,202.93,0,0,1,50.37-18.58c2-.44,4.14-.48,6.19-.81a5.06,5.06,0,0,1,4.82,1.86c5.24,6,12.1,6.82,19.4,6.12a41,41,0,0,0,11.31-2.81,7.61,7.61,0,0,1,1.43-.21"/>
    <path class="cls-1" d="M409.4,692.33c2-2,4.08-3.87,5.86-6,3.81-4.58,6.39-9.73,6.09-15.9-.08-1.55,1-2,1.95-2.61,3.69-2.47,7.58-4.71,11-7.5,8.5-6.87,14.88-15.36,18.32-25.87a35.54,35.54,0,0,0,.85-20.4c-.13-.51-.24-1-.44-1.9l11.65-2.33a41,41,0,0,1,1.54,4.27,82.1,82.1,0,0,1-2.77,48.49,32.81,32.81,0,0,1-18.1,19.34,149.89,149.89,0,0,1-24.48,8.15c-3.76,1-7.56,1.77-11.34,2.64l-.15-.37"/>
    <path class="cls-1" d="M542.37,364.32a99.28,99.28,0,0,1-20.26-1.62,34.58,34.58,0,0,1,1.52-3.24,65.28,65.28,0,0,1,13.89-15.62,54,54,0,0,1,14.09-9.2,27.1,27.1,0,0,1,5.49-1.29,3,3,0,0,1,1.83.28c4.93,2.59,10,2.28,15.1.81,8-2.32,14.75-6.52,19.73-13.3.89-1.22,1.61-2.57,2.51-4a93.69,93.69,0,0,1,7.18,13.63c1.07,2.4,1.87,4.93,3,7.31a3.83,3.83,0,0,1-.6,4.27,29.3,29.3,0,0,1-7.32,6.86c-6.74,4.6-14.23,7.53-22,9.89a139,139,0,0,1-24,4.68c-.77.09-1.56,0-2.94,0,1.19-1.15,2-2,2.82-2.73a83.75,83.75,0,0,1,24.73-14.61c2-.76,4.21-1,6.27-1.7a4.88,4.88,0,0,0,2.43-1.5,2.48,2.48,0,0,0-2.09-3.9,15.88,15.88,0,0,0-5.08.75,84.17,84.17,0,0,0-32.29,19.12,22.83,22.83,0,0,0-2.16,2.44c-.61.78-1.13,1.64-1.84,2.68"/>
    <path class="cls-1" d="M510.09,547.64c-.83-1.9-1.63-3.72-2.43-5.57,2-1.47,4.07-2.79,5.91-4.37a112.42,112.42,0,0,0,21.48-24.87,33.4,33.4,0,0,0,3.23-6.87,6,6,0,0,0-.26-3.65,2.39,2.39,0,0,0-2.93-1.44A2.28,2.28,0,0,0,533,503.1c.1,3.07-1.63,5.34-3.15,7.65a111.26,111.26,0,0,1-19.23,22.19,32,32,0,0,1-3.91,2.95c-1.29.82-1.9.65-2.64-.66-2.54-4.5-5-9-7.46-13.46,7.87-11.46,48.65-32.54,64.31-33.3-6.21,7.46-10.62,15.21-5,25.12a21.26,21.26,0,0,1-5.86,9.11A113.73,113.73,0,0,1,513,547.05a19.13,19.13,0,0,1-2.08.63,3.1,3.1,0,0,1-.81,0"/>
    <path class="cls-1" d="M313.43,449.39c-.25,7.87-.08,15.76,1.61,23.63a3.75,3.75,0,0,1-3.17-.38c-2.84-1.2-5.69-2.4-8.4-3.85a112.32,112.32,0,0,1-16.7-11.26,4.91,4.91,0,0,1-2-3.57,12.12,12.12,0,0,0-2-5.55c-7.54-10.31-17.81-14.88-30.5-13.5-2.7.29-5.26,1.74-8.2,2.76-1-9.79-.37-19.73,1.25-30.32.7,1.13,1.1,1.76,1.46,2.4,4.32,7.6,10.66,12.51,19.25,14.34,5.08,1.08,9.93.54,14.29-2.57a8.56,8.56,0,0,1,1-.46c1.43,1.68,2.9,3.38,4.33,5.12a107.92,107.92,0,0,0,15.58,16,49.33,49.33,0,0,0,5.79,4.06c1.94,1.16,4.05,2,6.42,3.18"/>
    <path class="cls-1" d="M282.91,461.65c10.39,7.47,20.28,15.43,33.57,17.72a88.77,88.77,0,0,0,11.45,25,27.37,27.37,0,0,1-3.22.11,42.55,42.55,0,0,1-13.44-3.17,4.51,4.51,0,0,1-2.13-1.86,20.34,20.34,0,0,0-7.34-7.89,35.38,35.38,0,0,0-25-5.41c-5.48.81-10.22,3.16-12.75,8.92a116.31,116.31,0,0,1-16-34.64c.93.54,1.5.83,2,1.18a33.09,33.09,0,0,0,19.46,6c5.2-.14,9.83-1.61,13.38-6"/>
    <path class="cls-1" d="M313.74,443.32a19.68,19.68,0,0,1-6.51-3.51,102.07,102.07,0,0,1-17.79-17.58c-.46-.56-.86-1.18-1.37-1.69-2.35-2.34-3.56-4.73-2.52-8.37.65-2.27.13-5.08-.51-7.48-2.84-10.64-15.12-20.41-27.33-19a52.1,52.1,0,0,0-7.25,1.86c-.22-3.25,8.35-23.81,11.9-28.16,3.84,13.59,11.12,23.12,26.89,22.69a102.25,102.25,0,0,0,11.2,26.46,155.16,155.16,0,0,0,8.94,13,13.94,13.94,0,0,0,7.63,5.57l-3.28,16.25"/>
    <path class="cls-1" d="M499.53,456.21q-4.77,7.95-9.39,15.62c-11.68.44-17.1,3.41-21.57,11.58l-18.35,2.95c-4.67-9.86-2-26.15,10.71-34.75a29.45,29.45,0,0,1,38.6,4.6"/>
    <path class="cls-1" d="M408,526c-1.65,4.6-1.91,4.83-6.77,4.77a43.46,43.46,0,0,1-13.79-2.87,116.71,116.71,0,0,1-27.57-14,20.27,20.27,0,0,0-2.52-1.61A2.56,2.56,0,0,0,354,513a2.64,2.64,0,0,0,.3,3.48,9,9,0,0,0,1.49,1.18,125,125,0,0,0,29.14,15.16,44.84,44.84,0,0,0,12.52,2.39c2.15.13,4.3.33,6.45.5-.22,2.87-.35,3.09-2.56,2.92-30.81-2.35-55.48-15.22-71.8-42.21a70.89,70.89,0,0,1-7-16.2,15.57,15.57,0,0,1-.31-1.57c2.42,1.58,4.65,3.27,7.09,4.55a12.1,12.1,0,0,0,8,1,105,105,0,0,0,14.79,14.13c13.19,10.43,27.4,19.09,43.43,24.45,4,1.34,8.23,2.1,12.47,3.15"/>
    <path class="cls-1" d="M332.71,546.75c6.2-1.93,11.35-4.78,13.6-11.28,2,.11,3.86.21,5.74.33a24.79,24.79,0,0,0,9.41-1A3.82,3.82,0,0,1,364,535a101.51,101.51,0,0,0,26.41,8.11c3.82.62,7.72.84,11.85,1.27.4,4.1-.69,8.34-.53,13-2.16.23-4.11.55-6.07.62a133.84,133.84,0,0,1-31.37-2.67,202.05,202.05,0,0,1-29.14-7.63c-.83-.29-1.65-.64-2.47-1"/>
    <path class="cls-1" d="M208,541.09c-2.27.45-4.14.73-6,1.2a21.59,21.59,0,0,0-9.91,5.42,15.37,15.37,0,0,0-1.94,20.55,22.73,22.73,0,0,0,8.95,7.34,10.29,10.29,0,0,1,2.7,1.61c-1.37,0-2.74.06-4.1,0-10.53-.51-20.37-3.22-29.18-9.19a25.19,25.19,0,0,1-7.59-7.69c-3.48-5.76-2.54-11.44,2.61-15.82A28.07,28.07,0,0,1,176,538.73a57.28,57.28,0,0,1,30.57,1.78c.33.11.65.27,1.39.58"/>
    <path class="cls-1" d="M589.59,199.28a12.09,12.09,0,0,1,1.51-1,62.26,62.26,0,0,1,28.71-6.21,28.25,28.25,0,0,1,10.34,2.11,18.8,18.8,0,0,1,3.34,1.79c3.67,2.54,4.78,6.06,3.24,10.25a20.27,20.27,0,0,1-5.59,8c-7.61,7-16.77,11-26.75,13.27a10,10,0,0,1-1.64,0c.93-.86,1.55-1.43,2.16-2a19.28,19.28,0,0,0,6-9.56,12.2,12.2,0,0,0-4.84-13.22c-4.52-3.24-9.64-4-15-3.39-.44.05-.88.15-1.31.23l-.12-.26"/>
    <path class="cls-1" d="M486.46,164.09a38,38,0,0,1,5.58,1.38c4.69,1.85,6.71,6.15,5.45,11.07a19.05,19.05,0,0,1-6.53,9.81,26,26,0,0,1-16.1,6.45A18.08,18.08,0,0,1,469,192c-5.73-1.71-8.19-6.42-6.39-12.11a16.34,16.34,0,0,1,2.26-4.61c5.12-7.08,12.22-10.53,21.61-11.2"/>
    <path class="cls-1" d="M279.67,235.16c-.09,7.9-3.92,13.62-10.55,17.51-4.42,2.58-8.5,1.84-12.14-1.75a15.11,15.11,0,0,1-4.25-8.07c-1.48-7.73.09-14.67,5.87-20.24,6.26-6.05,14.77-4.59,18.87,3.1a18.88,18.88,0,0,1,2.2,9.45"/>
    <path class="cls-1" d="M210.2,572.85A21.36,21.36,0,0,1,197.43,568a15,15,0,0,1-2.11-2.11c-4.21-5.19-3.35-11.46,2.05-15.44A19.47,19.47,0,0,1,208,546.85a22.3,22.3,0,0,1,14.41,4,16.7,16.7,0,0,1,3.39,3.11c4.06,5,3.32,11.17-1.79,15.08-3.68,2.81-7.93,3.89-13.85,3.85"/>
    <path class="cls-1" d="M158.19,510.67c-.83-.18-1.68-.32-2.5-.55-7.5-2.07-14.13-5.63-19.35-11.51a18.57,18.57,0,0,1-4.73-9.34,10.61,10.61,0,0,1,2.93-9.49,17.16,17.16,0,0,1,9.5-4.94c10.47-2.06,20.12.31,29.15,5.71.11.07.14.29.28.62-1.66,0-3.24-.05-4.82,0A19,19,0,0,0,158,484.77c-7.64,5.55-8.7,15.41-2.43,22.68a36.6,36.6,0,0,0,2.94,2.75Z"/>
    <path class="cls-1" d="M440,171.37c-.08,9.44-8.71,18.59-18.09,18.79-6.15.13-10.44-3.35-11.31-9.52-1.39-9.85,7.55-20.31,17.43-20.89,7.74-.45,12.24,5.27,12,11.62"/>
    <path class="cls-1" d="M165.27,413.59c-7.91-1.21-14.5.24-18.52,7.25-3.79,6.61-2.44,13.25,1.08,19.68l-.5.32c-2.16-1.71-4.42-3.32-6.46-5.17a40.24,40.24,0,0,1-11.4-16.37c-1.12-3.18-1.88-6.44-1.09-9.87a9.75,9.75,0,0,1,8.33-7.87,22.29,22.29,0,0,1,9.16.51,41.78,41.78,0,0,1,19.4,11.52"/>
    <path class="cls-1" d="M352.62,529.19c-1.17.15-2.33.36-3.49.43a4,4,0,0,1-4.36-2.37c-1.65-3.29-4.67-5.29-8-6.72a25.73,25.73,0,0,0-19.88-.56c-4.69,1.76-8.44,4.68-9.69,9.86a38,38,0,0,0-.48,4.7,136.16,136.16,0,0,1-25.82-19.45,21.4,21.4,0,0,1,2.23.24,34.52,34.52,0,0,0,15.1.44c5.24-1.07,9.52-3.49,11.65-8.76,7,1.9,13.95,4.38,21.42,2.17a107.85,107.85,0,0,0,21.29,20"/>
    <path class="cls-1" d="M353.86,189.9c-.06-8,6-16.15,13.54-18.15,9.18-2.44,16.64,4.71,14.24,13.9-1.78,6.83-5.76,12-12.6,14.67-8.25,3.27-15.19-2.56-15.18-10.42"/>
    <path class="cls-1" d="M534.58,204.82a40.81,40.81,0,0,1-5-.91c-6.77-2.1-9.62-8.56-6.56-14.95,2.55-5.34,7-8.45,12.6-10a16.67,16.67,0,0,1,10.93.49c5.7,2.35,8.16,7.83,6,13.58s-6.89,9.17-12.74,10.88a43.21,43.21,0,0,1-5.17.86"/>
    <path class="cls-1" d="M537.09,172.71a34.65,34.65,0,0,1,10.8-4.9,35.3,35.3,0,0,1,17.73-.86c.27.06.55.09.8.16,8.78,2.47,12,9.48,8.19,17.76a30,30,0,0,1-7.66,9.79,45,45,0,0,1-12.43,7.74c-.47.2-1,.31-2,.61,5.62-6.54,8.51-13.39,4.43-21.11s-11.57-9.56-19.89-9.19"/>
    <path class="cls-1" d="M595.3,204.56a36.33,36.33,0,0,1,6.19,1.81c4,1.85,5.29,5.7,3.55,9.82a16.41,16.41,0,0,1-5.51,6.62,26.51,26.51,0,0,1-13.85,5.1,14.47,14.47,0,0,1-10.13-3.22c-2.75-2-3.38-4.39-2.22-7.67a14,14,0,0,1,4-5.78c4.78-4.31,10.46-6.36,18-6.68"/>
    <path class="cls-1" d="M177.09,435.68c0,7.06-5.62,11.63-12.56,10.25-7.23-1.45-13.15-7.42-14.23-14.36-1.35-8.65,4.6-14.33,13.15-12.54,7.47,1.57,13.66,9.12,13.64,16.65"/>
    <path class="cls-1" d="M327.61,204.56a19.28,19.28,0,0,1-4.95,12.79,17.58,17.58,0,0,1-5.17,3.86c-4.45,2.12-9,.4-11.29-4a15.22,15.22,0,0,1-1.49-8.73,18.52,18.52,0,0,1,6.62-13,14.5,14.5,0,0,1,4.49-2.44,7.88,7.88,0,0,1,9.34,3.11,14.58,14.58,0,0,1,2.45,8.36"/>
    <path class="cls-1" d="M656.07,239.08a41.14,41.14,0,0,1,13.75-5.59,28.51,28.51,0,0,1,13.74,0,18.25,18.25,0,0,1,2.06.65c5.85,2.37,7.88,7.23,5.32,13a25,25,0,0,1-3,4.85c-4,5.3-13.32,10.91-20.23,12,.53-.59.89-1,1.29-1.41a17.39,17.39,0,0,0,5-7.95c2-7.11-2.37-13.82-10.12-15.11a73.61,73.61,0,0,0-7.87-.45"/>
    <path class="cls-1" d="M169.69,486.7a16.17,16.17,0,0,1,10.81,3.73c3.3,2.73,5.11,6.2,4.17,10.55-.87,4-3.78,6.26-7.51,7.53-6.55,2.22-14.51-.26-18.23-5.64-3.34-4.83-2.3-10.51,2.54-13.81a14.24,14.24,0,0,1,6.86-2.36c.45,0,.91,0,1.36,0"/>
    <path class="cls-1" d="M256.14,636.57a17.34,17.34,0,0,1-10.44-3.84c-5-4.19-4.88-10.43.28-14.43,5.84-4.53,16-4.07,21.45,1,4.45,4.1,4.5,8.78.16,13a15.34,15.34,0,0,1-11.45,4.34"/>
    <path class="cls-1" d="M153.1,365c-.52-.91-1.08-1.79-1.55-2.73A35.59,35.59,0,0,1,147.5,348a30.65,30.65,0,0,1,.2-5.42c1.13-8.14,7.17-11.49,14.63-8.06,6.09,2.79,10.24,7.67,13.57,13.32a26.85,26.85,0,0,1,3.48,8.24c-1.19-1-1.93-1.59-2.67-2.18a16.8,16.8,0,0,0-8.36-3.66c-8.59-1.1-13.92,4.57-14.66,12.07-.09.86-.11,1.73-.17,2.59l-.42.12"/>
    <path class="cls-1" d="M252.62,609.6c-2,.66-4.09,1.19-6.05,2a16.55,16.55,0,0,0-8.51,7.71c-3,5.82-1.54,12.61,3.68,17.26a6.67,6.67,0,0,1,1.84,2.19c-2-.35-4-.6-5.93-1a28.28,28.28,0,0,1-11.79-5.33,21.53,21.53,0,0,1-4.27-4.52c-2.61-3.87-2.16-8.26.91-11.8a20.93,20.93,0,0,1,9.62-5.91A39.7,39.7,0,0,1,251.48,609a3.21,3.21,0,0,1,.76.29,1.78,1.78,0,0,1,.38.27"/>
    <path class="cls-1" d="M693,299.72a26.39,26.39,0,0,0,3.36-3.14,27.92,27.92,0,0,0,3.95-6.12c2.8-7-1.26-13.84-8.73-14.95-2-.3-4.13-.27-6.44-.41a18.42,18.42,0,0,1,1.78-1.16c5.6-2.77,11.46-4.62,17.77-4.3a22,22,0,0,1,6.84,1.51c4.13,1.65,5.79,5.26,4.57,9.52a17.7,17.7,0,0,1-2.06,4.71c-5,7.65-12.41,11.92-21,14.34"/>
    <path class="cls-1" d="M274,370.26a5.71,5.71,0,0,1-1-.74c-4.48-5.86-6.28-12.39-4.67-19.69a14.58,14.58,0,0,1,4-7c3-3.05,6.85-3.62,10.85-2.72,6.4,1.43,12.61,8.35,13.79,15.35-6-4.35-12.09-5.17-18.07-.74-5.13,3.81-6.36,9.22-4.93,15.54"/>
    <path class="cls-1" d="M179.92,370.94a7.66,7.66,0,0,1-10.82,7.39c-5.43-2.32-9.89-8.54-10-14.45a12.36,12.36,0,0,1,0-1.36c.61-5.36,4.8-8.08,10-6.48,6,1.85,10.8,8.51,10.78,14.9"/>
    <path class="cls-1" d="M204,307c-3.87-4-8.11-7.46-14.06-5.1-5.13,2-6.15,6.72-6.38,11.77-.27-.13-.57-.17-.65-.32-3.26-6.36-5-13-3.66-20.19,1.47-7.76,7.11-10.11,13.57-5.61,4.7,3.27,7.67,7.9,9.8,13.11.81,2,1.34,4.07,2,6.1L204,307"/>
    <path class="cls-1" d="M652.87,263.45a31.28,31.28,0,0,1-4.21-1c-3.82-1.43-5.22-4.83-3.66-8.61a11.42,11.42,0,0,1,1.18-2.14c3.5-5.07,11.06-8,17.06-6.68,5.43,1.21,7.44,5.86,4.48,10.58-2.56,4.08-6.47,6.26-11.05,7.33-1.14.26-2.33.34-3.8.55"/>
    <path class="cls-1" d="M300.51,668.6a35.22,35.22,0,0,1-9.6.09,42.3,42.3,0,0,1-7.79-2.28,9.38,9.38,0,0,1-3.05-2.22c-2.16-2.14-2.68-4.56-1.21-7.2a17.1,17.1,0,0,1,3.74-4.6c4.24-3.66,9.38-5.43,14.82-6.35a28.17,28.17,0,0,1,7.21-.27,10.74,10.74,0,0,1-1.25,1,19,19,0,0,0-6.68,6.29c-3,4.92-2.53,11,2.63,14.45.27.19.49.46,1.18,1.09"/>
    <path class="cls-1" d="M212.41,268.49c-1.65-7.2-1.94-14.24,1-21.05a17.18,17.18,0,0,1,3.21-4.3,4.72,4.72,0,0,1,6-1,19,19,0,0,1,4.72,3.54c3.34,3.38,6.74,11.11,7.31,17.69-3.73-3.62-7.67-6.21-12.88-4.79-5,1.37-7.48,5.32-9.34,9.89"/>
    <path class="cls-1" d="M276,399.19c-9.78-1.22-17.68,6.62-13.78,17.63a11.77,11.77,0,0,1-1.75-.67c-5.3-3.27-9.25-7.61-10.54-13.91-1.21-5.88,2.22-10.56,8.17-11.1,7.2-.64,12.72,2.57,17.9,8.05"/>
    <path class="cls-1" d="M678.44,298.88a28.45,28.45,0,0,1-4.46-1.31,4.53,4.53,0,0,1-2.49-5.68,11.18,11.18,0,0,1,1-2.51c3.36-6,12.41-9.72,18.15-8.44,4.58,1,6.37,4.31,4.18,8.47-2.73,5.19-7.39,7.77-12.93,9-1,.22-2,.29-3.46.49"/>
    <path class="cls-1" d="M608.57,627.73c7.83.19,15.27,1.55,22.1,5.24a19.8,19.8,0,0,1,4.34,3.22c2.37,2.31,2,4.16-.87,5.82a13.61,13.61,0,0,1-2.74,1.19c-7.37,2.25-14.76,1.82-22.68.21,3.07-2.11,5.66-4.1,5.29-7.9-.35-3.58-2.88-5.64-5.44-7.78"/>
    <path class="cls-1" d="M442.73,266.79c1.81-7.55,6-13.25,13-16.78a12.66,12.66,0,0,1,7.44-1,6.33,6.33,0,0,1,5.2,3.91,15.07,15.07,0,0,1,1.27,4.95,19.33,19.33,0,0,1-4.39,13.47c-.05-.57-.08-1.14-.16-1.7-.85-6.16-5.81-9-11.26-8.55a16.37,16.37,0,0,0-9.9,4.66c-.38.37-.78.73-1.17,1.09"/>
    <path class="cls-1" d="M233.44,277.34c-.06,2.88-.58,5.6-2.61,7.82-2.72,3-6.15,3.09-9.07.31-4.38-4.19-5.65-12.62-2.7-18,2.43-4.39,6.8-5,10.31-1.39a15.37,15.37,0,0,1,4.07,11.22"/>
    <path class="cls-1" d="M302.3,197.58c2.25-8.32,6.43-15.19,14.66-18.69,6.82-2.89,13.17-.27,16.19,6.5,2.57,5.74,2.33,11.63.64,17.55-.06.22-.31.39-.39.49a62.24,62.24,0,0,0-2-7.28c-2.56-6.27-8.4-9.81-14.64-9a18,18,0,0,0-11.34,6.42c-1.1,1.27-2.07,2.65-3.09,4"/>
    <path class="cls-1" d="M409.74,665.53c4.33,0,6.17,2.29,5.07,6.5a12.6,12.6,0,0,1-1.69,3.69,19.67,19.67,0,0,1-12.4,8.64c-.26.06-.52.14-.79.18-5.36.75-8-2.49-6.14-7.56,2.21-6,9.75-11.46,15.95-11.45"/>
    <path class="cls-1" d="M668.58,531c3.59-11.3-2.92-18-12.27-18.29.15-.25.23-.54.42-.68,4.81-3.62,10.11-5.59,16.23-4.6,5.71.93,8.93,5.5,7.45,11.06-1.63,6.12-6.06,9.74-11.83,12.51"/>
    <path class="cls-1" d="M502.28,180.35a45.31,45.31,0,0,0,1-5.08c.62-8-4.28-14.23-12.42-16a27.39,27.39,0,0,0-13.69.76,12.7,12.7,0,0,1-2.34.57,34.59,34.59,0,0,1,10.84-5.79A28.13,28.13,0,0,1,498,153.37c6.8.74,12.69,5.06,11.33,14.15-.65,4.42-3.83,10.35-7,12.83"/>
    <path class="cls-1" d="M362.24,168.6c4.19-4.7,9.15-8,15.43-8.72a17.13,17.13,0,0,1,5.67.23,10.29,10.29,0,0,1,7.84,7.56c2,6.91,0,13.15-3.29,19.12h-.65c-.05-1.39-.07-2.78-.13-4.18a16.75,16.75,0,0,0-4.21-10.66c-4.64-5.28-10.63-6.35-18.18-4.2-.84.24-1.65.57-2.48.86"/>
    <path class="cls-1" d="M445,177.88c4-17.27-8.75-27.79-24.57-22.26,4.54-4,9.65-6.82,15.89-7.08a18.75,18.75,0,0,1,4.86.18c5.48,1.23,8.71,4.83,9.53,10.28,1.08,7.14-1.53,13.29-5.71,18.88"/>
    <path class="cls-1" d="M507.71,277.06c-.13-8.08-6.57-14.45-18.15-10.51.72-1,1.15-1.73,1.66-2.35,3.83-4.56,8.32-8.33,14.42-8.93s9.21,2,9.1,7.78c-.09,4.91-3.42,11.58-7,14"/>
    <path class="cls-1" d="M373.71,293.59c-2.15-10.95-13.26-15.95-21-4.2.29-6.4,1.88-11.78,6-16.24a11.75,11.75,0,0,1,1.63-1.44c3.9-2.86,8-2.34,11.05,1.42a16.3,16.3,0,0,1,3.28,7.67,24,24,0,0,1-1,12.79"/>
    <path class="cls-1" d="M565.24,604.62c7.4-5.24,7.58-10.75.85-16.9,1.06-.7,2.15-.2,3.12-.1a27,27,0,0,1,13.59,4.93,15.68,15.68,0,0,1,3,2.78c2.45,3,2,6-1.39,8a17,17,0,0,1-4.77,1.86,30.62,30.62,0,0,1-14.37-.55"/>
    <path class="cls-1" d="M332,329.44a26.82,26.82,0,0,1-.84,3.86c-1.54,4.4-5.4,5.47-9,2.53a12.12,12.12,0,0,1-2.55-2.8c-2.41-3.82-3.48-7.94-2.34-12.44a9.67,9.67,0,0,1,.74-2c1.69-3.28,4.61-4.15,7.69-2.14a13.28,13.28,0,0,1,3.12,3c2.12,2.74,3,6,3.18,10.06"/>
    <path class="cls-1" d="M533.4,286.1c4.41-5.07,9.76-8.42,16.52-8.78,5.9-.32,9.34,3.48,8.3,9.32-1.15,6.5-5,11.33-10.44,14.95,0,0-.14,0-.4-.14a13.66,13.66,0,0,0,.74-2.21,27.17,27.17,0,0,0,.89-6.13c-.37-6.34-6.22-10-12.64-8.09-1,.3-2,.72-3,1.08"/>
    <path class="cls-1" d="M577.2,327.15c1.48-9-.77-11.66-10.47-11.9a13.57,13.57,0,0,1,1.35-1.37,32.2,32.2,0,0,1,13.86-5.95,12.87,12.87,0,0,1,6.71.45,4,4,0,0,1,2.73,5.2,12.29,12.29,0,0,1-.73,2c-2.11,4.64-8.36,10-13.45,11.54"/>
    <path class="cls-1" d="M279,365.69a8.35,8.35,0,0,1,8.58-8.31,8.43,8.43,0,0,1-.22,16.85,8.36,8.36,0,0,1-8.36-8.54"/>
    <path class="cls-1" d="M306.87,664.16a17.84,17.84,0,0,1-3.2-.67c-3.06-1.1-4.06-3.53-2.79-6.49a9.2,9.2,0,0,1,.62-1.21c2.61-4.23,9.23-6.89,14.17-6.17,5.39.78,5.71,6,3.32,9a14.72,14.72,0,0,1-9.45,5.35c-.7.12-1.44.13-2.67.22"/>
    <path class="cls-1" d="M633.8,505.38c-1.45-6.33-5.68-8.73-11.36-9-2.48-.13-5,.19-7.69.32a28.84,28.84,0,0,1,10.89-6.59,61,61,0,0,1,8.21-1.71,6.1,6.1,0,0,1,1.9.07c5.06.68,6.87,3.8,4.87,8.53a21.18,21.18,0,0,1-6.82,8.42"/>
    <path class="cls-1" d="M437.15,358.07a5.25,5.25,0,0,1-.89-.59c-3-3.64-7.26-3.47-10.61-.73a29.19,29.19,0,0,0-3.48,3.79c-.5.58-.89,1.25-1.64,2.31a24.58,24.58,0,0,1,.85-9.33,52,52,0,0,1,3-8.41,14.2,14.2,0,0,1,3.38-4.2c1.83-1.66,3.83-1.38,5.5.45a6.9,6.9,0,0,1,1,1.32c2.65,4.73,3.23,9.84,2.9,15.39"/>
    <path class="cls-1" d="M674.93,604.17c5.83-6,6.33-12.43-.24-17.38a11.75,11.75,0,0,1,1.79-.53c4.08-.53,8.14-.69,12.07.82,5.58,2.13,6.54,6.24,2.31,10.43s-9.55,6-15.93,6.66"/>
    <path class="cls-1" d="M329.87,312.14c-9.3-5.13-17-1.07-18.9,11.19-2.2-6.39-3.07-12.38-.9-18.48a10,10,0,0,1,2.16-3.41A5.47,5.47,0,0,1,318,299.9a14.06,14.06,0,0,1,6.41,4,25.83,25.83,0,0,1,5.51,8.29"/>
    <path class="cls-1" d="M479,365.89c-2.71-7.81-5.37-9.05-14.52-6.75,3.23-5.63,6.81-10.49,12.46-13.48a7.92,7.92,0,0,1,1.26-.51c3-1,4.81.05,5.36,3.1a18.3,18.3,0,0,1-.51,8.09,32.93,32.93,0,0,1-4.05,9.55"/>
    <path class="cls-1" d="M390.79,670.5c-.89,1.94-1.7,3.46-2.28,5.06-3.11,8.56,2.75,15.7,12.15,14.45a3.73,3.73,0,0,1,2,.08c-1.16.64-2.27,1.35-3.47,1.89-4.19,1.87-8.48,3.13-13.16,2.09-4.32-1-6.52-4.23-5.78-8.64a19.37,19.37,0,0,1,3.08-7.48,25.58,25.58,0,0,1,7.46-7.45"/>
    <path class="cls-1" d="M279.93,219.29c-.41-.36-.82-.69-1.2-1-6.83-6.55-15.86-6.29-22.92-.55a24.23,24.23,0,0,0-6.68,8.81c-.19.4-.42.79-.69,1.28,0-4.48,2.81-12.26,5.91-14.88a50.93,50.93,0,0,1,9.46-6.34c1.49-.77,3.77-.48,5.57-.09,5,1.11,10.18,7.29,10.77,12.49,0,.06-.09.14-.22.33"/>
    <path class="cls-1" d="M399.2,368.16c-7.16-1.67-8.86-.9-12.36,5.56a14.39,14.39,0,0,1-.83-1.91c-1.31-4.76-2.21-9.56-1.13-14.5A14.3,14.3,0,0,1,386,354c1.16-2.31,2.75-2.69,4.89-1.34a5.2,5.2,0,0,1,.65.48c4.39,4,6.35,9.26,7.68,15"/>
    <path class="cls-1" d="M202.86,319.17c-.12,2.68-.38,4.84-2.76,5.93a3.28,3.28,0,0,1-3.13.12,18.86,18.86,0,0,1-2.13-1.15c-4-2.93-6.48-9.09-5.4-13.44,1-3.84,3.56-5,6.93-2.92,4.37,2.71,6.17,6.93,6.49,11.46"/>
    <path class="cls-1" d="M287.17,491.88c-7.89,5.84-7.13,12.47-1.75,18.12-.82-.14-1.36-.19-1.89-.33a23.24,23.24,0,0,1-9.48-4.57,18.93,18.93,0,0,1-4.14-5c-1.27-2.2-.7-4.26,1.34-5.78a14.37,14.37,0,0,1,4.33-2.19,22.11,22.11,0,0,1,11.59-.3"/>
    <path class="cls-1" d="M420.06,274.59c-.33-1.26-.54-2.19-.81-3.11a10.87,10.87,0,0,0-4.77-6.71c-2.94-1.72-5.87-1.44-8.74.28a15.21,15.21,0,0,0-5.54,6.2c-.46.87-.86,1.76-1.34,2.74-.19-.23-.38-.35-.36-.45A24.34,24.34,0,0,1,405.43,258c5.25-5.25,11.08-4,13.92,2.9a21.9,21.9,0,0,1,.71,13.71"/>
    <path class="cls-1" d="M264.81,441.54c-10.24,5.52-11.53,9.41-5.91,18.63-5.51-2.46-10-5.35-12.36-10.62-1.62-3.63-.35-6.6,3.32-8.26s7.6-1.42,11.48-.71c1.12.2,2.2.6,3.47,1"/>
    <path class="cls-1" d="M414.41,276.25c0,4.39-1.07,7.8-3.4,10.75-1.08,1.37-2.41,2.69-4.3,2.34-2.06-.38-2.79-2.23-3.18-4a16.05,16.05,0,0,1,2.92-13.61c1.08-1.45,2.47-2.88,4.51-2.42s2.64,2.33,3.08,4.12a20.57,20.57,0,0,1,.37,2.84"/>
    <path class="cls-1" d="M272,459.73c-3.51-.36-6.55-1.38-9-3.8-3.13-3.13-2.31-6.74,1.88-8.22a11.74,11.74,0,0,1,11.73,2.1c1.85,1.47,3.07,3.62,1.92,6.2a4,4,0,0,1-1.51,2,43.36,43.36,0,0,1-5.05,1.69"/>
    <path class="cls-1" d="M492.69,284.7c-4.43-.08-6.88-3.7-5.31-7.86s6.66-7,10.68-5.78a5.15,5.15,0,0,1,3.76,6.5,9.62,9.62,0,0,1-9.13,7.14"/>
    <path class="cls-1" d="M296.18,508a10,10,0,0,1-7.66-2.87c-2.72-2.69-2.23-6,1.08-7.9a10.69,10.69,0,0,1,13.25,2.62c1.64,2.08,1.57,3.79-.26,5.77a8.43,8.43,0,0,1-6.41,2.38"/>
    <path class="cls-1" d="M615.12,512.84a24.91,24.91,0,0,1-3.48-.72c-2.76-.92-3.5-3.49-1.7-5.82a12,12,0,0,1,6.87-4.07,13.15,13.15,0,0,1,8.27.2c3.38,1.34,3.94,3.65,1.43,6.23-3,3-6.8,3.95-11.39,4.18"/>
    <path class="cls-1" d="M567.7,557.49c4.93-1.58,9.88-2.07,14.85-.42,5.13,1.7,5.91,5,2.08,8.9-2.93,3-6.56,4.68-11,6,1.79-3.14,2.83-5.93,1.32-9s-4.2-4.34-7.2-5.55"/>
    <path class="cls-1" d="M444.39,276.06c.2-3.78,4.07-8.09,8.26-9.2a14.68,14.68,0,0,1,1.61-.29c3.62-.49,6,2.12,5.11,5.66a11.72,11.72,0,0,1-10,8.47c-3,.18-5.2-1.39-5-4.64"/>
    <path class="cls-1" d="M346.74,420.33c-8.65-1.92-10.7-.85-14,7.1-2.25-4.18-3.74-8.4-3.41-13.07.28-4,2.6-5.5,6.32-4.05,4.76,1.85,7.92,5.54,11.09,10"/>
    <path class="cls-1" d="M530,300.44c0-4.49,4.28-9.53,8.63-10.24,3.23-.53,5,1,4.94,4.3-.1,4.57-4.5,9.57-9,10.26-2.72.41-4.59-1.36-4.56-4.32"/>
    <path class="cls-1" d="M579.33,504.13c-1-8.73-5.53-11.73-15.16-10.5a12.44,12.44,0,0,1,1.2-1.49,19.18,19.18,0,0,1,10-5.14c4.82-.71,8.21,2.06,8.09,6.71-.11,3.78-1.6,7-4.14,10.42"/>
    <path class="cls-1" d="M368,294.79c.05,3.6-.59,5.92-2.29,7.84-2.12,2.39-4.7,2.27-6.69-.23-2.66-3.33-2.44-9.47.45-12.61,2.2-2.41,4.93-2.23,6.87.44a9.18,9.18,0,0,1,1.66,4.56"/>
    <path class="cls-1" d="M279.67,411a6.53,6.53,0,0,1-6.54,6.62,6.58,6.58,0,0,1-.08-13.16,6.58,6.58,0,0,1,6.62,6.54"/>
    <path class="cls-1" d="M664.18,525a6.34,6.34,0,0,1-6.14,6.32,6.6,6.6,0,0,1-6.66-6.45,6.4,6.4,0,1,1,12.8.13"/>
    <path class="cls-1" d="M351.11,435.77c0,3.87-1.09,4.78-3.9,4-4.39-1.26-6.8-4.55-8.12-8.71a9,9,0,0,1-.34-3.72c.23-1.78,1.22-2.44,3-2.31a5.41,5.41,0,0,1,2.07.53c4.52,2.37,6.9,6.16,7.26,10.24"/>
    <path class="cls-1" d="M564.69,510.74c-3.92-.11-5.83-3.12-4.26-6.75a9.24,9.24,0,0,1,8.49-5.29c3.77.23,5.62,3.2,4.17,6.69a8.87,8.87,0,0,1-8.4,5.35"/>
    <path class="cls-1" d="M473.24,368.23a12.13,12.13,0,0,1-6.92,9.55c-3,1.45-5.12.08-5-3.24A11.89,11.89,0,0,1,468,364.05c3.19-1.71,5.28-.25,5.22,4.18"/>
    <path class="cls-1" d="M360.41,393.73a7.3,7.3,0,0,1,0-.81c.3-2.94,1.88-3.79,4.43-2.39,3.62,2,6.84,8.2,6.32,12.23-.38,3-2.21,4-4.71,2.25-3.93-2.69-5.71-6.62-6-11.28"/>
    <path class="cls-1" d="M334,537.94c-3.36-.2-5.88-.85-7.92-2.72-2.45-2.24-2.12-4.56.82-6a11.38,11.38,0,0,1,11.71,1.8c2.34,2.27,2,4.67-1.08,6a21.94,21.94,0,0,1-3.53,1"/>
    <path class="cls-1" d="M559.68,571.74c-.85-.08-1.84-.21-2.83-.28a3.42,3.42,0,0,1-3.07-2.63c-.49-1.35.35-2.24,1.21-3.05,2.91-2.77,9.48-3.78,13-2,2.46,1.22,2.81,3,.8,4.89-2.51,2.34-5.64,3.07-9.12,3.11"/>
    <path class="cls-1" d="M354.76,392.41a24.06,24.06,0,0,1-2.67-10.64,10.13,10.13,0,0,1,.34-2.69c.65-2.33,1.89-3.06,4.29-2.59a7.06,7.06,0,0,1,1.79.63c3.39,1.75,5.9,4.43,8.37,7.93-3-.73-5.55-1.24-7.95.25s-3.42,3.89-4.17,7.11"/>
    <path class="cls-1" d="M433,364.87a16.49,16.49,0,0,1-2.7,9.25,12,12,0,0,1-2.37,2.61c-1.57,1.26-2.59,1-3.32-.91a8.28,8.28,0,0,1-.5-2.38A16,16,0,0,1,427.19,363a8.75,8.75,0,0,1,1.68-1.76c1.85-1.45,3.12-1,3.77,1.25a14.09,14.09,0,0,1,.35,2.43"/>
    <path class="cls-1" d="M665.53,601.77a15.09,15.09,0,0,1-2.6-.8,3.27,3.27,0,0,1-1.68-4.13c1.1-3.83,6.4-6.51,10.16-5.13a3.52,3.52,0,0,1,2.13,5.25c-1.56,3.19-4.39,4.41-8,4.81"/>
    <path class="cls-1" d="M602.81,638.78c-3.56-.39-6.7-.91-9.23-3.1-2-1.73-1.85-3.09.63-3.93a13.19,13.19,0,0,1,13,2.29c2,1.59,1.63,3.06-.83,3.93a27,27,0,0,1-3.61.81"/>
    <path class="cls-1" d="M323.69,540.74a14.47,14.47,0,0,1-8.9-3.81c-3.35-3.23-3.19-6.86.44-9.78a14.93,14.93,0,0,1,8.7-3c-2.66,2.12-5,4.45-5,8.09s2.14,6.21,4.72,8.53"/>
    <path class="cls-1" d="M560.53,599.6a9.33,9.33,0,0,1-7-3c-2.2-2.44-1.51-4.9,1.62-5.76,3.5-1,6.49.16,8.92,2.65s1.54,5.26-1.89,6a14.27,14.27,0,0,1-1.64.15"/>
    <path class="cls-1" d="M335.33,461.39c-7-1.14-9.84,1.37-11.12,9.95-2.36-4.06-3.5-7.89-2-12.1a4.56,4.56,0,0,1,5.73-2.92,12.93,12.93,0,0,1,7.37,5.07"/>
    <path class="cls-1" d="M569.83,320.7A7.45,7.45,0,0,1,572.1,322c.86,1,.16,2.12-.4,3a9.38,9.38,0,0,1-7.13,4.41,3,3,0,0,1-3.14-1.16c-.71-1.1-.11-2.14.45-3,1.69-2.71,4.24-4.08,8-4.51"/>
    <path class="cls-1" d="M392.08,377a16.92,16.92,0,0,1,1.05-3.14c.62-1.22,1.55-1.34,2.73-.66,3.22,1.83,4.37,7.64,2.1,10.59-1.29,1.67-2.28,1.68-3.67,0s-2-4-2.21-6.77"/>
    <path class="cls-1" d="M337.77,474.24a8,8,0,0,1-.46,1.73,1.86,1.86,0,0,1-2.43,1.11c-3.1-.89-5.64-5.72-4.58-8.81a2.11,2.11,0,0,1,3.17-1.42c2.34,1,4.3,4.17,4.3,7.39"/>
  </g>
</svg>
