<svg id="Livello_1" data-name="Livello 1" xmlns="http://www.w3.org/2000/svg" viewBox="0 0 841.89 841.89">
  <defs>
    <style>
      .cls-1 {
        fill: #231f20;
      }
    </style>
  </defs>
  <title>Glos</title>
  <g>
    <path class="cls-1" d="M547.11,221.32c.06,12.42.52,11.67,12.07,12.67,5.51.47,11,.8,16.53,1a4.11,4.11,0,0,0,3.93-2.73c.52-1.16,10-49.84,9.94-52.38a5.15,5.15,0,0,0-3.81-4.59c-1.64-.45-32.9-3.76-35.45-3.76s-4.58,2.38-4.67,5.09c0,.85,1.42,37.84,1.46,44.65"/>
    <path class="cls-1" d="M637.64,176.44a5.3,5.3,0,0,1-4.29,2.42c-3.84,0-15.75-.24-17.88-.15a3,3,0,0,0-2.68,2.37,17.57,17.57,0,0,0-.46,5.08q.13,8.31.44,16.65a74.34,74.34,0,0,1-1.1,16.58c-.62,3.35-4.06,41.62-5.61,57.34-1.38,14-1.77,28.09.12,42.18a117.32,117.32,0,0,1,.61,20.45c-1.18,27.8-4.66,55.29-11.61,82.27-3.84,14.91-8.66,29.46-15.94,43.11-4.62,8.66-9,17.44-13.52,26.17a67.43,67.43,0,0,0-7.2,33.44c0,1.71.17,3.41.32,5.12.49,5.51,2.63,9.86,8.36,11.64,1.87.59,2.52,2.29,2.89,3.92.52,2.42-1.54,5.46-4.08,5.48-4.62.06-21,14.71-26,19.4-2.48,2.33-4.21,2-5.93-1.27-2.38-4.56-4.85-9-8.81-12.46a11.69,11.69,0,0,0-8.2-3,4.47,4.47,0,0,0-4.4,5.07c.33,3.25,2.55,5.83,5.56,6.06,1.67.14,3.4-.4,5.05-.19a5.44,5.44,0,0,1,3.24,1.64,23.91,23.91,0,0,1,5,10.29,6.37,6.37,0,0,1-.27,3.67c-1.29,3-9.59,14.22-12.8,17.71-4.21-2.67-8.25-5.89-13.31-7.18a10.07,10.07,0,0,0-8.47,1.53c-3.72,2.39-2.06,6.19.83,4.94,7-3,12.37,0,17,5.2a4.77,4.77,0,0,1,.53,4.8c-2.34,4.06-10.09,10.82-17,2.09-7.13-9-11.07-19.17-10-30.91,1.24-13.17,2.66-26.32,3.61-39.51,1-14.42-4.3-57-2.78-58.52,24,6.32,65.88,2.37,72.51-1.23a1.62,1.62,0,0,0-.9-3c-5.41,1.12-41.55,2.6-53.87,1.66a41.65,41.65,0,0,1-23.87-10c-1.73,1.08-3.61,2-5.27,3.31-16.09,12.29-33.95,21.2-52.94,28.06-7.32,2.64-14.83,3.89-22.44,4.87-2.57.32-5.13-.22-6.89-2.47-1.45-1.86-.66-5.75,1.55-8.2,3.85-4.24,8.65-6.72,14.12-8.33a194.18,194.18,0,0,0,40.91-17.91,3.31,3.31,0,0,0,1.95-2.78c-2.87-.88-5.75-.14-8.61.17-5.7.63-11.05,0-15.86-3.49a38,38,0,0,0-4.47-2.47c-6.52-3.47-13.34-5.66-20.85-5-.85.07-1.71.07-2.56.07-7.2-.07-10.24-2.42-11.66-9.13a36.59,36.59,0,0,1-1.05-11.43c.4-4,2.39-5.36,6-3.84,2.75,1.15,5.43,2.51,8.2,3.59,6,2.34,12,4.41,18.66,3.37a6.62,6.62,0,0,1,3.74.46c1,.49,2.28,1.61,2.42,2.59.48,3.36.45,6.79.74,10.18a8.46,8.46,0,0,0,4,6.27,7.14,7.14,0,0,0,10-2.18,26.32,26.32,0,0,0,3.81-10.77c.24-2.51.45-5,.64-7.3,2.94-2.9,27-8.48,29.31-9.55,7.51-3.5,12.1-9.27,13.06-17.65,1.11-9.76,2.1-19.53,3.24-29.29q1.26-10.8,2.76-21.59a8.05,8.05,0,0,1,1.31-3.52c2.7-3.78,4.34-8.22,8-11.44,2.5-2.18,4-5.48,6.09-8.15,3.58-4.53,3.29-9.51,1.83-14.6a11.94,11.94,0,0,0-2.18-4.6c-4-4.5-3.12-9.54-1.88-14.58,1.84-7.45,3.7-14.91,5.86-22.27,5.22-17.72,8.62-35.69,8-54.25-.41-11.78,2.85-22.82,6.69-33.71a31.52,31.52,0,0,0,1.2-16.37,4.5,4.5,0,0,0-3.36-3.52c-1.63-.45-12.69-1.32-16.51-1.64s-5.9-2.75-6.42-6.77a13.79,13.79,0,0,1,2.73-10.11c2.2-.15,18.33-.22,23.88-.16a4.74,4.74,0,0,0,4.49-3.82c1.82-10.07,3.91-20.09,3.9-30.43,0-7.25.54-14.51,1-21.75a13.15,13.15,0,0,1,1.58-4.74,2.81,2.81,0,0,1,2.13-.94c.76,0,2,.31,2.21.82.8,1.95,1.14,4.09,1.92,6,.19.49,1.34.61,2.14.94.55-2,1-4.11,1.69-6.08.46-1.32,1.71-1.71,3.08-1.67a3.18,3.18,0,0,1,3,1.83,6.52,6.52,0,0,1,.66,2.44c.54,13.7,0,27.31-3.41,40.69-.85,3.3-1.21,6.73-2,10-1,4,1.51,6.08,4.23,6.35,8.08.79,29.34,2.61,31.9,2.62,3,0,5.07-1.56,5.69-4.17,3.42-14.57,6.31-29.19,5.72-44.3a90.4,90.4,0,0,1,.58-11.5A8.53,8.53,0,0,1,602.35,90a3.4,3.4,0,0,1,2-1.22,2.81,2.81,0,0,1,2.87,2c.33,2,.55,4.07,1,7.92,1.18-3.59,1.77-5.45,2.41-7.29.4-1.17,2.15-1.91,3-1.26.63.46,1.42,1.09,1.56,1.76a23.33,23.33,0,0,1,.51,5.07c-.08,6.84-.16,13.67-.43,20.5a54.05,54.05,0,0,1-1.13,10.17c-2,8.41-1.74,17-2,25.49-.1,3.45,1.68,5.16,5.62,5.42,6.84.46,13.61,1.07,19.85,3.64,3.88,4.93,3.31,9.63-.1,14.25"/>
    <path class="cls-1" d="M240.14,326c.24,4.48,5.79,150,6.22,161.07.07,2.06.15,6.53,2.32,6.63,2.58.12,2.68-4.11,2.63-5.77-.2-9-4.68-136.58-5.32-156.23-.06-1.64,0-5.09,1.8-5.27,2.25-.23,2.71,4,2.81,4.76.31,2.11,12.88,145.4,13.68,153,.44,4.22,1.85,12.77,3.52,12.95,2.58.29,2.2-3.59,2.1-4.83-1.56-20-10.5-133.21-11.93-153.21,0-.38.25-1,.53-1.11.72-.24,1.73-.59,2.26-.28a25.68,25.68,0,0,1,4,3.14,256,256,0,0,0,23.84,19.39c11.45,8.25,23.36,15.74,36.35,21.36a9,9,0,0,1,5.65,6.36c6.34,18.56-1.31,65.35-1.64,67.44-.61,3.95-1.25,3.67-2.91.32s-28.37-53.06-39.8-74.54c-1.17-2.2-3.88-7.39-5.54-6.43-1.81,1.06-.54,5.24.22,6.7,5.11,9.85,43.14,81.48,56.91,107.51a202.86,202.86,0,0,1,13.43,33.18c2.34,7.31,4.26,14.76,6.21,22.18a23.59,23.59,0,0,1,.72,6.32,10.82,10.82,0,0,1-5.28,9.65,64.13,64.13,0,0,1-24,8.3,205.68,205.68,0,0,0-27.52,5.66,26.37,26.37,0,0,1-12.64.55c-8.38-1.57-16.8-3-25.22-4.25-9.7-1.5-19.4-2.93-29.14-4.17a24.63,24.63,0,0,1-8.53-2.47c-14.71-7.7-22.52-19.45-24.3-36.38-1.67-15.8,20.31-193.12,22.38-201.84.32-1.37,2.59-2.73,4-2.42,3.73.78,7.45,1.64,12.17,2.69"/>
    <path class="cls-1" d="M373,248.67c.56,2.38-1.31,4.9-1.95,7.38a75.57,75.57,0,0,0,0,39.21c.12.43-.69,1.22-1.2,1.68-.21.19-.87.07-1.21-.12-1.09-.64-2.16-1.35-3.19-2.09q-20.76-15-40-32a42,42,0,0,0-6.21-4.33c-.44-.26-1.73.26-2.16.79a2.21,2.21,0,0,0,.09,2.14,53,53,0,0,0,5.35,5.45c13,11.07,25.9,22.29,40.3,31.58a19.45,19.45,0,0,1,3.78,3.36,2.33,2.33,0,0,1,.28,2.19,15.4,15.4,0,0,1-2.88,2.5c-3.65,2.86-5.12,6.7-5.16,11.21,0,.85-1.65,32.94,3.64,42.11-3.69,3.22-8.32,4.68-12.82,5.54-7.72-1.25-14.35-5.14-20.65-9.56-19.09-13.42-35.37-29.53-46.75-50.16-.83-1.51-2.65-4.58-4.45-3.52s-1,3.64-.39,4.64c2.74,4.82,5.3,9.8,8.63,14.2,14.6,19.27,35.56,37.59,57.5,48.48,1.12.55-6.35,6.8-10.17,8.53a5.46,5.46,0,0,1-3.7,0,86.22,86.22,0,0,1-17.29-8.24c-22.43-13.51-39.15-33.57-60.61-48.87-3.25-2.32-19-1.51-22.6-3a13.69,13.69,0,0,1-7.37-6.76c-5.63-11.59-7-23.68-3.4-36.1,1.61-5.52,4.9-10.31,10.68-11.94,9.56-2.7,16-9.05,22.27-16.26,13-15,68.41-65.92,95.76-42.22,9,7.8,25.33,41.9,25.87,44.15"/>
    <path class="cls-1" d="M233.66,625.82c0-1.71.13-3.43,0-5.12-1-10.68,2.48-20.19,7.92-29.09a56.92,56.92,0,0,1,12.52-14.45,8.44,8.44,0,0,1,7.11-2.14q13.77,2.65,27.54,5.35c1,.19,1.93,2.1,1.63,3.13a37.82,37.82,0,0,1-1.13,3.66c-8,19.29-15,39-21.26,58.9-2.92,9.35-6.54,18.48-10.08,27.62A127.62,127.62,0,0,0,252,693.23,20.7,20.7,0,0,0,254,708.11c3.14,5.57,6.33,11.11,9.48,16.67,2.18,3.84,5.5,6.43,9.22,8.64a143.69,143.69,0,0,0,21.93,10.31,10.85,10.85,0,0,1,3,2.19c1.11,1,.74,3.73-.43,4.58a14.49,14.49,0,0,1-11,2.43,150.94,150.94,0,0,1-17.55-3.37c-11.08-3-22.18-6.09-32.38-11.64a21.8,21.8,0,0,0-9.78-2.68c-4.25-.18-8.52-.33-12.77-.67a30.67,30.67,0,0,1-6.22-1.13c-2.73-.78-4.89-4.53-4.14-7.11a63.29,63.29,0,0,1,2.93-8.44c4-8.94,7.94-17.94,12.43-26.65,7.31-14.22,11.21-29.47,14-45,1.2-6.67,1-13.58,1.49-20.38l-.62,0"/>
    <path class="cls-1" d="M358.13,565.85c2,3.38,1.86,7.22,2,11,.74,16.64,1.12,33.31,2.28,49.92,1,13.62,2.52,27.23,4.43,40.75a127.7,127.7,0,0,0,5.19,21.1c3.55,11,10.45,19.55,21.2,24.4a81.77,81.77,0,0,1,18.49,11.3,19.77,19.77,0,0,0,10.55,4.24c3.81.45,7.57,1.34,11.35,2.05,1.13.22,2.34,1.67,2.11,2.74s-.47,2.71-1.28,3.44a18.16,18.16,0,0,1-5.33,3.37A37.12,37.12,0,0,1,415.41,743c-8.54,0-17.09,0-25.62-.07-9-.1-17.92-.68-26.73,1.85-3.72,1.08-6.65-1-8.84-3.82a11.72,11.72,0,0,1-2.6-7.11c0-3.84,0-7.68.06-11.53A92.58,92.58,0,0,0,341,676.67c-2-3.78-4-7.56-6.18-11.21a96.75,96.75,0,0,1-8.12-17.38,57.16,57.16,0,0,1-3.86-18.73c-.07-5.11-.87-10.22-1-15.34-.1-3.81.34-7.64.61-11.46a2,2,0,0,1,2.85-1.48c1.15.52,2.2,1.25,3.34,1.79.86.41,1.59,0,2-1a1.84,1.84,0,0,0,.1-1.23,32.12,32.12,0,0,0-2.42-4.38c-4-5.57-8-11.06-12-16.6-.62-.85.14-2.75,1.15-3.17.79-.32,1.54-.74,2.35-1a18.76,18.76,0,0,1,3.72-.93,96,96,0,0,0,28.33-7.51c1.93-.81,3.88-1.84,6.25-1.22"/>
    <path class="cls-1" d="M561.44,727.62c-1.46,0-28.87,0-56.86,0s-55.42,0-56.87,0c-1.85,0-40.24-38.14-33.4-52.25,1.65-3.4,26.18,15.35,90.27,15.32s88.61-18.72,90.26-15.32c6.84,14.11-31.55,52.21-33.4,52.25"/>
    <path class="cls-1" d="M504.93,327.63a4.78,4.78,0,0,0-2.26,2.74c-.76,1.7-1.47,1.95-2.5,1.05a10.27,10.27,0,0,1-1.34-1.65,12.76,12.76,0,0,0-.61,3.4c.09,1.49,1.8,3.08.11,4.39-.79.62-2.14.51-3.29.67-.14,1.18-.31,2.35-.4,3.55-.43,5-2.73,7.13-7.25,6.48a17.2,17.2,0,0,1-6.05-1.77c-14.68-8.48-50.92-6.31-69.86.58-11.35,4.13-33.3-5.49-34.68-5.82a2.28,2.28,0,0,0-2.12,1,2.42,2.42,0,0,0,.34,2.29c1.68,1.26,14.2,6.17,18.57,7.57-1.12,8.4-11.84,10.74-20.77,8.29-6.69-1.84-8.5-8.55-8.55-13.07-.13-9.8-.35-19.6-.28-29.4a10.86,10.86,0,0,1,13.18-10.32c7.6,1.63,108.48,2.48,113.6,2.47,9.51,0,14.49,4.83,16.73,12.79.51,1.82-.09,3.5-2.57,4.79"/>
    <path class="cls-1" d="M388.36,203.38c-1.65-.75-1.59-3-1-4.7a60.43,60.43,0,0,1,7.25-14.92c6.05-8.88,13.78-15,25.12-15.35,2.31-.07,3.37-2.91,2-4.78-.74-1-15.32-18.9-15.63-20.08-.16-.62-.29-2.06.91-2.12C477.59,138.31,478.74,174,473,196a68.59,68.59,0,0,1-9.16,19.66c-1.24,1.93-3.7,1.95-5.25,0-1.06-1.33-2-2.74-3.1-4.08-8.51-10.69-20.15-15.5-33.26-17-6.78-.77-13.61-.46-20.21,2.08-2.82,1.1-11.51,7.63-13.62,6.67"/>
    <path class="cls-1" d="M352.69,372.74c1-2.06,19.28-6.6,30.21-5.39,2.39,2.4,22.78,44,39.25,50.92,16,6.74,19.69,11.11,19,18.33-.81,7.81-2.17,11.91-3.15,13.26-.38.53-1.41.66-2.18.85a1.33,1.33,0,0,1-1.82-1.3c-.26-2.94-.34-5.91-.76-8.82a24.9,24.9,0,0,0-1.68-6.06,6.77,6.77,0,0,0-5.92-4.22,18,18,0,0,0-3.81-.07C411,431.72,402,426.68,392.93,422a16.09,16.09,0,0,1-4.7-4.25Q370.54,395.93,353,374c-.24-.3-.22-.81-.34-1.27"/>
    <path class="cls-1" d="M450.39,219.47a8.87,8.87,0,0,1-3,2.32c-1.08.37-2.86.52-3.55-.11-2.84-2.55-13.39-12.4-16.22-14.26-2.26-1.49-5,.12-6,2.77-2.61,6.95,6.09,16.62,12.61,14.27,3.29-1.19,3.73,1.32,3.56,1.56-2.71,3.75-6.42,6.69-8.59,10.88a2.59,2.59,0,0,1-2.21,1,5.62,5.62,0,0,0-5.58,2.06,13.3,13.3,0,0,1-3.06,2.29c-1.3.78-4.81-1.17-5.53-1.35-.88,3.2-2,6.25-4.61,8.56-2.06,1.83-6.55,2.24-8.29.17-8.65-10.25-7.67-27.74-6.84-38,.27-3.21,5-9.87,14-11.15,15-2.12,28.86.43,40.8,10.39a25.63,25.63,0,0,1,2.57,2.83,4.33,4.33,0,0,1-.13,5.8"/>
    <path class="cls-1" d="M412.94,162.25c-7.83,3.11-25.24,19.57-25.56,19-4.31-7.32-9.42-15.93-15.27-22.13a16.79,16.79,0,0,1-1.45-2.08,5.3,5.3,0,0,1,.32-5.92,8.68,8.68,0,0,1,.82-1c7-5.54,12.8-12.33,18.92-18.77a3.08,3.08,0,0,1,2.36-.6c.6.09,1.62,1,1.54,1.3-.19.76-1,1.32-1.4,2.07-1,2-1.29,4.15.16,6,2.37,3,15.71,17.13,19.56,22.11"/>
    <path class="cls-1" d="M346.16,180.72c.21-4.13,1.74-7.81,5.8-9,5.22-1.57,8.79-4.9,12.13-8.84a3.1,3.1,0,0,1,4.52.16,43.41,43.41,0,0,1,3.44,3.75,76,76,0,0,1,11.48,22.65c2.32,7.21-4.11,13.82-11.61,12a68.85,68.85,0,0,1-19.77-8.67c-3.87-2.37-6-7.07-6-12"/>
    <path class="cls-1" d="M561.69,737a3.59,3.59,0,0,1-2.9,3.48H450.36a3.58,3.58,0,0,1-2.9-3.48c-.18-2.47,1.46-3.58,2.34-3.67H559.35c.88.09,2.52,1.2,2.34,3.67"/>
    <path class="cls-1" d="M356,210.63a60.27,60.27,0,0,1-2.72-5.67c-.44-1,.85-2.84,1.85-2.71,1.67.2,3.46.15,4.95.79,5.12,2.23,10.48,3.86,16,3.4,4.75-.39,8.19,1.16,11.55,4.85.43,8.45.89,17.29,1.33,25.69-2.77,3.75-9.54,7.32-13.57,5.4C374,241.67,361,219,356,210.63"/>
  </g>
</svg>
