<svg id="Livello_1" data-name="Livello 1" xmlns="http://www.w3.org/2000/svg" viewBox="0 0 841.89 841.89">
  <defs>
    <style>
      .cls-1 {
        fill: #231f20;
      }
    </style>
  </defs>
  <title>Glos</title>
  <g>
    <path class="cls-1" d="M811.73,342.72c-3.84-63.4-70.64-88.62-70.64-88.62-15-9.06-6.43-41.91.56-54.89s.67-12.37,0-15.28c-1.54-14.81-13.8-21.46-13.8-21.46a74.51,74.51,0,0,0-1.2-10.58c-1.85-11.48-14.73-12.45-14.73-12.45-21-.4-12.45,12.12-16.54,18.39s-.36,5.62-4.53,11.29c-11.5,11.71-4.21,18-9,22.72s5,17.73,5,17.73,20.11,28.27-16,46.91-66.8,97.15-73.3,109.23S574,380,567,386.79s.56,9,3.68,9.85,1.51,2.72,1.51,2.72A33.91,33.91,0,0,0,565.72,420c.1,12.67,8.92,6.56,8.92,6.56,3.52,4.38,8.29.57,8.29.57,5.81,4.65,8.84-.54,8.84-.54s8.22,2.88,9.15-3c6.18-40,37-71.55,44.57-96.19,8.06-26,53.11-50,38.36,41.6S706,596.55,696.08,675.24c-3.87,30.69,47.66,33.57,47.49,17.9,6.76-258.66,38.1-246.79,40.31-272S814.25,364.15,811.73,342.72Zm-27,22.1s-27.83,47-36.23,4.47c-6.6-30.73-7.27-28.64-6.55-38.33.69-9.44,6.29-44.29,31.94-20.31S784.77,364.82,784.77,364.82Z"/>
    <path class="cls-1" d="M30.16,342.72C34,279.32,100.8,254.1,100.8,254.1c15-9.06,6.43-41.91-.56-54.89s-.67-12.37,0-15.28c1.54-14.81,13.8-21.46,13.8-21.46a74.51,74.51,0,0,1,1.2-10.58c1.85-11.48,14.73-12.45,14.73-12.45,21.05-.4,12.45,12.12,16.54,18.39s.36,5.62,4.53,11.29c11.5,11.71,4.21,18,9,22.72s-5,17.73-5,17.73-20.11,28.27,16,46.91,66.8,97.15,73.3,109.23,23.62,14.25,30.64,21.08-.56,9-3.68,9.85-1.51,2.72-1.51,2.72A33.91,33.91,0,0,1,276.17,420c-.1,12.67-8.93,6.56-8.93,6.56-3.51,4.38-8.28.57-8.28.57-5.81,4.65-8.84-.54-8.84-.54s-8.22,2.88-9.15-3c-6.18-40-36.95-71.55-44.57-96.19-8.06-26-53.11-50-38.36,41.6s-22.18,227.64-12.23,306.33c3.87,30.69-47.66,33.57-47.49,17.9-6.76-258.66-38.1-246.79-40.31-272S27.64,364.15,30.16,342.72Zm27,22.1s27.83,47,36.23,4.47c6.6-30.73,7.27-28.64,6.55-38.33-.69-9.44-6.29-44.29-31.94-20.31S57.12,364.82,57.12,364.82Z"/>
  </g>
</svg>
