<svg id="Livello_1" data-name="Livello 1" xmlns="http://www.w3.org/2000/svg" viewBox="0 0 841.89 841.89">
  <defs>
    <style>
      .cls-1 {
        fill: #231f20;
      }
    </style>
  </defs>
  <title>Glos</title>
  <g>
    <path class="cls-1" d="M277.19,493.68a1.89,1.89,0,0,0,1.28-.64,26.34,26.34,0,0,0,5.68-10.13c1.14-3.72,3.85-7,6-10.34a44.34,44.34,0,0,1,3.46-4.21l-8.11-5.56c2.88-.67,6.57.22,8.89-.17.29-3.65-7.58-13.19-7.69-13.79,1.62-.66,3.21-1.43,4.88-1.95,3.63-1.14,7.32-2.12,11-3.2a21,21,0,0,0,10-6.47c4.29-4.91,5.31-10.25,2.4-16.19-2.12-4.33-4.23-8.68-6.46-13-3.18-6.1-2.82-11.86.88-17.68a33.34,33.34,0,0,0,5.62-20c-.21-4.11-1.13-7.94-4.22-11-9.66-9.45-14.48-21.4-16-34.41-4.62-40.21,7.24-75.19,35.15-104.46,8.87-9.3,19.65-15.83,32.77-18,10.66-1.73,19.87,1.09,28.1,7.74,5.92,4.79,9.84,11.1,13.45,18.79,7-8.46,12.43-17,12.18-27.81-.23-9.88-8.24-17-19.6-18.78s-22.08.31-32.58,4c-18,6.28-33.61,16.3-46,31-.77.91-1.58,1.78-2.51,2.82-7.19-2.35-11.76-8.23-18.16-13-2.72,7.46-5.23,14.36-7.94,21.82l-9.1-2.43c-3.8,11.91.86,24.11-1.74,36.86-8.82-7.66-19.44-7.95-29.19-10.82l.16-.14c0,3.22.18,6.45,0,9.65-.43,6.11,0,12.06,2.32,17.8a11.78,11.78,0,0,1,.4,2.49l-9.58-4c1,15.21,2.81,29.16,12.71,40.65a97.64,97.64,0,0,1,7.5,10,15.2,15.2,0,0,1,2.25,5.2c.35,1.94.1,4.84-1.14,6-2.06,2-5.07,1.12-7.12-.75a21.68,21.68,0,0,1-3.86-5.29c-1.19-2.06-2.06-4.31-3.32-7-3.38.68-6.73,1.09-9.92,2.06-4.19,1.27-7.46.66-11.11-2.13-6.51-5-13.61-9.14-20.68-13.79-.76,1.37-1.4,2-1.47,2.73a38.46,38.46,0,0,1-5.9,17c-1.84,2.91-1.68,5.36.26,8.29,2.74,4.14,4.93,8.64,7.75,13.71-5.53.36-8.15-4.21-12.76-4.51a15.79,15.79,0,0,0-.43,2.85c.19,6,.48,12.06.65,18.1a5.23,5.23,0,0,0,2.59,4.93,18.64,18.64,0,0,1,7.85,11.09c.64,2.3.79,4.85-1.3,5.95a6.43,6.43,0,0,1-5.54-.47,52.16,52.16,0,0,1-8.05-7.12c-1.35-1.38-2.24-3.21-3.81-5.54l-5.92,14.27c-7.54-9.5-17-11.71-27.65-11.41-2,6.22.92,11.09,4.18,16.69-6-1.13-10.52-3.5-13.65-7.71-1.89-2.56-4.05-3.48-6.89-4.15a51.86,51.86,0,0,1-9.61-3.35c-2.64-1.2-5.13-2.76-7.84-.66-2.55,2-1.73,4.66-1,7.22.09.31,0,.68,0,.52-8.44,0-16.8-.23-25.16-.06-4.18.08-6.08,2.63-5.58,6.86a19,19,0,0,0,1.36,4.6c.49,1.27,1.24,2.44,2.15,4.19-6.24-1.44-12-3.25-17.84-3.95a42.58,42.58,0,0,0-13.69.7c-4.11.89-7.79,3.25-8.14,8.48L58.87,416c-10.13.16-18,3.6-23.24,12.44,5.19,4.32,10.13,8.63,15.3,12.65A9.52,9.52,0,0,0,60,442.76c2.25-.72,4.6-1.1,7.57-1.78-.34,3.6-1.27,7,2.54,8.77,4,1.85,8.16,2.27,12.24.43,2-.89,3.68-2.43,5.55-3.61,7.19-4.51,14.73-4,22.55-2-2.32,3.62-4.8,6.56-6.27,9.95-2.91,6.73-1.45,9.7,5.73,11.37,4.46,1,9.23.79,13.82,1.14q7.58.58,15.17.57c3.7,0,7.64.07,11-1.13,8.79-3.13,16.54-2,23.72,3.82A15.46,15.46,0,0,0,184.84,474c3-.21,5.69.71,6.86,3.77s.17,5.6-2,7.68c-1.91,1.78-4.08,3.28-6,5a69.33,69.33,0,0,0-6.85,6.75,13.2,13.2,0,0,0-2,4.94c-.6,2.19,1.35,2.94,2.55,4.25,2.83,3.11.71,7.83-4.09,9.06-1.65.42-3.49.06-5.52.06-1.71,10,4.45,16.27,9.65,23.83,1.49-2.08,2.44-3.55,3.53-4.89,3.16-3.91,6.28-7.85,9.63-11.59a18,18,0,0,1,4.82-3.59c7.63-4.2,14.73-.45,15.66,8.26a57.33,57.33,0,0,1,0,6,24,24,0,0,1,3.54,3.11c2,2.51,1.71,5.11-1.19,6.58-6.5,3.31-7.58,8.77-7,15.78,1.66-.64,3-1.18,4.43-1.69,4-1.43,7.84-3.19,11.91-4.13a16.22,16.22,0,0,1,7.56.49c4.77,1.31,4.85,1.37,7.83-2.83a18.39,18.39,0,0,1,4.52-4.66c2.14-1.45,4.81-1.56,6.55.67s1.38,4.58-.36,6.68c-1.15,1.4-2.52,2.62-3.67,4-3.88,4.64-4,8.7-.42,14.54l6.18-1.46c-.06,3.87-2.76,5.13-4.83,6.86-1.84,1.53-4,2.84-5.37,4.75-2.27,3.23-3.09,6.89-.69,10.75l15-1.41c-.53,1.59-.69,3-1.37,4-2.47,3.67-5,7.29-7.75,10.77-.95,1.22-2.42,2.71-3.75,2.82-5.7.47-6.44,4.62-7.2,8.88a12.74,12.74,0,0,0,2.36,10l4.84-2c.53.71,1.15,1.15,1.17,1.62.11,2.6.05,5.22.09,7.82.06,2.91.43,5.74,3.38,7.24s4.94-.15,7.16-1.68,4.4-2.55,6.66-3.84c8.15,23.73,38.71,27.14,53.87,18.44a32,32,0,0,0,8.47-6.64c8.22-9.67,4.62-24-7.43-29.79-.46,2.35-.78,4.68-1.39,6.93-2.18,8-7.93,12-16.12,11.47-11.57-.77-19.81-11.12-18.59-23.14,1.3-13,5.22-25.17,9.85-37.22,1.88-4.88,3.68-9.8,5.74-14.61,6.39-14.92,5.84-29.82-.13-44.63-3.45-8.55-11.93-12.85-15.57-21.27-7,1.82-14.39,2.45-25.23-2.1l.52-2.93a3.79,3.79,0,0,1,5.1-2.87C265.43,491.1,270.87,494.18,277.19,493.68ZM60.11,428.1c27.62-13.27,84.18-17.09,117.78,7.26a102.62,102.62,0,0,1-11.46-2.86,162.28,162.28,0,0,0-64.13-7.19C95.69,425.88,67.12,427.68,60.11,428.1Zm207.16-24c2,.14,3.58.21,5.17.37a28.21,28.21,0,0,1,4.78.66c3.74,1,4.52,4.09,1.67,6.72a8.43,8.43,0,0,1-3.68,1.84,15.06,15.06,0,0,1-11.14-1.16,11.6,11.6,0,0,0-6.9-1.18c-5.35.37-10.77.6-15.82-2.38,9.43.32,17.5-3.77,25.92-8ZM243.1,372.27l-25.74-42C229.71,341.59,243.1,355.63,243.1,372.27Zm20.58-104.35c6.53,6.52,10.24,14.63,12.69,23.45,2.73,9.87,5.68,19.68,8.53,29.52.33,1.15.62,2.31.93,3.46C272.24,314.79,271.26,279.74,263.68,267.92Zm-25.26,254c-3.37,12.24-12.07,23-18.79,23.75Zm-21.55-46c-1,11.73-9,28.24-22.63,28.24C205.07,496.86,211.43,487.56,216.87,475.87Zm78.62-77c-7.37-2.31-14.67-1.48-22,.09C283.43,392.13,291,392.05,295.49,398.84Z"/>
    <path class="cls-1" d="M564.7,493.68a1.89,1.89,0,0,1-1.28-.64,26.34,26.34,0,0,1-5.68-10.13c-1.14-3.72-3.85-7-6-10.34a44.34,44.34,0,0,0-3.46-4.21l8.11-5.56c-2.88-.67-6.57.22-8.89-.17-.29-3.65,7.58-13.19,7.69-13.79-1.62-.66-3.21-1.43-4.88-1.95-3.63-1.14-7.32-2.12-11-3.2a21,21,0,0,1-10-6.47C525.06,432.31,524,427,527,421c2.12-4.33,4.23-8.68,6.46-13,3.18-6.1,2.82-11.86-.88-17.68a33.34,33.34,0,0,1-5.62-20c.21-4.11,1.13-7.94,4.22-11,9.66-9.45,14.48-21.4,16-34.41,4.62-40.21-7.25-75.19-35.15-104.46-8.87-9.3-19.65-15.83-32.77-18-10.66-1.73-19.87,1.09-28.1,7.74-5.92,4.79-9.84,11.1-13.45,18.79-7-8.46-12.43-17-12.18-27.81.22-9.88,8.24-17,19.6-18.78s22.08.31,32.58,4c18,6.28,33.61,16.3,46,31,.77.91,1.58,1.78,2.51,2.82,7.19-2.35,11.76-8.23,18.16-13,2.72,7.46,5.23,14.36,7.94,21.82l9.1-2.43c3.8,11.91-.86,24.11,1.74,36.86,8.82-7.66,19.44-7.95,29.19-10.82l-.16-.14c0,3.22-.18,6.45,0,9.65.43,6.11,0,12.06-2.32,17.8a12.39,12.39,0,0,0-.41,2.49l9.59-4c-1,15.21-2.81,29.16-12.71,40.65a97.64,97.64,0,0,0-7.5,10,15.2,15.2,0,0,0-2.25,5.2c-.36,1.94-.1,4.84,1.14,6,2.06,2,5.07,1.12,7.12-.75a21.68,21.68,0,0,0,3.86-5.29c1.19-2.06,2.06-4.31,3.32-7,3.38.68,6.73,1.09,9.92,2.06,4.19,1.27,7.46.66,11.11-2.13,6.51-5,13.61-9.14,20.68-13.79.76,1.37,1.4,2,1.47,2.73a38.46,38.46,0,0,0,5.9,17c1.84,2.91,1.68,5.36-.26,8.29-2.74,4.14-4.93,8.64-7.75,13.71,5.53.36,8.15-4.21,12.76-4.51a15.79,15.79,0,0,1,.43,2.85c-.19,6-.48,12.06-.65,18.1a5.23,5.23,0,0,1-2.59,4.93,18.64,18.64,0,0,0-7.85,11.09c-.64,2.3-.79,4.85,1.3,5.95a6.43,6.43,0,0,0,5.54-.47,52.16,52.16,0,0,0,8.05-7.12c1.35-1.38,2.24-3.21,3.81-5.54l5.92,14.27c7.53-9.5,17-11.71,27.65-11.41,2,6.22-.92,11.09-4.19,16.69,6-1.13,10.53-3.5,13.66-7.71,1.89-2.56,4-3.48,6.89-4.15a51.86,51.86,0,0,0,9.61-3.35c2.64-1.2,5.13-2.76,7.84-.66,2.55,2,1.73,4.66,1,7.22-.09.31,0,.68,0,.52,8.44,0,16.8-.23,25.16-.06,4.18.08,6.08,2.63,5.58,6.86a19,19,0,0,1-1.36,4.6c-.49,1.27-1.24,2.44-2.15,4.19,6.24-1.44,12-3.25,17.83-3.95a42.63,42.63,0,0,1,13.7.7c4.11.89,7.79,3.25,8.14,8.48L783,416c10.13.16,18,3.6,23.24,12.44-5.19,4.32-10.13,8.63-15.3,12.65a9.52,9.52,0,0,1-9.11,1.71c-2.25-.72-4.6-1.1-7.57-1.78.34,3.6,1.27,7-2.54,8.77-4,1.85-8.16,2.27-12.24.43-2-.89-3.68-2.43-5.55-3.61-7.19-4.51-14.73-4-22.55-2,2.32,3.62,4.8,6.56,6.27,9.95,2.91,6.73,1.45,9.7-5.74,11.37-4.45,1-9.22.79-13.81,1.14q-7.57.58-15.17.57c-3.7,0-7.64.07-11-1.13-8.79-3.13-16.54-2-23.72,3.82A15.46,15.46,0,0,1,657.05,474c-3-.21-5.69.71-6.86,3.77s-.17,5.6,2,7.68c1.91,1.78,4.08,3.28,6,5a69.33,69.33,0,0,1,6.85,6.75,13.2,13.2,0,0,1,2,4.94c.6,2.19-1.35,2.94-2.55,4.25-2.83,3.11-.71,7.83,4.09,9.06,1.65.42,3.49.06,5.52.06,1.71,10-4.45,16.27-9.65,23.83-1.49-2.08-2.44-3.55-3.53-4.89-3.16-3.91-6.28-7.85-9.63-11.59a18,18,0,0,0-4.82-3.59c-7.63-4.2-14.73-.45-15.66,8.26a57.33,57.33,0,0,0,0,6,24,24,0,0,0-3.54,3.11c-2,2.51-1.71,5.11,1.19,6.58,6.5,3.31,7.58,8.77,7,15.78-1.66-.64-3-1.18-4.43-1.69-4-1.43-7.84-3.19-11.91-4.13a16.27,16.27,0,0,0-7.57.49c-4.77,1.31-4.84,1.37-7.82-2.83a18.39,18.39,0,0,0-4.52-4.66c-2.14-1.45-4.81-1.56-6.55.67s-1.38,4.58.36,6.68c1.15,1.4,2.52,2.62,3.67,4,3.88,4.64,4,8.7.42,14.54l-6.18-1.46c.06,3.87,2.76,5.13,4.83,6.86,1.84,1.53,4,2.84,5.37,4.75,2.27,3.23,3.09,6.89.69,10.75l-15-1.41c.53,1.59.69,3,1.37,4,2.47,3.67,5,7.29,7.75,10.77.95,1.22,2.42,2.71,3.75,2.82,5.7.47,6.44,4.62,7.2,8.88a12.74,12.74,0,0,1-2.36,10l-4.84-2c-.53.71-1.15,1.15-1.17,1.62-.11,2.6,0,5.22-.09,7.82-.06,2.91-.43,5.74-3.38,7.24s-4.94-.15-7.16-1.68-4.4-2.55-6.66-3.84c-8.15,23.73-38.71,27.14-53.87,18.44A32,32,0,0,1,519,649c-8.22-9.67-4.62-24,7.42-29.79.47,2.35.79,4.68,1.4,6.93,2.18,8,7.93,12,16.12,11.47,11.57-.77,19.81-11.12,18.59-23.14-1.3-13-5.22-25.17-9.85-37.22-1.88-4.88-3.68-9.8-5.74-14.61-6.39-14.92-5.84-29.82.13-44.63,3.45-8.55,11.93-12.85,15.57-21.27,7,1.82,14.39,2.45,25.23-2.1l-.52-2.93a3.79,3.79,0,0,0-5.1-2.87C576.46,491.1,571,494.18,564.7,493.68ZM781.78,428.1C754.16,414.83,697.6,411,664,435.36a102.62,102.62,0,0,0,11.46-2.86,162.28,162.28,0,0,1,64.13-7.19C746.2,425.88,774.77,427.68,781.78,428.1Zm-207.16-24c-2,.14-3.58.21-5.17.37a28.21,28.21,0,0,0-4.78.66c-3.74,1-4.52,4.09-1.67,6.72a8.43,8.43,0,0,0,3.68,1.84,15.06,15.06,0,0,0,11.14-1.16,11.6,11.6,0,0,1,6.9-1.18c5.35.37,10.77.6,15.82-2.38-9.43.32-17.5-3.77-25.92-8Zm24.17-31.83,25.74-42C612.18,341.59,598.79,355.63,598.79,372.27ZM578.21,267.92c-6.53,6.52-10.24,14.63-12.69,23.45-2.73,9.87-5.68,19.68-8.53,29.52-.33,1.15-.62,2.31-.93,3.46C569.65,314.79,570.63,279.74,578.21,267.92Zm25.26,254c3.36,12.24,12.07,23,18.79,23.75Zm21.55-46c1,11.73,9,28.24,22.63,28.24C636.82,496.86,630.46,487.56,625,475.87Zm-78.62-77c7.37-2.31,14.67-1.48,22,.09C558.46,392.13,550.86,392.05,546.4,398.84Z"/>
  </g>
</svg>
