<svg id="Livello_1" data-name="Livello 1" xmlns="http://www.w3.org/2000/svg" viewBox="0 0 841.89 841.89">
  <defs>
    <style>
      .cls-1 {
        fill: #231f20;
      }

      .cls-2 {
        fill: #fff200;
      }
    </style>
  </defs>
  <title>Glos</title>
  <g>
    <path class="cls-1" d="M569.4,772.25l.55-1.94a2.82,2.82,0,0,0-4.27-3.13c-5.42,3.66-10.74,5.65-16.45,0a4.89,4.89,0,0,1-.54-6.39c6.62-8.45,34.95-14.16,41.68-13.82,8.22.43,12.62,4.77,18.69,8a2.32,2.32,0,0,0,3.39-2.1l0-1.18a2.33,2.33,0,0,1,1.7-2.27l23.37-6.58c2.29-.64,2.47-2.26.52-3.63l-14.16-11.59c-5.14-4-6.64-5.19-9.51-8.29C601.28,705.23,583.42,679,586,664s27.6-19.11,38.87-18.72A57.86,57.86,0,0,1,650,651c8.77,4,29.9,21.86,25.84,11.57-8.21-20.78-62.48-37.74-89.59-13.76-46.87,41.46-82.05,77.48-142.18,97-12.61,4.09-26.4,4.91-35.07,8.24-2.89,1.11-3.08,6.3.49,7.06,4.56,1,19.69-2.24,24.86-3.05,15-2.32,32.05-14.5,30.25,9.08a2.8,2.8,0,0,1-1.7,2.36l-2,.84A2.84,2.84,0,0,1,457,768a12,12,0,0,0-.64-2.63c-1.19-3.24-6.16-1.52-5.32,1.83l1.25,5a2.82,2.82,0,0,1-2.82,3.51l-3.09-.09a2.83,2.83,0,0,1-2.73-2.56s1.1-9.06-1-10.69c-4.46-3.41-5.56,5.76-4.32,9.85a2.81,2.81,0,0,1-2.67,3.63l-148.82,1.59c-2,0-3.2,0-4.65-1.41L281,774.52c-1.91-3.79-.33-.65-1.58-3-13-25,14.76-28.7,39.06-29.62,8-.3,12.88,1.15,20.05,1.93,1.9.2,2.75-.53,3.12-1.74.82-2.65-1-5.36-3.61-6.29-11-3.9-23.17.3-32.64-1-14.21-1.9-33.76-20.86-49.19-27.75-33.14-14.77-38.49-10.07-55.51,18.8-1.67,2.84-5.7,4.94-7.08,8.27a19.43,19.43,0,0,0-1.16,5.87,2.83,2.83,0,0,1-5.64-.17c-.1-3.75-1.15-8.55-4.22-6.16-5,3.92,3.53,17.1,3.18,20.17-.45,3.91-7.52,7.9-8.94,0-.29-1.63-.61-15.79-3.84-16.29-7.22-1.13-3.68,21.51-3.5,23.65.31,3.55,5.12,10.16,4.12,16.38a2.83,2.83,0,0,1-2.65,2.3l-30.53,1.59a2.82,2.82,0,0,1-2.67-4.09c3.62-7.07,13.07-20.5,13.93-23.74,1-3.6-1.53-4.45-3.62-2.65-3.84,3.31-15.32,29.22-23.53,31.45a2.76,2.76,0,0,1-3.37-3c.71-8.47,7.19-14.84,11.68-21.17,4-5.58,8.54-11,12.43-16.79,7.46-11.15,18.92-18.54,26.57-29.09,22-30.33,17.3-51.83,65.4-47.77,6.63.56,39.23,6.26,43.82,9.91,6.63,5.28,13.92,27.81,16.66,16.91,4.9-19.51-11-30.26-13.55-46.89-1-6.45-6.41-14-7.39-21.38-1.69-12.82,3.32-20.71,3.67-32a6.72,6.72,0,0,1,3.75-5.87c23.64-11.36,46.64-23.1,60-46.14,5.52-9.51,13.31-22.71,11.07-24.31-3.22-2.31-2.7-.52-5,3.6-20.3,36.94-56.24,68.13-104.3,59-16.07-3-24.12-15-43.84-14.41-23.43.66-53.41,18.85-72-6.93-21.56-30,1.58-50.68,28.81-62C206.79,474.37,229.71,481,270,438.1c5-5.3,20-24,18.2-16.35-5,21.24-36.9,50.11-65.85,60.82-20.36,7.53-61.09,21.61-75.44,31.76-25.51,18.06,1.41,55.06,24.17,39.77,2.85-1.91,3.13-5.17,5.42-6.55a2.4,2.4,0,0,0-.4-4.15c-1.3-.69-4.33-3.84-1.11-5.53,2.13-1.12,8.75,3.24,9.57,1,.92-2.56-9.05-6.08-9.05-6.08a2.31,2.31,0,0,1,.18-4c2.37-1.12,4.89.05,7.34,1.43a2.32,2.32,0,0,0,3.43-2h0a2.07,2.07,0,0,0-3.34-1.81c-4.17,2.66-10.33.87-13.05-3.27-7.48-11.41,23.05.95,18.58-4.88-2.55-3.32-16.36-4.9-15.6-9.12,1.51-8.28,20,3.25,25.62,9.87,3.76,4.45,8.2,13.74,12.12,14.75,3.74,1,9.32,0,14.2,1.15,16.34,4,10.84,4.54,29.54,4.84,7.84.12,12.11,5.91,21.63,1.15,3.69-1.84,34.82-28.81,38.22-38.48,2.8-7.94,4.09-14,2.61-24-.65-4.39-3.58,2.81-4.58,6.2-1.66,5.62-1.86,8.44-4,14.24-3.29,9.09-28.66,32.8-32.62,35.3a11.26,11.26,0,0,1-4.1,1.89,2.74,2.74,0,0,1-2.62-1.17l-6.72-9.43a38.45,38.45,0,0,1-6.19-13.66l-.07-.27a2.32,2.32,0,0,1,2.09-2.85c5.12-.38,20.58-5.73,14.62-7.22-23.21-5.81-25.94.76-33.13-15a5.86,5.86,0,0,1,2.43-7.49c16-9.19,23.78-16.23,42.36-34.87,3.41-3.42,11.34-3.43,17.24-4.92,7.64-1.92,11.61-3.34,16.76-5.92a27.07,27.07,0,0,1,24.27-.17c41.63,20.91,64.51,53.54,43.08,103.64-1.8,4.21-7.46,9.93-8.23,12.63-1,3.37,1.91,6.89-.65,13-2.44,5.84-15.78,7.72-12,12,1.93,2.18,10.64-4.87,10.64-4.87a2.87,2.87,0,0,1,3.37.78c7.31,8.55,5.73,20.18,14.89,28,34,28.94,91.62-20.52,56.91-41-6.46-3.82-13.18-5.39-11-7.81,5.23-5.68,20.63-1.34,27.42,6.15,18.69,20.61-7,45.65-21.66,55.28-4.48,2.95,2,4.41,5.86,3,11.84-4.45,13.45-19.65,29.44-10.48,8.51,4.88-6.41,6.62-12.12,8.89a2.76,2.76,0,0,0-1.48,3.7c1.52,3.29,5.09,7,1.38,9.34-10.26,6.34-23.92-7.24-35.27-7.17a2.76,2.76,0,0,0-2.63,3.66c1.88,5.76,6.26,9.7,8.93,16.2a2.1,2.1,0,0,1-2.53,2.79c-6.65-2-10.77-8.79-18.9-6.41-4,1.17-5.19,3.45-7.37,3.14-9.92-1.4-20.65-26-26.72-22.81-5.53,2.86,13.92,20.65,13.92,20.65a2.7,2.7,0,0,0,.94.87l9,7.62a4.5,4.5,0,0,0,5.13.49,6.61,6.61,0,0,0,2.4-2.08c4-7.36,17,1.56,23.94,4.52a3.24,3.24,0,0,0,4.18-1.53c2.82-6.21-.65-10.62-2.63-15.49a2.81,2.81,0,0,1,3.8-3.59c10.53,4.95,20.84,11.31,31.79-1.29a3.17,3.17,0,0,0,.18-3.57l-1.32-2c-1.17-1.75-.51-3.16,1.25-3.42,16.11-2.41,18-15.21,1.8-19.24-2.42-.61-2.71-2.06-.62-3.44,12.17-8,49.67-23.52,53-24.65,73.66-25.37,142-14.43,192.89,47.14,24.24,29.34,21.17,43,31.84,74.25,2.94,8.62,5.58,16.51,9.48,24.67a2.82,2.82,0,0,1-4.59,3.18c-5.67-6.18-10.88-11.25-13.27-18.08-3.18-9.11-3.61-16.1-8.05-23.62-3.91-6.63-6.91-4.6-3.87,6.75,1.45,5.43,5.05,9,5.4,15,.6,10.1-6.1,16.55-8.86,19.87C712.37,741,702,744.22,675.78,738.49c-24-5.25-47.55-21.76-59.83-43.8-2.58-4.64-10-18.41-9.22-11.9,4.51,37.22,53.82,67.77,94.47,63.46a2.74,2.74,0,0,1,2.58,1.12c5.59,8.19,7.46,19.74.76,27.55a2.79,2.79,0,0,1-2.13.93H572.11A2.82,2.82,0,0,1,569.4,772.25Z"/>
    <path class="cls-1" d="M387.12,201.83a3.71,3.71,0,0,1,.79,5.37c-4.1,5-15.07,12.35-14.77,17.73s21-16.49,21-16.49a2,2,0,0,1,1.52-.41L406,209.58a1.12,1.12,0,0,1,.57,1.94c-7.54,6.55-15.11,13.17-22.37,20.31-3.23,3.18-5.75,9.48.2,5.91,3.4-2,37.59-36.5,52.53-16,16.8,23-19.11,66.47-46.95,73.48-6.37,1.61-15.86,3-21.65.56a5.19,5.19,0,0,1,2.17-10c26.8.61,55.85-23.11,54.71-49.57a8.05,8.05,0,0,0-10.7-7.16c-15,5.4-23.17,20.65-25.21,36.6-.83,6.53-6.47,13.11-12.9,14.52a18.45,18.45,0,0,1-4.59.5,6.25,6.25,0,0,1-5.92-5.65c-5.21-48.28-34-88.45-82.08-57.22-16,10.41-29.26,32.38-36.17,50.2-3.59,9.25-4.21,19.55-5.72,24.69a5.8,5.8,0,0,1-3.16,3.62L154,335.39a3.46,3.46,0,0,1-4.91-3c-.89-39.56,10.63-79.43,38.09-109.26,5.67-6.16,11.64-13.38,15.7-17.12,3-2.73,2.27-6.25-.83-4.63-37.79,19.74-75.31,79-93.91,129.26a3.79,3.79,0,0,1-4.41,2.38l-2.6-.6A4,4,0,0,1,98,328.07C113.3,190.58,274.35,123.14,387.12,201.83Z"/>
    <path class="cls-1" d="M295,337.52c5.44,5.24,2.46-8.21,2.71-9.68,1.78-10.16,11-22.48,22.06-23.2a3.36,3.36,0,0,1,3.49,3.38c.16,4.5,3.66,8.78,3.94,11.6.51,5.24-11.64,14.93-5.33,23.66,5.44-5.82,2.14-11.81,8.8-19,4.76-5.14,11.7-7.08,18-9.82a3.39,3.39,0,0,1,4.71,2.41c3.18,15.88.5,20.33-10.38,38.89-4.59,7.83,13.06-7.62,17.27-9.55C389.05,333,412.61,388.55,383.52,405c-2.32,1.32-4.54-.54-5-3.16a10.11,10.11,0,0,1,1.85-8.73c2.05-3,5.91-5.51,6.72-8.59.25-.95-1.92-3.54-4.79-1-2.46,2.17-5.31,12.78-8.58,9.64-1.74-1.67,0-19-1.95-23-3.21-6.42-6.07,6.32-4.79,11.46a2.87,2.87,0,0,1-5,2.57c-3.39-4.15-8.9-18.44-11.34-12.13-1.77,4.59,6.27,8.34,8.28,15.7,2.2,8.07,1.08,13.05-5.45,18.16a.52.52,0,0,1-.85-.42c.5-8,1.15-26.8-3.91-21.91-3.64,3.53,2.57,8.8,1.85,14.22-.3,2.26-5.85,10.59-5.31,7.68,3.5-19-15.92-42.11-32.15-35.39-3.66,1.51-5.26,7.3-3,5.86,11.45-7.22,31.2,11.79,31.82,26,.16,3.81-1.5,4-2.81.8-3.85-9.52-21.52-28-30.13-21.57a3.32,3.32,0,0,0,.8,5.62c5.14,2.27,12.76,3.22,15.27,4.78,5.51,3.43,14.32,13.81,11.17,20.71-4.49,9.84-29.33,19.22-43.62,19.62-2.63.08-2.65-1.72-2-4.26a15,15,0,0,1,5.6-8.73,3.38,3.38,0,0,0-1-5.93l-.14,0a2.87,2.87,0,0,1-2-2.75v-.66c.45-2.54.5-3.9,2-3.93l2.14-.26c3.78.51,13.14-.88,2.12-5.8-4.87-2.18-3.43-1.79-12.18-4.48-5.47-1.68-1.4,5.75,2.51,6.88,3.24.94.83,4.51-2.11,6.6-.95.68-2.32-.24-3-1.22,0,0-2.08-5.54-3.05-4.57-4.89,4.88,2.38,18-5.81,23.47a3.63,3.63,0,0,1-4.7-.57c-12.69-14.26-15.17-28.94-13.37-47a7.74,7.74,0,0,1,8-6.93,40,40,0,0,1,18.09,4.94c2.89,1.62,4.73-.5,3.06-3.35-2.26-3.86-5.86-5.81-11.46-6.38s-24.72,4.36-19,0c14.18-10.76,35.59-3.58,40.8,4.24,2.43,3.63.08-5.17-3.9-8.83-8.74-8-18.33-6.12-34.5-2.72a3.38,3.38,0,0,1-4.08-3.29h0a3.33,3.33,0,0,1,3.36-3.35,54.51,54.51,0,0,0,16.66-2.29c3.36-.95,12-4.57,6.84-5.56-15.32-2.93-28.12-2.66-38.27,4.86a3.41,3.41,0,0,1-5.13-1.22c-10.75-22.81,6.49-42,31.18-34.93a3.31,3.31,0,0,1,2.35,3.18c0,8.11,2.83,16.85,11.79,18.5.21-5-5.31-6.77-6.81-11.4-4.5-13.93,6.19-16,15.63-21.47a3.34,3.34,0,0,1,4.76,1.53C301.17,314.53,288,330.77,295,337.52Z"/>
    <path class="cls-1" d="M109.24,343.46c-3.53,2.66-15.6-3.71-17.26-3.82-3.36-.22,1.44,3.12,4.23,4.31,6.33,2.69,20.72,11.42,13.12,12.35-2.38.29-14.9-11.53-17.35-7.06-1.69,3.1,6,2.07,9.77,6.53a7.46,7.46,0,0,1,1.78,4.24,1.42,1.42,0,0,1-2.08,1.37c-6.08-2.86-17.15-1.34-17.15,1.26,0,5,14.15-2.7,15.36,4.82.74,4.61-1.93,3-4.91,2.84-5.72-.27-6.84-1.44-8.31,5.55a1.58,1.58,0,0,0,.82,1.71l1.6.82a1.46,1.46,0,0,0,1.92-.55l1.41-2.38a1.64,1.64,0,0,1,2.15-.63l4.06,2.05a4.68,4.68,0,0,0,4.65-.22c6-3.91,2.68-12.43,4.33-13.84,1.33-1.13,4.3.06,6.64-2,5.57-5-.74-9.4-1.09-15.17a1.51,1.51,0,0,1,2.15-1.37c10.73,4.75,10.6,17.81,6.09,27.48-2.07,4.42-8.32,8.87-9.55,13.5-5.78,21.79,26.26,53.34,36.85,69.7,11.24,17.37-10,21.66-2,27.94,4.92,3.88,5.64-6.59,10.3-10.76,5.19-4.66,27.69-13.36,32.65-14.85,7.73-2.32,15.82-1,23.43-6.35,6.21-4.39,12.74-12.65,18.3-17.17,4.08-3.31,17.46-11.58,22-12.72,3.64-.92,8.45,3.63,11.29,7.8a5.93,5.93,0,0,1-.47,7.36c-8.11,8.79-33.41,26.51-39.57,29.22-23.87,10.51-50.72,12.87-74.29,25.51-8.43,4.53-14.2,9-20.73,12.75a7,7,0,0,1-8.2-.88c-19.49-18-30.3-41.55-32.85-68.36-1.92-20.15,2.07-24.26-5.55-44.36-8.48-22.36-9.23-34.75,2.64-53.4.84-1.32,1.56-3,5.14-3C97.52,333.69,113.78,340,109.24,343.46Z"/>
    <path class="cls-1" d="M191.66,500.79l39.5-13.73c2-.83,4.08-1.07,4.89.79l2.4,4.39c1.38,2.89,1.15,4.26-.14,5.58-7.16,7.27-30.55,16.79-35.5,17.26-3.71.35-6.89-3.51-9.37-5.79C188.38,504.64,188.05,502.33,191.66,500.79Z"/>
  </g>
  <path class="cls-2" d="M427,35.35h.16l0,0Z"/>
  <path class="cls-2" d="M427.17,35.33l0,0H427Z"/>
</svg>
