<svg id="Livello_1" data-name="Livello 1" xmlns="http://www.w3.org/2000/svg" viewBox="0 0 841.89 841.89">
  <defs>
    <style>
      .cls-1 {
        fill: #231f20;
      }
    </style>
  </defs>
  <title>Glos</title>
  <path class="cls-1" d="M345.42,422.28c1.85,4.84.69,8.85-1.08,13,1.06.37,1.9.71,2.75.95a15.13,15.13,0,0,1,7.79,5.16c1.56,1.91,1.45,2.73-.28,4.47s-1.61,2.05.21,3.48c1,.76,3,1.06,3,2.54.1,3.85-6,3-9.1,3.17-4.32.27-8.67.09-13,.17a50.76,50.76,0,0,0-5.22.42c-1.65.21-2.34,1.42-2.6,2.91s.58,2.4,1.8,3.09c2.74,1.57,5.55,3.05,8.17,4.81s10.24,7.29,9.48,9c-2.42,5.34-23.11-8.53-30.8-12.28.31-6.91-4.55-10.28-8.71-14.39.73-.59,1.37-1,1.94-1.57,3.81-3.58,5.4-7.87,3.93-13s-5-8.11-10.2-9a9.7,9.7,0,0,0-5.11.74,30.64,30.64,0,0,0-7.63,4.22c-5,4.19-9.78,8.75-14.61,13.2-1.36,1.26-1.19,2.6.61,3.23a20.5,20.5,0,0,0,6.47,1.36,27.83,27.83,0,0,0,12-2.39c.53-.24,1.05-.5,1.56-.79,1.11-.63,2-1.43,1.21-2.8s-1.78-.62-2.73-.12a24.9,24.9,0,0,1-12.9,2.75c-.44,0-.87-.14-1.76-.29.75-.84,1.2-1.44,1.75-1.94,3.37-3.09,6.7-6.22,10.17-9.2a29.28,29.28,0,0,1,5.19-3.59,8.73,8.73,0,0,1,12.39,4.17,9.2,9.2,0,0,1-4.77,12.34c-4.28,1.83-4.23,1.94-.75,4.8,3.26,2.67,10.64,7.3,8.19,9.77-1.36,1.37-5-1.44-7-3-1.4-1.07-2.66-2.31-4-3.43-.8-.66-1.89-.9-2.43.08a2.68,2.68,0,0,0,.23,2.41c.84,1.1,10.46,8.23,8.84,10.65-1.44,2.13-10.12-4-12.28-6.87a5.54,5.54,0,0,0-1.32-1.6,2.23,2.23,0,0,0-1.91-.11,1.92,1.92,0,0,0-.48,1.78,10.3,10.3,0,0,0,1.66,2.66,31.64,31.64,0,0,0,10.11,8.29,20.59,20.59,0,0,0-.4,16.16c3.83,9.48,10.5,15.77,20.94,17,3.2.39,6.53-.34,9.8-.56,14-.92,27.11,1.69,38.15,11,7.88,6.63,12.12,15.25,11.95,25.58-.34,20.6-4.88,40.17-15.39,58.12-.61,1-1.93,2.29-.31,3.3s2.29-.63,2.95-1.67a94.1,94.1,0,0,0,10.69-25.14c1.14-4,1.95-8.2,2.94-12.3.18-.75.48-1.48.77-2.37,2.36,9.89,4.69,19.53,6.94,29.18,1.32,5.67-.68,10.42-4.54,14.41a48.59,48.59,0,0,1-7.24,6.11,15.62,15.62,0,0,0-6.78,9.43,23.1,23.1,0,0,1-10.2,14.24c-3.14,2-6.33,4-9.62,5.79s-6.56,3.11-9.75,4.84a8.81,8.81,0,0,1-6.39.85c-8.56-1.74-17.18-2.31-25.8-.35-6.55,1.49-12.4,4.26-16.84,9.49a10.93,10.93,0,0,0-1.76,2.6,1.88,1.88,0,0,0,.43,1.77c.43.29,1.28.06,1.9-.1.28-.07.48-.49.68-.78,4.69-6.73,11.72-9,19.33-10.07,12.44-1.69,24.23.78,35.64,5.67,4.41,1.89,8.73,4.06,13.28,5.52a117.62,117.62,0,0,0,14.32,3.33,11.77,11.77,0,0,0,4.86-.5c3.89-1,7.23.28,10.16,2.55a21.9,21.9,0,0,1,4.92,5.38c1.39,2.18.47,3.52-2.08,3.77a17.26,17.26,0,0,1-1.76,0c-6-.12-12-.32-17.93-.35S366,673.33,359.9,672c-8.73-1.88-17.69-1.79-26.6-1.56a177.26,177.26,0,0,0-25.78,3,21.47,21.47,0,0,1-3.47.41q-16.19.12-32.38.17c-3.31,0-3.49-.15-4.21-3.35a35.94,35.94,0,0,1,1.3-20.07,8.61,8.61,0,0,1,3.32-4.35,55.61,55.61,0,0,0,6.07-5.31,5.87,5.87,0,0,0,1.39-2.39,1.65,1.65,0,0,0-.69-1.42,1.75,1.75,0,0,0-1.54.09,7.85,7.85,0,0,0-1.39,1.57,27.35,27.35,0,0,1-9.75,7.36c-4.76,2.12-9.67,1.75-15.08.1,1.45-1.07,2.47-1.81,3.47-2.57a28.13,28.13,0,0,0,8.83-10.33c1.3-2.79,2.23-5.75,1.06-8.83-.26-.7-1.2-1.63-1.82-1.62-1.12,0-1.3,1.16-1.11,2.16.94,4.77-1.3,8.41-4.2,11.79a30.58,30.58,0,0,1-10.22,7.7l-8.16-5.49c1.05-.52,1.71-.89,2.4-1.18a36.37,36.37,0,0,0,12.94-8.89,7.41,7.41,0,0,0,1.68-2.22,2.55,2.55,0,0,0-.44-2.06c-.18-.24-1.31,0-1.8.27a11.38,11.38,0,0,0-1.65,1.8,32.24,32.24,0,0,1-13.77,8.8,4,4,0,0,1-4.71-1.14c-3-3.33-6-6.55-9-9.86A44.65,44.65,0,0,0,206.67,612c-12.08-4.43-22.87-2.1-32.13,6.71-7.61,7.24-11.87,16.44-14.42,26.5-.23.88-.41,1.77-.67,2.87-.49-.34-.89-.46-1-.68a42.66,42.66,0,0,1-1.37-21.5,21.79,21.79,0,0,1,6.34-11.54c.34-.33.69-.64,1-1,1.54-1.8,1.4-2.73-.62-3.84a17.47,17.47,0,0,0-2.13-.79,16.26,16.26,0,0,1,2.52-1.53c3.31-1.13,6.63-2.28,10-3.19,1.38-.37,2.89-.31,3.4-2s-.74-2.34-1.69-3.18a5.53,5.53,0,0,0-1.27-.61l.36-1c2.58-.41,5.15-1,7.74-1.21a50.28,50.28,0,0,1,24,4.32c3.42,1.52,6.78,3.18,10.14,4.83.89.43,1.74.93,2.46-.13.85-1.22,0-2.05-.91-2.57-2.47-1.32-5-2.58-7.54-3.74a12.17,12.17,0,0,1-5.7-5.21,17.88,17.88,0,0,1,3.24-.4c6.3.43,12.62.81,18.41,3.79a2.45,2.45,0,0,0,2.17-.21c.93-.73.39-1.61-.23-2.43-1.2-1.58-2.32-3.22-3.42-4.87a5.14,5.14,0,0,1-.38-1.42c2.62-.65,4.77.23,6.83,1.28,4.41,2.25,7.55,5.85,10.22,9.93,1.47,2.25,3,4.44,4.58,6.65,2.44,3.5,6.09,5.4,9.75,7.29.3.16.66.42,1,.38a18.39,18.39,0,0,0,2.14-.59c-.25-.7-.3-1.66-.8-2a18.7,18.7,0,0,0-3.38-1.86,17.06,17.06,0,0,1-6.72-6c-2.29-3.39-4.67-6.75-7.25-9.94-3-3.69-6.49-6.82-11.29-7.94a19,19,0,0,0-4.86-.49c-2.92.12-4,1.61-3.27,4.38.19.79.46,1.57.79,2.67-2.35-.34-4.51-.76-6.69-.94-3.49-.29-7-.59-10.5-.57s-3.76.34-4,4.37c-.88-.18-1.75-.32-2.58-.56a107.33,107.33,0,0,0-22.8-3.85c-7.66-.49-14.28,1.95-20.39,6.25a73.91,73.91,0,0,0-15.53,15.21c-12,15.36-20.08,32.68-25.84,51.18-1.11,3.58-2.08,7.19-3.13,10.79,0,0-.19,0-.52.12-1.42-3-1.69-6.22-1.83-9.4a141.69,141.69,0,0,1,11.25-62.08c1.67-3.95,4.15-7.58,6.36-11.3a7.6,7.6,0,0,1,4.08-3.1c3.46-1.36,6.77-3.12,10.32-4.8.18.29.44.78.76,1.23,1.94,2.77,4.15,3.44,6.86,1.52,3.14-2.23,6-4.82,8.94-7.36,3.09-2.7,5.95-5.67,9.14-8.24a58.63,58.63,0,0,1,6.76-4.17l.54.53-1.09,1.87c-.41.71-.87,1.39-1.22,2.13-3.75,7.81.34,14.88,9,15.58a22.87,22.87,0,0,0,12.93-2.53c4.43-2.39,8.79-4.91,13.14-7.45q7.74-4.53,15.39-9.2c1.12-.67,2.73-1.23,1.5-3.32a12.78,12.78,0,0,0-2.23.8q-7.83,4.35-15.61,8.79c-3.77,2.14-7.42,4.51-11.3,6.43a51.11,51.11,0,0,1-8.85,3.21,12.55,12.55,0,0,1-4.89.18c-6.66-.84-9.25-5.84-5.92-11.66,1.2-2.1,3.13-3.76,4.64-5.69a13.24,13.24,0,0,0,1.18-2.35,8.3,8.3,0,0,0-2.77-.84c-5.49.37-10.11,3-14.19,6.38-4.59,3.82-8.85,8-13.3,12a17.24,17.24,0,0,1-3.38,2.45c-.6.31-1.92.34-2.18,0a3.7,3.7,0,0,1-.33-2.49c.17-1.12,1.94-2.12.32-3.35-1.44-1.11-2.39.28-3.36,1-4.35,3-8.83,5.8-14.23,6.53a32.41,32.41,0,0,1-12.9-.37,12.47,12.47,0,0,1-1.64-.61,4.25,4.25,0,0,1-.6-.47,11.24,11.24,0,0,0,2.44-1.53c.57-.63,1.25-1.73,1-2.35a3.56,3.56,0,0,0-2.11-1.92c-2.22-.69-4.59-.92-6.81-1.62-9.92-3.14-18.14-8.67-24-17.45a26,26,0,0,1-4.71-13.14c.32.15.7.2.86.42,7.31,9.3,17.33,14.09,28.45,16.92,7.58,1.93,15.29,2.57,23,.75a46.11,46.11,0,0,0,8.81-3.41,161.16,161.16,0,0,1,48.1-13.62,178.56,178.56,0,0,1,37.55-.49,25.31,25.31,0,0,1,11.62,3.48c4.08,2.52,8.39,4.68,12.59,7a6.13,6.13,0,0,1,1,.83,71.78,71.78,0,0,0-7.45,3.14c-6.94,3.86-8.65,10.65-4.28,17.3,6.65,10.15,16.38,14.26,28.26,13.76,2.11-.09,4.21-.37,6.3-.63,1.19-.14,2.55-.37,2.32-2s-1.45-1.28-2.7-1.12c-9.7,1.23-18.72-.7-26.58-6.61a22.66,22.66,0,0,1-5.73-6.52c-2.33-4-1.11-8.17,2.76-10.74A20.07,20.07,0,0,1,256.48,561c1.17.13,2.39.93,2.87-.7.43-1.45-.88-2-1.91-2.54-5.95-3.3-11.87-6.63-17.83-9.9-6.16-3.38-12.33-6.75-18.55-10a10.35,10.35,0,0,1-4.28-4.41,81.88,81.88,0,0,0-5.29-7.4c-.25-.34-.48-.71-1-1.47,2.94-.61,5.51-1.36,8.12-1.65,4.25-.47,4.13-3,2.47-5.59a9.92,9.92,0,0,0-2.69-2.75,53.36,53.36,0,0,0-26.5-9.36c-2.86-.22-8.9,2.07-13.55,3.2-5.06,1.22-10.83-2.13-13.51-6.59-.09-.16,8.83.84,9.52.54a2.24,2.24,0,0,0,1.84-1.78,2.65,2.65,0,0,0-1.19-2.22c-1.69-.74-9.08-2.13-10.88-2.62-7.28-2-13.42-8.91-14.91-16.75a8.18,8.18,0,0,1,6.71.66c1.55.79,3.33,2,4.85.55,1.83-1.79.54-3.93-.62-5.41a60.93,60.93,0,0,0-7.15-7.65,66.23,66.23,0,0,0-6.92-4.83c-3.69-2.52-7.26-9.09-6.13-8.76,21.13,6.22,40.9,15.53,59.79,26.76C219.48,492,237.85,505.51,254,521.9a124.56,124.56,0,0,1,19.19,24.19A50.68,50.68,0,0,1,279.86,563c.58,3.24,1.59,3.71,4.93,2.81a82.45,82.45,0,0,1,25-2.81,38.71,38.71,0,0,1,8.25,1.61c9,2.42,17.67,5.46,25.31,10.84,2.09-1.6,2.2-1.9.75-3.1a18.3,18.3,0,0,0-3.82-2.49c-4-1.9-8.1-3.65-12.16-5.48a38.72,38.72,0,0,1-5.37-2.52c-14.77-9.66-28.8-20.22-40.48-33.6-11.17-12.8-19.93-27-23.91-43.67-4.59-19.26-1.94-37.26,10.22-53.35a68.08,68.08,0,0,1,20.62-17.86,34.66,34.66,0,0,0,4.08,2.94c1.94,1,9.15,4.34,9.79,1.12.29-1.46-.89-1.67-2-1.73-4.48-.21-7.61-2.77-10.21-6.1a17.07,17.07,0,0,1-1.52-3.45c1.48-.08,2.48-.12,3.48-.19a8.9,8.9,0,0,0,3.1-.36,5.14,5.14,0,0,0,2.67-2.39c.24-.75-.81-2-1.47-2.9a4.74,4.74,0,0,0-1.71-1.21c-4.71-2.46-5.58-6.47-4.7-11.52l10.76,4.73a15.1,15.1,0,0,0,.4-3,15.56,15.56,0,0,0-3.94-8.86c-5-5.62-9.95-11.24-15.2-16.58-4.06-4.12-8.07-8.16-9.78-14.17,2.92.08,4.88,4.2,8.56,1.7-3.53-5.22-7.15-10.28-7.55-16.76-.38-6.29.77-12.32,2.55-18.49a16.26,16.26,0,0,1,7.54,6.88,8.64,8.64,0,0,0,.95,1.87,2.47,2.47,0,0,0,1.7.88c.53-.08,1.09-.78,1.38-1.34a3.4,3.4,0,0,0,.17-1.72c-.85-11.5,3-21.7,8.85-31.28,8.65-14.26,34.31-35.63,34.84-35.45-1.1,1.16-2.24,2.28-3.29,3.48-13.13,15.09-23.21,31.77-27.07,51.71-.92,4.7-2.37,9.35-2.79,14.1-1.59,18.19,2.13,35.28,12.28,50.6,4.38,6.61,8.95,13.18,14.62,18.87A123.17,123.17,0,0,1,342.41,416c.55.87,1,1.79,1.69,3-4.52,1.63-15.15,2.34-22.44-1.31-.9-.45-1.66-.58-2.15-.05a1.62,1.62,0,0,0,.23,2.49,37.56,37.56,0,0,0,5,3c-.16.72-.42,1.7-.6,2.69-.66,3.68.38,6.78,3.5,8.93a8.24,8.24,0,0,0,9.29.38c3.29-1.87,4.6-4.86,4.22-8.6-.1-.92-.35-1.82-.61-3.14Z"/>
  <path class="cls-1" d="M496.47,422.28c-1.85,4.84-.69,8.85,1.08,13-1.06.37-1.9.71-2.75.95a15.13,15.13,0,0,0-7.79,5.16c-1.56,1.91-1.45,2.73.28,4.47s1.61,2.05-.21,3.48c-1,.76-3,1.06-3,2.54-.1,3.85,6,3,9.1,3.17,4.32.27,8.67.09,13,.17a50.76,50.76,0,0,1,5.22.42c1.65.21,2.34,1.42,2.6,2.91s-.58,2.4-1.8,3.09c-2.74,1.57-5.55,3.05-8.17,4.81s-10.24,7.29-9.48,9c2.42,5.34,23.11-8.53,30.8-12.28-.32-6.91,4.55-10.28,8.71-14.39-.73-.59-1.37-1-1.94-1.57-3.81-3.58-5.4-7.87-3.93-13s5.05-8.11,10.2-9a9.7,9.7,0,0,1,5.11.74,30.64,30.64,0,0,1,7.63,4.22c5,4.19,9.78,8.75,14.61,13.2,1.36,1.26,1.19,2.6-.61,3.23a20.5,20.5,0,0,1-6.47,1.36,27.83,27.83,0,0,1-12-2.39c-.53-.24-1.06-.5-1.56-.79-1.11-.63-2-1.43-1.21-2.8s1.78-.62,2.73-.12a24.9,24.9,0,0,0,12.9,2.75c.44,0,.87-.14,1.76-.29-.75-.84-1.2-1.44-1.75-1.94-3.37-3.09-6.7-6.22-10.17-9.2a29.28,29.28,0,0,0-5.19-3.59,8.73,8.73,0,0,0-12.39,4.17,9.2,9.2,0,0,0,4.77,12.34c4.28,1.83,4.23,1.94.75,4.8-3.26,2.67-10.64,7.3-8.19,9.77,1.36,1.37,5-1.44,7-3,1.4-1.07,2.66-2.31,4-3.43.8-.66,1.89-.9,2.43.08a2.68,2.68,0,0,1-.23,2.41c-.84,1.1-10.46,8.23-8.84,10.65,1.44,2.13,10.12-4,12.28-6.87a5.54,5.54,0,0,1,1.32-1.6,2.23,2.23,0,0,1,1.91-.11,1.92,1.92,0,0,1,.48,1.78,10.3,10.3,0,0,1-1.66,2.66,31.64,31.64,0,0,1-10.11,8.29,20.59,20.59,0,0,1,.4,16.16c-3.83,9.48-10.5,15.77-20.94,17-3.2.39-6.53-.34-9.8-.56-14-.92-27.11,1.69-38.15,11-7.88,6.63-12.12,15.25-11.95,25.58.34,20.6,4.88,40.17,15.39,58.12.61,1,1.93,2.29.31,3.3s-2.29-.63-2.95-1.67a94.1,94.1,0,0,1-10.69-25.14c-1.14-4-1.95-8.2-2.94-12.3-.18-.75-.48-1.48-.77-2.37-2.36,9.89-4.69,19.53-6.94,29.18-1.32,5.67.68,10.42,4.54,14.41a48.59,48.59,0,0,0,7.24,6.11,15.62,15.62,0,0,1,6.78,9.43,23.12,23.12,0,0,0,10.19,14.24c3.15,2,6.34,4,9.63,5.79s6.56,3.11,9.75,4.84a8.81,8.81,0,0,0,6.39.85c8.56-1.74,17.18-2.31,25.8-.35,6.55,1.49,12.4,4.26,16.83,9.49a10.69,10.69,0,0,1,1.77,2.6,1.88,1.88,0,0,1-.43,1.77c-.43.29-1.28.06-1.9-.1-.28-.07-.48-.49-.68-.78-4.69-6.73-11.72-9-19.33-10.07-12.44-1.69-24.23.78-35.64,5.67-4.41,1.89-8.73,4.06-13.28,5.52A117.62,117.62,0,0,1,462,662.63a11.77,11.77,0,0,1-4.86-.5c-3.89-1-7.23.28-10.16,2.55a21.9,21.9,0,0,0-4.92,5.38c-1.39,2.18-.47,3.52,2.08,3.77a17.26,17.26,0,0,0,1.76,0c6-.12,11.95-.32,17.93-.35s12.1-.13,18.15-1.44c8.73-1.88,17.69-1.79,26.6-1.56a177.26,177.26,0,0,1,25.78,3,21.47,21.47,0,0,0,3.47.41q16.18.12,32.38.17c3.31,0,3.49-.15,4.21-3.35a35.94,35.94,0,0,0-1.3-20.07,8.61,8.61,0,0,0-3.32-4.35,55.61,55.61,0,0,1-6.07-5.31,5.87,5.87,0,0,1-1.39-2.39,1.65,1.65,0,0,1,.69-1.42,1.75,1.75,0,0,1,1.54.09,7.85,7.85,0,0,1,1.39,1.57,27.35,27.35,0,0,0,9.75,7.36c4.76,2.12,9.67,1.75,15.08.1-1.45-1.07-2.47-1.81-3.47-2.57a28.13,28.13,0,0,1-8.83-10.33c-1.3-2.79-2.23-5.75-1.06-8.83.26-.7,1.2-1.63,1.82-1.62,1.12,0,1.3,1.16,1.1,2.16-.93,4.77,1.31,8.41,4.21,11.79a30.58,30.58,0,0,0,10.22,7.7l8.16-5.49c-1.05-.52-1.71-.89-2.4-1.18a36.37,36.37,0,0,1-12.94-8.89,7.41,7.41,0,0,1-1.68-2.22,2.55,2.55,0,0,1,.44-2.06c.18-.24,1.31,0,1.8.27a11.38,11.38,0,0,1,1.65,1.8,32.24,32.24,0,0,0,13.77,8.8,4,4,0,0,0,4.71-1.14c3-3.33,6-6.55,9-9.86A44.65,44.65,0,0,1,635.22,612c12.08-4.43,22.87-2.1,32.13,6.71,7.61,7.24,11.87,16.44,14.42,26.5.23.88.41,1.77.67,2.87.49-.34.89-.46,1-.68a42.77,42.77,0,0,0,1.37-21.5,21.79,21.79,0,0,0-6.34-11.54c-.34-.33-.69-.64-1-1-1.54-1.8-1.4-2.73.62-3.84a16.83,16.83,0,0,1,2.13-.79,16.26,16.26,0,0,0-2.52-1.53c-3.31-1.13-6.63-2.28-10-3.19-1.38-.37-2.89-.31-3.4-2s.74-2.34,1.69-3.18a5.53,5.53,0,0,1,1.27-.61l-.36-1c-2.58-.41-5.15-1-7.75-1.21a50.24,50.24,0,0,0-24,4.32c-3.42,1.52-6.78,3.18-10.14,4.83-.89.43-1.74.93-2.46-.13-.85-1.22,0-2.05.91-2.57,2.47-1.32,5-2.58,7.54-3.74a12.17,12.17,0,0,0,5.7-5.21,17.88,17.88,0,0,0-3.24-.4c-6.3.43-12.62.81-18.41,3.79a2.45,2.45,0,0,1-2.17-.21c-.93-.73-.39-1.61.23-2.43,1.2-1.58,2.32-3.22,3.42-4.87a5.14,5.14,0,0,0,.38-1.42c-2.62-.65-4.77.23-6.83,1.28-4.41,2.25-7.55,5.85-10.22,9.93-1.47,2.25-3,4.44-4.58,6.65-2.44,3.5-6.09,5.4-9.75,7.29-.3.16-.66.42-1,.38a18.39,18.39,0,0,1-2.14-.59c.25-.7.3-1.66.8-2a18.7,18.7,0,0,1,3.38-1.86,17.06,17.06,0,0,0,6.72-6c2.29-3.39,4.67-6.75,7.25-9.94,3-3.69,6.49-6.82,11.29-7.94a19,19,0,0,1,4.86-.49c2.92.12,4,1.61,3.27,4.38-.19.79-.46,1.57-.79,2.67,2.35-.34,4.51-.76,6.68-.94,3.5-.29,7-.59,10.51-.57s3.76.34,4,4.37c.88-.18,1.75-.32,2.58-.56a107.33,107.33,0,0,1,22.8-3.85c7.66-.49,14.28,1.95,20.39,6.25a73.91,73.91,0,0,1,15.53,15.21c12,15.36,20.08,32.68,25.84,51.18,1.11,3.58,2.08,7.19,3.13,10.79,0,0,.19,0,.52.12,1.42-3,1.69-6.22,1.83-9.4a141.69,141.69,0,0,0-11.25-62.08c-1.67-3.95-4.15-7.58-6.36-11.3a7.6,7.6,0,0,0-4.08-3.1c-3.46-1.36-6.77-3.12-10.32-4.8-.18.29-.44.78-.76,1.23-1.94,2.77-4.15,3.44-6.86,1.52-3.14-2.23-6-4.82-8.94-7.36-3.09-2.7-5.95-5.67-9.14-8.24a58.63,58.63,0,0,0-6.76-4.17l-.54.53,1.09,1.87c.41.71.87,1.39,1.22,2.13,3.75,7.81-.34,14.88-9,15.58a22.87,22.87,0,0,1-12.93-2.53c-4.43-2.39-8.79-4.91-13.14-7.45q-7.74-4.53-15.39-9.2c-1.12-.67-2.73-1.23-1.5-3.32a12.78,12.78,0,0,1,2.23.8q7.83,4.35,15.61,8.79c3.77,2.14,7.42,4.51,11.3,6.43a51.11,51.11,0,0,0,8.85,3.21,12.55,12.55,0,0,0,4.89.18c6.66-.84,9.25-5.84,5.92-11.66-1.2-2.1-3.13-3.76-4.64-5.69a13.24,13.24,0,0,1-1.18-2.35,8.3,8.3,0,0,1,2.77-.84c5.49.37,10.11,3,14.19,6.38,4.59,3.82,8.85,8,13.3,12A17.24,17.24,0,0,0,695,583.4c.6.31,1.92.34,2.18,0a3.7,3.7,0,0,0,.33-2.49c-.17-1.12-1.94-2.12-.32-3.35,1.44-1.11,2.39.28,3.36,1,4.35,3,8.83,5.8,14.23,6.53a32.41,32.41,0,0,0,12.9-.37,12.47,12.47,0,0,0,1.64-.61,4.25,4.25,0,0,0,.6-.47,11.24,11.24,0,0,1-2.44-1.53c-.57-.63-1.25-1.73-1-2.35a3.56,3.56,0,0,1,2.11-1.92c2.22-.69,4.59-.92,6.81-1.62,9.92-3.14,18.14-8.67,23.95-17.45A26,26,0,0,0,764,545.56c-.33.15-.7.2-.86.42-7.31,9.3-17.33,14.09-28.45,16.92-7.58,1.93-15.29,2.57-23,.75a46.11,46.11,0,0,1-8.81-3.41,161.16,161.16,0,0,0-48.1-13.62,178.56,178.56,0,0,0-37.55-.49,25.31,25.31,0,0,0-11.62,3.48c-4.08,2.52-8.39,4.68-12.59,7a6.13,6.13,0,0,0-1,.83,71.78,71.78,0,0,1,7.45,3.14c6.94,3.86,8.65,10.65,4.28,17.3-6.65,10.15-16.38,14.26-28.26,13.76-2.11-.09-4.21-.37-6.31-.63-1.18-.14-2.54-.37-2.31-2s1.45-1.28,2.7-1.12c9.7,1.23,18.72-.7,26.58-6.61a22.66,22.66,0,0,0,5.73-6.52c2.33-4,1.11-8.17-2.76-10.74A20.07,20.07,0,0,0,585.41,561c-1.17.13-2.39.93-2.87-.7-.43-1.45.88-2,1.91-2.54,5.95-3.3,11.87-6.63,17.83-9.9,6.16-3.38,12.33-6.75,18.55-10a10.35,10.35,0,0,0,4.28-4.41,81.88,81.88,0,0,1,5.29-7.4c.25-.34.48-.71,1-1.47-2.94-.61-5.51-1.36-8.12-1.65-4.25-.47-4.13-3-2.47-5.59a9.92,9.92,0,0,1,2.69-2.75,53.36,53.36,0,0,1,26.5-9.36c2.86-.22,8.9,2.07,13.54,3.2,5.07,1.22,10.84-2.13,13.52-6.59.09-.16-8.83.84-9.52.54a2.24,2.24,0,0,1-1.84-1.78,2.65,2.65,0,0,1,1.19-2.22c1.69-.74,9.08-2.13,10.88-2.62,7.28-2,13.42-8.91,14.91-16.75a8.18,8.18,0,0,0-6.71.66c-1.55.79-3.33,2-4.85.55-1.83-1.79-.54-3.93.62-5.41a60.93,60.93,0,0,1,7.15-7.65,66.23,66.23,0,0,1,6.92-4.83c3.69-2.52,7.26-9.09,6.13-8.76C680.8,459.72,661,469,642.14,480.26,622.41,492,604,505.51,587.87,521.9a124.56,124.56,0,0,0-19.19,24.19A50.68,50.68,0,0,0,562,563c-.58,3.24-1.59,3.71-4.93,2.81A82.45,82.45,0,0,0,532.05,563a38.71,38.71,0,0,0-8.25,1.61c-9,2.42-17.67,5.46-25.31,10.84-2.09-1.6-2.2-1.9-.75-3.1a18.3,18.3,0,0,1,3.82-2.49c4-1.9,8.1-3.65,12.16-5.48a38.72,38.72,0,0,0,5.37-2.52c14.77-9.66,28.8-20.22,40.48-33.6,11.17-12.8,19.93-27,23.91-43.67,4.59-19.26,1.94-37.26-10.22-53.35a68.08,68.08,0,0,0-20.62-17.86,34.66,34.66,0,0,1-4.08,2.94c-1.94,1-9.15,4.34-9.79,1.12-.29-1.46.89-1.67,2-1.73,4.48-.21,7.61-2.77,10.21-6.1a17.07,17.07,0,0,0,1.52-3.45c-1.48-.08-2.48-.12-3.48-.19a8.9,8.9,0,0,1-3.1-.36,5.14,5.14,0,0,1-2.67-2.39c-.24-.75.81-2,1.47-2.9a4.74,4.74,0,0,1,1.71-1.21c4.71-2.46,5.58-6.47,4.7-11.52l-10.76,4.73a15.1,15.1,0,0,1-.4-3,15.56,15.56,0,0,1,3.94-8.86c5-5.62,9.95-11.24,15.2-16.58,4.06-4.12,8.07-8.16,9.77-14.17-2.91.08-4.87,4.2-8.55,1.7,3.53-5.22,7.15-10.28,7.55-16.76.38-6.29-.77-12.32-2.55-18.49a16.26,16.26,0,0,0-7.54,6.88,8.64,8.64,0,0,1-1,1.87,2.47,2.47,0,0,1-1.7.88c-.53-.08-1.09-.78-1.38-1.34a3.4,3.4,0,0,1-.17-1.72c.85-11.5-3-21.7-8.85-31.28-8.65-14.26-34.31-35.63-34.84-35.45,1.1,1.16,2.24,2.28,3.29,3.48,13.13,15.09,23.21,31.77,27.07,51.71.92,4.7,2.37,9.35,2.79,14.1,1.59,18.19-2.13,35.28-12.28,50.6-4.38,6.61-8.95,13.18-14.62,18.87A123.17,123.17,0,0,0,499.48,416c-.55.87-1,1.79-1.69,3,4.52,1.63,15.15,2.34,22.44-1.31.9-.45,1.65-.58,2.15-.05a1.62,1.62,0,0,1-.23,2.49,37.56,37.56,0,0,1-5,3c.16.72.42,1.7.6,2.69.66,3.68-.38,6.78-3.5,8.93a8.24,8.24,0,0,1-9.29.38c-3.29-1.87-4.6-4.86-4.22-8.6.1-.92.35-1.82.61-3.14Z"/>
</svg>
