<svg id="Livello_1" data-name="Livello 1" xmlns="http://www.w3.org/2000/svg" viewBox="0 0 841.89 841.89">
  <defs>
    <style>
      .cls-1 {
        fill: #231f20;
      }
    </style>
  </defs>
  <title>Glos</title>
  <g>
    <path class="cls-1" d="M273.4,410.59c4.16,10.1,9.6,18.72,18.17,24.62a85.07,85.07,0,0,0,17.1,8.93c3.48,1.37,6.19,3,8.3,6a120.69,120.69,0,0,1,19.93,48.4c4.92,26.76,19,47,42.42,60.72,42.27,24.79,104.27,6.56,122.19-48.74,3.54-10.93,5.81-22.27,9.41-33.17,2.23-6.76,5.67-13.15,8.9-19.53,3.72-7.35,8.69-12.85,17.42-15.22,10-2.75,17.34-10.23,23.93-18.69,6.32,7.06,9.59,15.21,11.62,23.88,4.69,20,2.83,40-1.86,59.62-11.1,46.38-33,86.91-67.24,120.36-8.24,8.07-17.66,14.93-27.28,21.71,2.58-3.46,5.2-6.89,7.71-10.39,15.71-21.86,27.61-45.54,33.16-72,3.19-15.2,3.17-30.32-3.76-44.76-.49-1-.81-2.31-1.63-2.93-1.27-1-3.19-2.39-4.32-2-2.35.76-1.9,2.82-1,4.92,1.91,4.37,4.06,8.76,5.1,13.37,3.58,15.83.55,31.2-4.53,46.19-9.21,27.16-24.57,50.75-43.23,72.23-7.5,8.63-15.66,16.72-23.87,24.68A49.16,49.16,0,0,1,428.4,687c-14,7.21-28.26,14-43.07,21.32L302.28,546.7l1.06-.83q7.71,6.24,15.41,12.48,26.82,21.79,53.6,43.63c2.16,1.76,4.39,2.5,6.31.23s.85-4.41-1.31-6.17c-26.09-21.22-52.05-42.64-78.4-63.53a32.12,32.12,0,0,1-8.2-10.12,314.91,314.91,0,0,1-31.39-80.07c-.4-1.64-.7-3.31-1.08-5-1.38-6-2.22-11.34,4.71-15.41C267,419.58,269.67,414.8,273.4,410.59Z"/>
    <path class="cls-1" d="M598.07,316.3c10.5,5.6,20.9,11.12,31.27,16.7a24.93,24.93,0,0,1,3.46,2.45c6.44,5,6.47,5.44,3.72,12.92-3.36,9.13-3,18.65-2.14,28.08.93,10.59,3.1,20.91,9,31-2.64-.17-4.8.17-6.6-.5-11.71-4.32-22.69-3.7-32.8,4.7-2-6.3-3.36-12.37-5.84-17.93a272.29,272.29,0,0,0-13.62-27.1,39,39,0,0,1-5.5-24.29c.32-3.16,2.14-6.4,4-9.12,2.41-3.55,5.89-4,10.19-2,2.22,1,4.66,2.57,6-.67s-1.64-4-3.71-5c-1.26-.6-2.79-1.49-4-1.23-5.09,1.1-7-2.38-9.44-5.67-16.6-22.26-37.63-39.26-62-52.32a23.79,23.79,0,0,1-6.89-6.32c-3.84-4.84-7.29-10-11.38-15.66,21,3.56,41.67,9.9,59.91-6.15,3.33,4.55,4.25,4.52,8.18-.74,6.12-8.17,6-20.33-.47-27-4.71-4.88-11.21-5.86-17.4-6.79-15.69-2.37-30.91,1.1-46,4.68-7,1.65-13.79,4-20.75,5.75a4.72,4.72,0,0,1-4-1.34c-23-31.45-54.67-48.48-92.25-55.64-8.69-1.66-17.37-1-26.1.49-11,1.92-22.25,2.26-33,4.87C306.68,168,289,181,280,204a6.54,6.54,0,0,1-3.2,3c-12,5.79-12.5,24.43-2,33.73,1.83,1.61,2,1.42,5.69-2.85,9.38,6.3,19.86,9.61,31.1,8.73,7-.55,14.4-1.78,20.81-4.56,12.13-5.26,24.39-5.11,36.91-3.36,6.64.93,13.2,2.42,19.75,4-53.15,12.73-98.58,36.76-128.56,84.94-4.62-3.83-9.84-4.18-15.18-2.68-1.28.36-2.19,2.06-3.27,3.15l3.7,2.74a.62.62,0,0,0,.42,0c9.74-2.31,13.26,2.91,13.78,13.35.59,12-5,21.59-10.65,31.13-8.13,13.7-10.59,21.78-11.77,35.61a21.27,21.27,0,0,1-2.53-1.33c-8.41-5.85-17.43-6.54-27-3.57-2.86.89-5.92,1.18-9.93,1.94A72.39,72.39,0,0,0,207.21,375c.46-11.14,1.49-22.43-5.09-32.53,7.18-9,17-14,26.84-19a122.86,122.86,0,0,1,11.95-5.37c2.81-1.06,3-2.73,2.53-5.25-4.45-24.42-3.8-48.69,3.31-72.53,14.35-48,46.08-80.76,91-101.12,27.82-12.6,57.25-20,87.84-17.78,61.62,4.42,114.35,27.19,149.81,80.32A148.31,148.31,0,0,1,600.71,289C600.48,298.44,598.92,307.8,598.07,316.3Z"/>
    <path class="cls-1" d="M580.58,326.63c-9.28,10.52-10.6,26.84-2.87,39.64,8.94,14.83,16.47,30.2,20.29,47.19.12.54.14,1.09.21,1.66-3,2.45-6.12,1.33-8.12-.71-7-7.12-14.25-14.15-20.05-22.19-2.46-3.42-1.68-9.24-2.19-14-.46-4.22-.48-8.48-1.08-12.67-.2-1.43-1.35-3.48-2.48-3.8s-2.89,1-4,2.06c-1.67,1.49-2.89,3.48-4.55,5-5,4.49-9.29,3.73-11.23-2.69-1.69-5.59-2.1-11.6-2.76-17.46-.33-2.89,1.09-6.54-.23-8.6-1.21-1.89-5.06-2.05-7.72-3.05-11.26-4.21-19.3-11.56-22.3-23.54-1.56-6.21.12-11.49,5.6-15.17,1.83-1.23,3.48-2.83,1.68-4.68-.88-.9-3.72-.95-5-.22-7.74,4.37-10.61,14.26-7.46,24.28,2.35,7.5,7.16,13.29,13.24,18.65-36,1.89-71.29,4.56-97.82,32.42-28.36-25.25-62.07-34.17-98.84-31.74,3.79-5.37,8-10.31,11-15.9,3.56-6.58,4.26-13.93.41-20.7-1.73-3-4.8-5.39-7.59-7.65-.67-.55-3,.09-3.85.93-.53.52-.14,3.1.61,3.59,4.46,2.94,7,6.78,7.13,12.23.1,6.4-3.06,11.26-7.09,15.81-5.72,6.47-11.79,12.21-21.09,12.8-2.59.17-2.78,2.18-2.83,4.37-.13,6.06-.42,12.11-.77,18.17a13.6,13.6,0,0,1-1,4.09c-1.19,3-2.58,7-6.18,6.51-2.86-.42-5.57-3.23-7.9-5.45-1.2-1.14-1.05-3.64-2.19-4.93s-3.27-2.78-4.74-2.58c-1.31.18-3.11,2.43-3.34,4-1.4,9.2-2.28,18.49-3.64,27.71a15.07,15.07,0,0,1-2.85,7.24c-5,5.91-10.22,11.59-15.7,17-1.34,1.34-3.94,1.41-6.3,2.17a33.32,33.32,0,0,1,.95-19.54c2-6,5-11.61,7.94-17.22,4.35-8.36,10.23-16.17,11.27-25.8.67-6.21-.18-12.59-.25-18.89a7.38,7.38,0,0,1,.77-3.71c24-39.72,59.63-63.89,103.72-75.66,53.07-14.17,104.1-7.63,152.39,18.59A170,170,0,0,1,580.58,326.63Z"/>
    <path class="cls-1" d="M586.68,586.69c-5.3,13.55-10.47,26.89-15.74,40.2Q559.81,655,548.5,683a6.7,6.7,0,0,1-3.65,3.41A231.31,231.31,0,0,0,500,706.11c-15.89,9.23-33.21,13.56-51.28,14.23-18.9.7-37.86.62-56.77,0-21.33-.67-40.85-7.86-58.91-19-1.36-.84-2.29-2.78-2.85-4.4q-29.3-85.79-58.47-171.61c-6.16-18.12-12.8-36.1-18.2-54.44-4-13.72-6.45-27.92-9.67-42.24h5.17c2.14,8.4,4,16.76,6.42,25a370,370,0,0,0,26,64.12c18.29,35.8,35.5,72.16,53.85,107.94,14.8,28.86,30.62,57.21,46,85.79,1.75,3.25,3.64,4.2,7.41,2.26,15.78-8.12,32-15.45,47.55-23.94,6.85-3.73,12.6-9.49,18.78-14.41,15.11-12.07,30.41-23.9,45.21-36.34,24.51-20.62,42.49-46.35,56.61-74.86,10-20.13,18.6-40.81,22.34-63.12,4.8-28.68,3.41-56.53-11.77-82.47-1.15-2-.15-5.2.48-7.95,7.24,7,12.75,15.51,23.25,17.33a58.78,58.78,0,0,0,6.43.39c-.91,4.68-1.9,9.68-2.84,14.69q-8.87,47.31-17.71,94.61l-6.39,34.07c-1,5.47,0,7.72,5,10.2C579.14,583.64,582.82,585,586.68,586.69Z"/>
    <path class="cls-1" d="M578.52,570c1.36-7.56,2.71-15.13,4.11-22.7q10.39-56.55,20.78-113.1c1.66-9.1,4-11.38,13.4-11.79,3.38-.14,6.78.08,10.16,0s6.45-.43,9.94-.69c.42,4.4.86,8.69,1.23,13q3,33.71,5.9,67.42c1.72,19.37,3.42,38.75,5.28,58.11.91,9.51,2.2,19,3.24,28.47a27.15,27.15,0,0,1-.25,4.28C630.27,576.83,605.67,570.24,578.52,570Z"/>
    <path class="cls-1" d="M263.19,570.27c-27.51-.28-50.67,6.78-72.65,22-2.4-7.9-.32-15.61.59-23.37q1.78-15.1,3.3-30.23,2.06-20.61,3.93-41.24,1.48-16.21,2.86-32.44c1.23-14.3,2.41-28.61,3.68-43.67,9.16.91,18.18,1.74,27.18,2.74,3.29.36,4.77,2.33,5.39,5.8,5.32,29.82,10.87,59.61,16.35,89.4C256.92,536.19,260,553.08,263.19,570.27Z"/>
    <path class="cls-1" d="M286.52,204.45a53.3,53.3,0,0,1,18.07-23.73c16.85-12.67,36.19-16.48,56.77-15,21.29,1.52,40.34,9.32,58.36,20.53,15.74,9.79,27.79,23.19,39.68,36.83-11.34,5.63-22.12,11.52-33.36,16.3a16,16,0,0,1-15-1c-27.63-16.66-57.27-28.3-89.13-33.8C310.44,202.63,298.78,201.36,286.52,204.45Z"/>
    <path class="cls-1" d="M514.54,342.09c5.47,1.16,11,2.07,16.38,3.57,3.16.89,4.52,3.29,5,7,.71,6.09,3,12,3.81,18.06a31.78,31.78,0,0,1-.65,12.75c-5.78,19.64-28.66,34.38-43.76,33.33-1.4-.1-4,1.61-4.2,2.75-.38,2.75,2.05,3.12,4.36,3.1,16.48-.09,29.08-8.06,39.55-19.92,6.69-7.59,8.35-11.71,11.6-23.86l14.77-5.23c.26,2.62.75,6.05.91,9.5.31,6.61,1.25,13.33.47,19.84-2,17.14-17,32.92-34,36.07a13.81,13.81,0,0,1-9.81-2.63c-6-4.7-13.17-6.14-20-8.47C490,424.86,481,428.81,474,438c-.85,1.12-1.62,2.3-2.42,3.45a8.78,8.78,0,0,1-2.54-10.34c2.66-5.89,6.8-9.9,13.73-10.39,1.24-.09,2.36-1.75,3.53-2.68-1.21-1.06-2.34-2.91-3.66-3.06-9.59-1.1-20.66,10.09-20.26,20.22.06,1.38.26,2.75.44,4.67l-39.06,4.74V439c8.79-2.54,15.8-7,15.58-18.28,2.07,0,4.43-.54,6.34.14,2.64.93,3.71-.4,4.76-2.1,3.76-6.09,1.36-14-4.14-18.59a37.32,37.32,0,0,1-9-12.08c-2.66-5.4-5.82-9.93-11.56-12.81,4.64-8.51,11.92-13.43,20.74-17.34-1,10.06,4.58,16.5,11.29,21.88,12.27,9.83,26.12,16.31,42.14,16.45a27.4,27.4,0,0,0,25.33-17.45,28.69,28.69,0,0,0-6.56-31.25c-1.48-1.43-3.11-2.72-4.66-4.08Z"/>
    <path class="cls-1" d="M373.56,474.79c-4.86,2.31-7.26,5.86-7.38,10.59-.05,2.11.23,5.23,1.57,6.21,5.58,4,6.8,10.92,11.14,15.66,4.51,4.93,8.75,9.87,16.28,10.63,4.59.47,9,2.79,13.49,4.21,12.28,3.86,24,2.33,35.27-3.67a11.42,11.42,0,0,1,5.65-1.53c5.54.3,8.27-3.4,11.21-7,2.29-2.82,4.88-5.4,7-8.32a147.71,147.71,0,0,0,8.36-12.69c2.86-5,1.65-8.79-3.24-11.86-.93-.59-1.91-1.1-3.13-1.79,2-2.28,3.88-4.31,5.59-6.48,2.87-3.66,3.4-7.49,1.09-11.82a7.91,7.91,0,0,1-.5-5.52c2.6-8.24,7.22-14.67,16.4-16.41a14.31,14.31,0,0,1,2.61.1c-6.59,7.26-6.4,15.83-6.82,24.23-.64,13-.94,26-1.92,38.94-1.52,20.1-8.25,37.76-25.89,49.39-8.45,5.57-18.24,8-28.06,9.8C418.46,560,405,557.89,392,553c-17.89-6.77-29-20.07-33.68-38.41a132.86,132.86,0,0,1-3.43-23.35c-1-13.67-1-27.4-2-41.06-.34-4.61-2.44-9.09-3.83-13.95a8.8,8.8,0,0,1,9.32,2.32c5.45,5.3,8.84,10.95,5.72,19.1-2.62,6.87-1.23,9.81,4.78,14.06C370.33,472.68,371.76,473.58,373.56,474.79Z"/>
    <path class="cls-1" d="M415.79,439v5.52l-36.35-4.35a21.37,21.37,0,0,0-4.94-16.63c-3.79-4.7-8.58-7.88-14.61-8.44-1.6-.15-4.45,1.22-4.84,2.48-.86,2.8,1.62,3.12,3.94,3.39,7.62.89,14.45,8.38,14.54,15.85,0,1.2-.54,2.41-1.12,4.77-1.35-2.06-2-3-2.64-4-4.74-7.95-19.3-13.4-26.66-7.52a5.14,5.14,0,0,1-3.93.66,12.85,12.85,0,0,0-12.2,3.14c-7.37,6.52-15.08,6.69-23.36,2.12-19.91-11-27-25.62-24.91-46.68.45-4.61.94-9.22,1.33-13l14.25,4,.63-1.16c.43,1.57.89,3.14,1.31,4.72,5.44,20.38,28.35,38.67,48.57,38.78.7,0,1.58.24,2.08-.08a43.75,43.75,0,0,0,3.74-3c-1.28-1-2.55-2.83-3.84-2.83-15.23-.08-26.62-7.65-36-18.64-3.24-3.79-5.55-8.49-7.7-13-2.3-4.87-2.71-9.6,1.06-14.59,4.24-5.62,5-12.73,4.62-25.53l18-2.25.47,1c-1,1-2.05,2-3.09,2.92-10,9.15-12.56,23-6.4,34.75,6,11.39,18.95,17,32,14.31,9.65-2,18.87-5.11,26.92-10.73a78.42,78.42,0,0,0,13-11.84c3.65-4,5.79-9,4.59-14.83,8.87,1.91,19.22,9.55,22.38,16.54-6.7,2.42-10.32,7.6-13.32,13.87-2.38,5-5.41,9.74-10.64,12.81-5,2.93-5.37,15-.93,18.78.66.57,2,.56,3,.55,2.56,0,5.11-.21,7.66-.33C402.93,432.51,405,435.27,415.79,439Z"/>
    <path class="cls-1" d="M592.22,589.19l57.94,10.57c-.79,2.19-1.69,5.4-3.08,8.38a72.2,72.2,0,0,1-30.73,33.14c-9.51,5.44-17.4,13.8-25.72,21.2-9.91,8.81-21.09,15.27-34.64,20.32Z"/>
    <path class="cls-1" d="M282.42,681.43c-15-5.52-26.8-14.2-37.42-24.7a118.68,118.68,0,0,0-24.48-18.47c-15.14-8.76-24.17-22.69-29-38.64L246.61,590C258.31,619.84,270.21,650.22,282.42,681.43Z"/>
    <path class="cls-1" d="M452.43,234.19a235.42,235.42,0,0,1,48.31-17.91c15-3.92,30-7.77,45.69-6.85a24.84,24.84,0,0,1,3.77.4c10.18,2.23,12.85,8.87,7.8,18.11-5.5,10-13.59,14.92-25.07,14.57-10.49-.31-20.86-1.45-30.56-5.5-11.87-4.95-24.12-5.12-36.56-4.15C461.35,233.21,456.89,233.74,452.43,234.19Z"/>
    <path class="cls-1" d="M399.11,238.55c-9.47-1.93-18.85-4.51-28.41-5.61a170.47,170.47,0,0,0-27.4-.5c-3.72.18-7.37,2.44-11,3.93-13.77,5.69-27.62,6.26-41.39.25-5.47-2.39-10.74-13.4-9.72-19.09.86-4.75,6-7.57,13.35-8.08,15-1,29.47,2.22,43.74,6.1C351,219,363.65,223,376.05,227.43c8,2.9,15.54,7.15,23.28,10.8Z"/>
    <path class="cls-1" d="M263,519.18q30.14,88.13,60.27,176.31c-6.57-.17-12.33-4.28-14.14-10Q293,635.22,277,584.9c-6.25-19.61-10.43-39.7-13.79-60-.29-1.79-.64-3.56-1-5.34Z"/>
    <path class="cls-1" d="M303.75,688.38c-3.68-1.1-6.65-1.83-9.48-2.91A4.41,4.41,0,0,1,292.2,683c-12.41-31.93-24.76-63.87-37.23-96.1l13.56-5.73C280.23,616.79,291.89,652.27,303.75,688.38Z"/>
    <path class="cls-1" d="M465.53,481.67l4.63,2.84c-4,5.54-7.84,10.95-11.78,16.29a18.78,18.78,0,0,1-3.71,3.94,31.27,31.27,0,0,1-7.19,4.4c-5.46,2.06-11.27,3.24-16.61,5.53-5.81,2.49-11.65,1.94-17.32.85-6.78-1.3-13.72-2.94-19.87-5.92A25.29,25.29,0,0,1,381.17,497a35.25,35.25,0,0,0-5.82-8.55c-2-2.37-1.88-4.12,1.36-6.15,10.63,15.76,27,22.41,44.5,22.07C438.38,504,454.69,497.44,465.53,481.67Z"/>
    <path class="cls-1" d="M384.89,162.46c37.65,5.79,68,24,92.23,54.28-3.69,1.43-6.48,2.9-9.45,3.48-1.32.26-3.35-.94-4.44-2.07-6.27-6.51-12.3-13.25-18.52-19.81-13.7-14.41-30.68-23.7-48.91-31-3.74-1.48-7.62-2.62-11.43-3.92Z"/>
    <path class="cls-1" d="M431.43,475.62c-11.17-.71-22.83-.56-34.13-2.48-8-1.35-16.65-2.27-23.48-7.62-1.37-1.07-1.83-3.3-2.7-5a24.16,24.16,0,0,1,5,.33c10.68,2.94,21.31,5.88,32.59,5.64,9.71-.22,19.43.21,29.15.09a70.6,70.6,0,0,0,27.88-5.6c1.06-.47,2.46-.15,3.7-.2-.27,1.36-.19,2.94-.87,4.05-2.59,4.21-7.24,4.32-11.42,5.25-3.13.69-6.3,1.22-9.43,1.9C442.43,473.13,437.17,474.34,431.43,475.62Z"/>
    <path class="cls-1" d="M420.94,433.73c-3.65-1.11-6.38-1.49-8.62-2.73-4.28-2.37-5.13-6.55-2-10.32,3.63-4.43,4.59-9.45,4.83-14.93.32-7.17,1.15-14.33,1.48-21.5.16-3.48,2.36-3.2,4.65-3.31s3.08,1,3.19,3.29c.44,8.73.72,17.5,1.88,26.15a20.92,20.92,0,0,0,4.74,10c2.62,3.15,2.7,5.85-.13,8C427.83,430.68,424,432.11,420.94,433.73Z"/>
    <path class="cls-1" d="M373.39,450.33c1.73-.69,3.51-2.08,5.17-1.95,14.17,1.17,28.29,3.07,42.47,3.8,7.21.37,14.53-1.12,21.77-2s14.49-2,21.75-2.88c1.18-.15,2.44.42,5.14.95-1.92,2-2.94,3.8-4.47,4.49a73.72,73.72,0,0,1-33.27,6c-9.85-.36-19.76.5-29.55-.29-7.61-.62-15.09-2.9-22.59-4.6a40.85,40.85,0,0,1-5.87-2.27Z"/>
    <path class="cls-1" d="M650.49,406.22c-10-10.73-14.24-45.38-6.9-58.24,4,4.7,5.61,10.38,6.32,16.08,1.06,8.53,2.47,16.64,6.78,24.45C661.28,396.86,658.5,403,650.49,406.22Z"/>
    <path class="cls-1" d="M191.33,406.22c-6.9-2.41-9.49-7-7.88-13.91a6.23,6.23,0,0,1,.62-2c6.13-9.21,6.76-20,8.76-30.37.8-4.13,2.92-8,4.7-12.67C205.27,360.49,201.37,393.73,191.33,406.22Z"/>
    <path class="cls-1" d="M504,257.6c-18.4-8-37.38-12.92-57.22-16.05,4.81-.78,9.61-2,14.44-2.24,8.71-.38,17.44-.3,26.15-.06a7.81,7.81,0,0,1,5.22,2.66C496.59,247,500.21,252.35,504,257.6Z"/>
  </g>
</svg>
