<svg id="Livello_1" data-name="Livello 1" xmlns="http://www.w3.org/2000/svg" viewBox="0 0 841.89 841.89">
  <defs>
    <style>
      .cls-1 {
        fill: #231f20;
      }
    </style>
  </defs>
  <title>Glos</title>
  <g>
    <path class="cls-1" d="M273,681a5.26,5.26,0,0,1-3.76,4.95c-2.06.62-31.48,10-42.64,18.15-1.29.95-4.15,2.87-5,1.54a2.84,2.84,0,0,1-.06-2.37c1.15-3.54,2.36-7,3.67-10.53a389.07,389.07,0,0,0,19-70.53c3.58-20.78,18.48-105.36,23-113.88,5.27-9.88,10.91-19.48,18.17-28.07A74.18,74.18,0,0,1,301,466.15a38.38,38.38,0,0,1,16.11-6.06,31.44,31.44,0,0,1,24.42,6.7c2,1.57,3.56,3.41,3.84,6.1,1.41,13.69,5.37,26.75,10.2,39.53,12.75,33.72,27.76,66.36,47,97a342,342,0,0,0,34.86,46.7,170.52,170.52,0,0,0,43.06,35.17c4.73,2.66,9.54,5.06,15.06,5.2a35.9,35.9,0,0,0,7.33-.94c.7-.14,3.16-2.07,2.24-3.71-.76-1.37-2.6-1.16-3.34-1-7,1.65-13.11-.55-18.86-4.11a129.18,129.18,0,0,1-11.17-7.82,170.48,170.48,0,0,1-23.29-22.29,481.21,481.21,0,0,1-85.84-140c-3.22-8-5.8-16.36-8.37-24.64-.95-3.09-1.05-6.44-1.47-9.69,0-.24.41-.67.71-.8s1-.25,1.19-.06c2.13,2.53,4.34,5,6.22,7.71,9.46,13.58,19,27.11,27.19,41.51,8,14,17.91,26.83,28.16,39.31a38.87,38.87,0,0,0,18,12.66c7,2.34,13.13.94,18.84-2.92,6.45-4.36,10.79-10.58,11.57-18.34,1.85-18.26-.54-35.45-5.23-53.89a5.17,5.17,0,0,0-.84-1.62,2.22,2.22,0,0,0-2.72.39.85.85,0,0,0-.13.46c1.1,9,2.45,18,3.4,27.06,1.05,9.89,1.69,19.83-1.57,29.5a21.8,21.8,0,0,1-2.56,5.61c-6.24,8.95-16.75,10.07-24.09,5.77a45.34,45.34,0,0,1-9.75-7.56,103,103,0,0,1-11-13.37c-8.63-12.63-17.13-25.36-25.3-38.3-8.85-14-18.38-27.53-28.26-40.8-6.28-8.46-14.13-15-24.35-18.42a35.06,35.06,0,0,0-20.75-.39A49.72,49.72,0,0,0,295,464.11a87.6,87.6,0,0,0-24.57,27.61c-1.81,3.22-3.71,6.41-5.62,9.58-.17.29-.68.44-1.06.53a1,1,0,0,1-1.31-1.34c2.64-13.41,5.9-26.64,11.71-39.1s12.93-24,22.32-34.13c7.33-7.88,14.58-15.85,22.17-23.46a451.58,451.58,0,0,0,37-41.78c2.28-2.93,4.75-5.73,7.23-8.5a4.21,4.21,0,0,1,4.54-1.17,39.4,39.4,0,0,1,5.64,2.51c9.2,3.95.68,19.37-3.57,24.64a161,161,0,0,1-27.71,26.57c-9.53,7.29-19.19,14.42-28.6,21.85C308,432,303,436.44,298.23,441a49.35,49.35,0,0,0-11.56,16,2.33,2.33,0,0,0,.48,2.12,2.41,2.41,0,0,0,2.12.05,3.93,3.93,0,0,0,1.28-1.11q1.49-1.8,2.84-3.71a61.2,61.2,0,0,1,14.9-14.53c4.73-3.35,9.46-6.7,14.34-9.8,10.15-6.47,19.51-14,28.85-21.49a139.21,139.21,0,0,0,24.77-26,27.92,27.92,0,0,1,3.16-3.77,2.55,2.55,0,0,1,2.25-.56c4.34,2.36,8.49,5.06,13.56,5.75,1.48.21,2.72,2.27,2.62,3.78-1,15.1-6.41,28.09-18.09,38.12a37.49,37.49,0,0,1-10.54,6.42c-3.45,1.38-7,2.61-10.44,3.92-2.28.86-3.36,2.38-2.48,3.42,1.2,1.43,2.64.7,4.34.5a38.26,38.26,0,0,0,20.09-8.44,72.09,72.09,0,0,0,16.72-19.82c.58-1,1.42-2.64,2.59-2.44,2,.34,2,2.81,2.07,3.95.33,6.61.54,13.23.75,19.85a5.47,5.47,0,0,0,4.29,5.44C418,441,475,468.38,480.36,489.86c1.19,3.09,21.25,95.53,24.1,112.65a261.38,261.38,0,0,0,18.94,64c9.59,21.48,23.27,40,40.16,56.18,3.87,3.72,8,7.18,10.63,12a4,4,0,0,1-.13,2.33c-.06.27-.57.56-.91.62a9.45,9.45,0,0,1-2.42.26c-2.06-.14-4.12-.35-6.17-.61a42.5,42.5,0,0,0-25.2,4.71c-4.4,2.27-8.89,4.38-13.43,6.37a50.09,50.09,0,0,1-21.69,4.34c-12-.29-24-.09-35.87-2.35-3.5-.66-6.95-1.51-10.44-2.21-1.66-.34-3.31-.73-5-1.14-10.05-2.5-19.92-1.54-29.61,1.93-7.46,2.66-15.05,4.39-23,4.14-1.23,0-1.9-.85-1.86-2.49,0-.4.35-.78.36-1.17,0-3-1.36-4.26-3.51-3.06-8.24,4.56-17.31,5.48-26.39,5.9a198.18,198.18,0,0,1-28.48-1.19C326,749.65,312,746,298,742.41c-6-1.53-11.95-3.59-17-7.31-3.28-2.41-6-5.53-9.13-8.21-.28-.24-1.64.26-2,.78a4.06,4.06,0,0,0-.17,4.62,15.67,15.67,0,0,0,6,6.13c2.77,1.7,5.59,3.31,7.77,4.6.83,1.56.53,2.17-.53,2.5-2,.62-3.91,1.61-5.91,1.76-14.43,1.07-28.82,3.08-43.35,2.22a63.38,63.38,0,0,1-8.56-1.18c-4-.78-6.49-3.38-8.29-6.85a24.3,24.3,0,0,1-2.19-16,11.35,11.35,0,0,1,2.31-5.07,60.32,60.32,0,0,1,7.86-8.27c12.88-10.92,27.53-18.41,44.35-20.69a93.36,93.36,0,0,1,30.87.67c14.24,2.83,27.89,7.53,41.51,12.35,15.19,5.38,30.58,10,46.07,14.49,12.77,3.66,25.84,5.41,39,6.64,4.53.42,9,1,13.58,1.38a9,9,0,0,0,3.43-1c.24-.09.37-.64.45-1s.25-1,.08-1.17a5.64,5.64,0,0,0-2.14-1.2c-4.06-.76-8.11-1.83-12.21-2a206.31,206.31,0,0,1-53.41-10.23c-12.55-4.1-25.14-8.12-37.66-12.35-11.74-4-23.37-8.24-35.6-10.56a4.5,4.5,0,0,1-3-3.58c-.08-3.72-.14-7.43-.1-11.15.49-41.39,2.78-185.45,2.6-189.34a2.24,2.24,0,0,0-4.35-.08c-.33,2.86-3.14,181.2-3.41,192.37-.07,2.46-.43,4.93-.71,7.38a2.55,2.55,0,0,1-2.52,2.26c-3.71.07-7.43-.11-11.13-.38a2.47,2.47,0,0,1-1.61-1.71c-.34-2.86.35-178.36.27-181.13,0-1.18-.95-1.35-1.51-1.41s-1.85.24-1.85,1c0,3-2.39,152.88-2.87,179.3"/>
    <path class="cls-1" d="M527.69,329.58c8.55-5.29,17.14-8.38,25.26-12.44,7.72-3.86,15.21-8.23,23.24-12.61a50.1,50.1,0,0,1,6,3.56c8.1,6.44,16.76,12.06,25.37,17.77,13.68,9.05,28.32,15.23,44.82,16.49a5.94,5.94,0,0,1,2.38.56c.65.36,1.48,1.07,1.54,1.68a92.59,92.59,0,0,1,.57,9.84c-.48,64.08-3.21,310.5-3.34,312.56-.11,1.67-1.59,3.28-3.07,3.23-3.71-.16-108.7-8.67-117.35-9.39a6.17,6.17,0,0,1-5.55-4.19,219.64,219.64,0,0,1-10.09-30.57c-6.19-24.6-9.15-49.5-7.47-74.94,1.26-19,17.12-214.37,17.69-221.55"/>
    <path class="cls-1" d="M270.62,361c5.73,14.58,5.73,14.58,17.19,27.94a17.91,17.91,0,0,1-2.36,2.82c-15.65,12.55-32.66,22.55-52.5,26.85-9.29,2-18.67,3.29-28.22,1.37a19.22,19.22,0,0,1-11.84-7.63,81.94,81.94,0,0,1-8.54-15.55,158.36,158.36,0,0,1-9.85-34.5c-3.84-21.34-3.84-42.85-2.1-64.33a187.5,187.5,0,0,1,10.13-47.18,59,59,0,0,1,11.81-20.21,41.91,41.91,0,0,1,9.52-7.88,26.82,26.82,0,0,1,23.78-2.33,37.16,37.16,0,0,0,5.94,1.58c.51.09,1.51-.72,1.72-1.31a2.47,2.47,0,0,0-.57-2.09c-.85-.86-16-2.42-11.3-8.24,9.28-13,15.07-27.71,21-42.37,2.27-5.61,4.39-11.28,6.44-17a114.55,114.55,0,0,1,9.53-20.34c8.1-13.41,20-21.8,34.94-25.93,4.31-1.19,8.62-3.18,13.32-2.26.32.06.76.29.84.53a1.44,1.44,0,0,1-.09,1.2c-2,2-4.11,4-6.25,5.94-9.31,8.29-14.82,18.69-17.17,30.85a155.86,155.86,0,0,0-2.52,19.66c-1.06,16.51-2.5,33-3.79,49.49-.17,2.06-.42,4.12-.55,6.18q-1.67,24.15-3.31,48.29a22.83,22.83,0,0,1-.28,3.71c-1.27,5.49.22,11.5-3.16,16.58-5.53-.47-39.67-17.09-42-17.85-4.87-1.58-11.25,1.74-13.07,6.75-1.11,3-.21,5.71,1.68,8.11,1.57,2,53.19,27.18,61.72,31.35a28,28,0,0,1,4.28,2.48,3,3,0,0,1,1.25,3.21,10.46,10.46,0,0,1-.7,2.37c-4.74,9.23-8,19-11.16,28.88-.48,1.5-1.12,2.95-1.72,4.51-4.9.87-9.41-.43-13.92-.25-12.06.46-11.3.47-12.86-10.92-1.29-9.42-6.3-37-7.65-41.37a1.54,1.54,0,0,0-.4-.6,3.29,3.29,0,0,0-5.53,1.71c-.18.88,3.81,21.29,5.21,30.87.64,4.37,1.16,8.76,1.51,13.16.63,7.74.06,8.66-7,10.29-3.61.83-7.23,1.71-10.78,2.8a1.08,1.08,0,0,0-.34.19,2.59,2.59,0,0,0,1.64,4.63c1.5,0,18.66-4.89,26.63-4.92,7.18-.69,14-1.11,21.47.73"/>
    <path class="cls-1" d="M582.61,299.45a32.14,32.14,0,0,1,4.18-3.09,49.33,49.33,0,0,1,25.12-5.51,33.36,33.36,0,0,1,16.38,5c2.08,1.29,4.15,2.64,6.26,3.9a1,1,0,0,0,.94-.35c.37-.69,1-1.58.79-2.16a6.61,6.61,0,0,0-1.89-3.05c-2.88-2.32-5.92-4.44-8.8-6.56,0-.87-.3-1.81,0-2.33,7.11-11,10.07-23.46,13-35.92a18.66,18.66,0,0,0,.38-5.94c-.09-1-4.19-2.14-4.78,1.06-.53,2-.78,4.05-1.28,6.05a4.54,4.54,0,0,1-3.34,3.32c-4.4,1.26-8.85,2.38-13.45,1.5-8.76-1.66-17.3.14-25.78,1.79-7.28,1.43-14.46,3.41-21.62,5.34a7.81,7.81,0,0,1-7-1.25c-4.37-3.12-18-12.72-19.75-14.91-1.42-1.76-2.68-7.22-4.68-6.79-1.55.34-2,2.66-2.33,4.15-2,9.3-3.87,18.61-5.55,28a8.82,8.82,0,0,1-5.82,7.31,39.75,39.75,0,0,0-5.48,2.88,35,35,0,0,0-3,2.21c-.9.68-1.07,2.64-.15,3.2.62.38,1.65.77,2.17.52,15.21-7.52,31.36-12.68,47.26-18.4A169,169,0,0,1,606.72,260a11.56,11.56,0,0,1,8.92,2.63c4.87,4.3,3.86,11.66,2.65,18a6,6,0,0,1-5.06,4.74c-2.47.16-5,.2-7.43.28-11.08.37-21.14,3.52-29.59,10.95-8.17,7.19-17.54,12.29-27.52,16.47-7.61,3.19-15,6.94-22.49,10.38a95.59,95.59,0,0,1-9.13,3.81,10,10,0,0,1-9.4-1.66c-4.58-3.35-7.67-7.74-7.67-13.5,0-13.23,24.71-80.47,47.32-102.18a28.14,28.14,0,0,1,13.4-6c13.77-2.64,59.25-11.9,69-14,5.2-1.12,8.71-.72,12.54,2.37a63.93,63.93,0,0,1,16.18,20.18,98,98,0,0,1,10,30.5,153.63,153.63,0,0,1,.85,45.72,267.76,267.76,0,0,1-5.7,30.43,80.77,80.77,0,0,1-2.5,8.3,13.14,13.14,0,0,1-14.69,8.77,44.67,44.67,0,0,1-9.59-2.36,131.37,131.37,0,0,1-13.64-5.85A202.81,202.81,0,0,1,586,303.34a31.94,31.94,0,0,1-3.41-3.89"/>
    <path class="cls-1" d="M214.72,699.61c-.61-.4-25.95-272.37-25-278.4,2-.79,3.42,0,4.91.7,8.88,4,18.14,5,27.82,4a104.37,104.37,0,0,0,29.77-8c12.65-5.34,24.12-12.63,35.12-20.75a46.71,46.71,0,0,0,15.73-20.31c1.56-3.81,3-7.69,4.49-11.54,1.93-5,3.94-10,5.79-15a11.49,11.49,0,0,1,6.75-6.82l13.61-5.79c5.62.2,9.92,3.87,14.92,5.68a62.7,62.7,0,0,1,7.76,3.82c1.95,1,2.26,3.28.63,5.13-2.19,2.47-4.49,4.85-6.73,7.28Q325.08,387,299.88,414.38c-4.45,4.88-8.56,10.09-12.77,15.19a128.34,128.34,0,0,0-28.69,63.58c-2.85,18.79-5.77,37.56-9.07,56.27-3.58,20.35-7.51,40.63-11.53,60.89-2.73,13.77-5.73,27.49-8.88,41.18-3.43,14.89-13.77,47.46-14.22,48.12"/>
    <path class="cls-1" d="M363.24,249.48c5.59-9.26,40.49-58.11,56-78.38,1-1.27,2.15-2.39,3.08-3.41,1.19.21,2.15.11,2.68.53q21.85,17.35,43.63,34.82a5.11,5.11,0,0,1,1.59,1.85,3,3,0,0,1,.08,2.31c-1.26,2.11-84.47,107.13-86.06,109-1,1.23-2,2.56-3.87,2.63-1.16.05-2-1.24-2-4A156.76,156.76,0,0,0,376,293.91c-2.33-15.19-5.84-30-12.8-44.43"/>
    <path class="cls-1" d="M325.3,225.38c5.26,9.15,12.44,14.61,20,19.66,2.74,1.83,5.33,3.89,7.89,6A35.68,35.68,0,0,1,365,268.09a151.16,151.16,0,0,1,4.36,16.73c2.44,12.14,4.35,24.36,3.8,36.82-.07,1.63-.4,3.25-.63,4.87-.12.84-2,1.85-2.94,1.61a64.45,64.45,0,0,1-16.85-7.44,5.78,5.78,0,0,1-2-3c-1.27-3.78-4.13-4.85-7.71-4.82-1.65,0-3.3.08-4.95.14-2.15.09-3.91-.37-5.23-2.4a9.44,9.44,0,0,0-8.25-4.66,7.82,7.82,0,0,1-6.56-2.71,7.45,7.45,0,0,0-6.58-2.77c-5.6.61-10.52-1.14-15.38-3.56s-9.68-4.57-14.5-6.89a4.32,4.32,0,0,1-2.43-4c-.05-2.47.07-4.95.25-7.41.7-9.46,1.38-18.92,2.18-28.37.38-4.51,1-9,1.55-13.51.32-2.38,1.58-3.19,4.41-3.1q3.71.12,7.41.31a45.61,45.61,0,0,0,23.82-5.36c1.79-.93,3.63-1.78,6.5-3.19"/>
    <path class="cls-1" d="M291.19,138.65a2.62,2.62,0,0,1,2.85-1.9,31.35,31.35,0,0,1,4.88.7A132.36,132.36,0,0,0,354,142.51a11.77,11.77,0,0,1,3.7.1c.68.14,1.66.86,1.75,1.43.5,3.35.13,7-2.17,9.26-2.61,2.6-6.48,4.43-10.22,2.6-5.58-2.74-16.75-2.1-21.37.59a2.79,2.79,0,0,0-1.13,2c.07.65,1,1.69,1.52,1.71,3.34.11,4.72,2.53,6.44,4.81a4.3,4.3,0,0,0,6.54.15c1.14-1.16,2-2.61,3.21-3.69.4-.37,1.48-.11,2.22,0a1.33,1.33,0,0,1,.72,1c.74,5.6.17,10.72-5.17,14.16-.89.57.66,2.37,1,2.39a6.22,6.22,0,0,0,6.63-4.38c.83-3.19,1.36-6.45,2.2-9.64.43-1.6,1.66-3.88,4.39-3.71,1.19.09,1.17,1.64,1.09,2-1.62,7.22-2.44,14.69-6.31,21.24a44.7,44.7,0,0,1-2.72,4.14c-1,1.42-2.55,2.19-4.27,1.45a17.36,17.36,0,0,0-7.23-1.4,10.25,10.25,0,0,0-6.77,2.6c-2.91,2.54-2.63,5.91.48,8.36,2.41,1.9,5.31,2.2,8,3.24,2,.78,2.73,2.6,2.17,5.12-1,4.53-2.36,5.74-6.61,5.78-3.3,0-6.56,0-9.75-1.25-15.84-6.45-26.31-18.22-33.15-33.5a19.46,19.46,0,0,1-1.38-7.24c-.09-3.71,2.43-30.42,3.33-33.16"/>
    <path class="cls-1" d="M505.87,116.36c-5.21-3.76-8.2-8-8.47-13.79-.26-5.57,1-6.63,5.13-8.71C514.78,87.62,602,75,577.12,144.58a1.64,1.64,0,0,1-3.13-.16c-.68-2.73-1.45-6-1.91-7.78a40.13,40.13,0,0,0-10-18.26,36.77,36.77,0,0,0-26.46-11.62,42.57,42.57,0,0,0-20.29,4.59c-3,1.47-5.83,3.08-9.46,5"/>
    <path class="cls-1" d="M567.2,159.55c-1.86,7.93-9.14,19.17-16.46,21.65-6.07,2.07-9.17-.83-9.24-7.35,0-1.21-.17-2.41-.24-3.48a45.56,45.56,0,0,1-4.52-2.16,2.4,2.4,0,0,1-.27-4.06c2.13-1.24,4.34-2.34,6.39-3.69a2,2,0,0,0,.12-2.09c-.67-.93-2.57-.42-3.34-.16-2.72.89-5.42,1.84-8.06,2.73-3.77-1.12-4.1-6.46-8.61-6.6-.78,0-2-1.67-2.17-2.7-1.43-10.25-5.23-19.85-7.92-29.76a4.55,4.55,0,0,1,1.74-4.3c11.47-6.9,23.43-7.66,35.35-1.78a30,30,0,0,1,17.18,24.1c.84,6.49,1.59,13,.05,19.65"/>
    <path class="cls-1" d="M632.17,678c3,.39,3.86,1.43,4.44,4.89.27,1.62.47,3.26.7,4.88,1.23,8.61,3.41,16.91,7.61,24.61a37.51,37.51,0,0,1,4.44,15.29,27,27,0,0,1-6.66,20.54c-3.59,4.15-7.55,3.71-11,1.1a30.91,30.91,0,0,1-6.78-7.06,222,222,0,0,1-12.4-19.88,174.77,174.77,0,0,1-14.82-39.12,34.11,34.11,0,0,1-.61-4.87,3,3,0,0,1,3.1-3c3.28.1,24.6,1.7,31.94,2.63"/>
    <path class="cls-1" d="M404.55,324.68c-6.44,1.4-12.38,4-17.31,8.73-2.53,2.43-6.14.48-8.37-1.72,1.91-2.55,4.15-5.69,6.2-8.27q43.2-54.3,86.45-108.58c1-1.28,2.19-2.44,3.32-3.64a2.83,2.83,0,0,1,3.36,0,20.48,20.48,0,0,1,6.54,8.83,5.18,5.18,0,0,1-.32,4.75,28.46,28.46,0,0,1-2.15,3l-77.72,96.86"/>
    <path class="cls-1" d="M292.13,382.36a12.29,12.29,0,0,1-2.29-.86c-4.81-2.86-8-7.2-10.28-12.12a13.69,13.69,0,0,1-.86-9.7c.56-2,1.34-3.91,1.95-5.88,2-6.32,3.83-12.66,5.82-19,1.62-5.13,3.26-10.25,5.89-15,3.33-6,7.95-10.57,14.37-13.12a13.88,13.88,0,0,1,4.83-.67,2.6,2.6,0,0,1,2,1.13,2.64,2.64,0,0,1-.06,2.31,16.43,16.43,0,0,1-3.24,3.66c-2.89,2.35-5.94,4.5-8.9,6.75-.65.49-1.2,1.12-1.8,1.67-.89.8-.91,2.8,0,3.18.72.29,1.78.73,2.26.43,4.13-2.71,8.28-5.42,12.2-8.43a27.07,27.07,0,0,1,8.59-4.8,5.55,5.55,0,0,1,2.41-.27,3.4,3.4,0,0,1,2.09,1.06,2.33,2.33,0,0,1,.17,2.2,27,27,0,0,1-5.14,5.26c-4.09,2.79-8.49,5.13-12.69,7.76a9.64,9.64,0,0,0-2.49,2.56c-.62.86-.32,1.77.63,1.94,1.16.21,2.62.58,3.51.09,5.4-3,10.82-6.05,16-9.49a35.52,35.52,0,0,1,10.13-4.44,9.34,9.34,0,0,1,3.69-.07,2.89,2.89,0,0,1,1.94,1.16,2.73,2.73,0,0,1,0,2.32,17.59,17.59,0,0,1-3.07,3.8c-4.94,4.48-10.68,7.78-16.62,10.74-2.59,1.28-5.22,2.49-7.88,3.61a8.08,8.08,0,0,0-4.47,4.06c-1.88,4.13-3.75,8.27-5.43,12.48-2.6,6.52-5,13.14-7.61,19.65a22.24,22.24,0,0,1-3.36,5.13c-.43.53-1.47.57-2.23.83"/>
    <path class="cls-1" d="M487,250.14c0,19,2.42,12.85-9.71,27.59-5,6-10,12.07-15,18.11a8.13,8.13,0,0,1-6.31,3.27c-5.35.21-9.28,3.2-12.38,7.27s-5.75,8.05-8.67,12a7.27,7.27,0,0,1-7.43,3.27c-3.23-.45-6.56-.17-9.85-.26a1.31,1.31,0,0,1-1-.6c-.22-.69-.55-1.67-.24-2.14,1.37-2.06,2.89-4,4.45-5.94q28.66-35.69,57.39-71.34c1.55-1.92,3.13-3.84,4.82-5.64a4.45,4.45,0,0,1,2.14-.82c.86-.21,1.76,1.16,1.77,2.82,0,4.12,0,8.24,0,12.37"/>
    <path class="cls-1" d="M632.53,174.86a5.12,5.12,0,0,1,.56,5.78,7.83,7.83,0,0,1-3.36,3.38c-4.22,1.61-8.56,2.93-12.91,4.11-3.28.89-6.53.89-9.27-1.7s-6.43-3.53-10.17-4a55.78,55.78,0,0,1-6.07-.87,2.35,2.35,0,0,1-1.39-1.78c.25-2.45.8-4.86,1.21-7.29,1.1-6.65-.37-12.26-6.42-16.1a6.85,6.85,0,0,1-2.49-2.61,4.53,4.53,0,0,1-.39-3.45,43.42,43.42,0,0,1,10-12.4c1.58-1.42,3.92-1.2,5.93-.68a16.82,16.82,0,0,1,9.9,6.95,20.18,20.18,0,0,1,3.9,11.52c0,3.3.08,6.59.08,9.89a39.59,39.59,0,0,0,2.64,13.28c.52,1.45,1.85,2.64,2.91,3.86a2.2,2.2,0,0,0,3.22-.06c.45-.58,1-1.74.76-2.11-4.14-6.13-4.77-13-4.48-20.07a6,6,0,0,1,.39-2.41,3.31,3.31,0,0,1,1.64-1.62,2.68,2.68,0,0,1,2.22.26,7.26,7.26,0,0,1,2.3,2.79A48.4,48.4,0,0,1,626.46,174c.11,1.65,1.11,2,3.67,1.38l2.4-.5"/>
    <path class="cls-1" d="M295.92,127.9c2-1.08,3.7-2.47,5.6-2.91,5.2-1.21,10.48-2.07,15.75-2.94,3.65-.61,7.33-1,11-1.52a105.46,105.46,0,0,1,23.42-.6,48.3,48.3,0,0,1,9.62,2,13.55,13.55,0,0,1,7.67,5.87,3.73,3.73,0,0,1-.3,4.5,12.42,12.42,0,0,1-7.44,4.06c-10.59,1.53-21.21,3-32,1.44-7.72-1.12-15.63-1-23.12-3.62a66.29,66.29,0,0,1-8-3.15c-.93-.46-1.38-1.87-2.25-3.15"/>
    <path class="cls-1" d="M416.89,351a2.47,2.47,0,0,1,.79,2.91,10.13,10.13,0,0,1-1.11,2.19c-4.72,6.2-9.45,12.4-14.32,18.49-3.61,4.51-9.74,4.75-14,.78-2.77-2.58-9.81-14.42-4.8-22.44,2.61-4.17,12-18.42,15.71-19.4a1.68,1.68,0,0,1,.88.06A4.26,4.26,0,0,1,402.5,336c2.26,6.67,7.14,11,13.23,14.23a9.65,9.65,0,0,1,1.16.77"/>
    <path class="cls-1" d="M227.56,271.92a12.56,12.56,0,0,1,3.12.67q31.86,14.67,63.68,29.45a2.52,2.52,0,0,1,.89,4,20.32,20.32,0,0,1-3.36,3.56,4.93,4.93,0,0,1-3.39.83c-1.57-.27-62.31-29.43-63.38-30-2.08-1.19-3.44-3.57-2.79-5,.94-2,2.68-3,5.23-3.51"/>
    <path class="cls-1" d="M286.53,192.36a3.39,3.39,0,0,1,3.49,1A75.51,75.51,0,0,0,319.47,217c2.4,1.09,2.54,3.29.69,4.66-4.75,3.49-26.45,7.52-31.75,6.48a5.93,5.93,0,0,1-4.43-5.24c0-.82,1.84-23.67,2.55-30.49"/>
    <path class="cls-1" d="M556,671a5,5,0,0,1,4.75,3.31c4.29,12.13,7.06,24.54,5.94,37.53,0,.32-.4.84-.65.86-.76.06-1.82.24-2.27-.17-12.31-11.33-21.5-24.91-28.68-39.93a2.6,2.6,0,0,1,2.43-3.34c3.28.3,15.59,1.57,18.48,1.74"/>
    <path class="cls-1" d="M431,329.45c8.23-1.06,19.58-20.4,21.67-22.91,6.27,2-4.18,20-11,25.38C436.14,336.19,431.29,340,426,344a8.75,8.75,0,0,1-10.34.22,20.58,20.58,0,0,1-6.74-7.08c-2.31-4.18-.91-7,3.67-8.42a25.3,25.3,0,0,1,13.4-.58c1.58.37,3.08,1.57,5,1.33"/>
    <path class="cls-1" d="M378.5,339.28a4.57,4.57,0,0,1,1.35,7.15c-1.73,1.91-3.86,3.43-5.75,2.58q-14.61-6.61-29.17-13.36c-4.13-1.92-4.39-3.26-1.42-6.13a28,28,0,0,1,2.74-2.49,4.55,4.55,0,0,1,4.63-.86c7.16,3.19,20.57,9.59,27.62,13.11"/>
    <path class="cls-1" d="M340.16,114.19c-10.85-.57-21.44,1.33-32,3.36-1.14.21-2.51.64-3-.75s.78-2.24,1.66-3a60.83,60.83,0,0,1,15.45-10.22,18.17,18.17,0,0,1,13.28-1.15c6.33,1.93,12.47,4.38,17.52,8.92.78.69,1,1.37.31,2.18-.22.27-.54.68-.82.68-4.12,0-8.25,0-12.39,0"/>
    <path class="cls-1" d="M576.11,159.34c2.76-.49,9.24,6.89,9.25,9.68,0,4,.07,7.73-1.76,10.82-2.08,3.52-17.88,4.58-21.55,5-3,.31-2.94-1.3-2-2.33,5.87-6.43,13.55-22.67,16.07-23.13"/>
    <path class="cls-1" d="M600.15,187.19c1.1.71.42,2.69-1,3.07-3.53.93-28.33,5.63-37.16,7.22-.39.07-3,0-3.41-2.12a3,3,0,0,1,1.86-3.42c11.91-2.69,35.72-7.28,39.7-4.75"/>
    <path class="cls-1" d="M536.74,272.56c-2.12-1.64.45-11.93,1.51-17.07.29-1.38,2.81-2.31,4-1.51,2.73,1.76,14.59,8.07,13.51,11.26-.82,2.43-18,8.17-19.06,7.32"/>
    <path class="cls-1" d="M625.82,271.66c-.3,0-3.7-6.16-3.21-9.4.22-1.51,6.85-1.94,6.66.44-.1,2.94-3.15,8.68-3.45,9"/>
  </g>
</svg>
