<svg id="Livello_1" data-name="Livello 1" xmlns="http://www.w3.org/2000/svg" viewBox="0 0 841.89 841.89">
  <defs>
    <style>
      .cls-1 {
        fill: #231f20;
      }
    </style>
  </defs>
  <title>Glos</title>
  <g>
    <path class="cls-1" d="M425.56,535.15c18.14,6.36,29.41-3.06,38.05-13.24,11.46-13.5,15.59-29.91,18.67-46.71.91-5,1.32-10.06,1.88-15.1.72-6.52-3.66-12.37-10-12.89-7.28-.6-15.69,2.57-18.36,10.56a4,4,0,0,1-1.51,2.19c-8.82,4.8-18,8.74-27.92,10.58a7.69,7.69,0,0,1-1.5-.14c0-6.5,0-13,.09-19.55,0-.64,1.2-1.54,2-1.82,5.79-2.06,11.46-4.17,15.67-9,1-1.18,2.82-1.68,5.11-3-.32,2.23-.75,3.45-.6,4.6a30,30,0,0,0,1.34,4.53c1.61-.54,4-.6,4.68-1.72,3.24-5.17,6.48-10.71,3.49-17.05-3.07-6.49-8.28-10-15.77-9.54a7.83,7.83,0,0,1-1.11-.07c-.63-6.12-.91-12.12-2-18S435,388.2,433.66,383c1.13-1.58,3.14-3.22,2.89-4.35-.33-1.46-2.27-3.13-3.86-3.64a35.7,35.7,0,0,0-23.1.23,5.9,5.9,0,0,0-3.33,3.7c-.21,1,1.68,2.42,3.18,4.38a86.64,86.64,0,0,0-5.66,34.58c-6.52-.83-11.66,1.16-15.55,6.07-4.38,5.54-3.3,17,2.21,21.42a4.74,4.74,0,0,0,4.07.49c.82-.34,1.29-2.19,1.4-3.41.12-1.41-.34-2.88-.7-5.44,2.25,1.3,4,1.82,5,3,4.23,4.82,9.9,6.94,15.67,9a3.27,3.27,0,0,1,1.91,2.2c.16,6.32.09,12.65.09,19.5-2.14-.38-4.1-.42-5.82-1.08-7.39-2.83-14.75-5.74-22-8.85a6.61,6.61,0,0,1-3-3.35c-3.21-7.76-12.61-12.23-20.65-9.63a10.73,10.73,0,0,0-6.81,10c1.3,24.08,6.17,47.12,21.86,66.41,7.1,8.73,16.18,14.12,28,12.84a72.07,72.07,0,0,0,8.26-1.87c0,3.6.18,7.16-.14,10.67-.07.83-1.72,2-2.79,2.18-19.88,3.52-36.47-2.48-49.57-17.75-10.75-12.54-16.07-27.56-18.79-43.59a136.61,136.61,0,0,1-.86-38.63c.13-1.14.41-2.57-.11-3.39-.63-1-2.21-2.22-3.09-2a4.5,4.5,0,0,0-2.82,2.84,69.57,69.57,0,0,0-1.06,8.72,9.12,9.12,0,0,1-5.9-7.6,5.23,5.23,0,0,1,1.13-3.59c6.33-7.49,12.77-14.9,19.23-22.27,1.48-1.69,2.28-3.45.39-5.09s-3.61-.75-5.14.87c-6.37,6.69-12.78,13.35-19.15,20.05-.95,1-1.75,2.13-3.11,3.81-2.28-3.06-4.21-5.42-5.8-8-.36-.58.27-2.08.84-2.87,4.39-6,8.24-12.2,10.35-19.42a7.16,7.16,0,0,0-1.13-6.76c-3-4.21-5.93-8.5-9-13l6-7.93c7.29,8.45,16.9,10.72,27.17,11.26,14.37.75,27.78-2.05,39.49-10.91A26.57,26.57,0,0,0,404.11,368c.76-2.88-.17-4.66-2.47-6.1a2.37,2.37,0,0,0-.62-.3c-6.45-1.55-10.14-6.49-14.25-11.14-8.07-9.12-17.46-16.48-29.55-19.62-12.61-3.27-24.62,1.25-31.87,11.83-1.28,1.88-2.29,3.9-.21,5.5,2.28,1.75,3.88.19,5.35-1.82,6.72-9.25,15.48-12.23,26.44-9s19.24,10.48,26.84,19.22c-19.65-1.84-37.07,2.72-52.61,14.14A62.13,62.13,0,0,0,313.62,391c-1.93,3.45-4.55,6.51-6.83,9.73-1.17-7-2.85-13.61-3.23-20.27a68.61,68.61,0,0,1,4.33-27.5c8.86-24.27,25.64-39.32,51.58-42.92,11.32-1.57,22.34,1.18,32.61,5.72,8.8,3.89,17.17,8.82,25.47,13.72,2.83,1.67,4.66,1.83,7.3-.08,11-7.93,22.92-14.1,36.1-17.53,33.76-8.78,63.77,9.8,74.62,40.53a80.37,80.37,0,0,1,4.5,27.84,15.09,15.09,0,0,1-.19,2.42c-1,5.86-1.93,11.71-3,18-2.21-3-4.81-5.92-6.67-9.23-11.59-20.59-29.61-31.42-52.54-34.52-5.87-.79-11.95-.12-18.75-.12a44.39,44.39,0,0,1,3.76-4.2c8.14-7,16.21-14,27.32-16C499.12,335,506.34,338,512.1,345a21,21,0,0,1,1.44,2c1.16,1.8,2.73,2.67,4.66,1.45,2.14-1.36,1.7-3.19.51-5.09-7.22-11.56-21.05-16.37-34.91-11.62C471,336,460.7,344,452.5,354.66a16.72,16.72,0,0,1-7.83,5.7c-6.78,2.53-7.62,4.7-4.62,11.29,4.55,10,13.16,15.26,23,18.6a65.46,65.46,0,0,0,36.14,2.05c7.49-1.7,11.59-4,17-9.5a14.46,14.46,0,0,1,1.25,1.1c5.28,5.72,5.27,5.72.93,12a28.07,28.07,0,0,1-2.71,4c-4.7,4.79-4.49,10-1.47,15.43,2.57,4.62,5.2,9.23,8.19,13.58,1.27,1.86,1.49,3.12.1,4.76-1.63,1.91-3.22,3.85-5,5.93-7.51-7.81-14.68-15.34-22-22.74a7.11,7.11,0,0,0-3.8-1.81c-.68-.11-2.2,1.07-2.21,1.69a6.34,6.34,0,0,0,1.17,4c5.79,6.74,11.81,13.28,17.65,20,4.3,4.93,3.2,9.74-3.28,13.46-.25-2.66-.42-5.14-.73-7.6-.27-2.16-.84-4.37-3.66-4s-2.86,2.38-2.63,4.7c2.13,21.39.85,42.4-7.4,62.56-4.86,11.86-11.68,22.4-22.36,29.76-12,8.25-25.32,11.31-39.8,8.61-2.26-.42-3.4-1.36-3.22-3.88.2-2.75,0-5.54,0-8.31C425.22,535.76,425.39,535.55,425.56,535.15Zm-4.08-179c2.48,3.7,4.46,7.11,6.94,10.11a4.79,4.79,0,0,0,4.33,1.17c2-.82,2-2.84.76-4.67-2.95-4.4-5.8-8.86-8.84-13.2-1.88-2.68-4.63-2.6-6.5.1-2.88,4.17-5.63,8.43-8.45,12.64-1.22,1.82-1.76,3.72.33,5.14s3.61.36,4.86-1.56C417,362.69,419.13,359.59,421.48,356.13Z"/>
    <path class="cls-1" d="M297.61,369.35c-10.28-14.23-24.08-22.09-40.07-27.07a129.71,129.71,0,0,1,17.21-26.11c15.3-18.05,33.83-31.2,57-37.18a92.16,92.16,0,0,1,52.16,1.77c16.52,5.32,33.33,6.45,50.54,5,9.39-.81,18.27-3.26,27.27-5.73,34-9.31,64.35-1.75,91.26,20.39,14,11.51,25.49,26.42,32.24,40.33-7.13,3.51-14.68,6.36-21.25,10.7s-12.31,10.25-18.3,15.38c-.66-3-1.27-6.93-2.39-10.69-8.09-27.27-25-45.83-53.52-51.5-22.26-4.43-42.74,1.38-61.45,13.85-2.3,1.53-4.51,3.18-6.07,4.29-8.54-4.63-16.38-9.92-25-13.35-23.38-9.35-46.51-9-68.09,5.26-17.53,11.61-26.79,28.74-30.64,49.07C298.25,365.4,298,367.08,297.61,369.35Z"/>
    <path class="cls-1" d="M451.44,277.15c4.72-9.82,8.18-19.4,14.82-27.36,4.8-5.75,9-12,14-17.54C490.65,221,503,212.66,518,208.93a52.92,52.92,0,0,1,22.49-.45c-3.35,1.67-5.86,2.88-8.34,4.17-8.65,4.51-16.78,9.72-23.18,17.25-.74.87-1.37,1.85-2.08,2.76-1.46,1.87-.94,3.54.77,4.77s3.11.44,4.41-1.11c13.15-15.66,30.43-24,50.24-27,35-5.37,67.94,2.57,99.33,17.7a225.29,225.29,0,0,1,31.68,18.18c35.32,24.83,63.48,56,82.14,95.33,1.37,2.9.94,4.27-2.08,5.35a20,20,0,0,1-15.47-.49,10.36,10.36,0,0,1-4.89-5.72c-7.65-23.91-21.36-43.71-39.86-60.47-32-29-69.76-46-111.91-53.79-18.82-3.46-37.81-4.18-56.85-1-7.4,1.22-13.7,4.43-19.69,8.66-16.4,11.58-32.89,23-49.26,34.66C468.42,272.66,460.37,274.82,451.44,277.15Z"/>
    <path class="cls-1" d="M65.67,345.63c12.5-28.61,30.54-53.07,52.88-74.37,25-23.85,53.74-41.78,86.48-53.06,20-6.88,40.53-10.76,61.7-9.58,17.58,1,34.87,3.88,49.66,14.45,5.47,3.91,10.13,9,15.32,13.29,1,.83,3,1.45,4,1a2.74,2.74,0,0,0,.94-4.62c-3.95-4.17-7.72-8.68-12.32-12-6.21-4.51-13.13-8.06-19.71-12,9.08-2.05,18.27-.81,27.17,2.19,15.47,5.22,27.31,15.56,37.51,27.95,9,11,15.7,23.29,21.22,36.3a7,7,0,0,1,.2,1.7,64.18,64.18,0,0,1-25.69-11.29c-15.05-10.7-30.35-21-45.19-32a52.57,52.57,0,0,0-29.5-10.39c-66.81-3.25-123.67,19.43-171,66.35C104.75,304,95.79,322.08,89.23,341.33c-1.72,5-4.94,6.79-9.62,7.22C74.65,349,69.71,349.33,65.67,345.63Z"/>
    <path class="cls-1" d="M359.22,534.23c4,4.08,8.27,8.25,12.26,12.66.83.91.9,2.76.86,4.16-.34,9.59-3.86,18.36-7.26,27.14-7,18-17.36,33.6-33.16,45a75,75,0,0,1-39.75,14.2A37.86,37.86,0,0,1,279.9,636c-12.06-3.32-16.78-14.11-11.57-25.54s14-19.34,24.61-25.4a87.62,87.62,0,0,1,22.71-8.65c19.38-4.81,34.61-15.26,41.9-34.85A51.84,51.84,0,0,0,359.22,534.23Z"/>
    <path class="cls-1" d="M484.85,533.5c2.36,16.48,12.37,27.31,26,35.4,7.19,4.26,15.23,6,23.26,8.11,14,3.76,26.36,11,35.73,22.42,4.77,5.82,8.61,12.2,8.26,20.29a14.86,14.86,0,0,1-7.77,13,31.45,31.45,0,0,1-19.65,3.9c-30.55-3.22-51.3-20.33-65.44-46.61-5.94-11-10.89-22.5-13-35-.74-4.36-.78-8,3.36-11.21C479.18,541,481.77,537,484.85,533.5Z"/>
    <path class="cls-1" d="M528.49,238.35c3-4.56,7.17-6.23,12-7,53.54-8.52,101.55,6,145.79,35.37C703.91,278.42,720,292.06,731.9,310c5.64,8.51,10.25,17.48,12.83,27.41.16.63.2,1.29.37,2.44-2.21-1.13-4-2.11-5.83-3-6.3-2.95-12.91-2.79-19.62-2.09a4,4,0,0,1-3.17-1.23c-6.64-9.54-12.76-19.47-19.73-28.76-25.17-33.58-59-54.08-99.32-64.34-17-4.32-34.32-5.59-51.78-4.81-4.9.22-9.75,1.4-14.63,2.16C530.17,237.92,529.33,238.16,528.49,238.35Z"/>
    <path class="cls-1" d="M315.1,237.44c-9.89-.41-19.64-1.29-29.37-1.13q-61.37,1-109.81,38.84c-18.71,14.67-33.51,32.65-45.91,52.69-3.57,5.76-6.68,10.33-14.62,8.38-2.77-.68-6.15.45-9.08,1.31s-5.69,2.41-8.85,3.8c.14-.94.2-1.78.4-2.58,3.71-14.89,11.33-27.49,21.79-38.68C151,266.53,189.87,245.94,233.58,234a151.88,151.88,0,0,1,72.94-1.87A15.38,15.38,0,0,1,315.1,237.44Z"/>
    <path class="cls-1" d="M196.12,401.18c.55-8.56,5.26-14.91,12.53-19.55,11.28-7.21,23.84-9.07,37-9,14.26.08,27,4.17,37.82,13.49,6.16,5.29,10.79,11.59,12.79,19.65.57,2.3.18,3.73-2,4.67a34.94,34.94,0,0,0-3.32,1.85c-4.13,2.34-7.57,3.89-11.92-.79-4.8-5.17-11.8-4.91-18.19-2.89-8.41,2.65-16.68,5.79-24.94,8.92-8.45,3.19-17,5-25.92,2.33A19.44,19.44,0,0,1,196.12,401.18Z"/>
    <path class="cls-1" d="M420.31,504.57c14.12-.29,26.08-2.92,35.33-12.61,8.33-8.73,11-18.84,7-30.51-.42-1.28.14-3.91,1.08-4.44a24.76,24.76,0,0,1,9.09-3.4c3.56-.38,5.32,2.06,5,5.86-1.19,15-3.65,29.82-10.16,43.51-3.74,7.85-8.41,15.29-15.06,21.23-8.66,7.74-17.86,8.84-27.93,3.1-2.11-1.2-4-1.6-6.13-.21-10.73,7-21.51,4-29.78-4.22-8.56-8.53-13.4-19.18-17-30.51a131.57,131.57,0,0,1-6-32.89c-.25-4.65,2.41-6.94,7-5.77a18.34,18.34,0,0,1,6.79,3.7c.89.73,1.28,3,.85,4.21-3.56,10.11-1.85,19.37,4.6,27.64,6.87,8.81,16.31,13.24,27.29,14.54C415.41,504.16,418.51,504.4,420.31,504.57Z"/>
    <path class="cls-1" d="M624.24,419.92c-10.52.12-19.74-4-28.76-8.78-6.46-3.39-13.18-5.55-20.54-5.07-5.76.36-10.92,2-14,7.45-.89,1.59-1.9,1.72-3.39.94-3-1.54-6-3-9-4.48-1.72-.85-2.08-2-1.54-3.94,3.07-11.12,10.27-19,19.78-24.82,20.38-12.46,41.69-12.78,63.11-3.25,4.93,2.2,9.44,6.29,13,10.49,5.37,6.38,5.48,14,1.5,21.3-3.71,6.84-10.11,9.39-17.44,10.15C626.1,420,625.17,419.92,624.24,419.92Z"/>
    <path class="cls-1" d="M190.79,337.34A172.4,172.4,0,0,1,244.55,282c17.86-11.66,37.15-19.82,58.27-23.29a144.51,144.51,0,0,1,38.64-.92c1.13.12,2.19.89,3.59,1.48-7.14,1.16-14,1.5-20.34,3.41-33.6,10.1-63.15,26.66-84.63,55.32-3.22,4.3-5.56,9.24-8.51,13.76-.65,1-2.28,2.19-3.24,2a69.87,69.87,0,0,0-36,3.23C192.05,337.1,191.73,337.14,190.79,337.34Z"/>
    <path class="cls-1" d="M498.91,258.92a26.11,26.11,0,0,1,4.33-1.21c38-3.86,71.83,6.89,102.49,28.85a169.18,169.18,0,0,1,43.89,45.72c.68,1.05,1.32,2.13,2.42,3.91-13.27-4.93-26.19-5.39-39.4-3.14-10.73-21.83-27.5-38.09-48-50.41-20.14-12.09-41.3-21.89-65.44-22.85Z"/>
    <path class="cls-1" d="M333.54,251.33c-24.4-2.17-46.87,2.43-68.23,12.07-39.81,18-69.56,46.57-88.67,86-1.44,3-3.77,2.94-6.21,3.28a13,13,0,0,1-3.11,0c-3.54-.41-7.07-.88-10.8-1.35,4.17-13.33,11.21-24.73,19.23-35.67,13-17.69,30.67-29.69,48.59-41.65,22.25-14.84,46.27-25.18,72.58-29.74,7.85-1.35,16-.71,24.08-.95a2.92,2.92,0,0,1,1.63.46C326.1,246.08,329.53,248.52,333.54,251.33Z"/>
    <path class="cls-1" d="M511.72,250c3.44-2.23,6.62-5.42,10.4-6.45,4.43-1.21,9.41-1,14.08-.61,32.91,2.82,61.47,16.78,88.83,34.24,21.52,13.72,39.42,30.79,52.4,52.78,3.61,6.11,6.37,12.72,9.85,19.77-4.68.61-8.47,1.17-12.27,1.56-4.66.48-7.5-1-9.85-5.8C653.23,321.12,636,301,614.54,284.53c-20.08-15.44-42.29-26.29-67.19-31.32-10.75-2.17-21.6-3.4-32.61-2.51-.9.08-1.81,0-2.72,0Z"/>
    <path class="cls-1" d="M506.77,205.87c-16.73,7.19-28.6,18.84-39.81,31.67-9.86,11.29-16.62,24-21.95,37.82a4.87,4.87,0,0,1-2.93,2.59c-3.44.86-7,1.29-11.41,2-.11-4.45-.57-8.54-.26-12.56a104.43,104.43,0,0,1,16.06-48.31c6.39-10.14,15.44-14.8,27.12-14.71,10.26.08,20.52.44,30.77.71A12.77,12.77,0,0,1,506.77,205.87Z"/>
    <path class="cls-1" d="M411.91,279.75a107.74,107.74,0,0,1-11.52-1.52c-1.29-.3-2.67-2-3.22-3.43-7.29-18.43-17.34-35.08-31.37-49.2a90.72,90.72,0,0,0-26.13-18.48c-.6-.28-1.18-.58-1.76-.88L338,205c9.6-.12,19.21-.45,28.81-.27a58.74,58.74,0,0,1,13.64,1.86c3.19.83,6.68,2.31,8.92,4.6A52.66,52.66,0,0,1,399,224.06c5.89,11.8,10.94,24.07,12.74,37.26C412.57,267.17,411.91,273.21,411.91,279.75Z"/>
    <path class="cls-1" d="M652.31,389.7c-2-2.72-3.5-5.13-5.35-7.26-9.1-10.48-21.1-15.55-34.5-17.1-20.3-2.35-39.08,2.05-55.14,15.1-5,4.06-9,9.41-13.28,14.06,0-4.66,1.59-9.39,3.78-13.92A53.09,53.09,0,0,1,567.29,359c18.33-11.89,38.22-16.27,59.74-11.23,13.28,3.11,22.48,11.61,29.19,23.12a3,3,0,0,1,.55,1.88C655.38,378.29,653.89,383.78,652.31,389.7Z"/>
    <path class="cls-1" d="M191,390.88c-1.67-6.17-3.16-11.42-4.45-16.73-.19-.81.45-1.93,1-2.77,8.53-14.39,21.08-23.17,37.7-24.89,25.91-2.69,48,5.47,65.11,25.47a37.76,37.76,0,0,1,9.26,23.2c-.48-.28-.84-.37-1-.6-10.39-17-26.33-25.21-45.25-28.71a68.77,68.77,0,0,0-30.21,1C209.61,370.38,198.31,377.21,191,390.88Z"/>
    <path class="cls-1" d="M709.12,343.41c-5.61,1.72-11.09.94-16.53,0a4,4,0,0,1-2.3-2.22c-13-29.72-34.9-51.75-60.85-70.22a201.45,201.45,0,0,0-39.56-21.83c-1-.43-2-1-3.49-1.65C634,250,699,300.81,709.12,343.41Z"/>
    <path class="cls-1" d="M257.23,247.44c-6.09,2.86-11.89,5.35-17.48,8.25-31.06,16.13-57.55,37.55-76.67,67.25a142.16,142.16,0,0,0-9.33,17.7c-1.28,2.77-2.41,4.78-5.78,4.71-4.56-.1-9.12,0-14.24,0,.79-2.52,1.37-4.8,2.2-7,6.5-16.92,17.53-30.72,30-43.49,24.8-25.29,54.57-41.21,89.49-47.4A12.15,12.15,0,0,1,257.23,247.44Z"/>
    <path class="cls-1" d="M406.64,593.88a100.86,100.86,0,0,1,7.5-37.21c.42-1,1.76-2.38,2.74-2.44a77.69,77.69,0,0,1,10.89.3c.66.05,1.44,1.31,1.77,2.17,5.18,13.29,8.32,27,7.54,41.34a61,61,0,0,1-3.3,15.36c-1.76,5.41-5.87,9.15-11.71,9.25-6,.11-10.27-3.73-12-9.27-1.95-6.27-3-12.84-4.38-19.28Z"/>
    <path class="cls-1" d="M317.93,396.75c2.32,3.6,4.7,6.86,6.54,10.39.6,1.16.19,3.17-.36,4.55-4.64,11.7-13.12,20.21-23.36,27-11.11,7.4-23.19,12-36.84,11.76-3.82-.07-6-1.66-7.05-5.15-2-6.51-1.24-13,.49-19.34a3.39,3.39,0,0,1,2.72-1.8C284.61,426.55,303,416,317.93,396.75Z"/>
    <path class="cls-1" d="M525.74,396.63a69.78,69.78,0,0,0,25.5,22c9.29,4.63,19.12,5.67,29.24,4.93,5.57-.4,5.54-.51,6.61,5.06,1.16,6,1,11.95-1.52,17.57a5.68,5.68,0,0,1-3.57,2.91c-9.79,1.68-18.94-1-27.75-4.87-13.73-6-24.88-15.17-32.78-28.09-2.86-4.68-4-9.12.41-13.64C523.38,400.94,524.3,398.86,525.74,396.63Z"/>
    <path class="cls-1" d="M424,279.74h-5.28c1.25-26.71-6.17-50.75-23-72a105.44,105.44,0,0,1,51.37.1C430.3,228.92,423.15,252.85,424,279.74Z"/>
    <path class="cls-1" d="M450.35,431.81c-5.66-1.36-9.88,1-13.26,4.68-7.77,8.5-22.88,8.86-31.29,0-4.45-4.66-6.33-5.07-13.47-5,.37-3.51,1.91-6.27,5.34-7.24a7.48,7.48,0,0,1,8.57,2.94c.62.83,1.27,1.9,2.13,2.2,1.27.44,3,.79,4,.22a3.76,3.76,0,0,0,1.09-3.53c-2.86-6.9-1.89-14.09-1.71-21.16.19-7.85,1.44-15.55,5.14-22.71,1.11-2.15,2.46-2.57,4.62-2.63a4.28,4.28,0,0,1,4.53,2.71c3.57,7,4.53,14.47,4.86,22.09.22,5,.18,9.93,0,14.89-.08,2.12-1,4.2-1.27,6.33-.15,1.31-.08,3.45.65,3.86,1.11.62,3,.37,4.34-.1.93-.32,1.53-1.63,2.27-2.51a7.85,7.85,0,0,1,8.43-2.62C448.14,425,450,427.86,450.35,431.81Z"/>
    <path class="cls-1" d="M250.9,340.61l-13.59-1.54c1.26-2.42,2.34-4.77,3.67-7,11.55-19.22,27.82-33.71,46.41-45.77,14.1-9.14,29.17-16.18,45.82-19.24A141,141,0,0,1,349,265.45a11,11,0,0,1,9.49,4C307.41,270.29,274.39,298.09,250.9,340.61Z"/>
    <path class="cls-1" d="M606,337.82c-4.08.6-7.4,1-10.68,1.6-2.34.43-3.67-.16-4.89-2.43-12.72-23.62-30.14-42.71-54.11-55.35a102.57,102.57,0,0,0-47.85-11.9c-.81,0-1.62,0-2.42-.06-.19,0-.38-.18-.77-.38,2.54-3,5.8-3.94,9.46-3.89a98.74,98.74,0,0,1,39.09,9c26.12,11.64,48.24,28.38,65,51.76C601.41,329.74,603.49,333.73,606,337.82Z"/>
    <path class="cls-1" d="M466.32,384.86c-8.47-2.74-16.37-6.36-21.27-14.53-1.1-1.85-.79-3.05,1.52-3.85,20.51-7.13,39.9-5.17,58,7.1,2.21,1.5,3.88,3.78,6.21,6.11-10.38,8.61-21.89,8.34-32.93,7.62,2.38-1.53,5.53-2.86,7.74-5.12,5-5.07,2.8-12.13-4.1-13.67a65.45,65.45,0,0,0-11.28-1.24c-4.06-.18-6.68,1.92-7.9,5.79a8.85,8.85,0,0,0,3.08,10.16,15,15,0,0,0,1.41.79Z"/>
    <path class="cls-1" d="M364,387.37c-8.25.88-17,.33-25.29-3.52-6-2.8-6.11-4.77-1.21-9.05,7.93-6.92,17.5-9.95,27.6-11.59a57.81,57.81,0,0,1,30.58,3.05c3.12,1.2,3.45,2.15,1.62,5.05-3.83,6-9.79,9.25-16.11,11.95-1.24.53-2.53.95-4.6,1.72,1.34-1.79,2.23-2.86,3-4,2.18-3.35,1.78-6.67,0-10.1-1.66-3.23-4.37-3.85-7.55-3.5a102.31,102.31,0,0,0-10.92,1.47,7.72,7.72,0,0,0-4.45,12.28C358.66,383.7,361.71,385.46,364,387.37Z"/>
    <path class="cls-1" d="M503.52,488.45c6.36,8.3,12.91,16.3,18.8,24.75,3.21,4.61,5,10,3.87,16-.6,3.16-1.4,6.26-4.9,7.17-4,1.06-9.63-1.15-11.23-5-1.7-4-2.53-8.5-3.43-12.84-1.13-5.46-1.26-11.25-3.12-16.43A19.47,19.47,0,0,1,503.52,488.45Z"/>
    <path class="cls-1" d="M340.36,489.24c1,4.5,1.7,8.38.22,13.08-2.2,7-2.7,14.6-3.89,21.94-.87,5.32-2.46,10.08-8.22,12.12s-9.73-.29-10.52-6.45c-1-7.43,1.6-13.78,6-19.58q7.74-10.19,15.44-20.4A5.38,5.38,0,0,1,340.36,489.24Z"/>
    <path class="cls-1" d="M492,522.43c6.64,12.38,15.8,21.55,28.77,26.87a64.48,64.48,0,0,1,14.72,8c2.76,2.11,4.23,6,6,9.29a3.56,3.56,0,0,1-.53,3.37c-.72.53-2.52.26-3.46-.31-2.63-1.58-5-3.62-7.57-5.23a33.52,33.52,0,0,0-7.5-3.91c-14.51-4.5-25.33-13.2-32.14-26.9C488.09,529.33,488.35,525.78,492,522.43Z"/>
    <path class="cls-1" d="M352,523.05c3.46,2.91,3.59,6.12,1.71,10-6.49,13.36-16.71,22.46-30.87,26.81a24.17,24.17,0,0,0-11,6.59,20.92,20.92,0,0,1-5.12,4c-2.83,1.56-4.19.63-3.91-2.55.43-4.84,3.32-8.33,7.06-10.95A46.31,46.31,0,0,1,320,551.32,56.44,56.44,0,0,0,352,523.05Z"/>
    <path class="cls-1" d="M507,460.85l4.8-3.23c5,6.5,10.21,12.81,11.72,21.2.06.33.36.7.28,1-.69,2.65-1.44,5.3-2.18,7.94-2-1.41-4.6-2.4-5.7-4.3a99.59,99.59,0,0,1-5.81-13.09C508.92,467.39,508.09,464.28,507,460.85Z"/>
    <path class="cls-1" d="M331.82,457.66l5,3.27c-1.46,4.89-2.51,9.83-4.44,14.4a50.43,50.43,0,0,1-6.77,11.36c-2.36,3-3.95,2.42-5.1-1.35-1.48-4.86.23-9.39,2.37-13.51C325.4,467,328.7,462.53,331.82,457.66Z"/>
  </g>
</svg>
