<svg id="Livello_1" data-name="Livello 1" xmlns="http://www.w3.org/2000/svg" viewBox="0 0 841.89 841.89">
  <defs>
    <style>
      .cls-1 {
        fill: #231f20;
      }
    </style>
  </defs>
  <title>Glos</title>
  <g>
    <path class="cls-1" d="M273.65,498.23c5.73-2.93,11.91-5,16.77-9.6,3-2.88,7.29-3.06,11.29-3.27,4.92-.26,8.4-3.17,12.27-5.93l-12.17-4.59c1.54-2.14,3-4.33,4.64-6.37a7.88,7.88,0,0,1,2.71-2.07,30.65,30.65,0,0,1,12.25-3.23c3.5-.11,7-1.32,10.45-2.16a4.47,4.47,0,0,0,2-1.37,2.72,2.72,0,0,0-.73-4.44,6.8,6.8,0,0,0-6.8-.22c-3.05,1.6-6.06,1.85-8.79.12.8-2,1.7-3.91,2.39-5.92,1.86-5.46,4.9-9.62,11-10.73,2.13-.39,4.45-1.19,4.67-3.57s-2.25-3-3.94-3.88a21,21,0,0,0-4.33-1.11,14.91,14.91,0,0,1,1.07-2.23c2.25-3.28,4.47-6.58,6.9-9.73.66-.84,2-1.13,3-1.73.69-.43,1.86-1,1.86-1.45a4.36,4.36,0,0,0-1.31-2.28c-1.73-2-4-3.78-5.23-6.08-1.95-3.59-3.24-7.55-4.8-11.35-.4-1-.78-2-1.39-3.57a41.47,41.47,0,0,1,6.33-.17c4.68.61,9.31,1.67,14,2.19,2.17.24,4.43-.38,6.95-.63.87,2.34,2,5.3,3.08,8.26,1.65,4.38,3.23,8.78,5,13.12.91,2.26,2,4.66,4.89,4.79a11.23,11.23,0,0,0,4.49-.94c4.12-1.63,8.17-3.44,12.24-5.18.25-.11.51-.19.76-.3,1.31-.63,3.25-1,2.38-3s-2.49-1-3.85-.39c-4.25,1.77-8.49,3.59-12.75,5.35-3.13,1.29-3.9.92-5.09-2.29l-7.2-19.36c-.31-.83-.67-1.63-1.1-2.67l2.79-2.19c3,6.63,8.85,8.86,15.19,10.07,9.19,1.76,18,.66,26.09-4.3a20.72,20.72,0,0,0,2.85-2.29c.84-.75,1.44-1.56,2.91-1.36s2.33-1.7,1.15-3.06a37.86,37.86,0,0,0-6.3-6.29c-6.54-4.65-14.08-5.55-21.82-4.66-9.78,1.13-18.3,5.41-25.72,11.71-3.56,3-7.38,2.27-11.21,1.69-4.45-.67-8.84-1.78-13.42-2.73,2.44-1,5-2.05,7.47-3.11,10.56-4.44,21.86-6.19,32.87-9,5.91-1.49,11.82-3,17.76-4.28a24,24,0,0,1,14,.87c2.77,1.06,5.68,1.76,7.94,3.92a7,7,0,0,1,2.55,5.46c-.14,11.36-.13,22.72-.17,34.08V416c0,1.27.07,2.66,1.72,2.73s2-1.41,2-2.72c.05-6.94.06-13.88.07-20.82,0-5.64,0-11.27,0-17.25h9.51c.06,1.08.15,1.94.15,2.81Q426,398,426,415.24c0,1.46-.22,3.4,1.85,3.46,2.23.06,1.84-1.95,1.84-3.37,0-11,.19-22.05-.22-33.06-.17-4.83,2.16-7.49,5.87-9.21,4.88-2.27,10.05-3.84,15.56-3.11,2.48.33,4.92.94,7.36,1.51,9.75,2.29,19.47,4.67,29.23,6.91a122.18,122.18,0,0,1,22.88,7.7c.6.27,1.18.58,2.11,1-6.74,1-13.09,2.1-19.49,2.8a7.09,7.09,0,0,1-4.6-1.6c-7.12-5.65-14.81-10.15-23.84-11.72-10.57-1.84-20.48-.54-28.51,7.5a14.22,14.22,0,0,0-2.37,3,2.82,2.82,0,0,0-.17,2.23c.23.47,1.2.61,1.86.85.46.16,1.11.09,1.39.4,4.06,4.41,9.33,6.44,15,7.53a36.77,36.77,0,0,0,20.45-1.59c4.17-1.6,7.72-4,9.5-8.55l2.88,2.05c-2.87,7.81-5.7,15.52-8.56,23.23-.74,2-1.71,2.39-4.06,1.46-4.47-1.78-8.9-3.67-13.34-5.51-.5-.2-1.05-.66-1.49-.58a14.5,14.5,0,0,0-2.56,1c.42.81.63,2,1.29,2.35,3.05,1.45,6.23,2.63,9.34,3.95,1.78.75,3.49,1.68,5.29,2.39,4.75,1.87,7,.61,8.88-4,2.34-5.7,4.41-11.52,6.58-17.3.59-1.57,1.12-3.16,1.71-4.81,4.14,2.49,8.36,1.3,12.52.66,2.94-.45,5.82-1.31,8.76-1.68a33.82,33.82,0,0,1,5.71.28c-.81,2.09-1.45,3.77-2.13,5.44a87.72,87.72,0,0,1-4.15,9.64c-1.23,2.17-3.32,3.84-5,5.79a4.86,4.86,0,0,0-1.44,2.42c0,.46,1.29,1,2,1.5a19.79,19.79,0,0,1,3.47,2.19c3.32,3.28,5.44,7.36,7.54,11.82a9.12,9.12,0,0,0-7.33,2.43c-1.74,1.44-1.78,2.88,0,4.18a9.64,9.64,0,0,0,3.67,1.59c5.82,1.16,8.82,5.08,10.64,10.34.71,2.07,1.64,4.08,2.49,6.18-2.9,1.71-4.67,1.84-8.17.18a7.52,7.52,0,0,0-7.38,0,2.66,2.66,0,0,0-.72,4.41,6,6,0,0,0,2.34,1.55c3.67,1.17,7.32,2.35,11.29,2.17,4.49-.21,8.44,1.65,12.24,3.78a5.55,5.55,0,0,1,1.64,1.49c1.54,2,3,4.14,4.61,6.35l-10.32,3.39c-1.33.44-1.76,1.3-.54,2.13,3.33,2.28,6.57,4.74,10.93,4.9,4.68.17,9,1.26,12.65,4.66a33,33,0,0,0,7,4.45c2.55,1.38,5.26,2.47,8.09,3.77-3.13,2.21-6.16,4.38-10.21,4.23-1.16,0-2.32,0-3.47,0a5.09,5.09,0,0,0-4.75,2.24c-.89,1.37-1.88,1.32-3.09.6-.87-.51-1.75-1-2.65-1.49a12.82,12.82,0,0,0-10.2-.81c-2.35.76-4.4.42-5.84-1.88a21.87,21.87,0,0,0-2.6-3.62,20.5,20.5,0,0,0-4.16-3.4,2.71,2.71,0,0,0-2.59.28,3.33,3.33,0,0,0-.49,2.7,57,57,0,0,0,2,5.64c-1.63-.48-3.13-.89-4.6-1.37-2-.64-3.88-.85-5.65.41s-2.82.52-3.71-1.1c-1.59-2.92-3.24-5.8-4.84-8.72-2.5-4.57-5-9.16-7.46-13.73a13.11,13.11,0,0,0-1.44-2.11,11.31,11.31,0,0,0-1.54-1.29c-.44.62-1.24,1.25-1.24,1.87,0,2.16.31,4.31.53,6.46a43.48,43.48,0,0,1,.33,7.68c-.68-.8-1.31-1.65-2.06-2.38-1.32-1.3-2.23-1.2-3.3.33a6.81,6.81,0,0,0-.71,1.46c-1.27,3.25-3.3,3.74-5.95,1.35-3.3-3-4.54-7-5.19-11.21-1-6.63-1.74-13.3-4.19-19.64-2.27-5.86-6.49-10.3-10.36-15-2.07-2.52-4.25-5-6.36-7.44a33.86,33.86,0,0,1-7.05-14.49c-1.07-4.56-2.83-8.85-7-11.48a9,9,0,0,0-4.13-1.17c-.53,0-1.48,1.17-1.57,1.89-.06.48,1,1.46,1.64,1.62,2.76.66,6.71,5.31,6.67,8.1,0,2.22-2.9,4.55-5.23,4a4.27,4.27,0,0,0-4.28,1.25c-1.41,1.22-3.65,1.65-5.61,2.06-4.62,1-9.37.87-13.57-1.2a19.61,19.61,0,0,0-7.59-2.39c-3-.23-4.2-3.08-2.82-5.82a24.65,24.65,0,0,1,3.47-4.91c.54-.61,1.71-.63,2.49-1.1s1.71-1.14,1.65-1.6c-.1-.74-1-1.93-1.53-1.94a7.42,7.42,0,0,0-3.81.9c-3.68,2.12-5.43,5.75-6.75,9.59-.74,2.17-1.19,4.44-1.91,6.63-2.23,6.8-7.23,11.7-11.68,17-3.65,4.36-7.65,8.47-10.05,13.78-2.69,6-3.69,12.32-4.55,18.71-.54,4-1.07,8.14-3.63,11.48a15.19,15.19,0,0,1-4.26,3.53c-1.48.89-2.71.15-3.45-1.4-2.36-5-2.81-5-6.14-.67a6.76,6.76,0,0,1-.8.41c.49-3.74,1-7.09,1.35-10.45a17.18,17.18,0,0,0,.15-3.85,2.81,2.81,0,0,0-1.24-1.86c-.29-.17-1.24.53-1.7,1a8.86,8.86,0,0,0-1.14,1.91q-6.25,11.4-12.49,22.8c-.89,1.65-1.93,2.36-3.7,1.1s-3.71-1-5.66-.41c-1.45.48-2.93.9-4.58,1.4.76-2.07,1.53-3.86,2-5.72a3,3,0,0,0-.38-2.53,3,3,0,0,0-2.75-.37,19,19,0,0,0-4.14,3.42,24,24,0,0,0-2.74,3.78,4.17,4.17,0,0,1-5.33,1.75c-4.74-1.78-8.93-.29-13,1.89-1.68.9-2.82,1.22-4.06-.66s-3.15-2-5.11-1.84C279.76,503,277.07,500.9,273.65,498.23Z"/>
    <path class="cls-1" d="M512.4,368.13c0-1.56.56-3.38-.11-4.24-1.68-2.15-3.47.31-5.43.56a5.45,5.45,0,0,0,.39-1.37c0-1,.27-2.38-.26-2.91s-2-.52-2.93-.37a27.39,27.39,0,0,0-4,1.2c-.52-1.73,1.55-3.4-.18-5s-3.19,0-4.86.66a14.15,14.15,0,0,0,.66-3.07,2,2,0,0,0-3.27-2c-2,1-3.83,2.23-5.83,3.43a33.09,33.09,0,0,0-.6-4.26c-.56-2.06-2.32-2.49-3.87-1a15,15,0,0,1-3.06,2.61,29.19,29.19,0,0,0,.53-4,12.25,12.25,0,0,0-.7-2.9c-1,.27-2.15.28-2.89.85-2.39,1.86-4.63,3.93-7.25,6.19,1-4.56,1.79-8.68,2.72-12.77.33-1.48,0-2.58-1.52-2.73-1.32-.13-2.7.44-2.73,2.08a7.63,7.63,0,0,1-3.55,6.32c-2.35,1.65-4.92,3-7.39,4.43l-.44-.52q2.08-5.19,4.18-10.39c.35-.88.66-1.78,1.08-2.63.65-1.32.11-2.2-.94-3a1.92,1.92,0,0,0-2.88.38c-4.13,5.08-9.8,7.84-15.59,10.43-6.47,2.89-12.62,6.31-17.87,11.14-1,.92-1.93,1.9-2.89,2.86-.13-.06-.29-.08-.36-.17-5.38-6.55-12.61-10.43-20.13-13.86-5.77-2.63-11.42-5.38-15.64-10.39a3,3,0,0,0-2.62-.4,2,2,0,0,0-1.15,2.82c1.46,3.56,2.89,7.14,4.34,10.71.32.8.68,1.58,1.06,2.44C381,348.76,375.75,344,375,339a2.27,2.27,0,0,0-2.8-2c-1.38.16-1.78,1.22-1.44,2.61.5,2,.9,4.09,1.33,6.15l1.38,6.72c-2.74-2.38-5.05-4.5-7.51-6.42a3.18,3.18,0,0,0-2.69-.43c-.52.23-.71,1.59-.71,2.44a19.78,19.78,0,0,0,.53,3.2,2,2,0,0,1-.37,1.37c-.88-1-1.69-2-2.64-2.95-1.53-1.46-3.33-.95-3.84,1.1-.31,1.24-.39,2.54-.63,4.15-1.88-1.08-3.65-2.25-5.56-3.14a3.69,3.69,0,0,0-2.89-.21c-.5.28-.43,1.75-.43,2.69a12,12,0,0,0,.46,2.36c-1.62-.55-2.92-2.39-4.76-.71s0,3.16-.18,5a24.79,24.79,0,0,0-3.83-1.08c-1.1-.13-2.58-.2-3.26.41-.53.47-.11,2-.06,3.11a4.64,4.64,0,0,0,.32,1c-2-.26-3.79-2.67-5.45-.57-.68.85-.12,2.67-.12,4.19-.35.16-1.43.29-1.89.9s-.41,1.76-.61,2.8c-2.07-1.12-3.89-2.1-4.47-5-2.34-11.37-5-22.69-7.58-34a2.45,2.45,0,0,1,.76-2.64c8.74-8.9,19-15.51,30.27-20.74a158.3,158.3,0,0,1,44-12.7A203,203,0,0,1,434,294.76c19.39,1.35,38.37,4.72,56.43,12.24,13.21,5.5,25.37,12.65,35.52,22.92a2.78,2.78,0,0,1,.9,3q-4,17.57-7.86,35.2c-.5,2.3-2.7,2.38-4.15,4C514.8,369.85,515,367.68,512.4,368.13Z"/>
    <path class="cls-1" d="M469.57,497.15c-3.83-.11-4.47.88-2.88,4s3.51,6.27,5.17,9.45a31.69,31.69,0,0,1,1.42,4.16c-1.2-.06-2-.05-2.75-.16-1.63-.23-2.52.5-2.5,2.09s.3,3.09.4,4.64c.17,2.57.06,5.09-2.1,7.38-1.05-.76-2.32-1.6-3.51-2.55a23.4,23.4,0,0,1-1.7-1.75c-1.16-1.12-2.24-2.56-4.17-1.61a4.71,4.71,0,0,0-2.16,5.25,34.86,34.86,0,0,0,2.34,7.11c2.59,4.89,1.78,9.84.87,14.85-.13.72-.32,1.42-.61,2.66-.94-1.28-1.61-2.16-2.27-3.06a19,19,0,0,0-1.82-2.43c-2.19-2.11-4.89-1.8-6.19,1s-2.14,5.78-3.17,8.7c-.11.31-.07.68-.19,1-.25.6-.56,1.17-.85,1.75a10,10,0,0,1-1.86-1.08,9.1,9.1,0,0,1-1.38-1.75c-1.42-2.11-3.27-2.11-4.73,0a12.65,12.65,0,0,0-2.47,7.59,18.93,18.93,0,0,1-.41,4.44c-1,4.63-2.79,6.33-7.5,6.85a23.46,23.46,0,0,1-6.85-.08c-5.62-1-8-4-8-9.77,0-3.27-.51-6.32-2.5-9-1.54-2.1-3.17-2.05-4.72,0a23.12,23.12,0,0,1-3,2.82c-.44-1.13-.88-2.26-1.3-3.4-.88-2.4-1.59-4.87-2.65-7.19-1.83-4-5.26-4.21-7.78-.57a18.38,18.38,0,0,1-3.08,3.76c-.24-1.06-.4-2.15-.71-3.19-1.83-6.11,0-11.7,2.25-17.31a12.16,12.16,0,0,0,.95-6c-.55-3.49-3.25-4.15-5.7-1.63-2,2.09-3.89,4.35-7.17,5.06a15.37,15.37,0,0,1-.78-7c.22-1.6.56-3.2.63-4.82.11-2.29-.61-2.85-2.9-2.59-.59.06-1.19,0-2.18,0a20.29,20.29,0,0,1,.95-3.39c1.26-2.54,2.67-5,4-7.52a18.11,18.11,0,0,0,1.61-3,13.59,13.59,0,0,0,.26-3.08c-.93,0-1.87,0-2.81.06a13.72,13.72,0,0,0-1.66.31c.09-2.95.93-5.19,3.38-6.69a52.25,52.25,0,0,0,6.43-4.31c2.58-2.17,4.93-4.63,7.33-7,1.5-1.48,2.8-3.17,4.4-4.52,2.79-2.38,2.95-2.26,6.08-.54,4.5,2.47,9.46,3.33,14.5,3.6,8,.44,16.06.76,23.89-1.43,2.51-.7,4.8-2.13,7.24-3.1a2.9,2.9,0,0,1,2.33,0,33.5,33.5,0,0,1,6.08,5.34,49.16,49.16,0,0,0,10.48,9.58,29.57,29.57,0,0,1,5.09,5.43A9.17,9.17,0,0,1,469.57,497.15Z"/>
    <path class="cls-1" d="M420.84,286.32c-2.67-8.4-12.23-9.64-19.12-3.83a18.23,18.23,0,0,0-2.85,3.16,37.2,37.2,0,0,0-2.09,3.59c-2.8-4.66-6.87-6.78-12.3-5.95-4,.62-7,3.48-8.91,8.62-3.5-4.45-7.85-6.38-13.21-4-5,2.25-7.31,6.65-8.27,12.12-4.12-3.81-8.63-6.08-14.08-3.76s-6.74,7.2-7,11.94c-2.78-.76-5.51-2.06-8.28-2.16-4.7-.16-8.64,3.82-9.69,9.4-.5,2.64-.3,5.4-.48,8.1a16.09,16.09,0,0,1-.49,2.35l-.73,0c-.65-2.62-1.34-5.23-1.94-7.86a39.06,39.06,0,0,1-.85-4.79,11.66,11.66,0,0,1,1.34-7.22c5.4-9.72,13.46-16.61,23-21.92,14.46-8.08,30.14-12.46,46.39-15.21s32.83-3.07,49.33-2.75c20.42.39,40.49,3.21,59.77,10.23,10.92,4,21.3,9.06,30,17.09a52.24,52.24,0,0,1,10.69,14c1.33,2.51.75,5.18.25,7.77-.69,3.55-1.49,7.07-2.25,10.61h-.85a19.72,19.72,0,0,1-.53-2.49c-.23-2.89.06-5.91-.66-8.67-2.22-8.55-9.44-11.15-16.83-6.34l-.86.53c-.34-5.45-1.68-10.34-7.06-12.62s-9.9-.26-14,3.77c-1-5.34-3.22-9.84-8.27-12.11-5.39-2.43-9.74-.54-13.31,4-1.47-4.79-4.35-7.9-9.2-8.65-5.29-.82-9.23,1.4-12,6-2.86-6.22-7.32-10.21-14.31-10.39C426.6,278.79,423.28,281.36,420.84,286.32Z"/>
    <path class="cls-1" d="M387.89,342.87c7.64,3.65,15,7,22.23,10.7a24.42,24.42,0,0,1,9,8.93c.92,1.44,2.35,1.59,3.3.3a38.36,38.36,0,0,1,16.72-13c5-2,9.9-4.34,15-6.6-1,2.45-2.09,4.93-3,7.48a12.69,12.69,0,0,0-.28,3.17c1.08.06,2.29.47,3.23.13,3.8-1.35,7.52-2.94,11.37-4.48-.42,2-1,4.33-1.34,6.68a9.19,9.19,0,0,0,.56,2.93,9,9,0,0,0,2.89-.77c2.36-1.65,4.57-3.5,6.84-5.28l.52.44a24.46,24.46,0,0,0-.43,4c0,.82.47,2,1.07,2.3a3,3,0,0,0,2.44-.7c1.5-1.2,2.82-2.63,4.41-4.15.24,1.58.31,2.73.6,3.83.5,1.84,1.89,2.16,3.37,1a15.16,15.16,0,0,1,4.4-2.48,13.12,13.12,0,0,0-.39,2.38c0,.87,0,2.23.49,2.49.69.39,1.85.1,2.77-.12a10.37,10.37,0,0,0,2.18-1.29c-.41,1.1-.7,1.78-.92,2.49-.58,1.85.41,3,2.31,2.57,1.71-.39,3.37-1,4.69-1.4,0,1.66-.64,3.81.14,5,1.39,2.17,3.16-.43,5.09-.51a18.28,18.28,0,0,0-1.31,3c-.17.69-.16,1.83.25,2.15a3.18,3.18,0,0,0,2.34.25,8.2,8.2,0,0,0,2.15-1.15c.47,5.23,2.06,4.48,6,1.79-1,3.14-1.82,5.8-2.66,8.49-4.56-1.75-8.75-3.73-13.15-5-7.67-2.16-15.47-3.85-23.21-5.76-4.67-1.15-9.35-2.28-14-3.54-5.24-1.41-10.39-3.12-15.93-3a30.14,30.14,0,0,0-16.22,5.26c-1.18.79-2.22,1.75-3.42,2.49a3.59,3.59,0,0,1-1.86.35c-3.45,0-6.93-.21-10.35.12-1.92.18-2.72-1.2-3.74-2-9.12-6.79-19-7.57-29.6-4.47-5.52,1.62-11.1,3.06-16.7,4.4-6.25,1.48-12.65,2.41-18.81,4.21-5.9,1.72-11.56,4.23-17.33,6.4l-1.45.58-2.66-8.17c1.64.59,3.08,1.61,4.24,1.37.85-.18,1.34-2,2.13-3.38a5.67,5.67,0,0,0,1.73.93,3.11,3.11,0,0,0,2.33-.27c.4-.33.39-1.47.21-2.16a20.67,20.67,0,0,0-1.46-3.24,14.61,14.61,0,0,0,2.8,1.21,3.23,3.23,0,0,0,2.37-.2,3,3,0,0,0,.64-2.34,14.09,14.09,0,0,0-1.16-3.13,44.5,44.5,0,0,0,4.61,1.37c.91.18,2.23.26,2.76-.25s.11-1.78,0-2.71a11.3,11.3,0,0,0-.47-1.71,10.75,10.75,0,0,0,2.19,1.21c.85.22,2,.52,2.58.13s.56-1.61.56-2.46a16.66,16.66,0,0,0-.56-3,39.33,39.33,0,0,1,4.25,2.69c2,1.61,3.34,1.28,3.87-1.19a29.94,29.94,0,0,0,.32-3.38c1.55,1.49,2.77,2.81,4.16,3.9a4.15,4.15,0,0,0,2.76,1.09c1.41-.28,1.23-1.72,1.09-2.89s-.3-2.27-.55-4.13c2.2,1.56,3.94,2.75,5.64,4a12.81,12.81,0,0,0,1.87,1.55,16.44,16.44,0,0,0,2.9.74,9.3,9.3,0,0,0,.53-3c-.33-2.33-.94-4.62-1.38-6.65,3.84,1.53,7.68,3.14,11.58,4.54.88.32,2.58.28,2.91-.23.46-.73.22-2.12-.11-3.09C390.1,348.11,389,345.6,387.89,342.87Z"/>
    <path class="cls-1" d="M375.36,486c.17-8.78-.38-17.65,2.64-26.12a24.19,24.19,0,0,1,4.08-6.71c3.6-4.51,7.66-8.66,11.1-13.28,2.64-3.54,4.62-7.58,6.95-11.48a9.27,9.27,0,0,0,7.17,2.14c.22,0,.49.18.71.33,7.39,5,15.34,4.28,23.21,1.79,2.4-.76,4.6-2.14,7.24-2.48,1.39-.18,2.66-1.2,4.19-1.94,3,10.09,11.05,16.79,17.41,24.7,4.1,5.1,6.84,10.47,6.52,17.23-.25,5.27-.05,10.57-.05,16a27.65,27.65,0,0,1-9-7.28c-2.78-3.59-5.81-6.82-9.72-8.78a62,62,0,0,0,2.3-7.44,14.63,14.63,0,0,0-14.21-17.29,50.56,50.56,0,0,0-10.12.86c-4.82.88-9.45-.1-14.15-.71a20.22,20.22,0,0,0-10.8,1.09c-7.71,3.28-11,11.81-7.72,20,.45,1.12,1,2.19,1.57,3.39-4.18,2.1-7.07,5.46-10,8.87-2.49,2.87-5.67,5.14-8.55,7.68Z"/>
    <path class="cls-1" d="M421.07,475.32c-5.82-.08-11.56-.46-17.1-2.29a15,15,0,0,1-4.26-2.26c-1.22-.93-.89-2,.65-2.12,4.8-.24,9.61-.29,14.41-.38,6-.1,11.92-.24,17.88-.22,3,0,6,.29,8.92.55.54,0,1.45.58,1.47.93a2,2,0,0,1-.91,1.61c-2.94,1.14-5.87,2.51-8.94,3.07C429.22,474.94,425.12,475,421.07,475.32Z"/>
    <path class="cls-1" d="M446.34,457.88c-6.87-4.94-14.35-5.3-22.07-3.57-2.83.63-5.45.05-8.19-.39-7.08-1.12-13.95-.69-20,3.88.15-3.62,3.5-7.49,7.92-8.24a26.55,26.55,0,0,1,9.45.05c6.21,1.24,12.28.54,18.36-.47,6.51-1.08,12.63,2.11,14.41,7.79A5.6,5.6,0,0,1,446.34,457.88Z"/>
    <path class="cls-1" d="M400.81,458.86c1.17,2.81,3.44,2.73,5.38,2.75q15,.15,30,0c1.88,0,4.06,0,5.18-2.74a54.33,54.33,0,0,1,4.33,3.8c.39.42.28,1.5.07,2.18-.08.28-1.08.54-1.56.41-5.56-1.39-11.18-.84-16.8-.73s-11.12-.25-16.68-.15c-4.11.07-8.22.56-12.33.8-.65,0-1.74-.07-1.89-.42a2.41,2.41,0,0,1,.17-2.17A49.09,49.09,0,0,1,400.81,458.86Z"/>
    <path class="cls-1" d="M464.29,388.21a5.05,5.05,0,0,1-4.84,4.82,5,5,0,1,1-.18-10C461.73,382.94,464.29,385.6,464.29,388.21Z"/>
    <path class="cls-1" d="M387.81,388.07a5.29,5.29,0,0,1-5,5,5.06,5.06,0,0,1-5-4.67,5.48,5.48,0,0,1,4.86-5.35A5.26,5.26,0,0,1,387.81,388.07Z"/>
  </g>
  <g>
    <g>
      <path d="M339.16,111.18s-11.52-84.59,68.25-83.41C414,28.43,390.78,54,395.54,81.6c.66,15.36-6.76,15.79-6.76,15.79s19.29,1.09,20.61,17.57-4.33,14.48-4,23.28c-.34,8.77,5.31,6.79,4,23.28s-20.61,17.54-20.61,17.54,7.42.43,6.76,15.82c-4.76,27.58,18.41,53.17,11.87,53.8-79.77,1.21-68.25-83.38-68.25-83.38C332,176.74,291.61,181.09,285,197.09s-12.41,36.52-36.57,41.25S232.5,268,229,258.23c-21.78-68.51,42.25-82.64,39.67-82.44s-40.59-7-51.39,20.78c-13.68,47.33-37.58,33.91-46.78,39.19s-6.88,24.73-10.84,17.14c-23.22-57.62,31.68-82.3,31.68-82.3s-37.5,1.09-45,16.71c-3.12,32.85-32.7,40.74-43,42.77s-14.85,28.15-16.86,18.37C70.55,171.06,154.25,161,154.25,161l143,9.63c47.69,3.1,47.06-32.42,47.06-32.42s.63-35.54-47.06-32.45l-142.95,9.63s-83.7-10-67.77-87.42c2-9.75,6.57,16.36,16.86,18.4s39.87,9.92,43,42.77c7.54,15.62,45,16.71,45,16.71s-54.9-24.68-31.68-82.3c4-7.59,1.64,11.87,10.84,17.14s33.1-8.14,46.78,39.19c10.8,27.75,48.81,20.58,51.39,20.78S207.25,86.76,229,18.25c3.47-9.77-4.79,15.16,19.38,19.89s30,25.23,36.57,41.22S332,99.72,339.16,111.18Z"/>
      <path d="M88.7,123.14c11,4.33,156.37-9.2,208.51-11.41,12-.51,37.89-.2,40.24,26.52-2.35,26.71-28.2,27-40.24,26.51C245.07,162.53,99.74,149,88.7,153.32c-46.18,17-32.13,49.85-40.67,29.82s19-31.68,14.9-33.4-1-4.5-13-1.83C24.84,161.67,8.5,138.25,8.5,138.25S24.84,114.8,50,128.59c12,2.66,8.83-.15,13-1.87S39.49,113.37,48,93.33,42.52,106.14,88.7,123.14Z"/>
    </g>
    <g>
      <path d="M502.73,111.18s11.52-84.59-68.25-83.41c-6.54.66,16.63,26.25,11.87,53.83-.66,15.36,6.76,15.79,6.76,15.79S433.82,98.48,432.5,115s4.33,14.48,4,23.28c.34,8.77-5.31,6.79-4,23.28s20.61,17.54,20.61,17.54-7.42.43-6.76,15.82c4.76,27.58-18.41,53.17-11.87,53.8,79.77,1.21,68.25-83.38,68.25-83.38,7.17,11.44,47.55,15.79,54.18,31.79s12.41,36.52,36.57,41.25,15.91,29.66,19.38,19.89c21.78-68.51-42.25-82.64-39.67-82.44s40.59-7,51.39,20.78c13.68,47.33,37.58,33.91,46.78,39.19s6.88,24.73,10.84,17.14c23.22-57.62-31.68-82.3-31.68-82.3s37.5,1.09,45,16.71c3.12,32.85,32.7,40.74,43,42.77s14.85,28.15,16.86,18.37C771.34,171.06,687.64,161,687.64,161l-142.95,9.63c-47.69,3.1-47.06-32.42-47.06-32.42s-.63-35.54,47.06-32.45l142.95,9.63s83.7-10,67.77-87.42c-2-9.75-6.57,16.36-16.86,18.4s-39.87,9.92-43,42.77c-7.54,15.62-45,16.71-45,16.71s54.9-24.68,31.68-82.3c-4-7.59-1.64,11.87-10.84,17.14s-33.1-8.14-46.78,39.19c-10.8,27.75-48.81,20.58-51.39,20.78s61.45-13.93,39.67-82.44c-3.47-9.77,4.79,15.16-19.38,19.89s-30,25.23-36.57,41.22S509.9,99.72,502.73,111.18Z"/>
      <path d="M753.19,123.14c-11,4.33-156.37-9.2-208.51-11.41-12-.51-37.89-.2-40.24,26.52,2.35,26.71,28.2,27,40.24,26.51,52.14-2.23,197.47-15.73,208.51-11.44,46.18,17,32.13,49.85,40.67,29.82s-19-31.68-14.9-33.4,1-4.5,12.95-1.83c25.14,13.76,41.48-9.66,41.48-9.66s-16.34-23.45-41.48-9.66c-11.95,2.66-8.83-.15-12.95-1.87s23.44-13.35,14.9-33.39S799.37,106.14,753.19,123.14Z"/>
    </g>
  </g>
  <g>
    <g>
      <path d="M339.16,676.59S327.64,592,407.41,593.18c6.54.66-16.63,26.25-11.87,53.83.66,15.36-6.76,15.79-6.76,15.79s19.29,1.09,20.61,17.57-4.33,14.48-4,23.28c-.34,8.77,5.31,6.79,4,23.28s-20.61,17.54-20.61,17.54,7.42.43,6.76,15.82c-4.76,27.58,18.41,53.17,11.87,53.8-79.77,1.21-68.25-83.38-68.25-83.38C332,742.15,291.61,746.5,285,762.5S272.57,799,248.41,803.75,232.5,833.41,229,823.64C207.25,755.13,271.28,741,268.7,741.2s-40.59-7-51.39,20.78c-13.68,47.33-37.58,33.91-46.78,39.19s-6.88,24.73-10.84,17.14c-23.22-57.62,31.68-82.3,31.68-82.3s-37.5,1.09-45,16.71c-3.12,32.85-32.7,40.74-43,42.77s-14.85,28.15-16.86,18.37c-15.93-77.39,67.77-87.42,67.77-87.42l143,9.63c47.69,3.09,47.06-32.42,47.06-32.42s.63-35.54-47.06-32.45l-142.95,9.63s-83.7-10-67.77-87.42c2-9.75,6.57,16.36,16.86,18.4s39.87,9.92,43,42.77c7.54,15.62,45,16.71,45,16.71s-54.9-24.68-31.68-82.3c4-7.59,1.64,11.87,10.84,17.14s33.1-8.14,46.78,39.19c10.8,27.74,48.81,20.58,51.39,20.78S207.25,652.17,229,583.66c3.47-9.77-4.79,15.16,19.38,19.89s30,25.23,36.57,41.22S332,665.12,339.16,676.59Z"/>
      <path d="M88.7,688.55c11,4.33,156.37-9.2,208.51-11.41,12-.51,37.89-.2,40.24,26.52-2.35,26.71-28.2,27-40.24,26.51-52.14-2.23-197.47-15.74-208.51-11.44-46.18,17-32.13,49.85-40.67,29.82s19-31.68,14.9-33.4-1-4.5-13-1.83C24.84,727.08,8.5,703.66,8.5,703.66S24.84,680.21,50,694c12,2.66,8.83-.15,13-1.87S39.49,678.78,48,658.74,42.52,671.55,88.7,688.55Z"/>
    </g>
    <g>
      <path d="M502.73,676.59s11.52-84.59-68.25-83.41c-6.54.66,16.63,26.25,11.87,53.83-.66,15.36,6.76,15.79,6.76,15.79s-19.29,1.09-20.61,17.57,4.33,14.48,4,23.28c.34,8.77-5.31,6.79-4,23.28s20.61,17.54,20.61,17.54-7.42.43-6.76,15.82c4.76,27.58-18.41,53.17-11.87,53.8,79.77,1.21,68.25-83.38,68.25-83.38,7.17,11.44,47.55,15.79,54.18,31.79s12.41,36.52,36.57,41.25,15.91,29.66,19.38,19.89c21.78-68.51-42.25-82.64-39.67-82.44s40.59-7,51.39,20.78c13.68,47.33,37.58,33.91,46.78,39.19s6.88,24.73,10.84,17.14c23.22-57.62-31.68-82.3-31.68-82.3s37.5,1.09,45,16.71c3.12,32.85,32.7,40.74,43,42.77s14.85,28.15,16.86,18.37c15.93-77.39-67.77-87.42-67.77-87.42l-142.95,9.63c-47.69,3.09-47.06-32.42-47.06-32.42s-.63-35.54,47.06-32.45l142.95,9.63s83.7-10,67.77-87.42c-2-9.75-6.57,16.36-16.86,18.4s-39.87,9.92-43,42.77c-7.54,15.62-45,16.71-45,16.71s54.9-24.68,31.68-82.3c-4-7.59-1.64,11.87-10.84,17.14s-33.1-8.14-46.78,39.19c-10.8,27.74-48.81,20.58-51.39,20.78s61.45-13.93,39.67-82.44c-3.47-9.77,4.79,15.16-19.38,19.89s-30,25.23-36.57,41.22S509.9,665.12,502.73,676.59Z"/>
      <path d="M753.19,688.55c-11,4.33-156.37-9.2-208.51-11.41-12-.51-37.89-.2-40.24,26.52,2.35,26.71,28.2,27,40.24,26.51,52.14-2.23,197.47-15.74,208.51-11.44,46.18,17,32.13,49.85,40.67,29.82s-19-31.68-14.9-33.4,1-4.5,12.95-1.83c25.14,13.76,41.48-9.66,41.48-9.66s-16.34-23.45-41.48-9.66c-11.95,2.66-8.83-.15-12.95-1.87s23.44-13.35,14.9-33.39S799.37,671.55,753.19,688.55Z"/>
    </g>
  </g>
</svg>
