<svg id="Livello_1" data-name="Livello 1" xmlns="http://www.w3.org/2000/svg" viewBox="0 0 841.89 841.89">
  <defs>
    <style>
      .cls-1 {
        fill: #231f20;
      }
    </style>
  </defs>
  <title>Glos</title>
  <g>
    <g>
      <path class="cls-1" d="M198.45,651.58c-2.76-.87-9.82-2.9-12.37-2.24-1.08.27-1.9.95-1.5,2.2s1.25,1.14,2.34,1c5-.89,12.34,2.11,12.46,5.65-4.27,1.68-13.19-.65-17.27-3.55-.54-.38-3-1.88-4.11-.29-.68,1,.3,1.75.85,2.14a48.23,48.23,0,0,0,4.83,2.78c-2.65,1.92-9.13,1.07-12.52-.86a33.65,33.65,0,0,0-8.13-3.54c-2.37-.6-27.78-.22-31-.11-3.4.11-5.06-1.2-5.34-4.6a16.42,16.42,0,0,1,1.72-9.56c2.87-5.17,5.46-10.49,8.35-15.65a38.7,38.7,0,0,0,4.6-17.34c.32-6.77,1.4-13.33,4.76-19.31,2.29-4.07,4.81-8,8.82-10.68a1.57,1.57,0,0,0,.56-1.79c-.28-1.07-2.32-1.59-4.76.83A39.9,39.9,0,0,0,139.63,596a64.83,64.83,0,0,0-1.38,9.93,55.07,55.07,0,0,1-5.92,20.33c-3.12,6.32-6.34,12.59-9.55,18.87-3.83,7.52-12.22,13.68-22.79,11.82-8.37-1.47-13.92-6.5-15.55-12.33a3.05,3.05,0,0,1,.7-2.13c2.65-3.75,7.88-8.62,9.53-15,.28-1.08.11-2-1-2.3s-1.76.41-2.11,1.42C88.66,634.89,82.86,641,76,646,59.3,658.29,30,668.2,21.09,668.77c-.92.06-3-.12-3.42-1.38-.55-1.78-.1-3,5.57-5.19,12-4.63,22.35-12.22,32-20.69a65.09,65.09,0,0,0,21-48.26c0-9-4.64-34.17,3-44.88a1.69,1.69,0,0,1,2.57-.58c2.12,1.24,4.22,2.5,6.38,3.64a1.68,1.68,0,0,0,1.57-.22,104.2,104.2,0,0,0,5.54-10.43,26.93,26.93,0,0,0,1.26-15.69,29,29,0,0,1,.68-13.85,37.62,37.62,0,0,0,2.76,3.84c5.72,6.11,7.29,5.47,11.21-.3,3.39-5,5.74-10.39,5.58-16.67a97.46,97.46,0,0,1,.5-11.06c.11-1.22.89-2.39,1.49-3.88a21.14,21.14,0,0,0,1.76,2.68,69.34,69.34,0,0,0,5.2,5.09,2.54,2.54,0,0,0,2.23-.14c6.18-3.58,9.75-9.19,11.88-15.81.49-1.51.6-3.14,1-4.69,2.58-10.51,9-17.59,19.2-21.15,1.11-.38,2.14-.77,1.78-2.18s-1.39-1.34-2.58-1c-8.5,2.46-14.29,8.14-18.68,15.55-2,3.45-2.75,7.29-3.58,11.13a24,24,0,0,1-8.25,13.73c-1.79,1.5-2.55,1.47-4-.39a50,50,0,0,1-3.18-5c-.31-.5-.49-1.09-.78-1.61-.9-1.62-2-1.7-3.24-.29-2.62,3-3.7,6.7-4.18,10.51a78.52,78.52,0,0,0-.38,9.83c0,6-2.34,11-6,15.57a1.27,1.27,0,0,1-2.1.24,14.29,14.29,0,0,1-5.39-8.42c-.13-.7-.75-1.79-1.23-1.83a2.74,2.74,0,0,0-2.12,1.08,21.14,21.14,0,0,0-3.28,11.76,87.77,87.77,0,0,0,.73,10.73,23.32,23.32,0,0,1-2.7,14.2c-.8,1.46-1.67,2.88-2.58,4.46-2.12-1.17-4.17-2.23-6.16-3.4a2.79,2.79,0,0,0-4,.72c-2.79,3.48-4.19,9.73-9.68,13.94-8.84,6.79-27.85,13.06-30.69,11,17.72-13,47.14-59.8,55.41-78.19,18.25-40.57,62.18-62.06,66.79-61.77,1.8.11,3.84,5.76,4.85,6.64a3.17,3.17,0,0,0,2.66.48c1.06-.39.58-1.42.43-2.43a22.7,22.7,0,0,1,.16-6.16c1.49,3.82,3,7.65,4.5,11.44,1.3,3.19,2.63,4.7,4.48,4.36,1-.19,1.14-1.41,1.21-2.22.29-3.48,1-10.51,1.17-10.52a42.06,42.06,0,0,0,8.3,20.39c5.22,6.42,12.41,5.32,15.11,2a16.89,16.89,0,0,0,3.45-10A46.81,46.81,0,0,0,200,416.9c-.27-.46-1.15-2.44-2.86-1.81s-.48,2.61-.33,2.86a43.56,43.56,0,0,1,6.33,24.47c-.12,3.3-2.21,11.82-7.58,10.09-3.6-1.17-4.42-4.46-4.93-7.73-1-6.11-.38-12,.8-18.18.07-.29.71-2.82-.92-3.13a1.63,1.63,0,0,0-2,1.52c-.53,2.94-2,13.22-1.48,18.5a47.9,47.9,0,0,1-3.26-7.95,24,24,0,0,1-.26-13.11c.28-1.05.33-2-.76-2.43s-2.23-.53-3.08.59c-1.49,2-3.86,11.34-5.06,15.85-1-3.75-3.1-12.52-3.32-14.05-.15-1.05-.14-2.16-1.25-2.41-1.75-.41-2.07.24-2.56.9-1.92,2.64-2.83,7.13-2.93,8.34a17.09,17.09,0,0,1-.71-11.89c0-.17,1.36-2.91-.21-3.59-1.79-.76-2.27.81-2.7,2a21.13,21.13,0,0,0-1.11,9.58c-1.81-3-3.78-6-2.75-9.74,1.51-5.51,3.67-10.75,7.38-15.21.7-.83,1-1.72.05-2.51a1.56,1.56,0,0,0-2.49.39q-3,4.74-5.86,9.58c-.38.63-1.18,2.06-1.38,2-1.27-7,5.74-17.11,8-19.19.73-.68,1.42-1.33.79-2.25-1-1.47-1.89-.78-2.36-.53-2.2,1.17-7.9,8.64-9.21,14a12.86,12.86,0,0,1-1.06-8.17c.85-5.47,5.47-10.7,6.48-11.72.52-.53,1.49-1.35.92-2.19-1.76-2.61-4.21.15-5.14,1.07-2.92,2.92-6.48,11.38-6.45,16-6.67-.75-45.16-27.39-60.79-46.1-28.68-34.34-46.27-104,16.62-120.68,2.36-.35,5.95,0,7,4.64,1.28,5.55-4.38,6.85-5.67,7.34a30.45,30.45,0,0,0-19.73,27.09c-1,16.92,4.7,31.31,15.58,43.91,3.56,4.12,6.43,7.29,11.09,10a5.71,5.71,0,0,1,2.47,2.88,44.67,44.67,0,0,0,7,9.73c.89.72,1.66,1,2.49.14a1.57,1.57,0,0,0-.14-2.39c-4.12-4.28-5.71-7.25-7.16-15.1-4.3-23.33,20.07-51.27,20.28-51.21,0,.79-2.76,14.25-3.88,20.23-1.36,7.19-2.15,14.44-1.28,21.78,1.09,9.19,6,15.92,13.32,21.21,7.92,5.73,16.82,9.49,25.74,13.29a122.84,122.84,0,0,1,15,7.21c7.1,4.23,10.26,11.1,11,19.15.79,8.53-.91,16.78-2.65,25.05a58.58,58.58,0,0,0-1.06,10.05c12-2.24,23.38-5.15,30.33-16.51,16.64,8.56,31.47,6.07,44.58-7.34a46.54,46.54,0,0,0-1.56,6.42,33.82,33.82,0,0,0-.17,8.87c.78,4.91,4.1,6.69,8.83,5.08,6.21-2.12,11.16-6.14,15.7-10.75,5.69-5.78,9.72-12.68,13.45-19.8.58-1.11,1.24-2.19,1.72-3.34,3.79-9.21,10.86-15.05,19.46-19.52,6-3.1,11.76-6.56,17.58-10a48.23,48.23,0,0,0,4.55-3.44,52.89,52.89,0,0,1-2,6c-1.75,3.71-3.57,7.42-5.68,10.94-.86,1.42-2.62,2.29-3.86,3.52-.62.62-1.4,1.47-1.4,2.22,0,1.16,1.12,1.23,2.17,1.24a2.91,2.91,0,0,1,2.66,4.38,12,12,0,0,1-3.22,3.51,20.89,20.89,0,0,1-10,4,2.19,2.19,0,0,0-2.45,2c.09,1.5,1.42,1.38,2,1.29,2.46-.4,4.87-1.09,7.3-1.69.5-.13,1-.35,1.69-.62.1,1.93-1,3-2.05,4.1A24.18,24.18,0,0,1,321.14,382c-1,.29-2.27,1-2,2.45a1.42,1.42,0,0,0,1.76,1c6.35-1.76,12-4.09,15.52-10.57a4.86,4.86,0,0,0,0-4.84l4.57-4.32c3.94,25.42,1.14,83.6-58.66,115.15-7.56,4-4.53,11.49,1.5,15.77,3.73,2.66,8.15,2.61,12.47,2,8.33-1.14,33.54-12.43,38.38-15,9.78-5.24,19.27-3.84,28.64.91,3.34,1.69,4.28,4.19,3,7.64a66.42,66.42,0,0,1-3.33,6.64c-3.34-2.45-6.61-4-10.37-4.11a12.23,12.23,0,0,0-2.49.18c-1.08.17-1.79.3-1.54,1.94.16,1.09,1.31,1.28,2,1.23a11.39,11.39,0,0,1,7.94,2.18c3.68,2.65,3.5,8.76-.35,11.27a3.79,3.79,0,0,1-4.54,0c-10.78-7.61-21.81-6-32.72-.58-8.34,4.16-34,23-58.47,24.12-11.8.56-19.12-13.94-17-20.82,1.68-5.43,9.29-13.12,12.77-17.75,3.25-4.33,2.83-9.21,1.72-14.11-.24-1.05-.47-2.11-.81-3.12-1.84-5.4-1.22-10.72.44-16,.34-1.11,0-2-1.06-2.21-2-.37-2,.75-2.22,1.44a46.63,46.63,0,0,0-1.28,5.93c-1,4.81.27,9.49.87,14.21.22,1.77.44,3.55.55,5.34a12.68,12.68,0,0,1-3.11,8.89c-9.46,11.91-20.88,21.64-33.3,30.27a2.08,2.08,0,0,0-1,2.61c7.43,20.8-2.53,100-2.5,100.71.15,3.38,2,5.28,5.41,5.43,3.82.17,7.66.14,11.48.39,13.19.67,16.63,8.75,13.41,21.48-2.65-12.75-14.68-17-24.68-16.13-1.15.11-3.13.31-3,2.37.06.81,1.13,1.13,1.79,1.18,2.77.22,5.58,0,8.33.38,6.09.76,10.26,4.43,12.87,9.71.78,1.59,2.24,6.87-1.69,6.83-2.33,0-11.78-.52-14.15-.75a11.45,11.45,0,0,1-4.26-1c-4.89-2.67-8.55-6.48-10.19-12-.33-1.08-.86-2-2.14-1.63s-1.31,1.44-1.05,2.48a21.06,21.06,0,0,0,5.43,9.16c1,1,2.07,2,3.52,3.34-1.25.09-8.77.9-13-6.05-4.2-6.38-7.21-13.32-6.71-21.15a43.54,43.54,0,0,1,2.17-10.31,73.25,73.25,0,0,0,3.24-27.45,446,446,0,0,0-10.57-69,7.81,7.81,0,0,1,1.69-7.3c2.9-3.5,6-6.88,8.71-10.5,3.09-4.09,9-18,1.44-25.53-6.6-6.61-37.35,1.42-65.14,32.06-36,39.73-34.89,79-32.59,88.09.27,1.06,1.23,3.9,3.25,3.4a1.29,1.29,0,0,0,.94-1.84c-3.12-7.6-1.68-36.82,26.37-58.71,12.78-10,27.66-1.66,28.77,18.72,1.61,29.44-20.12,71.16-20.88,74-.62,2.37-.25,2.62,2.28,2.66,5.51.07,29-1.31,46.62,2.05,1.33.25,2,.55,2.4,1.86C197.11,648.44,197.88,650.11,198.45,651.58Z"/>
      <path class="cls-1" d="M286,265a32.49,32.49,0,0,0-2.18-2.73c-2.53-2.57-4.55-2.86-7.75-1.29a21.34,21.34,0,0,1-5.06,2.23,25,25,0,0,1-8.14.6C257.14,263,253,265,250.31,270a38.22,38.22,0,0,0-3,7.47c2.33-2,4.53-4.21,7-6A21.51,21.51,0,0,1,265.92,267c8.9-.55,16,7.71,17.45,14.13.95,4.32-.52,7.92-3,11.39-3.1-4.81-8.65-7.22-12.75-5.64.48,1.38,1.31,5.58,1,6.12-.11.18-1.14-.07-1.66-.32A10.88,10.88,0,0,0,253,297.05c-1.45,2.39-2.1,5.26-3.09,7.93-.16.43-.21.91-.4,1.72-3.07-5.21-7.36-8-13.21-7.56s-9.58,3.8-11.89,9.51c-.35-.93-.56-1.45-.74-2a17.94,17.94,0,0,0-6.09-9.1c-4.17-3.1-9.11-3-13.79.36-2.17-2.09-.48-4.27-.15-6.38-3.41-1.71-9.5,1.87-11.88,7.14a13.53,13.53,0,0,1-4.66-10c-.05-7.21,6.12-15.12,13.09-16.89,4.57-1.16,9-.23,13.07,1.75,3.14,1.53,6,3.6,8.88,5.35a1.21,1.21,0,0,0-.17-.62,69.79,69.79,0,0,0-4.13-6.66c-3.09-4-7.2-5.32-12.12-3.84a19.58,19.58,0,0,1-13.67-.69c-3.92-1.65-6.24-.78-8.85,3.52-.27.44-.48.9-.72,1.35l-.63,0a29.76,29.76,0,0,1-.76-4.53c-.17-10.13,9.16-20.31,19.26-20.55,7.83-.18,14,3.39,18.55,9.82,3.67,5.24,5.52,11.26,7.19,17.29,1,3.46,1.1,7.16,1.49,10.76.13,1.16.12,2.27,1.63,2.25s1.64-1.13,1.66-2.28a51.25,51.25,0,0,0-4.78-22.25c-1.44-3.22-3.07-6.34-4.68-9.48A25.32,25.32,0,0,1,227,222.12c3.47-3.11,3.91-3.05,7.65-.61a24.31,24.31,0,0,1,8.59,9.82,25,25,0,0,1,.87,21.4,39.55,39.55,0,0,0-2.84,14.74c0,5.08,0,10.17,0,15.25,0,1.21.12,2.49,1.67,2.43s1.7-1.34,1.58-2.66c-.86-9.5.78-18.66,3.58-27.72,2.16-7,11.78-12.92,19.05-12.42,9.32.64,15.65,5.82,18.31,14.23A27.16,27.16,0,0,1,286,265Z"/>
      <path class="cls-1" d="M353.53,259.91c4.13-2.3,8.11-1.76,12.13-.18a9,9,0,0,0,2.84.51c2.05,1.27,0,4.77-.16,5.3a1.55,1.55,0,0,0,.7,1.9c.84.64,2.25-.16,3.27-2.55,2.93,2.74.21,7.2-.26,8.35s-.48,2.14.61,2.49c2.12.67,3.68-4.3,3.86-4.33,1.5,5,3.45,10.54,4.53,15.63,6.56,30.74-.8,57.89-21.48,81.48-3.9,4.45-7.9,8.8-11.84,13.21-.44.49-.82,1-1.53,1.91-1.27-9.58-.4-19.16-7-26.78a52.39,52.39,0,0,0,11-22.12,22.79,22.79,0,0,1,4.14-8.24c6.11-8.53,11.12-17.64,12.52-28.22C369,282.33,363.43,268.3,353.53,259.91Z"/>
      <path class="cls-1" d="M210.21,369.85a12.6,12.6,0,0,1-6.84-6.77,20.9,20.9,0,0,1-2-9.57c.07-2.56.81-3.05,3.27-2.17.16.06.34.1.51.17,1.92.71,3.8,1.77,5.78,2s4.14-.23,6.45-.42c.6,2.08,1.75,4.07,4.11,4.76a8.92,8.92,0,0,0,4,.25c3-.55,4.61-3,5-7,5.19,1.1,9.64,4.51,9,8.85-.18,1.1-.18,2.42-1.63,2.68-1.1.19-1.54,2.54-.84,3.39s2.69,1,2.69,1v4.2l-3.57.31a2,2,0,0,0-1.81,2.89c1.43,3.61,7.37,6.52,11.33,3.67a14.44,14.44,0,0,0,3.5-3.75c.51-1,0-2.87-2.42-3.11a16.87,16.87,0,0,0-3.56,0V367a9.88,9.88,0,0,0,2.73-1c.73-.79.13-3.06-.86-3.39-1.71-.59-2.05-2.3-1.36-4.12a75.09,75.09,0,0,1,3.35-6.92c1.09,1.43,1.9,3,3.17,4a6.84,6.84,0,0,0,3.85,1.14c4,.14,6.77-2.12,8.5-6.62a35,35,0,0,0,6.18-.58c1.7-.46,3.18-1.68,4.79-2.51a13,13,0,0,1,3-1.23c.4-.09,1.21.5,1.42,1,2.16,4.76-.06,14.09-4.09,17.44a17.19,17.19,0,0,1-1.59,1.06c.55-2.55,1.35-4.75,1.39-7,0-1.56-.91-3.18-1.6-4.69a1.48,1.48,0,0,0-1.7-.09,1.66,1.66,0,0,0-.67,1.78c1.38,2.26.29,4.39,0,6.59-.44,3.06-.74,6.14-1,9.21a8.55,8.55,0,0,1-2.07,4.63c-5.29,6.67-11.85,11.42-20.16,13.49-10.57,2.62-19.88-.11-28-7-3.52-3-4.39-7.23-5-11.55a8.83,8.83,0,0,0-.75-3.2c-1.39-2.38-2.37-4.78-1.88-7.61.19-1.06-.16-2-1.37-2.12s-1.78.8-1.86,1.93c-.19,2.69-.36,5.37,1.39,7.74A17.2,17.2,0,0,1,210.21,369.85Z"/>
      <path class="cls-1" d="M266.83,346.65c-.38-3.23-1.32-6-4.17-7.85-6.17-3.95-15.38.27-16.42,7.52a6.48,6.48,0,0,1-1.16,2.5c-1.17,1.75-2.43,3.43-3.44,4.85-2.34-1.56-4.83-3.2-7.28-4.89a2.26,2.26,0,0,1-.92-1.29c-1-6.66-7.05-9.9-13.06-6.84-3.93,2-6.21,5.3-7.27,9.72-.73,0-1.5,0-2.26,0-2.9-.12-4-1.15-4-4.07a25.11,25.11,0,0,1,6-16.87,35,35,0,0,1,25.11-12.85c8.1-.66,15.72.64,22.51,5.28s10.8,11,11,19.47C271.57,345.29,271.11,345.75,266.83,346.65Z"/>
      <path class="cls-1" d="M226.12,315.76c-14,6.38-23,15.79-22.55,31.71-5.34,1.72-8.63-1.32-11.43-4.93-2.64-3.4-3.46-7.43-1.11-11.25,3.77-6.14,9.69-6.09,15.46-4.78-1-2.51-2.34-5.08-3-7.81-1.24-5.41,1.69-9.79,7.13-10.6a14.73,14.73,0,0,1,13.17,4.11A20,20,0,0,1,226.12,315.76Z"/>
      <path class="cls-1" d="M269.29,322.24c5.62-2.35,11.25-3,15.94,1.93,2.92,3.09,3.1,7,1.32,10.72-2.29,4.78-5.41,8.68-11.62,7.6-.83-16.58-10.8-25.08-25.94-29,2-5.93,9-10.12,15.11-9.15,5.42.86,8.56,5.89,7.21,11.78C270.84,318.22,270,320.18,269.29,322.24Z"/>
      <path class="cls-1" d="M363.43,255a81.06,81.06,0,0,0-8.54.8,9,9,0,0,0-6.63,5.49c-.3.67-1.54,1.06-2.41,1.27-3.6.88-5.23,2.57-5.75,6.16a6,6,0,0,1-.23.83c-3.07-.24-5.54-3.26-5.83-7.07a12.54,12.54,0,0,1,9.33-13.41c7.18-2.15,13.57-.49,19,4.7A15.05,15.05,0,0,1,363.43,255Z"/>
      <path class="cls-1" d="M245.69,312.56l-16.77,1.76a5.81,5.81,0,0,1-.15-7.27,10.05,10.05,0,0,1,9.09-4.68,9.75,9.75,0,0,1,6.51,2.9C247.08,307.81,247.29,309.49,245.69,312.56Z"/>
      <path class="cls-1" d="M249.66,345.25a7.83,7.83,0,0,1,9.09-4.67c3.29.83,5.11,3.23,4.75,6.38C259,345.46,254.57,343.64,249.66,345.25Z"/>
      <path class="cls-1" d="M216.65,350.75c0-4.34,5.67-8.88,9.63-7.79,2.19.61,3.33,2.16,3.89,4.59C224.86,345.45,220.81,348.24,216.65,350.75Z"/>
      <path class="cls-1" d="M220.84,351.54c2.41,1.14,4.41,1.21,5.36-1.81a3.06,3.06,0,0,1,.34,4,3,3,0,0,1-3.63,1.22C221.54,354.54,220.73,353.56,220.84,351.54Z"/>
      <path class="cls-1" d="M252.23,348.29c1.67,2.08,3.44,3,5.61.7a3.08,3.08,0,0,1-1.42,3.75,3,3,0,0,1-3.81-.48C251.55,351.3,251.25,350.07,252.23,348.29Z"/>
    </g>
    <g>
      <path class="cls-1" d="M643.44,651.58c2.76-.87,9.82-2.9,12.37-2.24,1.08.27,1.9.95,1.5,2.2s-1.25,1.14-2.34,1c-5-.89-12.34,2.11-12.46,5.65,4.27,1.68,13.19-.65,17.27-3.55.54-.38,3-1.88,4.11-.29.68,1-.3,1.75-.85,2.14a48.23,48.23,0,0,1-4.83,2.78c2.65,1.92,9.13,1.07,12.52-.86a33.65,33.65,0,0,1,8.13-3.54c2.37-.6,27.78-.22,31-.11,3.4.11,5.06-1.2,5.34-4.6a16.42,16.42,0,0,0-1.72-9.56c-2.87-5.17-5.46-10.49-8.35-15.65a38.7,38.7,0,0,1-4.6-17.34c-.32-6.77-1.4-13.33-4.76-19.31-2.29-4.07-4.81-8-8.82-10.68a1.57,1.57,0,0,1-.56-1.79c.28-1.07,2.32-1.59,4.76.83A39.9,39.9,0,0,1,702.26,596a64.83,64.83,0,0,1,1.38,9.93,55.07,55.07,0,0,0,5.92,20.33c3.12,6.32,6.34,12.59,9.55,18.87,3.83,7.52,12.22,13.68,22.79,11.82,8.37-1.47,13.92-6.5,15.55-12.33a3.05,3.05,0,0,0-.7-2.13c-2.65-3.75-7.88-8.62-9.53-15-.28-1.08-.11-2,1-2.3s1.76.41,2.11,1.42C753.23,634.89,759,641,765.88,646c16.71,12.25,46,22.16,54.92,22.73.92.06,3-.12,3.41-1.38.56-1.78.11-3-5.56-5.19-12-4.63-22.35-12.22-32-20.69a65.09,65.09,0,0,1-21-48.26c0-9,4.64-34.17-3-44.88a1.69,1.69,0,0,0-2.57-.58c-2.12,1.24-4.22,2.5-6.38,3.64a1.68,1.68,0,0,1-1.57-.22,104.2,104.2,0,0,1-5.54-10.43,26.93,26.93,0,0,1-1.26-15.69,29,29,0,0,0-.68-13.85,37.62,37.62,0,0,1-2.76,3.84c-5.72,6.11-7.29,5.47-11.21-.3-3.39-5-5.74-10.39-5.58-16.67a97.46,97.46,0,0,0-.5-11.06c-.11-1.22-.89-2.39-1.49-3.88a21.14,21.14,0,0,1-1.76,2.68,69.34,69.34,0,0,1-5.2,5.09,2.54,2.54,0,0,1-2.23-.14c-6.18-3.58-9.75-9.19-11.88-15.81-.49-1.51-.6-3.14-1-4.69-2.57-10.51-9-17.59-19.19-21.15-1.11-.38-2.14-.77-1.78-2.18s1.39-1.34,2.58-1c8.5,2.46,14.29,8.14,18.68,15.55,2,3.45,2.75,7.29,3.58,11.13a24,24,0,0,0,8.25,13.73c1.79,1.5,2.55,1.47,4-.39a50,50,0,0,0,3.18-5c.31-.5.49-1.09.78-1.61.9-1.62,2-1.7,3.24-.29,2.62,3,3.7,6.7,4.17,10.51a76.66,76.66,0,0,1,.39,9.83c0,6,2.34,11,6,15.57a1.27,1.27,0,0,0,2.1.24,14.29,14.29,0,0,0,5.39-8.42c.13-.7.75-1.79,1.23-1.83a2.74,2.74,0,0,1,2.12,1.08A21.14,21.14,0,0,1,749,517.86a87.77,87.77,0,0,1-.73,10.73,23.32,23.32,0,0,0,2.7,14.2c.8,1.46,1.67,2.88,2.58,4.46,2.12-1.17,4.17-2.23,6.16-3.4a2.79,2.79,0,0,1,4,.72c2.79,3.48,4.19,9.73,9.68,13.94,8.84,6.79,27.85,13.06,30.69,11-17.72-13-47.14-59.8-55.41-78.19-18.25-40.57-62.18-62.06-66.79-61.77-1.8.11-3.84,5.76-4.85,6.64a3.17,3.17,0,0,1-2.66.48c-1.06-.39-.58-1.42-.43-2.43a22.7,22.7,0,0,0-.16-6.16c-1.49,3.82-3,7.65-4.5,11.44-1.3,3.19-2.63,4.7-4.48,4.36-1-.19-1.14-1.41-1.21-2.22-.29-3.48-1-10.51-1.17-10.52a42.06,42.06,0,0,1-8.3,20.39c-5.22,6.42-12.41,5.32-15.11,2a16.89,16.89,0,0,1-3.45-10,46.81,46.81,0,0,1,6.36-26.65c.27-.46,1.15-2.44,2.86-1.81s.48,2.61.33,2.86a43.56,43.56,0,0,0-6.33,24.47c.12,3.3,2.21,11.82,7.58,10.09,3.6-1.17,4.42-4.46,4.93-7.73,1-6.11.38-12-.8-18.18-.07-.29-.71-2.82.92-3.13a1.63,1.63,0,0,1,2,1.52c.53,2.94,2,13.22,1.48,18.5a47.9,47.9,0,0,0,3.26-7.95,24,24,0,0,0,.26-13.11c-.28-1.05-.33-2,.76-2.43s2.23-.53,3.08.59c1.49,2,3.86,11.34,5.06,15.85,1-3.75,3.1-12.52,3.32-14.05.15-1.05.14-2.16,1.25-2.41,1.75-.41,2.07.24,2.56.9,1.92,2.64,2.83,7.13,2.93,8.34a17.09,17.09,0,0,0,.71-11.89c0-.17-1.36-2.91.21-3.59,1.79-.76,2.27.81,2.7,2a21.13,21.13,0,0,1,1.11,9.58c1.81-3,3.78-6,2.75-9.74-1.51-5.51-3.67-10.75-7.38-15.21-.7-.83-1-1.72-.05-2.51a1.55,1.55,0,0,1,2.48.39q3,4.74,5.87,9.58c.38.63,1.18,2.06,1.38,2,1.27-7-5.74-17.11-8-19.19-.72-.68-1.41-1.33-.78-2.25,1-1.47,1.89-.78,2.36-.53,2.2,1.17,7.9,8.64,9.21,14a12.86,12.86,0,0,0,1.06-8.17c-.85-5.47-5.47-10.7-6.48-11.72-.52-.53-1.49-1.35-.92-2.19,1.76-2.61,4.21.15,5.13,1.07,2.93,2.92,6.49,11.38,6.46,16,6.67-.75,45.16-27.39,60.79-46.1,28.68-34.34,46.27-104-16.62-120.68-2.36-.35-6,0-7,4.64-1.28,5.55,4.38,6.85,5.67,7.34a30.45,30.45,0,0,1,19.73,27.09c1,16.92-4.7,31.31-15.58,43.91-3.56,4.12-6.43,7.29-11.09,10a5.71,5.71,0,0,0-2.47,2.88,44.67,44.67,0,0,1-7,9.73c-.89.72-1.66,1-2.49.14a1.57,1.57,0,0,1,.14-2.39c4.12-4.28,5.71-7.25,7.16-15.1,4.3-23.33-20.07-51.27-20.28-51.21,0,.79,2.76,14.25,3.88,20.23,1.36,7.19,2.15,14.44,1.28,21.78-1.09,9.19-6,15.92-13.32,21.21-7.92,5.73-16.82,9.49-25.74,13.29a122.84,122.84,0,0,0-15,7.21c-7.1,4.23-10.26,11.1-11,19.15-.79,8.53.91,16.78,2.65,25.05A58.58,58.58,0,0,1,650,405.11c-12-2.24-23.38-5.15-30.33-16.51-16.64,8.56-31.47,6.07-44.58-7.34a46.54,46.54,0,0,1,1.56,6.42,34.26,34.26,0,0,1,.17,8.87c-.78,4.91-4.1,6.69-8.83,5.08-6.21-2.12-11.16-6.14-15.7-10.75-5.69-5.78-9.72-12.68-13.45-19.8-.58-1.11-1.24-2.19-1.72-3.34-3.79-9.21-10.86-15.05-19.46-19.52-6-3.1-11.76-6.56-17.58-10a48.23,48.23,0,0,1-4.55-3.44,52.89,52.89,0,0,0,2,6c1.75,3.71,3.57,7.42,5.68,10.94.86,1.42,2.62,2.29,3.86,3.52.62.62,1.4,1.47,1.4,2.22,0,1.16-1.12,1.23-2.17,1.24a2.91,2.91,0,0,0-2.66,4.38,12,12,0,0,0,3.22,3.51,20.89,20.89,0,0,0,10,4,2.19,2.19,0,0,1,2.45,2c-.09,1.5-1.42,1.38-2,1.29-2.46-.4-4.87-1.09-7.3-1.69-.5-.13-1-.35-1.69-.62-.1,1.93,1,3,2,4.1A24.18,24.18,0,0,0,520.75,382c1,.29,2.27,1,2,2.45a1.42,1.42,0,0,1-1.76,1c-6.35-1.76-12-4.09-15.52-10.57a4.86,4.86,0,0,1,0-4.84l-4.57-4.32c-3.94,25.42-1.14,83.6,58.66,115.15,7.56,4,4.53,11.49-1.5,15.77-3.73,2.66-8.15,2.61-12.47,2-8.33-1.14-33.54-12.43-38.38-15-9.78-5.24-19.27-3.84-28.64.91-3.34,1.69-4.28,4.19-3,7.64a66.42,66.42,0,0,0,3.33,6.64c3.34-2.45,6.61-4,10.37-4.11a12.23,12.23,0,0,1,2.49.18c1.08.17,1.79.3,1.54,1.94-.16,1.09-1.31,1.28-1.95,1.23a11.39,11.39,0,0,0-7.94,2.18c-3.68,2.65-3.5,8.76.35,11.27a3.79,3.79,0,0,0,4.54,0c10.78-7.61,21.81-6,32.72-.58,8.34,4.16,34,23,58.47,24.12,11.8.56,19.12-13.94,17-20.82-1.68-5.43-9.29-13.12-12.77-17.75-3.25-4.33-2.83-9.21-1.72-14.11.24-1.05.47-2.11.81-3.12,1.84-5.4,1.22-10.72-.44-16-.34-1.11,0-2,1.06-2.21,2-.37,2,.75,2.22,1.44a46.63,46.63,0,0,1,1.28,5.93c1,4.81-.27,9.49-.87,14.21-.22,1.77-.44,3.55-.55,5.34a12.68,12.68,0,0,0,3.11,8.89c9.46,11.91,20.88,21.64,33.3,30.27a2.08,2.08,0,0,1,1,2.61c-7.43,20.8,2.53,100,2.5,100.71-.15,3.38-2,5.28-5.41,5.43-3.83.17-7.66.14-11.48.39-13.19.67-16.63,8.75-13.42,21.48,2.66-12.75,14.69-17,24.69-16.13,1.15.11,3.13.31,3,2.37-.06.81-1.13,1.13-1.79,1.18-2.77.22-5.58,0-8.33.38-6.09.76-10.26,4.43-12.87,9.71-.78,1.59-2.24,6.87,1.69,6.83,2.33,0,11.78-.52,14.15-.75a11.45,11.45,0,0,0,4.26-1c4.89-2.67,8.55-6.48,10.19-12,.33-1.08.86-2,2.14-1.63s1.31,1.44,1,2.48a21.06,21.06,0,0,1-5.43,9.16c-1,1-2.07,2-3.52,3.34,1.25.09,8.77.9,12.95-6.05,4.2-6.38,7.21-13.32,6.71-21.15a43.54,43.54,0,0,0-2.17-10.31,73.25,73.25,0,0,1-3.24-27.45,446,446,0,0,1,10.57-69,7.81,7.81,0,0,0-1.69-7.3c-2.9-3.5-6-6.88-8.71-10.5-3.1-4.09-9-18-1.44-25.53,6.6-6.61,37.35,1.42,65.14,32.06,36,39.73,34.89,79,32.59,88.09-.27,1.06-1.23,3.9-3.25,3.4a1.29,1.29,0,0,1-.94-1.84c3.12-7.6,1.68-36.82-26.37-58.71-12.78-10-27.66-1.66-28.77,18.72-1.61,29.44,20.12,71.16,20.88,74,.62,2.37.25,2.62-2.28,2.66-5.51.07-29-1.31-46.62,2.05-1.33.25-2,.55-2.4,1.86C644.78,648.44,644,650.11,643.44,651.58Z"/>
      <path class="cls-1" d="M555.87,265a32.49,32.49,0,0,1,2.18-2.73c2.53-2.57,4.55-2.86,7.75-1.29a21.34,21.34,0,0,0,5.06,2.23,25,25,0,0,0,8.14.6c5.75-.82,9.87,1.17,12.58,6.13a38.22,38.22,0,0,1,3,7.47c-2.33-2-4.53-4.21-7-6A21.51,21.51,0,0,0,576,267c-8.9-.55-16,7.71-17.45,14.13-.95,4.32.52,7.92,3,11.39,3.1-4.81,8.65-7.22,12.75-5.64-.48,1.38-1.31,5.58-1,6.12.11.18,1.14-.07,1.66-.32a10.88,10.88,0,0,1,13.93,4.41c1.45,2.39,2.1,5.26,3.09,7.93.16.43.21.91.4,1.72,3.07-5.21,7.36-8,13.21-7.56s9.58,3.8,11.89,9.51c.35-.93.56-1.45.74-2a17.94,17.94,0,0,1,6.09-9.1c4.17-3.1,9.11-3,13.79.36,2.17-2.09.48-4.27.15-6.38,3.41-1.71,9.5,1.87,11.88,7.14a13.53,13.53,0,0,0,4.66-10c.05-7.21-6.12-15.12-13.09-16.89-4.57-1.16-9-.23-13.07,1.75-3.14,1.53-6,3.6-8.88,5.35a1.21,1.21,0,0,1,.17-.62,69.79,69.79,0,0,1,4.13-6.66c3.08-4,7.19-5.32,12.12-3.84a19.58,19.58,0,0,0,13.67-.69c3.92-1.65,6.24-.78,8.85,3.52.27.44.48.9.72,1.35l.63,0a29.76,29.76,0,0,0,.76-4.53c.17-10.13-9.16-20.31-19.26-20.55-7.83-.18-14,3.39-18.55,9.82-3.67,5.24-5.52,11.26-7.19,17.29-1,3.46-1.1,7.16-1.49,10.76-.13,1.16-.12,2.27-1.63,2.25s-1.64-1.13-1.66-2.28a51.25,51.25,0,0,1,4.78-22.25c1.44-3.22,3.07-6.34,4.68-9.48a25.32,25.32,0,0,0-5.59-30.94c-3.47-3.11-3.91-3.05-7.65-.61a24.24,24.24,0,0,0-8.59,9.82,25,25,0,0,0-.87,21.4,39.55,39.55,0,0,1,2.84,14.74c0,5.08,0,10.17,0,15.25,0,1.21-.12,2.49-1.67,2.43s-1.7-1.34-1.58-2.66c.86-9.5-.78-18.66-3.58-27.72-2.16-7-11.78-12.92-19.05-12.42-9.32.64-15.65,5.82-18.31,14.23A27.16,27.16,0,0,0,555.87,265Z"/>
      <path class="cls-1" d="M488.36,259.91c-4.13-2.3-8.11-1.76-12.13-.18a9,9,0,0,1-2.84.51c-2.05,1.27,0,4.77.16,5.3a1.55,1.55,0,0,1-.7,1.9c-.84.64-2.25-.16-3.27-2.55-2.93,2.74-.21,7.2.26,8.35s.48,2.14-.61,2.49c-2.12.67-3.68-4.3-3.86-4.33-1.5,5-3.45,10.54-4.53,15.63-6.56,30.74.8,57.89,21.48,81.48,3.9,4.45,7.9,8.8,11.84,13.21.44.49.82,1,1.53,1.91,1.27-9.58.4-19.16,7-26.78a52.39,52.39,0,0,1-11-22.12,22.79,22.79,0,0,0-4.14-8.24c-6.11-8.53-11.12-17.64-12.52-28.22C472.92,282.33,478.46,268.3,488.36,259.91Z"/>
      <path class="cls-1" d="M631.68,369.85a12.6,12.6,0,0,0,6.84-6.77,20.9,20.9,0,0,0,2-9.57c-.07-2.56-.82-3.05-3.27-2.17-.17.06-.34.1-.51.17-1.92.71-3.8,1.77-5.78,2s-4.14-.23-6.45-.42c-.6,2.08-1.75,4.07-4.11,4.76a8.92,8.92,0,0,1-4,.25c-3-.55-4.61-3-5-7-5.19,1.1-9.64,4.51-9,8.85.18,1.1.18,2.42,1.63,2.68,1.1.19,1.54,2.54.84,3.39s-2.69,1-2.69,1v4.2l3.57.31a2,2,0,0,1,1.81,2.89c-1.43,3.61-7.37,6.52-11.33,3.67a14.27,14.27,0,0,1-3.5-3.75c-.51-1,0-2.87,2.42-3.11a16.87,16.87,0,0,1,3.56,0V367a9.88,9.88,0,0,1-2.73-1c-.73-.79-.13-3.06.86-3.39,1.71-.59,2-2.3,1.36-4.12a75.09,75.09,0,0,0-3.35-6.92c-1.09,1.43-1.9,3-3.17,4a6.84,6.84,0,0,1-3.85,1.14c-4,.14-6.77-2.12-8.5-6.62a35,35,0,0,1-6.18-.58c-1.7-.46-3.18-1.68-4.79-2.51a13,13,0,0,0-3-1.23c-.4-.09-1.21.5-1.42,1-2.16,4.76.06,14.09,4.09,17.44a17.19,17.19,0,0,0,1.59,1.06c-.55-2.55-1.35-4.75-1.39-7,0-1.56.91-3.18,1.6-4.69a1.48,1.48,0,0,1,1.7-.09,1.66,1.66,0,0,1,.67,1.78c-1.38,2.26-.29,4.39,0,6.59.44,3.06.74,6.14,1,9.21a8.55,8.55,0,0,0,2.07,4.63c5.29,6.67,11.85,11.42,20.16,13.49,10.57,2.62,19.87-.11,28-7,3.52-3,4.39-7.23,5-11.55a8.83,8.83,0,0,1,.75-3.2c1.39-2.38,2.37-4.78,1.88-7.61-.19-1.06.16-2,1.37-2.12s1.78.8,1.86,1.93c.19,2.69.36,5.37-1.39,7.74A17.2,17.2,0,0,0,631.68,369.85Z"/>
      <path class="cls-1" d="M575.06,346.65c.38-3.23,1.32-6,4.17-7.85,6.17-3.95,15.38.27,16.42,7.52a6.48,6.48,0,0,0,1.16,2.5c1.17,1.75,2.43,3.43,3.44,4.85,2.34-1.56,4.83-3.2,7.28-4.89a2.26,2.26,0,0,0,.92-1.29c1-6.66,7-9.9,13.06-6.84,3.93,2,6.21,5.3,7.27,9.72.73,0,1.5,0,2.26,0,2.9-.12,4-1.15,4-4.07a25.11,25.11,0,0,0-6-16.87A35,35,0,0,0,604,316.57c-8.1-.66-15.72.64-22.51,5.28s-10.8,11-11,19.47C570.32,345.29,570.78,345.75,575.06,346.65Z"/>
      <path class="cls-1" d="M615.77,315.76c14,6.38,23,15.79,22.55,31.71,5.34,1.72,8.63-1.32,11.43-4.93,2.64-3.4,3.46-7.43,1.11-11.25-3.77-6.14-9.69-6.09-15.46-4.78,1-2.51,2.34-5.08,3-7.81,1.24-5.41-1.69-9.79-7.13-10.6a14.73,14.73,0,0,0-13.17,4.11A20,20,0,0,0,615.77,315.76Z"/>
      <path class="cls-1" d="M572.6,322.24c-5.62-2.35-11.26-3-15.94,1.93-2.92,3.09-3.1,7-1.32,10.72,2.29,4.78,5.41,8.68,11.62,7.6.83-16.58,10.8-25.08,25.94-29-2-5.93-9-10.12-15.11-9.15-5.42.86-8.56,5.89-7.21,11.78C571.05,318.22,571.91,320.18,572.6,322.24Z"/>
      <path class="cls-1" d="M478.46,255a81.06,81.06,0,0,1,8.54.8,9,9,0,0,1,6.63,5.49c.3.67,1.53,1.06,2.41,1.27,3.6.88,5.23,2.57,5.75,6.16a6,6,0,0,0,.23.83c3.07-.24,5.54-3.26,5.83-7.07a12.54,12.54,0,0,0-9.33-13.41c-7.18-2.15-13.57-.49-19,4.7A15.05,15.05,0,0,0,478.46,255Z"/>
      <path class="cls-1" d="M596.2,312.56,613,314.32a5.82,5.82,0,0,0,.15-7.27,10.06,10.06,0,0,0-9.1-4.68,9.74,9.74,0,0,0-6.5,2.9C594.81,307.81,594.6,309.49,596.2,312.56Z"/>
      <path class="cls-1" d="M592.23,345.25a7.83,7.83,0,0,0-9.09-4.67c-3.29.83-5.11,3.23-4.75,6.38C582.88,345.46,587.32,343.64,592.23,345.25Z"/>
      <path class="cls-1" d="M625.24,350.75c0-4.34-5.67-8.88-9.63-7.79-2.19.61-3.33,2.16-3.89,4.59C617,345.45,621.08,348.24,625.24,350.75Z"/>
      <path class="cls-1" d="M621.05,351.54c-2.41,1.14-4.41,1.21-5.36-1.81a3.06,3.06,0,0,0-.34,4A3,3,0,0,0,619,355C620.35,354.54,621.16,353.56,621.05,351.54Z"/>
      <path class="cls-1" d="M589.66,348.29c-1.67,2.08-3.44,3-5.61.7a3.08,3.08,0,0,0,1.42,3.75,3,3,0,0,0,3.81-.48C590.34,351.3,590.64,350.07,589.66,348.29Z"/>
    </g>
  </g>
  <path class="cls-1" d="M386.13,665.25S295.71,677.19,300,637.93C303.48,606.16,386.13,665.25,386.13,665.25Z"/>
  <path class="cls-1" d="M399.38,653.33S291.63,621.74,314.5,584.8C336.53,549.23,399.38,653.33,399.38,653.33Z"/>
  <path class="cls-1" d="M411.13,645.29S317,565.42,356.08,527C388,495.61,411.13,645.29,411.13,645.29Z"/>
  <path class="cls-1" d="M420.94,635.22s-57.52-124.36,0-141C478.48,510.86,420.94,635.22,420.94,635.22Z"/>
  <path class="cls-1" d="M454.43,678.26c-16.92,10.18-24,27.12-33.49,41.36-9.49-14.24-16.57-31.18-33.49-41.36,7.22-10.74,18.11-25.16,33.49-24.3C436.35,653.1,447.21,667.52,454.43,678.26Z"/>
  <path class="cls-1" d="M455.76,665.25s90.42,11.94,86.13-27.32C538.41,606.16,455.76,665.25,455.76,665.25Z"/>
  <path class="cls-1" d="M442.51,653.33s107.75-31.59,84.88-68.53C505.36,549.23,442.51,653.33,442.51,653.33Z"/>
  <path class="cls-1" d="M430.76,645.29S524.87,565.42,485.81,527C453.87,495.61,430.76,645.29,430.76,645.29Z"/>
</svg>
