<svg id="Livello_1" data-name="Livello 1" xmlns="http://www.w3.org/2000/svg" viewBox="0 0 841.89 841.89">
  <defs>
    <style>
      .cls-1 {
        fill: #231f20;
      }
    </style>
  </defs>
  <title>Glos</title>
  <path class="cls-1" d="M551.69,104.48c.6.69,15,3.87,17.75,4.77,19.91,6.5,46,21.42,9.59,31.18-6,1.6-18.3,5-23.37.74a3.92,3.92,0,0,0-3.75-.78c-1.8.61-2,2.24,0,4.62,3.42,4.23,13,3.09,19.69,2.28a2.2,2.2,0,0,1,2.17,3.27,28.39,28.39,0,0,0-2.85,5.67c-2.87,9.31-2.07,18.7,1.47,27.69,5,12.59,19.87,20.11,30.87,28.4a2.53,2.53,0,0,1-.8,4.46c-7.25,2.13-15.76,4.48-20.32,10.07-6.11,7.48,2.26,3.78,5.08,4.47,3.52.86,1.65,2.07,4.49,3.21,7.62,3.05,7.59-.38,12.89-3.42,1.35-.77,2.95-.74,4.23-1.43a1.17,1.17,0,0,0,.29-1.83,30.22,30.22,0,0,0-5.68-4.1c-1-.66-1.31-1.18-.23-1.7,2-1,9.07-1,12-.51,3.17.57,12.73,6.65,17.44,8.43,12.68,4.8,32.19,8.77,45.7,8.9,16.44.16,41.74-8.25,36.92,19.6-.54,3.12-5.31,2.29-6.52,1.25-.26-.23-1.44-4.68-2.64-6.45-5.88-8.71-19.12-9.82-26.89-4.24-2.42,1.74-.86,2.74.21,3.7,5.24,4.74,23.29,11.43,31.67,13.06a2.75,2.75,0,0,1,1.93,3.92c-5.41,10.67-22.43,16.34-33.25,14.67-3.24-.5-6-2.34-8.54-3-3.38-.83-3.88,3-2,4.87,4.81,4.66,19.81,3.88,27.9,1.47a2.33,2.33,0,0,1,2.94,2.76c-1.37,5.6-10.47,7.32-15.93,7.75-28.53,2.25-78.37-9.07-91,26.81-8.3,23.55,5.13,33.16,14,52,12,25.46,23,62.67,27.31,90.51.09.55.3,1.46.48,2.43a4.24,4.24,0,0,1-3.12,4.88c-12.19,3.18-23.75.19-34.71-6.36-7.28-4.36-14.21-12.45-22-15.32-7-2.54-15.7-2-23.65-4.13-10.6-2.83-24.68-12.19-34.88-10.93-9.12,1.13-13.75,11.58-4.68,15,10.26,3.91,25-.15,37.84,3.35,6.16,1.68,10.76,5.59,16.1,7.85,7.72,3.28,16.27,4.87,23.63,8,5.93,2.52,10.49,7.08,16,9.91,10.66,5.53,26.78-1.21,38.85,1.06,3.67.68,4.37,5.92,4.75,8,.5,2.78,1.9,5.84,1.61,7.14-.72,3.19-4.85,3.13-5.79,4.67-1.37,2.22.25,6.5-.61,9-.51,1.44-2.55,1.56-3.18,2.57-1.83,2.91-3.06,49.49-4.46,58.77-3.69,24.36-25.24,51.25-45,65.2-2.31,2.1.17,5,2.61,5.15,3.82.22,21.67-17.74,29.84-26.54a4.42,4.42,0,0,1,6.69.25c12.79,16.09,29,27.17,46.25,38.36,20.08,13,53.92,24.12,45.45,54.23-4.07,14.45-13.65,14.22-26.57,12.15-16.94-2.7-28-12.63-43.61-18.65-27.93-10.76-59-14.88-88.91-13.55a1.81,1.81,0,0,0-1.63,1.23,3.12,3.12,0,0,0,.87,3.33c32-.21,66.47,3.89,95.81,17.22,3.85,1.75,17.25,8.53,19.47,11.19,3.25,3.9-.78,13.92-3.41,17.65-12.19,17.3-42.44,8.94-59.82,5.34-26.76-5.52-57.26-13.3-83.54-20.88-30-8.62-57-25.07-59.23-59.56-1.56-24.42,2-49.11,12.23-71.29a.71.71,0,0,0-.26-.9,4,4,0,0,0-5.51,1.22c-1.57,2.43-2.59,6.09-3.31,8-8,20.72-9.86,44.28-8.21,66.41a3.51,3.51,0,0,1-3.71,3.76c-13.35-.81-24.68-9.43-37.77-11.38-18.91-2.84-39.36.48-58.35-4.58a2.87,2.87,0,0,1-1.36-4.74c4.5-4.82,7.47-6.74-1.32-12-17.32-10.43-50.76-17.88-70.13-11.38-5.79,1.95-10.27,7.12-15.72,8.24-4.47.92-8.74-.09-13,.44-16.32,2-44.31,11.83-56.51,23-1.31,1.19-7.81,7.6-2.89,8.59,1,.2,14-9.94,17.07-11.66,9.87-5.61,27.39-13,38.6-14.09,9.08-.9,15.42.74,24.54-3.24,3.65-1.6,5.56-4.62,7.7-5.8,10.48-5.79,36.79.71,48.6,3.64,5.48,1.36,11.68,2.58,16.73,5.48a4.23,4.23,0,0,1,.74,6.82c-13.48,12-35.85,10.5-52.93,14.53-10.25,2.42-20.15,7-30.44,9.79-24.48,6.72-51.52,10.69-74.63,21.18C181.62,704.92,157,723.69,133,716.2c-19.09-6-7.1-18.88-2.61-30,8.5-21.09,13.15-40.26,5-62.47-4.38-12-13.08-22.36-15.75-35-2.47-11.65.48-20.87,1.62-32.29.1-1.08-.57-13.36,1.51-13.1a.56.56,0,0,1,.47.44c2.51,9.62,17.52,29.59,29.39,34.9a2.85,2.85,0,0,0,2.48-5.13,37.23,37.23,0,0,1-4.45-2.43c-35.42-25.71-44.18-89.53-15.52-123.42,36.7-43.37,95.05-42.35,144.69-24.91C321.55,437.38,380.5,477,423.55,473.52c34.83-2.79,73.59-44.67,76.17-79A86.44,86.44,0,0,0,499,378a1,1,0,0,1,2-.59c3.59,7.18,7.38,14.35,10.45,21.74,2.25,5.4,6.15,20.71,8.39,23.93s5.65,1.45,4.65-3.42c-5-24.41-26.23-57.29-36.36-81.49-13.14-31.39-15.38-61.78-5.31-94.73,3.3-10.81,8.68-14.44,18.24-20.08,15.16-8.93,32.52-14.05,50.14-11.82a2.25,2.25,0,0,0,1.18-4.31c-1.5-.59-2.76.09-3.6-1.08-2.11-3-.87-6.44-1.59-8.47-3-8.25-13-15-18.66-21.57-2-2.35-2-6.37-6-6.05s-2.19,3-3,5.61c-3.72,11.41-7.83,20.57-4.35,32.57a2.91,2.91,0,0,1-2,3.59c-7.89,2.4-14.77,7.13-21.55,11.69-.61.41-1.31,1.56-2,1a.92.92,0,0,1-.28-1c4.26-16.06,7.91-30.1,14.41-44.77,6-13.59,13.12-20.21,11.82-34.74-.37-4.17-2.3-6.17-4.14-9.29-9.79-16.53-14.57-26.85,7.7-30.32,2.71-.42,4.19-.31,5.34-.88.55-.28,4.36-7.54,6.4-9.4,8-7.31,15.69-2.29,19.27,5.73,1.74,3.93,1,4,1.6,4.61"/>
</svg>
