<svg id="Livello_1" data-name="Livello 1" xmlns="http://www.w3.org/2000/svg" viewBox="0 0 841.89 841.89">
  <defs>
    <style>
      .cls-1 {
        fill: #231f20;
      }
    </style>
  </defs>
  <title>Glos</title>
  <path class="cls-1" d="M584.94,552.86a1.39,1.39,0,0,0,1.22-1,1.32,1.32,0,0,0,.13-.7c-.1-2.57-13.52-14.2-15.63-16.66-24.29-28.27-32.22-55.41-42.77-90.65-6.45-21.59-21.91-38.5-23.51-61.46a.7.7,0,0,0-.75-.67c-3,.26-10.13.67-13-.79a1.84,1.84,0,0,1-.95-1.81l0-.36a1.21,1.21,0,0,1,1.3-1.13c3.07.29,6.12,1.18,9.22,1.15,12.71-.13,18.5-7,29.22-11.68,12.09-5.27,25.93-7.34,39-8.17a.58.58,0,0,0,.52-.69c-.68-3.86-9.58-12.92-8.61-14.51,1.19-1.95,3.58.64,4.5,1.65,8.74,9.52,14.9,27.83,16.16,41a1.16,1.16,0,0,0,.68,1,1.66,1.66,0,0,0,1.16.07c4.58-1.44,18.2.74,19.61,5.07,1.75,5.36-11.66,4.82-13.88,2.75a3.17,3.17,0,0,1-.78-2.6,1.92,1.92,0,0,0-1.88-2.11c-2,0-4.39.07-5.29,1.1-.29.34-3.15,5.34-3.67,8.09a19,19,0,0,0,19.93,22.86c17.18-1.34,32.75-23.8,36.47-40.22.56-2.48.73-9.69,3.37-9.33,3.19.44-.5,11-1.27,15.41a3.7,3.7,0,0,0,.54,2.64c3.85,6,9.78,11.52,13.06,17.62,3,5.5,5.7,20.62,11,23.18,6.89,3.33,9.1-8.65,9.46-13.45,1.42-19.43-4.24-41.83-20.14-53.71-3.73-2.79-2.84-1.79-6.64-3.62a.69.69,0,0,1-.29-1l.36-.63a1,1,0,0,1,1.07-.46l4.54,1.22a2.1,2.1,0,0,0,2.59-2,47,47,0,0,0-.25-5.92c-.14-1.88-1.11-3.92-1-5.53s1.93-2.62,2.65-4.07c5.7-11.6-2.82-20.72-9.89-28.94a1.57,1.57,0,0,0-2.67.43c-1.56,3.62-4.81,9.36-6.31,5.55-.5-1.26,3.73-4.41,4.83-11.48,1.13-7.3-1.38-16.41-4.12-20.22-5.24-7.26-18-4.41-26.19-1.71a6.2,6.2,0,0,1-5.73-1c-7-5.34-14.49-9.91-23.2-11.1a.88.88,0,0,0-.79,1.39c1.49,2.25,4.66,6.2,5.21,7.08,3.7,5.91,5.68,15.22,8.43,19.07.61.85,4.32,3.75,5.4,4.72a79.22,79.22,0,0,1,18,23.53c1.07,2.24,4.34,8.57,2.48,10.42-3.64,3.63-18.32,3.57-23.19,2.19-8.68-2.45-3.18-13.27.11-12.95,4.25.41,10.14,9.05,15.77,8.39a3.33,3.33,0,0,0,2.49-4.65c-3.77-9.15-10.91-18.89-18.18-24.59-5-3.9-7.92-5.36-14.13-2.57-1.87.83-3.19,3.12-5.24,2.2-4.1-1.82-6.83-23.53-5.94-31.43a1.66,1.66,0,0,0-1.59-1.88l-70.31-.09C445,273.47,397.09,300.73,346,306.37c-36.53,4-70.88-6.22-107.15-.49-9.58,1.52-20.41,6.57-29.34,6.79-6.22.15-15.3-.65-21.12-3-6.09-2.48-10.83-9-17.74-4.42-8.08,5.4-1.22,17.77,3.79,23.08,9.53,10.11,23.24,13.5,37,11.15,1.7-.3,3.82-2.51,5.21-1.14a2,2,0,0,1,0,2.74,13.42,13.42,0,0,1-5.91,3c-6.26,1.13-13.18.32-19.49-.9a1.78,1.78,0,0,0-2.06,1.46A128.9,128.9,0,0,0,186.56,371c.11,13.28,3.31,27.39,1.69,40.59-1.79,14.63-14.88,18.25-14.79,38.74.09,22.81,7.71,30,16.52,48.17,4.78,9.86,1.26,9.52,1.68,17.4s11.18,16.69,17.66,19.29c2.43,1,8.68,1.36,7.29,3.89a2,2,0,0,1-2.18,1l-4.36-1a1.58,1.58,0,0,0-1.87,1.78l.86,7.86a2.38,2.38,0,0,0,2.46,2.16L271,546.62a1.11,1.11,0,0,0,1-1.36c-.65-2.94-3.3-5.39-5.44-7.16C253,526.88,235.22,524.43,225,507.68c-11.9-19.57-4.73-54.41,4.47-74,1.2-2.56,5-11.22,7.46-10.72l0,0c1.08.72,1.1,1.24.79,2.48-.44,1.78-4.74,8.32-5.94,11-8.52,19.05-15,53-2.1,71,11.46,16,28.6,17.8,41.2,29.42,2.6,2.4,3.75,5.3,5.27,8.14a3.07,3.07,0,0,0,2.92,1.65l43.23-3.09a1.18,1.18,0,0,0,.54-2.12c-24.15-17.49-57-28.47-75.61-52.92-17.32-22.74-10.67-50.33,4.8-71.53,4.89-6.71,11-14,17.62-18.92a1.22,1.22,0,0,0,.56-1.32c-.17-.41-1-.49-1.62-.64-7.86-1.93-15.33-2.58-23.2-4.6a2.13,2.13,0,0,1-1.54-1.87,1.4,1.4,0,0,1,.89-1.45,2,2,0,0,1,1.27,0c41.23,11.7,84,9.42,126.19,9.06L435,394.57a5.51,5.51,0,0,1,5.23,3.35c11,24.65,20.64,50.83,21,78.45.13,9.9-2,20.41-.57,30.24,1.53,10.68,7.65,11.2,1.56,23.88-1.43,3-8,10.21-5,13.07,2.81,2.64,23.07.28,28,.22,11-.12,25.3,3.29,35.72,1,4.49-1,2.31-4.57.4-7.1-5.37-7.17-12.42-12.76-17.46-20.8C494,501.14,493,478.5,490.5,459.42A49.68,49.68,0,0,0,487,446.53c-3.91-9.27-8.29-18.44-11.1-28a1.31,1.31,0,0,1,1.66-1.67,1.66,1.66,0,0,1,1.09,1.05,1.38,1.38,0,0,0,.12.34c7,16.14,13.08,32.73,20.12,48.83,3.09,7.09,7.33,13.6,10,20.9,4.84,13,5.25,22.61,14.05,34.27,3.73,4.95,15.28,15.59,16.07,21.16a8.8,8.8,0,0,1,.08,2.94c-.09,1.61-.39,2.23,1.14,2.93,4.56,2,10.12,1.59,15.06,2,6.25.52,17,2.38,22.07,2.07Z"/>
</svg>
