<svg id="Livello_1" data-name="Livello 1" xmlns="http://www.w3.org/2000/svg" viewBox="0 0 841.89 841.89">
  <defs>
    <style>
      .cls-1 {
        fill: #231f20;
      }
    </style>
  </defs>
  <title>Glos</title>
  <g>
    <path class="cls-1" d="M545.94,563.18c2.95-1.78,21,.55,21.73,5.89.16,1.13-10.12,6.62-14.17,8.59-1,.5-3.88,2.42-3,4.07s3.77,1,4.87.62c3.08-1.12,6-2.54,9.08-3.75,2.78-1.11,4.73.35,4.58,3.56-1.64,35.45-18.25,121.48-19.45,126.26a4.2,4.2,0,0,0,2.08,4c3.06,1.16,53.63,12.84,47.49,31.32-3.19,8.42-28.85,11.7-38.68,10.23a50.32,50.32,0,0,1-7.24-1.4c-8.31-2.5-40-4.51-40.87-6.09-1-1.84,1-2.8,1.89-4a9.59,9.59,0,0,0,1.64-3.11c.12-.42-.7-1.42-1.27-1.62a3.13,3.13,0,0,0-2.31.33,49.83,49.83,0,0,0-5,3.56c-10.64,8.61-23.19,12-36.46,13.15a87.48,87.48,0,0,1-29.32-2.26c-6-1.53-11.77-3.54-16.68-7.5a2.91,2.91,0,0,1-.46-4.24c1.26-1.54,4.44-4.95,2.49-6.52-1.36-1.1-3,.18-3.64.67-4.63,3.66-9.85,5.36-15.75,6.16-10.2,1.37-37.28,2-40.48,2.63-5.06.92-23,.65-14.07-4.16,1.42-.76,6.61-4.76,4.18-7.49a2.36,2.36,0,0,0-3.27,0c-1.26,1-2.68,1.88-4,2.79C337.7,743,324.18,745.48,310,745.08c-5.81-.17-11.26-2.07-16.78-3.61-5.91-1.65-11.75-3.55-17.84-4.56a21.27,21.27,0,0,0-9.72.14c-2.75.81-17.64,10-31.33-.91-8.51-6.8-9.86-51.89-8.69-58.08,1-5.45,3.75-6.12,12.27-6.67,7.75-.5,15.48-1.56,23.2-2.49.5-.06,1.56-.61,1.38-2.39s-2.68-1.86-3.44-1.81c-2.86.16-26.11,1.74-29.41.83a6.65,6.65,0,0,1-5-5c-6.09-37.7,26.53-235.15,96.9-260.45a6.16,6.16,0,0,1,4.75.37c1.11.5,60.63,39.14,61.92,40.14a7.51,7.51,0,0,1,2.93,5.2c2.57,20.95-6.63,44.64-17,48.39-1.58.57-4.72-.38-5.68-1.76-3.24-4.72-6.55-9.41-9.49-14.32-5.48-9.14-24.6-40.71-29.7-46.61-.7-.8-2.09-2-3.46-1.15-1.95,1.16-1,3.76-.35,4.74,3.08,4.85,6.36,9.57,9.44,14.42,4.19,6.57,26.94,44.65,30.71,47.44,4.33,3.19,10.28,1.17,12.68.79a2.58,2.58,0,0,1,2,.68c1.75,2.18-10.43,24.86-11.62,26.51a10.54,10.54,0,0,1-15.24,1.75,39.81,39.81,0,0,1-11-14.6,112.51,112.51,0,0,1-7.24-20.89c-2.06-9.2-3.69-18.52-6.22-27.58-2.64-9.46-6.09-18.7-9.28-28a13.63,13.63,0,0,0-4.76-7,2.34,2.34,0,0,0-2.17.05,2.41,2.41,0,0,0-.8,2.07c2.49,5.59,4.87,11.21,6.93,17,4.72,13.17,7.42,26.84,10.57,40.41,1.86,8,3.82,16,7.3,23.44a74.41,74.41,0,0,0,6.63,11.74c4.11,5.76,9.06,10.6,16.64,11.65,1.78.25,2.43,2.21,1.54,3.84-1.57,2.88-3.25,5.7-4.82,8.57-12.54,23.06-24.95,46.18-35.21,70.37-2.72,6.42-5.21,12.93-7.72,19.43-6.75,17.48-8.85,35.74-8.85,54.32a57.7,57.7,0,0,0,1.34,10.92c.15.79.85,2.49,2.35,2.33,1.7-.17,1.55-1.71,1.57-2.39.08-4.09-.1-8.2,0-12.3.32-16.92,2.26-33.55,8.85-49.35,1.74-4.16,3.19-8.43,4.81-12.64C329,614.68,335,601.6,341.25,588.7c7.38-15.1,15.25-30,23.25-44.74,9-16.59,17.45-33.41,24.44-51,4.76-12,8-24.09,7.82-37,0-.82.05-1.64,0-2.46,0-6.49,2.51-5.54,6.71-3,1.74,1.07,3.43,2.25,5.17,3.32,1.52.94,3.95.63,5.77-.48,7.1-4.32,9-4.34,15.87,2.19a51.5,51.5,0,0,1,14.54,25.27,186.93,186.93,0,0,1,4.78,27.86,293.89,293.89,0,0,1,.28,55.33c-.58,6.11-11.9,73.66-12.82,78.91s-1.61,10.53-2.56,15.77c-2.27,12.51-.07,24.52,4.13,36.24,1.94,5.4,4.48,10.57,6.81,15.81a3.91,3.91,0,0,0,1.56,1.81,3.76,3.76,0,0,0,2.21,0c.29-.05.63-.61.68-1a5.27,5.27,0,0,0,0-2.4,73.28,73.28,0,0,0-2.83-6.8c-7.91-16.17-8.77-33.12-5.39-50.46,2.2-11.26,3-22.78,5.22-34,3.23-16.1,9.13-55.74,9.3-59.43.26-6.15.9-12.34.45-18.45-1.07-14.72-.9-29.54-3.63-44.13-.3-1.58-1.2-5,.46-5.67,1.47-.62,2.74,2.09,3.27,3.18a233.25,233.25,0,0,1,14.72,37.77c1.58,5.5,3.55,10.9,5.52,16.28a47.67,47.67,0,0,0,8.13,13.7,35.41,35.41,0,0,0,25.3,13.47c1.64.09,3.24.08,3.68-1.17a1.69,1.69,0,0,0-.71-2.29c-3-1.18-10.09-2.59-9.86-4.17a2.57,2.57,0,0,1,2.12-2.49A72.32,72.32,0,0,1,535,561.46a3.29,3.29,0,0,1,2.71,4.49c-.13.39-19.51,39.26-30.79,53-2.86,3.47-6.11,6.62-9.07,10a2.24,2.24,0,0,0-.28,2.86c.88,1.08,2.51.58,3.28.08s12.4-12.43,15-16.08c10.36-14.34,27.23-50.93,30-52.61"/>
    <path class="cls-1" d="M496.67,440.56c14.25-2.93,79.89-20.2,81.95-19,15.68,9.11,16.37,117.88-.53,140.8a3.72,3.72,0,0,1-4.36,1.49c-15.06-7.55-44.69-11.12-75.82-1.61-2.53,1.1-4.76.07-6.63-1.87a48.83,48.83,0,0,1-11.21-18.88c-1.15-3.49-2-7.11-2.78-10.71a160.2,160.2,0,0,0-33.12-67.91c-3.9-4.74-8.49-8.9-12.77-13.31-1.18-1.22-.82-3.63.69-4C463.8,438,531,456.05,545,460.79c2.74.93,8.48,2.83,9.65,0,.69-1.5-2.22-2.8-3.33-3.19-15.08-5.25-55.66-14.63-54.62-17"/>
    <path class="cls-1" d="M424.42,416.11c1.78-2.71,6.8-.18,9.13-3.05,2.62-3.23-17.68-2.92-17.81-5.23-.18-3.24,22.22-3.25,26.11-9.2,1.66-2.28-12-4.6-10.62-7.25,1.84-3.94,25.55,3.53,35.1,10.46,15.69,11.38,13.31,10,31.33,4.09s34.32-15.44,49-27.5c1.9-1.57,3.75-3.19,5.57-4.85,4.76-4.32,7.67-9.54,7.75-16.13,0-1.22.22-2.45.29-3.67q1.65-29.47,3.31-58.95c.35-6.14.82-12.27,1.17-18.41.06-1.2.28-4.2-2.1-4.28-2-.07-2.32,2.54-2.54,3.62-.49,2.39-1.12,10.1-1.3,13.37q-1.61,28.86-3.18,57.72c-.09,1.64-.36,3.26-.56,4.88a2.52,2.52,0,0,1-2.72,1.78,28.7,28.7,0,0,1-11-7.59,10.67,10.67,0,0,1-2.12-5.61,90.83,90.83,0,0,1,.1-24.54,140.58,140.58,0,0,1,24.43-61.07,149,149,0,0,1,10.28-12.22c2-2.25,4.32-2.48,6.57-1.06a55.2,55.2,0,0,1,16.79,16,94.88,94.88,0,0,1,11.9,24.17,184.19,184.19,0,0,1,7.74,74.1,95.63,95.63,0,0,1-10.28,35.19A43.85,43.85,0,0,1,586,411a203.78,203.78,0,0,1-30,10.95c-15.32,4.47-31,7.69-46.62,10.78-8.87,1.76-17.83,2.66-26.75,3.82-20.6,2.7-38.83-3.53-55.22-15.78-1.25-.94-4.21-2.85-3-4.64"/>
    <path class="cls-1" d="M498.7,234.85c4.29,1.85,8.29,3.82,13.05,3.58a24.67,24.67,0,0,0,11.6-3.57c6.09-3.68,17.89-23.33,20.83-25,1-.67,2.87-.25,3.28.65,1.17,2.6,2.19,5.28,3.46,7.83,3,6,7.26,10.86,13.89,13.17,1.54.54,5.73,1.08,6.2,4.44.36,2.47-2.28,4.6-3.85,6.43C551,261.14,541,282.86,535.93,307a104.5,104.5,0,0,0-2.29,24.42c.07,2.46,0,4.92,0,7.37,0,1.05-1.58,2.43-2.41,2.15-1.15-.39-2.32-.77-3.44-1.23-10.61-4.37-21.31-8.45-32.5-11.14-2.77-.67-5.42-1.82-7.73-2.61-2.37-3.27-2.47-6.48-1.93-9.81,1.93-11.8,5.28-23.15,11.1-33.68.76-1.38,2.88-4.13.84-5.41-2.87-1.79-4.55,1.84-5.32,3.25a96,96,0,0,0-10.35,28.79c-.84,4.43-1.4,8.91-2.26,13.33-.11.56-1.18,1.2-1.88,1.32a9.39,9.39,0,0,1-3.66-.08c-9.28-2.28-18.72-2-28.16-2.11-2.83,0-5.66-.24-8.37-.37-.87-3.41.55-6,1.42-8.7,4.16-12.86,8.38-25.71,12.38-38.62,2.68-8.64,3.7-18.45,4.49-27.45.14-1.56.14-3.86-2.26-4-2.62-.21-2.83,3.06-2.83,3.87a141.24,141.24,0,0,1-5.63,31.53c-5.56,18-11.3,36-18.81,53.3-2.45,5.64-4.81,11.32-8.83,16.1a2.76,2.76,0,0,1-3.32.37c-1-.76-2-1.46-2.87-2.3-3-2.79-5.93-5.66-9-8.44-3.82-3.51-7-7.83-12.85-8.44a33.91,33.91,0,0,1,2-4.1c8.74-12.95,15.68-26.92,23.24-40.52,12.87-23.15,29.44-43.39,47.91-62.19,1.56-1.59,3.65-1.44,4.44,1.45a21,21,0,0,0,1.79,4.55,19,19,0,0,0,2.84,4c5.56,5.84,12.3,7.88,20.13,5.82,2.34-.61,4.58-1.64,6.9-2.5"/>
    <path class="cls-1" d="M440.53,436.79c.57,1.71-23.5,11.48-29,11.48-5.11,0-99.52-63.69-100.81-64.69a4,4,0,0,1-.63-4.51,30.19,30.19,0,0,1,1.91-3.14,57.73,57.73,0,0,1,24.1-18.53c17.09-6.87,34.26-13.52,51.41-20.25a21.19,21.19,0,0,1,2.36-.67,6.23,6.23,0,0,1,5.78,1.08c.64.51,1.22,1.09,1.81,1.66L440.9,381c1.21,1.16,3.24,3.29,1.15,4.5-2.68,1.56-16.16-.28-19.39.13-3.81.47-4.93,3.46-2.92,7.27.38.72,1.72,3,1.33,3.64-1.6,2.6-20.87,8.87-11.65,14.65,4.36,2.74,7.3,6.33,10.62,9.92,4.45,4.83,19.74,13.47,20.49,15.69"/>
    <path class="cls-1" d="M434,327.58a93.21,93.21,0,0,1,24.57-.25c15.88,1.69,31.6,4.48,46.84,9.41,10.13,3.29,20.12,7,29.37,12.32a153.27,153.27,0,0,1,14.3,9.48c4.59,3.38,4.58,5.5.46,10-1.94,2.11-41.44,29.64-62.3,35.44-4.4,1.22-8.15.74-11.61-1.78-6.62-4.82-40.45-34.51-50.87-44.37-1.56-1.48-2.64-3.41-1.79-5.49,3.38-8.32,6.44-16.79,11-24.72"/>
    <path class="cls-1" d="M453.85,135.1c-2.15-.9-.73-13.15,1.13-19.07a4.42,4.42,0,0,1,3.57-3c.4-.08,29.57-3.61,31.44-2.6,2.5,1.35,3.14,4.14,3.73,6.41a216.74,216.74,0,0,0,10.71,28.75c3.28,7.05,23.4,43.78,35.34,55,1.08,1,0,3.45-1.17,4.43-13.46,10.83-33.52,18.81-50.77,15.38-6.5-1.29-11-5.23-12.68-11.94-.34-1.37.49-3.75,1.73-4.21,3.06-1.16,6.22-2.1,9.22-3.4A37.29,37.29,0,0,0,503,187.1c1.16-1.89,1.69-4,.15-5.16-1.38-1-3,.6-3.4,1.2-6.06,9.13-15.3,13.3-25.3,16.23-6.12,1.79-11.28-.22-15.45-4.78a24.1,24.1,0,0,1-3.87-6.74,5.24,5.24,0,0,1,2.69-6.88,62.09,62.09,0,0,0,6.44-2.63,1.7,1.7,0,0,0,1.08-2.13,1.63,1.63,0,0,0-1.64-1.58c-2.41.1-4.82.5-7.23.75a2.17,2.17,0,0,1-2.21-2.34c.36-2.83.86-5.65,1.06-8.5.21-3,1.92-4.29,4.66-4.67.4-.06,2.66-.3,2.64-1.93s-1.29-1.88-1.92-2.09c-1.91-.64-3.92-1-5.89-1.43a3,3,0,0,1-1.75-4.73c3.42-5.26,7.19-10,14.27-10.29.75,0,3.7-.46,3.53-4.18-.91-5.85-4.87-5.31-9.07-3-2.47,1.37-5,4.1-7.95,2.88"/>
    <path class="cls-1" d="M507.15,87.46c74.47,12,48.75,103.11,46.28,106.93a1.91,1.91,0,0,1-1.92.91c-1.76-.42-.23-6.31.11-8.74,3-21.5-5.68-69.62-50.88-81.53-4.38-1.16-37.9,2-42.81,2.32-3.13.19-8.5.54-8.5-6.56,0-8.24,8.48-12.22,12.78-12.6,4.49-.41,33.88-2.51,44.94-.73"/>
    <path class="cls-1" d="M545.21,192.13c-.33.73-2.32,1-3.21.67-2.13-.8-7.47-6.88-9.39-9.5A221.39,221.39,0,0,1,500,120.63a19.94,19.94,0,0,1-1.49-7.15c-.2-1,1.37-2.22,2.47-2a41.31,41.31,0,0,1,17.58,8.15c13.13,9.93,22.32,22.69,26.34,38.71,1.68,6.67,2.28,29.51.36,33.81"/>
    <path class="cls-1" d="M350.07,249.05a54.55,54.55,0,0,1-8-2.14c-2.26-.74-.19-4.39.46-5.37,12-18.07,37.78-56.83,38.73-58.16s2.58-1.56,4.31-.51c1.39.85,2.76,1.75,4.09,2.69,2.23,1.6,2.66,3.16,1.49,5.13-.41.7-37.32,59.08-41,58.36"/>
    <path class="cls-1" d="M349.79,264.56a15.28,15.28,0,0,1-9.63,14.4c-2.75,1.14-5.9,1.48-8.29-.24-4-2.89-8.63-4.63-12.8-7.18-8-4.85-8.77-9.9-2.7-17a12.43,12.43,0,0,1,3.67-3.21c1.37-.66,3.51-1.31,4.59-.7,4.13,2.35,8.53,2.53,13,2.72a18.53,18.53,0,0,1,4.76,1.08c4.88,1.56,7.37,5,7.37,10.09"/>
    <path class="cls-1" d="M588.58,238.92c-5.52-1.62-12.75-2-15-7.56-1.67-4.2,6.29-14,9-12,4.74,3.54,11.47,21.19,6,19.58"/>
    <path class="cls-1" d="M510.63,232.89c-3.67.47-5.94-.65-7.5-2.89-.63-.89-.37-2.83.58-3.06,2.75-.66,5.56-1.13,8.27-1.94a125.7,125.7,0,0,0,16.89-6.9c.92-.43,1.61-.29,2,.68a1.41,1.41,0,0,1-.13,1.19c-4.11,5.2-11.9,11.87-20.09,12.92"/>
    <path class="cls-1" d="M486.48,232.67c3.18.92,5.33.25,7-1.53.67-.69.71-2.44-.1-2.77-2.33-1-4.75-1.76-7-2.85a110.51,110.51,0,0,1-14-8.4c-.76-.51-1.39-.47-1.85.33a1.29,1.29,0,0,0-.05,1.07c2.92,5.15,8.89,12.11,16,14.15"/>
    <path class="cls-1" d="M562.34,190.27c7.68.65,1.75,26.17-4.93,26.17-5.55,0-4.6-8.35-3.52-10.62,2.43-5.11,2-16.1,8.45-15.55"/>
    <path class="cls-1" d="M369.07,335c-.73,6.57-20.69,11.95-28.67,15.17-2.91,1.17-4.64.64-6.29-1.84a126.41,126.41,0,0,1-10.23-19.61,151.17,151.17,0,0,1-7.65-22c-1.27-4.8-10.2-10.62-12.52-13.8a3.43,3.43,0,0,1-.7-2.23c1.09-5,3.92-11.27,8.51-14.71a3.12,3.12,0,0,1,2.24-.43c3.35,1,11.23,5.09,13.63,7.57,3.2,3.31,8.4,3.45,11.4,6.93,2.66,3.11,31.11,37.67,30.28,45"/>
    <path class="cls-1" d="M575.66,217.59a15.2,15.2,0,0,1-5.13,7.33c-2.66,2.06-6.06,1.62-8.62-1-.49-.5-1.15-1.32-.68-2.14,2.4-4.21,5.34-8.46,8.13-12.44.48-.69,1.36-.44,2-.2,2.3.89,5.53,4.2,4.33,8.46"/>
    <path class="cls-1" d="M332.42,248.54c-1.44.05-4.79-1.16-4.77-2,0-1.15,4-7.36,4.46-8,.89-1.18,2.11-.95,3.21-.59a4,4,0,0,1,3.05,3.28c.21,2.1-3.73,7.27-5.95,7.35"/>
    <path class="cls-1" d="M422.7,175.19l-36.55-26.72a7.76,7.76,0,0,0-10.82,1.68l-4.22,5.77a7.76,7.76,0,0,0,1.68,10.82l36.54,26.72a7.77,7.77,0,0,0,10.83-1.68l4.22-5.77a7.77,7.77,0,0,0-1.68-10.82"/>
  </g>
</svg>
