<svg id="Livello_1" data-name="Livello 1" xmlns="http://www.w3.org/2000/svg" viewBox="0 0 841.89 841.89">
  <defs>
    <style>
      .cls-1 {
        fill: #231f20;
      }
    </style>
  </defs>
  <title>Glos</title>
  <path class="cls-1" d="M566.67,523.4a1.46,1.46,0,0,1,1.17,2.5c-2.9,2.78-6.59,3.82-9,7.18-15.24,21.06-5.27,69.7.56,93.76,8.23,33.95,20.65,66.94,34.53,98.88a.81.81,0,0,1-.15.9,5.67,5.67,0,0,1-5.6,1.66l-52.29-13.56a7.53,7.53,0,0,1-5.38-5.33c-4.85-17.9-10.54-35.64-15.33-53.58-9-33.81-14.77-69.63-32.2-100.52-2.1-3.73-11.4-17.93-15.51-18.95-8.55-2.15,2.66,9.45,4.53,11.79a58.36,58.36,0,0,1,4.94,6.45,2.21,2.21,0,0,1-1.67,3.34c-3,.29-5.94.46-8.85,1A451.72,451.72,0,0,1,342.92,563c-33.87-3.41-93.26-17.76-122.9-1.12-2.66,1.49-7.69,3.49-6.07,7.06s10.66-2.53,13.48-3.81c3.51-1.6,6.09-3.61,11-4.61.8-.16,1.89-.55,2.21.06a.6.6,0,0,1-.24.8c-9.41,5.8-13.74,17-17.74,26.82-13.3,32.67-32.13,72.07-36.31,107.13-.54,4.56,1,6.9-4.76,7.45-8.42.8-22.19,1-31.48,1.52-7.39.42-21.18-.56-24.22-2.56-3.33-2.18-1.64-14.8-1.27-18.88,3.73-40.91,22.67-77.79,35.5-116.21a30.41,30.41,0,0,1,7-11.58c13.9-14.32,34.21-30.59,42.8-46.43.14-.25.28-.5.4-.75a3.2,3.2,0,0,0-4.48-4.2l0,0c-1,.65-7.58,11.49-9.22,13.57-14.37,18.16-52.19,54.76-77.33,48-13.17-3.51-.43-17.64,2.83-24,21-41,36.19-85,92.76-74,63.28,12.36,119,34.8,185.82,30.69,62.32-3.82,165.56-36.51,201.54-91.38,1.91-2.92,8.82-13.71,3.61-16.51-2.54-1.36-1.77.74-3.9,6.6-.88,2.42-5.45,8.83-7.24,10.32-.79.65-1.31.67-1.76.18-2.06-2.2-4.82-10.41-6-13.65-7.7-21.47-12.6-48.61-14.54-71.36-2.85-33.43.94-68.12-8.56-100.74-9.19-31.57-23.91-62.42-22.61-96.86.46-12.45,8.75-13.45,18.3-8.25,5,2.73,13.17,12.33,18.63,10.53,1.88-.62,3.07-2.82,4.69-3.53,6.46-2.79,12.83,1.3,15,7.56,3.75,10.86,2.13,22.75-2.58,33-.52,1.13-5.49,6.59-1.31,7,6.26.6,8.17-20.39,10-23.42,3.52-5.94,16.21-3.15,21.24-.43,8.09,4.38,11.68,11.27,11.68,20.4,0,4.79-2.51,11.65-1.68,16.27,1.31,7.28,9.62,6.59,10.24,14.95.73,9.83-18.81,24.63-26.65,29.25-3.11,1.83-7.38,1.57-6,4.87.48,1.12,1.86,1.12,3,.87,2.08-.47,9.3-5.25,12.56-7a.77.77,0,0,1,1.1.88c-5.36,19.38,29.92,19.06,14.14,41.29-5.77,8.14-10,12-14.45,22.26-3.4,7.78-5.4,23.13,4.9,23.8a.87.87,0,0,0,.88-1.14c-.95-2.77-3.38-3.36-4.22-7.81-.89-4.73.65-8.9,1.7-11.92a.9.9,0,0,1,1.54-.27c6.58,7.66,24-1.32,25.15,13.48.52,6.61-10.45,19.24-13.32,27-1.76,4.81-5.58,22.6-.43,26.23,4.63,3.28,1.48-3.63,1.27-6.12a36.68,36.68,0,0,1,3-18.17,1.36,1.36,0,0,1,1.92-.62c7.09,4.21,20.34-.81,16.16,11.45-1.57,4.6-11,13.08-10.77,16,.42,6.52,16.43,7.46,12.26,18.25-.37.95-1.65,4.85-3.53,4.3-4-1.16-5.77-2.14-20.49-.21a14,14,0,0,0-4.51,1.43,1.67,1.67,0,0,0-1,1.65,1.92,1.92,0,0,0,2.13,1.74l14.41-1.57c11.2-1.23,21,7.69,30.17,12.63,10.34,5.57,22,10.56,31.89,16.53,11.63,7,11.67,9.66,8.05,23.09-5,18.42-8.09,9.67-18.91,3.5a80.93,80.93,0,0,0-15.31-7c-3.44-1.06-16.18-4.06-21-1.7a2.73,2.73,0,0,0-1.28,3.5,1.74,1.74,0,0,0,1.77,1.07c15-1.32,29.6,3.92,37.88,16.78a1.45,1.45,0,0,1,.2,1.13,2.18,2.18,0,0,1-.69,1.2c-8.55,7.64-15.6,14.65-28.1,14.07-13-.61-26.83-16.79-39.9-13.09-8.94,2.52-18,20.51-24.43,27.95A89.21,89.21,0,0,1,563,517.87c-7.27,1.15-13.67.26-20.78-.08a2.29,2.29,0,0,0-2.14,1.22,1.86,1.86,0,0,0,.59,2.35c1.85,1.25,5.81,1.94,8.23,2.25a19,19,0,0,0,2.38.12Z"/>
</svg>
