<svg id="Livello_1" data-name="Livello 1" xmlns="http://www.w3.org/2000/svg" viewBox="0 0 841.89 841.89">
  <defs>
    <style>
      .cls-1 {
        fill: #231f20;
      }
    </style>
  </defs>
  <title>Glos</title>
  <g>
    <path class="cls-1" d="M439,621.5c-40-4.71-113.83-28.56-151.26-45.23-41-18.27-102.53-66.75-146.34-54.93-5.29,1.43-17.47,6.4-16.45,1,5.24-27.76,38.09-27.33,60.36-19.67a33.51,33.51,0,0,1,7.46,3.71l18.3,12a1.47,1.47,0,0,0,2-2.12c-3.24-4-9.06-6.79-10-11.63-1.08-5.55.45-13.13,3.74-18.48a3.13,3.13,0,0,1,5.07-.34c5.84,7.11,17.64,24.63,22.53,27.55,4.51,2.7,7.49-.42,11-2.79a2.53,2.53,0,0,1,3.86,1.47c1.83,7.58,5.36,26.89,13.11,30.55a2.15,2.15,0,0,0,2.68-3.17l-4.35-6.12a4.38,4.38,0,0,1,.13-5.28c4-4.92,13.13-13.7,15.35-14.72,7.26-3.34,42.8,8.79,38.25,3.48-9.59-11.18-79.9-15.58-101.4-68.8a1.64,1.64,0,0,1,1.79-2.32l13.91,2.84a3.18,3.18,0,0,1,2.18,1.7c8.15,16.09,29.59,33.19,43.47,34.58,3.05.3-.44-2.67-3.44-4.29-5.89-3.17-12.09-6.31-17.31-10.55-23.77-19.33-35-55.81-13.56-79.88a2.34,2.34,0,0,1,4.06,1.41c3.39,52.52,43.2,100.39,95,107.76,4.22.6,12.93,2.48,18.73,6,2.34,1.44,8.29,7.13,12.14,10a2.25,2.25,0,0,0,3.2-3c-12.62-19.35-34.67-28.15-49.16-46.41-6.39-8-9.32-13.67-7.45-24.75,2.31-13.76,24.47,4.54,36.27,7.68a2.26,2.26,0,0,0,3-1.52,4.25,4.25,0,0,0-2.24-5.19,356.44,356.44,0,0,1-66.83-43c-11.06-9.05-13-10.07-24-21.25-6.53-6.65-14.18-13.35-5.84-25.32,3.06-4.4,8.37-7.41,14.95-7.7,7.78-.33,49.23,18.11,58.86,22.69,8.84,4.21,43.82,20,44.61,28.36.73,7.52-3.56,9.1-6.14,12.93-3.93,5.85,9.32,21.7,11,28,2.21,8.3-.18,16,1.09,21.35.85,3.52,6.38,6.59,7.87,11.36a2.49,2.49,0,0,0,3,1.58c8.66-2.22,27.1,11.54,25,.8C416.36,467.52,404,467,404,467l-2.58-.48a17.76,17.76,0,0,1-7.43-3.08c-6.06-4.55-6.86-11-5.33-18.84a3.51,3.51,0,0,1,4.43-2.67c7.34,2.21,32.39,7,25.86,1.41-8.76-7.47-29.08-4.2-35.81-17.22-3.61-7-8.2-26.06,2.63-23.64,5.64,1.26,26,19,22.72,10.57-5.21-13.3-31-22.08-33-39.61a2.13,2.13,0,0,1,3-2.16c5.25,2.27,18.88,6.7,14.33,1.13-5.29-6.48-16.59-6.37-20-13.85-1.58-3.43-4.92-14.68,1.74-10.38,29.51,21.14,65,35.5,68.77,77,1.9,20.57-5.43,23.3-11.24,39s7.89,37,20,31.08c4.84-2.38-3.49-2.82-7.48-6.95-14-14.45,4-33.81,6-51,2.1-17.77-3.41-16.24-7.82-51.07-1.22-9.68,3.11-32.45,9.28-44.1,10.34-19.56,31.21-49.7,56.08-58.46,22.54-7.94,60.61,2.9,62.22,30.67a.48.48,0,0,1-.72.44c-8.32-5.2-42.92-8.2-43.33,1-.22,4.94,9.14,2.93,13.72,1.55a1.75,1.75,0,0,1,2.25,1.95l-.69,4.13a2.18,2.18,0,0,0,3.07,2.31l5.43-2.53a5.13,5.13,0,0,1,4.25,0s2.91,1.93,4,1.74c4.72-.81,1-4.28-1.58-5.71a1.22,1.22,0,0,1,1-2.21l10.05,3.44a5.56,5.56,0,0,1,3.6,4c1.46,6.11,1.76,12.17,3.47,18.66,2.07,7.85,7.54,16.66,6.48,24.53a6.82,6.82,0,0,1-12.07,3.32,49.52,49.52,0,0,0-5.71-6.25c-5.3-4.74-33.38-28.95-38.39-30.34a2.11,2.11,0,0,0-1-.06c-2.63.57-2.82,4.36-.5,5.72l9,5.25a20.43,20.43,0,0,1,3.21,2.34c3.6,3.2,5.69,5.74,6.25,9.91,2.35,17.7-39.39-8.32-48.32,5.76-7.66,12.07,4.21,25.07,12.3,32.6,32.92,30.68,63,35.95,80.2,84.67,10.36,29.41,28.32,98.49-6.31,114-30.24,13.57-71.46-14.7-93.31-26.76-4.47-2.47-10.28,1.51-3.19,7.08,21.68,17,43.13,29.43,67.19,32.73,17.38,2.38,40.28-3.31,56.79-10.53a2.39,2.39,0,0,1,3.33,2.2c0,7.33-4.25,7.57-11.36,11.07-13.87,6.83-33.86,8.31-46.29,11.26-2.74.65,1.88,3.6,7.89,3.54a121.81,121.81,0,0,0,45.35-9.19,3.36,3.36,0,0,1,4.52,4.23c-3.43,9.25-6.79,8.68-14.3,10-18.88,3.39-24.73,1.64-36.51,3.5-3.15.5,2.67,4.66,5.26,4.93,11.61,1.21,27.89.25,39.32-3.95a2.34,2.34,0,0,1,2.94,3.21C594,664,538.9,660.62,518.17,644.89c-4.41-3.35-13.46-8.6-16.4-20.75-1.93-8-3.54-31.77-11.26-35.52-3-1.43-5.69,1.1-4.66,3.61a117.3,117.3,0,0,1,6.86,26.56c2.85,19.13-22.63-9-27.8-15.92-7-9.39-6-28.78-17.24-26.35-5.55,1.2,9.63,19.64-1.66,17.2-13.06-2.82-32.23-24-43.35-32.1-10-7.34-24.6-19.54-33.72-12.19a4.93,4.93,0,0,0-1.42,1.83,29.8,29.8,0,0,0-1.18,4c-.85,2.77-2.28,3.38-4.54,3.77a13.77,13.77,0,0,1-5.47-.47c-16.71-6.36-19-15.31-29.66-20.13-17.58-8,38.68,49.34,46.74,20.56.31-1.12,2.24-3.43,4.55-3.43,6.56,0,21.9,11.35,25,14,9.44,7.84,16.06,17.17,27.47,23.25,7.17,3.82,15.9,8.15,20.67,11,4.4,2.6,15.21,6.24,15.27,14.16,0,1.74-.08,4.11-2.7,4.66-9.14,1.91-16.54-.13-24.73-1.09"/>
    <path class="cls-1" d="M363.6,376.14c-52.69-32.47-112.1-50.73-171.53-67.35l-.11,0-55.7-12.3a2,2,0,0,1,0-4c55.53-11.14,111.35-4.32,164.21,15.78,22.57,8.57,46.69,18.2,59,39.88,4.48,7.9,9.66,18,7.14,26.82a2.06,2.06,0,0,1-3,1.18"/>
  </g>
</svg>
