<svg id="Livello_1" data-name="Livello 1" xmlns="http://www.w3.org/2000/svg" viewBox="0 0 841.89 841.89">
  <defs>
    <style>
      .cls-1 {
        fill: #231f20;
      }
    </style>
  </defs>
  <title>Glos</title>
  <g>
    <path class="cls-1" d="M286.28,370.31a3.3,3.3,0,0,0-.18-1.13.61.61,0,0,0-.62-.47c-60-2.42-91-74.31-84.89-126.94,4.06-34.86,25.41-81.29,65.2-84.86,67.34-6,79.75,93.65,54.07,137.62C304.91,320.15,266,324,246.7,300.9c-10.92-13.08-21-54.75-7.46-67.75,5.73-5.52,16.63-2.56,20.65,3.46,4.42,6.64,5.95,31.73,17.17,30.6,14.26-1.44,18.56-32.46,17.55-43.42-2.57-28.17-33.05-21.7-34.85,1.88a2.59,2.59,0,0,1-3.7,2.15c-2.25-1.1-4.3-2.47-7.3-2.78-25.41-2.64-22.23,37.06-18.68,52.74,8.14,35.93,35.53,56.06,70.57,40.27a1.73,1.73,0,0,1,2.42,1.81l-.85,6.45a2.25,2.25,0,0,0,2.2,2.56c16,.23,31.65,4.49,47.46,6.37,19.31,2.31,42.08,2.63,61.57,1.78a10.36,10.36,0,0,0,1.71-.24,1.33,1.33,0,0,1,1.22,2.22c-4,4.14-11.49,10.38-11.51,12.18,0,2.35,3.1,2.65,4.54,1.26,7.18-7.14,14.15-14.52,21.44-21.55,9.81-9.48,27.1-22.67,30.49-36.9,1-4.28-1.09-7.23,1.35-14,6.25-17.38,35.8-51.47,52.5-59.45,21.35-10.19,67.79-7,82.14,13.64,2.26,3.24,3.17,10.68,6.78,7.94,2.57-2-1.77-8.69-4.57-12.35a2.26,2.26,0,0,1,.63-3.38c8.65-5.3,20.81-6.25,30-2.32,12.84,5.49,9.43,22.86,5.26,33.16-1,2.49-4.14,9.59-5.91,10.91-.88.65-2.07,1.86-4.27,1.57-4-.55-10.55-1.28-15.53-1.67-17.76-1.36-44.93,3-54.08,20.53-11.14,21.34,27.9,23.19,35.18,6.79,1.13-2.55,3.29-11,3.08-13.46a5.72,5.72,0,0,0-2.84-4,1.48,1.48,0,0,1,.48-2.79c10.38-1.17,27.06-3.42,34.84,2.28s12.92,18.13,13.76,27.61c.77,8.7-2,12.85,2.14,21.38,6.26,13.05,22.59,19.75,26.08,30.71,7.61,23.89-18.57,20.92-33.79,17.5-27.4-6.14-32.38-18.79-50.77-34.34-4.83-4.07-18.76-13.5-23.55-6.83a2,2,0,0,0,1.28,3.1c16.71,2.74,26.05,19.58,38.94,29.24,15,11.26,35,16.91,53.72,17.48a1.13,1.13,0,0,1,1.06,1.42c-2.56,9.32-12.54,14.34-21.54,16.09C604,406.48,585.65,377.92,557.23,370c-2.6-.72-8.44-2.76-11.56-1.41a2.51,2.51,0,0,0-1.42,2.85,1.72,1.72,0,0,0,1.43,1.32l3.55.52a1.76,1.76,0,0,1,.85,3.11C539.42,385,531.19,396.15,527.56,409c-.14.5,0,.81-.43,1a1,1,0,0,1-1.18-.26c-7.91-9.29-22.7-24-34.87-26.3-4-.74-5.61,2-2.95,3.78,2.26,1.53,8.08,3,11.41,4.81,7.69,4.25,25,20,27.81,28.17,2.71,7.87,3.77,27.93,3.27,36.45-1,17.9-7.18,35.53-8.14,53.51-1.48,27.88,1,74.92,15.31,99.14C546.42,623.91,567,637,570,654.12c1.29,7.15-5,6.62-10.6,7.33-15.49,1.93-51.14,5.49-64.91.84-16.52-5.57-19.51-30.88-21.37-46-7.24-59,5.24-97.16-30.1-151.61-2.51-3.86-15.81-21.31-19.24-22.2-1.6-.42-3.71,1-2.89,2.9s3.62,2.64,6.31,5.93c9.22,11.28,16.86,22.72,22.59,35.55a4.2,4.2,0,0,1-.93,4.73c-7.81,7.55-8.19,21.24-9.78,31.65-5.29,34.72-7.23,70-8.91,105a2.57,2.57,0,0,1-3.09,2.39,47.84,47.84,0,0,0-14.39-.79c-2.67.25-14.66,2-13.48,6,.85,2.87,8.13-.66,10.34-1,16.79-2.53,29.14,1.36,34.49,18.63,6.56,21.17-8.82,27.46-26.69,29.73-9,1.15-27.72,2.6-36.39,1.72-14.69-1.5-19-17.56-17.24-30.2,1.2-8.86,8-16.07,9.46-23.8,4.07-22.26,5-53.22,5.75-76.18,1-31,4.58-77.71-6.71-106.86a12.86,12.86,0,0,0-.84-2.07,1.53,1.53,0,0,0-1.78-.67l-.68.21a1.48,1.48,0,0,0-1,1.68l4.53,24.39a6.71,6.71,0,0,1-1.88,6c-9.1,9-15.87,23-30.9,20.85-8.49-1.19-14.34-13.45-16.47-20.84-1-3.57-1-9.34-2.95-12.24a2,2,0,0,0-3.58.87c-.55,4.23,2.15,11.7,3,14.91,7,26.72,2.06,76.07,19.93,97.69,8.83,10.69,18.25,14.3,16.63,31.21-2,20.87-36,24.7-51.92,20.31-22.73-6.27-15.06-33.34-16.22-51.11-.25-4-1.19-8.8-1.75-12.85-3.4-24.65-9.14-49.85-15.42-74a14.19,14.19,0,0,1,1.64-11.05,103.88,103.88,0,0,1,18-21.34c1.2-1.1,11.3-7,6-8.47-6.17-1.67-24.62,22.51-28.09,27.77-18.61,28.18-41.5,91.74-37,125,1.06,7.89,4.51,15.54,4,23.65-1.65,25.69-39.75,19.13-53.95,7.66-18.9-15.27-4.06-26.09,2.4-42.18,1.5-3.75,5.4-9.72,5.29-19V562.09a2,2,0,0,1,3.53-1.13c1.09,1.54,2.23,2.9,4,3.24a1.8,1.8,0,0,0,1.92-2.57c-1.44-2.89-5.16-7.2-6-8.63-9.52-16.08-6.77-41.22-1.19-58.46,3.55-11,10.34-21.27,13.57-31.86,3.56-11.66,0-24-.4-36-1-29,3-55.71,26.75-74.17a3.46,3.46,0,0,1,4.28,0c9,7.22,18.53,14.09,29.66,17.48a77.73,77.73,0,0,0,8.08,2.27,18.22,18.22,0,0,0,3.51.39h7.29c1.4,0,2.15-.75,2.2-2.36"/>
    <path class="cls-1" d="M445.76,211.08c15-1.34,33,10.06,42.42,21.85a2.61,2.61,0,0,1-.2,3.47L480.35,244a2.59,2.59,0,0,1-3.52.14c-7.93-6.77-18.32-19.93-29.11-15.33-4.69,2-6.85,6.25-7.1,11.2-.73,14.27,10,21,19.5,27.46a2.6,2.6,0,0,1,.79,3.47l-4.36,7.38a2.6,2.6,0,0,1-3.68.84c-16.33-10.85-34.27-34.28-26.82-53.24,2.8-7.14,12.29-14.18,19.71-14.85"/>
  </g>
</svg>
