<svg id="Livello_1" data-name="Livello 1" xmlns="http://www.w3.org/2000/svg" viewBox="0 0 841.89 841.89">
  <defs>
    <style>
      .cls-1 {
        fill: #231f20;
      }
    </style>
  </defs>
  <title>Glos</title>
  <g>
    <path class="cls-1" d="M453.44,289.9c-10.59,9.32-14.82,17.73-12.92,32.3,1.78,13.64,19,30.38-4,37.34-20.78,6.29-30-6.21-45.93-5-8.93.66-16.59,6.55-25.37,7.76a1.33,1.33,0,0,0-1.19,1.47c.74,4.27,9.08,15.56,11.08,18,12.31,14.84,23.43,22.15,40.16,20.76,2.5-.21-3.32,2.89-6.42,3.64a103.66,103.66,0,0,1-27.56,3.12,1.31,1.31,0,0,0-1.22,1.89c2.48,4.78,14.48,16.05,16.39,17.53,15.53,12.12,39.17,22.09,58.27,14.21a1.36,1.36,0,0,1,1.72.56l13.59,23.17a1.38,1.38,0,0,0,1.8.54l36.83-18a1.4,1.4,0,0,1,2,1.43c-1,6.91-12.18,17.21-1.05,17.24,18.15,0,45.3-8.57,55.24-24.78,3.15-5.14,4.65-15.66,6.65-17.76,2.54-2.69,11.49-6.68,16.76-11.75a1.38,1.38,0,0,1,2.34,1.21L586.9,437.1a1.36,1.36,0,0,0,1.09,1.57c9.66,1.87,20.07,6.3,29-.18,6.26-4.55,6.84-15.76,16-17.21,2.46-.39,5.21,1.44,7.13,1.06,3.68-.74,9.95-12.16,13.91-3.35,2.23,5-1.8,25.76-6.83,28.25-3.24,1.6-7.76.11-10.71,2.78a1.42,1.42,0,0,0-.06,2.05c7.44,6.93,17.21-3.14,23.78-3.36,14.67-.52,16.88,21.55,6.6,29.88-2.53,2.05-6.92,2.55-7.49,3.21-1,1.13-1.12,8.33-2.8,11.84-1.94,4-6.17,5.87-8.21,9.34-6.65,11.31-1.89,27.75-31.35,19.09-4.29-1.26-9.82-5.39-12.06-9.26-4.05-7,5.69-2.14,9.67-1.87a1.35,1.35,0,0,0,1.46-1.28c.86-19.2-23.16-29.36-39-33.23-2.65-.64-13-2.95-14.55-2.86-1.13.06-.91,3.36-2.56,3.8-6.07,1.6-12.5,1.4-19.14,3.93-10,3.82-28.28,21.93-22.78-5.26.8-3.91-2.61-3.31-3.45-2.46s-1.24,8.08-2.42,10.29c-3.58,6.72-18.88,8.17-26,7.36-12.07-1.38-2.82-6.47-1-13,1-3.66-1.68-4.63-3.7-2.72-13.79,13.11-17,22.79-29.3,0-3.21-6-2.16,5.86-7.06,7.55-7.72,2.67-25.94-3.14-23.22-13a1.4,1.4,0,0,0-1.57-1.8c-5.7,1.12-9.56,1.07-14.12-4.34-4-4.78-5.39-16.54-8.67-10.81-.65,1.13-.76,5.18-.76,5.18a1.37,1.37,0,0,1-1.78,1.11c-18.67-5.84-36.95-14.12-56-9.25-3.86,1,0,3.53,2.88,3.9,6.05.78,13.22,1.53,19.51,3,18.49,4.36,58.95,21.69,67.45,38.73,17.16,34.4-18.36,44.93-10.92,78.34a1.29,1.29,0,0,1-.58,1.46c-2.18,1-8.87,3-8.11,5.26,3.6,10.73,26.23-9.5,34.95-16.73,10.34-8.59,17.07-27.29,30.56-28,3.12-.17,6,1.82,9.17,1.43,11.46-1.38,23-11.9,36.53-5.45,3.53,3.53-14.15,6.8-13.27,13.08.17,1.16.14,9.07.22,11,.13,3.2,4.39,4.15,5.16,6.92a1.42,1.42,0,0,1-1.66,1.75c-13.63-2.62-17.87,5.93-27.75,10.89-5.46,2.74-13,3.88-17.19,6.22-6.58,3.65-15.94,14.54-23.73,19.2-30.93,18.47-77.46,17.21-69.19-30.18,2.11-12.08,19-34.51,1.52-42.28-8.38-3.73-32.45-3.27-42.16-2.24-15.42,1.63-22,11.15-38.47,11.9-3.46.16-6.77-3.94-6.38-8.79.82-10.47,6.75-18.94,5.94-29.69-.33-4.31-2.93-9.23-9.12-8.77,5.55,16.11-2.26,38.68-10.86,52.55-7.07,11.4-14.95,27.77-21.46,37.06-6.4,9.12-18.42,16.16-24.65,26.09-9.36,14.93-17.22,49.31-10.35,65.73,4.31,10.29,11.7,10.11,7.09,3a2.72,2.72,0,0,1,2.11-4.19c8.29-.79,15.82-7.68,22.51-8.21,4.78-.37,6.64,2.74,9.51,3,6.89.64,18.95-4.56,26,2a1.41,1.41,0,0,1-.88,2.45c-14.69.79-18,17-30.45,19.35a1.37,1.37,0,0,0-1,1.92l2.94,6.48a1.39,1.39,0,0,1,0,1.18,5.64,5.64,0,0,1-5.07,3.15c-10.24-.15-11.46,5.8-18.28,9.76-11.81,6.86-15.19-.81-25.57-2.54a1.38,1.38,0,0,0-1.59,1.38c.26,6.16,3.48,12.13,1.55,18.47-1,3.4-6.16,5.79-7.1,10.63-1.34,6.82,5.64,18.72-7,16.09-8.84-1.83-6.73-10.47-10.89-14.56s-9.87-1.61-11.54-11.86c-2.87-17.64,7.49-24.83,9.45-39.08,2.21-16-3-30.77,1.08-46.91.18-.74,2.13-2.6,2.87-2.41,0,0,4.49.48,6-.27,4-2-3.39-10.52-3.39-10.52-5.08-6.49-7.44-8.76-6.73-14.11,3.63-27.57,11.49-21.46,16.61-42.06,3-12.21-.38-24.68,2.2-36.82,2.05-9.66,11.44-18.55,14.86-28.06,5.27-14.64,6.43-33.21,12-48.45,14.38-39.17,73.62-100.11,114.58-109.8,5.55-1.31,20.85-.68,15.69-4.77-3.21-2.55-12.31-.4-16.4,0a1.34,1.34,0,0,1-1.37-1.15c-1-6.39,1.33-8.36,4.76-11.37a1.39,1.39,0,0,0-1.22-2.4c-7.55,1.75-18,5.91-22-.68-6.84-11.25,20.18-18.65,13.48-20.35-19.71-5-31.43,7.16-37.19-12.73a1.4,1.4,0,0,1,1.55-1.74c6,.85,7.26,1.16,16.53.36,3.59-.3,1.92-2.52.79-3.13-5.64-3.06-12.48-1.22-20.23-1.77a12.14,12.14,0,0,1-10.08-7.23c-4.93-10.78-11.66-20-21.63-27.22-5.56-4-20.89-6.82-22-11.82-.65-2.66,1.8-3.8,4.43-2.77,14.85,5.79,31.43,11.49,44.72,7.06,7.24-2.42-9.36-3.31-17.17-4.71-14.68-2.63-24.51-5.81-38-14.41-2.32-1.48-15-14.41-15.57-15.66-3.05-7.1,15,3.72,17,4.44,9.05,3.19,21.23,7.6,30.77,6.34,2.65-.35,6.16-1.49,2.9-3.91-26.31,1-59.76-14.61-68.95-40.62a1.88,1.88,0,0,1,2.63-2.28s32.29,20.42,41.91,21.45c.7.08.69-2.71.69-2.71a1.4,1.4,0,0,0-.83-1.62c-24.31-11.41-60.94-26.28-63.12-55.5a1.28,1.28,0,0,1,2.16-1c16.32,15.89,43.78,37.27,69.13,47,3.54,1.35,4.22-1.52,2.72-3.71-21.77-10.33-46.55-25.71-64.41-41.95-2.76-2.52-15.7-14.77-16.51-16.64-1.56-3.65-1.88-21.87,3.83-19.47,9.76,20.57,64.52,61.86,79,62.42,3.35.14-1.94-4.61-4.51-6.19-19.85-12.2-28.12-16.31-41.27-27-9.25-7.54-35.56-30.95-31.92-43.42,2.6-6.39,9.66-6.31,15.4-4.43,6.46,2.12,34.1,26.07,43.74,32.34,8.5,5.52,23.8,11.42,30.21,16.62,8.19,6.64,14.61,22.74,24.74,30.35a1.37,1.37,0,0,1-.53,2.44l-4.72,1c-12,2.45,10.23,25.16,17.64,27.59v3.24c-15.62,6.4,5.81,21.48,13.06,25.75,9,4.64-7.43,2.26-9.8,5.47-4.64,6.26,3.08,16.07,10.85,20.22,3.45,1.84,3.35,4.29-.34,5.56a5.52,5.52,0,0,0-3.1,2.11c-5.78,9.28,13,18.17,22.07,20.9a1.38,1.38,0,0,1,.51,2.34c-13.64,13-10.16,24.33,9.85,23.67,4.61-.16-1.87,5.32-3.73,9.15-5.3,10.93,7.66,15.08,18,14.06a2,2,0,0,1,2.31,2.5c-2.26,11.6,17.74,18.34,27.73,11.68,1.8-1.2,1.17-4.33-2.92-3.25-6.18,1.62-14.46,2.27-18.21-4-7.18-12,27.59-14.47,22.89-17.28-8.67-5.19-29.14-2-21-23.35,2.75-7.28,8.36-6.16,9.95-9.05,1.78-3.23-31.76,5-27.41-9.65a10,10,0,0,1,6.64-6.09c7.27-1.63,16-.84,11-3.77-11.56-6.75-29.79-6-21.1-20.77,5.41-9.2,18.36,4.48,24.49,3.82,12.13-1.3-27.38-13.13-31.74-25.9-6.57-19.26,23.21-11.36,33.21-5.9l.7-2.74a1.35,1.35,0,0,0-.8-1.61c-13.57-5.5-36.29-17.92-20.89-30.87a1.38,1.38,0,0,0-.61-2.43c-23.52-5-42.09-26.59-47.14-49.66a1.4,1.4,0,0,1,1.87-1.58c10.25,4.13,19.23,11.09,29.75,14.79,25.2,8.84,59.85,6.72,77.95,29.36,5.86,7.34,10.89,18.57,9,28.13-1,5-5.48,4.77-7.71,8.05-2.8,4.13.17,7.57-1.09,10.41-1,2.33-5.71,5-7.65,8-6.27,9.68-11.09,15-8.5,27.69,6.88,33.65,62,5.79,71.77,15.77a1.38,1.38,0,0,1-.25,2.07L462.33,283"/>
    <path class="cls-1" d="M569.08,145.27c-7,15.72,10.6,27.09,27.15,27.62a4.43,4.43,0,0,1,3,7.56c-8.09,8-25,18.47-24.3,21,1.44,5.47,18.82-6.51,25.82-12.38,2.7-2.26,5.34-.39,5.77,3.11,2.91,23.51,7.9,41.59,24.74,59.2a4.37,4.37,0,0,1,0,6.18,19.41,19.41,0,0,1-7.31,4.19,3.39,3.39,0,0,1-3.87-1.46c-3.77-6.18-19.42-26.8-19.78-19.79-.33,6.48,8,12,11.8,17.37,7.32,10.44,7.94,21.15,9.21,33.09a4.45,4.45,0,0,1-7.62,3.59l-18.34-18.9c-4.79-2-4.59,9.42-4.95,16.43a4.48,4.48,0,0,1-5.66,4.14c-9.75-2.87-22.68-12.13-28.12-17.75-2.84-2.93-7.26-11.53-10.29-12.41-7.84-2.3-23.18,14.39-30.33,22-2,2.12-3.64,2.3-5.6,1.33-9.67-4.8-31-23.89-33-28.45-1.47-3.35,1.33-2.57,2.67-3.09,4.15-1.63,9.54-2.65,13.48-5.15,4.75-3,.26-10.28-4.69-7.58-4.6,2.51-9.18,5.31-13.54,2.3-5.07-3.49,1.11-11.85,1.52-16.07.52-5.42-6.78-9.71-12.67-12.44a4.43,4.43,0,0,1-1.81-6.44c4-6.11,8.75-10,6.93-18a4.43,4.43,0,0,1,3.67-5.25c3.64-.64,7.17-1.61,11.14-1.49,6.89.2,28.29,8.18,36.73,7.13a4.42,4.42,0,0,0,3.67-3.43c2.31-9.88-7-8.87-9.58-11.92-.51-.63-2.05-5.78-3.17-10.27a4.43,4.43,0,0,1,5-5.43c9.24,1.4,18.54-.27,24.25-7.58a4.44,4.44,0,0,0-1.89-6.89c-10-3.58-20.88,2.47-30.08,7.54a4.47,4.47,0,0,1-5.71-1.25c-4.51-5.89-5.16-9.91,3.39-15.58,14.8-9.82,39.85-2.5,58.65-1.16a4.47,4.47,0,0,1,3.69,6.33"/>
    <path class="cls-1" d="M206.39,490.93c-4,4.2-17.91-21.22-19.06-24.82-17.56-55.09,64.19-95.67,64.1-140,0-12.82,11.26,5.73,9.59-18.55-2.23-32.35-42.77-23.26-33.13-7.79,3.74,6,11.38-11.62,13.74-1.18,2.9,12.85,2.39,13-.27,29.33-.65,4-5.89,2.36-7.13,3.56-3.49,3.41-12.07,30.92-18.06,19-.85-1.67,0-7.83,0-7.83a26.21,26.21,0,0,1-4.66,1.62c-1.07.1-2.32-1.88-2.83-2.9-11.72-23.31-25.43-49.19-.95-72.52,20.3-19.36,45.79-8.85,60,11.5,15.9,22.73-1.21,63.56-13.49,85.77-16.39,29.61-45.9,51.05-44,87.67.23,4.41,3,5.57,3.07,8.86,0,7-8.53,19.62-7,28.28"/>
    <path class="cls-1" d="M522.07,291.27c4.87-5.88,12.76-12.95,19.37-16.56a4.6,4.6,0,0,1,6.16,1.73c5.2,8.93,14.37,15.06,22.74,21.18,1.78,1.31.74,3.91-.1,5.95-7,17.08-7,16.36-12.21,20.76-10.47,8.84-13.26,7-24,15.31-3.9,3-8.12,8.95-10.74,13.19-1.73,2.82-2.64,7.28-4.73,4.78-19.45-23.14-21-40.16-5.66-56.56"/>
    <path class="cls-1" d="M496.48,319.45c-3.19,16.5,7.76,31.7,18.59,43.39a1,1,0,0,1-.64,1.64c-19.07,2.5-25.15,24.22-41,30-9.86,3.62-26.57,5.64-34.95-2-8.84-8.05,6.09-14.24,11-22.6a36.08,36.08,0,0,0,4.19-22.27,3.35,3.35,0,0,1,4.8-3.52,2.81,2.81,0,0,0,4.06-2.57c0-15.61,19.26-17.26,32.59-23.18a1,1,0,0,1,1.36,1.1"/>
    <path class="cls-1" d="M496,414.88a2.91,2.91,0,0,1,2.32-3.92c21.29-4.53,16.34-24.67,22-39.92,4.34-11.75,5.75-13.43,10.06-19.12a51.86,51.86,0,0,1,12.49-11.79,2.84,2.84,0,0,1,4.41,2.32c.53,11,9.26,16,18.22,22a2.88,2.88,0,0,1,1.13,3.16c-1.53,5.48-5.75,9.36-6.81,15.68C557,400,561.54,404,545.1,417.37,533.4,426.9,502.69,431,496,414.88"/>
    <path class="cls-1" d="M509.58,371.23c3.45-.67,6,.45,5.23,3.49l-5,20c-3.07,8.88-5.63,9.48-11.47,11.42-5.31,1.77-10.7,2.4-5.81,12.34,3.92,8,16.48,12.35,24.65,11.71,7,.75-10.53,13.23-12.49,14.56-3,2.06-20.37,10.42-27.92,13.06a4.35,4.35,0,0,1-5-1.66c-5.17-7.47-10.73-13.92-6.58-26.45,2-6.15,25.3-40.61,30.62-46.13,1.75-1.81,7.22-11,13.78-12.31"/>
    <path class="cls-1" d="M358.39,208.21c-5.16-2.6-13,1.67-15.45,1.31-5-.72-22.23-8.44-27.44-11.4-5.87-3.32-37.13-24.46-20.46-27.06,7.56-1.17,27,14.32,39.43,17.19,3.56.82,10.8,3.63,9.82-2.25-29.79-6.75-66.76-32.18-73.68-63.61l37.79,21.1c4.94,9.71,12.14,20.5,20.33,27.81,4.45,4,18.82,11.84,19.85,12.61,1.89,1.44-1.16,7.82.41,13.16,1.19,4.06,8,6.86,9.4,11.14"/>
    <path class="cls-1" d="M469.59,399.51a2.75,2.75,0,0,1,3.25,4.16c-17.68,25.4-19.39,46.28-57,29.89A96.85,96.85,0,0,1,390.66,417a2,2,0,0,1,1.28-3.5,142.22,142.22,0,0,0,31-6.25c6.43-2,11.69-5.39,14.91-6.07s16.7,3.56,22.81,1.9c3-.83,6-2.43,9-3.61"/>
    <path class="cls-1" d="M605.05,393.4a2.1,2.1,0,0,1-3.41,1.13c-4.95-3.55-6.22-10.6-6.22-10.6-7-31.93.76-34,10.25-60.37,1.79-5,2.58-11.56,3.94-25.53.16-1.61,2.56-1.8,3.57-.54,9.14,11.34,15.9,32.06,15,45.86-1.39,20.82-18.95,30.79-23.11,50"/>
    <path class="cls-1" d="M458.23,335.15c-.35,1.87-2.9,2.93-4.16,1.5-10.08-11.4-10.88-27.5,1.38-40.64,4.45-4.77,22.6-17.76,28-17.51,1.32.07,19.63,15.13,20.34,16.24,2,3.07-5.07,14-7.81,16.17-10,7.93-34.42,7-37.72,24.24"/>
    <path class="cls-1" d="M576.88,362.7a1.22,1.22,0,0,1-1.52,1.2c-13.28-3.85-33.75-21.12-19.69-31.84,1.9-1.45,6.09-4.18,8.79-6.95,6.74-6.89,6.9-14.08,10.48-23.78a1.68,1.68,0,0,1,1.9-1c6.11,1.5,11.26,3.9,17.51,2.33,1.88-.47,2-1.54,2-2.81L595.59,287a1.28,1.28,0,0,1,2.07-1.07,33.49,33.49,0,0,1,6.75,6.64c2.9,5.05-6.6,35.74-9.87,41.62-5.53,9.95-17.37,15.41-17.66,28.56"/>
    <path class="cls-1" d="M444.43,361a2,2,0,0,1,2.89,2.07c-1.28,8.71-14.19,14.55-16,20.7-2.15,7.4,6.59,12.57-10.39,14.25-18.94,1.87-35.72-8.55-48.91-28.71a2,2,0,0,1,.55-2.7c22.06-14.61,33.06-.77,47.32-.28,7.36.25,17.61-2,24.52-5.33"/>
    <path class="cls-1" d="M648.9,122.57c11,2.85-26.64,39-35.19,41.87-23.05,7.84-52.23-13.69-28.6-26.66,13.21-7.25,27,.16,42.38-4.44,8-2.4,13.54-12.8,21.41-10.77"/>
    <path class="cls-1" d="M513.47,463.7a2.36,2.36,0,0,1-2.38-3c2.44-8.29,11.82-30,15.87-30.77,7.11-1.33,16.07-4.63,21.56-9.2l14.72-15.4c14.69,35.77-18.17,56.64-49.77,58.4"/>
    <path class="cls-1" d="M505.23,171.16c.41.34,3.85,9.44,1,10.79-4.7,2.05-10.13,2.29-14.42,2.13-11.94-.43-16.57-10.92-33.28,6.66-2.3,2.42-10.18,6.19-13.94,5.8-21.28-2.26-7-35.8,12.05-40.84,15.33-4.07,16.2,5.68,27.59,11,6.13,2.87,20.15,3.71,21,4.43"/>
    <path class="cls-1" d="M570.33,417.52c-4.35-17.73-14.4-33,1.79-49.3l5.63,3.8a2.14,2.14,0,0,0,3.33-1.88c-.25-5.34,4.59-19.66,5.41-14.72,1.49,9.07.65,13.54,1.66,21.07.94,7.05,6.13,16.7,5.88,19.69-.37,4.51-12,18.19-18.7,23.13a3.2,3.2,0,0,1-5-1.79"/>
    <path class="cls-1" d="M347.19,233.57c-3.54,2.73-35.91-17.37-40.13-21.66-2.07-2.11-3.66-5.26-1.93-7.7,2.12-2.51,4.66-2,7.46-1.49,1.41.25,25.71,9.46,26.86,10.33,3,2.26,1.31,16.53,7.74,20.52"/>
    <path class="cls-1" d="M348.75,243.13l-5.16,10.26a3.31,3.31,0,0,1-3.53,1.8c-7.28-1.26-26-10.08-28.51-18.14a3.3,3.3,0,0,1,2.38-4.25c11-2,22,2.46,32.8,5.65a3.32,3.32,0,0,1,2,4.68"/>
    <path class="cls-1" d="M464.19,200.18c-6.22,17.43-29.37,30.2-38.59,15.24-2.75-4.47,7.45-6.32,12.8-8.16,9.1-3.12,29.61-17.77,25.79-7.08"/>
    <path class="cls-1" d="M368,290a1.8,1.8,0,0,1,2,1.9c-1.15,14-43.33,11.91-31.93-2.47,10.22-12.87,12.26,3.3,29.93.57"/>
    <path class="cls-1" d="M354.08,268.73,351.13,277A2.21,2.21,0,0,1,349,278.5c-7.35-.44-26.3-10.16-27.85-13.57-4.28-9.34,21-6.2,32,1.1a2.31,2.31,0,0,1,.93,2.7"/>
    <path class="cls-1" d="M364.05,306.21a4.17,4.17,0,0,1,4.18,3.52c.67,4.58,2.64,5.45,6.53,8.53s-12.13,6.91-14.72,7c-18.63.49-8.91-18.77,4-19"/>
    <path class="cls-1" d="M502,164.45c-10.06,1.94-22.83-2.77-25.32-12.68-3.62-14.33,36,10.62,25.32,12.68"/>
  </g>
</svg>
