<svg id="Livello_1" data-name="Livello 1" xmlns="http://www.w3.org/2000/svg" viewBox="0 0 841.89 841.89">
  <defs>
    <style>
      .cls-1 {
        fill: #231f20;
      }
    </style>
  </defs>
  <title>Glos</title>
  <path class="cls-1" d="M571.09,482.48a1.52,1.52,0,0,1-1-.51,20.73,20.73,0,0,1-4.47-8c-.89-2.92-3-5.47-4.71-8.12a34.86,34.86,0,0,0-2.72-3.31l6.37-4.37c-2.26-.53-5.16.17-7-.13-.22-2.88,6-10.37,6.05-10.85-1.27-.52-2.52-1.12-3.83-1.53-2.86-.89-5.76-1.67-8.63-2.52a16.43,16.43,0,0,1-7.85-5.08c-3.38-3.86-4.18-8.06-1.89-12.73,1.67-3.41,3.32-6.82,5.08-10.19,2.5-4.79,2.22-9.33-.69-13.89a26.27,26.27,0,0,1-4.42-15.74c.16-3.23.89-6.24,3.32-8.61,7.59-7.43,11.38-16.83,12.56-27.05,3.63-31.61-5.7-59.11-27.63-82.12-7-7.32-15.45-12.45-25.76-14.12-8.39-1.36-15.63.86-22.09,6.08-4.66,3.77-7.74,8.73-10.57,14.77-5.5-6.65-9.78-13.34-9.58-21.86.17-7.76,6.47-13.37,15.41-14.76s17.35.24,25.61,3.12c14.15,4.94,26.42,12.82,36.19,24.34.61.72,1.25,1.4,2,2.21,5.66-1.84,9.25-6.47,14.28-10.19,2.14,5.87,4.11,11.29,6.24,17.15l7.15-1.91c3,9.37-.67,19,1.37,29,6.94-6,15.29-6.25,22.95-8.51l-.13-.1c0,2.52-.14,5.06,0,7.58a30.86,30.86,0,0,1-1.83,14,9.41,9.41,0,0,0-.32,2l7.53-3.13c-.76,12-2.2,22.93-10,32a74.17,74.17,0,0,0-5.9,7.88,12.2,12.2,0,0,0-1.77,4.09c-.28,1.52-.07,3.81.89,4.73,1.63,1.55,4,.89,5.61-.59a17,17,0,0,0,3-4.16c.94-1.62,1.62-3.39,2.61-5.51,2.65.53,5.29.85,7.8,1.61a8.8,8.8,0,0,0,8.73-1.67c5.12-3.89,10.7-7.18,16.26-10.84.6,1.08,1.1,1.59,1.15,2.15a30.45,30.45,0,0,0,4.64,13.33c1.45,2.29,1.32,4.21-.21,6.52-2.15,3.25-3.86,6.79-6.08,10.77,4.34.28,6.4-3.3,10-3.54a12.14,12.14,0,0,1,.33,2.24c-.14,4.74-.37,9.48-.5,14.23a4.11,4.11,0,0,1-2,3.87,14.62,14.62,0,0,0-6.17,8.72c-.51,1.81-.62,3.81,1,4.68a5.09,5.09,0,0,0,4.36-.37,41.34,41.34,0,0,0,6.32-5.6,31.43,31.43,0,0,0,3-4.35c1.61,3.86,3,7.24,4.66,11.22,5.92-7.47,13.35-9.21,21.74-9,1.55,4.89-.73,8.72-3.29,13.12,4.7-.89,8.27-2.76,10.73-6.07a8.37,8.37,0,0,1,5.42-3.26,40.79,40.79,0,0,0,7.56-2.63c2.07-.94,4-2.17,6.15-.52s1.37,3.66.78,5.68c-.07.24,0,.53,0,.41,6.63,0,13.21-.19,19.78-.06,3.28.07,4.78,2.07,4.39,5.4a15.57,15.57,0,0,1-1.07,3.61c-.39,1-1,1.92-1.69,3.3,4.9-1.13,9.41-2.55,14-3.11a33.27,33.27,0,0,1,10.76.56c3.23.69,6.13,2.55,6.4,6.66l-4.85,2.53c7.95.12,14.17,2.83,18.26,9.77-4.08,3.4-8,6.79-12,10a7.51,7.51,0,0,1-7.17,1.34c-1.76-.56-3.61-.86-5.94-1.4.26,2.84,1,5.53-2,6.89a11.17,11.17,0,0,1-9.62.35,39.31,39.31,0,0,1-4.37-2.84c-5.65-3.55-11.58-3.13-17.73-1.59,1.83,2.84,3.78,5.16,4.93,7.82,2.29,5.29,1.14,7.63-4.51,8.94-3.5.81-7.25.62-10.86.9q-5.94.45-11.92.44c-2.91,0-6,.06-8.67-.89-6.9-2.46-13-1.59-18.64,3a12.13,12.13,0,0,1-8.77,2.95c-2.39-.17-4.48.56-5.4,3a5.3,5.3,0,0,0,1.62,6c1.49,1.4,3.2,2.58,4.72,4a54,54,0,0,1,5.39,5.3,10.32,10.32,0,0,1,1.6,3.88c.48,1.73-1.06,2.31-2,3.34-2.23,2.45-.56,6.16,3.22,7.12a18.8,18.8,0,0,0,4.34.06c1.34,7.83-3.5,12.78-7.59,18.73-1.18-1.64-1.92-2.79-2.78-3.85-2.48-3.07-4.94-6.17-7.57-9.11a14,14,0,0,0-3.78-2.82c-6-3.31-11.58-.36-12.32,6.49a46.6,46.6,0,0,0,0,4.73,19.13,19.13,0,0,0-2.78,2.44c-1.54,2-1.34,4,.93,5.17,5.12,2.6,6,6.9,5.54,12.41-1.31-.5-2.39-.93-3.49-1.33A84.24,84.24,0,0,0,614,529.3a12.66,12.66,0,0,0-5.94.38c-3.75,1-3.82,1.07-6.16-2.22a14.25,14.25,0,0,0-3.55-3.67c-1.68-1.14-3.78-1.23-5.15.53a4,4,0,0,0,.28,5.25c.91,1.1,2,2.06,2.89,3.15,3,3.65,3.17,6.84.33,11.43L591.8,543c.05,3,2.17,4,3.8,5.39,1.45,1.21,3.17,2.24,4.22,3.74,1.78,2.54,2.43,5.41.54,8.45l-11.77-1.11a13.57,13.57,0,0,0,1.07,3.12c2,2.88,4,5.73,6.09,8.47.75,1,1.9,2.13,3,2.22,4.49.37,5.07,3.63,5.66,7a10,10,0,0,1-1.85,7.85l-3.8-1.58c-.42.55-.91.9-.92,1.27-.09,2.05,0,4.1-.08,6.15,0,2.28-.34,4.51-2.66,5.69s-3.88-.12-5.63-1.32-3.45-2-5.22-3c-6.41,18.65-30.44,21.33-42.36,14.49a25.13,25.13,0,0,1-6.66-5.21c-6.46-7.61-3.62-18.91,5.84-23.43.37,1.86.62,3.69,1.1,5.46,1.71,6.25,6.24,9.43,12.67,9,9.1-.61,15.57-8.74,14.62-18.19-1-10.18-4.11-19.79-7.75-29.26-1.48-3.84-2.89-7.71-4.51-11.48-5-11.73-4.6-23.44.1-35.09,2.71-6.72,9.38-10.1,12.24-16.72,5.49,1.43,11.32,1.92,19.83-1.65l-.41-2.3a3,3,0,0,0-4-2.26C580.33,480.45,576.05,482.86,571.09,482.48Zm170.65-51.56c-21.71-10.44-66.18-13.44-92.59,5.71a84.73,84.73,0,0,0,9-2.25,127.42,127.42,0,0,1,50.41-5.65C713.77,429.17,736.23,430.59,741.74,430.92ZM578.89,412.05c-1.56.11-2.82.16-4.07.29a23.5,23.5,0,0,0-3.75.52c-2.94.8-3.56,3.21-1.32,5.29a6.74,6.74,0,0,0,2.89,1.44,11.88,11.88,0,0,0,8.76-.91,9.18,9.18,0,0,1,5.43-.93c4.2.29,8.47.47,12.43-1.87-7.41.25-13.75-3-20.37-6.25Zm19-25,20.24-33C608.41,362.91,597.88,374,597.88,387Zm-16.17-82c-5.14,5.13-8.05,11.5-10,18.43-2.15,7.76-4.47,15.47-6.71,23.21-.26.9-.48,1.81-.73,2.72C575,341.84,575.75,314.29,581.71,305Zm19.86,199.67c2.64,9.62,9.49,18.09,14.76,18.67Zm16.94-36.2c.81,9.23,7,22.2,17.78,22.2C627.78,485,622.78,477.66,618.51,468.47ZM556.7,407.91c5.79-1.81,11.53-1.16,17.28.08C566.18,402.64,560.21,402.58,556.7,407.91Z"/>
  <path class="cls-1" d="M270.8,482.48a1.52,1.52,0,0,0,1-.51,20.73,20.73,0,0,0,4.47-8c.89-2.92,3-5.47,4.71-8.12a34.86,34.86,0,0,1,2.72-3.31l-6.37-4.37c2.26-.53,5.16.17,7-.13.22-2.88-6-10.37-6.05-10.85,1.27-.52,2.52-1.12,3.83-1.53,2.86-.89,5.76-1.67,8.63-2.52a16.43,16.43,0,0,0,7.85-5.08c3.38-3.86,4.18-8.06,1.89-12.73-1.67-3.41-3.33-6.82-5.08-10.19-2.5-4.79-2.22-9.33.69-13.89a26.27,26.27,0,0,0,4.42-15.74c-.16-3.23-.89-6.24-3.32-8.61-7.59-7.43-11.38-16.83-12.56-27.05-3.63-31.61,5.7-59.11,27.63-82.12,7-7.32,15.45-12.45,25.76-14.12,8.39-1.36,15.63.86,22.09,6.08,4.66,3.77,7.74,8.73,10.57,14.77,5.5-6.65,9.78-13.34,9.58-21.86-.17-7.76-6.47-13.37-15.41-14.76s-17.35.24-25.61,3.12c-14.15,4.94-26.42,12.82-36.19,24.34-.61.72-1.25,1.4-2,2.21-5.66-1.84-9.25-6.47-14.28-10.19-2.14,5.87-4.11,11.29-6.24,17.15l-7.15-1.91c-3,9.37.67,19-1.37,29-6.94-6-15.29-6.25-23-8.51l.13-.1c0,2.52.14,5.06,0,7.58a30.86,30.86,0,0,0,1.83,14,9.41,9.41,0,0,1,.32,2l-7.54-3.13c.77,12,2.21,22.93,10,32a75.55,75.55,0,0,1,5.9,7.88,12.2,12.2,0,0,1,1.77,4.09c.28,1.52.07,3.81-.89,4.73-1.63,1.55-4,.89-5.61-.59a17,17,0,0,1-3-4.16c-.94-1.62-1.62-3.39-2.61-5.51-2.66.53-5.29.85-7.8,1.61a8.8,8.8,0,0,1-8.73-1.67c-5.12-3.89-10.7-7.18-16.26-10.84-.6,1.08-1.1,1.59-1.15,2.15a30.45,30.45,0,0,1-4.64,13.33c-1.45,2.29-1.32,4.21.2,6.52,2.16,3.25,3.87,6.79,6.09,10.77-4.34.28-6.4-3.3-10-3.54a13.13,13.13,0,0,0-.34,2.24c.15,4.74.38,9.48.51,14.23a4.11,4.11,0,0,0,2,3.87,14.62,14.62,0,0,1,6.17,8.72c.51,1.81.62,3.81-1,4.68a5.09,5.09,0,0,1-4.36-.37,41.34,41.34,0,0,1-6.32-5.6,31.43,31.43,0,0,1-3-4.35c-1.61,3.86-3,7.24-4.66,11.22-5.92-7.47-13.35-9.21-21.74-9-1.55,4.89.73,8.72,3.29,13.12-4.7-.89-8.27-2.76-10.73-6.07a8.39,8.39,0,0,0-5.42-3.26,40.79,40.79,0,0,1-7.56-2.63c-2.07-.94-4-2.17-6.15-.52s-1.37,3.66-.78,5.68c.07.24,0,.53,0,.41-6.63,0-13.21-.19-19.78-.06-3.28.07-4.78,2.07-4.39,5.4a15.57,15.57,0,0,0,1.07,3.61c.39,1,1,1.92,1.69,3.3-4.9-1.13-9.41-2.55-14-3.11a33.27,33.27,0,0,0-10.76.56c-3.23.69-6.13,2.55-6.4,6.66l4.85,2.53c-8,.12-14.17,2.83-18.26,9.77,4.08,3.4,8,6.79,12,10a7.51,7.51,0,0,0,7.17,1.34c1.76-.56,3.61-.86,5.94-1.4-.26,2.84-1,5.53,2,6.89a11.17,11.17,0,0,0,9.62.35,39.31,39.31,0,0,0,4.37-2.84c5.65-3.55,11.58-3.13,17.73-1.59-1.83,2.84-3.78,5.16-4.93,7.82-2.29,5.29-1.14,7.63,4.51,8.94,3.5.81,7.25.62,10.86.9q5.94.45,11.92.44c2.91,0,6,.06,8.67-.89,6.9-2.46,13-1.59,18.64,3A12.13,12.13,0,0,0,198.2,467c2.39-.17,4.48.56,5.4,3a5.3,5.3,0,0,1-1.62,6c-1.49,1.4-3.2,2.58-4.72,4a54,54,0,0,0-5.39,5.3,10.32,10.32,0,0,0-1.6,3.88c-.48,1.73,1.06,2.31,2,3.34,2.23,2.45.56,6.16-3.22,7.12a18.8,18.8,0,0,1-4.34.06c-1.34,7.83,3.5,12.78,7.59,18.73,1.17-1.64,1.92-2.79,2.78-3.85,2.48-3.07,4.94-6.17,7.57-9.11a14,14,0,0,1,3.78-2.82c6-3.31,11.58-.36,12.32,6.49a46.6,46.6,0,0,1,0,4.73,19.13,19.13,0,0,1,2.78,2.44c1.54,2,1.34,4-.93,5.17-5.12,2.6-6,6.9-5.54,12.41,1.31-.5,2.39-.93,3.49-1.33a84.24,84.24,0,0,1,9.36-3.24,12.66,12.66,0,0,1,5.94.38c3.75,1,3.82,1.07,6.15-2.22a14.46,14.46,0,0,1,3.56-3.67c1.68-1.14,3.78-1.23,5.15.53a4,4,0,0,1-.29,5.25c-.9,1.1-2,2.06-2.88,3.15-3.05,3.65-3.17,6.84-.33,11.43l4.86-1.15c-.05,3-2.17,4-3.8,5.39-1.45,1.21-3.17,2.24-4.22,3.74-1.78,2.54-2.43,5.41-.54,8.45l11.77-1.11a13.08,13.08,0,0,1-1.08,3.12c-1.94,2.88-3.94,5.73-6.08,8.47-.75,1-1.9,2.13-2.95,2.22-4.49.37-5.07,3.63-5.66,7a10,10,0,0,0,1.85,7.85l3.8-1.58c.42.55.91.9.92,1.27.09,2.05,0,4.1.08,6.15,0,2.28.34,4.51,2.66,5.69s3.88-.12,5.63-1.32,3.45-2,5.22-3c6.41,18.65,30.44,21.33,42.36,14.49a25.13,25.13,0,0,0,6.66-5.21c6.46-7.61,3.62-18.91-5.84-23.43-.37,1.86-.62,3.69-1.1,5.46-1.71,6.25-6.24,9.43-12.67,9-9.1-.61-15.57-8.74-14.62-18.19,1-10.18,4.11-19.79,7.75-29.26,1.48-3.84,2.89-7.71,4.51-11.48,5-11.73,4.59-23.44-.1-35.09-2.71-6.72-9.38-10.1-12.24-16.72-5.49,1.43-11.32,1.92-19.83-1.65l.41-2.3a3,3,0,0,1,4-2.26C261.56,480.45,265.84,482.86,270.8,482.48ZM100.15,430.92c21.71-10.44,66.18-13.44,92.59,5.71a84.73,84.73,0,0,1-9-2.25,127.42,127.42,0,0,0-50.41-5.65C128.12,429.17,105.66,430.59,100.15,430.92ZM263,412.05c1.56.11,2.82.16,4.07.29a23.5,23.5,0,0,1,3.75.52c2.94.8,3.56,3.21,1.32,5.29a6.74,6.74,0,0,1-2.89,1.44,11.88,11.88,0,0,1-8.76-.91,9.18,9.18,0,0,0-5.43-.93c-4.2.29-8.47.47-12.43-1.87,7.41.25,13.75-3,20.37-6.25Zm-19-25-20.24-33C233.48,362.91,244,374,244,387Zm16.17-82c5.14,5.13,8.05,11.5,10,18.43,2.15,7.76,4.46,15.47,6.7,23.21.27.9.49,1.81.74,2.72C266.91,341.84,266.14,314.29,260.18,305ZM240.32,504.67c-2.64,9.62-9.49,18.09-14.77,18.67C230.36,517.26,235.44,510.85,240.32,504.67Zm-16.94-36.2c-.81,9.23-7,22.2-17.78,22.2C214.11,485,219.11,477.66,223.38,468.47Zm61.81-60.56c-5.79-1.81-11.53-1.16-17.28.08C275.71,402.64,281.68,402.58,285.19,407.91Z"/>
</svg>
