<svg id="Livello_1" data-name="Livello 1" xmlns="http://www.w3.org/2000/svg" viewBox="0 0 841.89 841.89">
  <defs>
    <style>
      .cls-1 {
        fill: #231f20;
      }
    </style>
  </defs>
  <title>Glos</title>
  <g>
    <g>
      <g>
        <rect class="cls-1" x="453.97" y="240.42" width="10.63" height="0.01"/>
        <rect class="cls-1" x="427.18" y="240.42" width="10.63" height="0.01"/>
      </g>
      <path class="cls-1" d="M427.18,240.42h0Zm26.79,0h0Z"/>
      <path class="cls-1" d="M552.45,170.77v5.79a11,11,0,0,1-11,11h-3a11,11,0,0,1-11-11v-6.78a8.32,8.32,0,0,1,.12-1.51c-10.75-.72-23.64-1.22-39.11-1.27a10.2,10.2,0,0,1,.38,2.78v6.78a10.36,10.36,0,0,1-4,7.75,12.83,12.83,0,0,1-17,0,10.36,10.36,0,0,1-4-7.75v-6.78a10.2,10.2,0,0,1,.38-2.78c-15.45.05-28.36.55-39.11,1.27a7.51,7.51,0,0,1,.12,1.51v6.78a11,11,0,0,1-11,11h-3a11,11,0,0,1-11-11v-5.79c-20.78,3-26.17,6.73-26.17,6.73v43.11l21.06,19.81h0l21.73,20.44V375H535.81V260.86l21.73-20.44,21.08-19.81V177.5S573.23,173.78,552.45,170.77ZM437.81,240.43H427.18V224.18a5.27,5.27,0,0,1,1.57-3.75,5.15,5.15,0,0,1,1.93-1.23,2.16,2.16,0,0,1,.43-.14l.33-.09.26,0a5.3,5.3,0,0,1,1.59,0l.26,0,.34.09a2.49,2.49,0,0,1,.44.14l.24.09a5.12,5.12,0,0,1,1.3.8,4.17,4.17,0,0,1,.38.34h0a5.24,5.24,0,0,1,1.56,3.74Zm26.79,0H454V224.18a5.27,5.27,0,0,1,1.57-3.75,5.07,5.07,0,0,1,1.93-1.23,2.16,2.16,0,0,1,.43-.14l.33-.09.26,0a5.16,5.16,0,0,1,.79-.06,5.06,5.06,0,0,1,.79.06l.26,0,.34.09a2.49,2.49,0,0,1,.44.14l.24.09a5.35,5.35,0,0,1,1.31.8c.13.11.26.22.38.34h0a5.24,5.24,0,0,1,1.56,3.74Zm34.26,0H488.24V224.18a5.22,5.22,0,0,1,1.56-3.75,5.3,5.3,0,0,1,9.06,3.75Zm26.79,0H515V224.18a5.22,5.22,0,0,1,1.56-3.75,5.3,5.3,0,0,1,9.06,3.75Z"/>
    </g>
    <path class="cls-1" d="M652.46,519.31c-8.66-15.42-6.35-69.1-26-69.1,0,0-10.38-36.55-90.66-53.83V378.57H417.05v9.34q-15.8.45-33.17,1.64s-41.22-25.55-76.5-12.76S286,403.5,274.83,413s-7,36.16-7,36.16-33.46,42-58-3.27c-6.33-11.72-1.74-24.57,5.14-31.2,12.52-12.07,49.38-31.72,48.59-51.12-.5-12.06-4.65-27.69-24.93-12.05-4,3,4.86,20.71-5.29,26.2S172.13,405,180,461.41,249.47,506,249.47,506s-24.13,13.81-41.64,15.22c-10.16.82-10.37,7-10.13,9.51.37,3.76,7.18,19.64,79.46-20.71,0,0,19.22,7.8,46.28-5.71,0,0,12,11.82,16.69,11.2s2.53,28.53,13.53,41-13.53,32.76,1.27,70.57c11.62,30.67-7.82,19.44-9.09,34s44.37-2.43,44.37-2.43,32.23,8.86,31.58-9.51-17.64-72.57-17.64-72.57,6.54-11.75,9.1-18.26c1.07-2.73,11.72.3,27.74,3.83l24.23,21.37a244.32,244.32,0,0,1-6.33,24.56c-4.59,15.07,17.53,7.57,17.53,7.57s22.15,7.5,17.55-7.57a244.32,244.32,0,0,1-6.33-24.56l16.56-14.6a137.18,137.18,0,0,0,21.68-2.73c7.6-1.46,28.31,54.53,5.49,86-5.6,6,18.79,16.17,32.23,10.36,0,0,17.65,21.55,47.45,7.62,7.84-3.75-1.49,1.69,2.3-66.37-.84-18.8,20.94-19.86,20.09-90.65,0,0,8,30.21,13.73,37.61s14-3.8,14-3.8S668.3,542.13,652.46,519.31Zm-176,37.19-48.07-37.19V389.55h96.14V519.31Zm99.34,87.11c-.64,1.64-7.74-1.84-7.74-1.84V600.68S583.09,619.05,575.76,643.61Z"/>
  </g>
</svg>
