<svg id="Livello_1" data-name="Livello 1" xmlns="http://www.w3.org/2000/svg" viewBox="0 0 841.89 841.89">
  <defs>
    <style>
      .cls-1 {
        fill: #231f20;
      }
    </style>
  </defs>
  <title>Glos</title>
  <g>
    <path class="cls-1" d="M610.92,559c2.08,1.54,4.42,1,6.63.61a222.4,222.4,0,0,0,34.55-8,260.75,260.75,0,0,0,45.19-19.51c8.14-4.45,15.53-9.92,21.19-17.45a8,8,0,0,1,1.51-1.23c2.11-.3,3.8.85,5.48,1.79,3.12,1.77,3.5,4.74,1,7.37-6.87,7.18-14.39,13.5-23.26,18.13A234.7,234.7,0,0,1,679,551.83c-13.49,5.2-27.15,9.92-41,14a232.31,232.31,0,0,1-26.94,5.9c-2.92.49-5.82,1.1-8.72,1.71-1.72.36-2.67,1.58-2.11,2.57a3.07,3.07,0,0,0,3.36,1.3c12.38-1.8,24.44-5.05,36.55-8.08a316,316,0,0,0,46.57-16A213,213,0,0,0,717,536.85c.83-.53,1.63-1.11,2.42-1.7,3.89-2.94,7.91-2.72,12-.55a2.35,2.35,0,0,1,.67,2.57,19.41,19.41,0,0,1-1.84,2.29,68.66,68.66,0,0,1-13.48,9.93c-3.15,1.78-6.4,3.38-9.63,5-28.68,14.43-59,24-90.37,30.44-3.19.66-6.47.89-9.71,1.37-.85.12-1,.65-.88,1.47s.33,1.18,1.14,1.3a14.38,14.38,0,0,0,2.9.36c2.63-.14,5.26-.32,7.87-.62,21.38-2.42,41.79-8.67,61.93-15.87a211.59,211.59,0,0,0,31.49-14c5.17-2.88,10.15-6.11,15.16-9.26a9.18,9.18,0,0,1,4.55-1.65c2-.08,4,.75,4.18,1.8.3,1.47-.48,2.54-1.28,3.55-3.11,3.91-7.05,6.91-11.08,9.76a135.23,135.23,0,0,1-27.9,14.64A281.25,281.25,0,0,1,651,591.42c-11.22,2.51-22.41,5.22-33.74,7.15-12,2-23.93,4.34-35.87,6.65-11,2.13-21.95,4.19-32.91,6.39A39.77,39.77,0,0,0,542,613.8c-.51.2-.89.94-1.13,1.52a5.3,5.3,0,0,0-.31,1.94,101,101,0,0,0,4,27.26c.78,2.77,2.24,3.82,4.89,3.89,4.28.11,8.56.2,12.83.43,6.68.34,12.87,2.52,18.79,5.48a21.21,21.21,0,0,1,4,2.77c1.71,1.42,2.85,4.2,2.18,5.11-1.06,1.45-2.67,1.82-4.33,2-9.17.86-18.36,1.62-27.52,2.58-8.83.92-17.64,2-26.46,3.07-2,.23-3.93.5-5.9.58-8.24.33-16.35,1.77-24.46,3.05a11.8,11.8,0,0,1-8.38-1.85,6.83,6.83,0,0,0-1.92.44c-3.92,2.27-7.57.9-11.17-.82a1.8,1.8,0,0,1-.66-1.63,23.14,23.14,0,0,1,2.45-5.34c6.14-8.58,14.52-13.13,25.13-13.34,3.29-.06,6.58.13,9.87.11a76.75,76.75,0,0,0,7.89-.3,7.92,7.92,0,0,0,7.12-7.05,51.56,51.56,0,0,0,0-7.86c-.3-4.25-2-7.34-6.47-8.91-5.94-2.1-10.9-6.07-15.93-9.77a30.05,30.05,0,0,1-7.75-8.88,9.57,9.57,0,0,0-2-2,1,1,0,0,0-.91-.15,1.47,1.47,0,0,0-.56.79,3.87,3.87,0,0,0,.45,3.72c2,3,3.95,6,5.88,8.89-.58.64-.9,1.31-1.36,1.43a161,161,0,0,1-23.21,4.39c-8.84,1.07-17.67,1.79-26.55,2.18a335.41,335.41,0,0,1-47.33-1.54c-1.64-.17-3.28-.32-4.93-.41-17-.86-33-5.58-48.61-11.91a170.39,170.39,0,0,1-46.86-28.87c-16.51-14.1-29.55-30.88-38-51a92.94,92.94,0,0,1-7-48.29c.16-1.3.24-2.63.47-3.92a24.84,24.84,0,0,1,6.47-13,45.7,45.7,0,0,1,22.75-13.14c4.45-1.09,9-2.15,13.65-1.95a13.34,13.34,0,0,0,3.15-.73c-.74-.9-1.18-1.87-1.92-2.25a9.17,9.17,0,0,0-5.8-.59c-11.78,2-23.13,5.15-32.47,13.2a3.86,3.86,0,0,1-1.7.95c-.56.1-1.5,0-1.74-.37a17.11,17.11,0,0,1-2.22-4.31c-.22-.73.37-1.82.85-2.58a3.16,3.16,0,0,1,1.66-1c20.32-6.55,40.64-13.07,60.81-19.53,3.34.4,5.19,3.07,7.8,4.42,1.21.63,1.43,2.11,1.08,3.5s-.82,2.51-1,3.8c-1.31,7.21,1.14,13,6.93,17.31A31,31,0,0,0,353,471.09c3.59.27,7.19.4,10.57.58a4.23,4.23,0,0,1,0,4.1c-3.11,6.45-3.64,13.33-2.8,20.27a71.71,71.71,0,0,0,2.86,12.47,60.3,60.3,0,0,0,4.19,10,91.05,91.05,0,0,0,27.44,31.91c10.19,7.44,21.61,11,34.28,10.05a31.24,31.24,0,0,1,9.78.72,294.9,294.9,0,0,0,34,6.11c9.46,1.11,18.91,2.76,28.49,2.69a18.71,18.71,0,0,1,2,.06c18.43,1.67,36.86,1,55.26-.26a153.8,153.8,0,0,0,34-5.64c.64-.18,1.31-.23,1.93-.46,5.4-1.94,10.26-4.52,12.41-10.39a4.31,4.31,0,0,1,3.78-2.76,98.5,98.5,0,0,0,19.19-4.39,34,34,0,0,0,7.15-3.2c2.37-1.45,3.77-3.51,2.47-6.65a2.13,2.13,0,0,1,1.49-3.07c20-5.33,39.13-13.47,59-19.26a54.66,54.66,0,0,1,10.63-2,2.12,2.12,0,0,1,2.37,1.15c.49,1.11-.31,1.91-.92,2.62a51.32,51.32,0,0,1-14.77,11.39,332.14,332.14,0,0,1-47.85,20.9,152.14,152.14,0,0,1-24.68,6.8c-3.89.65-7.82,1-11.73,1.51a3,3,0,0,0-2.55,2.6"/>
    <path class="cls-1" d="M588.19,509.82c-2.12,1.29-4.44.52-6.64.78a25,25,0,0,0-3.86.58c-.44.13-.8.92-1,1.48-.25.79.12,1.38.85,1.41,3.27.13,6.55.27,9.83.32,7.24.11,14.49.15,21.73.25a16.89,16.89,0,0,1,9.47,2.64c-.53.83-.86,2-1.6,2.38a32.9,32.9,0,0,1-12,4.25c-7.15,1-14.32,2.12-21.63,1.26-4.9-.58-9.87-.5-14.78-1-7.51-.82-15-1.68-22.49-2.93a516.92,516.92,0,0,1-51.85-11.93,8.89,8.89,0,0,0-2.89-.35c-.39,0-.81.72-1.06,1.18a1,1,0,0,0,.34.87,9.52,9.52,0,0,0,2.51,1.42c17.71,5,35.48,9.76,53.76,12.32,6.5.91,13,2.41,19.48,3.06,12.78,1.29,25.61,2.12,38.44.53A32.86,32.86,0,0,0,622,521.45a3.42,3.42,0,0,1,3.73-.33c2.35,1.11,5,1.78,6.72,4,.51.67.58,2.17-.09,2.65a30.8,30.8,0,0,1-3.2,2.26,78.22,78.22,0,0,1-22.24,7.85c-6.11,1.24-12.27,2.52-18.58,2.33a6.51,6.51,0,0,0-1,0c-16.11,2.1-32.21,1.36-48.31-.18a218,218,0,0,1-28.17-4.78,190.75,190.75,0,0,1-22.76-6.41,8.6,8.6,0,0,0-2.89-.49,2.12,2.12,0,0,0-1.65.79,2,2,0,0,0,.58,1.73,8.16,8.16,0,0,0,2.51,1.45,174.07,174.07,0,0,0,30.51,7.83c7.78,1.34,15.59,2.52,23.43,3.43,5.22.61,10.51.62,15.77.89a224.18,224.18,0,0,0,32.58-.5c12.76-1.2,25.45-3.31,37.41-8.28,2.46-1,4.45-.48,6.56.59a2.09,2.09,0,0,1,.56,3.28c-2.09,2.29-4.84,3.38-7.65,4.3a99.8,99.8,0,0,1-18.27,4c-9.13,1.19-18.27,2.26-27.42,3.35-2,.24-3.93.39-5.9.48-22.71,1-45.42,1.6-68.13.06a142.21,142.21,0,0,1-23.4-3.37,10,10,0,0,0-2.93-.29c-.49,0-1,.53-1.39.9a1.47,1.47,0,0,0,.43.84,6.86,6.86,0,0,0,2.41,1.6c4.83,1,9.59,2.14,14.51,2.78,20.34,2.65,40.76,1.81,61.17,1.68,4.6,0,9.2-.57,13.79-.91,3.28-.24,6.56-.66,9.84-.8a92.29,92.29,0,0,0,14.73-1.5,26.37,26.37,0,0,1,4.88-.19c.84,0,1.28.44,1.19,1.24a3.71,3.71,0,0,1-.42,1.8,7.08,7.08,0,0,1-2.15,2,45.53,45.53,0,0,1-5.36,2.46A75,75,0,0,1,578,563.58a219.55,219.55,0,0,1-36.42,2.31c-8.56-.14-17.13,0-25.69-.21-6.24-.18-12.47-.79-18.71-1.23-2-.14-3.93-.44-5.9-.52-10.21-.44-20.28-2-30.36-3.57-7.49-1.13-14.92-2.41-22.31-4.05a39.31,39.31,0,0,0-8.81-.78c-13.78.17-25.83-4.57-36.23-13.28a98.88,98.88,0,0,1-20.28-24.11,52,52,0,0,1-7.72-26.23A43,43,0,0,1,367,481.17a18.56,18.56,0,0,1,6.1-9.93,35.9,35.9,0,0,1,17.52-8.46,89.47,89.47,0,0,1,26.54-.6c30.86,3.52,60.67,11.59,90,21.4,16.21,5.42,32.57,10.3,48.92,15.2,9.44,2.83,18.92,5.53,28.36,8.38,1.47.44,3.24.74,3.8,2.66"/>
    <path class="cls-1" d="M379.93,413.34c3.94-3.57,6.23-7.91,8-12.56.82-2.15,1.52-4.36,2.39-6.48a69.52,69.52,0,0,1,14.53-22.16,46.07,46.07,0,0,1,19.85-12.45c6-1.84,12.12-3,18.44-1.62.78.17,1.79,1.54,1.58,2.2a40.93,40.93,0,0,1-1.92,5.59c-3.83,7.72-8.58,14.81-15,20.63a86.18,86.18,0,0,1-23,15.15c-1.8.8-3.75,1.31-5.46,2.27-2.66,1.5-4.49,3.71-4.64,6.95.41.14.74.39,1,.34,11.36-1.73,22.71-3.51,34.06-5.23a8.86,8.86,0,0,0,5.07-2.81A24.69,24.69,0,0,0,440.78,393a54,54,0,0,1,8.52-16.61c10.92-14.29,25.52-21.29,43.36-21.85a6,6,0,0,1,2.88.39,3.36,3.36,0,0,1,1.73,2.12,23.69,23.69,0,0,1-1.54,9.64,44,44,0,0,1-18.17,22.71A53.49,53.49,0,0,1,455.68,398,27.46,27.46,0,0,0,450,399.5a3.36,3.36,0,0,0-2.19,3c-.1,1.08.38,2.31,1.09,2.45a16.23,16.23,0,0,0,2.89.51c4.61,0,9.22.06,13.82-.15,8.88-.41,17.75-1.06,26.63-1.45a16.89,16.89,0,0,0,9.34-2.72c1.58-1.48,1.25-3.62,1.79-5.47.46-1.58,1-3.15,1.45-4.72a53.18,53.18,0,0,1,15.94-24.53,54.56,54.56,0,0,1,36.93-14.13,57.68,57.68,0,0,1,23,4.69,21.87,21.87,0,0,1,3.31,2.09,2.29,2.29,0,0,1,.63,2.66c-.59,1.17-1.13,2.38-1.83,3.49a36.52,36.52,0,0,1-7.82,8.85C560.56,386,544.71,395,525.89,397.86c-3,.46-5.73,1.4-7.74,3.81-.17.19-.11.63,0,.94s.18.65.35.69a6.45,6.45,0,0,0,1.94.31c3.61-.14,7.23-.33,10.85-.5q12.82-.62,25.65-1.21c2.3-.11,4.63,0,6.91-.26,3.6-.48,7-1.4,9.8-4.13,7-6.94,15.94-10.5,25.22-12.85A88.19,88.19,0,0,1,654,388.3a43.82,43.82,0,0,1,11.25,6.09,2.29,2.29,0,0,1,.32,3.4,29.09,29.09,0,0,1-2.22,2A50,50,0,0,1,652.23,406c-11.38,4.68-23.12,7.53-35.47,7.57-2.31,0-4.61,0-6.92.05A68.21,68.21,0,0,1,581,408.17a15.25,15.25,0,0,0-3.73-.76c-.21,0-.59.32-.7.58a1.11,1.11,0,0,0,.06.95,8.19,8.19,0,0,0,2.11,1.93,60.56,60.56,0,0,0,12.92,4.77,57.9,57.9,0,0,0,5.77,1.31c10,1.34,17.67,6.84,24.28,14a58.74,58.74,0,0,1,12.6,21c1.38,4,0,4.67-3.09,5.84-5.11,1.93-10.36,1.59-15.55.35a53.41,53.41,0,0,1-17.1-7.47,72.72,72.72,0,0,1-26.33-30.08,24.66,24.66,0,0,1-1.56-3.63c-.95-3.29-3.5-4.63-6.44-5.41a18.74,18.74,0,0,0-4.89-.57q-23.22.33-46.43.78a2.41,2.41,0,0,0-2.72,2.11c-.06.2.21.63.45.79a5.84,5.84,0,0,0,1.65.92c1.57.45,3.18.82,4.77,1.19,8.13,1.86,14,6.85,19,13.29,9.2,11.88,13.67,25.37,14.44,40.22,0,1,0,2,0,3-.05,2.36-1.75,3.64-3.86,2.95a41.75,41.75,0,0,1-12.22-6.31,69.78,69.78,0,0,1-10.87-10,91,91,0,0,1-18.21-31.41c-2.07-6.29-5.48-11.12-11.32-14.61h-40.3c-.87,0-2,1.31-1.69,1.89a5.11,5.11,0,0,0,1.16,1.51,5.44,5.44,0,0,0,1.8.75c1.58.46,3.16.94,4.76,1.3a33.57,33.57,0,0,1,13.89,7.2,53.76,53.76,0,0,1,11.61,13.36,74.55,74.55,0,0,1,10.64,29.49,2.82,2.82,0,0,1-3.69,3.18,67.33,67.33,0,0,1-30.86-16.78,83,83,0,0,1-21.72-32.55c-.79-2.16-1.47-4.36-2.24-6.53a3.43,3.43,0,0,0-3.9-2.26c-9.47,1.14-18.94,2.21-28.4,3.48a45.08,45.08,0,0,0-7.56,2.07c-.3.09-.57,1.13-.43,1.61a5.46,5.46,0,0,0,3,3.71c2.12.88,4.36,1.47,6.51,2.29a69.83,69.83,0,0,1,34.12,27.27,20.82,20.82,0,0,1,2.05,4.44,1.67,1.67,0,0,1-.77,1.44c-2.93.75-5.88.26-8.81-.17-3.24-.48-6.47-1.28-9.73-1.48a21,21,0,0,1-11.76-4.61,67.09,67.09,0,0,1-17.35-20,13.85,13.85,0,0,0-4.57-5c-2.76-1.81-5.46-3.68-8.48-5.71-2.35,0-5-.12-7.58,0-3.62.2-7.22.62-10.83.9-2,.16-3.45-1.21-3.9-3.6-.4-2.16.2-3.5,1.9-3.9a46.29,46.29,0,0,1,6.75-1.33,62,62,0,0,0,12.34-2.49"/>
    <path class="cls-1" d="M222.72,423.79c1.75.4,3,.11,3.6-1.26.76-1.81,1.32-3.7,1.91-5.58a60.63,60.63,0,0,1,11.22-20.69,52.43,52.43,0,0,1,7.09-6.8,15.71,15.71,0,0,1,4.43-2,2.32,2.32,0,0,1,3,1.72,24.8,24.8,0,0,1-1,11.7,58.12,58.12,0,0,1-10.34,19,25,25,0,0,1-9.11,7.41c-5,2.22-7.28,6.4-8.27,11.49a8.45,8.45,0,0,0-.07,2,4.41,4.41,0,0,0,5.26,4.43c6.08-1.41,12.19-2.72,18.2-4.4,21.5-6,43-12.18,64.46-18.28,2.21-.63,4.47-1.12,6.66-1.8a17.07,17.07,0,0,1,12.51.76c2.07.95,4.13,2,6.11,3.08.45.26.62,1.1.81,1.71,0,.16-.26.57-.49.65-2.46.92-4.9,1.88-7.4,2.66-16.94,5.27-33.91,10.43-50.83,15.73-16.62,5.21-33.26,10.33-49.76,15.88-18.42,6.17-36.09,14.17-53.57,22.61-7.49,3.61-13.94,8.71-20.49,13.67a11.15,11.15,0,0,0-2.47,3,2.18,2.18,0,0,0-.06,1.82c2,3.85,5.43,5.54,9.49,6.2.56.09,1.23-.35,1.82-.61a1.92,1.92,0,0,0,.77-.61c4.9-7.28,12.38-10.52,20.32-13.09a64.21,64.21,0,0,1,26.28-2.95,23.65,23.65,0,0,1,5.63,1.63,2.35,2.35,0,0,1,1.18,1.44,14.68,14.68,0,0,1,.4,2.9c.38,3.93.64,7.87,1.13,11.78.3,2.3,0,3.91-3,5.56a46,46,0,0,1-19.7,5.76c-6.69.45-13.09-.93-19.43-2.79-1.25-.37-2.51-.75-3.77-1.06a2.76,2.76,0,0,0-3.19,1.62,4,4,0,0,0,1.26,3.49,15.94,15.94,0,0,0,2.57,1.45c1.84.71,3.75,1.21,5.58,1.93a67,67,0,0,1,25.85,17.66A45.48,45.48,0,0,1,217,558.44a30.35,30.35,0,0,1,1.46,9.71,3.4,3.4,0,0,1-4.1,3.18c-12.1-2.39-22.11-8.33-29.56-18.17-4.77-6.29-9.1-12.91-13.65-19.37-1.32-1.88-2.67-3.75-4.11-5.54-.32-.39-1.33-.75-1.57-.56a2,2,0,0,0-.64,1.69,14.91,14.91,0,0,0,1.54,3.55c4.05,6.78,8,13.61,12.3,20.25a15.5,15.5,0,0,1,2.42,11.25c-.9,5.87-1.94,11.67-4.89,16.82-.93,0-1.76.16-2.19-.16a56.35,56.35,0,0,1-18-21.87c-4.29-9.37-4.45-19.16-2.58-29,.54-2.83,2.29-5.43,3.38-8.17a3.69,3.69,0,0,0-.73-3.69c-3.8-4.81-8.86-6.66-14.85-5.88a7.94,7.94,0,0,0-3.53,1.58c-3.17,2.36-6.23,4.86-9.3,7.34-6.4,5.17-12.77,10.38-19.2,15.52a2,2,0,0,1-1.74.2,2.45,2.45,0,0,1-1-1.46,5.83,5.83,0,0,1-.08-2,43.78,43.78,0,0,0,.35-5.91c-.54-6.86,2.63-12,7.18-16.63a264.2,264.2,0,0,1,28-25,207.44,207.44,0,0,1,52.54-28.91c3.69-1.4,7.41-2.73,11.05-4.22A19.36,19.36,0,0,0,212.2,449a7.12,7.12,0,0,0,2.2-5.3,4.17,4.17,0,0,0-3.48-4.13c-1.63-.14-3.28-.22-4.92-.28A95.91,95.91,0,0,1,176.2,433a52.29,52.29,0,0,1-13.86-7.45c-3.69-2.83-7-6-8.73-10.49a3,3,0,0,1,1.7-4,14.8,14.8,0,0,1,3.76-1,32,32,0,0,1,9.78.81,107.47,107.47,0,0,1,35.89,15.82c1.92,1.27,3.73,2.72,5.65,4a7.76,7.76,0,0,0,2.7,1.13,2.4,2.4,0,0,0,2.66-.78,2.2,2.2,0,0,0,.14-2.71c-1.45-1.76-3.08-3.38-4.61-5.09-3.27-3.69-6.68-7.27-9.76-11.12-5.94-7.39-8.8-16.1-10.29-25.32a18.1,18.1,0,0,1,.68-8.78,2.49,2.49,0,0,1,3.91-1.27c.82.55,1.65,1.08,2.43,1.69a63.55,63.55,0,0,1,20,26.48,47.43,47.43,0,0,1,2.17,7.56c.87,3.82,1.27,7.75,2.3,11.38"/>
    <path class="cls-1" d="M268.27,407c-2.85-8.56-1.51-16.36,2.77-23.88a44.1,44.1,0,0,1,14-15c10.16-6.8,21.19-10.42,33.5-9.53a54,54,0,0,1,20.8,5.58c10.19,5.18,16.85,17.09,14.92,28.72a3.21,3.21,0,0,1-2.4,2.8c-5.4,1.37-10.83,2.68-16.25,4a41.91,41.91,0,0,0-4.81,1.05c-5.34,2-8.85-.8-11.95-4.49-1.25-1.49-2-3.43-3.16-5a10.76,10.76,0,0,0-13.39-2.62,10.63,10.63,0,0,0-4.81,12.73,6.9,6.9,0,0,0,2.41,3c3.71,2.65,7.82,3.48,12.1,1.56a56.58,56.58,0,0,0,6.17-3.78l3.24,1.46a10.36,10.36,0,0,0,7.62.87,78.89,78.89,0,0,1,8.66-1.86c2.91-.51,5.84-1,8.78-1.24,2.57-.24,4.33,1.23,5.63,3.3a2.66,2.66,0,0,1-1,3.43,14.77,14.77,0,0,1-3.67,1.21c-1.91.27-3.87.23-5.8.38-.21,0-.46.5-.52.8a.73.73,0,0,0,.4.6c1.91.33,3.83.66,5.76.87,1.62.18,3.27.09,4.88.3a2.12,2.12,0,0,1,1.48,1.13c1.46,6,3.58,11.95,2.93,18.31,0,.29-.22.76-.42.81a3.92,3.92,0,0,1-1.88.14,4.09,4.09,0,0,1-1.61-1.05c-1.43-1.35-2.78-2.8-4.23-4.14a49.28,49.28,0,0,0-18.66-10.71,15.91,15.91,0,0,0-9.65-.31c-9.79,2.78-19.62,5.45-29.43,8.16-7.59,2.1-15.16,4.26-22.78,6.3a50.79,50.79,0,0,1-5.82.95c-.81.12-1.78-1.23-1.51-2.05.21-.63.4-1.26.66-1.86a46.79,46.79,0,0,1,2.8-6.29c6.51-10.41,14.05-19.88,25.08-25.95a1.57,1.57,0,0,0,.64-2.36c-.84-.81-1.69-.56-2.66-.19-3.46,1.33-6.2,3.7-8.9,6.1-2.46,2.19-4.72,4.6-7.18,6.77-.64.56-1.72.62-2.77,1"/>
    <path class="cls-1" d="M421.5,633.3c-.52,1.14-.71,2.2-1.33,2.79-3.6,3.36-7.3,6.61-11,9.9-1,.87-2,1.72-2.93,2.62s-2.37,1.57-2,3c.38,1.72,2.07,1.23,3.22,1.21A43.93,43.93,0,0,1,422,655a23.35,23.35,0,0,1,5.24,2.62,6.12,6.12,0,0,1,1.61,2.4c.59,1.15-.61,3.8-1.83,4.12a17.45,17.45,0,0,1-2.86.57Q404.06,666.39,384,668c-2.62.22-5.25.3-7.87.49-4.9.37-9.8.84-14.71,1.16q-10.32.66-20.64,1.14a3.11,3.11,0,0,1-3.2-1.8,3.16,3.16,0,0,0-2.87-2.24,2.34,2.34,0,0,1-2.34-1.42c-.61-1.7-1.58-2.83-3.49-2.85a2.12,2.12,0,0,1-2.12-1.67c-.41-1.46-1.67-1.89-2.71-2.62a1.88,1.88,0,0,1-.37-2.64,16.79,16.79,0,0,1,2.87-3.95,27.46,27.46,0,0,1,13.91-6.82c8.6-1.76,17-.57,25.34,1.29a47,47,0,0,1,6.59,1.94c7.58,2.93,14.08,1.23,19.93-4.18,3.61-3.34,7.45-6.44,11.1-9.74a8.39,8.39,0,0,1,7.2-2.3c3.54.51,7.17.5,10.93,1.5"/>
    <path class="cls-1" d="M301.79,590.82a9.07,9.07,0,0,1-2.87.15,15,15,0,0,1-3.54-1.72c-19.27-11.66-36.74-25.45-50.83-43.21a107.64,107.64,0,0,1-13.44-21.77,68.14,68.14,0,0,1-6-24.78,35.32,35.32,0,0,1,.38-5.89c.34-3.3.9-6.48,3.32-9.08,3.2-3.44,6.86-6.23,11.43-7.37a32.26,32.26,0,0,1,7.81-.64c2.84,0,4.07,1.54,3.93,4.44-.1,2-.27,3.94-.42,5.91A99.54,99.54,0,0,0,258,530.42c9.18,24.19,23.71,44.57,44.05,60.7Z"/>
    <path class="cls-1" d="M358.43,467.35c-5.33-.15-10.3-.15-14.81-2.54a27.14,27.14,0,0,1-5.73-3.73c-4.49-4.15-5.88-9.29-4-15.21.79-2.53,2.19-3.69,5-3.92,2-.16,3.93-.32,5.9-.39A23.77,23.77,0,0,0,355,438.4c3-1.55,5.5-3.58,5.87-7.34a2.84,2.84,0,0,1,2.62-2.54c4.89-.45,9.79-.75,14.7-1a5.52,5.52,0,0,1,2.78.83c2.26,1.32,4.49,2.71,6.62,4.24a9.75,9.75,0,0,1,2.64,2.83c4.2,7.14,9.82,13.1,15.52,19a2,2,0,0,1,.39,1.74,2,2,0,0,1-1.45.89c-4.86.71-9.76,1.23-14.61,2a48.8,48.8,0,0,0-15.87,5A24.65,24.65,0,0,1,362,467.2c-1.32,0-2.63.11-3.53.15"/>
    <path class="cls-1" d="M337.55,437.69c-1.47-.09-2.77-.16-4.07-.25-2-.14-4-1.37-3.85-2.3.3-1.49,1.6-1.87,2.78-2.3,2.74-1,5.5-1.93,8.27-2.84,3.23-1.06,5.64.14,7.62,2.72,1,1.25.84,2.63-.46,3.16a11.75,11.75,0,0,1-2.7,1c-2.58.35-5.17.54-7.59.77"/>
    <path class="cls-1" d="M302.05,591.12l-.57.13c.48.41.57.26.3-.44l.27.31"/>
  </g>
</svg>
