<svg id="Livello_1" data-name="Livello 1" xmlns="http://www.w3.org/2000/svg" viewBox="0 0 841.89 841.89">
  <defs>
    <style>
      .cls-1 {
        fill: #231f20;
      }
    </style>
  </defs>
  <title>Glos</title>
  <g>
    <path class="cls-1" d="M458.08,479.38c-5.67,1-6.49.84-10.14-1.8s-4.17-2.45-6.86,1.27a48.85,48.85,0,0,1-5,6.44,22.6,22.6,0,0,1-30.19,0,48.85,48.85,0,0,1-5-6.44c-2.69-3.72-3.25-3.86-6.86-1.27s-4.47,2.77-10.14,1.8c-1.8-3.54-.48-6.89,1.05-10.12,3.38-7.15,8.06-13.54,14.45-18.11,9.16-6.55,18.48-14.31,21.65-25.51,3.14,11.2,12.46,19,21.62,25.51,6.39,4.57,11.07,11,14.45,18.11C458.56,472.49,459.88,475.84,458.08,479.38Z"/>
    <path class="cls-1" d="M463.23,529.92c-8.13,8.76-29.47,13.07-42.3,8.58-12.8,4.49-34.14.18-42.27-8.58,5.46-4.17,10.11-9.46,17.21-11.09,5.52-1.24,10.67-1.11,15.48,2.69,2.35,1.82,6,2.56,9.58,4.12,3.57-1.56,7.26-2.3,9.61-4.12,4.81-3.8,10-3.93,15.48-2.69C453.12,520.46,457.77,525.75,463.23,529.92Z"/>
    <g>
      <path class="cls-1" d="M409.81,194.23c7.66,2.78,8.5,9.32,9.07,15.23C421.06,232.1,418,254,408.75,275c-1.89,4.29-4.72,6.33-9.26,7.29a129.7,129.7,0,0,0-66.19,36.09c-3.3,3.31-6.7,4.78-11.21,4.43-8.84-.7-17.58-1.93-26-4.78-1.39-.46-2.8-1.23-4.2-1.22a3.7,3.7,0,0,0-2.89,1.74c-.3.79.43,2.41,1.2,3.08,1.08.91,2.64,1.25,4,1.88a46.79,46.79,0,0,1,20.55,19.08c-9.16,15.45-11.53,32.62-13.44,49.8a158.1,158.1,0,0,1-23.09,66.31c-5.63,9.13-11,18.6-19.17,25.82a102.79,102.79,0,0,1-12.08,9.12,8.87,8.87,0,0,1-5.93,1c-4.11-.78-5.34-3.21-3.28-6.88a84,84,0,0,1,7.59-10.83c6.65-8.41,6.45-13.51-.87-21.61-3.63-4-7.61-7.91-8.14-14.63,9.85-2.35,19.15-7.66,29.76-2.63a12.87,12.87,0,0,0,6.67,1.28c1.54-.18,3.7-1.81,4.08-3.2s-1-3.66-2.26-4.51c-8.21-5.39-17.34-6-26.76-4.33-3.65.66-7.26,1.57-11.69,2.54.94-8.43,5.29-13.35,11.71-16.73,2.23-1.17,4.75-1.76,7-2.86,3.69-1.81,4.67-3.59,3.84-7.64-1-4.72-2.29-9.36-3.46-14,2.73-2.81,6-3.46,9.42-3.43,7,.06,13.92.26,20.88.29,4.89,0,6.49-1.62,6.53-6.3a14.17,14.17,0,0,0-12.39-14.41,92.82,92.82,0,0,0-10.69-.2c-4.85,0-9.72.3-14.55-.05-5.8-.43-8.11-3.38-6.54-8.94a50.84,50.84,0,0,1,5.57-11.94c4.06-6.83,4.2-6.71-1-13.08-5.61-6.94-10.37-14.37-12.52-23.17a26.38,26.38,0,0,1-.79-5c-.19-4.18,1.31-7,5.57-8.78a56.78,56.78,0,0,1,34.67-3.06c8.6,1.92,12.44-.41,15.39-8.74q2.52-7.11,5-14.23a11.61,11.61,0,0,1,2.86-.23c14.19,2.92,28.66,4.89,41.68,12a96.5,96.5,0,0,0,10.84,5.11c5.05,2,7.82,1.13,10.81-3.44a35.88,35.88,0,0,0,5.3-27.81c-1.83-8.85-3.89-17.66-5.93-26.87,6.44-1.75,12.09-.44,17.7,1,2.44.64,4.78,1.64,7.19,2.39,4.35,1.35,6.91,0,7.73-4.53s1.15-9.21,2-13.76C401.22,204.66,404.11,198.69,409.81,194.23Z"/>
      <path class="cls-1" d="M432.08,194.23c-7.66,2.78-8.5,9.32-9.07,15.23-2.18,22.64.88,44.55,10.13,65.51,1.89,4.29,4.72,6.33,9.26,7.29a129.7,129.7,0,0,1,66.19,36.09c3.3,3.31,6.7,4.78,11.21,4.43,8.84-.7,17.58-1.93,26-4.78,1.39-.46,2.8-1.23,4.2-1.22a3.7,3.7,0,0,1,2.89,1.74c.3.79-.43,2.41-1.2,3.08-1.08.91-2.64,1.25-4,1.88a46.79,46.79,0,0,0-20.55,19.08c9.16,15.45,11.53,32.62,13.44,49.8a158.1,158.1,0,0,0,23.09,66.31c5.63,9.13,11,18.6,19.17,25.82A102.79,102.79,0,0,0,595,493.61a8.87,8.87,0,0,0,5.93,1c4.11-.78,5.34-3.21,3.28-6.88a84,84,0,0,0-7.59-10.83c-6.65-8.41-6.45-13.51.87-21.61,3.63-4,7.61-7.91,8.14-14.63-9.85-2.35-19.15-7.66-29.76-2.63a12.87,12.87,0,0,1-6.67,1.28c-1.54-.18-3.7-1.81-4.08-3.2s1-3.66,2.25-4.51c8.22-5.39,17.35-6,26.77-4.33,3.65.66,7.26,1.57,11.69,2.54-.94-8.43-5.29-13.35-11.71-16.73-2.23-1.17-4.75-1.76-7-2.86-3.69-1.81-4.67-3.59-3.84-7.64,1-4.72,2.29-9.36,3.46-14-2.73-2.81-6-3.46-9.42-3.43-7,.06-13.92.26-20.88.29-4.89,0-6.49-1.62-6.54-6.3a14.19,14.19,0,0,1,12.4-14.41,92.82,92.82,0,0,1,10.69-.2c4.85,0,9.72.3,14.55-.05,5.8-.43,8.11-3.38,6.54-8.94a50.84,50.84,0,0,0-5.57-11.94c-4.06-6.83-4.2-6.71,1-13.08C595,323.6,599.8,316.17,602,307.37a26.38,26.38,0,0,0,.79-5c.19-4.18-1.31-7-5.57-8.78a56.78,56.78,0,0,0-34.67-3.06c-8.6,1.92-12.44-.41-15.39-8.74q-2.52-7.11-5-14.23a11.61,11.61,0,0,0-2.86-.23c-14.19,2.92-28.66,4.89-41.68,12a96.5,96.5,0,0,1-10.84,5.11c-5.05,2-7.82,1.13-10.81-3.44a35.93,35.93,0,0,1-5.31-27.81c1.84-8.85,3.9-17.66,5.94-26.87-6.45-1.75-12.09-.44-17.7,1-2.44.64-4.78,1.64-7.19,2.39-4.35,1.35-6.91,0-7.73-4.53s-1.15-9.21-2-13.76C440.67,204.66,437.78,198.69,432.08,194.23Z"/>
    </g>
    <g>
      <path class="cls-1" d="M710.39,527.09c-2.8,13.5-8.14,25.75-18.3,35.39-8.16,7.71-17.77,12-29.21,11.35-3.56-.21-7.1-.92-10.66-1.24-5.84-.56-7.4.84-6.58,6.73.82,5.73,2.3,11.38,3.57,17.48a25.39,25.39,0,0,1-4.33,1.69c-7.4,1.61-14.69.48-21.87-1.37a112.2,112.2,0,0,1-40.08-19.54c-3.86-2.91-5.63-3-8.58-1s-3.83,4.86-2.7,9c1,3.43,2.27,6.79,3.12,10.27s2.46,6.79.61,10.59a19,19,0,0,1-2.38.37c-13,.56-25.06-2.59-36.54-8.42-5.52-2.8-6.42-2.38-8.72,3.54-1.5,3.88-3.09,7.71-4.8,12-2.62-1.09-4.65-1.64-6.37-2.72-14.36-9.06-26.19-20.52-34-35.84-.95-1.87-1.63-4.11-3.11-5.41a6.28,6.28,0,0,0-5.1-.92c-1.21.37-2.32,2.29-2.69,3.75-.34,1.29.4,2.85.69,4.3,1.08,5.36,2.48,10.67,3.19,16.11a69.63,69.63,0,0,1-1.69,25.61c-5.89,1-11.22,1.24-16.16,2.83-19.43,6.28-29.89,24.61-31.18,26.06-2.86-11-.85-61.29,1.77-68.6,2.13-6,4.85-12.31,12.85-13.23.85-.11,2.14-2.22,2-3.3a4.14,4.14,0,0,0-2.77-2.67,9.55,9.55,0,0,0-9.25,2.93c-2.56,2.75-9.53,10.75-10.24,11.78-.74-1-7.71-9-10.27-11.78a9.55,9.55,0,0,0-9.25-2.93,4.14,4.14,0,0,0-2.77,2.67c-.1,1.08,1.19,3.19,2,3.3,8,.92,10.72,7.18,12.85,13.23,2.62,7.31,4.63,57.61,1.77,68.6-1.29-1.45-11.75-19.78-31.18-26.06-4.94-1.59-10.27-1.83-16.16-2.83a69.42,69.42,0,0,1-1.69-25.61c.71-5.44,2.11-10.75,3.19-16.11.29-1.45,1-3,.69-4.3-.37-1.46-1.48-3.38-2.69-3.75a6.28,6.28,0,0,0-5.1.92c-1.48,1.3-2.16,3.54-3.12,5.41-7.76,15.32-19.59,26.78-33.95,35.84-1.72,1.08-3.75,1.63-6.37,2.72-1.71-4.33-3.3-8.16-4.8-12-2.3-5.92-3.2-6.34-8.72-3.54-11.48,5.83-23.58,9-36.54,8.42a19,19,0,0,1-2.38-.37c-1.85-3.8-.23-7.21.61-10.59s2.14-6.84,3.12-10.27c1.13-4.09.18-7-2.7-9s-4.72-1.88-8.58,1a112.2,112.2,0,0,1-40.08,19.54c-7.18,1.85-14.47,3-21.87,1.37a25.39,25.39,0,0,1-4.33-1.69c1.27-6.1,2.75-11.75,3.57-17.48.82-5.89-.74-7.29-6.58-6.73-3.56.32-7.1,1-10.66,1.24-11.44.69-21-3.64-29.21-11.35-10.17-9.64-15.5-21.89-18.3-35.39a10.4,10.4,0,0,1,.21-2.69c6.37,2.45,12.36,5,18.51,7.13,16.24,5.6,32.9,9.35,50.2,8a75.7,75.7,0,0,0,20.33-4.15c15-5.6,23.74-16.32,23.77-32.82,28.78-17.22,44.07-44.23,55.18-74.23,5.26-14.07,7.74-28.81,9.25-43.78,2.87-28.83,16.5-51.94,39.31-69.55a131.77,131.77,0,0,1,64.62-26.83c2.24-.26,1.93,0,5.15,0,.05,20.38,0,40.5,0,61.49-7,0-10.88,0-17.38,0-2.32,0-4.65,0-7,.08s-4.38.87-4.46,3.44c-.08,2.87,2.24,3.16,4.49,3.16,5.7-.05,11.4-.13,17.11-.15.76,0,1.56.18,3,.34a28.23,28.23,0,0,1-2.3,4.67c-5.28,6.84-10.67,13.6-16,20.36A22.84,22.84,0,0,1,381,390a166.21,166.21,0,0,1-21.29,2.35c-9,.32-17.74,1.56-25.29,6.65-3.41,2.3-6.23,5.6-8.82,8.82-1.37,1.74-2.06,4.68.82,6,2.48,1.14,4.35-.21,5.49-2.72,3.27-7.18,10-8.87,17.14-11.06,0,2.66,0,4.54,0,6.41a23.25,23.25,0,0,0,25.35,23.08c13-1,22.33-13.73,20-27.22-.45-2.46-1.24-4.86-1.69-6.53,8.76-10,14.57-19.59,23.58-29.89a20.36,20.36,0,0,1,1.77,6.84c1.34,19.94.58,39.11-7.87,57.3a33.66,33.66,0,0,1-12.54,14.6,52.17,52.17,0,0,0-20.89,27.07,20.57,20.57,0,0,0-1.11,4.91c-.58,6.1,1.72,9.09,7.87,9.9a27.34,27.34,0,0,0,6.94-.08,49.34,49.34,0,0,0,6.21-1.5c5.52,6.79,11.83,12.23,20.57,13.92a30,30,0,0,1-2.62,15.68c-3.72-1-7.1-2.24-10.58-2.72a29.79,29.79,0,0,0-18.86,4.07,101.58,101.58,0,0,0-13.91,9.79c-3.36,2.75-3.17,3.88-.69,7.53,3,4.36,7.26,7,11.94,9.06a63.12,63.12,0,0,0,27.67,5.38c3.17-.08,7.29-.76,10.8-.92,3.48.16,7.6.84,10.77.92a63.12,63.12,0,0,0,27.67-5.38c4.68-2.06,9-4.7,11.94-9.06,2.48-3.65,2.67-4.78-.69-7.53a101.58,101.58,0,0,0-13.91-9.79,29.79,29.79,0,0,0-18.86-4.07c-3.48.48-6.86,1.74-10.58,2.72a30,30,0,0,1-2.62-15.68c8.74-1.69,15.05-7.13,20.57-13.92a49.34,49.34,0,0,0,6.21,1.5,27.34,27.34,0,0,0,6.94.08c6.15-.81,8.45-3.8,7.87-9.9a20.57,20.57,0,0,0-1.11-4.91,52.17,52.17,0,0,0-20.89-27.07A33.66,33.66,0,0,1,431.73,430c-8.45-18.19-9.21-37.36-7.87-57.3a20.36,20.36,0,0,1,1.77-6.84c9,10.3,14.82,19.89,23.58,29.89-.45,1.67-1.24,4.07-1.69,6.53-2.37,13.49,7,26.19,20,27.22a23.25,23.25,0,0,0,25.35-23.08c0-1.87,0-3.75,0-6.41C500,402.17,506.7,403.86,510,411c1.14,2.51,3,3.86,5.49,2.72,2.88-1.29,2.19-4.23.82-6-2.59-3.22-5.41-6.52-8.82-8.82-7.55-5.09-16.26-6.33-25.29-6.65A166.21,166.21,0,0,1,460.88,390a22.84,22.84,0,0,1-14.44-8.4c-5.36-6.76-10.75-13.52-16-20.36a28.23,28.23,0,0,1-2.3-4.67c1.4-.16,2.2-.34,3-.34,5.7,0,11.41.1,17.11.15,2.25,0,4.57-.29,4.49-3.16-.08-2.57-2.11-3.41-4.46-3.44s-4.65-.08-7-.08c-6.5,0-10.33,0-17.38,0,0-21-.05-41.11,0-61.49,3.22,0,2.91-.24,5.15,0A131.77,131.77,0,0,1,493.63,315c22.81,17.61,36.44,40.72,39.31,69.55,1.51,15,4,29.71,9.25,43.78,11.11,30,26.4,57,55.18,74.23,0,16.5,8.77,27.22,23.77,32.82a75.7,75.7,0,0,0,20.33,4.15c17.3,1.32,34-2.43,50.2-8,6.15-2.14,12.14-4.68,18.51-7.13A10.4,10.4,0,0,1,710.39,527.09Z"/>
      <path class="cls-1" d="M357.33,399.3c1.13-.07,2-.2,2.78-.16a26.69,26.69,0,0,1,2.69.46,38.49,38.49,0,0,0-.51,4.39c-.06,7.14,6.44,10.9,12.64,7.33a12.13,12.13,0,0,0,5.76-7.93c.25-1,0-2.17.38-3.09s1.39-2.15,1.9-2.06a4.13,4.13,0,0,1,2.7,1.91c4.44,9.91-4.19,21.63-15.33,20.93C359.53,420.39,353.32,410.38,357.33,399.3Z"/>
      <path class="cls-1" d="M484.62,399.3c-1.13-.07-2-.2-2.78-.16a26.22,26.22,0,0,0-2.69.46,40.89,40.89,0,0,1,.51,4.39c.06,7.14-6.44,10.9-12.64,7.33a12.1,12.1,0,0,1-5.76-7.93c-.25-1,0-2.17-.39-3.09s-1.38-2.15-1.89-2.06a4.11,4.11,0,0,0-2.7,1.91c-4.45,9.91,4.19,21.63,15.33,20.93C482.41,420.39,488.63,410.38,484.62,399.3Z"/>
    </g>
  </g>
</svg>
