<svg id="Livello_1" data-name="Livello 1" xmlns="http://www.w3.org/2000/svg" viewBox="0 0 841.89 841.89">
  <defs>
    <style>
      .cls-1 {
        fill: #231f20;
      }
    </style>
  </defs>
  <title>Glos</title>
  <g>
    <path class="cls-1" d="M370.45,809.56a1.09,1.09,0,0,0,1-.76,1,1,0,0,0,.1-.55c-.08-2-10.61-11.15-12.27-13.08-19.07-22.2-25.3-43.51-33.58-71.19-5.07-16.94-17.21-30.23-18.47-48.26a.54.54,0,0,0-.58-.52c-2.36.21-8,.53-10.2-.62a1.44,1.44,0,0,1-.74-1.42l0-.28a1,1,0,0,1,1-.89c2.41.23,4.81.93,7.24.9,10-.1,14.52-5.5,23-9.17,9.49-4.14,20.35-5.76,30.59-6.41a.46.46,0,0,0,.41-.55c-.53-3-7.52-10.14-6.76-11.39.93-1.53,2.81.5,3.54,1.29,6.86,7.48,11.69,21.86,12.68,32.24a.91.91,0,0,0,.54.76,1.25,1.25,0,0,0,.91.05c3.59-1.13,14.29.59,15.4,4,1.37,4.21-9.16,3.78-10.9,2.16a2.48,2.48,0,0,1-.61-2,1.52,1.52,0,0,0-1.48-1.67c-1.57,0-3.45.06-4.15.87a25.36,25.36,0,0,0-2.89,6.35,14.9,14.9,0,0,0,15.65,18c13.49-1.05,25.72-18.69,28.64-31.58.44-1.94.57-7.61,2.64-7.32,2.51.34-.39,8.67-1,12.1a2.9,2.9,0,0,0,.42,2.07c3,4.68,7.68,9,10.26,13.84,2.32,4.31,4.48,16.19,8.61,18.19,5.41,2.62,7.15-6.79,7.43-10.56,1.11-15.25-3.33-32.84-15.81-42.17-2.93-2.19-2.23-1.4-5.22-2.84a.56.56,0,0,1-.23-.77l.29-.49a.74.74,0,0,1,.84-.36l3.56,1a1.66,1.66,0,0,0,2-1.58,34.45,34.45,0,0,0-.19-4.65c-.11-1.48-.87-3.07-.76-4.34s1.52-2.06,2.08-3.2c4.47-9.1-2.21-16.27-7.76-22.72a1.24,1.24,0,0,0-2.1.34c-1.23,2.84-3.78,7.34-5,4.35-.39-1,2.93-3.46,3.79-9,.89-5.74-1.08-12.89-3.23-15.88-4.11-5.69-14.11-3.46-20.57-1.34a4.87,4.87,0,0,1-4.5-.77c-5.51-4.2-11.38-7.79-18.21-8.72a.69.69,0,0,0-.62,1.08c1.17,1.78,3.66,4.88,4.09,5.57,2.91,4.64,4.46,12,6.62,15,.48.67,3.39,3,4.24,3.71a62.3,62.3,0,0,1,14.12,18.47c.84,1.77,3.41,6.73,1.95,8.19-2.86,2.85-14.39,2.8-18.21,1.72-6.82-1.93-2.5-10.43.08-10.17,3.35.32,8,7.1,12.39,6.59a2.63,2.63,0,0,0,2-3.66c-3-7.18-8.57-14.83-14.28-19.3-3.91-3.07-6.22-4.21-11.1-2-1.46.66-2.5,2.45-4.11,1.74-3.22-1.43-5.36-18.48-4.66-24.68a1.31,1.31,0,0,0-1.25-1.48l-55.21-.07c-41.34-1.34-79,20.06-119.07,24.49-28.68,3.17-55.65-4.88-84.13-.38-7.52,1.19-16,5.15-23,5.32-4.89.12-12-.5-16.58-2.36-4.78-2-8.51-7.09-13.93-3.47-6.35,4.24-1,14,3,18.12,7.49,7.94,18.25,10.6,29.08,8.76,1.34-.23,3-2,4.09-.9a1.57,1.57,0,0,1,0,2.15,10.55,10.55,0,0,1-4.65,2.33c-4.91.89-10.35.25-15.3-.71A1.4,1.4,0,0,0,59.76,646a101.3,101.3,0,0,0-2.12,20.71c.08,10.42,2.59,21.5,1.32,31.87C57.55,710.08,47.27,712.93,47.34,729c.08,17.91,6.06,23.52,13,37.82,3.75,7.75,1,7.48,1.32,13.67s8.78,13.1,13.86,15.14c1.91.77,6.82,1.07,5.73,3.06a1.54,1.54,0,0,1-1.72.76l-3.41-.82a1.25,1.25,0,0,0-1.48,1.4l.68,6.17a1.86,1.86,0,0,0,1.93,1.7l46.68-3.26a.87.87,0,0,0,.77-1.07c-.51-2.31-2.59-4.23-4.27-5.62-10.61-8.81-24.57-10.74-32.57-23.89-9.35-15.36-3.72-42.72,3.51-58.13.94-2,4-8.81,5.86-8.42h0c.85.57.86,1,.62,2-.34,1.4-3.72,6.54-4.67,8.64-6.69,15-11.78,41.6-1.64,55.76,9,12.56,22.46,14,32.35,23.1,2,1.88,2.94,4.16,4.14,6.39a2.43,2.43,0,0,0,2.29,1.3l34-2.43a.92.92,0,0,0,.42-1.66c-19-13.74-44.75-22.36-59.37-41.56-13.6-17.86-8.38-39.52,3.77-56.17,3.84-5.26,8.66-11,13.84-14.86a.94.94,0,0,0,.43-1c-.13-.32-.77-.38-1.27-.51-6.17-1.51-12-2-18.21-3.6a1.65,1.65,0,0,1-1.21-1.48,1.08,1.08,0,0,1,.69-1.13,1.56,1.56,0,0,1,1,0c32.38,9.18,66,7.39,99.09,7.12l49.27-2.07a4.31,4.31,0,0,1,4.1,2.62c8.67,19.37,16.21,39.92,16.49,61.61.1,7.77-1.56,16-.45,23.75,1.21,8.38,6,8.79,1.23,18.75-1.12,2.33-6.28,8-3.9,10.25,2.21,2.08,18.12.23,22,.18,8.65-.1,19.87,2.58,28.05.75,3.52-.8,1.81-3.59.31-5.58-4.21-5.63-9.75-10-13.71-16.33-7.72-12.33-8.57-30.1-10.51-45.08a39,39,0,0,0-2.73-10.13c-3.07-7.27-6.51-14.47-8.72-22a1,1,0,0,1,1.31-1.31,1.27,1.27,0,0,1,.85.82,1.08,1.08,0,0,0,.1.27c5.48,12.67,10.27,25.7,15.8,38.34,2.43,5.57,5.76,10.68,7.89,16.42,3.8,10.22,4.12,17.74,11,26.9,2.93,3.89,12,12.25,12.62,16.61a6.77,6.77,0,0,1,.06,2.32c-.07,1.26-.3,1.75.9,2.29,3.58,1.62,7.94,1.25,11.83,1.57,4.91.42,13.38,1.87,17.32,1.64Z"/>
    <path class="cls-1" d="M471.44,250.65a1.1,1.1,0,0,1-1-.76,1,1,0,0,1-.1-.55c.08-2,10.61-11.16,12.27-13.09,19.07-22.2,25.3-43.5,33.58-71.18,5.07-16.95,17.21-30.23,18.47-48.26a.54.54,0,0,1,.58-.52c2.36.2,8,.52,10.2-.62a1.44,1.44,0,0,0,.74-1.42l0-.29a1,1,0,0,0-1-.89c-2.41.23-4.81.93-7.24.91-10-.1-14.52-5.5-22.95-9.17-9.49-4.14-20.35-5.76-30.59-6.41a.46.46,0,0,1-.41-.55c.53-3,7.52-10.14,6.76-11.4-.93-1.53-2.81.51-3.54,1.3-6.86,7.48-11.69,21.85-12.68,32.23a.91.91,0,0,1-.54.77,1.36,1.36,0,0,1-.91,0c-3.59-1.13-14.29.58-15.4,4-1.37,4.21,9.16,3.78,10.9,2.16a2.5,2.5,0,0,0,.61-2,1.51,1.51,0,0,1,1.48-1.66c1.57,0,3.45.06,4.15.87a25.18,25.18,0,0,1,2.89,6.35,14.91,14.91,0,0,1-15.65,17.95c-13.49-1-25.72-18.69-28.64-31.58-.44-2-.57-7.61-2.65-7.32-2.5.34.4,8.66,1,12.1a2.86,2.86,0,0,1-.42,2.06c-3,4.69-7.68,9-10.26,13.84-2.32,4.32-4.48,16.19-8.61,18.2-5.41,2.62-7.15-6.79-7.43-10.56-1.11-15.26,3.33-32.84,15.81-42.17,2.93-2.19,2.23-1.41,5.22-2.84a.56.56,0,0,0,.23-.77l-.29-.5a.76.76,0,0,0-.84-.36l-3.56,1a1.64,1.64,0,0,1-2-1.57,34.45,34.45,0,0,1,.19-4.65c.11-1.48.87-3.08.76-4.35s-1.52-2.05-2.08-3.19C414,76.6,420.66,69.44,426.21,63a1.24,1.24,0,0,1,2.1.33c1.23,2.85,3.78,7.35,5,4.36.39-1-2.93-3.46-3.79-9-.89-5.74,1.08-12.89,3.23-15.88,4.11-5.7,14.11-3.47,20.56-1.34a4.92,4.92,0,0,0,4.51-.78c5.51-4.19,11.38-7.78,18.21-8.72a.69.69,0,0,1,.62,1.09c-1.17,1.78-3.66,4.87-4.09,5.57-2.91,4.64-4.46,12-6.62,15-.48.67-3.39,2.94-4.24,3.7a62.34,62.34,0,0,0-14.12,18.48c-.84,1.76-3.41,6.73-2,8.19,2.86,2.85,14.39,2.79,18.21,1.72,6.82-1.93,2.5-10.43-.08-10.18-3.35.33-8,7.11-12.39,6.59a2.62,2.62,0,0,1-2-3.65,51.08,51.08,0,0,1,14.28-19.31c3.91-3.06,6.22-4.2,11.1-2,1.46.66,2.5,2.45,4.11,1.73,3.22-1.43,5.36-18.47,4.66-24.68a1.31,1.31,0,0,1,1.25-1.48L540,32.61c41.34-1.35,79,20.06,119.07,24.49,28.68,3.17,55.65-4.89,84.13-.39,7.52,1.19,16,5.16,23,5.33,4.89.12,12-.51,16.58-2.36,4.78-2,8.51-7.1,13.93-3.47,6.35,4.24,1,13.95-3,18.12-7.49,7.94-18.25,10.6-29.08,8.75-1.34-.22-3-2-4.09-.89a1.57,1.57,0,0,0,0,2.15,10.66,10.66,0,0,0,4.65,2.33c4.91.89,10.35.25,15.3-.71a1.4,1.4,0,0,1,1.62,1.15,101.2,101.2,0,0,1,2.12,20.7c-.08,10.43-2.59,21.51-1.32,31.88,1.41,11.48,11.69,14.32,11.62,30.42-.08,17.91-6.06,23.52-13,37.82-3.75,7.75-1,7.48-1.32,13.67s-8.78,13.1-13.86,15.14c-1.91.76-6.82,1.07-5.73,3.06a1.55,1.55,0,0,0,1.72.76l3.41-.82a1.25,1.25,0,0,1,1.48,1.4l-.68,6.17a1.86,1.86,0,0,1-1.93,1.69L718,245.75a.87.87,0,0,1-.77-1.07c.5-2.31,2.59-4.23,4.27-5.62,10.61-8.81,24.57-10.74,32.57-23.89,9.34-15.37,3.72-42.73-3.51-58.14-.94-2-3.95-8.81-5.86-8.41h0c-.85.57-.86,1-.62,2,.34,1.4,3.72,6.53,4.67,8.64,6.69,14.95,11.78,41.6,1.64,55.76-9,12.56-22.46,14-32.35,23.09-2,1.89-3,4.17-4.14,6.39a2.42,2.42,0,0,1-2.29,1.31l-34-2.43a.93.93,0,0,1-.42-1.67c19-13.73,44.74-22.36,59.37-41.55,13.6-17.86,8.38-39.52-3.77-56.17-3.84-5.27-8.66-11-13.84-14.86a1,1,0,0,1-.43-1c.13-.32.77-.38,1.27-.5,6.17-1.51,12-2,18.21-3.6a1.66,1.66,0,0,0,1.21-1.48,1.1,1.1,0,0,0-.69-1.14,1.7,1.7,0,0,0-1,0c-32.38,9.19-66,7.4-99.09,7.12l-49.27-2.07a4.32,4.32,0,0,0-4.1,2.63c-8.67,19.36-16.21,39.91-16.49,61.61-.1,7.77,1.56,16,.45,23.74-1.21,8.39-6,8.8-1.23,18.75,1.12,2.34,6.28,8,3.9,10.26-2.21,2.08-18.12.23-22,.18-8.65-.1-19.87,2.58-28,.74-3.52-.79-1.81-3.59-.31-5.58,4.21-5.62,9.75-10,13.71-16.33,7.72-12.32,8.57-30.09,10.51-45.08a38.77,38.77,0,0,1,2.73-10.12c3.07-7.28,6.51-14.47,8.72-22a1,1,0,0,0-1.31-1.3,1.25,1.25,0,0,0-.85.82,1.48,1.48,0,0,1-.1.27c-5.48,12.67-10.27,25.7-15.8,38.34-2.43,5.56-5.76,10.68-7.89,16.41-3.8,10.22-4.12,17.75-11,26.91-2.93,3.89-12,12.24-12.62,16.61a6.71,6.71,0,0,0-.06,2.31c.07,1.27.3,1.76-.9,2.3-3.58,1.62-7.94,1.25-11.83,1.57-4.91.41-13.38,1.87-17.32,1.63Z"/>
  </g>
</svg>
