<svg id="Livello_1" data-name="Livello 1" xmlns="http://www.w3.org/2000/svg" viewBox="0 0 841.89 841.89">
  <defs>
    <style>
      .cls-1 {
        fill: #231f20;
      }
    </style>
  </defs>
  <title>Glos</title>
  <g>
    <path class="cls-1" d="M302.91,274.4c0,10.26-.38,20.31.08,30.32.92,20,4.38,39.5,14,57.53a69.17,69.17,0,0,0,21.07,23.56c8.94,6.49,19,8.58,29.71,5.78,3.45-.91,6.48-3.39,10.23-5.42,9.08,10.75,19.32,21.22,27.38,33.16,3.61,5.34,7.49,44.2,8.91,56a24.3,24.3,0,0,1-.75,9.72c-4.16,13.5-3.28,26.57,3.2,39,5.09,9.79,14.2,11.69,21.81,8,4.24,3.36,13.82,16.68,23.73,11.67a12.41,12.41,0,0,0,6.12-13.91,141,141,0,0,0-6.32-20.75c-3.69-9.62-7.48-19.11-5-30.58,13.26,8.82,33.45,51.78,30.56,78.45-2,14.23-7,18.57-20.2,19.82-36.65,3.49-69.3,43.18-84.12,72.59-38.85,77.08-163.5,90.54-167.58,90.67-8.77.28-14.95-5.72-14.72-14.62.74-29.5-3.52-482.12-3-516.29.16-10.94,8.44-19.31,21.71-16.49,16.87,3.59,49.21,20.1,61,32.77,5.69,6.13,6.87,13,4.24,20.68-2.19,6.41-7.26,8.57-13.27,5.37a27.82,27.82,0,0,1-7.45-5.79c-5.38-6-12.8-6.07-17.38.53-6.13,8.85-6.6,18.68-2.18,28.14,3.69,7.9,38.58,17.26,58.28.06"/>
    <path class="cls-1" d="M588.05,419.26c9.28-3.15,13-10.47,8-18.78-3.43-5.66-8.94-10.24-14.1-14.63-5.79-4.91-12.73-8.53-18.29-13.65-7.52-6.91-9.69-16-5.82-25.57,12.64-31.12-4.83-66.05-32.56-80-48.72-24.47-88.74-113.86-91.85-122.46-23.61-65.49-110.09-72.65-132.63-23-13.16,29-11.33,61-9.54,92.28.51,8.9,2.51,17.76,2.58,26.65.06,8.27-2.63,16.2-11.38,19.48s-16.09.6-22-6.39c-1.06-1.25-2.06-2.55-3.17-3.92-5.52,3.94-6.78,9-7.1,14.55-.24,4.59,1.07,7.53,5.81,9.36,10.49,4.05,20.73,3,30.39-1.61,16.92-8.11,29.27-19.38,30.39-40.36.18-3.44,9-1.07,7.76,4.68-1.41,6.45-9.94,25.21-10.31,28.52-1.42,12.95-3.36,26-3,38.94.62,21.62,5.34,42.49,17.36,61.06,5.39,8.31,12.06,15.08,21.54,18.73,6.68,2.57,16.79,1.65,17.08.94-3.21-4.49-21-24.16-25.23-29.36-1-1.23-1.75-4.43-.35-5.82s4.18-.75,5.54.33c.76.6,18.32,21.18,26.28,30.66,4.63-3.81,5.43-8.33,1.34-14.53-7.4-11.25-17.25-20-28.59-27.18-2-1.24-3.94-4.15-4-6.38-.6-12.61.81-25.08,7.74-36,7.42-11.62,15.79-22.62,23.36-34.15,5.76-8.81,9.61-18.5,10.44-29.13.24-3-.2-6.8,4-6.45s4.46,3.75,4.11,7.63c-1.2,13.46-16.45,43-27.94,59.74a8.23,8.23,0,0,0,.83,10.33c16.37,17.11,33.36,30.45,51.37,43.11,2.52,1.76,4.91,1.93,7.56-.07,5.07-3.78,10.76-6.92,13.08-13.38,1.16-3.22,4.16-3.46,5.56-2.67a5.85,5.85,0,0,1,3.09,6,13.79,13.79,0,0,1-4.56,8.65A139.24,139.24,0,0,1,422,359.38c-7.66,4.62-8.46,5.53-7.78,14.45,1.54,19.9,2.69,39.85,4.3,59.76,1.2,14.85,3,29.66,4.28,44.51a21.78,21.78,0,0,1-.89,8.27c-3.73,11.66-4,23.11,2,34,1.18,2.14,4.25,4.71,6.21,4.53,1.8-.17,4.21-3.59,4.7-5.92,1.07-5.06.9-10.36,1.61-15.5.21-1.53.95-4.59,3-4.54a3.57,3.57,0,0,1,3.59,3.59,135.16,135.16,0,0,0,1.85,17.11c.55,3.89,1.1,8,2.86,11.44s4.84,7.73,9.58,5.54c4.5-2.07,3-7,1.95-10.54-2-6.37-5.05-12.41-7-18.79-2.18-7.05-5.65-14.51-5-21.44,1.75-17.9,5-35.72,8.61-53.37,2.34-11.44,7.15-21.89,18.38-28.08,7.17-3.95,13.75-9,20.88-13,9.72-5.49,16.46-13.06,19.8-23.85,2.61-8.4,7.95-14.76,15-20.3A24.71,24.71,0,0,0,538.16,334c3.69-17.09-6.4-35.46-22.59-43.37a14.4,14.4,0,0,1-5-3.94c-.52-.67.28-3.54,1-3.78a8.87,8.87,0,0,1,5.69,0c14,5.77,22.31,16.94,27.8,30.53,5.73,14.2,2.76,26.72-6.71,38.55a277.62,277.62,0,0,0-19.5,27.83C514,387.66,508.07,394,500,398.39c-6,3.31-11.83,7-18,10.63.83,1.33,1.35,2.3,2,3.18,19.38,26.12,35,54.51,50.33,83.09,4.28,8,10.07,15.17,15.41,23.07,10.27-10.7,22.43-13.68,35.52-11.71.58-7.17-.29-14.47,2-20.62a61.44,61.44,0,0,0,2.06-6.66c-2.17-.55-6-3.85-7.06-7.39-1.28-4.28-2.21-8.86-6.56-11.12-.82-.42-.58-1.84-.22-2.39a2.09,2.09,0,0,1,2.29-.86,13.34,13.34,0,0,1,6.53,5.23c1.21,1.94,1.56,4.43,2,7.21.55,3.22,2.12,5.17,3.89,5.43,3.08-15.33,1.51-30.93,2.1-46.67-2,.41-9.64,2.21-9.88-3.11-.22-4.95,4.77-6.15,5.65-6.44"/>
    <path class="cls-1" d="M514.07,680.68c-.52,10.13-.66,20.54-1.65,30.86-1.34,14.12,6.1,25.93,15.38,32.7,5.55,4-12.63,19.56-25.27-3.35-3-5.5-2.63-12.35-3.89-18.54-2.1-10.38-7.48-45.52-13.35-47-7.25-1.85-15.81,12.79-19.69,21.82-4.3,10-5.78,20.35-2.52,31.07,1.75,5.76,4.59,10.35,10.18,13.34,2,1.08,5.06,3.69,4.44,6.17s-4.87,3.62-7.21,3.51a49,49,0,0,1-13.42-3,8.34,8.34,0,0,1-4.44-4.49c-7.91-21.14-6.51-41.57,5.46-61,4.62-7.46,9.56-14.73,9.75-24,.07-3.24-.43-6.45-4.4-6.41-3.66,0-3.6,3-3.95,6.06-1.16,10.45-6.6,19.09-14.16,25.88-2.36,2.13-7.7,1.75-11.51,1.27s-2.94-3.87-1.3-6c8.61-11.31,13.72-33.34,16.24-48.56,2.55-15.39,18.37-26,33.85-26.25,30.1-.52,99.36-4,109.34,13.49,2.76,4.85,12.12,7.22,14.67,2.15,1.33-2.63-1-4.49-2.2-4.78-11.88-2.92-14.21-12.88-15.22-22.34-1.47-13.63-1.31-27.45-1.32-41.18,0-3.35-.36-9.64,3.13-10,2.07-.25,3,2.26,2.94,3.27-.11,4.44.79,17.95,1.8,19.89,1.32,2.53,4.09,3.76,6,2.68s1.61-4.58.93-6.29c-2.44-6.15-2.5-12,.68-17.76,2.17-4,8-3.24,8.5,2.84.82,9.92,7,16.9,13.82,23.57,7,6.85,8.92,15.77,6.39,24.85C624.65,622,617,648.77,608.56,675.32c-3.45,10.87-4.49,20.35,3.34,29.77,3,3.61,4.92,8.37,6.41,12.9,2.79,8.51,7.56,14.33,16.88,15.68,9.47-1.35,13.71,13.67-.11,14.34-9.17.44-16-3.88-20.78-11.61-8.12-13.15-16.16-26.34-24.39-39.41-1-1.54-1.78-3.69-4.38-3.35-3.14.41-3.5,2.82-4,4.7-2.6,9.11-5.15,18.27-7,27.55-.71,3.64-.38,8.86,2,11.87,3.21,4-.81,6.51-1.78,6.87a12.92,12.92,0,0,1-8.84,0c-5.06-2.17-5.74-7.2-4.86-12,2-11,4.2-21.92,6.89-32.73,3.8-19.34-43.47-17.91-53.93-19.29"/>
    <path class="cls-1" d="M577.59,516.18a49.32,49.32,0,0,1,7.84,1.62c-.77,3.35-1.64,18.82-12,19.49-10.21,1.27-17.37-11.8-17.37-11.8s2.77-2.35,6.19-4.73c.9,5.78,5.26,6.56,9.66,5.37,4.57-1.24,7.51-4.12,5.66-10"/>
    <path class="cls-1" d="M608.15,415.23c-1.34-8.44-2.42-15.24-3.49-22,5.47-.35,15.54,6,17.43,11.78,1.18,3.63.37,7-3.43,8.24-3.51,1.17-7.34,1.38-10.51,1.93"/>
    <path class="cls-1" d="M479.49,427.08l-17.86,16c1.27-10,4.75-17.95,11.57-25.31l6.29,9.32"/>
  </g>
</svg>
