<svg id="Livello_1" data-name="Livello 1" xmlns="http://www.w3.org/2000/svg" viewBox="0 0 841.89 841.89">
  <defs>
    <style>
      .cls-1 {
        fill: #231f20;
      }
    </style>
  </defs>
  <title>Glos</title>
  <g>
    <path class="cls-1" d="M397.15,538.1c1.6-.12,3.16-.24,4.72-.34.12,0,.26.11.55.25-.36.55-.67,1.11-1.07,1.61-17.28,21.09-38.48,36.67-64.3,45.72a78.75,78.75,0,0,1-29,4.82c-1.86-.07-3.71-.27-5.53-.41a3.32,3.32,0,0,1-.31-.76c-.19-5-2.75-8.77-6.56-11.76a30.7,30.7,0,0,0-13.93-5.83,36,36,0,0,0-17.94,1.22,21.64,21.64,0,0,0-9.29,5.67,12.51,12.51,0,0,0-3.62,10.24,7,7,0,0,1-.1,1,197.75,197.75,0,0,1-38.54-42.35c.3.14.62.24.91.41a50.59,50.59,0,0,0,19.47,6.31,48.79,48.79,0,0,0,18.49-1c6-1.59,11.31-4.33,14.8-9.86a4.92,4.92,0,0,1,1.1.08A136.38,136.38,0,0,0,292.67,548a191.65,191.65,0,0,0,24.88,1.18c15.59-.38,31.06-1.85,46.11-6.22a75.06,75.06,0,0,0,14-5.47,2.79,2.79,0,0,1,1.44-.47c4,.37,8,.82,12.23,1.27a8,8,0,0,1-1,1.33c-2.74,2.19-5.37,4.57-8.3,6.48-10,6.46-21,10.79-32.3,14.33a130.63,130.63,0,0,1-23.82,5.26c-3.85.45-7.76.41-11.65.58-.6,0-1.19-.06-1.79-.06-1.87,0-2.85.65-2.94,2s.85,2.37,2.63,2.46a67.41,67.41,0,0,0,9.21,0,151.13,151.13,0,0,0,57.32-17.37,91.66,91.66,0,0,0,9.14-5.69,29.52,29.52,0,0,0,9.35-9.58"/>
    <path class="cls-1" d="M370.12,535.73c-16.57,6.54-33.9,8.49-51.43,8.88-17.32.38-34.48-1.08-51.21-6.08.43-6.81-2.71-11.7-7.49-15.76A43,43,0,0,0,241.76,514c-8.66-2.08-17.32-2.37-25.94.19a33.47,33.47,0,0,0-5.6,2.26c-4.89,2.48-8.45,6.14-9.66,11.73-3.56-3.78-15.25-32.31-15.47-37.92.61.47,1.14.86,1.65,1.27a39.2,39.2,0,0,0,25.38,8.68,22.63,22.63,0,0,0,12-3.12,67,67,0,0,0,6.1-4.85c.11.06.5.25.87.47a182,182,0,0,0,54.7,21.33,92.81,92.81,0,0,0,20.47,2.35,75.33,75.33,0,0,0,8.47-.79,25.15,25.15,0,0,0,3.52-1c15.6,10.41,33.1,17.21,51.85,21.14"/>
    <path class="cls-1" d="M455.54,572.22a27.72,27.72,0,0,1-18.25.55,35.25,35.25,0,0,1-16.33-11c-12.14-13.88-14.85-36.12-6.35-52.42a32.56,32.56,0,0,1,9.72-11.6c8.87-6.43,18.4-7.27,28.44-3.11a38,38,0,0,1,9.07,5.74,7.21,7.21,0,0,1,2.64,4.75,26.83,26.83,0,0,1-5,20.59,35,35,0,0,1-8.39,9c-3,2.05-3.21,3.74-2.25,7.19,1.08,3.87,1.89,7.83,2.75,11.76,1.25,5.7,2.45,11.41,3.67,17.11.09.42.15.86.26,1.51"/>
    <path class="cls-1" d="M299,620.44a234.68,234.68,0,0,1-27.56-15.63c3.12.08,5.85.27,8.58.18a33,33,0,0,0,15.15-4.37,14.45,14.45,0,0,0,5.88-6.47c1.51.17,3,.4,4.47.49a77.3,77.3,0,0,0,20.3-1.52c18.1-3.78,34.24-11.87,49.2-22.5A148.07,148.07,0,0,0,401.09,547a3.35,3.35,0,0,1,1.34-1c-.12.51-.21,1-.38,1.53A72.69,72.69,0,0,1,389.68,569a63.45,63.45,0,0,1-11.88,11.56,26.23,26.23,0,0,1-8.15,4.17c-1.64.47-2.27,1.45-2,2.74a2.22,2.22,0,0,0,3.16,1.56,43,43,0,0,0,7.12-3.19c6.42-3.89,11.52-9.27,16.13-15.13a74.47,74.47,0,0,0,12.78-23.3c.09-.26.19-.51.34-.91,2,4.34,3.94,8.51,5.9,12.76a130.74,130.74,0,0,1-21.48,24.34,92.3,92.3,0,0,1-18,13,41.45,41.45,0,0,1-6.57,2.83,20,20,0,0,1-4.85.62c-1.68.11-2.75.93-2.74,2.29s1,2.12,2.56,2.27a17.41,17.41,0,0,0,7.69-1.22,66.83,66.83,0,0,0,17.18-10A134.29,134.29,0,0,0,415,564.44c.29-.41.61-.81.92-1.23l8.9,8.66a17.68,17.68,0,0,1-2.45,6.6,47.15,47.15,0,0,1-11.6,13,101.66,101.66,0,0,1-45.8,21,45.13,45.13,0,0,1-15.85.6c-1.17-.2-2.36-.38-3.52-.65-1.84-.44-3.32-1.06-4.12-3.21-1-2.77-3.52-4.39-6.17-5.6A25.64,25.64,0,0,0,324,601.42,32.71,32.71,0,0,0,308,605.47a27.25,27.25,0,0,0-5.24,3.82A11.57,11.57,0,0,0,299,620.44"/>
    <path class="cls-1" d="M603.57,237.13a221.15,221.15,0,0,1,31,24c-2.34.14-4.33.14-6.28.41-9.72,1.3-18,5.32-24.3,13-2.9,3.56-4.45,7.6-3.82,12.3a4.26,4.26,0,0,1-.08.88,38.19,38.19,0,0,1-4.7,1.07c-6.22.7-12.11,2.61-18,4.65a134,134,0,0,0-20.52,9,32.66,32.66,0,0,0-8.13,5.85L538,299.74a32.75,32.75,0,0,1,2.14-2.83,53.37,53.37,0,0,1,27.13-16.21c1.3-.32,2.67-.35,4-.54,1.68-.23,2.52-1.06,2.45-2.34s-1.16-2.14-2.92-2.09a28.68,28.68,0,0,0-9,1.73c-10.8,3.87-20.11,9.87-27.17,19.07-.13.18-.26.36-.55.72A138.06,138.06,0,0,0,510,285.14a105.21,105.21,0,0,1,33-24.61c3.24,4.84,8.28,5.82,13.25,6.35,14.67,1.57,27.8-2.55,39.41-11.57a23.51,23.51,0,0,0,6.12-7.11c1.73-3.1,2.63-6.35,1.64-9.92a2.4,2.4,0,0,1,0-.66,2.88,2.88,0,0,1,.18-.49"/>
    <path class="cls-1" d="M291.37,489.47a117.54,117.54,0,0,0,22.14,21.72,39.25,39.25,0,0,1-11.58.55c-24.18-2.19-46.4-10.37-67.38-22.27-.78-.44-1.54-.92-2.3-1.4a2,2,0,0,1-.42-.38c0-1.2,0-2.32,0-3.44a18.65,18.65,0,0,0-5.2-11.89c-5.32-6-12.09-9.43-19.78-11.21a33.06,33.06,0,0,0-16,0,18.25,18.25,0,0,0-10.12,6.26c-.19.24-.3.53-.68.69a156.1,156.1,0,0,1-1.94-43c.37.61.74,1.24,1.13,1.85,6,9.38,14,16,24.84,19.13a19.13,19.13,0,0,0,10.63.31,57.48,57.48,0,0,0,6.43-2.74c.27.25.87.79,1.45,1.35a260.08,260.08,0,0,0,45.8,35.67,85.53,85.53,0,0,0,14.22,7.13,20.81,20.81,0,0,0,8.77,1.72"/>
    <path class="cls-1" d="M237.73,347.05a253.25,253.25,0,0,0,11.06,26.47,178.64,178.64,0,0,0,12.5,22.31c1.13,1.67,2.33,3.3,3.56,4.9a20.5,20.5,0,0,0,7.22,6.41,110.48,110.48,0,0,0-.21,37.8,18.66,18.66,0,0,1-2.34-1.3c-3.65-2.85-7.48-5.52-10.85-8.68a178,178,0,0,1-35.11-46.4c.68-1,1.39-2,2-3a21.24,21.24,0,0,0,2-14.6,36.53,36.53,0,0,0-12-21.54,30,30,0,0,0-4.79-3.31,14.48,14.48,0,0,0-8.62-1.93c-.64.05-1.29,0-2.21,0a180.54,180.54,0,0,1,16.95-27.91c0,.63,0,1.26,0,1.89a32.73,32.73,0,0,0,7.85,22.14c3.32,4,7.37,6.78,13,6.75"/>
    <path class="cls-1" d="M287.88,484.68c-1.23-.37-2.07-.6-2.88-.89a84.31,84.31,0,0,1-16.37-8.32,256.67,256.67,0,0,1-44.08-35c-.31-.31-.6-.66-.88-1,.3-1.52.69-3,.86-4.43a19.93,19.93,0,0,0-2-11.12c-5.94-12.11-15.33-20.13-28.52-23.33a17.25,17.25,0,0,0-12.45,1.38c-.26.13-.55.21-1.11.42a205.65,205.65,0,0,1,10.68-38.34,17.68,17.68,0,0,1,.62,1.7c2.1,8.38,6.14,15.56,13,20.94,3.44,2.69,7.28,4.42,11.77,4.24,1,0,1.92-.2,3-.32.32.54.66,1.11,1,1.69A186,186,0,0,0,254,436.88c4.73,4.61,9.69,9,15.61,12a7.92,7.92,0,0,1,4.49,5.71,95.41,95.41,0,0,0,12.47,28c.36.56.7,1.14,1.3,2.12"/>
    <path class="cls-1" d="M462.14,580.68c-3-14-6-27.73-9-41.71.93-.78,2.12-1.68,3.2-2.69,6.92-6.48,11.77-14.12,12.94-23.72.58-4.77-.34-9.41-1.43-14-1.14-4.8-2.49-9.56-3.53-14.38a22.39,22.39,0,0,1,0-9.15,7.57,7.57,0,0,1,2.86-4.68c4-3,8.33-3.92,13.05-1.75a7.21,7.21,0,0,1,3.76,3.69,24,24,0,0,1,1.55,4.19c.6,2.59,1.34,5.06,3.86,7-3.69,1-7,1.76-10.31.06a6.64,6.64,0,0,0-1.49,4c-1.13,7.44-.43,14.64,3.2,21.37,1.56,2.9,3.13,5.8,4.81,8.63a58.09,58.09,0,0,1,7,17.68c1.59,7.44.05,14.56-2.79,21.48S482.44,569,477,573.75c-2.8,2.45-6.26,3.77-9.67,5.14-1.63.66-3.33,1.16-5.15,1.79"/>
    <path class="cls-1" d="M321.53,629.86c8.72-1.87,16.7-4.69,20.88-13.43,2.17.41,4.27.88,6.39,1.2,6.39,1,12.72.28,19-1a106,106,0,0,0,44.93-20.89,82.33,82.33,0,0,0,8.78-8.34,32.19,32.19,0,0,0,7.53-13l5.87,2.56a31,31,0,0,1-1.09,3.84,63.17,63.17,0,0,1-15.43,22.1,20.64,20.64,0,0,1-3.11,2.18c-1.43.9-1.9,2-1.31,3.14a2.29,2.29,0,0,0,3.44.86,19.78,19.78,0,0,0,3.69-2.53,67.4,67.4,0,0,0,16.84-23.82c.61-1.43,1-3,1.48-4.64l2.95.54A20.28,20.28,0,0,1,444.06,589c-.59,6.7-3.34,12.53-7.35,17.81a54.48,54.48,0,0,1-15,13.35c-.63.39-1.31.7-1.87,1-.28-.07-.48-.07-.56-.15-3.23-3.83-7.48-4.76-12.16-4.1-8.37,1.16-14.9,5.5-20,12.07a22,22,0,0,0-2.36,3.81c-1.91,3.81-2.66,7.78-.9,12.31a265.5,265.5,0,0,1-62.27-15.26"/>
    <path class="cls-1" d="M525.48,559.8,496.83,549c.2-1.47.39-2.91.6-4.44a109.31,109.31,0,0,0,17.81,1c3-.07,6-.18,9-.31a3.32,3.32,0,0,1,3.23,1.45c1.7,2.38,4.35,3.34,7.1,3.93a19.47,19.47,0,0,0,8.69.12c2.62-.65,5.2-.28,7.77,0a65.63,65.63,0,0,0,15.91-.3c7.71-.87,15.42-2,23-3.47,16.82-3.27,33.3-7.78,49-14.75,4.93-2.18,9.71-4.65,13.94-8.67,3,12.13,1.37,23.45-3.47,34.45-.28,0-.49,0-.54,0-2.49-3.49-6.13-5-10.16-5.47a27.37,27.37,0,0,0-19.57,4.88,13,13,0,0,0-5.21,6.84,3.12,3.12,0,0,1-2.89,2.38c-4.59.63-9.16,1.51-13.77,1.83-5.74.41-11.53.56-17.28.43-4.77-.1-9.53-.76-14.3-1.21a17.25,17.25,0,0,1-2-.44,1.79,1.79,0,0,1-1.49-1.45,12.82,12.82,0,0,0-6-7.57,29.1,29.1,0,0,0-22.36-4,12.85,12.85,0,0,0-8.47,5.57"/>
    <path class="cls-1" d="M477.3,360.47A67.17,67.17,0,0,1,492.17,370c1.38,1.16,2.64,2.45,4,3.6a3,3,0,0,1,1.07,2.76c-.95,15.54-4.62,30.29-12.72,43.74a45.28,45.28,0,0,1-11.75,13.14,29.15,29.15,0,0,1-10.69,5c-.62.15-1.26.22-2.29.39.27-2.06.37-3.84.76-5.55A93.58,93.58,0,0,1,480.11,393a23.93,23.93,0,0,1,8.5-6.85,2.29,2.29,0,0,0,1.49-3.05,2.23,2.23,0,0,0-3.37-1,30.92,30.92,0,0,0-6.3,4.21,60.85,60.85,0,0,0-7.43,8.37A98.11,98.11,0,0,0,456.19,432c-.56,2.62-.8,5.32-1.22,8.25a30.65,30.65,0,0,0-10.61,8.92c-.36-2.31-.73-4.08-.9-5.88a98.6,98.6,0,0,1,3.14-37.14,71.74,71.74,0,0,1,4.06-9.94,16.63,16.63,0,0,1,2.64-3.61,4.39,4.39,0,0,1,3.5-1.65,11.8,11.8,0,0,0,7.17-2.87c7.76-6.25,12.36-14.28,13.32-24.29.1-1,0-2.07,0-3.35"/>
    <path class="cls-1" d="M490.35,565.74l5.72-12.18,28.41,10.72c1,5.19,4.6,8.23,9,10.42a29.55,29.55,0,0,0,19,2.52,13.15,13.15,0,0,0,9.13-5.74,105.7,105.7,0,0,0,26.26,2c8.81-.27,17.64-.58,26.16-3.39,4.23,6.07,10.39,7,17.08,6.31,2.36-.25,4.67-.86,7-1.31-4.47,7.3-25.17,22.45-34.75,25.37-1-5-4.7-7.65-8.94-9.56a45.29,45.29,0,0,0-28.23-3.44,14,14,0,0,0-8.2,4.29,2.6,2.6,0,0,1-2,.68,52.64,52.64,0,0,1-6.59-1.2A213,213,0,0,1,518.27,580c-6.84-3-13.54-6.33-20.22-9.67-2.73-1.36-5.25-3.14-7.7-4.62"/>
    <path class="cls-1" d="M533.58,206.38c-1.88.25-3.79.39-5.64.77-10,2-18.53,6.64-24.94,14.76a20.21,20.21,0,0,0-4.52,10.59,15.76,15.76,0,0,0,1,6.94c-8.34,3.32-15,9-21.33,15.05A86.53,86.53,0,0,0,462,275c-11.29-1.05-22.53-.08-34.11,1,.45-1.93.7-3.62,1.23-5.21a83.48,83.48,0,0,1,18.71-31.6,38.35,38.35,0,0,1,3.71-3.25,15.9,15.9,0,0,1,1.94-1.24,57.07,57.07,0,0,0,7.27,3,23.94,23.94,0,0,0,13.91-.84c9-3,16.17-8.35,20.92-16.66a19.34,19.34,0,0,0,2.77-11.61,13.12,13.12,0,0,0-5.62-9.8A2.59,2.59,0,0,1,492,198a219.61,219.61,0,0,1,41.62,8.43"/>
    <path class="cls-1" d="M458.83,477.38c1,5.69,1.88,11,2.82,16.61a5.55,5.55,0,0,1-1.34-.44,37.47,37.47,0,0,0-14.51-5.66,16.73,16.73,0,0,1-11.57-7.78c-3.55-5.39-5.48-11.45-7-17.65a142.21,142.21,0,0,1-3.61-30.7,186.49,186.49,0,0,1,3.4-39.52,2.9,2.9,0,0,1,2-2.56c2.49-.92,4.13-2.9,5.49-5.1a31.15,31.15,0,0,0,4.29-14.26,29.57,29.57,0,0,0-1.71-13.47c-.56-1.36-1.28-2.65-2.07-4.26a90.36,90.36,0,0,1,28.61,2.77l-1.7,1.42a35,35,0,0,0-12.86,22.91,12.57,12.57,0,0,0,1.77,8.67c-1.07,1.34-2.21,2.61-3.16,4A45.56,45.56,0,0,0,441.62,407a100,100,0,0,0-2.8,34.07c.38,4.16,1.15,8.29,1.84,12.41a6.44,6.44,0,0,1-.21,3.26,28.36,28.36,0,0,0,.16,19.56c1.17,3.21,2.49,3.92,5.81,3.22s6.59-1.31,9.89-1.92c.87-.16,1.76-.15,2.52-.22"/>
    <path class="cls-1" d="M541.06,256.14c-9.09,5-17.9,10.1-25.44,17.06-3.13,2.9-6.15,5.93-9.13,9a2.25,2.25,0,0,1-2.72.73A147.38,147.38,0,0,0,480.1,277c-3.76-.62-7.55-1-11.33-1.52l-1.5-.19a15.18,15.18,0,0,1,.84-1.67,91.65,91.65,0,0,1,27-26.91,36.91,36.91,0,0,1,6.07-2.83,2.18,2.18,0,0,1,1.83.22c5.37,4,11.42,4.86,17.88,4.1a42.36,42.36,0,0,0,24.4-11.29,26.37,26.37,0,0,0,6.29-8.41c2.84-6.19,2.63-12-2.2-17.39a201.63,201.63,0,0,1,37.7,16.71c-.92,0-1.85,0-2.77,0a56.1,56.1,0,0,0-31,8.88,32.73,32.73,0,0,0-8.37,7.41c-3.15,4-4.12,7.08-3.85,12"/>
    <path class="cls-1" d="M569.77,333.26c-2.81-3.9-5.36-7.69-8.18-11.26-2.36-3-5-5.74-7.59-8.57-1.4-1.54-1.42-2.18.22-3.42a66.23,66.23,0,0,1,13.08-7.36,124.79,124.79,0,0,1,28.11-9c1.32-.24,2.66-.44,4-.57a8.36,8.36,0,0,1,6.3,1.4c3.36,2.48,7.49,3,11.56,2.89a37.89,37.89,0,0,0,23.61-9.1,22.14,22.14,0,0,0,7.69-11.6,8.23,8.23,0,0,1,.41-.92,184.36,184.36,0,0,1,14.14,17.66c-1.84-.52-3.29-1-4.78-1.34-4.82-1-9.52-.26-14.14,1.18a37,37,0,0,0-16.29,10c-3.26,3.45-5.58,7.4-5.81,12.46-1.56.14-3.11.21-4.64.44-8.85,1.32-17.29,4.09-25.62,7.21a156.37,156.37,0,0,0-21.26,9.55,8.6,8.6,0,0,1-.81.36"/>
    <path class="cls-1" d="M445.81,196c10-.8,19.51-.14,29,.19l.06.45-1.95.67a37.65,37.65,0,0,0-19,14,22.82,22.82,0,0,0-4.4,11.37,16.22,16.22,0,0,0,1.47,8.12c-7.79,5.28-13.12,12.66-17.84,20.52s-8.49,16.15-9.94,25.28c-6.27,1.32-12.51,2.45-18.66,4s-12,3.43-18.35,5.27c.29-2,.45-3.85.84-5.65,1.8-8.48,5.17-16.38,9-24.11a101.66,101.66,0,0,1,11.45-18.73c1.34-1.67,2.89-3.16,4.1-4.47,2.54,1,4.63,2,6.82,2.64a16.58,16.58,0,0,0,10.37-.61c11.22-4.08,18.52-11.83,21-23.65a16.84,16.84,0,0,0-4-15.26"/>
    <path class="cls-1" d="M242,345.81c5.27-4.58,6.27-10.3,5.61-16.54a32.73,32.73,0,0,0-7.17-17.38,25.66,25.66,0,0,0-3.11-3.23c-3.47-3-7.41-4.7-12.59-3.69A241.23,241.23,0,0,1,243.79,283c0,3.34-.16,6.1,0,8.83a34.24,34.24,0,0,0,4.75,15.06c2.56,4.32,5.93,7.69,11.1,8.75.7,3.89,1.31,7.72,2.1,11.51,2.8,13.43,6.53,26.57,12.21,39.1.83,1.83,1.81,3.61,2.81,5.35.59,1,1.37,2,2.06,2.95l2.27,3.22A132.47,132.47,0,0,0,273,402.53a19.07,19.07,0,0,1-2.18-1.9c-2-2.49-4.13-4.94-5.91-7.6a200.92,200.92,0,0,1-17.48-33.59c-1.89-4.47-3.6-9-5.44-13.63"/>
    <path class="cls-1" d="M321.81,323.6a20.74,20.74,0,0,1-1.93-8,130.47,130.47,0,0,1,3.56-44.53,44.78,44.78,0,0,1,2.82-7.54c1-2.11,1.59-2.31,3.9-1.92,4.82.8,9-.73,12.84-3.47,8.78-6.28,13.52-19.06,11-29.48-1.19-4.95-3.73-8.94-8.39-11.34a3.79,3.79,0,0,1-.58-.4c3.41-1.9,21.4-8.05,25-8.53-.55.6-1,1.09-1.4,1.54a32.84,32.84,0,0,0-8.37,14.4c-1.61,5.88-1.33,11.56,2.13,16.48-2.2,5.17-4.47,10.05-6.37,15.07a122.46,122.46,0,0,0-6.95,28.48,50.32,50.32,0,0,0,.78,18.73,198.06,198.06,0,0,0-28.05,20.47"/>
    <path class="cls-1" d="M354,300.31a23.33,23.33,0,0,1-.86-6.65,82.48,82.48,0,0,1,1.79-17,121.78,121.78,0,0,1,9.51-29.15c.51-1.06,1.1-2.08,1.68-3.16,1.49.51,2.79,1,4.14,1.41a15.92,15.92,0,0,0,9.93-.65c12.13-4.68,19.2-13.57,21.34-26.37a17.09,17.09,0,0,0-.57-7.34,14.49,14.49,0,0,0-7.44-9.12c8.19-1.88,16-3.1,23.94-4.13l.35.51a18.93,18.93,0,0,0-1.72,1.35c-4.91,4.87-8.31,10.54-9.23,17.54a18.23,18.23,0,0,0,2,11.29c-.1.22-.13.48-.28.62a53.61,53.61,0,0,0-9.9,12.44C391.9,253,386.3,264.67,383,277.32a29,29,0,0,0-1.14,9.87L354,300.31"/>
    <path class="cls-1" d="M300.05,346.06c-.93-1.7-2-3.34-2.74-5.09a70.11,70.11,0,0,1-4.92-18.6,102.68,102.68,0,0,1-.87-21.74c.17-2.68.58-5.35,1-8,.23-1.47.69-2.9,1-4.33a7,7,0,0,1,.92-.37c6.09-1.27,10-5.19,12.52-10.61a37.18,37.18,0,0,0,3.6-12.44,29.26,29.26,0,0,0-2.15-14.51c-2-4.62-5.11-8.25-9.91-10.2,1.59-1.9,20-12.1,23.52-13-5.51,10.93-7.47,21.64,1.64,31.93-4,5.77-5.31,12.61-6.57,19.44a137.83,137.83,0,0,0-2.25,30.41,108.48,108.48,0,0,0,1.34,12,41.77,41.77,0,0,0,1.71,5.77l-17.87,19.37"/>
    <path class="cls-1" d="M297.53,350a149.37,149.37,0,0,0-14,22.74,9.31,9.31,0,0,1-2.82-3.34,77,77,0,0,1-6.29-13.87,205,205,0,0,1-9.78-37.75c-.14-.88-.19-1.78-.28-2.64,6-4.08,7.65-10.23,8.05-16.82a37.56,37.56,0,0,0-4.2-19.74c-2.14-4.15-5.05-7.56-9.61-9.55,5.34-4.76,10.71-9.13,16.36-13.3-.42,3-1,5.8-1.14,8.61a26.71,26.71,0,0,0,2.25,12.92c2.37,5.32,6,9.27,11.88,10.7a5,5,0,0,1,.75.31,11.9,11.9,0,0,1-.21,1.44,69,69,0,0,0-1.71,15.15A103.14,103.14,0,0,0,291,337a36.23,36.23,0,0,0,6.55,13"/>
    <path class="cls-1" d="M556.65,597.39c1.22,3.92,4.6,6.2,8.35,8.09s7.54,2.82,11.54,4c-2,.41-4,.89-6,1.22a133.16,133.16,0,0,1-28.4,1.79c-17.09-.86-33.43-4.63-48.5-13A71.61,71.61,0,0,1,474.29,584c-.58-.68-1.15-1.37-1.83-2.18l7-4.09c.08,0,.26,0,.34.12A49.43,49.43,0,0,0,491.75,588c8.78,5.67,18,10.41,28.14,13.09.87.23,1.74.44,2.62.6a2.43,2.43,0,0,0,3.09-1.82c.2-1.24-.6-2.26-2.16-2.61-12.18-2.75-22.92-8.54-33-15.71a60.12,60.12,0,0,1-5.88-5.19,14.78,14.78,0,0,1-1.53-2l4.74-5.3c8.78,6.58,18.76,10.82,28.68,15.12a226.43,226.43,0,0,0,30.53,11c3.09.83,6.25,1.38,9.65,2.12"/>
    <path class="cls-1" d="M640,499.73c.63.85,1,1.48,1.5,2a62.2,62.2,0,0,1,9.45,15.2,1.9,1.9,0,0,1-.37,2.43,34.4,34.4,0,0,1-3.82,3.44c-5.44,3.8-11.53,6.3-17.7,8.61a261.11,261.11,0,0,1-44.5,12,212.09,212.09,0,0,1-23.56,3c-1.47.11-3,0-4.68,0,1.57-1.71,3.08-3.19,4.39-4.83a8.76,8.76,0,0,0,1.7-5.87C571.83,533.6,580,529,588,524.25c5.79-3.42,11.35-7.24,17-10.87.61-.4,1.24-.75,2.18-1.32a10.34,10.34,0,0,0,.8,1.24,12.62,12.62,0,0,0,7.83,4c8.8,1.3,18.68-4.09,22.35-12.2.69-1.53,1.08-3.2,1.8-5.38"/>
    <path class="cls-1" d="M353.31,391.31c-1.81,2.55-3.59,5-5.43,7.61a8.76,8.76,0,0,1-3-3,63.18,63.18,0,0,1-8.06-15.48,37,37,0,0,1-2.66-11.07,2.13,2.13,0,0,0-2.19-2.33,2.08,2.08,0,0,0-2.28,2.43,36,36,0,0,0,1,6.63,68.78,68.78,0,0,0,9.45,21c1.45,2.16,3.27,4.06,4.84,6l-8.56,18.52a6.23,6.23,0,0,1-3.39-2.45,67.71,67.71,0,0,1-4.63-6.05,86.41,86.41,0,0,1-11.06-23.45c-.13-.43-.23-.87-.33-1.31s-.18-.86-.27-1.29c1.05-.94,2.12-1.77,3-2.75a17.06,17.06,0,0,0,4.44-11.48,23.45,23.45,0,0,0-8.2-18.92,16,16,0,0,0-11-4.35c-.29,0-.57-.06-.87-.09,1.14-3.15,15.67-18.74,20.1-21.5a60.86,60.86,0,0,0,0,6.77,30.49,30.49,0,0,0,6.9,16.3c2.79,3.36,4.54,4.42,9.86,6.34.56,3.91.95,7.77,1.67,11.58a59.38,59.38,0,0,0,4.93,14.86,18.82,18.82,0,0,0,5.66,7.52"/>
    <path class="cls-1" d="M399.84,361.25a103.55,103.55,0,0,1,20.66-6.64c-.36.79-.6,1.34-.87,1.89a34.62,34.62,0,0,0-2.68,24c.86,3.63,2.5,6.9,5.92,9.07-.4,2.38-.81,4.73-1.2,7.08a188.3,188.3,0,0,0-2.21,42.75c.65,10.12,2,20.11,5,29.82.48,1.57,1,3.14,1.6,4.67a36,36,0,0,0,8.86,13.91,2,2,0,0,1-2.77,0,46.52,46.52,0,0,1-5.36-4.72c-5.54-6.23-9.35-13.53-12.56-21.15a150.66,150.66,0,0,1-10.47-39.58,125.62,125.62,0,0,1-.77-23.1c0-.67.18-1.34.21-2a2.71,2.71,0,0,1,1.31-2.4,7.17,7.17,0,0,0,2.86-4.68,32,32,0,0,0-3.2-22.83,61.47,61.47,0,0,0-4.31-6.14"/>
    <path class="cls-1" d="M504.41,324.3c-11.77,5.79-24,21.82-25.78,31.66A93.42,93.42,0,0,0,459,349.57c.24-2.26.29-4.5.74-6.67a66.12,66.12,0,0,1,15.39-30.62,31.94,31.94,0,0,0,3.62.91,14.08,14.08,0,0,0,7.27-.87c8.62-3.48,14.31-9.62,16.42-18.77a35.6,35.6,0,0,0,.36-6,8.28,8.28,0,0,1,1.78.3,149.61,149.61,0,0,1,20.57,9.4,8.79,8.79,0,0,1,1,.75c-1,.17-1.74.24-2.43.43-8.85,2.42-15.24,7.72-18.78,16.26a14,14,0,0,0-.5,9.59"/>
    <path class="cls-1" d="M574.5,499.55a14.51,14.51,0,0,0,8.77,1.5,46.7,46.7,0,0,0,8-2.16,28,28,0,0,0,9.87-6.49c3.57-3.52,6.22-7.49,6-13.07a83.2,83.2,0,0,1,17.18,8c-5.6,1-10.14,3-13.81,6.73s-5.85,8.11-5.31,13.57A197.35,197.35,0,0,1,579,524.05c-2,1-4,2.1-6,3.1a47.24,47.24,0,0,1-12.6,4.36c-5.81-4.67-12.55-4.38-19.45-2.74a26.76,26.76,0,0,0-8.8,3.83,14.76,14.76,0,0,0-6.39,8.15c-6.11,0-12.24.2-18.36.11-2.82-.05-5.64-.58-8.46-.87-1.35-.15-1.8-.88-1.46-2.26,2.48-.27,5-.47,7.51-.83a108.13,108.13,0,0,0,25.78-7.38,132.27,132.27,0,0,0,33.49-19.35,56.72,56.72,0,0,0,9.67-9.67c.22-.3.38-.63.58-.95"/>
    <path class="cls-1" d="M556.29,322.8c-2.47.47-4.85.75-7.11,1.41A29.57,29.57,0,0,0,537,331.14c-3.73,3.48-6.56,7.41-6,13-6.9,2-12.55,6-17.8,10.57s-10,9.68-13.18,16.3a78.7,78.7,0,0,0-16.53-12.52,7.25,7.25,0,0,1,.49-4.84,40.58,40.58,0,0,1,6-10.49,55.26,55.26,0,0,1,12-12c.73-.53,1.51-1,2.26-1.47a3.86,3.86,0,0,1,4.86-.09c2.8,1.83,6.08,1.75,9.34,1.21,8.78-1.47,18-10,19.89-18.72a40.45,40.45,0,0,0,.51-5.51c3.17,1.35,13.36,10.79,17.47,16.24"/>
    <path class="cls-1" d="M337.91,316.65c4.58-3.91,20.48-13.7,24.55-15-.24.73-.42,1.34-.63,1.94a25.91,25.91,0,0,0-1.13,14.37c1.11,5.19,3.44,9.56,8.56,11.82a80.5,80.5,0,0,0,4.19,41.63c-2.8,2.44-5.74,5-8.64,7.54s-5.77,5.23-8.45,8.06c-1,.39-1.76-.31-2.3-1.22a49.32,49.32,0,0,1-3.12-5.7A62.16,62.16,0,0,1,346,360.33a11.44,11.44,0,0,1,0-2.68,2.27,2.27,0,0,1,.81-1.47c4.42-2.74,5.91-7.07,6.18-11.85A30.8,30.8,0,0,0,346.14,323a18,18,0,0,0-7.36-5.73,5.7,5.7,0,0,1-.76-.43s-.07-.13-.11-.2"/>
    <path class="cls-1" d="M471.79,309.08c-9.61,11.53-16.11,24.36-17.3,39.73a97.15,97.15,0,0,0-26.82,0c-1.14-10.23,6.68-29.81,12.12-38.63a2,2,0,0,1,.65,0A13.22,13.22,0,0,0,452.11,309c8.24-4.61,12.78-11.73,13.55-21.16a16.33,16.33,0,0,0-1.81-8.16A134.05,134.05,0,0,1,483,282.17l-2.08,1.5c-5.46,4.08-9.35,9.2-10.69,16a13.38,13.38,0,0,0,1.58,9.37"/>
    <path class="cls-1" d="M378.24,413.85c1,4.06,1.9,8.3,3.12,12.45,5.18,17.81,12.73,34.5,23.72,49.53a92.85,92.85,0,0,0,6,7.27,40.75,40.75,0,0,0,12,9.63,5,5,0,0,1-5.85,1.76,36.6,36.6,0,0,1-11.46-6c-7.67-5.64-14-12.61-19.84-20.06a172.15,172.15,0,0,1-17.76-28,4.31,4.31,0,0,1-.35-4,12.28,12.28,0,0,0,.35-7.1,31.35,31.35,0,0,0-11.36-18.82,14.88,14.88,0,0,0-8.5-3.44,97.69,97.69,0,0,1,11.15-16c2.92,10.52,7.26,19.57,18.76,22.77"/>
    <path class="cls-1" d="M415.82,499.1c-1.42,4.08-4.62,3.87-7.78,3.17a67.21,67.21,0,0,1-9.87-2.87,116.25,116.25,0,0,1-39.42-25.68c-.9-.89-1.72-1.86-2.51-2.71,0-.3-.06-.49,0-.58,2.53-3.42,2.75-7.22,1.74-11.15a18.87,18.87,0,0,0-9.53-12.46,9.41,9.41,0,0,0-8-.92,27.59,27.59,0,0,0-3.31,1.76c-1-4,1.78-20.2,4.48-25.26.55,1.37,1,2.7,1.6,4A30.78,30.78,0,0,0,353.11,439c3.05,2.21,6.39,3.61,10.48,2.46l1.22,2.31c8,15.27,17.65,29.4,30.09,41.46a63.17,63.17,0,0,0,13.29,10.28c2.47,1.36,5.1,2.43,7.63,3.62"/>
    <path class="cls-1" d="M556.68,473.32c4.58-1,25.52-.66,29.21,1l-2.21,1.23a28.7,28.7,0,0,0-10.56,9.52c-2,3.14-3.16,6.48-1.88,10.21.31.91-.17,1.41-.61,2a47.68,47.68,0,0,1-9,9.1A130.27,130.27,0,0,1,506.93,532c-2.47.52-5,.68-7.55,1a25.53,25.53,0,0,1-2.64,0l-.8-2.91c.62-.25,1.15-.48,1.68-.67A93.31,93.31,0,0,0,521.35,516c2.69-2,5.24-4.23,7.73-6.5A25.53,25.53,0,0,0,536,500c11.94,2.79,21.86-8.23,23.15-16.6.6-3.91.44-5.78-2.5-10.05"/>
    <path class="cls-1" d="M402.54,316.07c-3.92,5.83-5.32,12.5-6.35,19.25a72,72,0,0,0-.21,22.26L377.32,368.3c-.3-.72-.74-1.57-1-2.46a75.82,75.82,0,0,1-3-32.16,7.74,7.74,0,0,1,.57-2.39A2.48,2.48,0,0,1,375.2,330a13.85,13.85,0,0,0,8.24-6.21,25.36,25.36,0,0,0,2.71-23.19,13.7,13.7,0,0,0-4.84-6.62,10.53,10.53,0,0,1-.93-.86,190.34,190.34,0,0,1,22.25-7.43c-5.7,10.24-7.57,20.22-.09,30.37"/>
    <path class="cls-1" d="M420.1,281.89a160.86,160.86,0,0,1,22-2.39c-.84.93-1.37,1.5-1.89,2.1-4.21,4.85-6.83,10.32-6.79,16.89a14.68,14.68,0,0,0,2.69,8.45,153,153,0,0,0-9.17,20.48,74.29,74.29,0,0,0-4.2,21.68l-22.43,6.54c-.14-1.21-.39-2.6-.45-4a76.21,76.21,0,0,1,3.13-26,47.75,47.75,0,0,1,2.73-6.13,2.22,2.22,0,0,1,2.57-1.27c3.78.46,6.88-1.06,9.54-3.58,4-3.81,6.08-8.65,7.1-14a24.48,24.48,0,0,0-.41-11.35,16.12,16.12,0,0,0-4.42-7.49"/>
    <path class="cls-1" d="M386.55,368.09a33.53,33.53,0,0,0,3.29,18.78,32.29,32.29,0,0,0,3.13,4.9c1.48,2,2.89,2.89,5.69,4.13-.08,1.32-.16,2.72-.25,4.12a126,126,0,0,0,1.84,29.73,148.7,148.7,0,0,0,11.14,37.05c3.54,7.72,7.7,15.05,13.66,21.22a4.52,4.52,0,0,1,.32.82c-1.26-.75-2.23-1.25-3.12-1.85a48.75,48.75,0,0,1-10.12-9.49c-8.05-9.7-14.08-20.6-19.11-32.1A150.73,150.73,0,0,1,383,413.61c-.15-.81-.47-1.6.19-2.33,2.51-2.77,2.69-6.17,2.18-9.54a29.88,29.88,0,0,0-11.18-19.34,38.56,38.56,0,0,0-3.77-2.37,106.76,106.76,0,0,1,16.18-11.94"/>
    <path class="cls-1" d="M650.71,324.53c-.68.55-1.06.9-1.48,1.19a151.48,151.48,0,0,1-47.44,22.35A71.89,71.89,0,0,1,580,350.6a3,3,0,0,1-3.1-2.19c-1.47-3.67-3.19-7.24-4.87-11,.48-.3,1-.69,1.58-1a166.73,166.73,0,0,1,41.5-15.31c1.67-.37,3.41-.4,5.11-.67a4.16,4.16,0,0,1,4,1.53c4.32,4.95,10,5.62,16,5a33.78,33.78,0,0,0,9.32-2.31,5.92,5.92,0,0,1,1.17-.17"/>
    <path class="cls-1" d="M411.43,644.56c1.62-1.64,3.36-3.18,4.83-4.95,3.14-3.77,5.27-8,5-13.1-.06-1.28.82-1.62,1.61-2.15,3-2,6.24-3.88,9.07-6.18a45.25,45.25,0,0,0,15.1-21.32,29.18,29.18,0,0,0,.7-16.81c-.11-.42-.19-.85-.36-1.57l9.6-1.91c.47,1.3,1,2.38,1.27,3.52A67.54,67.54,0,0,1,456,620,27,27,0,0,1,441.07,636a123.66,123.66,0,0,1-20.17,6.72c-3.1.78-6.23,1.45-9.35,2.17,0-.1-.07-.21-.12-.31"/>
    <path class="cls-1" d="M521,374.28A81.3,81.3,0,0,1,504.3,373c.47-1,.78-1.89,1.25-2.67A53.88,53.88,0,0,1,517,357.41a44.78,44.78,0,0,1,11.61-7.58,22.64,22.64,0,0,1,4.53-1.06,2.54,2.54,0,0,1,1.51.23c4.05,2.13,8.24,1.88,12.44.66a29.71,29.71,0,0,0,16.25-11c.74-1,1.33-2.12,2.07-3.32a77,77,0,0,1,5.92,11.23c.88,2,1.54,4.06,2.45,6a3.16,3.16,0,0,1-.5,3.52,24,24,0,0,1-6,5.65A64.83,64.83,0,0,1,549.13,370a114.61,114.61,0,0,1-19.77,3.87c-.63.07-1.28,0-2.42,0,1-1,1.61-1.66,2.33-2.26a68.87,68.87,0,0,1,20.37-12c1.66-.62,3.47-.85,5.17-1.39a4.14,4.14,0,0,0,2-1.24,2.05,2.05,0,0,0-1.72-3.22,13.51,13.51,0,0,0-4.19.62,69.38,69.38,0,0,0-26.6,15.75,19.14,19.14,0,0,0-1.79,2c-.5.64-.93,1.35-1.51,2.2"/>
    <path class="cls-1" d="M494.4,525.34c-.68-1.57-1.34-3.06-2-4.59,1.66-1.21,3.36-2.3,4.88-3.6a92.7,92.7,0,0,0,17.7-20.5,27.53,27.53,0,0,0,2.66-5.65,5,5,0,0,0-.22-3A2,2,0,0,0,515,486.8a1.89,1.89,0,0,0-1.69,1.84c.08,2.53-1.34,4.4-2.6,6.31a91.76,91.76,0,0,1-15.84,18.28,25.39,25.39,0,0,1-3.22,2.43c-1.07.68-1.57.54-2.18-.54-2.09-3.72-4.13-7.45-6.14-11.1,6.48-9.44,40.08-26.81,53-27.44-5.12,6.15-8.75,12.54-4.13,20.7a17.58,17.58,0,0,1-4.83,7.51,93.55,93.55,0,0,1-30.58,20.06,17.74,17.74,0,0,1-1.71.53,3.88,3.88,0,0,1-.67,0"/>
    <path class="cls-1" d="M332.35,444.38a79.79,79.79,0,0,0,1.33,19.47,3.08,3.08,0,0,1-2.61-.31c-2.34-1-4.69-2-6.93-3.17a93.09,93.09,0,0,1-13.75-9.28,4,4,0,0,1-1.65-2.94,10.13,10.13,0,0,0-1.63-4.57c-6.22-8.5-14.68-12.26-25.14-11.13-2.22.24-4.33,1.43-6.75,2.28a98.2,98.2,0,0,1,1-25c.57.94.9,1.45,1.2,2a23.1,23.1,0,0,0,15.86,11.81,14.26,14.26,0,0,0,11.78-2.11,6.3,6.3,0,0,1,.8-.38c1.17,1.38,2.39,2.78,3.56,4.22a89.27,89.27,0,0,0,12.84,13.16,40.51,40.51,0,0,0,4.78,3.34c1.59,1,3.33,1.67,5.28,2.62"/>
    <path class="cls-1" d="M307.2,454.49c8.57,6.15,16.72,12.71,27.67,14.59a73,73,0,0,0,9.43,20.64,23.75,23.75,0,0,1-2.65.09,34.88,34.88,0,0,1-11.08-2.61,3.71,3.71,0,0,1-1.75-1.54,16.89,16.89,0,0,0-6.05-6.5,29.17,29.17,0,0,0-20.58-4.45c-4.51.67-8.42,2.6-10.5,7.35a95.86,95.86,0,0,1-13.22-28.54c.76.44,1.23.68,1.67,1a27.27,27.27,0,0,0,16,4.9c4.28-.11,8.1-1.32,11-4.9"/>
    <path class="cls-1" d="M332.61,439.38a16.32,16.32,0,0,1-5.36-2.89A84.06,84.06,0,0,1,312.59,422a17.27,17.27,0,0,0-1.13-1.4c-1.94-1.93-2.94-3.9-2.08-6.89.54-1.87.11-4.19-.42-6.17-2.34-8.77-12.46-16.82-22.52-15.69a42.53,42.53,0,0,0-6,1.54c-.19-2.69,6.87-19.62,9.8-23.21,3.17,11.2,9.16,19.05,22.16,18.69a84.08,84.08,0,0,0,9.23,21.81A128.52,128.52,0,0,0,329,421.4a11.5,11.5,0,0,0,6.29,4.59l-2.7,13.39"/>
    <path class="cls-1" d="M485.7,450q-3.93,6.56-7.74,12.87c-9.62.37-14.09,2.81-17.77,9.55l-15.13,2.43c-3.84-8.13-1.6-21.55,8.83-28.64A24.27,24.27,0,0,1,485.7,450"/>
    <path class="cls-1" d="M410.27,507.49c-1.36,3.79-1.58,4-5.58,3.93a36,36,0,0,1-11.36-2.37,96.18,96.18,0,0,1-22.72-11.57,18.17,18.17,0,0,0-2.07-1.33,2.12,2.12,0,0,0-2.76.68,2.18,2.18,0,0,0,.24,2.87,7.2,7.2,0,0,0,1.23,1,102.87,102.87,0,0,0,24,12.49,37.35,37.35,0,0,0,10.32,2c1.77.1,3.54.26,5.31.4-.18,2.37-.29,2.55-2.11,2.41-25.38-1.94-45.71-12.54-59.16-34.78a58.21,58.21,0,0,1-5.79-13.35,13,13,0,0,1-.26-1.3c2,1.31,3.83,2.7,5.85,3.76a9.94,9.94,0,0,0,6.6.82,86,86,0,0,0,12.19,11.64c10.87,8.59,22.58,15.74,35.79,20.15,3.31,1.1,6.77,1.73,10.27,2.6"/>
    <path class="cls-1" d="M348.24,524.6c5.11-1.58,9.35-3.93,11.21-9.28l4.73.26a20.56,20.56,0,0,0,7.75-.83,3.09,3.09,0,0,1,2.11.19,83.67,83.67,0,0,0,21.77,6.68c3.15.52,6.36.7,9.76,1,.33,3.38-.56,6.87-.43,10.71-1.79.19-3.39.44-5,.51a110.52,110.52,0,0,1-25.85-2.21,166.84,166.84,0,0,1-24-6.28c-.69-.24-1.36-.53-2-.8"/>
    <path class="cls-1" d="M245.48,519.94c-1.87.37-3.41.61-4.91,1a17.82,17.82,0,0,0-8.17,4.47,12.66,12.66,0,0,0-1.59,16.93,18.69,18.69,0,0,0,7.37,6,8.59,8.59,0,0,1,2.22,1.33c-1.12,0-2.25,0-3.37,0-8.68-.42-16.79-2.65-24-7.57a20.8,20.8,0,0,1-6.26-6.34c-2.87-4.75-2.09-9.43,2.15-13A23.23,23.23,0,0,1,219.14,518a47.23,47.23,0,0,1,25.19,1.47c.27.09.54.22,1.15.47"/>
    <path class="cls-1" d="M559.91,238.29a10.9,10.9,0,0,1,1.24-.8,51.34,51.34,0,0,1,23.66-5.11,23.31,23.31,0,0,1,8.52,1.73,16.53,16.53,0,0,1,2.75,1.48,6.66,6.66,0,0,1,2.67,8.45,16.83,16.83,0,0,1-4.6,6.56c-6.28,5.78-13.82,9-22,10.93a7.66,7.66,0,0,1-1.35,0c.77-.71,1.28-1.18,1.78-1.66a15.75,15.75,0,0,0,4.92-7.87,10,10,0,0,0-4-10.89c-3.72-2.68-7.94-3.28-12.39-2.8-.36,0-.72.13-1.08.19l-.09-.22"/>
    <path class="cls-1" d="M474.93,209.3a30.53,30.53,0,0,1,4.6,1.14c3.86,1.52,5.53,5.06,4.49,9.12a15.79,15.79,0,0,1-5.38,8.08A21.46,21.46,0,0,1,465.37,233a15.25,15.25,0,0,1-4.84-.65c-4.73-1.42-6.76-5.29-5.27-10a13.32,13.32,0,0,1,1.87-3.8c4.21-5.84,10.06-8.68,17.8-9.23"/>
    <path class="cls-1" d="M304.54,267.86c-.07,6.51-3.24,11.23-8.7,14.43-3.64,2.12-7,1.52-10-1.45a12.46,12.46,0,0,1-3.5-6.64c-1.22-6.37.07-12.09,4.83-16.68,5.17-5,12.17-3.78,15.55,2.55a15.61,15.61,0,0,1,1.82,7.79"/>
    <path class="cls-1" d="M247.29,546.12a17.62,17.62,0,0,1-10.52-4,13.54,13.54,0,0,1-1.74-1.73c-3.47-4.28-2.76-9.45,1.69-12.73a16,16,0,0,1,8.8-3A18.34,18.34,0,0,1,257.39,528a13.91,13.91,0,0,1,2.79,2.57c3.35,4.09,2.73,9.2-1.48,12.42-3,2.32-6.53,3.2-11.41,3.18"/>
    <path class="cls-1" d="M204.44,494.88c-.69-.15-1.39-.27-2.07-.46a32,32,0,0,1-15.94-9.48,15.29,15.29,0,0,1-3.9-7.69,8.79,8.79,0,0,1,2.42-7.83,14.21,14.21,0,0,1,7.83-4.07c8.62-1.7,16.58.26,24,4.71.09.06.11.24.23.51-1.37,0-2.67,0-4,0a15.56,15.56,0,0,0-8.78,3c-6.3,4.57-7.16,12.69-2,18.68a30.62,30.62,0,0,0,2.42,2.27Z"/>
    <path class="cls-1" d="M436.67,215.3c-.06,7.77-7.18,15.32-14.91,15.48-5.06.1-8.6-2.76-9.32-7.85-1.14-8.11,6.22-16.73,14.37-17.2a8.9,8.9,0,0,1,9.86,9.57"/>
    <path class="cls-1" d="M210.27,414.88c-6.52-1-12,.2-15.26,6-3.12,5.45-2,10.92.89,16.22l-.42.26c-1.77-1.41-3.64-2.74-5.32-4.26a33.17,33.17,0,0,1-9.39-13.49,14.3,14.3,0,0,1-.89-8.13,8,8,0,0,1,6.86-6.49,18.32,18.32,0,0,1,7.55.42,34.48,34.48,0,0,1,16,9.49"/>
    <path class="cls-1" d="M364.64,510.14c-1,.12-1.91.29-2.87.35a3.27,3.27,0,0,1-3.59-1.95c-1.37-2.71-3.85-4.36-6.57-5.54a21.21,21.21,0,0,0-16.38-.46c-3.87,1.45-7,3.85-8,8.13a29.85,29.85,0,0,0-.4,3.87,112.14,112.14,0,0,1-21.28-16,16.53,16.53,0,0,1,1.84.2,28.44,28.44,0,0,0,12.45.36c4.31-.88,7.83-2.88,9.59-7.22,5.81,1.57,11.49,3.61,17.66,1.79a88.49,88.49,0,0,0,17.53,16.5"/>
    <path class="cls-1" d="M365.66,230.57c0-6.62,4.95-13.31,11.16-15,7.57-2,13.71,3.88,11.74,11.46-1.47,5.62-4.75,9.85-10.39,12.09-6.79,2.69-12.51-2.12-12.51-8.59"/>
    <path class="cls-1" d="M514.58,242.86a34.05,34.05,0,0,1-4.13-.75c-5.58-1.73-7.92-7.05-5.4-12.32,2.1-4.4,5.76-7,10.38-8.2a13.7,13.7,0,0,1,9,.41c4.7,1.93,6.73,6.45,4.9,11.18s-5.67,7.56-10.49,9a34.72,34.72,0,0,1-4.26.71"/>
    <path class="cls-1" d="M516.65,216.4a28.63,28.63,0,0,1,8.9-4,29.07,29.07,0,0,1,14.61-.7c.22,0,.45.07.66.13,7.23,2,9.9,7.81,6.74,14.63a24.69,24.69,0,0,1-6.31,8.07A37,37,0,0,1,531,240.86a16.58,16.58,0,0,1-1.62.51c4.63-5.39,7-11,3.65-17.39s-9.54-7.88-16.39-7.58"/>
    <path class="cls-1" d="M564.62,242.65a30.31,30.31,0,0,1,5.09,1.48c3.33,1.53,4.36,4.71,2.92,8.1a13.5,13.5,0,0,1-4.53,5.46,21.94,21.94,0,0,1-11.41,4.2,12,12,0,0,1-8.35-2.65c-2.27-1.69-2.78-3.62-1.83-6.33a11.5,11.5,0,0,1,3.27-4.76c3.94-3.55,8.62-5.24,14.84-5.5"/>
    <path class="cls-1" d="M220,433.09c0,5.81-4.63,9.58-10.35,8.44a14.9,14.9,0,0,1-11.73-11.83c-1.11-7.13,3.8-11.81,10.84-10.33,6.15,1.29,11.25,7.51,11.24,13.72"/>
    <path class="cls-1" d="M344,242.65A15.84,15.84,0,0,1,340,253.18a14.6,14.6,0,0,1-4.26,3.19c-3.67,1.74-7.38.33-9.3-3.28a12.42,12.42,0,0,1-1.23-7.19,15.25,15.25,0,0,1,5.46-10.69,11.73,11.73,0,0,1,3.69-2,6.5,6.5,0,0,1,7.7,2.56,11.91,11.91,0,0,1,2,6.89"/>
    <path class="cls-1" d="M614.68,271.09a33.77,33.77,0,0,1,11.33-4.6,23.31,23.31,0,0,1,11.32,0A16.19,16.19,0,0,1,639,267c4.82,2,6.49,6,4.38,10.74a20.88,20.88,0,0,1-2.46,4c-3.3,4.36-11,9-16.67,9.86.44-.49.73-.84,1.07-1.16a14.41,14.41,0,0,0,4.15-6.55c1.68-5.85-2-11.39-8.34-12.45a61.78,61.78,0,0,0-6.49-.37"/>
    <path class="cls-1" d="M213.92,475.12a13.41,13.41,0,0,1,8.9,3.08c2.72,2.25,4.21,5.11,3.44,8.7-.72,3.31-3.12,5.15-6.19,6.2-5.4,1.83-11.95-.22-15-4.65a7.79,7.79,0,0,1,2.09-11.38,11.77,11.77,0,0,1,5.66-1.94c.36,0,.74,0,1.12,0"/>
    <path class="cls-1" d="M285.14,598.62a14.23,14.23,0,0,1-8.6-3.17c-4.12-3.45-4-8.59.23-11.88,4.82-3.74,13.18-3.36,17.68.78,3.67,3.39,3.71,7.24.13,10.7a12.7,12.7,0,0,1-9.44,3.57"/>
    <path class="cls-1" d="M200.24,374.87c-.42-.75-.89-1.49-1.27-2.26a29.24,29.24,0,0,1-3.34-11.77,24.74,24.74,0,0,1,.17-4.47c.93-6.7,5.9-9.46,12-6.64,5,2.3,8.44,6.32,11.18,11a22.16,22.16,0,0,1,2.87,6.79l-2.2-1.8a13.93,13.93,0,0,0-6.89-3c-7.08-.9-11.47,3.77-12.09,9.95-.06.71-.08,1.42-.13,2.13l-.35.11"/>
    <path class="cls-1" d="M282.25,576.4c-1.65.54-3.37,1-5,1.66a13.66,13.66,0,0,0-7,6.35c-2.47,4.8-1.27,10.39,3,14.22a5.44,5.44,0,0,1,1.52,1.81c-1.63-.29-3.28-.5-4.89-.86a23.42,23.42,0,0,1-9.72-4.4,17.69,17.69,0,0,1-3.51-3.72,7.62,7.62,0,0,1,.75-9.72,17.16,17.16,0,0,1,7.92-4.88,32.67,32.67,0,0,1,15.95-.92,2.38,2.38,0,0,1,.63.23,1.77,1.77,0,0,1,.32.23"/>
    <path class="cls-1" d="M645.12,321.06a22.75,22.75,0,0,0,2.77-2.59,23.17,23.17,0,0,0,3.25-5c2.31-5.77-1-11.4-7.2-12.32-1.68-.25-3.4-.22-5.3-.34a15.56,15.56,0,0,1,1.46-.95c4.62-2.29,9.45-3.82,14.65-3.55a17.89,17.89,0,0,1,5.63,1.25c3.41,1.35,4.77,4.33,3.77,7.84a14.31,14.31,0,0,1-1.7,3.88c-4.12,6.3-10.22,9.82-17.33,11.82"/>
    <path class="cls-1" d="M299.87,379.18a4.68,4.68,0,0,1-.82-.61c-3.69-4.83-5.17-10.21-3.84-16.22a12,12,0,0,1,3.31-5.77c2.47-2.51,5.64-3,8.94-2.25,5.27,1.18,10.39,6.89,11.36,12.65-4.91-3.58-10-4.26-14.88-.6-4.23,3.13-5.24,7.59-4.07,12.8"/>
    <path class="cls-1" d="M222.34,379.74a6.31,6.31,0,0,1-8.91,6.09c-4.48-1.91-8.15-7-8.21-11.91a10.22,10.22,0,0,1,0-1.11c.5-4.42,3.95-6.66,8.21-5.35,4.92,1.53,8.89,7,8.88,12.28"/>
    <path class="cls-1" d="M242.19,327.07c-3.19-3.31-6.68-6.14-11.58-4.2-4.23,1.67-5.07,5.53-5.26,9.7-.22-.11-.47-.14-.54-.27-2.68-5.23-4.14-10.71-3-16.63,1.22-6.39,5.87-8.33,11.19-4.63,3.87,2.7,6.32,6.52,8.07,10.81.67,1.62,1.11,3.35,1.65,5l-.51.19"/>
    <path class="cls-1" d="M612.05,291.17a26.82,26.82,0,0,1-3.47-.85c-3.14-1.18-4.3-4-3-7.1a10.12,10.12,0,0,1,1-1.76,14.47,14.47,0,0,1,14.05-5.5c4.48,1,6.13,4.83,3.69,8.72a13.81,13.81,0,0,1-9.1,6c-.94.22-1.92.29-3.13.46"/>
    <path class="cls-1" d="M321.71,625a28.81,28.81,0,0,1-7.91.07,33.93,33.93,0,0,1-6.42-1.88,7.55,7.55,0,0,1-2.51-1.83c-1.79-1.76-2.21-3.75-1-5.93a14,14,0,0,1,3.08-3.78c3.49-3,7.73-4.48,12.21-5.24a23,23,0,0,1,5.95-.22,10.22,10.22,0,0,1-1,.83,15.63,15.63,0,0,0-5.51,5.18c-2.49,4-2.07,9,2.17,11.9.23.16.41.38,1,.9"/>
    <path class="cls-1" d="M249.12,295.32c-1.36-5.93-1.61-11.73.82-17.34a14,14,0,0,1,2.64-3.55,3.89,3.89,0,0,1,4.93-.8,15.56,15.56,0,0,1,3.89,2.92c2.75,2.78,5.56,9.15,6,14.57-3.07-3-6.32-5.12-10.61-3.94-4.14,1.12-6.16,4.38-7.69,8.14"/>
    <path class="cls-1" d="M301.5,403c-8.06-1-14.57,5.46-11.35,14.53a9.83,9.83,0,0,1-1.45-.56c-4.36-2.69-7.62-6.27-8.68-11.45-1-4.85,1.83-8.71,6.73-9.15,5.93-.54,10.48,2.11,14.75,6.63"/>
    <path class="cls-1" d="M633.12,320.36a23,23,0,0,1-3.67-1.08,3.72,3.72,0,0,1-2.06-4.67,9.33,9.33,0,0,1,.83-2.07c2.77-5,10.23-8,15-7,3.78.85,5.25,3.55,3.44,7-2.24,4.27-6.09,6.4-10.65,7.4-.8.18-1.62.24-2.85.4"/>
    <path class="cls-1" d="M575.54,591.34c6.46.15,12.59,1.27,18.22,4.31a16.57,16.57,0,0,1,3.58,2.66c1.95,1.9,1.67,3.42-.73,4.79a11.27,11.27,0,0,1-2.25,1c-6.07,1.85-12.17,1.5-18.69.18,2.53-1.74,4.66-3.38,4.36-6.52-.29-3-2.37-4.64-4.49-6.4"/>
    <path class="cls-1" d="M438.9,293.93a19.92,19.92,0,0,1,10.68-13.83,10.48,10.48,0,0,1,6.13-.87,5.22,5.22,0,0,1,4.29,3.23,12.8,12.8,0,0,1,1.05,4.07,16,16,0,0,1-3.63,11.1c0-.47-.06-.94-.12-1.4-.71-5.07-4.79-7.46-9.28-7.05a13.48,13.48,0,0,0-8.16,3.84l-1,.91"/>
    <path class="cls-1" d="M266.44,302.61a9.28,9.28,0,0,1-2.15,6.45c-2.24,2.45-5.06,2.55-7.47.25-3.61-3.45-4.66-10.39-2.23-14.79,2-3.63,5.61-4.15,8.5-1.15a12.61,12.61,0,0,1,3.35,9.24"/>
    <path class="cls-1" d="M323.18,236.9c1.86-6.86,5.3-12.52,12.08-15.4,5.62-2.39,10.86-.23,13.34,5.35,2.12,4.73,1.93,9.59.53,14.46-.05.19-.26.33-.32.4a53.12,53.12,0,0,0-1.68-6c-2.11-5.17-6.91-8.09-12.05-7.4a14.86,14.86,0,0,0-9.35,5.3c-.91,1-1.7,2.18-2.55,3.28"/>
    <path class="cls-1" d="M411.71,622.48c3.57,0,5.09,1.89,4.18,5.36a10.46,10.46,0,0,1-1.39,3A16.22,16.22,0,0,1,404.28,638c-.22,0-.43.12-.65.15-4.42.62-6.58-2.06-5.06-6.24,1.82-5,8-9.43,13.14-9.43"/>
    <path class="cls-1" d="M625,511.6c3-9.31-2.41-14.82-10.12-15.07.13-.21.2-.44.35-.55,4-3,8.33-4.61,13.37-3.79,4.71.76,7.36,4.52,6.14,9.1-1.34,5-5,8-9.74,10.31"/>
    <path class="cls-1" d="M488,222.7a38.06,38.06,0,0,0,.8-4.19c.52-6.6-3.52-11.73-10.23-13.19a22.59,22.59,0,0,0-11.28.64,11.09,11.09,0,0,1-1.93.46,28.46,28.46,0,0,1,8.94-4.77,23.08,23.08,0,0,1,10.15-1.18c5.6.61,10.45,4.16,9.33,11.65-.54,3.65-3.16,8.54-5.78,10.58"/>
    <path class="cls-1" d="M372.57,213c3.46-3.87,7.54-6.57,12.72-7.18A14.08,14.08,0,0,1,390,206a8.49,8.49,0,0,1,6.46,6.23c1.66,5.69,0,10.84-2.71,15.75h-.54c0-1.15-.06-2.3-.11-3.45a13.76,13.76,0,0,0-3.46-8.79c-3.83-4.35-8.76-5.23-15-3.46-.69.2-1.36.47-2.05.71"/>
    <path class="cls-1" d="M440.72,220.66c3.31-14.23-7.21-22.9-20.24-18.34,3.74-3.31,7.95-5.62,13.09-5.83a15.76,15.76,0,0,1,4,.14,9.57,9.57,0,0,1,7.85,8.47c.89,5.89-1.26,11-4.71,15.56"/>
    <path class="cls-1" d="M492.44,302.39c-.11-6.66-5.42-11.91-14.95-8.66.59-.85.94-1.43,1.37-1.94,3.15-3.76,6.84-6.87,11.87-7.36s7.59,1.69,7.51,6.41c-.08,4-2.82,9.54-5.8,11.55"/>
    <path class="cls-1" d="M382,316c-1.77-9-10.92-13.15-17.29-3.47.25-5.27,1.56-9.7,5-13.37A8.91,8.91,0,0,1,371,298c3.21-2.36,6.6-1.93,9.11,1.16a13.42,13.42,0,0,1,2.7,6.33A19.78,19.78,0,0,1,382,316"/>
    <path class="cls-1" d="M539.84,572.29c6.1-4.32,6.25-8.86.7-13.92.88-.58,1.77-.16,2.57-.09a22.38,22.38,0,0,1,11.21,4.07,12.87,12.87,0,0,1,2.44,2.28c2,2.52,1.62,5-1.15,6.59a14,14,0,0,1-3.93,1.52,25.16,25.16,0,0,1-11.84-.45"/>
    <path class="cls-1" d="M347.66,345.55a22.48,22.48,0,0,1-.69,3.17c-1.27,3.63-4.45,4.52-7.42,2.09a10,10,0,0,1-2.09-2.31,12.75,12.75,0,0,1-1.94-10.25,8.39,8.39,0,0,1,.62-1.67c1.38-2.7,3.79-3.42,6.33-1.77a10.87,10.87,0,0,1,2.57,2.45c1.75,2.26,2.44,4.91,2.62,8.29"/>
    <path class="cls-1" d="M513.61,309.84c3.63-4.19,8-6.94,13.61-7.24,4.86-.26,7.7,2.87,6.84,7.68-.95,5.35-4.13,9.33-8.6,12.31,0,0-.12,0-.33-.11a11.79,11.79,0,0,0,.61-1.82,22.72,22.72,0,0,0,.73-5.05c-.31-5.22-5.12-8.23-10.42-6.67-.83.25-1.63.6-2.44.9"/>
    <path class="cls-1" d="M549.7,343.66c1.21-7.43-.64-9.61-8.63-9.8a10.17,10.17,0,0,1,1.12-1.14,26.5,26.5,0,0,1,11.41-4.9,10.71,10.71,0,0,1,5.53.37,3.33,3.33,0,0,1,2.25,4.28,9.88,9.88,0,0,1-.6,1.68c-1.74,3.82-6.89,8.22-11.08,9.51"/>
    <path class="cls-1" d="M303.94,375.42a6.88,6.88,0,0,1,7.07-6.85,6.94,6.94,0,0,1-.18,13.88,6.89,6.89,0,0,1-6.89-7"/>
    <path class="cls-1" d="M327,621.36a16.62,16.62,0,0,1-2.64-.56c-2.52-.9-3.34-2.91-2.3-5.35a8.39,8.39,0,0,1,.51-1c2.15-3.49,7.61-5.68,11.68-5.09,4.44.64,4.7,4.93,2.74,7.39a12.14,12.14,0,0,1-7.79,4.41c-.58.1-1.19.1-2.2.19"/>
    <path class="cls-1" d="M596.34,490.52c-1.2-5.22-4.68-7.2-9.37-7.45-2-.11-4.09.16-6.33.26a23.81,23.81,0,0,1,9-5.43,51.3,51.3,0,0,1,6.76-1.4,4.88,4.88,0,0,1,1.57.05c4.17.56,5.66,3.13,4,7a17.44,17.44,0,0,1-5.62,6.94"/>
    <path class="cls-1" d="M434.3,369.14a3.75,3.75,0,0,1-.73-.49c-2.45-3-6-2.86-8.75-.6a24.36,24.36,0,0,0-2.87,3.12c-.41.48-.73,1-1.34,1.91a20.25,20.25,0,0,1,.69-7.69,43,43,0,0,1,2.49-6.93,11.6,11.6,0,0,1,2.79-3.46c1.51-1.37,3.15-1.14,4.53.37a6,6,0,0,1,.8,1.08c2.18,3.91,2.66,8.11,2.39,12.69"/>
    <path class="cls-1" d="M630.23,571.92c4.8-5,5.21-10.24-.2-14.32a10.06,10.06,0,0,1,1.47-.44c3.36-.43,6.71-.56,10,.68,4.6,1.75,5.39,5.14,1.91,8.59s-7.88,5-13.13,5.49"/>
    <path class="cls-1" d="M345.9,331.29c-7.66-4.23-14-.88-15.57,9.22-1.82-5.26-2.53-10.2-.74-15.23a8.3,8.3,0,0,1,1.77-2.81,4.53,4.53,0,0,1,4.72-1.27,11.61,11.61,0,0,1,5.28,3.26,21.29,21.29,0,0,1,4.54,6.83"/>
    <path class="cls-1" d="M468.81,375.58c-2.23-6.43-4.43-7.46-12-5.56,2.67-4.64,5.62-8.65,10.27-11.11a5.81,5.81,0,0,1,1-.42c2.44-.81,4,0,4.42,2.56a15.31,15.31,0,0,1-.42,6.66,27.4,27.4,0,0,1-3.34,7.87"/>
    <path class="cls-1" d="M396.09,626.58c-.72,1.59-1.39,2.84-1.87,4.17-2.56,7,2.26,12.93,10,11.9a3,3,0,0,1,1.65.07c-.95.52-1.87,1.11-2.86,1.55-3.45,1.54-7,2.59-10.84,1.72-3.57-.79-5.38-3.47-4.77-7.11a16,16,0,0,1,2.54-6.16,21.13,21.13,0,0,1,6.14-6.14"/>
    <path class="cls-1" d="M304.75,254.78c-.34-.29-.68-.57-1-.86-5.63-5.4-13.06-5.19-18.88-.46a20,20,0,0,0-5.51,7.26c-.15.34-.35.65-.56,1.06,0-3.69,2.31-10.1,4.86-12.26a42.45,42.45,0,0,1,7.79-5.23c1.24-.63,3.12-.39,4.6-.07,4.14.92,8.39,6,8.87,10.29,0,.05-.07.11-.18.27"/>
    <path class="cls-1" d="M403,377.45c-5.9-1.37-7.3-.74-10.19,4.58a11,11,0,0,1-.68-1.58c-1.08-3.91-1.82-7.87-.93-11.94a11.31,11.31,0,0,1,.91-2.74c.95-1.91,2.26-2.22,4-1.11a4.44,4.44,0,0,1,.54.4c3.62,3.32,5.23,7.62,6.33,12.39"/>
    <path class="cls-1" d="M241.24,337.08c-.09,2.21-.31,4-2.27,4.89a2.71,2.71,0,0,1-2.58.1,16.56,16.56,0,0,1-1.76-.95c-3.32-2.41-5.34-7.49-4.44-11.07.79-3.17,2.93-4.14,5.71-2.41a11.43,11.43,0,0,1,5.34,9.44"/>
    <path class="cls-1" d="M310.72,479.4c-6.5,4.81-5.88,10.27-1.45,14.93-.67-.12-1.12-.16-1.55-.27a19.23,19.23,0,0,1-7.82-3.77,15.91,15.91,0,0,1-3.41-4.08,3.4,3.4,0,0,1,1.11-4.77,12.19,12.19,0,0,1,3.56-1.8,18.25,18.25,0,0,1,9.56-.24"/>
    <path class="cls-1" d="M420.22,300.35c-.27-1-.45-1.81-.68-2.57a8.91,8.91,0,0,0-3.92-5.52,6.62,6.62,0,0,0-7.2.23,12.46,12.46,0,0,0-4.57,5.11c-.38.71-.71,1.45-1.1,2.26-.16-.2-.31-.29-.3-.38a20,20,0,0,1,5.71-12.82c4.32-4.32,9.13-3.27,11.47,2.39a18.06,18.06,0,0,1,.59,11.3"/>
    <path class="cls-1" d="M292.29,437.91c-8.43,4.55-9.5,7.76-4.87,15.35-4.54-2-8.23-4.4-10.18-8.75-1.34-3-.29-5.43,2.73-6.8s6.27-1.17,9.46-.59c.92.17,1.81.5,2.86.79"/>
    <path class="cls-1" d="M415.56,301.71a13.78,13.78,0,0,1-2.8,8.87c-.89,1.13-2,2.21-3.54,1.92s-2.3-1.84-2.63-3.31A13.25,13.25,0,0,1,409,298c.9-1.2,2-2.38,3.71-2s2.19,1.92,2.54,3.4a16.12,16.12,0,0,1,.31,2.33"/>
    <path class="cls-1" d="M298.18,452.9a11.58,11.58,0,0,1-7.39-3.13c-2.58-2.58-1.9-5.55,1.55-6.77a9.67,9.67,0,0,1,9.66,1.73c1.53,1.21,2.53,3,1.59,5.11a3.29,3.29,0,0,1-1.25,1.67,35,35,0,0,1-4.16,1.39"/>
    <path class="cls-1" d="M480.06,308.68c-3.65-.06-5.66-3.05-4.37-6.47s5.48-5.77,8.8-4.77a4.25,4.25,0,0,1,3.1,5.36,7.93,7.93,0,0,1-7.53,5.88"/>
    <path class="cls-1" d="M318.14,492.63a8.23,8.23,0,0,1-6.31-2.36c-2.24-2.22-1.84-4.93.89-6.51a8.81,8.81,0,0,1,10.92,2.16c1.35,1.71,1.29,3.13-.22,4.75a6.89,6.89,0,0,1-5.28,2"/>
    <path class="cls-1" d="M581,496.67a19.5,19.5,0,0,1-2.87-.6c-2.28-.75-2.89-2.87-1.4-4.79a9.84,9.84,0,0,1,5.66-3.36,10.87,10.87,0,0,1,6.81.17c2.79,1.1,3.25,3,1.18,5.13-2.45,2.51-5.6,3.25-9.38,3.45"/>
    <path class="cls-1" d="M541.87,533.46a19.19,19.19,0,0,1,12.23-.35c4.23,1.4,4.87,4.14,1.72,7.33-2.41,2.44-5.4,3.86-9.1,5,1.47-2.59,2.33-4.89,1.08-7.4s-3.46-3.58-5.93-4.57"/>
    <path class="cls-1" d="M440.27,301.56c.16-3.11,3.34-6.66,6.8-7.58a11.55,11.55,0,0,1,1.33-.24c3-.4,4.92,1.75,4.21,4.67a9.67,9.67,0,0,1-8.23,7c-2.5.15-4.28-1.15-4.11-3.82"/>
    <path class="cls-1" d="M359.8,420.44c-7.13-1.59-8.81-.7-11.53,5.85-1.86-3.45-3.09-6.92-2.82-10.77.23-3.3,2.15-4.53,5.21-3.34,3.93,1.53,6.53,4.57,9.14,8.26"/>
    <path class="cls-1" d="M510.81,321.65c0-3.7,3.53-7.85,7.11-8.44,2.67-.44,4.14.84,4.08,3.55-.09,3.76-3.71,7.88-7.43,8.45-2.24.34-3.78-1.12-3.76-3.56"/>
    <path class="cls-1" d="M551.45,489.49c-.85-7.2-4.56-9.67-12.49-8.65a10.3,10.3,0,0,1,1-1.23,15.75,15.75,0,0,1,8.25-4.23c4-.59,6.76,1.69,6.66,5.52-.08,3.11-1.32,5.73-3.41,8.59"/>
    <path class="cls-1" d="M377.29,317c0,3-.49,4.89-1.89,6.47-1.75,2-3.87,1.87-5.51-.19a8.72,8.72,0,0,1,.37-10.4c1.81-2,4.06-1.83,5.66.37a7.58,7.58,0,0,1,1.37,3.75"/>
    <path class="cls-1" d="M304.54,412.79a5.39,5.39,0,0,1-5.39,5.45,5.43,5.43,0,0,1-.07-10.85,5.43,5.43,0,0,1,5.46,5.4"/>
    <path class="cls-1" d="M621.37,506.71a5.23,5.23,0,0,1-5.06,5.21,5.45,5.45,0,0,1-5.49-5.32,5.28,5.28,0,1,1,10.55.11"/>
    <path class="cls-1" d="M363.4,433.16c0,3.19-.89,3.94-3.21,3.27-3.62-1-5.61-3.75-6.7-7.17a7.41,7.41,0,0,1-.27-3.07c.19-1.47,1-2,2.5-1.91a4.75,4.75,0,0,1,1.7.44,10.52,10.52,0,0,1,6,8.44"/>
    <path class="cls-1" d="M539.39,494.93c-3.23-.08-4.8-2.57-3.51-5.56a7.6,7.6,0,0,1,7-4.35c3.1.18,4.63,2.63,3.44,5.51a7.31,7.31,0,0,1-6.93,4.4"/>
    <path class="cls-1" d="M464,377.51a10,10,0,0,1-5.71,7.87c-2.47,1.2-4.21.07-4.11-2.67a9.79,9.79,0,0,1,5.51-8.64c2.63-1.41,4.36-.21,4.31,3.44"/>
    <path class="cls-1" d="M371.06,398.52a5,5,0,0,1,0-.67c.24-2.42,1.54-3.12,3.65-2,3,1.63,5.63,6.76,5.21,10.08-.32,2.48-1.83,3.26-3.89,1.85-3.24-2.21-4.7-5.45-5-9.29"/>
    <path class="cls-1" d="M349.33,517.35c-2.77-.17-4.85-.7-6.53-2.24-2-1.85-1.74-3.76.68-4.95a9.34,9.34,0,0,1,9.64,1.48c1.94,1.87,1.62,3.85-.88,4.92a17.89,17.89,0,0,1-2.91.79"/>
    <path class="cls-1" d="M535.26,545.2c-.7-.07-1.51-.18-2.33-.23a2.82,2.82,0,0,1-2.53-2.16c-.4-1.12.29-1.85,1-2.52,2.39-2.28,7.81-3.12,10.72-1.68,2,1,2.31,2.49.66,4-2.07,1.93-4.65,2.53-7.52,2.57"/>
    <path class="cls-1" d="M366.41,397.43a19.79,19.79,0,0,1-2.2-8.76,8.72,8.72,0,0,1,.28-2.22c.53-1.92,1.56-2.53,3.54-2.14a5.63,5.63,0,0,1,1.47.53,19.25,19.25,0,0,1,6.89,6.53c-2.46-.6-4.56-1-6.55.2s-2.81,3.21-3.43,5.86"/>
    <path class="cls-1" d="M430.87,374.74a13.46,13.46,0,0,1-2.23,7.62,9.7,9.7,0,0,1-1.94,2.15c-1.3,1-2.14.79-2.74-.75a6.46,6.46,0,0,1-.41-2,13.13,13.13,0,0,1,2.54-8.64,7.08,7.08,0,0,1,1.39-1.45c1.52-1.2,2.56-.86,3.1,1a11,11,0,0,1,.29,2"/>
    <path class="cls-1" d="M622.48,570a13.44,13.44,0,0,1-2.14-.66,2.68,2.68,0,0,1-1.38-3.41c.9-3.15,5.27-5.36,8.36-4.23a2.9,2.9,0,0,1,1.76,4.33c-1.28,2.63-3.62,3.63-6.6,4"/>
    <path class="cls-1" d="M570.8,600.44c-2.93-.33-5.52-.75-7.6-2.55-1.65-1.43-1.53-2.55.51-3.24a10.87,10.87,0,0,1,10.75,1.89c1.64,1.3,1.34,2.52-.69,3.23a21.64,21.64,0,0,1-3,.67"/>
    <path class="cls-1" d="M340.81,519.66a12,12,0,0,1-7.34-3.15c-2.75-2.66-2.62-5.65.36-8.05A12.35,12.35,0,0,1,341,506c-2.2,1.75-4.1,3.67-4.09,6.67s1.76,5.11,3.89,7"/>
    <path class="cls-1" d="M536,568.15a7.7,7.7,0,0,1-5.79-2.5c-1.81-2-1.24-4,1.34-4.75a7.13,7.13,0,0,1,7.35,2.19c2,2.08,1.27,4.33-1.55,4.94a11.88,11.88,0,0,1-1.35.12"/>
    <path class="cls-1" d="M350.4,454.27c-5.79-.94-8.11,1.13-9.16,8.2-1.95-3.35-2.89-6.5-1.64-10a3.76,3.76,0,0,1,4.73-2.4,10.67,10.67,0,0,1,6.07,4.17"/>
    <path class="cls-1" d="M543.62,338.34a5.89,5.89,0,0,1,1.87,1.07c.72.79.14,1.74-.33,2.48a7.72,7.72,0,0,1-5.87,3.63,2.47,2.47,0,0,1-2.58-.95c-.59-.91-.1-1.77.36-2.51,1.4-2.24,3.5-3.36,6.55-3.72"/>
    <path class="cls-1" d="M397.16,384.69a15.25,15.25,0,0,1,.86-2.59c.52-1,1.28-1.1,2.26-.54,2.65,1.51,3.6,6.3,1.73,8.73-1.06,1.37-1.88,1.38-3,0a9.4,9.4,0,0,1-1.82-5.58"/>
    <path class="cls-1" d="M352.41,464.86a6.83,6.83,0,0,1-.38,1.43,1.54,1.54,0,0,1-2,.91c-2.56-.73-4.65-4.71-3.78-7.26a1.75,1.75,0,0,1,2.62-1.17c1.92.8,3.54,3.44,3.54,6.09"/>
  </g>
</svg>
