<svg id="Livello_1" data-name="Livello 1" xmlns="http://www.w3.org/2000/svg" viewBox="0 0 841.89 841.89">
  <defs>
    <style>
      .cls-1 {
        fill: #231f20;
      }
    </style>
  </defs>
  <title>Glos</title>
  <g>
    <path class="cls-1" d="M581.63,306.35a10.93,10.93,0,0,1-2.09,2.1l-28.6,26.18-65.89,60.28c-1.2,1.09-2.43,2.16-3.7,3.18a240.19,240.19,0,0,0-23,21.17c-.26.28-.55.54-.78.84a2.33,2.33,0,0,0,1.56,3.86,2.15,2.15,0,0,0,1.34-.33,10.38,10.38,0,0,0,1.45-1.37c7.23-7.4,14.84-14.39,22.51-21.33a19,19,0,0,1,1.76-1.47c14.4-10.8,30.16-18.82,47.69-23.16a101.21,101.21,0,0,1,26.73-3.09,85.89,85.89,0,0,1,17.63,2.18,10.56,10.56,0,0,1,1.09.34c.06,0,.08.16.14.28-.06.83-.84.91-1.38,1.2q-10,5.39-20,10.75-34.26,18.41-68.53,36.79c-3.88,2.08-7.88,3.92-11.76,6-5.4,2.88-10.75,5.88-16.11,8.83-2.85,1.57-5.69,3.16-8.53,4.74a11.67,11.67,0,0,0-1.68,1.07,1.92,1.92,0,0,0,1.86,3.24,20.54,20.54,0,0,0,2.32-1.11c7-3.75,14.05-7.41,21-11.3a67,67,0,0,1,15.42-6.14,122.49,122.49,0,0,1,40.38-3.94c4.1.25,8.16,1,12.24,1.57a6.63,6.63,0,0,1,1,.3c.06.67-.37.71-.72.78l-34.42,6.38c-1.41.27-2.83.5-4.23.79a6.09,6.09,0,0,0-1.63.52,1.86,1.86,0,0,0-.25,3.12,6.28,6.28,0,0,0,2.11.77c1.76.43,3.58.66,5.31,1.2a14.36,14.36,0,0,1,3.58,1.76,2.28,2.28,0,0,1,.61,3.5,9.54,9.54,0,0,1-2.33,2.49,53.05,53.05,0,0,1-6.11,3.73,73.31,73.31,0,0,1-16.26,5.56,111.77,111.77,0,0,1-19.86,2.8,58.19,58.19,0,0,1-14-.81,3.65,3.65,0,0,0-3.64,1.12,2.58,2.58,0,0,0-.74,2.63c.08.27.15.55.25.82a65.54,65.54,0,0,1,3.34,25.73,54.23,54.23,0,0,1-.7,5.69,12.49,12.49,0,0,1-2.35,5.19,21.77,21.77,0,0,0-1.28,1.9,1.8,1.8,0,0,0,.21,2.14,2,2,0,0,0,2.34.54,10.94,10.94,0,0,0,1.4-1c1.09-.77,2.12-1.64,3.28-2.3q35.73-20.49,71.49-40.93a37.75,37.75,0,0,0,3.54-1.78,25.3,25.3,0,0,0,2.49-2.75,24.08,24.08,0,0,1,7.38-4.9,37.36,37.36,0,0,1,19.86-3.24,17.3,17.3,0,0,1,6.31,1.81,12.85,12.85,0,0,1,3,2.16A5.28,5.28,0,0,1,575,459a10.39,10.39,0,0,1-2.26,3.95,19.62,19.62,0,0,1-5.32,4.32,36.28,36.28,0,0,1-23.75,4.67,32.86,32.86,0,0,1-4.43-1.17,12.19,12.19,0,0,0-2.48-.38,6,6,0,0,0-4.19,1.43q-22,15.62-44.07,31.17-26.71,18.88-53.45,37.78c-2.89,2-5.85,4-8.86,5.85a16.88,16.88,0,0,1-4.45,1.92c-3.09.83-5.49-.62-6.4-3.7a13,13,0,0,1-.47-5.12,31.52,31.52,0,0,1,4.66-13.14c.5-.81,1.21-1.48,1.78-2.24a2,2,0,0,0,.11-2.42,1.94,1.94,0,0,0-3.36-.26c-1.91,2.48-4.71,3.54-7.33,4.87a29.26,29.26,0,0,1-10.2,3.26c-.24-1-.49-2-.73-3a26.77,26.77,0,0,0-7.74-13.5,11.11,11.11,0,0,0-1.78-1.44,1.88,1.88,0,0,0-2.55.51,1.8,1.8,0,0,0,.05,2.38c.56.64,1.24,1.19,1.85,1.8a22.75,22.75,0,0,1,6.76,14.51,14,14,0,0,1-1,6.74,49.66,49.66,0,0,1-2.15,4.69,51.69,51.69,0,0,1-14.37,16.58,25.37,25.37,0,0,1-8.07,4.28,5.94,5.94,0,0,1-3.37.12c-2.33-.63-3.07-.08-3.4,2.4a46.85,46.85,0,0,0-.43,5.15A93,93,0,0,0,365,588.17c.8,4.81,1.58,9.63,2.25,14.46a26.05,26.05,0,0,1,.13,5.15,106.38,106.38,0,0,1-2,15.06,60.22,60.22,0,0,0-1,7.09c-.44,5.05-.91,10.11-1.08,15.18a64,64,0,0,0,4,25.63,69.78,69.78,0,0,0,3.68,7.77c1.34,2.5,3.19,3.23,6,2.69a45.74,45.74,0,0,1,21.87.92,34,34,0,0,1,5.56,2.28,15.27,15.27,0,0,1,3.49,2.48c3,2.82,2.94,5.69-.17,8.31a14.75,14.75,0,0,1-3.89,2.4,38.44,38.44,0,0,1-6.82,2.12,45,45,0,0,1-20.75-.88,5.72,5.72,0,0,1-2.95-1.62,13,13,0,0,0-8.58-4.2c-3.51-.36-7.06-.41-10.59-.58-.94,0-1.88,0-2.76-.06A188.22,188.22,0,0,0,350,663.9c-.57-5.14-1.08-10.28-1.82-15.39q-1.46-10.08-3.26-20.11c-1.11-6.21-2.32-12.41-3.71-18.56a65.26,65.26,0,0,0-6.81-17.91,40.59,40.59,0,0,1-1.9-3.86,42.72,42.72,0,0,0-6.83-10.57c-1.1-1.32-2.18-2.66-3.19-4.06a8.44,8.44,0,0,1-1-7.93A15.27,15.27,0,0,1,326,559a82.76,82.76,0,0,1,12.12-8.67,37.35,37.35,0,0,0,14.33-15.66,19.41,19.41,0,0,0,2.07-11.13,10.45,10.45,0,0,0-6.54-8.76,25.68,25.68,0,0,0-4.36-1.38,59.9,59.9,0,0,0-20.55-.92,96.18,96.18,0,0,0-30.35,9.18c-29.6,14.12-56.29,41.22-70,71a114.19,114.19,0,0,0-8.78,29,39.47,39.47,0,0,0-.59,4.84,10.37,10.37,0,0,0,.33,3.38,1.81,1.81,0,0,0,3.05.62,10.45,10.45,0,0,0,1.34-2.18,169.32,169.32,0,0,1,16-25.15,105.68,105.68,0,0,1,16.19-17,58.26,58.26,0,0,1,9.47-6.47,31.78,31.78,0,0,1,9.67-3.5c6.79-1.16,12.25,1,16.23,6.67a28.11,28.11,0,0,1,3.88,8.59,51.42,51.42,0,0,1,1.8,11,110.72,110.72,0,0,1-3.22,31.87,185.91,185.91,0,0,1-22.93,54.83,20,20,0,0,0-1.34,2.21,2.69,2.69,0,0,0,2.32,3.94c.66.07,1.33,0,2,.05L361.42,697c1.06,0,2.11,0,3.16.15a9.2,9.2,0,0,1,5,2.08c2.34,1.92,2.76,4.37,1,6.84a12.05,12.05,0,0,1-2.61,2.63,14.78,14.78,0,0,1-7.15,2.75,26.33,26.33,0,0,1-3.44.17q-43.22-.37-86.43-.79-23.68-.21-47.38-.46c-2.79,0-3.62-.72-3.84-3.42-.34-4.33,2.52-9.1,5.75-10.46,6.57-2.76,11.85-7.31,16.66-12.47a93.33,93.33,0,0,0,12.28-16.92A142.49,142.49,0,0,0,270,626.78a152.05,152.05,0,0,0,2.69-16.41,7.08,7.08,0,0,0,0-1.72,2.1,2.1,0,0,0-1.76-1.65,2,2,0,0,0-2,1.36,9.44,9.44,0,0,0-.26,1.69,147.29,147.29,0,0,1-4.44,23.09,137.27,137.27,0,0,1-12.6,30.72,93.15,93.15,0,0,1-12.51,17.46,51.57,51.57,0,0,1-10.7,9.07,28.51,28.51,0,0,1-9.78,4,16.45,16.45,0,0,1-9.82-1.1,15.58,15.58,0,0,0-1.57-.69,1.93,1.93,0,0,0-2.41,1,1.82,1.82,0,0,0,.53,2.31,10.59,10.59,0,0,0,1,.63,8,8,0,0,1,.71.75c-.59.3-1.05.58-1.55.78a153.34,153.34,0,0,1-39.8,10.59,130.65,130.65,0,0,1-19.77,1,96.34,96.34,0,0,1-29.57-5.12,57.61,57.61,0,0,1-19.13-10.79A36.91,36.91,0,0,1,84.79,673a37.37,37.37,0,0,1,1.11-19,74.33,74.33,0,0,1,17.82-29.77,33.41,33.41,0,0,1,7.25-5.59,15.94,15.94,0,0,1,6.77-2.19,9.5,9.5,0,0,1,4.51.62,4.73,4.73,0,0,1,3.16,4.94,8.1,8.1,0,0,1-1.47,4.29,15.57,15.57,0,0,1-5.16,4.89,43.37,43.37,0,0,0-10.06,8,37.53,37.53,0,0,0-7.26,11c-3.84,9.36-2.82,18.15,3.23,26.3a35.51,35.51,0,0,0,9,8.35A58.59,58.59,0,0,0,133.47,693,89.48,89.48,0,0,0,160,694.9a98.26,98.26,0,0,0,28.72-6.47c.71-.28,1.43-.56,2.12-.89,2.66-1.28,3.35-3.13,2.11-5.85a125.64,125.64,0,0,1-8.82-27.24,150.29,150.29,0,0,1-2.67-19.61,153.85,153.85,0,0,1-.36-16.35A184.46,184.46,0,0,1,193,559.4a176.51,176.51,0,0,1,34.6-57.1c11.86-13,25.5-23.68,41.47-31.24l.65-.27a10.47,10.47,0,0,1,1.06.82c7,6.81,15.45,10.83,24.89,12.92a72.72,72.72,0,0,0,23.4,1.33c2.28-.24,4.56-.49,6.84-.79a9.31,9.31,0,0,0,2.21-.56,1.84,1.84,0,0,0,.95-2.18,1.76,1.76,0,0,0-1.66-1.35,21.92,21.92,0,0,0-3.13.27,80.22,80.22,0,0,1-14.6.95c-9.09-.29-17.88-1.92-26-6.2a39.12,39.12,0,0,1-20.85-27,8,8,0,0,1-.11-1.39c0-.07.1-.16.22-.34.68.23,1.4.44,2.11.71a61.75,61.75,0,0,0,19.33,3.89A63.94,63.94,0,0,0,306,449.51a32,32,0,0,0,9.58-4.48,19.15,19.15,0,0,0,2.62-2.21c1.56-1.61,1.53-3.39-.25-4.66a39.9,39.9,0,0,0-5.87-3.56A57.11,57.11,0,0,0,296.7,430,139.95,139.95,0,0,0,234,434.3c-.26.08-.55.1-1,.19a5.33,5.33,0,0,1,0-1.33,29.31,29.31,0,0,1,2.62-6.35,4.85,4.85,0,0,1,3.56-2.57c3.38-.66,6.73-1.47,10.09-2.22a9.1,9.1,0,0,0,1.64-.48,2,2,0,0,0,1.08-2.14,1.92,1.92,0,0,0-1.86-1.5,12.32,12.32,0,0,0-2.26.33c-3.37.73-6.73,1.45-10.09,2.23a4.14,4.14,0,0,1-2.51-.11,26.45,26.45,0,0,1-9.78-6.34c-.05-.05,0-.18,0-.28s.2-.33.34-.38a78.8,78.8,0,0,1,20.39-4.53,153.66,153.66,0,0,1,50.93,4.62c2.49.64,5,1.45,7.38,2.33,4.69,1.7,9.27,3.65,13.16,6.89a2.47,2.47,0,0,0,3.16.26,2.05,2.05,0,0,0,.68-3,12.93,12.93,0,0,0-1.48-1.75,100,100,0,0,0-58.43-31.05c-13.29-1.9-26.34-1.08-39,3.83-.89.35-1.77.74-2.64,1.12s-1.72.75-2.65,1.16c-.19-.35-.42-.58-.41-.81a19.64,19.64,0,0,1,2.18-8.83,5.5,5.5,0,0,1,4.35-3.3c3.31-.46,6.57-1.27,9.85-1.94a7.59,7.59,0,0,0,1.65-.45,1.91,1.91,0,0,0-.81-3.65,11.26,11.26,0,0,0-2,.24c-2.34.45-4.67,1-7,1.4a13,13,0,0,1-13.83-7.86c.17-.57.68-.59,1.14-.68A135.19,135.19,0,0,1,247.5,365a120.38,120.38,0,0,1,33.88,7,94,94,0,0,1,31.56,18.89,76.65,76.65,0,0,1,15,18.78,13.52,13.52,0,0,0,1.6,2.35,1.89,1.89,0,0,0,2.35.52,2,2,0,0,0,1.06-2.4c-.35-1.39-.82-2.75-1.17-4.14a52.08,52.08,0,0,1-.86-24.16,35.81,35.81,0,0,1,7.84-16.4,27.67,27.67,0,0,1,12.4-8.47,8.14,8.14,0,0,0,1.07-.41,2.35,2.35,0,0,0,1.36-2.6,4.5,4.5,0,0,0-2.37-3.4,12.44,12.44,0,0,0-5.48-1.55c-1.14-.07-2.29-.06-3.44-.07s-2.09,0-3.17,0c-.28-.61.3-.78.65-1,1.38-.66,2.76-1.35,4.19-1.87a64.55,64.55,0,0,1,21.35-3.9,23.66,23.66,0,0,1,3.15.16,7.21,7.21,0,0,1,4,1.3,3.66,3.66,0,0,0,1.85.67,2,2,0,0,0,2.14-1.13,1.89,1.89,0,0,0-.43-2.35,2.92,2.92,0,0,0-.9-.71,5.19,5.19,0,0,1-2.66-3.21,32.18,32.18,0,0,1-2.35-10.59,10.1,10.1,0,0,1,.37-2.83,1.27,1.27,0,0,1,1.81-.88,10.55,10.55,0,0,1,2.45,1.43,15.23,15.23,0,0,1,4.09,5.47c.29.6.49,1.25.81,1.84a2,2,0,0,0,3.36.41,2.65,2.65,0,0,0,.46-3.17,5.58,5.58,0,0,0-.46-.73,81.62,81.62,0,0,1-10.71-25.24,136.17,136.17,0,0,1-3.73-43,139.9,139.9,0,0,1,5.33-30.46,107.89,107.89,0,0,1,5.19-14,13.08,13.08,0,0,0,1.21-3.8c.2-1.6.79-3.15,1.11-4.74A86.12,86.12,0,0,0,383,187.24a132.13,132.13,0,0,0-5-33.11,88.27,88.27,0,0,0-4.55-12.38,48,48,0,0,0-5.86-9.84,7.76,7.76,0,0,1-.62-.95c0-.07,0-.18,0-.3.31-.53.83-.3,1.25-.24a28.06,28.06,0,0,1,8.48,2.54,44.9,44.9,0,0,1,16.43,13.16,25.09,25.09,0,0,1,4.72,9.11c.11.46.16.93.24,1.46a35.28,35.28,0,0,0-4.78,7.8c-.34.79-.69,1.58-1,2.4-.48,1.43-.12,2.51.91,2.91s2.11,0,2.73-1.36c.48-1,.91-2.11,1.39-3.15a19.48,19.48,0,0,1,3.54-5.53,12.62,12.62,0,0,1,2.69-2.09,2,2,0,0,1,2.8.57,10.64,10.64,0,0,1,1.46,2.77,19.73,19.73,0,0,1,1,7.07,43.84,43.84,0,0,1-4.18,18,22.37,22.37,0,0,1-3.94,6,7.45,7.45,0,0,0-.92,1.1,1.8,1.8,0,0,0,.13,2.14,1.75,1.75,0,0,0,2,.7,21,21,0,0,0,2.51-1.35c1.4-.82,2.71-1.82,4.17-2.5,3-1.41,4.26-.59,4.43,2.72a26.67,26.67,0,0,1-.92,7.38,100.39,100.39,0,0,1-6.34,17.81,203.83,203.83,0,0,1-13.83,25.77,66.2,66.2,0,0,0-10.09,33.68,30.54,30.54,0,0,0,.7,8.84c.17.65.34,1.3.57,1.93.78,2.09,1.48,2.47,3.7,2.18a2.26,2.26,0,0,0,2.12-1.62,22.81,22.81,0,0,1,5.29-8.45,83.77,83.77,0,0,1,27.15-19.87,30.14,30.14,0,0,1,7.37-2.34,6.3,6.3,0,0,1,1.06.05,14.53,14.53,0,0,1-.78,1.54c-12.24,17.35-21.18,36.32-27.76,56.44a101.81,101.81,0,0,0-4,16.15c-.73,4.75-1.31,9.49.34,14.31a5.44,5.44,0,0,1-1.16.32,22.49,22.49,0,0,0-13.53,5.63,27.49,27.49,0,0,0-7.7,10.57,12.9,12.9,0,0,0-.65,1.9,2,2,0,0,0,1.3,2.52,2,2,0,0,0,2.36-1.13c.22-.42.34-.89.53-1.33s.34-.68.61-1.23c.52.48,1,.86,1.42,1.31a6,6,0,0,0,9.62-.95,9.22,9.22,0,0,0,.76-9c-.31-.78-.78-1.49-1.22-2.33a10.58,10.58,0,0,1,6.63-1.73,15.62,15.62,0,0,1,8,3,15.47,15.47,0,0,1,2.93,3.11,4.15,4.15,0,0,1,.78,3.27,2.37,2.37,0,0,1-1.35,2.05,4.24,4.24,0,0,0-1,.55,1.87,1.87,0,0,0-.65,2,1.78,1.78,0,0,0,1.68,1.33,7.41,7.41,0,0,0,1.15-.08c.37,0,.74-.13,1.15-.21,2.55,1.53,3.14,3.95,3.09,6.66,0,.66-.23,1.32-.26,2A1.91,1.91,0,0,0,413.9,379a6.15,6.15,0,0,0,.86,0c3.33-.05,5.6,1.69,7.21,4.4a14.94,14.94,0,0,1,1.88,9.14,17.2,17.2,0,0,1-3.49,9.27c-2.23,2.87-5,4.65-8.82,4.48-2-.08-2.65.58-3.06,2.64-.8,4-1.57,8.08-2.35,12.11-.5,2.54-1,5.07-1.5,7.61a8.91,8.91,0,0,0-.23,1.7,2.42,2.42,0,0,0,2.33,2.42,8.25,8.25,0,0,0,.86,0c6.44-.22,12.51,1.36,18.42,3.73a13.21,13.21,0,0,1,2.05,1.05c1.51.93,1.77,1.61,1.3,3.35-.95,3.51-2,7-2.86,10.52a62.23,62.23,0,0,0-2,13,17.08,17.08,0,0,0,.06,2.58,2,2,0,0,0,2,1.74,2,2,0,0,0,1.92-1.81,6.12,6.12,0,0,0,0-.86c-.05-5.6,1.19-11,2.54-16.4A139.18,139.18,0,0,1,436.37,433a54.76,54.76,0,0,1,2.57-5.75,344.29,344.29,0,0,1,38.6-59A221.26,221.26,0,0,1,514.62,332a139.18,139.18,0,0,1,35.91-20.15,94.24,94.24,0,0,1,28.82-6c.66,0,1.33.05,2,.09C581.4,306,581.45,306.1,581.63,306.35Z"/>
    <path class="cls-1" d="M386.26,357.51a3.71,3.71,0,0,1,1.67,3.26,4.93,4.93,0,0,1-.82,3.24,2.14,2.14,0,0,1-3.88-.21c-1-1.75-.84-3.05.66-4.56A4.83,4.83,0,0,1,386.26,357.51Z"/>
  </g>
</svg>
