<svg id="Livello_1" data-name="Livello 1" xmlns="http://www.w3.org/2000/svg" viewBox="0 0 841.89 841.89">
  <defs>
    <style>
      .cls-1 {
        fill: #231f20;
      }
    </style>
  </defs>
  <title>Glos</title>
  <g>
    <path class="cls-1" d="M442.12,647a7,7,0,0,1-6.06-5.55c-4.87-23.68-7.73-50.44-14.33-73-13.24-45.29-53.33-62.53-96.16-47.18-6.91,2.48-6.52,5.46.81,5.9,4.12.24,10.21-2,13.95-2.79,28.53-5.68,53.64,6.42,67.29,33.76,10.44,20.91,19.28,61.81.09,75.92-6.4,4.7-13,6.12-19.18,10S372.41,655.5,368,661.59a1.86,1.86,0,0,0,2.4,2.73c6.64-4,17.75-13.17,21.22-15,19.81-10.49,23.06-5.79,41.77.06,8.67,2.72,13.22,1.32,19.42,7,1.74,1.61,3.95,3.45,7.58,3.45L482,658.3a2.32,2.32,0,0,1,2.57,2.63l-1.76,6.22a1.63,1.63,0,0,0,1.65,2.09c14.58-1,33.65,3.49,7.71,8.72a1.7,1.7,0,0,0-1.41,1.73c.38,4.09,7.4.59,11,3.13a1.65,1.65,0,0,1,.07,2.57c-11.2,9.4-27.41,5.21-40.23,6.89-2.55.33-3.81,5.31-.3,5.15,17.36-.76,33.09,1.37,46.73-9.14,3-3.2-2.82-7.92-2.84-9.24s4-3.16,4.53-5.48c1.69-7.51-12.07-8.51-18.74-9.16a1.6,1.6,0,0,1-1.39-2c.75-3.41.74-7.2-3.35-8.46-8.75-2.68-16.41,1.89-25.59.18-4-.75-5.45-2.72-8.52-4.49-2.79-1.61-6.46-2.27-10-2.69M341.91,357.75c2.15-1.53,4.92,1.45,3.72,3.81-8.64,16.81-8.28,38.1-1.29,55.48,2,5,6.43,15.82,10.73,11.07,3.54-3.9,6.83-15.29,10.48-19.58,1.86-2.18,5-2.33,5.61.48,1.57,7.3-.7,18.73.64,25.92,1.27,6.87,3.45,14.68,10.39,9.14a7.58,7.58,0,0,1,11.34,2.05c4.41,7.49,10,13.47,12.6,21,2.83,8,14.38,7,15.95-1.34q.36-2,.57-4.11c.43-4.38,5-4.25,6.08-2.2,2.18,4.05,4,6.94,6.32,10.75s7.34-.3,7-7.31c.6-13.26,1.54-19.34,5.84-15.4,3.2,2.93,3.68,8,3.68,8A5.64,5.64,0,0,0,462,458.06a54.17,54.17,0,0,0,4-8.83c.87-2.16,3.13-4.6,5.25-2.88,5.6,6.09,9.46,10.77,11.35,17.59a6.13,6.13,0,0,0,10.78,2.14c5.14-6.58,7.61-14.23,8.12-23.75.34-6.44,8.64-13.5,13.11-19.46a90.58,90.58,0,0,0,14-26.74,1.59,1.59,0,0,1,2.56-.72c4,3.57,12.47,14.54,14.26,17.16,18.82,27.52-5.47,48.53-2.23,77.44.79,7,5.5,15.53,4.71,22.46-.55,4.83-3.81,10.39-5.59,16-1.43,4.52-2.87,5.3-9.57,4.3h0s-7.43-.54-9.81-1c-2.17-.41-4.27.76-4.28,3a3.51,3.51,0,0,0,3.32,3.55c44.15,2,52.59,45.38,71.08,77.88a19.84,19.84,0,0,1,2.58,10.35l-.53,19.56a5.15,5.15,0,0,1-4.23,4.93c-12.2,2.21-17.69-9.21-22-20.49a2,2,0,0,0-3.77.71c.25,5.39,4.1,13.05,5.54,16.5a1.63,1.63,0,0,1-1.65,2.26c-21.66-2.51-20.65-27-32-41.85-9.42-12.31-22.37-20.68-36.08-27.42a34,34,0,0,1-18.17-23.22c-1.34-6-2.64-12-4-15-1.17-2.64-5.82-7.55-7.56-4.3-9.46,17.62,15.18,38.81,15.93,57.11.48,11.86.44,20.34.23,31.29-.58,29.46,5.44,22.82,24.24,36.82,9.9,7.36,14.37,19.9,16.46,32.07a7.2,7.2,0,0,1-6.49,8.45c-13,1-38.72.81-43.87.54-8.25-.42-28.78.72-35.44-2.12-4.1-1.75-10.23-11.11-11.58-15.34-3.13-9.82,6.4-27.27-12.26-28-17.26-.67-41.23,25.3-57.5,32.91-29.23,13.68-72.21,18.47-91.51-12.56-43.69-70.27-19.92-198.3,22.24-265.16,17.42-27.61,31.27-43,50.21-56.51"/>
    <path class="cls-1" d="M377.44,138.34c-1.92,3.29-12.94,15-6.06,17.45,3,1.08,5.62-6.12,7.29-9.56,6.88-14.23,19.63-4.33,31-4.42,4.71,0,9.4-2.79,14.1-3.29,17.67-1.89,43.18,27.15,26.74,22.74-16.83-4.5-25.41,4.15-36.71,17.25-4.29,5-15.08,22.72-17.72,24.6-5.69,4-8.39,0-15.13,9.55-8.19,11.66-6.16,28.24,5.25,27.09,8.42-.85,8.58-17.48,10.12-20.4,5.89-11.22,30.54-50.42,43-51.25,10.11-.68,17.41,9.33,25.63,12.58,9.23,3.65,33.36,2.46,23,9.25-16.8,11-44.41,30.76-29.41,36.12,2,.7,6.2-3.11,8.58-5.47a2.45,2.45,0,0,1,3.2-.27c5.77,4.59,15-.9,13.28-7.71-.31-1.27-2.11-3.52-3.5-5.11a2.48,2.48,0,0,1,.3-3.52c15.69-13.26,14.17-3.39,24.09,7,7.79,8.14,17.67,13.84,25.45,21.94A9.85,9.85,0,0,1,532.14,243c-2.69,7.51-7.6,20-12.7,22.8-10.28,5.55-27.67,3.18-36.19,9.28-1.49,1.07-.54,7.76.31,8.92a2.14,2.14,0,0,0,2.24.81L512.66,278a2.47,2.47,0,0,1,2.91,3.26c-3,8.17-2.11,21.38-7.54,24.14-10,5.07-11.91-9.67-23.26-5.9-14.52,4.82,15.07,18.11,16.83,19.29,40,26.87,27.21,78.08,1.66,110.4a2.5,2.5,0,0,1-4.44-1.54c-.25-12.1,9.94-21.86,7.43-34-1.82-8.77-11.94,27.35-12.3,30.57-.9,7.94,2.23,14.74,1.74,20.15-.38,4.25-2.39,9.8-4.14,14.71a2.44,2.44,0,0,1-4.45.36c-1.6-3-2.49-6.66-4.45-9.72-9-14-10.49-12.72-11.18-32.48-.7-20,2.48-22.2,10.75-38.54,3.25-6.42,3.31-10.52.54-7.75-14.3,14.27-17.22,23.79-16.68,42.8.16,5.75,1.37,10.79.92,15.42S464.54,442.77,461,449a2.45,2.45,0,0,1-4.33-.2c-4.06-8.46-10.52-6.4-9.79-27.15.35-9.86,2.29-21.82,3.72-31.45-4-4.6-7.63,11.23-9.3,17.75-1.77,6.9-2.24,32.9-5,43.07-.55,2.06-3.57,2.56-4.44.62-10.46-23.47-15.85-44.95-9.11-71-1-2.32-3.56-.87-4.33.9-5.83,13.29-5.59,23.55-4.49,32.36,1.94,15.65,10.6,34.27,2.37,49.5a2.48,2.48,0,0,1-4.58-.65c-2.6-10.19-12.68-17.3-14.69-26.41-2.7-12.24-2.66-35.67-3.82-50.54-.31-3.89.12-7.32-1.84-11.3-1.48-3-3.28.18-3.53,2.65a217.51,217.51,0,0,0-.28,26.72c.43,8.59,2.53,17.4-.2,25.16-.66,1.86-2.48,7.56-5.12,8.37-1.83.57-3.63-2-3.88-3.94-2-15.2,3-30.48-6.13-45-2.13-3.38-3.88,2-5.26,4.31-4.67,7.9-10,16.69-12.15,25.41-3.2,3.38-6.52-8.54-6.86-9.71-3.58-12.52-3.95-23.06-.64-37.19,1.68-7.16,16-23.11,3.2-24-11.82-.85-30.13,18.81-40.67,30.69a2.45,2.45,0,0,1-4.26-1.91c1-9.92,5.68-20.67.48-29.56-3.72-6.37-4,16.27-4.11,18.14-1.73,22.93-13.52-5.48-12.38-14.52,1.75-13.95,25.27-25,37.7-26.74,6.42-.89,12.19-.19,18-1.35,1.82-.37,6.09-2.68,2.59-3.5-16.58-3.88-34.73.15-49.32,10.79-2,1.46-5.88,5.81-9.66,9.07a2.46,2.46,0,0,1-3.81-3c3-5.92,8.82-13.48,8.79-14.29,0-1-2.7-2-4.75-3.4a1.87,1.87,0,0,1,.93-3.42c13.88-.62,27.56-8.64,36.07-20.27,2.57-3.5,8-16.81,3.49-12.24-8.42,8.58-12.87,14.92-23.64,21.16-5.64,3.27-19.66,9.34-24.3,4.64a2.4,2.4,0,0,1-.43-2.6l3.7-7.8c0-.09,3.8-6.35,3.85-6.44.79-1.26,4.88-7.06,5.12-7.35,6.52-7.53,13.93-11.14,22.61-15.64,3-1.55.81-3.52-2.63-3.54-9.25,0-15.79,9.29-24.35,12.3-1.83.64-1.39-2.83-1.39-2.83-.24-1.42-.79-1.76-2.07-1.11a4.66,4.66,0,0,1-6.36-6c5.64-14.4,18.44-13.38,33.31-26.78,3.16-2.84-4.67-1.84-7.92-1.09-7.61,1.74-10.91,3.32-16.47,3.45-2,0-3.28-2.82-4.16-5.25-4.89-13.45,10.85-8.74,25.95-19.27,3.91-2.73-14.78-2.14-21.38,2.81a2.14,2.14,0,0,1-3.31-2.38c1.44-5.08,6.29-8,8.2-12.43.58-1.35.77-3.41,1.61-5.27,6.49-14.31,16.95,1.88,29.22,4,4.13.7,17.17,2.8,20.43.51,6.09-4.29-7.38-4.55-11.88-5-9.54-1-23.13-4.66-26.88-14.37a2.42,2.42,0,0,1,2.31-3.32c10.1.38,20.9-.8,28.7-8,1.74-1.6,5.34-6.83.84-6.12-2.34.37-13.84,12.22-14.76,7.85-1.29-6.1,2.55-11.73,7.43-16.75a69.46,69.46,0,0,1,16.73-13.71c4.94-3,32.25-11.39,29.76-7.14"/>
  </g>
</svg>
