<svg id="Livello_1" data-name="Livello 1" xmlns="http://www.w3.org/2000/svg" viewBox="0 0 841.89 841.89">
  <defs>
    <style>
      .cls-1 {
        fill: #231f20;
      }
    </style>
  </defs>
  <title>Glos</title>
  <g>
    <path class="cls-1" d="M433.93,699.26c-1.62-6.16-3.56-12.31-4.86-18.79a136.11,136.11,0,0,1-2.59-36.28,31.26,31.26,0,0,1,.65-5.51c.64-3.24,1.94-5.18,5.83-5.83a54.07,54.07,0,0,0,21.38-10c5.18-4.21,9.72-8.75,11.66-16.2-10,2.92-19.44,6.48-29.16,6.8-1.94-8.74,0-11.34,8.1-12.31,9.4-1,18.47-2.59,27.54-4.21,1.62-.32,2.91-1.29,4.21-3.24-5.51-1-11.34-1.29-16.85-2.59a85.34,85.34,0,0,1-15.22-5.18c-7.45-3.24-7.78-3.57-14.25,1.94-1,.65-1.62,1.3-3.57,2.59V562.88c6.16-3.57,13.28-4.21,20.09-5.19,10-1.29,13.28-7.77,7.77-15.87-13.6-20.41-19.76-43.08-20.08-67.38-.33-22,14.9-32.39,29.48-35.63,14.9-3.57,28.83-.65,41.46,7.45,1.3.65,2.27,1.62,3.56,2.27,1.62,1.29,3.57,1.29,4.86-.33,1.62-1.94,1.3-3.89-.65-5.51a5.7,5.7,0,0,0-1.61-1.29c-18.15-13.93-50.86-17.17-69.65-.33-8.75,7.78-13.93,16.85-14.58,28.51-1,14.9-1.62,29.48,3.24,43.73,2.59,7.78,6.48,14.91,9.39,22.68a31.46,31.46,0,0,1,2.92,9.39c.65,4.22-1,5.84-5.18,6.81-3.89,1-7.45,2.26-11.34,2.91a28.52,28.52,0,0,1-9.07.33c-4.54-.65-9.07-2.27-13.61-3.24-3.24-.65-4.86-2.59-4.53-6.16,0-1.94.64-3.56,1-5.5a23.53,23.53,0,0,1,2.91-6.48c10.69-18.47,13.61-38.55,13-59.29-.65-25.26-19.43-44.05-44.38-44.7-13.6-.32-26.56,2.27-37.9,10-1.62,1.3-3.56,2.27-4.86,4.21a4,4,0,0,0,.33,4.22c.64,1,2.91,1.29,4.21,1,1.62-.65,2.91-1.95,4.53-2.92,15.23-9.39,31.42-11.66,48.27-4.86,13.28,5.51,21.38,15.23,22,30.45a117.56,117.56,0,0,1-18.47,68.68l-1.94,2.91c-4.21,6.81-1,13.61,6.8,14.91,6.16,1,12.31,2.59,18.47,3.56,3.56.65,4.53,2.59,4.21,6.15-.65,7.46-1,14.91-1.3,23.65a42.71,42.71,0,0,0-5.18-4.21c-4.86-4.21-6.8-4.53-12.63-1.62a68.44,68.44,0,0,1-27.54,7.45,32.68,32.68,0,0,0-5.18.65c.64,3.24,2.91,3.24,4.86,3.56,9.39,1.62,18.78,3.24,28.5,4.21,7.45,1,9.72,3.89,7.45,12.31-9.71-.64-19.43-3.24-29.15-6.15,7.13,16.2,20.73,22.68,36.28,26.89,6.16,13,2.92,49.24-5.83,66.08-21.7-2.91-41.79-10-58.63-24.94A125.34,125.34,0,0,1,334.8,661,402,402,0,0,1,293,598.84c-14.9-28.51-16.19-58-7.77-88.44,7.13-25.92,36.28-47,67.06-41.47,11.33,1.95,22.35,4.54,32.71,12-1.94,2.27-3.88,4.86-6.15,6.48-10.69,7.77-22.68,9.39-35.31,5.83-5.51-1.62-10.37-4.86-15.87-7.13a5.85,5.85,0,0,0-3.24-1.29,4.86,4.86,0,0,0-2.92,1.29c-.65.65-.65,2.27-.32,3.24s1.62,1.62,2.26,2.59c16.85,13.93,44.71,13.61,60.91-.32,3.23-2.59,5.5-6.15,7.77-9.72s1.62-5.18-2.27-7.45a116.13,116.13,0,0,0-34.34-11.66,80.22,80.22,0,0,0-27.85.65c-23.33,4.86-47.3,24-52.48,57.33-.65,3.89-1.3,7.78-1.95,12.31-9.07-7.12-18.46-13.28-26.56-21.05-8.1-7.45-12-17.82-12-28.83V463.1c.33,0,1-.32,1.3-.32a37.06,37.06,0,0,1,3.56,3.89c3.24,4.21,6.48,8.42,10.05,12.63,1.29,1.94,2.91,4.21,5.5,2.27s1.3-4.21,0-6.16l-1-1c-11.34-16.2-22.68-32.07-33.69-48.27-15.87-22.67-31.75-45-47.62-67.7a622.38,622.38,0,0,0-42.44-54.1,335.26,335.26,0,0,0-38.22-36A153.77,153.77,0,0,1,74,250.92c-2.92-3.24-4.86-8.1-6.16-12.31-2.59-9.07,1.95-15.55,11.34-17.17a35.2,35.2,0,0,1,8.42-1c22.36.32,45,.65,67.06,5.18A160.89,160.89,0,0,1,226.93,261a104.89,104.89,0,0,1,34.66,56.37,88,88,0,0,1,1.3,9.07,12.79,12.79,0,0,1-2.27,8.42c-10.69,15.87-17.17,33.69-22.35,51.83-2,7.13-2.27,14.9.32,22,1,2.92,2.92,5.51,4.54,7.78a4.77,4.77,0,0,0,4.21.32c1-.65,1-2.59,1.29-4.21a2.48,2.48,0,0,0-.64-1.3c-5.51-7.45-4.54-15.55-2.6-23.65a67.39,67.39,0,0,1,16.85-31.74c5.83-6.16,12.31-11.66,21.38-12.31,2.59-.33,3.89-1.62,3.56-4.21s-2.26-3.57-4.53-3.24c-4.21.65-8.43,1.62-13.28,2.59a16.83,16.83,0,0,1,2.59-3.56,73.2,73.2,0,0,1,45.35-19.77,28.62,28.62,0,0,1,17.82,4.86c1.94,1.3,3.88,2.27,5.5,0,1.95-2.26,1-4.53-1-6.15-5.18-4.54-11.66-5.83-18.14-6.48-1.94-.32-3.89,0-7.45,0,7.45-6.48,14.58-9.07,22.35-11,15.55-3.57,31.1-3.24,46.33,2.26,1.62.65,3.24,1.62,4.53,1.3a4.93,4.93,0,0,0,3.89-2.27,5.46,5.46,0,0,0-1.3-4.21c-1-1-2.91-1.62-4.21-2.27-9.07-3.56-18.46-4.86-28.18-5.5-1.62,0-2.92-.33-5.18-.33,38.22-22.67,92.64-24.94,137.67-.32-6.15.65-11.34,1-16.2,1.94-6.15,1.3-12.31,2.92-18.14,4.54A9.49,9.49,0,0,0,453,293c-2.27,1-3.56,2.92-1.94,5.19.65,1.29,3.24,1.94,4.53,1.62,5.19-1.3,10.05-3.57,15.55-4.54,15.88-2.92,31.1-1.94,46,4.86,3.24,1.62,6.48,3.56,11,6.15-5.83,1-10.37,1-14.91,2.27-3.23.65-6.47,2.27-9.71,3.89-1.3.65-2.6,1.62-2.92,2.91s-.65,3.57.32,4.54c.65,1,3.24,1.3,4.22.65,11-7.45,22.67-6.48,34.33-2.92,13,3.89,24.3,10.37,33.05,21.38a28.87,28.87,0,0,0-4.86-1.62L559,335.47c-2.27-.32-4.21.32-4.53,3.24-.33,2.59,1,3.89,3.56,4.21h1.29c3.89,1.62,8.1,2.59,11.34,4.86,15.23,11.34,24,26.89,26.24,46,.65,5.51.33,11.34-3.24,16.2-1.62,1.94-1.94,4.53.65,6.15,2.59,1.94,4.21-.32,5.83-1.94,4.21-5.83,5.18-12.64,4.54-19.44a60.48,60.48,0,0,0-2.92-15.22c-5.51-16.53-11.34-32.72-21.38-47-1.29-1.94-1.62-4.86-1.62-7.12.33-9.72,3.56-18.79,7.45-27.54,7.78-16.2,18.14-29.8,32.72-40.49,24-17.17,49.89-29.8,79-33.37,18.79-2.26,37.9-2.26,56.69-3.24a49.87,49.87,0,0,1,9.72,1.3c7.45,1.62,11.66,8.42,10,15.87A32.88,32.88,0,0,1,766,253.84a105.29,105.29,0,0,1-12.31,11.66c-25.59,19.11-47.62,42.11-66.73,67.7-21.71,29.16-42.44,59.28-63.82,88.76-12,16.85-23.65,33.69-35.63,50.21a25.06,25.06,0,0,1-2.59,3.57c-1.3,1.94-1,3.88,1,4.86a5.14,5.14,0,0,0,4.21-1c2.27-2.59,4.53-5.5,6.48-8.09,2.59-3.24,4.86-6.16,7.77-10,.65,2.27,1.3,3.24,1.3,4.54.32,5.18.32,10.36.32,15.55,0,14.25-6.15,25.59-17.17,34.66-2.91,2.27-6.15,4.53-9.07,6.48-3.88,2.91-7.77,5.83-12.31,9.07-.64-4.54-1.62-8.75-2.26-13-2.92-17.17-10.69-31.75-24.3-42.76-14.25-11.34-30.13-15.87-48.27-14.58-14.25,1-27.53,5.19-40.17,11.34-6.15,2.92-6.48,4.21-2.91,10,6.15,9.72,14.9,15.23,25.91,17.17,14.9,2.92,28.83.65,41.14-8.74.65-.65,2-1,2.27-1.62.33-1.3,1-3.57.33-4.22-.65-1-2.92-1-4.22-.64-1,0-1.94,1.29-2.91,1.94-13.93,9.07-28.51,10.37-44.06,3.89a24.51,24.51,0,0,1-12-10.37c2.59-1.62,4.86-3.24,7.45-4.53,16.19-7.45,33.36-11,50.86-5.83,23.64,7.12,37.9,23,43.4,47,6.16,27.86,3.89,54.74-9.71,80.34a372.52,372.52,0,0,1-49.24,71.26c-16.2,18.14-37.26,27.86-60.9,31.75C438.14,699.58,436.52,699.26,433.93,699.26Zm-12.31-334c1.94,1,3.56,2.27,5.51,3.24,10.69,6.16,22,10.69,34,11.66a22.76,22.76,0,0,1,12.63,4.21c13.61,10.37,28.51,19.12,45.68,22,2.92.65,4.21,2.27,5.51,4.54,8.74,15.87,23,24.62,40.17,29.15.64.33,1.62.65,1.94.33,1.29-.65,3.24-1.3,3.56-2.59.33-1-.65-3.24-1.62-3.89-1-1-2.91-1-4.53-1.62-6.16-2.92-13-4.86-18.14-8.75-9.07-7.12-18.79-14.58-17.5-28.51,0-1-1.62-3.23-2.59-3.23-1.29-.33-3.24,1-3.88,1.94-1,1.29-1.3,3.24-1.62,4.86-1,0-2,.32-2.6,0-1.29-.33-2.26-.65-3.24-1-11.66-3.57-22.35-9.4-32.39-16.52-6.15-4.22-12.63-8.1-15.23-15.88-.32-1-2.59-1.62-3.88-1.62-1,0-2.27,1.62-2.59,2.59-.33,1.62,0,3.57,0,5.51-1.3,0-2.6.32-3.57,0-11-2.59-21.38-6.48-30.77-13-4.21-2.91-5.51-3.24-9.4-.32-8.74,6.48-18.78,10.37-29.15,13a19.17,19.17,0,0,1-6.16.64,26.14,26.14,0,0,0,.65-4.21c0-2.26-.65-4.21-3.24-4.53-2.27-.33-2.91,1.29-4.21,2.91-1.94,3.24-4.21,6.81-7.13,9.07a119.64,119.64,0,0,1-36.28,21.06,93.2,93.2,0,0,1-9.07,2.27,6.48,6.48,0,0,1-1-2.59c-.65-2.59-1.3-5.19-4.86-4.86-3.24.65-2.91,3.24-2.59,5.5.65,5.84-1.94,10.37-5.18,14.91A57.84,57.84,0,0,1,282,431c-1.94.65-3.89,1.3-6.16,2-2.26,1-4.53,1.94-3.56,4.86,1,2.59,2.92,2.91,5.83,2.26,14.9-4.21,28.51-11,36.93-24.62,3.89-6.15,8.1-10,15.55-10.69a27.71,27.71,0,0,0,6.8-2.26,140.56,140.56,0,0,0,34.34-20.09,13.54,13.54,0,0,1,5.83-2.59c4.21-.65,8.75-.65,13-1.62C401.86,376.29,412.22,371.43,421.62,365.27ZM133.31,241.85c1,1.62,1.62,2.59,2.27,3.56A85,85,0,0,0,164.73,271c5.83,2.92,9.4,7.13,10,13.93.65,7.78,4.22,14.26,9.07,20.09a71.4,71.4,0,0,1,6.81,10.36c3.56,6.81,7.12,13.93,14.58,17.5,5.18,2.59,7.77,6.15,8.74,11.66,1,5.18,2.27,10.69,6.48,14.25,3.89,3.24,6.48,6.48,7.45,11.34.65,2.92,1.94,5.83,5.83,6.16,2.27-5.51,3.24-10.05-1.62-14.58-2.91-2.59-4.53-7.13-5.83-11-3.24-7.77-5.83-15.87-8.42-23.64-4.21-12-9.07-23.65-16.2-34-15.55-23-37.25-38.22-62.2-49.56C137.52,242.82,135.9,242.5,133.31,241.85ZM609.83,377.91c3.89-1.62,5.18-4.86,6.48-8.1,1-2.27,1.29-5.19,2.91-6.16,7.13-4.86,9.72-12.31,11-20.41a10.85,10.85,0,0,1,5.83-8.09c8.1-3.89,12.63-10.69,16.52-18.15A55.14,55.14,0,0,1,660,305.34c4.86-5.83,8.42-12,8.75-19.43.32-6.48,3.56-10.05,8.74-13.29a111.11,111.11,0,0,0,15.23-10c6.8-5.18,12-11.66,16.52-19.11a9.86,9.86,0,0,0-5.51,1.3c-35,15.87-62.19,39.19-75.48,76.45C624.73,331.58,620.84,342,617,352c-1.3,3.56-2.92,7.78-5.83,10.37C606.27,367.54,607.89,372.07,609.83,377.91Z"/>
    <path class="cls-1" d="M585.86,281.37c-4.86,11.34-9.07,22-13.61,33.37a3.39,3.39,0,0,1-1.29.32c-12.64-1.62-25-3.89-34.34-13.93a85,85,0,0,0-27.54-18.79c-15.87-7.12-31.74-14.9-48.59-19.11-34-8.42-67.05-5.83-99.45,7.45-10.69,4.54-21.38,9.4-32.07,14.25-9.07,4.22-16.2,10.69-23.32,17.5-8.1,7.45-23.65,13.28-34,12.31-4.53-11-8.74-21.71-13.6-33.37A85.37,85.37,0,0,1,283,260.31c.33,4.54.65,7.78,1,11.34.33,2.27,1.3,4.21,3.89,3.89,2.59,0,3.24-2.27,3.24-4.54a85.75,85.75,0,0,1,0-9.07c.32-8.09,3.56-14.9,9.07-20.73a22.89,22.89,0,0,1,9.07-5.18c5.83-1.62,11.66-1.94,18.47-3.24-.65,4.86-1.62,9.07-1.95,13a42.36,42.36,0,0,0-.32,9.07c0,2.59.65,4.86,3.56,4.86s3.56-2.27,3.89-4.86a74,74,0,0,1,.32-8.42A48.81,48.81,0,0,1,339.66,226c3.24-5.83,7.78-10.37,14.58-12.31,4.53-1.3,8.75-2.27,14.9-3.89-1.94,3.56-3.24,5.51-4.21,7.45-4.21,7.45-7.45,14.9-8.42,23.65a18.84,18.84,0,0,0,.32,7.45c.32,1,2.27,2.27,3.89,2.27,1,0,2.27-1.62,2.91-2.6a7,7,0,0,0,.33-2.59c.64-15.55,8.42-27.21,18.79-38.22a11.17,11.17,0,0,1,3.88-2.92c6.48-2.91,20.09-2.91,27.86,0,1,4.86,2.27,10,3.24,15.55.33,1.3.65,2.92,1,4.21.65,2.27,1.95,3.89,4.54,3.57,2.59,0,3.89-1.62,4.21-3.89,1-4.86,1.94-10,3.24-15.23.32-1.29.65-2.59,1-4.53a46.42,46.42,0,0,1,28.18,0,14.63,14.63,0,0,1,4.54,3.24c10,11,17.82,23,18.14,38.22,0,2.27.65,4.54,3.24,4.54,2.92,0,4.53-1.95,3.89-4.54-1-6.15-1.62-12.63-3.89-18.46-1.94-5.51-5.18-10.69-8.42-17.17,10.36,1.94,20.41,2.92,26.88,12.63,5.84,8.75,8.1,18.14,8.75,28.51a30.05,30.05,0,0,0,.32,5.51c.33,1,2,2.59,2.92,2.59a4.66,4.66,0,0,0,3.56-2.27,15.11,15.11,0,0,0,.65-5.51c-.65-5.83-1.29-12-2.27-18.46,7.45,1,14.91,1,21.71,3.89,9.07,4.21,12.63,12.63,13.93,22,.65,3.57.32,7.46,0,11.34,0,2.27.32,4.21,2.91,4.86,3.24.33,3.89-1.62,4.21-4.21.33-3.24.65-6.48,1-10.69C571.6,265.82,579.06,273.6,585.86,281.37Z"/>
  </g>
</svg>
