<svg id="Livello_1" data-name="Livello 1" xmlns="http://www.w3.org/2000/svg" viewBox="0 0 841.89 841.89">
  <defs>
    <style>
      .cls-1 {
        fill: #231f20;
      }
    </style>
  </defs>
  <title>Glos</title>
  <g>
    <path class="cls-1" d="M113.1,788a.7.7,0,0,0,.7.7.65.65,0,0,0,.64-.62c.78-8.81,15.65-34.88,32.51-34.88a16.78,16.78,0,0,1,8.21,2.19c6.43,3.54,8.62,19.11-5.89,27.52-5.63,3.26-6.53,9.66-7.33,15.52-.44,3.36.57,4.6,4.93,4.57,12.78,0,15.52,11,10.67,16.73h10.07a5.53,5.53,0,0,1,3.15,1.73,3.42,3.42,0,0,1,.61,2,3.68,3.68,0,0,1-.82,2.32,3.52,3.52,0,0,1-2.76,1.42,15.81,15.81,0,0,1,7.82,7.67c.08.18.18.36.26.54H156.09c-20.5,0-39.35,0-60.86,0s-40.35,0-60.85,0H14.6c.08-.18.18-.36.26-.54a15.81,15.81,0,0,1,7.82-7.67,3.52,3.52,0,0,1-2.76-1.42,3.63,3.63,0,0,1-.83-2.32,3.43,3.43,0,0,1,.62-2,5.5,5.5,0,0,1,3.15-1.73H32.93C28.08,814,30.81,803,43.6,803c4.36,0,5.37-1.21,4.93-4.57-.8-5.86-1.71-12.26-7.34-15.52-14.51-8.41-12.31-24-5.88-27.52a16.78,16.78,0,0,1,8.21-2.19c16.86,0,31.73,26.07,32.5,34.88a.66.66,0,0,0,.65.62.7.7,0,0,0,.7-.7c-.26-37.93-51.64-56.16-54.71-62.3-3.77,4.13-8.11,2.74-13.22,2,1-3.74,2-7.1,2.89-10.56-1.4-.28-2.71-.54-4.52-.93.54-2,8.34-36.38,33.25-56.21,6.69-5.29,19.09-11.23,19.37-40.07a.94.94,0,0,0-.93-.88.93.93,0,0,0-.83.55c-.15,6.76-10,34.05-19,34.34-10.89.36-19.7-15.47-19.8-22.57-.08-6.07-2.58-11.46-5.32-16.65a11.57,11.57,0,0,1-.75-9.79c4.57-12.68,11.8-23.7,25.56-26.67,42.42-9.22,55.82,47.95,55.82,47.95s13.4-57.17,55.83-47.95c13.78,3,21,14,25.56,26.67a11.6,11.6,0,0,1-.75,9.79c-2.74,5.19-5.24,10.58-5.32,16.65-.1,7.1-8.91,22.93-19.8,22.57-9-.29-18.8-27.58-19-34.34A.91.91,0,0,0,131,619a.93.93,0,0,0-.93.88c.28,28.84,12.68,34.78,19.36,40.07,24.92,19.83,32.72,54.22,33.26,56.21-1.81.39-3.13.65-4.52.93.93,3.46,1.86,6.82,2.89,10.56-5.11.78-9.45,2.17-13.22-2C164.74,731.82,113.36,750.05,113.1,788Z"/>
    <path class="cls-1" d="M764.52,788a.7.7,0,0,0,.7.7.66.66,0,0,0,.65-.62c.77-8.81,15.64-34.88,32.5-34.88a16.78,16.78,0,0,1,8.21,2.19c6.43,3.54,8.63,19.11-5.88,27.52-5.63,3.26-6.54,9.66-7.34,15.52-.44,3.36.57,4.6,4.93,4.57,12.79,0,15.52,11,10.67,16.73H819a5.5,5.5,0,0,1,3.15,1.73,3.43,3.43,0,0,1,.62,2,3.63,3.63,0,0,1-.83,2.32,3.52,3.52,0,0,1-2.76,1.42,15.81,15.81,0,0,1,7.82,7.67c.08.18.18.36.26.54H807.51c-20.5,0-39.35,0-60.85,0s-40.36,0-60.86,0H666c.08-.18.18-.36.26-.54a15.81,15.81,0,0,1,7.82-7.67,3.52,3.52,0,0,1-2.76-1.42,3.63,3.63,0,0,1-.83-2.32,3.43,3.43,0,0,1,.62-2,5.53,5.53,0,0,1,3.15-1.73h10.07C679.5,814,682.24,803,695,803c4.36,0,5.37-1.21,4.93-4.57-.8-5.86-1.71-12.26-7.33-15.52-14.51-8.41-12.32-24-5.89-27.52a16.78,16.78,0,0,1,8.21-2.19c16.86,0,31.73,26.07,32.51,34.88a.65.65,0,0,0,.64.62.7.7,0,0,0,.7-.7c-.26-37.93-51.64-56.16-54.71-62.3-3.77,4.13-8.11,2.74-13.22,2,1-3.74,2-7.1,2.89-10.56-1.39-.28-2.71-.54-4.52-.93.54-2,8.34-36.38,33.26-56.21,6.68-5.29,19.08-11.23,19.36-40.07a.93.93,0,0,0-.93-.88.91.91,0,0,0-.82.55c-.16,6.76-10,34.05-19,34.34-10.89.36-19.7-15.47-19.8-22.57-.08-6.07-2.58-11.46-5.32-16.65a11.6,11.6,0,0,1-.75-9.79c4.57-12.68,11.8-23.7,25.56-26.67,42.43-9.22,55.83,47.95,55.83,47.95s13.4-57.17,55.82-47.95c13.78,3,21,14,25.56,26.67a11.57,11.57,0,0,1-.75,9.79c-2.74,5.19-5.24,10.58-5.32,16.65-.1,7.1-8.91,22.93-19.8,22.57-9-.29-18.8-27.58-18.95-34.34a.93.93,0,0,0-.83-.55.94.94,0,0,0-.93.88c.28,28.84,12.68,34.78,19.36,40.07,24.92,19.83,32.72,54.22,33.26,56.21-1.81.39-3.12.65-4.52.93.93,3.46,1.86,6.82,2.89,10.56-5.11.78-9.45,2.17-13.22-2C816.16,731.82,764.78,750.05,764.52,788Z"/>
  </g>
  <g>
    <path class="cls-1" d="M113.1,218.27a.69.69,0,0,0,.7.69.64.64,0,0,0,.64-.62c.78-8.8,15.65-34.88,32.51-34.88a16.69,16.69,0,0,1,8.21,2.2c6.43,3.53,8.62,19.1-5.89,27.52-5.63,3.25-6.53,9.66-7.33,15.52-.44,3.35.57,4.59,4.93,4.57,12.78,0,15.52,11,10.67,16.73h10.07a5.42,5.42,0,0,1,3.15,1.73,3.39,3.39,0,0,1,.61,2,3.69,3.69,0,0,1-.82,2.33,3.52,3.52,0,0,1-2.76,1.42,15.75,15.75,0,0,1,7.82,7.66c.08.18.18.37.26.55H156.09c-20.5-.06-39.35-.06-60.86,0s-40.35-.06-60.85,0H14.6c.08-.18.18-.37.26-.55a15.75,15.75,0,0,1,7.82-7.66,3.52,3.52,0,0,1-2.76-1.42,3.64,3.64,0,0,1-.83-2.33,3.4,3.4,0,0,1,.62-2A5.39,5.39,0,0,1,22.86,250H32.93c-4.85-5.71-2.12-16.76,10.67-16.73,4.36,0,5.37-1.22,4.93-4.57-.8-5.86-1.71-12.27-7.34-15.52-14.51-8.42-12.31-24-5.88-27.52a16.69,16.69,0,0,1,8.21-2.2c16.86,0,31.73,26.08,32.5,34.88a.65.65,0,0,0,.65.62.69.69,0,0,0,.7-.69c-.26-37.93-51.64-56.16-54.71-62.31-3.77,4.14-8.11,2.74-13.22,2,1-3.75,2-7.1,2.89-10.56l-4.52-.93c.54-2,8.34-36.38,33.25-56.21C47.75,84.94,60.15,79,60.43,50.16a.94.94,0,0,0-.93-.88.92.92,0,0,0-.83.54c-.15,6.77-10,34.06-19,34.34C28.83,84.52,20,68.7,19.92,61.6c-.08-6.07-2.58-11.47-5.32-16.66a11.55,11.55,0,0,1-.75-9.78c4.57-12.68,11.8-23.71,25.56-26.68,42.42-9.21,55.82,48,55.82,48S108.63-.73,151.06,8.48c13.78,3,21,14,25.56,26.68a11.58,11.58,0,0,1-.75,9.78c-2.74,5.19-5.24,10.59-5.32,16.66-.1,7.1-8.91,22.92-19.8,22.56-9-.28-18.8-27.57-19-34.34a.91.91,0,0,0-.82-.54.93.93,0,0,0-.93.88c.28,28.84,12.68,34.78,19.36,40.07,24.92,19.83,32.72,54.22,33.26,56.21l-4.52.93c.93,3.46,1.86,6.81,2.89,10.56-5.11.77-9.45,2.17-13.22-2C164.74,162.11,113.36,180.34,113.1,218.27Z"/>
    <path class="cls-1" d="M764.52,218.27a.69.69,0,0,0,.7.69.65.65,0,0,0,.65-.62c.77-8.8,15.64-34.88,32.5-34.88a16.69,16.69,0,0,1,8.21,2.2c6.43,3.53,8.63,19.1-5.88,27.52-5.63,3.25-6.54,9.66-7.34,15.52-.44,3.35.57,4.59,4.93,4.57,12.79,0,15.52,11,10.67,16.73H819a5.39,5.39,0,0,1,3.15,1.73,3.4,3.4,0,0,1,.62,2,3.64,3.64,0,0,1-.83,2.33,3.52,3.52,0,0,1-2.76,1.42,15.75,15.75,0,0,1,7.82,7.66c.08.18.18.37.26.55H807.51c-20.5-.06-39.35-.06-60.85,0s-40.36-.06-60.86,0H666c.08-.18.18-.37.26-.55a15.75,15.75,0,0,1,7.82-7.66,3.52,3.52,0,0,1-2.76-1.42,3.64,3.64,0,0,1-.83-2.33,3.4,3.4,0,0,1,.62-2,5.42,5.42,0,0,1,3.15-1.73h10.07c-4.85-5.71-2.11-16.76,10.67-16.73,4.36,0,5.37-1.22,4.93-4.57-.8-5.86-1.71-12.27-7.33-15.52-14.51-8.42-12.32-24-5.89-27.52a16.69,16.69,0,0,1,8.21-2.2c16.86,0,31.73,26.08,32.51,34.88a.64.64,0,0,0,.64.62.69.69,0,0,0,.7-.69c-.26-37.93-51.64-56.16-54.71-62.31-3.77,4.14-8.11,2.74-13.22,2,1-3.75,2-7.1,2.89-10.56l-4.52-.93c.54-2,8.34-36.38,33.26-56.21,6.68-5.29,19.08-11.23,19.36-40.07a.93.93,0,0,0-.93-.88.91.91,0,0,0-.82.54c-.16,6.77-10,34.06-19,34.34-10.89.36-19.7-15.46-19.8-22.56-.08-6.07-2.58-11.47-5.32-16.66a11.58,11.58,0,0,1-.75-9.78c4.57-12.68,11.8-23.71,25.56-26.68,42.43-9.21,55.83,48,55.83,48S760.06-.73,802.48,8.48c13.78,3,21,14,25.56,26.68a11.55,11.55,0,0,1-.75,9.78c-2.74,5.19-5.24,10.59-5.32,16.66-.1,7.1-8.91,22.92-19.8,22.56-9-.28-18.8-27.57-18.95-34.34a.92.92,0,0,0-.83-.54.94.94,0,0,0-.93.88c.28,28.84,12.68,34.78,19.36,40.07,24.92,19.83,32.72,54.22,33.26,56.21l-4.52.93c.93,3.46,1.86,6.81,2.89,10.56-5.11.77-9.45,2.17-13.22-2C816.16,162.11,764.78,180.34,764.52,218.27Z"/>
  </g>
  <g>
    <path class="cls-1" d="M669.33,563.75a11.52,11.52,0,0,1-12.94,8.53c-7.17-1.32-12.85-7.2-13.16-14.45a48,48,0,0,0-2.67-13.7,9,9,0,0,1-.12-5.83c1.15-3.82-2.29-6.94-4.81-7.7a22.49,22.49,0,0,0-8.93-.89,52.59,52.59,0,0,0-10.79,2.13c-8.66,2.85-17.76,3.45-26.75,3.59-7,.09-14-1.23-20.93-2.07-8.29-1-16.55-2.18-24.84-3.27a1.94,1.94,0,0,0-2.35,1.32c-.49,1.62.4,2.38,1,2.58,3.5,1.15,26.62,4.5,34.57,5.56,12.75,1.7,25.34,1.46,37.78-2,2.57-.72,5.16-1.4,7.71-2.2a24.08,24.08,0,0,1,10.9-.74c1.56.24,2.74,2.67,1.72,3.91-1.67,2-3.51,4-5.28,5.94-.71.81-.88,3,.55,3.68.85.41,1.91-.3,2.89-.46,1.94-.31,3.33.51,3.69,2.28s.44,3.29.61,4.94a2.37,2.37,0,0,1-1.75,2.13c-2.32.27-106.26,3.25-120.32,3.15a50.74,50.74,0,0,1-21.4-4.5c-10.47-4.87-16.65-13.08-19.36-24.13-1.53-6.22-1.49-12.34-1.32-18.74.1-3.67-1.69-15.59-2.33-17.92-.49-1.82-3.06-3.32-4.64-1.82-1.8,1.73.31,7.25.48,7.9,2.88,10.68,1.28,22,2.09,33,.07,1-1.1,2-1.92,1.7-1.25-.48-2.47-1-3.73-1.47-3.77-1.35-7.49-2.86-11.32-4A109.77,109.77,0,0,0,426,526.48q-20.55-.86-41.12-1.36c-14-.35-28.09-.49-42.14-.73-3-.06-6-.17-9-.25-8-9.21-18.74-11.23-30-11.6A67.3,67.3,0,0,0,284.86,515c-6,1.53-11.89,1.67-17.89,1.64-9.79,0-19.27-2.11-28.57-4.84A224.55,224.55,0,0,1,212,502.28a61,61,0,0,1-7.86-4.35,9.07,9.07,0,0,1-3.92-5.64,8.52,8.52,0,0,1-.06-3.92,15,15,0,0,1,6.3-8.79c3.56-2.47,7.22-4.83,11-7A98.71,98.71,0,0,0,243.64,451c10.29-11.8,17.46-25.2,20.5-40.72,4.16-21.23-.3-40.5-12.91-57.92-9.47-13.08-22.14-22.18-36.85-28.49a109.23,109.23,0,0,0-51.94-8.35,3.31,3.31,0,0,0-1.85.63c-.37.31-.44,1-.51,1.59a.91.91,0,0,0,.45.73,9.47,9.47,0,0,0,2.8.84c4,.17,8,0,12,.27a108.74,108.74,0,0,1,48.46,14.64,80.72,80.72,0,0,1,21.39,18,64.56,64.56,0,0,1,15.45,38.41c.62,9.45-1.34,18.62-4.62,27.51-4.57,12.43-11.75,23.23-20.64,32.93a109.9,109.9,0,0,1-24.59,20.48,50.88,50.88,0,0,0-11,8.62c-6.81,7.2-5.22,15.16,1.37,21.09a31,31,0,0,0,5,3.31,66.81,66.81,0,0,0,16.55,7c10,2.75,19.83,5.85,30.06,7.67a92.19,92.19,0,0,0,31.91.26,96.75,96.75,0,0,1,27-1.07c7.17.79,12.56,4.1,16,10.49,2.78,5.09,4.59,10.39,4.15,16.27a5.81,5.81,0,0,1-3.87,5.35,21.53,21.53,0,0,1-7.77,1.82c-7.71.11-110.35,7.79-111,7.87a32.08,32.08,0,0,1-19.32-3.74c-8-4.12-16.26-7.8-24.35-11.8a52.16,52.16,0,0,1-7.67-4.67c-6.77-5-10.41-12.09-12.46-20a99.43,99.43,0,0,1-1.93-9.84c-.92-6.28-1.62-12.59-2.55-18.87-.39-2.63-1.2-5.2-1.69-7.83a13.87,13.87,0,0,0-3.62-7c-2-2.21-4.12-4.39-6.08-6.67-10.58-12.32-18.78-26-23.36-41.68-7.39-25.3-5-49.6,7.86-72.71,8.47-15.18,20.25-27.39,34.53-37.15,7.82-5.34,22.63-14.45,59.81-12.32,16.66,1,35,7.1,45,9.51a27.48,27.48,0,0,0,5,.42c18.71.88,126.32,2.67,128.44,2.85a41.1,41.1,0,0,0,7,13.44,23.38,23.38,0,0,1,4.57,17c-.42,4.66-.9,9.32-1.57,13.95-.51,3.47.35,9.12,2.79,11.29.89.79,3.51,1.45,3.92-1.38.88-6,4.55-10.23,8.37-14.49,3.13-3.47,6.22-7,9.12-10.67s7.77-5.83,10.45.85c1.73,4.32.44,9.61,2.63,13.72,2.85,5.36,9,2.85,12.49-.27,5.21-4.7,5.16-5.53,9.78-.09a5,5,0,0,0,2.45,1.57,4.12,4.12,0,0,0,2.77-.51,7.82,7.82,0,0,0,1.85-2.29c3.27-4.65,6.5-9.32,9.82-13.93.54-.75,1.27-1.94,2.23-1.82,1.7.18.9,2.68.31,3.87-1.18,2.4-2.51,4.73-3.84,7.05a16.55,16.55,0,0,0-1.84,8.71c.08,5.36,4.08,10.87,11.13,10.29,5.28-.43,10.67-.61,15.81-2.45,2-.72,5.67-3.25,6.52-.88.28.79-.62,1.44-1.1,1.82A48.75,48.75,0,0,0,491,387.28a39.38,39.38,0,0,1-8.71,10.92,10.65,10.65,0,0,0-1.29,1.53c-1,1.23-.11,3.68,1.42,4.06a13,13,0,0,0,7.89-.45c1.86-.73,3.6-1.76,5.41-2.63,1.49-.72,3-1.42,4.53-2.12a1.81,1.81,0,0,1,2.13,1.38c.34,5.31-1.66,9.84-4.75,13.93-1.8,2.4-4,4.5-5.86,6.87a3.51,3.51,0,0,0-.47,2.78,3.31,3.31,0,0,0,2.9,2.44c3.67.13,7.33.16,11,.22a2.2,2.2,0,0,1,1.81,2c-.23,7.05-.71,14.05-4.51,20.31a8,8,0,0,0-.35.94,4.15,4.15,0,0,0,4.11,5.42,15.29,15.29,0,0,0,10.21-3.41c2.32-1.86,4-7.59,6.79-6,1.53.84-1,10.44-1,14.8a56.1,56.1,0,0,1-.88,12,41.31,41.31,0,0,1-5.52,13.9c-.72,1.12-1.39,2.28-2.09,3.41a3.35,3.35,0,0,0,3,4.94c10.37,0,18-6.72,22.29-15.1,2.56-5.06,5-10.18,7.61-15.24.75-1.48,1.63-2.9,2.51-4.3,1.38-2.21,2.25-.22,2.46.21,4.21,8.86,4.2,18.1,2.29,27.46a49.51,49.51,0,0,1-2,6.74c-3.07,8.53-1.4,16.49,3,24,1.86,3.15,4.18,6,6.3,9a1.88,1.88,0,0,0,2.67-.06c1.11-1.64,2.16-3.32,3.19-5s1.78-1.72,4.09-.68c.3.14.57.34.87.49,1.67.83,3.32.78,4.57-.62,2-2.24,4.4-2.83,7.23-2.6,1.66.14,3.34.09,5,.2,18.7,1.21,37.44,1.51,56.18,1.87,4,.08,8,.15,11.93,1.28,4.6,1.33,7.34,4.41,7.88,9.25a6.76,6.76,0,0,1,.09,1,41.27,41.27,0,0,0,3.31,17.57,22.6,22.6,0,0,1,1,13.82"/>
    <path class="cls-1" d="M583.58,425.11l-3.38,7.51a61.2,61.2,0,0,0-4.26,13.32,30.64,30.64,0,0,0-.09,12.93c.37,1.63.65,3.28.88,4.93.82,6.15.1,12-3.38,17.32-1.46,2.24-2.79,4.57-4.12,6.88-3.41,5.92-5.57,12.13-4.78,19.12a34.48,34.48,0,0,1,0,6,7.75,7.75,0,0,1-.83,2.83,2.42,2.42,0,0,1-1.4,1.29,2.12,2.12,0,0,1-1.67-.74c-3.85-4.66-5-10.1-4.25-16,.3-2.31,1-4.56,1.53-6.84a93.47,93.47,0,0,0,2.92-20.8,23.05,23.05,0,0,0-1.68-9.79c-.68-1.53-1.3-3.09-1.83-4.67a20.18,20.18,0,0,1,.79-15.58,98.89,98.89,0,0,1,11.46-18.79c1.22-1.58,2.66-3,3.76-4.67a3.68,3.68,0,0,0,.26-2.68c-.26-.93-2.83-1.27-3.61-.62a17,17,0,0,0-2.25,2,88.7,88.7,0,0,0-16.31,27.43,20,20,0,0,1-3.78,6.92c-2.51,2.74-4,6.1-5.64,9.43-2.62,5.41-5.32,10.79-8.17,16.08-1.94,3.6-4.64,6.55-8.67,7.91-2.41.81-1.33-2.93-1.08-3.55,2.65-6.63,3.44-13.56,3.38-20.64,0-1-.07-2-.05-3a25.47,25.47,0,0,1,5.51-15.78c1-1.31,2.15-2.57,3.16-3.9a10.48,10.48,0,0,1,5.76-3.77,6.08,6.08,0,0,0,2.5-1.46,2.28,2.28,0,0,0-.9-3.25,18.24,18.24,0,0,0-11.72.78,29.11,29.11,0,0,0-11.22,8.19c-2.41,2.76-4.4,5.92-7.6,7.92a2.35,2.35,0,0,1-1.84.25,1.8,1.8,0,0,1-.91-1.44,20.45,20.45,0,0,1,.7-3.95,54.61,54.61,0,0,0,2-15.87c-.26-7.1,3.89-11.24,9.74-13.75,3.61-1.54,7.52-2.95,11.69-1.81,3.34,1,5.22-3.81,1.14-4.84-8.34-2.1-15.89.69-22.26,6.42-2.24,2-6.62,7.29-10.08,7.94-3.19.59-2.76-.34-1.44-2.38a36.06,36.06,0,0,0,6.8-17.56c.62-5,3.53-7.79,8.2-8.91,3.24-.77,6.55-1.22,9.81-1.94.52-.11,1-.8,1.35-1.31s-.61-2.08-1.44-2.27a12.79,12.79,0,0,0-2-.46c-4.37-.23-8.68,0-12.76,1.87-5.15,2.36-10.33,4.67-15.49,7-.75.35-1.35.29-1.74-.37a1.18,1.18,0,0,1-.11-.91c4.1-8.72,9.77-15.88,19.16-19.41a19.19,19.19,0,0,0,4.4-2.35,12.23,12.23,0,0,0,2.69-2.91,4.27,4.27,0,0,0-2.56-6.35,13.24,13.24,0,0,0-6.93.1c-2.24.66-4.42,1.51-6.6,2.37A101.27,101.27,0,0,1,487,369.27a9.92,9.92,0,0,1-3-.11.89.89,0,0,1-.59-.53c-.12-.3-.21-.78-.06-1a16.59,16.59,0,0,1,2.62-3c2.65-2,5.43-3.89,8.13-5.85a34,34,0,0,0,14-22.4A46.79,46.79,0,0,1,511,325.85a10.62,10.62,0,0,1,4.49-5.25,11,11,0,0,1,2.83-.86,2.41,2.41,0,0,1,2.29,1.5c.31,3.31.28,6.64,1.29,9.9a20.59,20.59,0,0,0,5.6,9.33c1.31,1.22,3,1.86,4.6,1.11a17.37,17.37,0,0,1,9.7-1.79,3.1,3.1,0,0,1,2.57,2.65c.1,1.66.18,3.33.17,5a80.74,80.74,0,0,0,1.59,15.93,48.53,48.53,0,0,0,16,28.18,28.33,28.33,0,0,1,7.26,9.43c.71,1.51,1.55,3,2.25,4.48a88.36,88.36,0,0,0,11.92,19.65"/>
    <path class="cls-1" d="M671.53,316.91a36.76,36.76,0,0,0-15.3-4.38,32.54,32.54,0,0,0-16.59,2.9,22.18,22.18,0,0,0-7.27,5.24c-5.78,6.26-7.17,13.41-3.87,21.31a65.46,65.46,0,0,0,3.33,6.16,1.89,1.89,0,0,1-.74,2.56c-3,1.5-5.56,5-9.2,4.64-1.81-.18-8.87-4.7-9.69-6.63-.42-1,.35-2,.7-2.89,3.12-7.83,1.25-15.24-2.35-22.21a22.38,22.38,0,0,0-19.14-12.71,37.67,37.67,0,0,0-17.66,2.68,57.93,57.93,0,0,0-11.36,6.33c-2.18,1.53-4.65,5.91-6.79,5-1.18-.51-.7-2.24-.44-3a95.59,95.59,0,0,1,7.25-15.39c1.18-2,2.22-4.12,3.3-6.19.38-.73-.15-2.38-1-2.53s-2.16-.33-2.8.14a10.17,10.17,0,0,0-2.49,3.08,107.57,107.57,0,0,0-11.18,24.58c-.67,2.24-1.45,4.44-2.16,6.59-1.37,1.37-3.09,1.1-4.72,1.31a39.17,39.17,0,0,0-6.84,1.31c-4.32,1.4-5.58-.42-7-3.45-1.33-2.81-1.3-5.85-1.09-8.87a23.47,23.47,0,0,1,6.73-15.28,19.16,19.16,0,0,1,13.49-5.78c1,0,2-.21,3.42-.36,1.72-2.1,3.59-4.41,5.5-6.69a68.31,68.31,0,0,1,45.7-24.51c17.25-2,33.19,2.39,47.45,12.35,11.8,8.25,20.23,19.34,26.17,32.38.37.83.86,2.21.18,2.93s-2.36,0-3.57-.67"/>
    <path class="cls-1" d="M653.72,343.25c-6.76.85-12.44-1.78-16.33-7.56a4.57,4.57,0,0,1-.13-4.78,13.38,13.38,0,0,1,11-7.56c6.63-.68,12.55.8,17.48,5.52,2.15,2.05,4.4,4,6.72,6.09-.72.94-12.83,7.54-18.77,8.29m-76.87-1.71c-3.49-.93-6.72-2.72-8.35-6.75,2.45-2.31,4.81-4.61,7.25-6.82a18.5,18.5,0,0,1,16.66-4.4,14.42,14.42,0,0,1,10.88,9.2,3.7,3.7,0,0,1-.6,3.73,12.13,12.13,0,0,1-7.13,5.06,38.58,38.58,0,0,1-18.71,0m96.23-17.2a31.09,31.09,0,0,0-22.48-6.5,22.75,22.75,0,0,0-14.29,6.39c-4.6,4.56-6.71,13.45-.93,19.93,1.33,1.5,2.81,2.85,4.12,4.36a12,12,0,0,1,2.89,11.13,17.52,17.52,0,0,1-.57,1.91,1.77,1.77,0,0,0,1.17,2.37c2.14.91,4.48,1.39,6.52,2.46,5.66,3,9.32,7.46,9.56,14.14.11,3-5.78,13.5-7.36,14.72-3.13,2.43-6.69,4.22-9.33,7.42-1.37,1.65-3.9,2.58-6.08,3.28a51,51,0,0,1-31.53-.16c-2.54-.8-5.12-1.94-6.83-4.05a29.56,29.56,0,0,0-6.88-5.71c-4.88-3.3-6.94-7.92-6.53-13.76a18.33,18.33,0,0,1,1.86-6.7c4.63-9.81,13.64-10.64,14.33-13.3,1.57-6.06-.45-6.24,2.16-10.43,1.58-2.56,3.29-5,4.69-7.71a12.56,12.56,0,0,0,1.35-4.73,20.67,20.67,0,0,0-.36-6c-1.83-8.48-6.41-14.62-15.13-17a22.49,22.49,0,0,0-11.88.15c-12.48,3.38-21.95,11-29.72,21.06a8,8,0,0,0-1.45,3.65c-2.51,18,1.15,34,15.4,46.31a33.9,33.9,0,0,1,8.43,11q2.41,5,4.91,9.88c1.08,2.08,2.17,4.15,3.41,6.13a24.84,24.84,0,0,0,15.66,11.59,63.4,63.4,0,0,0,30.7.07,18.4,18.4,0,0,0,10.14-6,87.68,87.68,0,0,0,7.39-9.48c3.77-5.91,7.17-12.05,10.73-18.09.66-1.12,4-7.74,4.73-9.13a243.18,243.18,0,0,0,13.83-34.22c1.23-3.78,2.62-7.62,3.07-11.54.9-7.9,1-8.43-5.7-13.55"/>
    <path class="cls-1" d="M658.59,405.27c2.23,8.25,1.89,16.54.29,24.78a30.94,30.94,0,0,1-6,12.56,70.13,70.13,0,0,1-5.16,6.14c-6.25,6.59-11.74,13.69-15.66,21.95a3.37,3.37,0,0,1-2.37,1.44c-1.32.14-3.13-2.56-2.63-3.65a14,14,0,0,1,1.34-2.65c2.57-3.5,5.16-7,7.86-10.4a78.75,78.75,0,0,0,10.88-19.1,19.45,19.45,0,0,0,.85-3.84c.14-.72-1.06-2.14-1.83-2.05s-1.51.15-1.78.56a34.3,34.3,0,0,0-3,5.2,72.94,72.94,0,0,1-11.56,18.69c-.65.77-1.2,1.62-1.85,2.38-5.57,6.47-10.89,16.85-11.28,24.22-.59,11.06-4.31,11.94-8.35,16.95-3.14,3.9-3.46,12.31-8.85,12.11-3.05-.11-8.44-9.87-7.58-11.84.93-2.13,5.6-10.21,6.85-12.19,4-6.34,6.53-13.14,6.67-20.73,0-2,.3-4,.51-6a22.66,22.66,0,0,1,4.32-11.08c2-2.7,3.83-5.47,5.71-8.23,1.48-2.17,1.43-5.45,4.17-6.61a28.22,28.22,0,0,1,6.78-1.64,27.76,27.76,0,0,0,17.72-10.43c3.39-4.12,6.35-8.6,9.5-12.92a27.57,27.57,0,0,1,2.42-3.14c.38-.38,1.21-.3,2-.48"/>
    <path class="cls-1" d="M569.66,502.5a18.63,18.63,0,0,1,1.86-6.88,69.25,69.25,0,0,1,3.67-7.11c1.28-2.34,2.68-4.62,3.95-7a28.08,28.08,0,0,0,3.21-17.42,37.36,37.36,0,0,0-.71-3.94c-2.43-10,0-19.15,4.67-28,1.28-2.44,3-3.26,5.74-2.23,5.66,2.11,11.59,3.06,17.51,4,2.7.43,3.17,1.64,1.58,4.11a76.89,76.89,0,0,1-4.55,6.58,25.31,25.31,0,0,0-6,16.61c.16,9.38-2.87,17.74-8.21,25.27a58.39,58.39,0,0,0-7.15,14.25A28.76,28.76,0,0,1,575,514.05c-.35.27-1.33,0-1.8-.3a3.12,3.12,0,0,1-1.1-1.64c-.87-3.2-2.47-6.32-2.46-9.61"/>
    <path class="cls-1" d="M607.07,367.65c7.61-.34,11.71,1.85,14.4,6.78a3.05,3.05,0,0,0,4.38.84c1.1-.75,2.12-1.62,3.21-2.39,4.36-3.12,9.3-3.51,14.37-2.82a12.56,12.56,0,0,1,8.36,5c2.47,3.22,2.49,8.6.05,12.26a15.57,15.57,0,0,1-1.23,1.58c-4.38,5-13.6,8.69-21.92,4.44-2.78-1.42-4.49-3.89-6.34-6.25a2.93,2.93,0,0,0-3.64-.46c-1.1.75-2.16,1.58-3.25,2.34a34.89,34.89,0,0,1-3.32,2.22,19.87,19.87,0,0,1-12.54,2.46c-5.9-.82-9-4.81-9.74-9.88a6.85,6.85,0,0,1,.3-2.94c2.2-7.55,7.76-11.31,15-13,1.28-.3,2.65-.27,1.89-.2"/>
    <path class="cls-1" d="M111.78,456c1-.17,1.81,1.31,2.24,1.91,3.74,5.33,11,13.45,16.34,20.29,4.27,5.44,6,11.94,6.38,18.67.39,6.35,1.3,12.63,1.85,18.94,1.18,13.73,8.2,23.7,19.2,31.31A83.26,83.26,0,0,0,172.86,555q5.52,2.34,11,4.85a1.59,1.59,0,0,1,.79,2.36c-7.91.87-28.52,2.28-30.86,2.28-3.11,0-6-.21-8.66-1.57-2.12-1.08-3.69-3.71-4.3-6.16-.47-1.94-6.42-34.1-8.51-48.31A63,63,0,0,0,122,482.55c-4.67-7-9.24-16.53-10.5-22.65-.2-.95-.19-3.81.3-3.89"/>
    <path class="cls-1" d="M86.82,396.84a98.26,98.26,0,0,1,10-43.46,66.19,66.19,0,0,1,11.92-17.2,43.89,43.89,0,0,1,12.83-9.42,9.81,9.81,0,0,1,2.81-.9,2.34,2.34,0,0,1,1.73.61,2.3,2.3,0,0,1,.5,1.76,7.16,7.16,0,0,1-1.13,2.73c-1.4,1.86-2.94,3.63-4.47,5.39a97.94,97.94,0,0,0-23.71,53.09,96.8,96.8,0,0,0,6.54,49.05c1,2.46,1.93,4.94,2.85,7.43.08.24-1.15,1.71-1.82,1.16-5.36-4.28-8.83-10-11.49-16.12a81.2,81.2,0,0,1-6.53-30.12c0-1.33,0-2.67,0-4"/>
    <path class="cls-1" d="M638.21,511.54c-2,2.31-9.9.36-8.2-7.14a38.62,38.62,0,0,1,2.69-7.48c2-4.34,3.21-8.8,2.47-13.55-.65-4.21.65-7.92,2.34-11.56a59.35,59.35,0,0,1,10-14.86,128.08,128.08,0,0,0,12.09-14.61,2.41,2.41,0,0,1,4.1-.06c3.74,5.82,5.41,12.05,3.81,19a13.78,13.78,0,0,1-3.78,6.91c-2.38,2.33-4.82,4.59-7.25,6.87a54.15,54.15,0,0,0-16.61,29c-.54,2.58-.06,5.68-1.65,7.56"/>
    <path class="cls-1" d="M492.53,318.34c4.65-.42,9.31-1,13.93.05a1.88,1.88,0,0,1,1.19,2.34c-3,5.68-4.46,11.79-5.55,18a20.41,20.41,0,0,1-7.53,12.61c-5.44,4.38-11.06,8.53-16.62,12.76a1,1,0,0,1-.95.08c-.44-.41-1.09-1-1-1.46a15.73,15.73,0,0,1,1-4.8c1.36-3,3.13-5.88,4.56-8.88a7.34,7.34,0,0,0-.4-7.64,13.94,13.94,0,0,1-2.78-8.32c0-1.92-1-3.82-1.5-5.75-.4-1.61-.76-3.23-1-4.86-.23-1.38,1.37-3.46,2.78-3.68a29.32,29.32,0,0,1,4-.48c3.33-.06,6.66,0,10,0"/>
    <path class="cls-1" d="M403.91,357.79c-2.16-1.29.28-5.74,1-7.94,1.93-6,.21-11.16-3.17-16-2.28-3.29-4.73-6.46-6.92-9.8-1.06-1.64-3.58-5.28-1-6,12.1-3.56,18-3,29.05-1.56,1.53.19-.11,2.57-.73,3.72-2.76,5.11-4.28,10.47-3.62,16.33a13.29,13.29,0,0,1-3.33,10.18c-2.76,3.33-9.69,12.11-11.3,11.14"/>
    <path class="cls-1" d="M450.9,318.26c5.74-1.52,11.57-.65,17.47.06.55,1.13,1.27,2,1.34,2.84a28.14,28.14,0,0,0,2.38,8.6c1.65,4,.93,7.81-1.52,11.32-.76,1.09-1.41,2.26-2.2,3.33q-3.87,5.19-7.8,10.34a2.19,2.19,0,0,1-3.4-.3c-1.65-2.21-2.75-4.46-1.59-7.35a41,41,0,0,0,2-6.67,31.65,31.65,0,0,0,.54-5.92,7.57,7.57,0,0,0-2.31-5.36,16.21,16.21,0,0,0-2.36-1.81c-3.13-2.24-3.89-5.2-2.56-9.08"/>
    <path class="cls-1" d="M348.32,551.82l-5.12-.42c-6.52-.48-7.33-.2-6.82-7.5a34.93,34.93,0,0,0-1.69-12.73c-.26-.86.54-2.25,1.26-2.31,4.61-.41,9.13-.64,13.67,1.11,8.25,3.18,11.22,9.45,9.61,17.23a7.78,7.78,0,0,1-1,2.79c-.51.75-1.4,1.68-2.19,1.75-2.62.21-5.27.08-7.75.08"/>
    <path class="cls-1" d="M675.84,397.27c-1-2.88-1.75-5.78-2.9-8.52-1-2.43-2.47-4.7-3.65-6.89a25.33,25.33,0,0,1,3.37-8.52,3.69,3.69,0,0,1,3.54-1.28c10.4,3.17,15.58,12.47,14.81,20.21a31.58,31.58,0,0,1-1.76,6.74c-1,3.08-2.3,3.55-5.26,2.16-2.71-1.27-5.39-2.58-8.15-3.9"/>
    <path class="cls-1" d="M443.44,325.79c3,2.21,4.68,5.33,7.81,6.8a3.26,3.26,0,0,1,1.17,2.62c-.45,9.33-3.54,17.51-10.79,23.78-.56.49-2.28.32-2.58-.65s-2.4-12.07-3.55-17.62a9.84,9.84,0,0,1,1.58-7.61,24.19,24.19,0,0,1,6.36-7.32"/>
    <path class="cls-1" d="M674,453.35c-3.87-12-3.87-12-10.2-19.17.65-3.81,1.32-7.71,2-11.65a6.6,6.6,0,0,1,2.16,0,34.09,34.09,0,0,1,12.53,9.65c2.91,3.42,3.21,7.27,2,11.27a17.84,17.84,0,0,1-6.69,9.68c-.43.31-1.22.14-1.83.19"/>
    <path class="cls-1" d="M623.55,476.89c10.79,0,6.87,17.43,1.27,23.66a14.37,14.37,0,0,0-3.27,14,2.71,2.71,0,0,1-.22,1.9,2.11,2.11,0,0,1-1.49,1c-2.43,0-4.44-1.18-6.34-2.56-2.89-2.1-5.3-6.43.46-13.07,11.62-13.42,7.21-25,9.59-25"/>
    <path class="cls-1" d="M653.28,501.19c-2.16,3.29-3.73,7-5.68,10.41-.21.38-1.13.41-1.74.47-.16,0-.47-.4-.56-.67a17.36,17.36,0,0,1,1.14-12.56c3.43-7.64,7.67-14.72,14-20.31,2.24-2,4.45-4,6.85-5.74.49-.36,3-.29,2.69.59s-10.71,18.68-16.74,27.81"/>
    <path class="cls-1" d="M686.69,415.21a15.48,15.48,0,0,1-2.74,9.85c-.21.33-1.35.42-1.8.16-1.4-.82-2.68-1.87-4-2.83l-8-5.71c-.29-3.88,2.62-6.54,3.86-9.83s2.93-3.31,6.27-1.51c4.24,2.28,5.81,6,6.39,9.87"/>
    <path class="cls-1" d="M424.06,334.81c-.44-6.39,1.43-11.22,5.32-15.24,3.24-3.34,7.17-4.69,11.76-3.34.34.1.5,1,.6,1.59.05.26-.2.63-.4.88a187.16,187.16,0,0,0-14,19.33c-.21.35-1.23.48-1.72.31a2.29,2.29,0,0,1-1.17-1.34,10.59,10.59,0,0,1-.38-2.19"/>
    <path class="cls-1" d="M682.2,350.57c5.08,4.87,7.86,10.53,7.58,17.54-.1,2.52-1.69,3.72-3.75,2.78-2.68-1.22-5.37-2.43-8-3.66a2.61,2.61,0,0,1-1.66-3.14c1.26-3.73,2.51-7.46,3.9-11.14a10.7,10.7,0,0,1,2-2.38"/>
    <path class="cls-1" d="M665.43,408.68c-1-3.9-1.88-7.38-2.78-10.86a7.55,7.55,0,0,1,.54-4.8c.83-2.1,2.32-3.51,3.21-3.09a5.18,5.18,0,0,1,2.39,2.95c2.19,4.89,1.48,9.62-1,14.16-.35.65-1.35.95-2.4,1.64"/>
    <path class="cls-1" d="M594.36,332.76a5.45,5.45,0,0,1-5.19,5,5.3,5.3,0,0,1-5.52-5.54c.27-2.79,2.54-4.54,5.51-4.46a5.55,5.55,0,0,1,5.2,5"/>
    <path class="cls-1" d="M652,337.71a4.86,4.86,0,0,1-5.41-4.42,5,5,0,0,1,5.32-5.54,4.78,4.78,0,0,1,4.95,4.88,5,5,0,0,1-4.86,5.08"/>
    <path class="cls-1" d="M615.93,359.05c0,1.51-2.1,2.74-4.7,2.74s-4.7-1.23-4.7-2.74,2.11-2.75,4.7-2.75,4.7,1.23,4.7,2.75"/>
    <path class="cls-1" d="M637.29,359.05c0,1.51-2.1,2.74-4.7,2.74s-4.7-1.23-4.7-2.74,2.1-2.75,4.7-2.75,4.7,1.23,4.7,2.75"/>
    <path class="cls-1" d="M629.15,367.09c0,1.51-2.11,2.74-4.7,2.74s-4.7-1.23-4.7-2.74,2.1-2.74,4.7-2.74,4.7,1.23,4.7,2.74"/>
    <path class="cls-1" d="M619.85,393.16c3.45,0,11.23,6.14,11.51,7.62s-7.59,3.54-12.37,3.52c-4.37,0-12-2.58-12.61-3.91s9.89-7.23,13.47-7.23"/>
  </g>
</svg>
