<svg id="Livello_1" data-name="Livello 1" xmlns="http://www.w3.org/2000/svg" viewBox="0 0 841.89 841.89">
  <defs>
    <style>
      .cls-1 {
        fill: #231f20;
      }
    </style>
  </defs>
  <title>Glos</title>
  <g>
    <path class="cls-1" d="M655,614.46a56,56,0,0,1-6.75.34c-10.89-1-20.51-4.9-28-13.69-2.77-3.23-5.75-6.24-8.75-9.24C603.77,584.14,598,575.23,595.8,564c-2.32-11.64-7.32-22-13.36-32-11.19-18.5-22-37.26-33-55.92-2.15-3.67-3.63-4.79-5.09-3.41-2.35,2.23-.24,4.16.74,6,4.22,7.87,8.53,15.68,13.29,24.39-4.64,0-8.48,0-12.33,0-4.74,0-9.4.93-13.28,3.81a29.63,29.63,0,0,0-7.59,7.76c-6.67,10.76-12.75,21.93-19.4,32.71-6.52,10.56-3,21.3,4.86,27.66,5.19,4.23,8.37,9.79,11.11,15.77,1.77,3.88,1.32,6.76-1,8.73a8.05,8.05,0,0,1-2.27.82c-.82-2.21-1.47-4.33-2.37-6.32-2-4.41-5.38-7.51-9.06-10.28-1.29-1-2.57-1.47-3.78.08s-.62,2.83.57,3.94,2.57,2.07,3.73,3.25c2.32,2.34,4.44,4.85,4.82,8.93-9.11-.52-17.52-1.78-22-11.37a29.84,29.84,0,0,1-2.11-7.5c-.53-3-.28-6.13-1.06-9a27.27,27.27,0,0,0-3.86-8.49c-2.92-4.12-3.51-6.9-1.14-11.32a25.69,25.69,0,0,1,2.48-3.7c6.29-8,10.5-17.15,13.77-26.83,2.65-7.83,5-15.77,7.53-23.66a15.19,15.19,0,0,0,.43-1.64c1-5.19-.59-7.81-5.53-9.14-10.57-2.83-21.18-5.53-31.73-8.48a359.28,359.28,0,0,1-49.63-18.25c-15.17-6.77-30.5-13.19-45.38-20.6-18.13-9-35.91-18.85-53.75-28.52-8-4.31-15.68-9.12-23.55-13.65-4.12-2.38-4.58-2.1-6,2.42-3.51,11.05-9.15,20.91-15.45,30.4a294.67,294.67,0,0,1-31.68,39.34l-1.89,2c-5.05,5.36-8,10.73-5,19.09s3.87,17.66,5.87,26.49c1.89,8.42,6.63,15,12.65,20.62a90.11,90.11,0,0,0,17.46,13.15,25.94,25.94,0,0,1,5.74,5,3.37,3.37,0,0,1,.4,3,3.12,3.12,0,0,1-2.66,1.29,16.43,16.43,0,0,1-6.05-2.17c-3.42-2.38-6.56-5.21-9.79-7.9-1-.82-1.7-2.2-2.78-2.57a3.59,3.59,0,0,0-3.29.7,3.78,3.78,0,0,0,0,3.39,19,19,0,0,0,3.49,3.5c2.77,2.61,5.57,5.22,8.44,7.91-5.87,4.13-10.75,4.36-15.47-.09-6.54-6.16-12.78-12.71-18.87-19.39-4.3-4.72-5.39-11.1-6.16-17.28A75.2,75.2,0,0,0,216.35,498a74.27,74.27,0,0,1-6-13.9c-2.85-8.68-1.68-16.83,4.17-23.91,3.9-4.7,8-9.2,11.8-14a32,32,0,0,0,6.8-26c-.18-1.12-.44-2.22-.66-3.33-2.42-12.4-6.1-24.56-6.74-37.33a29.09,29.09,0,0,0-.83-3.74,30.46,30.46,0,0,0-2.79,4.13c-3.24,7.6-6.28,15.28-9.57,22.85-2.76,6.36-5.9,12.55-8.6,18.93-3.35,7.9-14.7,10.29-21.06,8.27a7.37,7.37,0,0,1-5.25-7.7,58.74,58.74,0,0,1,1.22-10.68c2.51-11.62,5.21-23.19,7.94-34.75.78-3.29,1.81-6.53,2.9-9.73a20.37,20.37,0,0,1,8.32-10.8c4.4-2.87,8.81-5.71,13.88-9-.57,2.36-1,3.93-1.31,5.54a24.35,24.35,0,0,0-.35,4.51c0,1.64.71,3.25,2.46,2.92.87-.16,1.83-1.56,2.18-2.61,1-3,1.3-6.36,2.67-9.14a91.44,91.44,0,0,1,8-13.45c9.76-13.46,20.64-25.53,35.06-33.82,11-6.3,22.31-7.66,34.3-5.84,14.8,2.24,28.91,7,42.68,13,26.62,11.64,53.23,23.3,79.94,34.69,11.93,5.1,24.11,9.57,36.18,14.32.67.26,1.37.42,2.05.67,8.09,3.1,14.85,1.1,21.12-5.15a85.53,85.53,0,0,0,23.42-43.14c3-13.58,6.81-27,10.29-40.62,3.33,6,6.25,12.1,9.9,17.66,3.93,6,9.59,10.15,15.68,13.54a45.26,45.26,0,0,0,19,5.74c6.56.43,13.18-.09,20.39-.19-.17,4-.26,8.45-.57,12.91-.87,12.47-1.64,24.94-2.8,37.38a34.18,34.18,0,0,0,8.4,26.55,74.84,74.84,0,0,1,15.29,27.79,217.14,217.14,0,0,1,6,26.46c2.68,17.3,3,34.68-.52,52a36.39,36.39,0,0,1-1.24,4.34c-.15.45-.62.78-1.11,1.35-3.23-8-6.43-15.74-9.43-23.56a8.23,8.23,0,0,1,0-4.38c7.1-33.21-2.92-61.14-23.66-85.74a120,120,0,0,0-8.58-8.6c-1.12-1.09-2.47-1.73-3.75-.19s-.78,2.79.39,4,2.64,2.56,3.94,3.87c14.45,14.5,24.09,31.84,27.8,52.67a81.3,81.3,0,0,1,.36,26,12.11,12.11,0,0,1-1.08,2.45c-4.77-8.13-9.42-15.73-13.76-23.52-11.48-20.61-26.42-37.69-45.81-50.19-3.79-2.44-8-4.17-12-6.19a19.79,19.79,0,0,0-2.06-.66c-2-.73-3.76-.49-4.33,1.81-.51,2.1,1.2,2.73,2.76,3.45,4.88,2.29,10,4.22,14.47,7.22,10.2,6.88,18.62,16,26.49,25.64,4.44,5.45,8.56,11.2,12.72,16.89,12.44,17,20.56,36.32,27,56.53a217.78,217.78,0,0,0,11.67,29.87,88.85,88.85,0,0,1,5.64,14.7c5,17.72,15.57,30.9,29.58,41.31,7.63,5.66,15.55,10.93,21.86,18.31a39.45,39.45,0,0,1,4.77,6.81c.59,1.08.7,3.56.1,4a5.63,5.63,0,0,1-4.37.66,7.24,7.24,0,0,1-3.23-2.74,118.65,118.65,0,0,0-19.54-20.25c-.57-.46-1-1.28-1.58-1.5-.94-.34-2.55-.75-2.88-.31-.65.87-1.16,2.65-.73,3.44a14.89,14.89,0,0,0,3.66,4,86.74,86.74,0,0,1,16.67,17.64,60.51,60.51,0,0,1,3.16,6.25"/>
    <path class="cls-1" d="M513.56,255.19c-4.24,0-8.34,0-12.44,0-5.15-.05-7.05-3-5-8,1.71-4.12,4.82-6.95,8.48-9.18a67.11,67.11,0,0,1,21-8.33,115.49,115.49,0,0,1,47.45-.3c-2,.87-3.13,1.47-4.32,1.86C560,234,551.6,237.91,544.35,244a57.82,57.82,0,0,0-9.8,10.38c-3.38,4.67-3,6.61.87,12,1.05-2.24,2-4.27,3-6.39,8.8,8.84,16.08,10.05,22.76,4,6.43-5.85,6.47-14.29-.19-24.17,8.81-4.05,17.79-7.63,27.32-6a40.38,40.38,0,0,1,16.21,7c7.42,5.35,15.54,7.53,24.08,8.74,7.44,1.05,14.94,1.62,22.41,2.42a22.45,22.45,0,0,1,3.19.43c6.41,1.62,8.63,6,5.82,12.26-3.12,6.94-7.76,11.9-15.83,11-4.43-.47-8.84-1.29-13.28-1.66a44.39,44.39,0,0,0-9,.18c-.78.1-2,1.87-1.9,2.77s1.58,2,2.54,2.09c8.85.92,17.72,1.65,26.88,2.45-2,7.1-7.22,9.81-13.47,11a22.32,22.32,0,0,1-5.36.07q-19.58-1.06-39.15-2.25a10.32,10.32,0,0,0-8,2.53c-17.77,15.78-40.8,8.45-53.69-3.23-8.38-7.59-13.26-17.23-14.8-28.76-.16-1.13-.3-2.25-.53-3.36a17.86,17.86,0,0,0-.91-2.27"/>
    <path class="cls-1" d="M272.53,445.35c8.61-13.4,16.91-26.62,23-42.06,3.56,2.13,7,4,10.19,6.23a6.55,6.55,0,0,1,2,3.82c1.08,5.35,2.63,10.74,2.69,16.13.12,9.81-.71,19.63-1.15,29.45-.27,6.05-.59,12.09-.8,18.14a45.94,45.94,0,0,0,3.71,19.86,81.12,81.12,0,0,1,2.72,8c4.15,13.43,10.9,25.15,21.41,34,4,3.38,8.74,5.8,13.26,8.44,5.15,3,10.51,5.63,15.62,8.72,2.11,1.27,4.75,3.12,4,6.1-.86,3.34-4.2,3.87-7,4.22-4.15.51-7.74-1.44-10.88-4s-5.84-5.58-8.88-8.21c-.62-.54-2.43-.7-2.74-.28a5.43,5.43,0,0,0-.74,3.45c.09.78,1,1.49,1.66,2.15,1.65,1.73,3.35,3.41,5,5.15.59.62,1.09,1.34,2.09,2.59-3.9,1-7.3,1.17-10.46.1a108,108,0,0,1-14.4-6.05,21.38,21.38,0,0,1-11-14,52.83,52.83,0,0,0-14.95-25.13c-1.33-1.26-2.5-2.71-3.78-4-7.18-7.44-10.84-16.23-9.87-27.06.52-5.84.32-11.74.71-17.59a24.3,24.3,0,0,0-3.32-14.06c-2.61-4.51-5.17-9.07-8-14.08"/>
    <path class="cls-1" d="M496.57,236.6a21.82,21.82,0,0,1-1.33,2.46c-.9,1.16-1.86,2.28-2.91,3.55-4.3-1-8.59-2.22-12.95-2.84a90.18,90.18,0,0,0-12.3-.63c-1.2,0-2.41.86-3.79,1.38,3.09,4.69,3.09,4.69,26.8,7.92.11,2.23.23,4.58.36,7.19-6.62,1.27-12.79.63-18.95-.48-6.9-1.25-13.6-3.17-19.7-6.92-3.1-1.9-6.05-4.09-6.81-8.32,2.06-3.46,5.36-5,8.79-6,11.78-3.22,23.65-3.63,35.48-.2,2.34.68,4.56,1.78,7.31,2.87"/>
    <path class="cls-1" d="M542.75,254.18c3.72-2.91,7.49-6,11.38-8.86,2.13-1.59,3.93-.93,5.37,1.38,2.17,3.5,2.42,7.07.37,10.61s-5.08,5.19-9,4.72c-4.14-.49-6.79-2.82-8.09-7.85"/>
  </g>
</svg>
