<svg id="Livello_1" data-name="Livello 1" xmlns="http://www.w3.org/2000/svg" viewBox="0 0 841.89 841.89">
  <defs>
    <style>
      .cls-1 {
        fill: #231f20;
      }
    </style>
  </defs>
  <title>Glos</title>
  <g>
    <g>
      <path class="cls-1" d="M681,122.81a35.35,35.35,0,0,0-16.86,0c-2.35-5.34-26.06-61.78-8.83-93.27,6.51-11.66,17.26-11.49,17.26-11.49s10.75-.17,17.25,11.49C707.09,61,683.39,117.47,681,122.81Z"/>
      <path class="cls-1" d="M654.56,126.83a34.55,34.55,0,0,0-11.94,11.94h0c-5.46-2.18-62.12-25.29-72.2-59.75-3.65-12.84,4.08-20.31,4.08-20.31S582,51,594.81,54.63C629.24,64.7,652.38,121.37,654.56,126.83Z"/>
      <path class="cls-1" d="M637.58,156.85a34.57,34.57,0,0,0,1,8.43c-5.35,2.34-61.78,26.05-93.27,8.82-11.66-6.5-11.49-17.25-11.49-17.25s-.17-10.75,11.49-17.26c31.49-17.23,87.92,6.48,93.27,8.83A34.45,34.45,0,0,0,637.58,156.85Z"/>
      <path class="cls-1" d="M654.56,186.86c-2.18,5.46-25.32,62.13-59.75,72.2-12.85,3.62-20.34-4.1-20.34-4.1s-7.73-7.47-4.08-20.32c10.08-34.42,66.74-57.57,72.2-59.74A35,35,0,0,0,654.56,186.86Z"/>
      <path class="cls-1" d="M689.86,284.12c-6.5,11.66-17.25,11.49-17.25,11.49s-10.75.17-17.26-11.49c-17.23-31.48,6.48-87.92,8.83-93.27a35.35,35.35,0,0,0,16.86,0C683.39,196.2,707.09,252.64,689.86,284.12Z"/>
      <path class="cls-1" d="M770.75,255s-7.5,7.72-20.35,4.1C716,249,692.83,192.32,690.66,186.86a34.84,34.84,0,0,0,12-12c5.46,2.17,62.13,25.32,72.2,59.74C778.47,247.49,770.75,255,770.75,255Z"/>
      <path class="cls-1" d="M811.4,156.85s.17,10.75-11.49,17.25c-31.48,17.23-87.92-6.48-93.27-8.82a35.35,35.35,0,0,0,0-16.86c5.35-2.35,61.79-26.06,93.27-8.83C811.57,146.1,811.4,156.85,811.4,156.85Z"/>
      <path class="cls-1" d="M774.82,79c-10.07,34.46-66.74,57.57-72.2,59.75h0a34.35,34.35,0,0,0-11.93-11.94c2.17-5.46,25.32-62.13,59.74-72.2,12.85-3.65,20.35,4.08,20.35,4.08S778.47,66.18,774.82,79Z"/>
    </g>
    <g>
      <path class="cls-1" d="M177.69,651a35.39,35.39,0,0,0-16.87,0c-2.34-5.35-26-61.79-8.82-93.27,6.5-11.66,17.26-11.49,17.26-11.49s10.75-.17,17.25,11.49C203.74,589.25,180,645.69,177.69,651Z"/>
      <path class="cls-1" d="M151.21,655.06A34.61,34.61,0,0,0,139.27,667h0c-5.46-2.17-62.13-25.29-72.2-59.74-3.65-12.85,4.08-20.32,4.08-20.32s7.49-7.72,20.34-4.07C125.89,592.93,149,649.6,151.21,655.06Z"/>
      <path class="cls-1" d="M134.23,685.07a34.45,34.45,0,0,0,1,8.43c-5.35,2.35-61.79,26.06-93.27,8.83-11.66-6.51-11.49-17.26-11.49-17.26S30.32,674.32,42,667.81c31.48-17.22,87.92,6.48,93.27,8.83A34.57,34.57,0,0,0,134.23,685.07Z"/>
      <path class="cls-1" d="M151.21,715.09c-2.18,5.46-25.32,62.12-59.75,72.19-12.85,3.63-20.34-4.1-20.34-4.1s-7.73-7.47-4.08-20.31c10.07-34.43,66.74-57.57,72.2-59.75A35,35,0,0,0,151.21,715.09Z"/>
      <path class="cls-1" d="M186.51,812.35c-6.5,11.66-17.25,11.49-17.25,11.49S158.5,824,152,812.35c-17.23-31.49,6.48-87.93,8.82-93.27a35.39,35.39,0,0,0,16.87,0C180,724.42,203.74,780.86,186.51,812.35Z"/>
      <path class="cls-1" d="M267.39,783.18s-7.49,7.73-20.34,4.1c-34.43-10.07-57.57-66.73-59.75-72.19a34.72,34.72,0,0,0,12-12c5.46,2.18,62.13,25.32,72.2,59.75C275.12,775.71,267.39,783.18,267.39,783.18Z"/>
      <path class="cls-1" d="M308.05,685.07s.17,10.75-11.49,17.26c-31.49,17.23-87.92-6.48-93.27-8.83a35.35,35.35,0,0,0,0-16.86c5.35-2.35,61.78-26,93.27-8.83C308.22,674.32,308.05,685.07,308.05,685.07Z"/>
      <path class="cls-1" d="M271.47,607.25c-10.07,34.45-66.74,57.57-72.2,59.74h0a34.35,34.35,0,0,0-11.94-11.93c2.18-5.46,25.32-62.13,59.75-72.2,12.85-3.65,20.34,4.07,20.34,4.07S275.12,594.4,271.47,607.25Z"/>
    </g>
  </g>
  <g>
    <path class="cls-1" d="M355,212.29h0a1.51,1.51,0,0,0-1.16-1.41c-26.67-7.85-50.62-17-69.48-34.4-22.63-20.88-19.35-32.76,13.38-25.61,24.12,5.27,93,41.13,108.9,59.51,6.19,7.17,10.93,17.26,14.19,26.75a3.52,3.52,0,0,1-4.06,4.61c-7.86-1.7-16.3-.78-24,1-1.68.38-21.48,6.86-18.93,10.24a.52.52,0,0,0,.54.17l10.31-2.57a.17.17,0,0,1,.2.19c-2.61,21.73,25.87,17.87,20.22,0a2.57,2.57,0,0,1,2.56-3.34c6.09.25,17.25,2.69,19,4.85,2.33,2.88,7.88,19.35,11,25,2.95,5.34,4.23,8.23,7.62,13.09a2.48,2.48,0,0,1-2.8,3.78c-5.35-1.7-9.09-3.77-14.94-4.53-.49-.07-1.16-.17-1.91-.25a2.63,2.63,0,0,0-.66,5.22c19.15,2.93,51.61,16.61,58.27,30.82,2.2,4.68,2.28,14.4-2.16,17.22-4.22,2.68-12.52-.65-15.85-1.45-10.47-2.5-25.24-6.9-35.07-11.44-10.51-4.84-18.75-11.06-19.42-5.83-.42,3.2,3.72,4.4,5.88,5.65C432,338.35,449,341.58,466,346.17c2.44.66,3.76,6.26-.22,7.43H454.34c-33.06-.32-70.45-8.6-96.34-28.81-3-2.37-10.41-9.27-11.12-3-.47,4.08,23.58,17.55,33.07,21.71,5.21,2.28,6.18,3.9,4.88,7-4.55,10.82-17.92,4.41-29.5.85-7.45-2.29-19.67-10.07-25.41-10.57-7.93-.69-19.23,2-27.15,2.12-25.74.53-70.46-1.82-95-8.36-2.87-.76-11.61-3.52-8.81-7.83,1.69-2.6,15.21-8,17.5-9,23.54-9.64,61.26-15.42,85.65-6.86,3.27,1.15,15.6,6.73,13.46,1.42-3.2-8-29.37-12.61-37.34-12.9-32.2-1.16-47,12.3-80.64-4.94-51.84-26.59-23.3-72.71-41.61-114.57-16.2-37-55.89-42.48-91.35-31.65-8.52,2.6-27.84,13.71-34.85,12.62-14.19-2.19,5.88-28.17,10.15-33.24,10.15-12.07,20.7-21.37,35.11-28a.17.17,0,0,1,.12,0c1.72-.85,4.75.37,5.68,1.42,10,11.29,25,20.18,39.37,18.65,4.26-.87,1.42-2.94-2.24-3.58-33.31-5.78-54.28-36.25-50.75-69.81,1.54-14.76,12.34-32.31,28.26-20.46,5.83,4.35,13.27,25.07,19.35,33.62,19,26.64,33.82,29.58,59.4,45.18,40.88,24.92,36.08,58.47,51.07,97,7.14,18.32,24.76,11.86,39.79,8.6,12.58-2.72,16.42-7.86,29.52-9.25,18.08-1.92,38.81,11.21,57.4,13.91a2.57,2.57,0,0,0,3-2.53"/>
    <path class="cls-1" d="M486.89,629.6h0a1.51,1.51,0,0,0,1.16,1.41c26.67,7.85,50.62,17,69.48,34.4,22.63,20.88,19.35,32.76-13.38,25.61-24.12-5.27-93-41.13-108.9-59.51-6.19-7.17-10.93-17.26-14.19-26.75a3.52,3.52,0,0,1,4.06-4.61c7.86,1.7,16.3.78,24.05-1,1.68-.38,21.48-6.86,18.93-10.24a.52.52,0,0,0-.54-.17l-10.31,2.57a.17.17,0,0,1-.2-.19c2.61-21.73-25.87-17.87-20.22,0a2.57,2.57,0,0,1-2.56,3.34c-6.09-.25-17.25-2.69-19-4.85-2.33-2.88-7.88-19.35-11-25-2.95-5.34-4.23-8.23-7.62-13.09a2.48,2.48,0,0,1,2.8-3.78c5.35,1.7,9.09,3.77,14.94,4.53.49.07,1.16.17,1.91.25a2.63,2.63,0,0,0,.66-5.22c-19.15-2.93-51.61-16.61-58.27-30.82-2.2-4.68-2.28-14.4,2.16-17.22,4.22-2.68,12.52.65,15.85,1.45,10.46,2.5,25.23,6.9,35.07,11.44,10.51,4.84,18.75,11.06,19.42,5.83.41-3.2-3.72-4.4-5.88-5.65-15.41-8.88-32.42-12.11-49.46-16.7-2.44-.66-3.76-6.26.22-7.43h11.47c33.06.32,70.45,8.6,96.34,28.81,3,2.37,10.41,9.27,11.12,3,.47-4.08-23.58-17.55-33.07-21.71-5.21-2.28-6.18-3.9-4.88-7,4.55-10.82,17.92-4.41,29.5-.85,7.45,2.29,19.67,10.07,25.41,10.57,7.93.69,19.23-2,27.15-2.12,25.74-.53,70.46,1.82,95,8.36,2.87.76,11.61,3.52,8.81,7.83-1.69,2.6-15.21,8-17.5,9-23.54,9.64-61.26,15.42-85.65,6.86-3.27-1.15-15.6-6.73-13.46-1.42,3.2,8,29.37,12.61,37.34,12.9,32.2,1.16,47-12.3,80.64,4.94C696.1,574,667.57,620.15,685.88,662c16.2,37,55.89,42.48,91.35,31.65,8.52-2.6,27.84-13.71,34.85-12.62,14.19,2.19-5.88,28.17-10.15,33.24-10.15,12.07-20.7,21.37-35.11,28a.17.17,0,0,1-.12,0c-1.72.85-4.75-.37-5.68-1.42-10-11.29-25-20.18-39.37-18.65-4.26.87-1.42,2.94,2.24,3.58,33.31,5.78,54.28,36.25,50.75,69.81C773.1,810.4,762.3,828,746.38,816.1c-5.84-4.35-13.27-25.07-19.35-33.62-19-26.64-33.82-29.58-59.4-45.18-40.88-24.92-36.08-58.47-51.07-97-7.14-18.32-24.76-11.86-39.79-8.6-12.58,2.72-16.42,7.86-29.52,9.25-18.08,1.92-38.81-11.21-57.4-13.91a2.57,2.57,0,0,0-3,2.53"/>
  </g>
</svg>
