<svg id="Livello_1" data-name="Livello 1" xmlns="http://www.w3.org/2000/svg" viewBox="0 0 841.89 841.89">
  <defs>
    <style>
      .cls-1 {
        fill: #231f20;
      }
    </style>
  </defs>
  <title>Glos</title>
  <g>
    <path class="cls-1" d="M661.82,265.21c3,0,5,.35,7.23,2.44.11.1,1.14,1,1.2,1,7,7.36,14.55,23.08,6.47,36.66-3.17,5.33-7.2,6.53-10.84,5a1.59,1.59,0,0,1-.92-1.71,2.06,2.06,0,0,1,1.23-1.64c8.65-3.53,10-19.09.94-22.26a1.22,1.22,0,0,0-1.47,1.62,7.82,7.82,0,0,1,.55,3.87,1.21,1.21,0,0,1-2.18.55c-7.12-9.38-9.48,4.51-2.81,9.56a2.12,2.12,0,0,1,.7,2.37c-1.73,4.88-7.25-.14-9-4.17-5.93-13.69,4.58-23.11,16.65-19.05a1,1,0,0,0,1.2-1.29c-1.1-3.32-3.39-7.42-6.39-8.09-8.42-1.88-21.86-.39-30.83-.82-5.86-.29-11.77-1.36-17.63-2a1.56,1.56,0,0,0-1.68,1.44c-.75,6.89-6.63,17.07-9.43,17.2-6.07.29-13-13.47-16.78-24.42-1.1-3.17-5.2-11.48-1.67-12.63a1.68,1.68,0,0,1,2.1,1.23c2.68,9.78,7.3,21.8,14,28.79a1.23,1.23,0,0,0,1.8,0s0,0,0,0c12.43-11-7.83-36-21.41-41.11a1.14,1.14,0,0,0-1.46,1.33c1.71,10.05.18,20.38.9,30.47.5,7.07,4.91,19.55,9.06,25.16,9.45,12.79,20.64,8.57,33.5,12.27,4.51,1.3,8.14,3.63,12.24,5.8.14,1.28-1.3.53-2,.37-1.61-.39-3.24-1.27-5-1.56-19.74-3.25-56.21,9.46-54.29-25,.86-15.44,4.21-33.76-.14-53-2.06-9.11-14-2.59-18.86,1.58-35.26,30.47-60.4,75.58-84.2,116-.5,1.09-2.45,1.73-3.19.68a2.65,2.65,0,0,1-.14-2.1c.61-1.95,7.7-12.94,9.89-17.42a.7.7,0,0,0-.94-.95c-5.27,3.13-10.48,6.19-16.48,7.63-32.3,7.75-73-1.08-105-9-52.66-13.06-98.51-48.16-154.14-23.69-38.33,16.86-54.24,55.77-60.5,96.8-4.32,28.33-6.48,57-4,85.69.66,7.51,3,16.8,3.23,23.87.39,11.32-1.61,17.65,3.3,29.15,2.24,5.22,6,7.83,8.2,11.78.77,1.38.84,3.09,1.28,4.15a1.16,1.16,0,0,0,2.22-.33l.28-1.72A1,1,0,0,1,158,555l1,.36a1,1,0,0,0,1.18-1.37,11.9,11.9,0,0,1-1.36-4.47c0-2.67,1.6-5.77,1.89-8.23,1.65-14.63-10.74-20.82-11.58-32.61-1.58-22.33,10.42-41.21,17.26-60.81,8.06-23.07,14.16-56.88,15.94-81.32.24-3.29-.07-9.27,3.17-10.08,4.27.72.72,17.32-.1,24a5.21,5.21,0,0,0,.83,3.55c8.25,12.24,9.51,26.75,9.36,41.54-.11,10.41.57,35.73-1.93,44.27-4.59,15.67-25.11,17.84-26.48,34-1.28,15,11.83,34.53,14.12,51.88.56,4.22.62,19.16,3,21.37,3.94,3.68,10.73-4.2,10.46-7.32-.06-.74.13-.9.62-1a.91.91,0,0,1,1,.63c.71,2,1.52,3.41,1.77,5.32.72,5.43-1.35,10.06.4,15.25a16.46,16.46,0,0,0,8.5,9.4c2.92,1.39,18.43,6,21.24,6a6.63,6.63,0,0,0,6.47-5.14,1.09,1.09,0,0,1,1.57-.74c2.36,1.25,4.63,2.85,7.22,3.5,5.08,1.29,9.21,1.22,5.47-5.09-8.3-14-18.22-18.74-28.9-28.71C208,558,204.4,535.4,207.52,519.21c2.75-14.25,15.8-36.43,29.53-41,2.09-.7,5.93-.6,4,2.23-.28.41-6.94,3.45-8.56,4.57a36.77,36.77,0,0,0-4.51,3.75,2.74,2.74,0,0,0,.37,4.23c3.31,2.07,3.41,8.12,5.13,12.39,2.12,5.23,7.67,13.75,13.56,14.14,3.77.26,5.23-2.2,6.28-4.11a2.64,2.64,0,0,1,3.76-1c2.1,1.34,4.34,2.88,6.64,3.29,2.87.52,6.73.4,7.15-3.5a153.5,153.5,0,0,0,.37-18.64c-.09-2.19-.85-11.27.35-12.12a1.87,1.87,0,0,1,2.23-.35c2.75,1.13,1.25,38.79,1.75,43.89,1.75,17.67,17.5,22.72,27.33,34.46,6.11,7.31,10.37,17.54,18.14,23.06,3.16,2.25,7.12,3.47,10.31,5.44,11.58,7.15,15.74,22.3,30.35,25.14a30.16,30.16,0,0,0,16.26-.87c3.55-1.28,10.3-5.05,10.69-9.62a1.28,1.28,0,0,1,1.84-1.13h0a2,2,0,0,0,2.49-.45c2.26-2.48,4.61-6.57,3.33-9.55-2.25-5.22-27.08-15.22-33.06-15.46-6.42-.25-6.75.47-10.42-1.25-2.42-1.13-14.55-14.4-17.1-17.34-13.47-15.55-18.69-25.74-22.12-46.78-3.67-22.45-3-36-13.53-57.21-4.29-8.63-10.29-19.22-18.56-24a2.8,2.8,0,0,1-1.37-2.18,1.31,1.31,0,0,1,1.17-1.47c3.83-.26,9.17,4.47,11.56,7.28,8.35,9.85,11.66,24.1,26.76,25,8.6.5,8.19-5.08,4.93-11.36-1-2-9.85-12.53-4.94-12.51,1.71,0,7.29,9.06,9.37,13.29a2.92,2.92,0,0,0,2.42,1.66c9.72.53,18.52,6.26,27.51,9.61,24.06,9,50.1,18.54,75,24.3,28.81,6.65,59,6.76,86.8,17.46.28.11.64.16.72.45s-.07.53-.37,1a99.23,99.23,0,0,0-5.29,9.41c-3.74,8.37-3.35,17.17-6.86,26.12-3.22,8.19-13.77,24.07-14.79,31.37-1.28,9.21,6.95,9.59,13.41,10.2a1.45,1.45,0,0,1,1.06,2.17C505,589.76,493.08,598.4,493.42,604c.27,4.42,4.22,4.88,7.58,5.63,14.64,3.3,32.11,3.35,46.38-1.66,2.59-.91,5.54-1.68,7.33-4a2,2,0,0,0,.17-2.11c-.88-1.66-3.21-3.73-4.11-4.63-3-3-6.8-6.37-10-9.17-2.75-2.39-9.48-6-11.89-9.22-2.84-3.82,2.71-18,4.81-22.14,4.08-8,10.5-14.44,15.3-22,5.64-8.84,10.14-18.93,11.82-29.53a2.82,2.82,0,0,0-.46-2.06c-3.21-4.6-10.38-14.32-11.49-20.54a4.12,4.12,0,0,1,1.8-4.17,1.79,1.79,0,0,1,2.12.14,2.24,2.24,0,0,1,.57,2.24c-.44,2.28-.52,2.64.54,5.53,4,10.87,16.67,25.45,25.68,31.42,6.18,4.1,4.56,3.53,9.22,8.66,12.6,13.84,23.28,20.08,16.15,42.91-2,6.49-12.61,22.7-.36,24.16,6.37.76,10.34-5.72,16.3-.87,5.66,4.6-4,11.5,2.75,16.16,3.45,2.39,17.35,3.06,21.53,2.36,2.66-.43,5-3.2,7.42-3.76s3.8.5,6.06.36c3.52-.23,6.45-2.17,5.43-6.26-.76-3-13.34-13.68-16.41-16.05-1.55-1.19-8.91-5.47-9.56-6.24-.81-1-.16-3.24-.6-4.81-1-3.51-4.85-8.84-6.34-14.42-5-18.92-6.41-40.86-10.19-60.49a25.76,25.76,0,0,1-.27-8c1.53-12.27,7.81-23.07,8.7-35.88,2.07-29.55-10.68-50.44-17.8-77.14A8.51,8.51,0,0,0,607.2,373c-6.48-3.21-17.39-10.62-17.15-15.44,0-.73.38-1,1-1.05,2.74,0,4.16,3.38,6.42,5.48,3.58,3.31,11.86,8.8,16.41,9.9,7.49,1.79,15.6-.09,23.09-2.34a3.75,3.75,0,0,1,4.72,2.9c1.19,5.64,6.85,8.5,12.59,9.2,2.93.35,6.16-.31,9,0,2.13.27,3.73,1.69,5.84,2a29.31,29.31,0,0,0,5.14,0,2.07,2.07,0,0,0,1.76-2.83c-3.35-9.33-5.08-20.36-4-30.12.23-2,.74-3.62,2-3.55a1.88,1.88,0,0,1,1.66,2.13c-.85,8.7.05,26.5,4.69,32.61,1.8,2.37,7.34,1.89,11.24.79a1.79,1.79,0,0,0,.71-3c-11.41-11.26-12.11-33.31,6.88-31.28a1.92,1.92,0,0,0,1.86-2.72c-2.44-5.8-6.47-11.49-7.15-17.63-.43-3.88.15-8.2-.07-12.17-.17-3-1.38-6.53-1.34-9.54.06-4,2.2-8.34,2.55-12.35,1-11.44-5.74-21-14.65-26.57A20.15,20.15,0,0,1,671.29,249c0-.46.05-.84,0-1.13-.37-11.79-11.26-20.34-21.64-21.44-20.41-2.15-40.87,7.57-61.29,7.51A.65.65,0,0,0,588,235c5.39,5.13,12.27,8.22,16.28,14.81a1.15,1.15,0,0,0,2,0,46.11,46.11,0,0,1,9.3-11.16c1.27-1.09,6.49-5.42,7.75-3.45a2.79,2.79,0,0,1,0,2.77c-.3.5-7.52,5.09-9,6.79-4.47,5-5.8,7.32-6.57,10.14a1.52,1.52,0,0,0,.34,1.43l3.93,4.34a1,1,0,0,0,1.61-.29c2.21-5.18,4.54-10.34,7.83-14.88.84-1.17,3.8-5.17,5.9-6.34a1.43,1.43,0,0,1,1.92.53,1.69,1.69,0,0,1-.21,2.08c-3.39,3.51-10.9,15.23-12,19.75a1.43,1.43,0,0,0,1.17,1.76l6.4.79a1.3,1.3,0,0,0,1.34-.79,77.37,77.37,0,0,1,4.45-8.93c1.6-2.68,6.52-10.49,9.88-11.56a2,2,0,0,1,1.57.15c3.18,1.68-1.83,4.26-3.46,6.23a70.18,70.18,0,0,0-8.31,13.62,1.07,1.07,0,0,0,.78,1.56L636,265a1.31,1.31,0,0,0,1.38-.91,48.79,48.79,0,0,1,7.51-13.5c1.59-2,6.41-8.07,9-6.16s-1.41,3.53-3.28,4.75c-4,2.57-7.13,9.62-9.09,14.57a1.06,1.06,0,0,0,.93,1.47Z"/>
    <path class="cls-1" d="M702.35,353.08c-17.26-5.82-17.71,13.76-7.57,23.5a3.18,3.18,0,0,0,5-.7,32.72,32.72,0,0,0,4.85-19.77,3.44,3.44,0,0,0-2.26-3"/>
  </g>
</svg>
