<svg id="Livello_1" data-name="Livello 1" xmlns="http://www.w3.org/2000/svg" viewBox="0 0 841.89 841.89">
  <defs>
    <style>
      .cls-1 {
        fill: #231f20;
      }
    </style>
  </defs>
  <title>Glos</title>
  <g>
    <path class="cls-1" d="M390.46,310.72c-.6,1.17-13.57,33.11-16,40.24a3.77,3.77,0,0,1-4.22,2.17c-8.22-1.75-15.71-5-21.61-11.18a69.85,69.85,0,0,1-5.87-7.18c-3.65-5-7-10.19-10.78-15.1-3.34-4.36-6.91-8.55-10.58-12.63-7.11-7.89-16.09-12.72-26.21-15.61-1-.28-2-.4-3-.66a3.43,3.43,0,0,1-2.2-3.11,49.05,49.05,0,0,1,3.27-11.88q5.87-15.4,11.55-30.87c.44-1.21,1.58-4.09-.25-4.77s-3.12,2-3.45,2.91c-2.36,6.83-5.38,13.36-8.28,20s-8.34,25.69-8.54,28.41a4.06,4.06,0,0,0,3.38,4.48c2.25.42,4.52.77,6.8,1a27.64,27.64,0,0,1,9,2.59,49.84,49.84,0,0,1,18.45,14.75c4.38,5.74,8.7,11.54,12.7,17.53,4.24,6.34,9.42,11.82,14.65,17.27,2.89,3,6.54,4.9,10.35,6.6a95.51,95.51,0,0,0,18.68,5.66c6.35,1.39,12.77,2.79,19.37,2.48a15.71,15.71,0,0,1,2.05.15c2.29.22,4.05,1.73,4.11,3.84.09,3.77.23,7.56,0,11.32a92.56,92.56,0,0,1-1.62,11.21,13.62,13.62,0,0,1-2.05,4.65,20.77,20.77,0,0,1-8.61,7.15c-2.16,1-4.44,1.86-6.48,3.1a2.17,2.17,0,0,0-.74,2.71c.26.63,1.1.77,1.72.82a8.83,8.83,0,0,0,3-.28,29.22,29.22,0,0,0,13.61-8.92c1.29-1.42,3.08-1.06,4.29.65,5,7.07-2.53,94.8-3.55,96.16-3.62-5.26-5-11-7.22-16.33a6.31,6.31,0,0,1-.33-3.05c1.39-10.39-.36-20.56-2.05-30.74-1.51-9.15-3.67-21.53-5.25-30.67a2.13,2.13,0,0,0-2.45-2c-1.23.13-1.44,1.87-1.39,2.57a206.38,206.38,0,0,0,3.44,24.47,163,163,0,0,1,3.26,17.21c.83,6.47,1.19,13-.9,19.41a72.52,72.52,0,0,0-2.34,10c-1.75,9.85-6.81,17.94-13.5,25.05-4.93,5.25-10.2,10.17-16.5,13.9-3.53,2.08-6.64,4.87-10,7.24-3.65,2.55-7.29,5.15-11.11,7.44a15.2,15.2,0,0,1-13.88,1.26c-6.06-2.38-12.19-2.1-18.16-.22-13.23,4.16-25.37,10.4-35.83,19.7-4.87,4.34-9.92,8.49-15,12.57a16.58,16.58,0,0,1-4.45,2.11,2.18,2.18,0,0,1-3-2.11c.19-4.83.6-9.59,2.69-14.07,1.45-3.1,2.66-6.33,4.21-9.39,4.51-8.88,9.48-17.52,13.15-26.82a4.61,4.61,0,0,1,4.83-3.1c3.77.2,14.4-1.89,15.84-2.74a1.85,1.85,0,0,0,.42-1.72c-.19-.52-1-1.28-1.38-1.2a75.11,75.11,0,0,1-21.53.9,20.83,20.83,0,0,1-3.06-.4,8.81,8.81,0,0,1-6.16-5c-1.73-3.81-1.42-14.59.1-14.59,2.67,1,5.26,2,8,3,.47.11,1.23-.46,1.66-.92a2.08,2.08,0,0,0-.55-2.67c-1.54-.73-29.62-13.14-31.24-14.4-2.16-1.66-3.29-4.65-3.94-7a24.82,24.82,0,0,1-.66-5.1,133.38,133.38,0,0,1,2.59-35.88c5.31-24,14.67-46.43,26.92-67.69a7.84,7.84,0,0,1,1.8-2.48c.72-.53,2.06-1.06,2.72-.75,7.4,3.6,23.84,10.86,24.36,11.51-2,3.12-5,7.57-7,10.74a14.18,14.18,0,0,0-2.05,9.88,28.53,28.53,0,0,0,.44,3.06c1.43,6,.1,11.56-2.09,17.09a102.7,102.7,0,0,1-11,20.93,58.5,58.5,0,0,0-3.68,6.13c-.22.41.15,1.28.49,1.78a2.17,2.17,0,0,0,2.76.13c.23-.24.59-.37.78-.63a130.67,130.67,0,0,0,14.73-25.92,46.75,46.75,0,0,0,3.39-18.1c0-1.36-.28-2.74-.34-4.1a15.78,15.78,0,0,1,3.27-10.62,69.08,69.08,0,0,1,5.53-6.08,4.45,4.45,0,0,1,4.69-1.33c7.52,2.4,15.05,4.73,22.51,7.27a44.05,44.05,0,0,1,7.43,3.48c4.79,2.71,9.47,5.58,14.19,8.4a79.24,79.24,0,0,0,17.84,7.88,33.55,33.55,0,0,0,12.23,1.07,1.81,1.81,0,0,0,1.81-2,1.77,1.77,0,0,0-1.44-1.72c-12.62-1.28-23.68-6.69-34.47-12.84-.9-.5-1.79-1-2.66-1.56-12.63-7.85-25.16-11.85-39.57-16.27C285.67,367.51,252,353.2,248,339.19a14,14,0,0,1,.17-10.11,126.42,126.42,0,0,1,6.13-14.17c6.39-11.77,12.49-23.71,19.91-34.9,3.41-5.14,6.21-10.69,9.17-16.12,8.9-16.33,19.31-31.66,30.34-46.61a62.82,62.82,0,0,1,21.92-18.39,54,54,0,0,1,13.54-4.68c7.79-1.74,15.64-2.14,23.54-2.41a11.92,11.92,0,0,1,4.05.41,3.39,3.39,0,0,1,2.05,2c1,4.34,1.67,8.77,2.67,13.12a69.75,69.75,0,0,0,10.55,24.44A37.24,37.24,0,0,0,403.93,243c4.83,2.84,4.8,2.88,11.68,1.3,15.58,18.23,32.75,35,50.37,52.07.54,2.95,1.39,6.3,1.73,9.7a70.87,70.87,0,0,0,5,18.85c.75,1.92,1.55,3.82,2.22,5.77a2.35,2.35,0,0,1-.08,1.85,2,2,0,0,1-1.74.46,101,101,0,0,0-23-5.13,86.8,86.8,0,0,1-16.2-2.86c-7.3-2.16-14-5.57-20.75-9-5.21-2.62-10.32-5.46-15.4-8.32a61.09,61.09,0,0,1-6.87-4.51,16.06,16.06,0,0,1-5.74-8.31c-3.66-11.44-7.57-22.81-11.41-34.2-.88-2.6-1.82-5.18-2.88-7.71a7,7,0,0,0-1.82-2.43,2,2,0,0,0-1.82-.18,2,2,0,0,0-1,1.53,31.56,31.56,0,0,0,1.31,4.94c3.8,11,7.66,22,11.44,33.07.16.47.82,2.65-1.5,1.83-1.3-.45-11.11-3.53-14.77-4.4-1.26-.3-3.92-.62-4.88.67a2.1,2.1,0,0,0,.88,2.86c1.91.71,13.6,4.5,17.18,6.57,1.42.83,1.76,2.16.79,3.37s-2.31,2.54-3.24,4c-.52.8-1.74,3-.31,4.34,1.27,1.15,3-.26,3.16-.52,5.24-7.14,6.15-4.52,11.31-.71a29.59,29.59,0,0,1,2.91,2.81"/>
    <path class="cls-1" d="M411,163c2.22.1,3.25.2,4.28.19,3,0,6.46,1.34,9-.55,2.07-1.54,3.23-4.33,4.74-6.61,7.14-10.84,17.15-18.09,29.61-20.81,28.63-6.25,51.05,9.45,58.89,31.36,5.38,15,4,29.72-4.44,43.5a21.84,21.84,0,0,1-3.39,3.82c-1.05,1-3.92.21-4.33-1.22a40.77,40.77,0,0,1-1.18-5c-2-13.29-9.73-22.38-21.13-28.72a29.5,29.5,0,0,0-11.64-3.85,60.89,60.89,0,0,1-7.13-1,10.23,10.23,0,0,1-3.63-1.7c-1.37-1-2.43-2.43-3.82-3.38a8.52,8.52,0,0,0-9.69-.23,10.71,10.71,0,0,0-5.52,8.23,34.19,34.19,0,0,1-.36,4.07,4.44,4.44,0,0,1-1.59,2.5,54.67,54.67,0,0,1-8.06,4.45,52,52,0,0,1-20,4.16c-7.23,0-14.43,0-21.37-2.41-3.9-1.37-7.69-2.94-10.74-5.87-4.17-4-3.46-8.67-.14-11.76a26.94,26.94,0,0,1,6.75-4.59,41.25,41.25,0,0,1,15.79-4.23L411,163"/>
    <path class="cls-1" d="M385.08,193.17c1.81.4,3.78.74,5.7,1.29a76.21,76.21,0,0,0,31.58,2.1,37.51,37.51,0,0,0,17.9-7.19c3.69-2.79,6.44-6,5.84-11.23-.25-2.16,1.36-3.79,3.43-4.65a5.66,5.66,0,0,1,6.58,1.36c1.19,1.19,2.18,2.58,3.38,4a35.91,35.91,0,0,1,13.27.88c11.72,3,20.14,9.91,25.17,20.89a42.46,42.46,0,0,1,1.75,5.88c.85,3,.06,5.4-2.66,7.06-1.68,1-3.07,2.76-5.28,2.35-1.37-3.56-2.45-7.19-4.12-10.53s-4.3-5.38-8.28-4.8c-.47.07-.89.86-1.21,1.39a1.23,1.23,0,0,0,.06,1c.43.92.93,1.8,1.46,2.81a35.58,35.58,0,0,0-2.9,2.61,3.9,3.9,0,0,0-.78,4.69,3.56,3.56,0,0,0,3.29,2c1.72,0,3.43,0,5.14,0,1.3,0,2.18,1.54,2,3-.69,4.82-3.52,8-7.55,10.44a3.38,3.38,0,0,1-4.48-1,29.4,29.4,0,0,0-3.08-3.91c-.14-.16-.66-.11-.94,0s-.78.49-.74.63c.91,3.25-.85,5.2-3.24,6.87q-2.1,1.47-4.22,2.91a2.29,2.29,0,0,1-2.85-.22c-1.78-1.56-3.36-3.35-5.14-4.93a1.74,1.74,0,0,0-1.68.1,2.14,2.14,0,0,0-.67,1.8c.6,1.58,1.49,3.05,2.23,4.58a3.52,3.52,0,0,1-.7,3.74,34.15,34.15,0,0,1-4.15,3c-3.8,2.21-7.27.57-9.41-3.24a18.24,18.24,0,0,1-1.88-4.78c-1.21-5.35-2.26-10.7-1.51-16.29.5-3.72.47-7.52.64-11.28,0-.94-1.31-2-2.09-1.67a3.89,3.89,0,0,0-1.58,1.1,6.52,6.52,0,0,0-.72,1.91c-1.55,5-1.41,10.17-1,15.32.14,1.7.57,3.37.83,5.07.76,5,.74,5-4.29,5.46a36,36,0,0,0-16.38,5.53c-2,1.29-3.92.85-5.75-.32a30.75,30.75,0,0,1-7.58-6.9A73.8,73.8,0,0,1,384,198.28c-.27-1.67-.41-3.42,1.07-5.11"/>
    <path class="cls-1" d="M355.27,608a23.71,23.71,0,0,1,4.55-2.49c1.6-.46,3.4-.24,5.1-.42,3.75-.39,7.52-.67,11.22-1.29a52.13,52.13,0,0,1,15.37-.4,3.92,3.92,0,0,1,3.09,3.6,91.24,91.24,0,0,1-1.14,11.24c-2.15,10.57-1.43,21.19-.9,31.81.16,3.08.67,6.14.93,9.22.78,9.33,5.74,16,13.47,20.71a46.94,46.94,0,0,0,7.42,3.48c7.33,2.9,14.74,5.6,22,8.55a23.78,23.78,0,0,1,5.08,3.33,2.91,2.91,0,0,1,.27,3.74,9.34,9.34,0,0,1-2.08,2.21,28,28,0,0,1-14.52,4.61c-9.61.06-19.23.18-28.83-.18a64.5,64.5,0,0,1-19.1-3.75,22,22,0,0,1-5.36-2.93,5.86,5.86,0,0,1-2.56-4.3c-.19-2.73-.34-5.47-.29-8.21.1-5.15.43-10.29.52-15.44a104.85,104.85,0,0,0-6.84-39.31c-2.93-7.7-5.11-15.58-7.43-23.78"/>
    <path class="cls-1" d="M492.23,357.07a18.6,18.6,0,0,1-2.33-3.27c-1.48-3.46-2.81-7-4.11-10.52-3.08-8.35-6.1-16.72-9.15-25.08a93.63,93.63,0,0,1-4.21-15.86,12.87,12.87,0,0,1,.06-4.06,2,2,0,0,1,1.34-1.32,147.24,147.24,0,0,0,16.39-1c14.75-1.7,29-4.93,42.1-12.21,1.68-.93,3.17-.2,3.89,1.87,2,5.82,4,11.65,5.93,17.5a9,9,0,0,1-.21,6,24.68,24.68,0,0,0-1.62,5.89c-.15,1.62-.11,3.83.84,4.89,2.61,2.91,2.51,5.94,1.92,9.44a6.45,6.45,0,0,0,3.36,7c3,1.65,4.24,4.31,4.87,7.39a1.93,1.93,0,0,1-.91,1.6,7.68,7.68,0,0,1-2.92.7c-3.42.18-6.85.22-10.28.35a118,118,0,0,0-39.89,8.78c-1.57.62-3.17,1.17-5.07,1.86"/>
    <path class="cls-1" d="M378.35,354.48c3.47-10.07,12.22-33.89,13.54-36.28,2.31-4.18,4.22-4.84,8.37-3,2.52,1.09,5,2.29,7.44,3.52,2.14,1.09,4.25,2.25,6.34,3.44a101.46,101.46,0,0,0,37.82,12.63c22,2.89,30.24,9.6,33,20.46.42,1.65.66,3.35.95,5,.16.9-.9,2.39-1.66,2.3s-1.46-.15-1.78-.56c-1.92-2.39-3.72-4.87-5.55-7.32a2.06,2.06,0,0,0-2.72-.2c-1.12,1.27-6.86,30-7.1,35.25-.08,1.63-1.39.8-1.58.64-11.94-10.56-16-30.22-17.14-33.45a3.08,3.08,0,0,0-3.35-1.76c-1.34.27-2.68.56-4,.88a123.91,123.91,0,0,1-62.58-1.55"/>
    <path class="cls-1" d="M573.12,434.51a88.21,88.21,0,0,1-16.74,25.68,8.9,8.9,0,0,1-7.31,3c-18.47-1-14.57-1.08-33.06-1.08s-14.6.07-33.07,1.08a8.91,8.91,0,0,1-7.31-3,88.62,88.62,0,0,1-16.74-25.68c-.95-2.18.17-4,2.82-4.16,6.83-.44,43.68-1.12,54.3-1.12s47.46.68,54.3,1.12c2.64.17,3.76,2,2.81,4.16"/>
    <path class="cls-1" d="M365.36,529.36c2.92-2.85,5.87-5.69,8.79-8.58A83.7,83.7,0,0,0,390,499.39c3.55-7,3.53-6.91,4.39-6.19,2.31,1.9,5.88,17.16,6.74,22.24a38.82,38.82,0,0,1-.47,16.31c-.5,2-.92,4-1.49,6a139.92,139.92,0,0,0-5.21,36.5c-.13,6.51-.22,13-.36,19.53a2.92,2.92,0,0,1-2.65,2.58c-1,.06-2.05.13-3.07.13-2.06,0-4.11-.07-6.17-.05-6.17.06-12.34.12-18.43,1.29-1.05.2-2.88-1.15-3.15-2.18a12.8,12.8,0,0,1-.48-2c-.81-8.57-1-17.1,1.34-25.5.74-2.64,1.37-5.31,2.12-7.94a68.45,68.45,0,0,0,2.29-22.39c-.14-2.73,0-5.47,0-8.35"/>
    <path class="cls-1" d="M478,291.59c-9,.76-13.45-2.19-16-6.78a38.1,38.1,0,0,1-4.36-14.64c-1.15-10.83-.45-12.12,9.06-16.8A100.8,100.8,0,0,1,485,246.91a97.86,97.86,0,0,1,30.49-3.1c4.46.22,8,1.95,10.4,5.6a52.91,52.91,0,0,1,8.23,21.9,11.69,11.69,0,0,1,0,2.05,4.67,4.67,0,0,1-2.36,4.27,65.47,65.47,0,0,1-7.3,3.66c-15.06,5.9-30.68,8.95-46.52,10.3"/>
    <path class="cls-1" d="M246.19,626.32a13.09,13.09,0,0,1,3.33-.21,68.09,68.09,0,0,1,20,7.84c2.13,1.29,2.77,2.69,2,5.15-2.08,6.87-4.11,13.76-6.37,20.58a31.33,31.33,0,0,0-1.51,10.1,10.27,10.27,0,0,0,3,7.42c5.8,5.94,12.13,11.06,20.3,13.45a28.09,28.09,0,0,1,4.76,1.85,8.69,8.69,0,0,1,2.3,2c1.68,1.88,1.09,5.21-1.1,6.12A33,33,0,0,1,280,703.5a181.54,181.54,0,0,1-19.49-.77c-5.42-.63-10.93-.57-16.4-.83a15.47,15.47,0,0,1-6.94-1.51c-3.5-1.89-5.8-5.51-5.15-9.21a67.91,67.91,0,0,1,2.3-8.92c1-3.26,2.29-6.44,3.49-9.65a66.14,66.14,0,0,0,4.12-17.93c.78-9.53,2.78-18.88,4.3-28.36"/>
    <path class="cls-1" d="M317.45,548.08a10.11,10.11,0,0,1-.71,7,41,41,0,0,1-6.29,10.55c-1.31,1.57-2.69,3.1-4.09,4.6-5.17,5.52-10.06,11.22-12.46,18.59-6,10.42-10.13,21.69-15,32.61a48.09,48.09,0,0,1-2.85,5.41,2,2,0,0,1-1.72.67,19.9,19.9,0,0,1-3.74-1.54,65.17,65.17,0,0,0-20.3-6.87c-2.1-.3-3.1-1.65-2.77-3.52a38.2,38.2,0,0,1,1.13-5,98.81,98.81,0,0,1,10.61-22.16c3.95-6.4,7.92-12.8,11.81-19.25a19.75,19.75,0,0,1,4.64-5.41,90.55,90.55,0,0,1,27.72-15.26c5.09-1.69,7.52-1.71,14-.43"/>
    <path class="cls-1" d="M497.69,707.17a11.62,11.62,0,0,1-2.89.55c-12.29-.69-24.59-1.45-36.87-2.21a2.34,2.34,0,0,1-2-2.93c.66-1.93,1.4-3.84,2.09-5.77a71.8,71.8,0,0,0,4.39-22c.35-10.67-.1-21.22-3.76-31.4a8.25,8.25,0,0,1-.2-2,3.47,3.47,0,0,1,3.69-1q5.5,1.18,11,2.23c6.43,1.2,12.93,1.28,19.36,2.16.77.11,2,1.58,1.81,2.21a18.27,18.27,0,0,1-.54,2c-3,7.83-3.38,16-3.21,24.26a81.86,81.86,0,0,0,5.46,27c.82,2.22,2.16,4.31,1.63,7"/>
    <path class="cls-1" d="M576.7,707.6c-2.26.11-4.65.32-7,.34q-15.46.09-30.94.08a1.88,1.88,0,0,1-1.89-2.7c.6-1.23,1.22-2.46,1.86-3.67,4.64-8.63,6.69-18,7.51-27.65a51.54,51.54,0,0,0-2.78-20.28c-.72-2.23-2.39-4.23-1.91-7,1.33-.16,2.67-.45,4-.48a111.24,111.24,0,0,0,25.39-3.92,15,15,0,0,1,3.92-.21,1,1,0,0,1,.7.68,11.16,11.16,0,0,1-.16,3.06,105.25,105.25,0,0,0-3.7,29.55c.1,10,1.3,19.86,5.47,29.15a3.49,3.49,0,0,1-.45,3.07"/>
    <path class="cls-1" d="M538,352.91c4.43.26,8.87.47,13.3.81a3.27,3.27,0,0,1,2.9,2.57c1.35,5.65,2.69,11.3,2.72,17.17,0,8,.29,8.94-8.37,8.16-14.14-1.28-27.09,2.43-39.05,9.9-.87.54-1.7,1.14-2.57,1.68-2.2,1.35-3.62.9-4.85-1.59a119.77,119.77,0,0,1-8.81-24,4.75,4.75,0,0,1,2.11-5.33c5.53-3.65,11.84-5.31,18.16-6.73A95.73,95.73,0,0,1,538,352.91"/>
    <path class="cls-1" d="M575.21,327.16c.83,8.81-8.74,17.53-15.5,20.16a2,2,0,0,1-1.77-.41,1.92,1.92,0,0,1-.35-1.79c1.39-2.34,2.89-4.64,4.48-6.85,1.18-1.65,2.57-3.15,3.83-4.75.13-.18.46-1.24,0-1.58s-1.37,0-1.84.15c-2.92,1.07-5.56,3.39-8.75,4.09a1.43,1.43,0,0,1-1.76-1.09c.07-1.33,6.46-8.19,8.6-10.84.53-.66.42-1.18-.47-1.52a1.26,1.26,0,0,0-1,.14,20.7,20.7,0,0,0-2.53,1.7c-1.6,1.29-3.11,2.69-4.72,4-1,.84-2.21,1.59-3.67,1.15-.83-.25-1-2.32-.23-3.81a55.67,55.67,0,0,1,7.08-11.3,13.45,13.45,0,0,0,2-3.39c.34-.85-.67-.94-.84-.91a3.64,3.64,0,0,0-1.59.83c-2.43,1.89-4.79,3.87-7.22,5.76-.87.67-3.93-.81-3.48-2.83.54-4.2,7.51-12.85,10.29-16.32,1.08-1.36,3-1.31,4.53-.13,6.73,5.32,13.91,19.54,14.86,29.57"/>
    <path class="cls-1" d="M475.54,399.91c-3.82-7.18-4-15-3.78-22.85.11-3.7,1.05-7.38,1.74-11a2,2,0,0,1,3.1-1.46,21.32,21.32,0,0,0,9.46,3.48c2.09.21,3.24,3.31,1.63,4.75-3.21,2.88-3.55,6.38-3.28,10.24a55.79,55.79,0,0,0,1.85,12.1,17.23,17.23,0,0,1,.44,5,2,2,0,0,1-1.16,1.5,17.59,17.59,0,0,1-10-1.75"/>
    <path class="cls-1" d="M514.56,401.1c-.89-.14-1.89-.26-2.88-.46-.26-.05-.67-.38-.65-.55.06-.62.07-1.45.46-1.78a20.13,20.13,0,0,1,3.35-2.27c10-5.48,20.89-8.11,32.21-9a7.61,7.61,0,0,1,2.89.78c.22.08.35.58.41.91a1.05,1.05,0,0,1-.14.81,6.24,6.24,0,0,1-1.54,1.32,86.88,86.88,0,0,1-34.11,10.2"/>
    <path class="cls-1" d="M541.9,284c.47-.32,2.25.53,2.64.78a26.07,26.07,0,0,1,7.44,6.87,3.12,3.12,0,0,1-.17,3.77,28.51,28.51,0,0,1-3.69,3.43c-.74.63-1.41-.12-1.64-.51-2.33-3.84-5.71-13.55-4.58-14.34"/>
    <path class="cls-1" d="M569.24,425.71H462.78a4.2,4.2,0,0,1-4.19-4.17v-1.3a4.2,4.2,0,0,1,4.19-4.18H569.24a4.19,4.19,0,0,1,4.18,4.18v1.3a4.19,4.19,0,0,1-4.18,4.17"/>
    <path class="cls-1" d="M601.2,625.94c-13.08,5.7-63.83,10.68-85.19,10.68s-72.11-5-85.2-10.68-17.16-134.43-2.74-142.46c18.8-10.46,57.05-16.75,87.94-16.75s69.13,6.29,87.93,16.75c14.43,8,10.35,136.76-2.74,142.46"/>
  </g>
</svg>
