<svg id="Livello_1" data-name="Livello 1" xmlns="http://www.w3.org/2000/svg" viewBox="0 0 841.89 841.89">
  <defs>
    <style>
      .cls-1 {
        fill: #231f20;
      }
    </style>
  </defs>
  <title>Glos</title>
  <g>
    <path class="cls-1" d="M443.68,446.12c-4.24-10.39-3.38-28.37,2.64-40.39,7.34,2.3,14.59,5.85,22.74,2.59a35.44,35.44,0,0,0,17.76-15.41,58.64,58.64,0,0,1,37.85,20.34,19.47,19.47,0,0,1,4.33,9.66c8.73,66.87-26.94,121.87-79.45,144.29a55.69,55.69,0,0,1-45.47-.13c-28.61-12.37-48.94-33.5-62.78-60.92-11.28-22.36-16.71-46.41-18.18-71.4a13.57,13.57,0,0,1,3.22-9.92c5.48-6.79,12.81-10.64,21.11-13.87,13.77,12,28.29,16.08,44,2a86.11,86.11,0,0,1,15,39c-2.27,1.16-4.21,2-6,3.1-6.24,3.75-8.93,10-6.92,15.82,1.88,5.47,8.34,8.65,15.47,7.77a72.78,72.78,0,0,1,9.21-.59c1,0,2,1,3,1.47l-23.69,17.23c2.95,5.6,7.73,5.82,12.57,5a74.54,74.54,0,0,0,11-3.31c2-.69,3.89-1.22,4.9,1.11s-.68,3.76-2.58,4.31c-6.37,1.87-12.8,3.49-20,5.41-.48,3.2,1.78,6.14,4.63,8.73a27.42,27.42,0,0,0,17,7c9.79.66,19.28-1.09,27.3-7.09,5.42-4.06,9.74-9.16,8.33-17.08-3.38.66-6.38,1.43-9.43,1.79a36.82,36.82,0,0,1-8.58.23c-2.16-.25-5.34-.32-4.95-3.83.32-3,3-2.59,5.09-2.65,3.12-.1,6.29.18,9.36-.25,4.8-.66,9.66-1.64,10.94-8.46-9.07-1.59-16-9.11-26.38-8.56.78-4.45,3.74-5.06,7.26-5.13,2.83,0,5.81.15,8.45-.66,9.68-3,12.22-13.76,4.55-20.35C453.74,450.13,449.16,448.84,443.68,446.12Z"/>
    <path class="cls-1" d="M541.39,440.75c-1.37-5.59-3.07-10.57-3.76-15.68-2.1-15.53-5-30.82-11.19-45.31C524,374,521,368.54,518,362.47a7.83,7.83,0,0,1,1.18-1.82c23.44-23.21,51.57-35.47,84.63-35.7A63.67,63.67,0,0,1,633,331.84c8.81,4.42,15,11.09,17.92,20.59,4.44,14.55,6.38,29.07-.45,43.57-.64,1.35-.46,4.25.47,5,2.16,1.65,4.11.08,5.06-2.15,1.76-4.12,3.34-8.33,5-12.52,5.83,7.71,12.09,15.24,17.45,23.37,2.84,4.3,4.26,9.57,6,14.5,1,2.69,1.22,5.64,2.06,8.39,1.74,5.68,5.08,9.71,11.38,10.65a21.43,21.43,0,0,1,4.15,1.62c-3.3,5.81-8.68,6.7-13.83,6.19-14.38-1.45-25.52-8.53-32.76-21.82l10,4.65c3.34-3.14,3.75-4.45.77-6.3-3.39-2.1-7.27-4.27-11.1-4.6a57.83,57.83,0,0,0-17,1.25c-7.19,1.56-11.54-.52-12.88-7.91-1.12-6.14-1.7-12.37-2.76-18.52-1.22-7-3.87-13.28-9.44-18.16-7.72-6.76-16.45-7.62-25.6-4.24-11.44,4.22-20.17,11.92-26.33,22.47-1.83,3.13-2.24,5.88,2.65,7.32,1-1.48,2.07-3,3.07-4.53a44,44,0,0,1,16.74-15.5c15.48-8.05,30-1,33,16.16,1.21,6.86,1.89,13.81,3.12,20.66,1,5.61,2.47,11.14,3.88,17.33-3.07,2.1-6.82,4.58-10.47,7.21-1.55,1.11-3.29,2.3-4.17,3.89-.62,1.12-.26,3.13.35,4.41.24.48,2.69.5,3.65-.08,2.25-1.34,4.14-3.28,6.3-4.79,7.62-5.35,15.76-8.83,25.41-8.63,13.16.26,22.84,6.25,28.23,17.78,7.9,16.93,6.31,34.14-1.39,50.82a19.41,19.41,0,0,1-6.18,6.84c-3.42,2.54-5.88,1.22-6.33-3.07-.59-5.62-1-11.26-1.45-17.2,2.11.22,2.82,2.62,4.34,4.24a5.1,5.1,0,0,0,4.25.93c.64-.15,1.47-2.74,1-3.61-1.18-2.26-2.61-4.83-4.67-6.1a52.72,52.72,0,0,0-12.32-5.68,62.51,62.51,0,0,0-34.1-.87,63.54,63.54,0,0,1-12.78,2c-12.64.58-22.3-5.84-26.8-17.69-2.48-6.5-4.16-13.33-7-19.66-4.26-9.56-13.23-13.43-23.2-10.75C545.16,439.55,544,439.94,541.39,440.75Z"/>
    <path class="cls-1" d="M169,396c3.71-6.89,6.87-13.66,10.85-19.89,3.33-5.2,7.07-10.4,11.66-14.42a24.43,24.43,0,0,1,12.35-5.18A63.71,63.71,0,0,1,247.29,366c1.42.9,2.73,2.15,4.27,2.64,1.13.36,3.48.08,3.69-.51.48-1.28.53-3.6-.28-4.31a68.35,68.35,0,0,0-8.31-5.67c-1.52-1-3.13-1.82-4.78-2.77,6.7-4.07,13-7.94,19.28-11.67a13.32,13.32,0,0,1,4.64-1.77c9-1.38,17.94-2.6,27.62-4,4,5.83,10.22,9.33,17.75,12.18,5.58,2.12,10.71,5.84,16.8,6.18-2.83,10.78-5.89,20.88-8.1,31.16-2.83,13.19-3.5,26.64-3.48,40.14a23.33,23.33,0,0,1-2.52,10.21,73.86,73.86,0,0,1-22.81,26.57c-12.47,9-26.83,11-41.84,9.81-5.41-.43-10.85-.6-16.5-.9a13.47,13.47,0,0,1,1.85-3c6.84-7.17,13.9-14,24.22-16,1.1-.21,1.83-2.28,2.73-3.48-1.09-.79-2.26-2.33-3.25-2.22a29,29,0,0,0-9,2.1,55.1,55.1,0,0,0-20.08,16.1c-4.75,6-8.7,12.62-13,19-1.47,2.17-2.7,4.58-4.5,6.44-3,3.14-6.72,3.56-10.49,1.45-3.14-1.76-6-4.1-9.2-5.61s-6.65-2.21-11-3.59c4.3-2.61,7.77-4.27,12-3.72,2.06.27,4.37-.09,3.87-2.69-.26-1.37-2.43-3.4-3.68-3.36-3.74.13-7.76.45-11.13,1.92-12,5.24-21.16,13.95-27.91,25.18-1,1.61-1.87,3.25-2.78,4.83-8.16-3.28-12.76-10.53-11.27-18.75a32.42,32.42,0,0,1,4.55-11.18c4.32-6.87,10.7-11.63,18-15.1,3.25-1.55,6.57-3,9.94-4.2,13.68-5,19.65-15.32,20.27-29.33.08-1.66,0-3.33,0-5.52,16.37-6.37,32.29-13.89,49-18.61,10.61-3,22.41-1.59,33.65-2.58,5.92-.53,11.77-1.95,17.65-3a11.52,11.52,0,0,0,2.76-.81c1.87-.86,3.64-2.2,2.21-4.36-.67-1-2.71-1.63-4.05-1.52-2.1.18-4.1,1.41-6.21,1.71-5.46.77-10.94,1.46-16.44,1.83-8.87.59-17.76.8-26.63,1.35-8.55.54-16.37,3.78-23.88,7.51a212.68,212.68,0,0,1-51.6,17.64c-5.4,1.12-10.82,2.1-16.23,3.14a11.38,11.38,0,0,1-1.42.24c-5.25.29-10.65-2.26-11.7-5.5-1-3,1.54-6.92,6.7-10.09,10.85-6.68,22.29-8.42,34.43-3.95,2.34.86,5.35,3.15,6.82-.3,1.64-3.83-2.21-4.88-4.79-5.69C178.61,398.13,173.89,397.21,169,396Z"/>
    <path class="cls-1" d="M536.68,606.07c-1.46,3.13-3,5.42-3.5,7.92-.29,1.4,1.05,3.15,1.66,4.74,1.31-.78,3.3-1.25,3.83-2.39,3.74-8,10.48-13,17.57-17.6,14.06-9.22,33.2-3.42,41.24,8.09a80.07,80.07,0,0,1,10.06,19c4.94,14,9.29,28.28,16.44,41.45,1.21,2.23,2.61,4.75,0,7.58-3.69-.3-6.44-2.71-8.83-5.27q-7.86-8.43-15.25-17.3c-7-8.43-13.29-17.49-22.81-23.6l.81-1.59c3.32.78,6.61,1.71,10,2.25,1.38.23,3.46.12,4.23-.74,1.6-1.79.51-3.89-1.36-4.74a26.86,26.86,0,0,0-8.15-2.43c-11.55-1.12-21.67,3.19-31.29,9-2.88,1.72-5.6,3.73-8.32,5.71-7.6,5.57-15.86,6.55-24.55,3.31-5.16-1.93-10.21-4.19-15.17-6.6-11-5.38-22.35-10-34.57-11.88-4-.6-8.07-.58-11.12-.78-5.31,6.61-9.72,12.58-14.64,18.1-4.07,4.57-9.24,6.86-16.12,4.44a39.33,39.33,0,0,1,2.32-4.14c4.43-6.09,7.91-12.61,9.26-20.11a25,25,0,0,0,.61-4.27c0-2.42,0-5.27-3.29-5.37-2.93-.08-3,2.48-3.16,4.71-.54,9.6-5.15,17.31-11.28,24.35-4.53,5.19-10,6.56-16.21,3.8a43,43,0,0,1-9.16-5.59c-4.75-3.8-7.3-9.24-10.71-15.11,4.41,0,7.9-.08,11.37,0,1.42,0,2.87,1,4.2.75s2.9-1.14,3.19-2.12a3.82,3.82,0,0,0-1.59-3.38,19.06,19.06,0,0,0-6.89-1.76c-18.48-.82-35.75,3.17-51.34,13.44-4,2.64-7.89,5.5-11.94,8.07-8.33,5.29-17.33,8.14-27.33,7.35-3.09-.24-6.21,0-11.06,0A29.44,29.44,0,0,1,308,637.56c1.42-.18,3,.18,4.27-.35s3-1.7,3.27-2.9a2.86,2.86,0,0,0-3.21-3.7c-4.26.51-8.65,1-12.62,2.5-20.93,7.82-35.06,22.95-44.73,42.66a25.62,25.62,0,0,0-1.63,4c-1,3.3-3.3,4.66-6.52,4.46a6.27,6.27,0,0,1-6-5.31,30.29,30.29,0,0,1-.28-9.31c2.43-18.51,11.81-32.71,27.29-43,10.46-6.92,22.29-10.21,34.49-11.65a53.31,53.31,0,0,0,30.28-13.58c13.78-12.27,30.08-15.23,47.81-11.2a53.36,53.36,0,0,1,8.11,2.9c2,.82,4.19,1,4.65-1.33.26-1.33-1.06-4-2.27-4.41-4.89-1.86-10-4.09-15.07-4.34-6.92-.35-12.55-2.85-17.88-6.69-10-7.18-19.54-14.8-26.8-26.05l13.71-24.46c5,6,9.33,11.93,14.41,17.23,17.12,17.86,36.93,31.32,61.74,36.13a53.66,53.66,0,0,0,29-2.74c23-8.4,41.15-23.42,56.65-42,3.06-3.67,5.8-7.6,9-11.74,6,4.29,7.95,10.71,10.6,16.79,3.05,7,2,12.61-3.56,18.08-9.45,9.37-19.62,17.74-31.25,24.18-2.59,1.43-5.93,1.56-9,2.09-4.71.83-9.48,1.4-14.18,2.28a10,10,0,0,0-4.56,2c-1.08.93-2.26,2.81-2,4,.49,2.23,2.4,2.34,4.62,1.73a116.9,116.9,0,0,1,15.35-3.57c11.5-1.55,21.77,2.61,31.55,8C520.39,602.25,527.78,605.48,536.68,606.07Z"/>
    <path class="cls-1" d="M388.58,323.17c13.5,6.63,26.35,12.82,40.83,3.22,7.26,4.2,15.24,7.8,24.15,6.67,4.33-.56,8.45-2.79,13.6-4.59,1,1.29,2.74,3.48,4.36,5.78,8.67,12.3,20,21.16,33.77,27.25a17.57,17.57,0,0,1,7.15,5.49c6.94,10,10.73,21.25,13.17,33.1-6.12-3.41-11.72-7.17-17.8-9.82-16.51-7.19-33.58-7.51-50.65-2.23-14,4.32-21.77,14.11-23.68,28.71a75,75,0,0,0,3,32.71c1.27,4,3.16,6.76,8.17,6.31,2.16-.2,4.68.9,6.63,2.09,1.17.71,2.42,3,2.06,4.08a6.78,6.78,0,0,1-3.85,3.59c-1.69.6-3.79.24-5.69.06-4.89-.46-9.11.58-11.85,5-1.77,2.88-3.73,3.4-6.39,1.05-4.48-4-9.51-4-14.79-1.81-1.11.45-2.42,1.4-3.34,1.13-2.35-.7-5.34-1.4-6.57-3.15-1.62-2.31.85-4.33,2.78-5.83a5.94,5.94,0,0,1,2.49-1.4c6.57-.84,7.78-5.4,7.88-10.9.3-16.64-4.85-31.11-16.78-43a29.24,29.24,0,0,0-20-8.66,73.63,73.63,0,0,0-49.19,15c-1.08.82-2.22,1.56-4.05,2.84-1.11-8.59.24-16.14,2-23.39,2.7-10.91,6.44-21.56,9.77-32.32a9.81,9.81,0,0,1,6.71-6.8C360.23,347.17,376.06,337.94,388.58,323.17Z"/>
    <path class="cls-1" d="M282,476.83c15.78-5.41,24.88-17.6,34.92-30.58,1,5.72,1.8,10.11,2.51,14.52,3,18.41,8.73,35.91,18.08,52.06,2.37,4.08,2.63,7.51.29,11.33-5.13,8.4-10.23,16.81-15.49,25.12a10.8,10.8,0,0,1-4.06,3.94c-9.65,4.55-19.41,8.47-30.3,3.74-2.57-1.11-5.49-1.43-8.61-2.2-1.07-4.45-.24-8.84,1.64-13,1.65-3.68,4.22-6.28,8.5-7,2-.32,4-1.8,2.78-4a5.43,5.43,0,0,0-4.52-2.16c-5,.72-8.78,3.7-11.28,8.11a31.63,31.63,0,0,0-3.69,20.87C276,578.9,264.72,593.92,243,597c-4.52.64-9.06,1.09-13.61,1.43-17.24,1.31-29.06,10.7-34,27.26-1.16,3.87-2,7.81-3,11.42-3.67,1.48-5.79-.41-7.23-2.54-2.13-3.14-4.31-6.48-5.37-10.06-6.84-23.09,3-48.78,18.84-61.25,8.7-6.85,19.31-9.56,30.17-10.58,5.93-.55,12,.2,18,0,1.61,0,4.26-1,4.57-2,.75-2.59-1.42-3.77-3.82-4-6.18-.54-12.37-1-18.69-1.51-.54-8.39-1.16-17.34-1.67-26.31a22.06,22.06,0,0,1,.32-5.74c1.78-8.55,4-17.13,11.82-22.25,9.73-6.39,20.58-9.14,32.26-7.16a8.29,8.29,0,0,1,6.75,5.74,43.49,43.49,0,0,0,4.88,8.78,18.23,18.23,0,0,0,4.08,4c1.62,1.25,3.47,1.83,5.08-.13s.61-3.55-1.07-4.83c-4.65-3.56-6.63-8.72-8.37-14C282.39,481.49,282.39,479.53,282,476.83Z"/>
    <path class="cls-1" d="M618.09,299.87c-.58,6-4.09,8.83-9.06,10.11a53.43,53.43,0,0,1-28.5-.15c-18.3-5.28-35.7-12.73-51.63-23.32-2.59-1.71-4.71-4.14-7.34-5.77-1.09-.67-2.95-.09-4.46-.09.07,1.51-.45,3.52.33,4.41a38.09,38.09,0,0,0,7,6.15c13.51,9.38,28.46,15.89,43.81,21.56,2.21.82,4.43,1.62,6.5,2.38.79,4.3-2.28,5.32-4.76,6.55-8.63,4.29-17.73,3.71-26.78,2a48.53,48.53,0,0,1-21.34-10c-.74-.6-1.49-1.62-2.28-1.66a8,8,0,0,0-4.41.83c-.45.28-.14,2.77.56,3.7a19.87,19.87,0,0,0,4.31,3.78c6.9,5.07,14.49,8.17,26.68,10.82L522,346.51c-2-13.88-7.41-25.87-16.82-35.87s-20.93-16.7-34.37-22.14c.26-3.35,0-7,.9-10.31,4.86-18,15.9-30.92,32.81-38.79a28.58,28.58,0,0,1,21.75-1c12.44,4.13,25.31,5.28,38.3,5.79a32.64,32.64,0,0,1,7.82,1.1c20.27,5.93,40.4,12.3,59.2,22.14,5.72,3,11.11,6.66,16.53,10.19,2.92,1.91,5.19,4.39,4.25,8.36s-4.89,8-9,8.19a117.33,117.33,0,0,1-17.29-.21c-12.92-1.33-25.68-3.74-37.78-8.56-4.37-1.75-8.41-4.47-12.34-7.12-1.78-1.19-3.55-2.46-4.87-.57-.78,1.12-.59,4.18.35,5,3,2.65,6.3,5.53,10,6.76,10.44,3.48,21.13,6.17,31.72,9.16C614.69,299.08,616.26,299.42,618.09,299.87Z"/>
    <path class="cls-1" d="M375.42,291.34c-11.05,7.14-21,14.91-32.76,20.13-7.51,3.33-14.44,8.62-20.62,14.16-4.85,4.35-8.15,10.42-12.31,16-5.2-1.56-5.2-1.56-9.28-7.77l5.71-3.78c7.93-5.21,14.89-11.42,19.47-19.87a46.79,46.79,0,0,0,3.11-8c.68-2.12-.06-4.2-2.31-4.38-1.14-.1-2.84,1.45-3.57,2.68-2.44,4.08-3.87,9-6.91,12.47-12.25,14.17-28.1,21.33-46.79,22.06-5,.2-9.49-1.08-13.41-6.24,2.52-1,4.58-1.83,6.66-2.61A113.11,113.11,0,0,0,305,298.62c1.84-1.91,5.45-4.06,2.42-7.06s-5.06.84-6.87,2.65C285.73,309,268.25,319,247.83,323.68a73.18,73.18,0,0,1-15,1.88c-5.92.09-10.7-2.56-13.13-8.33-1.84-4.36-1.19-5.78,3.53-7.27a145.93,145.93,0,0,0,45-23.6c1.33-1,2.87-2,3.67-3.36a4.51,4.51,0,0,0-.18-3.79c-.37-.65-2.32-1.07-3.13-.68a34.86,34.86,0,0,0-5.35,3.61c-15.09,11-31.13,20-49.94,22.74a148.34,148.34,0,0,1-18.64,1,8.91,8.91,0,0,1-8.88-6.16c-1.43-3.85.59-7,3.16-9.74,4.75-5.05,10.86-7.94,17.29-10q27.76-8.79,55.65-17.21c17.88-5.44,35.87-10.52,53.69-16.15,16.2-5.12,29-1.14,38.73,12.92,2.46,3.54,4.58,7.33,6.8,11,2.09,3.5,3.93,7.18,6.22,10.54S372.42,287.55,375.42,291.34Z"/>
    <path class="cls-1" d="M538.9,453c5,8.31,9,15.35,13.38,22.17,7.79,12.18,17.52,21.59,35,21.07-4.06,3.07-6.9,4.8-9.23,7.06-4.46,4.33-8.7,8.89-12.88,13.5-1.41,1.57-1.66,3.85.5,4.87,1.06.5,3.2-.21,4.28-1.08,1.65-1.32,2.71-3.35,4.19-4.92,11.72-12.5,26-20.92,43-23,21-2.57,29.94,7.39,32.74,24.84,1.37,8.5-.36,16.59-4.34,24.39a86,86,0,0,0-6.21,16.73c-1.28,4.76,0,9.59,2.65,13.79a10.41,10.41,0,0,0,4,4c1.44.64,3.45,0,5.2-.13a20.34,20.34,0,0,0-1.13-4.47c-1.27-2.48-3.59-4.64-4.15-7.22-.67-3.09.06-6.48.24-11.38,5.84,5.92,10.27,10.66,12.81,16.86A53.78,53.78,0,0,1,663.16,594c-.57,9.51-5.24,16.83-12.5,22.58a17.46,17.46,0,0,1-6.45,3c-4.55,1.16-8.07-1.12-9.09-5.73a43.78,43.78,0,0,1-.74-7.15,17.58,17.58,0,0,0-8.74-14.88,102.3,102.3,0,0,0-11.44-6c-11.77-5.2-16.85-14.33-16.47-26.94.15-5,0-10.07,0-15.48,3.77-2.16,8-2.24,12.29-2.15,1.68,0,3.42.61,5,.29,1.39-.28,2.6-1.47,3.88-2.26-1.1-1.32-2.15-3.71-3.3-3.77a92.53,92.53,0,0,0-16.48.43c-8.39,1.14-16.14,4.44-23.44,8.75a48.28,48.28,0,0,1-29,6.49c-8.45-.66-11.15-3-13.64-11.06-2.7-8.79-6.64-16.94-13.69-23.68A145.34,145.34,0,0,0,538.9,453Z"/>
    <path class="cls-1" d="M415.58,157.64c8.8,5.87,17,11.23,25.1,16.79,14.09,9.67,26,21.27,32.71,37.46,3.89,9.43,5,19,1.51,28.78-4,11.12-12.9,17.33-24.76,17.14-8.2-.13-16.33-.21-23.92,3.74-1,.53-2.77.21-4-.27-6.49-2.63-12.81-1.66-18.87,1.06a11.82,11.82,0,0,1-9.62.12c-15.27-5.57-24.83-18.86-24.9-35.25,0-10.2,1.14-20.18,7.05-29C386.79,182.15,401.17,169.54,415.58,157.64Z"/>
    <path class="cls-1" d="M600.09,218.15c-7.91,7.46-17.62,11.22-28,14-15.24,4.09-30.25,3.46-45.44-.39-15.85-4-29.26,1.23-40.9,12-1.68,1.53-3.37,3.12-5,4.69,2.37-14.65,8.09-27.28,19.88-36.3a27,27,0,0,1,10.46-4.36,86.54,86.54,0,0,0,30.29-12.72c10-6.8,20.39-8.18,32-3.61,6.8,2.67,14.43,3.21,21.71,4.51,2.62.48,5.35.39,6.65,4.27-5.35,6.89-12.06,12.33-21,14.61-2.59.7-6,.94-5,4.52.91,3.27,4.21,2.76,6.71,1.65,5-2.26,9.9-4.69,14.68-7.31,2-1.11,3.79-2.8,6.1-4.6C604.85,213.55,602.44,216,600.09,218.15Z"/>
    <path class="cls-1" d="M386.92,270.09l-9.59,13.39c-2.11-2.83-4.24-5.33-5.95-8.06-3.52-5.72-6.53-11.79-10.29-17.36-7.49-11-17.11-19.58-30.68-22.16a54.59,54.59,0,0,0-14.28-.57c-14.53,1.14-26.14-5-36.33-14.38-4.75-4.39-5-8.39-2-14.74,7.07,3.94,14.11,7.91,21.15,11.82a30.21,30.21,0,0,0,5.83,2.71c.87.24,2.77-.42,3-1.11.45-1.15.45-3.1-.24-3.94-1.21-1.39-3.07-2.23-4.73-3.19-6.82-3.94-13.65-7.79-21.23-12.12,6.74-7.31,14.2-8.78,21.87-6s15.09,3.94,23.15,1.93c5.93-1.47,11.4.45,15.88,4.75,10.11,9.68,17.33,21,20.45,34.83A96.11,96.11,0,0,0,366.8,249C370.47,258.63,377.12,265.64,386.92,270.09Z"/>
    <path class="cls-1" d="M450.35,295.88c6.38-2.69,12.88-1.37,19,.34,18.7,5.23,32.72,16.51,41.48,34a36.7,36.7,0,0,1,4.09,17.32c-.1,4.46-1.76,6.17-6.19,5.8a16.09,16.09,0,0,1-6.7-2.14c-9.35-5.52-18-12-24.36-20.92-4.88-6.81-9.22-14-14.35-20.62C459.58,304.81,454.94,300.68,450.35,295.88Z"/>
    <path class="cls-1" d="M374.91,299.55c2.75,6.28,5.22,11.95,8.2,18.76-1.62,1.67-3.56,4.5-6.2,6.26-10.77,7.2-21.59,14.37-32.74,20.94-5.86,3.45-12.74,4.16-19.57,3.63-5.82-.46-8.37-4.1-5.75-9.32,2-4,4.74-8.05,8.19-10.75a108.18,108.18,0,0,1,19.9-12.75c8.29-3.94,16.31-8.07,23.39-13.95A39.76,39.76,0,0,1,374.91,299.55Z"/>
    <path class="cls-1" d="M419.3,269.2c.65,4.75-2.39,8.09-4.86,11.48a64.32,64.32,0,0,1-6.86,7.36c-4,4-3.89,5.07.95,7.74a32.16,32.16,0,0,1,13.59,14.43c3.24,6.63,1.44,10.76-5.78,12.12-17.94,3.39-34.55-12.56-31.41-29.65C387.72,277.46,401.54,264.65,419.3,269.2Z"/>
    <path class="cls-1" d="M417.76,288.45c3-5.76,5.54-10.85,8.25-15.86a9.39,9.39,0,0,1,2.73-3.17c8.86-6.26,23-7.77,33.08,1.87,3.68,3.53,6.34,7.75,4.7,13.12-.77.41-1.28.92-1.58.81-5.73-2-10.56,0-15.55,2.74-5.55,3-11.37,4.46-17.95,2.3C427.22,288.87,422.49,289,417.76,288.45Z"/>
    <path class="cls-1" d="M420.37,295.61c14.74.61,26.7,4.75,36,15.11a15.64,15.64,0,0,1,3.23,6.27c1.66,6.32-.45,9.2-7,9a50.59,50.59,0,0,1-13.25-2.3c-4.94-1.53-8.46-4.45-9.5-10.41-.75-4.27-3.66-8.18-5.74-12.18A61.36,61.36,0,0,0,420.37,295.61Z"/>
  </g>
</svg>
