<svg id="Livello_1" data-name="Livello 1" xmlns="http://www.w3.org/2000/svg" viewBox="0 0 841.89 841.89">
  <defs>
    <style>
      .cls-1 {
        fill: #231f20;
      }
    </style>
  </defs>
  <title>Glos</title>
  <g>
    <path class="cls-1" d="M219.55,422.31c-1.1,1.95-2.36,3.84-3.27,5.88-7.66,17.1-18.79,31.88-30.91,46a307.63,307.63,0,0,1-65.23,57.44,47.73,47.73,0,0,1-11.08,5.07c-4.54,1.51-8.06.55-9.53-2.07-2-3.5-.14-6.56,1.89-9.13,2.52-3.2,5.18-6.53,8.45-8.85,24.44-17.44,41.59-41.52,59.36-65,9.18-12.12,17.88-24.63,26.25-37.33,6.09-9.25,11.58-18.95,16.82-28.72A96.54,96.54,0,0,1,238.8,354c19.46-14.87,41.16-24.09,65.82-26.28a124.61,124.61,0,0,1,77.7,18,15.07,15.07,0,0,1,5.07,4.63c10.63,17.73,24.26,33,38.84,47.42,16.49,16.34,32.88,32.79,51.51,46.81a391.62,391.62,0,0,0,110.48,58.73,37.59,37.59,0,0,0,5,1.49c3.1.59,5.25-.45,5.65-2.7.48-2.74-1.39-3.71-3.58-4.46-5.15-1.78-10.34-3.47-15.4-5.48-34.66-13.76-66.23-33-96.22-55-24.62-18-48.2-37.37-67.91-60.75-19.19-22.75-31-49.18-32.2-79.29-1.1-27,10.14-48,33.49-62,5.82-3.49,12.21-6,18.38-8.88a15.6,15.6,0,0,1,3.9-1.2c4.49-.82,6.7,1,6.85,5.5A17.92,17.92,0,0,1,441.88,243c-10,11.49-11,25.13-9.35,39.15a93.87,93.87,0,0,0,5.23,20.29c5.13,14.37,15.26,24.28,29.17,30.28,22.7,9.8,45.48,19.41,68.18,29.19,6.44,2.77,12.72,5.91,19.11,8.78,8.53,3.82,17.21,7.31,25.61,11.37,11.21,5.42,22.41,10.91,33.26,17s19.25,15.36,25.94,25.76a62.64,62.64,0,0,1,9.78,43,43,43,0,0,1-12.34,25.29c-1.77,1.79-3.67,3.47-6.13,5.77,1.73,1.64,3.27,3.27,5,4.68a167.76,167.76,0,0,1,36,39.75,98.09,98.09,0,0,1,8.95,17,54.24,54.24,0,0,0,25.64,29.23c4.4,2.36,9.36,3.68,14.11,5.37,5.3,1.88,10.87,3.17,15.93,5.56,8.25,3.87,9.47,11.3,3.6,18.6-6-12.08-6.09-12.16-10.62-10.59a101,101,0,0,1,4.53,9.31c2.14,5.73.92,7.72-5.77,9.74-.48-7.26-2.1-14.06-8.25-18.67-2.64.73-2.63,2.11-1.59,4a27.89,27.89,0,0,1,3.26,15.34c-8.51,2.74-16.66.62-24.79-1.14-3.6-.78-7.08-2.13-10.69-2.94-10-2.26-17.66-7.76-23.72-15.92-6.32-8.49-11.93-17.43-15.83-27.24-6.21-15.65-17.12-27.75-28.67-39.41-5.33-5.38-11.15-10.29-17.1-15.73-1.52,3.15-2.77,6.11-4.33,8.88-7.22,12.81-17.47,22.87-29.08,31.66-1.71,1.29-3.53,2.44-5.28,3.67-4.19,3-5.76,7-5.7,12.12a8.83,8.83,0,0,0,6.35,8.85c3.82,1.36,7.87,2.16,12.05.92a70.34,70.34,0,0,1,8.56-1.81,17,17,0,0,1,14.68,4.15A32.11,32.11,0,0,1,609,619.5c0,1.93,0,4.07-3.22,4-2.8-5.59-2.85-12.82-8.68-17.4-3.32,3.3.21,5.51.66,8,.47,2.63,1.4,5.18,2.26,8.21l-3.83.37c-2.25-4.72-4.22-9.06-6.47-13.25-.27-.51-2-.25-3.25-.36,1.4,4.26,2.69,8.07,3.86,11.92a7.13,7.13,0,0,1-.24,2.4,12.86,12.86,0,0,1-3,.44c-10.65-1.07-21.35-1.83-31.92-3.47-7.14-1.1-13.72-4.3-19.68-8.54-8.47-6-12.45-14-11.55-24.62a85.06,85.06,0,0,1,12.48-37.94c5.31-8.64,5.6-9.39,5.94-19.49,6.32.42,12.64,1.24,19,1.16a174.05,174.05,0,0,0,19.72-1.67,14.29,14.29,0,0,0,6.39-2.7,5.18,5.18,0,0,0,1.74-4.32c-.46-2-2.47-2-4.37-1.4a93.45,93.45,0,0,1-9.55,2.57c-9.94,1.94-19.81.76-29.61-1.14-19.29-3.72-38.68-7.11-57.49-12.91a633.34,633.34,0,0,1-96.8-39.22c-2.26-1.13-4.41-2.5-6.58-3.8-3.68-2.19-7.26-4.58-11-6.61-9.2-4.93-18.26-10.38-29.3-10.29,4.35-13.3,18.26-24.1,31.46-24.68,4.81-.21,9.22,1.24,13.51,3.22a34,34,0,0,1,3,1.74c2,1.19,3.84,1,5.09-1s.18-3.71-1.53-5a27.92,27.92,0,0,0-13.91-5.68c-15.65-1.5-28.36,4.39-37.79,16.67a54.59,54.59,0,0,0-11.5,33.74c0,7.19-2.46,13.78-5.38,20.19-3.72,8.14-7.8,16.13-11.29,24.37a21.41,21.41,0,0,0-2,10.13c.93,8.7,2.54,17.34,4.13,26a24.7,24.7,0,0,0,6.92,12.64c4.72,4.93,9.39,9.92,13.8,15.12,6.5,7.66,14.44,10.31,24.45,9.36,8.85-.85,17.75-2.66,26.76-.78,9.82,2,16.35,7.77,19.95,17,1,2.51,1.58,5.09-1.26,7.84-4-9-9.34-16.06-18.64-18.92-1.83,2.17-.31,3.17.75,4.23,2.74,2.76,5.76,5.29,8.22,8.29a34.93,34.93,0,0,1,4.29,7.57c1,2.13.24,3.78-2.72,4.46-2.15-6.65-6.25-11.87-12.89-14.58-2.17-.88-4.41-2.72-7-1.17-.63,2.65,1.6,2.9,2.92,3.82,2.85,2,6,3.7,8.54,6,1.77,1.61,2.8,4,4.66,6.87-2.5.6-4.12,1.37-5.71,1.3-6.6-.31-13.33-.18-19.74-1.51-8.35-1.73-16.49-4.55-24.64-7.15a77.68,77.68,0,0,1-25.43-14.11C310.08,586,297.69,578,285.07,570.16c-4.26-2.64-8-6.22-11.67-9.67-5.83-5.44-7.19-12.14-3.44-19.14a196.25,196.25,0,0,1,12.3-19.81c4.26-6.08,5.53-12.3,3.17-19.33-1-3.11-2.77-5.58-5.86-6.89-10.11-4.28-17.26-11.95-23.26-20.75-12.59-18.47-20.17-38.64-19.68-61.32a83,83,0,0,1,1.13-9.26c.33-2.35,1-4.85-2.15-5.81-2.28-.7-3.93.91-4.73,4.69A64.73,64.73,0,0,0,230,425c3.44,25.48,13.4,47.89,31.41,66.5a13.47,13.47,0,0,1,1,1.44c-2.57,1.66-5.08,3.42-7.72,5a364.73,364.73,0,0,0-31.87,20.63c-8.63,6.37-14.07,14.21-15.17,24.55-1.18,11-1.5,22.15-1.75,33.25-.13,5.73,3.7,9.47,9.67,9.38,5.8-.09,11.59-1.2,17.39-1.85,2.32-.26,4.63-.64,7-.73,9.12-.33,15.72,4.61,17.65,13.55a42.47,42.47,0,0,1,.6,9.84c-.05,2.15-1.51,3-4,2.07-.16-6-.34-12.26-5.12-17.19-2.64,1.3-2,2.9-1.39,4.93a46.85,46.85,0,0,1,1.66,9c.2,2.06-.82,3.71-3.61,4.33-1.3-5.73-2.53-11.47-7.39-15.27-.63-.49-1.67-.46-3.91-1,1.78,3.53,3.31,5.88,4.17,8.44s1.15,5.52,1.74,8.6a18.94,18.94,0,0,1-3.61.48c-11-1.07-22.13-1.92-33.11-3.46a32.38,32.38,0,0,1-11.35-4.38,20.45,20.45,0,0,1-10.58-16.62c-1.24-16-3.82-31.73-8.94-47a9.05,9.05,0,0,1-.32-1.13c-3.52-15.11.4-24.34,14.86-29.92,12.26-4.74,21.14-13.25,29.12-22.75,7.48-8.9,10.9-19.52,8.69-31.58-1.64-9-2.5-18.13-3.73-27.21-.2-1.47-.52-2.91-.79-4.36Z"/>
    <path class="cls-1" d="M612.38,360.73c-7.24-3.14-11.49-8.43-14.91-14.44a76.22,76.22,0,0,1-9.74-41,118,118,0,0,1,2.57-18.45c1.69-8.6,3.91-17.09,5.71-25.67.56-2.65,1.38-4.54,4.48-4,12.85,2.17,25,6,34.86,15.11,2.52,2.33,4.49,5.26,7.24,8.53L631,285.9a65.87,65.87,0,0,0-5.89-4.32c-7.72-4.4-16.48-1.36-19.84,6.87a18.66,18.66,0,0,0,.49,15.34c1.48,3.22,3.69,3.7,6.61,1.73,1.28-.88,2.41-2,3.64-2.94,16.49-12.9,35.09-19.86,56.12-20.29a17.29,17.29,0,0,1,13.49,5.76c9.94,10.27,12.34,27.56-.36,41.84-2.22,2.5-4.87,2.07-5.68-1.12-.59-2.34-.26-5,0-7.45.11-1.3,1.09-2.51,1.35-3.83.63-3.11-.47-4.93-3.6-5.5a20.68,20.68,0,0,0-6.38-.14c-13.52,1.84-25.19,7.87-35.7,16.29-4.51,3.61-4.74,6.42-1,10.91,5,5.91,11.36,10.09,18.17,13.55,4.67,2.37,9.59,4.27,14.42,6.33,2,.85,4.25,1.51,3.87,4.33-.35,2.64-2.33,3.18-4.67,3.42a51.3,51.3,0,0,1-20.8-2c-5-1.61-9.93-3.45-14.76-5.52-6.32-2.7-12.37-3.53-18.12,1.58"/>
    <path class="cls-1" d="M563.75,281.84c3,4.49,4,8.07,3.57,12.77A104.68,104.68,0,0,0,583.4,362c3.08,4.86,7.58,8.82,11.47,13.17,1.11,1.24,2.34,2.36,3.43,3.45-1.82,3.27-3.67,1.37-5.24.7-11.27-4.79-22.5-9.66-33.74-14.52q-12.86-5.56-25.68-11.14c-1.76-.77-3.49-1.61-5.91-2.73l36-69.11"/>
    <path class="cls-1" d="M614.2,378.48c-4.62-.51-8.21-3.23-11.69-6-11-8.78-17.79-20.54-22.61-33.51a93.93,93.93,0,0,1-6.13-37.83c.28-5.55.24-10.87-3.14-15.68-.83-1.19-1-2.86-1.42-4.29,5.91-2,12.34-1.79,17.06.61-.86,3.36-1.92,6.71-2.56,10.14-4.65,24.87.75,47.25,17.3,66.56,3.24,3.78,7.46,6.82,11.5,9.84,4.4,3.29,4.86,4.86,1.69,10.16"/>
    <path class="cls-1" d="M587.47,276.23l-4.42-1.4a11.1,11.1,0,0,1,.21-2.37c3.27-10.17,3.87-20.65,3.35-31.2-.18-3.76,0-7.93-4.1-10.39-3.83,1.34-4.32,4.88-5.12,8a100.14,100.14,0,0,0-2.74,29c.08,2.11,0,4.23,0,6.82l-6.54.71a21.19,21.19,0,0,1-1.14-4c-1.05-13-.12-25.68,4.47-38,2.06-5.53,4.74-10.7,9-14.91,3.53-3.52,5.93-3.21,8.07,1.28a30.53,30.53,0,0,1,2.62,8.32c2.38,15.61,1.22,31.07-2.5,46.38a8.26,8.26,0,0,1-1.13,1.78"/>
    <path class="cls-1" d="M634.39,263l-6.27-3.46c2.51-3.48,5.19-6.6,7.19-10.11,2.88-5.06,5.41-10.33,7.82-15.64a12.87,12.87,0,0,0,.94-5.68c-.12-2.83-2-3.85-4.39-2.36a22.82,22.82,0,0,0-5.24,4.57,78.88,78.88,0,0,0-12.62,21c-.52,1.23-1,2.48-1.68,4.1l-11-4.17c8.58-13.85,17.41-26.83,30.91-35.83,2.87-1.91,6.11-4.29,9.67-2.34,3.81,2.08,2.58,6.14,2.48,9.55a24.8,24.8,0,0,1-.94,5.15c-3.16,12.66-9.35,23.84-16.87,35.26"/>
    <path class="cls-1" d="M639.16,332.65c1.89.19,3.11,0,4.09.45,13,5.47,26.85,6.16,40.55,7.83a43.2,43.2,0,0,1,8,1.46c3.08,1,3.53,3.56,1.16,5.86a17.8,17.8,0,0,1-14,4.89,62.15,62.15,0,0,1-34.49-12.93c-2.21-1.72-4.71-3.42-5.37-7.56"/>
    <path class="cls-1" d="M624.34,289.11l-13.27,9.36c-1.61-5.68-.49-9.6,3.21-11.76,3.12-1.83,6-1.22,10.06,2.4"/>
  </g>
</svg>
