<svg id="Livello_1" data-name="Livello 1" xmlns="http://www.w3.org/2000/svg" viewBox="0 0 841.89 841.89">
  <defs>
    <style>
      .cls-1 {
        fill: #231f20;
      }
    </style>
  </defs>
  <title>Glos</title>
  <path class="cls-1" d="M236.53,191.23c1.48,0,4.57-3.18,9.47-2.54,10.2,1.32,12.47,15.1,13.15,25.28a2.87,2.87,0,0,1-5.65.85c-.59-2.58-1.23-5.59-3.77-7.83-7.47-6.58-21.58-3-25.47,5.75a4.75,4.75,0,0,0,2.76,6.37l40.88,14.71a3,3,0,0,0,3.6-1.36,6.88,6.88,0,0,0,.61-5.34c-3.74-12-.63-29.59-9.06-39.36-15.21-17.64-27.69,1.09-44.6-14.66l-14.9-14.85a6.08,6.08,0,0,1,.22-8.84c40.7-36,88.13-4.39,105.12,41.87,13.19,35.88,9.14,76.12,27.41,110.19,22.13,41.26,74.41,57.47,113.07,80,44,25.71,85.4,58.07,125.12,90.59,5.44,4.45,4.21,9.26-2.79,8.58L537.85,477a99.18,99.18,0,0,0-17.4.62c-6.57,1.11-11.19,1.41-16.47,2.8-2.77.73-4.5,6.66-.75,9,5.46,3.09,22-1.49,30.29-1.37,47.15.73,119.57,19.94,158.82,46.42,35,23.62,39.57,57.73-11.75,55.18-39.48-2-75.63-33.23-117.1-33.63-57.62-.57-80.51,6-126.62-3.43-44.69-9.13-83.65-29.4-117.49-59.27a4.17,4.17,0,0,0-6.35,5.28c1.71,2.8,3.17,5.58,4.79,7.26,47.09,48.87,121.77,70.63,193.69,67.34,24-1.09,58.29-2.55,82.56,4.44,17.18,4.94,34.79,14,53.74,18.94,5.49,1.42,15.23,3.27,20.81,4,10.68,1.49,16.28,3.27,21.93,12.46a215.44,215.44,0,0,0,22.67,30.87c3.24,3.63,14.84,13.5,23,21.78,6.62,6.73,2.74,18.51-6.65,19.42-17,1.67-38.37-12.5-51.34-20.68-3.63-2.3-16-13.19-23.89-17.73a2.81,2.81,0,0,0-3.84,3.83c4.71,8.35,13.71,15.52,21,20.66A113.6,113.6,0,0,0,697.07,685c8.69,3.19,9.81,15.15,1.56,19.36-4.58,2.34-9.54,3.7-13.11,3.7-11.3,0-29.16-16.26-37.59-24.12-6.11-5.71-24.59-27.31-26.18-27.77s-2.83,1.48-2.61,3.4c1.46,12.8,14.76,23.28,24.55,33.11,4.72,4.75-1.49,12.41-7.06,8.7-9.57-6.35-15.92-19.27-23.5-27.38-12.2-13-35.49-38.57-50.31-46.24-44.42-23-95,5.47-142.73,7.75-167.58,8-246.91-77.32-238-242.8,1-18.59,6.46-39.44,7.32-57.86,1.44-30.94-6.77-62.43-21.27-89.78a3.24,3.24,0,0,1,4.71-4.19,135.79,135.79,0,0,1,11.79,9.47C210,272.39,244,310.8,253.31,343.42c2.88,10,4.81,25.64,4.91,33.72,0,3.42,7.31,5,8.66-2.45,8-44-50.74-110.66-90.77-142.36-13.22-10.48-72.56-42.78-73.68-54.5a8.86,8.86,0,0,1,1.78-6.41,4.81,4.81,0,0,1,7.6-.06c10.47,13,28.72,28.73,42.57,19.09a2.49,2.49,0,0,0-1.69-4.53c-15.31,2.28-25.79-6-36.15-18.8a4,4,0,0,1,1.73-6.28c33-12.65,65.26-12.49,90.35,11.08a10.51,10.51,0,0,1-2.54,17,1.18,1.18,0,0,0,.53,2.24c10,0,20,.28,29.92,0"/>
</svg>
