<svg id="Livello_1" data-name="Livello 1" xmlns="http://www.w3.org/2000/svg" viewBox="0 0 841.89 841.89">
  <defs>
    <style>
      .cls-1 {
        fill: #231f20;
      }
    </style>
  </defs>
  <title>Glos</title>
  <g>
    <path class="cls-1" d="M660,542.7A9.82,9.82,0,0,1,649,550a13.43,13.43,0,0,1-11.22-12.32A40.75,40.75,0,0,0,635.46,526a7.7,7.7,0,0,1-.1-5c1-3.26-2-5.91-4.1-6.57a19,19,0,0,0-7.61-.75,44.29,44.29,0,0,0-9.21,1.81c-7.38,2.43-15.13,2.94-22.8,3.06-5.93.08-11.9-1-17.84-1.77-7.07-.85-14.11-1.85-21.18-2.78a1.64,1.64,0,0,0-2,1.12c-.42,1.39.34,2,.87,2.2,3,1,22.69,3.84,29.47,4.74,10.87,1.45,21.6,1.25,32.21-1.72,2.19-.61,4.4-1.2,6.57-1.87a20.43,20.43,0,0,1,9.29-.63c1.34.2,2.34,2.27,1.48,3.33-1.43,1.75-3,3.39-4.51,5.06-.61.69-.75,2.54.46,3.14.73.35,1.64-.26,2.47-.39,1.66-.27,2.84.43,3.15,1.95a42.25,42.25,0,0,1,.52,4.2,2,2,0,0,1-1.49,1.82c-2,.23-90.6,2.77-102.58,2.69a43.44,43.44,0,0,1-18.25-3.84c-8.93-4.15-14.2-11.16-16.5-20.57-1.31-5.3-1.28-10.53-1.13-16,.08-3.13-1.44-13.29-2-15.28-.43-1.55-2.62-2.83-4-1.55-1.54,1.47.26,6.18.41,6.74,2.45,9.1,1.09,18.77,1.78,28.15.06.84-.94,1.71-1.64,1.44-1.07-.41-2.1-.87-3.18-1.25-3.21-1.15-6.38-2.44-9.65-3.37a93.56,93.56,0,0,0-21.94-3.21q-17.52-.72-35.05-1.16c-12-.29-23.95-.41-35.93-.63-2.55,0-5.1-.13-7.66-.2-6.85-7.86-16-9.58-25.57-9.89a57.18,57.18,0,0,0-16.07,2.07,59.67,59.67,0,0,1-15.26,1.4c-8.34,0-16.43-1.8-24.36-4.13a193,193,0,0,1-22.48-8.09,52,52,0,0,1-6.69-3.71,7.74,7.74,0,0,1-3.35-4.81,7.25,7.25,0,0,1-.05-3.34,12.72,12.72,0,0,1,5.37-7.49c3-2.11,6.15-4.13,9.38-5.94a84.15,84.15,0,0,0,22.3-18.45c8.77-10.06,14.88-21.48,17.47-34.71,3.55-18.1-.26-34.53-11-49.39-8.08-11.15-18.88-18.91-31.42-24.28A93,93,0,0,0,227.84,331a3,3,0,0,0-1.58.54,2.3,2.3,0,0,0-.44,1.36.76.76,0,0,0,.39.62,8.11,8.11,0,0,0,2.39.72c3.42.14,6.84,0,10.26.23A92.63,92.63,0,0,1,280.17,347a69.08,69.08,0,0,1,18.24,15.35,55,55,0,0,1,13.17,32.75c.53,8.06-1.14,15.88-3.93,23.45a85,85,0,0,1-17.6,28.08,94,94,0,0,1-21,17.46,43.74,43.74,0,0,0-9.4,7.35c-5.8,6.14-4.44,12.93,1.17,18a26.3,26.3,0,0,0,4.27,2.82,56.77,56.77,0,0,0,14.11,6c8.49,2.34,16.91,5,25.62,6.53a78.46,78.46,0,0,0,27.21.22,82,82,0,0,1,23-.9c6.12.67,10.71,3.49,13.69,8.94,2.37,4.33,3.91,8.86,3.54,13.87a5,5,0,0,1-3.3,4.56,18.57,18.57,0,0,1-6.63,1.55c-6.57.1-94.08,6.64-94.64,6.71a27.28,27.28,0,0,1-16.47-3.19c-6.84-3.51-13.87-6.65-20.76-10.06a43.56,43.56,0,0,1-6.54-4c-5.77-4.28-8.88-10.31-10.62-17.09a82.9,82.9,0,0,1-1.65-8.39c-.78-5.35-1.38-10.74-2.17-16.09-.34-2.24-1-4.43-1.45-6.67a11.82,11.82,0,0,0-3.08-6c-1.74-1.88-3.52-3.74-5.19-5.69-9-10.5-16-22.17-19.91-35.53-6.3-21.57-4.28-42.29,6.7-62A93.31,93.31,0,0,1,216,333.36c6.67-4.56,19.29-12.33,51-10.5,14.21.81,29.81,6.05,38.4,8.1a24,24,0,0,0,4.25.36c16,.75,107.7,2.27,109.51,2.43a35,35,0,0,0,6,11.46A20,20,0,0,1,429,359.72c-.36,4-.76,7.95-1.34,11.89-.43,3,.3,7.78,2.38,9.63.76.67,3,1.24,3.35-1.18.74-5.13,3.87-8.72,7.13-12.35,2.67-3,5.31-6,7.77-9.1s6.63-5,8.91.72c1.48,3.69.38,8.2,2.25,11.7,2.42,4.57,7.7,2.43,10.64-.23,4.45-4,4.41-4.71,8.34-.08a4.25,4.25,0,0,0,2.09,1.34,3.52,3.52,0,0,0,2.37-.43,7,7,0,0,0,1.57-2c2.79-4,5.54-7.94,8.38-11.87.46-.64,1.08-1.65,1.9-1.56,1.44.16.76,2.29.26,3.31-1,2-2.14,4-3.27,6a14,14,0,0,0-1.57,7.42c.06,4.57,3.48,9.28,9.49,8.78,4.5-.37,9.1-.52,13.47-2.09,1.69-.62,4.84-2.77,5.57-.75.23.67-.53,1.23-.94,1.55A41.49,41.49,0,0,0,508,392.24a33.55,33.55,0,0,1-7.43,9.32,9.32,9.32,0,0,0-1.1,1.3,2.39,2.39,0,0,0,1.21,3.46,11.12,11.12,0,0,0,6.73-.39c1.59-.62,3.07-1.49,4.61-2.23,1.28-.62,2.57-1.21,3.86-1.81a1.54,1.54,0,0,1,1.82,1.17c.29,4.53-1.42,8.39-4.05,11.88-1.54,2.05-3.42,3.83-5,5.86a3,3,0,0,0-.4,2.37,2.77,2.77,0,0,0,2.47,2.07c3.12.12,6.25.14,9.37.2a1.86,1.86,0,0,1,1.55,1.69c-.19,6-.61,12-3.84,17.31a4.53,4.53,0,0,0-.3.8,3.54,3.54,0,0,0,3.5,4.63,13.1,13.1,0,0,0,8.71-2.91c2-1.59,3.41-6.47,5.78-5.16,1.31.72-.9,8.9-.87,12.62a48.64,48.64,0,0,1-.75,10.21,35.25,35.25,0,0,1-4.71,11.85c-.62,1-1.19,1.95-1.79,2.92a2.87,2.87,0,0,0,2.59,4.21c8.84,0,15.38-5.73,19-12.88,2.19-4.31,4.3-8.68,6.49-13,.64-1.25,1.39-2.46,2.14-3.66,1.18-1.88,1.92-.19,2.1.18,3.59,7.55,3.58,15.43,1.95,23.41a41.13,41.13,0,0,1-1.68,5.75c-2.61,7.27-1.2,14.06,2.59,20.48,1.58,2.68,3.56,5.14,5.37,7.68a1.6,1.6,0,0,0,2.27,0c.95-1.4,1.84-2.84,2.72-4.28s1.52-1.47,3.48-.59c.27.12.5.29.75.43a3,3,0,0,0,3.89-.54,6.87,6.87,0,0,1,6.17-2.21c1.41.12,2.85.08,4.27.17,15.95,1,31.92,1.29,47.9,1.6a38.4,38.4,0,0,1,10.17,1.09,8.67,8.67,0,0,1,6.71,7.89,4,4,0,0,1,.08.85,35.38,35.38,0,0,0,2.82,15A19.15,19.15,0,0,1,660,542.7"/>
    <path class="cls-1" d="M586.89,424.5c-1,2.27-2,4.33-2.89,6.4a51.7,51.7,0,0,0-3.63,11.36,26.24,26.24,0,0,0-.08,11c.32,1.39.56,2.79.75,4.21.7,5.24.09,10.22-2.88,14.76-1.24,1.91-2.38,3.89-3.51,5.87-2.91,5-4.75,10.33-4.07,16.29a29.31,29.31,0,0,1,0,5.13,6.69,6.69,0,0,1-.71,2.41,2,2,0,0,1-1.2,1.1,1.81,1.81,0,0,1-1.42-.63,17,17,0,0,1-3.62-13.61c.25-2,.86-3.88,1.31-5.83a80.29,80.29,0,0,0,2.49-17.73A19.85,19.85,0,0,0,566,456.9c-.58-1.3-1.11-2.63-1.56-4a17.22,17.22,0,0,1,.67-13.28,84.85,84.85,0,0,1,9.77-16c1-1.35,2.28-2.57,3.21-4a3.12,3.12,0,0,0,.22-2.28c-.22-.79-2.41-1.08-3.08-.53a14.07,14.07,0,0,0-1.91,1.69,75.57,75.57,0,0,0-13.91,23.37,17,17,0,0,1-3.22,5.91c-2.14,2.34-3.45,5.2-4.81,8-2.23,4.62-4.54,9.2-7,13.72a13.23,13.23,0,0,1-7.39,6.74c-2,.69-1.13-2.49-.92-3a45.57,45.57,0,0,0,2.88-17.6c0-.86-.06-1.71,0-2.57a21.73,21.73,0,0,1,4.7-13.46c.89-1.11,1.83-2.18,2.69-3.32a9,9,0,0,1,4.91-3.21,5.36,5.36,0,0,0,2.14-1.24,1.92,1.92,0,0,0,.21-1.58,1.82,1.82,0,0,0-1-1.2,15.63,15.63,0,0,0-10,.66,24.79,24.79,0,0,0-9.56,7c-2,2.35-3.76,5-6.48,6.75a2,2,0,0,1-1.57.22,1.55,1.55,0,0,1-.78-1.23,17.65,17.65,0,0,1,.6-3.37,46.2,46.2,0,0,0,1.67-13.53c-.22-6.05,3.32-9.59,8.31-11.72,3.07-1.32,6.41-2.52,10-1.55,2.84.83,4.44-3.24,1-4.12-7.1-1.79-13.54.58-19,5.47-1.91,1.72-5.65,6.22-8.59,6.77-2.73.51-2.36-.29-1.23-2a30.72,30.72,0,0,0,5.79-15c.54-4.26,3-6.64,7-7.59,2.76-.66,5.59-1.05,8.37-1.66.44-.1.83-.68,1.15-1.12s-.52-1.77-1.23-1.93a10,10,0,0,0-1.66-.39c-3.73-.2-7.4,0-10.88,1.59-4.39,2-8.81,4-13.21,6-.64.29-1.15.24-1.48-.32a1,1,0,0,1-.09-.77c3.49-7.44,8.32-13.55,16.33-16.55a16.39,16.39,0,0,0,3.76-2,10.38,10.38,0,0,0,2.28-2.48,3.64,3.64,0,0,0-2.18-5.41,11.39,11.39,0,0,0-5.91.08c-1.9.57-3.77,1.29-5.62,2a88.24,88.24,0,0,1-14.8,4,8.63,8.63,0,0,1-2.53-.09.77.77,0,0,1-.51-.46c-.1-.25-.18-.66,0-.83a13.78,13.78,0,0,1,2.22-2.52c2.26-1.74,4.63-3.32,6.94-5a29,29,0,0,0,11.9-19.09,39.88,39.88,0,0,1,2.49-9,9,9,0,0,1,3.83-4.47,8.66,8.66,0,0,1,2.41-.73,2,2,0,0,1,1.95,1.27c.27,2.83.24,5.66,1.1,8.44a17.59,17.59,0,0,0,4.78,8,3.51,3.51,0,0,0,3.91.94,14.85,14.85,0,0,1,8.27-1.52,2.63,2.63,0,0,1,2.2,2.25c.08,1.42.15,2.85.15,4.27a69.09,69.09,0,0,0,1.34,13.58,41.48,41.48,0,0,0,13.68,24,23.92,23.92,0,0,1,6.19,8c.61,1.29,1.33,2.52,1.92,3.82a75.63,75.63,0,0,0,10.17,16.76"/>
    <path class="cls-1" d="M661.87,332.25a31.51,31.51,0,0,0-13-3.74A27.83,27.83,0,0,0,634.68,331a19,19,0,0,0-6.2,4.47c-4.93,5.34-6.11,11.44-3.3,18.17a57.92,57.92,0,0,0,2.84,5.25,1.61,1.61,0,0,1-.63,2.18c-2.52,1.29-4.74,4.28-7.84,4-1.54-.16-7.56-4-8.26-5.66-.36-.84.29-1.72.59-2.46,2.66-6.68,1.07-13-2-18.94a19.08,19.08,0,0,0-16.31-10.84,32.31,32.31,0,0,0-15.06,2.29,49.59,49.59,0,0,0-9.68,5.4c-1.86,1.3-4,5-5.79,4.25-1-.43-.6-1.9-.38-2.5a81.88,81.88,0,0,1,6.18-13.13c1-1.71,1.9-3.51,2.82-5.27.32-.63-.13-2-.81-2.16a3.55,3.55,0,0,0-2.39.12,8.79,8.79,0,0,0-2.12,2.62,91.61,91.61,0,0,0-9.54,21c-.57,1.91-1.23,3.79-1.84,5.62-1.16,1.17-2.63.94-4,1.12a33.53,33.53,0,0,0-5.83,1.11c-3.68,1.2-4.75-.35-6-2.94-1.14-2.39-1.11-5-.93-7.56a20,20,0,0,1,5.74-13,16.35,16.35,0,0,1,11.49-4.93c.85,0,1.69-.17,2.92-.31,1.47-1.78,3.06-3.76,4.69-5.7a58.2,58.2,0,0,1,39-20.89c14.7-1.73,28.29,2,40.44,10.53,10.06,7,17.26,16.48,22.31,27.6.33.71.74,1.89.16,2.5s-2,0-3-.57"/>
    <path class="cls-1" d="M646.68,354.7a13.88,13.88,0,0,1-13.92-6.44,3.91,3.91,0,0,1-.11-4.08,11.41,11.41,0,0,1,9.4-6.44c5.66-.58,10.7.68,14.91,4.7,1.83,1.75,3.75,3.41,5.72,5.2-.6.8-10.94,6.43-16,7.06m-65.53-1.45c-3-.8-5.73-2.32-7.13-5.76,2.1-2,4.1-3.93,6.19-5.81a15.73,15.73,0,0,1,14.2-3.75,12.31,12.31,0,0,1,9.28,7.84,3.15,3.15,0,0,1-.51,3.18,10.34,10.34,0,0,1-6.08,4.31,33,33,0,0,1-16,0m82-14.66A26.45,26.45,0,0,0,644,333a19.4,19.4,0,0,0-12.19,5.45c-3.93,3.89-5.72,11.46-.79,17,1.13,1.28,2.4,2.43,3.51,3.71a10.24,10.24,0,0,1,2.46,9.5,15.24,15.24,0,0,1-.48,1.63,1.51,1.51,0,0,0,1,2c1.82.77,3.82,1.18,5.55,2.09,4.83,2.55,7.95,6.36,8.16,12.06C651.34,389,646.31,398,645,399c-2.67,2.07-5.7,3.59-8,6.32-1.16,1.41-3.32,2.2-5.18,2.8A43.47,43.47,0,0,1,605,408a11.72,11.72,0,0,1-5.82-3.45,25.3,25.3,0,0,0-5.87-4.87c-4.16-2.81-5.91-6.75-5.57-11.73a15.67,15.67,0,0,1,1.59-5.71c4-8.37,11.63-9.07,12.21-11.34,1.34-5.17-.37-5.32,1.85-8.89,1.34-2.19,2.81-4.31,4-6.58a10.47,10.47,0,0,0,1.16-4,17.87,17.87,0,0,0-.31-5.11c-1.56-7.22-5.47-12.46-12.9-14.46a19.24,19.24,0,0,0-10.13.13c-10.64,2.88-18.71,9.42-25.33,17.95a7,7,0,0,0-1.25,3.12c-2.13,15.32,1,29,13.14,39.48A28.93,28.93,0,0,1,578.9,402q2,4.23,4.18,8.42c.92,1.77,1.85,3.54,2.91,5.23a21.22,21.22,0,0,0,13.35,9.88,54.14,54.14,0,0,0,26.17.06,15.72,15.72,0,0,0,8.65-5.11,76.23,76.23,0,0,0,6.3-8.08c3.21-5,6.11-10.28,9.15-15.42.56-1,3.43-6.6,4-7.79A205.37,205.37,0,0,0,665.43,360a51.72,51.72,0,0,0,2.62-9.83c.77-6.74.81-7.19-4.86-11.55"/>
    <path class="cls-1" d="M650.83,407.58c1.9,7,1.61,14.1.25,21.13a26.28,26.28,0,0,1-5.15,10.7,61.29,61.29,0,0,1-4.4,5.24,72.37,72.37,0,0,0-13.35,18.72,2.87,2.87,0,0,1-2,1.22c-1.13.12-2.66-2.18-2.24-3.11a12,12,0,0,1,1.14-2.26c2.19-3,4.4-6,6.7-8.87A66.83,66.83,0,0,0,641,434.07a17,17,0,0,0,.73-3.27c.11-.62-.91-1.83-1.57-1.75s-1.29.13-1.52.47a30.91,30.91,0,0,0-2.52,4.44,62.28,62.28,0,0,1-9.85,15.94c-.56.65-1,1.37-1.58,2-4.75,5.52-9.29,14.37-9.62,20.65-.5,9.43-3.67,10.18-7.11,14.45-2.68,3.33-3,10.5-7.55,10.32-2.6-.09-7.19-8.41-6.46-10.09s4.77-8.7,5.84-10.39a34.09,34.09,0,0,0,5.69-17.68c0-1.7.25-3.41.43-5.11a19.28,19.28,0,0,1,3.68-9.44c1.67-2.31,3.26-4.67,4.87-7,1.26-1.85,1.22-4.65,3.56-5.64a23.92,23.92,0,0,1,5.78-1.39,23.66,23.66,0,0,0,15.1-8.89c2.89-3.52,5.41-7.34,8.1-11A23.59,23.59,0,0,1,649.1,408c.32-.32,1-.26,1.73-.41"/>
    <path class="cls-1" d="M575,490.47a15.92,15.92,0,0,1,1.59-5.86,58.85,58.85,0,0,1,3.13-6.06c1.09-2,2.29-3.94,3.37-5.94a23.91,23.91,0,0,0,2.73-14.86,32.41,32.41,0,0,0-.6-3.36c-2.07-8.52,0-16.33,4-23.84,1.1-2.08,2.53-2.78,4.9-1.9A78.63,78.63,0,0,0,609,432.07c2.29.38,2.7,1.4,1.34,3.51a68.05,68.05,0,0,1-3.87,5.61,21.54,21.54,0,0,0-5.11,14.16,35.47,35.47,0,0,1-7,21.54,50.07,50.07,0,0,0-6.11,12.16,24.46,24.46,0,0,1-8.72,11.28c-.29.22-1.13,0-1.53-.27a2.6,2.6,0,0,1-.93-1.39c-.75-2.73-2.12-5.39-2.11-8.2"/>
    <path class="cls-1" d="M606.91,375.51c6.49-.29,10,1.57,12.28,5.78a2.6,2.6,0,0,0,3.73.71c.94-.64,1.81-1.37,2.74-2,3.71-2.65,7.93-3,12.25-2.4a10.71,10.71,0,0,1,7.13,4.3c2.1,2.74,2.12,7.33,0,10.45a13.57,13.57,0,0,1-1.05,1.35c-3.73,4.26-11.59,7.41-18.68,3.79-2.38-1.22-3.83-3.33-5.41-5.33a2.51,2.51,0,0,0-3.11-.4c-.94.65-1.83,1.35-2.76,2a31.1,31.1,0,0,1-2.84,1.89,17,17,0,0,1-10.69,2.1c-5-.7-7.62-4.1-8.3-8.43a5.92,5.92,0,0,1,.25-2.5c1.88-6.44,6.62-9.64,12.81-11.1,1.09-.26,2.26-.23,1.61-.17"/>
    <path class="cls-1" d="M184.64,450.84c.85-.15,1.55,1.12,1.91,1.63,3.19,4.54,9.37,11.47,13.93,17.29,3.65,4.65,5.09,10.18,5.45,15.93.32,5.41,1.1,10.76,1.57,16.14,1,11.71,7,20.21,16.37,26.69a70.34,70.34,0,0,0,12.85,6.69q4.71,2,9.35,4.13a1.36,1.36,0,0,1,.67,2c-6.74.74-24.31,1.94-26.3,1.94a15.65,15.65,0,0,1-7.39-1.34,8.22,8.22,0,0,1-3.66-5.25c-.41-1.65-5.48-29.08-7.26-41.19a53.65,53.65,0,0,0-8.79-22c-4-6-7.88-14.1-9-19.31-.17-.81-.16-3.25.25-3.32"/>
    <path class="cls-1" d="M163.36,400.4a83.77,83.77,0,0,1,8.51-37.06A56.25,56.25,0,0,1,182,348.68a37.5,37.5,0,0,1,10.94-8,8.44,8.44,0,0,1,2.39-.76,2,2,0,0,1,1.47.52,1.91,1.91,0,0,1,.43,1.5,5.93,5.93,0,0,1-1,2.33c-1.19,1.59-2.5,3.09-3.8,4.59a83.44,83.44,0,0,0-20.22,45.26,82.59,82.59,0,0,0,5.58,41.82c.85,2.1,1.65,4.22,2.42,6.34.08.21-1,1.45-1.55,1-4.56-3.65-7.52-8.5-9.79-13.75a69.06,69.06,0,0,1-5.56-25.67c0-1.14,0-2.28,0-3.41"/>
    <path class="cls-1" d="M633.46,498.18c-1.68,2-8.44.31-7-6.08a33.75,33.75,0,0,1,2.3-6.38c1.69-3.7,2.74-7.51,2.11-11.56-.56-3.58.55-6.75,2-9.85a50.41,50.41,0,0,1,8.52-12.67,108.66,108.66,0,0,0,10.3-12.46,2.05,2.05,0,0,1,3.5,0c3.2,5,4.61,10.27,3.25,16.16a11.73,11.73,0,0,1-3.22,5.89c-2,2-4.11,3.91-6.18,5.86a46.16,46.16,0,0,0-14.17,24.69c-.46,2.2,0,4.84-1.4,6.44"/>
    <path class="cls-1" d="M509.26,333.47c4-.36,7.94-.87,11.88,0a1.6,1.6,0,0,1,1,2,51.82,51.82,0,0,0-4.74,15.38A17.29,17.29,0,0,1,511,361.64c-4.63,3.74-9.42,7.28-14.16,10.88a.85.85,0,0,1-.81.07c-.38-.35-.93-.85-.89-1.24a13.66,13.66,0,0,1,.84-4.1c1.16-2.58,2.67-5,3.89-7.57a6.25,6.25,0,0,0-.34-6.51,11.9,11.9,0,0,1-2.37-7.09c0-1.64-.86-3.26-1.27-4.91-.35-1.37-.66-2.75-.89-4.14a3.34,3.34,0,0,1,2.38-3.14,25.4,25.4,0,0,1,3.37-.4c2.84-.06,5.68,0,8.52,0"/>
    <path class="cls-1" d="M433.7,367.11c-1.83-1.11.25-4.9.86-6.78,1.64-5.08.17-9.51-2.71-13.66-1.94-2.81-4-5.51-5.89-8.36-.91-1.4-3.06-4.5-.84-5.15,10.32-3,15.35-2.54,24.77-1.33,1.3.16-.1,2.19-.63,3.17a23.26,23.26,0,0,0-3.08,13.93,11.33,11.33,0,0,1-2.84,8.67c-2.35,2.84-8.27,10.33-9.64,9.51"/>
    <path class="cls-1" d="M473.77,333.4c4.89-1.29,9.86-.55,14.89.05a8.36,8.36,0,0,1,1.14,2.43,24.31,24.31,0,0,0,2,7.33,9.64,9.64,0,0,1-1.29,9.65c-.65.93-1.21,1.92-1.88,2.83q-3.3,4.43-6.65,8.82a1.87,1.87,0,0,1-2.9-.26c-1.4-1.88-2.34-3.8-1.36-6.27a34.11,34.11,0,0,0,1.72-5.68,26.65,26.65,0,0,0,.46-5.05,6.51,6.51,0,0,0-2-4.57,14.64,14.64,0,0,0-2-1.54c-2.67-1.91-3.32-4.43-2.18-7.74"/>
    <path class="cls-1" d="M386.31,532.52l-4.36-.35c-5.57-.42-6.25-.18-5.82-6.4a29.69,29.69,0,0,0-1.44-10.85c-.22-.74.46-1.92,1.07-2,3.94-.35,7.79-.55,11.66.94,7,2.72,9.57,8.07,8.19,14.7a6.74,6.74,0,0,1-.82,2.37c-.44.65-1.2,1.44-1.87,1.49-2.24.19-4.5.07-6.61.07"/>
    <path class="cls-1" d="M665.54,400.76c-.82-2.46-1.49-4.93-2.47-7.27-.88-2.07-2.11-4-3.11-5.87a21.43,21.43,0,0,1,2.87-7.26,3.13,3.13,0,0,1,3-1.09c8.87,2.7,13.28,10.63,12.62,17.22a26.45,26.45,0,0,1-1.49,5.75c-.88,2.63-2,3-4.49,1.85-2.31-1.09-4.6-2.2-7-3.33"/>
    <path class="cls-1" d="M467.4,339.82c2.59,1.88,4,4.55,6.67,5.8a2.81,2.81,0,0,1,1,2.23c-.39,7.95-3,14.93-9.2,20.27-.49.42-1.95.28-2.21-.55s-2.05-10.29-3-15a8.42,8.42,0,0,1,1.34-6.49,20.64,20.64,0,0,1,5.42-6.24"/>
    <path class="cls-1" d="M663.94,448.57c-3.3-10.23-3.3-10.23-8.69-16.34.55-3.25,1.12-6.57,1.69-9.93a5.24,5.24,0,0,1,1.84,0,29,29,0,0,1,10.68,8.22c2.49,2.92,2.74,6.2,1.74,9.6a15.21,15.21,0,0,1-5.7,8.26c-.37.26-1,.12-1.56.16"/>
    <path class="cls-1" d="M621,468.64c9.2,0,5.86,14.86,1.09,20.18a12.23,12.23,0,0,0-2.79,12,2.39,2.39,0,0,1-.19,1.62,1.83,1.83,0,0,1-1.27.87,9.09,9.09,0,0,1-5.41-2.18c-2.46-1.79-4.52-5.48.39-11.15,9.91-11.43,6.15-21.29,8.18-21.3"/>
    <path class="cls-1" d="M646.31,489.36c-1.85,2.81-3.18,5.94-4.84,8.87-.18.32-1,.35-1.49.4-.14,0-.4-.34-.47-.57a14.73,14.73,0,0,1,1-10.71c2.92-6.51,6.53-12.54,12-17.31,1.91-1.68,3.79-3.4,5.84-4.9.42-.3,2.58-.24,2.29.51s-9.13,15.92-14.27,23.71"/>
    <path class="cls-1" d="M674.79,416.06a13.17,13.17,0,0,1-2.33,8.39,1.62,1.62,0,0,1-1.53.14c-1.2-.7-2.29-1.6-3.42-2.41l-6.8-4.87c-.25-3.31,2.23-5.57,3.29-8.39s2.5-2.81,5.35-1.28c3.61,1.95,4.94,5.14,5.44,8.42"/>
    <path class="cls-1" d="M450.88,347.51a16,16,0,0,1,4.54-13c2.76-2.85,6.11-4,10-2.85.28.08.42.87.51,1.35a1.29,1.29,0,0,1-.35.76,159.43,159.43,0,0,0-11.94,16.47c-.18.3-1,.42-1.47.27a2,2,0,0,1-1-1.15,9.7,9.7,0,0,1-.32-1.86"/>
    <path class="cls-1" d="M671,361c4.33,4.15,6.69,9,6.46,14.95-.09,2.15-1.45,3.17-3.2,2.37-2.29-1-4.58-2.07-6.86-3.12a2.23,2.23,0,0,1-1.42-2.68c1.08-3.18,2.14-6.36,3.33-9.5a8.45,8.45,0,0,1,1.69-2"/>
    <path class="cls-1" d="M656.67,410.49l-2.37-9.26a6.33,6.33,0,0,1,.46-4.09c.7-1.79,2-3,2.74-2.64a4.45,4.45,0,0,1,2,2.52c1.87,4.17,1.26,8.2-.82,12.07-.3.55-1.15.81-2,1.4"/>
    <path class="cls-1" d="M596.07,345.77a4.64,4.64,0,0,1-4.42,4.23,4.5,4.5,0,0,1-4.7-4.73c.22-2.37,2.16-3.87,4.69-3.8a4.73,4.73,0,0,1,4.43,4.3"/>
    <path class="cls-1" d="M645.24,350a4.14,4.14,0,0,1-4.61-3.77,4.26,4.26,0,0,1,4.54-4.72,4.09,4.09,0,0,1,4.22,4.16,4.26,4.26,0,0,1-4.15,4.33"/>
    <path class="cls-1" d="M614.47,368.17c0,1.3-1.8,2.34-4,2.34s-4-1-4-2.34,1.8-2.34,4-2.34,4,1.05,4,2.34"/>
    <path class="cls-1" d="M632.68,368.17c0,1.3-1.8,2.34-4,2.34s-4-1-4-2.34,1.8-2.34,4-2.34,4,1.05,4,2.34"/>
    <path class="cls-1" d="M625.73,375c0,1.29-1.79,2.34-4,2.34s-4-1.05-4-2.34,1.79-2.34,4-2.34,4,1.05,4,2.34"/>
    <path class="cls-1" d="M617.81,397.26c2.94,0,9.57,5.23,9.81,6.5s-6.47,3-10.55,3c-3.72,0-10.24-2.2-10.75-3.34s8.44-6.17,11.49-6.16"/>
  </g>
</svg>
